<?xml version="1.0" encoding="UTF-8" standalone="no"?>
<svg
   xmlns:dc="http://purl.org/dc/elements/1.1/"
   xmlns:cc="http://creativecommons.org/ns#"
   xmlns:rdf="http://www.w3.org/1999/02/22-rdf-syntax-ns#"
   xmlns:svg="http://www.w3.org/2000/svg"
   xmlns="http://www.w3.org/2000/svg"
   xmlns:sodipodi="http://sodipodi.sourceforge.net/DTD/sodipodi-0.dtd"
   xmlns:inkscape="http://www.inkscape.org/namespaces/inkscape"
   version="1.1"
   id="svg10"
   xml:space="preserve"
   width="511.11572"
   height="466.2948"
   viewBox="0 0 511.11572 466.2948"
   sodipodi:docname="defs_instrumentacion.svg"
   inkscape:version="1.0.2 (e86c8708, 2021-01-15)"><metadata
     id="metadata16"><rdf:RDF><cc:Work
         rdf:about=""><dc:format>image/svg+xml</dc:format><dc:type
           rdf:resource="http://purl.org/dc/dcmitype/StillImage" /><dc:title></dc:title></cc:Work></rdf:RDF></metadata><defs
     id="defs14"><clipPath
       clipPathUnits="userSpaceOnUse"
       id="clipPath28"><path
         d="M 0,0 H 595 V 841.9 H 0 Z"
         id="path26" /></clipPath><clipPath
       clipPathUnits="userSpaceOnUse"
       id="clipPath60"><path
         d="m 110.893,167.28 h 372.921 v 347 H 110.893 Z"
         id="path58" /></clipPath><clipPath
       clipPathUnits="userSpaceOnUse"
       id="clipPath88"><path
         d="m 110.893,514.28 v -347 h 372.921 v 347 z m 357.884,-31.478 h 4.755 v 1.889 h -4.755 v 0 l 3.778,-0.945 z m -291.833,1.889 h -4.755 v -1.889 h 4.755 v 0 l -3.779,0.944 z"
         clip-rule="evenodd"
         id="path86" /></clipPath><clipPath
       clipPathUnits="userSpaceOnUse"
       id="clipPath94"><path
         d="M 0,0 H 595 V 842 H 0 Z"
         id="path92" /></clipPath><clipPath
       clipPathUnits="userSpaceOnUse"
       id="clipPath106"><path
         d="m 110.893,167.28 h 372.921 v 347 H 110.893 Z"
         id="path104" /></clipPath><clipPath
       clipPathUnits="userSpaceOnUse"
       id="clipPath126"><path
         d="m 110.893,514.28 v -347 h 372.921 v 347 z m 56.069,-21.558 h 4.754 v 1.89 h -4.754 v 0 l 3.778,-0.945 z m -38.196,1.89 h -4.754 v -1.89 h 4.754 v 0 l -3.778,0.945 z"
         clip-rule="evenodd"
         id="path124" /></clipPath><clipPath
       clipPathUnits="userSpaceOnUse"
       id="clipPath132"><path
         d="M 0,0 H 595 V 842 H 0 Z"
         id="path130" /></clipPath><clipPath
       clipPathUnits="userSpaceOnUse"
       id="clipPath144"><path
         d="m 110.893,167.28 h 372.921 v 347 H 110.893 Z"
         id="path142" /></clipPath><clipPath
       clipPathUnits="userSpaceOnUse"
       id="clipPath164"><path
         d="m 110.893,514.28 v -347 h 372.921 v 347 z m 176.511,-66.91 h 4.755 v 1.889 h -4.755 v 0 l 3.779,-0.945 z m -110.46,1.889 h -4.755 v -1.889 h 4.755 v 0 l -3.779,0.944 z"
         clip-rule="evenodd"
         id="path162" /></clipPath><clipPath
       clipPathUnits="userSpaceOnUse"
       id="clipPath170"><path
         d="M 0,0 H 595 V 842 H 0 Z"
         id="path168" /></clipPath><clipPath
       clipPathUnits="userSpaceOnUse"
       id="clipPath182"><path
         d="m 110.893,167.28 h 372.921 v 347 H 110.893 Z"
         id="path180" /></clipPath><clipPath
       clipPathUnits="userSpaceOnUse"
       id="clipPath202"><path
         d="m 110.893,514.28 v -347 h 372.921 v 347 z M 467.36,447.37 h 4.754 v 1.889 h -4.754 v 0 l 3.778,-0.945 z m -171.391,1.889 h -4.755 v -1.889 h 4.755 v 0 l -3.778,0.944 z"
         clip-rule="evenodd"
         id="path200" /></clipPath><clipPath
       clipPathUnits="userSpaceOnUse"
       id="clipPath208"><path
         d="M 0,0 H 595 V 842 H 0 Z"
         id="path206" /></clipPath><clipPath
       clipPathUnits="userSpaceOnUse"
       id="clipPath220"><path
         d="m 110.893,167.28 h 372.921 v 347 H 110.893 Z"
         id="path218" /></clipPath><clipPath
       clipPathUnits="userSpaceOnUse"
       id="clipPath240"><path
         d="m 110.893,514.28 v -347 h 372.921 v 347 z M 468.777,400.6 h 4.755 v 1.889 h -4.755 v 0 l 3.778,-0.944 z m -172.808,1.889 h -4.755 V 400.6 h 4.755 v 0 l -3.778,0.945 z"
         clip-rule="evenodd"
         id="path238" /></clipPath><clipPath
       clipPathUnits="userSpaceOnUse"
       id="clipPath246"><path
         d="M 0,0 H 595 V 842 H 0 Z"
         id="path244" /></clipPath><clipPath
       clipPathUnits="userSpaceOnUse"
       id="clipPath258"><path
         d="m 110.893,167.28 h 372.921 v 347 H 110.893 Z"
         id="path256" /></clipPath><clipPath
       clipPathUnits="userSpaceOnUse"
       id="clipPath278"><path
         d="m 110.893,514.28 v -347 h 372.921 v 347 z M 467.36,424.693 h 4.754 v 1.89 h -4.754 v 0 l 3.778,-0.945 z m -171.391,1.89 h -4.755 v -1.89 h 4.755 v 0 l -3.778,0.945 z"
         clip-rule="evenodd"
         id="path276" /></clipPath><clipPath
       clipPathUnits="userSpaceOnUse"
       id="clipPath284"><path
         d="M 0,0 H 595 V 842 H 0 Z"
         id="path282" /></clipPath><clipPath
       clipPathUnits="userSpaceOnUse"
       id="clipPath296"><path
         d="m 110.893,167.28 h 372.921 v 347 H 110.893 Z"
         id="path294" /></clipPath><clipPath
       clipPathUnits="userSpaceOnUse"
       id="clipPath344"><path
         d="m 110.893,514.28 v -347 h 372.921 v 347 z m 149.526,-224.575 2.551,4.032 -1.606,1.008 -2.551,-4.032 v 0 l 2.834,2.678 z"
         clip-rule="evenodd"
         id="path342" /></clipPath><clipPath
       clipPathUnits="userSpaceOnUse"
       id="clipPath350"><path
         d="M 0,0 H 595 V 842 H 0 Z"
         id="path348" /></clipPath><clipPath
       clipPathUnits="userSpaceOnUse"
       id="clipPath362"><path
         d="m 110.893,167.28 h 372.921 v 347 H 110.893 Z"
         id="path360" /></clipPath><clipPath
       clipPathUnits="userSpaceOnUse"
       id="clipPath376"><path
         d="m 110.893,514.28 v -347 h 372.921 v 347 z m 87.841,-215.126 -3.023,-3.653 1.448,-1.197 3.023,3.622 v 0 l -3.118,-2.299 z"
         clip-rule="evenodd"
         id="path374" /></clipPath><clipPath
       clipPathUnits="userSpaceOnUse"
       id="clipPath382"><path
         d="M 0,0 H 595 V 842 H 0 Z"
         id="path380" /></clipPath><clipPath
       clipPathUnits="userSpaceOnUse"
       id="clipPath394"><path
         d="m 110.893,167.28 h 372.921 v 347 H 110.893 Z"
         id="path392" /></clipPath><clipPath
       clipPathUnits="userSpaceOnUse"
       id="clipPath420"><path
         d="m 110.893,514.28 v -347 h 372.921 v 347 z m 339.4,-224.575 2.551,4.032 -1.606,1.008 -2.551,-4.032 v 0 l 2.834,2.678 z"
         clip-rule="evenodd"
         id="path418" /></clipPath><clipPath
       clipPathUnits="userSpaceOnUse"
       id="clipPath426"><path
         d="M 0,0 H 595 V 842 H 0 Z"
         id="path424" /></clipPath><clipPath
       clipPathUnits="userSpaceOnUse"
       id="clipPath438"><path
         d="m 110.893,167.28 h 372.921 v 347 H 110.893 Z"
         id="path436" /></clipPath><clipPath
       clipPathUnits="userSpaceOnUse"
       id="clipPath456"><path
         d="m 110.893,514.28 v -347 h 372.921 v 347 z m 270.63,-215.126 -3.023,-3.653 1.448,-1.197 3.023,3.622 v 0 l -3.117,-2.299 z"
         clip-rule="evenodd"
         id="path454" /></clipPath><clipPath
       clipPathUnits="userSpaceOnUse"
       id="clipPath462"><path
         d="M 0,0 H 595 V 842 H 0 Z"
         id="path460" /></clipPath><clipPath
       clipPathUnits="userSpaceOnUse"
       id="clipPath474"><path
         d="m 110.893,167.28 h 372.921 v 347 H 110.893 Z"
         id="path472" /></clipPath><clipPath
       clipPathUnits="userSpaceOnUse"
       id="clipPath616"><path
         d="M 0,0 H 595 V 841.9 H 0 Z"
         id="path614" /></clipPath></defs><sodipodi:namedview
     pagecolor="#ffffff"
     bordercolor="#666666"
     borderopacity="1"
     objecttolerance="10"
     gridtolerance="10"
     guidetolerance="10"
     inkscape:pageopacity="0"
     inkscape:pageshadow="2"
     inkscape:window-width="1498"
     inkscape:window-height="909"
     id="namedview12"
     showgrid="false"
     inkscape:zoom="1.5033408"
     inkscape:cx="255.55786"
     inkscape:cy="233.1474"
     inkscape:window-x="0"
     inkscape:window-y="25"
     inkscape:window-maximized="0"
     inkscape:current-layer="g18" /><g
     id="g18"
     inkscape:groupmode="layer"
     inkscape:label="defs_instrumentacion"
     transform="matrix(1.3333333,0,0,-1.3333333,-141.01867,686.76293)"><g
       id="g20" /><g
       id="g54"><g
         id="g56"
         clip-path="url(#clipPath60)"><g
           id="g62"
           transform="scale(0.0999893,-0.100011)"><path
             d="m 1244.97,-5021.17 v 1261.24"
             style="fill:none;stroke:#000000;stroke-width:4.72374;stroke-linecap:butt;stroke-linejoin:miter;stroke-miterlimit:10;stroke-dasharray:none;stroke-opacity:1"
             id="path64" /></g><g
           id="g66"
           transform="scale(0.0999893,-0.100011)"><path
             d="m 1726.8,-5021.17 v 1261.24"
             style="fill:none;stroke:#000000;stroke-width:4.72374;stroke-linecap:butt;stroke-linejoin:miter;stroke-miterlimit:10;stroke-dasharray:none;stroke-opacity:1"
             id="path68" /></g><g
           id="g70"
           transform="scale(0.0999893,-0.100011)"><path
             d="m 2917.18,-4581.86 v 821.93"
             style="fill:none;stroke:#000000;stroke-width:4.72374;stroke-linecap:butt;stroke-linejoin:miter;stroke-miterlimit:10;stroke-dasharray:none;stroke-opacity:1"
             id="path72" /></g><g
           id="g74"
           transform="scale(0.0999893,-0.100011)"><path
             d="M 2917.18,-3802.44 H 4731.1"
             style="fill:none;stroke:#0000d1;stroke-width:23.6187;stroke-linecap:butt;stroke-linejoin:miter;stroke-miterlimit:10;stroke-dasharray:none;stroke-opacity:1"
             id="path76" /></g><g
           id="g78"
           transform="scale(0.0999893,-0.100011)"><path
             d="m 4731.1,-4964.49 v 1204.56"
             style="fill:none;stroke:#000000;stroke-width:4.72374;stroke-linecap:butt;stroke-linejoin:miter;stroke-miterlimit:10;stroke-dasharray:none;stroke-opacity:1"
             id="path80" /></g></g></g><g
       id="g82"><g
         id="g84"
         clip-path="url(#clipPath88)"><g
           id="g90"
           clip-path="url(#clipPath94)"><g
             id="g96"
             transform="scale(0.0999893,-0.100011)"><path
               d="M 1726.8,-4836.94 H 4731.1"
               style="fill:none;stroke:#000000;stroke-width:2.36187;stroke-linecap:butt;stroke-linejoin:miter;stroke-miterlimit:10;stroke-dasharray:none;stroke-opacity:1"
               id="path98" /></g></g></g></g><g
       id="g100"><g
         id="g102"
         clip-path="url(#clipPath106)"><path
           d="m 176.944,484.691 -3.779,-0.945 3.779,-0.944 v 1.889"
           style="fill:#000000;fill-opacity:1;fill-rule:evenodd;stroke:none"
           id="path108" /><g
           id="g110"
           transform="scale(0.0999893,-0.100011)"><path
             d="m 1769.63,-4846.39 -37.8,9.45 37.8,9.44 z"
             style="fill:none;stroke:#000000;stroke-width:2.36187;stroke-linecap:butt;stroke-linejoin:miter;stroke-miterlimit:10;stroke-dasharray:none;stroke-opacity:1"
             id="path112" /></g><path
           d="m 468.777,482.802 3.778,0.944 -3.778,0.945 v -1.889"
           style="fill:#000000;fill-opacity:1;fill-rule:evenodd;stroke:none"
           id="path114" /><g
           id="g116"
           transform="scale(0.0999893,-0.100011)"><path
             d="m 4688.27,-4827.5 37.79,-9.44 -37.79,-9.45 z"
             style="fill:none;stroke:#000000;stroke-width:2.36187;stroke-linecap:butt;stroke-linejoin:miter;stroke-miterlimit:10;stroke-dasharray:none;stroke-opacity:1"
             id="path118" /></g></g></g><g
       id="g120"><g
         id="g122"
         clip-path="url(#clipPath126)"><g
           id="g128"
           clip-path="url(#clipPath132)"><g
             id="g134"
             transform="scale(0.0999893,-0.100011)"><path
               d="m 1244.97,-4936.14 h 467.65"
               style="fill:none;stroke:#000000;stroke-width:2.36187;stroke-linecap:butt;stroke-linejoin:miter;stroke-miterlimit:10;stroke-dasharray:none;stroke-opacity:1"
               id="path136" /></g></g></g></g><g
       id="g138"><g
         id="g140"
         clip-path="url(#clipPath144)"><path
           d="m 128.766,494.612 -3.778,-0.945 3.778,-0.945 v 1.89"
           style="fill:#000000;fill-opacity:1;fill-rule:evenodd;stroke:none"
           id="path146" /><g
           id="g148"
           transform="scale(0.0999893,-0.100011)"><path
             d="m 1287.8,-4945.59 -37.79,9.45 37.79,9.44 z"
             style="fill:none;stroke:#000000;stroke-width:2.36187;stroke-linecap:butt;stroke-linejoin:miter;stroke-miterlimit:10;stroke-dasharray:none;stroke-opacity:1"
             id="path150" /></g><path
           d="m 166.962,492.722 3.778,0.945 -3.778,0.945 v -1.89"
           style="fill:#000000;fill-opacity:1;fill-rule:evenodd;stroke:none"
           id="path152" /><g
           id="g154"
           transform="scale(0.0999893,-0.100011)"><path
             d="m 1669.8,-4926.7 37.79,-9.44 -37.79,-9.45 z"
             style="fill:none;stroke:#000000;stroke-width:2.36187;stroke-linecap:butt;stroke-linejoin:miter;stroke-miterlimit:10;stroke-dasharray:none;stroke-opacity:1"
             id="path156" /></g></g></g><g
       id="g158"><g
         id="g160"
         clip-path="url(#clipPath164)"><g
           id="g166"
           clip-path="url(#clipPath170)"><g
             id="g172"
             transform="scale(0.0999893,-0.100011)"><path
               d="M 1726.8,-4482.66 H 2917.18"
               style="fill:none;stroke:#000000;stroke-width:2.36187;stroke-linecap:butt;stroke-linejoin:miter;stroke-miterlimit:10;stroke-dasharray:none;stroke-opacity:1"
               id="path174" /></g></g></g></g><g
       id="g176"><g
         id="g178"
         clip-path="url(#clipPath182)"><path
           d="m 176.944,449.259 -3.779,-0.945 3.779,-0.944 v 1.889"
           style="fill:#000000;fill-opacity:1;fill-rule:evenodd;stroke:none"
           id="path184" /><g
           id="g186"
           transform="scale(0.0999893,-0.100011)"><path
             d="m 1769.63,-4492.11 -37.8,9.45 37.8,9.44 z"
             style="fill:none;stroke:#000000;stroke-width:2.36187;stroke-linecap:butt;stroke-linejoin:miter;stroke-miterlimit:10;stroke-dasharray:none;stroke-opacity:1"
             id="path188" /></g><path
           d="m 287.404,447.37 3.779,0.944 -3.779,0.945 v -1.889"
           style="fill:#000000;fill-opacity:1;fill-rule:evenodd;stroke:none"
           id="path190" /><g
           id="g192"
           transform="scale(0.0999893,-0.100011)"><path
             d="m 2874.35,-4473.22 37.79,-9.44 -37.79,-9.45 z"
             style="fill:none;stroke:#000000;stroke-width:2.36187;stroke-linecap:butt;stroke-linejoin:miter;stroke-miterlimit:10;stroke-dasharray:none;stroke-opacity:1"
             id="path194" /></g></g></g><g
       id="g196"><g
         id="g198"
         clip-path="url(#clipPath202)"><g
           id="g204"
           clip-path="url(#clipPath208)"><g
             id="g210"
             transform="scale(0.0999893,-0.100011)"><path
               d="M 2917.18,-4482.66 H 4716.93"
               style="fill:none;stroke:#000000;stroke-width:2.36187;stroke-linecap:butt;stroke-linejoin:miter;stroke-miterlimit:10;stroke-dasharray:none;stroke-opacity:1"
               id="path212" /></g></g></g></g><g
       id="g214"><g
         id="g216"
         clip-path="url(#clipPath220)"><path
           d="m 295.969,449.259 -3.778,-0.945 3.778,-0.944 v 1.889"
           style="fill:#000000;fill-opacity:1;fill-rule:evenodd;stroke:none"
           id="path222" /><g
           id="g224"
           transform="scale(0.0999893,-0.100011)"><path
             d="m 2960.01,-4492.11 -37.79,9.45 37.79,9.44 z"
             style="fill:none;stroke:#000000;stroke-width:2.36187;stroke-linecap:butt;stroke-linejoin:miter;stroke-miterlimit:10;stroke-dasharray:none;stroke-opacity:1"
             id="path226" /></g><path
           d="m 467.36,447.37 3.778,0.944 -3.778,0.945 v -1.889"
           style="fill:#000000;fill-opacity:1;fill-rule:evenodd;stroke:none"
           id="path228" /><g
           id="g230"
           transform="scale(0.0999893,-0.100011)"><path
             d="m 4674.1,-4473.22 37.79,-9.44 -37.79,-9.45 z"
             style="fill:none;stroke:#000000;stroke-width:2.36187;stroke-linecap:butt;stroke-linejoin:miter;stroke-miterlimit:10;stroke-dasharray:none;stroke-opacity:1"
             id="path232" /></g></g></g><g
       id="g234"><g
         id="g236"
         clip-path="url(#clipPath240)"><g
           id="g242"
           clip-path="url(#clipPath246)"><g
             id="g248"
             transform="scale(0.0999893,-0.100011)"><path
               d="M 2917.18,-4015.02 H 4731.1"
               style="fill:none;stroke:#000000;stroke-width:2.36187;stroke-linecap:butt;stroke-linejoin:miter;stroke-miterlimit:10;stroke-dasharray:none;stroke-opacity:1"
               id="path250" /></g></g></g></g><g
       id="g252"><g
         id="g254"
         clip-path="url(#clipPath258)"><path
           d="m 295.969,402.489 -3.778,-0.944 3.778,-0.945 v 1.889"
           style="fill:#000000;fill-opacity:1;fill-rule:evenodd;stroke:none"
           id="path260" /><g
           id="g262"
           transform="scale(0.0999893,-0.100011)"><path
             d="m 2960.01,-4024.46 -37.79,9.44 37.79,9.45 z"
             style="fill:none;stroke:#000000;stroke-width:2.36187;stroke-linecap:butt;stroke-linejoin:miter;stroke-miterlimit:10;stroke-dasharray:none;stroke-opacity:1"
             id="path264" /></g><path
           d="m 468.777,400.6 3.778,0.945 -3.778,0.944 V 400.6"
           style="fill:#000000;fill-opacity:1;fill-rule:evenodd;stroke:none"
           id="path266" /><g
           id="g268"
           transform="scale(0.0999893,-0.100011)"><path
             d="m 4688.27,-4005.57 37.79,-9.45 -37.79,-9.44 z"
             style="fill:none;stroke:#000000;stroke-width:2.36187;stroke-linecap:butt;stroke-linejoin:miter;stroke-miterlimit:10;stroke-dasharray:none;stroke-opacity:1"
             id="path270" /></g></g></g><g
       id="g272"><g
         id="g274"
         clip-path="url(#clipPath278)"><g
           id="g280"
           clip-path="url(#clipPath284)"><g
             id="g286"
             transform="scale(0.0999893,-0.100011)"><path
               d="M 2917.18,-4255.92 H 4716.93"
               style="fill:none;stroke:#000000;stroke-width:2.36187;stroke-linecap:butt;stroke-linejoin:miter;stroke-miterlimit:10;stroke-dasharray:none;stroke-opacity:1"
               id="path288" /></g></g></g></g><g
       id="g290"><g
         id="g292"
         clip-path="url(#clipPath296)"><path
           d="m 295.969,426.583 -3.778,-0.945 3.778,-0.945 v 1.89"
           style="fill:#000000;fill-opacity:1;fill-rule:evenodd;stroke:none"
           id="path298" /><g
           id="g300"
           transform="scale(0.0999893,-0.100011)"><path
             d="m 2960.01,-4265.37 -37.79,9.45 37.79,9.44 z"
             style="fill:none;stroke:#000000;stroke-width:2.36187;stroke-linecap:butt;stroke-linejoin:miter;stroke-miterlimit:10;stroke-dasharray:none;stroke-opacity:1"
             id="path302" /></g><path
           d="m 467.36,424.693 3.778,0.945 -3.778,0.945 v -1.89"
           style="fill:#000000;fill-opacity:1;fill-rule:evenodd;stroke:none"
           id="path304" /><g
           id="g306"
           transform="scale(0.0999893,-0.100011)"><path
             d="m 4674.1,-4246.48 37.79,-9.44 -37.79,-9.45 z"
             style="fill:none;stroke:#000000;stroke-width:2.36187;stroke-linecap:butt;stroke-linejoin:miter;stroke-miterlimit:10;stroke-dasharray:none;stroke-opacity:1"
             id="path308" /></g><g
           id="g310"
           transform="scale(0.0999893,-0.100011)"><path
             d="m 2760.98,-3306.45 h -0.31 l -1.26,0.31 -1.89,0.32 -2.84,0.63 -4.41,0.63 -5.66,0.94 -7.56,1.58 -8.82,1.57 -10.71,1.89 -12.59,2.52 -13.86,2.83 -15.43,3.15 -17.01,3.47 -17.94,3.78 -18.9,4.09 -19.84,4.41 -20.47,4.41 -21.1,5.04 -21.1,5.03 -21.1,5.36 -21.1,5.35 -20.78,5.35 -20.79,5.99 -20.15,5.67 -19.53,5.98 -18.89,5.98 -18.58,5.99 -17.64,6.3 -17.32,6.29 -16.37,6.62 -16.06,6.61 -15.12,6.93 -14.8,6.93 -14.17,6.93 -13.55,7.55 -13.22,7.56 -12.6,7.87 -12.28,7.88 -11.97,8.5 -11.65,8.82 -11.33,9.13 -11.02,9.45 -11.03,9.76 -10.71,10.08 -10.39,10.7 -9.76,9.77 -9.45,10.39 -9.44,11.02 -9.45,11.02 -9.13,11.34 -9.45,11.97 -9.13,11.96 -9.14,12.6 -9.44,12.91 -9.14,13.23 -9.13,13.86 -9.45,13.85 -9.13,14.17 -9.13,14.8 -9.14,14.81 -9.13,15.43 -9.13,15.43 -9.13,15.74 -9.14,16.06 -8.81,16.07 -9.13,16.37 -8.82,16.69 -9.14,16.69 -8.5,16.69 -8.82,16.69 -8.82,17.01 -8.5,16.69 -8.5,17 -8.19,16.69 -8.18,16.7 -8.19,16.69 -8.19,16.37 -7.87,16.38 -7.56,16.06 -7.87,15.74 -7.25,15.75 -7.56,15.43 -7.24,15.12 -6.93,14.8 -7.24,14.8 -6.61,14.17 -6.93,13.85 -6.61,13.86 -6.62,13.23 -6.29,13.23 -6.31,12.59 -6.29,12.6 -5.98,11.97 -6.31,11.96 -5.98,11.34 v 0.31 l -7.87,14.8 -7.88,14.17 -7.87,13.86 -7.87,13.86 -7.87,12.91 -7.88,12.91 -8.19,12.91 -8.18,12.28 -8.5,12.6 -8.82,12.28 -8.82,11.97 -9.13,12.28 -9.45,12.29 -9.76,12.59 -10.08,12.28 -10.71,12.6 -10.7,12.59 -11.02,12.92 -11.03,12.59 -11.34,12.6 -11.65,12.6 -11.33,12.59 -11.02,11.97 -11.03,11.34 -10.39,11.02 -10.08,10.39 -9.13,9.45 -8.19,8.5 -7.24,7.56 -6.3,6.3 -5.35,5.04 -4.1,4.09 -3.15,3.15 -2.2,2.21 -1.57,1.57 -0.63,0.63 -0.32,0.31"
             style="fill:none;stroke:#000000;stroke-width:2.36187;stroke-linecap:butt;stroke-linejoin:bevel;stroke-miterlimit:10;stroke-dasharray:none;stroke-opacity:1"
             id="path312" /></g><g
           id="g314"
           transform="scale(0.0999893,-0.100011)"><path
             d="m 2760.98,-3306.45 h -0.31 l -0.95,0.31 -1.89,0.63 -3.15,0.95 -4.09,1.26 -5.67,1.89 -7.24,2.2 -8.82,2.84 -10.71,3.14 -11.96,3.79 -13.86,4.4 -15.12,5.04 -16.37,5.67 -17.64,5.67 -18.89,6.29 -19.53,6.93 -19.84,6.93 -20.78,7.24 -20.47,7.57 -21.1,7.87 -20.47,7.55 -20.47,8.19 -20.47,7.87 -19.52,8.19 -19.21,7.87 -18.9,8.2 -17.95,8.18 -17.64,8.19 -17,8.19 -16.06,8.19 -15.75,8.18 -15.11,8.19 -14.49,8.5 -13.85,8.51 -13.54,8.5 -13.23,8.82 -12.6,8.81 -11.97,9.13 -11.96,9.45 -11.65,9.77 -11.03,9.76 -11.02,10.08 -11.02,10.39 -10.71,11.02 -10.39,11.02 -9.76,10.71 -9.45,10.71 -9.45,11.33 -9.44,11.34 -9.45,11.65 -9.13,12.28 -9.45,12.6 -9.13,12.6 -9.45,13.22 -9.45,13.23 -9.13,13.86 -9.45,14.17 -9.13,14.17 -9.45,14.8 -9.13,14.8 -9.45,15.12 -9.13,15.43 -9.45,15.74 -9.13,15.75 -9.14,16.06 -9.13,16.06 -9.13,16.38 -9.13,16.37 -8.82,16.38 -9.13,16.69 -8.82,16.37 -8.82,16.38 -8.5,16.38 -8.5,16.37 -8.51,16.06 -8.18,16.06 -8.51,16.06 -7.87,15.75 -7.87,15.43 -7.87,15.43 -7.88,15.12 -7.56,14.48 -7.24,14.49 -7.24,14.49 -7.24,13.85 -7.25,13.54 -6.61,13.23 -6.93,12.91 -6.62,12.91 -6.61,12.28 -6.61,11.97 -6.3,11.66 -6.3,11.33 -6.3,11.02 -5.98,11.02 -8.81,14.49 -8.51,13.86 -8.19,13.54 -8.5,13.23 -8.5,12.59 -8.5,12.28 -8.82,11.97 -8.82,11.65 -9.13,11.66 -9.45,11.33 -9.76,11.34 -9.76,11.33 -10.4,11.34 -10.7,11.34 -11.03,11.34 -11.33,11.02 -11.66,11.34 -11.96,11.33 -11.97,11.34 -12.28,11.02 -11.97,10.71 -11.96,10.39 -11.34,9.76 -11.03,9.45 -10.07,8.5 -9.45,7.88 -8.19,6.92 -7.24,5.67 -5.98,5.04 -4.73,3.78 -3.77,2.84 -2.52,2.2 -1.58,1.26 -0.94,0.63 -0.32,0.31"
             style="fill:none;stroke:#000000;stroke-width:2.36187;stroke-linecap:butt;stroke-linejoin:bevel;stroke-miterlimit:10;stroke-dasharray:none;stroke-opacity:1"
             id="path316" /></g><g
           id="g318"
           transform="scale(0.0999893,-0.100011)"><path
             d="m 2747.13,-3306.45 h -0.32 l -0.95,0.63 -1.88,0.63 -2.84,0.94 -4.09,1.58 -5.36,2.2 -6.93,2.52 -8.5,3.46 -10.07,3.78 -11.66,4.73 -12.91,5.03 -14.48,5.99 -15.75,6.3 -17.01,6.93 -17.94,7.55 -18.58,7.88 -19.22,8.19 -19.52,8.5 -19.84,8.5 -19.84,8.82 -19.84,9.13 -19.52,8.82 -19.22,9.13 -18.89,9.13 -18.27,9.13 -17.94,9.14 -17.01,8.82 -16.69,9.13 -16.06,8.82 -15.43,9.13 -15.12,8.82 -14.17,8.81 -13.85,9.13 -13.23,8.82 -12.6,9.14 -12.6,9.13 -11.65,9.45 -11.65,9.44 -11.02,9.45 -11.02,9.76 -10.4,10.08 -10.39,10.39 -10.39,10.71 -9.76,10.71 -9.77,11.33 -9.13,10.4 -8.81,10.7 -8.82,11.03 -8.82,11.65 -8.5,11.65 -8.82,11.97 -8.82,12.28 -8.5,12.28 -8.5,12.91 -8.82,13.23 -8.51,13.54 -8.5,13.86 -8.81,13.85 -8.51,14.17 -8.82,14.8 -8.5,14.81 -8.5,14.8 -8.82,15.11 -8.5,15.43 -8.5,15.44 -8.51,15.74 -8.5,15.75 -8.5,15.74 -8.19,16.06 -8.5,15.75 -8.19,16.06 -8.19,15.75 -8.19,16.06 -8.18,15.74 -7.88,15.43 -7.87,15.43 -7.87,15.43 -7.88,15.12 -7.55,15.12 -7.56,14.48 -7.24,14.49 -7.56,14.17 -7.25,14.17 -6.92,13.54 -7.25,13.54 -6.93,12.91 -6.61,12.92 -6.93,12.28 -6.61,12.28 -6.61,11.97 -6.61,11.33 -6.62,11.34 -6.3,11.02 -6.61,10.71 -6.3,10.39 -8.5,13.23 -8.5,12.91 -8.51,12.6 -8.5,11.97 -8.82,11.65 -8.81,11.34 -9.14,11.02 -9.44,11.02 -9.77,10.71 -9.76,10.39 -10.39,10.7 -10.71,10.4 -11.34,10.39 -11.33,10.39 -12.29,10.39 -12.28,10.71 -12.91,10.39 -13.22,10.71 -13.54,10.39 -13.86,10.39 -13.86,10.4 -13.86,10.07 -13.54,9.77 -13.22,9.44 -12.92,8.82 -11.96,8.5 -11.34,7.56 -10.07,6.61 -9.14,5.99 -7.87,5.35 -6.3,4.1 -5.04,3.14 -4.09,2.52 -2.52,1.89 -1.89,0.95 -0.95,0.63 -0.31,0.31"
             style="fill:none;stroke:#000000;stroke-width:2.36187;stroke-linecap:butt;stroke-linejoin:bevel;stroke-miterlimit:10;stroke-dasharray:none;stroke-opacity:1"
             id="path320" /></g><g
           id="g322"
           transform="scale(0.0999893,-0.100011)"><path
             d="m 1429.2,-1974.36 h 0.32 l 1.25,-0.31 1.9,-0.32 2.83,-0.63 4.41,-0.63 5.67,-0.94 7.56,-1.57 8.81,-1.58 10.71,-1.89 12.6,-2.52 13.85,-2.83 15.43,-3.15 17.01,-3.47 17.95,-3.77 18.89,-4.1 19.84,-4.41 20.47,-4.41 21.1,-5.03 21.1,-5.04 21.1,-5.36 21.1,-5.35 20.79,-5.35 20.78,-5.99 20.15,-5.67 19.53,-5.98 18.89,-5.98 18.58,-5.99 17.64,-6.3 17.32,-6.29 16.38,-6.62 16.06,-6.61 15.11,-6.93 14.8,-6.93 14.17,-6.92 13.54,-7.56 13.23,-7.56 12.6,-7.87 12.28,-7.87 11.97,-8.51 11.65,-8.82 11.34,-9.13 11.02,-9.45 11.02,-9.76 10.71,-10.07 10.39,-10.4 9.76,-10.08 9.45,-10.39 9.45,-11.02 9.44,-11.02 9.14,-11.34 9.44,-11.97 9.14,-11.96 9.13,-12.6 9.45,-12.91 9.13,-13.23 9.13,-13.85 9.45,-13.86 9.13,-14.17 9.14,-14.8 9.13,-14.81 9.13,-15.42 9.13,-15.44 9.14,-15.74 9.13,-16.06 8.82,-16.06 9.13,-16.38 8.81,-16.69 9.14,-16.69 8.5,-16.69 8.82,-16.69 8.82,-17.01 8.5,-16.69 8.5,-17 8.19,-16.69 8.19,-16.69 8.19,-16.7 8.18,-16.37 7.88,-16.38 7.55,-16.06 7.88,-15.74 7.24,-15.75 7.56,-15.43 7.24,-15.11 6.93,-14.81 7.24,-14.8 6.62,-14.17 6.92,-13.85 6.62,-13.86 6.61,-13.23 6.3,-13.22 6.3,-12.6 6.3,-12.6 5.98,-11.96 6.3,-11.97 5.98,-11.34 7.87,-15.11 7.88,-14.17 7.87,-13.86 7.87,-13.86 7.87,-12.91 7.88,-12.91 8.18,-12.91 8.19,-12.28 8.51,-12.6 8.81,-12.28 8.82,-11.97 9.14,-12.28 9.44,-12.28 9.76,-12.6 10.08,-12.28 10.71,-12.6 10.71,-12.59 11.02,-12.92 11.02,-12.59 11.34,-12.6 11.65,-12.6 11.34,-12.59 11.02,-11.97 11.02,-11.34 10.39,-11.02 10.08,-10.39 9.13,-9.45 8.19,-8.5 7.24,-7.56 6.3,-6.29 5.35,-5.05 4.1,-4.09 3.15,-3.15 2.2,-2.2 1.58,-1.58 0.63,-0.63 0.31,-0.31"
             style="fill:none;stroke:#000000;stroke-width:2.36187;stroke-linecap:butt;stroke-linejoin:bevel;stroke-miterlimit:10;stroke-dasharray:none;stroke-opacity:1"
             id="path324" /></g><g
           id="g326"
           transform="scale(0.0999893,-0.100011)"><path
             d="m 1429.2,-1974.36 h 0.32 l 0.94,-0.31 1.89,-0.63 3.15,-0.95 4.09,-1.26 5.67,-1.88 7.24,-2.21 8.82,-2.83 10.71,-3.15 11.96,-3.78 13.86,-4.41 15.12,-5.04 16.37,-5.67 17.64,-5.67 18.89,-6.29 19.53,-6.93 19.84,-6.93 20.78,-7.24 20.47,-7.56 21.1,-7.88 20.47,-7.55 20.47,-8.19 20.47,-7.87 19.53,-8.19 19.21,-7.87 18.89,-8.19 17.95,-8.19 17.63,-8.19 17.01,-8.19 16.06,-8.18 15.75,-8.19 15.11,-8.19 14.49,-8.5 13.86,-8.5 13.54,-8.51 13.22,-8.81 12.6,-8.82 11.97,-9.13 11.97,-9.45 11.65,-9.76 11.02,-9.77 11.02,-10.08 11.02,-10.39 10.71,-11.02 10.39,-11.02 9.76,-10.71 9.45,-10.7 9.45,-11.34 9.45,-11.34 9.44,-11.65 9.14,-12.28 9.44,-12.6 9.14,-12.6 9.44,-13.22 9.45,-13.23 9.13,-13.86 9.45,-14.17 9.13,-14.17 9.45,-14.8 9.13,-14.8 9.45,-15.12 9.13,-15.43 9.45,-15.74 9.13,-15.75 9.14,-16.06 9.13,-16.06 9.13,-16.38 9.14,-16.37 8.81,-16.38 9.14,-16.69 8.81,-16.37 8.82,-16.38 8.5,-16.37 8.51,-16.38 8.5,-16.06 8.19,-16.06 8.5,-16.06 7.87,-15.75 7.88,-15.43 7.87,-15.43 7.87,-15.12 7.56,-14.48 7.24,-14.49 7.24,-14.48 7.25,-13.86 7.24,-13.54 6.61,-13.23 6.93,-12.91 6.61,-12.91 6.62,-12.28 6.61,-11.97 6.3,-11.65 6.3,-11.34 6.3,-11.02 5.98,-11.02 h 0.32 l 8.5,-14.49 8.5,-13.86 8.19,-13.54 8.5,-13.23 8.51,-12.59 8.5,-12.28 8.81,-11.97 8.82,-11.65 9.14,-11.65 9.44,-11.34 9.77,-11.34 9.76,-11.33 10.39,-11.34 10.71,-11.34 11.02,-11.34 11.34,-11.02 11.65,-11.33 11.97,-11.34 11.96,-11.34 12.28,-11.02 11.97,-10.71 11.97,-10.39 11.33,-9.76 11.03,-9.45 10.07,-8.5 9.45,-7.87 8.19,-6.93 7.24,-5.67 5.99,-5.04 4.72,-3.78 3.78,-2.83 2.52,-2.21 1.57,-1.26 0.95,-0.63 0.31,-0.31"
             style="fill:none;stroke:#000000;stroke-width:2.36187;stroke-linecap:butt;stroke-linejoin:bevel;stroke-miterlimit:10;stroke-dasharray:none;stroke-opacity:1"
             id="path328" /></g><g
           id="g330"
           transform="scale(0.0999893,-0.100011)"><path
             d="m 1443.06,-1974.36 h 0.31 l 0.95,-0.63 1.89,-0.63 2.83,-0.94 4.1,-1.58 5.35,-2.2 6.92,-2.52 8.51,-3.46 10.07,-3.78 11.66,-4.73 12.91,-5.03 14.49,-5.99 15.74,-6.3 17.01,-6.92 17.95,-7.56 18.58,-7.87 19.21,-8.19 19.52,-8.5 19.84,-8.51 19.84,-8.82 19.84,-9.13 19.52,-8.82 19.21,-9.13 18.9,-9.13 18.26,-9.13 17.96,-9.14 17,-8.81 16.69,-9.14 16.06,-8.82 15.43,-9.13 15.12,-8.81 14.17,-8.82 13.86,-9.13 13.23,-8.82 12.59,-9.14 12.6,-9.13 11.65,-9.45 11.65,-9.44 11.02,-9.45 11.02,-9.76 10.4,-10.08 10.39,-10.39 10.39,-10.71 9.77,-10.71 10.07,-11.02 8.82,-10.71 8.82,-10.7 8.81,-11.03 8.82,-11.65 8.51,-11.65 8.81,-11.96 8.82,-12.29 8.51,-12.28 8.5,-12.91 8.81,-13.23 8.51,-13.54 8.5,-13.86 8.82,-13.85 8.5,-14.17 8.82,-14.8 8.5,-14.81 8.5,-14.8 8.82,-15.11 8.5,-15.43 8.51,-15.44 8.5,-15.74 8.5,-15.74 8.5,-15.75 8.19,-16.06 8.5,-15.75 8.19,-16.06 8.19,-15.74 8.19,-16.06 8.19,-15.75 7.87,-15.43 7.87,-15.43 7.87,-15.43 7.88,-15.12 7.55,-15.11 7.56,-14.49 7.25,-14.49 7.56,-14.17 7.24,-14.17 6.93,-13.54 7.24,-13.54 6.93,-12.91 6.61,-12.92 6.93,-12.28 6.61,-12.28 6.61,-11.96 6.62,-11.34 6.61,-11.34 6.3,-11.02 6.61,-10.71 6.3,-10.39 8.51,-13.23 8.5,-12.91 8.5,-12.6 8.5,-11.97 8.82,-11.65 8.82,-11.33 9.13,-11.02 9.45,-11.03 9.76,-10.71 9.76,-10.38 10.39,-10.71 10.71,-10.39 11.34,-10.4 11.34,-10.39 12.28,-10.39 12.28,-10.71 12.91,-10.39 13.23,-10.71 13.54,-10.39 13.85,-10.39 13.86,-10.4 13.86,-10.07 13.54,-9.76 13.23,-9.45 12.91,-8.82 11.96,-8.5 11.34,-7.56 10.08,-6.61 9.13,-5.99 7.87,-5.35 6.3,-4.1 5.04,-3.14 4.09,-2.52 2.52,-1.89 1.89,-0.95 0.95,-0.63 0.31,-0.31"
             style="fill:none;stroke:#000000;stroke-width:2.36187;stroke-linecap:butt;stroke-linejoin:bevel;stroke-miterlimit:10;stroke-dasharray:none;stroke-opacity:1"
             id="path332" /></g><g
           id="g334"
           transform="scale(0.0999893,-0.100011)"><path
             d="M 1415.03,-3306.45 H 2761.3 v 1332.09 H 1415.03 Z"
             style="fill:none;stroke:#000000;stroke-width:2.36187;stroke-linecap:butt;stroke-linejoin:miter;stroke-miterlimit:10;stroke-dasharray:none;stroke-opacity:1"
             id="path336" /></g></g></g><g
       id="g338"><g
         id="g340"
         clip-path="url(#clipPath344)"><g
           id="g346"
           clip-path="url(#clipPath350)"><g
             id="g352"
             transform="scale(0.0999893,-0.100011)"><path
               d="M 2449.53,-2668.75 2619.59,-2938"
               style="fill:none;stroke:#000000;stroke-width:2.36187;stroke-linecap:butt;stroke-linejoin:miter;stroke-miterlimit:10;stroke-dasharray:none;stroke-opacity:1"
               id="path354" /></g></g></g></g><g
       id="g356"><g
         id="g358"
         clip-path="url(#clipPath362)"><path
           d="m 260.419,289.705 1.228,3.686 -2.834,-2.678 1.606,-1.008"
           style="fill:#000000;fill-opacity:1;fill-rule:evenodd;stroke:none"
           id="path364" /><g
           id="g366"
           transform="scale(0.0999893,-0.100011)"><path
             d="m 2604.47,-2896.74 12.28,-36.85 -28.34,26.77 z"
             style="fill:none;stroke:#000000;stroke-width:2.36187;stroke-linecap:butt;stroke-linejoin:miter;stroke-miterlimit:10;stroke-dasharray:none;stroke-opacity:1"
             id="path368" /></g></g></g><g
       id="g370"><g
         id="g372"
         clip-path="url(#clipPath376)"><g
           id="g378"
           clip-path="url(#clipPath382)"><g
             id="g384"
             transform="scale(0.0999893,-0.100011)"><path
               d="m 2180.28,-3207.25 -212.57,255.08"
               style="fill:none;stroke:#000000;stroke-width:2.36187;stroke-linecap:butt;stroke-linejoin:miter;stroke-miterlimit:10;stroke-dasharray:none;stroke-opacity:1"
               id="path386" /></g></g></g></g><g
       id="g388"><g
         id="g390"
         clip-path="url(#clipPath394)"><path
           d="m 198.734,299.154 -1.67,-3.527 3.118,2.299 -1.448,1.228"
           style="fill:#000000;fill-opacity:1;fill-rule:evenodd;stroke:none"
           id="path396" /><g
           id="g398"
           transform="scale(0.0999893,-0.100011)"><path
             d="m 1987.55,-2991.22 -16.69,35.27 31.17,-22.99 z"
             style="fill:none;stroke:#000000;stroke-width:2.36187;stroke-linecap:butt;stroke-linejoin:miter;stroke-miterlimit:10;stroke-dasharray:none;stroke-opacity:1"
             id="path400" /></g><g
           id="g402"
           transform="scale(0.0999893,-0.100011)"><path
             d="m 1967.71,-2824.63 v 155.88"
             style="fill:none;stroke:#000000;stroke-width:9.44749;stroke-linecap:butt;stroke-linejoin:miter;stroke-miterlimit:10;stroke-dasharray:none;stroke-opacity:1"
             id="path404" /></g><g
           id="g406"
           transform="scale(0.0999893,-0.100011)"><path
             d="m 2208.62,-2583.72 v 155.88"
             style="fill:none;stroke:#000000;stroke-width:9.44749;stroke-linecap:butt;stroke-linejoin:miter;stroke-miterlimit:10;stroke-dasharray:none;stroke-opacity:1"
             id="path408" /></g><g
           id="g410"
           transform="scale(0.0999893,-0.100011)"><path
             d="m 3271.46,-3306.45 h 1346.27 v 1332.09 H 3271.46 Z"
             style="fill:none;stroke:#000000;stroke-width:2.36187;stroke-linecap:butt;stroke-linejoin:miter;stroke-miterlimit:10;stroke-dasharray:none;stroke-opacity:1"
             id="path412" /></g></g></g><g
       id="g414"><g
         id="g416"
         clip-path="url(#clipPath420)"><g
           id="g422"
           clip-path="url(#clipPath426)"><g
             id="g428"
             transform="scale(0.0999893,-0.100011)"><path
               d="M 4348.47,-2668.75 4518.53,-2938"
               style="fill:none;stroke:#000000;stroke-width:2.36187;stroke-linecap:butt;stroke-linejoin:miter;stroke-miterlimit:10;stroke-dasharray:none;stroke-opacity:1"
               id="path430" /></g></g></g></g><g
       id="g432"><g
         id="g434"
         clip-path="url(#clipPath438)"><path
           d="m 450.293,289.705 1.228,3.686 -2.834,-2.678 1.606,-1.008"
           style="fill:#000000;fill-opacity:1;fill-rule:evenodd;stroke:none"
           id="path440" /><g
           id="g442"
           transform="scale(0.0999893,-0.100011)"><path
             d="m 4503.41,-2896.74 12.28,-36.85 -28.34,26.77 z"
             style="fill:none;stroke:#000000;stroke-width:2.36187;stroke-linecap:butt;stroke-linejoin:miter;stroke-miterlimit:10;stroke-dasharray:none;stroke-opacity:1"
             id="path444" /></g><g
           id="g446"
           transform="scale(0.0999893,-0.100011)"><path
             d="m 3951.68,-2810.46 v 453.48"
             style="fill:none;stroke:#000000;stroke-width:9.44749;stroke-linecap:butt;stroke-linejoin:miter;stroke-miterlimit:10;stroke-dasharray:none;stroke-opacity:1"
             id="path448" /></g></g></g><g
       id="g450"><g
         id="g452"
         clip-path="url(#clipPath456)"><g
           id="g458"
           clip-path="url(#clipPath462)"><g
             id="g464"
             transform="scale(0.0999893,-0.100011)"><path
               d="m 4008.37,-3207.25 -212.57,255.08"
               style="fill:none;stroke:#000000;stroke-width:2.36187;stroke-linecap:butt;stroke-linejoin:miter;stroke-miterlimit:10;stroke-dasharray:none;stroke-opacity:1"
               id="path466" /></g></g></g></g><g
       id="g468"><g
         id="g470"
         clip-path="url(#clipPath474)"><path
           d="m 381.523,299.154 -1.669,-3.527 3.117,2.299 -1.448,1.228"
           style="fill:#000000;fill-opacity:1;fill-rule:evenodd;stroke:none"
           id="path476" /><g
           id="g478"
           transform="scale(0.0999893,-0.100011)"><path
             d="m 3815.64,-2991.22 -16.69,35.27 31.17,-22.99 z"
             style="fill:none;stroke:#000000;stroke-width:2.36187;stroke-linecap:butt;stroke-linejoin:miter;stroke-miterlimit:10;stroke-dasharray:none;stroke-opacity:1"
             id="path480" /></g><g
           id="g482"
           transform="scale(0.0999893,-0.100011)"><path
             d="m 4603.56,-3306.45 -0.32,0.31 -0.94,0.63 -1.58,1.26 -2.52,1.58 -3.77,2.83 -5.04,3.47 -6.3,4.72 -7.56,5.35 -9.13,6.62 -10.08,7.55 -11.65,8.51 -12.6,9.13 -13.54,10.08 -14.49,11.02 -15.11,11.02 -15.44,11.65 -15.74,12.29 -16.06,11.96 -15.75,12.28 -15.74,12.6 -15.75,12.28 -15.43,12.28 -14.8,11.97 -14.8,11.97 -14.17,11.65 -13.55,11.65 -13.22,11.34 -12.91,11.33 -12.6,11.03 -11.97,11.02 -11.96,11.02 -11.34,10.71 -11.34,11.02 -10.7,10.71 -10.71,11.02 -10.71,11.02 -10.39,11.34 -10.39,11.34 -10.39,11.65 -10.4,11.65 -10.07,12.28 -8.82,10.08 -8.82,10.7 -8.82,10.71 -8.81,11.02 -9.14,11.34 -8.81,11.34 -9.14,11.65 -9.44,11.97 -9.14,12.28 -9.44,12.28 -9.77,12.6 -9.44,12.91 -9.77,13.23 -9.76,13.22 -10.08,13.54 -10.07,13.86 -10.08,13.85 -10.08,13.86 -10.39,14.17 -10.39,14.49 -10.08,14.17 -10.39,14.49 -10.71,14.48 -10.39,14.8 -10.39,14.49 -10.4,14.49 -10.39,14.48 -10.39,14.49 -10.39,14.17 -10.08,14.17 -10.39,14.17 -10.08,14.17 -9.76,13.54 -10.08,13.54 -9.76,13.55 -9.76,13.22 -9.45,12.91 -9.45,12.6 -9.45,12.28 -9.13,12.28 -9.13,11.97 -9.13,11.65 -8.82,11.34 -8.51,11.02 -8.81,11.03 -8.51,10.39 -8.5,10.39 -8.18,10.08 -8.19,9.76 -8.19,9.45 v 0.31 l -10.39,11.66 -10.08,11.33 -10.08,11.02 -10.08,10.71 -10.39,10.39 -10.07,10.4 -10.4,10.07 -10.7,9.76 -10.71,9.77 -11.02,9.76 -11.34,9.76 -11.65,9.76 -11.97,9.77 -12.59,9.76 -12.6,9.76 -13.23,9.76 -13.54,10.08 -13.86,10.08 -14.48,10.08 -14.49,10.07 -14.8,10.08 -14.8,10.08 -14.49,9.76 -14.8,9.76 -14.17,9.45 -13.86,8.82 -12.91,8.19 -12.28,7.87 -11.34,7.24 -10.07,6.3 -8.82,5.35 -7.56,4.73 -6.3,4.09 -5.04,2.83 -3.46,2.21 -2.83,1.57 -1.58,1.26 -0.94,0.32 -0.32,0.31"
             style="fill:none;stroke:#000000;stroke-width:2.36187;stroke-linecap:butt;stroke-linejoin:bevel;stroke-miterlimit:10;stroke-dasharray:none;stroke-opacity:1"
             id="path484" /></g><g
           id="g486"
           transform="scale(0.0999893,-0.100011)"><path
             d="m 3285.63,-1974.36 0.32,-0.31 0.94,-0.32 1.89,-0.63 3.15,-1.25 4.09,-1.58 5.67,-2.21 7.25,-2.83 8.81,-3.46 10.4,-4.1 11.96,-4.72 13.55,-5.36 15.11,-6.29 16.38,-6.61 17.63,-7.25 18.58,-7.56 19.21,-8.18 20.16,-8.51 20.47,-8.82 20.46,-8.81 20.79,-9.13 20.78,-9.14 20.47,-9.13 20.16,-9.45 19.52,-9.13 19.21,-9.13 18.9,-9.14 17.95,-9.13 17.63,-9.13 17.01,-8.82 16.38,-8.82 15.74,-8.81 15.11,-8.82 14.81,-8.82 13.85,-8.82 13.86,-8.81 13.22,-8.82 12.6,-8.82 12.6,-9.13 11.97,-9.14 11.96,-9.44 11.34,-9.45 11.34,-9.76 11.33,-10.08 11.03,-10.08 11.02,-10.39 10.08,-10.39 10.39,-10.71 10.39,-10.7 10.08,-11.03 10.39,-11.34 10.08,-11.65 10.39,-11.96 10.08,-11.97 10.39,-12.6 10.07,-12.91 10.4,-12.91 10.39,-13.23 10.08,-13.85 10.39,-13.86 10.39,-13.85 10.39,-14.49 10.08,-14.49 10.39,-14.8 10.08,-14.8 10.39,-15.12 10.08,-15.11 10.08,-15.12 10.07,-15.43 9.77,-15.43 10.08,-15.12 9.44,-15.43 9.77,-15.43 9.44,-15.11 9.45,-15.12 9.13,-15.12 9.14,-14.8 8.81,-14.48 8.82,-14.49 8.51,-14.49 8.5,-13.85 8.18,-13.86 8.19,-13.54 7.87,-13.54 7.88,-12.91 7.56,-12.6 7.24,-12.6 7.24,-12.28 7.25,-11.96 6.92,-11.66 6.93,-11.33 6.62,-11.34 6.61,-10.71 6.61,-10.7 8.19,-13.23 7.87,-12.6 7.88,-12.59 7.87,-12.29 7.87,-11.96 7.87,-11.97 7.88,-11.65 8.18,-11.34 7.88,-11.65 8.18,-11.65 8.51,-11.65 8.5,-11.65 8.82,-11.66 9.13,-11.96 9.13,-12.29 9.45,-12.28 9.76,-12.28 10.08,-12.6 10.08,-12.91 10.08,-12.6 10.39,-12.59 10.07,-12.6 10.08,-11.97 9.45,-11.96 9.45,-11.02 8.5,-10.4 8.19,-9.76 7.24,-8.82 6.62,-7.55 5.35,-6.62 4.72,-5.35 3.47,-4.41 2.83,-3.15 1.89,-2.2 1.26,-1.58 0.63,-0.63 0.31,-0.31"
             style="fill:none;stroke:#000000;stroke-width:2.36187;stroke-linecap:butt;stroke-linejoin:bevel;stroke-miterlimit:10;stroke-dasharray:none;stroke-opacity:1"
             id="path488" /></g><g
           id="g490"
           transform="scale(0.0999893,-0.100011)"><path
             d="m 3299.49,-1974.36 0.31,-0.31 0.95,-0.32 1.89,-1.26 2.52,-1.57 4.09,-2.21 5.04,-3.14 6.93,-4.1 8.19,-4.72 9.76,-5.98 11.33,-6.93 12.6,-7.56 14.17,-8.5 15.12,-9.45 16.37,-10.08 17.64,-10.7 17.95,-11.03 18.58,-11.65 19.21,-11.97 19.21,-12.28 19.52,-12.28 19.22,-12.28 18.89,-12.6 18.9,-12.28 18.26,-12.28 17.95,-11.97 17.63,-11.96 16.69,-11.66 16.38,-11.33 15.75,-11.34 15.43,-11.02 14.49,-11.03 14.17,-10.7 13.54,-10.71 13.22,-10.39 12.6,-10.4 12.28,-10.39 11.97,-10.08 11.65,-10.39 11.02,-10.39 11.03,-10.39 10.7,-10.39 10.39,-10.71 10.4,-10.71 10.07,-10.7 10.08,-11.03 9.76,-11.02 9.45,-11.02 9.45,-11.02 9.44,-11.34 9.45,-11.65 9.45,-11.65 9.45,-12.29 9.45,-12.28 9.13,-12.28 9.45,-12.91 9.76,-12.91 9.45,-13.23 9.44,-13.23 9.45,-13.85 9.45,-13.54 9.76,-14.17 9.45,-14.18 9.44,-14.17 9.45,-14.17 9.76,-14.48 9.45,-14.49 9.45,-14.8 9.45,-14.49 9.13,-14.48 9.45,-14.49 9.13,-14.49 9.13,-14.48 8.82,-14.49 9.13,-14.17 8.82,-13.85 8.5,-13.86 8.82,-13.86 8.5,-13.23 8.19,-13.54 8.19,-12.91 8.19,-12.59 7.87,-12.6 7.88,-12.28 7.55,-11.97 7.87,-11.65 7.25,-11.34 7.55,-11.33 7.25,-10.71 6.93,-10.71 7.24,-10.08 6.93,-10.07 6.92,-10.08 6.93,-9.45 8.82,-11.65 8.5,-11.65 8.82,-11.02 8.82,-11.03 8.82,-10.39 8.82,-10.39 9.13,-10.08 9.13,-10.08 9.45,-10.07 9.76,-10.08 10.08,-9.76 10.39,-10.08 10.71,-10.08 11.34,-10.08 11.33,-10.07 11.97,-10.39 12.28,-10.4 12.6,-10.39 12.91,-10.39 12.91,-10.39 13.23,-10.4 13.22,-10.39 12.91,-9.76 12.6,-9.76 11.97,-9.14 11.34,-8.5 10.7,-7.87 9.45,-6.93 8.5,-6.3 7.24,-5.35 5.99,-4.41 4.72,-3.46 3.78,-2.52 2.52,-1.89 1.57,-0.95 0.95,-0.63 0.32,-0.31"
             style="fill:none;stroke:#000000;stroke-width:2.36187;stroke-linecap:butt;stroke-linejoin:bevel;stroke-miterlimit:10;stroke-dasharray:none;stroke-opacity:1"
             id="path492" /></g><g
           id="g494"
           transform="scale(0.0999893,-0.100011)"><path
             d="m 4617.41,-3306.45 -0.31,0.31 -0.95,0.32 -1.89,0.94 -2.83,1.26 -4.09,1.89 -5.36,2.52 -6.93,3.15 -8.5,3.78 -10.08,4.72 -11.33,5.36 -12.91,6.29 -14.17,6.93 -15.44,7.25 -16.37,8.18 -17.32,8.51 -17.95,8.81 -18.27,9.14 -18.58,9.76 -18.58,9.45 -18.89,10.07 -18.58,9.76 -18.27,10.09 -17.63,9.76 -17.64,9.76 -17,10.07 -16.38,9.77 -16.06,9.76 -15.43,9.45 -15.12,9.76 -14.17,9.45 -14.17,9.76 -13.22,9.45 -13.23,9.76 -12.6,9.76 -12.28,9.76 -11.97,9.77 -11.97,10.08 -11.33,10.39 -11.34,10.71 -11.33,10.7 -11.03,11.02 -11.02,11.34 -11.02,11.65 -9.45,10.71 -9.76,10.71 -9.77,11.02 -9.44,11.34 -9.77,11.65 -9.76,11.96 -9.76,11.97 -9.76,12.6 -10.08,12.91 -10.08,12.91 -10.07,13.23 -10.08,13.85 -10.08,13.86 -10.08,14.17 -10.39,14.17 -10.39,14.8 -10.39,14.8 -10.39,15.12 -10.4,15.12 -10.39,15.43 -10.39,15.43 -10.39,15.43 -10.4,15.75 -10.39,15.43 -10.39,15.74 -10.08,15.75 -10.07,15.74 -10.4,15.43 -9.76,15.75 -10.08,15.12 -9.76,15.43 -9.76,15.11 -9.45,14.8 -9.45,14.81 -9.13,14.48 -9.13,14.17 -9.13,14.17 -8.82,13.55 -8.51,13.54 -8.5,13.22 -8.5,12.91 -8.19,12.6 -7.87,12.28 -7.87,11.97 -7.88,11.65 -7.56,11.34 -7.55,11.02 -7.25,11.02 -7.24,10.4 -7.24,10.39 -9.77,13.85 -9.76,13.23 -9.76,12.91 -9.45,12.29 -9.44,12.28 -9.77,11.65 -9.44,11.65 -9.77,11.02 -10.08,11.34 -10.07,11.02 -10.39,10.71 -10.39,11.02 -11.03,11.02 -11.34,11.02 -11.65,10.71 -11.65,11.02 -12.28,11.02 -12.28,11.03 -12.6,11.02 -12.59,11.02 -12.29,10.39 -12.28,10.4 -11.65,9.44 -11.02,9.45 -10.4,8.5 -9.76,7.56 -8.5,6.61 -7.24,5.99 -5.99,4.72 -5.04,3.78 -3.46,2.84 -2.83,2.2 -1.58,1.26 -0.94,0.63 -0.32,0.31"
             style="fill:none;stroke:#000000;stroke-width:2.36187;stroke-linecap:butt;stroke-linejoin:bevel;stroke-miterlimit:10;stroke-dasharray:none;stroke-opacity:1"
             id="path496" /></g><text
           transform="matrix(0.99978594,0,0,-1,113.938,363.278)"
           style="font-variant:normal;font-weight:normal;font-size:7.5588px;font-family:Times;-inkscape-font-specification:Times-Roman;writing-mode:lr-tb;fill:#000000;fill-opacity:1;fill-rule:nonzero;stroke:none"
           id="text500"><tspan
             x="0"
             y="0"
             id="tspan498">−</tspan></text><text
           transform="matrix(0.99978594,0,0,-1,118.20025,363.278)"
           style="font-variant:normal;font-weight:normal;font-size:7.5588px;font-family:Times;-inkscape-font-specification:Times-Roman;writing-mode:lr-tb;fill:#000000;fill-opacity:1;fill-rule:nonzero;stroke:none"
           id="text504"><tspan
             x="0 3.7794001 7.5588002 9.4484997 11.791728 47.945469 51.724869 53.614567 55.957798 163.21716 166.99657 170.77597 174.55537 176.44507 178.7883"
             y="0"
             sodipodi:role="line"
             id="tspan502">25 ºC0 ºC100 ºC</tspan></text><text
           transform="matrix(0.99978594,0,0,-1,462.7543,363.278)"
           style="font-variant:normal;font-weight:normal;font-size:7.5588px;font-family:Times;-inkscape-font-specification:Times-Roman;writing-mode:lr-tb;fill:#000000;fill-opacity:1;fill-rule:nonzero;stroke:none"
           id="text508"><tspan
             x="0 3.7794001 7.5588002 11.3382 13.2279 15.571128"
             y="0"
             sodipodi:role="line"
             id="tspan506">300 ºC</tspan></text><text
           transform="matrix(0.99978594,0,0,-1,316.9146,455.4007)"
           style="font-variant:normal;font-weight:normal;font-size:7.5588px;font-family:Times;-inkscape-font-specification:Times-Roman;writing-mode:lr-tb;fill:#000000;fill-opacity:1;fill-rule:nonzero;stroke:none"
           id="text512"><tspan
             x="0 5.0417194 8.3978271 14.278573 18.057974 21.837374 23.727074 27.083179 30.862581 34.641979 36.531681 39.472054 43.251453 47.030853 49.547935 52.904041 55.844414 57.945763 61.725163 65.504562 67.394264 71.17366 74.52977 76.419472 79.775574 83.131683 85.648766 89.428162 91.317863 95.581024 97.470726 101.25013 105.02953 108.80893 110.69862 114.05473 115.94444 119.72383 123.50323 127.28263 129.17233 131.51556"
             y="0"
             sodipodi:role="line"
             id="tspan510">Campo con supresión de cero = 100 a 300 ºC</tspan></text><text
           transform="matrix(0.99978594,0,0,-1,189.3609,455.4007)"
           style="font-variant:normal;font-weight:normal;font-size:7.5588px;font-family:Times;-inkscape-font-specification:Times-Roman;writing-mode:lr-tb;fill:#000000;fill-opacity:1;fill-rule:nonzero;stroke:none"
           id="text516"><tspan
             x="0 4.202693 7.9820929 11.761493 14.278573 17.63468 20.575054 22.676399 26.455799 30.235201 32.124901 35.904301 39.260406 41.150108 44.506214 47.86232 50.379402 54.158802 56.048504 60.311665 62.201366 65.980766 69.760162 73.539566 75.429268 77.772491"
             y="0"
             sodipodi:role="line"
             id="tspan514">Supresión de cero = 100 ºC</tspan></text><text
           transform="matrix(0.99978594,0,0,-1,109.7538,505.0054)"
           style="font-variant:normal;font-weight:normal;font-size:7.5588px;font-family:Times;-inkscape-font-specification:Times-Roman;writing-mode:lr-tb;fill:#000000;fill-opacity:1;fill-rule:nonzero;stroke:none"
           id="text520"><tspan
             x="0 4.6184268 6.7197733 10.07588 13.855281 17.211388 20.990788 24.346895 27.703003 29.804348 33.583748 37.363148 39.25285 43.032249 46.388355 48.278057 51.634163 54.990269 57.507351 61.286751 63.176449 67.439613 69.329315 73.108711 76.888115 78.777817 81.12104"
             y="0"
             sodipodi:role="line"
             id="tspan518">Elevevación de cero = 25 ºC</tspan></text><text
           transform="matrix(0.99978594,0,0,-1,350.2473,407.2132)"
           style="font-variant:normal;font-weight:normal;font-size:7.5588px;font-family:Times;-inkscape-font-specification:Times-Roman;writing-mode:lr-tb;fill:#000000;fill-opacity:1;fill-rule:nonzero;stroke:none"
           id="text524"><tspan
             x="0 5.0417194 8.3978271 14.278573 18.057974 21.837374 23.727074 27.990236 29.879936 33.659336 37.438736 41.218136"
             y="0"
             sodipodi:role="line"
             id="tspan522">Campo = 100 </tspan></text><text
           transform="matrix(0.99978594,0,0,-1,393.34591,407.2132)"
           style="font-variant:normal;font-weight:normal;font-size:7.5588px;font-family:Times;-inkscape-font-specification:Times-Roman;writing-mode:lr-tb;fill:#000000;fill-opacity:1;fill-rule:nonzero;stroke:none"
           id="text528"><tspan
             x="0"
             y="0"
             id="tspan526">−</tspan></text><text
           transform="matrix(0.99978594,0,0,-1,399.49746,407.2132)"
           style="font-variant:normal;font-weight:normal;font-size:7.5588px;font-family:Times;-inkscape-font-specification:Times-Roman;writing-mode:lr-tb;fill:#000000;fill-opacity:1;fill-rule:nonzero;stroke:none"
           id="text532"><tspan
             x="0 3.7794001 7.5588002 11.3382 13.2279 15.571128"
             y="0"
             sodipodi:role="line"
             id="tspan530">300 ºC</tspan></text><text
           transform="matrix(0.99978594,0,0,-1,358.4731,429.8898)"
           style="font-variant:normal;font-weight:normal;font-size:7.5588px;font-family:Times;-inkscape-font-specification:Times-Roman;writing-mode:lr-tb;fill:#000000;fill-opacity:1;fill-rule:nonzero;stroke:none"
           id="text536"><tspan
             x="0 5.4574537 7.5588002 10.914907 14.271014 18.050415 21.406521 24.762629 26.652328 30.915491 32.805191 36.584591 40.363991 44.143391 46.033092 48.37632"
             y="0"
             sodipodi:role="line"
             id="tspan534">Alcance = 200 ºC</tspan></text><text
           transform="matrix(0.99978594,0,0,-1,255.7781,490.8328)"
           style="font-variant:normal;font-weight:normal;font-size:7.5588px;font-family:Times;-inkscape-font-specification:Times-Roman;writing-mode:lr-tb;fill:#000000;fill-opacity:1;fill-rule:nonzero;stroke:none"
           id="text540"><tspan
             x="0 5.0417194 8.3978271 14.278573 18.057974 21.837374 23.727074 27.083179 30.862581 34.641979 36.531681 39.887787 41.989136 45.345242 49.124641 52.480747 55.836857 57.938202 61.717602 65.497002 67.386703 71.1661 74.522209 76.411911 79.768013 83.124123 85.641205 89.420601 91.310303 95.573463"
             y="0"
             sodipodi:role="line"
             id="tspan538">Campo con elevación de cero = </tspan></text><text
           transform="matrix(0.99978594,0,0,-1,353.2204,490.8328)"
           style="font-variant:normal;font-weight:normal;font-size:7.5588px;font-family:Times;-inkscape-font-specification:Times-Roman;writing-mode:lr-tb;fill:#000000;fill-opacity:1;fill-rule:nonzero;stroke:none"
           id="text544"><tspan
             x="0"
             y="0"
             id="tspan542">−</tspan></text><text
           transform="matrix(0.99978594,0,0,-1,357.48266,490.8328)"
           style="font-variant:normal;font-weight:normal;font-size:7.5588px;font-family:Times;-inkscape-font-specification:Times-Roman;writing-mode:lr-tb;fill:#000000;fill-opacity:1;fill-rule:nonzero;stroke:none"
           id="text548"><tspan
             x="0 3.7794001 7.5588002 9.4484997 12.804607 14.694307 18.473707 22.253107 26.032507 27.922207 30.265434"
             y="0"
             sodipodi:role="line"
             id="tspan546">25 a 300 ºC</tspan></text><text
           transform="matrix(0.99978568,0,0,-1,292.38,349.105)"
           style="font-variant:normal;font-weight:normal;font-size:11.3382px;font-family:Times;-inkscape-font-specification:Times-Roman;writing-mode:lr-tb;fill:#000000;fill-opacity:1;fill-rule:nonzero;stroke:none"
           id="text552"><tspan
             x="0 5.0341606"
             y="0"
             sodipodi:role="line"
             id="tspan550">a)</tspan></text><text
           transform="matrix(0.99978594,0,0,-1,195.125,187.536)"
           style="font-variant:normal;font-weight:normal;font-size:7.5588px;font-family:Times;-inkscape-font-specification:Times-Roman;writing-mode:lr-tb;fill:#000000;fill-opacity:1;fill-rule:nonzero;stroke:none"
           id="text556"><tspan
             x="0 6.7197733 10.07588 13.855281 15.956627 19.736027 75.323441 79.102844 82.88224"
             y="0"
             sodipodi:role="line"
             id="tspan554">Medida300</tspan></text><text
           transform="matrix(0.99978594,0,0,-1,135.8195,187.536)"
           style="font-variant:normal;font-weight:normal;font-size:7.5588px;font-family:Times;-inkscape-font-specification:Times-Roman;writing-mode:lr-tb;fill:#000000;fill-opacity:1;fill-rule:nonzero;stroke:none"
           id="text560"><tspan
             x="0 3.7794001 7.5588002"
             y="0"
             sodipodi:role="line"
             id="tspan558">100</tspan></text><text
           transform="matrix(0.99978594,0,0,-1,125.9007,194.6223)"
           style="font-variant:normal;font-weight:normal;font-size:7.5588px;font-family:Times;-inkscape-font-specification:Times-Roman;writing-mode:lr-tb;fill:#000000;fill-opacity:1;fill-rule:nonzero;stroke:none"
           id="text564"><tspan
             x="0 3.7794001 7.5588002"
             y="0"
             sodipodi:role="line"
             id="tspan562">100</tspan></text><text
           transform="matrix(0.99978594,0,0,-1,125.9007,327.8463)"
           style="font-variant:normal;font-weight:normal;font-size:7.5588px;font-family:Times;-inkscape-font-specification:Times-Roman;writing-mode:lr-tb;fill:#000000;fill-opacity:1;fill-rule:nonzero;stroke:none"
           id="text568"><tspan
             x="0 3.7794001 7.5588002"
             y="0"
             sodipodi:role="line"
             id="tspan566">300</tspan></text><text
           transform="matrix(0,1,0.99979005,0,135.82,253.945)"
           style="font-variant:normal;font-weight:normal;font-size:7.55877px;font-family:Times;-inkscape-font-specification:Times-Roman;writing-mode:lr-tb;fill:#000000;fill-opacity:1;fill-rule:nonzero;stroke:none"
           id="text572"><tspan
             x="0 4.6184068 7.9744992 11.330592 13.431929 17.211313 19.728382"
             y="0"
             sodipodi:role="line"
             id="tspan570">Lectura</tspan></text><text
           transform="matrix(0.99978594,0,0,-1,226.506,234.306)"
           style="font-variant:normal;font-weight:normal;font-size:7.5588px;font-family:Times;-inkscape-font-specification:Times-Roman;writing-mode:lr-tb;fill:#000000;fill-opacity:1;fill-rule:nonzero;stroke:none"
           id="text576"><tspan
             x="0 5.0417194 8.3978271 12.177227 15.533334 17.63468 19.736027 23.515427 25.616774 27.718119 29.819466 33.598866 36.954971"
             y="0"
             sodipodi:role="line"
             id="tspan574">Repetibilidad</tspan></text><text
           transform="matrix(0.99978568,0,0,-1,198.387,171.001)"
           style="font-variant:normal;font-weight:normal;font-size:11.3382px;font-family:Times;-inkscape-font-specification:Times-Roman;writing-mode:lr-tb;fill:#000000;fill-opacity:1;fill-rule:nonzero;stroke:none"
           id="text580"><tspan
             x="0 5.6690998"
             y="0"
             sodipodi:role="line"
             id="tspan578">b)</tspan></text><text
           transform="matrix(0.99978594,0,0,-1,380.749,187.536)"
           style="font-variant:normal;font-weight:normal;font-size:7.5588px;font-family:Times;-inkscape-font-specification:Times-Roman;writing-mode:lr-tb;fill:#000000;fill-opacity:1;fill-rule:nonzero;stroke:none"
           id="text584"><tspan
             x="0 6.7197733 10.07588 13.855281 15.956627 19.736027 75.322685 79.102089 82.881485"
             y="0"
             sodipodi:role="line"
             id="tspan582">Medida300</tspan></text><text
           transform="matrix(0.99978594,0,0,-1,321.4435,187.536)"
           style="font-variant:normal;font-weight:normal;font-size:7.5588px;font-family:Times;-inkscape-font-specification:Times-Roman;writing-mode:lr-tb;fill:#000000;fill-opacity:1;fill-rule:nonzero;stroke:none"
           id="text588"><tspan
             x="0 3.7794001 7.5588002"
             y="0"
             sodipodi:role="line"
             id="tspan586">100</tspan></text><text
           transform="matrix(0.99978594,0,0,-1,311.5247,194.6223)"
           style="font-variant:normal;font-weight:normal;font-size:7.5588px;font-family:Times;-inkscape-font-specification:Times-Roman;writing-mode:lr-tb;fill:#000000;fill-opacity:1;fill-rule:nonzero;stroke:none"
           id="text592"><tspan
             x="0 3.7794001 7.5588002"
             y="0"
             sodipodi:role="line"
             id="tspan590">100</tspan></text><text
           transform="matrix(0.99978594,0,0,-1,311.5247,327.8463)"
           style="font-variant:normal;font-weight:normal;font-size:7.5588px;font-family:Times;-inkscape-font-specification:Times-Roman;writing-mode:lr-tb;fill:#000000;fill-opacity:1;fill-rule:nonzero;stroke:none"
           id="text596"><tspan
             x="0 3.7794001 7.5588002"
             y="0"
             sodipodi:role="line"
             id="tspan594">300</tspan></text><text
           transform="matrix(0,1,0.99979005,0,321.443,253.945)"
           style="font-variant:normal;font-weight:normal;font-size:7.55877px;font-family:Times;-inkscape-font-specification:Times-Roman;writing-mode:lr-tb;fill:#000000;fill-opacity:1;fill-rule:nonzero;stroke:none"
           id="text600"><tspan
             x="0 4.6184068 7.9744992 11.330592 13.431929 17.211313 19.728382"
             y="0"
             sodipodi:role="line"
             id="tspan598">Lectura</tspan></text><text
           transform="matrix(0.99978594,0,0,-1,409.295,232.889)"
           style="font-variant:normal;font-weight:normal;font-size:7.5588px;font-family:Times;-inkscape-font-specification:Times-Roman;writing-mode:lr-tb;fill:#000000;fill-opacity:1;fill-rule:nonzero;stroke:none"
           id="text604"><tspan
             x="0 5.4574537 7.5588002 10.499173 12.600519 15.956627 18.473707 21.829815 24.770187 26.871534"
             y="0"
             sodipodi:role="line"
             id="tspan602">Histéresis</tspan></text><text
           transform="matrix(0.99978568,0,0,-1,384.483,171.001)"
           style="font-variant:normal;font-weight:normal;font-size:11.3382px;font-family:Times;-inkscape-font-specification:Times-Roman;writing-mode:lr-tb;fill:#000000;fill-opacity:1;fill-rule:nonzero;stroke:none"
           id="text608"><tspan
             x="0 5.0341606"
             y="0"
             sodipodi:role="line"
             id="tspan606">c)</tspan></text></g></g></g></svg>
