<?xml version="1.0" encoding="UTF-8" standalone="no"?>
<!-- Creator: fig2dev Version 3.2.8a -->
<!-- CreationDate: 2021-05-04 12:50:32 -->
<!-- Magnification: 1.05 -->
<svg	xmlns="http://www.w3.org/2000/svg"
	xmlns:xlink="http://www.w3.org/1999/xlink"
	width="493pt" height="309pt"
	viewBox="435 300 7812 4890">
<g fill="none">
<!-- Text -->
<text xml:space="preserve" x="2655" y="3465" fill="#000000" font-family="Times" font-style="normal" font-weight="normal" font-size="144" text-anchor="start">B</text>
<!-- Line -->
<polyline points=" 2835,1260 1125,1260"
	stroke="#000000" stroke-width="8px" stroke-dasharray="40 40"/>
<!-- Line -->
<defs>
<clipPath id="cp0">
	<path clip-rule="evenodd" d="M 435,300 H 8247 V 5190 H 435 z
		M 2550,4768 2520,4888 2490,4768 2513,4912 2527,4912z
		M 2490,2117 2520,1997 2550,2117 2527,1973 2513,1973z"/>
</clipPath>
</defs>
<polyline points=" 2520,1980 2520,4905" clip-path="url(#cp0)"
	stroke="#000000" stroke-width="8px" stroke-dasharray="40 40"/>
<!-- Forward arrow to point 2520,4905 -->
<polyline points=" 2550,4768 2520,4888 2490,4768"
	stroke="#000000" stroke-width="8px" stroke-miterlimit="8"/>
<!-- Backward arrow to point 2520,1980 -->
<polyline points=" 2490,2117 2520,1997 2550,2117"
	stroke="#000000" stroke-width="8px" stroke-miterlimit="8"/>
<!-- Line -->
<defs>
<clipPath id="cp1">
	<path clip-rule="evenodd" d="M 435,300 H 8247 V 5190 H 435 z
		M 2550,1843 2520,1963 2490,1843 2513,1987 2527,1987z
		M 2490,1397 2520,1277 2550,1397 2527,1253 2513,1253z"/>
</clipPath>
</defs>
<polyline points=" 2520,1260 2520,1980" clip-path="url(#cp1)"
	stroke="#000000" stroke-width="8px" stroke-dasharray="40 40"/>
<!-- Forward arrow to point 2520,1980 -->
<polyline points=" 2550,1843 2520,1963 2490,1843"
	stroke="#000000" stroke-width="8px" stroke-miterlimit="8"/>
<!-- Backward arrow to point 2520,1260 -->
<polyline points=" 2490,1397 2520,1277 2550,1397"
	stroke="#000000" stroke-width="8px" stroke-miterlimit="8"/>
<!-- Line -->
<polyline points=" 7785,1980 1125,1980"
	stroke="#000000" stroke-width="8px" stroke-linejoin="bevel" stroke-dasharray="40 40"/>
<!-- Line -->
<polyline points=" 1125,4905 1126,4905 1128,4906 1130,4906 1133,4907 1137,4907
 1143,4908 1149,4908 1157,4909 1166,4909 1176,4908 1186,4907 1198,4904 1211,4901
 1224,4897 1238,4891 1252,4883 1267,4874 1282,4862 1298,4848 1314,4832 1332,4812
 1349,4789 1368,4762 1387,4731 1407,4695 1428,4653 1450,4606 1473,4553 1498,4494
 1523,4427 1549,4354 1575,4275 1595,4213 1614,4149 1632,4085 1650,4021 1667,3958
 1683,3897 1697,3837 1711,3780 1723,3726 1733,3675 1743,3626 1751,3580 1759,3537
 1765,3497 1771,3459 1775,3423 1779,3389 1782,3358 1785,3327 1787,3298 1789,3269
 1791,3241 1793,3214 1794,3186 1796,3158 1798,3130 1800,3100 1803,3069 1806,3037
 1811,3003 1815,2966 1821,2928 1828,2886 1836,2842 1844,2795 1855,2745 1866,2692
 1879,2636 1893,2577 1909,2515 1925,2451 1943,2385 1963,2318 1983,2249 2004,2182
 2025,2115 2054,2029 2083,1948 2110,1874 2135,1807 2158,1746 2178,1692 2196,1645
 2211,1604 2224,1568 2234,1538 2242,1511 2249,1489 2254,1469 2258,1453 2261,1438
 2263,1425 2265,1414 2267,1403 2270,1393 2273,1383 2278,1373 2284,1362 2291,1351
 2301,1340 2314,1328 2329,1316 2347,1303 2369,1291 2394,1279 2422,1269 2454,1261
 2489,1256 2526,1255 2565,1260 2603,1270 2640,1286 2677,1307 2712,1331 2745,1358
 2775,1389 2803,1421 2828,1454 2850,1489 2870,1525 2888,1561 2904,1598 2918,1635
 2930,1673 2941,1710 2951,1748 2961,1785 2970,1823 2979,1860 2989,1897 2999,1935
 3010,1972 3022,2010 3036,2047 3052,2084 3070,2120 3090,2156 3112,2191 3137,2224
 3165,2256 3195,2287 3228,2314 3263,2338 3300,2359 3337,2375 3375,2385 3419,2390
 3461,2386 3498,2376 3532,2360 3560,2339 3584,2313 3602,2284 3617,2253 3628,2219
 3635,2184 3639,2148 3640,2110 3640,2072 3639,2034 3637,1995 3636,1956 3635,1917
 3635,1878 3637,1840 3641,1802 3649,1764 3660,1728 3675,1693 3695,1659 3720,1628
 3749,1600 3784,1575 3824,1555 3868,1539 3915,1530 3960,1527 4006,1530 4050,1537
 4091,1549 4129,1564 4164,1582 4196,1602 4224,1624 4249,1648 4270,1673 4289,1698
 4306,1725 4320,1751 4333,1779 4346,1806 4358,1834 4369,1862 4382,1889 4395,1917
 4410,1945 4427,1973 4446,2000 4468,2027 4493,2053 4522,2079 4554,2103 4591,2126
 4630,2148 4674,2167 4719,2183 4767,2196 4815,2205 4873,2210 4926,2210 4974,2204
 5015,2195 5049,2181 5076,2165 5096,2147 5111,2128 5121,2107 5127,2085 5129,2063
 5130,2040 5130,2017 5130,1994 5131,1971 5133,1948 5139,1925 5149,1901 5164,1879
 5184,1856 5211,1835 5245,1815 5286,1796 5334,1779 5387,1766 5445,1755 5496,1749
 5546,1746 5594,1745 5637,1746 5676,1749 5709,1754 5737,1760 5761,1767 5779,1774
 5794,1783 5804,1792 5813,1801 5819,1810 5823,1820 5828,1830 5832,1840 5837,1850
 5845,1861 5855,1871 5869,1881 5887,1892 5911,1902 5941,1913 5977,1923 6021,1934
 6072,1944 6131,1954 6197,1963 6269,1972 6345,1980 6411,1986 6477,1991 6543,1995
 6607,1999 6671,2002 6733,2005 6793,2007 6852,2008 6909,2009 6965,2009 7020,2009
 7074,2009 7126,2008 7178,2007 7229,2006 7278,2004 7327,2003 7374,2001 7420,1999
 7465,1997 7508,1995 7548,1993 7586,1991 7621,1990 7653,1988 7682,1986 7706,1985
 7728,1984 7745,1982 7759,1982 7769,1981 7777,1981 7781,1980 7784,1980 7785,1980
"
	stroke="#000000" stroke-width="8px" stroke-linejoin="bevel"/>
<!-- Text -->
<text xml:space="preserve" x="450" y="450" fill="#000000" font-family="Times" font-style="normal" font-weight="normal" font-size="144" text-anchor="start">Ritmo</text>
<!-- Text -->
<text xml:space="preserve" x="450" y="630" fill="#000000" font-family="Times" font-style="normal" font-weight="normal" font-size="144" text-anchor="start">cardiaco</text>
<!-- Text -->
<text xml:space="preserve" x="720" y="1350" fill="#000000" font-family="Times" font-style="normal" font-weight="normal" font-size="144" text-anchor="start">130</text>
<!-- Text -->
<text xml:space="preserve" x="810" y="4950" fill="#000000" font-family="Times" font-style="normal" font-weight="normal" font-size="144" text-anchor="start">70</text>
<!-- Text -->
<text xml:space="preserve" x="8010" y="5175" fill="#000000" font-family="Times" font-style="normal" font-weight="normal" font-size="144" text-anchor="start">t</text>
<!-- Text -->
<text xml:space="preserve" x="765" y="2025" fill="#000000" font-family="Times" font-style="normal" font-weight="normal" font-size="144" text-anchor="start">110</text>
<!-- Text -->
<text xml:space="preserve" x="2655" y="1665" fill="#000000" font-family="Times" font-style="normal" font-weight="normal" font-size="144" text-anchor="start">A</text>
<!-- Line -->
<polyline points=" 1125,765 1125,4905 8235,4905"
	stroke="#000000" stroke-width="8px"/>
</g>
</svg>
