<?xml version="1.0" encoding="UTF-8" standalone="no"?>
<svg
   xmlns:dc="http://purl.org/dc/elements/1.1/"
   xmlns:cc="http://creativecommons.org/ns#"
   xmlns:rdf="http://www.w3.org/1999/02/22-rdf-syntax-ns#"
   xmlns:svg="http://www.w3.org/2000/svg"
   xmlns="http://www.w3.org/2000/svg"
   xmlns:sodipodi="http://sodipodi.sourceforge.net/DTD/sodipodi-0.dtd"
   xmlns:inkscape="http://www.inkscape.org/namespaces/inkscape"
   width="365pt"
   height="251pt"
   viewBox="1563 1293 5784 3984"
   version="1.1"
   id="svg117"
   sodipodi:docname="prob404.svg"
   inkscape:version="1.0.2 (e86c8708, 2021-01-15)">
  <metadata
     id="metadata123">
    <rdf:RDF>
      <cc:Work
         rdf:about="">
        <dc:format>image/svg+xml</dc:format>
        <dc:type
           rdf:resource="http://purl.org/dc/dcmitype/StillImage" />
      </cc:Work>
    </rdf:RDF>
  </metadata>
  <defs
     id="defs121" />
  <sodipodi:namedview
     pagecolor="#ffffff"
     bordercolor="#666666"
     borderopacity="1"
     objecttolerance="10"
     gridtolerance="10"
     guidetolerance="10"
     inkscape:pageopacity="0"
     inkscape:pageshadow="2"
     inkscape:window-width="1383"
     inkscape:window-height="950"
     id="namedview119"
     showgrid="false"
     inkscape:zoom="2.2032066"
     inkscape:cx="243.33333"
     inkscape:cy="167.33333"
     inkscape:window-x="132"
     inkscape:window-y="47"
     inkscape:window-maximized="0"
     inkscape:current-layer="text113" />
  <g
     fill="none"
     id="g115">
    <!-- Text -->
    <text
       xml:space="preserve"
       x="3510"
       y="4275"
       fill="#000000"
       font-family="Times"
       font-style="normal"
       font-weight="normal"
       font-size="144"
       text-anchor="start"
       id="text14">c<tspan
   font-size="96"
   baseline-shift="sub"
   id="tspan10">A</tspan>, c<tspan
   font-size="96"
   baseline-shift="sub"
   id="tspan12">B</tspan></text>
    <!-- Ellipse -->
    <ellipse
       cx="4095"
       cy="3870"
       rx="225"
       ry="90"
       stroke="#000000"
       stroke-width="8px"
       id="ellipse16" />
    <!-- Line -->
    <polyline
       points=" 3870,3870 3870,1890"
       stroke="#000000"
       stroke-width="8px"
       id="polyline18" />
    <!-- Circle -->
    <circle
       cx="6120"
       cy="4185"
       r="324"
       stroke="#000000"
       stroke-width="8px"
       id="circle20" />
    <!-- Line -->
    <polyline
       points=" 2745,2835 4995,2835"
       stroke="#000000"
       stroke-width="8px"
       id="polyline22" />
    <!-- Line -->
    <polyline
       points=" 2745,2070 2745,4410 4995,4410 4995,2070"
       stroke="#000000"
       stroke-width="8px"
       id="polyline24" />
    <!-- Line -->
    <defs
       id="defs29">
      <clipPath
         id="cp0">
        <path
           clip-rule="evenodd"
           d="M 1563,1293 H 7347 V 5277 H 1563 z   M 3360,2248 3330,2368 3300,2248 3323,2392 3337,2392z"
           id="path26" />
      </clipPath>
    </defs>
    <polyline
       points=" 1575,1620 3330,1620 3330,2385"
       clip-path="url(#cp0)"
       stroke="#000000"
       stroke-width="8px"
       id="polyline31" />
    <!-- Forward arrow to point 3330,2385 -->
    <polyline
       points=" 3360,2248 3330,2368 3300,2248"
       stroke="#000000"
       stroke-width="8px"
       stroke-miterlimit="8"
       id="polyline33" />
    <!-- Line -->
    <defs
       id="defs38">
      <clipPath
         id="cp1">
        <path
           clip-rule="evenodd"
           d="M 1563,1293 H 7347 V 5277 H 1563 z   M 4575,2248 4545,2368 4515,2248 4538,2392 4552,2392z"
           id="path35" />
      </clipPath>
    </defs>
    <polyline
       points=" 6300,1620 4545,1620 4545,2385"
       clip-path="url(#cp1)"
       stroke="#000000"
       stroke-width="8px"
       id="polyline40" />
    <!-- Forward arrow to point 4545,2385 -->
    <polyline
       points=" 4575,2248 4545,2368 4515,2248"
       stroke="#000000"
       stroke-width="8px"
       stroke-miterlimit="8"
       id="polyline42" />
    <!-- Line -->
    <defs
       id="defs47">
      <clipPath
         id="cp2">
        <path
           clip-rule="evenodd"
           d="M 1563,1293 H 7347 V 5277 H 1563 z   M 1965,5128 1935,5248 1905,5128 1928,5272 1942,5272z"
           id="path44" />
      </clipPath>
    </defs>
    <polyline
       points=" 2745,4185 1935,4185 1935,5265"
       clip-path="url(#cp2)"
       stroke="#000000"
       stroke-width="8px"
       id="polyline49" />
    <!-- Forward arrow to point 1935,5265 -->
    <polyline
       points=" 1965,5128 1935,5248 1905,5128"
       stroke="#000000"
       stroke-width="8px"
       stroke-miterlimit="8"
       id="polyline51" />
    <!-- Line -->
    <defs
       id="defs56">
      <clipPath
         id="cp3">
        <path
           clip-rule="evenodd"
           d="M 1563,1293 H 7347 V 5277 H 1563 z   M 5983,4155 6103,4185 5983,4215 6127,4192 6127,4178z"
           id="path53" />
      </clipPath>
    </defs>
    <polyline
       points=" 4995,4185 6120,4185"
       clip-path="url(#cp3)"
       stroke="#000000"
       stroke-width="8px"
       id="polyline58" />
    <!-- Forward arrow to point 6120,4185 -->
    <polyline
       points=" 5983,4155 6103,4185 5983,4215"
       stroke="#000000"
       stroke-width="8px"
       stroke-miterlimit="8"
       id="polyline60" />
    <!-- Line -->
    <defs
       id="defs65">
      <clipPath
         id="cp4">
        <path
           clip-rule="evenodd"
           d="M 1563,1293 H 7347 V 5277 H 1563 z   M 7198,3930 7318,3960 7198,3990 7342,3967 7342,3953z"
           id="path62" />
      </clipPath>
    </defs>
    <polyline
       points=" 6615,3960 7335,3960"
       clip-path="url(#cp4)"
       stroke="#000000"
       stroke-width="8px"
       id="polyline67"
       transform="translate(32.310214)" />
    <!-- Forward arrow to point 7335,3960 -->
    <polyline
       points=" 7198,3930 7318,3960 7198,3990"
       stroke="#000000"
       stroke-width="8px"
       stroke-miterlimit="8"
       id="polyline69" />
    <!-- Line -->
    <polyline
       points=" 5895,4410 5805,4635 6120,4635"
       stroke="#000000"
       stroke-width="8px"
       id="polyline71" />
    <!-- Line -->
    <polyline
       points=" 6120,3870 6615,3870 6615,4050 6390,4050"
       stroke="#000000"
       stroke-width="8px"
       id="polyline73"
       transform="translate(23.808766,-4.6157447)" />
    <!-- Line -->
    <polyline
       points=" 6345,4410 6435,4635 6120,4635"
       stroke="#000000"
       stroke-width="8px"
       id="polyline75" />
    <!-- Text -->
    <g
       aria-label="F1, cA1, cB1  F2, cA2, cB2  F3, cA, cB  F4  "
       id="text113"
       style="font-style:normal;font-weight:normal;font-size:144px;font-family:Times;text-anchor:start;fill:#000000">
      <path
         d="m 1711.6172,1532.6333 q 8.5078,-0.9141 10.5469,-3.0937 2.1093,-2.25 2.1093,-11.6016 v -62.3672 q 0,-7.6641 -2.3203,-9.9844 -2.3203,-2.3906 -10.3359,-2.9531 v -2.6719 h 76.7109 l 0.4922,20.6719 h -4.0078 q -1.4766,-9.9141 -5.5547,-12.5156 -4.0781,-2.6719 -16.1015,-2.6719 h -19.6875 q -2.8829,0 -3.7266,0.9844 -0.7734,0.9844 -0.7734,3.8672 v 32.1328 h 20.8125 q 9.2109,0 11.7421,-2.7422 2.5313,-2.7422 4.0782,-11.1094 h 3.375 v 33.3281 h -3.375 q -1.6172,-8.3671 -4.1485,-11.039 -2.5312,-2.7422 -11.6718,-2.7422 h -20.8125 v 31.5 q 0,7.9453 2.3906,10.1953 2.4609,2.1797 10.6172,2.8125 v 2.6016 h -40.3594 z"
         style="font-style:normal;font-weight:normal;font-size:144px;font-family:Times;text-anchor:start;fill:#000000"
         id="path145" />
      <path
         d="m 1818.5625,1499.6286 q 0.1875,0.2344 0.1875,0.375 0.047,0.094 0.047,0.5156 v 56.4375 q 0,3.6094 1.9219,4.5938 1.9218,0.9844 7.1718,1.1719 v 1.3125 h -26.4375 v -1.4063 q 5.6719,-0.2812 7.4063,-1.5469 1.7344,-1.2656 1.7344,-5.4843 v -43.4063 q 0,-2.25 -0.5625,-3.4219 -0.5625,-1.1718 -2.4375,-1.1718 -1.2188,0 -3.1875,0.7031 -1.9219,0.6562 -3.6094,1.4062 v -1.3125 L 1818,1499.6286 Z"
         style="font-size:96px;baseline-shift:sub"
         id="path147" />
      <path
         d="m 1873.4531,1533.7583 q 0,7.1016 -5.1328,13.2188 -5.1328,6.1171 -11.039,8.789 l -1.336,-2.8125 q 6.75,-3.7969 9.2813,-8.2265 2.6015,-4.4297 2.6015,-7.3829 0,-0.9843 -0.6328,-1.2656 -0.6328,-0.2812 -1.3359,-0.2812 l -4.711,0.4922 q -2.9531,0 -5.414,-1.8985 -2.461,-1.9687 -2.461,-5.625 0,-2.8125 2.0391,-5.4844 2.0391,-2.6718 6.6797,-2.6718 4.4297,0 7.9453,3.5156 3.5156,3.4453 3.5156,9.6328 z"
         style="font-style:normal;font-weight:normal;font-size:144px;font-family:Times;text-anchor:start;fill:#000000"
         id="path149" />
      <path
         d="m 1945.9453,1468.9302 q 8.7891,0 15.1172,4.5703 6.3984,4.5 6.3984,9.9141 0,2.3203 -1.6171,4.3593 -1.6172,1.9688 -4.9922,1.9688 -2.461,0 -4.3594,-1.6875 -1.8281,-1.6875 -2.6719,-4.9219 l -0.8437,-3.375 q -0.9141,-3.7266 -3.1641,-5.2734 -2.3203,-1.4766 -6.1172,-1.4766 -8.0156,0 -13.5703,7.0313 -5.4844,6.9609 -5.4844,18.5625 0,10.6171 6.0469,19.0546 6.1172,8.4375 16.4531,8.4375 7.3125,0 13.0078,-4.7812 3.2344,-2.7422 7.3125,-8.7188 l 1.9688,1.1954 q -4.0078,8.4375 -8.4375,13.3593 -8.5078,9.4219 -19.6875,9.4219 -10.9688,0 -19.4063,-8.6484 -8.4375,-8.6485 -8.4375,-23.4844 0,-14.5547 9.211,-25.0313 9.2109,-10.4765 23.2734,-10.4765 z m -3.0937,0 z"
         style="font-style:normal;font-weight:normal;font-size:144px;font-family:Times;text-anchor:start;fill:#000000"
         id="path151" />
      <path
         d="m 2016.8438,1539.3786 -11.1094,-26.4375 -10.9688,26.4375 z m -41.4375,24.6563 v -1.7344 q 3.7031,-0.4219 5.5312,-2.8125 1.875,-2.3906 6.375,-12.9844 l 20.0156,-47.1094 h 1.875 l 23.9063,54.4219 q 2.3906,5.4375 3.7969,6.75 1.4531,1.2656 4.8281,1.7344 v 1.7344 h -24.4219 v -1.7344 q 4.2188,-0.375 5.4375,-0.8906 1.2188,-0.5625 1.2188,-2.6719 0,-0.7031 -0.4688,-2.4844 -0.4687,-1.7812 -1.3125,-3.75 l -3.9844,-9.2344 h -25.125 q -3.75,9.4219 -4.5,11.5313 -0.7031,2.0625 -0.7031,3.2812 0,2.4375 1.9688,3.375 1.2187,0.5625 4.5937,0.8438 v 1.7344 z m 32.8593,-64.6407 z"
         style="font-size:96px;baseline-shift:sub"
         id="path153" />
      <path
         d="m 2071.7813,1518.8286 q 0.1875,0.2344 0.1875,0.375 0.047,0.094 0.047,0.5156 v 56.4375 q 0,3.6094 1.9219,4.5938 1.9219,0.9844 7.1719,1.1719 v 1.3125 h -26.4375 v -1.4063 q 5.6719,-0.2812 7.4062,-1.5469 1.7344,-1.2656 1.7344,-5.4843 v -43.4063 q 0,-2.25 -0.5625,-3.4219 -0.5625,-1.1718 -2.4375,-1.1718 -1.2187,0 -3.1875,0.7031 -1.9219,0.6562 -3.6094,1.4062 v -1.3125 l 17.2032,-8.7656 z"
         style="font-size:96px;baseline-shift:sub"
         id="path155" />
      <path
         d="m 2114.9063,1563.0505 q 0,4.7344 -3.4219,8.8125 -3.4219,4.0781 -7.3594,5.8594 l -0.8906,-1.875 q 4.5,-2.5313 6.1875,-5.4844 1.7344,-2.9531 1.7344,-4.9219 0,-0.6562 -0.4219,-0.8437 -0.4219,-0.1875 -0.8906,-0.1875 l -3.1407,0.3281 q -1.9687,0 -3.6093,-1.2656 -1.6407,-1.3125 -1.6407,-3.75 0,-1.875 1.3594,-3.6563 1.3594,-1.7812 4.4531,-1.7812 2.9532,0 5.2969,2.3437 2.3438,2.2969 2.3438,6.4219 z"
         style="font-size:96px;baseline-shift:sub"
         id="path157" />
      <path
         d="m 2163.2344,1519.8317 q 5.8594,0 10.0781,3.0469 4.2656,3 4.2656,6.6094 0,1.5469 -1.0781,2.9062 -1.0781,1.3125 -3.3281,1.3125 -1.6406,0 -2.9063,-1.125 -1.2187,-1.125 -1.7812,-3.2812 l -0.5625,-2.25 q -0.6094,-2.4844 -2.1094,-3.5156 -1.5469,-0.9844 -4.0781,-0.9844 -5.3438,0 -9.0469,4.6875 -3.6562,4.6406 -3.6562,12.375 0,7.0781 4.0312,12.7031 4.0781,5.625 10.9688,5.625 4.875,0 8.6718,-3.1875 2.1563,-1.8281 4.875,-5.8125 l 1.3125,0.7969 q -2.6718,5.625 -5.625,8.9062 -5.6718,6.2813 -13.125,6.2813 -7.3125,0 -12.9375,-5.7656 -5.625,-5.7657 -5.625,-15.6563 0,-9.7031 6.1407,-16.6875 6.1406,-6.9844 15.5156,-6.9844 z m -2.0625,0 z"
         style="font-size:96px;baseline-shift:sub"
         id="path159" />
      <path
         d="m 2210.4844,1579.7661 q 7.3594,0 12.3281,-2.8594 4.9688,-2.8593 4.9688,-10.9687 0,-8.0625 -5.8125,-11.0156 -5.8125,-2.9532 -14.8125,-2.9532 -2.2032,0 -2.8125,0 -0.5625,0 -1.7813,-0.047 v 23.9062 q 0,2.4844 1.4063,3.2344 1.4062,0.7031 6.5156,0.7031 z m -26.9063,1.7344 q 5.8125,-0.3281 7.5,-1.7813 1.7344,-1.5 1.7344,-6.8906 v -42.7031 q 0,-5.2969 -1.7344,-6.7969 -1.6875,-1.5469 -7.5,-1.8281 v -1.7813 h 26.9063 q 11.5312,0 18.2812,3.7032 6.7969,3.7031 6.7969,12.75 0,6.7968 -4.7344,10.3125 -2.6718,2.0156 -8.0156,3.3281 6.6094,1.5937 11.2969,5.3437 4.6875,3.7032 4.6875,10.4063 0,11.25 -10.4063,15.4687 -5.4843,2.2032 -13.5,2.2032 h -31.3125 z m 28.125,-33.375 q 4.8282,-0.094 8.0157,-1.5469 6.0937,-2.8125 6.0937,-10.0781 0,-8.5781 -7.0312,-11.5781 -3.8907,-1.6407 -11.8125,-1.6407 -3,0 -3.7032,0.5157 -0.7031,0.5156 -0.7031,2.8125 v 21.6562 z"
         style="font-size:96px;baseline-shift:sub"
         id="path161" />
      <path
         d="m 2274.4688,1538.0286 q 0.1875,0.2344 0.1875,0.375 0.047,0.094 0.047,0.5156 v 56.4375 q 0,3.6094 1.9219,4.5938 1.9219,0.9844 7.1719,1.1719 v 1.3125 h -26.4375 v -1.4063 q 5.6719,-0.2812 7.4062,-1.5469 1.7344,-1.2656 1.7344,-5.4843 v -43.4063 q 0,-2.25 -0.5625,-3.4219 -0.5625,-1.1718 -2.4375,-1.1718 -1.2187,0 -3.1875,0.7031 -1.9219,0.6562 -3.6094,1.4062 v -1.3125 l 17.2032,-8.7656 z"
         style="font-size:96px;baseline-shift:sub"
         id="path163" />
      <path
         d="m 4951.6172,1516.1893 q 8.5078,-0.9141 10.5469,-3.0938 2.1093,-2.25 2.1093,-11.6015 v -62.3672 q 0,-7.6641 -2.3203,-9.9844 -2.3203,-2.3906 -10.3359,-2.9531 v -2.6719 h 76.7109 l 0.4922,20.6719 h -4.0078 q -1.4766,-9.9141 -5.5547,-12.5156 -4.0781,-2.6719 -16.1016,-2.6719 h -19.6875 q -2.8828,0 -3.7265,0.9844 -0.7735,0.9843 -0.7735,3.8672 v 32.1328 h 20.8125 q 9.211,0 11.7422,-2.7422 2.5313,-2.7422 4.0782,-11.1094 h 3.375 v 33.3281 h -3.375 q -1.6172,-8.3672 -4.1485,-11.039 -2.5312,-2.7422 -11.6719,-2.7422 h -20.8125 v 31.5 q 0,7.9453 2.3907,10.1953 2.4609,2.1797 10.6172,2.8125 v 2.6016 h -40.3594 z"
         style="font-style:normal;font-weight:normal;font-size:144px;font-family:Times;text-anchor:start;fill:#000000"
         id="path165" />
      <path
         d="m 5033.0156,1546.5127 q 17.1563,-17.8125 23.2969,-26.1562 6.1406,-8.3438 6.1406,-16.2656 0,-6.9375 -3.75,-10.5469 -3.75,-3.6563 -8.9531,-3.6563 -6.4219,0 -10.4063,4.6875 -2.2031,2.5782 -4.2187,7.9219 l -2.0156,-0.4219 q 2.3437,-10.7812 7.9218,-14.9531 5.625,-4.2187 12.0469,-4.2187 7.9219,0 12.7969,5.0156 4.9219,4.9687 4.9219,12.1875 0,7.6875 -5.2969,14.8125 -5.2969,7.125 -23.0156,25.3594 H 5064 q 4.5,0 6.3281,-1.0782 1.8281,-1.0781 4.125,-5.25 l 1.2188,0.5625 -5.2032,13.0782 h -37.4531 z"
         style="font-size:96px;baseline-shift:sub"
         id="path167" />
      <path
         d="m 5113.4531,1517.3143 q 0,7.1016 -5.1328,13.2187 -5.1328,6.1172 -11.0391,8.7891 l -1.3359,-2.8125 q 6.75,-3.7969 9.2813,-8.2266 2.6015,-4.4296 2.6015,-7.3828 0,-0.9843 -0.6328,-1.2656 -0.6328,-0.2812 -1.3359,-0.2812 l -4.711,0.4921 q -2.9531,0 -5.414,-1.8984 -2.461,-1.9687 -2.461,-5.625 0,-2.8125 2.0391,-5.4844 2.0391,-2.6718 6.6797,-2.6718 4.4297,0 7.9453,3.5156 3.5156,3.4453 3.5156,9.6328 z"
         style="font-style:normal;font-weight:normal;font-size:144px;font-family:Times;text-anchor:start;fill:#000000"
         id="path169" />
      <path
         d="m 5185.9453,1452.4862 q 8.7891,0 15.1172,4.5703 6.3984,4.5 6.3984,9.914 0,2.3204 -1.6172,4.3594 -1.6171,1.9688 -4.9921,1.9688 -2.461,0 -4.3594,-1.6875 -1.8281,-1.6875 -2.6719,-4.9219 l -0.8437,-3.375 q -0.9141,-3.7266 -3.1641,-5.2734 -2.3203,-1.4766 -6.1172,-1.4766 -8.0156,0 -13.5703,7.0312 -5.4844,6.961 -5.4844,18.5625 0,10.6172 6.0469,19.0547 6.1172,8.4375 16.4531,8.4375 7.3125,0 13.0078,-4.7812 3.2344,-2.7422 7.3125,-8.7188 l 1.9688,1.1953 q -4.0078,8.4375 -8.4375,13.3594 -8.5078,9.4219 -19.6875,9.4219 -10.9688,0 -19.4063,-8.6484 -8.4375,-8.6485 -8.4375,-23.4844 0,-14.5547 9.211,-25.0313 9.2109,-10.4765 23.2734,-10.4765 z m -3.0937,0 z"
         style="font-style:normal;font-weight:normal;font-size:144px;font-family:Times;text-anchor:start;fill:#000000"
         id="path171" />
      <path
         d="m 5256.8437,1522.9346 -11.1093,-26.4375 -10.9688,26.4375 z m -41.4375,24.6563 v -1.7344 q 3.7032,-0.4219 5.5313,-2.8125 1.875,-2.3906 6.375,-12.9844 l 20.0156,-47.1094 h 1.875 l 23.9063,54.4219 q 2.3906,5.4375 3.7968,6.75 1.4532,1.2656 4.8282,1.7344 v 1.7344 h -24.4219 v -1.7344 q 4.2187,-0.375 5.4375,-0.8906 1.2187,-0.5625 1.2187,-2.6719 0,-0.7031 -0.4687,-2.4844 -0.4688,-1.7812 -1.3125,-3.75 l -3.9844,-9.2344 h -25.125 q -3.75,9.4219 -4.5,11.5313 -0.7031,2.0625 -0.7031,3.2812 0,2.4375 1.9687,3.375 1.2188,0.5625 4.5938,0.8438 v 1.7344 z m 32.8594,-64.6407 z"
         style="font-size:96px;baseline-shift:sub"
         id="path173" />
      <path
         d="m 5286.2344,1565.7127 q 17.1562,-17.8125 23.2968,-26.1562 6.1407,-8.3438 6.1407,-16.2656 0,-6.9375 -3.75,-10.5469 -3.75,-3.6563 -8.9532,-3.6563 -6.4218,0 -10.4062,4.6875 -2.2031,2.5782 -4.2188,7.9219 l -2.0156,-0.4219 q 2.3438,-10.7812 7.9219,-14.9531 5.625,-4.2187 12.0469,-4.2187 7.9218,0 12.7968,5.0156 4.9219,4.9687 4.9219,12.1875 0,7.6875 -5.2969,14.8125 -5.2968,7.125 -23.0156,25.3594 h 21.5156 q 4.5,0 6.3282,-1.0782 1.8281,-1.0781 4.125,-5.25 l 1.2187,0.5625 -5.2031,13.0782 h -37.4531 z"
         style="font-size:96px;baseline-shift:sub"
         id="path175" />
      <path
         d="m 5354.9062,1546.6065 q 0,4.7344 -3.4218,8.8125 -3.4219,4.0781 -7.3594,5.8594 l -0.8906,-1.875 q 4.5,-2.5313 6.1875,-5.4844 1.7343,-2.9531 1.7343,-4.9219 0,-0.6562 -0.4218,-0.8437 -0.4219,-0.1875 -0.8907,-0.1875 l -3.1406,0.3281 q -1.9687,0 -3.6094,-1.2656 -1.6406,-1.3125 -1.6406,-3.75 0,-1.875 1.3594,-3.6563 1.3594,-1.7812 4.4531,-1.7812 2.9531,0 5.2969,2.3437 2.3437,2.2969 2.3437,6.4219 z"
         style="font-size:96px;baseline-shift:sub"
         id="path177" />
      <path
         d="m 5403.2344,1503.3877 q 5.8593,0 10.0781,3.0469 4.2656,3 4.2656,6.6094 0,1.5469 -1.0781,2.9062 -1.0781,1.3125 -3.3281,1.3125 -1.6407,0 -2.9063,-1.125 -1.2187,-1.125 -1.7812,-3.2812 l -0.5625,-2.25 q -0.6094,-2.4844 -2.1094,-3.5156 -1.5469,-0.9844 -4.0781,-0.9844 -5.3438,0 -9.0469,4.6875 -3.6563,4.6406 -3.6563,12.375 0,7.0781 4.0313,12.7031 4.0781,5.625 10.9687,5.625 4.875,0 8.6719,-3.1875 2.1563,-1.8281 4.875,-5.8125 l 1.3125,0.7969 q -2.6719,5.625 -5.625,8.9062 -5.6719,6.2813 -13.125,6.2813 -7.3125,0 -12.9375,-5.7656 -5.625,-5.7657 -5.625,-15.6563 0,-9.7031 6.1406,-16.6875 6.1407,-6.9844 15.5157,-6.9844 z m -2.0625,0 z"
         style="font-size:96px;baseline-shift:sub"
         id="path179" />
      <path
         d="m 5450.4844,1563.3221 q 7.3593,0 12.3281,-2.8594 4.9687,-2.8593 4.9687,-10.9687 0,-8.0625 -5.8125,-11.0156 -5.8125,-2.9532 -14.8125,-2.9532 -2.2031,0 -2.8125,0 -0.5625,0 -1.7812,-0.047 v 23.9062 q 0,2.4844 1.4062,3.2344 1.4063,0.7031 6.5157,0.7031 z m -26.9063,1.7344 q 5.8125,-0.3281 7.5,-1.7813 1.7344,-1.5 1.7344,-6.8906 v -42.7031 q 0,-5.2969 -1.7344,-6.7969 -1.6875,-1.5469 -7.5,-1.8281 v -1.7813 h 26.9063 q 11.5312,0 18.2812,3.7032 6.7969,3.7031 6.7969,12.75 0,6.7968 -4.7344,10.3125 -2.6719,2.0156 -8.0156,3.3281 6.6094,1.5937 11.2969,5.3437 4.6875,3.7032 4.6875,10.4063 0,11.25 -10.4063,15.4687 -5.4844,2.2032 -13.5,2.2032 h -31.3125 z m 28.125,-33.375 q 4.8281,-0.094 8.0156,-1.5469 6.0938,-2.8125 6.0938,-10.0781 0,-8.5781 -7.0313,-11.5781 -3.8906,-1.6407 -11.8125,-1.6407 -3,0 -3.7031,0.5157 -0.7031,0.5156 -0.7031,2.8125 v 21.6562 z"
         style="font-size:96px;baseline-shift:sub"
         id="path181" />
      <path
         d="m 5488.9219,1584.9127 q 17.1562,-17.8125 23.2968,-26.1562 6.1407,-8.3438 6.1407,-16.2656 0,-6.9375 -3.75,-10.5469 -3.75,-3.6563 -8.9532,-3.6563 -6.4218,0 -10.4062,4.6875 -2.2031,2.5782 -4.2188,7.9219 l -2.0156,-0.4219 q 2.3438,-10.7812 7.9219,-14.9531 5.625,-4.2187 12.0469,-4.2187 7.9218,0 12.7968,5.0156 4.9219,4.9687 4.9219,12.1875 0,7.6875 -5.2969,14.8125 -5.2968,7.125 -23.0156,25.3594 h 21.5156 q 4.5,0 6.3282,-1.0782 1.8281,-1.0781 4.125,-5.25 l 1.2187,0.5625 -5.2031,13.0782 h -37.4531 z"
         style="font-size:96px;baseline-shift:sub"
         id="path183" />
      <path
         d="m 2116.6172,5144.0065 q 8.5078,-0.9141 10.5469,-3.0938 2.1093,-2.25 2.1093,-11.6016 v -62.3671 q 0,-7.6641 -2.3203,-9.9844 -2.3203,-2.3906 -10.3359,-2.9531 v -2.6719 h 76.7109 l 0.4922,20.6719 h -4.0078 q -1.4766,-9.9141 -5.5547,-12.5157 -4.0781,-2.6718 -16.1015,-2.6718 h -19.6875 q -2.8829,0 -3.7266,0.9843 -0.7734,0.9844 -0.7734,3.8672 v 32.1328 h 20.8125 q 9.2109,0 11.7421,-2.7422 2.5313,-2.7421 4.0782,-11.1093 h 3.375 v 33.3281 h -3.375 q -1.6172,-8.3672 -4.1485,-11.0391 -2.5312,-2.7422 -11.6718,-2.7422 h -20.8125 v 31.5 q 0,7.9454 2.3906,10.1954 2.4609,2.1796 10.6172,2.8125 v 2.6015 h -40.3594 z"
         style="font-style:normal;font-weight:normal;font-size:144px;font-family:Times;text-anchor:start;fill:#000000"
         id="path185" />
      <path
         d="m 2202.6094,5167.2518 q 2.5781,0 6.7969,2.6719 4.2656,2.6719 7.2187,2.6719 6.5625,0 9.75,-4.4063 3.1875,-4.4531 3.1875,-9.6562 0,-5.0157 -2.5781,-8.8125 -4.3594,-6.4219 -14.7188,-6.4219 -0.6093,0 -1.1718,0.047 -0.5625,0 -1.3125,0.094 l -0.094,-1.2187 q 7.5,-2.7188 11.8125,-6.2344 4.3125,-3.5156 4.3125,-9.2813 0,-5.1093 -3.4219,-7.7812 -3.375,-2.6719 -7.7343,-2.6719 -5.1563,0 -9.0938,3.7969 -2.1562,2.0625 -4.6406,6.375 l -1.4531,-0.3281 q 1.875,-7.125 6.9843,-11.3907 5.1094,-4.2656 11.8125,-4.2656 7.1719,0 11.0625,3.9375 3.9375,3.9375 3.9375,9.0938 0,4.5468 -3.2343,8.3437 -1.8282,2.1563 -5.6719,4.8281 4.5,1.9219 7.2187,4.5 5.1094,4.9219 5.1094,12.4688 0,8.9062 -7.0312,15.7031 -6.9844,6.7969 -19.9219,6.7969 -5.7656,0 -8.1094,-1.6875 -2.2969,-1.7344 -2.2969,-3.7031 0,-1.2188 0.75,-2.3438 0.7969,-1.125 2.5313,-1.125 z"
         style="font-size:96px;baseline-shift:sub"
         id="path187" />
      <path
         d="m 2278.4531,5145.1315 q 0,7.1015 -5.1328,13.2187 -5.1328,6.1172 -11.039,8.7891 l -1.336,-2.8125 q 6.75,-3.7969 9.2813,-8.2266 2.6015,-4.4297 2.6015,-7.3828 0,-0.9844 -0.6328,-1.2656 -0.6328,-0.2813 -1.3359,-0.2813 l -4.711,0.4922 q -2.9531,0 -5.414,-1.8984 -2.461,-1.9688 -2.461,-5.625 0,-2.8125 2.0391,-5.4844 2.0391,-2.6719 6.6797,-2.6719 4.4297,0 7.9453,3.5156 3.5156,3.4454 3.5156,9.6329 z"
         style="font-style:normal;font-weight:normal;font-size:144px;font-family:Times;text-anchor:start;fill:#000000"
         id="path189" />
      <path
         d="m 2350.9453,5080.3033 q 8.7891,0 15.1172,4.5703 6.3984,4.5 6.3984,9.9141 0,2.3203 -1.6171,4.3594 -1.6172,1.9687 -4.9922,1.9687 -2.461,0 -4.3594,-1.6875 -1.8281,-1.6875 -2.6719,-4.9218 l -0.8437,-3.375 q -0.9141,-3.7266 -3.1641,-5.2735 -2.3203,-1.4765 -6.1172,-1.4765 -8.0156,0 -13.5703,7.0312 -5.4844,6.9609 -5.4844,18.5625 0,10.6172 6.0469,19.0547 6.1172,8.4375 16.4531,8.4375 7.3125,0 13.0078,-4.7813 3.2344,-2.7421 7.3125,-8.7187 l 1.9688,1.1953 q -4.0078,8.4375 -8.4375,13.3594 -8.5078,9.4219 -19.6875,9.4219 -10.9688,0 -19.4063,-8.6485 -8.4375,-8.6484 -8.4375,-23.4844 0,-14.5546 9.211,-25.0312 9.2109,-10.4766 23.2734,-10.4766 z m -3.0937,0 z"
         style="font-style:normal;font-weight:normal;font-size:144px;font-family:Times;text-anchor:start;fill:#000000"
         id="path191" />
      <path
         d="m 2421.8438,5150.7518 -11.1094,-26.4375 -10.9688,26.4375 z m -41.4375,24.6563 v -1.7344 q 3.7031,-0.4219 5.5312,-2.8125 1.875,-2.3906 6.375,-12.9844 l 20.0156,-47.1094 h 1.875 l 23.9063,54.4219 q 2.3906,5.4375 3.7969,6.75 1.4531,1.2656 4.8281,1.7344 v 1.7344 h -24.4219 v -1.7344 q 4.2188,-0.375 5.4375,-0.8906 1.2188,-0.5625 1.2188,-2.6719 0,-0.7031 -0.4688,-2.4844 -0.4687,-1.7812 -1.3125,-3.75 l -3.9844,-9.2344 h -25.125 q -3.75,9.4219 -4.5,11.5313 -0.7031,2.0625 -0.7031,3.2812 0,2.4375 1.9688,3.375 1.2187,0.5625 4.5937,0.8438 v 1.7344 z m 32.8593,-64.6407 z"
         style="font-size:96px;baseline-shift:sub"
         id="path193" />
      <path
         d="m 2483.6719,5145.1315 q 0,7.1015 -5.1328,13.2187 -5.1328,6.1172 -11.0391,8.7891 l -1.3359,-2.8125 q 6.75,-3.7969 9.2812,-8.2266 2.6016,-4.4297 2.6016,-7.3828 0,-0.9844 -0.6328,-1.2656 -0.6328,-0.2813 -1.336,-0.2813 l -4.7109,0.4922 q -2.9531,0 -5.4141,-1.8984 -2.4609,-1.9688 -2.4609,-5.625 0,-2.8125 2.0391,-5.4844 2.039,-2.6719 6.6796,-2.6719 4.4297,0 7.9454,3.5156 3.5156,3.4454 3.5156,9.6329 z"
         style="font-style:normal;font-weight:normal;font-size:144px;font-family:Times;text-anchor:start;fill:#000000"
         id="path195" />
      <path
         d="m 2556.1641,5080.3033 q 8.789,0 15.1172,4.5703 6.3984,4.5 6.3984,9.9141 0,2.3203 -1.6172,4.3594 -1.6172,1.9687 -4.9922,1.9687 -2.4609,0 -4.3594,-1.6875 -1.8281,-1.6875 -2.6718,-4.9218 l -0.8438,-3.375 q -0.914,-3.7266 -3.164,-5.2735 -2.3204,-1.4765 -6.1172,-1.4765 -8.0157,0 -13.5703,7.0312 -5.4844,6.9609 -5.4844,18.5625 0,10.6172 6.0469,19.0547 6.1171,8.4375 16.4531,8.4375 7.3125,0 13.0078,-4.7813 3.2344,-2.7421 7.3125,-8.7187 l 1.9687,1.1953 q -4.0078,8.4375 -8.4375,13.3594 -8.5078,9.4219 -19.6875,9.4219 -10.9687,0 -19.4062,-8.6485 -8.4375,-8.6484 -8.4375,-23.4844 0,-14.5546 9.2109,-25.0312 9.211,-10.4766 23.2735,-10.4766 z m -3.0938,0 z"
         style="font-style:normal;font-weight:normal;font-size:144px;font-family:Times;text-anchor:start;fill:#000000"
         id="path197" />
      <path
         d="m 2612.7656,5171.9393 q 7.3594,0 12.3282,-2.8594 4.9687,-2.8593 4.9687,-10.9687 0,-8.0625 -5.8125,-11.0156 -5.8125,-2.9532 -14.8125,-2.9532 -2.2031,0 -2.8125,0 -0.5625,0 -1.7812,-0.047 v 23.9062 q 0,2.4844 1.4062,3.2344 1.4063,0.7031 6.5156,0.7031 z m -26.9062,1.7344 q 5.8125,-0.3281 7.5,-1.7813 1.7344,-1.5 1.7344,-6.8906 v -42.7031 q 0,-5.2969 -1.7344,-6.7969 -1.6875,-1.5469 -7.5,-1.8281 v -1.7813 h 26.9062 q 11.5313,0 18.2813,3.7032 6.7969,3.7031 6.7969,12.75 0,6.7968 -4.7344,10.3125 -2.6719,2.0156 -8.0156,3.3281 6.6093,1.5937 11.2968,5.3437 4.6875,3.7032 4.6875,10.4063 0,11.25 -10.4062,15.4687 -5.4844,2.2032 -13.5,2.2032 h -31.3125 z m 28.125,-33.375 q 4.8281,-0.094 8.0156,-1.5469 6.0938,-2.8125 6.0938,-10.0781 0,-8.5781 -7.0313,-11.5781 -3.8906,-1.6407 -11.8125,-1.6407 -3,0 -3.7031,0.5157 -0.7031,0.5156 -0.7031,2.8125 v 21.6562 z"
         style="font-size:96px;baseline-shift:sub"
         id="path199" />
      <g
         id="g208"
         transform="translate(0,-214.27891)">
        <path
           d="m 6886.6172,4090.4338 q 8.5078,-0.914 10.5469,-3.0937 2.1093,-2.25 2.1093,-11.6016 v -62.3672 q 0,-7.664 -2.3203,-9.9843 -2.3203,-2.3907 -10.3359,-2.9532 v -2.6718 h 76.7109 l 0.4922,20.6718 h -4.0078 q -1.4766,-9.914 -5.5547,-12.5156 -4.0781,-2.6719 -16.1016,-2.6719 h -19.6875 q -2.8828,0 -3.7265,0.9844 -0.7735,0.9844 -0.7735,3.8672 v 32.1328 h 20.8125 q 9.211,0 11.7422,-2.7422 2.5313,-2.7422 4.0782,-11.1093 h 3.375 v 33.3281 h -3.375 q -1.6172,-8.3672 -4.1485,-11.0391 -2.5312,-2.7422 -11.6719,-2.7422 h -20.8125 v 31.5 q 0,7.9453 2.3907,10.1953 2.4609,2.1797 10.6172,2.8125 v 2.6016 h -40.3594 z"
           style="font-style:normal;font-weight:normal;font-size:144px;font-family:Times;text-anchor:start;fill:#000000"
           id="path201" />
        <path
           d="m 6993.1406,4067.0854 -23.0156,32.5313 h 23.0156 z m 3.0938,-9.6562 h 4.4531 v 42.1875 h 9.7969 v 6.2344 h -9.7969 v 15.9843 h -7.4531 v -15.9843 h -27 v -6.2344 z"
           style="font-size:96px;baseline-shift:sub"
           id="path203" />
      </g>
    </g>
    <ellipse
       cx="3644.5835"
       cy="3873.2012"
       rx="225"
       ry="90"
       stroke="#000000"
       stroke-width="8px"
       id="ellipse16-9" />
  </g>
</svg>
