<?xml version="1.0" encoding="UTF-8" standalone="no"?>
<!-- Creator: fig2dev Version 3.2.8 -->
<!-- CreationDate: 2021-02-04 19:43:15 -->
<!-- Magnification: 1.05 -->
<svg	xmlns="http://www.w3.org/2000/svg"
	xmlns:xlink="http://www.w3.org/1999/xlink"
	width="337pt" height="63pt"
	viewBox="2244 3263 5349 986">
<g fill="none">
<!-- Text -->
<text xml:space="preserve" x="4972" y="3802" fill="#000000" font-family="Times" font-style="normal" font-weight="normal" font-size="240" text-anchor="middle">G(s)</text>
<!-- Line -->
<defs>
<clipPath id="cp0">
	<path clip-rule="evenodd" d="M 2244,3263 H 7593 V 4249 H 2244 z
		M 3867,3630 4107,3690 3867,3750 4151,3701 4151,3680z"/>
</clipPath>
</defs>
<polyline points=" 2790,3690 4140,3690" clip-path="url(#cp0)"
	stroke="#000000" stroke-width="15px"/>
<!-- Forward arrow to point 4140,3690 -->
<polyline points=" 3867,3630 4107,3690 3867,3750"
	stroke="#000000" stroke-width="15px" stroke-miterlimit="8"/>
<!-- Line -->
<rect x="4140" y="3285" width="1665" height="810"
	stroke="#000000" stroke-width="15px"/>
<!-- Text -->
<text xml:space="preserve" x="2790" y="3510" fill="#000000" font-family="Times" font-style="normal" font-weight="normal" font-size="240" text-anchor="middle">Entrada</text>
<!-- Text -->
<text xml:space="preserve" x="7155" y="3510" fill="#000000" font-family="Times" font-style="normal" font-weight="normal" font-size="240" text-anchor="middle">Salida</text>
<!-- Text -->
<text xml:space="preserve" x="7155" y="4140" fill="#000000" font-family="Times" font-style="normal" font-weight="normal" font-size="240" text-anchor="middle">\bar{y}(s)</text>
<!-- Text -->
<text xml:space="preserve" x="2790" y="4140" fill="#000000" font-family="Times" font-style="normal" font-weight="normal" font-size="240" text-anchor="middle">\bar{f}(s)</text>
<!-- Line -->
<defs>
<clipPath id="cp1">
	<path clip-rule="evenodd" d="M 2244,3263 H 7593 V 4249 H 2244 z
		M 6882,3630 7122,3690 6882,3750 7166,3701 7166,3680z"/>
</clipPath>
</defs>
<polyline points=" 5805,3690 7155,3690" clip-path="url(#cp1)"
	stroke="#000000" stroke-width="15px"/>
<!-- Forward arrow to point 7155,3690 -->
<polyline points=" 6882,3630 7122,3690 6882,3750"
	stroke="#000000" stroke-width="15px" stroke-miterlimit="8"/>
</g>
</svg>
