<?xml version="1.0" encoding="UTF-8" standalone="no"?>
<!-- Creator: fig2dev Version 3.2.8 -->
<!-- CreationDate: 2021-02-22 12:32:23 -->
<!-- Magnification: 1.05 -->
<svg	xmlns="http://www.w3.org/2000/svg"
	xmlns:xlink="http://www.w3.org/1999/xlink"
	width="329pt" height="267pt"
	viewBox="1463 780 5219 4237">
<g fill="none">
<!-- Text -->
<text xml:space="preserve" x="1890" y="1530" fill="#000000" font-family="Times" font-style="normal" font-weight="normal" font-size="240" text-anchor="middle">q</text>
<!-- Ellipse -->
<ellipse cx="4320" cy="4230" rx="315" ry="135"
	stroke="#000000" stroke-width="15px"/>
<!-- Line -->
<polyline points=" 4005,4230 4005,1575"
	stroke="#000000" stroke-width="15px"/>
<!-- Line -->
<polyline points=" 2655,1935 2655,4995 5355,4995 5355,1935"
	stroke="#000000" stroke-width="15px"/>
<!-- Line -->
<polyline points=" 2655,2565 5355,2565"
	stroke="#000000" stroke-width="15px"/>
<!-- Line -->
<defs>
<clipPath id="cp0">
	<path clip-rule="evenodd" d="M 1463,780 H 6682 V 5017 H 1463 z
		M 3345,1572 3285,1812 3225,1572 3275,1856 3296,1856z"/>
</clipPath>
</defs>
<polyline points=" 1485,1215 3285,1215 3285,1845" clip-path="url(#cp0)"
	stroke="#000000" stroke-width="15px"/>
<!-- Forward arrow to point 3285,1845 -->
<polyline points=" 3345,1572 3285,1812 3225,1572"
	stroke="#000000" stroke-width="15px" stroke-miterlimit="8"/>
<!-- Line -->
<defs>
<clipPath id="cp1">
	<path clip-rule="evenodd" d="M 1463,780 H 6682 V 5017 H 1463 z
		M 6387,4710 6627,4770 6387,4830 6671,4781 6671,4760z"/>
</clipPath>
</defs>
<polyline points=" 5355,4770 6660,4770" clip-path="url(#cp1)"
	stroke="#000000" stroke-width="15px"/>
<!-- Forward arrow to point 6660,4770 -->
<polyline points=" 6387,4710 6627,4770 6387,4830"
	stroke="#000000" stroke-width="15px" stroke-miterlimit="8"/>
<!-- Text -->
<text xml:space="preserve" x="4770" y="3420" fill="#000000" font-family="Times" font-style="normal" font-weight="normal" font-size="240" text-anchor="middle">V</text>
<!-- Text -->
<text xml:space="preserve" x="6255" y="4545" fill="#000000" font-family="Times" font-style="normal" font-weight="normal" font-size="240" text-anchor="middle">c<tspan font-size="160" baseline-shift="sub">A</tspan>(t)</text>
<!-- Text -->
<text xml:space="preserve" x="1890" y="1035" fill="#000000" font-family="Times" font-style="normal" font-weight="normal" font-size="240" text-anchor="middle">c<tspan font-size="160" baseline-shift="sub">A<tspan font-size="160" baseline-shift="sub">i</tspan>(t)</text>
<!-- Ellipse -->
<ellipse cx="3690" cy="4230" rx="315" ry="135"
	stroke="#000000" stroke-width="15px"/>
</g>
</svg>
