<?xml version="1.0" encoding="UTF-8" standalone="no"?>
<svg
   xmlns:dc="http://purl.org/dc/elements/1.1/"
   xmlns:cc="http://creativecommons.org/ns#"
   xmlns:rdf="http://www.w3.org/1999/02/22-rdf-syntax-ns#"
   xmlns:svg="http://www.w3.org/2000/svg"
   xmlns="http://www.w3.org/2000/svg"
   xmlns:sodipodi="http://sodipodi.sourceforge.net/DTD/sodipodi-0.dtd"
   xmlns:inkscape="http://www.inkscape.org/namespaces/inkscape"
   width="369pt"
   height="213pt"
   viewBox="3467 1467 5845 3367"
   version="1.1"
   id="svg78"
   sodipodi:docname="tanques_sin.svg"
   inkscape:version="1.0.2 (e86c8708, 2021-01-15)">
  <metadata
     id="metadata84">
    <rdf:RDF>
      <cc:Work
         rdf:about="">
        <dc:format>image/svg+xml</dc:format>
        <dc:type
           rdf:resource="http://purl.org/dc/dcmitype/StillImage" />
      </cc:Work>
    </rdf:RDF>
  </metadata>
  <defs
     id="defs82" />
  <sodipodi:namedview
     pagecolor="#ffffff"
     bordercolor="#666666"
     borderopacity="1"
     objecttolerance="10"
     gridtolerance="10"
     guidetolerance="10"
     inkscape:pageopacity="0"
     inkscape:pageshadow="2"
     inkscape:window-width="1145"
     inkscape:window-height="761"
     id="namedview80"
     showgrid="false"
     inkscape:zoom="1.8832738"
     inkscape:cx="202.67194"
     inkscape:cy="116.52661"
     inkscape:window-x="0"
     inkscape:window-y="25"
     inkscape:window-maximized="0"
     inkscape:current-layer="g76" />
  <g
     fill="none"
     id="g76">
    <!-- Text -->
    <text
       xml:space="preserve"
       x="3718.8013"
       y="1710"
       fill="#000000"
       font-family="Times"
       font-style="normal"
       font-weight="normal"
       font-size="216px"
       text-anchor="end"
       id="text14">\frac{h_2}{K_2}</text>
    <!-- Line -->
    <polyline
       points=" 3676,2250 8605,2250"
       stroke="#000000"
       stroke-width="8px"
       stroke-dasharray="40, 40"
       id="polyline16"
       transform="translate(118.80081)" />
    <!-- Line -->
    <defs
       id="defs21">
      <clipPath
         id="cp0">
        <path
           clip-rule="evenodd"
           d="M 3467,1467 H 9312 V 4834 H 3467 z   M 4712,2547 4722,2623 4677,2561 4724,2647 4737,2642z"
           id="path18" />
      </clipPath>
    </defs>
    <polyline
       points=" 4452,1945 4728,2638"
       clip-path="url(#cp0)"
       stroke="#000000"
       stroke-width="8px"
       id="polyline23"
       transform="translate(118.80081)" />
    <!-- Forward arrow to point 4728,2638 -->
    <polyline
       points=" 4712,2547 4722,2623 4677,2561"
       stroke="#000000"
       stroke-width="8px"
       stroke-miterlimit="8"
       id="polyline25"
       transform="translate(118.80081)" />
    <!-- Line -->
    <defs
       id="defs30">
      <clipPath
         id="cp1">
        <path
           clip-rule="evenodd"
           d="M 3467,1467 H 9312 V 4834 H 3467 z   M 6719,2822 6655,2781 6731,2787 6635,2767 6630,2780z"
           id="path27" />
      </clipPath>
    </defs>
    <polyline
       points=" 7636,3108 6639,2776"
       clip-path="url(#cp1)"
       stroke="#000000"
       stroke-width="8px"
       id="polyline32"
       transform="translate(118.80081)" />
    <!-- Forward arrow to point 6639,2776 -->
    <polyline
       points=" 6719,2822 6655,2781 6731,2787"
       stroke="#000000"
       stroke-width="8px"
       stroke-miterlimit="8"
       id="polyline34"
       transform="translate(118.80081)" />
    <!-- Line -->
    <defs
       id="defs39">
      <clipPath
         id="cp2">
        <path
           clip-rule="evenodd"
           d="M 3467,1467 H 9312 V 4834 H 3467 z   M 6641,3680 6597,3618 6665,3651 6583,3597 6574,3608z"
           id="path36" />
      </clipPath>
    </defs>
    <polyline
       points=" 6944,3912 6584,3607"
       clip-path="url(#cp2)"
       stroke="#000000"
       stroke-width="8px"
       id="polyline41"
       transform="translate(118.80081)" />
    <!-- Forward arrow to point 6584,3607 -->
    <polyline
       points=" 6641,3680 6597,3618 6665,3651"
       stroke="#000000"
       stroke-width="8px"
       stroke-miterlimit="8"
       id="polyline43"
       transform="translate(118.80081)" />
    <!-- Line -->
    <defs
       id="defs48">
      <clipPath
         id="cp3">
        <path
           clip-rule="evenodd"
           d="M 3467,1467 H 9312 V 4834 H 3467 z   M 7194,2183 7123,2212 7172,2154 7101,2221 7109,2231z"
           id="path45" />
      </clipPath>
    </defs>
    <polyline
       points=" 7525,1918 7110,2222"
       clip-path="url(#cp3)"
       stroke="#000000"
       stroke-width="8px"
       id="polyline50"
       transform="translate(118.80081)" />
    <!-- Forward arrow to point 7110,2222 -->
    <polyline
       points=" 7194,2183 7123,2212 7172,2154"
       stroke="#000000"
       stroke-width="8px"
       stroke-miterlimit="8"
       id="polyline52"
       transform="translate(118.80081)" />
    <!-- Line -->
    <polyline
       points=" 3676,4576 3677,4574 3678,4569 3680,4561 3684,4548 3689,4530  3696,4506 3704,4477 3714,4442 3726,4403 3738,4361 3751,4315 3766,4268 3780,4219  3795,4171 3810,4122 3825,4075 3840,4029 3854,3985 3869,3942 3883,3902 3896,3863  3910,3827 3923,3792 3936,3758 3949,3726 3962,3695 3976,3665 3989,3636 4003,3608  4017,3580 4032,3552 4046,3524 4062,3496 4078,3469 4094,3441 4111,3413 4129,3385  4148,3356 4167,3328 4188,3299 4209,3271 4230,3242 4253,3213 4276,3184 4299,3156  4324,3127 4349,3100 4374,3072 4400,3045 4426,3018 4453,2993 4479,2968 4506,2943  4533,2920 4560,2897 4587,2875 4614,2854 4642,2834 4669,2814 4696,2796 4724,2778  4751,2761 4779,2744 4805,2730 4830,2716 4856,2702 4883,2689 4911,2676 4939,2664  4968,2651 4998,2639 5029,2627 5061,2615 5094,2604 5127,2593 5162,2582 5198,2571  5234,2560 5271,2550 5310,2540 5348,2531 5388,2522 5428,2513 5469,2504 5510,2496  5551,2488 5593,2481 5636,2473 5678,2466 5721,2460 5764,2453 5807,2447 5850,2442  5894,2436 5938,2431 5982,2426 6027,2421 6072,2416 6118,2411 6157,2407 6198,2404  6239,2400 6281,2396 6324,2392 6368,2389 6412,2385 6458,2382 6504,2378 6551,2374  6599,2371 6647,2368 6696,2364 6745,2361 6795,2357 6846,2354 6896,2351 6947,2348  6998,2345 7049,2342 7099,2339 7149,2336 7199,2333 7248,2330 7297,2328 7345,2325  7392,2323 7438,2320 7483,2318 7527,2316 7569,2314 7611,2312 7651,2310 7690,2308  7727,2306 7764,2305 7799,2303 7832,2302 7865,2300 7896,2299 7926,2298 7954,2296  8006,2294 8053,2292 8097,2290 8137,2289 8174,2287 8209,2286 8242,2285 8273,2284  8303,2283 8331,2282 8358,2281 8383,2280 8407,2280 8429,2279 8447,2279 8463,2279  8476,2278 8485,2278 8490,2278 8494,2278 8495,2278"
       stroke="#000000"
       stroke-width="8px"
       stroke-linejoin="bevel"
       id="polyline54"
       transform="translate(118.80081)" />
    <!-- Line -->
    <polyline
       points=" 3676,4576 3678,4575 3684,4574 3693,4572 3707,4568 3727,4564  3751,4558 3779,4551 3810,4543 3843,4534 3877,4525 3911,4516 3944,4506 3976,4497  4007,4487 4036,4478 4064,4469 4090,4459 4115,4450 4140,4440 4164,4430 4187,4419  4211,4408 4234,4396 4255,4385 4276,4374 4297,4362 4319,4350 4341,4336 4364,4323  4387,4308 4412,4292 4436,4276 4461,4259 4487,4242 4513,4223 4539,4204 4565,4185  4592,4165 4618,4144 4645,4123 4671,4102 4697,4081 4722,4059 4747,4038 4772,4016  4797,3994 4820,3972 4844,3950 4867,3928 4890,3906 4913,3884 4933,3864 4953,3843  4973,3823 4993,3801 5014,3780 5034,3757 5056,3734 5078,3711 5100,3687 5123,3663  5146,3638 5170,3613 5194,3588 5218,3562 5243,3536 5269,3510 5294,3484 5320,3458  5346,3432 5373,3407 5399,3382 5426,3357 5452,3333 5479,3309 5506,3286 5533,3263  5560,3240 5587,3219 5614,3197 5642,3177 5669,3156 5698,3136 5723,3119 5749,3101  5776,3084 5804,3067 5832,3050 5861,3033 5891,3016 5922,2999 5953,2982 5986,2965  6019,2948 6053,2931 6088,2914 6124,2897 6160,2881 6197,2864 6235,2848 6273,2832  6311,2816 6350,2801 6388,2785 6427,2771 6466,2756 6505,2742 6544,2728 6583,2715  6621,2702 6659,2689 6697,2677 6735,2665 6773,2654 6810,2642 6847,2632 6884,2621  6921,2611 6958,2601 6993,2592 7028,2583 7064,2574 7100,2565 7137,2556 7175,2547  7214,2538 7255,2530 7296,2521 7339,2512 7384,2503 7431,2493 7480,2484 7531,2474  7584,2464 7639,2454 7696,2443 7754,2433 7814,2422 7875,2411 7937,2400 7998,2389  8059,2379 8118,2369 8176,2359 8230,2350 8280,2341 8325,2333 8365,2327 8400,2321  8429,2316 8452,2312 8469,2309 8481,2307 8489,2306 8493,2305 8495,2305"
       stroke="#000000"
       stroke-width="8px"
       stroke-linejoin="bevel"
       id="polyline56"
       transform="translate(118.80081)" />
    <!-- Line -->
    <polyline
       points=" 3676,4576 3678,4576 3683,4575 3691,4575 3705,4573 3724,4571  3749,4569 3779,4566 3815,4562 3856,4558 3900,4554 3948,4549 3997,4543 4048,4538  4100,4532 4151,4526 4201,4519 4250,4513 4297,4507 4342,4500 4386,4494 4427,4487  4467,4481 4506,4474 4543,4467 4578,4460 4613,4452 4647,4445 4680,4437 4713,4428  4746,4419 4779,4410 4810,4401 4842,4391 4873,4381 4905,4371 4938,4360 4971,4348  5004,4336 5038,4323 5073,4310 5108,4297 5144,4282 5180,4267 5216,4252 5253,4236  5290,4220 5327,4203 5364,4186 5401,4169 5438,4152 5475,4134 5512,4116 5548,4098  5584,4080 5619,4061 5654,4043 5688,4025 5722,4007 5755,3988 5787,3970 5819,3952  5851,3934 5882,3916 5912,3898 5943,3880 5973,3861 6003,3843 6033,3824 6063,3805  6094,3785 6125,3765 6156,3745 6187,3724 6219,3704 6251,3682 6283,3661 6316,3639  6349,3617 6381,3595 6414,3572 6447,3550 6480,3528 6513,3506 6545,3483 6577,3462  6609,3440 6641,3419 6672,3398 6702,3377 6732,3357 6762,3337 6791,3318 6819,3299  6847,3281 6874,3263 6901,3246 6928,3229 6954,3212 6981,3196 7010,3178 7040,3160  7070,3143 7100,3125 7130,3108 7160,3091 7191,3074 7223,3057 7254,3040 7286,3023  7318,3006 7350,2989 7382,2973 7414,2957 7446,2941 7478,2925 7510,2910 7541,2895  7571,2880 7601,2866 7630,2853 7659,2839 7686,2827 7714,2814 7740,2803 7766,2791  7790,2780 7815,2769 7839,2759 7862,2749 7889,2737 7915,2726 7942,2714 7968,2703  7995,2691 8022,2680 8051,2668 8080,2655 8111,2642 8143,2629 8177,2615 8212,2600  8248,2585 8284,2570 8321,2555 8357,2540 8391,2526 8423,2513 8451,2501 8474,2492  8493,2484 8506,2479 8515,2475 8520,2473 8522,2472"
       stroke="#000000"
       stroke-width="8px"
       stroke-linejoin="bevel"
       id="polyline58"
       transform="translate(118.80081)" />
    <!-- Text -->
    <text
       xml:space="preserve"
       x="3600.8013"
       y="2278"
       fill="#000000"
       font-family="Times"
       font-style="normal"
       font-weight="normal"
       font-size="144px"
       text-anchor="start"
       id="text60">1</text>
    <!-- Text -->
    <text
       xml:space="preserve"
       x="4154.8013"
       y="1890"
       fill="#000000"
       font-family="Times"
       font-style="normal"
       font-weight="normal"
       font-size="144px"
       text-anchor="start"
       id="text62">Sistema de primer orden</text>
    <!-- Text -->
    <text
       xml:space="preserve"
       x="4154.8013"
       y="1724"
       fill="#000000"
       font-family="Times"
       font-style="normal"
       font-weight="normal"
       font-size="144px"
       text-anchor="start"
       id="text64">1 deposito</text>
    <!-- Text -->
    <text
       xml:space="preserve"
       x="7117.8013"
       y="1807"
       fill="#000000"
       font-family="Times"
       font-style="normal"
       font-weight="normal"
       font-size="144px"
       text-anchor="start"
       id="text66">Entrada en escalon unidad</text>
    <!-- Text -->
    <text
       xml:space="preserve"
       x="7339.8013"
       y="3302"
       fill="#000000"
       font-family="Times"
       font-style="normal"
       font-weight="normal"
       font-size="144px"
       text-anchor="start"
       id="text68">2 tanques sin interaccion</text>
    <!-- Text -->
    <text
       xml:space="preserve"
       x="6591.8013"
       y="4078"
       fill="#000000"
       font-family="Times"
       font-style="normal"
       font-weight="normal"
       font-size="144px"
       text-anchor="start"
       id="text70">4 tanques sin interaccion</text>
    <!-- Text -->
    <text
       xml:space="preserve"
       x="8723.7988"
       y="4770"
       fill="#000000"
       font-family="Times"
       font-style="normal"
       font-weight="normal"
       font-size="144px"
       text-anchor="start"
       id="text72">t</text>
    <!-- Line -->
    <polyline
       points=" 3676,1530 3676,4576 8827,4576"
       stroke="#000000"
       stroke-width="8px"
       id="polyline74"
       transform="translate(118.80081)" />
  </g>
</svg>
