<?xml version="1.0" encoding="utf-8"?>
<svg xmlns="http://www.w3.org/2000/svg" xmlns:xlink="http://www.w3.org/1999/xlink" width="600" height="400" viewBox="0 0 2400 1600">
<defs>
  <clipPath id="clip060">
    <rect x="0" y="0" width="2400" height="1600"/>
  </clipPath>
</defs>
<path clip-path="url(#clip060)" d="
M0 1600 L2400 1600 L2400 0 L0 0  Z
  " fill="#ffffff" fill-rule="evenodd" fill-opacity="1"/>
<defs>
  <clipPath id="clip061">
    <rect x="480" y="0" width="1681" height="1600"/>
  </clipPath>
</defs>
<path clip-path="url(#clip060)" d="
M110.881 1486.45 L2352.76 1486.45 L2352.76 47.2441 L110.881 47.2441  Z
  " fill="#ffffff" fill-rule="evenodd" fill-opacity="1"/>
<defs>
  <clipPath id="clip062">
    <rect x="110" y="47" width="2243" height="1440"/>
  </clipPath>
</defs>
<polyline clip-path="url(#clip062)" style="stroke:#000000; stroke-width:2; stroke-opacity:0.1; fill:none" points="
  174.33,1486.45 174.33,47.2441 
  "/>
<polyline clip-path="url(#clip062)" style="stroke:#000000; stroke-width:2; stroke-opacity:0.1; fill:none" points="
  597.325,1486.45 597.325,47.2441 
  "/>
<polyline clip-path="url(#clip062)" style="stroke:#000000; stroke-width:2; stroke-opacity:0.1; fill:none" points="
  1020.32,1486.45 1020.32,47.2441 
  "/>
<polyline clip-path="url(#clip062)" style="stroke:#000000; stroke-width:2; stroke-opacity:0.1; fill:none" points="
  1443.32,1486.45 1443.32,47.2441 
  "/>
<polyline clip-path="url(#clip062)" style="stroke:#000000; stroke-width:2; stroke-opacity:0.1; fill:none" points="
  1866.31,1486.45 1866.31,47.2441 
  "/>
<polyline clip-path="url(#clip062)" style="stroke:#000000; stroke-width:2; stroke-opacity:0.1; fill:none" points="
  2289.31,1486.45 2289.31,47.2441 
  "/>
<polyline clip-path="url(#clip060)" style="stroke:#000000; stroke-width:4; stroke-opacity:1; fill:none" points="
  110.881,1486.45 2352.76,1486.45 
  "/>
<polyline clip-path="url(#clip060)" style="stroke:#000000; stroke-width:4; stroke-opacity:1; fill:none" points="
  174.33,1486.45 174.33,1469.18 
  "/>
<polyline clip-path="url(#clip060)" style="stroke:#000000; stroke-width:4; stroke-opacity:1; fill:none" points="
  597.325,1486.45 597.325,1469.18 
  "/>
<polyline clip-path="url(#clip060)" style="stroke:#000000; stroke-width:4; stroke-opacity:1; fill:none" points="
  1020.32,1486.45 1020.32,1469.18 
  "/>
<polyline clip-path="url(#clip060)" style="stroke:#000000; stroke-width:4; stroke-opacity:1; fill:none" points="
  1443.32,1486.45 1443.32,1469.18 
  "/>
<polyline clip-path="url(#clip060)" style="stroke:#000000; stroke-width:4; stroke-opacity:1; fill:none" points="
  1866.31,1486.45 1866.31,1469.18 
  "/>
<polyline clip-path="url(#clip060)" style="stroke:#000000; stroke-width:4; stroke-opacity:1; fill:none" points="
  2289.31,1486.45 2289.31,1469.18 
  "/>
<path clip-path="url(#clip060)" d="M 0 0 M174.33 1515.64 Q170.719 1515.64 168.89 1519.2 Q167.085 1522.75 167.085 1529.87 Q167.085 1536.98 168.89 1540.55 Q170.719 1544.09 174.33 1544.09 Q177.964 1544.09 179.77 1540.55 Q181.599 1536.98 181.599 1529.87 Q181.599 1522.75 179.77 1519.2 Q177.964 1515.64 174.33 1515.64 M174.33 1511.93 Q180.14 1511.93 183.196 1516.54 Q186.275 1521.12 186.275 1529.87 Q186.275 1538.6 183.196 1543.21 Q180.14 1547.79 174.33 1547.79 Q168.52 1547.79 165.441 1543.21 Q162.386 1538.6 162.386 1529.87 Q162.386 1521.12 165.441 1516.54 Q168.52 1511.93 174.33 1511.93 Z" fill="#000000" fill-rule="evenodd" fill-opacity="1" /><path clip-path="url(#clip060)" d="M 0 0 M587.707 1543.18 L595.346 1543.18 L595.346 1516.82 L587.036 1518.49 L587.036 1514.23 L595.3 1512.56 L599.976 1512.56 L599.976 1543.18 L607.615 1543.18 L607.615 1547.12 L587.707 1547.12 L587.707 1543.18 Z" fill="#000000" fill-rule="evenodd" fill-opacity="1" /><path clip-path="url(#clip060)" d="M 0 0 M1014.97 1543.18 L1031.29 1543.18 L1031.29 1547.12 L1009.35 1547.12 L1009.35 1543.18 Q1012.01 1540.43 1016.59 1535.8 Q1021.2 1531.15 1022.38 1529.81 Q1024.63 1527.28 1025.51 1525.55 Q1026.41 1523.79 1026.41 1522.1 Q1026.41 1519.34 1024.46 1517.61 Q1022.54 1515.87 1019.44 1515.87 Q1017.24 1515.87 1014.79 1516.63 Q1012.36 1517.4 1009.58 1518.95 L1009.58 1514.23 Q1012.4 1513.09 1014.86 1512.51 Q1017.31 1511.93 1019.35 1511.93 Q1024.72 1511.93 1027.91 1514.62 Q1031.11 1517.31 1031.11 1521.8 Q1031.11 1523.93 1030.3 1525.85 Q1029.51 1527.74 1027.4 1530.34 Q1026.83 1531.01 1023.72 1534.23 Q1020.62 1537.42 1014.97 1543.18 Z" fill="#000000" fill-rule="evenodd" fill-opacity="1" /><path clip-path="url(#clip060)" d="M 0 0 M1447.56 1528.49 Q1450.92 1529.2 1452.8 1531.47 Q1454.69 1533.74 1454.69 1537.07 Q1454.69 1542.19 1451.17 1544.99 Q1447.66 1547.79 1441.17 1547.79 Q1439 1547.79 1436.68 1547.35 Q1434.39 1546.93 1431.94 1546.08 L1431.94 1541.56 Q1433.88 1542.7 1436.2 1543.28 Q1438.51 1543.86 1441.04 1543.86 Q1445.43 1543.86 1447.73 1542.12 Q1450.04 1540.38 1450.04 1537.07 Q1450.04 1534.02 1447.89 1532.31 Q1445.76 1530.57 1441.94 1530.57 L1437.91 1530.57 L1437.91 1526.73 L1442.12 1526.73 Q1445.57 1526.73 1447.4 1525.36 Q1449.23 1523.97 1449.23 1521.38 Q1449.23 1518.72 1447.33 1517.31 Q1445.46 1515.87 1441.94 1515.87 Q1440.02 1515.87 1437.82 1516.29 Q1435.62 1516.7 1432.98 1517.58 L1432.98 1513.42 Q1435.64 1512.68 1437.96 1512.31 Q1440.3 1511.93 1442.36 1511.93 Q1447.68 1511.93 1450.78 1514.37 Q1453.88 1516.77 1453.88 1520.89 Q1453.88 1523.76 1452.24 1525.75 Q1450.6 1527.72 1447.56 1528.49 Z" fill="#000000" fill-rule="evenodd" fill-opacity="1" /><path clip-path="url(#clip060)" d="M 0 0 M1869.32 1516.63 L1857.52 1535.08 L1869.32 1535.08 L1869.32 1516.63 M1868.09 1512.56 L1873.97 1512.56 L1873.97 1535.08 L1878.9 1535.08 L1878.9 1538.97 L1873.97 1538.97 L1873.97 1547.12 L1869.32 1547.12 L1869.32 1538.97 L1853.72 1538.97 L1853.72 1534.46 L1868.09 1512.56 Z" fill="#000000" fill-rule="evenodd" fill-opacity="1" /><path clip-path="url(#clip060)" d="M 0 0 M2279.58 1512.56 L2297.94 1512.56 L2297.94 1516.5 L2283.87 1516.5 L2283.87 1524.97 Q2284.89 1524.62 2285.9 1524.46 Q2286.92 1524.27 2287.94 1524.27 Q2293.73 1524.27 2297.11 1527.44 Q2300.49 1530.62 2300.49 1536.03 Q2300.49 1541.61 2297.01 1544.71 Q2293.54 1547.79 2287.22 1547.79 Q2285.05 1547.79 2282.78 1547.42 Q2280.53 1547.05 2278.13 1546.31 L2278.13 1541.61 Q2280.21 1542.74 2282.43 1543.3 Q2284.65 1543.86 2287.13 1543.86 Q2291.14 1543.86 2293.47 1541.75 Q2295.81 1539.64 2295.81 1536.03 Q2295.81 1532.42 2293.47 1530.31 Q2291.14 1528.21 2287.13 1528.21 Q2285.26 1528.21 2283.38 1528.62 Q2281.53 1529.04 2279.58 1529.92 L2279.58 1512.56 Z" fill="#000000" fill-rule="evenodd" fill-opacity="1" /><polyline clip-path="url(#clip062)" style="stroke:#000000; stroke-width:2; stroke-opacity:0.1; fill:none" points="
  110.881,1451.27 2352.76,1451.27 
  "/>
<polyline clip-path="url(#clip062)" style="stroke:#000000; stroke-width:2; stroke-opacity:0.1; fill:none" points="
  110.881,993.136 2352.76,993.136 
  "/>
<polyline clip-path="url(#clip062)" style="stroke:#000000; stroke-width:2; stroke-opacity:0.1; fill:none" points="
  110.881,534.997 2352.76,534.997 
  "/>
<polyline clip-path="url(#clip062)" style="stroke:#000000; stroke-width:2; stroke-opacity:0.1; fill:none" points="
  110.881,76.859 2352.76,76.859 
  "/>
<polyline clip-path="url(#clip060)" style="stroke:#000000; stroke-width:4; stroke-opacity:1; fill:none" points="
  110.881,1486.45 110.881,47.2441 
  "/>
<polyline clip-path="url(#clip060)" style="stroke:#000000; stroke-width:4; stroke-opacity:1; fill:none" points="
  110.881,1451.27 137.783,1451.27 
  "/>
<polyline clip-path="url(#clip060)" style="stroke:#000000; stroke-width:4; stroke-opacity:1; fill:none" points="
  110.881,993.136 137.783,993.136 
  "/>
<polyline clip-path="url(#clip060)" style="stroke:#000000; stroke-width:4; stroke-opacity:1; fill:none" points="
  110.881,534.997 137.783,534.997 
  "/>
<polyline clip-path="url(#clip060)" style="stroke:#000000; stroke-width:4; stroke-opacity:1; fill:none" points="
  110.881,76.859 137.783,76.859 
  "/>
<path clip-path="url(#clip060)" d="M 0 0 M62.9365 1437.07 Q59.3254 1437.07 57.4967 1440.64 Q55.6912 1444.18 55.6912 1451.31 Q55.6912 1458.42 57.4967 1461.98 Q59.3254 1465.52 62.9365 1465.52 Q66.5707 1465.52 68.3763 1461.98 Q70.205 1458.42 70.205 1451.31 Q70.205 1444.18 68.3763 1440.64 Q66.5707 1437.07 62.9365 1437.07 M62.9365 1433.37 Q68.7467 1433.37 71.8022 1437.98 Q74.8809 1442.56 74.8809 1451.31 Q74.8809 1460.04 71.8022 1464.64 Q68.7467 1469.23 62.9365 1469.23 Q57.1264 1469.23 54.0477 1464.64 Q50.9921 1460.04 50.9921 1451.31 Q50.9921 1442.56 54.0477 1437.98 Q57.1264 1433.37 62.9365 1433.37 Z" fill="#000000" fill-rule="evenodd" fill-opacity="1" /><path clip-path="url(#clip060)" d="M 0 0 M54.9736 1006.48 L62.6124 1006.48 L62.6124 980.115 L54.3023 981.782 L54.3023 977.523 L62.5661 975.856 L67.242 975.856 L67.242 1006.48 L74.8809 1006.48 L74.8809 1010.42 L54.9736 1010.42 L54.9736 1006.48 Z" fill="#000000" fill-rule="evenodd" fill-opacity="1" /><path clip-path="url(#clip060)" d="M 0 0 M58.5615 548.342 L74.8809 548.342 L74.8809 552.277 L52.9366 552.277 L52.9366 548.342 Q55.5986 545.588 60.1819 540.958 Q64.7883 536.305 65.9689 534.963 Q68.2143 532.44 69.0939 530.703 Q69.9967 528.944 69.9967 527.254 Q69.9967 524.5 68.0522 522.764 Q66.1309 521.028 63.0291 521.028 Q60.83 521.028 58.3763 521.792 Q55.9458 522.555 53.168 524.106 L53.168 519.384 Q55.9921 518.25 58.4458 517.671 Q60.8995 517.092 62.9365 517.092 Q68.3068 517.092 71.5013 519.778 Q74.6957 522.463 74.6957 526.954 Q74.6957 529.083 73.8855 531.004 Q73.0985 532.903 70.992 535.495 Q70.4133 536.166 67.3115 539.384 Q64.2096 542.578 58.5615 548.342 Z" fill="#000000" fill-rule="evenodd" fill-opacity="1" /><path clip-path="url(#clip060)" d="M 0 0 M67.7513 75.5049 Q71.1078 76.2225 72.9827 78.491 Q74.8809 80.7595 74.8809 84.0928 Q74.8809 89.2085 71.3624 92.0094 Q67.8439 94.8103 61.3624 94.8103 Q59.1865 94.8103 56.8717 94.3705 Q54.5801 93.9538 52.1264 93.0974 L52.1264 88.5835 Q54.0708 89.7178 56.3856 90.2965 Q58.7004 90.8752 61.2236 90.8752 Q65.6217 90.8752 67.9133 89.1391 Q70.2281 87.403 70.2281 84.0928 Q70.2281 81.0372 68.0754 79.3243 Q65.9457 77.5882 62.1263 77.5882 L58.0986 77.5882 L58.0986 73.7456 L62.3115 73.7456 Q65.7606 73.7456 67.5893 72.3799 Q69.418 70.991 69.418 68.3984 Q69.418 65.7364 67.5198 64.3244 Q65.6448 62.8892 62.1263 62.8892 Q60.205 62.8892 58.006 63.3059 Q55.8069 63.7225 53.168 64.6021 L53.168 60.4355 Q55.8301 59.6948 58.1449 59.3244 Q60.4828 58.954 62.543 58.954 Q67.867 58.954 70.9689 61.3846 Q74.0707 63.792 74.0707 67.9123 Q74.0707 70.7827 72.4272 72.7734 Q70.7837 74.741 67.7513 75.5049 Z" fill="#000000" fill-rule="evenodd" fill-opacity="1" /><polyline clip-path="url(#clip062)" style="stroke:#009af9; stroke-width:8; stroke-opacity:1; fill:none" points="
  179.494,1445.72 184.657,1440.22 189.821,1434.8 194.985,1429.44 242.73,1382.87 290.475,1341.27 338.22,1304.11 385.965,1270.92 443.351,1235.68 500.736,1204.91 
  549.255,1181.96 597.774,1161.5 650.479,1141.77 703.184,1124.36 751.774,1110.12 800.363,1097.43 852.456,1085.34 904.549,1074.66 964.904,1063.82 1025.26,1054.42 
  1132.53,1040.69 1226.6,1031.21 1329.16,1023.01 1432.33,1016.55 1546.4,1011.01 1654.93,1006.97 1767.77,1003.73 1862.77,1001.6 1978.74,999.568 2087.77,998.107 
  2262.43,996.425 2289.31,996.223 
  "/>
<polyline clip-path="url(#clip062)" style="stroke:#e26f46; stroke-width:8; stroke-opacity:1; fill:none" points="
  179.494,1332.57 184.657,1328.45 189.821,1324.38 194.985,1320.36 242.73,1285.44 290.475,1254.24 338.22,1226.37 385.965,1201.47 443.351,1175.04 500.736,1151.97 
  549.255,1134.75 597.774,1119.41 650.479,1104.61 703.184,1091.55 751.774,1080.87 800.363,1071.35 852.456,1062.29 904.549,1054.28 964.904,1046.15 1025.26,1039.1 
  1132.53,1028.8 1226.6,1021.69 1329.16,1015.54 1432.33,1010.69 1546.4,1006.54 1654.93,1003.51 1767.77,1001.08 1862.77,999.482 1978.74,997.96 2087.77,996.864 
  2262.43,995.603 2289.31,995.451 
  "/>
<polyline clip-path="url(#clip062)" style="stroke:#3da44d; stroke-width:8; stroke-opacity:1; fill:none" points="
  179.494,1219.43 184.657,1216.68 189.821,1213.97 194.985,1211.29 242.73,1188 290.475,1167.2 338.22,1148.62 385.965,1132.03 443.351,1114.41 500.736,1099.02 
  549.255,1087.55 597.774,1077.32 650.479,1067.45 703.184,1058.75 751.774,1051.63 800.363,1045.28 852.456,1039.24 904.549,1033.9 964.904,1028.48 1025.26,1023.78 
  1132.53,1016.91 1226.6,1012.17 1329.16,1008.07 1432.33,1004.84 1546.4,1002.07 1654.93,1000.05 1767.77,998.432 1862.77,997.367 1978.74,996.352 2087.77,995.621 
  2262.43,994.781 2289.31,994.679 
  "/>
<polyline clip-path="url(#clip062)" style="stroke:#c271d2; stroke-width:8; stroke-opacity:1; fill:none" points="
  194.985,993.136 385.965,993.136 500.736,993.136 597.774,993.136 703.184,993.136 800.363,993.136 904.549,993.136 1025.26,993.136 1132.53,993.136 1226.6,993.136 
  1329.16,993.136 1432.33,993.136 1546.4,993.136 1654.93,993.136 1767.77,993.136 1862.77,993.136 1978.74,993.136 2087.77,993.136 2262.43,993.136 2289.31,993.136 
  
  "/>
<polyline clip-path="url(#clip062)" style="stroke:#ac8d18; stroke-width:8; stroke-opacity:1; fill:none" points="
  179.494,540.556 184.657,546.047 189.821,551.472 194.985,556.831 242.73,603.4 290.475,644.999 338.22,682.158 385.965,715.351 443.351,750.592 500.736,781.362 
  549.255,804.312 597.774,824.775 650.479,844.498 703.184,861.911 751.774,876.151 800.363,888.846 852.456,900.93 904.549,911.614 964.904,922.454 1025.26,931.853 
  1132.53,945.58 1226.6,955.063 1329.16,963.26 1432.33,969.726 1546.4,975.259 1654.93,979.305 1767.77,982.544 1862.77,984.674 1978.74,986.703 2087.77,988.165 
  2262.43,989.846 2289.31,990.049 
  "/>
<polyline clip-path="url(#clip062)" style="stroke:#00a9ad; stroke-width:8; stroke-opacity:1; fill:none" points="
  179.494,87.9763 184.657,98.9586 189.821,109.808 194.985,120.525 242.73,213.665 290.475,296.863 338.22,371.181 385.965,437.566 443.351,508.049 500.736,569.589 
  549.255,615.488 597.774,656.414 650.479,695.861 703.184,730.686 751.774,759.167 800.363,784.557 852.456,808.725 904.549,830.093 964.904,851.773 1025.26,870.57 
  1132.53,898.025 1226.6,916.99 1329.16,933.384 1432.33,946.317 1546.4,957.383 1654.93,965.474 1767.77,971.951 1862.77,976.213 1978.74,980.271 2087.77,983.194 
  2262.43,986.557 2289.31,986.962 
  "/>
<path clip-path="url(#clip060)" d="
M1930.64 518.578 L2278.03 518.578 L2278.03 95.2176 L1930.64 95.2176  Z
  " fill="#ffffff" fill-rule="evenodd" fill-opacity="1"/>
<polyline clip-path="url(#clip060)" style="stroke:#000000; stroke-width:4; stroke-opacity:1; fill:none" points="
  1930.64,518.578 2278.03,518.578 2278.03,95.2176 1930.64,95.2176 1930.64,518.578 
  "/>
<polyline clip-path="url(#clip060)" style="stroke:#009af9; stroke-width:4; stroke-opacity:1; fill:none" points="
  1955.55,155.698 2105.01,155.698 
  "/>
<path clip-path="url(#clip060)" d="M 0 0 M2141.87 141.496 Q2138.25 141.496 2136.43 145.061 Q2134.62 148.603 2134.62 155.732 Q2134.62 162.839 2136.43 166.404 Q2138.25 169.945 2141.87 169.945 Q2145.5 169.945 2147.3 166.404 Q2149.13 162.839 2149.13 155.732 Q2149.13 148.603 2147.3 145.061 Q2145.5 141.496 2141.87 141.496 M2141.87 137.793 Q2147.68 137.793 2150.73 142.399 Q2153.81 146.982 2153.81 155.732 Q2153.81 164.459 2150.73 169.066 Q2147.68 173.649 2141.87 173.649 Q2136.06 173.649 2132.98 169.066 Q2129.92 164.459 2129.92 155.732 Q2129.92 146.982 2132.98 142.399 Q2136.06 137.793 2141.87 137.793 Z" fill="#000000" fill-rule="evenodd" fill-opacity="1" /><path clip-path="url(#clip060)" d="M 0 0 M2162.03 167.098 L2166.91 167.098 L2166.91 172.978 L2162.03 172.978 L2162.03 167.098 Z" fill="#000000" fill-rule="evenodd" fill-opacity="1" /><path clip-path="url(#clip060)" d="M 0 0 M2187.1 141.496 Q2183.49 141.496 2181.66 145.061 Q2179.85 148.603 2179.85 155.732 Q2179.85 162.839 2181.66 166.404 Q2183.49 169.945 2187.1 169.945 Q2190.73 169.945 2192.54 166.404 Q2194.36 162.839 2194.36 155.732 Q2194.36 148.603 2192.54 145.061 Q2190.73 141.496 2187.1 141.496 M2187.1 137.793 Q2192.91 137.793 2195.96 142.399 Q2199.04 146.982 2199.04 155.732 Q2199.04 164.459 2195.96 169.066 Q2192.91 173.649 2187.1 173.649 Q2181.29 173.649 2178.21 169.066 Q2175.15 164.459 2175.15 155.732 Q2175.15 146.982 2178.21 142.399 Q2181.29 137.793 2187.1 137.793 Z" fill="#000000" fill-rule="evenodd" fill-opacity="1" /><polyline clip-path="url(#clip060)" style="stroke:#e26f46; stroke-width:4; stroke-opacity:1; fill:none" points="
  1955.55,216.178 2105.01,216.178 
  "/>
<path clip-path="url(#clip060)" d="M 0 0 M2141.87 201.976 Q2138.25 201.976 2136.43 205.541 Q2134.62 209.083 2134.62 216.212 Q2134.62 223.319 2136.43 226.884 Q2138.25 230.425 2141.87 230.425 Q2145.5 230.425 2147.3 226.884 Q2149.13 223.319 2149.13 216.212 Q2149.13 209.083 2147.3 205.541 Q2145.5 201.976 2141.87 201.976 M2141.87 198.273 Q2147.68 198.273 2150.73 202.879 Q2153.81 207.462 2153.81 216.212 Q2153.81 224.939 2150.73 229.546 Q2147.68 234.129 2141.87 234.129 Q2136.06 234.129 2132.98 229.546 Q2129.92 224.939 2129.92 216.212 Q2129.92 207.462 2132.98 202.879 Q2136.06 198.273 2141.87 198.273 Z" fill="#000000" fill-rule="evenodd" fill-opacity="1" /><path clip-path="url(#clip060)" d="M 0 0 M2162.03 227.578 L2166.91 227.578 L2166.91 233.458 L2162.03 233.458 L2162.03 227.578 Z" fill="#000000" fill-rule="evenodd" fill-opacity="1" /><path clip-path="url(#clip060)" d="M 0 0 M2181.12 229.522 L2197.44 229.522 L2197.44 233.458 L2175.5 233.458 L2175.5 229.522 Q2178.16 226.768 2182.74 222.138 Q2187.35 217.485 2188.53 216.143 Q2190.78 213.62 2191.66 211.884 Q2192.56 210.124 2192.56 208.435 Q2192.56 205.68 2190.61 203.944 Q2188.69 202.208 2185.59 202.208 Q2183.39 202.208 2180.94 202.972 Q2178.51 203.735 2175.73 205.286 L2175.73 200.564 Q2178.55 199.43 2181.01 198.851 Q2183.46 198.273 2185.5 198.273 Q2190.87 198.273 2194.06 200.958 Q2197.26 203.643 2197.26 208.134 Q2197.26 210.263 2196.45 212.185 Q2195.66 214.083 2193.55 216.675 Q2192.98 217.347 2189.87 220.564 Q2186.77 223.759 2181.12 229.522 Z" fill="#000000" fill-rule="evenodd" fill-opacity="1" /><path clip-path="url(#clip060)" d="M 0 0 M2207.3 198.898 L2225.66 198.898 L2225.66 202.833 L2211.59 202.833 L2211.59 211.305 Q2212.61 210.958 2213.62 210.796 Q2214.64 210.61 2215.66 210.61 Q2221.45 210.61 2224.83 213.782 Q2228.21 216.953 2228.21 222.37 Q2228.21 227.948 2224.74 231.05 Q2221.26 234.129 2214.94 234.129 Q2212.77 234.129 2210.5 233.758 Q2208.25 233.388 2205.85 232.647 L2205.85 227.948 Q2207.93 229.083 2210.15 229.638 Q2212.37 230.194 2214.85 230.194 Q2218.86 230.194 2221.19 228.087 Q2223.53 225.981 2223.53 222.37 Q2223.53 218.759 2221.19 216.652 Q2218.86 214.546 2214.85 214.546 Q2212.98 214.546 2211.1 214.962 Q2209.25 215.379 2207.3 216.259 L2207.3 198.898 Z" fill="#000000" fill-rule="evenodd" fill-opacity="1" /><polyline clip-path="url(#clip060)" style="stroke:#3da44d; stroke-width:4; stroke-opacity:1; fill:none" points="
  1955.55,276.658 2105.01,276.658 
  "/>
<path clip-path="url(#clip060)" d="M 0 0 M2141.87 262.456 Q2138.25 262.456 2136.43 266.021 Q2134.62 269.563 2134.62 276.692 Q2134.62 283.799 2136.43 287.364 Q2138.25 290.905 2141.87 290.905 Q2145.5 290.905 2147.3 287.364 Q2149.13 283.799 2149.13 276.692 Q2149.13 269.563 2147.3 266.021 Q2145.5 262.456 2141.87 262.456 M2141.87 258.753 Q2147.68 258.753 2150.73 263.359 Q2153.81 267.942 2153.81 276.692 Q2153.81 285.419 2150.73 290.026 Q2147.68 294.609 2141.87 294.609 Q2136.06 294.609 2132.98 290.026 Q2129.92 285.419 2129.92 276.692 Q2129.92 267.942 2132.98 263.359 Q2136.06 258.753 2141.87 258.753 Z" fill="#000000" fill-rule="evenodd" fill-opacity="1" /><path clip-path="url(#clip060)" d="M 0 0 M2162.03 288.058 L2166.91 288.058 L2166.91 293.938 L2162.03 293.938 L2162.03 288.058 Z" fill="#000000" fill-rule="evenodd" fill-opacity="1" /><path clip-path="url(#clip060)" d="M 0 0 M2177.14 259.378 L2195.5 259.378 L2195.5 263.313 L2181.43 263.313 L2181.43 271.785 Q2182.44 271.438 2183.46 271.276 Q2184.48 271.09 2185.5 271.09 Q2191.29 271.09 2194.67 274.262 Q2198.05 277.433 2198.05 282.85 Q2198.05 288.428 2194.57 291.53 Q2191.1 294.609 2184.78 294.609 Q2182.61 294.609 2180.34 294.238 Q2178.09 293.868 2175.68 293.127 L2175.68 288.428 Q2177.77 289.563 2179.99 290.118 Q2182.21 290.674 2184.69 290.674 Q2188.69 290.674 2191.03 288.567 Q2193.37 286.461 2193.37 282.85 Q2193.37 279.239 2191.03 277.132 Q2188.69 275.026 2184.69 275.026 Q2182.81 275.026 2180.94 275.442 Q2179.09 275.859 2177.14 276.739 L2177.14 259.378 Z" fill="#000000" fill-rule="evenodd" fill-opacity="1" /><polyline clip-path="url(#clip060)" style="stroke:#c271d2; stroke-width:4; stroke-opacity:1; fill:none" points="
  1955.55,337.138 2105.01,337.138 
  "/>
<path clip-path="url(#clip060)" d="M 0 0 M2130.59 350.482 L2138.23 350.482 L2138.23 324.117 L2129.92 325.783 L2129.92 321.524 L2138.18 319.858 L2142.86 319.858 L2142.86 350.482 L2150.5 350.482 L2150.5 354.418 L2130.59 354.418 L2130.59 350.482 Z" fill="#000000" fill-rule="evenodd" fill-opacity="1" /><path clip-path="url(#clip060)" d="M 0 0 M2159.94 348.538 L2164.83 348.538 L2164.83 354.418 L2159.94 354.418 L2159.94 348.538 Z" fill="#000000" fill-rule="evenodd" fill-opacity="1" /><path clip-path="url(#clip060)" d="M 0 0 M2185.01 322.936 Q2181.4 322.936 2179.57 326.501 Q2177.77 330.043 2177.77 337.172 Q2177.77 344.279 2179.57 347.844 Q2181.4 351.385 2185.01 351.385 Q2188.65 351.385 2190.45 347.844 Q2192.28 344.279 2192.28 337.172 Q2192.28 330.043 2190.45 326.501 Q2188.65 322.936 2185.01 322.936 M2185.01 319.233 Q2190.82 319.233 2193.88 323.839 Q2196.96 328.422 2196.96 337.172 Q2196.96 345.899 2193.88 350.506 Q2190.82 355.089 2185.01 355.089 Q2179.2 355.089 2176.12 350.506 Q2173.07 345.899 2173.07 337.172 Q2173.07 328.422 2176.12 323.839 Q2179.2 319.233 2185.01 319.233 Z" fill="#000000" fill-rule="evenodd" fill-opacity="1" /><polyline clip-path="url(#clip060)" style="stroke:#ac8d18; stroke-width:4; stroke-opacity:1; fill:none" points="
  1955.55,397.618 2105.01,397.618 
  "/>
<path clip-path="url(#clip060)" d="M 0 0 M2135.55 410.962 L2151.87 410.962 L2151.87 414.898 L2129.92 414.898 L2129.92 410.962 Q2132.58 408.208 2137.17 403.578 Q2141.77 398.925 2142.95 397.583 Q2145.2 395.06 2146.08 393.324 Q2146.98 391.564 2146.98 389.875 Q2146.98 387.12 2145.04 385.384 Q2143.12 383.648 2140.01 383.648 Q2137.81 383.648 2135.36 384.412 Q2132.93 385.175 2130.15 386.726 L2130.15 382.004 Q2132.98 380.87 2135.43 380.291 Q2137.88 379.713 2139.92 379.713 Q2145.29 379.713 2148.49 382.398 Q2151.68 385.083 2151.68 389.574 Q2151.68 391.703 2150.87 393.625 Q2150.08 395.523 2147.98 398.115 Q2147.4 398.787 2144.3 402.004 Q2141.19 405.199 2135.55 410.962 Z" fill="#000000" fill-rule="evenodd" fill-opacity="1" /><path clip-path="url(#clip060)" d="M 0 0 M2161.68 409.018 L2166.56 409.018 L2166.56 414.898 L2161.68 414.898 L2161.68 409.018 Z" fill="#000000" fill-rule="evenodd" fill-opacity="1" /><path clip-path="url(#clip060)" d="M 0 0 M2186.75 383.416 Q2183.14 383.416 2181.31 386.981 Q2179.5 390.523 2179.5 397.652 Q2179.5 404.759 2181.31 408.324 Q2183.14 411.865 2186.75 411.865 Q2190.38 411.865 2192.19 408.324 Q2194.02 404.759 2194.02 397.652 Q2194.02 390.523 2192.19 386.981 Q2190.38 383.416 2186.75 383.416 M2186.75 379.713 Q2192.56 379.713 2195.61 384.319 Q2198.69 388.902 2198.69 397.652 Q2198.69 406.379 2195.61 410.986 Q2192.56 415.569 2186.75 415.569 Q2180.94 415.569 2177.86 410.986 Q2174.8 406.379 2174.8 397.652 Q2174.8 388.902 2177.86 384.319 Q2180.94 379.713 2186.75 379.713 Z" fill="#000000" fill-rule="evenodd" fill-opacity="1" /><polyline clip-path="url(#clip060)" style="stroke:#00a9ad; stroke-width:4; stroke-opacity:1; fill:none" points="
  1955.55,458.098 2105.01,458.098 
  "/>
<path clip-path="url(#clip060)" d="M 0 0 M2145.55 456.743 Q2148.9 457.461 2150.78 459.729 Q2152.68 461.998 2152.68 465.331 Q2152.68 470.447 2149.16 473.248 Q2145.64 476.049 2139.16 476.049 Q2136.98 476.049 2134.67 475.609 Q2132.37 475.192 2129.92 474.336 L2129.92 469.822 Q2131.87 470.956 2134.18 471.535 Q2136.49 472.114 2139.02 472.114 Q2143.42 472.114 2145.71 470.378 Q2148.02 468.641 2148.02 465.331 Q2148.02 462.276 2145.87 460.563 Q2143.74 458.827 2139.92 458.827 L2135.89 458.827 L2135.89 454.984 L2140.11 454.984 Q2143.55 454.984 2145.38 453.618 Q2147.21 452.23 2147.21 449.637 Q2147.21 446.975 2145.31 445.563 Q2143.44 444.128 2139.92 444.128 Q2138 444.128 2135.8 444.544 Q2133.6 444.961 2130.96 445.841 L2130.96 441.674 Q2133.62 440.933 2135.94 440.563 Q2138.28 440.193 2140.34 440.193 Q2145.66 440.193 2148.76 442.623 Q2151.87 445.03 2151.87 449.151 Q2151.87 452.021 2150.22 454.012 Q2148.58 455.98 2145.55 456.743 Z" fill="#000000" fill-rule="evenodd" fill-opacity="1" /><path clip-path="url(#clip060)" d="M 0 0 M2161.54 469.498 L2166.43 469.498 L2166.43 475.378 L2161.54 475.378 L2161.54 469.498 Z" fill="#000000" fill-rule="evenodd" fill-opacity="1" /><path clip-path="url(#clip060)" d="M 0 0 M2186.61 443.896 Q2183 443.896 2181.17 447.461 Q2179.36 451.003 2179.36 458.132 Q2179.36 465.239 2181.17 468.804 Q2183 472.345 2186.61 472.345 Q2190.24 472.345 2192.05 468.804 Q2193.88 465.239 2193.88 458.132 Q2193.88 451.003 2192.05 447.461 Q2190.24 443.896 2186.61 443.896 M2186.61 440.193 Q2192.42 440.193 2195.48 444.799 Q2198.55 449.382 2198.55 458.132 Q2198.55 466.859 2195.48 471.466 Q2192.42 476.049 2186.61 476.049 Q2180.8 476.049 2177.72 471.466 Q2174.67 466.859 2174.67 458.132 Q2174.67 449.382 2177.72 444.799 Q2180.8 440.193 2186.61 440.193 Z" fill="#000000" fill-rule="evenodd" fill-opacity="1" /></svg>