<?xml version="1.0" encoding="utf-8" standalone="no"?>
<!DOCTYPE svg PUBLIC "-//W3C//DTD SVG 1.1//EN"
  "http://www.w3.org/Graphics/SVG/1.1/DTD/svg11.dtd">
<!-- Created with matplotlib (https://matplotlib.org/) -->
<svg height="227.07pt" version="1.1" viewBox="0 0 356.1 227.07" width="356.1pt" xmlns="http://www.w3.org/2000/svg" xmlns:xlink="http://www.w3.org/1999/xlink">
 <metadata>
  <rdf:RDF xmlns:cc="http://creativecommons.org/ns#" xmlns:dc="http://purl.org/dc/elements/1.1/" xmlns:rdf="http://www.w3.org/1999/02/22-rdf-syntax-ns#">
   <cc:Work>
    <dc:type rdf:resource="http://purl.org/dc/dcmitype/StillImage"/>
    <dc:date>2021-04-21T19:18:19.585122</dc:date>
    <dc:format>image/svg+xml</dc:format>
    <dc:creator>
     <cc:Agent>
      <dc:title>Matplotlib v3.3.4, https://matplotlib.org/</dc:title>
     </cc:Agent>
    </dc:creator>
   </cc:Work>
  </rdf:RDF>
 </metadata>
 <defs>
  <style type="text/css">*{stroke-linecap:butt;stroke-linejoin:round;}</style>
 </defs>
 <g id="figure_1">
  <g id="patch_1">
   <path d="M 0 227.07 
L 356.1 227.07 
L 356.1 0 
L 0 0 
z
" style="fill:none;"/>
  </g>
  <g id="axes_1">
   <g id="patch_2">
    <path clip-path="url(#p3a2af65a10)" d="M 70.95 132.66 
L 64.83 134.955 
L 64.83 132.6753 
L 61.77 132.6753 
L 61.77 132.6447 
L 64.83 132.6447 
L 64.83 130.365 
z
" style="stroke:#000000;stroke-linejoin:miter;stroke-width:2;"/>
   </g>
   <g id="patch_3">
    <path clip-path="url(#p3a2af65a10)" d="M 86.25 147.96 
C 90.307607 147.96 94.199572 146.347895 97.068734 143.478734 
C 99.937895 140.609572 101.55 136.717607 101.55 132.66 
C 101.55 128.602393 99.937895 124.710428 97.068734 121.841266 
C 94.199572 118.972105 90.307607 117.36 86.25 117.36 
C 82.192393 117.36 78.300428 118.972105 75.431266 121.841266 
C 72.562105 124.710428 70.95 128.602393 70.95 132.66 
C 70.95 136.717607 72.562105 140.609572 75.431266 143.478734 
C 78.300428 146.347895 82.192393 147.96 86.25 147.96 
z
" style="fill:none;stroke:#000000;stroke-linejoin:miter;stroke-width:2;"/>
   </g>
   <g id="patch_4">
    <path clip-path="url(#p3a2af65a10)" d="M 132.15 132.66 
L 126.03 134.955 
L 126.03 132.6753 
L 122.97 132.6753 
L 122.97 132.6447 
L 126.03 132.6447 
L 126.03 130.365 
z
" style="stroke:#000000;stroke-linejoin:miter;stroke-width:2;"/>
   </g>
   <g id="patch_5">
    <path clip-path="url(#p3a2af65a10)" d="M 230.07 132.66 
L 223.95 134.955 
L 223.95 132.6753 
L 220.89 132.6753 
L 220.89 132.6447 
L 223.95 132.6447 
L 223.95 130.365 
z
" style="stroke:#000000;stroke-linejoin:miter;stroke-width:2;"/>
   </g>
   <g id="patch_6">
    <path clip-path="url(#p3a2af65a10)" d="M 245.37 147.96 
C 249.427607 147.96 253.319572 146.347895 256.188734 143.478734 
C 259.057895 140.609572 260.67 136.717607 260.67 132.66 
C 260.67 128.602393 259.057895 124.710428 256.188734 121.841266 
C 253.319572 118.972105 249.427607 117.36 245.37 117.36 
C 241.312393 117.36 237.420428 118.972105 234.551266 121.841266 
C 231.682105 124.710428 230.07 128.602393 230.07 132.66 
C 230.07 136.717607 231.682105 140.609572 234.551266 143.478734 
C 237.420428 146.347895 241.312393 147.96 245.37 147.96 
z
" style="fill:none;stroke:#000000;stroke-linejoin:miter;stroke-width:2;"/>
   </g>
   <g id="patch_7">
    <path clip-path="url(#p3a2af65a10)" d="M 245.37 117.36 
L 243.075 111.24 
L 245.3547 111.24 
L 245.3547 108.18 
L 245.3853 108.18 
L 245.3853 111.24 
L 247.665 111.24 
z
" style="stroke:#000000;stroke-linejoin:miter;stroke-width:2;"/>
   </g>
   <g id="patch_8">
    <path clip-path="url(#p3a2af65a10)" d="M 245.37 40.86 
L 243.075 34.74 
L 245.3547 34.74 
L 245.3547 31.68 
L 245.3853 31.68 
L 245.3853 34.74 
L 247.665 34.74 
z
" style="stroke:#000000;stroke-linejoin:miter;stroke-width:2;"/>
   </g>
   <g id="patch_9">
    <path clip-path="url(#p3a2af65a10)" d="M 321.87 132.66 
L 315.75 134.955 
L 315.75 132.6753 
L 312.69 132.6753 
L 312.69 132.6447 
L 315.75 132.6447 
L 315.75 130.365 
z
" style="stroke:#000000;stroke-linejoin:miter;stroke-width:2;"/>
   </g>
   <g id="patch_10">
    <path clip-path="url(#p3a2af65a10)" d="M 199.47 193.86 
L 205.59 191.565 
L 205.59 193.8447 
L 208.65 193.8447 
L 208.65 193.8753 
L 205.59 193.8753 
L 205.59 196.155 
z
" style="stroke:#000000;stroke-linejoin:miter;stroke-width:2;"/>
   </g>
   <g id="patch_11">
    <path clip-path="url(#p3a2af65a10)" d="M 86.25 147.96 
L 88.545 154.08 
L 86.2653 154.08 
L 86.2653 157.14 
L 86.2347 157.14 
L 86.2347 154.08 
L 83.955 154.08 
z
" style="stroke:#000000;stroke-linejoin:miter;stroke-width:2;"/>
   </g>
   <g id="line2d_1">
    <path clip-path="url(#p3a2af65a10)" d="M 40.35 132.66 
L 55.65 132.66 
L 70.95 132.66 
" style="fill:none;stroke:#000000;stroke-linecap:round;stroke-width:2;"/>
   </g>
   <g id="line2d_2">
    <path clip-path="url(#p3a2af65a10)" d="M 97.068734 121.841266 
L 75.431266 143.478734 
" style="fill:none;stroke:#000000;stroke-linecap:round;stroke-width:2;"/>
   </g>
   <g id="line2d_3">
    <path clip-path="url(#p3a2af65a10)" d="M 97.068734 143.478734 
L 75.431266 121.841266 
" style="fill:none;stroke:#000000;stroke-linecap:round;stroke-width:2;"/>
   </g>
   <g id="line2d_4">
    <path clip-path="url(#p3a2af65a10)" d="M 101.55 132.66 
L 116.85 132.66 
L 132.15 132.66 
" style="fill:none;stroke:#000000;stroke-linecap:round;stroke-width:2;"/>
   </g>
   <g id="line2d_5">
    <path clip-path="url(#p3a2af65a10)" d="M 165.81 109.71 
L 199.47 109.71 
L 199.47 155.61 
L 132.15 155.61 
L 132.15 109.71 
L 165.81 109.71 
" style="fill:none;stroke:#000000;stroke-linecap:round;stroke-width:2;"/>
   </g>
   <g id="line2d_6">
    <path clip-path="url(#p3a2af65a10)" d="M 199.47 132.66 
L 214.77 132.66 
L 230.07 132.66 
" style="fill:none;stroke:#000000;stroke-linecap:round;stroke-width:2;"/>
   </g>
   <g id="line2d_7">
    <path clip-path="url(#p3a2af65a10)" d="M 256.188734 121.841266 
L 234.551266 143.478734 
" style="fill:none;stroke:#000000;stroke-linecap:round;stroke-width:2;"/>
   </g>
   <g id="line2d_8">
    <path clip-path="url(#p3a2af65a10)" d="M 256.188734 143.478734 
L 234.551266 121.841266 
" style="fill:none;stroke:#000000;stroke-linecap:round;stroke-width:2;"/>
   </g>
   <g id="line2d_9">
    <path clip-path="url(#p3a2af65a10)" d="M 260.67 132.66 
L 275.97 132.66 
L 291.27 132.66 
" style="fill:none;stroke:#000000;stroke-linecap:round;stroke-width:2;"/>
   </g>
   <g id="line2d_10">
    <path clip-path="url(#p3a2af65a10)" d="M 245.37 117.36 
L 245.37 102.06 
L 245.37 86.76 
" style="fill:none;stroke:#000000;stroke-linecap:round;stroke-width:2;"/>
   </g>
   <g id="line2d_11">
    <path clip-path="url(#p3a2af65a10)" d="M 245.37 40.86 
L 279.03 40.86 
L 279.03 86.76 
L 211.71 86.76 
L 211.71 40.86 
L 245.37 40.86 
" style="fill:none;stroke:#000000;stroke-linecap:round;stroke-width:2;"/>
   </g>
   <g id="line2d_12">
    <path clip-path="url(#p3a2af65a10)" d="M 245.37 40.86 
L 245.37 25.56 
L 245.37 10.26 
" style="fill:none;stroke:#000000;stroke-linecap:round;stroke-width:2;"/>
   </g>
   <g id="line2d_13">
    <path clip-path="url(#p3a2af65a10)" d="M 291.27 132.66 
L 306.57 132.66 
L 321.87 132.66 
" style="fill:none;stroke:#000000;stroke-linecap:round;stroke-width:2;"/>
   </g>
   <g id="line2d_14">
    <path clip-path="url(#p3a2af65a10)" d="M 291.27 132.66 
L 291.27 163.26 
L 291.27 193.86 
" style="fill:none;stroke:#000000;stroke-linecap:round;stroke-width:2;"/>
   </g>
   <g id="line2d_15">
    <path clip-path="url(#p3a2af65a10)" d="M 291.27 193.86 
L 245.37 193.86 
L 199.47 193.86 
" style="fill:none;stroke:#000000;stroke-linecap:round;stroke-width:2;"/>
   </g>
   <g id="line2d_16">
    <path clip-path="url(#p3a2af65a10)" d="M 165.81 170.91 
L 199.47 170.91 
L 199.47 216.81 
L 132.15 216.81 
L 132.15 170.91 
L 165.81 170.91 
" style="fill:none;stroke:#000000;stroke-linecap:round;stroke-width:2;"/>
   </g>
   <g id="line2d_17">
    <path clip-path="url(#p3a2af65a10)" d="M 132.15 193.86 
L 109.2 193.86 
L 86.25 193.86 
" style="fill:none;stroke:#000000;stroke-linecap:round;stroke-width:2;"/>
   </g>
   <g id="line2d_18">
    <path clip-path="url(#p3a2af65a10)" d="M 86.25 193.86 
L 86.25 170.91 
L 86.25 147.96 
" style="fill:none;stroke:#000000;stroke-linecap:round;stroke-width:2;"/>
   </g>
   <g id="text_1">
    <!-- $y_{sp}(s)$ -->
    <g transform="translate(9.99 134.91)scale(0.1 -0.1)">
     <defs>
      <path d="M 24.8125 -5.078125 
Q 18.5625 -15.578125 14.625 -18.1875 
Q 10.6875 -20.796875 4.59375 -20.796875 
L -2.484375 -20.796875 
L -0.984375 -13.28125 
L 4.203125 -13.28125 
Q 7.953125 -13.28125 10.59375 -11.234375 
Q 13.234375 -9.1875 16.5 -3.21875 
L 19.28125 2 
L 7.171875 54.6875 
L 16.703125 54.6875 
L 25.78125 12.796875 
L 50.875 54.6875 
L 60.296875 54.6875 
z
" id="DejaVuSans-Oblique-121"/>
      <path d="M 50 53.078125 
L 48.296875 44.578125 
Q 44.734375 46.53125 40.765625 47.5 
Q 36.8125 48.484375 32.625 48.484375 
Q 25.53125 48.484375 21.453125 46.0625 
Q 17.390625 43.65625 17.390625 39.5 
Q 17.390625 34.671875 26.859375 32.078125 
Q 27.59375 31.890625 27.9375 31.78125 
L 30.8125 30.90625 
Q 39.796875 28.421875 42.796875 25.6875 
Q 45.796875 22.953125 45.796875 18.21875 
Q 45.796875 9.515625 38.890625 4.046875 
Q 31.984375 -1.421875 20.796875 -1.421875 
Q 16.453125 -1.421875 11.671875 -0.578125 
Q 6.890625 0.25 1.125 2 
L 2.875 11.28125 
Q 7.8125 8.734375 12.59375 7.421875 
Q 17.390625 6.109375 21.78125 6.109375 
Q 28.375 6.109375 32.5 8.9375 
Q 36.625 11.765625 36.625 16.109375 
Q 36.625 20.796875 25.78125 23.6875 
L 24.859375 23.921875 
L 21.78125 24.703125 
Q 14.9375 26.515625 11.765625 29.46875 
Q 8.59375 32.421875 8.59375 37.015625 
Q 8.59375 45.75 15.15625 50.875 
Q 21.734375 56 33.015625 56 
Q 37.453125 56 41.671875 55.265625 
Q 45.90625 54.546875 50 53.078125 
z
" id="DejaVuSans-Oblique-115"/>
      <path d="M 49.609375 33.6875 
Q 49.609375 40.875 46.484375 44.671875 
Q 43.359375 48.484375 37.5 48.484375 
Q 33.5 48.484375 29.859375 46.4375 
Q 26.21875 44.390625 23.390625 40.484375 
Q 20.609375 36.625 18.9375 31.15625 
Q 17.28125 25.6875 17.28125 20.3125 
Q 17.28125 13.484375 20.40625 9.796875 
Q 23.53125 6.109375 29.296875 6.109375 
Q 33.546875 6.109375 37.1875 8.109375 
Q 40.828125 10.109375 43.40625 13.921875 
Q 46.1875 17.921875 47.890625 23.34375 
Q 49.609375 28.765625 49.609375 33.6875 
z
M 21.78125 46.390625 
Q 25.390625 51.125 30.296875 53.5625 
Q 35.203125 56 41.21875 56 
Q 49.609375 56 54.25 50.5 
Q 58.890625 45.015625 58.890625 35.109375 
Q 58.890625 27 56 19.65625 
Q 53.125 12.3125 47.703125 6.5 
Q 44.09375 2.640625 39.546875 0.609375 
Q 35.015625 -1.421875 29.984375 -1.421875 
Q 24.171875 -1.421875 20.21875 1 
Q 16.265625 3.421875 14.3125 8.203125 
L 8.6875 -20.796875 
L -0.296875 -20.796875 
L 14.40625 54.6875 
L 23.390625 54.6875 
z
" id="DejaVuSans-Oblique-112"/>
      <path d="M 31 75.875 
Q 24.46875 64.65625 21.28125 53.65625 
Q 18.109375 42.671875 18.109375 31.390625 
Q 18.109375 20.125 21.3125 9.0625 
Q 24.515625 -2 31 -13.1875 
L 23.1875 -13.1875 
Q 15.875 -1.703125 12.234375 9.375 
Q 8.59375 20.453125 8.59375 31.390625 
Q 8.59375 42.28125 12.203125 53.3125 
Q 15.828125 64.359375 23.1875 75.875 
z
" id="DejaVuSans-40"/>
      <path d="M 8.015625 75.875 
L 15.828125 75.875 
Q 23.140625 64.359375 26.78125 53.3125 
Q 30.421875 42.28125 30.421875 31.390625 
Q 30.421875 20.453125 26.78125 9.375 
Q 23.140625 -1.703125 15.828125 -13.1875 
L 8.015625 -13.1875 
Q 14.5 -2 17.703125 9.0625 
Q 20.90625 20.125 20.90625 31.390625 
Q 20.90625 42.671875 17.703125 53.65625 
Q 14.5 64.65625 8.015625 75.875 
z
" id="DejaVuSans-41"/>
     </defs>
     <use transform="translate(0 0.125)" xlink:href="#DejaVuSans-Oblique-121"/>
     <use transform="translate(59.179688 -16.28125)scale(0.7)" xlink:href="#DejaVuSans-Oblique-115"/>
     <use transform="translate(95.649414 -16.28125)scale(0.7)" xlink:href="#DejaVuSans-Oblique-112"/>
     <use transform="translate(142.817383 0.125)" xlink:href="#DejaVuSans-40"/>
     <use transform="translate(181.831055 0.125)" xlink:href="#DejaVuSans-Oblique-115"/>
     <use transform="translate(233.930664 0.125)" xlink:href="#DejaVuSans-41"/>
    </g>
   </g>
   <g id="text_2">
    <!-- - -->
    <g transform="translate(84.446094 145.058375)scale(0.1 -0.1)">
     <defs>
      <path d="M 4.890625 31.390625 
L 31.203125 31.390625 
L 31.203125 23.390625 
L 4.890625 23.390625 
z
" id="DejaVuSans-45"/>
     </defs>
     <use xlink:href="#DejaVuSans-45"/>
    </g>
   </g>
   <g id="text_3">
    <!-- + -->
    <g transform="translate(72.880156 135.419375)scale(0.1 -0.1)">
     <defs>
      <path d="M 46 62.703125 
L 46 35.5 
L 73.1875 35.5 
L 73.1875 27.203125 
L 46 27.203125 
L 46 0 
L 37.796875 0 
L 37.796875 27.203125 
L 10.59375 27.203125 
L 10.59375 35.5 
L 37.796875 35.5 
L 37.796875 62.703125 
z
" id="DejaVuSans-43"/>
     </defs>
     <use xlink:href="#DejaVuSans-43"/>
    </g>
   </g>
   <g id="text_4">
    <!-- $G(s)$ -->
    <g transform="translate(155.41 135.419375)scale(0.1 -0.1)">
     <defs>
      <path d="M 54.59375 10.890625 
L 58.40625 29.984375 
L 42.1875 29.984375 
L 43.703125 38.09375 
L 69.578125 38.09375 
L 63.28125 6 
Q 56.78125 2.4375 49.109375 0.5 
Q 41.453125 -1.421875 33.6875 -1.421875 
Q 19.96875 -1.421875 12.234375 6.1875 
Q 4.5 13.8125 4.5 27.390625 
Q 4.5 38.671875 9.203125 48.84375 
Q 13.921875 59.03125 22.21875 65.828125 
Q 27.4375 70.0625 33.640625 72.140625 
Q 39.84375 74.21875 47.40625 74.21875 
Q 54.25 74.21875 60.515625 72.484375 
Q 66.796875 70.75 72.515625 67.28125 
L 70.515625 56.78125 
Q 66.109375 61.375 60.203125 63.796875 
Q 54.296875 66.21875 47.609375 66.21875 
Q 39.84375 66.21875 33.9375 63.25 
Q 28.03125 60.296875 23.390625 54.109375 
Q 19.4375 48.828125 17.15625 41.671875 
Q 14.890625 34.515625 14.890625 27.09375 
Q 14.890625 16.890625 20.109375 11.734375 
Q 25.34375 6.59375 35.6875 6.59375 
Q 40.875 6.59375 45.703125 7.6875 
Q 50.53125 8.796875 54.59375 10.890625 
z
" id="DejaVuSans-Oblique-71"/>
     </defs>
     <use transform="translate(0 0.125)" xlink:href="#DejaVuSans-Oblique-71"/>
     <use transform="translate(77.490234 0.125)" xlink:href="#DejaVuSans-40"/>
     <use transform="translate(116.503906 0.125)" xlink:href="#DejaVuSans-Oblique-115"/>
     <use transform="translate(168.603516 0.125)" xlink:href="#DejaVuSans-41"/>
    </g>
   </g>
   <g id="text_5">
    <!-- + -->
    <g transform="translate(241.180156 125.780375)scale(0.1 -0.1)">
     <use xlink:href="#DejaVuSans-43"/>
    </g>
   </g>
   <g id="text_6">
    <!-- + -->
    <g transform="translate(232.000156 135.419375)scale(0.1 -0.1)">
     <use xlink:href="#DejaVuSans-43"/>
    </g>
   </g>
   <g id="text_7">
    <!-- $G_d((s)$ -->
    <g transform="translate(230.67 66.569375)scale(0.1 -0.1)">
     <defs>
      <path d="M 41.796875 8.203125 
Q 38.1875 3.46875 33.25 1.015625 
Q 28.328125 -1.421875 22.3125 -1.421875 
Q 14.109375 -1.421875 9.34375 4.171875 
Q 4.59375 9.765625 4.59375 19.484375 
Q 4.59375 27.59375 7.46875 34.9375 
Q 10.359375 42.28125 15.828125 48.09375 
Q 19.4375 51.953125 23.96875 53.96875 
Q 28.515625 56 33.5 56 
Q 38.765625 56 42.796875 53.453125 
Q 46.828125 50.921875 49.03125 46.1875 
L 54.890625 75.984375 
L 63.921875 75.984375 
L 49.125 0 
L 40.09375 0 
z
M 13.921875 21.09375 
Q 13.921875 14.015625 17.109375 10.0625 
Q 20.3125 6.109375 25.984375 6.109375 
Q 30.171875 6.109375 33.765625 8.125 
Q 37.359375 10.15625 40.09375 14.109375 
Q 42.96875 18.21875 44.625 23.578125 
Q 46.296875 28.953125 46.296875 34.1875 
Q 46.296875 40.96875 43.09375 44.765625 
Q 39.890625 48.578125 34.28125 48.578125 
Q 30.03125 48.578125 26.359375 46.578125 
Q 22.703125 44.578125 20.125 40.828125 
Q 17.28125 36.765625 15.59375 31.390625 
Q 13.921875 26.03125 13.921875 21.09375 
z
" id="DejaVuSans-Oblique-100"/>
     </defs>
     <use transform="translate(0 0.125)" xlink:href="#DejaVuSans-Oblique-71"/>
     <use transform="translate(77.490234 -16.28125)scale(0.7)" xlink:href="#DejaVuSans-Oblique-100"/>
     <use transform="translate(124.658203 0.125)" xlink:href="#DejaVuSans-40"/>
     <use transform="translate(163.671875 0.125)" xlink:href="#DejaVuSans-40"/>
     <use transform="translate(202.685547 0.125)" xlink:href="#DejaVuSans-Oblique-115"/>
     <use transform="translate(254.785156 0.125)" xlink:href="#DejaVuSans-41"/>
    </g>
   </g>
   <g id="text_8">
    <!-- $d(s)$ -->
    <g transform="translate(218.32 28.319375)scale(0.1 -0.1)">
     <use transform="translate(0 0.015625)" xlink:href="#DejaVuSans-Oblique-100"/>
     <use transform="translate(63.476562 0.015625)" xlink:href="#DejaVuSans-40"/>
     <use transform="translate(102.490234 0.015625)" xlink:href="#DejaVuSans-Oblique-115"/>
     <use transform="translate(154.589844 0.015625)" xlink:href="#DejaVuSans-41"/>
    </g>
   </g>
   <g id="text_9">
    <!-- $y(s)$ -->
    <g transform="translate(324.93 135.41)scale(0.1 -0.1)">
     <use transform="translate(0 0.125)" xlink:href="#DejaVuSans-Oblique-121"/>
     <use transform="translate(59.179688 0.125)" xlink:href="#DejaVuSans-40"/>
     <use transform="translate(98.193359 0.125)" xlink:href="#DejaVuSans-Oblique-115"/>
     <use transform="translate(150.292969 0.125)" xlink:href="#DejaVuSans-41"/>
    </g>
   </g>
   <g id="text_10">
    <!-- $H(s)$ -->
    <g transform="translate(155.51 196.619375)scale(0.1 -0.1)">
     <defs>
      <path d="M 16.890625 72.90625 
L 26.8125 72.90625 
L 21 43.015625 
L 56.78125 43.015625 
L 62.59375 72.90625 
L 72.515625 72.90625 
L 58.296875 0 
L 48.390625 0 
L 55.171875 34.71875 
L 19.390625 34.71875 
L 12.59375 0 
L 2.6875 0 
z
" id="DejaVuSans-Oblique-72"/>
     </defs>
     <use transform="translate(0 0.125)" xlink:href="#DejaVuSans-Oblique-72"/>
     <use transform="translate(75.195312 0.125)" xlink:href="#DejaVuSans-40"/>
     <use transform="translate(114.208984 0.125)" xlink:href="#DejaVuSans-Oblique-115"/>
     <use transform="translate(166.308594 0.125)" xlink:href="#DejaVuSans-41"/>
    </g>
   </g>
   <g id="patch_12">
    <path clip-path="url(#p3a2af65a10)" d="M 291.27 132.66 
C 291.27 132.66 291.27 132.66 291.27 132.66 
C 291.27 132.66 291.27 132.66 291.27 132.66 
C 291.27 132.66 291.27 132.66 291.27 132.66 
C 291.27 132.66 291.27 132.66 291.27 132.66 
C 291.27 132.66 291.27 132.66 291.27 132.66 
C 291.27 132.66 291.27 132.66 291.27 132.66 
C 291.27 132.66 291.27 132.66 291.27 132.66 
C 291.27 132.66 291.27 132.66 291.27 132.66 
z
" style="stroke:#000000;stroke-linejoin:miter;stroke-width:2;"/>
   </g>
  </g>
 </g>
 <defs>
  <clipPath id="p3a2af65a10">
   <rect height="212.67" width="341.7" x="7.2" y="7.2"/>
  </clipPath>
 </defs>
</svg>
