<?xml version="1.0" encoding="utf-8"?>
<svg xmlns="http://www.w3.org/2000/svg" xmlns:xlink="http://www.w3.org/1999/xlink" width="600" height="400" viewBox="0 0 2400 1600">
<defs>
  <clipPath id="clip200">
    <rect x="0" y="0" width="2400" height="1600"/>
  </clipPath>
</defs>
<path clip-path="url(#clip200)" d="
M0 1600 L2400 1600 L2400 0 L0 0  Z
  " fill="#ffffff" fill-rule="evenodd" fill-opacity="1"/>
<defs>
  <clipPath id="clip201">
    <rect x="480" y="0" width="1681" height="1600"/>
  </clipPath>
</defs>
<path clip-path="url(#clip200)" d="
M311.862 1388.53 L2352.76 1388.53 L2352.76 47.2441 L311.862 47.2441  Z
  " fill="#ffffff" fill-rule="evenodd" fill-opacity="1"/>
<defs>
  <clipPath id="clip202">
    <rect x="311" y="47" width="2042" height="1342"/>
  </clipPath>
</defs>
<polyline clip-path="url(#clip202)" style="stroke:#000000; stroke-width:2; stroke-opacity:0.1; fill:none" points="
  311.862,1388.53 311.862,47.2441 
  "/>
<polyline clip-path="url(#clip202)" style="stroke:#000000; stroke-width:2; stroke-opacity:0.1; fill:none" points="
  720.041,1388.53 720.041,47.2441 
  "/>
<polyline clip-path="url(#clip202)" style="stroke:#000000; stroke-width:2; stroke-opacity:0.1; fill:none" points="
  1128.22,1388.53 1128.22,47.2441 
  "/>
<polyline clip-path="url(#clip202)" style="stroke:#000000; stroke-width:2; stroke-opacity:0.1; fill:none" points="
  1536.4,1388.53 1536.4,47.2441 
  "/>
<polyline clip-path="url(#clip202)" style="stroke:#000000; stroke-width:2; stroke-opacity:0.1; fill:none" points="
  1944.58,1388.53 1944.58,47.2441 
  "/>
<polyline clip-path="url(#clip202)" style="stroke:#000000; stroke-width:2; stroke-opacity:0.1; fill:none" points="
  2352.76,1388.53 2352.76,47.2441 
  "/>
<polyline clip-path="url(#clip200)" style="stroke:#000000; stroke-width:4; stroke-opacity:1; fill:none" points="
  311.862,1388.53 2352.76,1388.53 
  "/>
<polyline clip-path="url(#clip200)" style="stroke:#000000; stroke-width:4; stroke-opacity:1; fill:none" points="
  311.862,1388.53 311.862,1372.43 
  "/>
<polyline clip-path="url(#clip200)" style="stroke:#000000; stroke-width:4; stroke-opacity:1; fill:none" points="
  720.041,1388.53 720.041,1372.43 
  "/>
<polyline clip-path="url(#clip200)" style="stroke:#000000; stroke-width:4; stroke-opacity:1; fill:none" points="
  1128.22,1388.53 1128.22,1372.43 
  "/>
<polyline clip-path="url(#clip200)" style="stroke:#000000; stroke-width:4; stroke-opacity:1; fill:none" points="
  1536.4,1388.53 1536.4,1372.43 
  "/>
<polyline clip-path="url(#clip200)" style="stroke:#000000; stroke-width:4; stroke-opacity:1; fill:none" points="
  1944.58,1388.53 1944.58,1372.43 
  "/>
<polyline clip-path="url(#clip200)" style="stroke:#000000; stroke-width:4; stroke-opacity:1; fill:none" points="
  2352.76,1388.53 2352.76,1372.43 
  "/>
<path clip-path="url(#clip200)" d="M 0 0 M311.862 1417.72 Q308.251 1417.72 306.423 1421.28 Q304.617 1424.82 304.617 1431.95 Q304.617 1439.06 306.423 1442.62 Q308.251 1446.17 311.862 1446.17 Q315.497 1446.17 317.302 1442.62 Q319.131 1439.06 319.131 1431.95 Q319.131 1424.82 317.302 1421.28 Q315.497 1417.72 311.862 1417.72 M311.862 1414.01 Q317.673 1414.01 320.728 1418.62 Q323.807 1423.2 323.807 1431.95 Q323.807 1440.68 320.728 1445.29 Q317.673 1449.87 311.862 1449.87 Q306.052 1449.87 302.974 1445.29 Q299.918 1440.68 299.918 1431.95 Q299.918 1423.2 302.974 1418.62 Q306.052 1414.01 311.862 1414.01 Z" fill="#000000" fill-rule="evenodd" fill-opacity="1" /><path clip-path="url(#clip200)" d="M 0 0 M710.423 1445.26 L718.062 1445.26 L718.062 1418.9 L709.752 1420.56 L709.752 1416.3 L718.016 1414.64 L722.692 1414.64 L722.692 1445.26 L730.33 1445.26 L730.33 1449.2 L710.423 1449.2 L710.423 1445.26 Z" fill="#000000" fill-rule="evenodd" fill-opacity="1" /><path clip-path="url(#clip200)" d="M 0 0 M1122.87 1445.26 L1139.19 1445.26 L1139.19 1449.2 L1117.25 1449.2 L1117.25 1445.26 Q1119.91 1442.51 1124.49 1437.88 Q1129.1 1433.23 1130.28 1431.88 Q1132.53 1429.36 1133.4 1427.62 Q1134.31 1425.86 1134.31 1424.18 Q1134.31 1421.42 1132.36 1419.68 Q1130.44 1417.95 1127.34 1417.95 Q1125.14 1417.95 1122.69 1418.71 Q1120.26 1419.48 1117.48 1421.03 L1117.48 1416.3 Q1120.3 1415.17 1122.76 1414.59 Q1125.21 1414.01 1127.25 1414.01 Q1132.62 1414.01 1135.81 1416.7 Q1139.01 1419.38 1139.01 1423.87 Q1139.01 1426 1138.2 1427.93 Q1137.41 1429.82 1135.3 1432.42 Q1134.72 1433.09 1131.62 1436.3 Q1128.52 1439.5 1122.87 1445.26 Z" fill="#000000" fill-rule="evenodd" fill-opacity="1" /><path clip-path="url(#clip200)" d="M 0 0 M1540.65 1430.56 Q1544 1431.28 1545.88 1433.55 Q1547.78 1435.82 1547.78 1439.15 Q1547.78 1444.27 1544.26 1447.07 Q1540.74 1449.87 1534.26 1449.87 Q1532.08 1449.87 1529.77 1449.43 Q1527.47 1449.01 1525.02 1448.16 L1525.02 1443.64 Q1526.97 1444.78 1529.28 1445.36 Q1531.6 1445.93 1534.12 1445.93 Q1538.52 1445.93 1540.81 1444.2 Q1543.12 1442.46 1543.12 1439.15 Q1543.12 1436.1 1540.97 1434.38 Q1538.84 1432.65 1535.02 1432.65 L1530.99 1432.65 L1530.99 1428.8 L1535.21 1428.8 Q1538.66 1428.8 1540.48 1427.44 Q1542.31 1426.05 1542.31 1423.46 Q1542.31 1420.8 1540.41 1419.38 Q1538.54 1417.95 1535.02 1417.95 Q1533.1 1417.95 1530.9 1418.36 Q1528.7 1418.78 1526.06 1419.66 L1526.06 1415.49 Q1528.72 1414.75 1531.04 1414.38 Q1533.38 1414.01 1535.44 1414.01 Q1540.76 1414.01 1543.86 1416.44 Q1546.97 1418.85 1546.97 1422.97 Q1546.97 1425.84 1545.32 1427.83 Q1543.68 1429.8 1540.65 1430.56 Z" fill="#000000" fill-rule="evenodd" fill-opacity="1" /><path clip-path="url(#clip200)" d="M 0 0 M1947.59 1418.71 L1935.78 1437.16 L1947.59 1437.16 L1947.59 1418.71 M1946.36 1414.64 L1952.24 1414.64 L1952.24 1437.16 L1957.17 1437.16 L1957.17 1441.05 L1952.24 1441.05 L1952.24 1449.2 L1947.59 1449.2 L1947.59 1441.05 L1931.98 1441.05 L1931.98 1436.54 L1946.36 1414.64 Z" fill="#000000" fill-rule="evenodd" fill-opacity="1" /><path clip-path="url(#clip200)" d="M 0 0 M2343.03 1414.64 L2361.39 1414.64 L2361.39 1418.57 L2347.32 1418.57 L2347.32 1427.05 Q2348.33 1426.7 2349.35 1426.54 Q2350.37 1426.35 2351.39 1426.35 Q2357.18 1426.35 2360.56 1429.52 Q2363.94 1432.69 2363.94 1438.11 Q2363.94 1443.69 2360.46 1446.79 Q2356.99 1449.87 2350.67 1449.87 Q2348.5 1449.87 2346.23 1449.5 Q2343.98 1449.13 2341.58 1448.39 L2341.58 1443.69 Q2343.66 1444.82 2345.88 1445.38 Q2348.1 1445.93 2350.58 1445.93 Q2354.58 1445.93 2356.92 1443.83 Q2359.26 1441.72 2359.26 1438.11 Q2359.26 1434.5 2356.92 1432.39 Q2354.58 1430.29 2350.58 1430.29 Q2348.71 1430.29 2346.83 1430.7 Q2344.98 1431.12 2343.03 1432 L2343.03 1414.64 Z" fill="#000000" fill-rule="evenodd" fill-opacity="1" /><path clip-path="url(#clip200)" d="M 0 0 M1342.76 1477.23 Q1342.76 1478.14 1342.34 1478.36 Q1341.93 1478.55 1340.77 1478.55 L1334.58 1478.55 L1329.69 1498.01 Q1329.3 1499.71 1329.3 1501.16 Q1329.3 1502.77 1329.78 1503.48 Q1330.3 1504.19 1331.36 1504.19 Q1333.46 1504.19 1335.71 1502.29 Q1338 1500.39 1339.93 1495.75 Q1340.19 1495.14 1340.31 1495.01 Q1340.48 1494.85 1340.89 1494.85 Q1341.7 1494.85 1341.7 1495.49 Q1341.7 1495.72 1341.25 1496.75 Q1340.83 1497.78 1339.9 1499.29 Q1338.99 1500.81 1337.8 1502.23 Q1336.64 1503.64 1334.87 1504.67 Q1333.1 1505.67 1331.2 1505.67 Q1328.53 1505.67 1326.82 1503.96 Q1325.15 1502.26 1325.15 1499.58 Q1325.15 1498.71 1325.82 1495.95 Q1326.5 1493.14 1330.17 1478.55 L1324.34 1478.55 Q1323.54 1478.55 1323.21 1478.52 Q1322.92 1478.49 1322.7 1478.33 Q1322.51 1478.14 1322.51 1477.75 Q1322.51 1477.14 1322.76 1476.88 Q1323.02 1476.59 1323.34 1476.56 Q1323.7 1476.49 1324.5 1476.49 L1330.69 1476.49 L1333.26 1466.03 Q1333.52 1465 1334.16 1464.42 Q1334.84 1463.8 1335.23 1463.74 Q1335.61 1463.64 1335.9 1463.64 Q1336.77 1463.64 1337.29 1464.13 Q1337.8 1464.58 1337.8 1465.41 Q1337.8 1465.86 1335.1 1476.49 L1340.89 1476.49 Q1341.64 1476.49 1341.93 1476.53 Q1342.25 1476.56 1342.5 1476.72 Q1342.76 1476.88 1342.76 1477.23 Z" fill="#000000" fill-rule="evenodd" fill-opacity="1" /><path clip-path="url(#clip200)" d="
M1297.51 1523.27 L1374.15 1523.27 L1374.15 1519.75 L1297.51 1519.75  Z
  " fill="#000000" fill-rule="evenodd" fill-opacity="1"/>
<path clip-path="url(#clip200)" d="M 0 0 M1329.45 1538.66 Q1329.45 1540.91 1326.2 1540.91 L1315.12 1540.91 L1310.71 1563.49 Q1310.61 1564.07 1310.48 1564.39 Q1310.39 1564.71 1310.1 1565.26 Q1309.84 1565.77 1309.29 1566.03 Q1308.78 1566.32 1308 1566.32 Q1307.04 1566.32 1306.55 1565.74 Q1306.1 1565.19 1306.1 1564.52 Q1306.1 1564.1 1306.75 1562.1 L1313.22 1540.91 L1307.75 1540.91 Q1302.59 1540.91 1299.37 1546 Q1298.86 1546.68 1298.57 1546.74 Q1298.44 1546.77 1298.31 1546.77 Q1297.96 1546.77 1297.73 1546.61 Q1297.54 1546.45 1297.54 1546.29 L1297.51 1546.13 Q1297.51 1545.9 1298.02 1545 Q1298.57 1544.07 1299.53 1542.68 Q1300.53 1541.3 1301.53 1540.2 Q1302.85 1538.79 1304.33 1538.05 Q1305.81 1537.27 1306.55 1537.18 Q1307.33 1537.08 1308.33 1537.08 L1326.81 1537.08 Q1327.65 1537.08 1328.1 1537.14 Q1328.55 1537.18 1329 1537.56 Q1329.45 1537.92 1329.45 1538.66 Z" fill="#000000" fill-rule="evenodd" fill-opacity="1" /><path clip-path="url(#clip200)" d="M 0 0 M1360.31 1565.41 Q1360.31 1568.7 1358.64 1571.88 Q1356.99 1575.06 1354.4 1577.02 Q1351.81 1578.96 1349.17 1578.96 Q1347.59 1578.96 1346.53 1578.1 Q1345.5 1577.22 1344.93 1575.98 Q1344.5 1577.52 1343.58 1581.19 Q1342.66 1584.87 1342.66 1585.23 Q1342.66 1585.43 1342.7 1585.52 Q1342.75 1585.61 1342.95 1585.72 Q1343.15 1585.86 1343.65 1585.9 Q1344.14 1585.97 1344.98 1585.97 Q1345.41 1585.97 1345.56 1585.97 Q1345.74 1585.99 1345.9 1586.11 Q1346.08 1586.22 1346.08 1586.47 Q1346.08 1587.39 1345.25 1587.39 Q1344.5 1587.39 1342.97 1587.32 Q1341.44 1587.26 1340.67 1587.26 Q1340.02 1587.26 1338.71 1587.32 Q1337.4 1587.39 1336.79 1587.39 Q1336.19 1587.39 1336.19 1586.85 Q1336.19 1586.53 1336.28 1586.33 Q1336.34 1586.15 1336.52 1586.06 Q1336.7 1585.99 1336.86 1585.97 Q1337 1585.97 1337.27 1585.97 Q1338.3 1585.97 1338.76 1585.79 Q1339.21 1585.63 1339.36 1585.29 Q1339.54 1584.98 1339.75 1584.08 L1344.93 1563.52 Q1345.25 1562.14 1345.25 1561.17 Q1345.25 1559.96 1344.87 1559.5 Q1344.48 1559.05 1343.81 1559.05 Q1342.63 1559.05 1341.87 1560.45 Q1341.1 1561.85 1340.45 1564.55 Q1340.24 1565.3 1340.11 1565.46 Q1340 1565.61 1339.66 1565.61 Q1339.09 1565.59 1339.09 1565.14 Q1339.09 1565.03 1339.27 1564.31 Q1339.45 1563.56 1339.79 1562.48 Q1340.15 1561.38 1340.54 1560.68 Q1340.76 1560.2 1340.97 1559.89 Q1341.17 1559.57 1341.57 1559.08 Q1342 1558.58 1342.61 1558.31 Q1343.22 1558.04 1343.96 1558.04 Q1345.41 1558.04 1346.6 1558.9 Q1347.8 1559.75 1348.11 1561.49 Q1349.4 1559.98 1350.97 1559.01 Q1352.55 1558.04 1354.15 1558.04 Q1356.81 1558.04 1358.55 1560.11 Q1360.31 1562.16 1360.31 1565.41 M1356.97 1563.38 Q1356.97 1561.33 1356.18 1560.2 Q1355.42 1559.05 1354.02 1559.05 Q1352.28 1559.05 1350.28 1560.81 Q1348.29 1562.48 1347.89 1564.04 L1345.61 1573.08 L1345.47 1573.82 Q1345.47 1573.96 1345.54 1574.36 Q1345.63 1574.74 1345.88 1575.38 Q1346.15 1576.01 1346.51 1576.57 Q1346.89 1577.11 1347.57 1577.52 Q1348.27 1577.92 1349.13 1577.92 Q1350.5 1577.92 1351.99 1576.71 Q1353.5 1575.49 1354.63 1573.19 Q1355.33 1571.7 1356.14 1568.5 Q1356.97 1565.28 1356.97 1563.38 Z" fill="#000000" fill-rule="evenodd" fill-opacity="1" /><polyline clip-path="url(#clip202)" style="stroke:#000000; stroke-width:2; stroke-opacity:0.1; fill:none" points="
  311.862,1366.11 2352.76,1366.11 
  "/>
<polyline clip-path="url(#clip202)" style="stroke:#000000; stroke-width:2; stroke-opacity:0.1; fill:none" points="
  311.862,1045.88 2352.76,1045.88 
  "/>
<polyline clip-path="url(#clip202)" style="stroke:#000000; stroke-width:2; stroke-opacity:0.1; fill:none" points="
  311.862,725.656 2352.76,725.656 
  "/>
<polyline clip-path="url(#clip202)" style="stroke:#000000; stroke-width:2; stroke-opacity:0.1; fill:none" points="
  311.862,405.43 2352.76,405.43 
  "/>
<polyline clip-path="url(#clip202)" style="stroke:#000000; stroke-width:2; stroke-opacity:0.1; fill:none" points="
  311.862,85.2049 2352.76,85.2049 
  "/>
<polyline clip-path="url(#clip200)" style="stroke:#000000; stroke-width:4; stroke-opacity:1; fill:none" points="
  311.862,1388.53 311.862,47.2441 
  "/>
<polyline clip-path="url(#clip200)" style="stroke:#000000; stroke-width:4; stroke-opacity:1; fill:none" points="
  311.862,1366.11 336.353,1366.11 
  "/>
<polyline clip-path="url(#clip200)" style="stroke:#000000; stroke-width:4; stroke-opacity:1; fill:none" points="
  311.862,1045.88 336.353,1045.88 
  "/>
<polyline clip-path="url(#clip200)" style="stroke:#000000; stroke-width:4; stroke-opacity:1; fill:none" points="
  311.862,725.656 336.353,725.656 
  "/>
<polyline clip-path="url(#clip200)" style="stroke:#000000; stroke-width:4; stroke-opacity:1; fill:none" points="
  311.862,405.43 336.353,405.43 
  "/>
<polyline clip-path="url(#clip200)" style="stroke:#000000; stroke-width:4; stroke-opacity:1; fill:none" points="
  311.862,85.2049 336.353,85.2049 
  "/>
<path clip-path="url(#clip200)" d="M 0 0 M188.525 1351.91 Q184.914 1351.91 183.085 1355.47 Q181.28 1359.01 181.28 1366.14 Q181.28 1373.25 183.085 1376.81 Q184.914 1380.35 188.525 1380.35 Q192.159 1380.35 193.965 1376.81 Q195.793 1373.25 195.793 1366.14 Q195.793 1359.01 193.965 1355.47 Q192.159 1351.91 188.525 1351.91 M188.525 1348.2 Q194.335 1348.2 197.391 1352.81 Q200.469 1357.39 200.469 1366.14 Q200.469 1374.87 197.391 1379.47 Q194.335 1384.06 188.525 1384.06 Q182.715 1384.06 179.636 1379.47 Q176.581 1374.87 176.581 1366.14 Q176.581 1357.39 179.636 1352.81 Q182.715 1348.2 188.525 1348.2 Z" fill="#000000" fill-rule="evenodd" fill-opacity="1" /><path clip-path="url(#clip200)" d="M 0 0 M208.687 1377.51 L213.571 1377.51 L213.571 1383.39 L208.687 1383.39 L208.687 1377.51 Z" fill="#000000" fill-rule="evenodd" fill-opacity="1" /><path clip-path="url(#clip200)" d="M 0 0 M233.756 1351.91 Q230.145 1351.91 228.316 1355.47 Q226.511 1359.01 226.511 1366.14 Q226.511 1373.25 228.316 1376.81 Q230.145 1380.35 233.756 1380.35 Q237.39 1380.35 239.196 1376.81 Q241.025 1373.25 241.025 1366.14 Q241.025 1359.01 239.196 1355.47 Q237.39 1351.91 233.756 1351.91 M233.756 1348.2 Q239.566 1348.2 242.622 1352.81 Q245.701 1357.39 245.701 1366.14 Q245.701 1374.87 242.622 1379.47 Q239.566 1384.06 233.756 1384.06 Q227.946 1384.06 224.867 1379.47 Q221.812 1374.87 221.812 1366.14 Q221.812 1357.39 224.867 1352.81 Q227.946 1348.2 233.756 1348.2 Z" fill="#000000" fill-rule="evenodd" fill-opacity="1" /><path clip-path="url(#clip200)" d="M 0 0 M263.918 1351.91 Q260.307 1351.91 258.478 1355.47 Q256.673 1359.01 256.673 1366.14 Q256.673 1373.25 258.478 1376.81 Q260.307 1380.35 263.918 1380.35 Q267.552 1380.35 269.358 1376.81 Q271.187 1373.25 271.187 1366.14 Q271.187 1359.01 269.358 1355.47 Q267.552 1351.91 263.918 1351.91 M263.918 1348.2 Q269.728 1348.2 272.784 1352.81 Q275.862 1357.39 275.862 1366.14 Q275.862 1374.87 272.784 1379.47 Q269.728 1384.06 263.918 1384.06 Q258.108 1384.06 255.029 1379.47 Q251.974 1374.87 251.974 1366.14 Q251.974 1357.39 255.029 1352.81 Q258.108 1348.2 263.918 1348.2 Z" fill="#000000" fill-rule="evenodd" fill-opacity="1" /><path clip-path="url(#clip200)" d="M 0 0 M189.52 1031.68 Q185.909 1031.68 184.081 1035.24 Q182.275 1038.79 182.275 1045.92 Q182.275 1053.02 184.081 1056.59 Q185.909 1060.13 189.52 1060.13 Q193.155 1060.13 194.96 1056.59 Q196.789 1053.02 196.789 1045.92 Q196.789 1038.79 194.96 1035.24 Q193.155 1031.68 189.52 1031.68 M189.52 1027.98 Q195.33 1027.98 198.386 1032.58 Q201.465 1037.17 201.465 1045.92 Q201.465 1054.64 198.386 1059.25 Q195.33 1063.83 189.52 1063.83 Q183.71 1063.83 180.631 1059.25 Q177.576 1054.64 177.576 1045.92 Q177.576 1037.17 180.631 1032.58 Q183.71 1027.98 189.52 1027.98 Z" fill="#000000" fill-rule="evenodd" fill-opacity="1" /><path clip-path="url(#clip200)" d="M 0 0 M209.682 1057.28 L214.566 1057.28 L214.566 1063.16 L209.682 1063.16 L209.682 1057.28 Z" fill="#000000" fill-rule="evenodd" fill-opacity="1" /><path clip-path="url(#clip200)" d="M 0 0 M228.779 1059.23 L245.099 1059.23 L245.099 1063.16 L223.154 1063.16 L223.154 1059.23 Q225.816 1056.47 230.4 1051.84 Q235.006 1047.19 236.187 1045.85 Q238.432 1043.32 239.312 1041.59 Q240.214 1039.83 240.214 1038.14 Q240.214 1035.38 238.27 1033.65 Q236.349 1031.91 233.247 1031.91 Q231.048 1031.91 228.594 1032.68 Q226.164 1033.44 223.386 1034.99 L223.386 1030.27 Q226.21 1029.13 228.664 1028.55 Q231.117 1027.98 233.154 1027.98 Q238.525 1027.98 241.719 1030.66 Q244.914 1033.35 244.914 1037.84 Q244.914 1039.97 244.103 1041.89 Q243.316 1043.79 241.21 1046.38 Q240.631 1047.05 237.529 1050.27 Q234.427 1053.46 228.779 1059.23 Z" fill="#000000" fill-rule="evenodd" fill-opacity="1" /><path clip-path="url(#clip200)" d="M 0 0 M254.96 1028.6 L273.316 1028.6 L273.316 1032.54 L259.242 1032.54 L259.242 1041.01 Q260.261 1040.66 261.279 1040.5 Q262.298 1040.31 263.316 1040.31 Q269.103 1040.31 272.483 1043.49 Q275.862 1046.66 275.862 1052.07 Q275.862 1057.65 272.39 1060.75 Q268.918 1063.83 262.599 1063.83 Q260.423 1063.83 258.154 1063.46 Q255.909 1063.09 253.501 1062.35 L253.501 1057.65 Q255.585 1058.79 257.807 1059.34 Q260.029 1059.9 262.506 1059.9 Q266.511 1059.9 268.849 1057.79 Q271.187 1055.68 271.187 1052.07 Q271.187 1048.46 268.849 1046.36 Q266.511 1044.25 262.506 1044.25 Q260.631 1044.25 258.756 1044.67 Q256.904 1045.08 254.96 1045.96 L254.96 1028.6 Z" fill="#000000" fill-rule="evenodd" fill-opacity="1" /><path clip-path="url(#clip200)" d="M 0 0 M188.525 711.454 Q184.914 711.454 183.085 715.019 Q181.28 718.561 181.28 725.69 Q181.28 732.797 183.085 736.362 Q184.914 739.903 188.525 739.903 Q192.159 739.903 193.965 736.362 Q195.793 732.797 195.793 725.69 Q195.793 718.561 193.965 715.019 Q192.159 711.454 188.525 711.454 M188.525 707.751 Q194.335 707.751 197.391 712.357 Q200.469 716.94 200.469 725.69 Q200.469 734.417 197.391 739.024 Q194.335 743.607 188.525 743.607 Q182.715 743.607 179.636 739.024 Q176.581 734.417 176.581 725.69 Q176.581 716.94 179.636 712.357 Q182.715 707.751 188.525 707.751 Z" fill="#000000" fill-rule="evenodd" fill-opacity="1" /><path clip-path="url(#clip200)" d="M 0 0 M208.687 737.056 L213.571 737.056 L213.571 742.936 L208.687 742.936 L208.687 737.056 Z" fill="#000000" fill-rule="evenodd" fill-opacity="1" /><path clip-path="url(#clip200)" d="M 0 0 M223.803 708.376 L242.159 708.376 L242.159 712.311 L228.085 712.311 L228.085 720.783 Q229.103 720.436 230.122 720.274 Q231.14 720.089 232.159 720.089 Q237.946 720.089 241.326 723.26 Q244.705 726.431 244.705 731.848 Q244.705 737.426 241.233 740.528 Q237.761 743.607 231.441 743.607 Q229.265 743.607 226.997 743.237 Q224.752 742.866 222.344 742.126 L222.344 737.426 Q224.428 738.561 226.65 739.116 Q228.872 739.672 231.349 739.672 Q235.353 739.672 237.691 737.565 Q240.029 735.459 240.029 731.848 Q240.029 728.237 237.691 726.13 Q235.353 724.024 231.349 724.024 Q229.474 724.024 227.599 724.44 Q225.747 724.857 223.803 725.737 L223.803 708.376 Z" fill="#000000" fill-rule="evenodd" fill-opacity="1" /><path clip-path="url(#clip200)" d="M 0 0 M263.918 711.454 Q260.307 711.454 258.478 715.019 Q256.673 718.561 256.673 725.69 Q256.673 732.797 258.478 736.362 Q260.307 739.903 263.918 739.903 Q267.552 739.903 269.358 736.362 Q271.187 732.797 271.187 725.69 Q271.187 718.561 269.358 715.019 Q267.552 711.454 263.918 711.454 M263.918 707.751 Q269.728 707.751 272.784 712.357 Q275.862 716.94 275.862 725.69 Q275.862 734.417 272.784 739.024 Q269.728 743.607 263.918 743.607 Q258.108 743.607 255.029 739.024 Q251.974 734.417 251.974 725.69 Q251.974 716.94 255.029 712.357 Q258.108 707.751 263.918 707.751 Z" fill="#000000" fill-rule="evenodd" fill-opacity="1" /><path clip-path="url(#clip200)" d="M 0 0 M189.52 391.229 Q185.909 391.229 184.081 394.794 Q182.275 398.335 182.275 405.465 Q182.275 412.571 184.081 416.136 Q185.909 419.678 189.52 419.678 Q193.155 419.678 194.96 416.136 Q196.789 412.571 196.789 405.465 Q196.789 398.335 194.96 394.794 Q193.155 391.229 189.52 391.229 M189.52 387.525 Q195.33 387.525 198.386 392.132 Q201.465 396.715 201.465 405.465 Q201.465 414.192 198.386 418.798 Q195.33 423.382 189.52 423.382 Q183.71 423.382 180.631 418.798 Q177.576 414.192 177.576 405.465 Q177.576 396.715 180.631 392.132 Q183.71 387.525 189.52 387.525 Z" fill="#000000" fill-rule="evenodd" fill-opacity="1" /><path clip-path="url(#clip200)" d="M 0 0 M209.682 416.831 L214.566 416.831 L214.566 422.71 L209.682 422.71 L209.682 416.831 Z" fill="#000000" fill-rule="evenodd" fill-opacity="1" /><path clip-path="url(#clip200)" d="M 0 0 M223.571 388.15 L245.793 388.15 L245.793 390.141 L233.247 422.71 L228.363 422.71 L240.168 392.085 L223.571 392.085 L223.571 388.15 Z" fill="#000000" fill-rule="evenodd" fill-opacity="1" /><path clip-path="url(#clip200)" d="M 0 0 M254.96 388.15 L273.316 388.15 L273.316 392.085 L259.242 392.085 L259.242 400.558 Q260.261 400.21 261.279 400.048 Q262.298 399.863 263.316 399.863 Q269.103 399.863 272.483 403.034 Q275.862 406.206 275.862 411.622 Q275.862 417.201 272.39 420.303 Q268.918 423.382 262.599 423.382 Q260.423 423.382 258.154 423.011 Q255.909 422.641 253.501 421.9 L253.501 417.201 Q255.585 418.335 257.807 418.891 Q260.029 419.446 262.506 419.446 Q266.511 419.446 268.849 417.34 Q271.187 415.234 271.187 411.622 Q271.187 408.011 268.849 405.905 Q266.511 403.798 262.506 403.798 Q260.631 403.798 258.756 404.215 Q256.904 404.632 254.96 405.511 L254.96 388.15 Z" fill="#000000" fill-rule="evenodd" fill-opacity="1" /><path clip-path="url(#clip200)" d="M 0 0 M179.335 98.5497 L186.974 98.5497 L186.974 72.1841 L178.664 73.8508 L178.664 69.5916 L186.928 67.9249 L191.604 67.9249 L191.604 98.5497 L199.242 98.5497 L199.242 102.485 L179.335 102.485 L179.335 98.5497 Z" fill="#000000" fill-rule="evenodd" fill-opacity="1" /><path clip-path="url(#clip200)" d="M 0 0 M208.687 96.6053 L213.571 96.6053 L213.571 102.485 L208.687 102.485 L208.687 96.6053 Z" fill="#000000" fill-rule="evenodd" fill-opacity="1" /><path clip-path="url(#clip200)" d="M 0 0 M233.756 71.0036 Q230.145 71.0036 228.316 74.5684 Q226.511 78.11 226.511 85.2396 Q226.511 92.3461 228.316 95.9109 Q230.145 99.4525 233.756 99.4525 Q237.39 99.4525 239.196 95.9109 Q241.025 92.3461 241.025 85.2396 Q241.025 78.11 239.196 74.5684 Q237.39 71.0036 233.756 71.0036 M233.756 67.2999 Q239.566 67.2999 242.622 71.9064 Q245.701 76.4897 245.701 85.2396 Q245.701 93.9664 242.622 98.5729 Q239.566 103.156 233.756 103.156 Q227.946 103.156 224.867 98.5729 Q221.812 93.9664 221.812 85.2396 Q221.812 76.4897 224.867 71.9064 Q227.946 67.2999 233.756 67.2999 Z" fill="#000000" fill-rule="evenodd" fill-opacity="1" /><path clip-path="url(#clip200)" d="M 0 0 M263.918 71.0036 Q260.307 71.0036 258.478 74.5684 Q256.673 78.11 256.673 85.2396 Q256.673 92.3461 258.478 95.9109 Q260.307 99.4525 263.918 99.4525 Q267.552 99.4525 269.358 95.9109 Q271.187 92.3461 271.187 85.2396 Q271.187 78.11 269.358 74.5684 Q267.552 71.0036 263.918 71.0036 M263.918 67.2999 Q269.728 67.2999 272.784 71.9064 Q275.862 76.4897 275.862 85.2396 Q275.862 93.9664 272.784 98.5729 Q269.728 103.156 263.918 103.156 Q258.108 103.156 255.029 98.5729 Q251.974 93.9664 251.974 85.2396 Q251.974 76.4897 255.029 71.9064 Q258.108 67.2999 263.918 67.2999 Z" fill="#000000" fill-rule="evenodd" fill-opacity="1" /><path clip-path="url(#clip200)" d="M 0 0 M14.6618 735.729 Q15.1126 735.729 16.1754 736.019 L41.3604 742.331 Q46.9642 743.716 50.8934 748.225 Q54.8225 752.702 54.8225 757.79 Q54.8225 760.85 53.18 762.814 Q51.5697 764.779 49.0898 764.779 Q46.8998 764.779 45.837 763.62 Q44.8065 762.46 44.8065 761.075 Q44.8065 760.624 44.9353 760.141 Q45.0641 759.658 45.6116 759.143 Q46.1591 758.628 47.0931 758.628 Q48.6067 758.628 49.7984 759.948 Q50.3459 760.592 50.4747 761.204 Q50.6035 761.784 50.6035 762.782 Q51.5053 762.396 52.1172 761.687 Q52.7291 760.979 52.9545 760.173 Q53.2122 759.368 53.2766 758.853 Q53.3732 758.306 53.3732 757.79 Q53.3732 753.668 49.2187 750.512 Q47.9626 749.578 46.7066 748.901 Q45.4828 748.193 43.9691 747.678 Q42.4876 747.162 41.6825 746.937 Q40.8773 746.679 39.0416 746.228 Q42.0367 749.223 42.0367 752.895 Q42.0367 754.441 41.6181 755.826 Q41.1994 757.178 40.3298 758.37 Q39.4281 759.562 37.85 760.27 Q36.2719 760.946 34.1785 760.946 Q31.9563 760.946 28.929 760.077 Q25.9016 759.207 20.33 757.114 Q17.206 755.987 15.6924 755.987 Q14.9516 755.987 14.5007 756.148 Q14.0176 756.309 13.8566 756.631 Q13.6634 756.953 13.6312 757.146 Q13.599 757.307 13.599 757.629 Q13.599 759.529 15.5313 761.301 Q17.4637 763.072 21.7793 764.296 Q22.5844 764.553 22.7776 764.715 Q22.9709 764.876 22.9709 765.359 Q22.9387 766.164 22.2946 766.164 Q22.0369 766.164 21.0385 765.874 Q20.0079 765.584 18.4943 764.908 Q16.9484 764.199 15.5635 763.233 Q14.1465 762.267 13.1481 760.753 Q12.1497 759.207 12.1497 757.436 Q12.1497 755.021 13.7278 753.539 Q15.2737 752.025 17.5603 752.025 Q18.4943 752.025 19.3316 752.283 Q20.1368 752.508 22.2946 753.346 Q30.9901 756.727 35.2413 756.727 Q36.2719 756.727 37.1415 756.566 Q37.9788 756.373 38.8162 755.955 Q39.6213 755.536 40.1044 754.698 Q40.5553 753.829 40.5553 752.637 Q40.5553 751.124 39.8467 749.707 Q39.106 748.257 38.1076 747.356 Q37.1092 746.422 36.2719 745.874 Q35.4023 745.294 34.9515 745.166 L23.0997 742.203 L17.8179 740.882 Q14.9516 740.27 14.2431 739.98 Q13.5668 739.594 13.2125 738.918 Q12.8582 738.241 12.8582 737.662 Q12.8582 736.856 13.3413 736.309 Q13.8244 735.729 14.6618 735.729 Z" fill="#000000" fill-rule="evenodd" fill-opacity="1" /><path clip-path="url(#clip200)" d="M 0 0 M24.8066 734.17 Q13.6634 734.17 4.67795 730.015 Q0.909862 728.244 -2.24631 725.764 Q-5.40249 723.284 -6.78734 721.641 Q-8.17219 719.999 -8.17219 719.548 Q-8.17219 718.904 -7.52807 718.872 Q-7.20602 718.872 -6.40087 719.741 Q4.4203 730.369 24.8066 730.337 Q45.2573 730.337 55.6598 719.999 Q56.787 718.872 57.1413 718.872 Q57.7854 718.872 57.7854 719.548 Q57.7854 719.999 56.465 721.577 Q55.1445 723.155 52.1172 725.603 Q49.0898 728.05 45.3862 729.822 Q36.4007 734.17 24.8066 734.17 Z" fill="#000000" fill-rule="evenodd" fill-opacity="1" /><path clip-path="url(#clip200)" d="M 0 0 M13.599 688.585 Q14.5007 688.585 14.7262 689.003 Q14.9194 689.422 14.9194 690.581 L14.9194 696.765 L34.3718 701.66 Q36.0787 702.047 37.5279 702.047 Q39.1382 702.047 39.8467 701.564 Q40.5553 701.048 40.5553 699.986 Q40.5553 697.892 38.6551 695.638 Q36.755 693.351 32.1173 691.419 Q31.5054 691.161 31.3766 691.032 Q31.2156 690.871 31.2156 690.453 Q31.2156 689.647 31.8597 689.647 Q32.0851 689.647 33.1157 690.098 Q34.1463 690.517 35.66 691.451 Q37.1737 692.353 38.5907 693.544 Q40.0078 694.704 41.0384 696.475 Q42.0367 698.246 42.0367 700.147 Q42.0367 702.82 40.3298 704.527 Q38.6229 706.201 35.9498 706.201 Q35.0803 706.201 32.3106 705.525 Q29.5087 704.849 14.9194 701.177 L14.9194 707.006 Q14.9194 707.812 14.8872 708.134 Q14.855 708.423 14.694 708.649 Q14.5007 708.842 14.1143 708.842 Q13.5024 708.842 13.2447 708.585 Q12.9549 708.327 12.9226 708.005 Q12.8582 707.651 12.8582 706.845 L12.8582 700.662 L2.39133 698.085 Q1.36074 697.828 0.781038 697.184 Q0.169127 696.507 0.104715 696.121 Q0.00809742 695.734 0.00809742 695.445 Q0.00809742 694.575 0.491185 694.06 Q0.942067 693.544 1.77942 693.544 Q2.2303 693.544 12.8582 696.25 L12.8582 690.453 Q12.8582 689.712 12.8904 689.422 Q12.9226 689.1 13.0837 688.842 Q13.2447 688.585 13.599 688.585 Z" fill="#000000" fill-rule="evenodd" fill-opacity="1" /><path clip-path="url(#clip200)" d="M 0 0 M57.1413 685.269 Q56.8192 685.269 56.0141 684.432 Q45.1929 673.804 24.8066 673.804 Q4.35589 673.804 -5.98219 684.013 Q-7.17381 685.269 -7.52807 685.269 Q-8.17219 685.269 -8.17219 684.625 Q-8.17219 684.174 -6.85175 682.596 Q-5.53131 680.986 -2.50396 678.57 Q0.523391 676.123 4.22707 674.319 Q13.2125 669.971 24.8066 669.971 Q35.9498 669.971 44.9353 674.126 Q48.7034 675.897 51.8595 678.377 Q55.0157 680.857 56.4006 682.499 Q57.7854 684.142 57.7854 684.625 Q57.7854 685.269 57.1413 685.269 Z" fill="#000000" fill-rule="evenodd" fill-opacity="1" /><path clip-path="url(#clip200)" d="
M75.2241 789.164 L75.2241 639.566 L71.7041 639.566 L71.7041 789.164  Z
  " fill="#000000" fill-rule="evenodd" fill-opacity="1"/>
<path clip-path="url(#clip200)" d="M 0 0 M134.749 743.915 Q135.361 743.915 135.683 744.172 Q135.973 744.398 136.038 744.623 Q136.07 744.816 136.07 745.106 Q136.07 745.943 135.973 748.842 Q135.877 751.741 135.877 752.578 Q135.877 753.931 135.973 756.7 Q136.07 759.47 136.07 760.823 Q136.07 761.724 135.329 761.724 Q134.846 761.724 134.588 761.628 Q134.298 761.531 134.202 761.273 Q134.073 760.984 134.073 760.823 Q134.041 760.629 134.041 760.146 Q134.041 759.502 133.976 758.826 Q133.88 758.15 133.687 757.312 Q133.493 756.475 133.01 755.96 Q132.527 755.412 131.851 755.412 Q131.561 755.412 129.178 755.637 Q126.794 755.863 124.025 756.153 Q121.223 756.443 120.836 756.475 L120.836 773.029 Q123.445 774.542 125.249 775.605 Q127.052 776.668 127.664 777.054 Q128.276 777.441 128.662 777.666 Q129.049 777.892 129.274 778.021 Q130.981 778.955 131.722 778.955 Q133.783 778.955 134.041 775.863 Q134.041 774.8 134.814 774.8 Q135.393 774.8 135.715 775.058 Q136.005 775.315 136.038 775.541 Q136.07 775.734 136.07 776.056 Q136.07 777.119 135.973 779.341 Q135.877 781.563 135.877 782.658 Q135.877 783.592 135.973 785.525 Q136.07 787.457 136.07 788.326 Q136.07 788.713 135.844 788.938 Q135.619 789.164 135.329 789.164 Q134.878 789.164 134.62 789.099 Q134.363 789.003 134.234 788.745 Q134.105 788.487 134.105 788.359 Q134.073 788.23 134.041 787.779 Q133.88 785.331 132.72 783.431 Q131.529 781.499 128.469 779.663 L89.951 756.732 Q89.5645 756.507 89.3713 756.346 Q89.178 756.185 89.017 755.863 Q88.856 755.509 88.856 754.993 Q88.856 754.188 89.1136 754.027 Q89.3391 753.866 90.4341 753.77 L131.658 749.744 Q132.527 749.647 132.881 749.583 Q133.203 749.486 133.558 749.067 Q133.88 748.617 133.976 747.811 Q134.041 746.974 134.041 745.428 Q134.041 744.849 134.073 744.623 Q134.073 744.398 134.234 744.172 Q134.395 743.915 134.749 743.915 M118.775 756.668 L97.0363 758.761 L118.775 771.773 L118.775 756.668 Z" fill="#000000" fill-rule="evenodd" fill-opacity="1" /><path clip-path="url(#clip200)" d="M 0 0 M91.7545 684.033 Q92.1732 684.033 92.463 684.129 Q92.7207 684.226 92.8495 684.452 Q92.9783 684.677 93.0105 684.806 Q93.0427 684.935 93.0749 685.224 Q93.2038 686.609 93.4292 687.576 Q93.6546 688.509 94.8141 690.828 Q95.9735 693.115 98.0668 695.981 L106.988 707.511 L108.502 709.443 Q108.598 709.443 108.791 709.379 Q108.952 709.314 109.178 709.25 Q109.371 709.153 109.436 709.121 L131.046 699.749 Q132.785 699.009 133.397 698.107 Q134.009 697.205 134.041 695.176 Q134.041 694.854 134.073 694.725 Q134.073 694.564 134.137 694.339 Q134.17 694.081 134.331 693.984 Q134.492 693.856 134.749 693.856 Q136.07 693.856 136.07 695.047 Q136.07 695.788 135.973 698.3 Q135.877 700.812 135.877 701.521 Q135.877 702.841 135.973 705.546 Q136.07 708.252 136.07 709.572 Q136.07 710.506 135.329 710.506 Q134.717 710.506 134.427 710.281 Q134.105 710.023 134.073 709.798 Q134.041 709.572 134.041 709.057 Q134.041 708.67 134.009 708.252 Q133.944 707.801 133.783 707.157 Q133.59 706.48 133.139 706.062 Q132.656 705.611 131.98 705.611 Q131.432 705.611 129.661 706.416 L111.915 714.049 L119.58 723.872 L129.951 726.512 Q130.337 726.577 131.013 726.738 Q131.69 726.899 132.173 727.028 Q132.656 727.124 132.849 727.124 Q133.268 727.124 133.525 726.867 Q133.783 726.577 133.912 725.868 Q134.009 725.16 134.041 724.612 Q134.041 724.033 134.041 722.841 Q134.041 721.359 134.298 721.102 Q134.459 720.973 134.749 720.973 Q135.2 720.973 135.522 721.102 Q135.812 721.231 135.909 721.488 Q136.005 721.714 136.038 721.875 Q136.07 722.036 136.07 722.293 Q136.07 722.97 136.005 724.419 Q135.941 725.836 135.941 726.577 L135.877 730.796 L136.07 739.169 Q136.07 740.168 135.265 740.168 Q134.653 740.168 134.395 739.91 Q134.105 739.652 134.073 739.363 Q134.041 739.073 134.041 738.332 Q134.041 736.722 133.944 735.755 Q133.848 734.789 133.719 734.177 Q133.558 733.533 133.107 733.211 Q132.656 732.857 132.269 732.696 Q131.851 732.535 130.917 732.309 L95.4904 723.485 Q94.4276 723.227 94.2666 723.227 Q93.7191 723.227 93.5258 723.549 Q93.3004 723.839 93.2038 724.677 Q93.0749 726.287 93.0749 727.511 Q93.0749 728.316 93.0427 728.638 Q93.0105 728.928 92.8495 729.185 Q92.6563 729.411 92.2698 729.411 Q91.0138 729.411 91.0138 728.09 L91.207 719.588 L91.0138 711.15 Q91.0138 710.216 91.7545 710.216 Q92.6885 710.216 92.8817 710.667 Q93.0749 711.086 93.0749 712.471 Q93.0749 714.886 93.397 715.981 Q93.6868 717.044 94.2021 717.366 Q94.6852 717.656 96.1023 718.01 L117.262 723.292 L97.4871 697.559 Q95.4904 695.176 94.4598 695.176 Q93.7835 695.176 93.4936 695.659 Q93.1716 696.11 93.0749 697.237 Q92.9461 698.042 92.3342 698.042 Q91.7223 698.042 91.4324 697.817 Q91.1104 697.559 91.0782 697.366 Q91.0138 697.141 91.0138 696.786 Q91.0138 695.595 91.1104 693.115 Q91.207 690.635 91.207 689.443 Q91.207 688.638 91.1104 687.06 Q91.0138 685.482 91.0138 684.774 Q91.0138 684.419 91.2714 684.226 Q91.4968 684.033 91.7545 684.033 Z" fill="#000000" fill-rule="evenodd" fill-opacity="1" /><path clip-path="url(#clip200)" d="M 0 0 M135.167 653.412 Q138.458 653.412 141.637 655.08 Q144.816 656.726 146.777 659.318 Q148.716 661.911 148.716 664.549 Q148.716 666.127 147.859 667.186 Q146.98 668.223 145.74 668.787 Q147.273 669.215 150.948 670.139 Q154.622 671.064 154.983 671.064 Q155.186 671.064 155.276 671.019 Q155.366 670.974 155.479 670.771 Q155.614 670.568 155.659 670.072 Q155.727 669.576 155.727 668.742 Q155.727 668.313 155.727 668.156 Q155.75 667.975 155.862 667.817 Q155.975 667.637 156.223 667.637 Q157.147 667.637 157.147 668.471 Q157.147 669.215 157.08 670.748 Q157.012 672.281 157.012 673.048 Q157.012 673.701 157.08 675.009 Q157.147 676.317 157.147 676.925 Q157.147 677.534 156.606 677.534 Q156.291 677.534 156.088 677.444 Q155.907 677.376 155.817 677.196 Q155.75 677.015 155.727 676.858 Q155.727 676.722 155.727 676.452 Q155.727 675.415 155.547 674.964 Q155.389 674.513 155.051 674.355 Q154.735 674.175 153.833 673.972 L133.273 668.787 Q131.898 668.471 130.928 668.471 Q129.711 668.471 129.26 668.854 Q128.809 669.238 128.809 669.914 Q128.809 671.086 130.207 671.853 Q131.605 672.619 134.31 673.273 Q135.054 673.476 135.212 673.611 Q135.37 673.724 135.37 674.062 Q135.347 674.626 134.896 674.626 Q134.784 674.626 134.062 674.445 Q133.318 674.265 132.236 673.927 Q131.131 673.566 130.433 673.183 Q129.959 672.957 129.643 672.755 Q129.328 672.552 128.832 672.146 Q128.336 671.718 128.065 671.109 Q127.795 670.5 127.795 669.756 Q127.795 668.313 128.652 667.119 Q129.508 665.924 131.244 665.608 Q129.734 664.323 128.764 662.745 Q127.795 661.167 127.795 659.566 Q127.795 656.906 129.869 655.17 Q131.92 653.412 135.167 653.412 M133.138 656.748 Q131.086 656.748 129.959 657.537 Q128.809 658.304 128.809 659.702 Q128.809 661.437 130.568 663.444 Q132.236 665.428 133.792 665.834 L142.832 668.11 L143.576 668.246 Q143.711 668.246 144.117 668.178 Q144.5 668.088 145.131 667.84 Q145.762 667.569 146.326 667.209 Q146.867 666.825 147.273 666.149 Q147.679 665.45 147.679 664.594 Q147.679 663.218 146.461 661.731 Q145.244 660.22 142.944 659.093 Q141.457 658.394 138.255 657.582 Q135.032 656.748 133.138 656.748 Z" fill="#000000" fill-rule="evenodd" fill-opacity="1" /><polyline clip-path="url(#clip202)" style="stroke:#009af9; stroke-width:8; stroke-opacity:1; fill:none" points="
  316.845,1350.57 321.828,1335.21 326.811,1320.05 331.793,1305.06 377.866,1174.86 423.939,1058.55 470.012,954.662 516.084,861.859 571.46,763.329 626.835,677.299 
  673.655,613.134 720.474,555.923 771.333,500.778 822.192,452.094 869.079,412.28 915.967,376.787 966.235,343.001 1016.5,313.129 1074.74,282.822 1132.98,256.544 
  1236.5,218.164 1327.27,191.653 1426.24,168.734 1525.8,150.656 1635.87,135.185 1740.6,123.874 1849.49,114.82 1941.16,108.863 2053.07,103.19 2158.28,99.1034 
  2326.82,94.4018 2352.76,93.8356 
  "/>
<polyline clip-path="url(#clip202)" style="stroke:#e26f46; stroke-width:8; stroke-opacity:1; fill:none" points="
  -1729.03,85.2049 4393.65,85.2049 
  "/>
</svg>
