<?xml version="1.0" encoding="utf-8"?>
<svg xmlns="http://www.w3.org/2000/svg" xmlns:xlink="http://www.w3.org/1999/xlink" width="600" height="400" viewBox="0 0 2400 1600">
<defs>
  <clipPath id="clip850">
    <rect x="0" y="0" width="2400" height="1600"/>
  </clipPath>
</defs>
<path clip-path="url(#clip850)" d="
M0 1600 L2400 1600 L2400 0 L0 0  Z
  " fill="#ffffff" fill-rule="evenodd" fill-opacity="1"/>
<defs>
  <clipPath id="clip851">
    <rect x="480" y="0" width="1681" height="1600"/>
  </clipPath>
</defs>
<path clip-path="url(#clip850)" d="
M175.445 1423.18 L2352.76 1423.18 L2352.76 47.2441 L175.445 47.2441  Z
  " fill="#ffffff" fill-rule="evenodd" fill-opacity="1"/>
<defs>
  <clipPath id="clip852">
    <rect x="175" y="47" width="2178" height="1377"/>
  </clipPath>
</defs>
<polyline clip-path="url(#clip852)" style="stroke:#000000; stroke-width:2; stroke-opacity:0.1; fill:none" points="
  237.067,1423.18 237.067,47.2441 
  "/>
<polyline clip-path="url(#clip852)" style="stroke:#000000; stroke-width:2; stroke-opacity:0.1; fill:none" points="
  579.412,1423.18 579.412,47.2441 
  "/>
<polyline clip-path="url(#clip852)" style="stroke:#000000; stroke-width:2; stroke-opacity:0.1; fill:none" points="
  921.756,1423.18 921.756,47.2441 
  "/>
<polyline clip-path="url(#clip852)" style="stroke:#000000; stroke-width:2; stroke-opacity:0.1; fill:none" points="
  1264.1,1423.18 1264.1,47.2441 
  "/>
<polyline clip-path="url(#clip852)" style="stroke:#000000; stroke-width:2; stroke-opacity:0.1; fill:none" points="
  1606.45,1423.18 1606.45,47.2441 
  "/>
<polyline clip-path="url(#clip852)" style="stroke:#000000; stroke-width:2; stroke-opacity:0.1; fill:none" points="
  1948.79,1423.18 1948.79,47.2441 
  "/>
<polyline clip-path="url(#clip852)" style="stroke:#000000; stroke-width:2; stroke-opacity:0.1; fill:none" points="
  2291.13,1423.18 2291.13,47.2441 
  "/>
<polyline clip-path="url(#clip850)" style="stroke:#000000; stroke-width:4; stroke-opacity:1; fill:none" points="
  175.445,1423.18 2352.76,1423.18 
  "/>
<polyline clip-path="url(#clip850)" style="stroke:#000000; stroke-width:4; stroke-opacity:1; fill:none" points="
  237.067,1423.18 237.067,1406.67 
  "/>
<polyline clip-path="url(#clip850)" style="stroke:#000000; stroke-width:4; stroke-opacity:1; fill:none" points="
  579.412,1423.18 579.412,1406.67 
  "/>
<polyline clip-path="url(#clip850)" style="stroke:#000000; stroke-width:4; stroke-opacity:1; fill:none" points="
  921.756,1423.18 921.756,1406.67 
  "/>
<polyline clip-path="url(#clip850)" style="stroke:#000000; stroke-width:4; stroke-opacity:1; fill:none" points="
  1264.1,1423.18 1264.1,1406.67 
  "/>
<polyline clip-path="url(#clip850)" style="stroke:#000000; stroke-width:4; stroke-opacity:1; fill:none" points="
  1606.45,1423.18 1606.45,1406.67 
  "/>
<polyline clip-path="url(#clip850)" style="stroke:#000000; stroke-width:4; stroke-opacity:1; fill:none" points="
  1948.79,1423.18 1948.79,1406.67 
  "/>
<polyline clip-path="url(#clip850)" style="stroke:#000000; stroke-width:4; stroke-opacity:1; fill:none" points="
  2291.13,1423.18 2291.13,1406.67 
  "/>
<path clip-path="url(#clip850)" d="M 0 0 M206.824 1467.02 L236.5 1467.02 L236.5 1470.96 L206.824 1470.96 L206.824 1467.02 Z" fill="#000000" fill-rule="evenodd" fill-opacity="1" /><path clip-path="url(#clip850)" d="M 0 0 M247.403 1479.92 L255.042 1479.92 L255.042 1453.55 L246.732 1455.22 L246.732 1450.96 L254.995 1449.29 L259.671 1449.29 L259.671 1479.92 L267.31 1479.92 L267.31 1483.85 L247.403 1483.85 L247.403 1479.92 Z" fill="#000000" fill-rule="evenodd" fill-opacity="1" /><path clip-path="url(#clip850)" d="M 0 0 M579.412 1452.37 Q575.801 1452.37 573.972 1455.94 Q572.166 1459.48 572.166 1466.61 Q572.166 1473.71 573.972 1477.28 Q575.801 1480.82 579.412 1480.82 Q583.046 1480.82 584.851 1477.28 Q586.68 1473.71 586.68 1466.61 Q586.68 1459.48 584.851 1455.94 Q583.046 1452.37 579.412 1452.37 M579.412 1448.67 Q585.222 1448.67 588.277 1453.27 Q591.356 1457.86 591.356 1466.61 Q591.356 1475.33 588.277 1479.94 Q585.222 1484.52 579.412 1484.52 Q573.602 1484.52 570.523 1479.94 Q567.467 1475.33 567.467 1466.61 Q567.467 1457.86 570.523 1453.27 Q573.602 1448.67 579.412 1448.67 Z" fill="#000000" fill-rule="evenodd" fill-opacity="1" /><path clip-path="url(#clip850)" d="M 0 0 M912.138 1479.92 L919.777 1479.92 L919.777 1453.55 L911.467 1455.22 L911.467 1450.96 L919.731 1449.29 L924.407 1449.29 L924.407 1479.92 L932.045 1479.92 L932.045 1483.85 L912.138 1483.85 L912.138 1479.92 Z" fill="#000000" fill-rule="evenodd" fill-opacity="1" /><path clip-path="url(#clip850)" d="M 0 0 M1258.75 1479.92 L1275.07 1479.92 L1275.07 1483.85 L1253.13 1483.85 L1253.13 1479.92 Q1255.79 1477.16 1260.37 1472.53 Q1264.98 1467.88 1266.16 1466.54 Q1268.41 1464.01 1269.29 1462.28 Q1270.19 1460.52 1270.19 1458.83 Q1270.19 1456.07 1268.24 1454.34 Q1266.32 1452.6 1263.22 1452.6 Q1261.02 1452.6 1258.57 1453.37 Q1256.14 1454.13 1253.36 1455.68 L1253.36 1450.96 Q1256.18 1449.82 1258.64 1449.25 Q1261.09 1448.67 1263.13 1448.67 Q1268.5 1448.67 1271.69 1451.35 Q1274.89 1454.04 1274.89 1458.53 Q1274.89 1460.66 1274.08 1462.58 Q1273.29 1464.48 1271.18 1467.07 Q1270.61 1467.74 1267.5 1470.96 Q1264.4 1474.15 1258.75 1479.92 Z" fill="#000000" fill-rule="evenodd" fill-opacity="1" /><path clip-path="url(#clip850)" d="M 0 0 M1610.69 1465.22 Q1614.05 1465.94 1615.92 1468.2 Q1617.82 1470.47 1617.82 1473.81 Q1617.82 1478.92 1614.3 1481.72 Q1610.79 1484.52 1604.3 1484.52 Q1602.13 1484.52 1599.81 1484.08 Q1597.52 1483.67 1595.07 1482.81 L1595.07 1478.3 Q1597.01 1479.43 1599.33 1480.01 Q1601.64 1480.59 1604.16 1480.59 Q1608.56 1480.59 1610.85 1478.85 Q1613.17 1477.12 1613.17 1473.81 Q1613.17 1470.75 1611.02 1469.04 Q1608.89 1467.3 1605.07 1467.3 L1601.04 1467.3 L1601.04 1463.46 L1605.25 1463.46 Q1608.7 1463.46 1610.53 1462.09 Q1612.36 1460.7 1612.36 1458.11 Q1612.36 1455.45 1610.46 1454.04 Q1608.59 1452.6 1605.07 1452.6 Q1603.15 1452.6 1600.95 1453.02 Q1598.75 1453.44 1596.11 1454.31 L1596.11 1450.15 Q1598.77 1449.41 1601.09 1449.04 Q1603.42 1448.67 1605.48 1448.67 Q1610.81 1448.67 1613.91 1451.1 Q1617.01 1453.5 1617.01 1457.63 Q1617.01 1460.5 1615.37 1462.49 Q1613.73 1464.45 1610.69 1465.22 Z" fill="#000000" fill-rule="evenodd" fill-opacity="1" /><path clip-path="url(#clip850)" d="M 0 0 M1951.8 1453.37 L1939.99 1471.81 L1951.8 1471.81 L1951.8 1453.37 M1950.57 1449.29 L1956.45 1449.29 L1956.45 1471.81 L1961.38 1471.81 L1961.38 1475.7 L1956.45 1475.7 L1956.45 1483.85 L1951.8 1483.85 L1951.8 1475.7 L1936.2 1475.7 L1936.2 1471.19 L1950.57 1449.29 Z" fill="#000000" fill-rule="evenodd" fill-opacity="1" /><path clip-path="url(#clip850)" d="M 0 0 M2281.41 1449.29 L2299.77 1449.29 L2299.77 1453.23 L2285.69 1453.23 L2285.69 1461.7 Q2286.71 1461.35 2287.73 1461.19 Q2288.75 1461 2289.77 1461 Q2295.56 1461 2298.93 1464.18 Q2302.31 1467.35 2302.31 1472.76 Q2302.31 1478.34 2298.84 1481.44 Q2295.37 1484.52 2289.05 1484.52 Q2286.87 1484.52 2284.61 1484.15 Q2282.36 1483.78 2279.95 1483.04 L2279.95 1478.34 Q2282.04 1479.48 2284.26 1480.03 Q2286.48 1480.59 2288.96 1480.59 Q2292.96 1480.59 2295.3 1478.48 Q2297.64 1476.38 2297.64 1472.76 Q2297.64 1469.15 2295.3 1467.05 Q2292.96 1464.94 2288.96 1464.94 Q2287.08 1464.94 2285.21 1465.36 Q2283.36 1465.77 2281.41 1466.65 L2281.41 1449.29 Z" fill="#000000" fill-rule="evenodd" fill-opacity="1" /><path clip-path="url(#clip850)" d="M 0 0 M1263.16 1522.27 L1263.16 1532.4 L1275.22 1532.4 L1275.22 1536.95 L1263.16 1536.95 L1263.16 1556.3 Q1263.16 1560.66 1264.34 1561.9 Q1265.55 1563.14 1269.21 1563.14 L1275.22 1563.14 L1275.22 1568.04 L1269.21 1568.04 Q1262.43 1568.04 1259.85 1565.53 Q1257.27 1562.98 1257.27 1556.3 L1257.27 1536.95 L1252.98 1536.95 L1252.98 1532.4 L1257.27 1532.4 L1257.27 1522.27 L1263.16 1522.27 Z" fill="#000000" fill-rule="evenodd" fill-opacity="1" /><polyline clip-path="url(#clip852)" style="stroke:#000000; stroke-width:2; stroke-opacity:0.1; fill:none" points="
  175.445,1384.24 2352.76,1384.24 
  "/>
<polyline clip-path="url(#clip852)" style="stroke:#000000; stroke-width:2; stroke-opacity:0.1; fill:none" points="
  175.445,1124.63 2352.76,1124.63 
  "/>
<polyline clip-path="url(#clip852)" style="stroke:#000000; stroke-width:2; stroke-opacity:0.1; fill:none" points="
  175.445,865.017 2352.76,865.017 
  "/>
<polyline clip-path="url(#clip852)" style="stroke:#000000; stroke-width:2; stroke-opacity:0.1; fill:none" points="
  175.445,605.407 2352.76,605.407 
  "/>
<polyline clip-path="url(#clip852)" style="stroke:#000000; stroke-width:2; stroke-opacity:0.1; fill:none" points="
  175.445,345.796 2352.76,345.796 
  "/>
<polyline clip-path="url(#clip852)" style="stroke:#000000; stroke-width:2; stroke-opacity:0.1; fill:none" points="
  175.445,86.1857 2352.76,86.1857 
  "/>
<polyline clip-path="url(#clip850)" style="stroke:#000000; stroke-width:4; stroke-opacity:1; fill:none" points="
  175.445,1423.18 175.445,47.2441 
  "/>
<polyline clip-path="url(#clip850)" style="stroke:#000000; stroke-width:4; stroke-opacity:1; fill:none" points="
  175.445,1384.24 201.573,1384.24 
  "/>
<polyline clip-path="url(#clip850)" style="stroke:#000000; stroke-width:4; stroke-opacity:1; fill:none" points="
  175.445,1124.63 201.573,1124.63 
  "/>
<polyline clip-path="url(#clip850)" style="stroke:#000000; stroke-width:4; stroke-opacity:1; fill:none" points="
  175.445,865.017 201.573,865.017 
  "/>
<polyline clip-path="url(#clip850)" style="stroke:#000000; stroke-width:4; stroke-opacity:1; fill:none" points="
  175.445,605.407 201.573,605.407 
  "/>
<polyline clip-path="url(#clip850)" style="stroke:#000000; stroke-width:4; stroke-opacity:1; fill:none" points="
  175.445,345.796 201.573,345.796 
  "/>
<polyline clip-path="url(#clip850)" style="stroke:#000000; stroke-width:4; stroke-opacity:1; fill:none" points="
  175.445,86.1857 201.573,86.1857 
  "/>
<path clip-path="url(#clip850)" d="M 0 0 M127.501 1370.04 Q123.89 1370.04 122.061 1373.6 Q120.255 1377.14 120.255 1384.27 Q120.255 1391.38 122.061 1394.94 Q123.89 1398.49 127.501 1398.49 Q131.135 1398.49 132.941 1394.94 Q134.769 1391.38 134.769 1384.27 Q134.769 1377.14 132.941 1373.6 Q131.135 1370.04 127.501 1370.04 M127.501 1366.33 Q133.311 1366.33 136.367 1370.94 Q139.445 1375.52 139.445 1384.27 Q139.445 1393 136.367 1397.61 Q133.311 1402.19 127.501 1402.19 Q121.691 1402.19 118.612 1397.61 Q115.556 1393 115.556 1384.27 Q115.556 1375.52 118.612 1370.94 Q121.691 1366.33 127.501 1366.33 Z" fill="#000000" fill-rule="evenodd" fill-opacity="1" /><path clip-path="url(#clip850)" d="M 0 0 M119.538 1137.97 L127.177 1137.97 L127.177 1111.61 L118.867 1113.27 L118.867 1109.01 L127.13 1107.35 L131.806 1107.35 L131.806 1137.97 L139.445 1137.97 L139.445 1141.91 L119.538 1141.91 L119.538 1137.97 Z" fill="#000000" fill-rule="evenodd" fill-opacity="1" /><path clip-path="url(#clip850)" d="M 0 0 M123.126 878.362 L139.445 878.362 L139.445 882.297 L117.501 882.297 L117.501 878.362 Q120.163 875.607 124.746 870.978 Q129.353 866.325 130.533 864.983 Q132.779 862.459 133.658 860.723 Q134.561 858.964 134.561 857.274 Q134.561 854.52 132.617 852.783 Q130.695 851.047 127.593 851.047 Q125.394 851.047 122.941 851.811 Q120.51 852.575 117.732 854.126 L117.732 849.404 Q120.556 848.27 123.01 847.691 Q125.464 847.112 127.501 847.112 Q132.871 847.112 136.066 849.797 Q139.26 852.483 139.26 856.973 Q139.26 859.103 138.45 861.024 Q137.663 862.922 135.556 865.515 Q134.978 866.186 131.876 869.404 Q128.774 872.598 123.126 878.362 Z" fill="#000000" fill-rule="evenodd" fill-opacity="1" /><path clip-path="url(#clip850)" d="M 0 0 M132.316 604.053 Q135.672 604.77 137.547 607.039 Q139.445 609.307 139.445 612.64 Q139.445 617.756 135.927 620.557 Q132.408 623.358 125.927 623.358 Q123.751 623.358 121.436 622.918 Q119.144 622.502 116.691 621.645 L116.691 617.131 Q118.635 618.265 120.95 618.844 Q123.265 619.423 125.788 619.423 Q130.186 619.423 132.478 617.687 Q134.792 615.951 134.792 612.64 Q134.792 609.585 132.64 607.872 Q130.51 606.136 126.691 606.136 L122.663 606.136 L122.663 602.293 L126.876 602.293 Q130.325 602.293 132.154 600.928 Q133.982 599.539 133.982 596.946 Q133.982 594.284 132.084 592.872 Q130.209 591.437 126.691 591.437 Q124.769 591.437 122.57 591.854 Q120.371 592.27 117.732 593.15 L117.732 588.983 Q120.394 588.242 122.709 587.872 Q125.047 587.502 127.107 587.502 Q132.431 587.502 135.533 589.932 Q138.635 592.34 138.635 596.46 Q138.635 599.33 136.992 601.321 Q135.348 603.289 132.316 604.053 Z" fill="#000000" fill-rule="evenodd" fill-opacity="1" /><path clip-path="url(#clip850)" d="M 0 0 M129.862 332.59 L118.056 351.039 L129.862 351.039 L129.862 332.59 M128.635 328.516 L134.515 328.516 L134.515 351.039 L139.445 351.039 L139.445 354.928 L134.515 354.928 L134.515 363.076 L129.862 363.076 L129.862 354.928 L114.26 354.928 L114.26 350.414 L128.635 328.516 Z" fill="#000000" fill-rule="evenodd" fill-opacity="1" /><path clip-path="url(#clip850)" d="M 0 0 M118.543 68.9057 L136.899 68.9057 L136.899 72.8408 L122.825 72.8408 L122.825 81.313 Q123.843 80.9658 124.862 80.8038 Q125.88 80.6186 126.899 80.6186 Q132.686 80.6186 136.066 83.7899 Q139.445 86.9611 139.445 92.3778 Q139.445 97.9564 135.973 101.058 Q132.501 104.137 126.181 104.137 Q124.005 104.137 121.737 103.767 Q119.492 103.396 117.084 102.655 L117.084 97.9564 Q119.168 99.0907 121.39 99.6462 Q123.612 100.202 126.089 100.202 Q130.093 100.202 132.431 98.0953 Q134.769 95.9889 134.769 92.3778 Q134.769 88.7667 132.431 86.6602 Q130.093 84.5537 126.089 84.5537 Q124.214 84.5537 122.339 84.9704 Q120.487 85.3871 118.543 86.2667 L118.543 68.9057 Z" fill="#000000" fill-rule="evenodd" fill-opacity="1" /><path clip-path="url(#clip850)" d="M 0 0 M14.479 758.654 L19.3487 758.654 L19.3487 764.256 Q19.3487 767.407 20.6219 768.648 Q21.895 769.857 25.2052 769.857 L28.3562 769.857 L28.3562 760.213 L32.9077 760.213 L32.9077 769.857 L64.0042 769.857 L64.0042 775.746 L32.9077 775.746 L32.9077 781.347 L28.3562 781.347 L28.3562 775.746 L25.8736 775.746 Q19.9216 775.746 17.2162 772.977 Q14.479 770.207 14.479 764.192 L14.479 758.654 Z" fill="#000000" fill-rule="evenodd" fill-opacity="1" /><path clip-path="url(#clip850)" d="M 0 0 M14.5426 739.684 Q21.8632 743.949 29.0246 746.018 Q36.186 748.087 43.5384 748.087 Q50.8908 748.087 58.1159 746.018 Q65.3091 743.917 72.5979 739.684 L72.5979 744.776 Q65.1182 749.551 57.8931 751.938 Q50.668 754.293 43.5384 754.293 Q36.4406 754.293 29.2474 751.938 Q22.0542 749.583 14.5426 744.776 L14.5426 739.684 Z" fill="#000000" fill-rule="evenodd" fill-opacity="1" /><path clip-path="url(#clip850)" d="M 0 0 M18.2347 722.528 L28.3562 722.528 L28.3562 710.465 L32.9077 710.465 L32.9077 722.528 L52.2594 722.528 Q56.6199 722.528 57.8613 721.351 Q59.1026 720.141 59.1026 716.481 L59.1026 710.465 L64.0042 710.465 L64.0042 716.481 Q64.0042 723.26 61.4897 725.838 Q58.9434 728.417 52.2594 728.417 L32.9077 728.417 L32.9077 732.713 L28.3562 732.713 L28.3562 728.417 L18.2347 728.417 L18.2347 722.528 Z" fill="#000000" fill-rule="evenodd" fill-opacity="1" /><path clip-path="url(#clip850)" d="M 0 0 M14.5426 703.686 L14.5426 698.593 Q22.0542 693.819 29.2474 691.464 Q36.4406 689.077 43.5384 689.077 Q50.668 689.077 57.8931 691.464 Q65.1182 693.819 72.5979 698.593 L72.5979 703.686 Q65.3091 699.453 58.1159 697.384 Q50.8908 695.283 43.5384 695.283 Q36.186 695.283 29.0246 697.384 Q21.8632 699.453 14.5426 703.686 Z" fill="#000000" fill-rule="evenodd" fill-opacity="1" /><polyline clip-path="url(#clip852)" style="stroke:#009af9; stroke-width:8; stroke-opacity:1; fill:none" points="
  237.067,1384.24 247.097,1384.24 257.127,1384.24 349.867,1384.24 442.607,1384.24 498.34,1384.24 554.073,1384.24 601.195,1367.72 648.316,1331.99 750.691,1254.35 
  845.071,1182.78 946.256,1106.05 1063.49,1017.15 1167.67,938.142 1259.03,868.861 1358.64,793.327 1458.84,717.343 1569.62,633.334 1675.02,553.401 1784.62,470.29 
  1876.88,400.328 1989.52,314.912 2095.4,234.619 2265.03,105.982 2291.13,86.1857 
  "/>
</svg>