<?xml version="1.0" encoding="utf-8"?>
<svg xmlns="http://www.w3.org/2000/svg" xmlns:xlink="http://www.w3.org/1999/xlink" width="600" height="400" viewBox="0 0 2400 1600">
<defs>
  <clipPath id="clip840">
    <rect x="0" y="0" width="2400" height="1600"/>
  </clipPath>
</defs>
<path clip-path="url(#clip840)" d="
M0 1600 L2400 1600 L2400 0 L0 0  Z
  " fill="#ffffff" fill-rule="evenodd" fill-opacity="1"/>
<defs>
  <clipPath id="clip841">
    <rect x="480" y="0" width="1681" height="1600"/>
  </clipPath>
</defs>
<defs>
  <clipPath id="clip842">
    <rect x="310" y="47" width="2043" height="1342"/>
  </clipPath>
</defs>
<path clip-path="url(#clip840)" d="
M295.06 1442.95 L2352.76 1442.95 L2352.76 47.2441 L295.06 47.2441  Z
  " fill="#ffffff" fill-rule="evenodd" fill-opacity="1"/>
<defs>
  <clipPath id="clip843">
    <rect x="295" y="47" width="2059" height="1397"/>
  </clipPath>
</defs>
<polyline clip-path="url(#clip843)" style="stroke:#000000; stroke-width:2; stroke-opacity:0.1; fill:none" points="
  408.237,1442.95 408.237,47.2441 
  "/>
<polyline clip-path="url(#clip843)" style="stroke:#000000; stroke-width:2; stroke-opacity:0.1; fill:none" points="
  713.461,1442.95 713.461,47.2441 
  "/>
<polyline clip-path="url(#clip843)" style="stroke:#000000; stroke-width:2; stroke-opacity:0.1; fill:none" points="
  1018.68,1442.95 1018.68,47.2441 
  "/>
<polyline clip-path="url(#clip843)" style="stroke:#000000; stroke-width:2; stroke-opacity:0.1; fill:none" points="
  1323.91,1442.95 1323.91,47.2441 
  "/>
<polyline clip-path="url(#clip843)" style="stroke:#000000; stroke-width:2; stroke-opacity:0.1; fill:none" points="
  1629.13,1442.95 1629.13,47.2441 
  "/>
<polyline clip-path="url(#clip843)" style="stroke:#000000; stroke-width:2; stroke-opacity:0.1; fill:none" points="
  1934.36,1442.95 1934.36,47.2441 
  "/>
<polyline clip-path="url(#clip843)" style="stroke:#000000; stroke-width:2; stroke-opacity:0.1; fill:none" points="
  2239.58,1442.95 2239.58,47.2441 
  "/>
<polyline clip-path="url(#clip840)" style="stroke:#000000; stroke-width:4; stroke-opacity:1; fill:none" points="
  295.06,1442.95 2352.76,1442.95 
  "/>
<polyline clip-path="url(#clip840)" style="stroke:#000000; stroke-width:4; stroke-opacity:1; fill:none" points="
  408.237,1442.95 408.237,1426.2 
  "/>
<polyline clip-path="url(#clip840)" style="stroke:#000000; stroke-width:4; stroke-opacity:1; fill:none" points="
  713.461,1442.95 713.461,1426.2 
  "/>
<polyline clip-path="url(#clip840)" style="stroke:#000000; stroke-width:4; stroke-opacity:1; fill:none" points="
  1018.68,1442.95 1018.68,1426.2 
  "/>
<polyline clip-path="url(#clip840)" style="stroke:#000000; stroke-width:4; stroke-opacity:1; fill:none" points="
  1323.91,1442.95 1323.91,1426.2 
  "/>
<polyline clip-path="url(#clip840)" style="stroke:#000000; stroke-width:4; stroke-opacity:1; fill:none" points="
  1629.13,1442.95 1629.13,1426.2 
  "/>
<polyline clip-path="url(#clip840)" style="stroke:#000000; stroke-width:4; stroke-opacity:1; fill:none" points="
  1934.36,1442.95 1934.36,1426.2 
  "/>
<polyline clip-path="url(#clip840)" style="stroke:#000000; stroke-width:4; stroke-opacity:1; fill:none" points="
  2239.58,1442.95 2239.58,1426.2 
  "/>
<path clip-path="url(#clip840)" d="M 0 0 M377.994 1486.79 L407.67 1486.79 L407.67 1490.73 L377.994 1490.73 L377.994 1486.79 Z" fill="#000000" fill-rule="evenodd" fill-opacity="1" /><path clip-path="url(#clip840)" d="M 0 0 M418.573 1499.69 L426.212 1499.69 L426.212 1473.32 L417.902 1474.99 L417.902 1470.73 L426.165 1469.06 L430.841 1469.06 L430.841 1499.69 L438.48 1499.69 L438.48 1503.62 L418.573 1503.62 L418.573 1499.69 Z" fill="#000000" fill-rule="evenodd" fill-opacity="1" /><path clip-path="url(#clip840)" d="M 0 0 M713.461 1472.14 Q709.85 1472.14 708.021 1475.71 Q706.216 1479.25 706.216 1486.38 Q706.216 1493.48 708.021 1497.05 Q709.85 1500.59 713.461 1500.59 Q717.095 1500.59 718.901 1497.05 Q720.729 1493.48 720.729 1486.38 Q720.729 1479.25 718.901 1475.71 Q717.095 1472.14 713.461 1472.14 M713.461 1468.44 Q719.271 1468.44 722.327 1473.04 Q725.405 1477.63 725.405 1486.38 Q725.405 1495.1 722.327 1499.71 Q719.271 1504.29 713.461 1504.29 Q707.651 1504.29 704.572 1499.71 Q701.517 1495.1 701.517 1486.38 Q701.517 1477.63 704.572 1473.04 Q707.651 1468.44 713.461 1468.44 Z" fill="#000000" fill-rule="evenodd" fill-opacity="1" /><path clip-path="url(#clip840)" d="M 0 0 M1009.07 1499.69 L1016.71 1499.69 L1016.71 1473.32 L1008.4 1474.99 L1008.4 1470.73 L1016.66 1469.06 L1021.33 1469.06 L1021.33 1499.69 L1028.97 1499.69 L1028.97 1503.62 L1009.07 1503.62 L1009.07 1499.69 Z" fill="#000000" fill-rule="evenodd" fill-opacity="1" /><path clip-path="url(#clip840)" d="M 0 0 M1318.56 1499.69 L1334.88 1499.69 L1334.88 1503.62 L1312.94 1503.62 L1312.94 1499.69 Q1315.6 1496.93 1320.18 1492.3 Q1324.79 1487.65 1325.97 1486.31 Q1328.21 1483.78 1329.09 1482.05 Q1330 1480.29 1330 1478.6 Q1330 1475.84 1328.05 1474.11 Q1326.13 1472.37 1323.03 1472.37 Q1320.83 1472.37 1318.38 1473.14 Q1315.95 1473.9 1313.17 1475.45 L1313.17 1470.73 Q1315.99 1469.59 1318.45 1469.02 Q1320.9 1468.44 1322.94 1468.44 Q1328.31 1468.44 1331.5 1471.12 Q1334.7 1473.81 1334.7 1478.3 Q1334.7 1480.43 1333.88 1482.35 Q1333.1 1484.25 1330.99 1486.84 Q1330.41 1487.51 1327.31 1490.73 Q1324.21 1493.92 1318.56 1499.69 Z" fill="#000000" fill-rule="evenodd" fill-opacity="1" /><path clip-path="url(#clip840)" d="M 0 0 M1633.38 1484.99 Q1636.74 1485.71 1638.61 1487.97 Q1640.51 1490.24 1640.51 1493.58 Q1640.51 1498.69 1636.99 1501.49 Q1633.47 1504.29 1626.99 1504.29 Q1624.81 1504.29 1622.5 1503.85 Q1620.21 1503.44 1617.75 1502.58 L1617.75 1498.07 Q1619.7 1499.2 1622.01 1499.78 Q1624.33 1500.36 1626.85 1500.36 Q1631.25 1500.36 1633.54 1498.62 Q1635.86 1496.89 1635.86 1493.58 Q1635.86 1490.52 1633.7 1488.81 Q1631.57 1487.07 1627.75 1487.07 L1623.73 1487.07 L1623.73 1483.23 L1627.94 1483.23 Q1631.39 1483.23 1633.22 1481.86 Q1635.05 1480.47 1635.05 1477.88 Q1635.05 1475.22 1633.15 1473.81 Q1631.27 1472.37 1627.75 1472.37 Q1625.83 1472.37 1623.63 1472.79 Q1621.44 1473.21 1618.8 1474.08 L1618.8 1469.92 Q1621.46 1469.18 1623.77 1468.81 Q1626.11 1468.44 1628.17 1468.44 Q1633.5 1468.44 1636.6 1470.87 Q1639.7 1473.27 1639.7 1477.4 Q1639.7 1480.27 1638.06 1482.26 Q1636.41 1484.22 1633.38 1484.99 Z" fill="#000000" fill-rule="evenodd" fill-opacity="1" /><path clip-path="url(#clip840)" d="M 0 0 M1937.36 1473.14 L1925.56 1491.58 L1937.36 1491.58 L1937.36 1473.14 M1936.14 1469.06 L1942.02 1469.06 L1942.02 1491.58 L1946.95 1491.58 L1946.95 1495.47 L1942.02 1495.47 L1942.02 1503.62 L1937.36 1503.62 L1937.36 1495.47 L1921.76 1495.47 L1921.76 1490.96 L1936.14 1469.06 Z" fill="#000000" fill-rule="evenodd" fill-opacity="1" /><path clip-path="url(#clip840)" d="M 0 0 M2229.86 1469.06 L2248.21 1469.06 L2248.21 1473 L2234.14 1473 L2234.14 1481.47 Q2235.16 1481.12 2236.18 1480.96 Q2237.19 1480.77 2238.21 1480.77 Q2244 1480.77 2247.38 1483.95 Q2250.76 1487.12 2250.76 1492.53 Q2250.76 1498.11 2247.29 1501.21 Q2243.82 1504.29 2237.5 1504.29 Q2235.32 1504.29 2233.05 1503.92 Q2230.81 1503.55 2228.4 1502.81 L2228.4 1498.11 Q2230.48 1499.25 2232.7 1499.8 Q2234.93 1500.36 2237.4 1500.36 Q2241.41 1500.36 2243.75 1498.25 Q2246.08 1496.15 2246.08 1492.53 Q2246.08 1488.92 2243.75 1486.82 Q2241.41 1484.71 2237.4 1484.71 Q2235.53 1484.71 2233.65 1485.13 Q2231.8 1485.54 2229.86 1486.42 L2229.86 1469.06 Z" fill="#000000" fill-rule="evenodd" fill-opacity="1" /><path clip-path="url(#clip840)" d="M 0 0 M1332.38 1539.82 Q1332.38 1540.72 1331.96 1540.95 Q1331.54 1541.14 1330.38 1541.14 L1324.2 1541.14 L1319.3 1560.59 Q1318.92 1562.3 1318.92 1563.75 Q1318.92 1565.36 1319.4 1566.07 Q1319.92 1566.78 1320.98 1566.78 Q1323.07 1566.78 1325.33 1564.88 Q1327.61 1562.98 1329.55 1558.34 Q1329.8 1557.73 1329.93 1557.6 Q1330.09 1557.44 1330.51 1557.44 Q1331.32 1557.44 1331.32 1558.08 Q1331.32 1558.31 1330.87 1559.34 Q1330.45 1560.37 1329.51 1561.88 Q1328.61 1563.4 1327.42 1564.81 Q1326.26 1566.23 1324.49 1567.26 Q1322.72 1568.26 1320.82 1568.26 Q1318.14 1568.26 1316.44 1566.55 Q1314.76 1564.84 1314.76 1562.17 Q1314.76 1561.3 1315.44 1558.53 Q1316.12 1555.73 1319.79 1541.14 L1313.96 1541.14 Q1313.15 1541.14 1312.83 1541.11 Q1312.54 1541.08 1312.31 1540.92 Q1312.12 1540.72 1312.12 1540.34 Q1312.12 1539.72 1312.38 1539.47 Q1312.64 1539.18 1312.96 1539.14 Q1313.31 1539.08 1314.12 1539.08 L1320.3 1539.08 L1322.88 1528.61 Q1323.14 1527.58 1323.78 1527 Q1324.46 1526.39 1324.84 1526.33 Q1325.23 1526.23 1325.52 1526.23 Q1326.39 1526.23 1326.9 1526.71 Q1327.42 1527.16 1327.42 1528 Q1327.42 1528.45 1324.71 1539.08 L1330.51 1539.08 Q1331.25 1539.08 1331.54 1539.11 Q1331.86 1539.14 1332.12 1539.31 Q1332.38 1539.47 1332.38 1539.82 Z" fill="#000000" fill-rule="evenodd" fill-opacity="1" /><polyline clip-path="url(#clip843)" style="stroke:#000000; stroke-width:2; stroke-opacity:0.1; fill:none" points="
  295.06,1403.45 2352.76,1403.45 
  "/>
<polyline clip-path="url(#clip843)" style="stroke:#000000; stroke-width:2; stroke-opacity:0.1; fill:none" points="
  295.06,1073.86 2352.76,1073.86 
  "/>
<polyline clip-path="url(#clip843)" style="stroke:#000000; stroke-width:2; stroke-opacity:0.1; fill:none" points="
  295.06,744.267 2352.76,744.267 
  "/>
<polyline clip-path="url(#clip843)" style="stroke:#000000; stroke-width:2; stroke-opacity:0.1; fill:none" points="
  295.06,414.677 2352.76,414.677 
  "/>
<polyline clip-path="url(#clip843)" style="stroke:#000000; stroke-width:2; stroke-opacity:0.1; fill:none" points="
  295.06,85.086 2352.76,85.086 
  "/>
<polyline clip-path="url(#clip840)" style="stroke:#000000; stroke-width:4; stroke-opacity:1; fill:none" points="
  295.06,1442.95 295.06,47.2441 
  "/>
<polyline clip-path="url(#clip840)" style="stroke:#000000; stroke-width:4; stroke-opacity:1; fill:none" points="
  295.06,1403.45 319.753,1403.45 
  "/>
<polyline clip-path="url(#clip840)" style="stroke:#000000; stroke-width:4; stroke-opacity:1; fill:none" points="
  295.06,1073.86 319.753,1073.86 
  "/>
<polyline clip-path="url(#clip840)" style="stroke:#000000; stroke-width:4; stroke-opacity:1; fill:none" points="
  295.06,744.267 319.753,744.267 
  "/>
<polyline clip-path="url(#clip840)" style="stroke:#000000; stroke-width:4; stroke-opacity:1; fill:none" points="
  295.06,414.677 319.753,414.677 
  "/>
<polyline clip-path="url(#clip840)" style="stroke:#000000; stroke-width:4; stroke-opacity:1; fill:none" points="
  295.06,85.086 319.753,85.086 
  "/>
<path clip-path="url(#clip840)" d="M 0 0 M171.723 1389.25 Q168.112 1389.25 166.283 1392.81 Q164.478 1396.35 164.478 1403.48 Q164.478 1410.59 166.283 1414.15 Q168.112 1417.7 171.723 1417.7 Q175.357 1417.7 177.163 1414.15 Q178.991 1410.59 178.991 1403.48 Q178.991 1396.35 177.163 1392.81 Q175.357 1389.25 171.723 1389.25 M171.723 1385.54 Q177.533 1385.54 180.589 1390.15 Q183.667 1394.73 183.667 1403.48 Q183.667 1412.21 180.589 1416.82 Q177.533 1421.4 171.723 1421.4 Q165.913 1421.4 162.834 1416.82 Q159.778 1412.21 159.778 1403.48 Q159.778 1394.73 162.834 1390.15 Q165.913 1385.54 171.723 1385.54 Z" fill="#000000" fill-rule="evenodd" fill-opacity="1" /><path clip-path="url(#clip840)" d="M 0 0 M191.885 1414.85 L196.769 1414.85 L196.769 1420.73 L191.885 1420.73 L191.885 1414.85 Z" fill="#000000" fill-rule="evenodd" fill-opacity="1" /><path clip-path="url(#clip840)" d="M 0 0 M216.954 1389.25 Q213.343 1389.25 211.514 1392.81 Q209.709 1396.35 209.709 1403.48 Q209.709 1410.59 211.514 1414.15 Q213.343 1417.7 216.954 1417.7 Q220.588 1417.7 222.394 1414.15 Q224.223 1410.59 224.223 1403.48 Q224.223 1396.35 222.394 1392.81 Q220.588 1389.25 216.954 1389.25 M216.954 1385.54 Q222.764 1385.54 225.82 1390.15 Q228.898 1394.73 228.898 1403.48 Q228.898 1412.21 225.82 1416.82 Q222.764 1421.4 216.954 1421.4 Q211.144 1421.4 208.065 1416.82 Q205.01 1412.21 205.01 1403.48 Q205.01 1394.73 208.065 1390.15 Q211.144 1385.54 216.954 1385.54 Z" fill="#000000" fill-rule="evenodd" fill-opacity="1" /><path clip-path="url(#clip840)" d="M 0 0 M247.116 1389.25 Q243.505 1389.25 241.676 1392.81 Q239.871 1396.35 239.871 1403.48 Q239.871 1410.59 241.676 1414.15 Q243.505 1417.7 247.116 1417.7 Q250.75 1417.7 252.556 1414.15 Q254.384 1410.59 254.384 1403.48 Q254.384 1396.35 252.556 1392.81 Q250.75 1389.25 247.116 1389.25 M247.116 1385.54 Q252.926 1385.54 255.982 1390.15 Q259.06 1394.73 259.06 1403.48 Q259.06 1412.21 255.982 1416.82 Q252.926 1421.4 247.116 1421.4 Q241.306 1421.4 238.227 1416.82 Q235.172 1412.21 235.172 1403.48 Q235.172 1394.73 238.227 1390.15 Q241.306 1385.54 247.116 1385.54 Z" fill="#000000" fill-rule="evenodd" fill-opacity="1" /><path clip-path="url(#clip840)" d="M 0 0 M172.718 1059.66 Q169.107 1059.66 167.278 1063.22 Q165.473 1066.76 165.473 1073.89 Q165.473 1081 167.278 1084.56 Q169.107 1088.11 172.718 1088.11 Q176.352 1088.11 178.158 1084.56 Q179.987 1081 179.987 1073.89 Q179.987 1066.76 178.158 1063.22 Q176.352 1059.66 172.718 1059.66 M172.718 1055.95 Q178.528 1055.95 181.584 1060.56 Q184.663 1065.14 184.663 1073.89 Q184.663 1082.62 181.584 1087.23 Q178.528 1091.81 172.718 1091.81 Q166.908 1091.81 163.829 1087.23 Q160.774 1082.62 160.774 1073.89 Q160.774 1065.14 163.829 1060.56 Q166.908 1055.95 172.718 1055.95 Z" fill="#000000" fill-rule="evenodd" fill-opacity="1" /><path clip-path="url(#clip840)" d="M 0 0 M192.88 1085.26 L197.764 1085.26 L197.764 1091.14 L192.88 1091.14 L192.88 1085.26 Z" fill="#000000" fill-rule="evenodd" fill-opacity="1" /><path clip-path="url(#clip840)" d="M 0 0 M211.977 1087.2 L228.297 1087.2 L228.297 1091.14 L206.352 1091.14 L206.352 1087.2 Q209.014 1084.45 213.598 1079.82 Q218.204 1075.17 219.385 1073.82 Q221.63 1071.3 222.51 1069.56 Q223.412 1067.8 223.412 1066.12 Q223.412 1063.36 221.468 1061.62 Q219.547 1059.89 216.445 1059.89 Q214.246 1059.89 211.792 1060.65 Q209.362 1061.42 206.584 1062.97 L206.584 1058.24 Q209.408 1057.11 211.862 1056.53 Q214.315 1055.95 216.352 1055.95 Q221.723 1055.95 224.917 1058.64 Q228.111 1061.32 228.111 1065.81 Q228.111 1067.94 227.301 1069.87 Q226.514 1071.76 224.408 1074.36 Q223.829 1075.03 220.727 1078.24 Q217.625 1081.44 211.977 1087.2 Z" fill="#000000" fill-rule="evenodd" fill-opacity="1" /><path clip-path="url(#clip840)" d="M 0 0 M238.158 1056.58 L256.514 1056.58 L256.514 1060.51 L242.44 1060.51 L242.44 1068.99 Q243.459 1068.64 244.477 1068.48 Q245.496 1068.29 246.514 1068.29 Q252.301 1068.29 255.681 1071.46 Q259.06 1074.63 259.06 1080.05 Q259.06 1085.63 255.588 1088.73 Q252.116 1091.81 245.797 1091.81 Q243.621 1091.81 241.352 1091.44 Q239.107 1091.07 236.699 1090.33 L236.699 1085.63 Q238.783 1086.76 241.005 1087.32 Q243.227 1087.87 245.704 1087.87 Q249.709 1087.87 252.047 1085.77 Q254.384 1083.66 254.384 1080.05 Q254.384 1076.44 252.047 1074.33 Q249.709 1072.23 245.704 1072.23 Q243.829 1072.23 241.954 1072.64 Q240.102 1073.06 238.158 1073.94 L238.158 1056.58 Z" fill="#000000" fill-rule="evenodd" fill-opacity="1" /><path clip-path="url(#clip840)" d="M 0 0 M171.723 730.066 Q168.112 730.066 166.283 733.631 Q164.478 737.172 164.478 744.302 Q164.478 751.409 166.283 754.973 Q168.112 758.515 171.723 758.515 Q175.357 758.515 177.163 754.973 Q178.991 751.409 178.991 744.302 Q178.991 737.172 177.163 733.631 Q175.357 730.066 171.723 730.066 M171.723 726.362 Q177.533 726.362 180.589 730.969 Q183.667 735.552 183.667 744.302 Q183.667 753.029 180.589 757.635 Q177.533 762.219 171.723 762.219 Q165.913 762.219 162.834 757.635 Q159.778 753.029 159.778 744.302 Q159.778 735.552 162.834 730.969 Q165.913 726.362 171.723 726.362 Z" fill="#000000" fill-rule="evenodd" fill-opacity="1" /><path clip-path="url(#clip840)" d="M 0 0 M191.885 755.668 L196.769 755.668 L196.769 761.547 L191.885 761.547 L191.885 755.668 Z" fill="#000000" fill-rule="evenodd" fill-opacity="1" /><path clip-path="url(#clip840)" d="M 0 0 M207 726.987 L225.357 726.987 L225.357 730.923 L211.283 730.923 L211.283 739.395 Q212.301 739.047 213.32 738.885 Q214.338 738.7 215.357 738.7 Q221.144 738.7 224.524 741.872 Q227.903 745.043 227.903 750.459 Q227.903 756.038 224.431 759.14 Q220.959 762.219 214.639 762.219 Q212.463 762.219 210.195 761.848 Q207.95 761.478 205.542 760.737 L205.542 756.038 Q207.625 757.172 209.848 757.728 Q212.07 758.283 214.547 758.283 Q218.551 758.283 220.889 756.177 Q223.227 754.071 223.227 750.459 Q223.227 746.848 220.889 744.742 Q218.551 742.635 214.547 742.635 Q212.672 742.635 210.797 743.052 Q208.945 743.469 207 744.348 L207 726.987 Z" fill="#000000" fill-rule="evenodd" fill-opacity="1" /><path clip-path="url(#clip840)" d="M 0 0 M247.116 730.066 Q243.505 730.066 241.676 733.631 Q239.871 737.172 239.871 744.302 Q239.871 751.409 241.676 754.973 Q243.505 758.515 247.116 758.515 Q250.75 758.515 252.556 754.973 Q254.384 751.409 254.384 744.302 Q254.384 737.172 252.556 733.631 Q250.75 730.066 247.116 730.066 M247.116 726.362 Q252.926 726.362 255.982 730.969 Q259.06 735.552 259.06 744.302 Q259.06 753.029 255.982 757.635 Q252.926 762.219 247.116 762.219 Q241.306 762.219 238.227 757.635 Q235.172 753.029 235.172 744.302 Q235.172 735.552 238.227 730.969 Q241.306 726.362 247.116 726.362 Z" fill="#000000" fill-rule="evenodd" fill-opacity="1" /><path clip-path="url(#clip840)" d="M 0 0 M172.718 400.475 Q169.107 400.475 167.278 404.04 Q165.473 407.582 165.473 414.711 Q165.473 421.818 167.278 425.383 Q169.107 428.924 172.718 428.924 Q176.352 428.924 178.158 425.383 Q179.987 421.818 179.987 414.711 Q179.987 407.582 178.158 404.04 Q176.352 400.475 172.718 400.475 M172.718 396.772 Q178.528 396.772 181.584 401.378 Q184.663 405.961 184.663 414.711 Q184.663 423.438 181.584 428.045 Q178.528 432.628 172.718 432.628 Q166.908 432.628 163.829 428.045 Q160.774 423.438 160.774 414.711 Q160.774 405.961 163.829 401.378 Q166.908 396.772 172.718 396.772 Z" fill="#000000" fill-rule="evenodd" fill-opacity="1" /><path clip-path="url(#clip840)" d="M 0 0 M192.88 426.077 L197.764 426.077 L197.764 431.957 L192.88 431.957 L192.88 426.077 Z" fill="#000000" fill-rule="evenodd" fill-opacity="1" /><path clip-path="url(#clip840)" d="M 0 0 M206.769 397.397 L228.991 397.397 L228.991 399.387 L216.445 431.957 L211.561 431.957 L223.366 401.332 L206.769 401.332 L206.769 397.397 Z" fill="#000000" fill-rule="evenodd" fill-opacity="1" /><path clip-path="url(#clip840)" d="M 0 0 M238.158 397.397 L256.514 397.397 L256.514 401.332 L242.44 401.332 L242.44 409.804 Q243.459 409.457 244.477 409.295 Q245.496 409.11 246.514 409.11 Q252.301 409.11 255.681 412.281 Q259.06 415.452 259.06 420.869 Q259.06 426.447 255.588 429.549 Q252.116 432.628 245.797 432.628 Q243.621 432.628 241.352 432.258 Q239.107 431.887 236.699 431.147 L236.699 426.447 Q238.783 427.582 241.005 428.137 Q243.227 428.693 245.704 428.693 Q249.709 428.693 252.047 426.586 Q254.384 424.48 254.384 420.869 Q254.384 417.258 252.047 415.151 Q249.709 413.045 245.704 413.045 Q243.829 413.045 241.954 413.461 Q240.102 413.878 238.158 414.758 L238.158 397.397 Z" fill="#000000" fill-rule="evenodd" fill-opacity="1" /><path clip-path="url(#clip840)" d="M 0 0 M162.533 98.4308 L170.172 98.4308 L170.172 72.0652 L161.862 73.7319 L161.862 69.4727 L170.126 67.806 L174.802 67.806 L174.802 98.4308 L182.44 98.4308 L182.44 102.366 L162.533 102.366 L162.533 98.4308 Z" fill="#000000" fill-rule="evenodd" fill-opacity="1" /><path clip-path="url(#clip840)" d="M 0 0 M191.885 96.4864 L196.769 96.4864 L196.769 102.366 L191.885 102.366 L191.885 96.4864 Z" fill="#000000" fill-rule="evenodd" fill-opacity="1" /><path clip-path="url(#clip840)" d="M 0 0 M216.954 70.8847 Q213.343 70.8847 211.514 74.4495 Q209.709 77.9911 209.709 85.1207 Q209.709 92.2272 211.514 95.792 Q213.343 99.3336 216.954 99.3336 Q220.588 99.3336 222.394 95.792 Q224.223 92.2272 224.223 85.1207 Q224.223 77.9911 222.394 74.4495 Q220.588 70.8847 216.954 70.8847 M216.954 67.181 Q222.764 67.181 225.82 71.7875 Q228.898 76.3708 228.898 85.1207 Q228.898 93.8475 225.82 98.454 Q222.764 103.037 216.954 103.037 Q211.144 103.037 208.065 98.454 Q205.01 93.8475 205.01 85.1207 Q205.01 76.3708 208.065 71.7875 Q211.144 67.181 216.954 67.181 Z" fill="#000000" fill-rule="evenodd" fill-opacity="1" /><path clip-path="url(#clip840)" d="M 0 0 M247.116 70.8847 Q243.505 70.8847 241.676 74.4495 Q239.871 77.9911 239.871 85.1207 Q239.871 92.2272 241.676 95.792 Q243.505 99.3336 247.116 99.3336 Q250.75 99.3336 252.556 95.792 Q254.384 92.2272 254.384 85.1207 Q254.384 77.9911 252.556 74.4495 Q250.75 70.8847 247.116 70.8847 M247.116 67.181 Q252.926 67.181 255.982 71.7875 Q259.06 76.3708 259.06 85.1207 Q259.06 93.8475 255.982 98.454 Q252.926 103.037 247.116 103.037 Q241.306 103.037 238.227 98.454 Q235.172 93.8475 235.172 85.1207 Q235.172 76.3708 238.227 71.7875 Q241.306 67.181 247.116 67.181 Z" fill="#000000" fill-rule="evenodd" fill-opacity="1" /><path clip-path="url(#clip840)" d="M 0 0 M0.417493 729.443 Q0.868376 729.443 1.93117 729.733 L27.1162 736.045 Q32.72 737.43 36.6491 741.939 Q40.5782 746.416 40.5782 751.504 Q40.5782 754.564 38.9357 756.528 Q37.3254 758.493 34.8456 758.493 Q32.6556 758.493 31.5928 757.333 Q30.5622 756.174 30.5622 754.789 Q30.5622 754.338 30.691 753.855 Q30.8198 753.372 31.3673 752.857 Q31.9148 752.341 32.8488 752.341 Q34.3625 752.341 35.5541 753.662 Q36.1016 754.306 36.2304 754.918 Q36.3592 755.498 36.3592 756.496 Q37.261 756.11 37.8729 755.401 Q38.4848 754.692 38.7103 753.887 Q38.9679 753.082 39.0323 752.567 Q39.1289 752.019 39.1289 751.504 Q39.1289 747.382 34.9744 744.226 Q33.7184 743.292 32.4623 742.615 Q31.2385 741.907 29.7248 741.391 Q28.2434 740.876 27.4382 740.651 Q26.6331 740.393 24.7973 739.942 Q27.7925 742.937 27.7925 746.609 Q27.7925 748.155 27.3738 749.54 Q26.9551 750.892 26.0856 752.084 Q25.1838 753.275 23.6057 753.984 Q22.0276 754.66 19.9342 754.66 Q17.712 754.66 14.6847 753.791 Q11.6573 752.921 6.08573 750.828 Q2.96176 749.701 1.44808 749.701 Q0.707346 749.701 0.256464 749.862 Q-0.226624 750.023 -0.387653 750.345 Q-0.580888 750.667 -0.613094 750.86 Q-0.6453 751.021 -0.6453 751.343 Q-0.6453 753.243 1.28705 755.015 Q3.2194 756.786 7.53499 758.01 Q8.34014 758.267 8.53337 758.428 Q8.72661 758.589 8.72661 759.072 Q8.6944 759.878 8.05028 759.878 Q7.79264 759.878 6.79425 759.588 Q5.76367 759.298 4.24999 758.622 Q2.70411 757.913 1.31926 756.947 Q-0.0978003 755.981 -1.09618 754.467 Q-2.09456 752.921 -2.09456 751.15 Q-2.09456 748.734 -0.516476 747.253 Q1.0294 745.739 3.31602 745.739 Q4.24999 745.739 5.08734 745.997 Q5.89249 746.222 8.05028 747.06 Q16.7459 750.441 20.997 750.441 Q22.0276 750.441 22.8972 750.28 Q23.7345 750.087 24.5719 749.668 Q25.377 749.25 25.8601 748.412 Q26.311 747.543 26.311 746.351 Q26.311 744.837 25.6025 743.42 Q24.8617 741.971 23.8634 741.069 Q22.865 740.135 22.0276 739.588 Q21.1581 739.008 20.7072 738.879 L8.85543 735.916 L3.57367 734.596 Q0.707346 733.984 -0.0011827 733.694 Q-0.677506 733.308 -1.03177 732.631 Q-1.38603 731.955 -1.38603 731.375 Q-1.38603 730.57 -0.902947 730.023 Q-0.419859 729.443 0.417493 729.443 Z" fill="#000000" fill-rule="evenodd" fill-opacity="1" /><path clip-path="url(#clip840)" d="
M58.0424 791.878 L58.0424 691.276 L54.5224 691.276 L54.5224 791.878  Z
  " fill="#000000" fill-rule="evenodd" fill-opacity="1"/>
<path clip-path="url(#clip840)" d="M 0 0 M72.4321 735.743 Q72.8508 735.743 73.1406 735.839 Q73.3983 735.936 73.5271 736.161 Q73.6559 736.387 73.6881 736.516 Q73.7203 736.645 73.7525 736.934 Q73.8814 738.319 74.1068 739.285 Q74.3322 740.219 75.4917 742.538 Q76.6511 744.825 78.7444 747.691 L87.6655 759.221 L89.1791 761.153 Q89.2758 761.153 89.469 761.089 Q89.63 761.024 89.8555 760.96 Q90.0487 760.863 90.1131 760.831 L111.723 751.459 Q113.462 750.719 114.074 749.817 Q114.686 748.915 114.718 746.886 Q114.718 746.564 114.751 746.435 Q114.751 746.274 114.815 746.049 Q114.847 745.791 115.008 745.694 Q115.169 745.566 115.427 745.566 Q116.747 745.566 116.747 746.757 Q116.747 747.498 116.651 750.01 Q116.554 752.522 116.554 753.231 Q116.554 754.551 116.651 757.256 Q116.747 759.962 116.747 761.282 Q116.747 762.216 116.007 762.216 Q115.395 762.216 115.105 761.991 Q114.783 761.733 114.751 761.507 Q114.718 761.282 114.718 760.767 Q114.718 760.38 114.686 759.962 Q114.622 759.511 114.461 758.867 Q114.268 758.19 113.817 757.772 Q113.334 757.321 112.657 757.321 Q112.11 757.321 110.338 758.126 L92.593 765.759 L100.258 775.581 L110.628 778.222 Q111.015 778.287 111.691 778.448 Q112.367 778.609 112.85 778.738 Q113.334 778.834 113.527 778.834 Q113.945 778.834 114.203 778.577 Q114.461 778.287 114.59 777.578 Q114.686 776.87 114.718 776.322 Q114.718 775.742 114.718 774.551 Q114.718 773.069 114.976 772.812 Q115.137 772.683 115.427 772.683 Q115.878 772.683 116.2 772.812 Q116.49 772.941 116.586 773.198 Q116.683 773.424 116.715 773.585 Q116.747 773.746 116.747 774.003 Q116.747 774.68 116.683 776.129 Q116.619 777.546 116.619 778.287 L116.554 782.506 L116.747 790.879 Q116.747 791.878 115.942 791.878 Q115.33 791.878 115.073 791.62 Q114.783 791.362 114.751 791.072 Q114.718 790.783 114.718 790.042 Q114.718 788.432 114.622 787.465 Q114.525 786.499 114.396 785.887 Q114.235 785.243 113.784 784.921 Q113.334 784.567 112.947 784.406 Q112.528 784.245 111.594 784.019 L76.168 775.195 Q75.1052 774.937 74.9442 774.937 Q74.3967 774.937 74.2034 775.259 Q73.978 775.549 73.8814 776.387 Q73.7525 777.997 73.7525 779.221 Q73.7525 780.026 73.7203 780.348 Q73.6881 780.638 73.5271 780.895 Q73.3339 781.121 72.9474 781.121 Q71.6914 781.121 71.6914 779.8 L71.8846 771.298 L71.6914 762.86 Q71.6914 761.926 72.4321 761.926 Q73.3661 761.926 73.5593 762.377 Q73.7525 762.796 73.7525 764.181 Q73.7525 766.596 74.0746 767.691 Q74.3645 768.754 74.8797 769.076 Q75.3628 769.366 76.7799 769.72 L97.9391 775.002 L78.1647 749.269 Q76.168 746.886 75.1374 746.886 Q74.4611 746.886 74.1712 747.369 Q73.8492 747.82 73.7525 748.947 Q73.6237 749.752 73.0118 749.752 Q72.3999 749.752 72.11 749.527 Q71.788 749.269 71.7558 749.076 Q71.6914 748.851 71.6914 748.496 Q71.6914 747.305 71.788 744.825 Q71.8846 742.345 71.8846 741.153 Q71.8846 740.348 71.788 738.77 Q71.6914 737.192 71.6914 736.484 Q71.6914 736.129 71.949 735.936 Q72.1745 735.743 72.4321 735.743 Z" fill="#000000" fill-rule="evenodd" fill-opacity="1" /><path clip-path="url(#clip840)" d="M 0 0 M115.844 705.122 Q119.136 705.122 122.315 706.79 Q125.493 708.436 127.455 711.028 Q129.393 713.621 129.393 716.258 Q129.393 717.837 128.537 718.896 Q127.657 719.933 126.418 720.497 Q127.951 720.925 131.625 721.849 Q135.3 722.774 135.661 722.774 Q135.864 722.774 135.954 722.729 Q136.044 722.684 136.157 722.481 Q136.292 722.278 136.337 721.782 Q136.405 721.286 136.405 720.452 Q136.405 720.023 136.405 719.865 Q136.427 719.685 136.54 719.527 Q136.653 719.347 136.901 719.347 Q137.825 719.347 137.825 720.181 Q137.825 720.925 137.757 722.458 Q137.69 723.991 137.69 724.758 Q137.69 725.411 137.757 726.719 Q137.825 728.026 137.825 728.635 Q137.825 729.244 137.284 729.244 Q136.968 729.244 136.765 729.154 Q136.585 729.086 136.495 728.906 Q136.427 728.725 136.405 728.568 Q136.405 728.432 136.405 728.162 Q136.405 727.125 136.224 726.674 Q136.066 726.223 135.728 726.065 Q135.413 725.885 134.511 725.682 L113.951 720.497 Q112.575 720.181 111.606 720.181 Q110.389 720.181 109.938 720.564 Q109.487 720.948 109.487 721.624 Q109.487 722.796 110.885 723.563 Q112.282 724.329 114.988 724.983 Q115.732 725.186 115.889 725.321 Q116.047 725.434 116.047 725.772 Q116.025 726.336 115.574 726.336 Q115.461 726.336 114.74 726.155 Q113.996 725.975 112.914 725.637 Q111.809 725.276 111.11 724.893 Q110.637 724.667 110.321 724.464 Q110.005 724.262 109.509 723.856 Q109.014 723.427 108.743 722.819 Q108.472 722.21 108.472 721.466 Q108.472 720.023 109.329 718.828 Q110.186 717.634 111.922 717.318 Q110.411 716.033 109.442 714.455 Q108.472 712.877 108.472 711.276 Q108.472 708.616 110.547 706.88 Q112.598 705.122 115.844 705.122 M113.815 708.458 Q111.764 708.458 110.637 709.247 Q109.487 710.014 109.487 711.411 Q109.487 713.147 111.245 715.154 Q112.914 717.138 114.469 717.543 L123.509 719.82 L124.253 719.956 Q124.389 719.956 124.794 719.888 Q125.178 719.798 125.809 719.55 Q126.44 719.279 127.004 718.919 Q127.545 718.535 127.951 717.859 Q128.356 717.16 128.356 716.304 Q128.356 714.928 127.139 713.44 Q125.922 711.93 123.622 710.803 Q122.134 710.104 118.933 709.292 Q115.709 708.458 113.815 708.458 Z" fill="#000000" fill-rule="evenodd" fill-opacity="1" /><polyline clip-path="url(#clip843)" style="stroke:#009af9; stroke-width:8; stroke-opacity:1; fill:none" points="
  408.237,1403.45 417.18,1403.45 426.122,1403.45 508.806,1403.45 591.49,1403.45 616.335,1403.45 641.18,1403.45 666.025,1403.45 690.87,1403.45 696.121,1403.45 
  701.373,1403.45 703.999,1403.45 706.624,1403.45 707.937,1403.45 709.25,1403.45 710.563,1403.45 711.876,1403.45 712.532,1403.45 713.189,1403.45 713.845,86.7452 
  714.502,89.574 715.158,92.3967 715.815,95.2133 716.471,98.0239 717.127,100.828 719.753,111.986 722.379,123.049 727.63,144.89 732.882,166.359 743.385,208.204 
  753.888,248.634 764.391,287.697 774.894,325.437 797.713,403.091 820.531,475.15 843.349,542.019 866.168,604.071 908.241,707.003 950.314,796.681 995.421,880.04 
  1040.53,951.947 1092.79,1023 1145.05,1082.87 1191.49,1128.12 1237.94,1166.98 1278.66,1196.52 1319.39,1222.37 1408.19,1268.08 1497.53,1302.43 1596.3,1330.36 
  1690.27,1349.73 1787.99,1364.44 1870.24,1373.66 1970.67,1382.01 2065.07,1387.71 2216.3,1393.86 2239.58,1394.57 
  "/>
<polyline clip-path="url(#clip843)" style="stroke:#e26f46; stroke-width:8; stroke-opacity:1; fill:none" points="
  353.297,1403.45 362.776,1403.45 372.255,1403.45 459.9,1403.45 547.545,1403.45 600.216,1403.45 652.888,1403.45 675.154,1403.45 697.42,1403.45 702.987,1403.45 
  708.554,1403.45 714.12,1400.6 719.687,1376.83 730.82,1330.56 741.953,1285.95 766.141,1194.46 790.328,1109.94 814.516,1031.86 838.703,959.729 861.002,898.108 
  883.301,840.829 905.6,787.585 927.899,738.092 975.712,643.408 1023.53,562.453 1078.92,483.221 1134.32,417.14 1183.55,367.679 1232.78,325.585 1275.95,293.865 
  1319.12,266.329 1413.25,218.23 1507.95,182.716 1612.64,154.367 1712.26,135.075 1815.83,120.69 1903.02,111.843 2009.47,103.965 2109.54,98.6878 2269.85,93.1304 
  2294.52,92.5058 
  "/>
<path clip-path="url(#clip840)" d="
M1875.6 1396.43 L2284.17 1396.43 L2284.17 1214.99 L1875.6 1214.99  Z
  " fill="#ffffff" fill-rule="evenodd" fill-opacity="1"/>
<polyline clip-path="url(#clip840)" style="stroke:#000000; stroke-width:4; stroke-opacity:1; fill:none" points="
  1875.6,1396.43 2284.17,1396.43 2284.17,1214.99 1875.6,1214.99 1875.6,1396.43 
  "/>
<polyline clip-path="url(#clip840)" style="stroke:#009af9; stroke-width:4; stroke-opacity:1; fill:none" points="
  1898.47,1275.47 2035.65,1275.47 
  "/>
<path clip-path="url(#clip840)" d="M 0 0 M2058.51 1258.19 L2063.19 1258.19 L2063.19 1292.75 L2058.51 1292.75 L2058.51 1258.19 Z" fill="#000000" fill-rule="evenodd" fill-opacity="1" /><path clip-path="url(#clip840)" d="M 0 0 M2092.49 1271.8 Q2094.09 1268.93 2096.31 1267.56 Q2098.53 1266.2 2101.54 1266.2 Q2105.59 1266.2 2107.79 1269.04 Q2109.99 1271.87 2109.99 1277.1 L2109.99 1292.75 L2105.71 1292.75 L2105.71 1277.24 Q2105.71 1273.51 2104.39 1271.7 Q2103.07 1269.9 2100.36 1269.9 Q2097.05 1269.9 2095.13 1272.1 Q2093.21 1274.3 2093.21 1278.09 L2093.21 1292.75 L2088.93 1292.75 L2088.93 1277.24 Q2088.93 1273.49 2087.61 1271.7 Q2086.29 1269.9 2083.53 1269.9 Q2080.27 1269.9 2078.35 1272.12 Q2076.43 1274.32 2076.43 1278.09 L2076.43 1292.75 L2072.14 1292.75 L2072.14 1266.82 L2076.43 1266.82 L2076.43 1270.85 Q2077.88 1268.46 2079.92 1267.33 Q2081.96 1266.2 2084.76 1266.2 Q2087.58 1266.2 2089.55 1267.63 Q2091.54 1269.07 2092.49 1271.8 Z" fill="#000000" fill-rule="evenodd" fill-opacity="1" /><path clip-path="url(#clip840)" d="M 0 0 M2122.61 1288.86 L2122.61 1302.61 L2118.32 1302.61 L2118.32 1266.82 L2122.61 1266.82 L2122.61 1270.76 Q2123.95 1268.44 2125.99 1267.33 Q2128.05 1266.2 2130.89 1266.2 Q2135.62 1266.2 2138.56 1269.95 Q2141.52 1273.7 2141.52 1279.81 Q2141.52 1285.92 2138.56 1289.67 Q2135.62 1293.42 2130.89 1293.42 Q2128.05 1293.42 2125.99 1292.31 Q2123.95 1291.17 2122.61 1288.86 M2137.1 1279.81 Q2137.1 1275.11 2135.15 1272.45 Q2133.23 1269.76 2129.85 1269.76 Q2126.47 1269.76 2124.53 1272.45 Q2122.61 1275.11 2122.61 1279.81 Q2122.61 1284.51 2124.53 1287.19 Q2126.47 1289.85 2129.85 1289.85 Q2133.23 1289.85 2135.15 1287.19 Q2137.1 1284.51 2137.1 1279.81 Z" fill="#000000" fill-rule="evenodd" fill-opacity="1" /><path clip-path="url(#clip840)" d="M 0 0 M2148.14 1282.51 L2148.14 1266.82 L2152.4 1266.82 L2152.4 1282.35 Q2152.4 1286.03 2153.83 1287.89 Q2155.27 1289.71 2158.14 1289.71 Q2161.59 1289.71 2163.58 1287.51 Q2165.59 1285.32 2165.59 1281.52 L2165.59 1266.82 L2169.85 1266.82 L2169.85 1292.75 L2165.59 1292.75 L2165.59 1288.76 Q2164.04 1291.13 2161.98 1292.28 Q2159.94 1293.42 2157.24 1293.42 Q2152.77 1293.42 2150.45 1290.64 Q2148.14 1287.86 2148.14 1282.51 M2158.86 1266.2 L2158.86 1266.2 Z" fill="#000000" fill-rule="evenodd" fill-opacity="1" /><path clip-path="url(#clip840)" d="M 0 0 M2178.62 1256.73 L2182.88 1256.73 L2182.88 1292.75 L2178.62 1292.75 L2178.62 1256.73 Z" fill="#000000" fill-rule="evenodd" fill-opacity="1" /><path clip-path="url(#clip840)" d="M 0 0 M2208.32 1267.58 L2208.32 1271.61 Q2206.52 1270.69 2204.57 1270.22 Q2202.63 1269.76 2200.55 1269.76 Q2197.37 1269.76 2195.78 1270.73 Q2194.2 1271.7 2194.2 1273.65 Q2194.2 1275.13 2195.34 1275.99 Q2196.47 1276.82 2199.9 1277.58 L2201.36 1277.91 Q2205.89 1278.88 2207.79 1280.66 Q2209.71 1282.42 2209.71 1285.59 Q2209.71 1289.2 2206.84 1291.31 Q2204 1293.42 2199 1293.42 Q2196.91 1293.42 2194.64 1293 Q2192.4 1292.61 2189.9 1291.8 L2189.9 1287.4 Q2192.26 1288.63 2194.55 1289.25 Q2196.84 1289.85 2199.09 1289.85 Q2202.1 1289.85 2203.72 1288.83 Q2205.34 1287.79 2205.34 1285.92 Q2205.34 1284.18 2204.16 1283.26 Q2203 1282.33 2199.04 1281.47 L2197.56 1281.13 Q2193.6 1280.29 2191.84 1278.58 Q2190.08 1276.84 2190.08 1273.83 Q2190.08 1270.18 2192.68 1268.19 Q2195.27 1266.2 2200.04 1266.2 Q2202.4 1266.2 2204.48 1266.54 Q2206.56 1266.89 2208.32 1267.58 Z" fill="#000000" fill-rule="evenodd" fill-opacity="1" /><path clip-path="url(#clip840)" d="M 0 0 M2226.54 1269.81 Q2223.12 1269.81 2221.12 1272.49 Q2219.13 1275.15 2219.13 1279.81 Q2219.13 1284.46 2221.1 1287.14 Q2223.09 1289.81 2226.54 1289.81 Q2229.94 1289.81 2231.93 1287.12 Q2233.93 1284.44 2233.93 1279.81 Q2233.93 1275.2 2231.93 1272.51 Q2229.94 1269.81 2226.54 1269.81 M2226.54 1266.2 Q2232.1 1266.2 2235.27 1269.81 Q2238.44 1273.42 2238.44 1279.81 Q2238.44 1286.17 2235.27 1289.81 Q2232.1 1293.42 2226.54 1293.42 Q2220.96 1293.42 2217.79 1289.81 Q2214.64 1286.17 2214.64 1279.81 Q2214.64 1273.42 2217.79 1269.81 Q2220.96 1266.2 2226.54 1266.2 Z" fill="#000000" fill-rule="evenodd" fill-opacity="1" /><polyline clip-path="url(#clip840)" style="stroke:#e26f46; stroke-width:4; stroke-opacity:1; fill:none" points="
  1898.47,1335.95 2035.65,1335.95 
  "/>
<path clip-path="url(#clip840)" d="M 0 0 M2058.51 1318.67 L2080.36 1318.67 L2080.36 1322.6 L2063.19 1322.6 L2063.19 1332.83 L2079.64 1332.83 L2079.64 1336.77 L2063.19 1336.77 L2063.19 1349.29 L2080.78 1349.29 L2080.78 1353.23 L2058.51 1353.23 L2058.51 1318.67 Z" fill="#000000" fill-rule="evenodd" fill-opacity="1" /><path clip-path="url(#clip840)" d="M 0 0 M2104.81 1328.06 L2104.81 1332.09 Q2103 1331.17 2101.06 1330.7 Q2099.11 1330.24 2097.03 1330.24 Q2093.86 1330.24 2092.26 1331.21 Q2090.69 1332.18 2090.69 1334.13 Q2090.69 1335.61 2091.82 1336.47 Q2092.95 1337.3 2096.38 1338.06 L2097.84 1338.39 Q2102.38 1339.36 2104.27 1341.14 Q2106.19 1342.9 2106.19 1346.07 Q2106.19 1349.68 2103.32 1351.79 Q2100.48 1353.9 2095.48 1353.9 Q2093.39 1353.9 2091.13 1353.48 Q2088.88 1353.09 2086.38 1352.28 L2086.38 1347.88 Q2088.74 1349.11 2091.03 1349.73 Q2093.32 1350.33 2095.57 1350.33 Q2098.58 1350.33 2100.2 1349.31 Q2101.82 1348.27 2101.82 1346.4 Q2101.82 1344.66 2100.64 1343.74 Q2099.48 1342.81 2095.52 1341.95 L2094.04 1341.61 Q2090.08 1340.77 2088.32 1339.06 Q2086.57 1337.32 2086.57 1334.31 Q2086.57 1330.66 2089.16 1328.67 Q2091.75 1326.68 2096.52 1326.68 Q2098.88 1326.68 2100.96 1327.02 Q2103.05 1327.37 2104.81 1328.06 Z" fill="#000000" fill-rule="evenodd" fill-opacity="1" /><path clip-path="url(#clip840)" d="M 0 0 M2131.63 1328.3 L2131.63 1332.28 Q2129.83 1331.28 2128 1330.8 Q2126.19 1330.29 2124.34 1330.29 Q2120.2 1330.29 2117.91 1332.93 Q2115.62 1335.54 2115.62 1340.29 Q2115.62 1345.03 2117.91 1347.67 Q2120.2 1350.29 2124.34 1350.29 Q2126.19 1350.29 2128 1349.8 Q2129.83 1349.29 2131.63 1348.3 L2131.63 1352.23 Q2129.85 1353.06 2127.93 1353.48 Q2126.03 1353.9 2123.88 1353.9 Q2118.02 1353.9 2114.57 1350.22 Q2111.13 1346.54 2111.13 1340.29 Q2111.13 1333.94 2114.6 1330.31 Q2118.09 1326.68 2124.16 1326.68 Q2126.13 1326.68 2128 1327.09 Q2129.88 1327.49 2131.63 1328.3 Z" fill="#000000" fill-rule="evenodd" fill-opacity="1" /><path clip-path="url(#clip840)" d="M 0 0 M2150.82 1340.19 Q2145.66 1340.19 2143.67 1341.37 Q2141.68 1342.56 2141.68 1345.4 Q2141.68 1347.67 2143.16 1349.01 Q2144.67 1350.33 2147.24 1350.33 Q2150.78 1350.33 2152.91 1347.83 Q2155.06 1345.31 2155.06 1341.14 L2155.06 1340.19 L2150.82 1340.19 M2159.32 1338.43 L2159.32 1353.23 L2155.06 1353.23 L2155.06 1349.29 Q2153.6 1351.65 2151.43 1352.79 Q2149.25 1353.9 2146.1 1353.9 Q2142.12 1353.9 2139.76 1351.68 Q2137.42 1349.43 2137.42 1345.68 Q2137.42 1341.31 2140.34 1339.08 Q2143.28 1336.86 2149.09 1336.86 L2155.06 1336.86 L2155.06 1336.44 Q2155.06 1333.5 2153.12 1331.91 Q2151.19 1330.29 2147.7 1330.29 Q2145.48 1330.29 2143.37 1330.82 Q2141.26 1331.35 2139.32 1332.42 L2139.32 1328.48 Q2141.66 1327.58 2143.86 1327.14 Q2146.06 1326.68 2148.14 1326.68 Q2153.76 1326.68 2156.54 1329.59 Q2159.32 1332.51 2159.32 1338.43 Z" fill="#000000" fill-rule="evenodd" fill-opacity="1" /><path clip-path="url(#clip840)" d="M 0 0 M2168.09 1317.21 L2172.35 1317.21 L2172.35 1353.23 L2168.09 1353.23 L2168.09 1317.21 Z" fill="#000000" fill-rule="evenodd" fill-opacity="1" /><path clip-path="url(#clip840)" d="M 0 0 M2191.31 1330.29 Q2187.88 1330.29 2185.89 1332.97 Q2183.9 1335.63 2183.9 1340.29 Q2183.9 1344.94 2185.87 1347.62 Q2187.86 1350.29 2191.31 1350.29 Q2194.71 1350.29 2196.7 1347.6 Q2198.69 1344.92 2198.69 1340.29 Q2198.69 1335.68 2196.7 1332.99 Q2194.71 1330.29 2191.31 1330.29 M2191.31 1326.68 Q2196.87 1326.68 2200.04 1330.29 Q2203.21 1333.9 2203.21 1340.29 Q2203.21 1346.65 2200.04 1350.29 Q2196.87 1353.9 2191.31 1353.9 Q2185.73 1353.9 2182.56 1350.29 Q2179.41 1346.65 2179.41 1340.29 Q2179.41 1333.9 2182.56 1330.29 Q2185.73 1326.68 2191.31 1326.68 M2194.53 1315.31 L2199.13 1315.31 L2191.59 1324.01 L2188.05 1324.01 L2194.53 1315.31 Z" fill="#000000" fill-rule="evenodd" fill-opacity="1" /><path clip-path="url(#clip840)" d="M 0 0 M2231.82 1337.58 L2231.82 1353.23 L2227.56 1353.23 L2227.56 1337.72 Q2227.56 1334.04 2226.12 1332.21 Q2224.69 1330.38 2221.82 1330.38 Q2218.37 1330.38 2216.38 1332.58 Q2214.39 1334.78 2214.39 1338.57 L2214.39 1353.23 L2210.11 1353.23 L2210.11 1327.3 L2214.39 1327.3 L2214.39 1331.33 Q2215.92 1328.99 2217.98 1327.83 Q2220.06 1326.68 2222.77 1326.68 Q2227.24 1326.68 2229.53 1329.45 Q2231.82 1332.21 2231.82 1337.58 Z" fill="#000000" fill-rule="evenodd" fill-opacity="1" /></svg>
