<?xml version="1.0" encoding="utf-8"?>
<svg xmlns="http://www.w3.org/2000/svg" xmlns:xlink="http://www.w3.org/1999/xlink" width="600" height="400" viewBox="0 0 2400 1600">
<defs>
  <clipPath id="clip800">
    <rect x="0" y="0" width="2400" height="1600"/>
  </clipPath>
</defs>
<path clip-path="url(#clip800)" d="
M0 1600 L2400 1600 L2400 0 L0 0  Z
  " fill="#ffffff" fill-rule="evenodd" fill-opacity="1"/>
<defs>
  <clipPath id="clip801">
    <rect x="480" y="0" width="1681" height="1600"/>
  </clipPath>
</defs>
<path clip-path="url(#clip800)" d="
M310.435 1388.53 L2352.76 1388.53 L2352.76 47.2441 L310.435 47.2441  Z
  " fill="#ffffff" fill-rule="evenodd" fill-opacity="1"/>
<defs>
  <clipPath id="clip802">
    <rect x="310" y="47" width="2043" height="1342"/>
  </clipPath>
</defs>
<polyline clip-path="url(#clip802)" style="stroke:#000000; stroke-width:2; stroke-opacity:0.1; fill:none" points="
  310.435,1388.53 310.435,47.2441 
  "/>
<polyline clip-path="url(#clip802)" style="stroke:#000000; stroke-width:2; stroke-opacity:0.1; fill:none" points="
  650.822,1388.53 650.822,47.2441 
  "/>
<polyline clip-path="url(#clip802)" style="stroke:#000000; stroke-width:2; stroke-opacity:0.1; fill:none" points="
  991.209,1388.53 991.209,47.2441 
  "/>
<polyline clip-path="url(#clip802)" style="stroke:#000000; stroke-width:2; stroke-opacity:0.1; fill:none" points="
  1331.6,1388.53 1331.6,47.2441 
  "/>
<polyline clip-path="url(#clip802)" style="stroke:#000000; stroke-width:2; stroke-opacity:0.1; fill:none" points="
  1671.98,1388.53 1671.98,47.2441 
  "/>
<polyline clip-path="url(#clip802)" style="stroke:#000000; stroke-width:2; stroke-opacity:0.1; fill:none" points="
  2012.37,1388.53 2012.37,47.2441 
  "/>
<polyline clip-path="url(#clip802)" style="stroke:#000000; stroke-width:2; stroke-opacity:0.1; fill:none" points="
  2352.76,1388.53 2352.76,47.2441 
  "/>
<polyline clip-path="url(#clip800)" style="stroke:#000000; stroke-width:4; stroke-opacity:1; fill:none" points="
  310.435,1388.53 2352.76,1388.53 
  "/>
<polyline clip-path="url(#clip800)" style="stroke:#000000; stroke-width:4; stroke-opacity:1; fill:none" points="
  310.435,1388.53 310.435,1372.43 
  "/>
<polyline clip-path="url(#clip800)" style="stroke:#000000; stroke-width:4; stroke-opacity:1; fill:none" points="
  650.822,1388.53 650.822,1372.43 
  "/>
<polyline clip-path="url(#clip800)" style="stroke:#000000; stroke-width:4; stroke-opacity:1; fill:none" points="
  991.209,1388.53 991.209,1372.43 
  "/>
<polyline clip-path="url(#clip800)" style="stroke:#000000; stroke-width:4; stroke-opacity:1; fill:none" points="
  1331.6,1388.53 1331.6,1372.43 
  "/>
<polyline clip-path="url(#clip800)" style="stroke:#000000; stroke-width:4; stroke-opacity:1; fill:none" points="
  1671.98,1388.53 1671.98,1372.43 
  "/>
<polyline clip-path="url(#clip800)" style="stroke:#000000; stroke-width:4; stroke-opacity:1; fill:none" points="
  2012.37,1388.53 2012.37,1372.43 
  "/>
<polyline clip-path="url(#clip800)" style="stroke:#000000; stroke-width:4; stroke-opacity:1; fill:none" points="
  2352.76,1388.53 2352.76,1372.43 
  "/>
<path clip-path="url(#clip800)" d="M 0 0 M280.192 1432.37 L309.868 1432.37 L309.868 1436.3 L280.192 1436.3 L280.192 1432.37 Z" fill="#000000" fill-rule="evenodd" fill-opacity="1" /><path clip-path="url(#clip800)" d="M 0 0 M320.771 1445.26 L328.41 1445.26 L328.41 1418.9 L320.1 1420.56 L320.1 1416.3 L328.364 1414.64 L333.039 1414.64 L333.039 1445.26 L340.678 1445.26 L340.678 1449.2 L320.771 1449.2 L320.771 1445.26 Z" fill="#000000" fill-rule="evenodd" fill-opacity="1" /><path clip-path="url(#clip800)" d="M 0 0 M650.822 1417.72 Q647.211 1417.72 645.382 1421.28 Q643.577 1424.82 643.577 1431.95 Q643.577 1439.06 645.382 1442.62 Q647.211 1446.17 650.822 1446.17 Q654.456 1446.17 656.262 1442.62 Q658.091 1439.06 658.091 1431.95 Q658.091 1424.82 656.262 1421.28 Q654.456 1417.72 650.822 1417.72 M650.822 1414.01 Q656.632 1414.01 659.688 1418.62 Q662.767 1423.2 662.767 1431.95 Q662.767 1440.68 659.688 1445.29 Q656.632 1449.87 650.822 1449.87 Q645.012 1449.87 641.933 1445.29 Q638.878 1440.68 638.878 1431.95 Q638.878 1423.2 641.933 1418.62 Q645.012 1414.01 650.822 1414.01 Z" fill="#000000" fill-rule="evenodd" fill-opacity="1" /><path clip-path="url(#clip800)" d="M 0 0 M981.591 1445.26 L989.23 1445.26 L989.23 1418.9 L980.92 1420.56 L980.92 1416.3 L989.183 1414.64 L993.859 1414.64 L993.859 1445.26 L1001.5 1445.26 L1001.5 1449.2 L981.591 1449.2 L981.591 1445.26 Z" fill="#000000" fill-rule="evenodd" fill-opacity="1" /><path clip-path="url(#clip800)" d="M 0 0 M1326.25 1445.26 L1342.57 1445.26 L1342.57 1449.2 L1320.62 1449.2 L1320.62 1445.26 Q1323.29 1442.51 1327.87 1437.88 Q1332.48 1433.23 1333.66 1431.88 Q1335.9 1429.36 1336.78 1427.62 Q1337.68 1425.86 1337.68 1424.18 Q1337.68 1421.42 1335.74 1419.68 Q1333.82 1417.95 1330.72 1417.95 Q1328.52 1417.95 1326.06 1418.71 Q1323.63 1419.48 1320.85 1421.03 L1320.85 1416.3 Q1323.68 1415.17 1326.13 1414.59 Q1328.59 1414.01 1330.62 1414.01 Q1335.99 1414.01 1339.19 1416.7 Q1342.38 1419.38 1342.38 1423.87 Q1342.38 1426 1341.57 1427.93 Q1340.79 1429.82 1338.68 1432.42 Q1338.1 1433.09 1335 1436.3 Q1331.9 1439.5 1326.25 1445.26 Z" fill="#000000" fill-rule="evenodd" fill-opacity="1" /><path clip-path="url(#clip800)" d="M 0 0 M1676.23 1430.56 Q1679.59 1431.28 1681.46 1433.55 Q1683.36 1435.82 1683.36 1439.15 Q1683.36 1444.27 1679.84 1447.07 Q1676.32 1449.87 1669.84 1449.87 Q1667.67 1449.87 1665.35 1449.43 Q1663.06 1449.01 1660.61 1448.16 L1660.61 1443.64 Q1662.55 1444.78 1664.86 1445.36 Q1667.18 1445.93 1669.7 1445.93 Q1674.1 1445.93 1676.39 1444.2 Q1678.71 1442.46 1678.71 1439.15 Q1678.71 1436.1 1676.55 1434.38 Q1674.42 1432.65 1670.61 1432.65 L1666.58 1432.65 L1666.58 1428.8 L1670.79 1428.8 Q1674.24 1428.8 1676.07 1427.44 Q1677.9 1426.05 1677.9 1423.46 Q1677.9 1420.8 1676 1419.38 Q1674.12 1417.95 1670.61 1417.95 Q1668.68 1417.95 1666.48 1418.36 Q1664.29 1418.78 1661.65 1419.66 L1661.65 1415.49 Q1664.31 1414.75 1666.62 1414.38 Q1668.96 1414.01 1671.02 1414.01 Q1676.35 1414.01 1679.45 1416.44 Q1682.55 1418.85 1682.55 1422.97 Q1682.55 1425.84 1680.91 1427.83 Q1679.26 1429.8 1676.23 1430.56 Z" fill="#000000" fill-rule="evenodd" fill-opacity="1" /><path clip-path="url(#clip800)" d="M 0 0 M2015.38 1418.71 L2003.57 1437.16 L2015.38 1437.16 L2015.38 1418.71 M2014.15 1414.64 L2020.03 1414.64 L2020.03 1437.16 L2024.96 1437.16 L2024.96 1441.05 L2020.03 1441.05 L2020.03 1449.2 L2015.38 1449.2 L2015.38 1441.05 L1999.78 1441.05 L1999.78 1436.54 L2014.15 1414.64 Z" fill="#000000" fill-rule="evenodd" fill-opacity="1" /><path clip-path="url(#clip800)" d="M 0 0 M2343.03 1414.64 L2361.39 1414.64 L2361.39 1418.57 L2347.32 1418.57 L2347.32 1427.05 Q2348.33 1426.7 2349.35 1426.54 Q2350.37 1426.35 2351.39 1426.35 Q2357.18 1426.35 2360.56 1429.52 Q2363.94 1432.69 2363.94 1438.11 Q2363.94 1443.69 2360.46 1446.79 Q2356.99 1449.87 2350.67 1449.87 Q2348.5 1449.87 2346.23 1449.5 Q2343.98 1449.13 2341.58 1448.39 L2341.58 1443.69 Q2343.66 1444.82 2345.88 1445.38 Q2348.1 1445.93 2350.58 1445.93 Q2354.58 1445.93 2356.92 1443.83 Q2359.26 1441.72 2359.26 1438.11 Q2359.26 1434.5 2356.92 1432.39 Q2354.58 1430.29 2350.58 1430.29 Q2348.71 1430.29 2346.83 1430.7 Q2344.98 1431.12 2343.03 1432 L2343.03 1414.64 Z" fill="#000000" fill-rule="evenodd" fill-opacity="1" /><path clip-path="url(#clip800)" d="M 0 0 M1342.05 1477.23 Q1342.05 1478.14 1341.63 1478.36 Q1341.21 1478.55 1340.05 1478.55 L1333.87 1478.55 L1328.97 1498.01 Q1328.59 1499.71 1328.59 1501.16 Q1328.59 1502.77 1329.07 1503.48 Q1329.59 1504.19 1330.65 1504.19 Q1332.74 1504.19 1335 1502.29 Q1337.28 1500.39 1339.21 1495.75 Q1339.47 1495.14 1339.6 1495.01 Q1339.76 1494.85 1340.18 1494.85 Q1340.99 1494.85 1340.99 1495.49 Q1340.99 1495.72 1340.54 1496.75 Q1340.12 1497.78 1339.18 1499.29 Q1338.28 1500.81 1337.09 1502.23 Q1335.93 1503.64 1334.16 1504.67 Q1332.39 1505.67 1330.49 1505.67 Q1327.81 1505.67 1326.11 1503.96 Q1324.43 1502.26 1324.43 1499.58 Q1324.43 1498.71 1325.11 1495.95 Q1325.79 1493.14 1329.46 1478.55 L1323.63 1478.55 Q1322.82 1478.55 1322.5 1478.52 Q1322.21 1478.49 1321.98 1478.33 Q1321.79 1478.14 1321.79 1477.75 Q1321.79 1477.14 1322.05 1476.88 Q1322.31 1476.59 1322.63 1476.56 Q1322.98 1476.49 1323.79 1476.49 L1329.97 1476.49 L1332.55 1466.03 Q1332.81 1465 1333.45 1464.42 Q1334.13 1463.8 1334.51 1463.74 Q1334.9 1463.64 1335.19 1463.64 Q1336.06 1463.64 1336.57 1464.13 Q1337.09 1464.58 1337.09 1465.41 Q1337.09 1465.86 1334.38 1476.49 L1340.18 1476.49 Q1340.92 1476.49 1341.21 1476.53 Q1341.53 1476.56 1341.79 1476.72 Q1342.05 1476.88 1342.05 1477.23 Z" fill="#000000" fill-rule="evenodd" fill-opacity="1" /><path clip-path="url(#clip800)" d="
M1296.79 1523.27 L1373.44 1523.27 L1373.44 1519.75 L1296.79 1519.75  Z
  " fill="#000000" fill-rule="evenodd" fill-opacity="1"/>
<path clip-path="url(#clip800)" d="M 0 0 M1328.74 1538.66 Q1328.74 1540.91 1325.49 1540.91 L1314.41 1540.91 L1310 1563.49 Q1309.9 1564.07 1309.77 1564.39 Q1309.67 1564.71 1309.38 1565.26 Q1309.13 1565.77 1308.58 1566.03 Q1308.06 1566.32 1307.29 1566.32 Q1306.32 1566.32 1305.84 1565.74 Q1305.39 1565.19 1305.39 1564.52 Q1305.39 1564.1 1306.03 1562.1 L1312.51 1540.91 L1307.03 1540.91 Q1301.88 1540.91 1298.66 1546 Q1298.14 1546.68 1297.85 1546.74 Q1297.73 1546.77 1297.6 1546.77 Q1297.24 1546.77 1297.02 1546.61 Q1296.82 1546.45 1296.82 1546.29 L1296.79 1546.13 Q1296.79 1545.9 1297.31 1545 Q1297.85 1544.07 1298.82 1542.68 Q1299.82 1541.3 1300.82 1540.2 Q1302.14 1538.79 1303.62 1538.05 Q1305.1 1537.27 1305.84 1537.18 Q1306.61 1537.08 1307.61 1537.08 L1326.1 1537.08 Q1326.94 1537.08 1327.39 1537.14 Q1327.84 1537.18 1328.29 1537.56 Q1328.74 1537.92 1328.74 1538.66 Z" fill="#000000" fill-rule="evenodd" fill-opacity="1" /><path clip-path="url(#clip800)" d="M 0 0 M1359.59 1565.41 Q1359.59 1568.7 1357.93 1571.88 Q1356.28 1575.06 1353.69 1577.02 Q1351.1 1578.96 1348.46 1578.96 Q1346.88 1578.96 1345.82 1578.1 Q1344.78 1577.22 1344.22 1575.98 Q1343.79 1577.52 1342.87 1581.19 Q1341.94 1584.87 1341.94 1585.23 Q1341.94 1585.43 1341.99 1585.52 Q1342.03 1585.61 1342.24 1585.72 Q1342.44 1585.86 1342.93 1585.9 Q1343.43 1585.97 1344.26 1585.97 Q1344.69 1585.97 1344.85 1585.97 Q1345.03 1585.99 1345.19 1586.11 Q1345.37 1586.22 1345.37 1586.47 Q1345.37 1587.39 1344.53 1587.39 Q1343.79 1587.39 1342.26 1587.32 Q1340.72 1587.26 1339.96 1587.26 Q1339.3 1587.26 1338 1587.32 Q1336.69 1587.39 1336.08 1587.39 Q1335.47 1587.39 1335.47 1586.85 Q1335.47 1586.53 1335.56 1586.33 Q1335.63 1586.15 1335.81 1586.06 Q1335.99 1585.99 1336.15 1585.97 Q1336.28 1585.97 1336.55 1585.97 Q1337.59 1585.97 1338.04 1585.79 Q1338.49 1585.63 1338.65 1585.29 Q1338.83 1584.98 1339.03 1584.08 L1344.22 1563.52 Q1344.53 1562.14 1344.53 1561.17 Q1344.53 1559.96 1344.15 1559.5 Q1343.77 1559.05 1343.09 1559.05 Q1341.92 1559.05 1341.15 1560.45 Q1340.39 1561.85 1339.73 1564.55 Q1339.53 1565.3 1339.39 1565.46 Q1339.28 1565.61 1338.94 1565.61 Q1338.38 1565.59 1338.38 1565.14 Q1338.38 1565.03 1338.56 1564.31 Q1338.74 1563.56 1339.08 1562.48 Q1339.44 1561.38 1339.82 1560.68 Q1340.05 1560.2 1340.25 1559.89 Q1340.45 1559.57 1340.86 1559.08 Q1341.29 1558.58 1341.9 1558.31 Q1342.51 1558.04 1343.25 1558.04 Q1344.69 1558.04 1345.89 1558.9 Q1347.08 1559.75 1347.4 1561.49 Q1348.68 1559.98 1350.26 1559.01 Q1351.84 1558.04 1353.44 1558.04 Q1356.1 1558.04 1357.84 1560.11 Q1359.59 1562.16 1359.59 1565.41 M1356.26 1563.38 Q1356.26 1561.33 1355.47 1560.2 Q1354.7 1559.05 1353.3 1559.05 Q1351.57 1559.05 1349.56 1560.81 Q1347.58 1562.48 1347.17 1564.04 L1344.9 1573.08 L1344.76 1573.82 Q1344.76 1573.96 1344.83 1574.36 Q1344.92 1574.74 1345.17 1575.38 Q1345.44 1576.01 1345.8 1576.57 Q1346.18 1577.11 1346.86 1577.52 Q1347.56 1577.92 1348.41 1577.92 Q1349.79 1577.92 1351.28 1576.71 Q1352.79 1575.49 1353.91 1573.19 Q1354.61 1571.7 1355.42 1568.5 Q1356.26 1565.28 1356.26 1563.38 Z" fill="#000000" fill-rule="evenodd" fill-opacity="1" /><polyline clip-path="url(#clip802)" style="stroke:#000000; stroke-width:2; stroke-opacity:0.1; fill:none" points="
  310.435,1350.57 2352.76,1350.57 
  "/>
<polyline clip-path="url(#clip802)" style="stroke:#000000; stroke-width:2; stroke-opacity:0.1; fill:none" points="
  310.435,1033.83 2352.76,1033.83 
  "/>
<polyline clip-path="url(#clip802)" style="stroke:#000000; stroke-width:2; stroke-opacity:0.1; fill:none" points="
  310.435,717.088 2352.76,717.088 
  "/>
<polyline clip-path="url(#clip802)" style="stroke:#000000; stroke-width:2; stroke-opacity:0.1; fill:none" points="
  310.435,400.349 2352.76,400.349 
  "/>
<polyline clip-path="url(#clip802)" style="stroke:#000000; stroke-width:2; stroke-opacity:0.1; fill:none" points="
  310.435,83.6104 2352.76,83.6104 
  "/>
<polyline clip-path="url(#clip800)" style="stroke:#000000; stroke-width:4; stroke-opacity:1; fill:none" points="
  310.435,1388.53 310.435,47.2441 
  "/>
<polyline clip-path="url(#clip800)" style="stroke:#000000; stroke-width:4; stroke-opacity:1; fill:none" points="
  310.435,1350.57 334.943,1350.57 
  "/>
<polyline clip-path="url(#clip800)" style="stroke:#000000; stroke-width:4; stroke-opacity:1; fill:none" points="
  310.435,1033.83 334.943,1033.83 
  "/>
<polyline clip-path="url(#clip800)" style="stroke:#000000; stroke-width:4; stroke-opacity:1; fill:none" points="
  310.435,717.088 334.943,717.088 
  "/>
<polyline clip-path="url(#clip800)" style="stroke:#000000; stroke-width:4; stroke-opacity:1; fill:none" points="
  310.435,400.349 334.943,400.349 
  "/>
<polyline clip-path="url(#clip800)" style="stroke:#000000; stroke-width:4; stroke-opacity:1; fill:none" points="
  310.435,83.6104 334.943,83.6104 
  "/>
<path clip-path="url(#clip800)" d="M 0 0 M187.098 1336.36 Q183.487 1336.36 181.658 1339.93 Q179.853 1343.47 179.853 1350.6 Q179.853 1357.71 181.658 1361.27 Q183.487 1364.81 187.098 1364.81 Q190.732 1364.81 192.538 1361.27 Q194.366 1357.71 194.366 1350.6 Q194.366 1343.47 192.538 1339.93 Q190.732 1336.36 187.098 1336.36 M187.098 1332.66 Q192.908 1332.66 195.964 1337.27 Q199.042 1341.85 199.042 1350.6 Q199.042 1359.33 195.964 1363.93 Q192.908 1368.52 187.098 1368.52 Q181.288 1368.52 178.209 1363.93 Q175.153 1359.33 175.153 1350.6 Q175.153 1341.85 178.209 1337.27 Q181.288 1332.66 187.098 1332.66 Z" fill="#000000" fill-rule="evenodd" fill-opacity="1" /><path clip-path="url(#clip800)" d="M 0 0 M207.26 1361.97 L212.144 1361.97 L212.144 1367.85 L207.26 1367.85 L207.26 1361.97 Z" fill="#000000" fill-rule="evenodd" fill-opacity="1" /><path clip-path="url(#clip800)" d="M 0 0 M232.329 1336.36 Q228.718 1336.36 226.889 1339.93 Q225.084 1343.47 225.084 1350.6 Q225.084 1357.71 226.889 1361.27 Q228.718 1364.81 232.329 1364.81 Q235.963 1364.81 237.769 1361.27 Q239.598 1357.71 239.598 1350.6 Q239.598 1343.47 237.769 1339.93 Q235.963 1336.36 232.329 1336.36 M232.329 1332.66 Q238.139 1332.66 241.195 1337.27 Q244.273 1341.85 244.273 1350.6 Q244.273 1359.33 241.195 1363.93 Q238.139 1368.52 232.329 1368.52 Q226.519 1368.52 223.44 1363.93 Q220.385 1359.33 220.385 1350.6 Q220.385 1341.85 223.44 1337.27 Q226.519 1332.66 232.329 1332.66 Z" fill="#000000" fill-rule="evenodd" fill-opacity="1" /><path clip-path="url(#clip800)" d="M 0 0 M262.491 1336.36 Q258.88 1336.36 257.051 1339.93 Q255.246 1343.47 255.246 1350.6 Q255.246 1357.71 257.051 1361.27 Q258.88 1364.81 262.491 1364.81 Q266.125 1364.81 267.931 1361.27 Q269.759 1357.71 269.759 1350.6 Q269.759 1343.47 267.931 1339.93 Q266.125 1336.36 262.491 1336.36 M262.491 1332.66 Q268.301 1332.66 271.357 1337.27 Q274.435 1341.85 274.435 1350.6 Q274.435 1359.33 271.357 1363.93 Q268.301 1368.52 262.491 1368.52 Q256.681 1368.52 253.602 1363.93 Q250.547 1359.33 250.547 1350.6 Q250.547 1341.85 253.602 1337.27 Q256.681 1332.66 262.491 1332.66 Z" fill="#000000" fill-rule="evenodd" fill-opacity="1" /><path clip-path="url(#clip800)" d="M 0 0 M188.093 1019.63 Q184.482 1019.63 182.653 1023.19 Q180.848 1026.73 180.848 1033.86 Q180.848 1040.97 182.653 1044.53 Q184.482 1048.07 188.093 1048.07 Q191.727 1048.07 193.533 1044.53 Q195.362 1040.97 195.362 1033.86 Q195.362 1026.73 193.533 1023.19 Q191.727 1019.63 188.093 1019.63 M188.093 1015.92 Q193.903 1015.92 196.959 1020.53 Q200.038 1025.11 200.038 1033.86 Q200.038 1042.59 196.959 1047.19 Q193.903 1051.78 188.093 1051.78 Q182.283 1051.78 179.204 1047.19 Q176.149 1042.59 176.149 1033.86 Q176.149 1025.11 179.204 1020.53 Q182.283 1015.92 188.093 1015.92 Z" fill="#000000" fill-rule="evenodd" fill-opacity="1" /><path clip-path="url(#clip800)" d="M 0 0 M208.255 1045.23 L213.139 1045.23 L213.139 1051.11 L208.255 1051.11 L208.255 1045.23 Z" fill="#000000" fill-rule="evenodd" fill-opacity="1" /><path clip-path="url(#clip800)" d="M 0 0 M227.352 1047.17 L243.672 1047.17 L243.672 1051.11 L221.727 1051.11 L221.727 1047.17 Q224.389 1044.42 228.973 1039.79 Q233.579 1035.13 234.76 1033.79 Q237.005 1031.27 237.885 1029.53 Q238.787 1027.77 238.787 1026.08 Q238.787 1023.33 236.843 1021.59 Q234.922 1019.86 231.82 1019.86 Q229.621 1019.86 227.167 1020.62 Q224.737 1021.38 221.959 1022.94 L221.959 1018.21 Q224.783 1017.08 227.237 1016.5 Q229.69 1015.92 231.727 1015.92 Q237.098 1015.92 240.292 1018.61 Q243.486 1021.29 243.486 1025.78 Q243.486 1027.91 242.676 1029.83 Q241.889 1031.73 239.783 1034.32 Q239.204 1035 236.102 1038.21 Q233 1041.41 227.352 1047.17 Z" fill="#000000" fill-rule="evenodd" fill-opacity="1" /><path clip-path="url(#clip800)" d="M 0 0 M253.533 1016.55 L271.889 1016.55 L271.889 1020.48 L257.815 1020.48 L257.815 1028.95 Q258.834 1028.61 259.852 1028.44 Q260.871 1028.26 261.889 1028.26 Q267.676 1028.26 271.056 1031.43 Q274.435 1034.6 274.435 1040.02 Q274.435 1045.6 270.963 1048.7 Q267.491 1051.78 261.172 1051.78 Q258.996 1051.78 256.727 1051.41 Q254.482 1051.04 252.074 1050.3 L252.074 1045.6 Q254.158 1046.73 256.38 1047.29 Q258.602 1047.84 261.079 1047.84 Q265.084 1047.84 267.422 1045.74 Q269.759 1043.63 269.759 1040.02 Q269.759 1036.41 267.422 1034.3 Q265.084 1032.19 261.079 1032.19 Q259.204 1032.19 257.329 1032.61 Q255.477 1033.03 253.533 1033.91 L253.533 1016.55 Z" fill="#000000" fill-rule="evenodd" fill-opacity="1" /><path clip-path="url(#clip800)" d="M 0 0 M187.098 702.887 Q183.487 702.887 181.658 706.451 Q179.853 709.993 179.853 717.123 Q179.853 724.229 181.658 727.794 Q183.487 731.335 187.098 731.335 Q190.732 731.335 192.538 727.794 Q194.366 724.229 194.366 717.123 Q194.366 709.993 192.538 706.451 Q190.732 702.887 187.098 702.887 M187.098 699.183 Q192.908 699.183 195.964 703.789 Q199.042 708.373 199.042 717.123 Q199.042 725.849 195.964 730.456 Q192.908 735.039 187.098 735.039 Q181.288 735.039 178.209 730.456 Q175.153 725.849 175.153 717.123 Q175.153 708.373 178.209 703.789 Q181.288 699.183 187.098 699.183 Z" fill="#000000" fill-rule="evenodd" fill-opacity="1" /><path clip-path="url(#clip800)" d="M 0 0 M207.26 728.488 L212.144 728.488 L212.144 734.368 L207.26 734.368 L207.26 728.488 Z" fill="#000000" fill-rule="evenodd" fill-opacity="1" /><path clip-path="url(#clip800)" d="M 0 0 M222.375 699.808 L240.732 699.808 L240.732 703.743 L226.658 703.743 L226.658 712.215 Q227.676 711.868 228.695 711.706 Q229.713 711.521 230.732 711.521 Q236.519 711.521 239.899 714.692 Q243.278 717.863 243.278 723.28 Q243.278 728.859 239.806 731.96 Q236.334 735.039 230.014 735.039 Q227.838 735.039 225.57 734.669 Q223.325 734.298 220.917 733.558 L220.917 728.859 Q223 729.993 225.223 730.548 Q227.445 731.104 229.922 731.104 Q233.926 731.104 236.264 728.998 Q238.602 726.891 238.602 723.28 Q238.602 719.669 236.264 717.562 Q233.926 715.456 229.922 715.456 Q228.047 715.456 226.172 715.873 Q224.32 716.289 222.375 717.169 L222.375 699.808 Z" fill="#000000" fill-rule="evenodd" fill-opacity="1" /><path clip-path="url(#clip800)" d="M 0 0 M262.491 702.887 Q258.88 702.887 257.051 706.451 Q255.246 709.993 255.246 717.123 Q255.246 724.229 257.051 727.794 Q258.88 731.335 262.491 731.335 Q266.125 731.335 267.931 727.794 Q269.759 724.229 269.759 717.123 Q269.759 709.993 267.931 706.451 Q266.125 702.887 262.491 702.887 M262.491 699.183 Q268.301 699.183 271.357 703.789 Q274.435 708.373 274.435 717.123 Q274.435 725.849 271.357 730.456 Q268.301 735.039 262.491 735.039 Q256.681 735.039 253.602 730.456 Q250.547 725.849 250.547 717.123 Q250.547 708.373 253.602 703.789 Q256.681 699.183 262.491 699.183 Z" fill="#000000" fill-rule="evenodd" fill-opacity="1" /><path clip-path="url(#clip800)" d="M 0 0 M188.093 386.148 Q184.482 386.148 182.653 389.713 Q180.848 393.254 180.848 400.384 Q180.848 407.49 182.653 411.055 Q184.482 414.597 188.093 414.597 Q191.727 414.597 193.533 411.055 Q195.362 407.49 195.362 400.384 Q195.362 393.254 193.533 389.713 Q191.727 386.148 188.093 386.148 M188.093 382.444 Q193.903 382.444 196.959 387.051 Q200.038 391.634 200.038 400.384 Q200.038 409.111 196.959 413.717 Q193.903 418.3 188.093 418.3 Q182.283 418.3 179.204 413.717 Q176.149 409.111 176.149 400.384 Q176.149 391.634 179.204 387.051 Q182.283 382.444 188.093 382.444 Z" fill="#000000" fill-rule="evenodd" fill-opacity="1" /><path clip-path="url(#clip800)" d="M 0 0 M208.255 411.75 L213.139 411.75 L213.139 417.629 L208.255 417.629 L208.255 411.75 Z" fill="#000000" fill-rule="evenodd" fill-opacity="1" /><path clip-path="url(#clip800)" d="M 0 0 M222.144 383.069 L244.366 383.069 L244.366 385.06 L231.82 417.629 L226.936 417.629 L238.741 387.004 L222.144 387.004 L222.144 383.069 Z" fill="#000000" fill-rule="evenodd" fill-opacity="1" /><path clip-path="url(#clip800)" d="M 0 0 M253.533 383.069 L271.889 383.069 L271.889 387.004 L257.815 387.004 L257.815 395.476 Q258.834 395.129 259.852 394.967 Q260.871 394.782 261.889 394.782 Q267.676 394.782 271.056 397.953 Q274.435 401.125 274.435 406.541 Q274.435 412.12 270.963 415.222 Q267.491 418.3 261.172 418.3 Q258.996 418.3 256.727 417.93 Q254.482 417.56 252.074 416.819 L252.074 412.12 Q254.158 413.254 256.38 413.81 Q258.602 414.365 261.079 414.365 Q265.084 414.365 267.422 412.259 Q269.759 410.152 269.759 406.541 Q269.759 402.93 267.422 400.824 Q265.084 398.717 261.079 398.717 Q259.204 398.717 257.329 399.134 Q255.477 399.551 253.533 400.43 L253.533 383.069 Z" fill="#000000" fill-rule="evenodd" fill-opacity="1" /><path clip-path="url(#clip800)" d="M 0 0 M177.908 96.9552 L185.547 96.9552 L185.547 70.5896 L177.237 72.2563 L177.237 67.9971 L185.501 66.3304 L190.177 66.3304 L190.177 96.9552 L197.815 96.9552 L197.815 100.89 L177.908 100.89 L177.908 96.9552 Z" fill="#000000" fill-rule="evenodd" fill-opacity="1" /><path clip-path="url(#clip800)" d="M 0 0 M207.26 95.0108 L212.144 95.0108 L212.144 100.89 L207.26 100.89 L207.26 95.0108 Z" fill="#000000" fill-rule="evenodd" fill-opacity="1" /><path clip-path="url(#clip800)" d="M 0 0 M232.329 69.4091 Q228.718 69.4091 226.889 72.9739 Q225.084 76.5155 225.084 83.6451 Q225.084 90.7516 226.889 94.3164 Q228.718 97.858 232.329 97.858 Q235.963 97.858 237.769 94.3164 Q239.598 90.7516 239.598 83.6451 Q239.598 76.5155 237.769 72.9739 Q235.963 69.4091 232.329 69.4091 M232.329 65.7054 Q238.139 65.7054 241.195 70.3119 Q244.273 74.8952 244.273 83.6451 Q244.273 92.3719 241.195 96.9784 Q238.139 101.562 232.329 101.562 Q226.519 101.562 223.44 96.9784 Q220.385 92.3719 220.385 83.6451 Q220.385 74.8952 223.44 70.3119 Q226.519 65.7054 232.329 65.7054 Z" fill="#000000" fill-rule="evenodd" fill-opacity="1" /><path clip-path="url(#clip800)" d="M 0 0 M262.491 69.4091 Q258.88 69.4091 257.051 72.9739 Q255.246 76.5155 255.246 83.6451 Q255.246 90.7516 257.051 94.3164 Q258.88 97.858 262.491 97.858 Q266.125 97.858 267.931 94.3164 Q269.759 90.7516 269.759 83.6451 Q269.759 76.5155 267.931 72.9739 Q266.125 69.4091 262.491 69.4091 M262.491 65.7054 Q268.301 65.7054 271.357 70.3119 Q274.435 74.8952 274.435 83.6451 Q274.435 92.3719 271.357 96.9784 Q268.301 101.562 262.491 101.562 Q256.681 101.562 253.602 96.9784 Q250.547 92.3719 250.547 83.6451 Q250.547 74.8952 253.602 70.3119 Q256.681 65.7054 262.491 65.7054 Z" fill="#000000" fill-rule="evenodd" fill-opacity="1" /><path clip-path="url(#clip800)" d="M 0 0 M15.1612 735.468 Q15.6121 735.468 16.6749 735.758 L41.8599 742.07 Q47.4637 743.455 51.3928 747.964 Q55.322 752.441 55.322 757.529 Q55.322 760.589 53.6795 762.553 Q52.0692 764.518 49.5893 764.518 Q47.3993 764.518 46.3365 763.358 Q45.3059 762.199 45.3059 760.814 Q45.3059 760.363 45.4348 759.88 Q45.5636 759.397 46.1111 758.882 Q46.6586 758.367 47.5925 758.367 Q49.1062 758.367 50.2978 759.687 Q50.8453 760.331 50.9742 760.943 Q51.103 761.523 51.103 762.521 Q52.0047 762.135 52.6167 761.426 Q53.2286 760.718 53.454 759.912 Q53.7117 759.107 53.7761 758.592 Q53.8727 758.044 53.8727 757.529 Q53.8727 753.407 49.7181 750.251 Q48.4621 749.317 47.2061 748.64 Q45.9823 747.932 44.4686 747.417 Q42.9871 746.901 42.182 746.676 Q41.3768 746.418 39.5411 745.967 Q42.5362 748.962 42.5362 752.634 Q42.5362 754.18 42.1175 755.565 Q41.6989 756.917 40.8293 758.109 Q39.9276 759.3 38.3495 760.009 Q36.7714 760.685 34.678 760.685 Q32.4558 760.685 29.4284 759.816 Q26.4011 758.946 20.8295 756.853 Q17.7055 755.726 16.1918 755.726 Q15.4511 755.726 15.0002 755.887 Q14.5171 756.048 14.3561 756.37 Q14.1629 756.692 14.1307 756.885 Q14.0985 757.046 14.0985 757.368 Q14.0985 759.268 16.0308 761.04 Q17.9632 762.811 22.2787 764.035 Q23.0839 764.292 23.2771 764.453 Q23.4704 764.614 23.4704 765.098 Q23.4381 765.903 22.794 765.903 Q22.5364 765.903 21.538 765.613 Q20.5074 765.323 18.9937 764.647 Q17.4479 763.938 16.063 762.972 Q14.6459 762.006 13.6476 760.492 Q12.6492 758.946 12.6492 757.175 Q12.6492 754.759 14.2273 753.278 Q15.7732 751.764 18.0598 751.764 Q18.9937 751.764 19.8311 752.022 Q20.6362 752.247 22.794 753.085 Q31.4896 756.466 35.7408 756.466 Q36.7714 756.466 37.6409 756.305 Q38.4783 756.112 39.3156 755.693 Q40.1208 755.275 40.6039 754.437 Q41.0548 753.568 41.0548 752.376 Q41.0548 750.863 40.3462 749.445 Q39.6055 747.996 38.6071 747.094 Q37.6087 746.161 36.7714 745.613 Q35.9018 745.033 35.4509 744.904 L23.5992 741.942 L18.3174 740.621 Q15.4511 740.009 14.7426 739.719 Q14.0662 739.333 13.712 738.657 Q13.3577 737.98 13.3577 737.401 Q13.3577 736.595 13.8408 736.048 Q14.3239 735.468 15.1612 735.468 Z" fill="#000000" fill-rule="evenodd" fill-opacity="1" /><path clip-path="url(#clip800)" d="M 0 0 M25.3061 733.909 Q14.1629 733.909 5.17743 729.754 Q1.40934 727.983 -1.74683 725.503 Q-4.90301 723.023 -6.28786 721.38 Q-7.67271 719.738 -7.67271 719.287 Q-7.67271 718.643 -7.02859 718.611 Q-6.70654 718.611 -5.90139 719.48 Q4.91978 730.108 25.3061 730.076 Q45.7568 730.076 56.1593 719.738 Q57.2865 718.611 57.6408 718.611 Q58.2849 718.611 58.2849 719.287 Q58.2849 719.738 56.9645 721.316 Q55.644 722.894 52.6167 725.342 Q49.5893 727.789 45.8856 729.561 Q36.9002 733.909 25.3061 733.909 Z" fill="#000000" fill-rule="evenodd" fill-opacity="1" /><path clip-path="url(#clip800)" d="M 0 0 M14.0985 688.324 Q15.0002 688.324 15.2257 688.742 Q15.4189 689.161 15.4189 690.32 L15.4189 696.504 L34.8712 701.399 Q36.5781 701.786 38.0274 701.786 Q39.6377 701.786 40.3462 701.303 Q41.0548 700.787 41.0548 699.724 Q41.0548 697.631 39.1546 695.377 Q37.2545 693.09 32.6168 691.158 Q32.0049 690.9 31.8761 690.771 Q31.7151 690.61 31.7151 690.192 Q31.7151 689.386 32.3592 689.386 Q32.5846 689.386 33.6152 689.837 Q34.6458 690.256 36.1595 691.19 Q37.6731 692.092 39.0902 693.283 Q40.5073 694.443 41.5378 696.214 Q42.5362 697.985 42.5362 699.886 Q42.5362 702.559 40.8293 704.266 Q39.1224 705.94 36.4493 705.94 Q35.5798 705.94 32.8101 705.264 Q30.0081 704.588 15.4189 700.916 L15.4189 706.745 Q15.4189 707.551 15.3867 707.873 Q15.3545 708.162 15.1934 708.388 Q15.0002 708.581 14.6137 708.581 Q14.0018 708.581 13.7442 708.323 Q13.4543 708.066 13.4221 707.744 Q13.3577 707.389 13.3577 706.584 L13.3577 700.401 L2.89081 697.824 Q1.86022 697.567 1.28052 696.923 Q0.668606 696.246 0.604194 695.86 Q0.507577 695.473 0.507577 695.183 Q0.507577 694.314 0.990665 693.799 Q1.44155 693.283 2.2789 693.283 Q2.72978 693.283 13.3577 695.989 L13.3577 690.192 Q13.3577 689.451 13.3899 689.161 Q13.4221 688.839 13.5832 688.581 Q13.7442 688.324 14.0985 688.324 Z" fill="#000000" fill-rule="evenodd" fill-opacity="1" /><path clip-path="url(#clip800)" d="M 0 0 M57.6408 685.008 Q57.3187 685.008 56.5136 684.171 Q45.6924 673.543 25.3061 673.543 Q4.85537 673.543 -5.48271 683.752 Q-6.67433 685.008 -7.02859 685.008 Q-7.67271 685.008 -7.67271 684.364 Q-7.67271 683.913 -6.35227 682.335 Q-5.03183 680.725 -2.00448 678.309 Q1.02287 675.862 4.72654 674.058 Q13.712 669.71 25.3061 669.71 Q36.4493 669.71 45.4348 673.865 Q49.2028 675.636 52.359 678.116 Q55.5152 680.596 56.9 682.238 Q58.2849 683.881 58.2849 684.364 Q58.2849 685.008 57.6408 685.008 Z" fill="#000000" fill-rule="evenodd" fill-opacity="1" /><path clip-path="url(#clip800)" d="
M75.7236 765.903 L75.7236 662.827 L72.2036 662.827 L72.2036 765.903  Z
  " fill="#000000" fill-rule="evenodd" fill-opacity="1"/>
<path clip-path="url(#clip800)" d="M 0 0 M90.1134 708.768 Q90.532 708.768 90.8219 708.864 Q91.0795 708.961 91.2083 709.187 Q91.3372 709.412 91.3694 709.541 Q91.4016 709.67 91.4338 709.959 Q91.5626 711.344 91.7881 712.311 Q92.0135 713.244 93.1729 715.563 Q94.3323 717.85 96.4257 720.716 L105.347 732.246 L106.86 734.178 Q106.957 734.178 107.15 734.114 Q107.311 734.049 107.537 733.985 Q107.73 733.888 107.794 733.856 L129.405 724.484 Q131.144 723.744 131.756 722.842 Q132.367 721.94 132.4 719.911 Q132.4 719.589 132.432 719.46 Q132.432 719.299 132.496 719.074 Q132.528 718.816 132.689 718.719 Q132.851 718.591 133.108 718.591 Q134.429 718.591 134.429 719.782 Q134.429 720.523 134.332 723.035 Q134.235 725.547 134.235 726.256 Q134.235 727.576 134.332 730.281 Q134.429 732.987 134.429 734.307 Q134.429 735.241 133.688 735.241 Q133.076 735.241 132.786 735.016 Q132.464 734.758 132.432 734.533 Q132.4 734.307 132.4 733.792 Q132.4 733.405 132.367 732.987 Q132.303 732.536 132.142 731.892 Q131.949 731.215 131.498 730.797 Q131.015 730.346 130.338 730.346 Q129.791 730.346 128.02 731.151 L110.274 738.784 L117.939 748.607 L128.31 751.247 Q128.696 751.312 129.372 751.473 Q130.049 751.634 130.532 751.763 Q131.015 751.859 131.208 751.859 Q131.627 751.859 131.884 751.602 Q132.142 751.312 132.271 750.603 Q132.367 749.895 132.4 749.347 Q132.4 748.768 132.4 747.576 Q132.4 746.094 132.657 745.837 Q132.818 745.708 133.108 745.708 Q133.559 745.708 133.881 745.837 Q134.171 745.966 134.268 746.223 Q134.364 746.449 134.396 746.61 Q134.429 746.771 134.429 747.028 Q134.429 747.705 134.364 749.154 Q134.3 750.571 134.3 751.312 L134.235 755.531 L134.429 763.904 Q134.429 764.903 133.623 764.903 Q133.012 764.903 132.754 764.645 Q132.464 764.387 132.432 764.098 Q132.4 763.808 132.4 763.067 Q132.4 761.457 132.303 760.49 Q132.206 759.524 132.078 758.912 Q131.917 758.268 131.466 757.946 Q131.015 757.592 130.628 757.431 Q130.21 757.27 129.276 757.044 L93.8492 748.22 Q92.7864 747.962 92.6254 747.962 Q92.0779 747.962 91.8847 748.284 Q91.6592 748.574 91.5626 749.412 Q91.4338 751.022 91.4338 752.246 Q91.4338 753.051 91.4016 753.373 Q91.3694 753.663 91.2083 753.92 Q91.0151 754.146 90.6286 754.146 Q89.3726 754.146 89.3726 752.825 L89.5659 744.323 L89.3726 735.885 Q89.3726 734.951 90.1134 734.951 Q91.0473 734.951 91.2406 735.402 Q91.4338 735.821 91.4338 737.206 Q91.4338 739.621 91.7558 740.716 Q92.0457 741.779 92.561 742.101 Q93.0441 742.391 94.4611 742.745 L115.62 748.027 L95.846 722.294 Q93.8492 719.911 92.8186 719.911 Q92.1423 719.911 91.8525 720.394 Q91.5304 720.845 91.4338 721.972 Q91.305 722.777 90.6931 722.777 Q90.0811 722.777 89.7913 722.552 Q89.4692 722.294 89.437 722.101 Q89.3726 721.876 89.3726 721.521 Q89.3726 720.33 89.4692 717.85 Q89.5659 715.37 89.5659 714.178 Q89.5659 713.373 89.4692 711.795 Q89.3726 710.217 89.3726 709.509 Q89.3726 709.154 89.6303 708.961 Q89.8557 708.768 90.1134 708.768 Z" fill="#000000" fill-rule="evenodd" fill-opacity="1" /><path clip-path="url(#clip800)" d="M 0 0 M133.526 678.147 Q136.817 678.147 139.996 679.815 Q143.175 681.461 145.136 684.053 Q147.075 686.646 147.075 689.284 Q147.075 690.862 146.218 691.921 Q145.339 692.958 144.099 693.522 Q145.632 693.95 149.306 694.874 Q152.981 695.799 153.342 695.799 Q153.545 695.799 153.635 695.754 Q153.725 695.709 153.838 695.506 Q153.973 695.303 154.018 694.807 Q154.086 694.311 154.086 693.477 Q154.086 693.048 154.086 692.891 Q154.108 692.71 154.221 692.552 Q154.334 692.372 154.582 692.372 Q155.506 692.372 155.506 693.206 Q155.506 693.95 155.438 695.483 Q155.371 697.016 155.371 697.783 Q155.371 698.436 155.438 699.744 Q155.506 701.052 155.506 701.66 Q155.506 702.269 154.965 702.269 Q154.649 702.269 154.447 702.179 Q154.266 702.111 154.176 701.931 Q154.108 701.75 154.086 701.593 Q154.086 701.457 154.086 701.187 Q154.086 700.15 153.905 699.699 Q153.748 699.248 153.41 699.09 Q153.094 698.91 152.192 698.707 L131.632 693.522 Q130.257 693.206 129.287 693.206 Q128.07 693.206 127.619 693.589 Q127.168 693.973 127.168 694.649 Q127.168 695.821 128.566 696.588 Q129.964 697.354 132.669 698.008 Q133.413 698.211 133.571 698.346 Q133.729 698.459 133.729 698.797 Q133.706 699.361 133.255 699.361 Q133.142 699.361 132.421 699.18 Q131.677 699 130.595 698.662 Q129.49 698.301 128.791 697.918 Q128.318 697.692 128.002 697.49 Q127.687 697.287 127.191 696.881 Q126.695 696.453 126.424 695.844 Q126.154 695.235 126.154 694.491 Q126.154 693.048 127.01 691.854 Q127.867 690.659 129.603 690.343 Q128.092 689.058 127.123 687.48 Q126.154 685.902 126.154 684.301 Q126.154 681.641 128.228 679.905 Q130.279 678.147 133.526 678.147 M131.497 681.483 Q129.445 681.483 128.318 682.272 Q127.168 683.039 127.168 684.437 Q127.168 686.172 128.927 688.179 Q130.595 690.163 132.15 690.569 L141.191 692.846 L141.935 692.981 Q142.07 692.981 142.476 692.913 Q142.859 692.823 143.49 692.575 Q144.121 692.304 144.685 691.944 Q145.226 691.56 145.632 690.884 Q146.038 690.185 146.038 689.329 Q146.038 687.953 144.82 686.466 Q143.603 684.955 141.303 683.828 Q139.815 683.129 136.614 682.317 Q133.39 681.483 131.497 681.483 Z" fill="#000000" fill-rule="evenodd" fill-opacity="1" /><polyline clip-path="url(#clip802)" style="stroke:#009af9; stroke-width:8; stroke-opacity:1; fill:none" points="
  310.435,1350.57 320.408,1350.57 330.38,1350.57 422.59,1350.57 514.8,1350.57 542.507,1350.57 570.214,1350.57 597.921,1350.57 625.629,1350.57 631.485,1350.57 
  637.342,1350.57 640.27,1350.57 643.198,1350.57 644.662,1350.57 646.126,1350.57 647.59,1350.57 649.055,1350.57 649.787,1350.57 650.519,1350.57 651.251,85.2049 
  651.983,87.9234 652.715,90.636 653.447,93.3428 654.179,96.0438 654.911,98.7389 657.839,109.462 660.768,120.093 666.624,141.083 672.481,161.714 684.194,201.928 
  695.907,240.781 707.62,278.32 719.333,314.59 744.78,389.215 770.227,458.464 795.674,522.726 821.122,582.358 868.042,681.276 914.962,767.457 965.265,847.566 
  1015.57,916.669 1073.85,984.949 1132.13,1042.48 1183.93,1085.97 1235.72,1123.32 1281.14,1151.7 1326.56,1176.54 1425.59,1220.48 1525.22,1253.48 1635.37,1280.32 
  1740.17,1298.94 1849.14,1313.08 1940.87,1321.94 2052.86,1329.96 2158.14,1335.44 2326.8,1341.35 2352.76,1342.03 
  "/>
</svg>
