<?xml version="1.0" encoding="utf-8"?>
<svg xmlns="http://www.w3.org/2000/svg" xmlns:xlink="http://www.w3.org/1999/xlink" width="600" height="400" viewBox="0 0 2400 1600">
<defs>
  <clipPath id="clip480">
    <rect x="0" y="0" width="2400" height="1600"/>
  </clipPath>
</defs>
<path clip-path="url(#clip480)" d="
M0 1600 L2400 1600 L2400 0 L0 0  Z
  " fill="#ffffff" fill-rule="evenodd" fill-opacity="1"/>
<defs>
  <clipPath id="clip481">
    <rect x="480" y="0" width="1681" height="1600"/>
  </clipPath>
</defs>
<path clip-path="url(#clip480)" d="
M311.862 1388.53 L2352.76 1388.53 L2352.76 47.2441 L311.862 47.2441  Z
  " fill="#ffffff" fill-rule="evenodd" fill-opacity="1"/>
<defs>
  <clipPath id="clip482">
    <rect x="311" y="47" width="2042" height="1342"/>
  </clipPath>
</defs>
<polyline clip-path="url(#clip482)" style="stroke:#000000; stroke-width:2; stroke-opacity:0.1; fill:none" points="
  311.862,1388.53 311.862,47.2441 
  "/>
<polyline clip-path="url(#clip482)" style="stroke:#000000; stroke-width:2; stroke-opacity:0.1; fill:none" points="
  652.011,1388.53 652.011,47.2441 
  "/>
<polyline clip-path="url(#clip482)" style="stroke:#000000; stroke-width:2; stroke-opacity:0.1; fill:none" points="
  992.16,1388.53 992.16,47.2441 
  "/>
<polyline clip-path="url(#clip482)" style="stroke:#000000; stroke-width:2; stroke-opacity:0.1; fill:none" points="
  1332.31,1388.53 1332.31,47.2441 
  "/>
<polyline clip-path="url(#clip482)" style="stroke:#000000; stroke-width:2; stroke-opacity:0.1; fill:none" points="
  1672.46,1388.53 1672.46,47.2441 
  "/>
<polyline clip-path="url(#clip482)" style="stroke:#000000; stroke-width:2; stroke-opacity:0.1; fill:none" points="
  2012.61,1388.53 2012.61,47.2441 
  "/>
<polyline clip-path="url(#clip482)" style="stroke:#000000; stroke-width:2; stroke-opacity:0.1; fill:none" points="
  2352.76,1388.53 2352.76,47.2441 
  "/>
<polyline clip-path="url(#clip480)" style="stroke:#000000; stroke-width:4; stroke-opacity:1; fill:none" points="
  311.862,1388.53 2352.76,1388.53 
  "/>
<polyline clip-path="url(#clip480)" style="stroke:#000000; stroke-width:4; stroke-opacity:1; fill:none" points="
  311.862,1388.53 311.862,1372.43 
  "/>
<polyline clip-path="url(#clip480)" style="stroke:#000000; stroke-width:4; stroke-opacity:1; fill:none" points="
  652.011,1388.53 652.011,1372.43 
  "/>
<polyline clip-path="url(#clip480)" style="stroke:#000000; stroke-width:4; stroke-opacity:1; fill:none" points="
  992.16,1388.53 992.16,1372.43 
  "/>
<polyline clip-path="url(#clip480)" style="stroke:#000000; stroke-width:4; stroke-opacity:1; fill:none" points="
  1332.31,1388.53 1332.31,1372.43 
  "/>
<polyline clip-path="url(#clip480)" style="stroke:#000000; stroke-width:4; stroke-opacity:1; fill:none" points="
  1672.46,1388.53 1672.46,1372.43 
  "/>
<polyline clip-path="url(#clip480)" style="stroke:#000000; stroke-width:4; stroke-opacity:1; fill:none" points="
  2012.61,1388.53 2012.61,1372.43 
  "/>
<polyline clip-path="url(#clip480)" style="stroke:#000000; stroke-width:4; stroke-opacity:1; fill:none" points="
  2352.76,1388.53 2352.76,1372.43 
  "/>
<path clip-path="url(#clip480)" d="M 0 0 M281.62 1432.37 L311.295 1432.37 L311.295 1436.3 L281.62 1436.3 L281.62 1432.37 Z" fill="#000000" fill-rule="evenodd" fill-opacity="1" /><path clip-path="url(#clip480)" d="M 0 0 M322.198 1445.26 L329.837 1445.26 L329.837 1418.9 L321.527 1420.56 L321.527 1416.3 L329.791 1414.64 L334.466 1414.64 L334.466 1445.26 L342.105 1445.26 L342.105 1449.2 L322.198 1449.2 L322.198 1445.26 Z" fill="#000000" fill-rule="evenodd" fill-opacity="1" /><path clip-path="url(#clip480)" d="M 0 0 M652.011 1417.72 Q648.4 1417.72 646.572 1421.28 Q644.766 1424.82 644.766 1431.95 Q644.766 1439.06 646.572 1442.62 Q648.4 1446.17 652.011 1446.17 Q655.646 1446.17 657.451 1442.62 Q659.28 1439.06 659.28 1431.95 Q659.28 1424.82 657.451 1421.28 Q655.646 1417.72 652.011 1417.72 M652.011 1414.01 Q657.822 1414.01 660.877 1418.62 Q663.956 1423.2 663.956 1431.95 Q663.956 1440.68 660.877 1445.29 Q657.822 1449.87 652.011 1449.87 Q646.201 1449.87 643.123 1445.29 Q640.067 1440.68 640.067 1431.95 Q640.067 1423.2 643.123 1418.62 Q646.201 1414.01 652.011 1414.01 Z" fill="#000000" fill-rule="evenodd" fill-opacity="1" /><path clip-path="url(#clip480)" d="M 0 0 M982.542 1445.26 L990.181 1445.26 L990.181 1418.9 L981.871 1420.56 L981.871 1416.3 L990.135 1414.64 L994.811 1414.64 L994.811 1445.26 L1002.45 1445.26 L1002.45 1449.2 L982.542 1449.2 L982.542 1445.26 Z" fill="#000000" fill-rule="evenodd" fill-opacity="1" /><path clip-path="url(#clip480)" d="M 0 0 M1326.96 1445.26 L1343.28 1445.26 L1343.28 1449.2 L1321.34 1449.2 L1321.34 1445.26 Q1324 1442.51 1328.58 1437.88 Q1333.19 1433.23 1334.37 1431.88 Q1336.61 1429.36 1337.49 1427.62 Q1338.4 1425.86 1338.4 1424.18 Q1338.4 1421.42 1336.45 1419.68 Q1334.53 1417.95 1331.43 1417.95 Q1329.23 1417.95 1326.78 1418.71 Q1324.35 1419.48 1321.57 1421.03 L1321.57 1416.3 Q1324.39 1415.17 1326.85 1414.59 Q1329.3 1414.01 1331.34 1414.01 Q1336.71 1414.01 1339.9 1416.7 Q1343.1 1419.38 1343.1 1423.87 Q1343.1 1426 1342.29 1427.93 Q1341.5 1429.82 1339.39 1432.42 Q1338.81 1433.09 1335.71 1436.3 Q1332.61 1439.5 1326.96 1445.26 Z" fill="#000000" fill-rule="evenodd" fill-opacity="1" /><path clip-path="url(#clip480)" d="M 0 0 M1676.71 1430.56 Q1680.06 1431.28 1681.94 1433.55 Q1683.84 1435.82 1683.84 1439.15 Q1683.84 1444.27 1680.32 1447.07 Q1676.8 1449.87 1670.32 1449.87 Q1668.14 1449.87 1665.83 1449.43 Q1663.53 1449.01 1661.08 1448.16 L1661.08 1443.64 Q1663.03 1444.78 1665.34 1445.36 Q1667.65 1445.93 1670.18 1445.93 Q1674.58 1445.93 1676.87 1444.2 Q1679.18 1442.46 1679.18 1439.15 Q1679.18 1436.1 1677.03 1434.38 Q1674.9 1432.65 1671.08 1432.65 L1667.05 1432.65 L1667.05 1428.8 L1671.27 1428.8 Q1674.72 1428.8 1676.54 1427.44 Q1678.37 1426.05 1678.37 1423.46 Q1678.37 1420.8 1676.47 1419.38 Q1674.6 1417.95 1671.08 1417.95 Q1669.16 1417.95 1666.96 1418.36 Q1664.76 1418.78 1662.12 1419.66 L1662.12 1415.49 Q1664.78 1414.75 1667.1 1414.38 Q1669.44 1414.01 1671.5 1414.01 Q1676.82 1414.01 1679.92 1416.44 Q1683.03 1418.85 1683.03 1422.97 Q1683.03 1425.84 1681.38 1427.83 Q1679.74 1429.8 1676.71 1430.56 Z" fill="#000000" fill-rule="evenodd" fill-opacity="1" /><path clip-path="url(#clip480)" d="M 0 0 M2015.62 1418.71 L2003.81 1437.16 L2015.62 1437.16 L2015.62 1418.71 M2014.39 1414.64 L2020.27 1414.64 L2020.27 1437.16 L2025.2 1437.16 L2025.2 1441.05 L2020.27 1441.05 L2020.27 1449.2 L2015.62 1449.2 L2015.62 1441.05 L2000.01 1441.05 L2000.01 1436.54 L2014.39 1414.64 Z" fill="#000000" fill-rule="evenodd" fill-opacity="1" /><path clip-path="url(#clip480)" d="M 0 0 M2343.03 1414.64 L2361.39 1414.64 L2361.39 1418.57 L2347.32 1418.57 L2347.32 1427.05 Q2348.33 1426.7 2349.35 1426.54 Q2350.37 1426.35 2351.39 1426.35 Q2357.18 1426.35 2360.56 1429.52 Q2363.94 1432.69 2363.94 1438.11 Q2363.94 1443.69 2360.46 1446.79 Q2356.99 1449.87 2350.67 1449.87 Q2348.5 1449.87 2346.23 1449.5 Q2343.98 1449.13 2341.58 1448.39 L2341.58 1443.69 Q2343.66 1444.82 2345.88 1445.38 Q2348.1 1445.93 2350.58 1445.93 Q2354.58 1445.93 2356.92 1443.83 Q2359.26 1441.72 2359.26 1438.11 Q2359.26 1434.5 2356.92 1432.39 Q2354.58 1430.29 2350.58 1430.29 Q2348.71 1430.29 2346.83 1430.7 Q2344.98 1431.12 2343.03 1432 L2343.03 1414.64 Z" fill="#000000" fill-rule="evenodd" fill-opacity="1" /><path clip-path="url(#clip480)" d="M 0 0 M1342.76 1477.23 Q1342.76 1478.14 1342.34 1478.36 Q1341.93 1478.55 1340.77 1478.55 L1334.58 1478.55 L1329.69 1498.01 Q1329.3 1499.71 1329.3 1501.16 Q1329.3 1502.77 1329.78 1503.48 Q1330.3 1504.19 1331.36 1504.19 Q1333.46 1504.19 1335.71 1502.29 Q1338 1500.39 1339.93 1495.75 Q1340.19 1495.14 1340.31 1495.01 Q1340.48 1494.85 1340.89 1494.85 Q1341.7 1494.85 1341.7 1495.49 Q1341.7 1495.72 1341.25 1496.75 Q1340.83 1497.78 1339.9 1499.29 Q1338.99 1500.81 1337.8 1502.23 Q1336.64 1503.64 1334.87 1504.67 Q1333.1 1505.67 1331.2 1505.67 Q1328.53 1505.67 1326.82 1503.96 Q1325.15 1502.26 1325.15 1499.58 Q1325.15 1498.71 1325.82 1495.95 Q1326.5 1493.14 1330.17 1478.55 L1324.34 1478.55 Q1323.54 1478.55 1323.21 1478.52 Q1322.92 1478.49 1322.7 1478.33 Q1322.51 1478.14 1322.51 1477.75 Q1322.51 1477.14 1322.76 1476.88 Q1323.02 1476.59 1323.34 1476.56 Q1323.7 1476.49 1324.5 1476.49 L1330.69 1476.49 L1333.26 1466.03 Q1333.52 1465 1334.16 1464.42 Q1334.84 1463.8 1335.23 1463.74 Q1335.61 1463.64 1335.9 1463.64 Q1336.77 1463.64 1337.29 1464.13 Q1337.8 1464.58 1337.8 1465.41 Q1337.8 1465.86 1335.1 1476.49 L1340.89 1476.49 Q1341.64 1476.49 1341.93 1476.53 Q1342.25 1476.56 1342.5 1476.72 Q1342.76 1476.88 1342.76 1477.23 Z" fill="#000000" fill-rule="evenodd" fill-opacity="1" /><path clip-path="url(#clip480)" d="
M1297.51 1523.27 L1374.15 1523.27 L1374.15 1519.75 L1297.51 1519.75  Z
  " fill="#000000" fill-rule="evenodd" fill-opacity="1"/>
<path clip-path="url(#clip480)" d="M 0 0 M1329.45 1538.66 Q1329.45 1540.91 1326.2 1540.91 L1315.12 1540.91 L1310.71 1563.49 Q1310.61 1564.07 1310.48 1564.39 Q1310.39 1564.71 1310.1 1565.26 Q1309.84 1565.77 1309.29 1566.03 Q1308.78 1566.32 1308 1566.32 Q1307.04 1566.32 1306.55 1565.74 Q1306.1 1565.19 1306.1 1564.52 Q1306.1 1564.1 1306.75 1562.1 L1313.22 1540.91 L1307.75 1540.91 Q1302.59 1540.91 1299.37 1546 Q1298.86 1546.68 1298.57 1546.74 Q1298.44 1546.77 1298.31 1546.77 Q1297.96 1546.77 1297.73 1546.61 Q1297.54 1546.45 1297.54 1546.29 L1297.51 1546.13 Q1297.51 1545.9 1298.02 1545 Q1298.57 1544.07 1299.53 1542.68 Q1300.53 1541.3 1301.53 1540.2 Q1302.85 1538.79 1304.33 1538.05 Q1305.81 1537.27 1306.55 1537.18 Q1307.33 1537.08 1308.33 1537.08 L1326.81 1537.08 Q1327.65 1537.08 1328.1 1537.14 Q1328.55 1537.18 1329 1537.56 Q1329.45 1537.92 1329.45 1538.66 Z" fill="#000000" fill-rule="evenodd" fill-opacity="1" /><path clip-path="url(#clip480)" d="M 0 0 M1360.31 1565.41 Q1360.31 1568.7 1358.64 1571.88 Q1356.99 1575.06 1354.4 1577.02 Q1351.81 1578.96 1349.17 1578.96 Q1347.59 1578.96 1346.53 1578.1 Q1345.5 1577.22 1344.93 1575.98 Q1344.5 1577.52 1343.58 1581.19 Q1342.66 1584.87 1342.66 1585.23 Q1342.66 1585.43 1342.7 1585.52 Q1342.75 1585.61 1342.95 1585.72 Q1343.15 1585.86 1343.65 1585.9 Q1344.14 1585.97 1344.98 1585.97 Q1345.41 1585.97 1345.56 1585.97 Q1345.74 1585.99 1345.9 1586.11 Q1346.08 1586.22 1346.08 1586.47 Q1346.08 1587.39 1345.25 1587.39 Q1344.5 1587.39 1342.97 1587.32 Q1341.44 1587.26 1340.67 1587.26 Q1340.02 1587.26 1338.71 1587.32 Q1337.4 1587.39 1336.79 1587.39 Q1336.19 1587.39 1336.19 1586.85 Q1336.19 1586.53 1336.28 1586.33 Q1336.34 1586.15 1336.52 1586.06 Q1336.7 1585.99 1336.86 1585.97 Q1337 1585.97 1337.27 1585.97 Q1338.3 1585.97 1338.76 1585.79 Q1339.21 1585.63 1339.36 1585.29 Q1339.54 1584.98 1339.75 1584.08 L1344.93 1563.52 Q1345.25 1562.14 1345.25 1561.17 Q1345.25 1559.96 1344.87 1559.5 Q1344.48 1559.05 1343.81 1559.05 Q1342.63 1559.05 1341.87 1560.45 Q1341.1 1561.85 1340.45 1564.55 Q1340.24 1565.3 1340.11 1565.46 Q1340 1565.61 1339.66 1565.61 Q1339.09 1565.59 1339.09 1565.14 Q1339.09 1565.03 1339.27 1564.31 Q1339.45 1563.56 1339.79 1562.48 Q1340.15 1561.38 1340.54 1560.68 Q1340.76 1560.2 1340.97 1559.89 Q1341.17 1559.57 1341.57 1559.08 Q1342 1558.58 1342.61 1558.31 Q1343.22 1558.04 1343.96 1558.04 Q1345.41 1558.04 1346.6 1558.9 Q1347.8 1559.75 1348.11 1561.49 Q1349.4 1559.98 1350.97 1559.01 Q1352.55 1558.04 1354.15 1558.04 Q1356.81 1558.04 1358.55 1560.11 Q1360.31 1562.16 1360.31 1565.41 M1356.97 1563.38 Q1356.97 1561.33 1356.18 1560.2 Q1355.42 1559.05 1354.02 1559.05 Q1352.28 1559.05 1350.28 1560.81 Q1348.29 1562.48 1347.89 1564.04 L1345.61 1573.08 L1345.47 1573.82 Q1345.47 1573.96 1345.54 1574.36 Q1345.63 1574.74 1345.88 1575.38 Q1346.15 1576.01 1346.51 1576.57 Q1346.89 1577.11 1347.57 1577.52 Q1348.27 1577.92 1349.13 1577.92 Q1350.5 1577.92 1351.99 1576.71 Q1353.5 1575.49 1354.63 1573.19 Q1355.33 1571.7 1356.14 1568.5 Q1356.97 1565.28 1356.97 1563.38 Z" fill="#000000" fill-rule="evenodd" fill-opacity="1" /><polyline clip-path="url(#clip482)" style="stroke:#000000; stroke-width:2; stroke-opacity:0.1; fill:none" points="
  311.862,1350.57 2352.76,1350.57 
  "/>
<polyline clip-path="url(#clip482)" style="stroke:#000000; stroke-width:2; stroke-opacity:0.1; fill:none" points="
  311.862,1033.83 2352.76,1033.83 
  "/>
<polyline clip-path="url(#clip482)" style="stroke:#000000; stroke-width:2; stroke-opacity:0.1; fill:none" points="
  311.862,717.088 2352.76,717.088 
  "/>
<polyline clip-path="url(#clip482)" style="stroke:#000000; stroke-width:2; stroke-opacity:0.1; fill:none" points="
  311.862,400.349 2352.76,400.349 
  "/>
<polyline clip-path="url(#clip482)" style="stroke:#000000; stroke-width:2; stroke-opacity:0.1; fill:none" points="
  311.862,83.6104 2352.76,83.6104 
  "/>
<polyline clip-path="url(#clip480)" style="stroke:#000000; stroke-width:4; stroke-opacity:1; fill:none" points="
  311.862,1388.53 311.862,47.2441 
  "/>
<polyline clip-path="url(#clip480)" style="stroke:#000000; stroke-width:4; stroke-opacity:1; fill:none" points="
  311.862,1350.57 336.353,1350.57 
  "/>
<polyline clip-path="url(#clip480)" style="stroke:#000000; stroke-width:4; stroke-opacity:1; fill:none" points="
  311.862,1033.83 336.353,1033.83 
  "/>
<polyline clip-path="url(#clip480)" style="stroke:#000000; stroke-width:4; stroke-opacity:1; fill:none" points="
  311.862,717.088 336.353,717.088 
  "/>
<polyline clip-path="url(#clip480)" style="stroke:#000000; stroke-width:4; stroke-opacity:1; fill:none" points="
  311.862,400.349 336.353,400.349 
  "/>
<polyline clip-path="url(#clip480)" style="stroke:#000000; stroke-width:4; stroke-opacity:1; fill:none" points="
  311.862,83.6104 336.353,83.6104 
  "/>
<path clip-path="url(#clip480)" d="M 0 0 M188.525 1336.36 Q184.914 1336.36 183.085 1339.93 Q181.28 1343.47 181.28 1350.6 Q181.28 1357.71 183.085 1361.27 Q184.914 1364.81 188.525 1364.81 Q192.159 1364.81 193.965 1361.27 Q195.793 1357.71 195.793 1350.6 Q195.793 1343.47 193.965 1339.93 Q192.159 1336.36 188.525 1336.36 M188.525 1332.66 Q194.335 1332.66 197.391 1337.27 Q200.469 1341.85 200.469 1350.6 Q200.469 1359.33 197.391 1363.93 Q194.335 1368.52 188.525 1368.52 Q182.715 1368.52 179.636 1363.93 Q176.581 1359.33 176.581 1350.6 Q176.581 1341.85 179.636 1337.27 Q182.715 1332.66 188.525 1332.66 Z" fill="#000000" fill-rule="evenodd" fill-opacity="1" /><path clip-path="url(#clip480)" d="M 0 0 M208.687 1361.97 L213.571 1361.97 L213.571 1367.85 L208.687 1367.85 L208.687 1361.97 Z" fill="#000000" fill-rule="evenodd" fill-opacity="1" /><path clip-path="url(#clip480)" d="M 0 0 M233.756 1336.36 Q230.145 1336.36 228.316 1339.93 Q226.511 1343.47 226.511 1350.6 Q226.511 1357.71 228.316 1361.27 Q230.145 1364.81 233.756 1364.81 Q237.39 1364.81 239.196 1361.27 Q241.025 1357.71 241.025 1350.6 Q241.025 1343.47 239.196 1339.93 Q237.39 1336.36 233.756 1336.36 M233.756 1332.66 Q239.566 1332.66 242.622 1337.27 Q245.701 1341.85 245.701 1350.6 Q245.701 1359.33 242.622 1363.93 Q239.566 1368.52 233.756 1368.52 Q227.946 1368.52 224.867 1363.93 Q221.812 1359.33 221.812 1350.6 Q221.812 1341.85 224.867 1337.27 Q227.946 1332.66 233.756 1332.66 Z" fill="#000000" fill-rule="evenodd" fill-opacity="1" /><path clip-path="url(#clip480)" d="M 0 0 M263.918 1336.36 Q260.307 1336.36 258.478 1339.93 Q256.673 1343.47 256.673 1350.6 Q256.673 1357.71 258.478 1361.27 Q260.307 1364.81 263.918 1364.81 Q267.552 1364.81 269.358 1361.27 Q271.187 1357.71 271.187 1350.6 Q271.187 1343.47 269.358 1339.93 Q267.552 1336.36 263.918 1336.36 M263.918 1332.66 Q269.728 1332.66 272.784 1337.27 Q275.862 1341.85 275.862 1350.6 Q275.862 1359.33 272.784 1363.93 Q269.728 1368.52 263.918 1368.52 Q258.108 1368.52 255.029 1363.93 Q251.974 1359.33 251.974 1350.6 Q251.974 1341.85 255.029 1337.27 Q258.108 1332.66 263.918 1332.66 Z" fill="#000000" fill-rule="evenodd" fill-opacity="1" /><path clip-path="url(#clip480)" d="M 0 0 M189.52 1019.63 Q185.909 1019.63 184.081 1023.19 Q182.275 1026.73 182.275 1033.86 Q182.275 1040.97 184.081 1044.53 Q185.909 1048.07 189.52 1048.07 Q193.155 1048.07 194.96 1044.53 Q196.789 1040.97 196.789 1033.86 Q196.789 1026.73 194.96 1023.19 Q193.155 1019.63 189.52 1019.63 M189.52 1015.92 Q195.33 1015.92 198.386 1020.53 Q201.465 1025.11 201.465 1033.86 Q201.465 1042.59 198.386 1047.19 Q195.33 1051.78 189.52 1051.78 Q183.71 1051.78 180.631 1047.19 Q177.576 1042.59 177.576 1033.86 Q177.576 1025.11 180.631 1020.53 Q183.71 1015.92 189.52 1015.92 Z" fill="#000000" fill-rule="evenodd" fill-opacity="1" /><path clip-path="url(#clip480)" d="M 0 0 M209.682 1045.23 L214.566 1045.23 L214.566 1051.11 L209.682 1051.11 L209.682 1045.23 Z" fill="#000000" fill-rule="evenodd" fill-opacity="1" /><path clip-path="url(#clip480)" d="M 0 0 M228.779 1047.17 L245.099 1047.17 L245.099 1051.11 L223.154 1051.11 L223.154 1047.17 Q225.816 1044.42 230.4 1039.79 Q235.006 1035.13 236.187 1033.79 Q238.432 1031.27 239.312 1029.53 Q240.214 1027.77 240.214 1026.08 Q240.214 1023.33 238.27 1021.59 Q236.349 1019.86 233.247 1019.86 Q231.048 1019.86 228.594 1020.62 Q226.164 1021.38 223.386 1022.94 L223.386 1018.21 Q226.21 1017.08 228.664 1016.5 Q231.117 1015.92 233.154 1015.92 Q238.525 1015.92 241.719 1018.61 Q244.914 1021.29 244.914 1025.78 Q244.914 1027.91 244.103 1029.83 Q243.316 1031.73 241.21 1034.32 Q240.631 1035 237.529 1038.21 Q234.427 1041.41 228.779 1047.17 Z" fill="#000000" fill-rule="evenodd" fill-opacity="1" /><path clip-path="url(#clip480)" d="M 0 0 M254.96 1016.55 L273.316 1016.55 L273.316 1020.48 L259.242 1020.48 L259.242 1028.95 Q260.261 1028.61 261.279 1028.44 Q262.298 1028.26 263.316 1028.26 Q269.103 1028.26 272.483 1031.43 Q275.862 1034.6 275.862 1040.02 Q275.862 1045.6 272.39 1048.7 Q268.918 1051.78 262.599 1051.78 Q260.423 1051.78 258.154 1051.41 Q255.909 1051.04 253.501 1050.3 L253.501 1045.6 Q255.585 1046.73 257.807 1047.29 Q260.029 1047.84 262.506 1047.84 Q266.511 1047.84 268.849 1045.74 Q271.187 1043.63 271.187 1040.02 Q271.187 1036.41 268.849 1034.3 Q266.511 1032.19 262.506 1032.19 Q260.631 1032.19 258.756 1032.61 Q256.904 1033.03 254.96 1033.91 L254.96 1016.55 Z" fill="#000000" fill-rule="evenodd" fill-opacity="1" /><path clip-path="url(#clip480)" d="M 0 0 M188.525 702.887 Q184.914 702.887 183.085 706.451 Q181.28 709.993 181.28 717.123 Q181.28 724.229 183.085 727.794 Q184.914 731.335 188.525 731.335 Q192.159 731.335 193.965 727.794 Q195.793 724.229 195.793 717.123 Q195.793 709.993 193.965 706.451 Q192.159 702.887 188.525 702.887 M188.525 699.183 Q194.335 699.183 197.391 703.789 Q200.469 708.373 200.469 717.123 Q200.469 725.849 197.391 730.456 Q194.335 735.039 188.525 735.039 Q182.715 735.039 179.636 730.456 Q176.581 725.849 176.581 717.123 Q176.581 708.373 179.636 703.789 Q182.715 699.183 188.525 699.183 Z" fill="#000000" fill-rule="evenodd" fill-opacity="1" /><path clip-path="url(#clip480)" d="M 0 0 M208.687 728.488 L213.571 728.488 L213.571 734.368 L208.687 734.368 L208.687 728.488 Z" fill="#000000" fill-rule="evenodd" fill-opacity="1" /><path clip-path="url(#clip480)" d="M 0 0 M223.803 699.808 L242.159 699.808 L242.159 703.743 L228.085 703.743 L228.085 712.215 Q229.103 711.868 230.122 711.706 Q231.14 711.521 232.159 711.521 Q237.946 711.521 241.326 714.692 Q244.705 717.863 244.705 723.28 Q244.705 728.859 241.233 731.96 Q237.761 735.039 231.441 735.039 Q229.265 735.039 226.997 734.669 Q224.752 734.298 222.344 733.558 L222.344 728.859 Q224.428 729.993 226.65 730.548 Q228.872 731.104 231.349 731.104 Q235.353 731.104 237.691 728.998 Q240.029 726.891 240.029 723.28 Q240.029 719.669 237.691 717.562 Q235.353 715.456 231.349 715.456 Q229.474 715.456 227.599 715.873 Q225.747 716.289 223.803 717.169 L223.803 699.808 Z" fill="#000000" fill-rule="evenodd" fill-opacity="1" /><path clip-path="url(#clip480)" d="M 0 0 M263.918 702.887 Q260.307 702.887 258.478 706.451 Q256.673 709.993 256.673 717.123 Q256.673 724.229 258.478 727.794 Q260.307 731.335 263.918 731.335 Q267.552 731.335 269.358 727.794 Q271.187 724.229 271.187 717.123 Q271.187 709.993 269.358 706.451 Q267.552 702.887 263.918 702.887 M263.918 699.183 Q269.728 699.183 272.784 703.789 Q275.862 708.373 275.862 717.123 Q275.862 725.849 272.784 730.456 Q269.728 735.039 263.918 735.039 Q258.108 735.039 255.029 730.456 Q251.974 725.849 251.974 717.123 Q251.974 708.373 255.029 703.789 Q258.108 699.183 263.918 699.183 Z" fill="#000000" fill-rule="evenodd" fill-opacity="1" /><path clip-path="url(#clip480)" d="M 0 0 M189.52 386.148 Q185.909 386.148 184.081 389.713 Q182.275 393.254 182.275 400.384 Q182.275 407.49 184.081 411.055 Q185.909 414.597 189.52 414.597 Q193.155 414.597 194.96 411.055 Q196.789 407.49 196.789 400.384 Q196.789 393.254 194.96 389.713 Q193.155 386.148 189.52 386.148 M189.52 382.444 Q195.33 382.444 198.386 387.051 Q201.465 391.634 201.465 400.384 Q201.465 409.111 198.386 413.717 Q195.33 418.3 189.52 418.3 Q183.71 418.3 180.631 413.717 Q177.576 409.111 177.576 400.384 Q177.576 391.634 180.631 387.051 Q183.71 382.444 189.52 382.444 Z" fill="#000000" fill-rule="evenodd" fill-opacity="1" /><path clip-path="url(#clip480)" d="M 0 0 M209.682 411.75 L214.566 411.75 L214.566 417.629 L209.682 417.629 L209.682 411.75 Z" fill="#000000" fill-rule="evenodd" fill-opacity="1" /><path clip-path="url(#clip480)" d="M 0 0 M223.571 383.069 L245.793 383.069 L245.793 385.06 L233.247 417.629 L228.363 417.629 L240.168 387.004 L223.571 387.004 L223.571 383.069 Z" fill="#000000" fill-rule="evenodd" fill-opacity="1" /><path clip-path="url(#clip480)" d="M 0 0 M254.96 383.069 L273.316 383.069 L273.316 387.004 L259.242 387.004 L259.242 395.476 Q260.261 395.129 261.279 394.967 Q262.298 394.782 263.316 394.782 Q269.103 394.782 272.483 397.953 Q275.862 401.125 275.862 406.541 Q275.862 412.12 272.39 415.222 Q268.918 418.3 262.599 418.3 Q260.423 418.3 258.154 417.93 Q255.909 417.56 253.501 416.819 L253.501 412.12 Q255.585 413.254 257.807 413.81 Q260.029 414.365 262.506 414.365 Q266.511 414.365 268.849 412.259 Q271.187 410.152 271.187 406.541 Q271.187 402.93 268.849 400.824 Q266.511 398.717 262.506 398.717 Q260.631 398.717 258.756 399.134 Q256.904 399.551 254.96 400.43 L254.96 383.069 Z" fill="#000000" fill-rule="evenodd" fill-opacity="1" /><path clip-path="url(#clip480)" d="M 0 0 M179.335 96.9552 L186.974 96.9552 L186.974 70.5896 L178.664 72.2563 L178.664 67.9971 L186.928 66.3304 L191.604 66.3304 L191.604 96.9552 L199.242 96.9552 L199.242 100.89 L179.335 100.89 L179.335 96.9552 Z" fill="#000000" fill-rule="evenodd" fill-opacity="1" /><path clip-path="url(#clip480)" d="M 0 0 M208.687 95.0108 L213.571 95.0108 L213.571 100.89 L208.687 100.89 L208.687 95.0108 Z" fill="#000000" fill-rule="evenodd" fill-opacity="1" /><path clip-path="url(#clip480)" d="M 0 0 M233.756 69.4091 Q230.145 69.4091 228.316 72.9739 Q226.511 76.5155 226.511 83.6451 Q226.511 90.7516 228.316 94.3164 Q230.145 97.858 233.756 97.858 Q237.39 97.858 239.196 94.3164 Q241.025 90.7516 241.025 83.6451 Q241.025 76.5155 239.196 72.9739 Q237.39 69.4091 233.756 69.4091 M233.756 65.7054 Q239.566 65.7054 242.622 70.3119 Q245.701 74.8952 245.701 83.6451 Q245.701 92.3719 242.622 96.9784 Q239.566 101.562 233.756 101.562 Q227.946 101.562 224.867 96.9784 Q221.812 92.3719 221.812 83.6451 Q221.812 74.8952 224.867 70.3119 Q227.946 65.7054 233.756 65.7054 Z" fill="#000000" fill-rule="evenodd" fill-opacity="1" /><path clip-path="url(#clip480)" d="M 0 0 M263.918 69.4091 Q260.307 69.4091 258.478 72.9739 Q256.673 76.5155 256.673 83.6451 Q256.673 90.7516 258.478 94.3164 Q260.307 97.858 263.918 97.858 Q267.552 97.858 269.358 94.3164 Q271.187 90.7516 271.187 83.6451 Q271.187 76.5155 269.358 72.9739 Q267.552 69.4091 263.918 69.4091 M263.918 65.7054 Q269.728 65.7054 272.784 70.3119 Q275.862 74.8952 275.862 83.6451 Q275.862 92.3719 272.784 96.9784 Q269.728 101.562 263.918 101.562 Q258.108 101.562 255.029 96.9784 Q251.974 92.3719 251.974 83.6451 Q251.974 74.8952 255.029 70.3119 Q258.108 65.7054 263.918 65.7054 Z" fill="#000000" fill-rule="evenodd" fill-opacity="1" /><path clip-path="url(#clip480)" d="M 0 0 M14.6618 735.637 Q15.1126 735.637 16.1754 735.927 L41.3604 742.24 Q46.9642 743.624 50.8934 748.133 Q54.8225 752.61 54.8225 757.698 Q54.8225 760.758 53.18 762.723 Q51.5697 764.687 49.0898 764.687 Q46.8998 764.687 45.837 763.528 Q44.8065 762.368 44.8065 760.983 Q44.8065 760.533 44.9353 760.049 Q45.0641 759.566 45.6116 759.051 Q46.1591 758.536 47.0931 758.536 Q48.6067 758.536 49.7984 759.856 Q50.3459 760.5 50.4747 761.112 Q50.6035 761.692 50.6035 762.69 Q51.5053 762.304 52.1172 761.595 Q52.7291 760.887 52.9545 760.082 Q53.2122 759.277 53.2766 758.761 Q53.3732 758.214 53.3732 757.698 Q53.3732 753.576 49.2187 750.42 Q47.9626 749.486 46.7066 748.81 Q45.4828 748.101 43.9691 747.586 Q42.4876 747.071 41.6825 746.845 Q40.8773 746.587 39.0416 746.137 Q42.0367 749.132 42.0367 752.803 Q42.0367 754.349 41.6181 755.734 Q41.1994 757.087 40.3298 758.278 Q39.4281 759.47 37.85 760.178 Q36.2719 760.855 34.1785 760.855 Q31.9563 760.855 28.929 759.985 Q25.9016 759.116 20.33 757.022 Q17.206 755.895 15.6924 755.895 Q14.9516 755.895 14.5007 756.056 Q14.0176 756.217 13.8566 756.539 Q13.6634 756.861 13.6312 757.054 Q13.599 757.215 13.599 757.537 Q13.599 759.438 15.5313 761.209 Q17.4637 762.98 21.7793 764.204 Q22.5844 764.462 22.7776 764.623 Q22.9709 764.784 22.9709 765.267 Q22.9387 766.072 22.2946 766.072 Q22.0369 766.072 21.0385 765.782 Q20.0079 765.492 18.4943 764.816 Q16.9484 764.107 15.5635 763.141 Q14.1465 762.175 13.1481 760.661 Q12.1497 759.116 12.1497 757.344 Q12.1497 754.929 13.7278 753.447 Q15.2737 751.934 17.5603 751.934 Q18.4943 751.934 19.3316 752.191 Q20.1368 752.417 22.2946 753.254 Q30.9901 756.636 35.2413 756.636 Q36.2719 756.636 37.1415 756.475 Q37.9788 756.281 38.8162 755.863 Q39.6213 755.444 40.1044 754.607 Q40.5553 753.737 40.5553 752.546 Q40.5553 751.032 39.8467 749.615 Q39.106 748.166 38.1076 747.264 Q37.1092 746.33 36.2719 745.782 Q35.4023 745.203 34.9515 745.074 L23.0997 742.111 L17.8179 740.79 Q14.9516 740.178 14.2431 739.889 Q13.5668 739.502 13.2125 738.826 Q12.8582 738.149 12.8582 737.57 Q12.8582 736.765 13.3413 736.217 Q13.8244 735.637 14.6618 735.637 Z" fill="#000000" fill-rule="evenodd" fill-opacity="1" /><path clip-path="url(#clip480)" d="M 0 0 M24.8066 734.078 Q13.6634 734.078 4.67795 729.923 Q0.909862 728.152 -2.24631 725.672 Q-5.40249 723.192 -6.78734 721.55 Q-8.17219 719.907 -8.17219 719.456 Q-8.17219 718.812 -7.52807 718.78 Q-7.20602 718.78 -6.40087 719.65 Q4.4203 730.277 24.8066 730.245 Q45.2573 730.245 55.6598 719.907 Q56.787 718.78 57.1413 718.78 Q57.7854 718.78 57.7854 719.456 Q57.7854 719.907 56.465 721.485 Q55.1445 723.063 52.1172 725.511 Q49.0898 727.959 45.3862 729.73 Q36.4007 734.078 24.8066 734.078 Z" fill="#000000" fill-rule="evenodd" fill-opacity="1" /><path clip-path="url(#clip480)" d="M 0 0 M13.599 688.493 Q14.5007 688.493 14.7262 688.912 Q14.9194 689.33 14.9194 690.49 L14.9194 696.673 L34.3718 701.568 Q36.0787 701.955 37.5279 701.955 Q39.1382 701.955 39.8467 701.472 Q40.5553 700.957 40.5553 699.894 Q40.5553 697.8 38.6551 695.546 Q36.755 693.259 32.1173 691.327 Q31.5054 691.069 31.3766 690.941 Q31.2156 690.78 31.2156 690.361 Q31.2156 689.556 31.8597 689.556 Q32.0851 689.556 33.1157 690.007 Q34.1463 690.425 35.66 691.359 Q37.1737 692.261 38.5907 693.453 Q40.0078 694.612 41.0384 696.383 Q42.0367 698.155 42.0367 700.055 Q42.0367 702.728 40.3298 704.435 Q38.6229 706.109 35.9498 706.109 Q35.0803 706.109 32.3106 705.433 Q29.5087 704.757 14.9194 701.085 L14.9194 706.915 Q14.9194 707.72 14.8872 708.042 Q14.855 708.332 14.694 708.557 Q14.5007 708.75 14.1143 708.75 Q13.5024 708.75 13.2447 708.493 Q12.9549 708.235 12.9226 707.913 Q12.8582 707.559 12.8582 706.754 L12.8582 700.57 L2.39133 697.994 Q1.36074 697.736 0.781038 697.092 Q0.169127 696.416 0.104715 696.029 Q0.00809742 695.643 0.00809742 695.353 Q0.00809742 694.483 0.491185 693.968 Q0.942067 693.453 1.77942 693.453 Q2.2303 693.453 12.8582 696.158 L12.8582 690.361 Q12.8582 689.62 12.8904 689.33 Q12.9226 689.008 13.0837 688.751 Q13.2447 688.493 13.599 688.493 Z" fill="#000000" fill-rule="evenodd" fill-opacity="1" /><path clip-path="url(#clip480)" d="M 0 0 M57.1413 685.177 Q56.8192 685.177 56.0141 684.34 Q45.1929 673.712 24.8066 673.712 Q4.35589 673.712 -5.98219 683.921 Q-7.17381 685.177 -7.52807 685.177 Q-8.17219 685.177 -8.17219 684.533 Q-8.17219 684.082 -6.85175 682.504 Q-5.53131 680.894 -2.50396 678.479 Q0.523391 676.031 4.22707 674.227 Q13.2125 669.88 24.8066 669.88 Q35.9498 669.88 44.9353 674.034 Q48.7034 675.805 51.8595 678.285 Q55.0157 680.765 56.4006 682.408 Q57.7854 684.05 57.7854 684.533 Q57.7854 685.177 57.1413 685.177 Z" fill="#000000" fill-rule="evenodd" fill-opacity="1" /><path clip-path="url(#clip480)" d="
M75.2241 787.072 L75.2241 641.658 L71.7041 641.658 L71.7041 787.072  Z
  " fill="#000000" fill-rule="evenodd" fill-opacity="1"/>
<path clip-path="url(#clip480)" d="M 0 0 M91.7545 730.937 Q92.1732 730.937 92.463 731.034 Q92.7207 731.13 92.8495 731.356 Q92.9783 731.581 93.0105 731.71 Q93.0427 731.839 93.0749 732.129 Q93.2038 733.514 93.4292 734.48 Q93.6546 735.414 94.8141 737.733 Q95.9735 740.019 98.0668 742.886 L106.988 754.415 L108.502 756.348 Q108.598 756.348 108.791 756.283 Q108.952 756.219 109.178 756.154 Q109.371 756.058 109.436 756.026 L131.046 746.654 Q132.785 745.913 133.397 745.011 Q134.009 744.109 134.041 742.08 Q134.041 741.758 134.073 741.629 Q134.073 741.468 134.137 741.243 Q134.17 740.985 134.331 740.889 Q134.492 740.76 134.749 740.76 Q136.07 740.76 136.07 741.952 Q136.07 742.692 135.973 745.204 Q135.877 747.716 135.877 748.425 Q135.877 749.745 135.973 752.451 Q136.07 755.156 136.07 756.476 Q136.07 757.41 135.329 757.41 Q134.717 757.41 134.427 757.185 Q134.105 756.927 134.073 756.702 Q134.041 756.476 134.041 755.961 Q134.041 755.575 134.009 755.156 Q133.944 754.705 133.783 754.061 Q133.59 753.385 133.139 752.966 Q132.656 752.515 131.98 752.515 Q131.432 752.515 129.661 753.32 L111.915 760.953 L119.58 770.776 L129.951 773.417 Q130.337 773.481 131.013 773.642 Q131.69 773.803 132.173 773.932 Q132.656 774.029 132.849 774.029 Q133.268 774.029 133.525 773.771 Q133.783 773.481 133.912 772.773 Q134.009 772.064 134.041 771.517 Q134.041 770.937 134.041 769.745 Q134.041 768.264 134.298 768.006 Q134.459 767.877 134.749 767.877 Q135.2 767.877 135.522 768.006 Q135.812 768.135 135.909 768.393 Q136.005 768.618 136.038 768.779 Q136.07 768.94 136.07 769.198 Q136.07 769.874 136.005 771.323 Q135.941 772.74 135.941 773.481 L135.877 777.7 L136.07 786.074 Q136.07 787.072 135.265 787.072 Q134.653 787.072 134.395 786.814 Q134.105 786.557 134.073 786.267 Q134.041 785.977 134.041 785.236 Q134.041 783.626 133.944 782.66 Q133.848 781.694 133.719 781.082 Q133.558 780.438 133.107 780.116 Q132.656 779.761 132.269 779.6 Q131.851 779.439 130.917 779.214 L95.4904 770.389 Q94.4276 770.132 94.2666 770.132 Q93.7191 770.132 93.5258 770.454 Q93.3004 770.744 93.2038 771.581 Q93.0749 773.191 93.0749 774.415 Q93.0749 775.22 93.0427 775.542 Q93.0105 775.832 92.8495 776.09 Q92.6563 776.315 92.2698 776.315 Q91.0138 776.315 91.0138 774.995 L91.207 766.492 L91.0138 758.054 Q91.0138 757.121 91.7545 757.121 Q92.6885 757.121 92.8817 757.571 Q93.0749 757.99 93.0749 759.375 Q93.0749 761.79 93.397 762.885 Q93.6868 763.948 94.2021 764.27 Q94.6852 764.56 96.1023 764.914 L117.262 770.196 L97.4871 744.464 Q95.4904 742.08 94.4598 742.08 Q93.7835 742.08 93.4936 742.563 Q93.1716 743.014 93.0749 744.142 Q92.9461 744.947 92.3342 744.947 Q91.7223 744.947 91.4324 744.721 Q91.1104 744.464 91.0782 744.27 Q91.0138 744.045 91.0138 743.691 Q91.0138 742.499 91.1104 740.019 Q91.207 737.539 91.207 736.348 Q91.207 735.543 91.1104 733.965 Q91.0138 732.386 91.0138 731.678 Q91.0138 731.324 91.2714 731.13 Q91.4968 730.937 91.7545 730.937 Z" fill="#000000" fill-rule="evenodd" fill-opacity="1" /><path clip-path="url(#clip480)" d="M 0 0 M135.167 700.316 Q138.458 700.316 141.637 701.984 Q144.816 703.63 146.777 706.223 Q148.716 708.815 148.716 711.453 Q148.716 713.031 147.859 714.09 Q146.98 715.128 145.74 715.691 Q147.273 716.119 150.948 717.044 Q154.622 717.968 154.983 717.968 Q155.186 717.968 155.276 717.923 Q155.366 717.878 155.479 717.675 Q155.614 717.472 155.659 716.976 Q155.727 716.48 155.727 715.646 Q155.727 715.218 155.727 715.06 Q155.75 714.88 155.862 714.722 Q155.975 714.541 156.223 714.541 Q157.147 714.541 157.147 715.375 Q157.147 716.119 157.08 717.652 Q157.012 719.185 157.012 719.952 Q157.012 720.606 157.08 721.913 Q157.147 723.221 157.147 723.83 Q157.147 724.438 156.606 724.438 Q156.291 724.438 156.088 724.348 Q155.907 724.28 155.817 724.1 Q155.75 723.92 155.727 723.762 Q155.727 723.627 155.727 723.356 Q155.727 722.319 155.547 721.868 Q155.389 721.417 155.051 721.259 Q154.735 721.079 153.833 720.876 L133.273 715.691 Q131.898 715.375 130.928 715.375 Q129.711 715.375 129.26 715.759 Q128.809 716.142 128.809 716.818 Q128.809 717.991 130.207 718.757 Q131.605 719.524 134.31 720.177 Q135.054 720.38 135.212 720.516 Q135.37 720.628 135.37 720.966 Q135.347 721.53 134.896 721.53 Q134.784 721.53 134.062 721.35 Q133.318 721.169 132.236 720.831 Q131.131 720.47 130.433 720.087 Q129.959 719.862 129.643 719.659 Q129.328 719.456 128.832 719.05 Q128.336 718.622 128.065 718.013 Q127.795 717.404 127.795 716.661 Q127.795 715.218 128.652 714.023 Q129.508 712.828 131.244 712.512 Q129.734 711.227 128.764 709.649 Q127.795 708.071 127.795 706.471 Q127.795 703.81 129.869 702.074 Q131.92 700.316 135.167 700.316 M133.138 703.653 Q131.086 703.653 129.959 704.442 Q128.809 705.208 128.809 706.606 Q128.809 708.342 130.568 710.348 Q132.236 712.332 133.792 712.738 L142.832 715.015 L143.576 715.15 Q143.711 715.15 144.117 715.082 Q144.5 714.992 145.131 714.744 Q145.762 714.474 146.326 714.113 Q146.867 713.73 147.273 713.053 Q147.679 712.355 147.679 711.498 Q147.679 710.123 146.461 708.635 Q145.244 707.124 142.944 705.997 Q141.457 705.298 138.255 704.487 Q135.032 703.653 133.138 703.653 Z" fill="#000000" fill-rule="evenodd" fill-opacity="1" /><path clip-path="url(#clip480)" d="M 0 0 M134.749 648.261 Q135.361 648.261 135.683 648.519 Q135.973 648.745 136.038 648.97 Q136.07 649.163 136.07 649.453 Q136.07 650.29 135.973 653.189 Q135.877 656.088 135.877 656.925 Q135.877 658.278 135.973 661.047 Q136.07 663.817 136.07 665.17 Q136.07 666.071 135.329 666.071 Q134.846 666.071 134.588 665.975 Q134.298 665.878 134.202 665.62 Q134.073 665.331 134.073 665.17 Q134.041 664.976 134.041 664.493 Q134.041 663.849 133.976 663.173 Q133.88 662.496 133.687 661.659 Q133.493 660.822 133.01 660.306 Q132.527 659.759 131.851 659.759 Q131.561 659.759 129.178 659.984 Q126.794 660.21 124.025 660.5 Q121.223 660.79 120.836 660.822 L120.836 677.376 Q123.445 678.889 125.249 679.952 Q127.052 681.015 127.664 681.401 Q128.276 681.788 128.662 682.013 Q129.049 682.239 129.274 682.367 Q130.981 683.301 131.722 683.301 Q133.783 683.301 134.041 680.21 Q134.041 679.147 134.814 679.147 Q135.393 679.147 135.715 679.405 Q136.005 679.662 136.038 679.888 Q136.07 680.081 136.07 680.403 Q136.07 681.466 135.973 683.688 Q135.877 685.91 135.877 687.005 Q135.877 687.939 135.973 689.871 Q136.07 691.804 136.07 692.673 Q136.07 693.06 135.844 693.285 Q135.619 693.511 135.329 693.511 Q134.878 693.511 134.62 693.446 Q134.363 693.35 134.234 693.092 Q134.105 692.834 134.105 692.706 Q134.073 692.577 134.041 692.126 Q133.88 689.678 132.72 687.778 Q131.529 685.846 128.469 684.01 L89.951 661.079 Q89.5645 660.854 89.3713 660.693 Q89.178 660.532 89.017 660.21 Q88.856 659.856 88.856 659.34 Q88.856 658.535 89.1136 658.374 Q89.3391 658.213 90.4341 658.116 L131.658 654.091 Q132.527 653.994 132.881 653.93 Q133.203 653.833 133.558 653.414 Q133.88 652.964 133.976 652.158 Q134.041 651.321 134.041 649.775 Q134.041 649.195 134.073 648.97 Q134.073 648.745 134.234 648.519 Q134.395 648.261 134.749 648.261 M118.775 661.015 L97.0363 663.108 L118.775 676.12 L118.775 661.015 Z" fill="#000000" fill-rule="evenodd" fill-opacity="1" /><polyline clip-path="url(#clip482)" style="stroke:#009af9; stroke-width:8; stroke-opacity:1; fill:none" points="
  311.862,1350.57 321.828,1350.57 331.793,1350.57 423.939,1350.57 516.084,1350.57 543.772,1350.57 571.46,1350.57 599.148,1350.57 626.835,1350.57 632.688,1350.57 
  638.54,1350.57 641.466,1350.57 644.393,1350.57 645.856,1350.57 647.319,1350.57 648.782,1350.57 650.245,1350.57 650.977,1350.57 651.708,1350.57 652.44,85.2049 
  653.171,87.9234 653.903,90.636 654.634,93.3428 655.366,96.0438 656.097,98.7389 659.024,109.462 661.95,120.093 667.802,141.083 673.655,161.714 685.36,201.928 
  697.064,240.781 708.769,278.32 720.474,314.59 745.904,389.215 771.333,458.464 796.762,522.726 822.192,582.358 869.079,681.276 915.967,767.457 966.235,847.566 
  1016.5,916.669 1074.74,984.949 1132.98,1042.48 1184.74,1085.97 1236.5,1123.32 1281.89,1151.7 1327.27,1176.54 1426.24,1220.48 1525.8,1253.48 1635.87,1280.32 
  1740.6,1298.94 1849.49,1313.08 1941.16,1321.94 2053.07,1329.96 2158.28,1335.44 2326.82,1341.35 2352.76,1342.03 
  "/>
</svg>
