<?xml version="1.0" encoding="utf-8"?>
<svg xmlns="http://www.w3.org/2000/svg" xmlns:xlink="http://www.w3.org/1999/xlink" width="600" height="400" viewBox="0 0 2400 1600">
<defs>
  <clipPath id="clip520">
    <rect x="0" y="0" width="2400" height="1600"/>
  </clipPath>
</defs>
<path clip-path="url(#clip520)" d="
M0 1600 L2400 1600 L2400 0 L0 0  Z
  " fill="#ffffff" fill-rule="evenodd" fill-opacity="1"/>
<defs>
  <clipPath id="clip521">
    <rect x="480" y="0" width="1681" height="1600"/>
  </clipPath>
</defs>
<defs>
  <clipPath id="clip522">
    <rect x="311" y="47" width="2042" height="1342"/>
  </clipPath>
</defs>
<path clip-path="url(#clip520)" d="
M230.199 1442.95 L2352.76 1442.95 L2352.76 47.2441 L230.199 47.2441  Z
  " fill="#ffffff" fill-rule="evenodd" fill-opacity="1"/>
<defs>
  <clipPath id="clip523">
    <rect x="230" y="47" width="2124" height="1397"/>
  </clipPath>
</defs>
<polyline clip-path="url(#clip523)" style="stroke:#000000; stroke-width:2; stroke-opacity:0.1; fill:none" points="
  346.944,1442.95 346.944,47.2441 
  "/>
<polyline clip-path="url(#clip523)" style="stroke:#000000; stroke-width:2; stroke-opacity:0.1; fill:none" points="
  661.788,1442.95 661.788,47.2441 
  "/>
<polyline clip-path="url(#clip523)" style="stroke:#000000; stroke-width:2; stroke-opacity:0.1; fill:none" points="
  976.633,1442.95 976.633,47.2441 
  "/>
<polyline clip-path="url(#clip523)" style="stroke:#000000; stroke-width:2; stroke-opacity:0.1; fill:none" points="
  1291.48,1442.95 1291.48,47.2441 
  "/>
<polyline clip-path="url(#clip523)" style="stroke:#000000; stroke-width:2; stroke-opacity:0.1; fill:none" points="
  1606.32,1442.95 1606.32,47.2441 
  "/>
<polyline clip-path="url(#clip523)" style="stroke:#000000; stroke-width:2; stroke-opacity:0.1; fill:none" points="
  1921.17,1442.95 1921.17,47.2441 
  "/>
<polyline clip-path="url(#clip523)" style="stroke:#000000; stroke-width:2; stroke-opacity:0.1; fill:none" points="
  2236.01,1442.95 2236.01,47.2441 
  "/>
<polyline clip-path="url(#clip520)" style="stroke:#000000; stroke-width:4; stroke-opacity:1; fill:none" points="
  230.199,1442.95 2352.76,1442.95 
  "/>
<polyline clip-path="url(#clip520)" style="stroke:#000000; stroke-width:4; stroke-opacity:1; fill:none" points="
  346.944,1442.95 346.944,1426.2 
  "/>
<polyline clip-path="url(#clip520)" style="stroke:#000000; stroke-width:4; stroke-opacity:1; fill:none" points="
  661.788,1442.95 661.788,1426.2 
  "/>
<polyline clip-path="url(#clip520)" style="stroke:#000000; stroke-width:4; stroke-opacity:1; fill:none" points="
  976.633,1442.95 976.633,1426.2 
  "/>
<polyline clip-path="url(#clip520)" style="stroke:#000000; stroke-width:4; stroke-opacity:1; fill:none" points="
  1291.48,1442.95 1291.48,1426.2 
  "/>
<polyline clip-path="url(#clip520)" style="stroke:#000000; stroke-width:4; stroke-opacity:1; fill:none" points="
  1606.32,1442.95 1606.32,1426.2 
  "/>
<polyline clip-path="url(#clip520)" style="stroke:#000000; stroke-width:4; stroke-opacity:1; fill:none" points="
  1921.17,1442.95 1921.17,1426.2 
  "/>
<polyline clip-path="url(#clip520)" style="stroke:#000000; stroke-width:4; stroke-opacity:1; fill:none" points="
  2236.01,1442.95 2236.01,1426.2 
  "/>
<path clip-path="url(#clip520)" d="M 0 0 M316.701 1486.79 L346.376 1486.79 L346.376 1490.73 L316.701 1490.73 L316.701 1486.79 Z" fill="#000000" fill-rule="evenodd" fill-opacity="1" /><path clip-path="url(#clip520)" d="M 0 0 M357.279 1499.69 L364.918 1499.69 L364.918 1473.32 L356.608 1474.99 L356.608 1470.73 L364.872 1469.06 L369.548 1469.06 L369.548 1499.69 L377.186 1499.69 L377.186 1503.62 L357.279 1503.62 L357.279 1499.69 Z" fill="#000000" fill-rule="evenodd" fill-opacity="1" /><path clip-path="url(#clip520)" d="M 0 0 M661.788 1472.14 Q658.177 1472.14 656.348 1475.71 Q654.543 1479.25 654.543 1486.38 Q654.543 1493.48 656.348 1497.05 Q658.177 1500.59 661.788 1500.59 Q665.422 1500.59 667.228 1497.05 Q669.057 1493.48 669.057 1486.38 Q669.057 1479.25 667.228 1475.71 Q665.422 1472.14 661.788 1472.14 M661.788 1468.44 Q667.598 1468.44 670.654 1473.04 Q673.733 1477.63 673.733 1486.38 Q673.733 1495.1 670.654 1499.71 Q667.598 1504.29 661.788 1504.29 Q655.978 1504.29 652.899 1499.71 Q649.844 1495.1 649.844 1486.38 Q649.844 1477.63 652.899 1473.04 Q655.978 1468.44 661.788 1468.44 Z" fill="#000000" fill-rule="evenodd" fill-opacity="1" /><path clip-path="url(#clip520)" d="M 0 0 M967.015 1499.69 L974.654 1499.69 L974.654 1473.32 L966.344 1474.99 L966.344 1470.73 L974.607 1469.06 L979.283 1469.06 L979.283 1499.69 L986.922 1499.69 L986.922 1503.62 L967.015 1503.62 L967.015 1499.69 Z" fill="#000000" fill-rule="evenodd" fill-opacity="1" /><path clip-path="url(#clip520)" d="M 0 0 M1286.13 1499.69 L1302.45 1499.69 L1302.45 1503.62 L1280.51 1503.62 L1280.51 1499.69 Q1283.17 1496.93 1287.75 1492.3 Q1292.36 1487.65 1293.54 1486.31 Q1295.78 1483.78 1296.66 1482.05 Q1297.57 1480.29 1297.57 1478.6 Q1297.57 1475.84 1295.62 1474.11 Q1293.7 1472.37 1290.6 1472.37 Q1288.4 1472.37 1285.95 1473.14 Q1283.51 1473.9 1280.74 1475.45 L1280.74 1470.73 Q1283.56 1469.59 1286.01 1469.02 Q1288.47 1468.44 1290.51 1468.44 Q1295.88 1468.44 1299.07 1471.12 Q1302.26 1473.81 1302.26 1478.3 Q1302.26 1480.43 1301.45 1482.35 Q1300.67 1484.25 1298.56 1486.84 Q1297.98 1487.51 1294.88 1490.73 Q1291.78 1493.92 1286.13 1499.69 Z" fill="#000000" fill-rule="evenodd" fill-opacity="1" /><path clip-path="url(#clip520)" d="M 0 0 M1610.57 1484.99 Q1613.93 1485.71 1615.8 1487.97 Q1617.7 1490.24 1617.7 1493.58 Q1617.7 1498.69 1614.18 1501.49 Q1610.66 1504.29 1604.18 1504.29 Q1602.01 1504.29 1599.69 1503.85 Q1597.4 1503.44 1594.94 1502.58 L1594.94 1498.07 Q1596.89 1499.2 1599.2 1499.78 Q1601.52 1500.36 1604.04 1500.36 Q1608.44 1500.36 1610.73 1498.62 Q1613.05 1496.89 1613.05 1493.58 Q1613.05 1490.52 1610.89 1488.81 Q1608.76 1487.07 1604.94 1487.07 L1600.92 1487.07 L1600.92 1483.23 L1605.13 1483.23 Q1608.58 1483.23 1610.41 1481.86 Q1612.24 1480.47 1612.24 1477.88 Q1612.24 1475.22 1610.34 1473.81 Q1608.46 1472.37 1604.94 1472.37 Q1603.02 1472.37 1600.82 1472.79 Q1598.63 1473.21 1595.99 1474.08 L1595.99 1469.92 Q1598.65 1469.18 1600.96 1468.81 Q1603.3 1468.44 1605.36 1468.44 Q1610.69 1468.44 1613.79 1470.87 Q1616.89 1473.27 1616.89 1477.4 Q1616.89 1480.27 1615.25 1482.26 Q1613.6 1484.22 1610.57 1484.99 Z" fill="#000000" fill-rule="evenodd" fill-opacity="1" /><path clip-path="url(#clip520)" d="M 0 0 M1924.18 1473.14 L1912.37 1491.58 L1924.18 1491.58 L1924.18 1473.14 M1922.95 1469.06 L1928.83 1469.06 L1928.83 1491.58 L1933.76 1491.58 L1933.76 1495.47 L1928.83 1495.47 L1928.83 1503.62 L1924.18 1503.62 L1924.18 1495.47 L1908.57 1495.47 L1908.57 1490.96 L1922.95 1469.06 Z" fill="#000000" fill-rule="evenodd" fill-opacity="1" /><path clip-path="url(#clip520)" d="M 0 0 M2226.29 1469.06 L2244.65 1469.06 L2244.65 1473 L2230.57 1473 L2230.57 1481.47 Q2231.59 1481.12 2232.61 1480.96 Q2233.63 1480.77 2234.65 1480.77 Q2240.43 1480.77 2243.81 1483.95 Q2247.19 1487.12 2247.19 1492.53 Q2247.19 1498.11 2243.72 1501.21 Q2240.25 1504.29 2233.93 1504.29 Q2231.75 1504.29 2229.48 1503.92 Q2227.24 1503.55 2224.83 1502.81 L2224.83 1498.11 Q2226.91 1499.25 2229.14 1499.8 Q2231.36 1500.36 2233.84 1500.36 Q2237.84 1500.36 2240.18 1498.25 Q2242.52 1496.15 2242.52 1492.53 Q2242.52 1488.92 2240.18 1486.82 Q2237.84 1484.71 2233.84 1484.71 Q2231.96 1484.71 2230.09 1485.13 Q2228.23 1485.54 2226.29 1486.42 L2226.29 1469.06 Z" fill="#000000" fill-rule="evenodd" fill-opacity="1" /><path clip-path="url(#clip520)" d="M 0 0 M1299.95 1539.82 Q1299.95 1540.72 1299.53 1540.95 Q1299.11 1541.14 1297.95 1541.14 L1291.77 1541.14 L1286.87 1560.59 Q1286.49 1562.3 1286.49 1563.75 Q1286.49 1565.36 1286.97 1566.07 Q1287.48 1566.78 1288.55 1566.78 Q1290.64 1566.78 1292.9 1564.88 Q1295.18 1562.98 1297.11 1558.34 Q1297.37 1557.73 1297.5 1557.6 Q1297.66 1557.44 1298.08 1557.44 Q1298.89 1557.44 1298.89 1558.08 Q1298.89 1558.31 1298.43 1559.34 Q1298.02 1560.37 1297.08 1561.88 Q1296.18 1563.4 1294.99 1564.81 Q1293.83 1566.23 1292.06 1567.26 Q1290.29 1568.26 1288.39 1568.26 Q1285.71 1568.26 1284.01 1566.55 Q1282.33 1564.84 1282.33 1562.17 Q1282.33 1561.3 1283.01 1558.53 Q1283.68 1555.73 1287.36 1541.14 L1281.53 1541.14 Q1280.72 1541.14 1280.4 1541.11 Q1280.11 1541.08 1279.88 1540.92 Q1279.69 1540.72 1279.69 1540.34 Q1279.69 1539.72 1279.95 1539.47 Q1280.21 1539.18 1280.53 1539.14 Q1280.88 1539.08 1281.69 1539.08 L1287.87 1539.08 L1290.45 1528.61 Q1290.71 1527.58 1291.35 1527 Q1292.03 1526.39 1292.41 1526.33 Q1292.8 1526.23 1293.09 1526.23 Q1293.96 1526.23 1294.47 1526.71 Q1294.99 1527.16 1294.99 1528 Q1294.99 1528.45 1292.28 1539.08 L1298.08 1539.08 Q1298.82 1539.08 1299.11 1539.11 Q1299.43 1539.14 1299.69 1539.31 Q1299.95 1539.47 1299.95 1539.82 Z" fill="#000000" fill-rule="evenodd" fill-opacity="1" /><polyline clip-path="url(#clip523)" style="stroke:#000000; stroke-width:2; stroke-opacity:0.1; fill:none" points="
  230.199,1403.45 2352.76,1403.45 
  "/>
<polyline clip-path="url(#clip523)" style="stroke:#000000; stroke-width:2; stroke-opacity:0.1; fill:none" points="
  230.199,1073.86 2352.76,1073.86 
  "/>
<polyline clip-path="url(#clip523)" style="stroke:#000000; stroke-width:2; stroke-opacity:0.1; fill:none" points="
  230.199,744.267 2352.76,744.267 
  "/>
<polyline clip-path="url(#clip523)" style="stroke:#000000; stroke-width:2; stroke-opacity:0.1; fill:none" points="
  230.199,414.677 2352.76,414.677 
  "/>
<polyline clip-path="url(#clip523)" style="stroke:#000000; stroke-width:2; stroke-opacity:0.1; fill:none" points="
  230.199,85.086 2352.76,85.086 
  "/>
<polyline clip-path="url(#clip520)" style="stroke:#000000; stroke-width:4; stroke-opacity:1; fill:none" points="
  230.199,1442.95 230.199,47.2441 
  "/>
<polyline clip-path="url(#clip520)" style="stroke:#000000; stroke-width:4; stroke-opacity:1; fill:none" points="
  230.199,1403.45 255.67,1403.45 
  "/>
<polyline clip-path="url(#clip520)" style="stroke:#000000; stroke-width:4; stroke-opacity:1; fill:none" points="
  230.199,1073.86 255.67,1073.86 
  "/>
<polyline clip-path="url(#clip520)" style="stroke:#000000; stroke-width:4; stroke-opacity:1; fill:none" points="
  230.199,744.267 255.67,744.267 
  "/>
<polyline clip-path="url(#clip520)" style="stroke:#000000; stroke-width:4; stroke-opacity:1; fill:none" points="
  230.199,414.677 255.67,414.677 
  "/>
<polyline clip-path="url(#clip520)" style="stroke:#000000; stroke-width:4; stroke-opacity:1; fill:none" points="
  230.199,85.086 255.67,85.086 
  "/>
<path clip-path="url(#clip520)" d="M 0 0 M106.862 1389.25 Q103.251 1389.25 101.422 1392.81 Q99.6163 1396.35 99.6163 1403.48 Q99.6163 1410.59 101.422 1414.15 Q103.251 1417.7 106.862 1417.7 Q110.496 1417.7 112.301 1414.15 Q114.13 1410.59 114.13 1403.48 Q114.13 1396.35 112.301 1392.81 Q110.496 1389.25 106.862 1389.25 M106.862 1385.54 Q112.672 1385.54 115.727 1390.15 Q118.806 1394.73 118.806 1403.48 Q118.806 1412.21 115.727 1416.82 Q112.672 1421.4 106.862 1421.4 Q101.051 1421.4 97.9728 1416.82 Q94.9172 1412.21 94.9172 1403.48 Q94.9172 1394.73 97.9728 1390.15 Q101.051 1385.54 106.862 1385.54 Z" fill="#000000" fill-rule="evenodd" fill-opacity="1" /><path clip-path="url(#clip520)" d="M 0 0 M127.024 1414.85 L131.908 1414.85 L131.908 1420.73 L127.024 1420.73 L127.024 1414.85 Z" fill="#000000" fill-rule="evenodd" fill-opacity="1" /><path clip-path="url(#clip520)" d="M 0 0 M152.093 1389.25 Q148.482 1389.25 146.653 1392.81 Q144.848 1396.35 144.848 1403.48 Q144.848 1410.59 146.653 1414.15 Q148.482 1417.7 152.093 1417.7 Q155.727 1417.7 157.533 1414.15 Q159.361 1410.59 159.361 1403.48 Q159.361 1396.35 157.533 1392.81 Q155.727 1389.25 152.093 1389.25 M152.093 1385.54 Q157.903 1385.54 160.959 1390.15 Q164.037 1394.73 164.037 1403.48 Q164.037 1412.21 160.959 1416.82 Q157.903 1421.4 152.093 1421.4 Q146.283 1421.4 143.204 1416.82 Q140.148 1412.21 140.148 1403.48 Q140.148 1394.73 143.204 1390.15 Q146.283 1385.54 152.093 1385.54 Z" fill="#000000" fill-rule="evenodd" fill-opacity="1" /><path clip-path="url(#clip520)" d="M 0 0 M182.255 1389.25 Q178.644 1389.25 176.815 1392.81 Q175.009 1396.35 175.009 1403.48 Q175.009 1410.59 176.815 1414.15 Q178.644 1417.7 182.255 1417.7 Q185.889 1417.7 187.695 1414.15 Q189.523 1410.59 189.523 1403.48 Q189.523 1396.35 187.695 1392.81 Q185.889 1389.25 182.255 1389.25 M182.255 1385.54 Q188.065 1385.54 191.12 1390.15 Q194.199 1394.73 194.199 1403.48 Q194.199 1412.21 191.12 1416.82 Q188.065 1421.4 182.255 1421.4 Q176.445 1421.4 173.366 1416.82 Q170.31 1412.21 170.31 1403.48 Q170.31 1394.73 173.366 1390.15 Q176.445 1385.54 182.255 1385.54 Z" fill="#000000" fill-rule="evenodd" fill-opacity="1" /><path clip-path="url(#clip520)" d="M 0 0 M107.857 1059.66 Q104.246 1059.66 102.417 1063.22 Q100.612 1066.76 100.612 1073.89 Q100.612 1081 102.417 1084.56 Q104.246 1088.11 107.857 1088.11 Q111.491 1088.11 113.297 1084.56 Q115.125 1081 115.125 1073.89 Q115.125 1066.76 113.297 1063.22 Q111.491 1059.66 107.857 1059.66 M107.857 1055.95 Q113.667 1055.95 116.723 1060.56 Q119.801 1065.14 119.801 1073.89 Q119.801 1082.62 116.723 1087.23 Q113.667 1091.81 107.857 1091.81 Q102.047 1091.81 98.9681 1087.23 Q95.9126 1082.62 95.9126 1073.89 Q95.9126 1065.14 98.9681 1060.56 Q102.047 1055.95 107.857 1055.95 Z" fill="#000000" fill-rule="evenodd" fill-opacity="1" /><path clip-path="url(#clip520)" d="M 0 0 M128.019 1085.26 L132.903 1085.26 L132.903 1091.14 L128.019 1091.14 L128.019 1085.26 Z" fill="#000000" fill-rule="evenodd" fill-opacity="1" /><path clip-path="url(#clip520)" d="M 0 0 M147.116 1087.2 L163.435 1087.2 L163.435 1091.14 L141.491 1091.14 L141.491 1087.2 Q144.153 1084.45 148.736 1079.82 Q153.343 1075.17 154.523 1073.82 Q156.769 1071.3 157.648 1069.56 Q158.551 1067.8 158.551 1066.12 Q158.551 1063.36 156.607 1061.62 Q154.685 1059.89 151.584 1059.89 Q149.385 1059.89 146.931 1060.65 Q144.5 1061.42 141.723 1062.97 L141.723 1058.24 Q144.547 1057.11 147 1056.53 Q149.454 1055.95 151.491 1055.95 Q156.861 1055.95 160.056 1058.64 Q163.25 1061.32 163.25 1065.81 Q163.25 1067.94 162.44 1069.87 Q161.653 1071.76 159.547 1074.36 Q158.968 1075.03 155.866 1078.24 Q152.764 1081.44 147.116 1087.2 Z" fill="#000000" fill-rule="evenodd" fill-opacity="1" /><path clip-path="url(#clip520)" d="M 0 0 M173.296 1056.58 L191.653 1056.58 L191.653 1060.51 L177.579 1060.51 L177.579 1068.99 Q178.597 1068.64 179.616 1068.48 Q180.634 1068.29 181.653 1068.29 Q187.44 1068.29 190.82 1071.46 Q194.199 1074.63 194.199 1080.05 Q194.199 1085.63 190.727 1088.73 Q187.255 1091.81 180.935 1091.81 Q178.759 1091.81 176.491 1091.44 Q174.246 1091.07 171.838 1090.33 L171.838 1085.63 Q173.921 1086.76 176.144 1087.32 Q178.366 1087.87 180.843 1087.87 Q184.847 1087.87 187.185 1085.77 Q189.523 1083.66 189.523 1080.05 Q189.523 1076.44 187.185 1074.33 Q184.847 1072.23 180.843 1072.23 Q178.968 1072.23 177.093 1072.64 Q175.241 1073.06 173.296 1073.94 L173.296 1056.58 Z" fill="#000000" fill-rule="evenodd" fill-opacity="1" /><path clip-path="url(#clip520)" d="M 0 0 M106.862 730.066 Q103.251 730.066 101.422 733.631 Q99.6163 737.172 99.6163 744.302 Q99.6163 751.409 101.422 754.973 Q103.251 758.515 106.862 758.515 Q110.496 758.515 112.301 754.973 Q114.13 751.409 114.13 744.302 Q114.13 737.172 112.301 733.631 Q110.496 730.066 106.862 730.066 M106.862 726.362 Q112.672 726.362 115.727 730.969 Q118.806 735.552 118.806 744.302 Q118.806 753.029 115.727 757.635 Q112.672 762.219 106.862 762.219 Q101.051 762.219 97.9728 757.635 Q94.9172 753.029 94.9172 744.302 Q94.9172 735.552 97.9728 730.969 Q101.051 726.362 106.862 726.362 Z" fill="#000000" fill-rule="evenodd" fill-opacity="1" /><path clip-path="url(#clip520)" d="M 0 0 M127.024 755.668 L131.908 755.668 L131.908 761.547 L127.024 761.547 L127.024 755.668 Z" fill="#000000" fill-rule="evenodd" fill-opacity="1" /><path clip-path="url(#clip520)" d="M 0 0 M142.139 726.987 L160.496 726.987 L160.496 730.923 L146.422 730.923 L146.422 739.395 Q147.44 739.047 148.459 738.885 Q149.477 738.7 150.496 738.7 Q156.283 738.7 159.662 741.872 Q163.042 745.043 163.042 750.459 Q163.042 756.038 159.57 759.14 Q156.097 762.219 149.778 762.219 Q147.602 762.219 145.334 761.848 Q143.088 761.478 140.681 760.737 L140.681 756.038 Q142.764 757.172 144.986 757.728 Q147.209 758.283 149.685 758.283 Q153.69 758.283 156.028 756.177 Q158.366 754.071 158.366 750.459 Q158.366 746.848 156.028 744.742 Q153.69 742.635 149.685 742.635 Q147.81 742.635 145.935 743.052 Q144.084 743.469 142.139 744.348 L142.139 726.987 Z" fill="#000000" fill-rule="evenodd" fill-opacity="1" /><path clip-path="url(#clip520)" d="M 0 0 M182.255 730.066 Q178.644 730.066 176.815 733.631 Q175.009 737.172 175.009 744.302 Q175.009 751.409 176.815 754.973 Q178.644 758.515 182.255 758.515 Q185.889 758.515 187.695 754.973 Q189.523 751.409 189.523 744.302 Q189.523 737.172 187.695 733.631 Q185.889 730.066 182.255 730.066 M182.255 726.362 Q188.065 726.362 191.12 730.969 Q194.199 735.552 194.199 744.302 Q194.199 753.029 191.12 757.635 Q188.065 762.219 182.255 762.219 Q176.445 762.219 173.366 757.635 Q170.31 753.029 170.31 744.302 Q170.31 735.552 173.366 730.969 Q176.445 726.362 182.255 726.362 Z" fill="#000000" fill-rule="evenodd" fill-opacity="1" /><path clip-path="url(#clip520)" d="M 0 0 M107.857 400.475 Q104.246 400.475 102.417 404.04 Q100.612 407.582 100.612 414.711 Q100.612 421.818 102.417 425.383 Q104.246 428.924 107.857 428.924 Q111.491 428.924 113.297 425.383 Q115.125 421.818 115.125 414.711 Q115.125 407.582 113.297 404.04 Q111.491 400.475 107.857 400.475 M107.857 396.772 Q113.667 396.772 116.723 401.378 Q119.801 405.961 119.801 414.711 Q119.801 423.438 116.723 428.045 Q113.667 432.628 107.857 432.628 Q102.047 432.628 98.9681 428.045 Q95.9126 423.438 95.9126 414.711 Q95.9126 405.961 98.9681 401.378 Q102.047 396.772 107.857 396.772 Z" fill="#000000" fill-rule="evenodd" fill-opacity="1" /><path clip-path="url(#clip520)" d="M 0 0 M128.019 426.077 L132.903 426.077 L132.903 431.957 L128.019 431.957 L128.019 426.077 Z" fill="#000000" fill-rule="evenodd" fill-opacity="1" /><path clip-path="url(#clip520)" d="M 0 0 M141.908 397.397 L164.13 397.397 L164.13 399.387 L151.584 431.957 L146.699 431.957 L158.505 401.332 L141.908 401.332 L141.908 397.397 Z" fill="#000000" fill-rule="evenodd" fill-opacity="1" /><path clip-path="url(#clip520)" d="M 0 0 M173.296 397.397 L191.653 397.397 L191.653 401.332 L177.579 401.332 L177.579 409.804 Q178.597 409.457 179.616 409.295 Q180.634 409.11 181.653 409.11 Q187.44 409.11 190.82 412.281 Q194.199 415.452 194.199 420.869 Q194.199 426.447 190.727 429.549 Q187.255 432.628 180.935 432.628 Q178.759 432.628 176.491 432.258 Q174.246 431.887 171.838 431.147 L171.838 426.447 Q173.921 427.582 176.144 428.137 Q178.366 428.693 180.843 428.693 Q184.847 428.693 187.185 426.586 Q189.523 424.48 189.523 420.869 Q189.523 417.258 187.185 415.151 Q184.847 413.045 180.843 413.045 Q178.968 413.045 177.093 413.461 Q175.241 413.878 173.296 414.758 L173.296 397.397 Z" fill="#000000" fill-rule="evenodd" fill-opacity="1" /><path clip-path="url(#clip520)" d="M 0 0 M97.6719 98.4308 L105.311 98.4308 L105.311 72.0652 L97.0006 73.7319 L97.0006 69.4727 L105.264 67.806 L109.94 67.806 L109.94 98.4308 L117.579 98.4308 L117.579 102.366 L97.6719 102.366 L97.6719 98.4308 Z" fill="#000000" fill-rule="evenodd" fill-opacity="1" /><path clip-path="url(#clip520)" d="M 0 0 M127.024 96.4864 L131.908 96.4864 L131.908 102.366 L127.024 102.366 L127.024 96.4864 Z" fill="#000000" fill-rule="evenodd" fill-opacity="1" /><path clip-path="url(#clip520)" d="M 0 0 M152.093 70.8847 Q148.482 70.8847 146.653 74.4495 Q144.848 77.9911 144.848 85.1207 Q144.848 92.2272 146.653 95.792 Q148.482 99.3336 152.093 99.3336 Q155.727 99.3336 157.533 95.792 Q159.361 92.2272 159.361 85.1207 Q159.361 77.9911 157.533 74.4495 Q155.727 70.8847 152.093 70.8847 M152.093 67.181 Q157.903 67.181 160.959 71.7875 Q164.037 76.3708 164.037 85.1207 Q164.037 93.8475 160.959 98.454 Q157.903 103.037 152.093 103.037 Q146.283 103.037 143.204 98.454 Q140.148 93.8475 140.148 85.1207 Q140.148 76.3708 143.204 71.7875 Q146.283 67.181 152.093 67.181 Z" fill="#000000" fill-rule="evenodd" fill-opacity="1" /><path clip-path="url(#clip520)" d="M 0 0 M182.255 70.8847 Q178.644 70.8847 176.815 74.4495 Q175.009 77.9911 175.009 85.1207 Q175.009 92.2272 176.815 95.792 Q178.644 99.3336 182.255 99.3336 Q185.889 99.3336 187.695 95.792 Q189.523 92.2272 189.523 85.1207 Q189.523 77.9911 187.695 74.4495 Q185.889 70.8847 182.255 70.8847 M182.255 67.181 Q188.065 67.181 191.12 71.7875 Q194.199 76.3708 194.199 85.1207 Q194.199 93.8475 191.12 98.454 Q188.065 103.037 182.255 103.037 Q176.445 103.037 173.366 98.454 Q170.31 93.8475 170.31 85.1207 Q170.31 76.3708 173.366 71.7875 Q176.445 67.181 182.255 67.181 Z" fill="#000000" fill-rule="evenodd" fill-opacity="1" /><path clip-path="url(#clip520)" d="M 0 0 M23.1189 730.66 Q23.5698 730.66 24.6326 730.949 L49.8176 737.262 Q55.4214 738.647 59.3505 743.155 Q63.2796 747.632 63.2796 752.721 Q63.2796 755.78 61.6371 757.745 Q60.0268 759.709 57.547 759.709 Q55.357 759.709 54.2942 758.55 Q53.2636 757.39 53.2636 756.006 Q53.2636 755.555 53.3924 755.072 Q53.5213 754.588 54.0688 754.073 Q54.6163 753.558 55.5502 753.558 Q57.0639 753.558 58.2555 754.878 Q58.803 755.522 58.9318 756.134 Q59.0607 756.714 59.0607 757.712 Q59.9624 757.326 60.5743 756.617 Q61.1863 755.909 61.4117 755.104 Q61.6693 754.299 61.7338 753.783 Q61.8304 753.236 61.8304 752.721 Q61.8304 748.598 57.6758 745.442 Q56.4198 744.508 55.1638 743.832 Q53.9399 743.123 52.4263 742.608 Q50.9448 742.093 50.1396 741.867 Q49.3345 741.61 47.4988 741.159 Q50.4939 744.154 50.4939 747.825 Q50.4939 749.371 50.0752 750.756 Q49.6566 752.109 48.787 753.3 Q47.8852 754.492 46.3072 755.2 Q44.7291 755.877 42.6357 755.877 Q40.4135 755.877 37.3861 755.007 Q34.3588 754.138 28.7872 752.044 Q25.6632 750.917 24.1495 750.917 Q23.4088 750.917 22.9579 751.078 Q22.4748 751.239 22.3138 751.561 Q22.1205 751.883 22.0883 752.076 Q22.0561 752.237 22.0561 752.56 Q22.0561 754.46 23.9885 756.231 Q25.9208 758.002 30.2364 759.226 Q31.0416 759.484 31.2348 759.645 Q31.428 759.806 31.428 760.289 Q31.3958 761.094 30.7517 761.094 Q30.4941 761.094 29.4957 760.804 Q28.4651 760.514 26.9514 759.838 Q25.4055 759.13 24.0207 758.163 Q22.6036 757.197 21.6053 755.683 Q20.6069 754.138 20.6069 752.366 Q20.6069 749.951 22.185 748.469 Q23.7308 746.956 26.0175 746.956 Q26.9514 746.956 27.7888 747.213 Q28.5939 747.439 30.7517 748.276 Q39.4473 751.658 43.6985 751.658 Q44.7291 751.658 45.5986 751.497 Q46.436 751.303 47.2733 750.885 Q48.0785 750.466 48.5616 749.629 Q49.0124 748.759 49.0124 747.568 Q49.0124 746.054 48.3039 744.637 Q47.5632 743.188 46.5648 742.286 Q45.5664 741.352 44.7291 740.804 Q43.8595 740.225 43.4086 740.096 L31.5569 737.133 L26.2751 735.812 Q23.4088 735.201 22.7003 734.911 Q22.0239 734.524 21.6697 733.848 Q21.3154 733.172 21.3154 732.592 Q21.3154 731.787 21.7985 731.239 Q22.2816 730.66 23.1189 730.66 Z" fill="#000000" fill-rule="evenodd" fill-opacity="1" /><polyline clip-path="url(#clip523)" style="stroke:#009af9; stroke-width:8; stroke-opacity:1; fill:none" points="
  346.944,1403.45 356.168,1403.45 365.392,1403.45 450.682,1403.45 535.973,1403.45 561.601,1403.45 587.229,1403.45 612.857,1403.45 638.485,1403.45 643.902,1403.45 
  649.319,1403.45 652.028,1403.45 654.736,1403.45 656.09,1403.45 657.445,1403.45 658.799,1403.45 660.153,1403.45 660.83,1403.45 661.508,1403.45 662.185,86.7452 
  662.862,89.574 663.539,92.3967 664.216,95.2133 664.893,98.0239 665.57,100.828 668.279,111.986 670.987,123.049 676.404,144.89 681.821,166.359 692.656,208.204 
  703.49,248.634 714.324,287.697 725.158,325.437 748.696,403.091 772.233,475.15 795.771,542.019 819.309,604.071 862.708,707.003 906.107,796.681 952.636,880.04 
  999.165,951.947 1053.07,1023 1106.98,1082.87 1154.89,1128.12 1202.8,1166.98 1244.81,1196.52 1286.82,1222.37 1378.42,1268.08 1470.57,1302.43 1572.45,1330.36 
  1669.39,1349.73 1770.19,1364.44 1855.03,1373.66 1958.62,1382.01 2056,1387.71 2212,1393.86 2236.01,1394.57 
  "/>
<polyline clip-path="url(#clip523)" style="stroke:#e26f46; stroke-width:8; stroke-opacity:1; fill:none" points="
  290.271,1403.45 300.049,1403.45 309.827,1403.45 400.235,1403.45 490.643,1403.45 544.974,1403.45 599.306,1403.45 622.274,1403.45 645.242,1403.45 650.984,1403.45 
  656.726,1403.45 662.468,1400.6 668.21,1376.83 679.695,1330.56 691.179,1285.95 716.129,1194.46 741.079,1109.94 766.029,1031.86 790.979,959.729 813.98,898.108 
  836.982,840.829 859.984,787.585 882.985,738.092 932.306,643.408 981.626,562.453 1038.77,483.221 1095.91,417.14 1146.69,367.679 1197.47,325.585 1242.01,293.865 
  1286.54,266.329 1383.64,218.23 1481.32,182.716 1589.31,154.367 1692.07,135.075 1798.91,120.69 1888.85,111.843 1998.65,103.965 2101.87,98.6878 2267.23,93.1304 
  2292.68,92.5058 
  "/>
<path clip-path="url(#clip520)" d="
M1866.23 1396.43 L2282 1396.43 L2282 1214.99 L1866.23 1214.99  Z
  " fill="#ffffff" fill-rule="evenodd" fill-opacity="1"/>
<polyline clip-path="url(#clip520)" style="stroke:#000000; stroke-width:4; stroke-opacity:1; fill:none" points="
  1866.23,1396.43 2282,1396.43 2282,1214.99 1866.23,1214.99 1866.23,1396.43 
  "/>
<polyline clip-path="url(#clip520)" style="stroke:#009af9; stroke-width:4; stroke-opacity:1; fill:none" points="
  1889.82,1275.47 2031.32,1275.47 
  "/>
<path clip-path="url(#clip520)" d="M 0 0 M2054.91 1258.19 L2059.58 1258.19 L2059.58 1292.75 L2054.91 1292.75 L2054.91 1258.19 Z" fill="#000000" fill-rule="evenodd" fill-opacity="1" /><path clip-path="url(#clip520)" d="M 0 0 M2088.89 1271.8 Q2090.49 1268.93 2092.71 1267.56 Q2094.93 1266.2 2097.94 1266.2 Q2101.99 1266.2 2104.19 1269.04 Q2106.39 1271.87 2106.39 1277.1 L2106.39 1292.75 L2102.11 1292.75 L2102.11 1277.24 Q2102.11 1273.51 2100.79 1271.7 Q2099.47 1269.9 2096.76 1269.9 Q2093.45 1269.9 2091.53 1272.1 Q2089.61 1274.3 2089.61 1278.09 L2089.61 1292.75 L2085.32 1292.75 L2085.32 1277.24 Q2085.32 1273.49 2084 1271.7 Q2082.68 1269.9 2079.93 1269.9 Q2076.67 1269.9 2074.74 1272.12 Q2072.82 1274.32 2072.82 1278.09 L2072.82 1292.75 L2068.54 1292.75 L2068.54 1266.82 L2072.82 1266.82 L2072.82 1270.85 Q2074.28 1268.46 2076.32 1267.33 Q2078.36 1266.2 2081.16 1266.2 Q2083.98 1266.2 2085.95 1267.63 Q2087.94 1269.07 2088.89 1271.8 Z" fill="#000000" fill-rule="evenodd" fill-opacity="1" /><path clip-path="url(#clip520)" d="M 0 0 M2119 1288.86 L2119 1302.61 L2114.72 1302.61 L2114.72 1266.82 L2119 1266.82 L2119 1270.76 Q2120.35 1268.44 2122.38 1267.33 Q2124.44 1266.2 2127.29 1266.2 Q2132.01 1266.2 2134.95 1269.95 Q2137.92 1273.7 2137.92 1279.81 Q2137.92 1285.92 2134.95 1289.67 Q2132.01 1293.42 2127.29 1293.42 Q2124.44 1293.42 2122.38 1292.31 Q2120.35 1291.17 2119 1288.86 M2133.49 1279.81 Q2133.49 1275.11 2131.55 1272.45 Q2129.63 1269.76 2126.25 1269.76 Q2122.87 1269.76 2120.92 1272.45 Q2119 1275.11 2119 1279.81 Q2119 1284.51 2120.92 1287.19 Q2122.87 1289.85 2126.25 1289.85 Q2129.63 1289.85 2131.55 1287.19 Q2133.49 1284.51 2133.49 1279.81 Z" fill="#000000" fill-rule="evenodd" fill-opacity="1" /><path clip-path="url(#clip520)" d="M 0 0 M2144.54 1282.51 L2144.54 1266.82 L2148.79 1266.82 L2148.79 1282.35 Q2148.79 1286.03 2150.23 1287.89 Q2151.67 1289.71 2154.54 1289.71 Q2157.98 1289.71 2159.98 1287.51 Q2161.99 1285.32 2161.99 1281.52 L2161.99 1266.82 L2166.25 1266.82 L2166.25 1292.75 L2161.99 1292.75 L2161.99 1288.76 Q2160.44 1291.13 2158.38 1292.28 Q2156.34 1293.42 2153.63 1293.42 Q2149.17 1293.42 2146.85 1290.64 Q2144.54 1287.86 2144.54 1282.51 M2155.25 1266.2 L2155.25 1266.2 Z" fill="#000000" fill-rule="evenodd" fill-opacity="1" /><path clip-path="url(#clip520)" d="M 0 0 M2175.02 1256.73 L2179.28 1256.73 L2179.28 1292.75 L2175.02 1292.75 L2175.02 1256.73 Z" fill="#000000" fill-rule="evenodd" fill-opacity="1" /><path clip-path="url(#clip520)" d="M 0 0 M2204.72 1267.58 L2204.72 1271.61 Q2202.91 1270.69 2200.97 1270.22 Q2199.03 1269.76 2196.94 1269.76 Q2193.77 1269.76 2192.17 1270.73 Q2190.6 1271.7 2190.6 1273.65 Q2190.6 1275.13 2191.73 1275.99 Q2192.87 1276.82 2196.29 1277.58 L2197.75 1277.91 Q2202.29 1278.88 2204.19 1280.66 Q2206.11 1282.42 2206.11 1285.59 Q2206.11 1289.2 2203.24 1291.31 Q2200.39 1293.42 2195.39 1293.42 Q2193.31 1293.42 2191.04 1293 Q2188.79 1292.61 2186.29 1291.8 L2186.29 1287.4 Q2188.66 1288.63 2190.95 1289.25 Q2193.24 1289.85 2195.48 1289.85 Q2198.49 1289.85 2200.11 1288.83 Q2201.73 1287.79 2201.73 1285.92 Q2201.73 1284.18 2200.55 1283.26 Q2199.4 1282.33 2195.44 1281.47 L2193.96 1281.13 Q2190 1280.29 2188.24 1278.58 Q2186.48 1276.84 2186.48 1273.83 Q2186.48 1270.18 2189.07 1268.19 Q2191.67 1266.2 2196.43 1266.2 Q2198.79 1266.2 2200.88 1266.54 Q2202.96 1266.89 2204.72 1267.58 Z" fill="#000000" fill-rule="evenodd" fill-opacity="1" /><path clip-path="url(#clip520)" d="M 0 0 M2222.94 1269.81 Q2219.51 1269.81 2217.52 1272.49 Q2215.53 1275.15 2215.53 1279.81 Q2215.53 1284.46 2217.5 1287.14 Q2219.49 1289.81 2222.94 1289.81 Q2226.34 1289.81 2228.33 1287.12 Q2230.32 1284.44 2230.32 1279.81 Q2230.32 1275.2 2228.33 1272.51 Q2226.34 1269.81 2222.94 1269.81 M2222.94 1266.2 Q2228.49 1266.2 2231.66 1269.81 Q2234.84 1273.42 2234.84 1279.81 Q2234.84 1286.17 2231.66 1289.81 Q2228.49 1293.42 2222.94 1293.42 Q2217.36 1293.42 2214.19 1289.81 Q2211.04 1286.17 2211.04 1279.81 Q2211.04 1273.42 2214.19 1269.81 Q2217.36 1266.2 2222.94 1266.2 Z" fill="#000000" fill-rule="evenodd" fill-opacity="1" /><polyline clip-path="url(#clip520)" style="stroke:#e26f46; stroke-width:4; stroke-opacity:1; fill:none" points="
  1889.82,1335.95 2031.32,1335.95 
  "/>
<path clip-path="url(#clip520)" d="M 0 0 M2054.91 1318.67 L2076.76 1318.67 L2076.76 1322.6 L2059.58 1322.6 L2059.58 1332.83 L2076.04 1332.83 L2076.04 1336.77 L2059.58 1336.77 L2059.58 1349.29 L2077.17 1349.29 L2077.17 1353.23 L2054.91 1353.23 L2054.91 1318.67 Z" fill="#000000" fill-rule="evenodd" fill-opacity="1" /><path clip-path="url(#clip520)" d="M 0 0 M2101.2 1328.06 L2101.2 1332.09 Q2099.4 1331.17 2097.45 1330.7 Q2095.51 1330.24 2093.42 1330.24 Q2090.25 1330.24 2088.66 1331.21 Q2087.08 1332.18 2087.08 1334.13 Q2087.08 1335.61 2088.22 1336.47 Q2089.35 1337.3 2092.78 1338.06 L2094.23 1338.39 Q2098.77 1339.36 2100.67 1341.14 Q2102.59 1342.9 2102.59 1346.07 Q2102.59 1349.68 2099.72 1351.79 Q2096.87 1353.9 2091.87 1353.9 Q2089.79 1353.9 2087.52 1353.48 Q2085.28 1353.09 2082.78 1352.28 L2082.78 1347.88 Q2085.14 1349.11 2087.43 1349.73 Q2089.72 1350.33 2091.97 1350.33 Q2094.98 1350.33 2096.6 1349.31 Q2098.22 1348.27 2098.22 1346.4 Q2098.22 1344.66 2097.04 1343.74 Q2095.88 1342.81 2091.92 1341.95 L2090.44 1341.61 Q2086.48 1340.77 2084.72 1339.06 Q2082.96 1337.32 2082.96 1334.31 Q2082.96 1330.66 2085.55 1328.67 Q2088.15 1326.68 2092.92 1326.68 Q2095.28 1326.68 2097.36 1327.02 Q2099.44 1327.37 2101.2 1328.06 Z" fill="#000000" fill-rule="evenodd" fill-opacity="1" /><path clip-path="url(#clip520)" d="M 0 0 M2128.03 1328.3 L2128.03 1332.28 Q2126.23 1331.28 2124.4 1330.8 Q2122.59 1330.29 2120.74 1330.29 Q2116.6 1330.29 2114.3 1332.93 Q2112.01 1335.54 2112.01 1340.29 Q2112.01 1345.03 2114.3 1347.67 Q2116.6 1350.29 2120.74 1350.29 Q2122.59 1350.29 2124.4 1349.8 Q2126.23 1349.29 2128.03 1348.3 L2128.03 1352.23 Q2126.25 1353.06 2124.33 1353.48 Q2122.43 1353.9 2120.28 1353.9 Q2114.42 1353.9 2110.97 1350.22 Q2107.52 1346.54 2107.52 1340.29 Q2107.52 1333.94 2110.99 1330.31 Q2114.49 1326.68 2120.55 1326.68 Q2122.52 1326.68 2124.4 1327.09 Q2126.27 1327.49 2128.03 1328.3 Z" fill="#000000" fill-rule="evenodd" fill-opacity="1" /><path clip-path="url(#clip520)" d="M 0 0 M2147.22 1340.19 Q2142.06 1340.19 2140.07 1341.37 Q2138.08 1342.56 2138.08 1345.4 Q2138.08 1347.67 2139.56 1349.01 Q2141.06 1350.33 2143.63 1350.33 Q2147.17 1350.33 2149.3 1347.83 Q2151.46 1345.31 2151.46 1341.14 L2151.46 1340.19 L2147.22 1340.19 M2155.72 1338.43 L2155.72 1353.23 L2151.46 1353.23 L2151.46 1349.29 Q2150 1351.65 2147.82 1352.79 Q2145.65 1353.9 2142.5 1353.9 Q2138.52 1353.9 2136.16 1351.68 Q2133.82 1349.43 2133.82 1345.68 Q2133.82 1341.31 2136.73 1339.08 Q2139.67 1336.86 2145.48 1336.86 L2151.46 1336.86 L2151.46 1336.44 Q2151.46 1333.5 2149.51 1331.91 Q2147.59 1330.29 2144.1 1330.29 Q2141.87 1330.29 2139.77 1330.82 Q2137.66 1331.35 2135.72 1332.42 L2135.72 1328.48 Q2138.05 1327.58 2140.25 1327.14 Q2142.45 1326.68 2144.54 1326.68 Q2150.16 1326.68 2152.94 1329.59 Q2155.72 1332.51 2155.72 1338.43 Z" fill="#000000" fill-rule="evenodd" fill-opacity="1" /><path clip-path="url(#clip520)" d="M 0 0 M2164.49 1317.21 L2168.75 1317.21 L2168.75 1353.23 L2164.49 1353.23 L2164.49 1317.21 Z" fill="#000000" fill-rule="evenodd" fill-opacity="1" /><path clip-path="url(#clip520)" d="M 0 0 M2187.71 1330.29 Q2184.28 1330.29 2182.29 1332.97 Q2180.3 1335.63 2180.3 1340.29 Q2180.3 1344.94 2182.27 1347.62 Q2184.26 1350.29 2187.71 1350.29 Q2191.11 1350.29 2193.1 1347.6 Q2195.09 1344.92 2195.09 1340.29 Q2195.09 1335.68 2193.1 1332.99 Q2191.11 1330.29 2187.71 1330.29 M2187.71 1326.68 Q2193.26 1326.68 2196.43 1330.29 Q2199.6 1333.9 2199.6 1340.29 Q2199.6 1346.65 2196.43 1350.29 Q2193.26 1353.9 2187.71 1353.9 Q2182.13 1353.9 2178.96 1350.29 Q2175.81 1346.65 2175.81 1340.29 Q2175.81 1333.9 2178.96 1330.29 Q2182.13 1326.68 2187.71 1326.68 M2190.92 1315.31 L2195.53 1315.31 L2187.98 1324.01 L2184.44 1324.01 L2190.92 1315.31 Z" fill="#000000" fill-rule="evenodd" fill-opacity="1" /><path clip-path="url(#clip520)" d="M 0 0 M2228.22 1337.58 L2228.22 1353.23 L2223.96 1353.23 L2223.96 1337.72 Q2223.96 1334.04 2222.52 1332.21 Q2221.09 1330.38 2218.22 1330.38 Q2214.77 1330.38 2212.78 1332.58 Q2210.79 1334.78 2210.79 1338.57 L2210.79 1353.23 L2206.5 1353.23 L2206.5 1327.3 L2210.79 1327.3 L2210.79 1331.33 Q2212.31 1328.99 2214.37 1327.83 Q2216.46 1326.68 2219.16 1326.68 Q2223.63 1326.68 2225.92 1329.45 Q2228.22 1332.21 2228.22 1337.58 Z" fill="#000000" fill-rule="evenodd" fill-opacity="1" /></svg>
