<?xml version="1.0" encoding="utf-8"?>
<svg xmlns="http://www.w3.org/2000/svg" xmlns:xlink="http://www.w3.org/1999/xlink" width="600" height="400" viewBox="0 0 2400 1600">
<defs>
  <clipPath id="clip000">
    <rect x="0" y="0" width="2400" height="1600"/>
  </clipPath>
</defs>
<path clip-path="url(#clip000)" d="
M0 1600 L2400 1600 L2400 0 L0 0  Z
  " fill="#ffffff" fill-rule="evenodd" fill-opacity="1"/>
<defs>
  <clipPath id="clip001">
    <rect x="480" y="0" width="1681" height="1600"/>
  </clipPath>
</defs>
<defs>
  <clipPath id="clip002">
    <rect x="273" y="776" width="2080" height="636"/>
  </clipPath>
</defs>
<path clip-path="url(#clip000)" d="
M272.297 681.826 L2352.76 681.826 L2352.76 47.2441 L272.297 47.2441  Z
  " fill="#ffffff" fill-rule="evenodd" fill-opacity="1"/>
<defs>
  <clipPath id="clip003">
    <rect x="272" y="47" width="2081" height="636"/>
  </clipPath>
</defs>
<polyline clip-path="url(#clip000)" style="stroke:#000000; stroke-width:4; stroke-opacity:1; fill:none" points="
  272.297,681.826 2352.76,681.826 
  "/>
<polyline clip-path="url(#clip003)" style="stroke:#000000; stroke-width:2; stroke-opacity:0.1; fill:none" points="
  272.297,663.828 2352.76,663.828 
  "/>
<polyline clip-path="url(#clip003)" style="stroke:#000000; stroke-width:2; stroke-opacity:0.1; fill:none" points="
  272.297,536.398 2352.76,536.398 
  "/>
<polyline clip-path="url(#clip003)" style="stroke:#000000; stroke-width:2; stroke-opacity:0.1; fill:none" points="
  272.297,408.969 2352.76,408.969 
  "/>
<polyline clip-path="url(#clip003)" style="stroke:#000000; stroke-width:2; stroke-opacity:0.1; fill:none" points="
  272.297,281.54 2352.76,281.54 
  "/>
<polyline clip-path="url(#clip003)" style="stroke:#000000; stroke-width:2; stroke-opacity:0.1; fill:none" points="
  272.297,154.11 2352.76,154.11 
  "/>
<polyline clip-path="url(#clip000)" style="stroke:#000000; stroke-width:4; stroke-opacity:1; fill:none" points="
  272.297,681.826 272.297,47.2441 
  "/>
<polyline clip-path="url(#clip000)" style="stroke:#000000; stroke-width:4; stroke-opacity:1; fill:none" points="
  272.297,663.828 297.262,663.828 
  "/>
<polyline clip-path="url(#clip000)" style="stroke:#000000; stroke-width:4; stroke-opacity:1; fill:none" points="
  272.297,536.398 297.262,536.398 
  "/>
<polyline clip-path="url(#clip000)" style="stroke:#000000; stroke-width:4; stroke-opacity:1; fill:none" points="
  272.297,408.969 297.262,408.969 
  "/>
<polyline clip-path="url(#clip000)" style="stroke:#000000; stroke-width:4; stroke-opacity:1; fill:none" points="
  272.297,281.54 297.262,281.54 
  "/>
<polyline clip-path="url(#clip000)" style="stroke:#000000; stroke-width:4; stroke-opacity:1; fill:none" points="
  272.297,154.11 297.262,154.11 
  "/>
<polyline clip-path="url(#clip000)" style="stroke:#000000; stroke-width:4; stroke-opacity:1; fill:none" points="
  272.297,674.81 284.779,674.81 
  "/>
<polyline clip-path="url(#clip000)" style="stroke:#000000; stroke-width:4; stroke-opacity:1; fill:none" points="
  272.297,606.847 284.779,606.847 
  "/>
<polyline clip-path="url(#clip000)" style="stroke:#000000; stroke-width:4; stroke-opacity:1; fill:none" points="
  272.297,579.373 284.779,579.373 
  "/>
<polyline clip-path="url(#clip000)" style="stroke:#000000; stroke-width:4; stroke-opacity:1; fill:none" points="
  272.297,561.097 284.779,561.097 
  "/>
<polyline clip-path="url(#clip000)" style="stroke:#000000; stroke-width:4; stroke-opacity:1; fill:none" points="
  272.297,547.381 284.779,547.381 
  "/>
<polyline clip-path="url(#clip000)" style="stroke:#000000; stroke-width:4; stroke-opacity:1; fill:none" points="
  272.297,479.417 284.779,479.417 
  "/>
<polyline clip-path="url(#clip000)" style="stroke:#000000; stroke-width:4; stroke-opacity:1; fill:none" points="
  272.297,451.943 284.779,451.943 
  "/>
<polyline clip-path="url(#clip000)" style="stroke:#000000; stroke-width:4; stroke-opacity:1; fill:none" points="
  272.297,433.667 284.779,433.667 
  "/>
<polyline clip-path="url(#clip000)" style="stroke:#000000; stroke-width:4; stroke-opacity:1; fill:none" points="
  272.297,419.952 284.779,419.952 
  "/>
<polyline clip-path="url(#clip000)" style="stroke:#000000; stroke-width:4; stroke-opacity:1; fill:none" points="
  272.297,351.988 284.779,351.988 
  "/>
<polyline clip-path="url(#clip000)" style="stroke:#000000; stroke-width:4; stroke-opacity:1; fill:none" points="
  272.297,324.514 284.779,324.514 
  "/>
<polyline clip-path="url(#clip000)" style="stroke:#000000; stroke-width:4; stroke-opacity:1; fill:none" points="
  272.297,306.238 284.779,306.238 
  "/>
<polyline clip-path="url(#clip000)" style="stroke:#000000; stroke-width:4; stroke-opacity:1; fill:none" points="
  272.297,292.522 284.779,292.522 
  "/>
<polyline clip-path="url(#clip000)" style="stroke:#000000; stroke-width:4; stroke-opacity:1; fill:none" points="
  272.297,224.558 284.779,224.558 
  "/>
<polyline clip-path="url(#clip000)" style="stroke:#000000; stroke-width:4; stroke-opacity:1; fill:none" points="
  272.297,197.085 284.779,197.085 
  "/>
<polyline clip-path="url(#clip000)" style="stroke:#000000; stroke-width:4; stroke-opacity:1; fill:none" points="
  272.297,178.809 284.779,178.809 
  "/>
<polyline clip-path="url(#clip000)" style="stroke:#000000; stroke-width:4; stroke-opacity:1; fill:none" points="
  272.297,165.093 284.779,165.093 
  "/>
<polyline clip-path="url(#clip000)" style="stroke:#000000; stroke-width:4; stroke-opacity:1; fill:none" points="
  272.297,97.1291 284.779,97.1291 
  "/>
<polyline clip-path="url(#clip000)" style="stroke:#000000; stroke-width:4; stroke-opacity:1; fill:none" points="
  272.297,69.6554 284.779,69.6554 
  "/>
<polyline clip-path="url(#clip000)" style="stroke:#000000; stroke-width:4; stroke-opacity:1; fill:none" points="
  272.297,51.3792 284.779,51.3792 
  "/>
<path clip-path="url(#clip000)" d="M 0 0 M134.464 683.62 L142.103 683.62 L142.103 657.255 L133.793 658.921 L133.793 654.662 L142.057 652.995 L146.732 652.995 L146.732 683.62 L154.371 683.62 L154.371 687.555 L134.464 687.555 L134.464 683.62 Z" fill="#000000" fill-rule="evenodd" fill-opacity="1" /><path clip-path="url(#clip000)" d="M 0 0 M173.816 656.074 Q170.205 656.074 168.376 659.639 Q166.57 663.18 166.57 670.31 Q166.57 677.416 168.376 680.981 Q170.205 684.523 173.816 684.523 Q177.45 684.523 179.255 680.981 Q181.084 677.416 181.084 670.31 Q181.084 663.18 179.255 659.639 Q177.45 656.074 173.816 656.074 M173.816 652.37 Q179.626 652.37 182.681 656.977 Q185.76 661.56 185.76 670.31 Q185.76 679.037 182.681 683.643 Q179.626 688.227 173.816 688.227 Q168.006 688.227 164.927 683.643 Q161.871 679.037 161.871 670.31 Q161.871 661.56 164.927 656.977 Q168.006 652.37 173.816 652.37 Z" fill="#000000" fill-rule="evenodd" fill-opacity="1" /><path clip-path="url(#clip000)" d="M 0 0 M185.76 646.472 L209.872 646.472 L209.872 649.669 L185.76 649.669 L185.76 646.472 Z" fill="#000000" fill-rule="evenodd" fill-opacity="1" /><path clip-path="url(#clip000)" d="M 0 0 M228.51 635.375 L218.918 650.365 L228.51 650.365 L228.51 635.375 M227.513 632.065 L232.29 632.065 L232.29 650.365 L236.297 650.365 L236.297 653.525 L232.29 653.525 L232.29 660.145 L228.51 660.145 L228.51 653.525 L215.834 653.525 L215.834 649.857 L227.513 632.065 Z" fill="#000000" fill-rule="evenodd" fill-opacity="1" /><path clip-path="url(#clip000)" d="M 0 0 M135.386 556.191 L143.024 556.191 L143.024 529.825 L134.714 531.492 L134.714 527.233 L142.978 525.566 L147.654 525.566 L147.654 556.191 L155.293 556.191 L155.293 560.126 L135.386 560.126 L135.386 556.191 Z" fill="#000000" fill-rule="evenodd" fill-opacity="1" /><path clip-path="url(#clip000)" d="M 0 0 M174.737 528.645 Q171.126 528.645 169.297 532.209 Q167.492 535.751 167.492 542.881 Q167.492 549.987 169.297 553.552 Q171.126 557.094 174.737 557.094 Q178.372 557.094 180.177 553.552 Q182.006 549.987 182.006 542.881 Q182.006 535.751 180.177 532.209 Q178.372 528.645 174.737 528.645 M174.737 524.941 Q180.547 524.941 183.603 529.547 Q186.682 534.131 186.682 542.881 Q186.682 551.607 183.603 556.214 Q180.547 560.797 174.737 560.797 Q168.927 560.797 165.848 556.214 Q162.793 551.607 162.793 542.881 Q162.793 534.131 165.848 529.547 Q168.927 524.941 174.737 524.941 Z" fill="#000000" fill-rule="evenodd" fill-opacity="1" /><path clip-path="url(#clip000)" d="M 0 0 M186.682 519.042 L210.793 519.042 L210.793 522.24 L186.682 522.24 L186.682 519.042 Z" fill="#000000" fill-rule="evenodd" fill-opacity="1" /><path clip-path="url(#clip000)" d="M 0 0 M230.504 517.575 Q233.231 518.158 234.754 520.001 Q236.297 521.845 236.297 524.553 Q236.297 528.709 233.438 530.985 Q230.579 533.261 225.313 533.261 Q223.545 533.261 221.664 532.904 Q219.802 532.565 217.809 531.869 L217.809 528.202 Q219.388 529.123 221.269 529.593 Q223.15 530.064 225.2 530.064 Q228.773 530.064 230.635 528.653 Q232.516 527.242 232.516 524.553 Q232.516 522.07 230.767 520.679 Q229.037 519.268 225.933 519.268 L222.661 519.268 L222.661 516.146 L226.084 516.146 Q228.886 516.146 230.372 515.036 Q231.858 513.908 231.858 511.801 Q231.858 509.638 230.316 508.491 Q228.792 507.325 225.933 507.325 Q224.372 507.325 222.586 507.664 Q220.799 508.002 218.655 508.717 L218.655 505.331 Q220.818 504.73 222.699 504.429 Q224.598 504.128 226.272 504.128 Q230.598 504.128 233.118 506.103 Q235.638 508.059 235.638 511.406 Q235.638 513.738 234.303 515.356 Q232.968 516.955 230.504 517.575 Z" fill="#000000" fill-rule="evenodd" fill-opacity="1" /><path clip-path="url(#clip000)" d="M 0 0 M136.157 428.761 L143.796 428.761 L143.796 402.396 L135.485 404.062 L135.485 399.803 L143.749 398.137 L148.425 398.137 L148.425 428.761 L156.064 428.761 L156.064 432.697 L136.157 432.697 L136.157 428.761 Z" fill="#000000" fill-rule="evenodd" fill-opacity="1" /><path clip-path="url(#clip000)" d="M 0 0 M175.508 401.215 Q171.897 401.215 170.069 404.78 Q168.263 408.322 168.263 415.451 Q168.263 422.558 170.069 426.122 Q171.897 429.664 175.508 429.664 Q179.143 429.664 180.948 426.122 Q182.777 422.558 182.777 415.451 Q182.777 408.322 180.948 404.78 Q179.143 401.215 175.508 401.215 M175.508 397.512 Q181.319 397.512 184.374 402.118 Q187.453 406.701 187.453 415.451 Q187.453 424.178 184.374 428.785 Q181.319 433.368 175.508 433.368 Q169.698 433.368 166.62 428.785 Q163.564 424.178 163.564 415.451 Q163.564 406.701 166.62 402.118 Q169.698 397.512 175.508 397.512 Z" fill="#000000" fill-rule="evenodd" fill-opacity="1" /><path clip-path="url(#clip000)" d="M 0 0 M187.453 391.613 L211.564 391.613 L211.564 394.81 L187.453 394.81 L187.453 391.613 Z" fill="#000000" fill-rule="evenodd" fill-opacity="1" /><path clip-path="url(#clip000)" d="M 0 0 M223.037 402.089 L236.297 402.089 L236.297 405.286 L218.467 405.286 L218.467 402.089 Q220.63 399.851 224.354 396.089 Q228.096 392.309 229.056 391.218 Q230.88 389.168 231.595 387.757 Q232.328 386.328 232.328 384.955 Q232.328 382.717 230.748 381.306 Q229.187 379.896 226.667 379.896 Q224.88 379.896 222.887 380.516 Q220.912 381.137 218.655 382.397 L218.655 378.56 Q220.949 377.639 222.943 377.169 Q224.937 376.698 226.592 376.698 Q230.955 376.698 233.551 378.88 Q236.146 381.062 236.146 384.71 Q236.146 386.441 235.488 388.002 Q234.848 389.544 233.137 391.65 Q232.667 392.196 230.146 394.81 Q227.626 397.406 223.037 402.089 Z" fill="#000000" fill-rule="evenodd" fill-opacity="1" /><path clip-path="url(#clip000)" d="M 0 0 M135.856 301.332 L143.495 301.332 L143.495 274.966 L135.185 276.633 L135.185 272.374 L143.448 270.707 L148.124 270.707 L148.124 301.332 L155.763 301.332 L155.763 305.267 L135.856 305.267 L135.856 301.332 Z" fill="#000000" fill-rule="evenodd" fill-opacity="1" /><path clip-path="url(#clip000)" d="M 0 0 M175.207 273.786 Q171.596 273.786 169.768 277.351 Q167.962 280.892 167.962 288.022 Q167.962 295.128 169.768 298.693 Q171.596 302.235 175.207 302.235 Q178.842 302.235 180.647 298.693 Q182.476 295.128 182.476 288.022 Q182.476 280.892 180.647 277.351 Q178.842 273.786 175.207 273.786 M175.207 270.082 Q181.018 270.082 184.073 274.689 Q187.152 279.272 187.152 288.022 Q187.152 296.749 184.073 301.355 Q181.018 305.938 175.207 305.938 Q169.397 305.938 166.319 301.355 Q163.263 296.749 163.263 288.022 Q163.263 279.272 166.319 274.689 Q169.397 270.082 175.207 270.082 Z" fill="#000000" fill-rule="evenodd" fill-opacity="1" /><path clip-path="url(#clip000)" d="M 0 0 M187.152 264.184 L211.263 264.184 L211.263 267.381 L187.152 267.381 L187.152 264.184 Z" fill="#000000" fill-rule="evenodd" fill-opacity="1" /><path clip-path="url(#clip000)" d="M 0 0 M220.122 274.659 L226.328 274.659 L226.328 253.237 L219.576 254.592 L219.576 251.131 L226.291 249.777 L230.09 249.777 L230.09 274.659 L236.297 274.659 L236.297 277.857 L220.122 277.857 L220.122 274.659 Z" fill="#000000" fill-rule="evenodd" fill-opacity="1" /><path clip-path="url(#clip000)" d="M 0 0 M165.591 173.903 L173.23 173.903 L173.23 147.537 L164.92 149.204 L164.92 144.944 L173.183 143.278 L177.859 143.278 L177.859 173.903 L185.498 173.903 L185.498 177.838 L165.591 177.838 L165.591 173.903 Z" fill="#000000" fill-rule="evenodd" fill-opacity="1" /><path clip-path="url(#clip000)" d="M 0 0 M204.943 146.356 Q201.331 146.356 199.503 149.921 Q197.697 153.463 197.697 160.592 Q197.697 167.699 199.503 171.264 Q201.331 174.805 204.943 174.805 Q208.577 174.805 210.382 171.264 Q212.211 167.699 212.211 160.592 Q212.211 153.463 210.382 149.921 Q208.577 146.356 204.943 146.356 M204.943 142.653 Q210.753 142.653 213.808 147.259 Q216.887 151.843 216.887 160.592 Q216.887 169.319 213.808 173.926 Q210.753 178.509 204.943 178.509 Q199.132 178.509 196.054 173.926 Q192.998 169.319 192.998 160.592 Q192.998 151.843 196.054 147.259 Q199.132 142.653 204.943 142.653 Z" fill="#000000" fill-rule="evenodd" fill-opacity="1" /><path clip-path="url(#clip000)" d="M 0 0 M226.592 124.849 Q223.658 124.849 222.172 127.745 Q220.705 130.623 220.705 136.416 Q220.705 142.19 222.172 145.086 Q223.658 147.964 226.592 147.964 Q229.545 147.964 231.012 145.086 Q232.497 142.19 232.497 136.416 Q232.497 130.623 231.012 127.745 Q229.545 124.849 226.592 124.849 M226.592 121.84 Q231.312 121.84 233.795 125.582 Q236.297 129.306 236.297 136.416 Q236.297 143.506 233.795 147.249 Q231.312 150.973 226.592 150.973 Q221.871 150.973 219.37 147.249 Q216.887 143.506 216.887 136.416 Q216.887 129.306 219.37 125.582 Q221.871 121.84 226.592 121.84 Z" fill="#000000" fill-rule="evenodd" fill-opacity="1" /><path clip-path="url(#clip000)" d="M 0 0 M64.6863 373.915 Q63.6235 373.915 62.754 374.205 Q61.8522 374.463 61.2403 374.881 Q60.5962 375.268 60.1131 376.009 Q59.5978 376.749 59.2757 377.361 Q58.9537 377.973 58.7604 379.004 Q58.535 380.034 58.4384 380.711 Q58.3096 381.387 58.2451 382.546 Q58.1807 383.706 58.1807 384.286 Q58.1807 384.833 58.1807 385.928 Q58.1807 389.374 58.2451 389.954 Q58.374 390.823 58.8893 391.145 Q59.3724 391.467 60.6928 391.79 L77.8907 396.073 L77.8907 388.698 Q77.8907 384.672 76.7635 381.902 Q75.6363 379.133 74.0582 377.555 Q72.3191 375.815 69.5172 374.881 Q66.7153 373.915 64.6863 373.915 M95.0564 366.733 Q95.4107 366.733 96.2159 367.023 Q97.021 367.281 98.1482 367.925 Q99.2432 368.569 100.242 369.439 Q101.24 370.308 101.916 371.693 Q102.625 373.078 102.625 374.656 Q102.625 375.043 102.593 375.429 Q102.593 375.815 102.432 376.782 Q102.303 377.716 102.045 378.489 Q101.82 379.261 101.272 380.228 Q100.757 381.194 100.048 381.87 Q99.3076 382.514 98.1482 382.965 Q96.9566 383.416 95.5073 383.416 Q94.2191 383.416 89.9035 382.353 Q86.232 381.419 85.3303 381.419 Q84.3319 381.419 83.3979 381.741 Q82.464 382.031 81.4978 382.772 Q80.5316 383.48 79.9519 384.994 Q79.34 386.508 79.34 388.633 L79.34 396.459 L96.8278 400.839 Q96.86 400.839 97.3109 400.936 Q97.7295 401.033 97.955 401.033 Q98.3737 401.033 98.6313 400.775 Q98.8889 400.485 99.0178 399.777 Q99.1144 399.068 99.1466 398.521 Q99.1466 397.941 99.1466 396.749 Q99.1466 395.268 99.4042 395.01 Q99.5653 394.881 99.8551 394.881 Q100.306 394.881 100.628 395.01 Q100.918 395.107 101.015 395.364 Q101.111 395.59 101.143 395.751 Q101.176 395.912 101.176 396.202 L100.982 404.575 L101.176 412.884 Q101.176 413.818 100.435 413.818 Q99.7907 413.818 99.5331 413.593 Q99.2432 413.367 99.211 413.078 Q99.1466 412.788 99.1466 412.047 Q99.1466 410.437 99.05 409.471 Q98.9534 408.504 98.8245 407.892 Q98.6635 407.248 98.2126 406.926 Q97.7617 406.572 97.3753 406.411 Q96.9566 406.25 96.0226 406.025 L60.5962 397.2 Q59.5334 396.942 59.3724 396.942 Q58.7604 396.942 58.5994 397.329 Q58.4062 397.683 58.3096 398.714 L58.1807 401.226 Q58.1807 401.999 58.1485 402.321 Q58.1163 402.611 57.9553 402.836 Q57.7943 403.062 57.44 403.062 Q56.5382 403.062 56.345 402.675 Q56.1196 402.289 56.1196 401.161 L56.1196 382.353 Q56.1196 375.944 58.9215 371.886 Q61.7234 367.796 66.0068 367.796 Q67.9391 367.796 69.7426 368.666 Q71.5462 369.535 72.9632 370.985 Q74.3803 372.402 75.5719 374.302 Q76.7313 376.202 77.5365 378.231 Q78.3094 380.228 78.7603 382.289 Q79.0823 381.387 79.5654 380.55 Q80.0485 379.68 80.9503 378.585 Q81.852 377.458 83.3013 376.782 Q84.7506 376.105 86.5219 376.105 Q87.7779 376.105 89.6459 376.363 Q94.9598 377.007 97.1498 377.007 Q99.2432 377.007 100.209 376.46 Q101.176 375.912 101.176 374.366 Q101.176 372.853 99.8229 371.178 Q98.4381 369.471 95.1853 368.376 Q94.2513 368.118 94.2513 367.506 Q94.2513 367.474 94.2513 367.442 Q94.2513 367.378 94.3157 367.249 Q94.3479 367.12 94.4445 367.023 Q94.5089 366.894 94.67 366.83 Q94.831 366.733 95.0564 366.733 Z" fill="#000000" fill-rule="evenodd" fill-opacity="1" /><path clip-path="url(#clip000)" d="M 0 0 M99.8551 318.999 Q100.467 318.999 100.789 319.257 Q101.079 319.482 101.143 319.707 Q101.176 319.901 101.176 320.19 Q101.176 321.028 101.079 323.926 Q100.982 326.825 100.982 327.662 Q100.982 329.015 101.079 331.785 Q101.176 334.554 101.176 335.907 Q101.176 336.809 100.435 336.809 Q99.9517 336.809 99.6941 336.712 Q99.4042 336.615 99.3076 336.358 Q99.1788 336.068 99.1788 335.907 Q99.1466 335.714 99.1466 335.231 Q99.1466 334.586 99.0822 333.91 Q98.9856 333.234 98.7923 332.397 Q98.5991 331.559 98.116 331.044 Q97.6329 330.496 96.9566 330.496 Q96.6667 330.496 94.2835 330.722 Q91.9003 330.947 89.1306 331.237 Q86.3287 331.527 85.9422 331.559 L85.9422 348.113 Q88.5509 349.627 90.3544 350.689 Q92.1579 351.752 92.7698 352.139 Q93.3817 352.525 93.7682 352.751 Q94.1547 352.976 94.3801 353.105 Q96.087 354.039 96.8278 354.039 Q98.8889 354.039 99.1466 350.947 Q99.1466 349.884 99.9195 349.884 Q100.499 349.884 100.821 350.142 Q101.111 350.4 101.143 350.625 Q101.176 350.818 101.176 351.14 Q101.176 352.203 101.079 354.425 Q100.982 356.648 100.982 357.743 Q100.982 358.676 101.079 360.609 Q101.176 362.541 101.176 363.411 Q101.176 363.797 100.95 364.023 Q100.725 364.248 100.435 364.248 Q99.9839 364.248 99.7263 364.184 Q99.4687 364.087 99.3398 363.829 Q99.211 363.572 99.211 363.443 Q99.1788 363.314 99.1466 362.863 Q98.9856 360.416 97.8262 358.515 Q96.6345 356.583 93.575 354.747 L55.0568 331.817 Q54.6703 331.591 54.4771 331.43 Q54.2838 331.269 54.1228 330.947 Q53.9618 330.593 53.9618 330.078 Q53.9618 329.273 54.2194 329.112 Q54.4449 328.95 55.5399 328.854 L96.7634 324.828 Q97.6329 324.732 97.9872 324.667 Q98.3092 324.57 98.6635 324.152 Q98.9856 323.701 99.0822 322.896 Q99.1466 322.058 99.1466 320.513 Q99.1466 319.933 99.1788 319.707 Q99.1788 319.482 99.3398 319.257 Q99.5009 318.999 99.8551 318.999 M83.881 331.752 L62.1421 333.846 L83.881 346.857 L83.881 331.752 Z" fill="#000000" fill-rule="evenodd" fill-opacity="1" /><polyline clip-path="url(#clip003)" style="stroke:#009af9; stroke-width:8; stroke-opacity:1; fill:none" points="
  331.177,154.105 341.04,154.104 350.903,154.104 360.766,154.103 370.629,154.102 380.491,154.102 390.354,154.101 400.217,154.1 410.08,154.099 419.943,154.098 
  429.805,154.096 439.668,154.095 449.531,154.094 459.394,154.092 469.257,154.09 479.119,154.088 488.982,154.086 498.845,154.084 508.708,154.081 518.571,154.079 
  528.433,154.076 538.296,154.072 548.159,154.069 558.022,154.065 567.885,154.06 577.748,154.055 587.61,154.05 597.473,154.044 607.336,154.038 617.199,154.031 
  627.062,154.023 636.924,154.014 646.787,154.005 656.65,153.995 666.513,153.984 676.376,153.972 686.238,153.958 696.101,153.943 705.964,153.927 715.827,153.909 
  725.69,153.89 735.552,153.868 745.415,153.845 755.278,153.819 765.141,153.791 775.004,153.76 784.866,153.726 794.729,153.688 804.592,153.647 814.455,153.602 
  824.318,153.552 834.18,153.498 844.043,153.438 853.906,153.373 863.769,153.301 873.632,153.222 883.494,153.135 893.357,153.039 903.22,152.934 913.083,152.819 
  922.946,152.692 932.808,152.553 942.671,152.4 952.534,152.231 962.397,152.045 972.26,151.841 982.122,151.616 991.985,151.369 1001.85,151.096 1011.71,150.795 
  1021.57,150.463 1031.44,150.097 1041.3,149.692 1051.16,149.245 1061.02,148.751 1070.89,148.204 1080.75,147.598 1090.61,146.926 1100.48,146.179 1110.34,145.35 
  1120.2,144.426 1130.06,143.395 1139.93,142.243 1149.79,140.954 1159.65,139.506 1169.52,137.876 1179.38,136.036 1189.24,133.951 1199.1,131.578 1208.97,128.865 
  1218.83,125.746 1228.69,122.138 1238.56,117.934 1248.42,112.996 1258.28,107.151 1268.14,100.183 1278.01,91.8806 1287.87,82.2187 1297.73,72.0984 1307.59,65.204 
  1317.46,67.7654 1327.32,79.7826 1337.18,95.0257 1347.05,109.81 1356.91,123.236 1366.77,135.326 1376.63,146.295 1386.5,156.355 1396.36,165.682 1406.22,174.413 
  1416.09,182.654 1425.95,190.49 1435.81,197.986 1445.67,205.194 1455.54,212.157 1465.4,218.909 1475.26,225.48 1485.13,231.892 1494.99,238.167 1504.85,244.32 
  1514.71,250.367 1524.58,256.319 1534.44,262.188 1544.3,267.983 1554.16,273.712 1564.03,279.382 1573.89,284.999 1583.75,290.569 1593.62,296.096 1603.48,301.585 
  1613.34,307.04 1623.2,312.463 1633.07,317.859 1642.93,323.23 1652.79,328.577 1662.66,333.904 1672.52,339.213 1682.38,344.504 1692.24,349.78 1702.11,355.042 
  1711.97,360.292 1721.83,365.53 1731.7,370.758 1741.56,375.976 1751.42,381.186 1761.28,386.388 1771.15,391.582 1781.01,396.771 1790.87,401.953 1800.73,407.131 
  1810.6,412.303 1820.46,417.471 1830.32,422.635 1840.19,427.795 1850.05,432.952 1859.91,438.106 1869.77,443.257 1879.64,448.405 1889.5,453.552 1899.36,458.696 
  1909.23,463.838 1919.09,468.979 1928.95,474.118 1938.81,479.255 1948.68,484.391 1958.54,489.527 1968.4,494.66 1978.27,499.793 1988.13,504.926 1997.99,510.057 
  2007.85,515.187 2017.72,520.317 2027.58,525.446 2037.44,530.575 2047.3,535.703 2057.17,540.831 2067.03,545.958 2076.89,551.085 2086.76,556.211 2096.62,561.337 
  2106.48,566.463 2116.34,571.589 2126.21,576.714 2136.07,581.839 2145.93,586.964 2155.8,592.089 2165.66,597.213 2175.52,602.338 2185.38,607.462 2195.25,612.586 
  2205.11,617.71 2214.97,622.834 2224.84,627.958 2234.7,633.082 2244.56,638.205 2254.42,643.329 2264.29,648.452 2274.15,653.576 2284.01,658.699 2293.87,663.822 
  
  "/>
<polyline clip-path="url(#clip003)" style="stroke:#e26f46; stroke-width:8; stroke-opacity:1; fill:none" points="
  331.177,154.105 341.04,154.105 350.903,154.104 360.766,154.103 370.629,154.103 380.491,154.102 390.354,154.101 400.217,154.1 410.08,154.099 419.943,154.098 
  429.805,154.097 439.668,154.096 449.531,154.095 459.394,154.093 469.257,154.092 479.119,154.09 488.982,154.088 498.845,154.086 508.708,154.083 518.571,154.081 
  528.433,154.078 538.296,154.075 548.159,154.071 558.022,154.067 567.885,154.063 577.748,154.059 587.61,154.054 597.473,154.048 607.336,154.042 617.199,154.036 
  627.062,154.028 636.924,154.02 646.787,154.012 656.65,154.002 666.513,153.992 676.376,153.98 686.238,153.967 696.101,153.954 705.964,153.938 715.827,153.922 
  725.69,153.903 735.552,153.883 745.415,153.861 755.278,153.837 765.141,153.811 775.004,153.781 784.866,153.749 794.729,153.714 804.592,153.676 814.455,153.634 
  824.318,153.587 834.18,153.536 844.043,153.48 853.906,153.419 863.769,153.351 873.632,153.277 883.494,153.196 893.357,153.107 903.22,153.009 913.083,152.901 
  922.946,152.782 932.808,152.652 942.671,152.509 952.534,152.352 962.397,152.179 972.26,151.989 982.122,151.779 991.985,151.549 1001.85,151.295 1011.71,151.016 
  1021.57,150.709 1031.44,150.37 1041.3,149.996 1051.16,149.584 1061.02,149.129 1070.89,148.626 1080.75,148.071 1090.61,147.457 1100.48,146.777 1110.34,146.024 
  1120.2,145.19 1130.06,144.264 1139.93,143.234 1149.79,142.09 1159.65,140.815 1169.52,139.394 1179.38,137.807 1189.24,136.034 1199.1,134.05 1208.97,131.829 
  1218.83,129.343 1228.69,126.565 1238.56,123.471 1248.42,120.053 1258.28,116.335 1268.14,112.408 1278.01,108.49 1287.87,105.017 1297.73,102.712 1307.59,102.488 
  1317.46,105.05 1327.32,110.396 1337.18,117.824 1347.05,126.42 1356.91,135.46 1366.77,144.511 1376.63,153.352 1386.5,161.892 1396.36,170.108 1406.22,178.01 
  1416.09,185.618 1425.95,192.962 1435.81,200.069 1445.67,206.965 1455.54,213.674 1465.4,220.218 1475.26,226.616 1485.13,232.883 1494.99,239.035 1504.85,245.084 
  1514.71,251.042 1524.58,256.917 1534.44,262.72 1544.3,268.457 1554.16,274.135 1564.03,279.76 1573.89,285.338 1583.75,290.873 1593.62,296.369 1603.48,301.831 
  1613.34,307.261 1623.2,312.663 1633.07,318.04 1642.93,323.393 1652.79,328.725 1662.66,334.038 1672.52,339.334 1682.38,344.614 1692.24,349.88 1702.11,355.133 
  1711.97,360.374 1721.83,365.604 1731.7,370.825 1741.56,376.037 1751.42,381.241 1761.28,386.438 1771.15,391.629 1781.01,396.813 1790.87,401.991 1800.73,407.165 
  1810.6,412.334 1820.46,417.499 1830.32,422.661 1840.19,427.819 1850.05,432.973 1859.91,438.125 1869.77,443.275 1879.64,448.422 1889.5,453.566 1899.36,458.709 
  1909.23,463.85 1919.09,468.99 1928.95,474.128 1938.81,479.265 1948.68,484.4 1958.54,489.534 1968.4,494.668 1978.27,499.8 1988.13,504.931 1997.99,510.062 
  2007.85,515.192 2017.72,520.322 2027.58,525.45 2037.44,530.579 2047.3,535.706 2057.17,540.834 2067.03,545.961 2076.89,551.087 2086.76,556.214 2096.62,561.339 
  2106.48,566.465 2116.34,571.591 2126.21,576.716 2136.07,581.841 2145.93,586.965 2155.8,592.09 2165.66,597.214 2175.52,602.339 2185.38,607.463 2195.25,612.587 
  2205.11,617.711 2214.97,622.835 2224.84,627.958 2234.7,633.082 2244.56,638.206 2254.42,643.329 2264.29,648.453 2274.15,653.576 2284.01,658.699 2293.87,663.823 
  
  "/>
<polyline clip-path="url(#clip003)" style="stroke:#3da44d; stroke-width:8; stroke-opacity:1; fill:none" points="
  331.177,154.106 341.04,154.105 350.903,154.105 360.766,154.104 370.629,154.104 380.491,154.103 390.354,154.102 400.217,154.102 410.08,154.101 419.943,154.1 
  429.805,154.099 439.668,154.098 449.531,154.096 459.394,154.095 469.257,154.094 479.119,154.092 488.982,154.09 498.845,154.088 508.708,154.086 518.571,154.084 
  528.433,154.081 538.296,154.078 548.159,154.075 558.022,154.072 567.885,154.068 577.748,154.064 587.61,154.06 597.473,154.055 607.336,154.05 617.199,154.044 
  627.062,154.037 636.924,154.03 646.787,154.022 656.65,154.014 666.513,154.005 676.376,153.994 686.238,153.983 696.101,153.971 705.964,153.957 715.827,153.942 
  725.69,153.926 735.552,153.908 745.415,153.888 755.278,153.867 765.141,153.843 775.004,153.817 784.866,153.789 794.729,153.758 804.592,153.724 814.455,153.686 
  824.318,153.645 834.18,153.6 844.043,153.55 853.906,153.495 863.769,153.436 873.632,153.37 883.494,153.298 893.357,153.219 903.22,153.132 913.083,153.037 
  922.946,152.932 932.808,152.817 942.671,152.691 952.534,152.552 962.397,152.4 972.26,152.233 982.122,152.049 991.985,151.847 1001.85,151.625 1011.71,151.382 
  1021.57,151.114 1031.44,150.819 1041.3,150.495 1051.16,150.139 1061.02,149.747 1070.89,149.316 1080.75,148.842 1090.61,148.32 1100.48,147.746 1110.34,147.114 
  1120.2,146.419 1130.06,145.653 1139.93,144.811 1149.79,143.886 1159.65,142.868 1169.52,141.752 1179.38,140.528 1189.24,139.191 1199.1,137.734 1208.97,136.157 
  1218.83,134.461 1228.69,132.66 1238.56,130.779 1248.42,128.869 1258.28,127.01 1268.14,125.33 1278.01,124.01 1287.87,123.29 1297.73,123.444 1307.59,124.724 
  1317.46,127.285 1327.32,131.128 1337.18,136.097 1347.05,141.94 1356.91,148.382 1366.77,155.186 1376.63,162.167 1386.5,169.2 1396.36,176.203 1406.22,183.127 
  1416.09,189.946 1425.95,196.646 1435.81,203.225 1445.67,209.686 1455.54,216.032 1465.4,222.271 1475.26,228.412 1485.13,234.46 1494.99,240.425 1504.85,246.313 
  1514.71,252.131 1524.58,257.886 1534.44,263.583 1544.3,269.228 1554.16,274.824 1564.03,280.378 1573.89,285.893 1583.75,291.372 1593.62,296.818 1603.48,302.236 
  1613.34,307.627 1623.2,312.993 1633.07,318.338 1642.93,323.662 1652.79,328.969 1662.66,334.259 1672.52,339.534 1682.38,344.795 1692.24,350.044 1702.11,355.282 
  1711.97,360.51 1721.83,365.728 1731.7,370.937 1741.56,376.139 1751.42,381.334 1761.28,386.522 1771.15,391.705 1781.01,396.882 1790.87,402.055 1800.73,407.223 
  1810.6,412.387 1820.46,417.547 1830.32,422.704 1840.19,427.858 1850.05,433.009 1859.91,438.158 1869.77,443.305 1879.64,448.449 1889.5,453.591 1899.36,458.732 
  1909.23,463.871 1919.09,469.009 1928.95,474.145 1938.81,479.28 1948.68,484.414 1958.54,489.547 1968.4,494.679 1978.27,499.811 1988.13,504.941 1997.99,510.071 
  2007.85,515.2 2017.72,520.329 2027.58,525.457 2037.44,530.585 2047.3,535.712 2057.17,540.839 2067.03,545.965 2076.89,551.092 2086.76,556.217 2096.62,561.343 
  2106.48,566.468 2116.34,571.593 2126.21,576.718 2136.07,581.843 2145.93,586.968 2155.8,592.092 2165.66,597.216 2175.52,602.34 2185.38,607.464 2195.25,612.588 
  2205.11,617.712 2214.97,622.836 2224.84,627.959 2234.7,633.083 2244.56,638.207 2254.42,643.33 2264.29,648.453 2274.15,653.577 2284.01,658.7 2293.87,663.823 
  
  "/>
<polyline clip-path="url(#clip003)" style="stroke:#c271d2; stroke-width:8; stroke-opacity:1; fill:none" points="
  331.177,154.107 341.04,154.107 350.903,154.107 360.766,154.107 370.629,154.106 380.491,154.106 390.354,154.105 400.217,154.105 410.08,154.104 419.943,154.104 
  429.805,154.103 439.668,154.103 449.531,154.102 459.394,154.101 469.257,154.1 479.119,154.099 488.982,154.098 498.845,154.097 508.708,154.096 518.571,154.094 
  528.433,154.093 538.296,154.091 548.159,154.089 558.022,154.087 567.885,154.085 577.748,154.082 587.61,154.079 597.473,154.077 607.336,154.073 617.199,154.07 
  627.062,154.066 636.924,154.061 646.787,154.057 656.65,154.052 666.513,154.046 676.376,154.04 686.238,154.033 696.101,154.025 705.964,154.017 715.827,154.008 
  725.69,153.998 735.552,153.987 745.415,153.975 755.278,153.962 765.141,153.948 775.004,153.932 784.866,153.915 794.729,153.896 804.592,153.876 814.455,153.853 
  824.318,153.828 834.18,153.801 844.043,153.772 853.906,153.739 863.769,153.703 873.632,153.664 883.494,153.621 893.357,153.574 903.22,153.523 913.083,153.467 
  922.946,153.405 932.808,153.338 942.671,153.264 952.534,153.184 962.397,153.096 972.26,153 982.122,152.895 991.985,152.78 1001.85,152.655 1011.71,152.519 
  1021.57,152.371 1031.44,152.209 1041.3,152.034 1051.16,151.844 1061.02,151.638 1070.89,151.415 1080.75,151.174 1090.61,150.915 1100.48,150.636 1110.34,150.338 
  1120.2,150.02 1130.06,149.682 1139.93,149.327 1149.79,148.955 1159.65,148.57 1169.52,148.176 1179.38,147.781 1189.24,147.392 1199.1,147.023 1208.97,146.69 
  1218.83,146.415 1228.69,146.223 1238.56,146.15 1248.42,146.234 1258.28,146.524 1268.14,147.071 1278.01,147.93 1287.87,149.157 1297.73,150.797 1307.59,152.889 
  1317.46,155.45 1327.32,158.482 1337.18,161.964 1347.05,165.86 1356.91,170.123 1366.77,174.699 1376.63,179.532 1386.5,184.571 1396.36,189.767 1406.22,195.081 
  1416.09,200.48 1425.95,205.935 1435.81,211.427 1445.67,216.938 1455.54,222.457 1465.4,227.973 1475.26,233.481 1485.13,238.976 1494.99,244.454 1504.85,249.914 
  1514.71,255.355 1524.58,260.776 1534.44,266.177 1544.3,271.56 1554.16,276.923 1564.03,282.269 1573.89,287.598 1583.75,292.911 1593.62,298.209 1603.48,303.493 
  1613.34,308.764 1623.2,314.023 1633.07,319.271 1642.93,324.508 1652.79,329.736 1662.66,334.955 1672.52,340.165 1682.38,345.369 1692.24,350.565 1702.11,355.755 
  1711.97,360.94 1721.83,366.119 1731.7,371.293 1741.56,376.463 1751.42,381.628 1761.28,386.79 1771.15,391.949 1781.01,397.104 1790.87,402.257 1800.73,407.407 
  1810.6,412.554 1820.46,417.699 1830.32,422.843 1840.19,427.985 1850.05,433.124 1859.91,438.263 1869.77,443.4 1879.64,448.536 1889.5,453.671 1899.36,458.804 
  1909.23,463.937 1919.09,469.069 1928.95,474.2 1938.81,479.33 1948.68,484.46 1958.54,489.589 1968.4,494.717 1978.27,499.845 1988.13,504.972 1997.99,510.1 
  2007.85,515.226 2017.72,520.353 2027.58,525.479 2037.44,530.604 2047.3,535.73 2057.17,540.855 2067.03,545.98 2076.89,551.105 2086.76,556.23 2096.62,561.354 
  2106.48,566.479 2116.34,571.603 2126.21,576.727 2136.07,581.851 2145.93,586.975 2155.8,592.099 2165.66,597.222 2175.52,602.346 2185.38,607.469 2195.25,612.593 
  2205.11,617.716 2214.97,622.84 2224.84,627.963 2234.7,633.086 2244.56,638.209 2254.42,643.333 2264.29,648.456 2274.15,653.579 2284.01,658.702 2293.87,663.825 
  
  "/>
<polyline clip-path="url(#clip003)" style="stroke:#ac8d18; stroke-width:8; stroke-opacity:1; fill:none" points="
  331.177,154.112 341.04,154.112 350.903,154.112 360.766,154.112 370.629,154.112 380.491,154.113 390.354,154.113 400.217,154.113 410.08,154.113 419.943,154.114 
  429.805,154.114 439.668,154.114 449.531,154.115 459.394,154.115 469.257,154.116 479.119,154.116 488.982,154.117 498.845,154.118 508.708,154.118 518.571,154.119 
  528.433,154.12 538.296,154.121 548.159,154.122 558.022,154.123 567.885,154.124 577.748,154.126 587.61,154.127 597.473,154.129 607.336,154.131 617.199,154.133 
  627.062,154.135 636.924,154.138 646.787,154.14 656.65,154.143 666.513,154.146 676.376,154.15 686.238,154.154 696.101,154.158 705.964,154.163 715.827,154.168 
  725.69,154.173 735.552,154.18 745.415,154.186 755.278,154.194 765.141,154.202 775.004,154.211 784.866,154.221 794.729,154.232 804.592,154.244 814.455,154.257 
  824.318,154.271 834.18,154.287 844.043,154.305 853.906,154.324 863.769,154.345 873.632,154.368 883.494,154.394 893.357,154.422 903.22,154.453 913.083,154.488 
  922.946,154.526 932.808,154.568 942.671,154.614 952.534,154.665 962.397,154.722 972.26,154.784 982.122,154.854 991.985,154.93 1001.85,155.016 1011.71,155.11 
  1021.57,155.215 1031.44,155.332 1041.3,155.462 1051.16,155.607 1061.02,155.768 1070.89,155.949 1080.75,156.15 1090.61,156.375 1100.48,156.627 1110.34,156.909 
  1120.2,157.225 1130.06,157.58 1139.93,157.978 1149.79,158.424 1159.65,158.926 1169.52,159.489 1179.38,160.121 1189.24,160.831 1199.1,161.626 1208.97,162.517 
  1218.83,163.513 1228.69,164.625 1238.56,165.862 1248.42,167.236 1258.28,168.757 1268.14,170.435 1278.01,172.278 1287.87,174.293 1297.73,176.487 1307.59,178.864 
  1317.46,181.425 1327.32,184.171 1337.18,187.1 1347.05,190.207 1356.91,193.488 1366.77,196.933 1376.63,200.535 1386.5,204.283 1396.36,208.168 1406.22,212.18 
  1416.09,216.306 1425.95,220.538 1435.81,224.866 1445.67,229.279 1455.54,233.77 1465.4,238.329 1475.26,242.95 1485.13,247.626 1494.99,252.351 1504.85,257.12 
  1514.71,261.926 1524.58,266.767 1534.44,271.638 1544.3,276.535 1554.16,281.457 1564.03,286.4 1573.89,291.361 1583.75,296.339 1593.62,301.332 1603.48,306.338 
  1613.34,311.355 1623.2,316.383 1633.07,321.421 1642.93,326.467 1652.79,331.52 1662.66,336.581 1672.52,341.647 1682.38,346.718 1692.24,351.795 1702.11,356.876 
  1711.97,361.961 1721.83,367.049 1731.7,372.141 1741.56,377.235 1751.42,382.332 1761.28,387.432 1771.15,392.533 1781.01,397.637 1790.87,402.742 1800.73,407.849 
  1810.6,412.958 1820.46,418.067 1830.32,423.178 1840.19,428.29 1850.05,433.403 1859.91,438.517 1869.77,443.631 1879.64,448.747 1889.5,453.863 1899.36,458.979 
  1909.23,464.097 1919.09,469.214 1928.95,474.332 1938.81,479.451 1948.68,484.57 1958.54,489.689 1968.4,494.809 1978.27,499.928 1988.13,505.049 1997.99,510.169 
  2007.85,515.29 2017.72,520.41 2027.58,525.531 2037.44,530.652 2047.3,535.774 2057.17,540.895 2067.03,546.017 2076.89,551.138 2086.76,556.26 2096.62,561.382 
  2106.48,566.504 2116.34,571.626 2126.21,576.748 2136.07,581.87 2145.93,586.992 2155.8,592.114 2165.66,597.237 2175.52,602.359 2185.38,607.481 2195.25,612.604 
  2205.11,617.726 2214.97,622.849 2224.84,627.971 2234.7,633.094 2244.56,638.216 2254.42,643.339 2264.29,648.461 2274.15,653.584 2284.01,658.707 2293.87,663.829 
  
  "/>
<polyline clip-path="url(#clip003)" style="stroke:#00a9ad; stroke-width:8; stroke-opacity:1; fill:none" points="
  331.177,154.116 341.04,154.116 350.903,154.117 360.766,154.117 370.629,154.118 380.491,154.119 390.354,154.12 400.217,154.121 410.08,154.122 419.943,154.123 
  429.805,154.124 439.668,154.125 449.531,154.127 459.394,154.129 469.257,154.13 479.119,154.132 488.982,154.135 498.845,154.137 508.708,154.139 518.571,154.142 
  528.433,154.145 538.296,154.149 548.159,154.153 558.022,154.157 567.885,154.161 577.748,154.166 587.61,154.172 597.473,154.178 607.336,154.184 617.199,154.191 
  627.062,154.199 636.924,154.208 646.787,154.217 656.65,154.227 666.513,154.239 676.376,154.251 686.238,154.265 696.101,154.28 705.964,154.296 715.827,154.314 
  725.69,154.334 735.552,154.356 745.415,154.38 755.278,154.406 765.141,154.434 775.004,154.466 784.866,154.5 794.729,154.538 804.592,154.579 814.455,154.624 
  824.318,154.674 834.18,154.728 844.043,154.788 853.906,154.853 863.769,154.924 873.632,155.003 883.494,155.088 893.357,155.182 903.22,155.285 913.083,155.398 
  922.946,155.521 932.808,155.656 942.671,155.804 952.534,155.965 962.397,156.142 972.26,156.335 982.122,156.546 991.985,156.777 1001.85,157.029 1011.71,157.304 
  1021.57,157.604 1031.44,157.932 1041.3,158.289 1051.16,158.678 1061.02,159.101 1070.89,159.562 1080.75,160.064 1090.61,160.608 1100.48,161.2 1110.34,161.841 
  1120.2,162.537 1130.06,163.29 1139.93,164.104 1149.79,164.984 1159.65,165.933 1169.52,166.956 1179.38,168.057 1189.24,169.24 1199.1,170.509 1208.97,171.869 
  1218.83,173.323 1228.69,174.875 1238.56,176.529 1248.42,178.289 1258.28,180.157 1268.14,182.136 1278.01,184.228 1287.87,186.436 1297.73,188.761 1307.59,191.204 
  1317.46,193.766 1327.32,196.446 1337.18,199.243 1347.05,202.158 1356.91,205.188 1366.77,208.332 1376.63,211.587 1386.5,214.95 1396.36,218.419 1406.22,221.989 
  1416.09,225.658 1425.95,229.421 1435.81,233.275 1445.67,237.214 1455.54,241.236 1465.4,245.336 1475.26,249.51 1485.13,253.753 1494.99,258.061 1504.85,262.431 
  1514.71,266.859 1524.58,271.34 1534.44,275.871 1544.3,280.449 1554.16,285.071 1564.03,289.732 1573.89,294.432 1583.75,299.165 1593.62,303.931 1603.48,308.727 
  1613.34,313.549 1623.2,318.397 1633.07,323.268 1642.93,328.16 1652.79,333.072 1662.66,338.001 1672.52,342.947 1682.38,347.909 1692.24,352.884 1702.11,357.871 
  1711.97,362.871 1721.83,367.881 1731.7,372.901 1741.56,377.93 1751.42,382.967 1761.28,388.011 1771.15,393.063 1781.01,398.12 1790.87,403.183 1800.73,408.252 
  1810.6,413.325 1820.46,418.402 1830.32,423.484 1840.19,428.569 1850.05,433.658 1859.91,438.749 1869.77,443.843 1879.64,448.94 1889.5,454.039 1899.36,459.14 
  1909.23,464.243 1919.09,469.348 1928.95,474.454 1938.81,479.562 1948.68,484.671 1958.54,489.782 1968.4,494.893 1978.27,500.005 1988.13,505.119 1997.99,510.233 
  2007.85,515.348 2017.72,520.463 2027.58,525.58 2037.44,530.697 2047.3,535.814 2057.17,540.932 2067.03,546.05 2076.89,551.169 2086.76,556.288 2096.62,561.407 
  2106.48,566.527 2116.34,571.647 2126.21,576.767 2136.07,581.887 2145.93,587.008 2155.8,592.129 2165.66,597.25 2175.52,602.371 2185.38,607.492 2195.25,612.614 
  2205.11,617.735 2214.97,622.857 2224.84,627.979 2234.7,633.101 2244.56,638.223 2254.42,643.345 2264.29,648.467 2274.15,653.589 2284.01,658.711 2293.87,663.833 
  
  "/>
<polyline clip-path="url(#clip003)" style="stroke:#ed5d92; stroke-width:8; stroke-opacity:1; fill:none" points="
  331.177,154.149 341.04,154.153 350.903,154.157 360.766,154.161 370.629,154.166 380.491,154.172 390.354,154.178 400.217,154.184 410.08,154.191 419.943,154.199 
  429.805,154.208 439.668,154.217 449.531,154.228 459.394,154.239 469.257,154.251 479.119,154.265 488.982,154.28 498.845,154.296 508.708,154.314 518.571,154.334 
  528.433,154.356 538.296,154.38 548.159,154.405 558.022,154.434 567.885,154.465 577.748,154.499 587.61,154.537 597.473,154.578 607.336,154.623 617.199,154.672 
  627.062,154.726 636.924,154.785 646.787,154.849 656.65,154.92 666.513,154.997 676.376,155.082 686.238,155.175 696.101,155.276 705.964,155.386 715.827,155.507 
  725.69,155.639 735.552,155.783 745.415,155.94 755.278,156.111 765.141,156.297 775.004,156.501 784.866,156.722 794.729,156.963 804.592,157.225 814.455,157.509 
  824.318,157.818 834.18,158.153 844.043,158.515 853.906,158.908 863.769,159.332 873.632,159.79 883.494,160.285 893.357,160.817 903.22,161.39 913.083,162.005 
  922.946,162.664 932.808,163.37 942.671,164.125 952.534,164.93 962.397,165.787 972.26,166.698 982.122,167.665 991.985,168.689 1001.85,169.771 1011.71,170.912 
  1021.57,172.113 1031.44,173.374 1041.3,174.695 1051.16,176.077 1061.02,177.519 1070.89,179.02 1080.75,180.581 1090.61,182.2 1100.48,183.876 1110.34,185.608 
  1120.2,187.394 1130.06,189.233 1139.93,191.124 1149.79,193.064 1159.65,195.051 1169.52,197.085 1179.38,199.164 1189.24,201.285 1199.1,203.447 1208.97,205.648 
  1218.83,207.887 1228.69,210.163 1238.56,212.474 1248.42,214.819 1258.28,217.197 1268.14,219.607 1278.01,222.048 1287.87,224.52 1297.73,227.022 1307.59,229.553 
  1317.46,232.115 1327.32,234.706 1337.18,237.327 1347.05,239.978 1356.91,242.659 1366.77,245.372 1376.63,248.117 1386.5,250.895 1396.36,253.707 1406.22,256.554 
  1416.09,259.437 1425.95,262.359 1435.81,265.32 1445.67,268.321 1455.54,271.366 1465.4,274.455 1475.26,277.59 1485.13,280.772 1494.99,284.005 1504.85,287.289 
  1514.71,290.625 1524.58,294.016 1534.44,297.463 1544.3,300.967 1554.16,304.529 1564.03,308.15 1573.89,311.831 1583.75,315.572 1593.62,319.373 1603.48,323.235 
  1613.34,327.157 1623.2,331.139 1633.07,335.18 1642.93,339.279 1652.79,343.435 1662.66,347.646 1672.52,351.911 1682.38,356.229 1692.24,360.597 1702.11,365.014 
  1711.97,369.478 1721.83,373.985 1731.7,378.536 1741.56,383.126 1751.42,387.755 1761.28,392.419 1771.15,397.118 1781.01,401.848 1790.87,406.608 1800.73,411.396 
  1810.6,416.21 1820.46,421.048 1830.32,425.909 1840.19,430.791 1850.05,435.693 1859.91,440.612 1869.77,445.548 1879.64,450.5 1889.5,455.466 1899.36,460.445 
  1909.23,465.436 1919.09,470.438 1928.95,475.45 1938.81,480.472 1948.68,485.502 1958.54,490.54 1968.4,495.586 1978.27,500.638 1988.13,505.696 1997.99,510.76 
  2007.85,515.829 2017.72,520.902 2027.58,525.98 2037.44,531.062 2047.3,536.147 2057.17,541.236 2067.03,546.327 2076.89,551.422 2086.76,556.518 2096.62,561.618 
  2106.48,566.719 2116.34,571.822 2126.21,576.927 2136.07,582.033 2145.93,587.141 2155.8,592.25 2165.66,597.36 2175.52,602.472 2185.38,607.584 2195.25,612.697 
  2205.11,617.812 2214.97,622.926 2224.84,628.042 2234.7,633.158 2244.56,638.275 2254.42,643.393 2264.29,648.51 2274.15,653.629 2284.01,658.747 2293.87,663.866 
  
  "/>
<path clip-path="url(#clip000)" d="
M272.297 1410.9 L2352.76 1410.9 L2352.76 776.314 L272.297 776.314  Z
  " fill="#ffffff" fill-rule="evenodd" fill-opacity="1"/>
<defs>
  <clipPath id="clip004">
    <rect x="272" y="776" width="2081" height="636"/>
  </clipPath>
</defs>
<polyline clip-path="url(#clip004)" style="stroke:#000000; stroke-width:2; stroke-opacity:0.1; fill:none" points="
  331.177,1410.9 331.177,776.314 
  "/>
<polyline clip-path="url(#clip004)" style="stroke:#000000; stroke-width:2; stroke-opacity:0.1; fill:none" points="
  821.852,1410.9 821.852,776.314 
  "/>
<polyline clip-path="url(#clip004)" style="stroke:#000000; stroke-width:2; stroke-opacity:0.1; fill:none" points="
  1312.53,1410.9 1312.53,776.314 
  "/>
<polyline clip-path="url(#clip004)" style="stroke:#000000; stroke-width:2; stroke-opacity:0.1; fill:none" points="
  1803.2,1410.9 1803.2,776.314 
  "/>
<polyline clip-path="url(#clip004)" style="stroke:#000000; stroke-width:2; stroke-opacity:0.1; fill:none" points="
  2293.87,1410.9 2293.87,776.314 
  "/>
<polyline clip-path="url(#clip000)" style="stroke:#000000; stroke-width:4; stroke-opacity:1; fill:none" points="
  272.297,1410.9 2352.76,1410.9 
  "/>
<polyline clip-path="url(#clip000)" style="stroke:#000000; stroke-width:4; stroke-opacity:1; fill:none" points="
  331.177,1410.9 331.177,1403.28 
  "/>
<polyline clip-path="url(#clip000)" style="stroke:#000000; stroke-width:4; stroke-opacity:1; fill:none" points="
  821.852,1410.9 821.852,1403.28 
  "/>
<polyline clip-path="url(#clip000)" style="stroke:#000000; stroke-width:4; stroke-opacity:1; fill:none" points="
  1312.53,1410.9 1312.53,1403.28 
  "/>
<polyline clip-path="url(#clip000)" style="stroke:#000000; stroke-width:4; stroke-opacity:1; fill:none" points="
  1803.2,1410.9 1803.2,1403.28 
  "/>
<polyline clip-path="url(#clip000)" style="stroke:#000000; stroke-width:4; stroke-opacity:1; fill:none" points="
  2293.87,1410.9 2293.87,1403.28 
  "/>
<polyline clip-path="url(#clip000)" style="stroke:#000000; stroke-width:4; stroke-opacity:1; fill:none" points="
  288.888,1410.9 288.888,1407.09 
  "/>
<polyline clip-path="url(#clip000)" style="stroke:#000000; stroke-width:4; stroke-opacity:1; fill:none" points="
  550.586,1410.9 550.586,1407.09 
  "/>
<polyline clip-path="url(#clip000)" style="stroke:#000000; stroke-width:4; stroke-opacity:1; fill:none" points="
  656.376,1410.9 656.376,1407.09 
  "/>
<polyline clip-path="url(#clip000)" style="stroke:#000000; stroke-width:4; stroke-opacity:1; fill:none" points="
  726.749,1410.9 726.749,1407.09 
  "/>
<polyline clip-path="url(#clip000)" style="stroke:#000000; stroke-width:4; stroke-opacity:1; fill:none" points="
  779.563,1410.9 779.563,1407.09 
  "/>
<polyline clip-path="url(#clip000)" style="stroke:#000000; stroke-width:4; stroke-opacity:1; fill:none" points="
  1041.26,1410.9 1041.26,1407.09 
  "/>
<polyline clip-path="url(#clip000)" style="stroke:#000000; stroke-width:4; stroke-opacity:1; fill:none" points="
  1147.05,1410.9 1147.05,1407.09 
  "/>
<polyline clip-path="url(#clip000)" style="stroke:#000000; stroke-width:4; stroke-opacity:1; fill:none" points="
  1217.42,1410.9 1217.42,1407.09 
  "/>
<polyline clip-path="url(#clip000)" style="stroke:#000000; stroke-width:4; stroke-opacity:1; fill:none" points="
  1270.24,1410.9 1270.24,1407.09 
  "/>
<polyline clip-path="url(#clip000)" style="stroke:#000000; stroke-width:4; stroke-opacity:1; fill:none" points="
  1531.94,1410.9 1531.94,1407.09 
  "/>
<polyline clip-path="url(#clip000)" style="stroke:#000000; stroke-width:4; stroke-opacity:1; fill:none" points="
  1637.72,1410.9 1637.72,1407.09 
  "/>
<polyline clip-path="url(#clip000)" style="stroke:#000000; stroke-width:4; stroke-opacity:1; fill:none" points="
  1708.1,1410.9 1708.1,1407.09 
  "/>
<polyline clip-path="url(#clip000)" style="stroke:#000000; stroke-width:4; stroke-opacity:1; fill:none" points="
  1760.91,1410.9 1760.91,1407.09 
  "/>
<polyline clip-path="url(#clip000)" style="stroke:#000000; stroke-width:4; stroke-opacity:1; fill:none" points="
  2022.61,1410.9 2022.61,1407.09 
  "/>
<polyline clip-path="url(#clip000)" style="stroke:#000000; stroke-width:4; stroke-opacity:1; fill:none" points="
  2128.4,1410.9 2128.4,1407.09 
  "/>
<polyline clip-path="url(#clip000)" style="stroke:#000000; stroke-width:4; stroke-opacity:1; fill:none" points="
  2198.77,1410.9 2198.77,1407.09 
  "/>
<polyline clip-path="url(#clip000)" style="stroke:#000000; stroke-width:4; stroke-opacity:1; fill:none" points="
  2251.59,1410.9 2251.59,1407.09 
  "/>
<path clip-path="url(#clip000)" d="M 0 0 M281.443 1489.17 L289.082 1489.17 L289.082 1462.8 L280.772 1464.47 L280.772 1460.21 L289.036 1458.54 L293.712 1458.54 L293.712 1489.17 L301.351 1489.17 L301.351 1493.1 L281.443 1493.1 L281.443 1489.17 Z" fill="#000000" fill-rule="evenodd" fill-opacity="1" /><path clip-path="url(#clip000)" d="M 0 0 M320.795 1461.62 Q317.184 1461.62 315.355 1465.19 Q313.55 1468.73 313.55 1475.86 Q313.55 1482.97 315.355 1486.53 Q317.184 1490.07 320.795 1490.07 Q324.429 1490.07 326.235 1486.53 Q328.063 1482.97 328.063 1475.86 Q328.063 1468.73 326.235 1465.19 Q324.429 1461.62 320.795 1461.62 M320.795 1457.92 Q326.605 1457.92 329.661 1462.53 Q332.739 1467.11 332.739 1475.86 Q332.739 1484.59 329.661 1489.19 Q326.605 1493.78 320.795 1493.78 Q314.985 1493.78 311.906 1489.19 Q308.85 1484.59 308.85 1475.86 Q308.85 1467.11 311.906 1462.53 Q314.985 1457.92 320.795 1457.92 Z" fill="#000000" fill-rule="evenodd" fill-opacity="1" /><path clip-path="url(#clip000)" d="M 0 0 M332.739 1452.02 L356.851 1452.02 L356.851 1455.22 L332.739 1455.22 L332.739 1452.02 Z" fill="#000000" fill-rule="evenodd" fill-opacity="1" /><path clip-path="url(#clip000)" d="M 0 0 M368.324 1462.5 L381.583 1462.5 L381.583 1465.69 L363.753 1465.69 L363.753 1462.5 Q365.916 1460.26 369.64 1456.5 Q373.383 1452.72 374.342 1451.63 Q376.166 1449.58 376.881 1448.16 Q377.615 1446.74 377.615 1445.36 Q377.615 1443.12 376.035 1441.71 Q374.474 1440.3 371.953 1440.3 Q370.167 1440.3 368.173 1440.92 Q366.198 1441.54 363.941 1442.8 L363.941 1438.97 Q366.236 1438.05 368.229 1437.58 Q370.223 1437.11 371.878 1437.11 Q376.242 1437.11 378.837 1439.29 Q381.433 1441.47 381.433 1445.12 Q381.433 1446.85 380.774 1448.41 Q380.135 1449.95 378.423 1452.06 Q377.953 1452.6 375.433 1455.22 Q372.913 1457.81 368.324 1462.5 Z" fill="#000000" fill-rule="evenodd" fill-opacity="1" /><path clip-path="url(#clip000)" d="M 0 0 M771.967 1489.17 L779.606 1489.17 L779.606 1462.8 L771.296 1464.47 L771.296 1460.21 L779.56 1458.54 L784.236 1458.54 L784.236 1489.17 L791.874 1489.17 L791.874 1493.1 L771.967 1493.1 L771.967 1489.17 Z" fill="#000000" fill-rule="evenodd" fill-opacity="1" /><path clip-path="url(#clip000)" d="M 0 0 M811.319 1461.62 Q807.708 1461.62 805.879 1465.19 Q804.073 1468.73 804.073 1475.86 Q804.073 1482.97 805.879 1486.53 Q807.708 1490.07 811.319 1490.07 Q814.953 1490.07 816.759 1486.53 Q818.587 1482.97 818.587 1475.86 Q818.587 1468.73 816.759 1465.19 Q814.953 1461.62 811.319 1461.62 M811.319 1457.92 Q817.129 1457.92 820.184 1462.53 Q823.263 1467.11 823.263 1475.86 Q823.263 1484.59 820.184 1489.19 Q817.129 1493.78 811.319 1493.78 Q805.509 1493.78 802.43 1489.19 Q799.374 1484.59 799.374 1475.86 Q799.374 1467.11 802.43 1462.53 Q805.509 1457.92 811.319 1457.92 Z" fill="#000000" fill-rule="evenodd" fill-opacity="1" /><path clip-path="url(#clip000)" d="M 0 0 M823.263 1452.02 L847.375 1452.02 L847.375 1455.22 L823.263 1455.22 L823.263 1452.02 Z" fill="#000000" fill-rule="evenodd" fill-opacity="1" /><path clip-path="url(#clip000)" d="M 0 0 M856.233 1462.5 L862.44 1462.5 L862.44 1441.07 L855.688 1442.43 L855.688 1438.97 L862.402 1437.61 L866.201 1437.61 L866.201 1462.5 L872.408 1462.5 L872.408 1465.69 L856.233 1465.69 L856.233 1462.5 Z" fill="#000000" fill-rule="evenodd" fill-opacity="1" /><path clip-path="url(#clip000)" d="M 0 0 M1277.51 1489.17 L1285.15 1489.17 L1285.15 1462.8 L1276.84 1464.47 L1276.84 1460.21 L1285.1 1458.54 L1289.78 1458.54 L1289.78 1489.17 L1297.42 1489.17 L1297.42 1493.1 L1277.51 1493.1 L1277.51 1489.17 Z" fill="#000000" fill-rule="evenodd" fill-opacity="1" /><path clip-path="url(#clip000)" d="M 0 0 M1316.86 1461.62 Q1313.25 1461.62 1311.42 1465.19 Q1309.62 1468.73 1309.62 1475.86 Q1309.62 1482.97 1311.42 1486.53 Q1313.25 1490.07 1316.86 1490.07 Q1320.49 1490.07 1322.3 1486.53 Q1324.13 1482.97 1324.13 1475.86 Q1324.13 1468.73 1322.3 1465.19 Q1320.49 1461.62 1316.86 1461.62 M1316.86 1457.92 Q1322.67 1457.92 1325.73 1462.53 Q1328.81 1467.11 1328.81 1475.86 Q1328.81 1484.59 1325.73 1489.19 Q1322.67 1493.78 1316.86 1493.78 Q1311.05 1493.78 1307.97 1489.19 Q1304.92 1484.59 1304.92 1475.86 Q1304.92 1467.11 1307.97 1462.53 Q1311.05 1457.92 1316.86 1457.92 Z" fill="#000000" fill-rule="evenodd" fill-opacity="1" /><path clip-path="url(#clip000)" d="M 0 0 M1338.51 1440.11 Q1335.58 1440.11 1334.09 1443.01 Q1332.62 1445.89 1332.62 1451.68 Q1332.62 1457.46 1334.09 1460.35 Q1335.58 1463.23 1338.51 1463.23 Q1341.46 1463.23 1342.93 1460.35 Q1344.42 1457.46 1344.42 1451.68 Q1344.42 1445.89 1342.93 1443.01 Q1341.46 1440.11 1338.51 1440.11 M1338.51 1437.11 Q1343.23 1437.11 1345.71 1440.85 Q1348.21 1444.57 1348.21 1451.68 Q1348.21 1458.77 1345.71 1462.51 Q1343.23 1466.24 1338.51 1466.24 Q1333.79 1466.24 1331.29 1462.51 Q1328.81 1458.77 1328.81 1451.68 Q1328.81 1444.57 1331.29 1440.85 Q1333.79 1437.11 1338.51 1437.11 Z" fill="#000000" fill-rule="evenodd" fill-opacity="1" /><path clip-path="url(#clip000)" d="M 0 0 M1769.53 1489.17 L1777.17 1489.17 L1777.17 1462.8 L1768.86 1464.47 L1768.86 1460.21 L1777.12 1458.54 L1781.8 1458.54 L1781.8 1489.17 L1789.44 1489.17 L1789.44 1493.1 L1769.53 1493.1 L1769.53 1489.17 Z" fill="#000000" fill-rule="evenodd" fill-opacity="1" /><path clip-path="url(#clip000)" d="M 0 0 M1808.88 1461.62 Q1805.27 1461.62 1803.44 1465.19 Q1801.63 1468.73 1801.63 1475.86 Q1801.63 1482.97 1803.44 1486.53 Q1805.27 1490.07 1808.88 1490.07 Q1812.51 1490.07 1814.32 1486.53 Q1816.15 1482.97 1816.15 1475.86 Q1816.15 1468.73 1814.32 1465.19 Q1812.51 1461.62 1808.88 1461.62 M1808.88 1457.92 Q1814.69 1457.92 1817.75 1462.53 Q1820.82 1467.11 1820.82 1475.86 Q1820.82 1484.59 1817.75 1489.19 Q1814.69 1493.78 1808.88 1493.78 Q1803.07 1493.78 1799.99 1489.19 Q1796.94 1484.59 1796.94 1475.86 Q1796.94 1467.11 1799.99 1462.53 Q1803.07 1457.92 1808.88 1457.92 Z" fill="#000000" fill-rule="evenodd" fill-opacity="1" /><path clip-path="url(#clip000)" d="M 0 0 M1821.37 1462.5 L1827.58 1462.5 L1827.58 1441.07 L1820.82 1442.43 L1820.82 1438.97 L1827.54 1437.61 L1831.34 1437.61 L1831.34 1462.5 L1837.54 1462.5 L1837.54 1465.69 L1821.37 1465.69 L1821.37 1462.5 Z" fill="#000000" fill-rule="evenodd" fill-opacity="1" /><path clip-path="url(#clip000)" d="M 0 0 M2259.65 1489.17 L2267.29 1489.17 L2267.29 1462.8 L2258.98 1464.47 L2258.98 1460.21 L2267.24 1458.54 L2271.92 1458.54 L2271.92 1489.17 L2279.56 1489.17 L2279.56 1493.1 L2259.65 1493.1 L2259.65 1489.17 Z" fill="#000000" fill-rule="evenodd" fill-opacity="1" /><path clip-path="url(#clip000)" d="M 0 0 M2299 1461.62 Q2295.39 1461.62 2293.56 1465.19 Q2291.75 1468.73 2291.75 1475.86 Q2291.75 1482.97 2293.56 1486.53 Q2295.39 1490.07 2299 1490.07 Q2302.63 1490.07 2304.44 1486.53 Q2306.27 1482.97 2306.27 1475.86 Q2306.27 1468.73 2304.44 1465.19 Q2302.63 1461.62 2299 1461.62 M2299 1457.92 Q2304.81 1457.92 2307.87 1462.53 Q2310.94 1467.11 2310.94 1475.86 Q2310.94 1484.59 2307.87 1489.19 Q2304.81 1493.78 2299 1493.78 Q2293.19 1493.78 2290.11 1489.19 Q2287.05 1484.59 2287.05 1475.86 Q2287.05 1467.11 2290.11 1462.53 Q2293.19 1457.92 2299 1457.92 Z" fill="#000000" fill-rule="evenodd" fill-opacity="1" /><path clip-path="url(#clip000)" d="M 0 0 M2315.51 1462.5 L2328.77 1462.5 L2328.77 1465.69 L2310.94 1465.69 L2310.94 1462.5 Q2313.11 1460.26 2316.83 1456.5 Q2320.57 1452.72 2321.53 1451.63 Q2323.36 1449.58 2324.07 1448.16 Q2324.81 1446.74 2324.81 1445.36 Q2324.81 1443.12 2323.23 1441.71 Q2321.66 1440.3 2319.14 1440.3 Q2317.36 1440.3 2315.36 1440.92 Q2313.39 1441.54 2311.13 1442.8 L2311.13 1438.97 Q2313.43 1438.05 2315.42 1437.58 Q2317.41 1437.11 2319.07 1437.11 Q2323.43 1437.11 2326.03 1439.29 Q2328.62 1441.47 2328.62 1445.12 Q2328.62 1446.85 2327.96 1448.41 Q2327.33 1449.95 2325.61 1452.06 Q2325.14 1452.6 2322.62 1455.22 Q2320.1 1457.81 2315.51 1462.5 Z" fill="#000000" fill-rule="evenodd" fill-opacity="1" /><path clip-path="url(#clip000)" d="M 0 0 M1302.82 1575.11 Q1289.61 1575.11 1289.61 1556.2 Q1289.61 1548.72 1294.54 1538.54 L1300.85 1538.54 Q1296.29 1548.72 1296.29 1556.36 Q1296.29 1570.14 1303.36 1570.14 Q1309.82 1570.14 1309.82 1553.02 L1315.23 1553.02 Q1315.23 1570.14 1321.69 1570.14 Q1328.76 1570.14 1328.76 1556.36 Q1328.76 1548.72 1324.21 1538.54 L1330.51 1538.54 Q1335.44 1548.72 1335.44 1556.2 Q1335.44 1575.11 1322.23 1575.11 Q1313.58 1575.11 1312.53 1565.59 Q1311.22 1575.11 1302.82 1575.11 Z" fill="#000000" fill-rule="evenodd" fill-opacity="1" /><polyline clip-path="url(#clip004)" style="stroke:#000000; stroke-width:2; stroke-opacity:0.1; fill:none" points="
  272.297,1293.41 2352.76,1293.41 
  "/>
<polyline clip-path="url(#clip004)" style="stroke:#000000; stroke-width:2; stroke-opacity:0.1; fill:none" points="
  272.297,1126.91 2352.76,1126.91 
  "/>
<polyline clip-path="url(#clip004)" style="stroke:#000000; stroke-width:2; stroke-opacity:0.1; fill:none" points="
  272.297,960.4 2352.76,960.4 
  "/>
<polyline clip-path="url(#clip004)" style="stroke:#000000; stroke-width:2; stroke-opacity:0.1; fill:none" points="
  272.297,793.893 2352.76,793.893 
  "/>
<polyline clip-path="url(#clip000)" style="stroke:#000000; stroke-width:4; stroke-opacity:1; fill:none" points="
  272.297,1410.9 272.297,776.314 
  "/>
<polyline clip-path="url(#clip000)" style="stroke:#000000; stroke-width:4; stroke-opacity:1; fill:none" points="
  272.297,1293.41 297.262,1293.41 
  "/>
<polyline clip-path="url(#clip000)" style="stroke:#000000; stroke-width:4; stroke-opacity:1; fill:none" points="
  272.297,1126.91 297.262,1126.91 
  "/>
<polyline clip-path="url(#clip000)" style="stroke:#000000; stroke-width:4; stroke-opacity:1; fill:none" points="
  272.297,960.4 297.262,960.4 
  "/>
<polyline clip-path="url(#clip000)" style="stroke:#000000; stroke-width:4; stroke-opacity:1; fill:none" points="
  272.297,793.893 297.262,793.893 
  "/>
<polyline clip-path="url(#clip000)" style="stroke:#000000; stroke-width:4; stroke-opacity:1; fill:none" points="
  272.297,1393.32 284.779,1393.32 
  "/>
<polyline clip-path="url(#clip000)" style="stroke:#000000; stroke-width:4; stroke-opacity:1; fill:none" points="
  272.297,1360.02 284.779,1360.02 
  "/>
<polyline clip-path="url(#clip000)" style="stroke:#000000; stroke-width:4; stroke-opacity:1; fill:none" points="
  272.297,1326.72 284.779,1326.72 
  "/>
<polyline clip-path="url(#clip000)" style="stroke:#000000; stroke-width:4; stroke-opacity:1; fill:none" points="
  272.297,1260.11 284.779,1260.11 
  "/>
<polyline clip-path="url(#clip000)" style="stroke:#000000; stroke-width:4; stroke-opacity:1; fill:none" points="
  272.297,1226.81 284.779,1226.81 
  "/>
<polyline clip-path="url(#clip000)" style="stroke:#000000; stroke-width:4; stroke-opacity:1; fill:none" points="
  272.297,1193.51 284.779,1193.51 
  "/>
<polyline clip-path="url(#clip000)" style="stroke:#000000; stroke-width:4; stroke-opacity:1; fill:none" points="
  272.297,1160.21 284.779,1160.21 
  "/>
<polyline clip-path="url(#clip000)" style="stroke:#000000; stroke-width:4; stroke-opacity:1; fill:none" points="
  272.297,1093.61 284.779,1093.61 
  "/>
<polyline clip-path="url(#clip000)" style="stroke:#000000; stroke-width:4; stroke-opacity:1; fill:none" points="
  272.297,1060.3 284.779,1060.3 
  "/>
<polyline clip-path="url(#clip000)" style="stroke:#000000; stroke-width:4; stroke-opacity:1; fill:none" points="
  272.297,1027 284.779,1027 
  "/>
<polyline clip-path="url(#clip000)" style="stroke:#000000; stroke-width:4; stroke-opacity:1; fill:none" points="
  272.297,993.701 284.779,993.701 
  "/>
<polyline clip-path="url(#clip000)" style="stroke:#000000; stroke-width:4; stroke-opacity:1; fill:none" points="
  272.297,927.098 284.779,927.098 
  "/>
<polyline clip-path="url(#clip000)" style="stroke:#000000; stroke-width:4; stroke-opacity:1; fill:none" points="
  272.297,893.797 284.779,893.797 
  "/>
<polyline clip-path="url(#clip000)" style="stroke:#000000; stroke-width:4; stroke-opacity:1; fill:none" points="
  272.297,860.496 284.779,860.496 
  "/>
<polyline clip-path="url(#clip000)" style="stroke:#000000; stroke-width:4; stroke-opacity:1; fill:none" points="
  272.297,827.194 284.779,827.194 
  "/>
<path clip-path="url(#clip000)" d="M 0 0 M114.26 1293.87 L143.936 1293.87 L143.936 1297.8 L114.26 1297.8 L114.26 1293.87 Z" fill="#000000" fill-rule="evenodd" fill-opacity="1" /><path clip-path="url(#clip000)" d="M 0 0 M154.839 1306.76 L162.477 1306.76 L162.477 1280.39 L154.167 1282.06 L154.167 1277.8 L162.431 1276.13 L167.107 1276.13 L167.107 1306.76 L174.746 1306.76 L174.746 1310.69 L154.839 1310.69 L154.839 1306.76 Z" fill="#000000" fill-rule="evenodd" fill-opacity="1" /><path clip-path="url(#clip000)" d="M 0 0 M184.237 1276.13 L202.593 1276.13 L202.593 1280.07 L188.519 1280.07 L188.519 1288.54 Q189.538 1288.19 190.556 1288.03 Q191.575 1287.85 192.593 1287.85 Q198.38 1287.85 201.76 1291.02 Q205.139 1294.19 205.139 1299.61 Q205.139 1305.18 201.667 1308.29 Q198.195 1311.37 191.875 1311.37 Q189.7 1311.37 187.431 1311 Q185.186 1310.62 182.778 1309.88 L182.778 1305.18 Q184.862 1306.32 187.084 1306.87 Q189.306 1307.43 191.783 1307.43 Q195.787 1307.43 198.125 1305.32 Q200.463 1303.22 200.463 1299.61 Q200.463 1296 198.125 1293.89 Q195.787 1291.78 191.783 1291.78 Q189.908 1291.78 188.033 1292.2 Q186.181 1292.62 184.237 1293.5 L184.237 1276.13 Z" fill="#000000" fill-rule="evenodd" fill-opacity="1" /><path clip-path="url(#clip000)" d="M 0 0 M224.352 1279.21 Q220.741 1279.21 218.912 1282.78 Q217.107 1286.32 217.107 1293.45 Q217.107 1300.56 218.912 1304.12 Q220.741 1307.66 224.352 1307.66 Q227.986 1307.66 229.792 1304.12 Q231.621 1300.56 231.621 1293.45 Q231.621 1286.32 229.792 1282.78 Q227.986 1279.21 224.352 1279.21 M224.352 1275.51 Q230.162 1275.51 233.218 1280.12 Q236.297 1284.7 236.297 1293.45 Q236.297 1302.18 233.218 1306.78 Q230.162 1311.37 224.352 1311.37 Q218.542 1311.37 215.463 1306.78 Q212.408 1302.18 212.408 1293.45 Q212.408 1284.7 215.463 1280.12 Q218.542 1275.51 224.352 1275.51 Z" fill="#000000" fill-rule="evenodd" fill-opacity="1" /><path clip-path="url(#clip000)" d="M 0 0 M114.26 1127.36 L143.936 1127.36 L143.936 1131.29 L114.26 1131.29 L114.26 1127.36 Z" fill="#000000" fill-rule="evenodd" fill-opacity="1" /><path clip-path="url(#clip000)" d="M 0 0 M154.839 1140.25 L162.477 1140.25 L162.477 1113.89 L154.167 1115.55 L154.167 1111.29 L162.431 1109.63 L167.107 1109.63 L167.107 1140.25 L174.746 1140.25 L174.746 1144.19 L154.839 1144.19 L154.839 1140.25 Z" fill="#000000" fill-rule="evenodd" fill-opacity="1" /><path clip-path="url(#clip000)" d="M 0 0 M194.19 1112.71 Q190.579 1112.71 188.75 1116.27 Q186.945 1119.81 186.945 1126.94 Q186.945 1134.05 188.75 1137.61 Q190.579 1141.15 194.19 1141.15 Q197.825 1141.15 199.63 1137.61 Q201.459 1134.05 201.459 1126.94 Q201.459 1119.81 199.63 1116.27 Q197.825 1112.71 194.19 1112.71 M194.19 1109 Q200 1109 203.056 1113.61 Q206.135 1118.19 206.135 1126.94 Q206.135 1135.67 203.056 1140.27 Q200 1144.86 194.19 1144.86 Q188.38 1144.86 185.301 1140.27 Q182.246 1135.67 182.246 1126.94 Q182.246 1118.19 185.301 1113.61 Q188.38 1109 194.19 1109 Z" fill="#000000" fill-rule="evenodd" fill-opacity="1" /><path clip-path="url(#clip000)" d="M 0 0 M224.352 1112.71 Q220.741 1112.71 218.912 1116.27 Q217.107 1119.81 217.107 1126.94 Q217.107 1134.05 218.912 1137.61 Q220.741 1141.15 224.352 1141.15 Q227.986 1141.15 229.792 1137.61 Q231.621 1134.05 231.621 1126.94 Q231.621 1119.81 229.792 1116.27 Q227.986 1112.71 224.352 1112.71 M224.352 1109 Q230.162 1109 233.218 1113.61 Q236.297 1118.19 236.297 1126.94 Q236.297 1135.67 233.218 1140.27 Q230.162 1144.86 224.352 1144.86 Q218.542 1144.86 215.463 1140.27 Q212.408 1135.67 212.408 1126.94 Q212.408 1118.19 215.463 1113.61 Q218.542 1109 224.352 1109 Z" fill="#000000" fill-rule="evenodd" fill-opacity="1" /><path clip-path="url(#clip000)" d="M 0 0 M144.422 960.851 L174.098 960.851 L174.098 964.786 L144.422 964.786 L144.422 960.851 Z" fill="#000000" fill-rule="evenodd" fill-opacity="1" /><path clip-path="url(#clip000)" d="M 0 0 M184.237 943.12 L202.593 943.12 L202.593 947.055 L188.519 947.055 L188.519 955.527 Q189.538 955.18 190.556 955.018 Q191.575 954.833 192.593 954.833 Q198.38 954.833 201.76 958.004 Q205.139 961.175 205.139 966.592 Q205.139 972.171 201.667 975.272 Q198.195 978.351 191.875 978.351 Q189.7 978.351 187.431 977.981 Q185.186 977.61 182.778 976.87 L182.778 972.171 Q184.862 973.305 187.084 973.86 Q189.306 974.416 191.783 974.416 Q195.787 974.416 198.125 972.309 Q200.463 970.203 200.463 966.592 Q200.463 962.981 198.125 960.874 Q195.787 958.768 191.783 958.768 Q189.908 958.768 188.033 959.185 Q186.181 959.601 184.237 960.481 L184.237 943.12 Z" fill="#000000" fill-rule="evenodd" fill-opacity="1" /><path clip-path="url(#clip000)" d="M 0 0 M224.352 946.199 Q220.741 946.199 218.912 949.763 Q217.107 953.305 217.107 960.435 Q217.107 967.541 218.912 971.106 Q220.741 974.647 224.352 974.647 Q227.986 974.647 229.792 971.106 Q231.621 967.541 231.621 960.435 Q231.621 953.305 229.792 949.763 Q227.986 946.199 224.352 946.199 M224.352 942.495 Q230.162 942.495 233.218 947.101 Q236.297 951.685 236.297 960.435 Q236.297 969.161 233.218 973.768 Q230.162 978.351 224.352 978.351 Q218.542 978.351 215.463 973.768 Q212.408 969.161 212.408 960.435 Q212.408 951.685 215.463 947.101 Q218.542 942.495 224.352 942.495 Z" fill="#000000" fill-rule="evenodd" fill-opacity="1" /><path clip-path="url(#clip000)" d="M 0 0 M224.352 779.691 Q220.741 779.691 218.912 783.256 Q217.107 786.798 217.107 793.927 Q217.107 801.034 218.912 804.599 Q220.741 808.14 224.352 808.14 Q227.986 808.14 229.792 804.599 Q231.621 801.034 231.621 793.927 Q231.621 786.798 229.792 783.256 Q227.986 779.691 224.352 779.691 M224.352 775.988 Q230.162 775.988 233.218 780.594 Q236.297 785.177 236.297 793.927 Q236.297 802.654 233.218 807.261 Q230.162 811.844 224.352 811.844 Q218.542 811.844 215.463 807.261 Q212.408 802.654 212.408 793.927 Q212.408 785.177 215.463 780.594 Q218.542 775.988 224.352 775.988 Z" fill="#000000" fill-rule="evenodd" fill-opacity="1" /><path clip-path="url(#clip000)" d="M 0 0 M33.0987 1088.62 Q33.0987 1090.69 37.7138 1090.69 L59.5482 1090.69 Q59.5482 1087.67 56.238 1084.65 Q53.2779 1081.94 46.1802 1081.94 Q39.5598 1081.94 35.995 1084.68 Q33.0987 1086.91 33.0987 1088.62 M28.1016 1088.62 Q28.1016 1084.17 32.3029 1080.13 Q36.7908 1075.77 46.1802 1075.77 Q54.8057 1075.77 59.9301 1080.13 Q64.768 1084.23 64.768 1090.69 L77.5631 1090.69 L77.5631 1096.52 L64.7999 1096.52 Q64.7999 1102.85 59.9301 1107.12 Q54.9649 1111.45 46.212 1111.45 Q37.109 1111.45 32.4621 1107.12 Q28.9928 1103.87 28.1016 1098.59 L33.2896 1098.59 Q34.0217 1100.69 36.5043 1102.53 Q40.1646 1105.27 46.212 1105.27 Q52.6414 1105.27 56.3017 1102.53 Q59.58 1100.08 59.58 1096.52 L37.7138 1096.52 Q28.1016 1096.52 28.1016 1088.62 Z" fill="#000000" fill-rule="evenodd" fill-opacity="1" /><polyline clip-path="url(#clip004)" style="stroke:#009af9; stroke-width:8; stroke-opacity:1; fill:none" points="
  331.177,794.274 341.04,794.292 350.903,794.311 360.766,794.331 370.629,794.352 380.491,794.374 390.354,794.397 400.217,794.42 410.08,794.445 419.943,794.472 
  429.805,794.499 439.668,794.528 449.531,794.558 459.394,794.589 469.257,794.622 479.119,794.657 488.982,794.693 498.845,794.731 508.708,794.771 518.571,794.813 
  528.433,794.856 538.296,794.902 548.159,794.95 558.022,795 567.885,795.053 577.748,795.108 587.61,795.165 597.473,795.226 607.336,795.289 617.199,795.355 
  627.062,795.425 636.924,795.498 646.787,795.574 656.65,795.654 666.513,795.738 676.376,795.826 686.238,795.918 696.101,796.014 705.964,796.115 715.827,796.221 
  725.69,796.333 735.552,796.449 745.415,796.571 755.278,796.7 765.141,796.834 775.004,796.975 784.866,797.123 794.729,797.279 804.592,797.442 814.455,797.613 
  824.318,797.793 834.18,797.981 844.043,798.18 853.906,798.388 863.769,798.607 873.632,798.838 883.494,799.08 893.357,799.335 903.22,799.604 913.083,799.887 
  922.946,800.186 932.808,800.5 942.671,800.833 952.534,801.184 962.397,801.555 972.26,801.948 982.122,802.364 991.985,802.806 1001.85,803.274 1011.71,803.773 
  1021.57,804.304 1031.44,804.87 1041.3,805.475 1051.16,806.123 1061.02,806.818 1070.89,807.566 1080.75,808.373 1090.61,809.246 1100.48,810.194 1110.34,811.227 
  1120.2,812.357 1130.06,813.599 1139.93,814.972 1149.79,816.498 1159.65,818.206 1169.52,820.13 1179.38,822.318 1189.24,824.829 1199.1,827.743 1208.97,831.169 
  1218.83,835.26 1228.69,840.231 1238.56,846.404 1248.42,854.27 1258.28,864.617 1268.14,878.766 1278.01,899.045 1287.87,929.669 1297.73,977.744 1307.59,1050.21 
  1317.46,1137 1327.32,1209.47 1337.18,1257.54 1347.05,1288.17 1356.91,1308.45 1366.77,1322.59 1376.63,1332.94 1386.5,1340.81 1396.36,1346.98 1406.22,1351.95 
  1416.09,1356.04 1425.95,1359.47 1435.81,1362.38 1445.67,1364.89 1455.54,1367.08 1465.4,1369.01 1475.26,1370.71 1485.13,1372.24 1494.99,1373.61 1504.85,1374.85 
  1514.71,1375.98 1524.58,1377.02 1534.44,1377.97 1544.3,1378.84 1554.16,1379.65 1564.03,1380.39 1573.89,1381.09 1583.75,1381.74 1593.62,1382.34 1603.48,1382.91 
  1613.34,1383.44 1623.2,1383.94 1633.07,1384.41 1642.93,1384.85 1652.79,1385.26 1662.66,1385.66 1672.52,1386.03 1682.38,1386.38 1692.24,1386.71 1702.11,1387.03 
  1711.97,1387.32 1721.83,1387.61 1731.7,1387.88 1741.56,1388.13 1751.42,1388.37 1761.28,1388.6 1771.15,1388.82 1781.01,1389.03 1790.87,1389.23 1800.73,1389.42 
  1810.6,1389.6 1820.46,1389.77 1830.32,1389.93 1840.19,1390.09 1850.05,1390.24 1859.91,1390.38 1869.77,1390.51 1879.64,1390.64 1889.5,1390.76 1899.36,1390.88 
  1909.23,1390.99 1919.09,1391.1 1928.95,1391.2 1938.81,1391.29 1948.68,1391.39 1958.54,1391.47 1968.4,1391.56 1978.27,1391.64 1988.13,1391.71 1997.99,1391.79 
  2007.85,1391.86 2017.72,1391.92 2027.58,1391.99 2037.44,1392.05 2047.3,1392.1 2057.17,1392.16 2067.03,1392.21 2076.89,1392.26 2086.76,1392.31 2096.62,1392.35 
  2106.48,1392.4 2116.34,1392.44 2126.21,1392.48 2136.07,1392.52 2145.93,1392.55 2155.8,1392.59 2165.66,1392.62 2175.52,1392.65 2185.38,1392.68 2195.25,1392.71 
  2205.11,1392.74 2214.97,1392.77 2224.84,1392.79 2234.7,1392.81 2244.56,1392.84 2254.42,1392.86 2264.29,1392.88 2274.15,1392.9 2284.01,1392.92 2293.87,1392.94 
  
  "/>
<polyline clip-path="url(#clip004)" style="stroke:#e26f46; stroke-width:8; stroke-opacity:1; fill:none" points="
  331.177,794.656 341.04,794.692 350.903,794.73 360.766,794.77 370.629,794.811 380.491,794.855 390.354,794.9 400.217,794.948 410.08,794.998 419.943,795.051 
  429.805,795.105 439.668,795.163 449.531,795.223 459.394,795.286 469.257,795.352 479.119,795.421 488.982,795.494 498.845,795.57 508.708,795.649 518.571,795.733 
  528.433,795.82 538.296,795.911 548.159,796.007 558.022,796.107 567.885,796.212 577.748,796.323 587.61,796.438 597.473,796.559 607.336,796.685 617.199,796.818 
  627.062,796.957 636.924,797.103 646.787,797.255 656.65,797.415 666.513,797.583 676.376,797.758 686.238,797.942 696.101,798.135 705.964,798.337 715.827,798.549 
  725.69,798.772 735.552,799.005 745.415,799.249 755.278,799.505 765.141,799.774 775.004,800.056 784.866,800.352 794.729,800.662 804.592,800.988 814.455,801.33 
  824.318,801.689 834.18,802.066 844.043,802.462 853.906,802.879 863.769,803.316 873.632,803.776 883.494,804.26 893.357,804.769 903.22,805.305 913.083,805.87 
  922.946,806.465 932.808,807.092 942.671,807.755 952.534,808.454 962.397,809.193 972.26,809.975 982.122,810.803 991.985,811.68 1001.85,812.611 1011.71,813.6 
  1021.57,814.653 1031.44,815.775 1041.3,816.972 1051.16,818.253 1061.02,819.626 1070.89,821.1 1080.75,822.688 1090.61,824.403 1100.48,826.261 1110.34,828.279 
  1120.2,830.482 1130.06,832.895 1139.93,835.55 1149.79,838.487 1159.65,841.754 1169.52,845.411 1179.38,849.534 1189.24,854.218 1199.1,859.587 1208.97,865.8 
  1218.83,873.067 1228.69,881.67 1238.56,891.985 1248.42,904.52 1258.28,919.96 1268.14,939.195 1278.01,963.302 1287.87,993.347 1297.73,1029.81 1307.59,1071.62 
  1317.46,1115.59 1327.32,1157.4 1337.18,1193.86 1347.05,1223.91 1356.91,1248.02 1366.77,1267.25 1376.63,1282.69 1386.5,1295.23 1396.36,1305.54 1406.22,1314.14 
  1416.09,1321.41 1425.95,1327.62 1435.81,1332.99 1445.67,1337.68 1455.54,1341.8 1465.4,1345.46 1475.26,1348.72 1485.13,1351.66 1494.99,1354.32 1504.85,1356.73 
  1514.71,1358.93 1524.58,1360.95 1534.44,1362.81 1544.3,1364.52 1554.16,1366.11 1564.03,1367.59 1573.89,1368.96 1583.75,1370.24 1593.62,1371.44 1603.48,1372.56 
  1613.34,1373.61 1623.2,1374.6 1633.07,1375.53 1642.93,1376.41 1652.79,1377.24 1662.66,1378.02 1672.52,1378.76 1682.38,1379.46 1692.24,1380.12 1702.11,1380.75 
  1711.97,1381.34 1721.83,1381.91 1731.7,1382.44 1741.56,1382.95 1751.42,1383.44 1761.28,1383.9 1771.15,1384.33 1781.01,1384.75 1790.87,1385.14 1800.73,1385.52 
  1810.6,1385.88 1820.46,1386.22 1830.32,1386.55 1840.19,1386.86 1850.05,1387.15 1859.91,1387.44 1869.77,1387.71 1879.64,1387.96 1889.5,1388.21 1899.36,1388.44 
  1909.23,1388.66 1919.09,1388.87 1928.95,1389.08 1938.81,1389.27 1948.68,1389.45 1958.54,1389.63 1968.4,1389.8 1978.27,1389.96 1988.13,1390.11 1997.99,1390.25 
  2007.85,1390.39 2017.72,1390.53 2027.58,1390.65 2037.44,1390.77 2047.3,1390.89 2057.17,1391 2067.03,1391.1 2076.89,1391.2 2086.76,1391.3 2096.62,1391.39 
  2106.48,1391.48 2116.34,1391.56 2126.21,1391.64 2136.07,1391.72 2145.93,1391.79 2155.8,1391.86 2165.66,1391.92 2175.52,1391.99 2185.38,1392.05 2195.25,1392.11 
  2205.11,1392.16 2214.97,1392.21 2224.84,1392.26 2234.7,1392.31 2244.56,1392.36 2254.42,1392.4 2264.29,1392.44 2274.15,1392.48 2284.01,1392.52 2293.87,1392.56 
  
  "/>
<polyline clip-path="url(#clip004)" style="stroke:#3da44d; stroke-width:8; stroke-opacity:1; fill:none" points="
  331.177,795.038 341.04,795.092 350.903,795.149 360.766,795.208 370.629,795.271 380.491,795.336 390.354,795.404 400.217,795.476 410.08,795.551 419.943,795.629 
  429.805,795.712 439.668,795.798 449.531,795.888 459.394,795.983 469.257,796.082 479.119,796.186 488.982,796.294 498.845,796.408 508.708,796.527 518.571,796.652 
  528.433,796.783 538.296,796.92 548.159,797.064 558.022,797.214 567.885,797.372 577.748,797.537 587.61,797.71 597.473,797.891 607.336,798.081 617.199,798.28 
  627.062,798.489 636.924,798.707 646.787,798.936 656.65,799.175 666.513,799.427 676.376,799.69 686.238,799.966 696.101,800.255 705.964,800.558 715.827,800.876 
  725.69,801.209 735.552,801.559 745.415,801.925 755.278,802.309 765.141,802.711 775.004,803.134 784.866,803.577 794.729,804.042 804.592,804.53 814.455,805.042 
  824.318,805.579 834.18,806.144 844.043,806.736 853.906,807.359 863.769,808.013 873.632,808.701 883.494,809.424 893.357,810.185 903.22,810.986 913.083,811.829 
  922.946,812.717 932.808,813.653 942.671,814.64 952.534,815.682 962.397,816.782 972.26,817.945 982.122,819.175 991.985,820.478 1001.85,821.858 1011.71,823.324 
  1021.57,824.881 1031.44,826.538 1041.3,828.304 1051.16,830.189 1061.02,832.205 1070.89,834.365 1080.75,836.685 1090.61,839.182 1100.48,841.878 1110.34,844.796 
  1120.2,847.964 1130.06,851.416 1139.93,855.191 1149.79,859.336 1159.65,863.908 1169.52,868.974 1179.38,874.616 1189.24,880.935 1199.1,888.052 1208.97,896.116 
  1218.83,905.309 1228.69,915.848 1238.56,927.994 1248.42,942.048 1258.28,958.334 1268.14,977.17 1278.01,998.788 1287.87,1023.23 1297.73,1050.18 1307.59,1078.92 
  1317.46,1108.3 1327.32,1137.03 1337.18,1163.99 1347.05,1188.42 1356.91,1210.04 1366.77,1228.88 1376.63,1245.16 1386.5,1259.22 1396.36,1271.36 1406.22,1281.9 
  1416.09,1291.09 1425.95,1299.16 1435.81,1306.28 1445.67,1312.59 1455.54,1318.24 1465.4,1323.3 1475.26,1327.88 1485.13,1332.02 1494.99,1335.8 1504.85,1339.25 
  1514.71,1342.42 1524.58,1345.33 1534.44,1348.03 1544.3,1350.53 1554.16,1352.85 1564.03,1355.01 1573.89,1357.02 1583.75,1358.91 1593.62,1360.67 1603.48,1362.33 
  1613.34,1363.89 1623.2,1365.35 1633.07,1366.73 1642.93,1368.04 1652.79,1369.27 1662.66,1370.43 1672.52,1371.53 1682.38,1372.57 1692.24,1373.56 1702.11,1374.49 
  1711.97,1375.38 1721.83,1376.23 1731.7,1377.03 1741.56,1377.79 1751.42,1378.51 1761.28,1379.2 1771.15,1379.85 1781.01,1380.47 1790.87,1381.07 1800.73,1381.63 
  1810.6,1382.17 1820.46,1382.68 1830.32,1383.17 1840.19,1383.63 1850.05,1384.08 1859.91,1384.5 1869.77,1384.9 1879.64,1385.29 1889.5,1385.65 1899.36,1386 
  1909.23,1386.33 1919.09,1386.65 1928.95,1386.96 1938.81,1387.25 1948.68,1387.52 1958.54,1387.78 1968.4,1388.04 1978.27,1388.28 1988.13,1388.5 1997.99,1388.72 
  2007.85,1388.93 2017.72,1389.13 2027.58,1389.32 2037.44,1389.5 2047.3,1389.67 2057.17,1389.84 2067.03,1390 2076.89,1390.15 2086.76,1390.29 2096.62,1390.43 
  2106.48,1390.56 2116.34,1390.68 2126.21,1390.8 2136.07,1390.92 2145.93,1391.03 2155.8,1391.13 2165.66,1391.23 2175.52,1391.32 2185.38,1391.41 2195.25,1391.5 
  2205.11,1391.58 2214.97,1391.66 2224.84,1391.74 2234.7,1391.81 2244.56,1391.88 2254.42,1391.94 2264.29,1392 2274.15,1392.06 2284.01,1392.12 2293.87,1392.17 
  
  "/>
<polyline clip-path="url(#clip004)" style="stroke:#c271d2; stroke-width:8; stroke-opacity:1; fill:none" points="
  331.177,795.801 341.04,795.891 350.903,795.986 360.766,796.085 370.629,796.189 380.491,796.298 390.354,796.412 400.217,796.531 410.08,796.656 419.943,796.787 
  429.805,796.924 439.668,797.068 449.531,797.218 459.394,797.376 469.257,797.541 479.119,797.714 488.982,797.895 498.845,798.085 508.708,798.284 518.571,798.492 
  528.433,798.71 538.296,798.938 548.159,799.177 558.022,799.428 567.885,799.691 577.748,799.966 587.61,800.254 597.473,800.555 607.336,800.872 617.199,801.203 
  627.062,801.55 636.924,801.913 646.787,802.294 656.65,802.693 666.513,803.112 676.376,803.55 686.238,804.009 696.101,804.49 705.964,804.994 715.827,805.523 
  725.69,806.076 735.552,806.657 745.415,807.265 755.278,807.903 765.141,808.572 775.004,809.273 784.866,810.009 794.729,810.78 804.592,811.589 814.455,812.437 
  824.318,813.327 834.18,814.261 844.043,815.242 853.906,816.271 863.769,817.351 873.632,818.486 883.494,819.678 893.357,820.931 903.22,822.247 913.083,823.632 
  922.946,825.088 932.808,826.62 942.671,828.233 952.534,829.932 962.397,831.722 972.26,833.61 982.122,835.601 991.985,837.703 1001.85,839.925 1011.71,842.273 
  1021.57,844.759 1031.44,847.391 1041.3,850.183 1051.16,853.145 1061.02,856.294 1070.89,859.644 1080.75,863.213 1090.61,867.021 1100.48,871.09 1110.34,875.445 
  1120.2,880.113 1130.06,885.125 1139.93,890.517 1149.79,896.328 1159.65,902.6 1169.52,909.382 1179.38,916.728 1189.24,924.694 1199.1,933.343 1208.97,942.738 
  1218.83,952.943 1228.69,964.02 1238.56,976.022 1248.42,988.984 1258.28,1002.92 1268.14,1017.81 1278.01,1033.58 1287.87,1050.12 1297.73,1067.26 1307.59,1084.78 
  1317.46,1102.43 1327.32,1119.95 1337.18,1137.09 1347.05,1153.63 1356.91,1169.4 1366.77,1184.29 1376.63,1198.23 1386.5,1211.19 1396.36,1223.19 1406.22,1234.27 
  1416.09,1244.47 1425.95,1253.87 1435.81,1262.52 1445.67,1270.48 1455.54,1277.83 1465.4,1284.61 1475.26,1290.88 1485.13,1296.69 1494.99,1302.09 1504.85,1307.1 
  1514.71,1311.77 1524.58,1316.12 1534.44,1320.19 1544.3,1324 1554.16,1327.57 1564.03,1330.92 1573.89,1334.07 1583.75,1337.03 1593.62,1339.82 1603.48,1342.45 
  1613.34,1344.94 1623.2,1347.29 1633.07,1349.51 1642.93,1351.61 1652.79,1353.6 1662.66,1355.49 1672.52,1357.28 1682.38,1358.98 1692.24,1360.59 1702.11,1362.12 
  1711.97,1363.58 1721.83,1364.96 1731.7,1366.28 1741.56,1367.53 1751.42,1368.73 1761.28,1369.86 1771.15,1370.94 1781.01,1371.97 1790.87,1372.95 1800.73,1373.88 
  1810.6,1374.77 1820.46,1375.62 1830.32,1376.43 1840.19,1377.2 1850.05,1377.94 1859.91,1378.64 1869.77,1379.31 1879.64,1379.95 1889.5,1380.55 1899.36,1381.13 
  1909.23,1381.69 1919.09,1382.22 1928.95,1382.72 1938.81,1383.2 1948.68,1383.66 1958.54,1384.1 1968.4,1384.52 1978.27,1384.92 1988.13,1385.3 1997.99,1385.66 
  2007.85,1386.01 2017.72,1386.34 2027.58,1386.66 2037.44,1386.96 2047.3,1387.25 2057.17,1387.52 2067.03,1387.78 2076.89,1388.03 2086.76,1388.27 2096.62,1388.5 
  2106.48,1388.72 2116.34,1388.93 2126.21,1389.13 2136.07,1389.32 2145.93,1389.5 2155.8,1389.67 2165.66,1389.84 2175.52,1389.99 2185.38,1390.14 2195.25,1390.29 
  2205.11,1390.42 2214.97,1390.55 2224.84,1390.68 2234.7,1390.8 2244.56,1390.91 2254.42,1391.02 2264.29,1391.13 2274.15,1391.23 2284.01,1391.32 2293.87,1391.41 
  
  "/>
<polyline clip-path="url(#clip004)" style="stroke:#ac8d18; stroke-width:8; stroke-opacity:1; fill:none" points="
  331.177,796.946 341.04,797.09 350.903,797.242 360.766,797.4 370.629,797.567 380.491,797.741 390.354,797.923 400.217,798.114 410.08,798.314 419.943,798.523 
  429.805,798.743 439.668,798.972 449.531,799.213 459.394,799.465 469.257,799.729 479.119,800.005 488.982,800.295 498.845,800.598 508.708,800.916 518.571,801.249 
  528.433,801.597 538.296,801.962 548.159,802.345 558.022,802.745 567.885,803.165 577.748,803.604 587.61,804.064 597.473,804.546 607.336,805.051 617.199,805.58 
  627.062,806.134 636.924,806.714 646.787,807.322 656.65,807.958 666.513,808.625 676.376,809.323 686.238,810.055 696.101,810.821 705.964,811.624 715.827,812.465 
  725.69,813.345 735.552,814.268 745.415,815.235 755.278,816.247 765.141,817.308 775.004,818.419 784.866,819.583 794.729,820.803 804.592,822.081 814.455,823.419 
  824.318,824.822 834.18,826.292 844.043,827.832 853.906,829.445 863.769,831.136 873.632,832.908 883.494,834.765 893.357,836.712 903.22,838.752 913.083,840.89 
  922.946,843.131 932.808,845.481 942.671,847.944 952.534,850.527 962.397,853.235 972.26,856.075 982.122,859.052 991.985,862.176 1001.85,865.452 1011.71,868.888 
  1021.57,872.493 1031.44,876.274 1041.3,880.242 1051.16,884.405 1061.02,888.773 1070.89,893.357 1080.75,898.166 1090.61,903.212 1100.48,908.506 1110.34,914.058 
  1120.2,919.882 1130.06,925.987 1139.93,932.384 1149.79,939.086 1159.65,946.1 1169.52,953.436 1179.38,961.102 1189.24,969.102 1199.1,977.439 1208.97,986.112 
  1218.83,995.118 1228.69,1004.45 1238.56,1014.09 1248.42,1024.02 1258.28,1034.23 1268.14,1044.67 1278.01,1055.32 1287.87,1066.14 1297.73,1077.08 1307.59,1088.09 
  1317.46,1099.12 1327.32,1110.14 1337.18,1121.07 1347.05,1131.89 1356.91,1142.54 1366.77,1152.98 1376.63,1163.19 1386.5,1173.12 1396.36,1182.76 1406.22,1192.09 
  1416.09,1201.1 1425.95,1209.77 1435.81,1218.11 1445.67,1226.11 1455.54,1233.77 1465.4,1241.11 1475.26,1248.13 1485.13,1254.83 1494.99,1261.22 1504.85,1267.33 
  1514.71,1273.15 1524.58,1278.71 1534.44,1284 1544.3,1289.04 1554.16,1293.85 1564.03,1298.44 1573.89,1302.81 1583.75,1306.97 1593.62,1310.94 1603.48,1314.72 
  1613.34,1318.32 1623.2,1321.76 1633.07,1325.04 1642.93,1328.16 1652.79,1331.14 1662.66,1333.98 1672.52,1336.68 1682.38,1339.27 1692.24,1341.73 1702.11,1344.08 
  1711.97,1346.32 1721.83,1348.46 1731.7,1350.5 1741.56,1352.45 1751.42,1354.3 1761.28,1356.07 1771.15,1357.77 1781.01,1359.38 1790.87,1360.92 1800.73,1362.39 
  1810.6,1363.79 1820.46,1365.13 1830.32,1366.41 1840.19,1367.63 1850.05,1368.79 1859.91,1369.9 1869.77,1370.96 1879.64,1371.98 1889.5,1372.94 1899.36,1373.87 
  1909.23,1374.75 1919.09,1375.59 1928.95,1376.39 1938.81,1377.16 1948.68,1377.89 1958.54,1378.59 1968.4,1379.25 1978.27,1379.89 1988.13,1380.5 1997.99,1381.08 
  2007.85,1381.63 2017.72,1382.16 2027.58,1382.66 2037.44,1383.15 2047.3,1383.61 2057.17,1384.05 2067.03,1384.47 2076.89,1384.87 2086.76,1385.25 2096.62,1385.61 
  2106.48,1385.96 2116.34,1386.3 2126.21,1386.61 2136.07,1386.92 2145.93,1387.21 2155.8,1387.48 2165.66,1387.75 2175.52,1388 2185.38,1388.24 2195.25,1388.47 
  2205.11,1388.69 2214.97,1388.9 2224.84,1389.1 2234.7,1389.29 2244.56,1389.47 2254.42,1389.64 2264.29,1389.81 2274.15,1389.97 2284.01,1390.12 2293.87,1390.27 
  
  "/>
<polyline clip-path="url(#clip004)" style="stroke:#00a9ad; stroke-width:8; stroke-opacity:1; fill:none" points="
  331.177,797.709 341.04,797.889 350.903,798.079 360.766,798.277 370.629,798.485 380.491,798.702 390.354,798.93 400.217,799.169 410.08,799.418 419.943,799.68 
  429.805,799.954 439.668,800.241 449.531,800.542 459.394,800.857 469.257,801.187 479.119,801.532 488.982,801.894 498.845,802.273 508.708,802.67 518.571,803.085 
  528.433,803.521 538.296,803.977 548.159,804.454 558.022,804.954 567.885,805.478 577.748,806.026 587.61,806.6 597.473,807.202 607.336,807.832 617.199,808.492 
  627.062,809.182 636.924,809.906 646.787,810.663 656.65,811.457 666.513,812.288 676.376,813.157 686.238,814.068 696.101,815.022 705.964,816.021 715.827,817.067 
  725.69,818.162 735.552,819.308 745.415,820.508 755.278,821.764 765.141,823.08 775.004,824.457 784.866,825.898 794.729,827.406 804.592,828.985 814.455,830.637 
  824.318,832.367 834.18,834.176 844.043,836.069 853.906,838.05 863.769,840.121 873.632,842.288 883.494,844.555 893.357,846.924 903.22,849.402 913.083,851.992 
  922.946,854.699 932.808,857.527 942.671,860.482 952.534,863.569 962.397,866.791 972.26,870.155 982.122,873.666 991.985,877.328 1001.85,881.147 1011.71,885.128 
  1021.57,889.276 1031.44,893.596 1041.3,898.092 1051.16,902.77 1061.02,907.634 1070.89,912.688 1080.75,917.935 1090.61,923.379 1100.48,929.023 1110.34,934.868 
  1120.2,940.917 1130.06,947.171 1139.93,953.628 1149.79,960.289 1159.65,967.15 1169.52,974.21 1179.38,981.464 1189.24,988.906 1199.1,996.531 1208.97,1004.33 
  1218.83,1012.29 1228.69,1020.41 1238.56,1028.66 1248.42,1037.05 1258.28,1045.55 1268.14,1054.15 1278.01,1062.83 1287.87,1071.58 1297.73,1080.37 1307.59,1089.19 
  1317.46,1098.02 1327.32,1106.84 1337.18,1115.63 1347.05,1124.38 1356.91,1133.06 1366.77,1141.66 1376.63,1150.16 1386.5,1158.55 1396.36,1166.8 1406.22,1174.92 
  1416.09,1182.88 1425.95,1190.68 1435.81,1198.3 1445.67,1205.75 1455.54,1213 1465.4,1220.06 1475.26,1226.92 1485.13,1233.58 1494.99,1240.04 1504.85,1246.29 
  1514.71,1252.34 1524.58,1258.19 1534.44,1263.83 1544.3,1269.28 1554.16,1274.52 1564.03,1279.58 1573.89,1284.44 1583.75,1289.12 1593.62,1293.62 1603.48,1297.94 
  1613.34,1302.08 1623.2,1306.06 1633.07,1309.88 1642.93,1313.55 1652.79,1317.06 1662.66,1320.42 1672.52,1323.64 1682.38,1326.73 1692.24,1329.68 1702.11,1332.51 
  1711.97,1335.22 1721.83,1337.81 1731.7,1340.29 1741.56,1342.66 1751.42,1344.92 1761.28,1347.09 1771.15,1349.16 1781.01,1351.14 1790.87,1353.04 1800.73,1354.84 
  1810.6,1356.57 1820.46,1358.23 1830.32,1359.8 1840.19,1361.31 1850.05,1362.75 1859.91,1364.13 1869.77,1365.45 1879.64,1366.7 1889.5,1367.9 1899.36,1369.05 
  1909.23,1370.14 1919.09,1371.19 1928.95,1372.19 1938.81,1373.14 1948.68,1374.05 1958.54,1374.92 1968.4,1375.75 1978.27,1376.55 1988.13,1377.31 1997.99,1378.03 
  2007.85,1378.72 2017.72,1379.38 2027.58,1380.01 2037.44,1380.61 2047.3,1381.19 2057.17,1381.73 2067.03,1382.26 2076.89,1382.76 2086.76,1383.23 2096.62,1383.69 
  2106.48,1384.13 2116.34,1384.54 2126.21,1384.94 2136.07,1385.32 2145.93,1385.68 2155.8,1386.02 2165.66,1386.35 2175.52,1386.67 2185.38,1386.97 2195.25,1387.26 
  2205.11,1387.53 2214.97,1387.79 2224.84,1388.04 2234.7,1388.28 2244.56,1388.51 2254.42,1388.73 2264.29,1388.93 2274.15,1389.13 2284.01,1389.32 2293.87,1389.5 
  
  "/>
<polyline clip-path="url(#clip004)" style="stroke:#ed5d92; stroke-width:8; stroke-opacity:1; fill:none" points="
  331.177,801.522 341.04,801.883 350.903,802.261 360.766,802.657 370.629,803.071 380.491,803.505 390.354,803.96 400.217,804.436 410.08,804.935 419.943,805.457 
  429.805,806.004 439.668,806.576 449.531,807.175 459.394,807.803 469.257,808.46 479.119,809.147 488.982,809.867 498.845,810.621 508.708,811.41 518.571,812.236 
  528.433,813.1 538.296,814.004 548.159,814.951 558.022,815.941 567.885,816.978 577.748,818.062 587.61,819.196 597.473,820.383 607.336,821.624 617.199,822.921 
  627.062,824.278 636.924,825.696 646.787,827.179 656.65,828.728 666.513,830.347 676.376,832.037 686.238,833.803 696.101,835.646 705.964,837.569 715.827,839.576 
  725.69,841.67 735.552,843.852 745.415,846.126 755.278,848.495 765.141,850.961 775.004,853.528 784.866,856.197 794.729,858.971 804.592,861.852 814.455,864.843 
  824.318,867.944 834.18,871.158 844.043,874.485 853.906,877.927 863.769,881.483 873.632,885.153 883.494,888.938 893.357,892.835 903.22,896.844 913.083,900.961 
  922.946,905.184 932.808,909.509 942.671,913.933 952.534,918.45 962.397,923.055 972.26,927.742 982.122,932.504 991.985,937.336 1001.85,942.228 1011.71,947.174 
  1021.57,952.166 1031.44,957.195 1041.3,962.253 1051.16,967.332 1061.02,972.425 1070.89,977.523 1080.75,982.619 1090.61,987.706 1100.48,992.778 1110.34,997.829 
  1120.2,1002.85 1130.06,1007.85 1139.93,1012.81 1149.79,1017.73 1159.65,1022.61 1169.52,1027.45 1179.38,1032.25 1189.24,1037 1199.1,1041.71 1208.97,1046.38 
  1218.83,1051.02 1228.69,1055.61 1238.56,1060.17 1248.42,1064.69 1258.28,1069.19 1268.14,1073.66 1278.01,1078.12 1287.87,1082.55 1297.73,1086.98 1307.59,1091.4 
  1317.46,1095.81 1327.32,1100.23 1337.18,1104.66 1347.05,1109.09 1356.91,1113.55 1366.77,1118.02 1376.63,1122.52 1386.5,1127.04 1396.36,1131.6 1406.22,1136.2 
  1416.09,1140.83 1425.95,1145.5 1435.81,1150.21 1445.67,1154.96 1455.54,1159.76 1465.4,1164.6 1475.26,1169.48 1485.13,1174.4 1494.99,1179.36 1504.85,1184.36 
  1514.71,1189.38 1524.58,1194.43 1534.44,1199.5 1544.3,1204.59 1554.16,1209.69 1564.03,1214.79 1573.89,1219.88 1583.75,1224.96 1593.62,1230.02 1603.48,1235.05 
  1613.34,1240.04 1623.2,1244.98 1633.07,1249.88 1642.93,1254.71 1652.79,1259.47 1662.66,1264.16 1672.52,1268.76 1682.38,1273.28 1692.24,1277.7 1702.11,1282.03 
  1711.97,1286.25 1721.83,1290.37 1731.7,1294.38 1741.56,1298.27 1751.42,1302.06 1761.28,1305.73 1771.15,1309.28 1781.01,1312.73 1790.87,1316.05 1800.73,1319.27 
  1810.6,1322.37 1820.46,1325.36 1830.32,1328.24 1840.19,1331.01 1850.05,1333.68 1859.91,1336.25 1869.77,1338.72 1879.64,1341.08 1889.5,1343.36 1899.36,1345.54 
  1909.23,1347.63 1919.09,1349.64 1928.95,1351.57 1938.81,1353.41 1948.68,1355.17 1958.54,1356.86 1968.4,1358.48 1978.27,1360.03 1988.13,1361.51 1997.99,1362.93 
  2007.85,1364.29 2017.72,1365.59 2027.58,1366.83 2037.44,1368.01 2047.3,1369.15 2057.17,1370.23 2067.03,1371.27 2076.89,1372.26 2086.76,1373.21 2096.62,1374.11 
  2106.48,1374.98 2116.34,1375.8 2126.21,1376.59 2136.07,1377.34 2145.93,1378.06 2155.8,1378.75 2165.66,1379.41 2175.52,1380.04 2185.38,1380.64 2195.25,1381.21 
  2205.11,1381.75 2214.97,1382.28 2224.84,1382.77 2234.7,1383.25 2244.56,1383.71 2254.42,1384.14 2264.29,1384.55 2274.15,1384.95 2284.01,1385.33 2293.87,1385.69 
  
  "/>
</svg>
