<?xml version="1.0" encoding="utf-8"?>
<svg xmlns="http://www.w3.org/2000/svg" xmlns:xlink="http://www.w3.org/1999/xlink" width="600" height="400" viewBox="0 0 2400 1600">
<defs>
  <clipPath id="clip120">
    <rect x="0" y="0" width="2400" height="1600"/>
  </clipPath>
</defs>
<path clip-path="url(#clip120)" d="
M0 1600 L2400 1600 L2400 0 L0 0  Z
  " fill="#ffffff" fill-rule="evenodd" fill-opacity="1"/>
<defs>
  <clipPath id="clip121">
    <rect x="480" y="0" width="1681" height="1600"/>
  </clipPath>
</defs>
<defs>
  <clipPath id="clip122">
    <rect x="243" y="807" width="2111" height="619"/>
  </clipPath>
</defs>
<path clip-path="url(#clip120)" d="
M243.003 681.826 L2352.76 681.826 L2352.76 47.2441 L243.003 47.2441  Z
  " fill="#ffffff" fill-rule="evenodd" fill-opacity="1"/>
<defs>
  <clipPath id="clip123">
    <rect x="243" y="47" width="2111" height="636"/>
  </clipPath>
</defs>
<polyline clip-path="url(#clip120)" style="stroke:#000000; stroke-width:4; stroke-opacity:1; fill:none" points="
  243.003,681.826 2352.76,681.826 
  "/>
<polyline clip-path="url(#clip123)" style="stroke:#000000; stroke-width:2; stroke-opacity:0.1; fill:none" points="
  243.003,663.873 2352.76,663.873 
  "/>
<polyline clip-path="url(#clip123)" style="stroke:#000000; stroke-width:2; stroke-opacity:0.1; fill:none" points="
  243.003,514.207 2352.76,514.207 
  "/>
<polyline clip-path="url(#clip123)" style="stroke:#000000; stroke-width:2; stroke-opacity:0.1; fill:none" points="
  243.003,364.542 2352.76,364.542 
  "/>
<polyline clip-path="url(#clip123)" style="stroke:#000000; stroke-width:2; stroke-opacity:0.1; fill:none" points="
  243.003,214.876 2352.76,214.876 
  "/>
<polyline clip-path="url(#clip123)" style="stroke:#000000; stroke-width:2; stroke-opacity:0.1; fill:none" points="
  243.003,65.2105 2352.76,65.2105 
  "/>
<polyline clip-path="url(#clip120)" style="stroke:#000000; stroke-width:4; stroke-opacity:1; fill:none" points="
  243.003,681.826 243.003,47.2441 
  "/>
<polyline clip-path="url(#clip120)" style="stroke:#000000; stroke-width:4; stroke-opacity:1; fill:none" points="
  243.003,663.873 268.32,663.873 
  "/>
<polyline clip-path="url(#clip120)" style="stroke:#000000; stroke-width:4; stroke-opacity:1; fill:none" points="
  243.003,514.207 268.32,514.207 
  "/>
<polyline clip-path="url(#clip120)" style="stroke:#000000; stroke-width:4; stroke-opacity:1; fill:none" points="
  243.003,364.542 268.32,364.542 
  "/>
<polyline clip-path="url(#clip120)" style="stroke:#000000; stroke-width:4; stroke-opacity:1; fill:none" points="
  243.003,214.876 268.32,214.876 
  "/>
<polyline clip-path="url(#clip120)" style="stroke:#000000; stroke-width:4; stroke-opacity:1; fill:none" points="
  243.003,65.2105 268.32,65.2105 
  "/>
<polyline clip-path="url(#clip120)" style="stroke:#000000; stroke-width:4; stroke-opacity:1; fill:none" points="
  243.003,617.153 255.661,617.153 
  "/>
<polyline clip-path="url(#clip120)" style="stroke:#000000; stroke-width:4; stroke-opacity:1; fill:none" points="
  243.003,582.856 255.661,582.856 
  "/>
<polyline clip-path="url(#clip120)" style="stroke:#000000; stroke-width:4; stroke-opacity:1; fill:none" points="
  243.003,555.745 255.661,555.745 
  "/>
<polyline clip-path="url(#clip120)" style="stroke:#000000; stroke-width:4; stroke-opacity:1; fill:none" points="
  243.003,533.324 255.661,533.324 
  "/>
<polyline clip-path="url(#clip120)" style="stroke:#000000; stroke-width:4; stroke-opacity:1; fill:none" points="
  243.003,467.487 255.661,467.487 
  "/>
<polyline clip-path="url(#clip120)" style="stroke:#000000; stroke-width:4; stroke-opacity:1; fill:none" points="
  243.003,433.191 255.661,433.191 
  "/>
<polyline clip-path="url(#clip120)" style="stroke:#000000; stroke-width:4; stroke-opacity:1; fill:none" points="
  243.003,406.08 255.661,406.08 
  "/>
<polyline clip-path="url(#clip120)" style="stroke:#000000; stroke-width:4; stroke-opacity:1; fill:none" points="
  243.003,383.659 255.661,383.659 
  "/>
<polyline clip-path="url(#clip120)" style="stroke:#000000; stroke-width:4; stroke-opacity:1; fill:none" points="
  243.003,317.822 255.661,317.822 
  "/>
<polyline clip-path="url(#clip120)" style="stroke:#000000; stroke-width:4; stroke-opacity:1; fill:none" points="
  243.003,283.525 255.661,283.525 
  "/>
<polyline clip-path="url(#clip120)" style="stroke:#000000; stroke-width:4; stroke-opacity:1; fill:none" points="
  243.003,256.414 255.661,256.414 
  "/>
<polyline clip-path="url(#clip120)" style="stroke:#000000; stroke-width:4; stroke-opacity:1; fill:none" points="
  243.003,233.993 255.661,233.993 
  "/>
<polyline clip-path="url(#clip120)" style="stroke:#000000; stroke-width:4; stroke-opacity:1; fill:none" points="
  243.003,168.156 255.661,168.156 
  "/>
<polyline clip-path="url(#clip120)" style="stroke:#000000; stroke-width:4; stroke-opacity:1; fill:none" points="
  243.003,133.86 255.661,133.86 
  "/>
<polyline clip-path="url(#clip120)" style="stroke:#000000; stroke-width:4; stroke-opacity:1; fill:none" points="
  243.003,106.749 255.661,106.749 
  "/>
<polyline clip-path="url(#clip120)" style="stroke:#000000; stroke-width:4; stroke-opacity:1; fill:none" points="
  243.003,84.3274 255.661,84.3274 
  "/>
<path clip-path="url(#clip120)" d="M 0 0 M99.5469 683.665 L107.186 683.665 L107.186 657.3 L98.8756 658.966 L98.8756 654.707 L107.139 653.041 L111.815 653.041 L111.815 683.665 L119.454 683.665 L119.454 687.601 L99.5469 687.601 L99.5469 683.665 Z" fill="#000000" fill-rule="evenodd" fill-opacity="1" /><path clip-path="url(#clip120)" d="M 0 0 M138.899 656.119 Q135.287 656.119 133.459 659.684 Q131.653 663.226 131.653 670.355 Q131.653 677.462 133.459 681.026 Q135.287 684.568 138.899 684.568 Q142.533 684.568 144.338 681.026 Q146.167 677.462 146.167 670.355 Q146.167 663.226 144.338 659.684 Q142.533 656.119 138.899 656.119 M138.899 652.416 Q144.709 652.416 147.764 657.022 Q150.843 661.605 150.843 670.355 Q150.843 679.082 147.764 683.688 Q144.709 688.272 138.899 688.272 Q133.088 688.272 130.01 683.688 Q126.954 679.082 126.954 670.355 Q126.954 661.605 130.01 657.022 Q133.088 652.416 138.899 652.416 Z" fill="#000000" fill-rule="evenodd" fill-opacity="1" /><path clip-path="url(#clip120)" d="M 0 0 M160.548 634.612 Q157.614 634.612 156.128 637.508 Q154.661 640.386 154.661 646.178 Q154.661 651.952 156.128 654.849 Q157.614 657.726 160.548 657.726 Q163.501 657.726 164.968 654.849 Q166.453 651.952 166.453 646.178 Q166.453 640.386 164.968 637.508 Q163.501 634.612 160.548 634.612 M160.548 631.602 Q165.268 631.602 167.751 635.345 Q170.253 639.069 170.253 646.178 Q170.253 653.269 167.751 657.012 Q165.268 660.736 160.548 660.736 Q155.827 660.736 153.326 657.012 Q150.843 653.269 150.843 646.178 Q150.843 639.069 153.326 635.345 Q155.827 631.602 160.548 631.602 Z" fill="#000000" fill-rule="evenodd" fill-opacity="1" /><path clip-path="url(#clip120)" d="M 0 0 M176.929 655.413 L180.898 655.413 L180.898 660.19 L176.929 660.19 L176.929 655.413 Z" fill="#000000" fill-rule="evenodd" fill-opacity="1" /><path clip-path="url(#clip120)" d="M 0 0 M197.298 634.612 Q194.364 634.612 192.878 637.508 Q191.411 640.386 191.411 646.178 Q191.411 651.952 192.878 654.849 Q194.364 657.726 197.298 657.726 Q200.251 657.726 201.718 654.849 Q203.204 651.952 203.204 646.178 Q203.204 640.386 201.718 637.508 Q200.251 634.612 197.298 634.612 M197.298 631.602 Q202.019 631.602 204.501 635.345 Q207.003 639.069 207.003 646.178 Q207.003 653.269 204.501 657.012 Q202.019 660.736 197.298 660.736 Q192.577 660.736 190.076 657.012 Q187.593 653.269 187.593 646.178 Q187.593 639.069 190.076 635.345 Q192.577 631.602 197.298 631.602 Z" fill="#000000" fill-rule="evenodd" fill-opacity="1" /><path clip-path="url(#clip120)" d="M 0 0 M100.356 534 L107.994 534 L107.994 507.634 L99.6843 509.301 L99.6843 505.042 L107.948 503.375 L112.624 503.375 L112.624 534 L120.263 534 L120.263 537.935 L100.356 537.935 L100.356 534 Z" fill="#000000" fill-rule="evenodd" fill-opacity="1" /><path clip-path="url(#clip120)" d="M 0 0 M139.707 506.454 Q136.096 506.454 134.267 510.018 Q132.462 513.56 132.462 520.69 Q132.462 527.796 134.267 531.361 Q136.096 534.903 139.707 534.903 Q143.341 534.903 145.147 531.361 Q146.976 527.796 146.976 520.69 Q146.976 513.56 145.147 510.018 Q143.341 506.454 139.707 506.454 M139.707 502.75 Q145.517 502.75 148.573 507.356 Q151.652 511.94 151.652 520.69 Q151.652 529.416 148.573 534.023 Q145.517 538.606 139.707 538.606 Q133.897 538.606 130.818 534.023 Q127.763 529.416 127.763 520.69 Q127.763 511.94 130.818 507.356 Q133.897 502.75 139.707 502.75 Z" fill="#000000" fill-rule="evenodd" fill-opacity="1" /><path clip-path="url(#clip120)" d="M 0 0 M161.356 484.946 Q158.422 484.946 156.937 487.842 Q155.47 490.72 155.47 496.513 Q155.47 502.287 156.937 505.183 Q158.422 508.061 161.356 508.061 Q164.309 508.061 165.776 505.183 Q167.262 502.287 167.262 496.513 Q167.262 490.72 165.776 487.842 Q164.309 484.946 161.356 484.946 M161.356 481.937 Q166.077 481.937 168.56 485.679 Q171.061 489.403 171.061 496.513 Q171.061 503.603 168.56 507.346 Q166.077 511.07 161.356 511.07 Q156.636 511.07 154.134 507.346 Q151.652 503.603 151.652 496.513 Q151.652 489.403 154.134 485.679 Q156.636 481.937 161.356 481.937 Z" fill="#000000" fill-rule="evenodd" fill-opacity="1" /><path clip-path="url(#clip120)" d="M 0 0 M177.738 505.747 L181.706 505.747 L181.706 510.524 L177.738 510.524 L177.738 505.747 Z" fill="#000000" fill-rule="evenodd" fill-opacity="1" /><path clip-path="url(#clip120)" d="M 0 0 M190.019 482.444 L204.934 482.444 L204.934 485.642 L193.499 485.642 L193.499 492.525 Q194.326 492.243 195.154 492.112 Q195.982 491.961 196.809 491.961 Q201.511 491.961 204.257 494.538 Q207.003 497.115 207.003 501.516 Q207.003 506.048 204.182 508.568 Q201.361 511.07 196.226 511.07 Q194.458 511.07 192.615 510.769 Q190.791 510.468 188.835 509.866 L188.835 506.048 Q190.527 506.97 192.333 507.421 Q194.138 507.873 196.151 507.873 Q199.405 507.873 201.304 506.161 Q203.204 504.45 203.204 501.516 Q203.204 498.582 201.304 496.87 Q199.405 495.159 196.151 495.159 Q194.627 495.159 193.104 495.497 Q191.599 495.836 190.019 496.55 L190.019 482.444 Z" fill="#000000" fill-rule="evenodd" fill-opacity="1" /><path clip-path="url(#clip120)" d="M 0 0 M101.24 384.334 L108.878 384.334 L108.878 357.969 L100.568 359.635 L100.568 355.376 L108.832 353.709 L113.508 353.709 L113.508 384.334 L121.147 384.334 L121.147 388.269 L101.24 388.269 L101.24 384.334 Z" fill="#000000" fill-rule="evenodd" fill-opacity="1" /><path clip-path="url(#clip120)" d="M 0 0 M140.591 356.788 Q136.98 356.788 135.151 360.353 Q133.346 363.894 133.346 371.024 Q133.346 378.13 135.151 381.695 Q136.98 385.237 140.591 385.237 Q144.225 385.237 146.031 381.695 Q147.86 378.13 147.86 371.024 Q147.86 363.894 146.031 360.353 Q144.225 356.788 140.591 356.788 M140.591 353.084 Q146.401 353.084 149.457 357.691 Q152.536 362.274 152.536 371.024 Q152.536 379.751 149.457 384.357 Q146.401 388.941 140.591 388.941 Q134.781 388.941 131.702 384.357 Q128.647 379.751 128.647 371.024 Q128.647 362.274 131.702 357.691 Q134.781 353.084 140.591 353.084 Z" fill="#000000" fill-rule="evenodd" fill-opacity="1" /><path clip-path="url(#clip120)" d="M 0 0 M153.081 357.662 L159.288 357.662 L159.288 336.24 L152.536 337.594 L152.536 334.133 L159.25 332.779 L163.049 332.779 L163.049 357.662 L169.256 357.662 L169.256 360.859 L153.081 360.859 L153.081 357.662 Z" fill="#000000" fill-rule="evenodd" fill-opacity="1" /><path clip-path="url(#clip120)" d="M 0 0 M176.929 356.082 L180.898 356.082 L180.898 360.859 L176.929 360.859 L176.929 356.082 Z" fill="#000000" fill-rule="evenodd" fill-opacity="1" /><path clip-path="url(#clip120)" d="M 0 0 M197.298 335.28 Q194.364 335.28 192.878 338.177 Q191.411 341.054 191.411 346.847 Q191.411 352.621 192.878 355.517 Q194.364 358.395 197.298 358.395 Q200.251 358.395 201.718 355.517 Q203.204 352.621 203.204 346.847 Q203.204 341.054 201.718 338.177 Q200.251 335.28 197.298 335.28 M197.298 332.271 Q202.019 332.271 204.501 336.014 Q207.003 339.738 207.003 346.847 Q207.003 353.938 204.501 357.68 Q202.019 361.404 197.298 361.404 Q192.577 361.404 190.076 357.68 Q187.593 353.938 187.593 346.847 Q187.593 339.738 190.076 336.014 Q192.577 332.271 197.298 332.271 Z" fill="#000000" fill-rule="evenodd" fill-opacity="1" /><path clip-path="url(#clip120)" d="M 0 0 M102.048 234.669 L109.687 234.669 L109.687 208.303 L101.377 209.97 L101.377 205.71 L109.641 204.044 L114.317 204.044 L114.317 234.669 L121.956 234.669 L121.956 238.604 L102.048 238.604 L102.048 234.669 Z" fill="#000000" fill-rule="evenodd" fill-opacity="1" /><path clip-path="url(#clip120)" d="M 0 0 M141.4 207.122 Q137.789 207.122 135.96 210.687 Q134.155 214.229 134.155 221.358 Q134.155 228.465 135.96 232.03 Q137.789 235.571 141.4 235.571 Q145.034 235.571 146.84 232.03 Q148.668 228.465 148.668 221.358 Q148.668 214.229 146.84 210.687 Q145.034 207.122 141.4 207.122 M141.4 203.419 Q147.21 203.419 150.266 208.025 Q153.344 212.608 153.344 221.358 Q153.344 230.085 150.266 234.692 Q147.21 239.275 141.4 239.275 Q135.59 239.275 132.511 234.692 Q129.456 230.085 129.456 221.358 Q129.456 212.608 132.511 208.025 Q135.59 203.419 141.4 203.419 Z" fill="#000000" fill-rule="evenodd" fill-opacity="1" /><path clip-path="url(#clip120)" d="M 0 0 M153.89 207.996 L160.096 207.996 L160.096 186.574 L153.344 187.928 L153.344 184.467 L160.059 183.113 L163.858 183.113 L163.858 207.996 L170.064 207.996 L170.064 211.193 L153.89 211.193 L153.89 207.996 Z" fill="#000000" fill-rule="evenodd" fill-opacity="1" /><path clip-path="url(#clip120)" d="M 0 0 M177.738 206.416 L181.706 206.416 L181.706 211.193 L177.738 211.193 L177.738 206.416 Z" fill="#000000" fill-rule="evenodd" fill-opacity="1" /><path clip-path="url(#clip120)" d="M 0 0 M190.019 183.113 L204.934 183.113 L204.934 186.311 L193.499 186.311 L193.499 193.194 Q194.326 192.912 195.154 192.78 Q195.982 192.63 196.809 192.63 Q201.511 192.63 204.257 195.207 Q207.003 197.783 207.003 202.184 Q207.003 206.717 204.182 209.237 Q201.361 211.739 196.226 211.739 Q194.458 211.739 192.615 211.438 Q190.791 211.137 188.835 210.535 L188.835 206.717 Q190.527 207.639 192.333 208.09 Q194.138 208.541 196.151 208.541 Q199.405 208.541 201.304 206.83 Q203.204 205.118 203.204 202.184 Q203.204 199.25 201.304 197.539 Q199.405 195.827 196.151 195.827 Q194.627 195.827 193.104 196.166 Q191.599 196.504 190.019 197.219 L190.019 183.113 Z" fill="#000000" fill-rule="evenodd" fill-opacity="1" /><path clip-path="url(#clip120)" d="M 0 0 M99.829 85.0029 L107.468 85.0029 L107.468 58.6373 L99.1577 60.304 L99.1577 56.0447 L107.422 54.3781 L112.097 54.3781 L112.097 85.0029 L119.736 85.0029 L119.736 88.9381 L99.829 88.9381 L99.829 85.0029 Z" fill="#000000" fill-rule="evenodd" fill-opacity="1" /><path clip-path="url(#clip120)" d="M 0 0 M139.181 57.4568 Q135.57 57.4568 133.741 61.0215 Q131.935 64.5632 131.935 71.6928 Q131.935 78.7992 133.741 82.364 Q135.57 85.9057 139.181 85.9057 Q142.815 85.9057 144.62 82.364 Q146.449 78.7992 146.449 71.6928 Q146.449 64.5632 144.62 61.0215 Q142.815 57.4568 139.181 57.4568 M139.181 53.7531 Q144.991 53.7531 148.046 58.3595 Q151.125 62.9428 151.125 71.6928 Q151.125 80.4196 148.046 85.0261 Q144.991 89.6094 139.181 89.6094 Q133.37 89.6094 130.292 85.0261 Q127.236 80.4196 127.236 71.6928 Q127.236 62.9428 130.292 58.3595 Q133.37 53.7531 139.181 53.7531 Z" fill="#000000" fill-rule="evenodd" fill-opacity="1" /><path clip-path="url(#clip120)" d="M 0 0 M155.695 58.3303 L168.955 58.3303 L168.955 61.5277 L151.125 61.5277 L151.125 58.3303 Q153.288 56.0922 157.012 52.3307 Q160.755 48.5503 161.714 47.4595 Q163.538 45.4094 164.253 43.9988 Q164.986 42.5694 164.986 41.1965 Q164.986 38.9583 163.406 37.5478 Q161.845 36.1372 159.325 36.1372 Q157.538 36.1372 155.545 36.7578 Q153.57 37.3785 151.313 38.6386 L151.313 34.8018 Q153.608 33.8802 155.601 33.4101 Q157.595 32.9399 159.25 32.9399 Q163.613 32.9399 166.209 35.1216 Q168.804 37.3033 168.804 40.952 Q168.804 42.6823 168.146 44.2433 Q167.507 45.7856 165.795 47.892 Q165.325 48.4375 162.805 51.0517 Q160.284 53.6472 155.695 58.3303 Z" fill="#000000" fill-rule="evenodd" fill-opacity="1" /><path clip-path="url(#clip120)" d="M 0 0 M176.929 56.7505 L180.898 56.7505 L180.898 61.5277 L176.929 61.5277 L176.929 56.7505 Z" fill="#000000" fill-rule="evenodd" fill-opacity="1" /><path clip-path="url(#clip120)" d="M 0 0 M197.298 35.9491 Q194.364 35.9491 192.878 38.8455 Q191.411 41.7231 191.411 47.5159 Q191.411 53.2899 192.878 56.1863 Q194.364 59.0638 197.298 59.0638 Q200.251 59.0638 201.718 56.1863 Q203.204 53.2899 203.204 47.5159 Q203.204 41.7231 201.718 38.8455 Q200.251 35.9491 197.298 35.9491 M197.298 32.9399 Q202.019 32.9399 204.501 36.6826 Q207.003 40.4065 207.003 47.5159 Q207.003 54.6064 204.501 58.3492 Q202.019 62.0731 197.298 62.0731 Q192.577 62.0731 190.076 58.3492 Q187.593 54.6064 187.593 47.5159 Q187.593 40.4065 190.076 36.6826 Q192.577 32.9399 197.298 32.9399 Z" fill="#000000" fill-rule="evenodd" fill-opacity="1" /><path clip-path="url(#clip120)" d="M 0 0 M29.7691 373.915 Q28.7064 373.915 27.8368 374.205 Q26.935 374.463 26.3231 374.881 Q25.679 375.268 25.1959 376.009 Q24.6806 376.749 24.3586 377.361 Q24.0365 377.973 23.8433 379.004 Q23.6178 380.034 23.5212 380.711 Q23.3924 381.387 23.328 382.546 Q23.2636 383.706 23.2636 384.286 Q23.2636 384.833 23.2636 385.928 Q23.2636 389.374 23.328 389.954 Q23.4568 390.823 23.9721 391.145 Q24.4552 391.467 25.7756 391.79 L42.9735 396.073 L42.9735 388.698 Q42.9735 384.672 41.8463 381.902 Q40.7191 379.133 39.1411 377.555 Q37.4019 375.815 34.6 374.881 Q31.7981 373.915 29.7691 373.915 M60.1393 366.733 Q60.4935 366.733 61.2987 367.023 Q62.1038 367.281 63.231 367.925 Q64.326 368.569 65.3244 369.439 Q66.3228 370.308 66.9991 371.693 Q67.7077 373.078 67.7077 374.656 Q67.7077 375.043 67.6754 375.429 Q67.6754 375.815 67.5144 376.782 Q67.3856 377.716 67.1279 378.489 Q66.9025 379.261 66.355 380.228 Q65.8397 381.194 65.1312 381.87 Q64.3904 382.514 63.231 382.965 Q62.0394 383.416 60.5902 383.416 Q59.3019 383.416 54.9863 382.353 Q51.3149 381.419 50.4131 381.419 Q49.4147 381.419 48.4808 381.741 Q47.5468 382.031 46.5806 382.772 Q45.6144 383.48 45.0347 384.994 Q44.4228 386.508 44.4228 388.633 L44.4228 396.459 L61.9106 400.839 Q61.9428 400.839 62.3937 400.936 Q62.8124 401.033 63.0378 401.033 Q63.4565 401.033 63.7141 400.775 Q63.9718 400.485 64.1006 399.777 Q64.1972 399.068 64.2294 398.521 Q64.2294 397.941 64.2294 396.749 Q64.2294 395.268 64.4871 395.01 Q64.6481 394.881 64.9379 394.881 Q65.3888 394.881 65.7109 395.01 Q66.0007 395.107 66.0974 395.364 Q66.194 395.59 66.2262 395.751 Q66.2584 395.912 66.2584 396.202 L66.0652 404.575 L66.2584 412.884 Q66.2584 413.818 65.5177 413.818 Q64.8735 413.818 64.6159 413.593 Q64.326 413.367 64.2938 413.078 Q64.2294 412.788 64.2294 412.047 Q64.2294 410.437 64.1328 409.471 Q64.0362 408.504 63.9074 407.892 Q63.7463 407.248 63.2954 406.926 Q62.8446 406.572 62.4581 406.411 Q62.0394 406.25 61.1054 406.025 L25.679 397.2 Q24.6162 396.942 24.4552 396.942 Q23.8433 396.942 23.6822 397.329 Q23.489 397.683 23.3924 398.714 L23.2636 401.226 Q23.2636 401.999 23.2314 402.321 Q23.1992 402.611 23.0381 402.836 Q22.8771 403.062 22.5228 403.062 Q21.6211 403.062 21.4278 402.675 Q21.2024 402.289 21.2024 401.161 L21.2024 382.353 Q21.2024 375.944 24.0043 371.886 Q26.8062 367.796 31.0896 367.796 Q33.0219 367.796 34.8255 368.666 Q36.629 369.535 38.0461 370.985 Q39.4631 372.402 40.6547 374.302 Q41.8141 376.202 42.6193 378.231 Q43.3922 380.228 43.8431 382.289 Q44.1652 381.387 44.6483 380.55 Q45.1313 379.68 46.0331 378.585 Q46.9349 377.458 48.3841 376.782 Q49.8334 376.105 51.6047 376.105 Q52.8607 376.105 54.7287 376.363 Q60.0427 377.007 62.2327 377.007 Q64.326 377.007 65.2922 376.46 Q66.2584 375.912 66.2584 374.366 Q66.2584 372.853 64.9057 371.178 Q63.5209 369.471 60.2681 368.376 Q59.3341 368.118 59.3341 367.506 Q59.3341 367.474 59.3341 367.442 Q59.3341 367.378 59.3985 367.249 Q59.4307 367.12 59.5274 367.023 Q59.5918 366.894 59.7528 366.83 Q59.9138 366.733 60.1393 366.733 Z" fill="#000000" fill-rule="evenodd" fill-opacity="1" /><path clip-path="url(#clip120)" d="M 0 0 M64.9379 318.999 Q65.5499 318.999 65.8719 319.257 Q66.1618 319.482 66.2262 319.707 Q66.2584 319.901 66.2584 320.19 Q66.2584 321.028 66.1618 323.926 Q66.0652 326.825 66.0652 327.662 Q66.0652 329.015 66.1618 331.785 Q66.2584 334.554 66.2584 335.907 Q66.2584 336.809 65.5177 336.809 Q65.0346 336.809 64.7769 336.712 Q64.4871 336.615 64.3904 336.358 Q64.2616 336.068 64.2616 335.907 Q64.2294 335.714 64.2294 335.231 Q64.2294 334.586 64.165 333.91 Q64.0684 333.234 63.8752 332.397 Q63.6819 331.559 63.1988 331.044 Q62.7157 330.496 62.0394 330.496 Q61.7496 330.496 59.3663 330.722 Q56.9831 330.947 54.2134 331.237 Q51.4115 331.527 51.025 331.559 L51.025 348.113 Q53.6337 349.627 55.4372 350.689 Q57.2407 351.752 57.8527 352.139 Q58.4646 352.525 58.851 352.751 Q59.2375 352.976 59.4629 353.105 Q61.1699 354.039 61.9106 354.039 Q63.9718 354.039 64.2294 350.947 Q64.2294 349.884 65.0024 349.884 Q65.5821 349.884 65.9041 350.142 Q66.194 350.4 66.2262 350.625 Q66.2584 350.818 66.2584 351.14 Q66.2584 352.203 66.1618 354.425 Q66.0652 356.648 66.0652 357.743 Q66.0652 358.676 66.1618 360.609 Q66.2584 362.541 66.2584 363.411 Q66.2584 363.797 66.0329 364.023 Q65.8075 364.248 65.5177 364.248 Q65.0668 364.248 64.8091 364.184 Q64.5515 364.087 64.4227 363.829 Q64.2938 363.572 64.2938 363.443 Q64.2616 363.314 64.2294 362.863 Q64.0684 360.416 62.909 358.515 Q61.7174 356.583 58.6578 354.747 L20.1396 331.817 Q19.7531 331.591 19.5599 331.43 Q19.3667 331.269 19.2056 330.947 Q19.0446 330.593 19.0446 330.078 Q19.0446 329.273 19.3022 329.112 Q19.5277 328.95 20.6227 328.854 L61.8462 324.828 Q62.7157 324.732 63.07 324.667 Q63.3921 324.57 63.7463 324.152 Q64.0684 323.701 64.165 322.896 Q64.2294 322.058 64.2294 320.513 Q64.2294 319.933 64.2616 319.707 Q64.2616 319.482 64.4227 319.257 Q64.5837 318.999 64.9379 318.999 M48.9638 331.752 L27.2249 333.846 L48.9638 346.857 L48.9638 331.752 Z" fill="#000000" fill-rule="evenodd" fill-opacity="1" /><polyline clip-path="url(#clip123)" style="stroke:#009af9; stroke-width:8; stroke-opacity:1; fill:none" points="
  302.713,663.866 322.817,663.865 342.922,663.863 363.026,663.862 383.13,663.859 403.235,663.856 423.339,663.853 443.443,663.849 463.548,663.844 483.652,663.838 
  503.757,663.831 523.861,663.823 543.965,663.812 564.07,663.8 584.174,663.785 604.278,663.767 624.383,663.745 644.487,663.719 664.592,663.688 684.696,663.65 
  704.8,663.605 724.905,663.55 745.009,663.484 765.113,663.405 785.218,663.31 805.322,663.196 825.427,663.058 845.531,662.892 865.635,662.694 885.74,662.455 
  905.844,662.169 925.948,661.826 946.053,661.415 966.157,660.924 986.262,660.337 1006.37,659.637 1026.47,658.804 1046.57,657.814 1066.68,656.641 1086.78,655.257 
  1106.89,653.627 1126.99,651.717 1147.1,649.488 1167.2,646.901 1187.31,643.916 1207.41,640.494 1227.51,636.597 1247.62,632.194 1267.72,627.259 1287.83,621.772 
  1307.93,615.725 1328.04,609.118 1348.14,601.959 1368.24,594.268 1388.35,586.07 1408.45,577.398 1428.56,568.289 1448.66,558.782 1468.77,548.916 1488.87,538.732 
  1508.98,528.268 1529.08,517.558 1549.18,506.636 1569.29,495.532 1589.39,484.271 1609.5,472.877 1629.6,461.37 1649.71,449.767 1669.81,438.083 1689.91,426.332 
  1710.02,414.524 1730.12,402.669 1750.23,390.773 1770.33,378.844 1790.44,366.888 1810.54,354.908 1830.65,342.909 1850.75,330.894 1870.85,318.866 1890.96,306.826 
  1911.06,294.777 1931.17,282.721 1951.27,270.658 1971.38,258.59 1991.48,246.517 2011.58,234.441 2031.69,222.362 2051.79,210.28 2071.9,198.196 2092,186.111 
  2112.11,174.024 2132.21,161.935 2152.32,149.846 2172.42,137.756 2192.52,125.665 2212.63,113.574 2232.73,101.482 2252.84,89.3894 2272.94,77.2968 2293.05,65.204 
  
  "/>
<path clip-path="url(#clip120)" d="
M243.003 1410.9 L2352.76 1410.9 L2352.76 776.314 L243.003 776.314  Z
  " fill="#ffffff" fill-rule="evenodd" fill-opacity="1"/>
<defs>
  <clipPath id="clip124">
    <rect x="243" y="776" width="2111" height="636"/>
  </clipPath>
</defs>
<polyline clip-path="url(#clip124)" style="stroke:#000000; stroke-width:2; stroke-opacity:0.1; fill:none" points="
  302.713,1410.9 302.713,776.314 
  "/>
<polyline clip-path="url(#clip124)" style="stroke:#000000; stroke-width:2; stroke-opacity:0.1; fill:none" points="
  800.296,1410.9 800.296,776.314 
  "/>
<polyline clip-path="url(#clip124)" style="stroke:#000000; stroke-width:2; stroke-opacity:0.1; fill:none" points="
  1297.88,1410.9 1297.88,776.314 
  "/>
<polyline clip-path="url(#clip124)" style="stroke:#000000; stroke-width:2; stroke-opacity:0.1; fill:none" points="
  1795.46,1410.9 1795.46,776.314 
  "/>
<polyline clip-path="url(#clip124)" style="stroke:#000000; stroke-width:2; stroke-opacity:0.1; fill:none" points="
  2293.05,1410.9 2293.05,776.314 
  "/>
<polyline clip-path="url(#clip120)" style="stroke:#000000; stroke-width:4; stroke-opacity:1; fill:none" points="
  243.003,1410.9 2352.76,1410.9 
  "/>
<polyline clip-path="url(#clip120)" style="stroke:#000000; stroke-width:4; stroke-opacity:1; fill:none" points="
  302.713,1410.9 302.713,1403.28 
  "/>
<polyline clip-path="url(#clip120)" style="stroke:#000000; stroke-width:4; stroke-opacity:1; fill:none" points="
  800.296,1410.9 800.296,1403.28 
  "/>
<polyline clip-path="url(#clip120)" style="stroke:#000000; stroke-width:4; stroke-opacity:1; fill:none" points="
  1297.88,1410.9 1297.88,1403.28 
  "/>
<polyline clip-path="url(#clip120)" style="stroke:#000000; stroke-width:4; stroke-opacity:1; fill:none" points="
  1795.46,1410.9 1795.46,1403.28 
  "/>
<polyline clip-path="url(#clip120)" style="stroke:#000000; stroke-width:4; stroke-opacity:1; fill:none" points="
  2293.05,1410.9 2293.05,1403.28 
  "/>
<polyline clip-path="url(#clip120)" style="stroke:#000000; stroke-width:4; stroke-opacity:1; fill:none" points="
  259.828,1410.9 259.828,1407.09 
  "/>
<polyline clip-path="url(#clip120)" style="stroke:#000000; stroke-width:4; stroke-opacity:1; fill:none" points="
  525.211,1410.9 525.211,1407.09 
  "/>
<polyline clip-path="url(#clip120)" style="stroke:#000000; stroke-width:4; stroke-opacity:1; fill:none" points="
  632.49,1410.9 632.49,1407.09 
  "/>
<polyline clip-path="url(#clip120)" style="stroke:#000000; stroke-width:4; stroke-opacity:1; fill:none" points="
  703.855,1410.9 703.855,1407.09 
  "/>
<polyline clip-path="url(#clip120)" style="stroke:#000000; stroke-width:4; stroke-opacity:1; fill:none" points="
  757.411,1410.9 757.411,1407.09 
  "/>
<polyline clip-path="url(#clip120)" style="stroke:#000000; stroke-width:4; stroke-opacity:1; fill:none" points="
  1022.79,1410.9 1022.79,1407.09 
  "/>
<polyline clip-path="url(#clip120)" style="stroke:#000000; stroke-width:4; stroke-opacity:1; fill:none" points="
  1130.07,1410.9 1130.07,1407.09 
  "/>
<polyline clip-path="url(#clip120)" style="stroke:#000000; stroke-width:4; stroke-opacity:1; fill:none" points="
  1201.44,1410.9 1201.44,1407.09 
  "/>
<polyline clip-path="url(#clip120)" style="stroke:#000000; stroke-width:4; stroke-opacity:1; fill:none" points="
  1254.99,1410.9 1254.99,1407.09 
  "/>
<polyline clip-path="url(#clip120)" style="stroke:#000000; stroke-width:4; stroke-opacity:1; fill:none" points="
  1520.38,1410.9 1520.38,1407.09 
  "/>
<polyline clip-path="url(#clip120)" style="stroke:#000000; stroke-width:4; stroke-opacity:1; fill:none" points="
  1627.66,1410.9 1627.66,1407.09 
  "/>
<polyline clip-path="url(#clip120)" style="stroke:#000000; stroke-width:4; stroke-opacity:1; fill:none" points="
  1699.02,1410.9 1699.02,1407.09 
  "/>
<polyline clip-path="url(#clip120)" style="stroke:#000000; stroke-width:4; stroke-opacity:1; fill:none" points="
  1752.58,1410.9 1752.58,1407.09 
  "/>
<polyline clip-path="url(#clip120)" style="stroke:#000000; stroke-width:4; stroke-opacity:1; fill:none" points="
  2017.96,1410.9 2017.96,1407.09 
  "/>
<polyline clip-path="url(#clip120)" style="stroke:#000000; stroke-width:4; stroke-opacity:1; fill:none" points="
  2125.24,1410.9 2125.24,1407.09 
  "/>
<polyline clip-path="url(#clip120)" style="stroke:#000000; stroke-width:4; stroke-opacity:1; fill:none" points="
  2196.6,1410.9 2196.6,1407.09 
  "/>
<polyline clip-path="url(#clip120)" style="stroke:#000000; stroke-width:4; stroke-opacity:1; fill:none" points="
  2250.16,1410.9 2250.16,1407.09 
  "/>
<path clip-path="url(#clip120)" d="M 0 0 M252.979 1489.17 L260.617 1489.17 L260.617 1462.8 L252.307 1464.47 L252.307 1460.21 L260.571 1458.54 L265.247 1458.54 L265.247 1489.17 L272.886 1489.17 L272.886 1493.1 L252.979 1493.1 L252.979 1489.17 Z" fill="#000000" fill-rule="evenodd" fill-opacity="1" /><path clip-path="url(#clip120)" d="M 0 0 M292.33 1461.62 Q288.719 1461.62 286.89 1465.19 Q285.085 1468.73 285.085 1475.86 Q285.085 1482.97 286.89 1486.53 Q288.719 1490.07 292.33 1490.07 Q295.965 1490.07 297.77 1486.53 Q299.599 1482.97 299.599 1475.86 Q299.599 1468.73 297.77 1465.19 Q295.965 1461.62 292.33 1461.62 M292.33 1457.92 Q298.14 1457.92 301.196 1462.53 Q304.275 1467.11 304.275 1475.86 Q304.275 1484.59 301.196 1489.19 Q298.14 1493.78 292.33 1493.78 Q286.52 1493.78 283.441 1489.19 Q280.386 1484.59 280.386 1475.86 Q280.386 1467.11 283.441 1462.53 Q286.52 1457.92 292.33 1457.92 Z" fill="#000000" fill-rule="evenodd" fill-opacity="1" /><path clip-path="url(#clip120)" d="M 0 0 M304.275 1452.02 L328.386 1452.02 L328.386 1455.22 L304.275 1455.22 L304.275 1452.02 Z" fill="#000000" fill-rule="evenodd" fill-opacity="1" /><path clip-path="url(#clip120)" d="M 0 0 M339.859 1462.5 L353.118 1462.5 L353.118 1465.69 L335.289 1465.69 L335.289 1462.5 Q337.452 1460.26 341.175 1456.5 Q344.918 1452.72 345.877 1451.63 Q347.702 1449.58 348.416 1448.16 Q349.15 1446.74 349.15 1445.36 Q349.15 1443.12 347.57 1441.71 Q346.009 1440.3 343.489 1440.3 Q341.702 1440.3 339.708 1440.92 Q337.734 1441.54 335.477 1442.8 L335.477 1438.97 Q337.771 1438.05 339.765 1437.58 Q341.759 1437.11 343.414 1437.11 Q347.777 1437.11 350.372 1439.29 Q352.968 1441.47 352.968 1445.12 Q352.968 1446.85 352.31 1448.41 Q351.67 1449.95 349.959 1452.06 Q349.489 1452.6 346.968 1455.22 Q344.448 1457.81 339.859 1462.5 Z" fill="#000000" fill-rule="evenodd" fill-opacity="1" /><path clip-path="url(#clip120)" d="M 0 0 M750.411 1489.17 L758.05 1489.17 L758.05 1462.8 L749.74 1464.47 L749.74 1460.21 L758.004 1458.54 L762.68 1458.54 L762.68 1489.17 L770.319 1489.17 L770.319 1493.1 L750.411 1493.1 L750.411 1489.17 Z" fill="#000000" fill-rule="evenodd" fill-opacity="1" /><path clip-path="url(#clip120)" d="M 0 0 M789.763 1461.62 Q786.152 1461.62 784.323 1465.19 Q782.518 1468.73 782.518 1475.86 Q782.518 1482.97 784.323 1486.53 Q786.152 1490.07 789.763 1490.07 Q793.397 1490.07 795.203 1486.53 Q797.032 1482.97 797.032 1475.86 Q797.032 1468.73 795.203 1465.19 Q793.397 1461.62 789.763 1461.62 M789.763 1457.92 Q795.573 1457.92 798.629 1462.53 Q801.707 1467.11 801.707 1475.86 Q801.707 1484.59 798.629 1489.19 Q795.573 1493.78 789.763 1493.78 Q783.953 1493.78 780.874 1489.19 Q777.819 1484.59 777.819 1475.86 Q777.819 1467.11 780.874 1462.53 Q783.953 1457.92 789.763 1457.92 Z" fill="#000000" fill-rule="evenodd" fill-opacity="1" /><path clip-path="url(#clip120)" d="M 0 0 M801.707 1452.02 L825.819 1452.02 L825.819 1455.22 L801.707 1455.22 L801.707 1452.02 Z" fill="#000000" fill-rule="evenodd" fill-opacity="1" /><path clip-path="url(#clip120)" d="M 0 0 M834.677 1462.5 L840.884 1462.5 L840.884 1441.07 L834.132 1442.43 L834.132 1438.97 L840.846 1437.61 L844.646 1437.61 L844.646 1462.5 L850.852 1462.5 L850.852 1465.69 L834.677 1465.69 L834.677 1462.5 Z" fill="#000000" fill-rule="evenodd" fill-opacity="1" /><path clip-path="url(#clip120)" d="M 0 0 M1262.86 1489.17 L1270.5 1489.17 L1270.5 1462.8 L1262.19 1464.47 L1262.19 1460.21 L1270.45 1458.54 L1275.13 1458.54 L1275.13 1489.17 L1282.77 1489.17 L1282.77 1493.1 L1262.86 1493.1 L1262.86 1489.17 Z" fill="#000000" fill-rule="evenodd" fill-opacity="1" /><path clip-path="url(#clip120)" d="M 0 0 M1302.21 1461.62 Q1298.6 1461.62 1296.77 1465.19 Q1294.97 1468.73 1294.97 1475.86 Q1294.97 1482.97 1296.77 1486.53 Q1298.6 1490.07 1302.21 1490.07 Q1305.85 1490.07 1307.65 1486.53 Q1309.48 1482.97 1309.48 1475.86 Q1309.48 1468.73 1307.65 1465.19 Q1305.85 1461.62 1302.21 1461.62 M1302.21 1457.92 Q1308.02 1457.92 1311.08 1462.53 Q1314.16 1467.11 1314.16 1475.86 Q1314.16 1484.59 1311.08 1489.19 Q1308.02 1493.78 1302.21 1493.78 Q1296.4 1493.78 1293.33 1489.19 Q1290.27 1484.59 1290.27 1475.86 Q1290.27 1467.11 1293.33 1462.53 Q1296.4 1457.92 1302.21 1457.92 Z" fill="#000000" fill-rule="evenodd" fill-opacity="1" /><path clip-path="url(#clip120)" d="M 0 0 M1323.86 1440.11 Q1320.93 1440.11 1319.44 1443.01 Q1317.98 1445.89 1317.98 1451.68 Q1317.98 1457.46 1319.44 1460.35 Q1320.93 1463.23 1323.86 1463.23 Q1326.82 1463.23 1328.28 1460.35 Q1329.77 1457.46 1329.77 1451.68 Q1329.77 1445.89 1328.28 1443.01 Q1326.82 1440.11 1323.86 1440.11 M1323.86 1437.11 Q1328.58 1437.11 1331.07 1440.85 Q1333.57 1444.57 1333.57 1451.68 Q1333.57 1458.77 1331.07 1462.51 Q1328.58 1466.24 1323.86 1466.24 Q1319.14 1466.24 1316.64 1462.51 Q1314.16 1458.77 1314.16 1451.68 Q1314.16 1444.57 1316.64 1440.85 Q1319.14 1437.11 1323.86 1437.11 Z" fill="#000000" fill-rule="evenodd" fill-opacity="1" /><path clip-path="url(#clip120)" d="M 0 0 M1761.79 1489.17 L1769.43 1489.17 L1769.43 1462.8 L1761.12 1464.47 L1761.12 1460.21 L1769.38 1458.54 L1774.06 1458.54 L1774.06 1489.17 L1781.7 1489.17 L1781.7 1493.1 L1761.79 1493.1 L1761.79 1489.17 Z" fill="#000000" fill-rule="evenodd" fill-opacity="1" /><path clip-path="url(#clip120)" d="M 0 0 M1801.14 1461.62 Q1797.53 1461.62 1795.7 1465.19 Q1793.9 1468.73 1793.9 1475.86 Q1793.9 1482.97 1795.7 1486.53 Q1797.53 1490.07 1801.14 1490.07 Q1804.78 1490.07 1806.58 1486.53 Q1808.41 1482.97 1808.41 1475.86 Q1808.41 1468.73 1806.58 1465.19 Q1804.78 1461.62 1801.14 1461.62 M1801.14 1457.92 Q1806.95 1457.92 1810.01 1462.53 Q1813.09 1467.11 1813.09 1475.86 Q1813.09 1484.59 1810.01 1489.19 Q1806.95 1493.78 1801.14 1493.78 Q1795.33 1493.78 1792.25 1489.19 Q1789.2 1484.59 1789.2 1475.86 Q1789.2 1467.11 1792.25 1462.53 Q1795.33 1457.92 1801.14 1457.92 Z" fill="#000000" fill-rule="evenodd" fill-opacity="1" /><path clip-path="url(#clip120)" d="M 0 0 M1813.63 1462.5 L1819.84 1462.5 L1819.84 1441.07 L1813.09 1442.43 L1813.09 1438.97 L1819.8 1437.61 L1823.6 1437.61 L1823.6 1462.5 L1829.81 1462.5 L1829.81 1465.69 L1813.63 1465.69 L1813.63 1462.5 Z" fill="#000000" fill-rule="evenodd" fill-opacity="1" /><path clip-path="url(#clip120)" d="M 0 0 M2258.82 1489.17 L2266.46 1489.17 L2266.46 1462.8 L2258.15 1464.47 L2258.15 1460.21 L2266.41 1458.54 L2271.09 1458.54 L2271.09 1489.17 L2278.73 1489.17 L2278.73 1493.1 L2258.82 1493.1 L2258.82 1489.17 Z" fill="#000000" fill-rule="evenodd" fill-opacity="1" /><path clip-path="url(#clip120)" d="M 0 0 M2298.17 1461.62 Q2294.56 1461.62 2292.73 1465.19 Q2290.92 1468.73 2290.92 1475.86 Q2290.92 1482.97 2292.73 1486.53 Q2294.56 1490.07 2298.17 1490.07 Q2301.8 1490.07 2303.61 1486.53 Q2305.44 1482.97 2305.44 1475.86 Q2305.44 1468.73 2303.61 1465.19 Q2301.8 1461.62 2298.17 1461.62 M2298.17 1457.92 Q2303.98 1457.92 2307.04 1462.53 Q2310.11 1467.11 2310.11 1475.86 Q2310.11 1484.59 2307.04 1489.19 Q2303.98 1493.78 2298.17 1493.78 Q2292.36 1493.78 2289.28 1489.19 Q2286.23 1484.59 2286.23 1475.86 Q2286.23 1467.11 2289.28 1462.53 Q2292.36 1457.92 2298.17 1457.92 Z" fill="#000000" fill-rule="evenodd" fill-opacity="1" /><path clip-path="url(#clip120)" d="M 0 0 M2314.68 1462.5 L2327.94 1462.5 L2327.94 1465.69 L2310.11 1465.69 L2310.11 1462.5 Q2312.28 1460.26 2316 1456.5 Q2319.74 1452.72 2320.7 1451.63 Q2322.53 1449.58 2323.24 1448.16 Q2323.98 1446.74 2323.98 1445.36 Q2323.98 1443.12 2322.4 1441.71 Q2320.84 1440.3 2318.31 1440.3 Q2316.53 1440.3 2314.53 1440.92 Q2312.56 1441.54 2310.3 1442.8 L2310.3 1438.97 Q2312.6 1438.05 2314.59 1437.58 Q2316.58 1437.11 2318.24 1437.11 Q2322.6 1437.11 2325.2 1439.29 Q2327.79 1441.47 2327.79 1445.12 Q2327.79 1446.85 2327.14 1448.41 Q2326.5 1449.95 2324.78 1452.06 Q2324.31 1452.6 2321.79 1455.22 Q2319.27 1457.81 2314.68 1462.5 Z" fill="#000000" fill-rule="evenodd" fill-opacity="1" /><path clip-path="url(#clip120)" d="M 0 0 M1288.17 1575.11 Q1274.96 1575.11 1274.96 1556.2 Q1274.96 1548.72 1279.9 1538.54 L1286.2 1538.54 Q1281.65 1548.72 1281.65 1556.36 Q1281.65 1570.14 1288.71 1570.14 Q1295.17 1570.14 1295.17 1553.02 L1300.58 1553.02 Q1300.58 1570.14 1307.05 1570.14 Q1314.11 1570.14 1314.11 1556.36 Q1314.11 1548.72 1309.56 1538.54 L1315.86 1538.54 Q1320.8 1548.72 1320.8 1556.2 Q1320.8 1575.11 1307.59 1575.11 Q1298.93 1575.11 1297.88 1565.59 Q1296.57 1575.11 1288.17 1575.11 Z" fill="#000000" fill-rule="evenodd" fill-opacity="1" /><polyline clip-path="url(#clip124)" style="stroke:#000000; stroke-width:2; stroke-opacity:0.1; fill:none" points="
  243.003,1396.8 2352.76,1396.8 
  "/>
<polyline clip-path="url(#clip124)" style="stroke:#000000; stroke-width:2; stroke-opacity:0.1; fill:none" points="
  243.003,1262.05 2352.76,1262.05 
  "/>
<polyline clip-path="url(#clip124)" style="stroke:#000000; stroke-width:2; stroke-opacity:0.1; fill:none" points="
  243.003,1127.29 2352.76,1127.29 
  "/>
<polyline clip-path="url(#clip124)" style="stroke:#000000; stroke-width:2; stroke-opacity:0.1; fill:none" points="
  243.003,992.542 2352.76,992.542 
  "/>
<polyline clip-path="url(#clip124)" style="stroke:#000000; stroke-width:2; stroke-opacity:0.1; fill:none" points="
  243.003,857.79 2352.76,857.79 
  "/>
<polyline clip-path="url(#clip120)" style="stroke:#000000; stroke-width:4; stroke-opacity:1; fill:none" points="
  243.003,1410.9 243.003,776.314 
  "/>
<polyline clip-path="url(#clip120)" style="stroke:#000000; stroke-width:4; stroke-opacity:1; fill:none" points="
  243.003,1396.8 268.32,1396.8 
  "/>
<polyline clip-path="url(#clip120)" style="stroke:#000000; stroke-width:4; stroke-opacity:1; fill:none" points="
  243.003,1262.05 268.32,1262.05 
  "/>
<polyline clip-path="url(#clip120)" style="stroke:#000000; stroke-width:4; stroke-opacity:1; fill:none" points="
  243.003,1127.29 268.32,1127.29 
  "/>
<polyline clip-path="url(#clip120)" style="stroke:#000000; stroke-width:4; stroke-opacity:1; fill:none" points="
  243.003,992.542 268.32,992.542 
  "/>
<polyline clip-path="url(#clip120)" style="stroke:#000000; stroke-width:4; stroke-opacity:1; fill:none" points="
  243.003,857.79 268.32,857.79 
  "/>
<polyline clip-path="url(#clip120)" style="stroke:#000000; stroke-width:4; stroke-opacity:1; fill:none" points="
  243.003,1369.85 255.661,1369.85 
  "/>
<polyline clip-path="url(#clip120)" style="stroke:#000000; stroke-width:4; stroke-opacity:1; fill:none" points="
  243.003,1342.9 255.661,1342.9 
  "/>
<polyline clip-path="url(#clip120)" style="stroke:#000000; stroke-width:4; stroke-opacity:1; fill:none" points="
  243.003,1315.95 255.661,1315.95 
  "/>
<polyline clip-path="url(#clip120)" style="stroke:#000000; stroke-width:4; stroke-opacity:1; fill:none" points="
  243.003,1289 255.661,1289 
  "/>
<polyline clip-path="url(#clip120)" style="stroke:#000000; stroke-width:4; stroke-opacity:1; fill:none" points="
  243.003,1235.09 255.661,1235.09 
  "/>
<polyline clip-path="url(#clip120)" style="stroke:#000000; stroke-width:4; stroke-opacity:1; fill:none" points="
  243.003,1208.14 255.661,1208.14 
  "/>
<polyline clip-path="url(#clip120)" style="stroke:#000000; stroke-width:4; stroke-opacity:1; fill:none" points="
  243.003,1181.19 255.661,1181.19 
  "/>
<polyline clip-path="url(#clip120)" style="stroke:#000000; stroke-width:4; stroke-opacity:1; fill:none" points="
  243.003,1154.24 255.661,1154.24 
  "/>
<polyline clip-path="url(#clip120)" style="stroke:#000000; stroke-width:4; stroke-opacity:1; fill:none" points="
  243.003,1100.34 255.661,1100.34 
  "/>
<polyline clip-path="url(#clip120)" style="stroke:#000000; stroke-width:4; stroke-opacity:1; fill:none" points="
  243.003,1073.39 255.661,1073.39 
  "/>
<polyline clip-path="url(#clip120)" style="stroke:#000000; stroke-width:4; stroke-opacity:1; fill:none" points="
  243.003,1046.44 255.661,1046.44 
  "/>
<polyline clip-path="url(#clip120)" style="stroke:#000000; stroke-width:4; stroke-opacity:1; fill:none" points="
  243.003,1019.49 255.661,1019.49 
  "/>
<polyline clip-path="url(#clip120)" style="stroke:#000000; stroke-width:4; stroke-opacity:1; fill:none" points="
  243.003,965.591 255.661,965.591 
  "/>
<polyline clip-path="url(#clip120)" style="stroke:#000000; stroke-width:4; stroke-opacity:1; fill:none" points="
  243.003,938.641 255.661,938.641 
  "/>
<polyline clip-path="url(#clip120)" style="stroke:#000000; stroke-width:4; stroke-opacity:1; fill:none" points="
  243.003,911.691 255.661,911.691 
  "/>
<polyline clip-path="url(#clip120)" style="stroke:#000000; stroke-width:4; stroke-opacity:1; fill:none" points="
  243.003,884.74 255.661,884.74 
  "/>
<polyline clip-path="url(#clip120)" style="stroke:#000000; stroke-width:4; stroke-opacity:1; fill:none" points="
  243.003,830.84 255.661,830.84 
  "/>
<polyline clip-path="url(#clip120)" style="stroke:#000000; stroke-width:4; stroke-opacity:1; fill:none" points="
  243.003,803.889 255.661,803.889 
  "/>
<polyline clip-path="url(#clip120)" style="stroke:#000000; stroke-width:4; stroke-opacity:1; fill:none" points="
  243.003,776.939 255.661,776.939 
  "/>
<path clip-path="url(#clip120)" d="M 0 0 M195.059 1382.6 Q191.447 1382.6 189.619 1386.16 Q187.813 1389.7 187.813 1396.83 Q187.813 1403.94 189.619 1407.5 Q191.447 1411.04 195.059 1411.04 Q198.693 1411.04 200.498 1407.5 Q202.327 1403.94 202.327 1396.83 Q202.327 1389.7 200.498 1386.16 Q198.693 1382.6 195.059 1382.6 M195.059 1378.89 Q200.869 1378.89 203.924 1383.5 Q207.003 1388.08 207.003 1396.83 Q207.003 1405.56 203.924 1410.16 Q200.869 1414.75 195.059 1414.75 Q189.248 1414.75 186.17 1410.16 Q183.114 1405.56 183.114 1396.83 Q183.114 1388.08 186.17 1383.5 Q189.248 1378.89 195.059 1378.89 Z" fill="#000000" fill-rule="evenodd" fill-opacity="1" /><path clip-path="url(#clip120)" d="M 0 0 M158.924 1275.39 L175.244 1275.39 L175.244 1279.33 L153.299 1279.33 L153.299 1275.39 Q155.961 1272.64 160.545 1268.01 Q165.151 1263.35 166.332 1262.01 Q168.577 1259.49 169.457 1257.75 Q170.36 1255.99 170.36 1254.3 Q170.36 1251.55 168.415 1249.81 Q166.494 1248.08 163.392 1248.08 Q161.193 1248.08 158.739 1248.84 Q156.309 1249.6 153.531 1251.15 L153.531 1246.43 Q156.355 1245.3 158.809 1244.72 Q161.262 1244.14 163.299 1244.14 Q168.67 1244.14 171.864 1246.83 Q175.059 1249.51 175.059 1254 Q175.059 1256.13 174.248 1258.05 Q173.461 1259.95 171.355 1262.54 Q170.776 1263.21 167.674 1266.43 Q164.573 1269.63 158.924 1275.39 Z" fill="#000000" fill-rule="evenodd" fill-opacity="1" /><path clip-path="url(#clip120)" d="M 0 0 M195.059 1247.84 Q191.447 1247.84 189.619 1251.41 Q187.813 1254.95 187.813 1262.08 Q187.813 1269.19 189.619 1272.75 Q191.447 1276.29 195.059 1276.29 Q198.693 1276.29 200.498 1272.75 Q202.327 1269.19 202.327 1262.08 Q202.327 1254.95 200.498 1251.41 Q198.693 1247.84 195.059 1247.84 M195.059 1244.14 Q200.869 1244.14 203.924 1248.75 Q207.003 1253.33 207.003 1262.08 Q207.003 1270.81 203.924 1275.41 Q200.869 1280 195.059 1280 Q189.248 1280 186.17 1275.41 Q183.114 1270.81 183.114 1262.08 Q183.114 1253.33 186.17 1248.75 Q189.248 1244.14 195.059 1244.14 Z" fill="#000000" fill-rule="evenodd" fill-opacity="1" /><path clip-path="url(#clip120)" d="M 0 0 M167.744 1114.09 L155.938 1132.54 L167.744 1132.54 L167.744 1114.09 M166.517 1110.01 L172.397 1110.01 L172.397 1132.54 L177.327 1132.54 L177.327 1136.43 L172.397 1136.43 L172.397 1144.57 L167.744 1144.57 L167.744 1136.43 L152.142 1136.43 L152.142 1131.91 L166.517 1110.01 Z" fill="#000000" fill-rule="evenodd" fill-opacity="1" /><path clip-path="url(#clip120)" d="M 0 0 M195.059 1113.09 Q191.447 1113.09 189.619 1116.66 Q187.813 1120.2 187.813 1127.33 Q187.813 1134.43 189.619 1138 Q191.447 1141.54 195.059 1141.54 Q198.693 1141.54 200.498 1138 Q202.327 1134.43 202.327 1127.33 Q202.327 1120.2 200.498 1116.66 Q198.693 1113.09 195.059 1113.09 M195.059 1109.39 Q200.869 1109.39 203.924 1113.99 Q207.003 1118.58 207.003 1127.33 Q207.003 1136.06 203.924 1140.66 Q200.869 1145.24 195.059 1145.24 Q189.248 1145.24 186.17 1140.66 Q183.114 1136.06 183.114 1127.33 Q183.114 1118.58 186.17 1113.99 Q189.248 1109.39 195.059 1109.39 Z" fill="#000000" fill-rule="evenodd" fill-opacity="1" /><path clip-path="url(#clip120)" d="M 0 0 M165.475 990.678 Q162.327 990.678 160.475 992.831 Q158.647 994.984 158.647 998.734 Q158.647 1002.46 160.475 1004.64 Q162.327 1006.79 165.475 1006.79 Q168.623 1006.79 170.452 1004.64 Q172.304 1002.46 172.304 998.734 Q172.304 994.984 170.452 992.831 Q168.623 990.678 165.475 990.678 M174.758 976.026 L174.758 980.285 Q172.998 979.452 171.193 979.012 Q169.41 978.572 167.651 978.572 Q163.022 978.572 160.568 981.697 Q158.137 984.822 157.79 991.141 Q159.156 989.127 161.216 988.063 Q163.276 986.975 165.753 986.975 Q170.961 986.975 173.971 990.146 Q177.003 993.294 177.003 998.734 Q177.003 1004.06 173.855 1007.28 Q170.707 1010.49 165.475 1010.49 Q159.48 1010.49 156.309 1005.91 Q153.137 1001.3 153.137 992.576 Q153.137 984.382 157.026 979.521 Q160.915 974.637 167.466 974.637 Q169.225 974.637 171.008 974.984 Q172.813 975.331 174.758 976.026 Z" fill="#000000" fill-rule="evenodd" fill-opacity="1" /><path clip-path="url(#clip120)" d="M 0 0 M195.059 978.34 Q191.447 978.34 189.619 981.905 Q187.813 985.447 187.813 992.576 Q187.813 999.683 189.619 1003.25 Q191.447 1006.79 195.059 1006.79 Q198.693 1006.79 200.498 1003.25 Q202.327 999.683 202.327 992.576 Q202.327 985.447 200.498 981.905 Q198.693 978.34 195.059 978.34 M195.059 974.637 Q200.869 974.637 203.924 979.243 Q207.003 983.827 207.003 992.576 Q207.003 1001.3 203.924 1005.91 Q200.869 1010.49 195.059 1010.49 Q189.248 1010.49 186.17 1005.91 Q183.114 1001.3 183.114 992.576 Q183.114 983.827 186.17 979.243 Q189.248 974.637 195.059 974.637 Z" fill="#000000" fill-rule="evenodd" fill-opacity="1" /><path clip-path="url(#clip120)" d="M 0 0 M164.897 858.658 Q161.563 858.658 159.642 860.44 Q157.744 862.223 157.744 865.348 Q157.744 868.473 159.642 870.255 Q161.563 872.038 164.897 872.038 Q168.23 872.038 170.151 870.255 Q172.073 868.45 172.073 865.348 Q172.073 862.223 170.151 860.44 Q168.253 858.658 164.897 858.658 M160.221 856.667 Q157.211 855.927 155.522 853.866 Q153.855 851.806 153.855 848.843 Q153.855 844.7 156.795 842.292 Q159.758 839.885 164.897 839.885 Q170.059 839.885 172.998 842.292 Q175.938 844.7 175.938 848.843 Q175.938 851.806 174.248 853.866 Q172.582 855.927 169.596 856.667 Q172.975 857.454 174.85 859.746 Q176.748 862.038 176.748 865.348 Q176.748 870.371 173.67 873.056 Q170.614 875.741 164.897 875.741 Q159.179 875.741 156.1 873.056 Q153.045 870.371 153.045 865.348 Q153.045 862.038 154.943 859.746 Q156.841 857.454 160.221 856.667 M158.508 849.283 Q158.508 851.968 160.174 853.473 Q161.864 854.978 164.897 854.978 Q167.906 854.978 169.596 853.473 Q171.309 851.968 171.309 849.283 Q171.309 846.598 169.596 845.093 Q167.906 843.589 164.897 843.589 Q161.864 843.589 160.174 845.093 Q158.508 846.598 158.508 849.283 Z" fill="#000000" fill-rule="evenodd" fill-opacity="1" /><path clip-path="url(#clip120)" d="M 0 0 M195.059 843.589 Q191.447 843.589 189.619 847.153 Q187.813 850.695 187.813 857.825 Q187.813 864.931 189.619 868.496 Q191.447 872.038 195.059 872.038 Q198.693 872.038 200.498 868.496 Q202.327 864.931 202.327 857.825 Q202.327 850.695 200.498 847.153 Q198.693 843.589 195.059 843.589 M195.059 839.885 Q200.869 839.885 203.924 844.491 Q207.003 849.075 207.003 857.825 Q207.003 866.552 203.924 871.158 Q200.869 875.741 195.059 875.741 Q189.248 875.741 186.17 871.158 Q183.114 866.552 183.114 857.825 Q183.114 849.075 186.17 844.491 Q189.248 839.885 195.059 839.885 Z" fill="#000000" fill-rule="evenodd" fill-opacity="1" /><path clip-path="url(#clip120)" d="M 0 0 M70.9806 1088.62 Q70.9806 1090.69 75.5957 1090.69 L97.4301 1090.69 Q97.4301 1087.67 94.1199 1084.65 Q91.1599 1081.94 84.0621 1081.94 Q77.4418 1081.94 73.877 1084.68 Q70.9806 1086.91 70.9806 1088.62 M65.9835 1088.62 Q65.9835 1084.17 70.1849 1080.13 Q74.6727 1075.77 84.0621 1075.77 Q92.6876 1075.77 97.812 1080.13 Q102.65 1084.23 102.65 1090.69 L115.445 1090.69 L115.445 1096.52 L102.682 1096.52 Q102.682 1102.85 97.812 1107.12 Q92.8468 1111.45 84.0939 1111.45 Q74.991 1111.45 70.344 1107.12 Q66.8747 1103.87 65.9835 1098.59 L71.1715 1098.59 Q71.9036 1100.69 74.3862 1102.53 Q78.0465 1105.27 84.0939 1105.27 Q90.5233 1105.27 94.1836 1102.53 Q97.4619 1100.08 97.4619 1096.52 L75.5957 1096.52 Q65.9835 1096.52 65.9835 1088.62 Z" fill="#000000" fill-rule="evenodd" fill-opacity="1" /><polyline clip-path="url(#clip124)" style="stroke:#009af9; stroke-width:8; stroke-opacity:1; fill:none" points="
  302.713,1392.94 322.817,1392.56 342.922,1392.15 363.026,1391.69 383.13,1391.2 403.235,1390.65 423.339,1390.05 443.443,1389.39 463.548,1388.67 483.652,1387.88 
  503.757,1387.01 523.861,1386.06 543.965,1385.01 564.07,1383.86 584.174,1382.6 604.278,1381.22 624.383,1379.7 644.487,1378.04 664.592,1376.21 684.696,1374.21 
  704.8,1372.02 724.905,1369.61 745.009,1366.97 765.113,1364.07 785.218,1360.9 805.322,1357.42 825.427,1353.61 845.531,1349.44 865.635,1344.88 885.74,1339.89 
  905.844,1334.43 925.948,1328.47 946.053,1321.97 966.157,1314.88 986.262,1307.17 1006.37,1298.78 1026.47,1289.69 1046.57,1279.85 1066.68,1269.22 1086.78,1257.79 
  1106.89,1245.53 1126.99,1232.44 1147.1,1218.52 1167.2,1203.8 1187.31,1188.32 1207.41,1172.15 1227.51,1155.37 1247.62,1138.1 1267.72,1120.45 1287.83,1102.58 
  1307.93,1084.63 1328.04,1066.76 1348.14,1049.11 1368.24,1031.84 1388.35,1015.06 1408.45,998.889 1428.56,983.41 1448.66,968.688 1468.77,954.769 1488.87,941.676 
  1508.98,929.418 1529.08,917.986 1549.18,907.364 1569.29,897.523 1589.39,888.429 1609.5,880.046 1629.6,872.331 1649.71,865.243 1669.81,858.74 1689.91,852.78 
  1710.02,847.323 1730.12,842.331 1750.23,837.767 1770.33,833.597 1790.44,829.789 1810.54,826.312 1830.65,823.139 1850.75,820.244 1870.85,817.603 1890.96,815.195 
  1911.06,812.998 1931.17,810.996 1951.27,809.171 1971.38,807.507 1991.48,805.99 2011.58,804.608 2031.69,803.348 2051.79,802.199 2071.9,801.153 2092,800.199 
  2112.11,799.33 2132.21,798.539 2152.32,797.817 2172.42,797.16 2192.52,796.56 2212.63,796.014 2232.73,795.517 2252.84,795.064 2272.94,794.651 2293.05,794.274 
  
  "/>
</svg>
