<?xml version="1.0" encoding="utf-8"?>
<svg xmlns="http://www.w3.org/2000/svg" xmlns:xlink="http://www.w3.org/1999/xlink" width="600" height="400" viewBox="0 0 2400 1600">
<defs>
  <clipPath id="clip730">
    <rect x="0" y="0" width="2400" height="1600"/>
  </clipPath>
</defs>
<path clip-path="url(#clip730)" d="
M0 1600 L2400 1600 L2400 0 L0 0  Z
  " fill="#ffffff" fill-rule="evenodd" fill-opacity="1"/>
<defs>
  <clipPath id="clip731">
    <rect x="480" y="0" width="1681" height="1600"/>
  </clipPath>
</defs>
<path clip-path="url(#clip730)" d="
M296.444 1442.95 L2352.76 1442.95 L2352.76 47.2441 L296.444 47.2441  Z
  " fill="#ffffff" fill-rule="evenodd" fill-opacity="1"/>
<defs>
  <clipPath id="clip732">
    <rect x="296" y="47" width="2057" height="1397"/>
  </clipPath>
</defs>
<polyline clip-path="url(#clip732)" style="stroke:#000000; stroke-width:2; stroke-opacity:0.1; fill:none" points="
  354.642,1442.95 354.642,47.2441 
  "/>
<polyline clip-path="url(#clip732)" style="stroke:#000000; stroke-width:2; stroke-opacity:0.1; fill:none" points="
  742.625,1442.95 742.625,47.2441 
  "/>
<polyline clip-path="url(#clip732)" style="stroke:#000000; stroke-width:2; stroke-opacity:0.1; fill:none" points="
  1130.61,1442.95 1130.61,47.2441 
  "/>
<polyline clip-path="url(#clip732)" style="stroke:#000000; stroke-width:2; stroke-opacity:0.1; fill:none" points="
  1518.59,1442.95 1518.59,47.2441 
  "/>
<polyline clip-path="url(#clip732)" style="stroke:#000000; stroke-width:2; stroke-opacity:0.1; fill:none" points="
  1906.58,1442.95 1906.58,47.2441 
  "/>
<polyline clip-path="url(#clip732)" style="stroke:#000000; stroke-width:2; stroke-opacity:0.1; fill:none" points="
  2294.56,1442.95 2294.56,47.2441 
  "/>
<polyline clip-path="url(#clip730)" style="stroke:#000000; stroke-width:4; stroke-opacity:1; fill:none" points="
  296.444,1442.95 2352.76,1442.95 
  "/>
<polyline clip-path="url(#clip730)" style="stroke:#000000; stroke-width:4; stroke-opacity:1; fill:none" points="
  354.642,1442.95 354.642,1426.2 
  "/>
<polyline clip-path="url(#clip730)" style="stroke:#000000; stroke-width:4; stroke-opacity:1; fill:none" points="
  742.625,1442.95 742.625,1426.2 
  "/>
<polyline clip-path="url(#clip730)" style="stroke:#000000; stroke-width:4; stroke-opacity:1; fill:none" points="
  1130.61,1442.95 1130.61,1426.2 
  "/>
<polyline clip-path="url(#clip730)" style="stroke:#000000; stroke-width:4; stroke-opacity:1; fill:none" points="
  1518.59,1442.95 1518.59,1426.2 
  "/>
<polyline clip-path="url(#clip730)" style="stroke:#000000; stroke-width:4; stroke-opacity:1; fill:none" points="
  1906.58,1442.95 1906.58,1426.2 
  "/>
<polyline clip-path="url(#clip730)" style="stroke:#000000; stroke-width:4; stroke-opacity:1; fill:none" points="
  2294.56,1442.95 2294.56,1426.2 
  "/>
<path clip-path="url(#clip730)" d="M 0 0 M324.399 1486.79 L354.074 1486.79 L354.074 1490.73 L324.399 1490.73 L324.399 1486.79 Z" fill="#000000" fill-rule="evenodd" fill-opacity="1" /><path clip-path="url(#clip730)" d="M 0 0 M364.977 1499.69 L372.616 1499.69 L372.616 1473.32 L364.306 1474.99 L364.306 1470.73 L372.57 1469.06 L377.246 1469.06 L377.246 1499.69 L384.885 1499.69 L384.885 1503.62 L364.977 1503.62 L364.977 1499.69 Z" fill="#000000" fill-rule="evenodd" fill-opacity="1" /><path clip-path="url(#clip730)" d="M 0 0 M742.625 1472.14 Q739.014 1472.14 737.185 1475.71 Q735.38 1479.25 735.38 1486.38 Q735.38 1493.48 737.185 1497.05 Q739.014 1500.59 742.625 1500.59 Q746.259 1500.59 748.065 1497.05 Q749.893 1493.48 749.893 1486.38 Q749.893 1479.25 748.065 1475.71 Q746.259 1472.14 742.625 1472.14 M742.625 1468.44 Q748.435 1468.44 751.491 1473.04 Q754.569 1477.63 754.569 1486.38 Q754.569 1495.1 751.491 1499.71 Q748.435 1504.29 742.625 1504.29 Q736.815 1504.29 733.736 1499.71 Q730.681 1495.1 730.681 1486.38 Q730.681 1477.63 733.736 1473.04 Q736.815 1468.44 742.625 1468.44 Z" fill="#000000" fill-rule="evenodd" fill-opacity="1" /><path clip-path="url(#clip730)" d="M 0 0 M1120.99 1499.69 L1128.63 1499.69 L1128.63 1473.32 L1120.32 1474.99 L1120.32 1470.73 L1128.58 1469.06 L1133.26 1469.06 L1133.26 1499.69 L1140.9 1499.69 L1140.9 1503.62 L1120.99 1503.62 L1120.99 1499.69 Z" fill="#000000" fill-rule="evenodd" fill-opacity="1" /><path clip-path="url(#clip730)" d="M 0 0 M1513.24 1499.69 L1529.56 1499.69 L1529.56 1503.62 L1507.62 1503.62 L1507.62 1499.69 Q1510.28 1496.93 1514.86 1492.3 Q1519.47 1487.65 1520.65 1486.31 Q1522.9 1483.78 1523.78 1482.05 Q1524.68 1480.29 1524.68 1478.6 Q1524.68 1475.84 1522.74 1474.11 Q1520.81 1472.37 1517.71 1472.37 Q1515.51 1472.37 1513.06 1473.14 Q1510.63 1473.9 1507.85 1475.45 L1507.85 1470.73 Q1510.68 1469.59 1513.13 1469.02 Q1515.58 1468.44 1517.62 1468.44 Q1522.99 1468.44 1526.18 1471.12 Q1529.38 1473.81 1529.38 1478.3 Q1529.38 1480.43 1528.57 1482.35 Q1527.78 1484.25 1525.67 1486.84 Q1525.1 1487.51 1521.99 1490.73 Q1518.89 1493.92 1513.24 1499.69 Z" fill="#000000" fill-rule="evenodd" fill-opacity="1" /><path clip-path="url(#clip730)" d="M 0 0 M1910.82 1484.99 Q1914.18 1485.71 1916.05 1487.97 Q1917.95 1490.24 1917.95 1493.58 Q1917.95 1498.69 1914.43 1501.49 Q1910.92 1504.29 1904.43 1504.29 Q1902.26 1504.29 1899.94 1503.85 Q1897.65 1503.44 1895.2 1502.58 L1895.2 1498.07 Q1897.14 1499.2 1899.46 1499.78 Q1901.77 1500.36 1904.29 1500.36 Q1908.69 1500.36 1910.98 1498.62 Q1913.3 1496.89 1913.3 1493.58 Q1913.3 1490.52 1911.15 1488.81 Q1909.02 1487.07 1905.2 1487.07 L1901.17 1487.07 L1901.17 1483.23 L1905.38 1483.23 Q1908.83 1483.23 1910.66 1481.86 Q1912.49 1480.47 1912.49 1477.88 Q1912.49 1475.22 1910.59 1473.81 Q1908.72 1472.37 1905.2 1472.37 Q1903.28 1472.37 1901.08 1472.79 Q1898.88 1473.21 1896.24 1474.08 L1896.24 1469.92 Q1898.9 1469.18 1901.22 1468.81 Q1903.55 1468.44 1905.61 1468.44 Q1910.94 1468.44 1914.04 1470.87 Q1917.14 1473.27 1917.14 1477.4 Q1917.14 1480.27 1915.5 1482.26 Q1913.86 1484.22 1910.82 1484.99 Z" fill="#000000" fill-rule="evenodd" fill-opacity="1" /><path clip-path="url(#clip730)" d="M 0 0 M2297.57 1473.14 L2285.76 1491.58 L2297.57 1491.58 L2297.57 1473.14 M2296.34 1469.06 L2302.22 1469.06 L2302.22 1491.58 L2307.15 1491.58 L2307.15 1495.47 L2302.22 1495.47 L2302.22 1503.62 L2297.57 1503.62 L2297.57 1495.47 L2281.97 1495.47 L2281.97 1490.96 L2296.34 1469.06 Z" fill="#000000" fill-rule="evenodd" fill-opacity="1" /><path clip-path="url(#clip730)" d="M 0 0 M1333.07 1539.82 Q1333.07 1540.72 1332.65 1540.95 Q1332.23 1541.14 1331.07 1541.14 L1324.89 1541.14 L1320 1560.59 Q1319.61 1562.3 1319.61 1563.75 Q1319.61 1565.36 1320.09 1566.07 Q1320.61 1566.78 1321.67 1566.78 Q1323.76 1566.78 1326.02 1564.88 Q1328.3 1562.98 1330.24 1558.34 Q1330.49 1557.73 1330.62 1557.6 Q1330.78 1557.44 1331.2 1557.44 Q1332.01 1557.44 1332.01 1558.08 Q1332.01 1558.31 1331.56 1559.34 Q1331.14 1560.37 1330.2 1561.88 Q1329.3 1563.4 1328.11 1564.81 Q1326.95 1566.23 1325.18 1567.26 Q1323.41 1568.26 1321.51 1568.26 Q1318.84 1568.26 1317.13 1566.55 Q1315.45 1564.84 1315.45 1562.17 Q1315.45 1561.3 1316.13 1558.53 Q1316.81 1555.73 1320.48 1541.14 L1314.65 1541.14 Q1313.84 1541.14 1313.52 1541.11 Q1313.23 1541.08 1313.01 1540.92 Q1312.81 1540.72 1312.81 1540.34 Q1312.81 1539.72 1313.07 1539.47 Q1313.33 1539.18 1313.65 1539.14 Q1314.01 1539.08 1314.81 1539.08 L1320.99 1539.08 L1323.57 1528.61 Q1323.83 1527.58 1324.47 1527 Q1325.15 1526.39 1325.53 1526.33 Q1325.92 1526.23 1326.21 1526.23 Q1327.08 1526.23 1327.6 1526.71 Q1328.11 1527.16 1328.11 1528 Q1328.11 1528.45 1325.41 1539.08 L1331.2 1539.08 Q1331.94 1539.08 1332.23 1539.11 Q1332.56 1539.14 1332.81 1539.31 Q1333.07 1539.47 1333.07 1539.82 Z" fill="#000000" fill-rule="evenodd" fill-opacity="1" /><polyline clip-path="url(#clip732)" style="stroke:#000000; stroke-width:2; stroke-opacity:0.1; fill:none" points="
  296.444,1403.45 2352.76,1403.45 
  "/>
<polyline clip-path="url(#clip732)" style="stroke:#000000; stroke-width:2; stroke-opacity:0.1; fill:none" points="
  296.444,1074.27 2352.76,1074.27 
  "/>
<polyline clip-path="url(#clip732)" style="stroke:#000000; stroke-width:2; stroke-opacity:0.1; fill:none" points="
  296.444,745.097 2352.76,745.097 
  "/>
<polyline clip-path="url(#clip732)" style="stroke:#000000; stroke-width:2; stroke-opacity:0.1; fill:none" points="
  296.444,415.921 2352.76,415.921 
  "/>
<polyline clip-path="url(#clip732)" style="stroke:#000000; stroke-width:2; stroke-opacity:0.1; fill:none" points="
  296.444,86.7452 2352.76,86.7452 
  "/>
<polyline clip-path="url(#clip730)" style="stroke:#000000; stroke-width:4; stroke-opacity:1; fill:none" points="
  296.444,1442.95 296.444,47.2441 
  "/>
<polyline clip-path="url(#clip730)" style="stroke:#000000; stroke-width:4; stroke-opacity:1; fill:none" points="
  296.444,1403.45 321.12,1403.45 
  "/>
<polyline clip-path="url(#clip730)" style="stroke:#000000; stroke-width:4; stroke-opacity:1; fill:none" points="
  296.444,1074.27 321.12,1074.27 
  "/>
<polyline clip-path="url(#clip730)" style="stroke:#000000; stroke-width:4; stroke-opacity:1; fill:none" points="
  296.444,745.097 321.12,745.097 
  "/>
<polyline clip-path="url(#clip730)" style="stroke:#000000; stroke-width:4; stroke-opacity:1; fill:none" points="
  296.444,415.921 321.12,415.921 
  "/>
<polyline clip-path="url(#clip730)" style="stroke:#000000; stroke-width:4; stroke-opacity:1; fill:none" points="
  296.444,86.7452 321.12,86.7452 
  "/>
<path clip-path="url(#clip730)" d="M 0 0 M173.107 1389.25 Q169.496 1389.25 167.667 1392.81 Q165.861 1396.35 165.861 1403.48 Q165.861 1410.59 167.667 1414.15 Q169.496 1417.7 173.107 1417.7 Q176.741 1417.7 178.546 1414.15 Q180.375 1410.59 180.375 1403.48 Q180.375 1396.35 178.546 1392.81 Q176.741 1389.25 173.107 1389.25 M173.107 1385.54 Q178.917 1385.54 181.972 1390.15 Q185.051 1394.73 185.051 1403.48 Q185.051 1412.21 181.972 1416.82 Q178.917 1421.4 173.107 1421.4 Q167.296 1421.4 164.218 1416.82 Q161.162 1412.21 161.162 1403.48 Q161.162 1394.73 164.218 1390.15 Q167.296 1385.54 173.107 1385.54 Z" fill="#000000" fill-rule="evenodd" fill-opacity="1" /><path clip-path="url(#clip730)" d="M 0 0 M193.269 1414.85 L198.153 1414.85 L198.153 1420.73 L193.269 1420.73 L193.269 1414.85 Z" fill="#000000" fill-rule="evenodd" fill-opacity="1" /><path clip-path="url(#clip730)" d="M 0 0 M218.338 1389.25 Q214.727 1389.25 212.898 1392.81 Q211.093 1396.35 211.093 1403.48 Q211.093 1410.59 212.898 1414.15 Q214.727 1417.7 218.338 1417.7 Q221.972 1417.7 223.778 1414.15 Q225.606 1410.59 225.606 1403.48 Q225.606 1396.35 223.778 1392.81 Q221.972 1389.25 218.338 1389.25 M218.338 1385.54 Q224.148 1385.54 227.204 1390.15 Q230.282 1394.73 230.282 1403.48 Q230.282 1412.21 227.204 1416.82 Q224.148 1421.4 218.338 1421.4 Q212.528 1421.4 209.449 1416.82 Q206.393 1412.21 206.393 1403.48 Q206.393 1394.73 209.449 1390.15 Q212.528 1385.54 218.338 1385.54 Z" fill="#000000" fill-rule="evenodd" fill-opacity="1" /><path clip-path="url(#clip730)" d="M 0 0 M248.5 1389.25 Q244.889 1389.25 243.06 1392.81 Q241.254 1396.35 241.254 1403.48 Q241.254 1410.59 243.06 1414.15 Q244.889 1417.7 248.5 1417.7 Q252.134 1417.7 253.94 1414.15 Q255.768 1410.59 255.768 1403.48 Q255.768 1396.35 253.94 1392.81 Q252.134 1389.25 248.5 1389.25 M248.5 1385.54 Q254.31 1385.54 257.365 1390.15 Q260.444 1394.73 260.444 1403.48 Q260.444 1412.21 257.365 1416.82 Q254.31 1421.4 248.5 1421.4 Q242.69 1421.4 239.611 1416.82 Q236.555 1412.21 236.555 1403.48 Q236.555 1394.73 239.611 1390.15 Q242.69 1385.54 248.5 1385.54 Z" fill="#000000" fill-rule="evenodd" fill-opacity="1" /><path clip-path="url(#clip730)" d="M 0 0 M174.102 1060.07 Q170.491 1060.07 168.662 1063.64 Q166.857 1067.18 166.857 1074.31 Q166.857 1081.41 168.662 1084.98 Q170.491 1088.52 174.102 1088.52 Q177.736 1088.52 179.542 1084.98 Q181.37 1081.41 181.37 1074.31 Q181.37 1067.18 179.542 1063.64 Q177.736 1060.07 174.102 1060.07 M174.102 1056.37 Q179.912 1056.37 182.968 1060.97 Q186.046 1065.56 186.046 1074.31 Q186.046 1083.03 182.968 1087.64 Q179.912 1092.22 174.102 1092.22 Q168.292 1092.22 165.213 1087.64 Q162.158 1083.03 162.158 1074.31 Q162.158 1065.56 165.213 1060.97 Q168.292 1056.37 174.102 1056.37 Z" fill="#000000" fill-rule="evenodd" fill-opacity="1" /><path clip-path="url(#clip730)" d="M 0 0 M194.264 1085.67 L199.148 1085.67 L199.148 1091.55 L194.264 1091.55 L194.264 1085.67 Z" fill="#000000" fill-rule="evenodd" fill-opacity="1" /><path clip-path="url(#clip730)" d="M 0 0 M213.361 1087.62 L229.68 1087.62 L229.68 1091.55 L207.736 1091.55 L207.736 1087.62 Q210.398 1084.86 214.981 1080.23 Q219.588 1075.58 220.768 1074.24 Q223.014 1071.71 223.893 1069.98 Q224.796 1068.22 224.796 1066.53 Q224.796 1063.78 222.852 1062.04 Q220.93 1060.3 217.829 1060.3 Q215.63 1060.3 213.176 1061.07 Q210.745 1061.83 207.968 1063.38 L207.968 1058.66 Q210.792 1057.53 213.245 1056.95 Q215.699 1056.37 217.736 1056.37 Q223.106 1056.37 226.301 1059.05 Q229.495 1061.74 229.495 1066.23 Q229.495 1068.36 228.685 1070.28 Q227.898 1072.18 225.792 1074.77 Q225.213 1075.44 222.111 1078.66 Q219.009 1081.85 213.361 1087.62 Z" fill="#000000" fill-rule="evenodd" fill-opacity="1" /><path clip-path="url(#clip730)" d="M 0 0 M239.541 1056.99 L257.898 1056.99 L257.898 1060.93 L243.824 1060.93 L243.824 1069.4 Q244.842 1069.05 245.861 1068.89 Q246.879 1068.71 247.898 1068.71 Q253.685 1068.71 257.065 1071.88 Q260.444 1075.05 260.444 1080.46 Q260.444 1086.04 256.972 1089.15 Q253.5 1092.22 247.18 1092.22 Q245.004 1092.22 242.736 1091.85 Q240.491 1091.48 238.083 1090.74 L238.083 1086.04 Q240.166 1087.18 242.389 1087.73 Q244.611 1088.29 247.088 1088.29 Q251.092 1088.29 253.43 1086.18 Q255.768 1084.08 255.768 1080.46 Q255.768 1076.85 253.43 1074.75 Q251.092 1072.64 247.088 1072.64 Q245.213 1072.64 243.338 1073.06 Q241.486 1073.47 239.541 1074.35 L239.541 1056.99 Z" fill="#000000" fill-rule="evenodd" fill-opacity="1" /><path clip-path="url(#clip730)" d="M 0 0 M173.107 730.896 Q169.496 730.896 167.667 734.46 Q165.861 738.002 165.861 745.132 Q165.861 752.238 167.667 755.803 Q169.496 759.345 173.107 759.345 Q176.741 759.345 178.546 755.803 Q180.375 752.238 180.375 745.132 Q180.375 738.002 178.546 734.46 Q176.741 730.896 173.107 730.896 M173.107 727.192 Q178.917 727.192 181.972 731.798 Q185.051 736.382 185.051 745.132 Q185.051 753.858 181.972 758.465 Q178.917 763.048 173.107 763.048 Q167.296 763.048 164.218 758.465 Q161.162 753.858 161.162 745.132 Q161.162 736.382 164.218 731.798 Q167.296 727.192 173.107 727.192 Z" fill="#000000" fill-rule="evenodd" fill-opacity="1" /><path clip-path="url(#clip730)" d="M 0 0 M193.269 756.497 L198.153 756.497 L198.153 762.377 L193.269 762.377 L193.269 756.497 Z" fill="#000000" fill-rule="evenodd" fill-opacity="1" /><path clip-path="url(#clip730)" d="M 0 0 M208.384 727.817 L226.741 727.817 L226.741 731.752 L212.667 731.752 L212.667 740.224 Q213.685 739.877 214.704 739.715 Q215.722 739.53 216.741 739.53 Q222.528 739.53 225.907 742.701 Q229.287 745.872 229.287 751.289 Q229.287 756.868 225.815 759.97 Q222.342 763.048 216.023 763.048 Q213.847 763.048 211.579 762.678 Q209.333 762.308 206.926 761.567 L206.926 756.868 Q209.009 758.002 211.231 758.558 Q213.454 759.113 215.93 759.113 Q219.935 759.113 222.273 757.007 Q224.611 754.9 224.611 751.289 Q224.611 747.678 222.273 745.572 Q219.935 743.465 215.93 743.465 Q214.055 743.465 212.18 743.882 Q210.329 744.298 208.384 745.178 L208.384 727.817 Z" fill="#000000" fill-rule="evenodd" fill-opacity="1" /><path clip-path="url(#clip730)" d="M 0 0 M248.5 730.896 Q244.889 730.896 243.06 734.46 Q241.254 738.002 241.254 745.132 Q241.254 752.238 243.06 755.803 Q244.889 759.345 248.5 759.345 Q252.134 759.345 253.94 755.803 Q255.768 752.238 255.768 745.132 Q255.768 738.002 253.94 734.46 Q252.134 730.896 248.5 730.896 M248.5 727.192 Q254.31 727.192 257.365 731.798 Q260.444 736.382 260.444 745.132 Q260.444 753.858 257.365 758.465 Q254.31 763.048 248.5 763.048 Q242.69 763.048 239.611 758.465 Q236.555 753.858 236.555 745.132 Q236.555 736.382 239.611 731.798 Q242.69 727.192 248.5 727.192 Z" fill="#000000" fill-rule="evenodd" fill-opacity="1" /><path clip-path="url(#clip730)" d="M 0 0 M174.102 401.72 Q170.491 401.72 168.662 405.285 Q166.857 408.826 166.857 415.956 Q166.857 423.062 168.662 426.627 Q170.491 430.169 174.102 430.169 Q177.736 430.169 179.542 426.627 Q181.37 423.062 181.37 415.956 Q181.37 408.826 179.542 405.285 Q177.736 401.72 174.102 401.72 M174.102 398.016 Q179.912 398.016 182.968 402.623 Q186.046 407.206 186.046 415.956 Q186.046 424.683 182.968 429.289 Q179.912 433.872 174.102 433.872 Q168.292 433.872 165.213 429.289 Q162.158 424.683 162.158 415.956 Q162.158 407.206 165.213 402.623 Q168.292 398.016 174.102 398.016 Z" fill="#000000" fill-rule="evenodd" fill-opacity="1" /><path clip-path="url(#clip730)" d="M 0 0 M194.264 427.321 L199.148 427.321 L199.148 433.201 L194.264 433.201 L194.264 427.321 Z" fill="#000000" fill-rule="evenodd" fill-opacity="1" /><path clip-path="url(#clip730)" d="M 0 0 M208.153 398.641 L230.375 398.641 L230.375 400.632 L217.829 433.201 L212.944 433.201 L224.75 402.576 L208.153 402.576 L208.153 398.641 Z" fill="#000000" fill-rule="evenodd" fill-opacity="1" /><path clip-path="url(#clip730)" d="M 0 0 M239.541 398.641 L257.898 398.641 L257.898 402.576 L243.824 402.576 L243.824 411.048 Q244.842 410.701 245.861 410.539 Q246.879 410.354 247.898 410.354 Q253.685 410.354 257.065 413.525 Q260.444 416.697 260.444 422.113 Q260.444 427.692 256.972 430.794 Q253.5 433.872 247.18 433.872 Q245.004 433.872 242.736 433.502 Q240.491 433.132 238.083 432.391 L238.083 427.692 Q240.166 428.826 242.389 429.382 Q244.611 429.937 247.088 429.937 Q251.092 429.937 253.43 427.831 Q255.768 425.724 255.768 422.113 Q255.768 418.502 253.43 416.396 Q251.092 414.289 247.088 414.289 Q245.213 414.289 243.338 414.706 Q241.486 415.122 239.541 416.002 L239.541 398.641 Z" fill="#000000" fill-rule="evenodd" fill-opacity="1" /><path clip-path="url(#clip730)" d="M 0 0 M163.917 100.09 L171.556 100.09 L171.556 73.7244 L163.246 75.3911 L163.246 71.1319 L171.509 69.4652 L176.185 69.4652 L176.185 100.09 L183.824 100.09 L183.824 104.025 L163.917 104.025 L163.917 100.09 Z" fill="#000000" fill-rule="evenodd" fill-opacity="1" /><path clip-path="url(#clip730)" d="M 0 0 M193.269 98.1456 L198.153 98.1456 L198.153 104.025 L193.269 104.025 L193.269 98.1456 Z" fill="#000000" fill-rule="evenodd" fill-opacity="1" /><path clip-path="url(#clip730)" d="M 0 0 M218.338 72.5439 Q214.727 72.5439 212.898 76.1087 Q211.093 79.6503 211.093 86.7799 Q211.093 93.8864 212.898 97.4512 Q214.727 100.993 218.338 100.993 Q221.972 100.993 223.778 97.4512 Q225.606 93.8864 225.606 86.7799 Q225.606 79.6503 223.778 76.1087 Q221.972 72.5439 218.338 72.5439 M218.338 68.8402 Q224.148 68.8402 227.204 73.4467 Q230.282 78.03 230.282 86.7799 Q230.282 95.5067 227.204 100.113 Q224.148 104.696 218.338 104.696 Q212.528 104.696 209.449 100.113 Q206.393 95.5067 206.393 86.7799 Q206.393 78.03 209.449 73.4467 Q212.528 68.8402 218.338 68.8402 Z" fill="#000000" fill-rule="evenodd" fill-opacity="1" /><path clip-path="url(#clip730)" d="M 0 0 M248.5 72.5439 Q244.889 72.5439 243.06 76.1087 Q241.254 79.6503 241.254 86.7799 Q241.254 93.8864 243.06 97.4512 Q244.889 100.993 248.5 100.993 Q252.134 100.993 253.94 97.4512 Q255.768 93.8864 255.768 86.7799 Q255.768 79.6503 253.94 76.1087 Q252.134 72.5439 248.5 72.5439 M248.5 68.8402 Q254.31 68.8402 257.365 73.4467 Q260.444 78.03 260.444 86.7799 Q260.444 95.5067 257.365 100.113 Q254.31 104.696 248.5 104.696 Q242.69 104.696 239.611 100.113 Q236.555 95.5067 236.555 86.7799 Q236.555 78.03 239.611 73.4467 Q242.69 68.8402 248.5 68.8402 Z" fill="#000000" fill-rule="evenodd" fill-opacity="1" /><path clip-path="url(#clip730)" d="M 0 0 M4.72819 760.232 Q6.49951 760.232 7.59451 761.36 Q8.68951 762.455 8.68951 763.839 Q8.68951 764.838 8.0776 765.579 Q7.46569 766.287 6.4029 766.287 Q5.3079 766.287 4.14849 765.45 Q2.98907 764.612 2.82805 762.712 Q1.63643 763.968 1.63643 765.965 Q1.63643 766.963 2.28055 767.801 Q2.89246 768.606 3.89084 769.057 Q4.92143 769.54 10.7507 770.635 Q12.6508 770.989 14.4866 771.311 Q16.3223 771.633 18.2547 772.02 L18.2547 766.545 Q18.2547 765.836 18.2869 765.546 Q18.3191 765.256 18.4801 765.031 Q18.6411 764.773 18.9954 764.773 Q19.8972 764.773 20.1226 765.192 Q20.3158 765.579 20.3158 766.738 L20.3158 772.406 L41.2174 776.368 Q41.8293 776.464 43.7617 776.883 Q45.6618 777.269 48.7858 778.203 Q51.942 779.137 53.8099 780.071 Q54.8727 780.586 55.8711 781.263 Q56.9017 781.907 57.9323 782.841 Q58.9629 783.775 59.5748 784.999 Q60.2189 786.223 60.2189 787.511 Q60.2189 789.701 58.9951 791.408 Q57.7712 793.115 55.6779 793.115 Q53.9065 793.115 52.8115 792.02 Q51.7165 790.892 51.7165 789.508 Q51.7165 788.509 52.3285 787.801 Q52.9404 787.06 54.0032 787.06 Q54.454 787.06 54.9693 787.221 Q55.4846 787.382 56.0643 787.736 Q56.6762 788.09 57.0949 788.863 Q57.5136 789.636 57.578 790.699 Q58.7696 789.443 58.7696 787.511 Q58.7696 786.899 58.512 786.351 Q58.2865 785.804 57.7068 785.353 Q57.1271 784.87 56.5474 784.516 Q55.9999 784.161 54.9371 783.807 Q53.9065 783.453 53.1336 783.227 Q52.3607 783.002 50.9758 782.712 Q49.591 782.39 48.7536 782.229 Q47.9485 782.068 46.3704 781.778 L20.3158 776.851 L20.3158 781.198 Q20.3158 781.971 20.2836 782.293 Q20.2514 782.583 20.0904 782.809 Q19.8972 783.034 19.5107 783.034 Q18.8988 783.034 18.6411 782.776 Q18.3513 782.487 18.3191 782.165 Q18.2547 781.843 18.2547 781.07 L18.2547 776.496 Q10.1066 774.95 7.91657 774.339 Q5.59775 773.63 3.98746 772.535 Q2.34496 771.44 1.57202 770.216 Q0.799076 768.992 0.509223 767.994 Q0.187165 766.963 0.187165 765.965 Q0.187165 763.711 1.41099 761.972 Q2.6026 760.232 4.72819 760.232 Z" fill="#000000" fill-rule="evenodd" fill-opacity="1" /><path clip-path="url(#clip730)" d="M 0 0 M30.203 761.12 Q19.0598 761.12 10.0744 756.966 Q6.30628 755.195 3.1501 752.715 Q-0.00607061 750.235 -1.39092 748.592 Q-2.77577 746.95 -2.77577 746.499 Q-2.77577 745.855 -2.13166 745.823 Q-1.8096 745.823 -1.00445 746.692 Q9.81672 757.32 30.203 757.288 Q50.6537 757.288 61.0562 746.95 Q62.1834 745.823 62.5377 745.823 Q63.1818 745.823 63.1818 746.499 Q63.1818 746.95 61.8614 748.528 Q60.5409 750.106 57.5136 752.554 Q54.4862 755.001 50.7826 756.773 Q41.7971 761.12 30.203 761.12 Z" fill="#000000" fill-rule="evenodd" fill-opacity="1" /><path clip-path="url(#clip730)" d="M 0 0 M18.9954 715.535 Q19.8972 715.535 20.1226 715.954 Q20.3158 716.373 20.3158 717.532 L20.3158 723.716 L39.7682 728.611 Q41.4751 728.998 42.9243 728.998 Q44.5346 728.998 45.2432 728.514 Q45.9517 727.999 45.9517 726.936 Q45.9517 724.843 44.0515 722.589 Q42.1514 720.302 37.5138 718.37 Q36.9018 718.112 36.773 717.983 Q36.612 717.822 36.612 717.403 Q36.612 716.598 37.2561 716.598 Q37.4816 716.598 38.5121 717.049 Q39.5427 717.468 41.0564 718.402 Q42.5701 719.304 43.9871 720.495 Q45.4042 721.655 46.4348 723.426 Q47.4332 725.197 47.4332 727.097 Q47.4332 729.77 45.7263 731.477 Q44.0193 733.152 41.3463 733.152 Q40.4767 733.152 37.707 732.476 Q34.9051 731.799 20.3158 728.128 L20.3158 733.957 Q20.3158 734.762 20.2836 735.084 Q20.2514 735.374 20.0904 735.6 Q19.8972 735.793 19.5107 735.793 Q18.8988 735.793 18.6411 735.535 Q18.3513 735.278 18.3191 734.956 Q18.2547 734.601 18.2547 733.796 L18.2547 727.613 L7.78775 725.036 Q6.75716 724.779 6.17745 724.134 Q5.56554 723.458 5.50113 723.072 Q5.40451 722.685 5.40451 722.395 Q5.40451 721.526 5.8876 721.01 Q6.33848 720.495 7.17584 720.495 Q7.62672 720.495 18.2547 723.2 L18.2547 717.403 Q18.2547 716.663 18.2869 716.373 Q18.3191 716.051 18.4801 715.793 Q18.6411 715.535 18.9954 715.535 Z" fill="#000000" fill-rule="evenodd" fill-opacity="1" /><path clip-path="url(#clip730)" d="M 0 0 M62.5377 712.22 Q62.2157 712.22 61.4105 711.383 Q50.5893 700.755 30.203 700.755 Q9.75231 700.755 -0.585776 710.964 Q-1.77739 712.22 -2.13166 712.22 Q-2.77577 712.22 -2.77577 711.576 Q-2.77577 711.125 -1.45533 709.547 Q-0.134894 707.937 2.89246 705.521 Q5.91981 703.074 9.62348 701.27 Q18.6089 696.922 30.203 696.922 Q41.3463 696.922 50.3317 701.077 Q54.0998 702.848 57.256 705.328 Q60.4121 707.808 61.797 709.45 Q63.1818 711.093 63.1818 711.576 Q63.1818 712.22 62.5377 712.22 Z" fill="#000000" fill-rule="evenodd" fill-opacity="1" /><path clip-path="url(#clip730)" d="
M80.6206 793.115 L80.6206 690.039 L77.1006 690.039 L77.1006 793.115  Z
  " fill="#000000" fill-rule="evenodd" fill-opacity="1"/>
<path clip-path="url(#clip730)" d="M 0 0 M95.0103 712.028 Q95.9443 712.028 96.1375 712.447 Q96.3307 712.833 96.3307 714.122 Q96.3307 715.635 96.4596 716.569 Q96.5562 717.503 96.7172 718.083 Q96.846 718.663 97.2969 719.017 Q97.7478 719.339 98.1343 719.468 Q98.4885 719.597 99.3581 719.822 L134.495 728.582 Q135.686 728.904 136.105 728.904 Q136.524 728.904 136.781 728.646 Q137.039 728.357 137.168 727.648 Q137.264 726.939 137.297 726.392 Q137.297 725.812 137.297 724.621 Q137.297 723.139 137.554 722.914 Q137.715 722.785 138.005 722.785 Q138.617 722.785 138.939 723.043 Q139.229 723.3 139.293 723.526 Q139.326 723.719 139.326 724.041 Q139.326 725.394 139.229 728.163 Q139.132 730.933 139.132 732.286 L139.326 740.466 Q139.326 741.432 138.52 741.432 Q137.908 741.432 137.651 741.174 Q137.361 740.917 137.329 740.627 Q137.297 740.337 137.297 739.596 Q137.297 736.955 137.007 735.828 Q136.717 734.669 136.202 734.347 Q135.654 733.993 134.173 733.606 L96.3951 724.17 L96.3951 724.234 L138.134 750.868 L138.424 751.062 Q138.681 751.255 138.778 751.319 Q138.842 751.384 139.036 751.577 Q139.197 751.738 139.261 751.931 Q139.326 752.092 139.326 752.318 Q139.326 752.704 139.068 752.93 Q138.81 753.123 138.617 753.187 Q138.392 753.219 137.812 753.316 L96.9104 758.984 L96.9104 759.049 L132.852 768.034 Q133.851 768.292 134.366 768.292 Q135.686 768.292 136.491 767.358 Q137.264 766.392 137.297 763.815 Q137.297 762.624 138.005 762.624 Q139.326 762.624 139.326 763.815 Q139.326 764.91 139.229 767.197 Q139.132 769.483 139.132 770.611 Q139.132 771.706 139.229 773.928 Q139.326 776.118 139.326 777.181 Q139.326 778.115 138.52 778.115 Q137.297 778.115 137.297 776.923 Q137.232 774.991 136.846 773.67 Q136.459 772.35 135.718 771.609 Q134.978 770.836 134.237 770.482 Q133.464 770.095 132.337 769.805 L98.7462 761.432 Q97.6834 761.174 97.5223 761.174 Q96.9748 761.174 96.7816 761.496 Q96.5562 761.786 96.4596 762.624 Q96.3307 764.234 96.3307 765.458 Q96.3307 766.263 96.2985 766.585 Q96.2663 766.875 96.1053 767.132 Q95.9121 767.358 95.5256 767.358 Q94.9137 767.358 94.656 767.1 Q94.3662 766.81 94.334 766.488 Q94.2696 766.166 94.2696 765.393 L94.2696 756.343 Q94.2696 755.023 94.495 754.733 Q94.6882 754.443 95.7832 754.314 L133.11 749.162 L95.5256 725.072 Q94.5916 724.46 94.4306 724.138 Q94.2696 723.815 94.2696 722.527 L94.2696 713.799 Q94.2696 713.091 94.3018 712.801 Q94.334 712.511 94.495 712.286 Q94.656 712.028 95.0103 712.028 Z" fill="#000000" fill-rule="evenodd" fill-opacity="1" /><polyline clip-path="url(#clip732)" style="stroke:#009af9; stroke-width:8; stroke-opacity:1; fill:none" points="
  354.642,1403.45 364.114,1403.45 373.586,1403.45 461.173,1403.45 548.759,1403.45 601.395,1403.45 654.031,1403.45 676.282,1403.45 698.534,1403.45 709.659,1403.45 
  720.785,1403.45 726.348,1403.45 731.911,1403.45 734.692,1403.45 737.474,1403.45 738.864,1403.45 740.255,1403.45 740.95,1403.45 741.646,1403.45 742.341,1403.45 
  743.036,86.7452 743.792,86.7452 744.547,86.7452 745.303,86.7452 746.058,86.7452 747.569,86.7452 749.079,86.7452 752.101,86.7452 755.122,86.7452 761.165,86.7452 
  767.208,86.7452 779.293,86.7452 791.379,86.7452 815.55,86.7452 839.722,86.7452 884.289,86.7452 928.857,86.7452 1024.42,86.7452 1135.14,86.7452 1233.53,86.7452 
  1319.81,86.7452 1413.88,86.7452 1508.51,86.7452 1613.14,86.7452 1712.69,86.7452 1816.19,86.7452 1903.33,86.7452 2009.7,86.7452 2109.7,86.7452 2269.9,86.7452 
  2294.56,86.7452 
  "/>
</svg>
