<?xml version="1.0" encoding="utf-8"?>
<svg xmlns="http://www.w3.org/2000/svg" xmlns:xlink="http://www.w3.org/1999/xlink" width="600" height="400" viewBox="0 0 2400 1600">
<defs>
  <clipPath id="clip510">
    <rect x="0" y="0" width="2400" height="1600"/>
  </clipPath>
</defs>
<path clip-path="url(#clip510)" d="
M0 1600 L2400 1600 L2400 0 L0 0  Z
  " fill="#ffffff" fill-rule="evenodd" fill-opacity="1"/>
<defs>
  <clipPath id="clip511">
    <rect x="480" y="0" width="1681" height="1600"/>
  </clipPath>
</defs>
<path clip-path="url(#clip510)" d="
M296.444 1402.52 L2352.76 1402.52 L2352.76 47.2441 L296.444 47.2441  Z
  " fill="#ffffff" fill-rule="evenodd" fill-opacity="1"/>
<defs>
  <clipPath id="clip512">
    <rect x="296" y="47" width="2057" height="1356"/>
  </clipPath>
</defs>
<polyline clip-path="url(#clip512)" style="stroke:#000000; stroke-width:2; stroke-opacity:0.1; fill:none" points="
  409.545,1402.52 409.545,47.2441 
  "/>
<polyline clip-path="url(#clip512)" style="stroke:#000000; stroke-width:2; stroke-opacity:0.1; fill:none" points="
  714.563,1402.52 714.563,47.2441 
  "/>
<polyline clip-path="url(#clip512)" style="stroke:#000000; stroke-width:2; stroke-opacity:0.1; fill:none" points="
  1019.58,1402.52 1019.58,47.2441 
  "/>
<polyline clip-path="url(#clip512)" style="stroke:#000000; stroke-width:2; stroke-opacity:0.1; fill:none" points="
  1324.6,1402.52 1324.6,47.2441 
  "/>
<polyline clip-path="url(#clip512)" style="stroke:#000000; stroke-width:2; stroke-opacity:0.1; fill:none" points="
  1629.62,1402.52 1629.62,47.2441 
  "/>
<polyline clip-path="url(#clip512)" style="stroke:#000000; stroke-width:2; stroke-opacity:0.1; fill:none" points="
  1934.64,1402.52 1934.64,47.2441 
  "/>
<polyline clip-path="url(#clip512)" style="stroke:#000000; stroke-width:2; stroke-opacity:0.1; fill:none" points="
  2239.66,1402.52 2239.66,47.2441 
  "/>
<polyline clip-path="url(#clip510)" style="stroke:#000000; stroke-width:4; stroke-opacity:1; fill:none" points="
  296.444,1402.52 2352.76,1402.52 
  "/>
<polyline clip-path="url(#clip510)" style="stroke:#000000; stroke-width:4; stroke-opacity:1; fill:none" points="
  409.545,1402.52 409.545,1386.25 
  "/>
<polyline clip-path="url(#clip510)" style="stroke:#000000; stroke-width:4; stroke-opacity:1; fill:none" points="
  714.563,1402.52 714.563,1386.25 
  "/>
<polyline clip-path="url(#clip510)" style="stroke:#000000; stroke-width:4; stroke-opacity:1; fill:none" points="
  1019.58,1402.52 1019.58,1386.25 
  "/>
<polyline clip-path="url(#clip510)" style="stroke:#000000; stroke-width:4; stroke-opacity:1; fill:none" points="
  1324.6,1402.52 1324.6,1386.25 
  "/>
<polyline clip-path="url(#clip510)" style="stroke:#000000; stroke-width:4; stroke-opacity:1; fill:none" points="
  1629.62,1402.52 1629.62,1386.25 
  "/>
<polyline clip-path="url(#clip510)" style="stroke:#000000; stroke-width:4; stroke-opacity:1; fill:none" points="
  1934.64,1402.52 1934.64,1386.25 
  "/>
<polyline clip-path="url(#clip510)" style="stroke:#000000; stroke-width:4; stroke-opacity:1; fill:none" points="
  2239.66,1402.52 2239.66,1386.25 
  "/>
<path clip-path="url(#clip510)" d="M 0 0 M409.545 1431.71 Q405.934 1431.71 404.105 1435.27 Q402.3 1438.81 402.3 1445.94 Q402.3 1453.05 404.105 1456.62 Q405.934 1460.16 409.545 1460.16 Q413.179 1460.16 414.985 1456.62 Q416.813 1453.05 416.813 1445.94 Q416.813 1438.81 414.985 1435.27 Q413.179 1431.71 409.545 1431.71 M409.545 1428 Q415.355 1428 418.411 1432.61 Q421.489 1437.19 421.489 1445.94 Q421.489 1454.67 418.411 1459.28 Q415.355 1463.86 409.545 1463.86 Q403.735 1463.86 400.656 1459.28 Q397.601 1454.67 397.601 1445.94 Q397.601 1437.19 400.656 1432.61 Q403.735 1428 409.545 1428 Z" fill="#000000" fill-rule="evenodd" fill-opacity="1" /><path clip-path="url(#clip510)" d="M 0 0 M704.945 1459.25 L712.584 1459.25 L712.584 1432.89 L704.274 1434.56 L704.274 1430.3 L712.538 1428.63 L717.214 1428.63 L717.214 1459.25 L724.853 1459.25 L724.853 1463.19 L704.945 1463.19 L704.945 1459.25 Z" fill="#000000" fill-rule="evenodd" fill-opacity="1" /><path clip-path="url(#clip510)" d="M 0 0 M1014.23 1459.25 L1030.55 1459.25 L1030.55 1463.19 L1008.61 1463.19 L1008.61 1459.25 Q1011.27 1456.5 1015.85 1451.87 Q1020.46 1447.22 1021.64 1445.87 Q1023.89 1443.35 1024.77 1441.62 Q1025.67 1439.86 1025.67 1438.17 Q1025.67 1435.41 1023.73 1433.68 Q1021.8 1431.94 1018.7 1431.94 Q1016.5 1431.94 1014.05 1432.7 Q1011.62 1433.47 1008.84 1435.02 L1008.84 1430.3 Q1011.67 1429.16 1014.12 1428.58 Q1016.57 1428 1018.61 1428 Q1023.98 1428 1027.17 1430.69 Q1030.37 1433.37 1030.37 1437.87 Q1030.37 1440 1029.56 1441.92 Q1028.77 1443.81 1026.66 1446.41 Q1026.09 1447.08 1022.98 1450.3 Q1019.88 1453.49 1014.23 1459.25 Z" fill="#000000" fill-rule="evenodd" fill-opacity="1" /><path clip-path="url(#clip510)" d="M 0 0 M1328.85 1444.56 Q1332.2 1445.27 1334.08 1447.54 Q1335.98 1449.81 1335.98 1453.14 Q1335.98 1458.26 1332.46 1461.06 Q1328.94 1463.86 1322.46 1463.86 Q1320.28 1463.86 1317.97 1463.42 Q1315.68 1463 1313.22 1462.15 L1313.22 1457.63 Q1315.17 1458.77 1317.48 1459.35 Q1319.8 1459.93 1322.32 1459.93 Q1326.72 1459.93 1329.01 1458.19 Q1331.32 1456.45 1331.32 1453.14 Q1331.32 1450.09 1329.17 1448.37 Q1327.04 1446.64 1323.22 1446.64 L1319.19 1446.64 L1319.19 1442.8 L1323.41 1442.8 Q1326.86 1442.8 1328.69 1441.43 Q1330.51 1440.04 1330.51 1437.45 Q1330.51 1434.79 1328.62 1433.37 Q1326.74 1431.94 1323.22 1431.94 Q1321.3 1431.94 1319.1 1432.36 Q1316.9 1432.77 1314.26 1433.65 L1314.26 1429.49 Q1316.93 1428.75 1319.24 1428.37 Q1321.58 1428 1323.64 1428 Q1328.96 1428 1332.07 1430.43 Q1335.17 1432.84 1335.17 1436.96 Q1335.17 1439.83 1333.52 1441.82 Q1331.88 1443.79 1328.85 1444.56 Z" fill="#000000" fill-rule="evenodd" fill-opacity="1" /><path clip-path="url(#clip510)" d="M 0 0 M1632.63 1432.7 L1620.82 1451.15 L1632.63 1451.15 L1632.63 1432.7 M1631.4 1428.63 L1637.28 1428.63 L1637.28 1451.15 L1642.21 1451.15 L1642.21 1455.04 L1637.28 1455.04 L1637.28 1463.19 L1632.63 1463.19 L1632.63 1455.04 L1617.03 1455.04 L1617.03 1450.53 L1631.4 1428.63 Z" fill="#000000" fill-rule="evenodd" fill-opacity="1" /><path clip-path="url(#clip510)" d="M 0 0 M1924.91 1428.63 L1943.27 1428.63 L1943.27 1432.56 L1929.2 1432.56 L1929.2 1441.04 Q1930.22 1440.69 1931.23 1440.53 Q1932.25 1440.34 1933.27 1440.34 Q1939.06 1440.34 1942.44 1443.51 Q1945.82 1446.68 1945.82 1452.1 Q1945.82 1457.68 1942.35 1460.78 Q1938.87 1463.86 1932.55 1463.86 Q1930.38 1463.86 1928.11 1463.49 Q1925.86 1463.12 1923.46 1462.38 L1923.46 1457.68 Q1925.54 1458.81 1927.76 1459.37 Q1929.98 1459.93 1932.46 1459.93 Q1936.47 1459.93 1938.8 1457.82 Q1941.14 1455.71 1941.14 1452.1 Q1941.14 1448.49 1938.8 1446.38 Q1936.47 1444.28 1932.46 1444.28 Q1930.59 1444.28 1928.71 1444.69 Q1926.86 1445.11 1924.91 1445.99 L1924.91 1428.63 Z" fill="#000000" fill-rule="evenodd" fill-opacity="1" /><path clip-path="url(#clip510)" d="M 0 0 M2240.06 1444.05 Q2236.91 1444.05 2235.06 1446.2 Q2233.23 1448.35 2233.23 1452.1 Q2233.23 1455.83 2235.06 1458 Q2236.91 1460.16 2240.06 1460.16 Q2243.21 1460.16 2245.04 1458 Q2246.89 1455.83 2246.89 1452.1 Q2246.89 1448.35 2245.04 1446.2 Q2243.21 1444.05 2240.06 1444.05 M2249.34 1429.39 L2249.34 1433.65 Q2247.58 1432.82 2245.78 1432.38 Q2244 1431.94 2242.24 1431.94 Q2237.61 1431.94 2235.15 1435.06 Q2232.72 1438.19 2232.38 1444.51 Q2233.74 1442.5 2235.8 1441.43 Q2237.86 1440.34 2240.34 1440.34 Q2245.55 1440.34 2248.56 1443.51 Q2251.59 1446.66 2251.59 1452.1 Q2251.59 1457.43 2248.44 1460.64 Q2245.29 1463.86 2240.06 1463.86 Q2234.06 1463.86 2230.89 1459.28 Q2227.72 1454.67 2227.72 1445.94 Q2227.72 1437.75 2231.61 1432.89 Q2235.5 1428 2242.05 1428 Q2243.81 1428 2245.59 1428.35 Q2247.4 1428.7 2249.34 1429.39 Z" fill="#000000" fill-rule="evenodd" fill-opacity="1" /><path clip-path="url(#clip510)" d="M 0 0 M1335.04 1493.32 Q1335.04 1494.23 1334.62 1494.45 Q1334.2 1494.64 1333.04 1494.64 L1326.86 1494.64 L1321.96 1514.1 Q1321.58 1515.8 1321.58 1517.25 Q1321.58 1518.86 1322.06 1519.57 Q1322.57 1520.28 1323.64 1520.28 Q1325.73 1520.28 1327.98 1518.38 Q1330.27 1516.48 1332.2 1511.84 Q1332.46 1511.23 1332.59 1511.1 Q1332.75 1510.94 1333.17 1510.94 Q1333.97 1510.94 1333.97 1511.58 Q1333.97 1511.81 1333.52 1512.84 Q1333.1 1513.87 1332.17 1515.38 Q1331.27 1516.9 1330.08 1518.32 Q1328.92 1519.73 1327.15 1520.76 Q1325.38 1521.76 1323.48 1521.76 Q1320.8 1521.76 1319.1 1520.05 Q1317.42 1518.35 1317.42 1515.67 Q1317.42 1514.8 1318.1 1512.04 Q1318.77 1509.23 1322.44 1494.64 L1316.62 1494.64 Q1315.81 1494.64 1315.49 1494.61 Q1315.2 1494.58 1314.97 1494.42 Q1314.78 1494.23 1314.78 1493.84 Q1314.78 1493.23 1315.04 1492.97 Q1315.29 1492.68 1315.62 1492.65 Q1315.97 1492.58 1316.78 1492.58 L1322.96 1492.58 L1325.54 1482.12 Q1325.79 1481.09 1326.44 1480.51 Q1327.11 1479.89 1327.5 1479.83 Q1327.89 1479.73 1328.18 1479.73 Q1329.05 1479.73 1329.56 1480.22 Q1330.08 1480.67 1330.08 1481.5 Q1330.08 1481.95 1327.37 1492.58 L1333.17 1492.58 Q1333.91 1492.58 1334.2 1492.62 Q1334.52 1492.65 1334.78 1492.81 Q1335.04 1492.97 1335.04 1493.32 Z" fill="#000000" fill-rule="evenodd" fill-opacity="1" /><path clip-path="url(#clip510)" d="
M1308.78 1539.35 L1347.46 1539.35 L1347.46 1535.83 L1308.78 1535.83  Z
  " fill="#000000" fill-rule="evenodd" fill-opacity="1"/>
<path clip-path="url(#clip510)" d="M 0 0 M1340.73 1554.75 Q1340.73 1557 1337.48 1557 L1326.4 1557 L1321.98 1579.58 Q1321.89 1580.16 1321.76 1580.48 Q1321.66 1580.8 1321.37 1581.35 Q1321.11 1581.86 1320.57 1582.12 Q1320.05 1582.41 1319.28 1582.41 Q1318.31 1582.41 1317.83 1581.83 Q1317.38 1581.28 1317.38 1580.61 Q1317.38 1580.19 1318.02 1578.19 L1324.5 1557 L1319.02 1557 Q1313.87 1557 1310.65 1562.09 Q1310.13 1562.77 1309.84 1562.83 Q1309.71 1562.86 1309.58 1562.86 Q1309.23 1562.86 1309.01 1562.7 Q1308.81 1562.54 1308.81 1562.38 L1308.78 1562.22 Q1308.78 1561.99 1309.29 1561.09 Q1309.84 1560.16 1310.81 1558.77 Q1311.81 1557.39 1312.81 1556.29 Q1314.13 1554.88 1315.61 1554.14 Q1317.09 1553.36 1317.83 1553.27 Q1318.6 1553.17 1319.6 1553.17 L1338.09 1553.17 Q1338.92 1553.17 1339.38 1553.23 Q1339.83 1553.27 1340.28 1553.65 Q1340.73 1554.01 1340.73 1554.75 Z" fill="#000000" fill-rule="evenodd" fill-opacity="1" /><polyline clip-path="url(#clip512)" style="stroke:#000000; stroke-width:2; stroke-opacity:0.1; fill:none" points="
  296.444,1364.16 2352.76,1364.16 
  "/>
<polyline clip-path="url(#clip512)" style="stroke:#000000; stroke-width:2; stroke-opacity:0.1; fill:none" points="
  296.444,1043.86 2352.76,1043.86 
  "/>
<polyline clip-path="url(#clip512)" style="stroke:#000000; stroke-width:2; stroke-opacity:0.1; fill:none" points="
  296.444,723.554 2352.76,723.554 
  "/>
<polyline clip-path="url(#clip512)" style="stroke:#000000; stroke-width:2; stroke-opacity:0.1; fill:none" points="
  296.444,403.251 2352.76,403.251 
  "/>
<polyline clip-path="url(#clip512)" style="stroke:#000000; stroke-width:2; stroke-opacity:0.1; fill:none" points="
  296.444,82.9482 2352.76,82.9482 
  "/>
<polyline clip-path="url(#clip510)" style="stroke:#000000; stroke-width:4; stroke-opacity:1; fill:none" points="
  296.444,1402.52 296.444,47.2441 
  "/>
<polyline clip-path="url(#clip510)" style="stroke:#000000; stroke-width:4; stroke-opacity:1; fill:none" points="
  296.444,1364.16 321.12,1364.16 
  "/>
<polyline clip-path="url(#clip510)" style="stroke:#000000; stroke-width:4; stroke-opacity:1; fill:none" points="
  296.444,1043.86 321.12,1043.86 
  "/>
<polyline clip-path="url(#clip510)" style="stroke:#000000; stroke-width:4; stroke-opacity:1; fill:none" points="
  296.444,723.554 321.12,723.554 
  "/>
<polyline clip-path="url(#clip510)" style="stroke:#000000; stroke-width:4; stroke-opacity:1; fill:none" points="
  296.444,403.251 321.12,403.251 
  "/>
<polyline clip-path="url(#clip510)" style="stroke:#000000; stroke-width:4; stroke-opacity:1; fill:none" points="
  296.444,82.9482 321.12,82.9482 
  "/>
<path clip-path="url(#clip510)" d="M 0 0 M173.107 1349.96 Q169.496 1349.96 167.667 1353.52 Q165.861 1357.07 165.861 1364.2 Q165.861 1371.3 167.667 1374.87 Q169.496 1378.41 173.107 1378.41 Q176.741 1378.41 178.546 1374.87 Q180.375 1371.3 180.375 1364.2 Q180.375 1357.07 178.546 1353.52 Q176.741 1349.96 173.107 1349.96 M173.107 1346.26 Q178.917 1346.26 181.972 1350.86 Q185.051 1355.45 185.051 1364.2 Q185.051 1372.92 181.972 1377.53 Q178.917 1382.11 173.107 1382.11 Q167.296 1382.11 164.218 1377.53 Q161.162 1372.92 161.162 1364.2 Q161.162 1355.45 164.218 1350.86 Q167.296 1346.26 173.107 1346.26 Z" fill="#000000" fill-rule="evenodd" fill-opacity="1" /><path clip-path="url(#clip510)" d="M 0 0 M193.269 1375.56 L198.153 1375.56 L198.153 1381.44 L193.269 1381.44 L193.269 1375.56 Z" fill="#000000" fill-rule="evenodd" fill-opacity="1" /><path clip-path="url(#clip510)" d="M 0 0 M218.338 1349.96 Q214.727 1349.96 212.898 1353.52 Q211.093 1357.07 211.093 1364.2 Q211.093 1371.3 212.898 1374.87 Q214.727 1378.41 218.338 1378.41 Q221.972 1378.41 223.778 1374.87 Q225.606 1371.3 225.606 1364.2 Q225.606 1357.07 223.778 1353.52 Q221.972 1349.96 218.338 1349.96 M218.338 1346.26 Q224.148 1346.26 227.204 1350.86 Q230.282 1355.45 230.282 1364.2 Q230.282 1372.92 227.204 1377.53 Q224.148 1382.11 218.338 1382.11 Q212.528 1382.11 209.449 1377.53 Q206.393 1372.92 206.393 1364.2 Q206.393 1355.45 209.449 1350.86 Q212.528 1346.26 218.338 1346.26 Z" fill="#000000" fill-rule="evenodd" fill-opacity="1" /><path clip-path="url(#clip510)" d="M 0 0 M248.5 1349.96 Q244.889 1349.96 243.06 1353.52 Q241.254 1357.07 241.254 1364.2 Q241.254 1371.3 243.06 1374.87 Q244.889 1378.41 248.5 1378.41 Q252.134 1378.41 253.94 1374.87 Q255.768 1371.3 255.768 1364.2 Q255.768 1357.07 253.94 1353.52 Q252.134 1349.96 248.5 1349.96 M248.5 1346.26 Q254.31 1346.26 257.365 1350.86 Q260.444 1355.45 260.444 1364.2 Q260.444 1372.92 257.365 1377.53 Q254.31 1382.11 248.5 1382.11 Q242.69 1382.11 239.611 1377.53 Q236.555 1372.92 236.555 1364.2 Q236.555 1355.45 239.611 1350.86 Q242.69 1346.26 248.5 1346.26 Z" fill="#000000" fill-rule="evenodd" fill-opacity="1" /><path clip-path="url(#clip510)" d="M 0 0 M174.102 1029.66 Q170.491 1029.66 168.662 1033.22 Q166.857 1036.76 166.857 1043.89 Q166.857 1051 168.662 1054.56 Q170.491 1058.11 174.102 1058.11 Q177.736 1058.11 179.542 1054.56 Q181.37 1051 181.37 1043.89 Q181.37 1036.76 179.542 1033.22 Q177.736 1029.66 174.102 1029.66 M174.102 1025.95 Q179.912 1025.95 182.968 1030.56 Q186.046 1035.14 186.046 1043.89 Q186.046 1052.62 182.968 1057.23 Q179.912 1061.81 174.102 1061.81 Q168.292 1061.81 165.213 1057.23 Q162.158 1052.62 162.158 1043.89 Q162.158 1035.14 165.213 1030.56 Q168.292 1025.95 174.102 1025.95 Z" fill="#000000" fill-rule="evenodd" fill-opacity="1" /><path clip-path="url(#clip510)" d="M 0 0 M194.264 1055.26 L199.148 1055.26 L199.148 1061.14 L194.264 1061.14 L194.264 1055.26 Z" fill="#000000" fill-rule="evenodd" fill-opacity="1" /><path clip-path="url(#clip510)" d="M 0 0 M213.361 1057.2 L229.68 1057.2 L229.68 1061.14 L207.736 1061.14 L207.736 1057.2 Q210.398 1054.45 214.981 1049.82 Q219.588 1045.17 220.768 1043.82 Q223.014 1041.3 223.893 1039.56 Q224.796 1037.8 224.796 1036.11 Q224.796 1033.36 222.852 1031.62 Q220.93 1029.89 217.829 1029.89 Q215.63 1029.89 213.176 1030.65 Q210.745 1031.42 207.968 1032.97 L207.968 1028.24 Q210.792 1027.11 213.245 1026.53 Q215.699 1025.95 217.736 1025.95 Q223.106 1025.95 226.301 1028.64 Q229.495 1031.32 229.495 1035.81 Q229.495 1037.94 228.685 1039.86 Q227.898 1041.76 225.792 1044.36 Q225.213 1045.03 222.111 1048.24 Q219.009 1051.44 213.361 1057.2 Z" fill="#000000" fill-rule="evenodd" fill-opacity="1" /><path clip-path="url(#clip510)" d="M 0 0 M239.541 1026.58 L257.898 1026.58 L257.898 1030.51 L243.824 1030.51 L243.824 1038.98 Q244.842 1038.64 245.861 1038.48 Q246.879 1038.29 247.898 1038.29 Q253.685 1038.29 257.065 1041.46 Q260.444 1044.63 260.444 1050.05 Q260.444 1055.63 256.972 1058.73 Q253.5 1061.81 247.18 1061.81 Q245.004 1061.81 242.736 1061.44 Q240.491 1061.07 238.083 1060.33 L238.083 1055.63 Q240.166 1056.76 242.389 1057.32 Q244.611 1057.87 247.088 1057.87 Q251.092 1057.87 253.43 1055.77 Q255.768 1053.66 255.768 1050.05 Q255.768 1046.44 253.43 1044.33 Q251.092 1042.23 247.088 1042.23 Q245.213 1042.23 243.338 1042.64 Q241.486 1043.06 239.541 1043.94 L239.541 1026.58 Z" fill="#000000" fill-rule="evenodd" fill-opacity="1" /><path clip-path="url(#clip510)" d="M 0 0 M173.107 709.353 Q169.496 709.353 167.667 712.918 Q165.861 716.46 165.861 723.589 Q165.861 730.696 167.667 734.26 Q169.496 737.802 173.107 737.802 Q176.741 737.802 178.546 734.26 Q180.375 730.696 180.375 723.589 Q180.375 716.46 178.546 712.918 Q176.741 709.353 173.107 709.353 M173.107 705.649 Q178.917 705.649 181.972 710.256 Q185.051 714.839 185.051 723.589 Q185.051 732.316 181.972 736.922 Q178.917 741.506 173.107 741.506 Q167.296 741.506 164.218 736.922 Q161.162 732.316 161.162 723.589 Q161.162 714.839 164.218 710.256 Q167.296 705.649 173.107 705.649 Z" fill="#000000" fill-rule="evenodd" fill-opacity="1" /><path clip-path="url(#clip510)" d="M 0 0 M193.269 734.955 L198.153 734.955 L198.153 740.834 L193.269 740.834 L193.269 734.955 Z" fill="#000000" fill-rule="evenodd" fill-opacity="1" /><path clip-path="url(#clip510)" d="M 0 0 M208.384 706.274 L226.741 706.274 L226.741 710.21 L212.667 710.21 L212.667 718.682 Q213.685 718.335 214.704 718.172 Q215.722 717.987 216.741 717.987 Q222.528 717.987 225.907 721.159 Q229.287 724.33 229.287 729.746 Q229.287 735.325 225.815 738.427 Q222.342 741.506 216.023 741.506 Q213.847 741.506 211.579 741.135 Q209.333 740.765 206.926 740.024 L206.926 735.325 Q209.009 736.459 211.231 737.015 Q213.454 737.571 215.93 737.571 Q219.935 737.571 222.273 735.464 Q224.611 733.358 224.611 729.746 Q224.611 726.135 222.273 724.029 Q219.935 721.922 215.93 721.922 Q214.055 721.922 212.18 722.339 Q210.329 722.756 208.384 723.635 L208.384 706.274 Z" fill="#000000" fill-rule="evenodd" fill-opacity="1" /><path clip-path="url(#clip510)" d="M 0 0 M248.5 709.353 Q244.889 709.353 243.06 712.918 Q241.254 716.46 241.254 723.589 Q241.254 730.696 243.06 734.26 Q244.889 737.802 248.5 737.802 Q252.134 737.802 253.94 734.26 Q255.768 730.696 255.768 723.589 Q255.768 716.46 253.94 712.918 Q252.134 709.353 248.5 709.353 M248.5 705.649 Q254.31 705.649 257.365 710.256 Q260.444 714.839 260.444 723.589 Q260.444 732.316 257.365 736.922 Q254.31 741.506 248.5 741.506 Q242.69 741.506 239.611 736.922 Q236.555 732.316 236.555 723.589 Q236.555 714.839 239.611 710.256 Q242.69 705.649 248.5 705.649 Z" fill="#000000" fill-rule="evenodd" fill-opacity="1" /><path clip-path="url(#clip510)" d="M 0 0 M174.102 389.05 Q170.491 389.05 168.662 392.615 Q166.857 396.156 166.857 403.286 Q166.857 410.392 168.662 413.957 Q170.491 417.499 174.102 417.499 Q177.736 417.499 179.542 413.957 Q181.37 410.392 181.37 403.286 Q181.37 396.156 179.542 392.615 Q177.736 389.05 174.102 389.05 M174.102 385.346 Q179.912 385.346 182.968 389.953 Q186.046 394.536 186.046 403.286 Q186.046 412.013 182.968 416.619 Q179.912 421.203 174.102 421.203 Q168.292 421.203 165.213 416.619 Q162.158 412.013 162.158 403.286 Q162.158 394.536 165.213 389.953 Q168.292 385.346 174.102 385.346 Z" fill="#000000" fill-rule="evenodd" fill-opacity="1" /><path clip-path="url(#clip510)" d="M 0 0 M194.264 414.652 L199.148 414.652 L199.148 420.531 L194.264 420.531 L194.264 414.652 Z" fill="#000000" fill-rule="evenodd" fill-opacity="1" /><path clip-path="url(#clip510)" d="M 0 0 M208.153 385.971 L230.375 385.971 L230.375 387.962 L217.829 420.531 L212.944 420.531 L224.75 389.906 L208.153 389.906 L208.153 385.971 Z" fill="#000000" fill-rule="evenodd" fill-opacity="1" /><path clip-path="url(#clip510)" d="M 0 0 M239.541 385.971 L257.898 385.971 L257.898 389.906 L243.824 389.906 L243.824 398.379 Q244.842 398.031 245.861 397.869 Q246.879 397.684 247.898 397.684 Q253.685 397.684 257.065 400.855 Q260.444 404.027 260.444 409.443 Q260.444 415.022 256.972 418.124 Q253.5 421.203 247.18 421.203 Q245.004 421.203 242.736 420.832 Q240.491 420.462 238.083 419.721 L238.083 415.022 Q240.166 416.156 242.389 416.712 Q244.611 417.267 247.088 417.267 Q251.092 417.267 253.43 415.161 Q255.768 413.054 255.768 409.443 Q255.768 405.832 253.43 403.726 Q251.092 401.619 247.088 401.619 Q245.213 401.619 243.338 402.036 Q241.486 402.453 239.541 403.332 L239.541 385.971 Z" fill="#000000" fill-rule="evenodd" fill-opacity="1" /><path clip-path="url(#clip510)" d="M 0 0 M163.917 96.2931 L171.556 96.2931 L171.556 69.9275 L163.246 71.5941 L163.246 67.3349 L171.509 65.6682 L176.185 65.6682 L176.185 96.2931 L183.824 96.2931 L183.824 100.228 L163.917 100.228 L163.917 96.2931 Z" fill="#000000" fill-rule="evenodd" fill-opacity="1" /><path clip-path="url(#clip510)" d="M 0 0 M193.269 94.3486 L198.153 94.3486 L198.153 100.228 L193.269 100.228 L193.269 94.3486 Z" fill="#000000" fill-rule="evenodd" fill-opacity="1" /><path clip-path="url(#clip510)" d="M 0 0 M218.338 68.7469 Q214.727 68.7469 212.898 72.3117 Q211.093 75.8534 211.093 82.9829 Q211.093 90.0894 212.898 93.6542 Q214.727 97.1958 218.338 97.1958 Q221.972 97.1958 223.778 93.6542 Q225.606 90.0894 225.606 82.9829 Q225.606 75.8534 223.778 72.3117 Q221.972 68.7469 218.338 68.7469 M218.338 65.0432 Q224.148 65.0432 227.204 69.6497 Q230.282 74.233 230.282 82.9829 Q230.282 91.7098 227.204 96.3162 Q224.148 100.9 218.338 100.9 Q212.528 100.9 209.449 96.3162 Q206.393 91.7098 206.393 82.9829 Q206.393 74.233 209.449 69.6497 Q212.528 65.0432 218.338 65.0432 Z" fill="#000000" fill-rule="evenodd" fill-opacity="1" /><path clip-path="url(#clip510)" d="M 0 0 M248.5 68.7469 Q244.889 68.7469 243.06 72.3117 Q241.254 75.8534 241.254 82.9829 Q241.254 90.0894 243.06 93.6542 Q244.889 97.1958 248.5 97.1958 Q252.134 97.1958 253.94 93.6542 Q255.768 90.0894 255.768 82.9829 Q255.768 75.8534 253.94 72.3117 Q252.134 68.7469 248.5 68.7469 M248.5 65.0432 Q254.31 65.0432 257.365 69.6497 Q260.444 74.233 260.444 82.9829 Q260.444 91.7098 257.365 96.3162 Q254.31 100.9 248.5 100.9 Q242.69 100.9 239.611 96.3162 Q236.555 91.7098 236.555 82.9829 Q236.555 74.233 239.611 69.6497 Q242.69 65.0432 248.5 65.0432 Z" fill="#000000" fill-rule="evenodd" fill-opacity="1" /><path clip-path="url(#clip510)" d="M 0 0 M20.0582 742.893 Q20.5091 742.893 21.5719 743.182 L46.7568 749.495 Q52.3607 750.88 56.2898 755.388 Q60.2189 759.865 60.2189 764.954 Q60.2189 768.013 58.5764 769.978 Q56.9661 771.942 54.4862 771.942 Q52.2962 771.942 51.2335 770.783 Q50.2029 769.623 50.2029 768.239 Q50.2029 767.788 50.3317 767.305 Q50.4605 766.821 51.008 766.306 Q51.5555 765.791 52.4895 765.791 Q54.0032 765.791 55.1948 767.111 Q55.7423 767.755 55.8711 768.367 Q55.9999 768.947 55.9999 769.945 Q56.9017 769.559 57.5136 768.85 Q58.1255 768.142 58.351 767.337 Q58.6086 766.532 58.673 766.016 Q58.7696 765.469 58.7696 764.954 Q58.7696 760.831 54.6151 757.675 Q53.359 756.741 52.103 756.065 Q50.8792 755.356 49.3655 754.841 Q47.884 754.326 47.0789 754.1 Q46.2738 753.843 44.438 753.392 Q47.4332 756.387 47.4332 760.058 Q47.4332 761.604 47.0145 762.989 Q46.5958 764.342 45.7263 765.533 Q44.8245 766.725 43.2464 767.433 Q41.6683 768.11 39.5749 768.11 Q37.3527 768.11 34.3254 767.24 Q31.298 766.371 25.7264 764.277 Q22.6024 763.15 21.0888 763.15 Q20.348 763.15 19.8972 763.311 Q19.4141 763.472 19.253 763.794 Q19.0598 764.116 19.0276 764.309 Q18.9954 764.47 18.9954 764.793 Q18.9954 766.693 20.9277 768.464 Q22.8601 770.235 27.1757 771.459 Q27.9808 771.717 28.1741 771.878 Q28.3673 772.039 28.3673 772.522 Q28.3351 773.327 27.691 773.327 Q27.4333 773.327 26.4349 773.037 Q25.4044 772.747 23.8907 772.071 Q22.3448 771.363 20.9599 770.396 Q19.5429 769.43 18.5445 767.916 Q17.5461 766.371 17.5461 764.599 Q17.5461 762.184 19.1242 760.702 Q20.6701 759.189 22.9567 759.189 Q23.8907 759.189 24.728 759.446 Q25.5332 759.672 27.691 760.509 Q36.3866 763.891 40.6377 763.891 Q41.6683 763.891 42.5379 763.73 Q43.3752 763.536 44.2126 763.118 Q45.0177 762.699 45.5008 761.862 Q45.9517 760.992 45.9517 759.801 Q45.9517 758.287 45.2432 756.87 Q44.5024 755.421 43.504 754.519 Q42.5057 753.585 41.6683 753.037 Q40.7988 752.458 40.3479 752.329 L28.4961 749.366 L23.2144 748.045 Q20.348 747.434 19.6395 747.144 Q18.9632 746.757 18.6089 746.081 Q18.2547 745.405 18.2547 744.825 Q18.2547 744.02 18.7377 743.472 Q19.2208 742.893 20.0582 742.893 Z" fill="#000000" fill-rule="evenodd" fill-opacity="1" /><path clip-path="url(#clip510)" d="M 0 0 M30.203 741.333 Q19.0598 741.333 10.0744 737.178 Q6.30628 735.407 3.1501 732.927 Q-0.00607061 730.447 -1.39092 728.805 Q-2.77577 727.162 -2.77577 726.711 Q-2.77577 726.067 -2.13166 726.035 Q-1.8096 726.035 -1.00445 726.905 Q9.81672 737.533 30.203 737.5 Q50.6537 737.5 61.0562 727.162 Q62.1834 726.035 62.5377 726.035 Q63.1818 726.035 63.1818 726.711 Q63.1818 727.162 61.8614 728.74 Q60.5409 730.318 57.5136 732.766 Q54.4862 735.214 50.7826 736.985 Q41.7971 741.333 30.203 741.333 Z" fill="#000000" fill-rule="evenodd" fill-opacity="1" /><path clip-path="url(#clip510)" d="M 0 0 M18.9954 695.748 Q19.8972 695.748 20.1226 696.167 Q20.3158 696.585 20.3158 697.745 L20.3158 703.928 L39.7682 708.824 Q41.4751 709.21 42.9243 709.21 Q44.5346 709.21 45.2432 708.727 Q45.9517 708.212 45.9517 707.149 Q45.9517 705.055 44.0515 702.801 Q42.1514 700.514 37.5138 698.582 Q36.9018 698.324 36.773 698.196 Q36.612 698.035 36.612 697.616 Q36.612 696.811 37.2561 696.811 Q37.4816 696.811 38.5121 697.262 Q39.5427 697.68 41.0564 698.614 Q42.5701 699.516 43.9871 700.708 Q45.4042 701.867 46.4348 703.638 Q47.4332 705.41 47.4332 707.31 Q47.4332 709.983 45.7263 711.69 Q44.0193 713.365 41.3463 713.365 Q40.4767 713.365 37.707 712.688 Q34.9051 712.012 20.3158 708.34 L20.3158 714.17 Q20.3158 714.975 20.2836 715.297 Q20.2514 715.587 20.0904 715.812 Q19.8972 716.005 19.5107 716.005 Q18.8988 716.005 18.6411 715.748 Q18.3513 715.49 18.3191 715.168 Q18.2547 714.814 18.2547 714.009 L18.2547 707.825 L7.78775 705.249 Q6.75716 704.991 6.17745 704.347 Q5.56554 703.671 5.50113 703.284 Q5.40451 702.898 5.40451 702.608 Q5.40451 701.738 5.8876 701.223 Q6.33848 700.708 7.17584 700.708 Q7.62672 700.708 18.2547 703.413 L18.2547 697.616 Q18.2547 696.875 18.2869 696.585 Q18.3191 696.263 18.4801 696.006 Q18.6411 695.748 18.9954 695.748 Z" fill="#000000" fill-rule="evenodd" fill-opacity="1" /><path clip-path="url(#clip510)" d="M 0 0 M62.5377 692.432 Q62.2157 692.432 61.4105 691.595 Q50.5893 680.967 30.203 680.967 Q9.75231 680.967 -0.585776 691.176 Q-1.77739 692.432 -2.13166 692.432 Q-2.77577 692.432 -2.77577 691.788 Q-2.77577 691.337 -1.45533 689.759 Q-0.134894 688.149 2.89246 685.734 Q5.91981 683.286 9.62348 681.483 Q18.6089 677.135 30.203 677.135 Q41.3463 677.135 50.3317 681.289 Q54.0998 683.061 57.256 685.54 Q60.4121 688.02 61.797 689.663 Q63.1818 691.305 63.1818 691.788 Q63.1818 692.432 62.5377 692.432 Z" fill="#000000" fill-rule="evenodd" fill-opacity="1" /><path clip-path="url(#clip510)" d="
M80.6206 785.327 L80.6206 657.394 L77.1006 657.394 L77.1006 785.327  Z
  " fill="#000000" fill-rule="evenodd" fill-opacity="1"/>
<path clip-path="url(#clip510)" d="M 0 0 M95.0103 729.192 Q95.429 729.192 95.7188 729.289 Q95.9765 729.385 96.1053 729.611 Q96.2341 729.836 96.2663 729.965 Q96.2985 730.094 96.3307 730.384 Q96.4596 731.769 96.685 732.735 Q96.9104 733.669 98.0698 735.988 Q99.2293 738.274 101.323 741.141 L110.244 752.67 L111.757 754.603 Q111.854 754.603 112.047 754.538 Q112.208 754.474 112.434 754.409 Q112.627 754.313 112.691 754.281 L134.301 744.909 Q136.041 744.168 136.652 743.266 Q137.264 742.364 137.297 740.335 Q137.297 740.013 137.329 739.885 Q137.329 739.724 137.393 739.498 Q137.425 739.24 137.586 739.144 Q137.747 739.015 138.005 739.015 Q139.326 739.015 139.326 740.207 Q139.326 740.947 139.229 743.459 Q139.132 745.972 139.132 746.68 Q139.132 748 139.229 750.706 Q139.326 753.411 139.326 754.732 Q139.326 755.665 138.585 755.665 Q137.973 755.665 137.683 755.44 Q137.361 755.182 137.329 754.957 Q137.297 754.732 137.297 754.216 Q137.297 753.83 137.264 753.411 Q137.2 752.96 137.039 752.316 Q136.846 751.64 136.395 751.221 Q135.912 750.77 135.235 750.77 Q134.688 750.77 132.917 751.575 L115.171 759.208 L122.836 769.031 L133.206 771.672 Q133.593 771.736 134.269 771.897 Q134.946 772.058 135.429 772.187 Q135.912 772.284 136.105 772.284 Q136.524 772.284 136.781 772.026 Q137.039 771.736 137.168 771.028 Q137.264 770.319 137.297 769.772 Q137.297 769.192 137.297 768 Q137.297 766.519 137.554 766.261 Q137.715 766.132 138.005 766.132 Q138.456 766.132 138.778 766.261 Q139.068 766.39 139.165 766.648 Q139.261 766.873 139.293 767.034 Q139.326 767.195 139.326 767.453 Q139.326 768.129 139.261 769.578 Q139.197 770.995 139.197 771.736 L139.132 775.955 L139.326 784.329 Q139.326 785.327 138.52 785.327 Q137.908 785.327 137.651 785.069 Q137.361 784.812 137.329 784.522 Q137.297 784.232 137.297 783.491 Q137.297 781.881 137.2 780.915 Q137.103 779.949 136.975 779.337 Q136.813 778.693 136.363 778.371 Q135.912 778.016 135.525 777.855 Q135.107 777.694 134.173 777.469 L98.7462 768.644 Q97.6834 768.387 97.5223 768.387 Q96.9748 768.387 96.7816 768.709 Q96.5562 768.999 96.4596 769.836 Q96.3307 771.446 96.3307 772.67 Q96.3307 773.475 96.2985 773.797 Q96.2663 774.087 96.1053 774.345 Q95.9121 774.57 95.5256 774.57 Q94.2696 774.57 94.2696 773.25 L94.4628 764.748 L94.2696 756.31 Q94.2696 755.376 95.0103 755.376 Q95.9443 755.376 96.1375 755.827 Q96.3307 756.245 96.3307 757.63 Q96.3307 760.045 96.6528 761.14 Q96.9426 762.203 97.4579 762.525 Q97.941 762.815 99.3581 763.169 L120.517 768.451 L100.743 742.719 Q98.7462 740.335 97.7156 740.335 Q97.0393 740.335 96.7494 740.819 Q96.4273 741.269 96.3307 742.397 Q96.2019 743.202 95.59 743.202 Q94.9781 743.202 94.6882 742.976 Q94.3662 742.719 94.334 742.525 Q94.2696 742.3 94.2696 741.946 Q94.2696 740.754 94.3662 738.274 Q94.4628 735.794 94.4628 734.603 Q94.4628 733.798 94.3662 732.22 Q94.2696 730.642 94.2696 729.933 Q94.2696 729.579 94.5272 729.385 Q94.7526 729.192 95.0103 729.192 Z" fill="#000000" fill-rule="evenodd" fill-opacity="1" /><path clip-path="url(#clip510)" d="M 0 0 M95.0103 663.801 Q95.9443 663.801 96.1375 664.22 Q96.3307 664.606 96.3307 665.894 Q96.3307 667.408 96.4596 668.342 Q96.5562 669.276 96.7172 669.856 Q96.846 670.435 97.2969 670.79 Q97.7478 671.112 98.1343 671.241 Q98.4885 671.369 99.3581 671.595 L134.495 680.355 Q135.686 680.677 136.105 680.677 Q136.524 680.677 136.781 680.419 Q137.039 680.129 137.168 679.421 Q137.264 678.712 137.297 678.165 Q137.297 677.585 137.297 676.394 Q137.297 674.912 137.554 674.687 Q137.715 674.558 138.005 674.558 Q138.617 674.558 138.939 674.815 Q139.229 675.073 139.293 675.299 Q139.326 675.492 139.326 675.814 Q139.326 677.166 139.229 679.936 Q139.132 682.706 139.132 684.059 L139.326 692.239 Q139.326 693.205 138.52 693.205 Q137.908 693.205 137.651 692.947 Q137.361 692.69 137.329 692.4 Q137.297 692.11 137.297 691.369 Q137.297 688.728 137.007 687.601 Q136.717 686.442 136.202 686.12 Q135.654 685.765 134.173 685.379 L96.3951 675.943 L96.3951 676.007 L138.134 702.641 L138.424 702.835 Q138.681 703.028 138.778 703.092 Q138.842 703.157 139.036 703.35 Q139.197 703.511 139.261 703.704 Q139.326 703.865 139.326 704.091 Q139.326 704.477 139.068 704.703 Q138.81 704.896 138.617 704.96 Q138.392 704.992 137.812 705.089 L96.9104 710.757 L96.9104 710.822 L132.852 719.807 Q133.851 720.065 134.366 720.065 Q135.686 720.065 136.491 719.131 Q137.264 718.165 137.297 715.588 Q137.297 714.396 138.005 714.396 Q139.326 714.396 139.326 715.588 Q139.326 716.683 139.229 718.97 Q139.132 721.256 139.132 722.384 Q139.132 723.479 139.229 725.701 Q139.326 727.891 139.326 728.954 Q139.326 729.887 138.52 729.887 Q137.297 729.887 137.297 728.696 Q137.232 726.764 136.846 725.443 Q136.459 724.123 135.718 723.382 Q134.978 722.609 134.237 722.255 Q133.464 721.868 132.337 721.578 L98.7462 713.205 Q97.6834 712.947 97.5223 712.947 Q96.9748 712.947 96.7816 713.269 Q96.5562 713.559 96.4596 714.396 Q96.3307 716.007 96.3307 717.231 Q96.3307 718.036 96.2985 718.358 Q96.2663 718.648 96.1053 718.905 Q95.9121 719.131 95.5256 719.131 Q94.9137 719.131 94.656 718.873 Q94.3662 718.583 94.334 718.261 Q94.2696 717.939 94.2696 717.166 L94.2696 708.116 Q94.2696 706.796 94.495 706.506 Q94.6882 706.216 95.7832 706.087 L133.11 700.934 L95.5256 676.844 Q94.5916 676.233 94.4306 675.91 Q94.2696 675.588 94.2696 674.3 L94.2696 665.572 Q94.2696 664.864 94.3018 664.574 Q94.334 664.284 94.495 664.059 Q94.656 663.801 95.0103 663.801 Z" fill="#000000" fill-rule="evenodd" fill-opacity="1" /><polyline clip-path="url(#clip512)" style="stroke:#009af9; stroke-width:8; stroke-opacity:1; fill:none" points="
  409.545,1364.16 418.481,1364.16 427.417,1364.16 510.046,1364.16 592.675,1364.16 617.503,1364.16 642.331,1364.16 667.159,1364.16 691.987,1364.16 702.483,1364.16 
  712.979,1364.16 723.475,1327.27 733.971,1285.18 754.963,1205.22 775.955,1130.58 798.758,1055.12 821.561,985.088 844.364,920.104 867.168,859.801 909.212,759.769 
  951.257,672.618 996.334,591.608 1041.41,521.727 1093.64,452.679 1145.86,394.496 1192.27,350.521 1238.69,312.753 1279.38,284.048 1320.08,258.928 1408.83,214.502 
  1498.1,181.121 1596.81,153.981 1690.72,135.157 1788.37,120.854 1870.57,111.899 1970.92,103.782 2065.26,98.24 2216.4,92.265 2239.66,91.581 
  "/>
<polyline clip-path="url(#clip512)" style="stroke:#e26f46; stroke-width:8; stroke-opacity:1; fill:none" points="
  354.642,1364.16 359.378,1364.16 364.114,1364.16 368.85,1364.16 373.586,1364.16 384.535,1364.16 395.483,1364.16 400.957,1364.16 406.431,1364.16 411.906,1354.28 
  417.38,1331.67 428.328,1287.64 439.276,1245.17 450.225,1204.19 461.173,1164.66 483.069,1089.73 504.966,1019.99 526.863,955.077 548.759,894.663 575.077,827.562 
  601.395,766.009 627.713,709.543 654.031,657.746 698.534,579.712 743.036,512.273 791.379,449.347 839.722,395.644 884.289,353.136 928.857,316.406 976.638,282.556 
  1024.42,253.613 1079.78,225.287 1135.14,201.662 1233.53,168.93 1319.81,147.745 1413.88,130.549 1508.51,117.852 1613.14,107.717 1712.69,100.82 1816.19,95.6771 
  1903.33,92.5142 2009.7,89.6977 2109.7,87.811 2269.9,85.8242 2294.56,85.6009 
  "/>
<path clip-path="url(#clip510)" d="
M1643.24 1357.34 L2284.21 1357.34 L2284.21 1175.9 L1643.24 1175.9  Z
  " fill="#ffffff" fill-rule="evenodd" fill-opacity="1"/>
<polyline clip-path="url(#clip510)" style="stroke:#000000; stroke-width:4; stroke-opacity:1; fill:none" points="
  1643.24,1357.34 2284.21,1357.34 2284.21,1175.9 1643.24,1175.9 1643.24,1357.34 
  "/>
<polyline clip-path="url(#clip510)" style="stroke:#009af9; stroke-width:4; stroke-opacity:1; fill:none" points="
  1666.08,1236.38 1803.17,1236.38 
  "/>
<path clip-path="url(#clip510)" d="M 0 0 M1830.69 1222.94 L1830.69 1235.93 L1836.57 1235.93 Q1839.84 1235.93 1841.62 1234.24 Q1843.4 1232.55 1843.4 1229.43 Q1843.4 1226.32 1841.62 1224.63 Q1839.84 1222.94 1836.57 1222.94 L1830.69 1222.94 M1826.02 1219.1 L1836.57 1219.1 Q1842.38 1219.1 1845.35 1221.74 Q1848.33 1224.36 1848.33 1229.43 Q1848.33 1234.54 1845.35 1237.16 Q1842.38 1239.77 1836.57 1239.77 L1830.69 1239.77 L1830.69 1253.66 L1826.02 1253.66 L1826.02 1219.1 Z" fill="#000000" fill-rule="evenodd" fill-opacity="1" /><path clip-path="url(#clip510)" d="M 0 0 M1868.61 1231.72 Q1867.89 1231.3 1867.04 1231.12 Q1866.2 1230.91 1865.19 1230.91 Q1861.57 1230.91 1859.63 1233.27 Q1857.71 1235.61 1857.71 1240 L1857.71 1253.66 L1853.43 1253.66 L1853.43 1227.74 L1857.71 1227.74 L1857.71 1231.76 Q1859.05 1229.4 1861.2 1228.27 Q1863.36 1227.11 1866.44 1227.11 Q1866.87 1227.11 1867.41 1227.18 Q1867.94 1227.23 1868.59 1227.34 L1868.61 1231.72 Z" fill="#000000" fill-rule="evenodd" fill-opacity="1" /><path clip-path="url(#clip510)" d="M 0 0 M1882.08 1230.72 Q1878.66 1230.72 1876.67 1233.41 Q1874.68 1236.07 1874.68 1240.72 Q1874.68 1245.37 1876.64 1248.06 Q1878.63 1250.72 1882.08 1250.72 Q1885.49 1250.72 1887.48 1248.04 Q1889.47 1245.35 1889.47 1240.72 Q1889.47 1236.12 1887.48 1233.43 Q1885.49 1230.72 1882.08 1230.72 M1882.08 1227.11 Q1887.64 1227.11 1890.81 1230.72 Q1893.98 1234.33 1893.98 1240.72 Q1893.98 1247.09 1890.81 1250.72 Q1887.64 1254.33 1882.08 1254.33 Q1876.5 1254.33 1873.33 1250.72 Q1870.19 1247.09 1870.19 1240.72 Q1870.19 1234.33 1873.33 1230.72 Q1876.5 1227.11 1882.08 1227.11 Z" fill="#000000" fill-rule="evenodd" fill-opacity="1" /><path clip-path="url(#clip510)" d="M 0 0 M1919.7 1228.73 L1919.7 1232.71 Q1917.89 1231.72 1916.06 1231.23 Q1914.26 1230.72 1912.41 1230.72 Q1908.26 1230.72 1905.97 1233.36 Q1903.68 1235.98 1903.68 1240.72 Q1903.68 1245.47 1905.97 1248.11 Q1908.26 1250.72 1912.41 1250.72 Q1914.26 1250.72 1916.06 1250.24 Q1917.89 1249.73 1919.7 1248.73 L1919.7 1252.67 Q1917.92 1253.5 1915.99 1253.92 Q1914.1 1254.33 1911.94 1254.33 Q1906.09 1254.33 1902.64 1250.65 Q1899.19 1246.97 1899.19 1240.72 Q1899.19 1234.38 1902.66 1230.75 Q1906.16 1227.11 1912.22 1227.11 Q1914.19 1227.11 1916.06 1227.53 Q1917.94 1227.92 1919.7 1228.73 Z" fill="#000000" fill-rule="evenodd" fill-opacity="1" /><path clip-path="url(#clip510)" d="M 0 0 M1949.28 1239.63 L1949.28 1241.72 L1929.7 1241.72 Q1929.98 1246.12 1932.34 1248.43 Q1934.72 1250.72 1938.96 1250.72 Q1941.41 1250.72 1943.7 1250.12 Q1946.02 1249.52 1948.29 1248.31 L1948.29 1252.34 Q1945.99 1253.31 1943.59 1253.82 Q1941.18 1254.33 1938.7 1254.33 Q1932.5 1254.33 1928.87 1250.72 Q1925.25 1247.11 1925.25 1240.95 Q1925.25 1234.59 1928.68 1230.86 Q1932.13 1227.11 1937.96 1227.11 Q1943.19 1227.11 1946.23 1230.49 Q1949.28 1233.85 1949.28 1239.63 M1945.02 1238.38 Q1944.98 1234.89 1943.05 1232.81 Q1941.16 1230.72 1938.01 1230.72 Q1934.44 1230.72 1932.29 1232.74 Q1930.16 1234.75 1929.84 1238.41 L1945.02 1238.38 Z" fill="#000000" fill-rule="evenodd" fill-opacity="1" /><path clip-path="url(#clip510)" d="M 0 0 M1972.8 1228.5 L1972.8 1232.53 Q1970.99 1231.6 1969.05 1231.14 Q1967.11 1230.68 1965.02 1230.68 Q1961.85 1230.68 1960.25 1231.65 Q1958.68 1232.62 1958.68 1234.56 Q1958.68 1236.05 1959.81 1236.9 Q1960.95 1237.74 1964.37 1238.5 L1965.83 1238.82 Q1970.37 1239.8 1972.27 1241.58 Q1974.19 1243.34 1974.19 1246.51 Q1974.19 1250.12 1971.32 1252.23 Q1968.47 1254.33 1963.47 1254.33 Q1961.39 1254.33 1959.12 1253.92 Q1956.87 1253.52 1954.37 1252.71 L1954.37 1248.31 Q1956.74 1249.54 1959.03 1250.17 Q1961.32 1250.77 1963.56 1250.77 Q1966.57 1250.77 1968.19 1249.75 Q1969.81 1248.71 1969.81 1246.83 Q1969.81 1245.1 1968.63 1244.17 Q1967.48 1243.24 1963.52 1242.39 L1962.04 1242.04 Q1958.08 1241.21 1956.32 1239.49 Q1954.56 1237.76 1954.56 1234.75 Q1954.56 1231.09 1957.15 1229.1 Q1959.74 1227.11 1964.51 1227.11 Q1966.87 1227.11 1968.96 1227.46 Q1971.04 1227.81 1972.8 1228.5 Z" fill="#000000" fill-rule="evenodd" fill-opacity="1" /><path clip-path="url(#clip510)" d="M 0 0 M1991.02 1230.72 Q1987.59 1230.72 1985.6 1233.41 Q1983.61 1236.07 1983.61 1240.72 Q1983.61 1245.37 1985.58 1248.06 Q1987.57 1250.72 1991.02 1250.72 Q1994.42 1250.72 1996.41 1248.04 Q1998.4 1245.35 1998.4 1240.72 Q1998.4 1236.12 1996.41 1233.43 Q1994.42 1230.72 1991.02 1230.72 M1991.02 1227.11 Q1996.57 1227.11 1999.74 1230.72 Q2002.92 1234.33 2002.92 1240.72 Q2002.92 1247.09 1999.74 1250.72 Q1996.57 1254.33 1991.02 1254.33 Q1985.44 1254.33 1982.27 1250.72 Q1979.12 1247.09 1979.12 1240.72 Q1979.12 1234.33 1982.27 1230.72 Q1985.44 1227.11 1991.02 1227.11 Z" fill="#000000" fill-rule="evenodd" fill-opacity="1" /><path clip-path="url(#clip510)" d="M 0 0 M2027.31 1223.94 L2027.31 1236.83 L2040.21 1236.83 L2040.21 1240.77 L2027.31 1240.77 L2027.31 1253.66 L2023.42 1253.66 L2023.42 1240.77 L2010.53 1240.77 L2010.53 1236.83 L2023.42 1236.83 L2023.42 1223.94 L2027.31 1223.94 Z" fill="#000000" fill-rule="evenodd" fill-opacity="1" /><path clip-path="url(#clip510)" d="M 0 0 M2081.34 1237.46 Q2082.85 1237.97 2084.26 1239.63 Q2085.69 1241.3 2087.13 1244.22 L2091.87 1253.66 L2086.85 1253.66 L2082.43 1244.8 Q2080.72 1241.32 2079.1 1240.19 Q2077.5 1239.06 2074.72 1239.06 L2069.63 1239.06 L2069.63 1253.66 L2064.95 1253.66 L2064.95 1219.1 L2075.51 1219.1 Q2081.43 1219.1 2084.35 1221.58 Q2087.27 1224.06 2087.27 1229.06 Q2087.27 1232.32 2085.74 1234.47 Q2084.23 1236.62 2081.34 1237.46 M2069.63 1222.94 L2069.63 1235.21 L2075.51 1235.21 Q2078.89 1235.21 2080.6 1233.66 Q2082.34 1232.09 2082.34 1229.06 Q2082.34 1226.02 2080.6 1224.5 Q2078.89 1222.94 2075.51 1222.94 L2069.63 1222.94 Z" fill="#000000" fill-rule="evenodd" fill-opacity="1" /><path clip-path="url(#clip510)" d="M 0 0 M2117.75 1239.63 L2117.75 1241.72 L2098.17 1241.72 Q2098.45 1246.12 2100.81 1248.43 Q2103.19 1250.72 2107.43 1250.72 Q2109.88 1250.72 2112.17 1250.12 Q2114.49 1249.52 2116.76 1248.31 L2116.76 1252.34 Q2114.47 1253.31 2112.06 1253.82 Q2109.65 1254.33 2107.17 1254.33 Q2100.97 1254.33 2097.34 1250.72 Q2093.73 1247.11 2093.73 1240.95 Q2093.73 1234.59 2097.15 1230.86 Q2100.6 1227.11 2106.43 1227.11 Q2111.67 1227.11 2114.7 1230.49 Q2117.75 1233.85 2117.75 1239.63 M2113.49 1238.38 Q2113.45 1234.89 2111.53 1232.81 Q2109.63 1230.72 2106.48 1230.72 Q2102.92 1230.72 2100.76 1232.74 Q2098.63 1234.75 2098.31 1238.41 L2113.49 1238.38 Z" fill="#000000" fill-rule="evenodd" fill-opacity="1" /><path clip-path="url(#clip510)" d="M 0 0 M2128.96 1220.37 L2128.96 1227.74 L2137.73 1227.74 L2137.73 1231.05 L2128.96 1231.05 L2128.96 1245.12 Q2128.96 1248.29 2129.81 1249.19 Q2130.69 1250.1 2133.35 1250.1 L2137.73 1250.1 L2137.73 1253.66 L2133.35 1253.66 Q2128.42 1253.66 2126.55 1251.83 Q2124.67 1249.98 2124.67 1245.12 L2124.67 1231.05 L2121.55 1231.05 L2121.55 1227.74 L2124.67 1227.74 L2124.67 1220.37 L2128.96 1220.37 Z" fill="#000000" fill-rule="evenodd" fill-opacity="1" /><path clip-path="url(#clip510)" d="M 0 0 M2158.35 1231.72 Q2157.64 1231.3 2156.78 1231.12 Q2155.95 1230.91 2154.93 1230.91 Q2151.32 1230.91 2149.37 1233.27 Q2147.45 1235.61 2147.45 1240 L2147.45 1253.66 L2143.17 1253.66 L2143.17 1227.74 L2147.45 1227.74 L2147.45 1231.76 Q2148.79 1229.4 2150.95 1228.27 Q2153.1 1227.11 2156.18 1227.11 Q2156.62 1227.11 2157.15 1227.18 Q2157.68 1227.23 2158.33 1227.34 L2158.35 1231.72 Z" fill="#000000" fill-rule="evenodd" fill-opacity="1" /><path clip-path="url(#clip510)" d="M 0 0 M2174.6 1240.63 Q2169.44 1240.63 2167.45 1241.81 Q2165.46 1242.99 2165.46 1245.84 Q2165.46 1248.11 2166.94 1249.45 Q2168.45 1250.77 2171.02 1250.77 Q2174.56 1250.77 2176.69 1248.27 Q2178.84 1245.74 2178.84 1241.58 L2178.84 1240.63 L2174.6 1240.63 M2183.1 1238.87 L2183.1 1253.66 L2178.84 1253.66 L2178.84 1249.73 Q2177.38 1252.09 2175.21 1253.22 Q2173.03 1254.33 2169.88 1254.33 Q2165.9 1254.33 2163.54 1252.11 Q2161.2 1249.87 2161.2 1246.12 Q2161.2 1241.74 2164.12 1239.52 Q2167.06 1237.3 2172.87 1237.3 L2178.84 1237.3 L2178.84 1236.88 Q2178.84 1233.94 2176.9 1232.34 Q2174.98 1230.72 2171.48 1230.72 Q2169.26 1230.72 2167.15 1231.25 Q2165.04 1231.79 2163.1 1232.85 L2163.1 1228.92 Q2165.44 1228.01 2167.64 1227.57 Q2169.84 1227.11 2171.92 1227.11 Q2177.54 1227.11 2180.32 1230.03 Q2183.1 1232.94 2183.1 1238.87 Z" fill="#000000" fill-rule="evenodd" fill-opacity="1" /><path clip-path="url(#clip510)" d="M 0 0 M2208.4 1228.5 L2208.4 1232.53 Q2206.6 1231.6 2204.65 1231.14 Q2202.71 1230.68 2200.62 1230.68 Q2197.45 1230.68 2195.85 1231.65 Q2194.28 1232.62 2194.28 1234.56 Q2194.28 1236.05 2195.41 1236.9 Q2196.55 1237.74 2199.97 1238.5 L2201.43 1238.82 Q2205.97 1239.8 2207.87 1241.58 Q2209.79 1243.34 2209.79 1246.51 Q2209.79 1250.12 2206.92 1252.23 Q2204.07 1254.33 2199.07 1254.33 Q2196.99 1254.33 2194.72 1253.92 Q2192.47 1253.52 2189.97 1252.71 L2189.97 1248.31 Q2192.34 1249.54 2194.63 1250.17 Q2196.92 1250.77 2199.16 1250.77 Q2202.17 1250.77 2203.79 1249.75 Q2205.41 1248.71 2205.41 1246.83 Q2205.41 1245.1 2204.23 1244.17 Q2203.08 1243.24 2199.12 1242.39 L2197.64 1242.04 Q2193.68 1241.21 2191.92 1239.49 Q2190.16 1237.76 2190.16 1234.75 Q2190.16 1231.09 2192.75 1229.1 Q2195.35 1227.11 2200.11 1227.11 Q2202.47 1227.11 2204.56 1227.46 Q2206.64 1227.81 2208.4 1228.5 Z" fill="#000000" fill-rule="evenodd" fill-opacity="1" /><path clip-path="url(#clip510)" d="M 0 0 M2226.62 1230.72 Q2223.19 1230.72 2221.2 1233.41 Q2219.21 1236.07 2219.21 1240.72 Q2219.21 1245.37 2221.18 1248.06 Q2223.17 1250.72 2226.62 1250.72 Q2230.02 1250.72 2232.01 1248.04 Q2234 1245.35 2234 1240.72 Q2234 1236.12 2232.01 1233.43 Q2230.02 1230.72 2226.62 1230.72 M2226.62 1227.11 Q2232.17 1227.11 2235.35 1230.72 Q2238.52 1234.33 2238.52 1240.72 Q2238.52 1247.09 2235.35 1250.72 Q2232.17 1254.33 2226.62 1254.33 Q2221.04 1254.33 2217.87 1250.72 Q2214.72 1247.09 2214.72 1240.72 Q2214.72 1234.33 2217.87 1230.72 Q2221.04 1227.11 2226.62 1227.11 Z" fill="#000000" fill-rule="evenodd" fill-opacity="1" /><polyline clip-path="url(#clip510)" style="stroke:#e26f46; stroke-width:4; stroke-opacity:1; fill:none" points="
  1666.08,1296.86 1803.17,1296.86 
  "/>
<path clip-path="url(#clip510)" d="M 0 0 M1830.69 1283.42 L1830.69 1296.41 L1836.57 1296.41 Q1839.84 1296.41 1841.62 1294.72 Q1843.4 1293.03 1843.4 1289.91 Q1843.4 1286.8 1841.62 1285.11 Q1839.84 1283.42 1836.57 1283.42 L1830.69 1283.42 M1826.02 1279.58 L1836.57 1279.58 Q1842.38 1279.58 1845.35 1282.22 Q1848.33 1284.84 1848.33 1289.91 Q1848.33 1295.02 1845.35 1297.64 Q1842.38 1300.25 1836.57 1300.25 L1830.69 1300.25 L1830.69 1314.14 L1826.02 1314.14 L1826.02 1279.58 Z" fill="#000000" fill-rule="evenodd" fill-opacity="1" /><path clip-path="url(#clip510)" d="M 0 0 M1868.61 1292.2 Q1867.89 1291.78 1867.04 1291.6 Q1866.2 1291.39 1865.19 1291.39 Q1861.57 1291.39 1859.63 1293.75 Q1857.71 1296.09 1857.71 1300.48 L1857.71 1314.14 L1853.43 1314.14 L1853.43 1288.22 L1857.71 1288.22 L1857.71 1292.24 Q1859.05 1289.88 1861.2 1288.75 Q1863.36 1287.59 1866.44 1287.59 Q1866.87 1287.59 1867.41 1287.66 Q1867.94 1287.71 1868.59 1287.82 L1868.61 1292.2 Z" fill="#000000" fill-rule="evenodd" fill-opacity="1" /><path clip-path="url(#clip510)" d="M 0 0 M1882.08 1291.2 Q1878.66 1291.2 1876.67 1293.89 Q1874.68 1296.55 1874.68 1301.2 Q1874.68 1305.85 1876.64 1308.54 Q1878.63 1311.2 1882.08 1311.2 Q1885.49 1311.2 1887.48 1308.52 Q1889.47 1305.83 1889.47 1301.2 Q1889.47 1296.6 1887.48 1293.91 Q1885.49 1291.2 1882.08 1291.2 M1882.08 1287.59 Q1887.64 1287.59 1890.81 1291.2 Q1893.98 1294.81 1893.98 1301.2 Q1893.98 1307.57 1890.81 1311.2 Q1887.64 1314.81 1882.08 1314.81 Q1876.5 1314.81 1873.33 1311.2 Q1870.19 1307.57 1870.19 1301.2 Q1870.19 1294.81 1873.33 1291.2 Q1876.5 1287.59 1882.08 1287.59 Z" fill="#000000" fill-rule="evenodd" fill-opacity="1" /><path clip-path="url(#clip510)" d="M 0 0 M1919.7 1289.21 L1919.7 1293.19 Q1917.89 1292.2 1916.06 1291.71 Q1914.26 1291.2 1912.41 1291.2 Q1908.26 1291.2 1905.97 1293.84 Q1903.68 1296.46 1903.68 1301.2 Q1903.68 1305.95 1905.97 1308.59 Q1908.26 1311.2 1912.41 1311.2 Q1914.26 1311.2 1916.06 1310.72 Q1917.89 1310.21 1919.7 1309.21 L1919.7 1313.15 Q1917.92 1313.98 1915.99 1314.4 Q1914.1 1314.81 1911.94 1314.81 Q1906.09 1314.81 1902.64 1311.13 Q1899.19 1307.45 1899.19 1301.2 Q1899.19 1294.86 1902.66 1291.23 Q1906.16 1287.59 1912.22 1287.59 Q1914.19 1287.59 1916.06 1288.01 Q1917.94 1288.4 1919.7 1289.21 Z" fill="#000000" fill-rule="evenodd" fill-opacity="1" /><path clip-path="url(#clip510)" d="M 0 0 M1949.28 1300.11 L1949.28 1302.2 L1929.7 1302.2 Q1929.98 1306.6 1932.34 1308.91 Q1934.72 1311.2 1938.96 1311.2 Q1941.41 1311.2 1943.7 1310.6 Q1946.02 1310 1948.29 1308.79 L1948.29 1312.82 Q1945.99 1313.79 1943.59 1314.3 Q1941.18 1314.81 1938.7 1314.81 Q1932.5 1314.81 1928.87 1311.2 Q1925.25 1307.59 1925.25 1301.43 Q1925.25 1295.07 1928.68 1291.34 Q1932.13 1287.59 1937.96 1287.59 Q1943.19 1287.59 1946.23 1290.97 Q1949.28 1294.33 1949.28 1300.11 M1945.02 1298.86 Q1944.98 1295.37 1943.05 1293.29 Q1941.16 1291.2 1938.01 1291.2 Q1934.44 1291.2 1932.29 1293.22 Q1930.16 1295.23 1929.84 1298.89 L1945.02 1298.86 Z" fill="#000000" fill-rule="evenodd" fill-opacity="1" /><path clip-path="url(#clip510)" d="M 0 0 M1972.8 1288.98 L1972.8 1293.01 Q1970.99 1292.08 1969.05 1291.62 Q1967.11 1291.16 1965.02 1291.16 Q1961.85 1291.16 1960.25 1292.13 Q1958.68 1293.1 1958.68 1295.04 Q1958.68 1296.53 1959.81 1297.38 Q1960.95 1298.22 1964.37 1298.98 L1965.83 1299.3 Q1970.37 1300.28 1972.27 1302.06 Q1974.19 1303.82 1974.19 1306.99 Q1974.19 1310.6 1971.32 1312.71 Q1968.47 1314.81 1963.47 1314.81 Q1961.39 1314.81 1959.12 1314.4 Q1956.87 1314 1954.37 1313.19 L1954.37 1308.79 Q1956.74 1310.02 1959.03 1310.65 Q1961.32 1311.25 1963.56 1311.25 Q1966.57 1311.25 1968.19 1310.23 Q1969.81 1309.19 1969.81 1307.31 Q1969.81 1305.58 1968.63 1304.65 Q1967.48 1303.72 1963.52 1302.87 L1962.04 1302.52 Q1958.08 1301.69 1956.32 1299.97 Q1954.56 1298.24 1954.56 1295.23 Q1954.56 1291.57 1957.15 1289.58 Q1959.74 1287.59 1964.51 1287.59 Q1966.87 1287.59 1968.96 1287.94 Q1971.04 1288.29 1972.8 1288.98 Z" fill="#000000" fill-rule="evenodd" fill-opacity="1" /><path clip-path="url(#clip510)" d="M 0 0 M1991.02 1291.2 Q1987.59 1291.2 1985.6 1293.89 Q1983.61 1296.55 1983.61 1301.2 Q1983.61 1305.85 1985.58 1308.54 Q1987.57 1311.2 1991.02 1311.2 Q1994.42 1311.2 1996.41 1308.52 Q1998.4 1305.83 1998.4 1301.2 Q1998.4 1296.6 1996.41 1293.91 Q1994.42 1291.2 1991.02 1291.2 M1991.02 1287.59 Q1996.57 1287.59 1999.74 1291.2 Q2002.92 1294.81 2002.92 1301.2 Q2002.92 1307.57 1999.74 1311.2 Q1996.57 1314.81 1991.02 1314.81 Q1985.44 1314.81 1982.27 1311.2 Q1979.12 1307.57 1979.12 1301.2 Q1979.12 1294.81 1982.27 1291.2 Q1985.44 1287.59 1991.02 1287.59 Z" fill="#000000" fill-rule="evenodd" fill-opacity="1" /></svg>
