<?xml version="1.0" encoding="utf-8"?>
<svg xmlns="http://www.w3.org/2000/svg" xmlns:xlink="http://www.w3.org/1999/xlink" width="600" height="400" viewBox="0 0 2400 1600">
<defs>
  <clipPath id="clip450">
    <rect x="0" y="0" width="2400" height="1600"/>
  </clipPath>
</defs>
<path clip-path="url(#clip450)" d="
M0 1600 L2400 1600 L2400 0 L0 0  Z
  " fill="#ffffff" fill-rule="evenodd" fill-opacity="1"/>
<defs>
  <clipPath id="clip451">
    <rect x="480" y="0" width="1681" height="1600"/>
  </clipPath>
</defs>
<path clip-path="url(#clip450)" d="
M253.236 1442.95 L2352.76 1442.95 L2352.76 47.2441 L253.236 47.2441  Z
  " fill="#ffffff" fill-rule="evenodd" fill-opacity="1"/>
<defs>
  <clipPath id="clip452">
    <rect x="253" y="47" width="2101" height="1397"/>
  </clipPath>
</defs>
<polyline clip-path="url(#clip452)" style="stroke:#000000; stroke-width:2; stroke-opacity:0.1; fill:none" points="
  428.99,1442.95 428.99,47.2441 
  "/>
<polyline clip-path="url(#clip452)" style="stroke:#000000; stroke-width:2; stroke-opacity:0.1; fill:none" points="
  1031.75,1442.95 1031.75,47.2441 
  "/>
<polyline clip-path="url(#clip452)" style="stroke:#000000; stroke-width:2; stroke-opacity:0.1; fill:none" points="
  1634.52,1442.95 1634.52,47.2441 
  "/>
<polyline clip-path="url(#clip452)" style="stroke:#000000; stroke-width:2; stroke-opacity:0.1; fill:none" points="
  2237.28,1442.95 2237.28,47.2441 
  "/>
<polyline clip-path="url(#clip450)" style="stroke:#000000; stroke-width:4; stroke-opacity:1; fill:none" points="
  253.236,1442.95 2352.76,1442.95 
  "/>
<polyline clip-path="url(#clip450)" style="stroke:#000000; stroke-width:4; stroke-opacity:1; fill:none" points="
  428.99,1442.95 428.99,1426.2 
  "/>
<polyline clip-path="url(#clip450)" style="stroke:#000000; stroke-width:4; stroke-opacity:1; fill:none" points="
  1031.75,1442.95 1031.75,1426.2 
  "/>
<polyline clip-path="url(#clip450)" style="stroke:#000000; stroke-width:4; stroke-opacity:1; fill:none" points="
  1634.52,1442.95 1634.52,1426.2 
  "/>
<polyline clip-path="url(#clip450)" style="stroke:#000000; stroke-width:4; stroke-opacity:1; fill:none" points="
  2237.28,1442.95 2237.28,1426.2 
  "/>
<path clip-path="url(#clip450)" d="M 0 0 M428.99 1472.14 Q425.379 1472.14 423.55 1475.71 Q421.744 1479.25 421.744 1486.38 Q421.744 1493.48 423.55 1497.05 Q425.379 1500.59 428.99 1500.59 Q432.624 1500.59 434.43 1497.05 Q436.258 1493.48 436.258 1486.38 Q436.258 1479.25 434.43 1475.71 Q432.624 1472.14 428.99 1472.14 M428.99 1468.44 Q434.8 1468.44 437.855 1473.04 Q440.934 1477.63 440.934 1486.38 Q440.934 1495.1 437.855 1499.71 Q434.8 1504.29 428.99 1504.29 Q423.18 1504.29 420.101 1499.71 Q417.045 1495.1 417.045 1486.38 Q417.045 1477.63 420.101 1473.04 Q423.18 1468.44 428.99 1468.44 Z" fill="#000000" fill-rule="evenodd" fill-opacity="1" /><path clip-path="url(#clip450)" d="M 0 0 M1022.03 1469.06 L1040.39 1469.06 L1040.39 1473 L1026.31 1473 L1026.31 1481.47 Q1027.33 1481.12 1028.35 1480.96 Q1029.37 1480.77 1030.39 1480.77 Q1036.17 1480.77 1039.55 1483.95 Q1042.93 1487.12 1042.93 1492.53 Q1042.93 1498.11 1039.46 1501.21 Q1035.99 1504.29 1029.67 1504.29 Q1027.49 1504.29 1025.22 1503.92 Q1022.98 1503.55 1020.57 1502.81 L1020.57 1498.11 Q1022.66 1499.25 1024.88 1499.8 Q1027.1 1500.36 1029.58 1500.36 Q1033.58 1500.36 1035.92 1498.25 Q1038.26 1496.15 1038.26 1492.53 Q1038.26 1488.92 1035.92 1486.82 Q1033.58 1484.71 1029.58 1484.71 Q1027.7 1484.71 1025.83 1485.13 Q1023.97 1485.54 1022.03 1486.42 L1022.03 1469.06 Z" fill="#000000" fill-rule="evenodd" fill-opacity="1" /><path clip-path="url(#clip450)" d="M 0 0 M1609.2 1499.69 L1616.84 1499.69 L1616.84 1473.32 L1608.53 1474.99 L1608.53 1470.73 L1616.8 1469.06 L1621.47 1469.06 L1621.47 1499.69 L1629.11 1499.69 L1629.11 1503.62 L1609.2 1503.62 L1609.2 1499.69 Z" fill="#000000" fill-rule="evenodd" fill-opacity="1" /><path clip-path="url(#clip450)" d="M 0 0 M1648.55 1472.14 Q1644.94 1472.14 1643.12 1475.71 Q1641.31 1479.25 1641.31 1486.38 Q1641.31 1493.48 1643.12 1497.05 Q1644.94 1500.59 1648.55 1500.59 Q1652.19 1500.59 1653.99 1497.05 Q1655.82 1493.48 1655.82 1486.38 Q1655.82 1479.25 1653.99 1475.71 Q1652.19 1472.14 1648.55 1472.14 M1648.55 1468.44 Q1654.37 1468.44 1657.42 1473.04 Q1660.5 1477.63 1660.5 1486.38 Q1660.5 1495.1 1657.42 1499.71 Q1654.37 1504.29 1648.55 1504.29 Q1642.74 1504.29 1639.67 1499.71 Q1636.61 1495.1 1636.61 1486.38 Q1636.61 1477.63 1639.67 1473.04 Q1642.74 1468.44 1648.55 1468.44 Z" fill="#000000" fill-rule="evenodd" fill-opacity="1" /><path clip-path="url(#clip450)" d="M 0 0 M2212.46 1499.69 L2220.1 1499.69 L2220.1 1473.32 L2211.79 1474.99 L2211.79 1470.73 L2220.06 1469.06 L2224.73 1469.06 L2224.73 1499.69 L2232.37 1499.69 L2232.37 1503.62 L2212.46 1503.62 L2212.46 1499.69 Z" fill="#000000" fill-rule="evenodd" fill-opacity="1" /><path clip-path="url(#clip450)" d="M 0 0 M2241.86 1469.06 L2260.22 1469.06 L2260.22 1473 L2246.14 1473 L2246.14 1481.47 Q2247.16 1481.12 2248.18 1480.96 Q2249.2 1480.77 2250.22 1480.77 Q2256.01 1480.77 2259.38 1483.95 Q2262.76 1487.12 2262.76 1492.53 Q2262.76 1498.11 2259.29 1501.21 Q2255.82 1504.29 2249.5 1504.29 Q2247.32 1504.29 2245.06 1503.92 Q2242.81 1503.55 2240.4 1502.81 L2240.4 1498.11 Q2242.49 1499.25 2244.71 1499.8 Q2246.93 1500.36 2249.41 1500.36 Q2253.41 1500.36 2255.75 1498.25 Q2258.09 1496.15 2258.09 1492.53 Q2258.09 1488.92 2255.75 1486.82 Q2253.41 1484.71 2249.41 1484.71 Q2247.53 1484.71 2245.66 1485.13 Q2243.81 1485.54 2241.86 1486.42 L2241.86 1469.06 Z" fill="#000000" fill-rule="evenodd" fill-opacity="1" /><path clip-path="url(#clip450)" d="M 0 0 M1311.47 1539.82 Q1311.47 1540.72 1311.05 1540.95 Q1310.63 1541.14 1309.47 1541.14 L1303.29 1541.14 L1298.39 1560.59 Q1298 1562.3 1298 1563.75 Q1298 1565.36 1298.49 1566.07 Q1299 1566.78 1300.07 1566.78 Q1302.16 1566.78 1304.41 1564.88 Q1306.7 1562.98 1308.63 1558.34 Q1308.89 1557.73 1309.02 1557.6 Q1309.18 1557.44 1309.6 1557.44 Q1310.4 1557.44 1310.4 1558.08 Q1310.4 1558.31 1309.95 1559.34 Q1309.53 1560.37 1308.6 1561.88 Q1307.7 1563.4 1306.51 1564.81 Q1305.35 1566.23 1303.58 1567.26 Q1301.81 1568.26 1299.91 1568.26 Q1297.23 1568.26 1295.53 1566.55 Q1293.85 1564.84 1293.85 1562.17 Q1293.85 1561.3 1294.53 1558.53 Q1295.2 1555.73 1298.87 1541.14 L1293.05 1541.14 Q1292.24 1541.14 1291.92 1541.11 Q1291.63 1541.08 1291.4 1540.92 Q1291.21 1540.72 1291.21 1540.34 Q1291.21 1539.72 1291.47 1539.47 Q1291.72 1539.18 1292.05 1539.14 Q1292.4 1539.08 1293.21 1539.08 L1299.39 1539.08 L1301.97 1528.61 Q1302.22 1527.58 1302.87 1527 Q1303.54 1526.39 1303.93 1526.33 Q1304.32 1526.23 1304.61 1526.23 Q1305.48 1526.23 1305.99 1526.71 Q1306.51 1527.16 1306.51 1528 Q1306.51 1528.45 1303.8 1539.08 L1309.6 1539.08 Q1310.34 1539.08 1310.63 1539.11 Q1310.95 1539.14 1311.21 1539.31 Q1311.47 1539.47 1311.47 1539.82 Z" fill="#000000" fill-rule="evenodd" fill-opacity="1" /><polyline clip-path="url(#clip452)" style="stroke:#000000; stroke-width:2; stroke-opacity:0.1; fill:none" points="
  253.236,1403.46 2352.76,1403.46 
  "/>
<polyline clip-path="url(#clip452)" style="stroke:#000000; stroke-width:2; stroke-opacity:0.1; fill:none" points="
  253.236,1074.28 2352.76,1074.28 
  "/>
<polyline clip-path="url(#clip452)" style="stroke:#000000; stroke-width:2; stroke-opacity:0.1; fill:none" points="
  253.236,745.101 2352.76,745.101 
  "/>
<polyline clip-path="url(#clip452)" style="stroke:#000000; stroke-width:2; stroke-opacity:0.1; fill:none" points="
  253.236,415.923 2352.76,415.923 
  "/>
<polyline clip-path="url(#clip452)" style="stroke:#000000; stroke-width:2; stroke-opacity:0.1; fill:none" points="
  253.236,86.7452 2352.76,86.7452 
  "/>
<polyline clip-path="url(#clip450)" style="stroke:#000000; stroke-width:4; stroke-opacity:1; fill:none" points="
  253.236,1442.95 253.236,47.2441 
  "/>
<polyline clip-path="url(#clip450)" style="stroke:#000000; stroke-width:4; stroke-opacity:1; fill:none" points="
  253.236,1403.46 278.43,1403.46 
  "/>
<polyline clip-path="url(#clip450)" style="stroke:#000000; stroke-width:4; stroke-opacity:1; fill:none" points="
  253.236,1074.28 278.43,1074.28 
  "/>
<polyline clip-path="url(#clip450)" style="stroke:#000000; stroke-width:4; stroke-opacity:1; fill:none" points="
  253.236,745.101 278.43,745.101 
  "/>
<polyline clip-path="url(#clip450)" style="stroke:#000000; stroke-width:4; stroke-opacity:1; fill:none" points="
  253.236,415.923 278.43,415.923 
  "/>
<polyline clip-path="url(#clip450)" style="stroke:#000000; stroke-width:4; stroke-opacity:1; fill:none" points="
  253.236,86.7452 278.43,86.7452 
  "/>
<path clip-path="url(#clip450)" d="M 0 0 M110.292 1403.91 L139.968 1403.91 L139.968 1407.84 L110.292 1407.84 L110.292 1403.91 Z" fill="#000000" fill-rule="evenodd" fill-opacity="1" /><path clip-path="url(#clip450)" d="M 0 0 M150.871 1416.8 L158.51 1416.8 L158.51 1390.44 L150.199 1392.1 L150.199 1387.84 L158.463 1386.18 L163.139 1386.18 L163.139 1416.8 L170.778 1416.8 L170.778 1420.74 L150.871 1420.74 L150.871 1416.8 Z" fill="#000000" fill-rule="evenodd" fill-opacity="1" /><path clip-path="url(#clip450)" d="M 0 0 M180.222 1414.86 L185.107 1414.86 L185.107 1420.74 L180.222 1420.74 L180.222 1414.86 Z" fill="#000000" fill-rule="evenodd" fill-opacity="1" /><path clip-path="url(#clip450)" d="M 0 0 M205.292 1389.25 Q201.681 1389.25 199.852 1392.82 Q198.046 1396.36 198.046 1403.49 Q198.046 1410.6 199.852 1414.16 Q201.681 1417.7 205.292 1417.7 Q208.926 1417.7 210.732 1414.16 Q212.56 1410.6 212.56 1403.49 Q212.56 1396.36 210.732 1392.82 Q208.926 1389.25 205.292 1389.25 M205.292 1385.55 Q211.102 1385.55 214.157 1390.16 Q217.236 1394.74 217.236 1403.49 Q217.236 1412.22 214.157 1416.82 Q211.102 1421.41 205.292 1421.41 Q199.482 1421.41 196.403 1416.82 Q193.347 1412.22 193.347 1403.49 Q193.347 1394.74 196.403 1390.16 Q199.482 1385.55 205.292 1385.55 Z" fill="#000000" fill-rule="evenodd" fill-opacity="1" /><path clip-path="url(#clip450)" d="M 0 0 M111.288 1074.73 L140.963 1074.73 L140.963 1078.66 L111.288 1078.66 L111.288 1074.73 Z" fill="#000000" fill-rule="evenodd" fill-opacity="1" /><path clip-path="url(#clip450)" d="M 0 0 M161.056 1060.08 Q157.445 1060.08 155.616 1063.64 Q153.811 1067.18 153.811 1074.31 Q153.811 1081.42 155.616 1084.98 Q157.445 1088.53 161.056 1088.53 Q164.69 1088.53 166.496 1084.98 Q168.324 1081.42 168.324 1074.31 Q168.324 1067.18 166.496 1063.64 Q164.69 1060.08 161.056 1060.08 M161.056 1056.37 Q166.866 1056.37 169.922 1060.98 Q173 1065.56 173 1074.31 Q173 1083.04 169.922 1087.65 Q166.866 1092.23 161.056 1092.23 Q155.246 1092.23 152.167 1087.65 Q149.111 1083.04 149.111 1074.31 Q149.111 1065.56 152.167 1060.98 Q155.246 1056.37 161.056 1056.37 Z" fill="#000000" fill-rule="evenodd" fill-opacity="1" /><path clip-path="url(#clip450)" d="M 0 0 M181.218 1085.68 L186.102 1085.68 L186.102 1091.56 L181.218 1091.56 L181.218 1085.68 Z" fill="#000000" fill-rule="evenodd" fill-opacity="1" /><path clip-path="url(#clip450)" d="M 0 0 M196.333 1057 L214.69 1057 L214.69 1060.93 L200.616 1060.93 L200.616 1069.41 Q201.634 1069.06 202.653 1068.9 Q203.671 1068.71 204.69 1068.71 Q210.477 1068.71 213.857 1071.88 Q217.236 1075.05 217.236 1080.47 Q217.236 1086.05 213.764 1089.15 Q210.292 1092.23 203.972 1092.23 Q201.796 1092.23 199.528 1091.86 Q197.283 1091.49 194.875 1090.75 L194.875 1086.05 Q196.958 1087.18 199.181 1087.74 Q201.403 1088.29 203.88 1088.29 Q207.884 1088.29 210.222 1086.19 Q212.56 1084.08 212.56 1080.47 Q212.56 1076.86 210.222 1074.75 Q207.884 1072.65 203.88 1072.65 Q202.005 1072.65 200.13 1073.06 Q198.278 1073.48 196.333 1074.36 L196.333 1057 Z" fill="#000000" fill-rule="evenodd" fill-opacity="1" /><path clip-path="url(#clip450)" d="M 0 0 M160.06 730.899 Q156.449 730.899 154.621 734.464 Q152.815 738.006 152.815 745.135 Q152.815 752.242 154.621 755.807 Q156.449 759.348 160.06 759.348 Q163.695 759.348 165.5 755.807 Q167.329 752.242 167.329 745.135 Q167.329 738.006 165.5 734.464 Q163.695 730.899 160.06 730.899 M160.06 727.196 Q165.871 727.196 168.926 731.802 Q172.005 736.385 172.005 745.135 Q172.005 753.862 168.926 758.469 Q165.871 763.052 160.06 763.052 Q154.25 763.052 151.172 758.469 Q148.116 753.862 148.116 745.135 Q148.116 736.385 151.172 731.802 Q154.25 727.196 160.06 727.196 Z" fill="#000000" fill-rule="evenodd" fill-opacity="1" /><path clip-path="url(#clip450)" d="M 0 0 M180.222 756.501 L185.107 756.501 L185.107 762.381 L180.222 762.381 L180.222 756.501 Z" fill="#000000" fill-rule="evenodd" fill-opacity="1" /><path clip-path="url(#clip450)" d="M 0 0 M205.292 730.899 Q201.681 730.899 199.852 734.464 Q198.046 738.006 198.046 745.135 Q198.046 752.242 199.852 755.807 Q201.681 759.348 205.292 759.348 Q208.926 759.348 210.732 755.807 Q212.56 752.242 212.56 745.135 Q212.56 738.006 210.732 734.464 Q208.926 730.899 205.292 730.899 M205.292 727.196 Q211.102 727.196 214.157 731.802 Q217.236 736.385 217.236 745.135 Q217.236 753.862 214.157 758.469 Q211.102 763.052 205.292 763.052 Q199.482 763.052 196.403 758.469 Q193.347 753.862 193.347 745.135 Q193.347 736.385 196.403 731.802 Q199.482 727.196 205.292 727.196 Z" fill="#000000" fill-rule="evenodd" fill-opacity="1" /><path clip-path="url(#clip450)" d="M 0 0 M161.056 401.722 Q157.445 401.722 155.616 405.286 Q153.811 408.828 153.811 415.958 Q153.811 423.064 155.616 426.629 Q157.445 430.171 161.056 430.171 Q164.69 430.171 166.496 426.629 Q168.324 423.064 168.324 415.958 Q168.324 408.828 166.496 405.286 Q164.69 401.722 161.056 401.722 M161.056 398.018 Q166.866 398.018 169.922 402.624 Q173 407.208 173 415.958 Q173 424.684 169.922 429.291 Q166.866 433.874 161.056 433.874 Q155.246 433.874 152.167 429.291 Q149.111 424.684 149.111 415.958 Q149.111 407.208 152.167 402.624 Q155.246 398.018 161.056 398.018 Z" fill="#000000" fill-rule="evenodd" fill-opacity="1" /><path clip-path="url(#clip450)" d="M 0 0 M181.218 427.323 L186.102 427.323 L186.102 433.203 L181.218 433.203 L181.218 427.323 Z" fill="#000000" fill-rule="evenodd" fill-opacity="1" /><path clip-path="url(#clip450)" d="M 0 0 M196.333 398.643 L214.69 398.643 L214.69 402.578 L200.616 402.578 L200.616 411.05 Q201.634 410.703 202.653 410.541 Q203.671 410.356 204.69 410.356 Q210.477 410.356 213.857 413.527 Q217.236 416.698 217.236 422.115 Q217.236 427.694 213.764 430.796 Q210.292 433.874 203.972 433.874 Q201.796 433.874 199.528 433.504 Q197.283 433.133 194.875 432.393 L194.875 427.694 Q196.958 428.828 199.181 429.384 Q201.403 429.939 203.88 429.939 Q207.884 429.939 210.222 427.833 Q212.56 425.726 212.56 422.115 Q212.56 418.504 210.222 416.397 Q207.884 414.291 203.88 414.291 Q202.005 414.291 200.13 414.708 Q198.278 415.124 196.333 416.004 L196.333 398.643 Z" fill="#000000" fill-rule="evenodd" fill-opacity="1" /><path clip-path="url(#clip450)" d="M 0 0 M150.871 100.09 L158.51 100.09 L158.51 73.7244 L150.199 75.3911 L150.199 71.1319 L158.463 69.4652 L163.139 69.4652 L163.139 100.09 L170.778 100.09 L170.778 104.025 L150.871 104.025 L150.871 100.09 Z" fill="#000000" fill-rule="evenodd" fill-opacity="1" /><path clip-path="url(#clip450)" d="M 0 0 M180.222 98.1456 L185.107 98.1456 L185.107 104.025 L180.222 104.025 L180.222 98.1456 Z" fill="#000000" fill-rule="evenodd" fill-opacity="1" /><path clip-path="url(#clip450)" d="M 0 0 M205.292 72.5439 Q201.681 72.5439 199.852 76.1087 Q198.046 79.6503 198.046 86.7799 Q198.046 93.8864 199.852 97.4512 Q201.681 100.993 205.292 100.993 Q208.926 100.993 210.732 97.4512 Q212.56 93.8864 212.56 86.7799 Q212.56 79.6503 210.732 76.1087 Q208.926 72.5439 205.292 72.5439 M205.292 68.8402 Q211.102 68.8402 214.157 73.4467 Q217.236 78.03 217.236 86.7799 Q217.236 95.5067 214.157 100.113 Q211.102 104.696 205.292 104.696 Q199.482 104.696 196.403 100.113 Q193.347 95.5067 193.347 86.7799 Q193.347 78.03 196.403 73.4467 Q199.482 68.8402 205.292 68.8402 Z" fill="#000000" fill-rule="evenodd" fill-opacity="1" /><path clip-path="url(#clip450)" d="M 0 0 M37.8627 767.773 Q38.3136 767.773 39.3764 768.063 L64.5613 774.376 Q70.1652 775.76 74.0943 780.269 Q78.0234 784.746 78.0234 789.834 Q78.0234 792.894 76.3809 794.859 Q74.7706 796.823 72.2907 796.823 Q70.1007 796.823 69.038 795.664 Q68.0074 794.504 68.0074 793.119 Q68.0074 792.669 68.1362 792.185 Q68.265 791.702 68.8125 791.187 Q69.36 790.672 70.294 790.672 Q71.8077 790.672 72.9993 791.992 Q73.5468 792.636 73.6756 793.248 Q73.8044 793.828 73.8044 794.826 Q74.7062 794.44 75.3181 793.731 Q75.93 793.023 76.1555 792.218 Q76.4131 791.413 76.4775 790.897 Q76.5741 790.35 76.5741 789.834 Q76.5741 785.712 72.4196 782.556 Q71.1635 781.622 69.9075 780.946 Q68.6837 780.237 67.17 779.722 Q65.6885 779.207 64.8834 778.981 Q64.0783 778.723 62.2425 778.273 Q65.2377 781.268 65.2377 784.939 Q65.2377 786.485 64.819 787.87 Q64.4003 789.223 63.5308 790.414 Q62.629 791.606 61.0509 792.314 Q59.4728 792.991 57.3794 792.991 Q55.1572 792.991 52.1299 792.121 Q49.1025 791.251 43.5309 789.158 Q40.4069 788.031 38.8933 788.031 Q38.1525 788.031 37.7017 788.192 Q37.2186 788.353 37.0575 788.675 Q36.8643 788.997 36.8321 789.19 Q36.7999 789.351 36.7999 789.673 Q36.7999 791.574 38.7322 793.345 Q40.6646 795.116 44.9802 796.34 Q45.7853 796.598 45.9786 796.759 Q46.1718 796.92 46.1718 797.403 Q46.1396 798.208 45.4955 798.208 Q45.2378 798.208 44.2394 797.918 Q43.2089 797.628 41.6952 796.952 Q40.1493 796.243 38.7644 795.277 Q37.3474 794.311 36.349 792.797 Q35.3506 791.251 35.3506 789.48 Q35.3506 787.065 36.9287 785.583 Q38.4746 784.07 40.7612 784.07 Q41.6952 784.07 42.5325 784.327 Q43.3377 784.553 45.4955 785.39 Q54.1911 788.772 58.4422 788.772 Q59.4728 788.772 60.3424 788.611 Q61.1797 788.417 62.0171 787.999 Q62.8222 787.58 63.3053 786.743 Q63.7562 785.873 63.7562 784.681 Q63.7562 783.168 63.0477 781.751 Q62.3069 780.302 61.3085 779.4 Q60.3102 778.466 59.4728 777.918 Q58.6033 777.339 58.1524 777.21 L46.3006 774.247 L41.0189 772.926 Q38.1525 772.314 37.444 772.025 Q36.7677 771.638 36.4134 770.962 Q36.0592 770.285 36.0592 769.706 Q36.0592 768.901 36.5422 768.353 Q37.0253 767.773 37.8627 767.773 Z" fill="#000000" fill-rule="evenodd" fill-opacity="1" /><path clip-path="url(#clip450)" d="M 0 0 M48.0075 766.214 Q36.8643 766.214 27.8789 762.059 Q24.1108 760.288 20.9546 757.808 Q17.7984 755.328 16.4136 753.686 Q15.0287 752.043 15.0287 751.592 Q15.0287 750.948 15.6728 750.916 Q15.9949 750.916 16.8 751.786 Q27.6212 762.413 48.0075 762.381 Q68.4582 762.381 78.8607 752.043 Q79.9879 750.916 80.3422 750.916 Q80.9863 750.916 80.9863 751.592 Q80.9863 752.043 79.6659 753.621 Q78.3454 755.199 75.3181 757.647 Q72.2907 760.095 68.5871 761.866 Q59.6016 766.214 48.0075 766.214 Z" fill="#000000" fill-rule="evenodd" fill-opacity="1" /><path clip-path="url(#clip450)" d="M 0 0 M36.7999 720.629 Q37.7017 720.629 37.9271 721.048 Q38.1203 721.466 38.1203 722.626 L38.1203 728.809 L57.5727 733.704 Q59.2796 734.091 60.7288 734.091 Q62.3391 734.091 63.0477 733.608 Q63.7562 733.093 63.7562 732.03 Q63.7562 729.936 61.856 727.682 Q59.9559 725.395 55.3183 723.463 Q54.7063 723.205 54.5775 723.077 Q54.4165 722.915 54.4165 722.497 Q54.4165 721.692 55.0606 721.692 Q55.2861 721.692 56.3166 722.143 Q57.3472 722.561 58.8609 723.495 Q60.3746 724.397 61.7916 725.589 Q63.2087 726.748 64.2393 728.519 Q65.2377 730.291 65.2377 732.191 Q65.2377 734.864 63.5308 736.571 Q61.8238 738.245 59.1508 738.245 Q58.2812 738.245 55.5115 737.569 Q52.7096 736.893 38.1203 733.221 L38.1203 739.051 Q38.1203 739.856 38.0881 740.178 Q38.0559 740.468 37.8949 740.693 Q37.7017 740.886 37.3152 740.886 Q36.7033 740.886 36.4456 740.629 Q36.1558 740.371 36.1236 740.049 Q36.0592 739.695 36.0592 738.89 L36.0592 732.706 L25.5922 730.13 Q24.5617 729.872 23.982 729.228 Q23.37 728.552 23.3056 728.165 Q23.209 727.779 23.209 727.489 Q23.209 726.619 23.6921 726.104 Q24.143 725.589 24.9803 725.589 Q25.4312 725.589 36.0592 728.294 L36.0592 722.497 Q36.0592 721.756 36.0914 721.466 Q36.1236 721.144 36.2846 720.887 Q36.4456 720.629 36.7999 720.629 Z" fill="#000000" fill-rule="evenodd" fill-opacity="1" /><path clip-path="url(#clip450)" d="M 0 0 M80.3422 717.313 Q80.0202 717.313 79.215 716.476 Q68.3938 705.848 48.0075 705.848 Q27.5568 705.848 17.2187 716.057 Q16.0271 717.313 15.6728 717.313 Q15.0287 717.313 15.0287 716.669 Q15.0287 716.218 16.3492 714.64 Q17.6696 713.03 20.697 710.615 Q23.7243 708.167 27.428 706.363 Q36.4134 702.016 48.0075 702.016 Q59.1508 702.016 68.1362 706.17 Q71.9043 707.941 75.0605 710.421 Q78.2166 712.901 79.6015 714.544 Q80.9863 716.186 80.9863 716.669 Q80.9863 717.313 80.3422 717.313 Z" fill="#000000" fill-rule="evenodd" fill-opacity="1" /><polyline clip-path="url(#clip452)" style="stroke:#009af9; stroke-width:8; stroke-opacity:1; fill:none" points="
  368.713,745.101 373.275,745.101 377.837,745.101 382.399,745.101 386.962,745.101 408.053,745.101 429.144,745.1 450.235,740.149 471.326,726.14 492.418,704.273 
  513.509,675.922 534.6,642.6 555.691,605.919 581.041,559.734 606.391,513.99 631.741,471.473 657.091,434.751 678.524,409.893 699.957,391.914 721.39,381.695 
  742.823,379.844 754.464,382.472 766.105,387.683 777.746,395.467 789.387,405.786 801.028,418.579 812.67,433.758 824.311,451.214 835.952,470.813 857.416,512.034 
  878.88,558.863 900.344,609.968 921.809,663.872 944.82,722.974 967.832,781.47 990.844,837.365 1013.86,888.744 1027.19,915.742 1040.52,940.318 1053.85,962.192 
  1067.18,981.112 1080.51,996.865 1093.84,1009.27 1107.17,1018.2 1120.5,1023.54 1132.35,1025.25 1144.2,1024.08 1156.04,1020.06 1167.89,1013.23 1179.74,1003.66 
  1191.58,991.453 1203.43,976.736 1215.28,959.657 1236.05,924.525 1256.83,883.734 1277.61,838.519 1298.39,790.248 1343.69,681.479 1389,580.553 1400.39,558.145 
  1411.78,537.354 1423.18,518.368 1434.57,501.357 1445.96,486.477 1457.36,473.862 1468.75,463.627 1480.14,455.864 1492.74,450.246 1505.34,447.8 1517.94,448.557 
  1530.53,452.509 1543.13,459.616 1555.73,469.802 1568.32,482.958 1580.92,498.942 1604.89,536.525 1628.87,582.229 1652.84,634.262 1676.81,690.583 1701.73,751.312 
  1726.66,811.704 1751.58,869.195 1776.51,921.342 1787,941.148 1797.49,959.461 1807.98,976.142 1818.47,991.068 1839.45,1015.21 1860.44,1031.17 1873.24,1036.66 
  1886.05,1038.86 1898.86,1037.74 1911.67,1033.31 1924.48,1025.62 1937.28,1014.76 1950.09,1000.85 1962.9,984.056 1986.98,945.335 2011.06,898.63 2035.14,845.802 
  2059.22,788.953 2097.8,695.185 2136.38,606.452 2155.66,566.837 2174.95,531.769 2194.24,502.145 2213.53,478.722 2219.47,472.858 2225.4,467.654 2231.34,463.122 
  2237.28,459.273 
  "/>
<polyline clip-path="url(#clip452)" style="stroke:#e26f46; stroke-width:8; stroke-opacity:1; fill:none" points="
  312.656,745.101 317.492,745.101 322.328,745.101 327.164,745.101 331.999,745.101 354.356,745.101 376.713,745.101 387.891,745.101 399.07,745.101 410.248,745.101 
  421.426,745.101 427.015,745.101 432.605,725.363 438.194,694.885 443.783,664.516 454.961,604.361 466.14,545.416 488.496,433.164 510.853,331.609 524.288,277.197 
  537.724,228.59 551.159,186.392 564.595,151.127 578.03,123.232 591.466,103.053 604.901,90.8398 618.336,86.7452 629.696,89.6572 641.055,98.3845 652.415,112.85 
  663.774,132.925 675.134,158.431 686.493,189.143 697.853,224.787 709.212,265.048 733.892,366.661 758.571,484.08 783.25,612.399 807.929,746.26 830.681,869.755 
  853.433,988.823 876.185,1099.24 898.937,1197.07 911.134,1243.11 923.33,1284.05 935.526,1319.48 947.722,1349.04 959.919,1372.42 972.115,1389.39 984.311,1399.77 
  996.508,1403.45 1010.64,1399.3 1024.77,1386.17 1038.9,1364.24 1053.03,1333.82 1067.16,1295.31 1081.29,1249.26 1095.42,1196.28 1109.55,1137.12 1134.67,1019.25 
  1159.78,889.517 1184.9,753.543 1210.01,617.204 1232.04,502.004 1254.06,394.895 1276.08,299.442 1298.11,218.821 1310.11,182.101 1322.12,150.96 1334.13,125.706 
  1346.13,106.592 1358.14,93.8044 1370.14,87.4716 1382.15,87.6561 1394.16,94.3559 1406.23,107.602 1418.31,127.241 1430.39,153.076 1442.46,184.847 1454.54,222.237 
  1466.62,264.871 1478.7,312.32 1490.77,364.109 1517.48,491.392 1544.19,631.074 1570.89,776.33 1597.6,920.059 1623.01,1048.98 1648.42,1164.44 1661.12,1215.51 
  1673.83,1261.35 1686.53,1301.46 1699.24,1335.4 1712.45,1363.74 1725.66,1384.66 1738.87,1397.9 1752.08,1403.32 1765.29,1400.84 1778.5,1390.49 1791.71,1372.4 
  1804.92,1346.79 1827.16,1287.56 1849.4,1209.92 1871.64,1116.5 1893.88,1010.48 1948.19,721.68 2002.49,437.553 2015.26,377.765 2028.02,322.091 2040.78,271.152 
  2053.54,225.52 2066.31,185.707 2079.07,152.156 2091.83,125.245 2104.59,105.275 2114.82,94.4371 2125.04,88.2761 2135.26,86.8358 2145.49,90.1265 2155.71,98.1246 
  2165.93,110.773 2176.15,127.98 2186.38,149.622 2206.82,205.559 2227.27,276.98 2247.72,361.835 2268.16,457.687 2274.46,488.985 2280.75,520.98 2287.04,553.586 
  2293.34,586.714 
  "/>
<polyline clip-path="url(#clip452)" style="stroke:#008000; stroke-width:4; stroke-opacity:1; fill:none" points="
  1375.81,119.663 1375.81,810.936 1501.91,810.936 1501.91,481.758 
  "/>
<polyline clip-path="url(#clip452)" style="stroke:#008000; stroke-width:4; stroke-opacity:1; fill:none" points="
  428.99,810.936 850.924,810.936 
  "/>
<path clip-path="url(#clip450)" d="
M1824.15 1396.43 L2282.77 1396.43 L2282.77 1214.99 L1824.15 1214.99  Z
  " fill="#ffffff" fill-rule="evenodd" fill-opacity="1"/>
<polyline clip-path="url(#clip450)" style="stroke:#000000; stroke-width:4; stroke-opacity:1; fill:none" points="
  1824.15,1396.43 2282.77,1396.43 2282.77,1214.99 1824.15,1214.99 1824.15,1396.43 
  "/>
<polyline clip-path="url(#clip450)" style="stroke:#009af9; stroke-width:4; stroke-opacity:1; fill:none" points="
  1847.47,1275.47 1987.44,1275.47 
  "/>
<path clip-path="url(#clip450)" d="M 0 0 M2025.96 1270.8 Q2025.24 1270.39 2024.38 1270.2 Q2023.55 1269.99 2022.53 1269.99 Q2018.92 1269.99 2016.97 1272.35 Q2015.05 1274.69 2015.05 1279.09 L2015.05 1292.75 L2010.77 1292.75 L2010.77 1266.82 L2015.05 1266.82 L2015.05 1270.85 Q2016.39 1268.49 2018.55 1267.35 Q2020.7 1266.2 2023.78 1266.2 Q2024.22 1266.2 2024.75 1266.26 Q2025.28 1266.31 2025.93 1266.43 L2025.96 1270.8 Z" fill="#000000" fill-rule="evenodd" fill-opacity="1" /><path clip-path="url(#clip450)" d="M 0 0 M2051.56 1278.72 L2051.56 1280.8 L2031.97 1280.8 Q2032.25 1285.2 2034.61 1287.51 Q2037 1289.81 2041.23 1289.81 Q2043.69 1289.81 2045.98 1289.2 Q2048.29 1288.6 2050.56 1287.4 L2050.56 1291.43 Q2048.27 1292.4 2045.86 1292.91 Q2043.45 1293.42 2040.98 1293.42 Q2034.77 1293.42 2031.14 1289.81 Q2027.53 1286.2 2027.53 1280.04 Q2027.53 1273.67 2030.95 1269.95 Q2034.4 1266.2 2040.24 1266.2 Q2045.47 1266.2 2048.5 1269.58 Q2051.56 1272.93 2051.56 1278.72 M2047.3 1277.47 Q2047.25 1273.97 2045.33 1271.89 Q2043.43 1269.81 2040.28 1269.81 Q2036.72 1269.81 2034.57 1271.82 Q2032.44 1273.83 2032.11 1277.49 L2047.3 1277.47 Z" fill="#000000" fill-rule="evenodd" fill-opacity="1" /><path clip-path="url(#clip450)" d="M 0 0 M2075.08 1267.58 L2075.08 1271.61 Q2073.27 1270.69 2071.33 1270.22 Q2069.38 1269.76 2067.3 1269.76 Q2064.13 1269.76 2062.53 1270.73 Q2060.95 1271.7 2060.95 1273.65 Q2060.95 1275.13 2062.09 1275.99 Q2063.22 1276.82 2066.65 1277.58 L2068.11 1277.91 Q2072.64 1278.88 2074.54 1280.66 Q2076.46 1282.42 2076.46 1285.59 Q2076.46 1289.2 2073.59 1291.31 Q2070.75 1293.42 2065.75 1293.42 Q2063.66 1293.42 2061.39 1293 Q2059.15 1292.61 2056.65 1291.8 L2056.65 1287.4 Q2059.01 1288.63 2061.3 1289.25 Q2063.59 1289.85 2065.84 1289.85 Q2068.85 1289.85 2070.47 1288.83 Q2072.09 1287.79 2072.09 1285.92 Q2072.09 1284.18 2070.91 1283.26 Q2069.75 1282.33 2065.79 1281.47 L2064.31 1281.13 Q2060.35 1280.29 2058.59 1278.58 Q2056.83 1276.84 2056.83 1273.83 Q2056.83 1270.18 2059.43 1268.19 Q2062.02 1266.2 2066.79 1266.2 Q2069.15 1266.2 2071.23 1266.54 Q2073.32 1266.89 2075.08 1267.58 Z" fill="#000000" fill-rule="evenodd" fill-opacity="1" /><path clip-path="url(#clip450)" d="M 0 0 M2087.37 1288.86 L2087.37 1302.61 L2083.08 1302.61 L2083.08 1266.82 L2087.37 1266.82 L2087.37 1270.76 Q2088.71 1268.44 2090.75 1267.33 Q2092.81 1266.2 2095.65 1266.2 Q2100.38 1266.2 2103.32 1269.95 Q2106.28 1273.7 2106.28 1279.81 Q2106.28 1285.92 2103.32 1289.67 Q2100.38 1293.42 2095.65 1293.42 Q2092.81 1293.42 2090.75 1292.31 Q2088.71 1291.17 2087.37 1288.86 M2101.86 1279.81 Q2101.86 1275.11 2099.91 1272.45 Q2097.99 1269.76 2094.61 1269.76 Q2091.23 1269.76 2089.29 1272.45 Q2087.37 1275.11 2087.37 1279.81 Q2087.37 1284.51 2089.29 1287.19 Q2091.23 1289.85 2094.61 1289.85 Q2097.99 1289.85 2099.91 1287.19 Q2101.86 1284.51 2101.86 1279.81 Z" fill="#000000" fill-rule="evenodd" fill-opacity="1" /><path clip-path="url(#clip450)" d="M 0 0 M2112.9 1282.51 L2112.9 1266.82 L2117.16 1266.82 L2117.16 1282.35 Q2117.16 1286.03 2118.59 1287.89 Q2120.03 1289.71 2122.9 1289.71 Q2126.35 1289.71 2128.34 1287.51 Q2130.35 1285.32 2130.35 1281.52 L2130.35 1266.82 L2134.61 1266.82 L2134.61 1292.75 L2130.35 1292.75 L2130.35 1288.76 Q2128.8 1291.13 2126.74 1292.28 Q2124.7 1293.42 2122 1293.42 Q2117.53 1293.42 2115.21 1290.64 Q2112.9 1287.86 2112.9 1282.51 M2123.62 1266.2 L2123.62 1266.2 Z" fill="#000000" fill-rule="evenodd" fill-opacity="1" /><path clip-path="url(#clip450)" d="M 0 0 M2165.56 1278.72 L2165.56 1280.8 L2145.98 1280.8 Q2146.26 1285.2 2148.62 1287.51 Q2151 1289.81 2155.24 1289.81 Q2157.69 1289.81 2159.98 1289.2 Q2162.3 1288.6 2164.57 1287.4 L2164.57 1291.43 Q2162.27 1292.4 2159.87 1292.91 Q2157.46 1293.42 2154.98 1293.42 Q2148.78 1293.42 2145.14 1289.81 Q2141.53 1286.2 2141.53 1280.04 Q2141.53 1273.67 2144.96 1269.95 Q2148.41 1266.2 2154.24 1266.2 Q2159.47 1266.2 2162.51 1269.58 Q2165.56 1272.93 2165.56 1278.72 M2161.3 1277.47 Q2161.26 1273.97 2159.33 1271.89 Q2157.44 1269.81 2154.29 1269.81 Q2150.72 1269.81 2148.57 1271.82 Q2146.44 1273.83 2146.12 1277.49 L2161.3 1277.47 Z" fill="#000000" fill-rule="evenodd" fill-opacity="1" /><path clip-path="url(#clip450)" d="M 0 0 M2189.08 1267.58 L2189.08 1271.61 Q2187.27 1270.69 2185.33 1270.22 Q2183.38 1269.76 2181.3 1269.76 Q2178.13 1269.76 2176.53 1270.73 Q2174.96 1271.7 2174.96 1273.65 Q2174.96 1275.13 2176.09 1275.99 Q2177.23 1276.82 2180.65 1277.58 L2182.11 1277.91 Q2186.65 1278.88 2188.55 1280.66 Q2190.47 1282.42 2190.47 1285.59 Q2190.47 1289.2 2187.6 1291.31 Q2184.75 1293.42 2179.75 1293.42 Q2177.67 1293.42 2175.4 1293 Q2173.15 1292.61 2170.65 1291.8 L2170.65 1287.4 Q2173.01 1288.63 2175.31 1289.25 Q2177.6 1289.85 2179.84 1289.85 Q2182.85 1289.85 2184.47 1288.83 Q2186.09 1287.79 2186.09 1285.92 Q2186.09 1284.18 2184.91 1283.26 Q2183.76 1282.33 2179.8 1281.47 L2178.32 1281.13 Q2174.36 1280.29 2172.6 1278.58 Q2170.84 1276.84 2170.84 1273.83 Q2170.84 1270.18 2173.43 1268.19 Q2176.02 1266.2 2180.79 1266.2 Q2183.15 1266.2 2185.24 1266.54 Q2187.32 1266.89 2189.08 1267.58 Z" fill="#000000" fill-rule="evenodd" fill-opacity="1" /><path clip-path="url(#clip450)" d="M 0 0 M2201.46 1259.46 L2201.46 1266.82 L2210.24 1266.82 L2210.24 1270.13 L2201.46 1270.13 L2201.46 1284.2 Q2201.46 1287.38 2202.32 1288.28 Q2203.2 1289.18 2205.86 1289.18 L2210.24 1289.18 L2210.24 1292.75 L2205.86 1292.75 Q2200.93 1292.75 2199.06 1290.92 Q2197.18 1289.07 2197.18 1284.2 L2197.18 1270.13 L2194.06 1270.13 L2194.06 1266.82 L2197.18 1266.82 L2197.18 1259.46 L2201.46 1259.46 Z" fill="#000000" fill-rule="evenodd" fill-opacity="1" /><path clip-path="url(#clip450)" d="M 0 0 M2227.62 1279.71 Q2222.46 1279.71 2220.47 1280.89 Q2218.48 1282.08 2218.48 1284.92 Q2218.48 1287.19 2219.96 1288.53 Q2221.46 1289.85 2224.03 1289.85 Q2227.57 1289.85 2229.7 1287.35 Q2231.86 1284.83 2231.86 1280.66 L2231.86 1279.71 L2227.62 1279.71 M2236.12 1277.95 L2236.12 1292.75 L2231.86 1292.75 L2231.86 1288.81 Q2230.4 1291.17 2228.22 1292.31 Q2226.05 1293.42 2222.9 1293.42 Q2218.92 1293.42 2216.56 1291.2 Q2214.22 1288.95 2214.22 1285.2 Q2214.22 1280.83 2217.13 1278.6 Q2220.07 1276.38 2225.88 1276.38 L2231.86 1276.38 L2231.86 1275.96 Q2231.86 1273.02 2229.91 1271.43 Q2227.99 1269.81 2224.5 1269.81 Q2222.27 1269.81 2220.17 1270.34 Q2218.06 1270.87 2216.12 1271.94 L2216.12 1268 Q2218.45 1267.1 2220.65 1266.66 Q2222.85 1266.2 2224.94 1266.2 Q2230.56 1266.2 2233.34 1269.11 Q2236.12 1272.03 2236.12 1277.95 Z" fill="#000000" fill-rule="evenodd" fill-opacity="1" /><polyline clip-path="url(#clip450)" style="stroke:#e26f46; stroke-width:4; stroke-opacity:1; fill:none" points="
  1847.47,1335.95 1987.44,1335.95 
  "/>
<path clip-path="url(#clip450)" d="M 0 0 M2034.8 1339.2 L2034.8 1341.28 L2015.21 1341.28 Q2015.49 1345.68 2017.85 1347.99 Q2020.24 1350.29 2024.47 1350.29 Q2026.93 1350.29 2029.22 1349.68 Q2031.53 1349.08 2033.8 1347.88 L2033.8 1351.91 Q2031.51 1352.88 2029.1 1353.39 Q2026.7 1353.9 2024.22 1353.9 Q2018.02 1353.9 2014.38 1350.29 Q2010.77 1346.68 2010.77 1340.52 Q2010.77 1334.15 2014.2 1330.43 Q2017.64 1326.68 2023.48 1326.68 Q2028.71 1326.68 2031.74 1330.06 Q2034.8 1333.41 2034.8 1339.2 M2030.54 1337.95 Q2030.49 1334.45 2028.57 1332.37 Q2026.67 1330.29 2023.52 1330.29 Q2019.96 1330.29 2017.81 1332.3 Q2015.68 1334.31 2015.35 1337.97 L2030.54 1337.95 Z" fill="#000000" fill-rule="evenodd" fill-opacity="1" /><path clip-path="url(#clip450)" d="M 0 0 M2063.34 1337.58 L2063.34 1353.23 L2059.08 1353.23 L2059.08 1337.72 Q2059.08 1334.04 2057.64 1332.21 Q2056.21 1330.38 2053.34 1330.38 Q2049.89 1330.38 2047.9 1332.58 Q2045.91 1334.78 2045.91 1338.57 L2045.91 1353.23 L2041.63 1353.23 L2041.63 1327.3 L2045.91 1327.3 L2045.91 1331.33 Q2047.44 1328.99 2049.5 1327.83 Q2051.58 1326.68 2054.29 1326.68 Q2058.76 1326.68 2061.05 1329.45 Q2063.34 1332.21 2063.34 1337.58 Z" fill="#000000" fill-rule="evenodd" fill-opacity="1" /><path clip-path="url(#clip450)" d="M 0 0 M2076.05 1319.94 L2076.05 1327.3 L2084.82 1327.3 L2084.82 1330.61 L2076.05 1330.61 L2076.05 1344.68 Q2076.05 1347.86 2076.9 1348.76 Q2077.78 1349.66 2080.45 1349.66 L2084.82 1349.66 L2084.82 1353.23 L2080.45 1353.23 Q2075.51 1353.23 2073.64 1351.4 Q2071.76 1349.55 2071.76 1344.68 L2071.76 1330.61 L2068.64 1330.61 L2068.64 1327.3 L2071.76 1327.3 L2071.76 1319.94 L2076.05 1319.94 Z" fill="#000000" fill-rule="evenodd" fill-opacity="1" /><path clip-path="url(#clip450)" d="M 0 0 M2105.45 1331.28 Q2104.73 1330.87 2103.87 1330.68 Q2103.04 1330.47 2102.02 1330.47 Q2098.41 1330.47 2096.46 1332.83 Q2094.54 1335.17 2094.54 1339.57 L2094.54 1353.23 L2090.26 1353.23 L2090.26 1327.3 L2094.54 1327.3 L2094.54 1331.33 Q2095.89 1328.97 2098.04 1327.83 Q2100.19 1326.68 2103.27 1326.68 Q2103.71 1326.68 2104.24 1326.74 Q2104.77 1326.79 2105.42 1326.91 L2105.45 1331.28 Z" fill="#000000" fill-rule="evenodd" fill-opacity="1" /><path clip-path="url(#clip450)" d="M 0 0 M2121.7 1340.19 Q2116.53 1340.19 2114.54 1341.37 Q2112.55 1342.56 2112.55 1345.4 Q2112.55 1347.67 2114.03 1349.01 Q2115.54 1350.33 2118.11 1350.33 Q2121.65 1350.33 2123.78 1347.83 Q2125.93 1345.31 2125.93 1341.14 L2125.93 1340.19 L2121.7 1340.19 M2130.19 1338.43 L2130.19 1353.23 L2125.93 1353.23 L2125.93 1349.29 Q2124.47 1351.65 2122.3 1352.79 Q2120.12 1353.9 2116.97 1353.9 Q2112.99 1353.9 2110.63 1351.68 Q2108.29 1349.43 2108.29 1345.68 Q2108.29 1341.31 2111.21 1339.08 Q2114.15 1336.86 2119.96 1336.86 L2125.93 1336.86 L2125.93 1336.44 Q2125.93 1333.5 2123.99 1331.91 Q2122.07 1330.29 2118.57 1330.29 Q2116.35 1330.29 2114.24 1330.82 Q2112.14 1331.35 2110.19 1332.42 L2110.19 1328.48 Q2112.53 1327.58 2114.73 1327.14 Q2116.93 1326.68 2119.01 1326.68 Q2124.64 1326.68 2127.41 1329.59 Q2130.19 1332.51 2130.19 1338.43 Z" fill="#000000" fill-rule="evenodd" fill-opacity="1" /><path clip-path="url(#clip450)" d="M 0 0 M2156.02 1331.24 L2156.02 1317.21 L2160.28 1317.21 L2160.28 1353.23 L2156.02 1353.23 L2156.02 1349.34 Q2154.68 1351.65 2152.62 1352.79 Q2150.58 1353.9 2147.71 1353.9 Q2143.01 1353.9 2140.05 1350.15 Q2137.11 1346.4 2137.11 1340.29 Q2137.11 1334.18 2140.05 1330.43 Q2143.01 1326.68 2147.71 1326.68 Q2150.58 1326.68 2152.62 1327.81 Q2154.68 1328.92 2156.02 1331.24 M2141.51 1340.29 Q2141.51 1344.99 2143.43 1347.67 Q2145.38 1350.33 2148.76 1350.33 Q2152.13 1350.33 2154.08 1347.67 Q2156.02 1344.99 2156.02 1340.29 Q2156.02 1335.59 2154.08 1332.93 Q2152.13 1330.24 2148.76 1330.24 Q2145.38 1330.24 2143.43 1332.93 Q2141.51 1335.59 2141.51 1340.29 Z" fill="#000000" fill-rule="evenodd" fill-opacity="1" /><path clip-path="url(#clip450)" d="M 0 0 M2180.84 1340.19 Q2175.68 1340.19 2173.69 1341.37 Q2171.69 1342.56 2171.69 1345.4 Q2171.69 1347.67 2173.18 1349.01 Q2174.68 1350.33 2177.25 1350.33 Q2180.79 1350.33 2182.92 1347.83 Q2185.07 1345.31 2185.07 1341.14 L2185.07 1340.19 L2180.84 1340.19 M2189.33 1338.43 L2189.33 1353.23 L2185.07 1353.23 L2185.07 1349.29 Q2183.62 1351.65 2181.44 1352.79 Q2179.26 1353.9 2176.12 1353.9 Q2172.13 1353.9 2169.77 1351.68 Q2167.44 1349.43 2167.44 1345.68 Q2167.44 1341.31 2170.35 1339.08 Q2173.29 1336.86 2179.1 1336.86 L2185.07 1336.86 L2185.07 1336.44 Q2185.07 1333.5 2183.13 1331.91 Q2181.21 1330.29 2177.71 1330.29 Q2175.49 1330.29 2173.38 1330.82 Q2171.28 1331.35 2169.33 1332.42 L2169.33 1328.48 Q2171.67 1327.58 2173.87 1327.14 Q2176.07 1326.68 2178.15 1326.68 Q2183.78 1326.68 2186.56 1329.59 Q2189.33 1332.51 2189.33 1338.43 Z" fill="#000000" fill-rule="evenodd" fill-opacity="1" /><path clip-path="url(#clip450)" d="M 0 0 M1353.64 878.117 Q1355.52 878.754 1357.29 880.837 Q1359.08 882.92 1360.87 886.566 L1366.81 898.372 L1360.53 898.372 L1355 887.29 Q1352.86 882.949 1350.83 881.532 Q1348.84 880.114 1345.36 880.114 L1339 880.114 L1339 898.372 L1333.15 898.372 L1333.15 855.172 L1346.35 855.172 Q1353.76 855.172 1357.4 858.268 Q1361.05 861.364 1361.05 867.614 Q1361.05 871.694 1359.14 874.385 Q1357.26 877.076 1353.64 878.117 M1339 859.975 L1339 875.311 L1346.35 875.311 Q1350.57 875.311 1352.71 873.372 Q1354.88 871.404 1354.88 867.614 Q1354.88 863.823 1352.71 861.914 Q1350.57 859.975 1346.35 859.975 L1339 859.975 Z" fill="#000000" fill-rule="evenodd" fill-opacity="1" /><path clip-path="url(#clip450)" d="M 0 0 M1399.15 880.837 L1399.15 883.441 L1374.68 883.441 Q1375.02 888.939 1377.97 891.832 Q1380.95 894.697 1386.25 894.697 Q1389.32 894.697 1392.18 893.945 Q1395.08 893.192 1397.91 891.688 L1397.91 896.722 Q1395.05 897.938 1392.04 898.574 Q1389.03 899.211 1385.93 899.211 Q1378.18 899.211 1373.63 894.697 Q1369.12 890.183 1369.12 882.486 Q1369.12 874.529 1373.4 869.871 Q1377.71 865.183 1385.01 865.183 Q1391.54 865.183 1395.34 869.408 Q1399.15 873.603 1399.15 880.837 M1393.83 879.275 Q1393.77 874.905 1391.37 872.301 Q1389 869.697 1385.06 869.697 Q1380.61 869.697 1377.92 872.215 Q1375.25 874.732 1374.85 879.304 L1393.83 879.275 Z" fill="#000000" fill-rule="evenodd" fill-opacity="1" /><path clip-path="url(#clip450)" d="M 0 0 M1413.16 856.763 L1413.16 865.965 L1424.13 865.965 L1424.13 870.102 L1413.16 870.102 L1413.16 887.695 Q1413.16 891.659 1414.23 892.787 Q1415.33 893.916 1418.66 893.916 L1424.13 893.916 L1424.13 898.372 L1418.66 898.372 Q1412.49 898.372 1410.15 896.086 Q1407.81 893.771 1407.81 887.695 L1407.81 870.102 L1403.9 870.102 L1403.9 865.965 L1407.81 865.965 L1407.81 856.763 L1413.16 856.763 Z" fill="#000000" fill-rule="evenodd" fill-opacity="1" /><path clip-path="url(#clip450)" d="M 0 0 M1449.91 870.941 Q1449.01 870.421 1447.94 870.189 Q1446.9 869.929 1445.62 869.929 Q1441.11 869.929 1438.68 872.88 Q1436.28 875.802 1436.28 881.3 L1436.28 898.372 L1430.93 898.372 L1430.93 865.965 L1436.28 865.965 L1436.28 870.999 Q1437.96 868.048 1440.65 866.63 Q1443.34 865.183 1447.19 865.183 Q1447.74 865.183 1448.4 865.27 Q1449.07 865.328 1449.88 865.473 L1449.91 870.941 Z" fill="#000000" fill-rule="evenodd" fill-opacity="1" /><path clip-path="url(#clip450)" d="M 0 0 M1470.22 882.081 Q1463.77 882.081 1461.28 883.557 Q1458.79 885.033 1458.79 888.592 Q1458.79 891.427 1460.64 893.106 Q1462.52 894.755 1465.73 894.755 Q1470.16 894.755 1472.82 891.63 Q1475.51 888.476 1475.51 883.268 L1475.51 882.081 L1470.22 882.081 M1480.84 879.882 L1480.84 898.372 L1475.51 898.372 L1475.51 893.453 Q1473.69 896.404 1470.97 897.822 Q1468.25 899.211 1464.32 899.211 Q1459.34 899.211 1456.39 896.433 Q1453.47 893.626 1453.47 888.939 Q1453.47 883.47 1457.11 880.692 Q1460.79 877.915 1468.05 877.915 L1475.51 877.915 L1475.51 877.394 Q1475.51 873.719 1473.08 871.723 Q1470.68 869.697 1466.31 869.697 Q1463.54 869.697 1460.9 870.363 Q1458.27 871.028 1455.84 872.359 L1455.84 867.44 Q1458.76 866.312 1461.51 865.762 Q1464.26 865.183 1466.86 865.183 Q1473.89 865.183 1477.37 868.829 Q1480.84 872.475 1480.84 879.882 Z" fill="#000000" fill-rule="evenodd" fill-opacity="1" /><path clip-path="url(#clip450)" d="M 0 0 M1512.46 866.919 L1512.46 871.954 Q1510.21 870.797 1507.78 870.218 Q1505.35 869.639 1502.74 869.639 Q1498.78 869.639 1496.78 870.855 Q1494.81 872.07 1494.81 874.5 Q1494.81 876.352 1496.23 877.423 Q1497.65 878.464 1501.93 879.419 L1503.75 879.824 Q1509.43 881.04 1511.8 883.268 Q1514.2 885.467 1514.2 889.431 Q1514.2 893.945 1510.61 896.578 Q1507.05 899.211 1500.8 899.211 Q1498.2 899.211 1495.36 898.69 Q1492.56 898.198 1489.43 897.185 L1489.43 891.688 Q1492.38 893.221 1495.25 894.003 Q1498.11 894.755 1500.92 894.755 Q1504.68 894.755 1506.71 893.482 Q1508.73 892.18 1508.73 889.836 Q1508.73 887.666 1507.26 886.508 Q1505.81 885.351 1500.86 884.28 L1499.01 883.846 Q1494.06 882.805 1491.86 880.664 Q1489.66 878.493 1489.66 874.732 Q1489.66 870.16 1492.9 867.672 Q1496.15 865.183 1502.11 865.183 Q1505.06 865.183 1507.66 865.617 Q1510.27 866.051 1512.46 866.919 Z" fill="#000000" fill-rule="evenodd" fill-opacity="1" /><path clip-path="url(#clip450)" d="M 0 0 M1535.24 869.697 Q1530.95 869.697 1528.47 873.054 Q1525.98 876.381 1525.98 882.197 Q1525.98 888.013 1528.44 891.37 Q1530.92 894.697 1535.24 894.697 Q1539.49 894.697 1541.98 891.341 Q1544.47 887.984 1544.47 882.197 Q1544.47 876.439 1541.98 873.083 Q1539.49 869.697 1535.24 869.697 M1535.24 865.183 Q1542.18 865.183 1546.14 869.697 Q1550.11 874.211 1550.11 882.197 Q1550.11 890.154 1546.14 894.697 Q1542.18 899.211 1535.24 899.211 Q1528.26 899.211 1524.3 894.697 Q1520.36 890.154 1520.36 882.197 Q1520.36 874.211 1524.3 869.697 Q1528.26 865.183 1535.24 865.183 Z" fill="#000000" fill-rule="evenodd" fill-opacity="1" /><path clip-path="url(#clip450)" d="M 0 0 M486.673 855.172 L523.218 855.172 L523.218 860.091 L507.883 860.091 L507.883 898.372 L502.009 898.372 L502.009 860.091 L486.673 860.091 L486.673 855.172 Z" fill="#000000" fill-rule="evenodd" fill-opacity="1" /><path clip-path="url(#clip450)" d="M 0 0 M538.699 870.941 Q537.802 870.421 536.731 870.189 Q535.689 869.929 534.416 869.929 Q529.902 869.929 527.472 872.88 Q525.07 875.802 525.07 881.3 L525.07 898.372 L519.717 898.372 L519.717 865.965 L525.07 865.965 L525.07 870.999 Q526.748 868.048 529.439 866.63 Q532.13 865.183 535.979 865.183 Q536.528 865.183 537.194 865.27 Q537.86 865.328 538.67 865.473 L538.699 870.941 Z" fill="#000000" fill-rule="evenodd" fill-opacity="1" /><path clip-path="url(#clip450)" d="M 0 0 M559.011 882.081 Q552.559 882.081 550.07 883.557 Q547.582 885.033 547.582 888.592 Q547.582 891.427 549.434 893.106 Q551.314 894.755 554.526 894.755 Q558.953 894.755 561.615 891.63 Q564.306 888.476 564.306 883.268 L564.306 882.081 L559.011 882.081 M569.63 879.882 L569.63 898.372 L564.306 898.372 L564.306 893.453 Q562.483 896.404 559.763 897.822 Q557.043 899.211 553.108 899.211 Q548.131 899.211 545.18 896.433 Q542.258 893.626 542.258 888.939 Q542.258 883.47 545.903 880.692 Q549.578 877.915 556.841 877.915 L564.306 877.915 L564.306 877.394 Q564.306 873.719 561.876 871.723 Q559.474 869.697 555.105 869.697 Q552.327 869.697 549.694 870.363 Q547.061 871.028 544.63 872.359 L544.63 867.44 Q547.553 866.312 550.302 865.762 Q553.05 865.183 555.655 865.183 Q562.686 865.183 566.158 868.829 Q569.63 872.475 569.63 879.882 Z" fill="#000000" fill-rule="evenodd" fill-opacity="1" /><path clip-path="url(#clip450)" d="M 0 0 M607.535 878.812 L607.535 898.372 L602.211 898.372 L602.211 878.985 Q602.211 874.385 600.417 872.099 Q598.623 869.813 595.035 869.813 Q590.724 869.813 588.235 872.562 Q585.747 875.311 585.747 880.056 L585.747 898.372 L580.394 898.372 L580.394 865.965 L585.747 865.965 L585.747 870.999 Q587.657 868.077 590.232 866.63 Q592.836 865.183 596.221 865.183 Q601.806 865.183 604.67 868.656 Q607.535 872.099 607.535 878.812 Z" fill="#000000" fill-rule="evenodd" fill-opacity="1" /><path clip-path="url(#clip450)" d="M 0 0 M638.814 866.919 L638.814 871.954 Q636.557 870.797 634.126 870.218 Q631.696 869.639 629.092 869.639 Q625.128 869.639 623.131 870.855 Q621.163 872.07 621.163 874.5 Q621.163 876.352 622.581 877.423 Q623.999 878.464 628.281 879.419 L630.104 879.824 Q635.776 881.04 638.148 883.268 Q640.55 885.467 640.55 889.431 Q640.55 893.945 636.962 896.578 Q633.403 899.211 627.153 899.211 Q624.549 899.211 621.713 898.69 Q618.907 898.198 615.782 897.185 L615.782 891.688 Q618.733 893.221 621.597 894.003 Q624.462 894.755 627.269 894.755 Q631.03 894.755 633.056 893.482 Q635.081 892.18 635.081 889.836 Q635.081 887.666 633.606 886.508 Q632.159 885.351 627.211 884.28 L625.359 883.846 Q620.411 882.805 618.212 880.664 Q616.013 878.493 616.013 874.732 Q616.013 870.16 619.254 867.672 Q622.494 865.183 628.455 865.183 Q631.406 865.183 634.011 865.617 Q636.615 866.051 638.814 866.919 Z" fill="#000000" fill-rule="evenodd" fill-opacity="1" /><path clip-path="url(#clip450)" d="M 0 0 M649.028 865.965 L654.352 865.965 L654.352 898.372 L649.028 898.372 L649.028 865.965 M649.028 853.349 L654.352 853.349 L654.352 860.091 L649.028 860.091 L649.028 853.349 Z" fill="#000000" fill-rule="evenodd" fill-opacity="1" /><path clip-path="url(#clip450)" d="M 0 0 M670.758 856.763 L670.758 865.965 L681.724 865.965 L681.724 870.102 L670.758 870.102 L670.758 887.695 Q670.758 891.659 671.829 892.787 Q672.928 893.916 676.256 893.916 L681.724 893.916 L681.724 898.372 L676.256 898.372 Q670.093 898.372 667.749 896.086 Q665.405 893.771 665.405 887.695 L665.405 870.102 L661.499 870.102 L661.499 865.965 L665.405 865.965 L665.405 856.763 L670.758 856.763 Z" fill="#000000" fill-rule="evenodd" fill-opacity="1" /><path clip-path="url(#clip450)" d="M 0 0 M701.285 869.697 Q697.002 869.697 694.514 873.054 Q692.025 876.381 692.025 882.197 Q692.025 888.013 694.485 891.37 Q696.973 894.697 701.285 894.697 Q705.538 894.697 708.026 891.341 Q710.515 887.984 710.515 882.197 Q710.515 876.439 708.026 873.083 Q705.538 869.697 701.285 869.697 M701.285 865.183 Q708.229 865.183 712.193 869.697 Q716.157 874.211 716.157 882.197 Q716.157 890.154 712.193 894.697 Q708.229 899.211 701.285 899.211 Q694.311 899.211 690.347 894.697 Q686.412 890.154 686.412 882.197 Q686.412 874.211 690.347 869.697 Q694.311 865.183 701.285 865.183 Z" fill="#000000" fill-rule="evenodd" fill-opacity="1" /><path clip-path="url(#clip450)" d="M 0 0 M743.761 870.941 Q742.864 870.421 741.794 870.189 Q740.752 869.929 739.479 869.929 Q734.965 869.929 732.534 872.88 Q730.133 875.802 730.133 881.3 L730.133 898.372 L724.78 898.372 L724.78 865.965 L730.133 865.965 L730.133 870.999 Q731.811 868.048 734.502 866.63 Q737.193 865.183 741.041 865.183 Q741.591 865.183 742.257 865.27 Q742.922 865.328 743.732 865.473 L743.761 870.941 Z" fill="#000000" fill-rule="evenodd" fill-opacity="1" /><path clip-path="url(#clip450)" d="M 0 0 M749.346 865.965 L754.67 865.965 L754.67 898.372 L749.346 898.372 L749.346 865.965 M749.346 853.349 L754.67 853.349 L754.67 860.091 L749.346 860.091 L749.346 853.349 Z" fill="#000000" fill-rule="evenodd" fill-opacity="1" /><path clip-path="url(#clip450)" d="M 0 0 M778.367 869.697 Q774.085 869.697 771.597 873.054 Q769.108 876.381 769.108 882.197 Q769.108 888.013 771.568 891.37 Q774.056 894.697 778.367 894.697 Q782.621 894.697 785.109 891.341 Q787.598 887.984 787.598 882.197 Q787.598 876.439 785.109 873.083 Q782.621 869.697 778.367 869.697 M778.367 865.183 Q785.312 865.183 789.276 869.697 Q793.24 874.211 793.24 882.197 Q793.24 890.154 789.276 894.697 Q785.312 899.211 778.367 899.211 Q771.394 899.211 767.43 894.697 Q763.495 890.154 763.495 882.197 Q763.495 874.211 767.43 869.697 Q771.394 865.183 778.367 865.183 Z" fill="#000000" fill-rule="evenodd" fill-opacity="1" /></svg>
