<?xml version="1.0" encoding="utf-8"?>
<svg xmlns="http://www.w3.org/2000/svg" xmlns:xlink="http://www.w3.org/1999/xlink" width="600" height="400" viewBox="0 0 2400 1600">
<defs>
  <clipPath id="clip040">
    <rect x="0" y="0" width="2400" height="1600"/>
  </clipPath>
</defs>
<path clip-path="url(#clip040)" d="
M0 1600 L2400 1600 L2400 0 L0 0  Z
  " fill="#ffffff" fill-rule="evenodd" fill-opacity="1"/>
<defs>
  <clipPath id="clip041">
    <rect x="480" y="0" width="1681" height="1600"/>
  </clipPath>
</defs>
<path clip-path="url(#clip040)" d="
M289.119 685.194 L2352.76 685.194 L2352.76 47.2441 L289.119 47.2441  Z
  " fill="#ffffff" fill-rule="evenodd" fill-opacity="1"/>
<defs>
  <clipPath id="clip042">
    <rect x="289" y="47" width="2065" height="639"/>
  </clipPath>
</defs>
<polyline clip-path="url(#clip040)" style="stroke:#000000; stroke-width:4; stroke-opacity:1; fill:none" points="
  289.119,685.194 2352.76,685.194 
  "/>
<polyline clip-path="url(#clip042)" style="stroke:#000000; stroke-width:2; stroke-opacity:0.1; fill:none" points="
  289.119,685.194 2352.76,685.194 
  "/>
<polyline clip-path="url(#clip042)" style="stroke:#000000; stroke-width:2; stroke-opacity:0.1; fill:none" points="
  289.119,525.707 2352.76,525.707 
  "/>
<polyline clip-path="url(#clip042)" style="stroke:#000000; stroke-width:2; stroke-opacity:0.1; fill:none" points="
  289.119,366.219 2352.76,366.219 
  "/>
<polyline clip-path="url(#clip042)" style="stroke:#000000; stroke-width:2; stroke-opacity:0.1; fill:none" points="
  289.119,206.732 2352.76,206.732 
  "/>
<polyline clip-path="url(#clip042)" style="stroke:#000000; stroke-width:2; stroke-opacity:0.1; fill:none" points="
  289.119,47.2441 2352.76,47.2441 
  "/>
<polyline clip-path="url(#clip040)" style="stroke:#000000; stroke-width:4; stroke-opacity:1; fill:none" points="
  289.119,685.194 289.119,47.2441 
  "/>
<polyline clip-path="url(#clip040)" style="stroke:#000000; stroke-width:4; stroke-opacity:1; fill:none" points="
  289.119,685.194 313.883,685.194 
  "/>
<polyline clip-path="url(#clip040)" style="stroke:#000000; stroke-width:4; stroke-opacity:1; fill:none" points="
  289.119,525.707 313.883,525.707 
  "/>
<polyline clip-path="url(#clip040)" style="stroke:#000000; stroke-width:4; stroke-opacity:1; fill:none" points="
  289.119,366.219 313.883,366.219 
  "/>
<polyline clip-path="url(#clip040)" style="stroke:#000000; stroke-width:4; stroke-opacity:1; fill:none" points="
  289.119,206.732 313.883,206.732 
  "/>
<polyline clip-path="url(#clip040)" style="stroke:#000000; stroke-width:4; stroke-opacity:1; fill:none" points="
  289.119,47.2441 313.883,47.2441 
  "/>
<polyline clip-path="url(#clip040)" style="stroke:#000000; stroke-width:4; stroke-opacity:1; fill:none" points="
  289.119,635.408 301.501,635.408 
  "/>
<polyline clip-path="url(#clip040)" style="stroke:#000000; stroke-width:4; stroke-opacity:1; fill:none" points="
  289.119,598.861 301.501,598.861 
  "/>
<polyline clip-path="url(#clip040)" style="stroke:#000000; stroke-width:4; stroke-opacity:1; fill:none" points="
  289.119,569.971 301.501,569.971 
  "/>
<polyline clip-path="url(#clip040)" style="stroke:#000000; stroke-width:4; stroke-opacity:1; fill:none" points="
  289.119,546.078 301.501,546.078 
  "/>
<polyline clip-path="url(#clip040)" style="stroke:#000000; stroke-width:4; stroke-opacity:1; fill:none" points="
  289.119,475.921 301.501,475.921 
  "/>
<polyline clip-path="url(#clip040)" style="stroke:#000000; stroke-width:4; stroke-opacity:1; fill:none" points="
  289.119,439.373 301.501,439.373 
  "/>
<polyline clip-path="url(#clip040)" style="stroke:#000000; stroke-width:4; stroke-opacity:1; fill:none" points="
  289.119,410.483 301.501,410.483 
  "/>
<polyline clip-path="url(#clip040)" style="stroke:#000000; stroke-width:4; stroke-opacity:1; fill:none" points="
  289.119,386.591 301.501,386.591 
  "/>
<polyline clip-path="url(#clip040)" style="stroke:#000000; stroke-width:4; stroke-opacity:1; fill:none" points="
  289.119,316.433 301.501,316.433 
  "/>
<polyline clip-path="url(#clip040)" style="stroke:#000000; stroke-width:4; stroke-opacity:1; fill:none" points="
  289.119,279.886 301.501,279.886 
  "/>
<polyline clip-path="url(#clip040)" style="stroke:#000000; stroke-width:4; stroke-opacity:1; fill:none" points="
  289.119,250.996 301.501,250.996 
  "/>
<polyline clip-path="url(#clip040)" style="stroke:#000000; stroke-width:4; stroke-opacity:1; fill:none" points="
  289.119,227.103 301.501,227.103 
  "/>
<polyline clip-path="url(#clip040)" style="stroke:#000000; stroke-width:4; stroke-opacity:1; fill:none" points="
  289.119,156.946 301.501,156.946 
  "/>
<polyline clip-path="url(#clip040)" style="stroke:#000000; stroke-width:4; stroke-opacity:1; fill:none" points="
  289.119,120.398 301.501,120.398 
  "/>
<polyline clip-path="url(#clip040)" style="stroke:#000000; stroke-width:4; stroke-opacity:1; fill:none" points="
  289.119,91.5082 301.501,91.5082 
  "/>
<polyline clip-path="url(#clip040)" style="stroke:#000000; stroke-width:4; stroke-opacity:1; fill:none" points="
  289.119,67.6156 301.501,67.6156 
  "/>
<path clip-path="url(#clip040)" d="M 0 0 M114.931 704.986 L122.57 704.986 L122.57 678.621 L114.26 680.287 L114.26 676.028 L122.524 674.362 L127.2 674.362 L127.2 704.986 L134.839 704.986 L134.839 708.922 L114.931 708.922 L114.931 704.986 Z" fill="#000000" fill-rule="evenodd" fill-opacity="1" /><path clip-path="url(#clip040)" d="M 0 0 M154.283 677.44 Q150.672 677.44 148.843 681.005 Q147.038 684.547 147.038 691.676 Q147.038 698.783 148.843 702.348 Q150.672 705.889 154.283 705.889 Q157.917 705.889 159.723 702.348 Q161.552 698.783 161.552 691.676 Q161.552 684.547 159.723 681.005 Q157.917 677.44 154.283 677.44 M154.283 673.737 Q160.093 673.737 163.149 678.343 Q166.227 682.926 166.227 691.676 Q166.227 700.403 163.149 705.01 Q160.093 709.593 154.283 709.593 Q148.473 709.593 145.394 705.01 Q142.339 700.403 142.339 691.676 Q142.339 682.926 145.394 678.343 Q148.473 673.737 154.283 673.737 Z" fill="#000000" fill-rule="evenodd" fill-opacity="1" /><path clip-path="url(#clip040)" d="M 0 0 M166.227 667.838 L190.339 667.838 L190.339 671.035 L166.227 671.035 L166.227 667.838 Z" fill="#000000" fill-rule="evenodd" fill-opacity="1" /><path clip-path="url(#clip040)" d="M 0 0 M199.197 678.314 L205.404 678.314 L205.404 656.892 L198.652 658.246 L198.652 654.785 L205.366 653.431 L209.166 653.431 L209.166 678.314 L215.372 678.314 L215.372 681.511 L199.197 681.511 L199.197 678.314 Z" fill="#000000" fill-rule="evenodd" fill-opacity="1" /><path clip-path="url(#clip040)" d="M 0 0 M223.046 676.734 L227.014 676.734 L227.014 681.511 L223.046 681.511 L223.046 676.734 Z" fill="#000000" fill-rule="evenodd" fill-opacity="1" /><path clip-path="url(#clip040)" d="M 0 0 M243.415 655.933 Q240.481 655.933 238.995 658.829 Q237.528 661.707 237.528 667.499 Q237.528 673.273 238.995 676.17 Q240.481 679.047 243.415 679.047 Q246.367 679.047 247.834 676.17 Q249.32 673.273 249.32 667.499 Q249.32 661.707 247.834 658.829 Q246.367 655.933 243.415 655.933 M243.415 652.923 Q248.135 652.923 250.618 656.666 Q253.119 660.39 253.119 667.499 Q253.119 674.59 250.618 678.333 Q248.135 682.057 243.415 682.057 Q238.694 682.057 236.192 678.333 Q233.71 674.59 233.71 667.499 Q233.71 660.39 236.192 656.666 Q238.694 652.923 243.415 652.923 Z" fill="#000000" fill-rule="evenodd" fill-opacity="1" /><path clip-path="url(#clip040)" d="M 0 0 M115.74 545.499 L123.379 545.499 L123.379 519.133 L115.069 520.8 L115.069 516.541 L123.333 514.874 L128.009 514.874 L128.009 545.499 L135.647 545.499 L135.647 549.434 L115.74 549.434 L115.74 545.499 Z" fill="#000000" fill-rule="evenodd" fill-opacity="1" /><path clip-path="url(#clip040)" d="M 0 0 M155.092 517.953 Q151.481 517.953 149.652 521.518 Q147.846 525.059 147.846 532.189 Q147.846 539.295 149.652 542.86 Q151.481 546.402 155.092 546.402 Q158.726 546.402 160.532 542.86 Q162.36 539.295 162.36 532.189 Q162.36 525.059 160.532 521.518 Q158.726 517.953 155.092 517.953 M155.092 514.249 Q160.902 514.249 163.958 518.856 Q167.036 523.439 167.036 532.189 Q167.036 540.916 163.958 545.522 Q160.902 550.105 155.092 550.105 Q149.282 550.105 146.203 545.522 Q143.147 540.916 143.147 532.189 Q143.147 523.439 146.203 518.856 Q149.282 514.249 155.092 514.249 Z" fill="#000000" fill-rule="evenodd" fill-opacity="1" /><path clip-path="url(#clip040)" d="M 0 0 M167.036 508.35 L191.148 508.35 L191.148 511.548 L167.036 511.548 L167.036 508.35 Z" fill="#000000" fill-rule="evenodd" fill-opacity="1" /><path clip-path="url(#clip040)" d="M 0 0 M207.473 496.445 Q204.539 496.445 203.053 499.342 Q201.586 502.219 201.586 508.012 Q201.586 513.786 203.053 516.682 Q204.539 519.56 207.473 519.56 Q210.426 519.56 211.893 516.682 Q213.379 513.786 213.379 508.012 Q213.379 502.219 211.893 499.342 Q210.426 496.445 207.473 496.445 M207.473 493.436 Q212.194 493.436 214.676 497.179 Q217.178 500.903 217.178 508.012 Q217.178 515.102 214.676 518.845 Q212.194 522.569 207.473 522.569 Q202.752 522.569 200.251 518.845 Q197.768 515.102 197.768 508.012 Q197.768 500.903 200.251 497.179 Q202.752 493.436 207.473 493.436 Z" fill="#000000" fill-rule="evenodd" fill-opacity="1" /><path clip-path="url(#clip040)" d="M 0 0 M223.854 517.247 L227.823 517.247 L227.823 522.024 L223.854 522.024 L223.854 517.247 Z" fill="#000000" fill-rule="evenodd" fill-opacity="1" /><path clip-path="url(#clip040)" d="M 0 0 M236.136 493.944 L251.051 493.944 L251.051 497.141 L239.615 497.141 L239.615 504.025 Q240.443 503.743 241.27 503.611 Q242.098 503.46 242.926 503.46 Q247.627 503.46 250.373 506.037 Q253.119 508.614 253.119 513.015 Q253.119 517.547 250.298 520.068 Q247.477 522.569 242.343 522.569 Q240.575 522.569 238.731 522.268 Q236.907 521.967 234.951 521.365 L234.951 517.547 Q236.644 518.469 238.449 518.92 Q240.255 519.372 242.267 519.372 Q245.521 519.372 247.421 517.66 Q249.32 515.949 249.32 513.015 Q249.32 510.081 247.421 508.369 Q245.521 506.658 242.267 506.658 Q240.744 506.658 239.22 506.996 Q237.716 507.335 236.136 508.05 L236.136 493.944 Z" fill="#000000" fill-rule="evenodd" fill-opacity="1" /><path clip-path="url(#clip040)" d="M 0 0 M145.663 386.011 L153.302 386.011 L153.302 359.646 L144.992 361.313 L144.992 357.053 L153.256 355.387 L157.932 355.387 L157.932 386.011 L165.571 386.011 L165.571 389.947 L145.663 389.947 L145.663 386.011 Z" fill="#000000" fill-rule="evenodd" fill-opacity="1" /><path clip-path="url(#clip040)" d="M 0 0 M185.015 358.465 Q181.404 358.465 179.575 362.03 Q177.77 365.572 177.77 372.701 Q177.77 379.808 179.575 383.373 Q181.404 386.914 185.015 386.914 Q188.649 386.914 190.455 383.373 Q192.283 379.808 192.283 372.701 Q192.283 365.572 190.455 362.03 Q188.649 358.465 185.015 358.465 M185.015 354.762 Q190.825 354.762 193.881 359.368 Q196.959 363.951 196.959 372.701 Q196.959 381.428 193.881 386.035 Q190.825 390.618 185.015 390.618 Q179.205 390.618 176.126 386.035 Q173.071 381.428 173.071 372.701 Q173.071 363.951 176.126 359.368 Q179.205 354.762 185.015 354.762 Z" fill="#000000" fill-rule="evenodd" fill-opacity="1" /><path clip-path="url(#clip040)" d="M 0 0 M206.664 336.958 Q203.73 336.958 202.244 339.854 Q200.777 342.732 200.777 348.524 Q200.777 354.298 202.244 357.195 Q203.73 360.072 206.664 360.072 Q209.617 360.072 211.084 357.195 Q212.57 354.298 212.57 348.524 Q212.57 342.732 211.084 339.854 Q209.617 336.958 206.664 336.958 M206.664 333.948 Q211.385 333.948 213.868 337.691 Q216.369 341.415 216.369 348.524 Q216.369 355.615 213.868 359.358 Q211.385 363.082 206.664 363.082 Q201.943 363.082 199.442 359.358 Q196.959 355.615 196.959 348.524 Q196.959 341.415 199.442 337.691 Q201.943 333.948 206.664 333.948 Z" fill="#000000" fill-rule="evenodd" fill-opacity="1" /><path clip-path="url(#clip040)" d="M 0 0 M223.046 357.759 L227.014 357.759 L227.014 362.536 L223.046 362.536 L223.046 357.759 Z" fill="#000000" fill-rule="evenodd" fill-opacity="1" /><path clip-path="url(#clip040)" d="M 0 0 M243.415 336.958 Q240.481 336.958 238.995 339.854 Q237.528 342.732 237.528 348.524 Q237.528 354.298 238.995 357.195 Q240.481 360.072 243.415 360.072 Q246.367 360.072 247.834 357.195 Q249.32 354.298 249.32 348.524 Q249.32 342.732 247.834 339.854 Q246.367 336.958 243.415 336.958 M243.415 333.948 Q248.135 333.948 250.618 337.691 Q253.119 341.415 253.119 348.524 Q253.119 355.615 250.618 359.358 Q248.135 363.082 243.415 363.082 Q238.694 363.082 236.192 359.358 Q233.71 355.615 233.71 348.524 Q233.71 341.415 236.192 337.691 Q238.694 333.948 243.415 333.948 Z" fill="#000000" fill-rule="evenodd" fill-opacity="1" /><path clip-path="url(#clip040)" d="M 0 0 M146.472 226.524 L154.111 226.524 L154.111 200.158 L145.801 201.825 L145.801 197.566 L154.065 195.899 L158.741 195.899 L158.741 226.524 L166.379 226.524 L166.379 230.459 L146.472 230.459 L146.472 226.524 Z" fill="#000000" fill-rule="evenodd" fill-opacity="1" /><path clip-path="url(#clip040)" d="M 0 0 M185.824 198.978 Q182.213 198.978 180.384 202.543 Q178.578 206.084 178.578 213.214 Q178.578 220.32 180.384 223.885 Q182.213 227.427 185.824 227.427 Q189.458 227.427 191.264 223.885 Q193.092 220.32 193.092 213.214 Q193.092 206.084 191.264 202.543 Q189.458 198.978 185.824 198.978 M185.824 195.274 Q191.634 195.274 194.689 199.881 Q197.768 204.464 197.768 213.214 Q197.768 221.941 194.689 226.547 Q191.634 231.13 185.824 231.13 Q180.014 231.13 176.935 226.547 Q173.879 221.941 173.879 213.214 Q173.879 204.464 176.935 199.881 Q180.014 195.274 185.824 195.274 Z" fill="#000000" fill-rule="evenodd" fill-opacity="1" /><path clip-path="url(#clip040)" d="M 0 0 M207.473 177.47 Q204.539 177.47 203.053 180.367 Q201.586 183.244 201.586 189.037 Q201.586 194.811 203.053 197.707 Q204.539 200.585 207.473 200.585 Q210.426 200.585 211.893 197.707 Q213.379 194.811 213.379 189.037 Q213.379 183.244 211.893 180.367 Q210.426 177.47 207.473 177.47 M207.473 174.461 Q212.194 174.461 214.676 178.204 Q217.178 181.928 217.178 189.037 Q217.178 196.128 214.676 199.87 Q212.194 203.594 207.473 203.594 Q202.752 203.594 200.251 199.87 Q197.768 196.128 197.768 189.037 Q197.768 181.928 200.251 178.204 Q202.752 174.461 207.473 174.461 Z" fill="#000000" fill-rule="evenodd" fill-opacity="1" /><path clip-path="url(#clip040)" d="M 0 0 M223.854 198.272 L227.823 198.272 L227.823 203.049 L223.854 203.049 L223.854 198.272 Z" fill="#000000" fill-rule="evenodd" fill-opacity="1" /><path clip-path="url(#clip040)" d="M 0 0 M236.136 174.969 L251.051 174.969 L251.051 178.166 L239.615 178.166 L239.615 185.05 Q240.443 184.768 241.27 184.636 Q242.098 184.485 242.926 184.485 Q247.627 184.485 250.373 187.062 Q253.119 189.639 253.119 194.04 Q253.119 198.573 250.298 201.093 Q247.477 203.594 242.343 203.594 Q240.575 203.594 238.731 203.293 Q236.907 202.992 234.951 202.39 L234.951 198.573 Q236.644 199.494 238.449 199.945 Q240.255 200.397 242.267 200.397 Q245.521 200.397 247.421 198.685 Q249.32 196.974 249.32 194.04 Q249.32 191.106 247.421 189.394 Q245.521 187.683 242.267 187.683 Q240.744 187.683 239.22 188.021 Q237.716 188.36 236.136 189.075 L236.136 174.969 Z" fill="#000000" fill-rule="evenodd" fill-opacity="1" /><path clip-path="url(#clip040)" d="M 0 0 M147.356 67.0365 L154.995 67.0365 L154.995 40.6709 L146.685 42.3376 L146.685 38.0784 L154.949 36.4117 L159.624 36.4117 L159.624 67.0365 L167.263 67.0365 L167.263 70.9717 L147.356 70.9717 L147.356 67.0365 Z" fill="#000000" fill-rule="evenodd" fill-opacity="1" /><path clip-path="url(#clip040)" d="M 0 0 M186.708 39.4904 Q183.097 39.4904 181.268 43.0552 Q179.462 46.5968 179.462 53.7264 Q179.462 60.8329 181.268 64.3977 Q183.097 67.9393 186.708 67.9393 Q190.342 67.9393 192.147 64.3977 Q193.976 60.8329 193.976 53.7264 Q193.976 46.5968 192.147 43.0552 Q190.342 39.4904 186.708 39.4904 M186.708 35.7867 Q192.518 35.7867 195.573 40.3932 Q198.652 44.9765 198.652 53.7264 Q198.652 62.4532 195.573 67.0597 Q192.518 71.643 186.708 71.643 Q180.898 71.643 177.819 67.0597 Q174.763 62.4532 174.763 53.7264 Q174.763 44.9765 177.819 40.3932 Q180.898 35.7867 186.708 35.7867 Z" fill="#000000" fill-rule="evenodd" fill-opacity="1" /><path clip-path="url(#clip040)" d="M 0 0 M199.197 40.364 L205.404 40.364 L205.404 18.9419 L198.652 20.2961 L198.652 16.8355 L205.366 15.4813 L209.166 15.4813 L209.166 40.364 L215.372 40.364 L215.372 43.5613 L199.197 43.5613 L199.197 40.364 Z" fill="#000000" fill-rule="evenodd" fill-opacity="1" /><path clip-path="url(#clip040)" d="M 0 0 M223.046 38.7841 L227.014 38.7841 L227.014 43.5613 L223.046 43.5613 L223.046 38.7841 Z" fill="#000000" fill-rule="evenodd" fill-opacity="1" /><path clip-path="url(#clip040)" d="M 0 0 M243.415 17.9827 Q240.481 17.9827 238.995 20.8791 Q237.528 23.7567 237.528 29.5495 Q237.528 35.3235 238.995 38.2199 Q240.481 41.0975 243.415 41.0975 Q246.367 41.0975 247.834 38.2199 Q249.32 35.3235 249.32 29.5495 Q249.32 23.7567 247.834 20.8791 Q246.367 17.9827 243.415 17.9827 M243.415 14.9735 Q248.135 14.9735 250.618 18.7162 Q253.119 22.4402 253.119 29.5495 Q253.119 36.64 250.618 40.3828 Q248.135 44.1067 243.415 44.1067 Q238.694 44.1067 236.192 40.3828 Q233.71 36.64 233.71 29.5495 Q233.71 22.4402 236.192 18.7162 Q238.694 14.9735 243.415 14.9735 Z" fill="#000000" fill-rule="evenodd" fill-opacity="1" /><path clip-path="url(#clip040)" d="M 0 0 M41.7242 434.03 Q42.4244 431.961 44.7161 430.019 Q47.0077 428.046 51.0181 426.073 L64.0042 419.548 L64.0042 426.455 L51.8138 432.534 Q47.0395 434.889 45.48 437.117 Q43.9204 439.313 43.9204 443.133 L43.9204 450.135 L64.0042 450.135 L64.0042 456.564 L16.4842 456.564 L16.4842 442.051 Q16.4842 433.902 19.8898 429.892 Q23.2955 425.882 30.1704 425.882 Q34.6582 425.882 37.6183 427.982 Q40.5784 430.051 41.7242 434.03 M21.7677 450.135 L38.6368 450.135 L38.6368 442.051 Q38.6368 437.404 36.5043 435.048 Q34.34 432.661 30.1704 432.661 Q26.0009 432.661 23.9002 435.048 Q21.7677 437.404 21.7677 442.051 L21.7677 450.135 Z" fill="#000000" fill-rule="evenodd" fill-opacity="1" /><path clip-path="url(#clip040)" d="M 0 0 M22.818 398.032 L46.4666 406.753 L46.4666 389.279 L22.818 398.032 M16.4842 401.66 L16.4842 394.371 L64.0042 376.261 L64.0042 382.945 L51.8138 387.274 L51.8138 408.694 L64.0042 413.023 L64.0042 419.802 L16.4842 401.66 Z" fill="#000000" fill-rule="evenodd" fill-opacity="1" /><path clip-path="url(#clip040)" d="M 0 0 M14.5426 355.509 Q21.8632 359.774 29.0246 361.843 Q36.186 363.911 43.5384 363.911 Q50.8908 363.911 58.1159 361.843 Q65.3091 359.742 72.5979 355.509 L72.5979 360.601 Q65.1182 365.376 57.8931 367.763 Q50.668 370.118 43.5384 370.118 Q36.4406 370.118 29.2474 367.763 Q22.0542 365.407 14.5426 360.601 L14.5426 355.509 Z" fill="#000000" fill-rule="evenodd" fill-opacity="1" /><path clip-path="url(#clip040)" d="M 0 0 M64.9272 332.783 Q64.9272 345.992 46.021 345.992 Q38.5413 345.992 28.3562 341.059 L28.3562 334.757 Q38.5413 339.308 46.1802 339.308 Q59.9619 339.308 59.9619 332.242 Q59.9619 325.781 42.8382 325.781 L42.8382 320.37 Q59.9619 320.37 59.9619 313.909 Q59.9619 306.843 46.1802 306.843 Q38.5413 306.843 28.3562 311.394 L28.3562 305.092 Q38.5413 300.159 46.021 300.159 Q64.9272 300.159 64.9272 313.368 Q64.9272 322.025 55.4105 323.075 Q64.9272 324.38 64.9272 332.783 Z" fill="#000000" fill-rule="evenodd" fill-opacity="1" /><path clip-path="url(#clip040)" d="M 0 0 M14.5426 290.483 L14.5426 285.39 Q22.0542 280.616 29.2474 278.261 Q36.4406 275.874 43.5384 275.874 Q50.668 275.874 57.8931 278.261 Q65.1182 280.616 72.5979 285.39 L72.5979 290.483 Q65.3091 286.25 58.1159 284.181 Q50.8908 282.08 43.5384 282.08 Q36.186 282.08 29.0246 284.181 Q21.8632 286.25 14.5426 290.483 Z" fill="#000000" fill-rule="evenodd" fill-opacity="1" /><polyline clip-path="url(#clip042)" style="stroke:#009af9; stroke-width:8; stroke-opacity:1; fill:none" points="
  347.524,366.219 2294.35,366.219 
  "/>
<path clip-path="url(#clip040)" d="
M289.119 1417.63 L2352.76 1417.63 L2352.76 779.682 L289.119 779.682  Z
  " fill="#ffffff" fill-rule="evenodd" fill-opacity="1"/>
<defs>
  <clipPath id="clip043">
    <rect x="289" y="779" width="2065" height="639"/>
  </clipPath>
</defs>
<polyline clip-path="url(#clip043)" style="stroke:#000000; stroke-width:2; stroke-opacity:0.1; fill:none" points="
  347.524,1417.63 347.524,779.682 
  "/>
<polyline clip-path="url(#clip043)" style="stroke:#000000; stroke-width:2; stroke-opacity:0.1; fill:none" points="
  834.231,1417.63 834.231,779.682 
  "/>
<polyline clip-path="url(#clip043)" style="stroke:#000000; stroke-width:2; stroke-opacity:0.1; fill:none" points="
  1320.94,1417.63 1320.94,779.682 
  "/>
<polyline clip-path="url(#clip043)" style="stroke:#000000; stroke-width:2; stroke-opacity:0.1; fill:none" points="
  1807.64,1417.63 1807.64,779.682 
  "/>
<polyline clip-path="url(#clip043)" style="stroke:#000000; stroke-width:2; stroke-opacity:0.1; fill:none" points="
  2294.35,1417.63 2294.35,779.682 
  "/>
<polyline clip-path="url(#clip040)" style="stroke:#000000; stroke-width:4; stroke-opacity:1; fill:none" points="
  289.119,1417.63 2352.76,1417.63 
  "/>
<polyline clip-path="url(#clip040)" style="stroke:#000000; stroke-width:4; stroke-opacity:1; fill:none" points="
  347.524,1417.63 347.524,1409.98 
  "/>
<polyline clip-path="url(#clip040)" style="stroke:#000000; stroke-width:4; stroke-opacity:1; fill:none" points="
  834.231,1417.63 834.231,1409.98 
  "/>
<polyline clip-path="url(#clip040)" style="stroke:#000000; stroke-width:4; stroke-opacity:1; fill:none" points="
  1320.94,1417.63 1320.94,1409.98 
  "/>
<polyline clip-path="url(#clip040)" style="stroke:#000000; stroke-width:4; stroke-opacity:1; fill:none" points="
  1807.64,1417.63 1807.64,1409.98 
  "/>
<polyline clip-path="url(#clip040)" style="stroke:#000000; stroke-width:4; stroke-opacity:1; fill:none" points="
  2294.35,1417.63 2294.35,1409.98 
  "/>
<polyline clip-path="url(#clip040)" style="stroke:#000000; stroke-width:4; stroke-opacity:1; fill:none" points="
  499.456,1417.63 499.456,1413.8 
  "/>
<polyline clip-path="url(#clip040)" style="stroke:#000000; stroke-width:4; stroke-opacity:1; fill:none" points="
  610.986,1417.63 610.986,1413.8 
  "/>
<polyline clip-path="url(#clip040)" style="stroke:#000000; stroke-width:4; stroke-opacity:1; fill:none" points="
  699.151,1417.63 699.151,1413.8 
  "/>
<polyline clip-path="url(#clip040)" style="stroke:#000000; stroke-width:4; stroke-opacity:1; fill:none" points="
  772.063,1417.63 772.063,1413.8 
  "/>
<polyline clip-path="url(#clip040)" style="stroke:#000000; stroke-width:4; stroke-opacity:1; fill:none" points="
  986.162,1417.63 986.162,1413.8 
  "/>
<polyline clip-path="url(#clip040)" style="stroke:#000000; stroke-width:4; stroke-opacity:1; fill:none" points="
  1097.69,1417.63 1097.69,1413.8 
  "/>
<polyline clip-path="url(#clip040)" style="stroke:#000000; stroke-width:4; stroke-opacity:1; fill:none" points="
  1185.86,1417.63 1185.86,1413.8 
  "/>
<polyline clip-path="url(#clip040)" style="stroke:#000000; stroke-width:4; stroke-opacity:1; fill:none" points="
  1258.77,1417.63 1258.77,1413.8 
  "/>
<polyline clip-path="url(#clip040)" style="stroke:#000000; stroke-width:4; stroke-opacity:1; fill:none" points="
  1472.87,1417.63 1472.87,1413.8 
  "/>
<polyline clip-path="url(#clip040)" style="stroke:#000000; stroke-width:4; stroke-opacity:1; fill:none" points="
  1584.4,1417.63 1584.4,1413.8 
  "/>
<polyline clip-path="url(#clip040)" style="stroke:#000000; stroke-width:4; stroke-opacity:1; fill:none" points="
  1672.56,1417.63 1672.56,1413.8 
  "/>
<polyline clip-path="url(#clip040)" style="stroke:#000000; stroke-width:4; stroke-opacity:1; fill:none" points="
  1745.48,1417.63 1745.48,1413.8 
  "/>
<polyline clip-path="url(#clip040)" style="stroke:#000000; stroke-width:4; stroke-opacity:1; fill:none" points="
  1959.58,1417.63 1959.58,1413.8 
  "/>
<polyline clip-path="url(#clip040)" style="stroke:#000000; stroke-width:4; stroke-opacity:1; fill:none" points="
  2071.11,1417.63 2071.11,1413.8 
  "/>
<polyline clip-path="url(#clip040)" style="stroke:#000000; stroke-width:4; stroke-opacity:1; fill:none" points="
  2159.27,1417.63 2159.27,1413.8 
  "/>
<polyline clip-path="url(#clip040)" style="stroke:#000000; stroke-width:4; stroke-opacity:1; fill:none" points="
  2232.18,1417.63 2232.18,1413.8 
  "/>
<path clip-path="url(#clip040)" d="M 0 0 M278.766 1495.9 L286.405 1495.9 L286.405 1469.54 L278.095 1471.21 L278.095 1466.95 L286.358 1465.28 L291.034 1465.28 L291.034 1495.9 L298.673 1495.9 L298.673 1499.84 L278.766 1499.84 L278.766 1495.9 Z" fill="#000000" fill-rule="evenodd" fill-opacity="1" /><path clip-path="url(#clip040)" d="M 0 0 M318.118 1468.36 Q314.506 1468.36 312.678 1471.92 Q310.872 1475.46 310.872 1482.59 Q310.872 1489.7 312.678 1493.27 Q314.506 1496.81 318.118 1496.81 Q321.752 1496.81 323.557 1493.27 Q325.386 1489.7 325.386 1482.59 Q325.386 1475.46 323.557 1471.92 Q321.752 1468.36 318.118 1468.36 M318.118 1464.65 Q323.928 1464.65 326.983 1469.26 Q330.062 1473.84 330.062 1482.59 Q330.062 1491.32 326.983 1495.93 Q323.928 1500.51 318.118 1500.51 Q312.307 1500.51 309.229 1495.93 Q306.173 1491.32 306.173 1482.59 Q306.173 1473.84 309.229 1469.26 Q312.307 1464.65 318.118 1464.65 Z" fill="#000000" fill-rule="evenodd" fill-opacity="1" /><path clip-path="url(#clip040)" d="M 0 0 M330.062 1458.76 L354.173 1458.76 L354.173 1461.95 L330.062 1461.95 L330.062 1458.76 Z" fill="#000000" fill-rule="evenodd" fill-opacity="1" /><path clip-path="url(#clip040)" d="M 0 0 M363.032 1469.23 L369.238 1469.23 L369.238 1447.81 L362.486 1449.16 L362.486 1445.7 L369.201 1444.35 L373 1444.35 L373 1469.23 L379.207 1469.23 L379.207 1472.43 L363.032 1472.43 L363.032 1469.23 Z" fill="#000000" fill-rule="evenodd" fill-opacity="1" /><path clip-path="url(#clip040)" d="M 0 0 M386.88 1467.65 L390.849 1467.65 L390.849 1472.43 L386.88 1472.43 L386.88 1467.65 Z" fill="#000000" fill-rule="evenodd" fill-opacity="1" /><path clip-path="url(#clip040)" d="M 0 0 M407.249 1446.85 Q404.315 1446.85 402.829 1449.75 Q401.362 1452.62 401.362 1458.42 Q401.362 1464.19 402.829 1467.09 Q404.315 1469.97 407.249 1469.97 Q410.202 1469.97 411.669 1467.09 Q413.155 1464.19 413.155 1458.42 Q413.155 1452.62 411.669 1449.75 Q410.202 1446.85 407.249 1446.85 M407.249 1443.84 Q411.97 1443.84 414.452 1447.58 Q416.954 1451.31 416.954 1458.42 Q416.954 1465.51 414.452 1469.25 Q411.97 1472.97 407.249 1472.97 Q402.528 1472.97 400.027 1469.25 Q397.544 1465.51 397.544 1458.42 Q397.544 1451.31 400.027 1447.58 Q402.528 1443.84 407.249 1443.84 Z" fill="#000000" fill-rule="evenodd" fill-opacity="1" /><path clip-path="url(#clip040)" d="M 0 0 M765.877 1495.9 L773.516 1495.9 L773.516 1469.54 L765.206 1471.21 L765.206 1466.95 L773.47 1465.28 L778.145 1465.28 L778.145 1495.9 L785.784 1495.9 L785.784 1499.84 L765.877 1499.84 L765.877 1495.9 Z" fill="#000000" fill-rule="evenodd" fill-opacity="1" /><path clip-path="url(#clip040)" d="M 0 0 M805.229 1468.36 Q801.618 1468.36 799.789 1471.92 Q797.983 1475.46 797.983 1482.59 Q797.983 1489.7 799.789 1493.27 Q801.618 1496.81 805.229 1496.81 Q808.863 1496.81 810.668 1493.27 Q812.497 1489.7 812.497 1482.59 Q812.497 1475.46 810.668 1471.92 Q808.863 1468.36 805.229 1468.36 M805.229 1464.65 Q811.039 1464.65 814.094 1469.26 Q817.173 1473.84 817.173 1482.59 Q817.173 1491.32 814.094 1495.93 Q811.039 1500.51 805.229 1500.51 Q799.418 1500.51 796.34 1495.93 Q793.284 1491.32 793.284 1482.59 Q793.284 1473.84 796.34 1469.26 Q799.418 1464.65 805.229 1464.65 Z" fill="#000000" fill-rule="evenodd" fill-opacity="1" /><path clip-path="url(#clip040)" d="M 0 0 M817.173 1458.76 L841.285 1458.76 L841.285 1461.95 L817.173 1461.95 L817.173 1458.76 Z" fill="#000000" fill-rule="evenodd" fill-opacity="1" /><path clip-path="url(#clip040)" d="M 0 0 M857.61 1446.85 Q854.676 1446.85 853.19 1449.75 Q851.723 1452.62 851.723 1458.42 Q851.723 1464.19 853.19 1467.09 Q854.676 1469.97 857.61 1469.97 Q860.563 1469.97 862.03 1467.09 Q863.515 1464.19 863.515 1458.42 Q863.515 1452.62 862.03 1449.75 Q860.563 1446.85 857.61 1446.85 M857.61 1443.84 Q862.33 1443.84 864.813 1447.58 Q867.314 1451.31 867.314 1458.42 Q867.314 1465.51 864.813 1469.25 Q862.33 1472.97 857.61 1472.97 Q852.889 1472.97 850.388 1469.25 Q847.905 1465.51 847.905 1458.42 Q847.905 1451.31 850.388 1447.58 Q852.889 1443.84 857.61 1443.84 Z" fill="#000000" fill-rule="evenodd" fill-opacity="1" /><path clip-path="url(#clip040)" d="M 0 0 M873.991 1467.65 L877.96 1467.65 L877.96 1472.43 L873.991 1472.43 L873.991 1467.65 Z" fill="#000000" fill-rule="evenodd" fill-opacity="1" /><path clip-path="url(#clip040)" d="M 0 0 M886.273 1444.35 L901.187 1444.35 L901.187 1447.55 L889.752 1447.55 L889.752 1454.43 Q890.58 1454.15 891.407 1454.02 Q892.235 1453.87 893.062 1453.87 Q897.764 1453.87 900.51 1456.44 Q903.256 1459.02 903.256 1463.42 Q903.256 1467.95 900.435 1470.47 Q897.614 1472.97 892.479 1472.97 Q890.711 1472.97 888.868 1472.67 Q887.044 1472.37 885.088 1471.77 L885.088 1467.95 Q886.781 1468.87 888.586 1469.33 Q890.392 1469.78 892.404 1469.78 Q895.658 1469.78 897.557 1468.07 Q899.457 1466.35 899.457 1463.42 Q899.457 1460.49 897.557 1458.77 Q895.658 1457.06 892.404 1457.06 Q890.881 1457.06 889.357 1457.4 Q887.853 1457.74 886.273 1458.45 L886.273 1444.35 Z" fill="#000000" fill-rule="evenodd" fill-opacity="1" /><path clip-path="url(#clip040)" d="M 0 0 M1267.55 1495.9 L1275.18 1495.9 L1275.18 1469.54 L1266.87 1471.21 L1266.87 1466.95 L1275.14 1465.28 L1279.81 1465.28 L1279.81 1495.9 L1287.45 1495.9 L1287.45 1499.84 L1267.55 1499.84 L1267.55 1495.9 Z" fill="#000000" fill-rule="evenodd" fill-opacity="1" /><path clip-path="url(#clip040)" d="M 0 0 M1306.9 1468.36 Q1303.29 1468.36 1301.46 1471.92 Q1299.65 1475.46 1299.65 1482.59 Q1299.65 1489.7 1301.46 1493.27 Q1303.29 1496.81 1306.9 1496.81 Q1310.53 1496.81 1312.34 1493.27 Q1314.17 1489.7 1314.17 1482.59 Q1314.17 1475.46 1312.34 1471.92 Q1310.53 1468.36 1306.9 1468.36 M1306.9 1464.65 Q1312.71 1464.65 1315.76 1469.26 Q1318.84 1473.84 1318.84 1482.59 Q1318.84 1491.32 1315.76 1495.93 Q1312.71 1500.51 1306.9 1500.51 Q1301.09 1500.51 1298.01 1495.93 Q1294.95 1491.32 1294.95 1482.59 Q1294.95 1473.84 1298.01 1469.26 Q1301.09 1464.65 1306.9 1464.65 Z" fill="#000000" fill-rule="evenodd" fill-opacity="1" /><path clip-path="url(#clip040)" d="M 0 0 M1328.55 1446.85 Q1325.61 1446.85 1324.13 1449.75 Q1322.66 1452.62 1322.66 1458.42 Q1322.66 1464.19 1324.13 1467.09 Q1325.61 1469.97 1328.55 1469.97 Q1331.5 1469.97 1332.97 1467.09 Q1334.45 1464.19 1334.45 1458.42 Q1334.45 1452.62 1332.97 1449.75 Q1331.5 1446.85 1328.55 1446.85 M1328.55 1443.84 Q1333.27 1443.84 1335.75 1447.58 Q1338.25 1451.31 1338.25 1458.42 Q1338.25 1465.51 1335.75 1469.25 Q1333.27 1472.97 1328.55 1472.97 Q1323.83 1472.97 1321.32 1469.25 Q1318.84 1465.51 1318.84 1458.42 Q1318.84 1451.31 1321.32 1447.58 Q1323.83 1443.84 1328.55 1443.84 Z" fill="#000000" fill-rule="evenodd" fill-opacity="1" /><path clip-path="url(#clip040)" d="M 0 0 M1344.93 1467.65 L1348.9 1467.65 L1348.9 1472.43 L1344.93 1472.43 L1344.93 1467.65 Z" fill="#000000" fill-rule="evenodd" fill-opacity="1" /><path clip-path="url(#clip040)" d="M 0 0 M1365.3 1446.85 Q1362.36 1446.85 1360.88 1449.75 Q1359.41 1452.62 1359.41 1458.42 Q1359.41 1464.19 1360.88 1467.09 Q1362.36 1469.97 1365.3 1469.97 Q1368.25 1469.97 1369.72 1467.09 Q1371.2 1464.19 1371.2 1458.42 Q1371.2 1452.62 1369.72 1449.75 Q1368.25 1446.85 1365.3 1446.85 M1365.3 1443.84 Q1370.02 1443.84 1372.5 1447.58 Q1375 1451.31 1375 1458.42 Q1375 1465.51 1372.5 1469.25 Q1370.02 1472.97 1365.3 1472.97 Q1360.58 1472.97 1358.07 1469.25 Q1355.59 1465.51 1355.59 1458.42 Q1355.59 1451.31 1358.07 1447.58 Q1360.58 1443.84 1365.3 1443.84 Z" fill="#000000" fill-rule="evenodd" fill-opacity="1" /><path clip-path="url(#clip040)" d="M 0 0 M1754.66 1495.9 L1762.3 1495.9 L1762.3 1469.54 L1753.99 1471.21 L1753.99 1466.95 L1762.25 1465.28 L1766.92 1465.28 L1766.92 1495.9 L1774.56 1495.9 L1774.56 1499.84 L1754.66 1499.84 L1754.66 1495.9 Z" fill="#000000" fill-rule="evenodd" fill-opacity="1" /><path clip-path="url(#clip040)" d="M 0 0 M1794.01 1468.36 Q1790.4 1468.36 1788.57 1471.92 Q1786.76 1475.46 1786.76 1482.59 Q1786.76 1489.7 1788.57 1493.27 Q1790.4 1496.81 1794.01 1496.81 Q1797.64 1496.81 1799.45 1493.27 Q1801.28 1489.7 1801.28 1482.59 Q1801.28 1475.46 1799.45 1471.92 Q1797.64 1468.36 1794.01 1468.36 M1794.01 1464.65 Q1799.82 1464.65 1802.87 1469.26 Q1805.95 1473.84 1805.95 1482.59 Q1805.95 1491.32 1802.87 1495.93 Q1799.82 1500.51 1794.01 1500.51 Q1788.2 1500.51 1785.12 1495.93 Q1782.06 1491.32 1782.06 1482.59 Q1782.06 1473.84 1785.12 1469.26 Q1788.2 1464.65 1794.01 1464.65 Z" fill="#000000" fill-rule="evenodd" fill-opacity="1" /><path clip-path="url(#clip040)" d="M 0 0 M1815.66 1446.85 Q1812.72 1446.85 1811.24 1449.75 Q1809.77 1452.62 1809.77 1458.42 Q1809.77 1464.19 1811.24 1467.09 Q1812.72 1469.97 1815.66 1469.97 Q1818.61 1469.97 1820.08 1467.09 Q1821.56 1464.19 1821.56 1458.42 Q1821.56 1452.62 1820.08 1449.75 Q1818.61 1446.85 1815.66 1446.85 M1815.66 1443.84 Q1820.38 1443.84 1822.86 1447.58 Q1825.36 1451.31 1825.36 1458.42 Q1825.36 1465.51 1822.86 1469.25 Q1820.38 1472.97 1815.66 1472.97 Q1810.94 1472.97 1808.44 1469.25 Q1805.95 1465.51 1805.95 1458.42 Q1805.95 1451.31 1808.44 1447.58 Q1810.94 1443.84 1815.66 1443.84 Z" fill="#000000" fill-rule="evenodd" fill-opacity="1" /><path clip-path="url(#clip040)" d="M 0 0 M1832.04 1467.65 L1836.01 1467.65 L1836.01 1472.43 L1832.04 1472.43 L1832.04 1467.65 Z" fill="#000000" fill-rule="evenodd" fill-opacity="1" /><path clip-path="url(#clip040)" d="M 0 0 M1844.32 1444.35 L1859.23 1444.35 L1859.23 1447.55 L1847.8 1447.55 L1847.8 1454.43 Q1848.63 1454.15 1849.45 1454.02 Q1850.28 1453.87 1851.11 1453.87 Q1855.81 1453.87 1858.56 1456.44 Q1861.3 1459.02 1861.3 1463.42 Q1861.3 1467.95 1858.48 1470.47 Q1855.66 1472.97 1850.53 1472.97 Q1848.76 1472.97 1846.92 1472.67 Q1845.09 1472.37 1843.14 1471.77 L1843.14 1467.95 Q1844.83 1468.87 1846.63 1469.33 Q1848.44 1469.78 1850.45 1469.78 Q1853.71 1469.78 1855.6 1468.07 Q1857.5 1466.35 1857.5 1463.42 Q1857.5 1460.49 1855.6 1458.77 Q1853.71 1457.06 1850.45 1457.06 Q1848.93 1457.06 1847.4 1457.4 Q1845.9 1457.74 1844.32 1458.45 L1844.32 1444.35 Z" fill="#000000" fill-rule="evenodd" fill-opacity="1" /><path clip-path="url(#clip040)" d="M 0 0 M2241.81 1495.9 L2249.44 1495.9 L2249.44 1469.54 L2241.13 1471.21 L2241.13 1466.95 L2249.4 1465.28 L2254.07 1465.28 L2254.07 1495.9 L2261.71 1495.9 L2261.71 1499.84 L2241.81 1499.84 L2241.81 1495.9 Z" fill="#000000" fill-rule="evenodd" fill-opacity="1" /><path clip-path="url(#clip040)" d="M 0 0 M2281.16 1468.36 Q2277.55 1468.36 2275.72 1471.92 Q2273.91 1475.46 2273.91 1482.59 Q2273.91 1489.7 2275.72 1493.27 Q2277.55 1496.81 2281.16 1496.81 Q2284.79 1496.81 2286.6 1493.27 Q2288.43 1489.7 2288.43 1482.59 Q2288.43 1475.46 2286.6 1471.92 Q2284.79 1468.36 2281.16 1468.36 M2281.16 1464.65 Q2286.97 1464.65 2290.02 1469.26 Q2293.1 1473.84 2293.1 1482.59 Q2293.1 1491.32 2290.02 1495.93 Q2286.97 1500.51 2281.16 1500.51 Q2275.35 1500.51 2272.27 1495.93 Q2269.21 1491.32 2269.21 1482.59 Q2269.21 1473.84 2272.27 1469.26 Q2275.35 1464.65 2281.16 1464.65 Z" fill="#000000" fill-rule="evenodd" fill-opacity="1" /><path clip-path="url(#clip040)" d="M 0 0 M2293.65 1469.23 L2299.85 1469.23 L2299.85 1447.81 L2293.1 1449.16 L2293.1 1445.7 L2299.82 1444.35 L2303.61 1444.35 L2303.61 1469.23 L2309.82 1469.23 L2309.82 1472.43 L2293.65 1472.43 L2293.65 1469.23 Z" fill="#000000" fill-rule="evenodd" fill-opacity="1" /><path clip-path="url(#clip040)" d="M 0 0 M2317.49 1467.65 L2321.46 1467.65 L2321.46 1472.43 L2317.49 1472.43 L2317.49 1467.65 Z" fill="#000000" fill-rule="evenodd" fill-opacity="1" /><path clip-path="url(#clip040)" d="M 0 0 M2337.86 1446.85 Q2334.93 1446.85 2333.44 1449.75 Q2331.98 1452.62 2331.98 1458.42 Q2331.98 1464.19 2333.44 1467.09 Q2334.93 1469.97 2337.86 1469.97 Q2340.82 1469.97 2342.28 1467.09 Q2343.77 1464.19 2343.77 1458.42 Q2343.77 1452.62 2342.28 1449.75 Q2340.82 1446.85 2337.86 1446.85 M2337.86 1443.84 Q2342.58 1443.84 2345.07 1447.58 Q2347.57 1451.31 2347.57 1458.42 Q2347.57 1465.51 2345.07 1469.25 Q2342.58 1472.97 2337.86 1472.97 Q2333.14 1472.97 2330.64 1469.25 Q2328.16 1465.51 2328.16 1458.42 Q2328.16 1451.31 2330.64 1447.58 Q2333.14 1443.84 2337.86 1443.84 Z" fill="#000000" fill-rule="evenodd" fill-opacity="1" /><path clip-path="url(#clip040)" d="M 0 0 M1292.94 1530.97 Q1292.94 1531.87 1292.52 1532.1 Q1292.1 1532.29 1290.94 1532.29 L1284.76 1532.29 L1279.86 1551.75 Q1279.48 1553.45 1279.48 1554.9 Q1279.48 1556.51 1279.96 1557.22 Q1280.47 1557.93 1281.54 1557.93 Q1283.63 1557.93 1285.88 1556.03 Q1288.17 1554.13 1290.1 1549.49 Q1290.36 1548.88 1290.49 1548.75 Q1290.65 1548.59 1291.07 1548.59 Q1291.87 1548.59 1291.87 1549.23 Q1291.87 1549.46 1291.42 1550.49 Q1291.01 1551.52 1290.07 1553.03 Q1289.17 1554.55 1287.98 1555.96 Q1286.82 1557.38 1285.05 1558.41 Q1283.28 1559.41 1281.38 1559.41 Q1278.7 1559.41 1277 1557.7 Q1275.32 1556 1275.32 1553.32 Q1275.32 1552.45 1276 1549.68 Q1276.67 1546.88 1280.35 1532.29 L1274.52 1532.29 Q1273.71 1532.29 1273.39 1532.26 Q1273.1 1532.23 1272.87 1532.07 Q1272.68 1531.87 1272.68 1531.49 Q1272.68 1530.88 1272.94 1530.62 Q1273.2 1530.33 1273.52 1530.3 Q1273.87 1530.23 1274.68 1530.23 L1280.86 1530.23 L1283.44 1519.77 Q1283.69 1518.73 1284.34 1518.15 Q1285.02 1517.54 1285.4 1517.48 Q1285.79 1517.38 1286.08 1517.38 Q1286.95 1517.38 1287.46 1517.86 Q1287.98 1518.32 1287.98 1519.15 Q1287.98 1519.6 1285.27 1530.23 L1291.07 1530.23 Q1291.81 1530.23 1292.1 1530.26 Q1292.42 1530.3 1292.68 1530.46 Q1292.94 1530.62 1292.94 1530.97 Z" fill="#000000" fill-rule="evenodd" fill-opacity="1" /><path clip-path="url(#clip040)" d="M 0 0 M1321.76 1546.9 L1315.11 1573.6 Q1314.84 1574.79 1314.84 1575.8 Q1314.84 1577.92 1316.22 1577.92 Q1316.89 1577.92 1317.43 1577.5 Q1317.98 1577.07 1318.4 1576.17 Q1318.83 1575.26 1319.1 1574.43 Q1319.37 1573.57 1319.73 1572.22 Q1319.85 1571.68 1319.94 1571.54 Q1320.05 1571.39 1320.37 1571.39 Q1320.93 1571.39 1320.93 1571.84 Q1320.32 1574.74 1319.53 1576.41 Q1318.27 1578.96 1316.13 1578.96 Q1314.5 1578.96 1313.35 1577.97 Q1312.2 1576.98 1311.93 1575.49 Q1308.98 1578.96 1305.91 1578.96 Q1303.21 1578.96 1301.5 1576.91 Q1299.78 1574.83 1299.78 1571.57 Q1299.78 1568.27 1301.41 1565.12 Q1303.05 1561.96 1305.64 1560 Q1308.24 1558.04 1310.9 1558.04 Q1313.71 1558.04 1315.16 1560.99 L1317.93 1550.04 L1318.07 1549.13 Q1318.07 1548.86 1317.95 1548.73 Q1317.86 1548.57 1317.32 1548.46 Q1316.8 1548.35 1315.77 1548.35 Q1315.34 1548.35 1315.14 1548.32 Q1314.95 1548.3 1314.8 1548.19 Q1314.64 1548.05 1314.64 1547.78 Q1314.64 1546.99 1315.29 1546.9 Q1319.62 1546.41 1321.15 1546.41 Q1321.43 1546.41 1321.58 1546.54 Q1321.74 1546.65 1321.74 1546.79 L1321.76 1546.9 M1314.59 1563.11 Q1314.59 1562.91 1314.44 1562.35 Q1314.28 1561.78 1313.92 1560.99 Q1313.56 1560.2 1312.77 1559.64 Q1312 1559.05 1310.96 1559.05 Q1309.57 1559.05 1308.1 1560.25 Q1306.66 1561.44 1305.6 1563.47 Q1304.79 1565.1 1303.91 1568.5 Q1303.05 1571.9 1303.05 1573.6 Q1303.05 1574.63 1303.28 1575.56 Q1303.53 1576.46 1304.22 1577.2 Q1304.92 1577.92 1306 1577.92 Q1308.64 1577.92 1311.24 1574.65 Q1311.73 1574.09 1311.84 1573.87 Q1311.98 1573.62 1312.16 1572.94 L1314.46 1563.9 Q1314.59 1563.22 1314.59 1563.11 Z" fill="#000000" fill-rule="evenodd" fill-opacity="1" /><path clip-path="url(#clip040)" d="M 0 0 M1367.56 1534.13 Q1367.56 1537.12 1366.04 1542.92 Q1365.43 1545.43 1364.59 1547.72 Q1363.79 1549.97 1362.6 1552.16 Q1361.41 1554.35 1360.02 1555.93 Q1358.64 1557.48 1356.83 1558.44 Q1355.03 1559.41 1353.03 1559.41 Q1349.88 1559.41 1348.01 1557.54 Q1346.17 1555.64 1345.59 1552.39 Q1341.28 1559.41 1335.51 1559.41 Q1331.94 1559.41 1330.26 1556.87 Q1328.59 1554.29 1328.59 1549.97 Q1328.59 1546.33 1329.55 1542.57 Q1331.39 1535.42 1334.97 1530.43 Q1335.45 1529.85 1336.16 1529.85 Q1336.58 1529.85 1336.77 1529.97 Q1337.35 1530.33 1337.35 1530.91 Q1337.35 1531.33 1337.03 1531.75 Q1334.77 1534.87 1333.29 1537.54 Q1331.81 1540.22 1331.13 1542.92 Q1330.62 1545.24 1330.62 1547.2 Q1330.62 1550.52 1332.03 1552.58 Q1333.48 1554.64 1336.35 1554.64 Q1338.99 1554.64 1341.31 1553 Q1343.63 1551.33 1345.34 1548.52 Q1345.43 1545.47 1346.17 1542.57 Q1346.85 1539.48 1348.43 1539.48 Q1349.68 1539.48 1349.68 1541.18 Q1349.68 1541.76 1349.43 1542.92 Q1348.72 1545.98 1347.43 1548.72 Q1347.88 1551.39 1349.55 1553.03 Q1351.23 1554.64 1353.9 1554.64 Q1356.38 1554.64 1358.57 1552.84 Q1360.79 1551.04 1362.21 1548.4 Q1363.66 1545.72 1364.47 1542.57 Q1364.72 1541.5 1364.72 1540.15 Q1364.72 1536.54 1362.21 1534.32 Q1361.5 1533.61 1361.5 1532.68 Q1361.5 1531.58 1362.4 1530.59 Q1363.47 1529.52 1364.72 1529.52 Q1365.66 1529.52 1366.24 1530.1 Q1367.56 1531.26 1367.56 1534.13 Z" fill="#000000" fill-rule="evenodd" fill-opacity="1" /><polyline clip-path="url(#clip043)" style="stroke:#000000; stroke-width:2; stroke-opacity:0.1; fill:none" points="
  289.119,1322.17 2352.76,1322.17 
  "/>
<polyline clip-path="url(#clip043)" style="stroke:#000000; stroke-width:2; stroke-opacity:0.1; fill:none" points="
  289.119,1216.07 2352.76,1216.07 
  "/>
<polyline clip-path="url(#clip043)" style="stroke:#000000; stroke-width:2; stroke-opacity:0.1; fill:none" points="
  289.119,1109.96 2352.76,1109.96 
  "/>
<polyline clip-path="url(#clip043)" style="stroke:#000000; stroke-width:2; stroke-opacity:0.1; fill:none" points="
  289.119,1003.86 2352.76,1003.86 
  "/>
<polyline clip-path="url(#clip043)" style="stroke:#000000; stroke-width:2; stroke-opacity:0.1; fill:none" points="
  289.119,897.76 2352.76,897.76 
  "/>
<polyline clip-path="url(#clip043)" style="stroke:#000000; stroke-width:2; stroke-opacity:0.1; fill:none" points="
  289.119,791.658 2352.76,791.658 
  "/>
<polyline clip-path="url(#clip040)" style="stroke:#000000; stroke-width:4; stroke-opacity:1; fill:none" points="
  289.119,1417.63 289.119,779.682 
  "/>
<polyline clip-path="url(#clip040)" style="stroke:#000000; stroke-width:4; stroke-opacity:1; fill:none" points="
  289.119,1322.17 313.883,1322.17 
  "/>
<polyline clip-path="url(#clip040)" style="stroke:#000000; stroke-width:4; stroke-opacity:1; fill:none" points="
  289.119,1216.07 313.883,1216.07 
  "/>
<polyline clip-path="url(#clip040)" style="stroke:#000000; stroke-width:4; stroke-opacity:1; fill:none" points="
  289.119,1109.96 313.883,1109.96 
  "/>
<polyline clip-path="url(#clip040)" style="stroke:#000000; stroke-width:4; stroke-opacity:1; fill:none" points="
  289.119,1003.86 313.883,1003.86 
  "/>
<polyline clip-path="url(#clip040)" style="stroke:#000000; stroke-width:4; stroke-opacity:1; fill:none" points="
  289.119,897.76 313.883,897.76 
  "/>
<polyline clip-path="url(#clip040)" style="stroke:#000000; stroke-width:4; stroke-opacity:1; fill:none" points="
  289.119,791.658 313.883,791.658 
  "/>
<polyline clip-path="url(#clip040)" style="stroke:#000000; stroke-width:4; stroke-opacity:1; fill:none" points="
  289.119,1407.05 301.501,1407.05 
  "/>
<polyline clip-path="url(#clip040)" style="stroke:#000000; stroke-width:4; stroke-opacity:1; fill:none" points="
  289.119,1385.83 301.501,1385.83 
  "/>
<polyline clip-path="url(#clip040)" style="stroke:#000000; stroke-width:4; stroke-opacity:1; fill:none" points="
  289.119,1364.61 301.501,1364.61 
  "/>
<polyline clip-path="url(#clip040)" style="stroke:#000000; stroke-width:4; stroke-opacity:1; fill:none" points="
  289.119,1343.39 301.501,1343.39 
  "/>
<polyline clip-path="url(#clip040)" style="stroke:#000000; stroke-width:4; stroke-opacity:1; fill:none" points="
  289.119,1300.95 301.501,1300.95 
  "/>
<polyline clip-path="url(#clip040)" style="stroke:#000000; stroke-width:4; stroke-opacity:1; fill:none" points="
  289.119,1279.73 301.501,1279.73 
  "/>
<polyline clip-path="url(#clip040)" style="stroke:#000000; stroke-width:4; stroke-opacity:1; fill:none" points="
  289.119,1258.51 301.501,1258.51 
  "/>
<polyline clip-path="url(#clip040)" style="stroke:#000000; stroke-width:4; stroke-opacity:1; fill:none" points="
  289.119,1237.29 301.501,1237.29 
  "/>
<polyline clip-path="url(#clip040)" style="stroke:#000000; stroke-width:4; stroke-opacity:1; fill:none" points="
  289.119,1194.85 301.501,1194.85 
  "/>
<polyline clip-path="url(#clip040)" style="stroke:#000000; stroke-width:4; stroke-opacity:1; fill:none" points="
  289.119,1173.62 301.501,1173.62 
  "/>
<polyline clip-path="url(#clip040)" style="stroke:#000000; stroke-width:4; stroke-opacity:1; fill:none" points="
  289.119,1152.4 301.501,1152.4 
  "/>
<polyline clip-path="url(#clip040)" style="stroke:#000000; stroke-width:4; stroke-opacity:1; fill:none" points="
  289.119,1131.18 301.501,1131.18 
  "/>
<polyline clip-path="url(#clip040)" style="stroke:#000000; stroke-width:4; stroke-opacity:1; fill:none" points="
  289.119,1088.74 301.501,1088.74 
  "/>
<polyline clip-path="url(#clip040)" style="stroke:#000000; stroke-width:4; stroke-opacity:1; fill:none" points="
  289.119,1067.52 301.501,1067.52 
  "/>
<polyline clip-path="url(#clip040)" style="stroke:#000000; stroke-width:4; stroke-opacity:1; fill:none" points="
  289.119,1046.3 301.501,1046.3 
  "/>
<polyline clip-path="url(#clip040)" style="stroke:#000000; stroke-width:4; stroke-opacity:1; fill:none" points="
  289.119,1025.08 301.501,1025.08 
  "/>
<polyline clip-path="url(#clip040)" style="stroke:#000000; stroke-width:4; stroke-opacity:1; fill:none" points="
  289.119,982.641 301.501,982.641 
  "/>
<polyline clip-path="url(#clip040)" style="stroke:#000000; stroke-width:4; stroke-opacity:1; fill:none" points="
  289.119,961.421 301.501,961.421 
  "/>
<polyline clip-path="url(#clip040)" style="stroke:#000000; stroke-width:4; stroke-opacity:1; fill:none" points="
  289.119,940.201 301.501,940.201 
  "/>
<polyline clip-path="url(#clip040)" style="stroke:#000000; stroke-width:4; stroke-opacity:1; fill:none" points="
  289.119,918.98 301.501,918.98 
  "/>
<polyline clip-path="url(#clip040)" style="stroke:#000000; stroke-width:4; stroke-opacity:1; fill:none" points="
  289.119,876.54 301.501,876.54 
  "/>
<polyline clip-path="url(#clip040)" style="stroke:#000000; stroke-width:4; stroke-opacity:1; fill:none" points="
  289.119,855.319 301.501,855.319 
  "/>
<polyline clip-path="url(#clip040)" style="stroke:#000000; stroke-width:4; stroke-opacity:1; fill:none" points="
  289.119,834.099 301.501,834.099 
  "/>
<polyline clip-path="url(#clip040)" style="stroke:#000000; stroke-width:4; stroke-opacity:1; fill:none" points="
  289.119,812.879 301.501,812.879 
  "/>
<path clip-path="url(#clip040)" d="M 0 0 M131.083 1322.62 L160.759 1322.62 L160.759 1326.55 L131.083 1326.55 L131.083 1322.62 Z" fill="#000000" fill-rule="evenodd" fill-opacity="1" /><path clip-path="url(#clip040)" d="M 0 0 M170.898 1304.89 L189.254 1304.89 L189.254 1308.82 L175.18 1308.82 L175.18 1317.29 Q176.198 1316.95 177.217 1316.79 Q178.236 1316.6 179.254 1316.6 Q185.041 1316.6 188.421 1319.77 Q191.8 1322.94 191.8 1328.36 Q191.8 1333.94 188.328 1337.04 Q184.856 1340.12 178.536 1340.12 Q176.361 1340.12 174.092 1339.75 Q171.847 1339.38 169.439 1338.64 L169.439 1333.94 Q171.523 1335.07 173.745 1335.63 Q175.967 1336.18 178.444 1336.18 Q182.448 1336.18 184.786 1334.08 Q187.124 1331.97 187.124 1328.36 Q187.124 1324.75 184.786 1322.64 Q182.448 1320.54 178.444 1320.54 Q176.569 1320.54 174.694 1320.95 Q172.842 1321.37 170.898 1322.25 L170.898 1304.89 Z" fill="#000000" fill-rule="evenodd" fill-opacity="1" /><path clip-path="url(#clip040)" d="M 0 0 M211.013 1307.97 Q207.402 1307.97 205.573 1311.53 Q203.768 1315.07 203.768 1322.2 Q203.768 1329.31 205.573 1332.87 Q207.402 1336.41 211.013 1336.41 Q214.647 1336.41 216.453 1332.87 Q218.282 1329.31 218.282 1322.2 Q218.282 1315.07 216.453 1311.53 Q214.647 1307.97 211.013 1307.97 M211.013 1304.26 Q216.823 1304.26 219.879 1308.87 Q222.957 1313.45 222.957 1322.2 Q222.957 1330.93 219.879 1335.54 Q216.823 1340.12 211.013 1340.12 Q205.203 1340.12 202.124 1335.54 Q199.069 1330.93 199.069 1322.2 Q199.069 1313.45 202.124 1308.87 Q205.203 1304.26 211.013 1304.26 Z" fill="#000000" fill-rule="evenodd" fill-opacity="1" /><path clip-path="url(#clip040)" d="M 0 0 M241.175 1307.97 Q237.564 1307.97 235.735 1311.53 Q233.93 1315.07 233.93 1322.2 Q233.93 1329.31 235.735 1332.87 Q237.564 1336.41 241.175 1336.41 Q244.809 1336.41 246.615 1332.87 Q248.443 1329.31 248.443 1322.2 Q248.443 1315.07 246.615 1311.53 Q244.809 1307.97 241.175 1307.97 M241.175 1304.26 Q246.985 1304.26 250.041 1308.87 Q253.119 1313.45 253.119 1322.2 Q253.119 1330.93 250.041 1335.54 Q246.985 1340.12 241.175 1340.12 Q235.365 1340.12 232.286 1335.54 Q229.231 1330.93 229.231 1322.2 Q229.231 1313.45 232.286 1308.87 Q235.365 1304.26 241.175 1304.26 Z" fill="#000000" fill-rule="evenodd" fill-opacity="1" /><path clip-path="url(#clip040)" d="M 0 0 M131.083 1216.52 L160.759 1216.52 L160.759 1220.45 L131.083 1220.45 L131.083 1216.52 Z" fill="#000000" fill-rule="evenodd" fill-opacity="1" /><path clip-path="url(#clip040)" d="M 0 0 M183.698 1202.86 L171.893 1221.31 L183.698 1221.31 L183.698 1202.86 M182.472 1198.79 L188.351 1198.79 L188.351 1221.31 L193.282 1221.31 L193.282 1225.2 L188.351 1225.2 L188.351 1233.35 L183.698 1233.35 L183.698 1225.2 L168.097 1225.2 L168.097 1220.68 L182.472 1198.79 Z" fill="#000000" fill-rule="evenodd" fill-opacity="1" /><path clip-path="url(#clip040)" d="M 0 0 M211.013 1201.86 Q207.402 1201.86 205.573 1205.43 Q203.768 1208.97 203.768 1216.1 Q203.768 1223.21 205.573 1226.77 Q207.402 1230.31 211.013 1230.31 Q214.647 1230.31 216.453 1226.77 Q218.282 1223.21 218.282 1216.1 Q218.282 1208.97 216.453 1205.43 Q214.647 1201.86 211.013 1201.86 M211.013 1198.16 Q216.823 1198.16 219.879 1202.77 Q222.957 1207.35 222.957 1216.1 Q222.957 1224.83 219.879 1229.43 Q216.823 1234.02 211.013 1234.02 Q205.203 1234.02 202.124 1229.43 Q199.069 1224.83 199.069 1216.1 Q199.069 1207.35 202.124 1202.77 Q205.203 1198.16 211.013 1198.16 Z" fill="#000000" fill-rule="evenodd" fill-opacity="1" /><path clip-path="url(#clip040)" d="M 0 0 M241.175 1201.86 Q237.564 1201.86 235.735 1205.43 Q233.93 1208.97 233.93 1216.1 Q233.93 1223.21 235.735 1226.77 Q237.564 1230.31 241.175 1230.31 Q244.809 1230.31 246.615 1226.77 Q248.443 1223.21 248.443 1216.1 Q248.443 1208.97 246.615 1205.43 Q244.809 1201.86 241.175 1201.86 M241.175 1198.16 Q246.985 1198.16 250.041 1202.77 Q253.119 1207.35 253.119 1216.1 Q253.119 1224.83 250.041 1229.43 Q246.985 1234.02 241.175 1234.02 Q235.365 1234.02 232.286 1229.43 Q229.231 1224.83 229.231 1216.1 Q229.231 1207.35 232.286 1202.77 Q235.365 1198.16 241.175 1198.16 Z" fill="#000000" fill-rule="evenodd" fill-opacity="1" /><path clip-path="url(#clip040)" d="M 0 0 M131.083 1110.42 L160.759 1110.42 L160.759 1114.35 L131.083 1114.35 L131.083 1110.42 Z" fill="#000000" fill-rule="evenodd" fill-opacity="1" /><path clip-path="url(#clip040)" d="M 0 0 M185.018 1108.61 Q188.374 1109.33 190.249 1111.6 Q192.147 1113.86 192.147 1117.2 Q192.147 1122.31 188.629 1125.11 Q185.11 1127.91 178.629 1127.91 Q176.453 1127.91 174.138 1127.48 Q171.847 1127.06 169.393 1126.2 L169.393 1121.69 Q171.337 1122.82 173.652 1123.4 Q175.967 1123.98 178.49 1123.98 Q182.888 1123.98 185.18 1122.24 Q187.495 1120.51 187.495 1117.2 Q187.495 1114.14 185.342 1112.43 Q183.212 1110.69 179.393 1110.69 L175.365 1110.69 L175.365 1106.85 L179.578 1106.85 Q183.027 1106.85 184.856 1105.48 Q186.685 1104.1 186.685 1101.5 Q186.685 1098.84 184.786 1097.43 Q182.911 1095.99 179.393 1095.99 Q177.472 1095.99 175.273 1096.41 Q173.073 1096.83 170.435 1097.71 L170.435 1093.54 Q173.097 1092.8 175.411 1092.43 Q177.749 1092.06 179.81 1092.06 Q185.134 1092.06 188.235 1094.49 Q191.337 1096.9 191.337 1101.02 Q191.337 1103.89 189.694 1105.88 Q188.05 1107.85 185.018 1108.61 Z" fill="#000000" fill-rule="evenodd" fill-opacity="1" /><path clip-path="url(#clip040)" d="M 0 0 M211.013 1095.76 Q207.402 1095.76 205.573 1099.33 Q203.768 1102.87 203.768 1110 Q203.768 1117.1 205.573 1120.67 Q207.402 1124.21 211.013 1124.21 Q214.647 1124.21 216.453 1120.67 Q218.282 1117.1 218.282 1110 Q218.282 1102.87 216.453 1099.33 Q214.647 1095.76 211.013 1095.76 M211.013 1092.06 Q216.823 1092.06 219.879 1096.67 Q222.957 1101.25 222.957 1110 Q222.957 1118.73 219.879 1123.33 Q216.823 1127.91 211.013 1127.91 Q205.203 1127.91 202.124 1123.33 Q199.069 1118.73 199.069 1110 Q199.069 1101.25 202.124 1096.67 Q205.203 1092.06 211.013 1092.06 Z" fill="#000000" fill-rule="evenodd" fill-opacity="1" /><path clip-path="url(#clip040)" d="M 0 0 M241.175 1095.76 Q237.564 1095.76 235.735 1099.33 Q233.93 1102.87 233.93 1110 Q233.93 1117.1 235.735 1120.67 Q237.564 1124.21 241.175 1124.21 Q244.809 1124.21 246.615 1120.67 Q248.443 1117.1 248.443 1110 Q248.443 1102.87 246.615 1099.33 Q244.809 1095.76 241.175 1095.76 M241.175 1092.06 Q246.985 1092.06 250.041 1096.67 Q253.119 1101.25 253.119 1110 Q253.119 1118.73 250.041 1123.33 Q246.985 1127.91 241.175 1127.91 Q235.365 1127.91 232.286 1123.33 Q229.231 1118.73 229.231 1110 Q229.231 1101.25 232.286 1096.67 Q235.365 1092.06 241.175 1092.06 Z" fill="#000000" fill-rule="evenodd" fill-opacity="1" /><path clip-path="url(#clip040)" d="M 0 0 M131.083 1004.31 L160.759 1004.31 L160.759 1008.25 L131.083 1008.25 L131.083 1004.31 Z" fill="#000000" fill-rule="evenodd" fill-opacity="1" /><path clip-path="url(#clip040)" d="M 0 0 M174.879 1017.21 L191.198 1017.21 L191.198 1021.14 L169.254 1021.14 L169.254 1017.21 Q171.916 1014.45 176.499 1009.82 Q181.106 1005.17 182.286 1003.83 Q184.532 1001.3 185.411 999.568 Q186.314 997.809 186.314 996.119 Q186.314 993.364 184.37 991.628 Q182.448 989.892 179.347 989.892 Q177.148 989.892 174.694 990.656 Q172.263 991.42 169.486 992.971 L169.486 988.248 Q172.31 987.114 174.763 986.536 Q177.217 985.957 179.254 985.957 Q184.624 985.957 187.819 988.642 Q191.013 991.327 191.013 995.818 Q191.013 997.948 190.203 999.869 Q189.416 1001.77 187.31 1004.36 Q186.731 1005.03 183.629 1008.25 Q180.527 1011.44 174.879 1017.21 Z" fill="#000000" fill-rule="evenodd" fill-opacity="1" /><path clip-path="url(#clip040)" d="M 0 0 M211.013 989.661 Q207.402 989.661 205.573 993.225 Q203.768 996.767 203.768 1003.9 Q203.768 1011 205.573 1014.57 Q207.402 1018.11 211.013 1018.11 Q214.647 1018.11 216.453 1014.57 Q218.282 1011 218.282 1003.9 Q218.282 996.767 216.453 993.225 Q214.647 989.661 211.013 989.661 M211.013 985.957 Q216.823 985.957 219.879 990.563 Q222.957 995.147 222.957 1003.9 Q222.957 1012.62 219.879 1017.23 Q216.823 1021.81 211.013 1021.81 Q205.203 1021.81 202.124 1017.23 Q199.069 1012.62 199.069 1003.9 Q199.069 995.147 202.124 990.563 Q205.203 985.957 211.013 985.957 Z" fill="#000000" fill-rule="evenodd" fill-opacity="1" /><path clip-path="url(#clip040)" d="M 0 0 M241.175 989.661 Q237.564 989.661 235.735 993.225 Q233.93 996.767 233.93 1003.9 Q233.93 1011 235.735 1014.57 Q237.564 1018.11 241.175 1018.11 Q244.809 1018.11 246.615 1014.57 Q248.443 1011 248.443 1003.9 Q248.443 996.767 246.615 993.225 Q244.809 989.661 241.175 989.661 M241.175 985.957 Q246.985 985.957 250.041 990.563 Q253.119 995.147 253.119 1003.9 Q253.119 1012.62 250.041 1017.23 Q246.985 1021.81 241.175 1021.81 Q235.365 1021.81 232.286 1017.23 Q229.231 1012.62 229.231 1003.9 Q229.231 995.147 232.286 990.563 Q235.365 985.957 241.175 985.957 Z" fill="#000000" fill-rule="evenodd" fill-opacity="1" /><path clip-path="url(#clip040)" d="M 0 0 M131.083 898.211 L160.759 898.211 L160.759 902.147 L131.083 902.147 L131.083 898.211 Z" fill="#000000" fill-rule="evenodd" fill-opacity="1" /><path clip-path="url(#clip040)" d="M 0 0 M171.661 911.105 L179.3 911.105 L179.3 884.739 L170.99 886.406 L170.99 882.147 L179.254 880.48 L183.93 880.48 L183.93 911.105 L191.569 911.105 L191.569 915.04 L171.661 915.04 L171.661 911.105 Z" fill="#000000" fill-rule="evenodd" fill-opacity="1" /><path clip-path="url(#clip040)" d="M 0 0 M211.013 883.559 Q207.402 883.559 205.573 887.123 Q203.768 890.665 203.768 897.795 Q203.768 904.901 205.573 908.466 Q207.402 912.008 211.013 912.008 Q214.647 912.008 216.453 908.466 Q218.282 904.901 218.282 897.795 Q218.282 890.665 216.453 887.123 Q214.647 883.559 211.013 883.559 M211.013 879.855 Q216.823 879.855 219.879 884.461 Q222.957 889.045 222.957 897.795 Q222.957 906.522 219.879 911.128 Q216.823 915.711 211.013 915.711 Q205.203 915.711 202.124 911.128 Q199.069 906.522 199.069 897.795 Q199.069 889.045 202.124 884.461 Q205.203 879.855 211.013 879.855 Z" fill="#000000" fill-rule="evenodd" fill-opacity="1" /><path clip-path="url(#clip040)" d="M 0 0 M241.175 883.559 Q237.564 883.559 235.735 887.123 Q233.93 890.665 233.93 897.795 Q233.93 904.901 235.735 908.466 Q237.564 912.008 241.175 912.008 Q244.809 912.008 246.615 908.466 Q248.443 904.901 248.443 897.795 Q248.443 890.665 246.615 887.123 Q244.809 883.559 241.175 883.559 M241.175 879.855 Q246.985 879.855 250.041 884.461 Q253.119 889.045 253.119 897.795 Q253.119 906.522 250.041 911.128 Q246.985 915.711 241.175 915.711 Q235.365 915.711 232.286 911.128 Q229.231 906.522 229.231 897.795 Q229.231 889.045 232.286 884.461 Q235.365 879.855 241.175 879.855 Z" fill="#000000" fill-rule="evenodd" fill-opacity="1" /><path clip-path="url(#clip040)" d="M 0 0 M241.175 777.457 Q237.564 777.457 235.735 781.022 Q233.93 784.563 233.93 791.693 Q233.93 798.799 235.735 802.364 Q237.564 805.906 241.175 805.906 Q244.809 805.906 246.615 802.364 Q248.443 798.799 248.443 791.693 Q248.443 784.563 246.615 781.022 Q244.809 777.457 241.175 777.457 M241.175 773.753 Q246.985 773.753 250.041 778.36 Q253.119 782.943 253.119 791.693 Q253.119 800.42 250.041 805.026 Q246.985 809.609 241.175 809.609 Q235.365 809.609 232.286 805.026 Q229.231 800.42 229.231 791.693 Q229.231 782.943 232.286 778.36 Q235.365 773.753 241.175 773.753 Z" fill="#000000" fill-rule="evenodd" fill-opacity="1" /><path clip-path="url(#clip040)" d="M 0 0 M49.9215 1093.68 Q49.9215 1095.74 54.5366 1095.74 L76.371 1095.74 Q76.371 1092.72 73.0608 1089.7 Q70.1008 1086.99 63.003 1086.99 Q56.3827 1086.99 52.8179 1089.73 Q49.9215 1091.96 49.9215 1093.68 M44.9244 1093.68 Q44.9244 1089.22 49.1258 1085.18 Q53.6136 1080.82 63.003 1080.82 Q71.6285 1080.82 76.7529 1085.18 Q81.5909 1089.28 81.5909 1095.74 L94.3859 1095.74 L94.3859 1101.57 L81.6227 1101.57 Q81.6227 1107.9 76.7529 1112.17 Q71.7877 1116.5 63.0348 1116.5 Q53.9319 1116.5 49.2849 1112.17 Q45.8156 1108.92 44.9244 1103.64 L50.1124 1103.64 Q50.8445 1105.74 53.3271 1107.59 Q56.9874 1110.32 63.0348 1110.32 Q69.4642 1110.32 73.1245 1107.59 Q76.4028 1105.13 76.4028 1101.57 L54.5366 1101.57 Q44.9244 1101.57 44.9244 1093.68 Z" fill="#000000" fill-rule="evenodd" fill-opacity="1" /><polyline clip-path="url(#clip043)" style="stroke:#009af9; stroke-width:8; stroke-opacity:1; fill:none" points="
  347.524,797.737 366.537,798.017 542.333,801.296 647.98,804.032 737.303,806.943 834.332,810.887 923.785,815.418 1019.69,821.469 1130.8,830.43 1229.54,840.631 
  1316.13,851.763 1410.54,866.802 1505.51,885.729 1610.5,912.251 1710.41,944.398 1762.34,964.365 1814.28,986.942 1858,1008.22 1901.72,1031.82 1955.1,1064.14 
  2008.48,1100.81 2058.66,1139.77 2108.83,1183.64 2149.03,1222.73 2189.22,1265.73 2229.41,1313.02 2269.61,1365.02 2275.79,1373.47 2281.98,1382.04 2288.17,1390.75 
  2294.35,1399.58 
  "/>
</svg>