<?xml version="1.0" encoding="utf-8"?>
<svg xmlns="http://www.w3.org/2000/svg" xmlns:xlink="http://www.w3.org/1999/xlink" width="600" height="400" viewBox="0 0 2400 1600">
<defs>
  <clipPath id="clip900">
    <rect x="0" y="0" width="2400" height="1600"/>
  </clipPath>
</defs>
<path clip-path="url(#clip900)" d="
M0 1600 L2400 1600 L2400 0 L0 0  Z
  " fill="#ffffff" fill-rule="evenodd" fill-opacity="1"/>
<defs>
  <clipPath id="clip901">
    <rect x="480" y="0" width="1681" height="1600"/>
  </clipPath>
</defs>
<path clip-path="url(#clip900)" d="
M245.574 1442.95 L2352.76 1442.95 L2352.76 47.2441 L245.574 47.2441  Z
  " fill="#ffffff" fill-rule="evenodd" fill-opacity="1"/>
<defs>
  <clipPath id="clip902">
    <rect x="245" y="47" width="2108" height="1397"/>
  </clipPath>
</defs>
<polyline clip-path="url(#clip902)" style="stroke:#000000; stroke-width:2; stroke-opacity:0.1; fill:none" points="
  399.874,1442.95 399.874,47.2441 
  "/>
<polyline clip-path="url(#clip902)" style="stroke:#000000; stroke-width:2; stroke-opacity:0.1; fill:none" points="
  873.185,1442.95 873.185,47.2441 
  "/>
<polyline clip-path="url(#clip902)" style="stroke:#000000; stroke-width:2; stroke-opacity:0.1; fill:none" points="
  1346.5,1442.95 1346.5,47.2441 
  "/>
<polyline clip-path="url(#clip902)" style="stroke:#000000; stroke-width:2; stroke-opacity:0.1; fill:none" points="
  1819.81,1442.95 1819.81,47.2441 
  "/>
<polyline clip-path="url(#clip902)" style="stroke:#000000; stroke-width:2; stroke-opacity:0.1; fill:none" points="
  2293.12,1442.95 2293.12,47.2441 
  "/>
<polyline clip-path="url(#clip900)" style="stroke:#000000; stroke-width:4; stroke-opacity:1; fill:none" points="
  245.574,1442.95 2352.76,1442.95 
  "/>
<polyline clip-path="url(#clip900)" style="stroke:#000000; stroke-width:4; stroke-opacity:1; fill:none" points="
  399.874,1442.95 399.874,1426.2 
  "/>
<polyline clip-path="url(#clip900)" style="stroke:#000000; stroke-width:4; stroke-opacity:1; fill:none" points="
  873.185,1442.95 873.185,1426.2 
  "/>
<polyline clip-path="url(#clip900)" style="stroke:#000000; stroke-width:4; stroke-opacity:1; fill:none" points="
  1346.5,1442.95 1346.5,1426.2 
  "/>
<polyline clip-path="url(#clip900)" style="stroke:#000000; stroke-width:4; stroke-opacity:1; fill:none" points="
  1819.81,1442.95 1819.81,1426.2 
  "/>
<polyline clip-path="url(#clip900)" style="stroke:#000000; stroke-width:4; stroke-opacity:1; fill:none" points="
  2293.12,1442.95 2293.12,1426.2 
  "/>
<path clip-path="url(#clip900)" d="M 0 0 M377.258 1472.14 Q373.647 1472.14 371.818 1475.71 Q370.013 1479.25 370.013 1486.38 Q370.013 1493.48 371.818 1497.05 Q373.647 1500.59 377.258 1500.59 Q380.892 1500.59 382.698 1497.05 Q384.526 1493.48 384.526 1486.38 Q384.526 1479.25 382.698 1475.71 Q380.892 1472.14 377.258 1472.14 M377.258 1468.44 Q383.068 1468.44 386.124 1473.04 Q389.202 1477.63 389.202 1486.38 Q389.202 1495.1 386.124 1499.71 Q383.068 1504.29 377.258 1504.29 Q371.448 1504.29 368.369 1499.71 Q365.314 1495.1 365.314 1486.38 Q365.314 1477.63 368.369 1473.04 Q371.448 1468.44 377.258 1468.44 Z" fill="#000000" fill-rule="evenodd" fill-opacity="1" /><path clip-path="url(#clip900)" d="M 0 0 M397.42 1497.74 L402.304 1497.74 L402.304 1503.62 L397.42 1503.62 L397.42 1497.74 Z" fill="#000000" fill-rule="evenodd" fill-opacity="1" /><path clip-path="url(#clip900)" d="M 0 0 M422.489 1472.14 Q418.878 1472.14 417.049 1475.71 Q415.244 1479.25 415.244 1486.38 Q415.244 1493.48 417.049 1497.05 Q418.878 1500.59 422.489 1500.59 Q426.123 1500.59 427.929 1497.05 Q429.758 1493.48 429.758 1486.38 Q429.758 1479.25 427.929 1475.71 Q426.123 1472.14 422.489 1472.14 M422.489 1468.44 Q428.299 1468.44 431.355 1473.04 Q434.434 1477.63 434.434 1486.38 Q434.434 1495.1 431.355 1499.71 Q428.299 1504.29 422.489 1504.29 Q416.679 1504.29 413.6 1499.71 Q410.545 1495.1 410.545 1486.38 Q410.545 1477.63 413.6 1473.04 Q416.679 1468.44 422.489 1468.44 Z" fill="#000000" fill-rule="evenodd" fill-opacity="1" /><path clip-path="url(#clip900)" d="M 0 0 M844.921 1499.69 L861.24 1499.69 L861.24 1503.62 L839.296 1503.62 L839.296 1499.69 Q841.958 1496.93 846.541 1492.3 Q851.148 1487.65 852.328 1486.31 Q854.574 1483.78 855.453 1482.05 Q856.356 1480.29 856.356 1478.6 Q856.356 1475.84 854.412 1474.11 Q852.491 1472.37 849.389 1472.37 Q847.19 1472.37 844.736 1473.14 Q842.305 1473.9 839.528 1475.45 L839.528 1470.73 Q842.352 1469.59 844.805 1469.02 Q847.259 1468.44 849.296 1468.44 Q854.666 1468.44 857.861 1471.12 Q861.055 1473.81 861.055 1478.3 Q861.055 1480.43 860.245 1482.35 Q859.458 1484.25 857.352 1486.84 Q856.773 1487.51 853.671 1490.73 Q850.569 1493.92 844.921 1499.69 Z" fill="#000000" fill-rule="evenodd" fill-opacity="1" /><path clip-path="url(#clip900)" d="M 0 0 M871.055 1497.74 L875.939 1497.74 L875.939 1503.62 L871.055 1503.62 L871.055 1497.74 Z" fill="#000000" fill-rule="evenodd" fill-opacity="1" /><path clip-path="url(#clip900)" d="M 0 0 M886.171 1469.06 L904.527 1469.06 L904.527 1473 L890.453 1473 L890.453 1481.47 Q891.472 1481.12 892.49 1480.96 Q893.509 1480.77 894.527 1480.77 Q900.314 1480.77 903.694 1483.95 Q907.074 1487.12 907.074 1492.53 Q907.074 1498.11 903.601 1501.21 Q900.129 1504.29 893.81 1504.29 Q891.634 1504.29 889.365 1503.92 Q887.12 1503.55 884.713 1502.81 L884.713 1498.11 Q886.796 1499.25 889.018 1499.8 Q891.24 1500.36 893.717 1500.36 Q897.722 1500.36 900.06 1498.25 Q902.398 1496.15 902.398 1492.53 Q902.398 1488.92 900.06 1486.82 Q897.722 1484.71 893.717 1484.71 Q891.842 1484.71 889.967 1485.13 Q888.115 1485.54 886.171 1486.42 L886.171 1469.06 Z" fill="#000000" fill-rule="evenodd" fill-opacity="1" /><path clip-path="url(#clip900)" d="M 0 0 M1313.66 1469.06 L1332.02 1469.06 L1332.02 1473 L1317.94 1473 L1317.94 1481.47 Q1318.96 1481.12 1319.98 1480.96 Q1321 1480.77 1322.02 1480.77 Q1327.8 1480.77 1331.18 1483.95 Q1334.56 1487.12 1334.56 1492.53 Q1334.56 1498.11 1331.09 1501.21 Q1327.62 1504.29 1321.3 1504.29 Q1319.12 1504.29 1316.86 1503.92 Q1314.61 1503.55 1312.2 1502.81 L1312.2 1498.11 Q1314.29 1499.25 1316.51 1499.8 Q1318.73 1500.36 1321.21 1500.36 Q1325.21 1500.36 1327.55 1498.25 Q1329.89 1496.15 1329.89 1492.53 Q1329.89 1488.92 1327.55 1486.82 Q1325.21 1484.71 1321.21 1484.71 Q1319.33 1484.71 1317.46 1485.13 Q1315.61 1485.54 1313.66 1486.42 L1313.66 1469.06 Z" fill="#000000" fill-rule="evenodd" fill-opacity="1" /><path clip-path="url(#clip900)" d="M 0 0 M1343.78 1497.74 L1348.66 1497.74 L1348.66 1503.62 L1343.78 1503.62 L1343.78 1497.74 Z" fill="#000000" fill-rule="evenodd" fill-opacity="1" /><path clip-path="url(#clip900)" d="M 0 0 M1368.85 1472.14 Q1365.23 1472.14 1363.41 1475.71 Q1361.6 1479.25 1361.6 1486.38 Q1361.6 1493.48 1363.41 1497.05 Q1365.23 1500.59 1368.85 1500.59 Q1372.48 1500.59 1374.29 1497.05 Q1376.11 1493.48 1376.11 1486.38 Q1376.11 1479.25 1374.29 1475.71 Q1372.48 1472.14 1368.85 1472.14 M1368.85 1468.44 Q1374.66 1468.44 1377.71 1473.04 Q1380.79 1477.63 1380.79 1486.38 Q1380.79 1495.1 1377.71 1499.71 Q1374.66 1504.29 1368.85 1504.29 Q1363.04 1504.29 1359.96 1499.71 Q1356.9 1495.1 1356.9 1486.38 Q1356.9 1477.63 1359.96 1473.04 Q1363.04 1468.44 1368.85 1468.44 Z" fill="#000000" fill-rule="evenodd" fill-opacity="1" /><path clip-path="url(#clip900)" d="M 0 0 M1786.13 1469.06 L1808.35 1469.06 L1808.35 1471.05 L1795.8 1503.62 L1790.92 1503.62 L1802.72 1473 L1786.13 1473 L1786.13 1469.06 Z" fill="#000000" fill-rule="evenodd" fill-opacity="1" /><path clip-path="url(#clip900)" d="M 0 0 M1817.47 1497.74 L1822.35 1497.74 L1822.35 1503.62 L1817.47 1503.62 L1817.47 1497.74 Z" fill="#000000" fill-rule="evenodd" fill-opacity="1" /><path clip-path="url(#clip900)" d="M 0 0 M1832.59 1469.06 L1850.94 1469.06 L1850.94 1473 L1836.87 1473 L1836.87 1481.47 Q1837.89 1481.12 1838.9 1480.96 Q1839.92 1480.77 1840.94 1480.77 Q1846.73 1480.77 1850.11 1483.95 Q1853.49 1487.12 1853.49 1492.53 Q1853.49 1498.11 1850.02 1501.21 Q1846.54 1504.29 1840.22 1504.29 Q1838.05 1504.29 1835.78 1503.92 Q1833.53 1503.55 1831.13 1502.81 L1831.13 1498.11 Q1833.21 1499.25 1835.43 1499.8 Q1837.65 1500.36 1840.13 1500.36 Q1844.14 1500.36 1846.47 1498.25 Q1848.81 1496.15 1848.81 1492.53 Q1848.81 1488.92 1846.47 1486.82 Q1844.14 1484.71 1840.13 1484.71 Q1838.26 1484.71 1836.38 1485.13 Q1834.53 1485.54 1832.59 1486.42 L1832.59 1469.06 Z" fill="#000000" fill-rule="evenodd" fill-opacity="1" /><path clip-path="url(#clip900)" d="M 0 0 M2245.19 1499.69 L2252.83 1499.69 L2252.83 1473.32 L2244.52 1474.99 L2244.52 1470.73 L2252.78 1469.06 L2257.46 1469.06 L2257.46 1499.69 L2265.1 1499.69 L2265.1 1503.62 L2245.19 1503.62 L2245.19 1499.69 Z" fill="#000000" fill-rule="evenodd" fill-opacity="1" /><path clip-path="url(#clip900)" d="M 0 0 M2284.54 1472.14 Q2280.93 1472.14 2279.1 1475.71 Q2277.3 1479.25 2277.3 1486.38 Q2277.3 1493.48 2279.1 1497.05 Q2280.93 1500.59 2284.54 1500.59 Q2288.18 1500.59 2289.98 1497.05 Q2291.81 1493.48 2291.81 1486.38 Q2291.81 1479.25 2289.98 1475.71 Q2288.18 1472.14 2284.54 1472.14 M2284.54 1468.44 Q2290.35 1468.44 2293.41 1473.04 Q2296.49 1477.63 2296.49 1486.38 Q2296.49 1495.1 2293.41 1499.71 Q2290.35 1504.29 2284.54 1504.29 Q2278.73 1504.29 2275.65 1499.71 Q2272.6 1495.1 2272.6 1486.38 Q2272.6 1477.63 2275.65 1473.04 Q2278.73 1468.44 2284.54 1468.44 Z" fill="#000000" fill-rule="evenodd" fill-opacity="1" /><path clip-path="url(#clip900)" d="M 0 0 M2304.7 1497.74 L2309.59 1497.74 L2309.59 1503.62 L2304.7 1503.62 L2304.7 1497.74 Z" fill="#000000" fill-rule="evenodd" fill-opacity="1" /><path clip-path="url(#clip900)" d="M 0 0 M2329.77 1472.14 Q2326.16 1472.14 2324.33 1475.71 Q2322.53 1479.25 2322.53 1486.38 Q2322.53 1493.48 2324.33 1497.05 Q2326.16 1500.59 2329.77 1500.59 Q2333.41 1500.59 2335.21 1497.05 Q2337.04 1493.48 2337.04 1486.38 Q2337.04 1479.25 2335.21 1475.71 Q2333.41 1472.14 2329.77 1472.14 M2329.77 1468.44 Q2335.58 1468.44 2338.64 1473.04 Q2341.72 1477.63 2341.72 1486.38 Q2341.72 1495.1 2338.64 1499.71 Q2335.58 1504.29 2329.77 1504.29 Q2323.96 1504.29 2320.88 1499.71 Q2317.83 1495.1 2317.83 1486.38 Q2317.83 1477.63 2320.88 1473.04 Q2323.96 1468.44 2329.77 1468.44 Z" fill="#000000" fill-rule="evenodd" fill-opacity="1" /><path clip-path="url(#clip900)" d="M 0 0 M1307.64 1539.82 Q1307.64 1540.72 1307.22 1540.95 Q1306.8 1541.14 1305.64 1541.14 L1299.46 1541.14 L1294.56 1560.59 Q1294.17 1562.3 1294.17 1563.75 Q1294.17 1565.36 1294.66 1566.07 Q1295.17 1566.78 1296.24 1566.78 Q1298.33 1566.78 1300.58 1564.88 Q1302.87 1562.98 1304.8 1558.34 Q1305.06 1557.73 1305.19 1557.6 Q1305.35 1557.44 1305.77 1557.44 Q1306.57 1557.44 1306.57 1558.08 Q1306.57 1558.31 1306.12 1559.34 Q1305.7 1560.37 1304.77 1561.88 Q1303.87 1563.4 1302.68 1564.81 Q1301.52 1566.23 1299.75 1567.26 Q1297.97 1568.26 1296.07 1568.26 Q1293.4 1568.26 1291.69 1566.55 Q1290.02 1564.84 1290.02 1562.17 Q1290.02 1561.3 1290.7 1558.53 Q1291.37 1555.73 1295.04 1541.14 L1289.21 1541.14 Q1288.41 1541.14 1288.09 1541.11 Q1287.8 1541.08 1287.57 1540.92 Q1287.38 1540.72 1287.38 1540.34 Q1287.38 1539.72 1287.64 1539.47 Q1287.89 1539.18 1288.22 1539.14 Q1288.57 1539.08 1289.38 1539.08 L1295.56 1539.08 L1298.14 1528.61 Q1298.39 1527.58 1299.04 1527 Q1299.71 1526.39 1300.1 1526.33 Q1300.49 1526.23 1300.78 1526.23 Q1301.65 1526.23 1302.16 1526.71 Q1302.68 1527.16 1302.68 1528 Q1302.68 1528.45 1299.97 1539.08 L1305.77 1539.08 Q1306.51 1539.08 1306.8 1539.11 Q1307.12 1539.14 1307.38 1539.31 Q1307.64 1539.47 1307.64 1539.82 Z" fill="#000000" fill-rule="evenodd" fill-opacity="1" /><polyline clip-path="url(#clip902)" style="stroke:#000000; stroke-width:2; stroke-opacity:0.1; fill:none" points="
  245.574,1403.45 2352.76,1403.45 
  "/>
<polyline clip-path="url(#clip902)" style="stroke:#000000; stroke-width:2; stroke-opacity:0.1; fill:none" points="
  245.574,1074.27 2352.76,1074.27 
  "/>
<polyline clip-path="url(#clip902)" style="stroke:#000000; stroke-width:2; stroke-opacity:0.1; fill:none" points="
  245.574,745.097 2352.76,745.097 
  "/>
<polyline clip-path="url(#clip902)" style="stroke:#000000; stroke-width:2; stroke-opacity:0.1; fill:none" points="
  245.574,415.921 2352.76,415.921 
  "/>
<polyline clip-path="url(#clip902)" style="stroke:#000000; stroke-width:2; stroke-opacity:0.1; fill:none" points="
  245.574,86.7452 2352.76,86.7452 
  "/>
<polyline clip-path="url(#clip900)" style="stroke:#000000; stroke-width:4; stroke-opacity:1; fill:none" points="
  245.574,1442.95 245.574,47.2441 
  "/>
<polyline clip-path="url(#clip900)" style="stroke:#000000; stroke-width:4; stroke-opacity:1; fill:none" points="
  245.574,1403.45 270.86,1403.45 
  "/>
<polyline clip-path="url(#clip900)" style="stroke:#000000; stroke-width:4; stroke-opacity:1; fill:none" points="
  245.574,1074.27 270.86,1074.27 
  "/>
<polyline clip-path="url(#clip900)" style="stroke:#000000; stroke-width:4; stroke-opacity:1; fill:none" points="
  245.574,745.097 270.86,745.097 
  "/>
<polyline clip-path="url(#clip900)" style="stroke:#000000; stroke-width:4; stroke-opacity:1; fill:none" points="
  245.574,415.921 270.86,415.921 
  "/>
<polyline clip-path="url(#clip900)" style="stroke:#000000; stroke-width:4; stroke-opacity:1; fill:none" points="
  245.574,86.7452 270.86,86.7452 
  "/>
<path clip-path="url(#clip900)" d="M 0 0 M122.237 1389.25 Q118.626 1389.25 116.797 1392.81 Q114.991 1396.35 114.991 1403.48 Q114.991 1410.59 116.797 1414.15 Q118.626 1417.7 122.237 1417.7 Q125.871 1417.7 127.676 1414.15 Q129.505 1410.59 129.505 1403.48 Q129.505 1396.35 127.676 1392.81 Q125.871 1389.25 122.237 1389.25 M122.237 1385.54 Q128.047 1385.54 131.102 1390.15 Q134.181 1394.73 134.181 1403.48 Q134.181 1412.21 131.102 1416.82 Q128.047 1421.4 122.237 1421.4 Q116.426 1421.4 113.348 1416.82 Q110.292 1412.21 110.292 1403.48 Q110.292 1394.73 113.348 1390.15 Q116.426 1385.54 122.237 1385.54 Z" fill="#000000" fill-rule="evenodd" fill-opacity="1" /><path clip-path="url(#clip900)" d="M 0 0 M142.399 1414.85 L147.283 1414.85 L147.283 1420.73 L142.399 1420.73 L142.399 1414.85 Z" fill="#000000" fill-rule="evenodd" fill-opacity="1" /><path clip-path="url(#clip900)" d="M 0 0 M167.468 1389.25 Q163.857 1389.25 162.028 1392.81 Q160.223 1396.35 160.223 1403.48 Q160.223 1410.59 162.028 1414.15 Q163.857 1417.7 167.468 1417.7 Q171.102 1417.7 172.908 1414.15 Q174.736 1410.59 174.736 1403.48 Q174.736 1396.35 172.908 1392.81 Q171.102 1389.25 167.468 1389.25 M167.468 1385.54 Q173.278 1385.54 176.334 1390.15 Q179.412 1394.73 179.412 1403.48 Q179.412 1412.21 176.334 1416.82 Q173.278 1421.4 167.468 1421.4 Q161.658 1421.4 158.579 1416.82 Q155.523 1412.21 155.523 1403.48 Q155.523 1394.73 158.579 1390.15 Q161.658 1385.54 167.468 1385.54 Z" fill="#000000" fill-rule="evenodd" fill-opacity="1" /><path clip-path="url(#clip900)" d="M 0 0 M197.63 1389.25 Q194.019 1389.25 192.19 1392.81 Q190.384 1396.35 190.384 1403.48 Q190.384 1410.59 192.19 1414.15 Q194.019 1417.7 197.63 1417.7 Q201.264 1417.7 203.07 1414.15 Q204.898 1410.59 204.898 1403.48 Q204.898 1396.35 203.07 1392.81 Q201.264 1389.25 197.63 1389.25 M197.63 1385.54 Q203.44 1385.54 206.495 1390.15 Q209.574 1394.73 209.574 1403.48 Q209.574 1412.21 206.495 1416.82 Q203.44 1421.4 197.63 1421.4 Q191.82 1421.4 188.741 1416.82 Q185.685 1412.21 185.685 1403.48 Q185.685 1394.73 188.741 1390.15 Q191.82 1385.54 197.63 1385.54 Z" fill="#000000" fill-rule="evenodd" fill-opacity="1" /><path clip-path="url(#clip900)" d="M 0 0 M123.232 1060.07 Q119.621 1060.07 117.792 1063.64 Q115.987 1067.18 115.987 1074.31 Q115.987 1081.41 117.792 1084.98 Q119.621 1088.52 123.232 1088.52 Q126.866 1088.52 128.672 1084.98 Q130.5 1081.41 130.5 1074.31 Q130.5 1067.18 128.672 1063.64 Q126.866 1060.07 123.232 1060.07 M123.232 1056.37 Q129.042 1056.37 132.098 1060.97 Q135.176 1065.56 135.176 1074.31 Q135.176 1083.03 132.098 1087.64 Q129.042 1092.22 123.232 1092.22 Q117.422 1092.22 114.343 1087.64 Q111.288 1083.03 111.288 1074.31 Q111.288 1065.56 114.343 1060.97 Q117.422 1056.37 123.232 1056.37 Z" fill="#000000" fill-rule="evenodd" fill-opacity="1" /><path clip-path="url(#clip900)" d="M 0 0 M143.394 1085.67 L148.278 1085.67 L148.278 1091.55 L143.394 1091.55 L143.394 1085.67 Z" fill="#000000" fill-rule="evenodd" fill-opacity="1" /><path clip-path="url(#clip900)" d="M 0 0 M162.491 1087.62 L178.81 1087.62 L178.81 1091.55 L156.866 1091.55 L156.866 1087.62 Q159.528 1084.86 164.111 1080.23 Q168.718 1075.58 169.898 1074.24 Q172.144 1071.71 173.023 1069.98 Q173.926 1068.22 173.926 1066.53 Q173.926 1063.78 171.982 1062.04 Q170.06 1060.3 166.959 1060.3 Q164.76 1060.3 162.306 1061.07 Q159.875 1061.83 157.098 1063.38 L157.098 1058.66 Q159.922 1057.53 162.375 1056.95 Q164.829 1056.37 166.866 1056.37 Q172.236 1056.37 175.431 1059.05 Q178.625 1061.74 178.625 1066.23 Q178.625 1068.36 177.815 1070.28 Q177.028 1072.18 174.922 1074.77 Q174.343 1075.44 171.241 1078.66 Q168.139 1081.85 162.491 1087.62 Z" fill="#000000" fill-rule="evenodd" fill-opacity="1" /><path clip-path="url(#clip900)" d="M 0 0 M188.671 1056.99 L207.028 1056.99 L207.028 1060.93 L192.954 1060.93 L192.954 1069.4 Q193.972 1069.05 194.991 1068.89 Q196.009 1068.71 197.028 1068.71 Q202.815 1068.71 206.195 1071.88 Q209.574 1075.05 209.574 1080.46 Q209.574 1086.04 206.102 1089.15 Q202.63 1092.22 196.31 1092.22 Q194.134 1092.22 191.866 1091.85 Q189.621 1091.48 187.213 1090.74 L187.213 1086.04 Q189.296 1087.18 191.519 1087.73 Q193.741 1088.29 196.218 1088.29 Q200.222 1088.29 202.56 1086.18 Q204.898 1084.08 204.898 1080.46 Q204.898 1076.85 202.56 1074.75 Q200.222 1072.64 196.218 1072.64 Q194.343 1072.64 192.468 1073.06 Q190.616 1073.47 188.671 1074.35 L188.671 1056.99 Z" fill="#000000" fill-rule="evenodd" fill-opacity="1" /><path clip-path="url(#clip900)" d="M 0 0 M122.237 730.896 Q118.626 730.896 116.797 734.46 Q114.991 738.002 114.991 745.132 Q114.991 752.238 116.797 755.803 Q118.626 759.345 122.237 759.345 Q125.871 759.345 127.676 755.803 Q129.505 752.238 129.505 745.132 Q129.505 738.002 127.676 734.46 Q125.871 730.896 122.237 730.896 M122.237 727.192 Q128.047 727.192 131.102 731.798 Q134.181 736.382 134.181 745.132 Q134.181 753.858 131.102 758.465 Q128.047 763.048 122.237 763.048 Q116.426 763.048 113.348 758.465 Q110.292 753.858 110.292 745.132 Q110.292 736.382 113.348 731.798 Q116.426 727.192 122.237 727.192 Z" fill="#000000" fill-rule="evenodd" fill-opacity="1" /><path clip-path="url(#clip900)" d="M 0 0 M142.399 756.497 L147.283 756.497 L147.283 762.377 L142.399 762.377 L142.399 756.497 Z" fill="#000000" fill-rule="evenodd" fill-opacity="1" /><path clip-path="url(#clip900)" d="M 0 0 M157.514 727.817 L175.871 727.817 L175.871 731.752 L161.797 731.752 L161.797 740.224 Q162.815 739.877 163.834 739.715 Q164.852 739.53 165.871 739.53 Q171.658 739.53 175.037 742.701 Q178.417 745.872 178.417 751.289 Q178.417 756.868 174.945 759.97 Q171.472 763.048 165.153 763.048 Q162.977 763.048 160.709 762.678 Q158.463 762.308 156.056 761.567 L156.056 756.868 Q158.139 758.002 160.361 758.558 Q162.584 759.113 165.06 759.113 Q169.065 759.113 171.403 757.007 Q173.741 754.9 173.741 751.289 Q173.741 747.678 171.403 745.572 Q169.065 743.465 165.06 743.465 Q163.185 743.465 161.31 743.882 Q159.459 744.298 157.514 745.178 L157.514 727.817 Z" fill="#000000" fill-rule="evenodd" fill-opacity="1" /><path clip-path="url(#clip900)" d="M 0 0 M197.63 730.896 Q194.019 730.896 192.19 734.46 Q190.384 738.002 190.384 745.132 Q190.384 752.238 192.19 755.803 Q194.019 759.345 197.63 759.345 Q201.264 759.345 203.07 755.803 Q204.898 752.238 204.898 745.132 Q204.898 738.002 203.07 734.46 Q201.264 730.896 197.63 730.896 M197.63 727.192 Q203.44 727.192 206.495 731.798 Q209.574 736.382 209.574 745.132 Q209.574 753.858 206.495 758.465 Q203.44 763.048 197.63 763.048 Q191.82 763.048 188.741 758.465 Q185.685 753.858 185.685 745.132 Q185.685 736.382 188.741 731.798 Q191.82 727.192 197.63 727.192 Z" fill="#000000" fill-rule="evenodd" fill-opacity="1" /><path clip-path="url(#clip900)" d="M 0 0 M123.232 401.72 Q119.621 401.72 117.792 405.285 Q115.987 408.826 115.987 415.956 Q115.987 423.062 117.792 426.627 Q119.621 430.169 123.232 430.169 Q126.866 430.169 128.672 426.627 Q130.5 423.062 130.5 415.956 Q130.5 408.826 128.672 405.285 Q126.866 401.72 123.232 401.72 M123.232 398.016 Q129.042 398.016 132.098 402.623 Q135.176 407.206 135.176 415.956 Q135.176 424.683 132.098 429.289 Q129.042 433.872 123.232 433.872 Q117.422 433.872 114.343 429.289 Q111.288 424.683 111.288 415.956 Q111.288 407.206 114.343 402.623 Q117.422 398.016 123.232 398.016 Z" fill="#000000" fill-rule="evenodd" fill-opacity="1" /><path clip-path="url(#clip900)" d="M 0 0 M143.394 427.321 L148.278 427.321 L148.278 433.201 L143.394 433.201 L143.394 427.321 Z" fill="#000000" fill-rule="evenodd" fill-opacity="1" /><path clip-path="url(#clip900)" d="M 0 0 M157.283 398.641 L179.505 398.641 L179.505 400.632 L166.959 433.201 L162.074 433.201 L173.88 402.576 L157.283 402.576 L157.283 398.641 Z" fill="#000000" fill-rule="evenodd" fill-opacity="1" /><path clip-path="url(#clip900)" d="M 0 0 M188.671 398.641 L207.028 398.641 L207.028 402.576 L192.954 402.576 L192.954 411.048 Q193.972 410.701 194.991 410.539 Q196.009 410.354 197.028 410.354 Q202.815 410.354 206.195 413.525 Q209.574 416.697 209.574 422.113 Q209.574 427.692 206.102 430.794 Q202.63 433.872 196.31 433.872 Q194.134 433.872 191.866 433.502 Q189.621 433.132 187.213 432.391 L187.213 427.692 Q189.296 428.826 191.519 429.382 Q193.741 429.937 196.218 429.937 Q200.222 429.937 202.56 427.831 Q204.898 425.724 204.898 422.113 Q204.898 418.502 202.56 416.396 Q200.222 414.289 196.218 414.289 Q194.343 414.289 192.468 414.706 Q190.616 415.122 188.671 416.002 L188.671 398.641 Z" fill="#000000" fill-rule="evenodd" fill-opacity="1" /><path clip-path="url(#clip900)" d="M 0 0 M113.047 100.09 L120.686 100.09 L120.686 73.7244 L112.376 75.3911 L112.376 71.1319 L120.639 69.4652 L125.315 69.4652 L125.315 100.09 L132.954 100.09 L132.954 104.025 L113.047 104.025 L113.047 100.09 Z" fill="#000000" fill-rule="evenodd" fill-opacity="1" /><path clip-path="url(#clip900)" d="M 0 0 M142.399 98.1456 L147.283 98.1456 L147.283 104.025 L142.399 104.025 L142.399 98.1456 Z" fill="#000000" fill-rule="evenodd" fill-opacity="1" /><path clip-path="url(#clip900)" d="M 0 0 M167.468 72.5439 Q163.857 72.5439 162.028 76.1087 Q160.223 79.6503 160.223 86.7799 Q160.223 93.8864 162.028 97.4512 Q163.857 100.993 167.468 100.993 Q171.102 100.993 172.908 97.4512 Q174.736 93.8864 174.736 86.7799 Q174.736 79.6503 172.908 76.1087 Q171.102 72.5439 167.468 72.5439 M167.468 68.8402 Q173.278 68.8402 176.334 73.4467 Q179.412 78.03 179.412 86.7799 Q179.412 95.5067 176.334 100.113 Q173.278 104.696 167.468 104.696 Q161.658 104.696 158.579 100.113 Q155.523 95.5067 155.523 86.7799 Q155.523 78.03 158.579 73.4467 Q161.658 68.8402 167.468 68.8402 Z" fill="#000000" fill-rule="evenodd" fill-opacity="1" /><path clip-path="url(#clip900)" d="M 0 0 M197.63 72.5439 Q194.019 72.5439 192.19 76.1087 Q190.384 79.6503 190.384 86.7799 Q190.384 93.8864 192.19 97.4512 Q194.019 100.993 197.63 100.993 Q201.264 100.993 203.07 97.4512 Q204.898 93.8864 204.898 86.7799 Q204.898 79.6503 203.07 76.1087 Q201.264 72.5439 197.63 72.5439 M197.63 68.8402 Q203.44 68.8402 206.495 73.4467 Q209.574 78.03 209.574 86.7799 Q209.574 95.5067 206.495 100.113 Q203.44 104.696 197.63 104.696 Q191.82 104.696 188.741 100.113 Q185.685 95.5067 185.685 86.7799 Q185.685 78.03 188.741 73.4467 Q191.82 68.8402 197.63 68.8402 Z" fill="#000000" fill-rule="evenodd" fill-opacity="1" /><path clip-path="url(#clip900)" d="M 0 0 M37.8627 767.773 Q38.3136 767.773 39.3764 768.063 L64.5613 774.376 Q70.1652 775.76 74.0943 780.269 Q78.0234 784.746 78.0234 789.834 Q78.0234 792.894 76.3809 794.859 Q74.7706 796.823 72.2907 796.823 Q70.1007 796.823 69.038 795.664 Q68.0074 794.504 68.0074 793.119 Q68.0074 792.669 68.1362 792.185 Q68.265 791.702 68.8125 791.187 Q69.36 790.672 70.294 790.672 Q71.8077 790.672 72.9993 791.992 Q73.5468 792.636 73.6756 793.248 Q73.8044 793.828 73.8044 794.826 Q74.7062 794.44 75.3181 793.731 Q75.93 793.023 76.1555 792.218 Q76.4131 791.413 76.4775 790.897 Q76.5741 790.35 76.5741 789.834 Q76.5741 785.712 72.4196 782.556 Q71.1635 781.622 69.9075 780.946 Q68.6837 780.237 67.17 779.722 Q65.6885 779.207 64.8834 778.981 Q64.0783 778.723 62.2425 778.273 Q65.2377 781.268 65.2377 784.939 Q65.2377 786.485 64.819 787.87 Q64.4003 789.223 63.5308 790.414 Q62.629 791.606 61.0509 792.314 Q59.4728 792.991 57.3794 792.991 Q55.1572 792.991 52.1299 792.121 Q49.1025 791.251 43.5309 789.158 Q40.4069 788.031 38.8933 788.031 Q38.1525 788.031 37.7017 788.192 Q37.2186 788.353 37.0575 788.675 Q36.8643 788.997 36.8321 789.19 Q36.7999 789.351 36.7999 789.673 Q36.7999 791.574 38.7322 793.345 Q40.6646 795.116 44.9802 796.34 Q45.7853 796.598 45.9786 796.759 Q46.1718 796.92 46.1718 797.403 Q46.1396 798.208 45.4955 798.208 Q45.2378 798.208 44.2394 797.918 Q43.2089 797.628 41.6952 796.952 Q40.1493 796.243 38.7644 795.277 Q37.3474 794.311 36.349 792.797 Q35.3506 791.251 35.3506 789.48 Q35.3506 787.065 36.9287 785.583 Q38.4746 784.07 40.7612 784.07 Q41.6952 784.07 42.5325 784.327 Q43.3377 784.553 45.4955 785.39 Q54.1911 788.772 58.4422 788.772 Q59.4728 788.772 60.3424 788.611 Q61.1797 788.417 62.0171 787.999 Q62.8222 787.58 63.3053 786.743 Q63.7562 785.873 63.7562 784.681 Q63.7562 783.168 63.0477 781.751 Q62.3069 780.302 61.3085 779.4 Q60.3102 778.466 59.4728 777.918 Q58.6033 777.339 58.1524 777.21 L46.3006 774.247 L41.0189 772.926 Q38.1525 772.314 37.444 772.025 Q36.7677 771.638 36.4134 770.962 Q36.0592 770.285 36.0592 769.706 Q36.0592 768.901 36.5422 768.353 Q37.0253 767.773 37.8627 767.773 Z" fill="#000000" fill-rule="evenodd" fill-opacity="1" /><path clip-path="url(#clip900)" d="M 0 0 M48.0075 766.214 Q36.8643 766.214 27.8789 762.059 Q24.1108 760.288 20.9546 757.808 Q17.7984 755.328 16.4136 753.686 Q15.0287 752.043 15.0287 751.592 Q15.0287 750.948 15.6728 750.916 Q15.9949 750.916 16.8 751.786 Q27.6212 762.413 48.0075 762.381 Q68.4582 762.381 78.8607 752.043 Q79.9879 750.916 80.3422 750.916 Q80.9863 750.916 80.9863 751.592 Q80.9863 752.043 79.6659 753.621 Q78.3454 755.199 75.3181 757.647 Q72.2907 760.095 68.5871 761.866 Q59.6016 766.214 48.0075 766.214 Z" fill="#000000" fill-rule="evenodd" fill-opacity="1" /><path clip-path="url(#clip900)" d="M 0 0 M36.7999 720.629 Q37.7017 720.629 37.9271 721.048 Q38.1203 721.466 38.1203 722.626 L38.1203 728.809 L57.5727 733.704 Q59.2796 734.091 60.7288 734.091 Q62.3391 734.091 63.0477 733.608 Q63.7562 733.093 63.7562 732.03 Q63.7562 729.936 61.856 727.682 Q59.9559 725.395 55.3183 723.463 Q54.7063 723.205 54.5775 723.077 Q54.4165 722.915 54.4165 722.497 Q54.4165 721.692 55.0606 721.692 Q55.2861 721.692 56.3166 722.143 Q57.3472 722.561 58.8609 723.495 Q60.3746 724.397 61.7916 725.589 Q63.2087 726.748 64.2393 728.519 Q65.2377 730.291 65.2377 732.191 Q65.2377 734.864 63.5308 736.571 Q61.8238 738.245 59.1508 738.245 Q58.2812 738.245 55.5115 737.569 Q52.7096 736.893 38.1203 733.221 L38.1203 739.051 Q38.1203 739.856 38.0881 740.178 Q38.0559 740.468 37.8949 740.693 Q37.7017 740.886 37.3152 740.886 Q36.7033 740.886 36.4456 740.629 Q36.1558 740.371 36.1236 740.049 Q36.0592 739.695 36.0592 738.89 L36.0592 732.706 L25.5922 730.13 Q24.5617 729.872 23.982 729.228 Q23.37 728.552 23.3056 728.165 Q23.209 727.779 23.209 727.489 Q23.209 726.619 23.6921 726.104 Q24.143 725.589 24.9803 725.589 Q25.4312 725.589 36.0592 728.294 L36.0592 722.497 Q36.0592 721.756 36.0914 721.466 Q36.1236 721.144 36.2846 720.887 Q36.4456 720.629 36.7999 720.629 Z" fill="#000000" fill-rule="evenodd" fill-opacity="1" /><path clip-path="url(#clip900)" d="M 0 0 M80.3422 717.313 Q80.0202 717.313 79.215 716.476 Q68.3938 705.848 48.0075 705.848 Q27.5568 705.848 17.2187 716.057 Q16.0271 717.313 15.6728 717.313 Q15.0287 717.313 15.0287 716.669 Q15.0287 716.218 16.3492 714.64 Q17.6696 713.03 20.697 710.615 Q23.7243 708.167 27.428 706.363 Q36.4134 702.016 48.0075 702.016 Q59.1508 702.016 68.1362 706.17 Q71.9043 707.941 75.0605 710.421 Q78.2166 712.901 79.6015 714.544 Q80.9863 716.186 80.9863 716.669 Q80.9863 717.313 80.3422 717.313 Z" fill="#000000" fill-rule="evenodd" fill-opacity="1" /><polyline clip-path="url(#clip902)" style="stroke:#009af9; stroke-width:8; stroke-opacity:1; fill:none" points="
  305.211,1403.45 310.065,1403.45 314.918,1403.45 319.771,1403.45 324.625,1403.45 347.063,1403.45 369.501,1403.45 380.721,1403.45 391.94,1403.45 394.745,1403.45 
  397.549,1403.45 398.952,1403.45 400.354,1396.78 401.756,1377.52 403.159,1358.54 408.768,1285.36 414.378,1216.4 425.597,1090.14 436.816,977.999 448.035,878.389 
  459.255,789.912 470.474,711.323 481.693,641.518 492.912,579.514 504.131,524.441 517.616,466.329 531.1,415.932 544.585,372.227 558.069,334.324 585.038,272.948 
  612.007,226.787 634.809,196.809 657.611,173.249 680.413,154.732 703.214,140.178 752.753,118.407 802.291,105.506 847.962,98.3259 893.632,93.8936 991.558,89.2858 
  1105.02,87.5115 1205.84,87.0093 1294.26,86.849 1390.66,86.7827 1487.63,86.7587 1594.84,86.7495 1696.85,86.7467 1802.92,86.7457 1892.21,86.7454 2001.22,86.7453 
  2103.69,86.7452 2267.85,86.7452 2293.12,86.7452 
  "/>
<polyline clip-path="url(#clip902)" style="stroke:#e26f46; stroke-width:8; stroke-opacity:1; fill:none" points="
  305.211,1403.45 310.065,1403.45 314.918,1403.45 319.771,1403.45 324.625,1403.45 347.063,1403.45 369.501,1403.45 380.721,1403.45 391.94,1403.45 397.549,1403.45 
  403.159,1380.8 408.768,1343.02 414.378,1306.34 425.597,1236.17 436.816,1170.03 448.035,1107.71 459.255,1048.96 481.693,941.421 504.131,845.899 517.616,793.71 
  531.1,745.108 544.585,699.848 558.069,657.699 585.038,581.895 612.007,516.155 634.809,467.431 657.611,424.235 680.413,385.941 703.214,351.992 752.753,290.925 
  802.291,243.917 847.962,210.23 893.632,183.762 942.595,161.654 991.558,144.583 1048.29,129.608 1105.02,118.51 1205.84,105.394 1294.26,98.4359 1390.66,93.7713 
  1487.63,90.9551 1594.84,89.1348 1696.85,88.1394 1802.92,87.5414 1892.21,87.242 2001.22,87.0245 2103.69,86.9078 2267.85,86.8135 2293.12,86.805 
  "/>
<polyline clip-path="url(#clip902)" style="stroke:#3da44d; stroke-width:8; stroke-opacity:1; fill:none" points="
  305.211,1403.45 310.065,1403.45 314.918,1403.45 319.771,1403.45 324.625,1403.45 347.063,1403.45 369.501,1403.45 380.721,1403.45 391.94,1403.45 397.549,1403.45 
  403.159,1392.07 408.768,1372.88 414.378,1353.97 436.816,1281.05 459.255,1212.34 481.693,1147.57 504.131,1086.54 531.1,1017.8 558.069,953.796 585.038,894.189 
  612.007,838.68 657.611,753.359 703.214,677.72 752.753,605.247 802.291,541.662 847.962,489.972 893.632,444.156 942.595,400.803 991.558,362.708 1048.29,324.312 
  1105.02,291.258 1205.84,243.447 1294.26,210.815 1390.66,182.929 1487.63,161.198 1594.84,142.838 1696.85,129.591 1802.92,119.123 1892.21,112.322 2001.22,105.924 
  2103.69,101.377 2267.85,96.2292 2293.12,95.6171 
  "/>
<polyline clip-path="url(#clip902)" style="stroke:#c271d2; stroke-width:8; stroke-opacity:1; fill:none" points="
  305.211,1403.45 310.065,1403.45 314.918,1403.45 319.771,1403.45 324.625,1403.45 347.063,1403.45 369.501,1403.45 380.721,1403.45 391.94,1403.45 403.159,1397.75 
  414.378,1378.47 436.816,1340.76 459.255,1304.15 481.693,1268.61 504.131,1234.1 558.069,1155.22 612.007,1081.77 657.611,1023.62 703.214,968.867 802.291,860.69 
  893.632,772.752 991.558,689.54 1105.02,605.669 1205.84,540.981 1294.26,490.927 1390.66,442.618 1487.63,399.846 1594.84,358.514 1696.85,324.264 1802.92,293.221 
  1892.21,270.258 2001.22,245.655 2103.69,225.544 2267.85,198.493 2293.12,194.827 
  "/>
<polyline clip-path="url(#clip902)" style="stroke:#ac8d18; stroke-width:8; stroke-opacity:1; fill:none" points="
  305.211,1403.45 310.065,1403.45 314.918,1403.45 319.771,1403.45 324.625,1403.45 347.063,1403.45 369.501,1403.45 391.94,1403.45 414.378,1390.9 459.255,1352.83 
  504.131,1315.86 558.069,1272.86 612.007,1231.36 657.611,1197.41 703.214,1164.47 802.291,1096.23 893.632,1037.15 991.558,977.645 1105.02,913.346 1205.84,860.111 
  1294.26,816.257 1390.66,771.273 1487.63,728.82 1594.84,684.941 1696.85,645.978 1802.92,608.155 1892.21,578.306 2001.22,544.17 2103.69,514.246 2267.85,470.333 
  2293.12,463.987 
  "/>
<path clip-path="url(#clip900)" d="
M1876.16 1396.43 L2282.52 1396.43 L2282.52 1033.55 L1876.16 1033.55  Z
  " fill="#ffffff" fill-rule="evenodd" fill-opacity="1"/>
<polyline clip-path="url(#clip900)" style="stroke:#000000; stroke-width:4; stroke-opacity:1; fill:none" points="
  1876.16,1396.43 2282.52,1396.43 2282.52,1033.55 1876.16,1033.55 1876.16,1396.43 
  "/>
<polyline clip-path="url(#clip900)" style="stroke:#009af9; stroke-width:4; stroke-opacity:1; fill:none" points="
  1899.57,1094.03 2040.05,1094.03 
  "/>
<path clip-path="url(#clip900)" d="M 0 0 M2086.7 1083.38 Q2086.7 1085.02 2084.33 1085.02 L2076.28 1085.02 L2073.07 1101.44 Q2073 1101.86 2072.9 1102.09 Q2072.83 1102.33 2072.62 1102.73 Q2072.43 1103.1 2072.04 1103.29 Q2071.66 1103.5 2071.1 1103.5 Q2070.4 1103.5 2070.05 1103.08 Q2069.72 1102.68 2069.72 1102.19 Q2069.72 1101.88 2070.19 1100.43 L2074.89 1085.02 L2070.91 1085.02 Q2067.16 1085.02 2064.82 1088.72 Q2064.45 1089.21 2064.24 1089.26 Q2064.14 1089.28 2064.05 1089.28 Q2063.79 1089.28 2063.63 1089.16 Q2063.49 1089.05 2063.49 1088.93 L2063.46 1088.81 Q2063.46 1088.65 2063.84 1087.99 Q2064.24 1087.31 2064.94 1086.31 Q2065.67 1085.3 2066.39 1084.5 Q2067.35 1083.47 2068.43 1082.93 Q2069.51 1082.37 2070.05 1082.3 Q2070.61 1082.23 2071.33 1082.23 L2084.78 1082.23 Q2085.39 1082.23 2085.72 1082.28 Q2086.04 1082.3 2086.37 1082.58 Q2086.7 1082.84 2086.7 1083.38 Z" fill="#000000" fill-rule="evenodd" fill-opacity="1" /><path clip-path="url(#clip900)" d="M 0 0 M2091.58 1097.61 L2091.58 1096.56 Q2095.62 1096.56 2097.7 1094.42 Q2098.27 1094.42 2098.37 1094.55 Q2098.47 1094.68 2098.47 1095.29 L2098.47 1114.12 Q2098.47 1115.12 2098.96 1115.44 Q2099.45 1115.75 2101.6 1115.75 L2102.67 1115.75 L2102.67 1116.78 Q2101.49 1116.68 2097.22 1116.68 Q2092.96 1116.68 2091.8 1116.78 L2091.8 1115.75 L2092.86 1115.75 Q2094.98 1115.75 2095.49 1115.45 Q2095.99 1115.14 2095.99 1114.12 L2095.99 1096.73 Q2094.24 1097.61 2091.58 1097.61 Z" fill="#000000" fill-rule="evenodd" fill-opacity="1" /><path clip-path="url(#clip900)" d="M 0 0 M2120.98 1095.63 Q2121.03 1095.04 2121.94 1095.04 L2151.33 1095.04 Q2152.72 1095.04 2152.74 1095.58 Q2152.74 1096.17 2151.43 1096.14 L2122.27 1096.14 Q2120.98 1096.17 2120.98 1095.63 M2120.98 1086.26 Q2120.98 1085.67 2121.99 1085.7 L2151.29 1085.7 Q2152.72 1085.7 2152.74 1086.26 Q2152.74 1086.8 2151.52 1086.8 L2121.94 1086.8 Q2120.98 1086.8 2120.98 1086.26 Z" fill="#000000" fill-rule="evenodd" fill-opacity="1" /><path clip-path="url(#clip900)" d="M 0 0 M2171.23 1087.57 Q2171.23 1080.52 2173.01 1076.68 Q2175.49 1070.96 2181.35 1070.96 Q2182.59 1070.96 2183.88 1071.32 Q2185.19 1071.64 2186.83 1072.93 Q2188.49 1074.22 2189.5 1076.33 Q2191.42 1080.4 2191.42 1087.57 Q2191.42 1094.57 2189.64 1098.39 Q2187.04 1103.97 2181.3 1103.97 Q2179.15 1103.97 2176.95 1102.87 Q2174.77 1101.77 2173.39 1099.12 Q2171.23 1095.16 2171.23 1087.57 M2175.21 1086.99 Q2175.21 1094.22 2175.73 1097.1 Q2176.31 1100.22 2177.91 1101.58 Q2179.52 1102.91 2181.3 1102.91 Q2183.22 1102.91 2184.82 1101.48 Q2186.43 1100.03 2186.92 1096.92 Q2187.46 1093.85 2187.44 1086.99 Q2187.44 1080.31 2186.97 1077.64 Q2186.34 1074.53 2184.65 1073.28 Q2182.99 1072.02 2181.3 1072.02 Q2180.67 1072.02 2179.99 1072.21 Q2179.33 1072.39 2178.37 1072.93 Q2177.41 1073.47 2176.66 1074.81 Q2175.94 1076.14 2175.59 1078.16 Q2175.21 1080.76 2175.21 1086.99 Z" fill="#000000" fill-rule="evenodd" fill-opacity="1" /><path clip-path="url(#clip900)" d="M 0 0 M2195.71 1102.14 Q2194.98 1101.37 2194.98 1100.36 Q2194.98 1099.35 2195.71 1098.63 Q2196.43 1097.88 2197.53 1097.88 Q2198.59 1097.88 2199.29 1098.58 Q2200.02 1099.26 2200.02 1100.38 Q2200.02 1101.48 2199.24 1102.21 Q2198.49 1102.91 2197.53 1102.91 Q2196.43 1102.91 2195.71 1102.14 Z" fill="#000000" fill-rule="evenodd" fill-opacity="1" /><path clip-path="url(#clip900)" d="M 0 0 M2208.18 1095.18 Q2208.18 1093.75 2208.95 1093.22 Q2209.72 1092.65 2210.54 1092.65 Q2211.64 1092.65 2212.28 1093.36 Q2212.93 1094.04 2212.93 1095 Q2212.93 1095.96 2212.28 1096.66 Q2211.64 1097.34 2210.54 1097.34 Q2210 1097.34 2209.72 1097.24 Q2210.36 1099.45 2212.28 1101.04 Q2214.22 1102.63 2216.77 1102.63 Q2219.98 1102.63 2221.9 1099.52 Q2223.05 1097.5 2223.05 1092.94 Q2223.05 1088.91 2222.18 1086.89 Q2220.85 1083.82 2218.11 1083.82 Q2214.22 1083.82 2211.93 1087.17 Q2211.64 1087.59 2211.32 1087.62 Q2210.85 1087.62 2210.73 1087.36 Q2210.64 1087.08 2210.64 1086.35 L2210.64 1072.16 Q2210.64 1071.01 2211.11 1071.01 Q2211.29 1071.01 2211.69 1071.15 Q2214.71 1072.49 2218.06 1072.51 Q2221.51 1072.51 2224.6 1071.11 Q2224.83 1070.96 2224.97 1070.96 Q2225.44 1070.96 2225.46 1071.5 Q2225.46 1071.69 2225.07 1072.25 Q2224.69 1072.79 2223.87 1073.52 Q2223.05 1074.22 2222 1074.9 Q2220.94 1075.58 2219.4 1076.05 Q2217.87 1076.49 2216.19 1076.49 Q2214.17 1076.49 2212.11 1075.86 L2212.11 1085.21 Q2214.6 1082.77 2218.2 1082.77 Q2222.04 1082.77 2224.69 1085.86 Q2227.34 1088.95 2227.34 1093.26 Q2227.34 1097.78 2224.2 1100.88 Q2221.08 1103.97 2216.87 1103.97 Q2213.03 1103.97 2210.59 1101.23 Q2208.18 1098.49 2208.18 1095.18 Z" fill="#000000" fill-rule="evenodd" fill-opacity="1" /><polyline clip-path="url(#clip900)" style="stroke:#e26f46; stroke-width:4; stroke-opacity:1; fill:none" points="
  1899.57,1154.51 2040.05,1154.51 
  "/>
<path clip-path="url(#clip900)" d="M 0 0 M2086.7 1143.86 Q2086.7 1145.5 2084.33 1145.5 L2076.28 1145.5 L2073.07 1161.92 Q2073 1162.34 2072.9 1162.57 Q2072.83 1162.81 2072.62 1163.21 Q2072.43 1163.58 2072.04 1163.77 Q2071.66 1163.98 2071.1 1163.98 Q2070.4 1163.98 2070.05 1163.56 Q2069.72 1163.16 2069.72 1162.67 Q2069.72 1162.36 2070.19 1160.91 L2074.89 1145.5 L2070.91 1145.5 Q2067.16 1145.5 2064.82 1149.2 Q2064.45 1149.69 2064.24 1149.74 Q2064.14 1149.76 2064.05 1149.76 Q2063.79 1149.76 2063.63 1149.64 Q2063.49 1149.53 2063.49 1149.41 L2063.46 1149.29 Q2063.46 1149.13 2063.84 1148.47 Q2064.24 1147.79 2064.94 1146.79 Q2065.67 1145.78 2066.39 1144.98 Q2067.35 1143.95 2068.43 1143.41 Q2069.51 1142.85 2070.05 1142.78 Q2070.61 1142.71 2071.33 1142.71 L2084.78 1142.71 Q2085.39 1142.71 2085.72 1142.76 Q2086.04 1142.78 2086.37 1143.06 Q2086.7 1143.32 2086.7 1143.86 Z" fill="#000000" fill-rule="evenodd" fill-opacity="1" /><path clip-path="url(#clip900)" d="M 0 0 M2091.58 1177.26 Q2091.58 1176.65 2091.63 1176.47 Q2091.7 1176.29 2091.96 1176.01 L2098.4 1168.83 Q2101.93 1164.87 2101.93 1161.41 Q2101.93 1159.16 2100.75 1157.55 Q2099.59 1155.95 2097.44 1155.95 Q2095.96 1155.95 2094.72 1156.85 Q2093.47 1157.75 2092.9 1159.36 Q2092.99 1159.32 2093.34 1159.32 Q2094.17 1159.32 2094.63 1159.85 Q2095.11 1160.37 2095.11 1161.08 Q2095.11 1161.98 2094.52 1162.42 Q2093.94 1162.85 2093.37 1162.85 Q2093.14 1162.85 2092.83 1162.8 Q2092.53 1162.75 2092.06 1162.29 Q2091.58 1161.82 2091.58 1160.98 Q2091.58 1158.63 2093.35 1156.77 Q2095.14 1154.9 2097.86 1154.9 Q2100.95 1154.9 2102.96 1156.73 Q2105 1158.55 2105 1161.41 Q2105 1162.41 2104.68 1163.32 Q2104.39 1164.23 2103.98 1164.93 Q2103.59 1165.64 2102.5 1166.77 Q2101.42 1167.9 2100.55 1168.7 Q2099.68 1169.51 2097.73 1171.21 L2094.17 1174.67 L2100.22 1174.67 Q2103.18 1174.67 2103.41 1174.41 Q2103.73 1173.93 2104.14 1171.42 L2105 1171.42 L2104.04 1177.26 L2091.58 1177.26 Z" fill="#000000" fill-rule="evenodd" fill-opacity="1" /><path clip-path="url(#clip900)" d="M 0 0 M2123.29 1156.11 Q2123.33 1155.52 2124.25 1155.52 L2153.64 1155.52 Q2155.02 1155.52 2155.05 1156.06 Q2155.05 1156.65 2153.74 1156.62 L2124.58 1156.62 Q2123.29 1156.65 2123.29 1156.11 M2123.29 1146.74 Q2123.29 1146.15 2124.29 1146.18 L2153.6 1146.18 Q2155.02 1146.18 2155.05 1146.74 Q2155.05 1147.28 2153.83 1147.28 L2124.25 1147.28 Q2123.29 1147.28 2123.29 1146.74 Z" fill="#000000" fill-rule="evenodd" fill-opacity="1" /><path clip-path="url(#clip900)" d="M 0 0 M2173.54 1136.01 L2173.54 1134.51 Q2179.3 1134.51 2182.28 1131.44 Q2183.09 1131.44 2183.24 1131.63 Q2183.38 1131.82 2183.38 1132.69 L2183.38 1159.6 Q2183.38 1161.03 2184.08 1161.47 Q2184.78 1161.92 2187.85 1161.92 L2189.37 1161.92 L2189.37 1163.39 Q2187.69 1163.25 2181.6 1163.25 Q2175.51 1163.25 2173.84 1163.39 L2173.84 1161.92 L2175.37 1161.92 Q2178.39 1161.92 2179.11 1161.5 Q2179.84 1161.05 2179.84 1159.6 L2179.84 1134.75 Q2177.33 1136.01 2173.54 1136.01 Z" fill="#000000" fill-rule="evenodd" fill-opacity="1" /><path clip-path="url(#clip900)" d="M 0 0 M2193.14 1162.62 Q2192.41 1161.85 2192.41 1160.84 Q2192.41 1159.83 2193.14 1159.11 Q2193.87 1158.36 2194.97 1158.36 Q2196.02 1158.36 2196.72 1159.06 Q2197.45 1159.74 2197.45 1160.86 Q2197.45 1161.96 2196.68 1162.69 Q2195.93 1163.39 2194.97 1163.39 Q2193.87 1163.39 2193.14 1162.62 Z" fill="#000000" fill-rule="evenodd" fill-opacity="1" /><path clip-path="url(#clip900)" d="M 0 0 M2205.61 1148.05 Q2205.61 1141 2207.39 1137.16 Q2209.87 1131.44 2215.73 1131.44 Q2216.97 1131.44 2218.26 1131.8 Q2219.57 1132.12 2221.21 1133.41 Q2222.87 1134.7 2223.88 1136.81 Q2225.8 1140.88 2225.8 1148.05 Q2225.8 1155.05 2224.02 1158.87 Q2221.42 1164.45 2215.68 1164.45 Q2213.53 1164.45 2211.33 1163.35 Q2209.15 1162.25 2207.77 1159.6 Q2205.61 1155.64 2205.61 1148.05 M2209.59 1147.47 Q2209.59 1154.7 2210.11 1157.58 Q2210.69 1160.7 2212.29 1162.06 Q2213.9 1163.39 2215.68 1163.39 Q2217.6 1163.39 2219.2 1161.96 Q2220.81 1160.51 2221.3 1157.4 Q2221.84 1154.33 2221.82 1147.47 Q2221.82 1140.79 2221.35 1138.12 Q2220.72 1135.01 2219.03 1133.76 Q2217.37 1132.5 2215.68 1132.5 Q2215.05 1132.5 2214.37 1132.69 Q2213.71 1132.87 2212.75 1133.41 Q2211.79 1133.95 2211.04 1135.29 Q2210.32 1136.62 2209.97 1138.64 Q2209.59 1141.24 2209.59 1147.47 Z" fill="#000000" fill-rule="evenodd" fill-opacity="1" /><polyline clip-path="url(#clip900)" style="stroke:#3da44d; stroke-width:4; stroke-opacity:1; fill:none" points="
  1899.57,1214.99 2040.05,1214.99 
  "/>
<path clip-path="url(#clip900)" d="M 0 0 M2086.7 1203.97 Q2086.7 1205.61 2084.33 1205.61 L2076.28 1205.61 L2073.07 1222.03 Q2073 1222.45 2072.9 1222.69 Q2072.83 1222.92 2072.62 1223.32 Q2072.43 1223.69 2072.04 1223.88 Q2071.66 1224.09 2071.1 1224.09 Q2070.4 1224.09 2070.05 1223.67 Q2069.72 1223.27 2069.72 1222.78 Q2069.72 1222.48 2070.19 1221.02 L2074.89 1205.61 L2070.91 1205.61 Q2067.16 1205.61 2064.82 1209.31 Q2064.45 1209.8 2064.24 1209.85 Q2064.14 1209.87 2064.05 1209.87 Q2063.79 1209.87 2063.63 1209.76 Q2063.49 1209.64 2063.49 1209.52 L2063.46 1209.41 Q2063.46 1209.24 2063.84 1208.59 Q2064.24 1207.91 2064.94 1206.9 Q2065.67 1205.89 2066.39 1205.1 Q2067.35 1204.07 2068.43 1203.53 Q2069.51 1202.97 2070.05 1202.89 Q2070.61 1202.82 2071.33 1202.82 L2084.78 1202.82 Q2085.39 1202.82 2085.72 1202.87 Q2086.04 1202.89 2086.37 1203.18 Q2086.7 1203.43 2086.7 1203.97 Z" fill="#000000" fill-rule="evenodd" fill-opacity="1" /><path clip-path="url(#clip900)" d="M 0 0 M2091.58 1232.85 Q2091.58 1231.85 2092.16 1231.37 Q2092.73 1230.9 2093.47 1230.9 Q2094.24 1230.9 2094.78 1231.41 Q2095.34 1231.9 2095.34 1232.77 Q2095.34 1233.7 2094.68 1234.23 Q2094.04 1234.75 2093.13 1234.62 Q2093.93 1235.96 2095.4 1236.57 Q2096.9 1237.18 2098.27 1237.18 Q2099.72 1237.18 2100.88 1235.93 Q2102.06 1234.68 2102.06 1231.64 Q2102.06 1229.04 2101.04 1227.55 Q2100.04 1226.06 2098.06 1226.06 L2096.58 1226.06 Q2096.08 1226.06 2095.93 1226.01 Q2095.78 1225.96 2095.78 1225.68 Q2095.78 1225.36 2096.29 1225.29 Q2096.8 1225.29 2097.6 1225.19 Q2099.55 1225.13 2100.59 1223.44 Q2101.52 1221.86 2101.52 1219.62 Q2101.52 1217.57 2100.54 1216.72 Q2099.57 1215.85 2098.31 1215.85 Q2097.13 1215.85 2095.83 1216.34 Q2094.54 1216.83 2093.83 1217.93 Q2095.91 1217.93 2095.91 1219.62 Q2095.91 1220.36 2095.44 1220.85 Q2094.98 1221.32 2094.21 1221.32 Q2093.47 1221.32 2092.98 1220.86 Q2092.49 1220.39 2092.49 1219.58 Q2092.49 1217.67 2094.19 1216.34 Q2095.91 1215.01 2098.44 1215.01 Q2100.93 1215.01 2102.77 1216.32 Q2104.62 1217.63 2104.62 1219.65 Q2104.62 1221.63 2103.31 1223.26 Q2102 1224.88 2099.91 1225.55 Q2102.47 1226.06 2104 1227.8 Q2105.52 1229.52 2105.52 1231.64 Q2105.52 1234.26 2103.45 1236.19 Q2101.39 1238.11 2098.37 1238.11 Q2095.58 1238.11 2093.58 1236.6 Q2091.58 1235.09 2091.58 1232.85 Z" fill="#000000" fill-rule="evenodd" fill-opacity="1" /><path clip-path="url(#clip900)" d="M 0 0 M2123.8 1216.22 Q2123.85 1215.64 2124.76 1215.64 L2154.16 1215.64 Q2155.54 1215.64 2155.56 1216.18 Q2155.56 1216.76 2154.25 1216.74 L2125.09 1216.74 Q2123.8 1216.76 2123.8 1216.22 M2123.8 1206.85 Q2123.8 1206.27 2124.81 1206.29 L2154.11 1206.29 Q2155.54 1206.29 2155.56 1206.85 Q2155.56 1207.39 2154.34 1207.39 L2124.76 1207.39 Q2123.8 1207.39 2123.8 1206.85 Z" fill="#000000" fill-rule="evenodd" fill-opacity="1" /><path clip-path="url(#clip900)" d="M 0 0 M2174.05 1223.51 Q2174.05 1222.64 2174.12 1222.38 Q2174.22 1222.12 2174.59 1221.73 L2183.8 1211.47 Q2188.83 1205.8 2188.83 1200.86 Q2188.83 1197.65 2187.15 1195.35 Q2185.48 1193.06 2182.41 1193.06 Q2180.31 1193.06 2178.53 1194.35 Q2176.75 1195.63 2175.93 1197.93 Q2176.07 1197.88 2176.56 1197.88 Q2177.75 1197.88 2178.41 1198.63 Q2179.09 1199.38 2179.09 1200.39 Q2179.09 1201.68 2178.25 1202.31 Q2177.43 1202.92 2176.61 1202.92 Q2176.28 1202.92 2175.83 1202.85 Q2175.41 1202.78 2174.73 1202.12 Q2174.05 1201.44 2174.05 1200.25 Q2174.05 1196.9 2176.58 1194.23 Q2179.14 1191.56 2183.02 1191.56 Q2187.43 1191.56 2190.31 1194.18 Q2193.21 1196.78 2193.21 1200.86 Q2193.21 1202.29 2192.77 1203.6 Q2192.35 1204.89 2191.76 1205.89 Q2191.2 1206.9 2189.65 1208.52 Q2188.11 1210.13 2186.86 1211.28 Q2185.62 1212.43 2182.84 1214.86 L2177.75 1219.81 L2186.4 1219.81 Q2190.61 1219.81 2190.94 1219.43 Q2191.41 1218.75 2191.99 1215.17 L2193.21 1215.17 L2191.85 1223.51 L2174.05 1223.51 Z" fill="#000000" fill-rule="evenodd" fill-opacity="1" /><path clip-path="url(#clip900)" d="M 0 0 M2198.53 1222.73 Q2197.8 1221.96 2197.8 1220.95 Q2197.8 1219.95 2198.53 1219.22 Q2199.25 1218.47 2200.36 1218.47 Q2201.41 1218.47 2202.11 1219.17 Q2202.84 1219.85 2202.84 1220.98 Q2202.84 1222.08 2202.07 1222.8 Q2201.32 1223.51 2200.36 1223.51 Q2199.25 1223.51 2198.53 1222.73 Z" fill="#000000" fill-rule="evenodd" fill-opacity="1" /><path clip-path="url(#clip900)" d="M 0 0 M2211 1208.16 Q2211 1201.11 2212.78 1197.27 Q2215.26 1191.56 2221.12 1191.56 Q2222.36 1191.56 2223.65 1191.91 Q2224.96 1192.24 2226.6 1193.53 Q2228.26 1194.81 2229.27 1196.92 Q2231.19 1201 2231.19 1208.16 Q2231.19 1215.17 2229.41 1218.99 Q2226.81 1224.56 2221.07 1224.56 Q2218.92 1224.56 2216.71 1223.46 Q2214.54 1222.36 2213.15 1219.71 Q2211 1215.75 2211 1208.16 M2214.98 1207.58 Q2214.98 1214.82 2215.5 1217.7 Q2216.08 1220.81 2217.68 1222.17 Q2219.29 1223.51 2221.07 1223.51 Q2222.99 1223.51 2224.58 1222.08 Q2226.2 1220.63 2226.69 1217.51 Q2227.23 1214.44 2227.21 1207.58 Q2227.21 1200.9 2226.74 1198.23 Q2226.11 1195.12 2224.42 1193.88 Q2222.76 1192.61 2221.07 1192.61 Q2220.44 1192.61 2219.76 1192.8 Q2219.1 1192.99 2218.14 1193.53 Q2217.18 1194.06 2216.43 1195.4 Q2215.71 1196.73 2215.36 1198.75 Q2214.98 1201.35 2214.98 1207.58 Z" fill="#000000" fill-rule="evenodd" fill-opacity="1" /><polyline clip-path="url(#clip900)" style="stroke:#c271d2; stroke-width:4; stroke-opacity:1; fill:none" points="
  1899.57,1275.47 2040.05,1275.47 
  "/>
<path clip-path="url(#clip900)" d="M 0 0 M2086.7 1264.97 Q2086.7 1266.61 2084.33 1266.61 L2076.28 1266.61 L2073.07 1283.03 Q2073 1283.45 2072.9 1283.69 Q2072.83 1283.92 2072.62 1284.32 Q2072.43 1284.69 2072.04 1284.88 Q2071.66 1285.09 2071.1 1285.09 Q2070.4 1285.09 2070.05 1284.67 Q2069.72 1284.27 2069.72 1283.78 Q2069.72 1283.48 2070.19 1282.02 L2074.89 1266.61 L2070.91 1266.61 Q2067.16 1266.61 2064.82 1270.31 Q2064.45 1270.8 2064.24 1270.85 Q2064.14 1270.88 2064.05 1270.88 Q2063.79 1270.88 2063.63 1270.76 Q2063.49 1270.64 2063.49 1270.52 L2063.46 1270.41 Q2063.46 1270.24 2063.84 1269.59 Q2064.24 1268.91 2064.94 1267.9 Q2065.67 1266.89 2066.39 1266.1 Q2067.35 1265.07 2068.43 1264.53 Q2069.51 1263.97 2070.05 1263.9 Q2070.61 1263.83 2071.33 1263.83 L2084.78 1263.83 Q2085.39 1263.83 2085.72 1263.87 Q2086.04 1263.9 2086.37 1264.18 Q2086.7 1264.43 2086.7 1264.97 Z" fill="#000000" fill-rule="evenodd" fill-opacity="1" /><path clip-path="url(#clip900)" d="M 0 0 M2091.58 1293.06 L2091.58 1292.02 L2101.9 1276.27 Q2102.16 1275.86 2102.57 1275.87 Q2102.95 1275.87 2103.03 1276.02 Q2103.11 1276.17 2103.11 1276.74 L2103.11 1292.02 L2106.47 1292.02 L2106.47 1293.06 L2103.11 1293.06 L2103.11 1295.97 Q2103.11 1296.94 2103.5 1297.25 Q2103.91 1297.56 2105.65 1297.56 L2106.36 1297.56 L2106.36 1298.6 Q2104.98 1298.5 2101.8 1298.5 Q2098.63 1298.5 2097.26 1298.6 L2097.26 1297.56 L2097.96 1297.56 Q2099.7 1297.56 2100.11 1297.27 Q2100.52 1296.96 2100.52 1295.97 L2100.52 1293.06 L2091.58 1293.06 M2092.53 1292.02 L2100.72 1292.02 L2100.72 1279.5 L2092.53 1292.02 Z" fill="#000000" fill-rule="evenodd" fill-opacity="1" /><path clip-path="url(#clip900)" d="M 0 0 M2124.74 1277.22 Q2124.79 1276.64 2125.7 1276.64 L2155.1 1276.64 Q2156.48 1276.64 2156.5 1277.18 Q2156.5 1277.76 2155.19 1277.74 L2126.03 1277.74 Q2124.74 1277.76 2124.74 1277.22 M2124.74 1267.85 Q2124.74 1267.27 2125.75 1267.29 L2155.05 1267.29 Q2156.48 1267.29 2156.5 1267.85 Q2156.5 1268.39 2155.28 1268.39 L2125.7 1268.39 Q2124.74 1268.39 2124.74 1267.85 Z" fill="#000000" fill-rule="evenodd" fill-opacity="1" /><path clip-path="url(#clip900)" d="M 0 0 M2174.99 1276.59 L2174.99 1275.11 L2189.73 1252.61 Q2190.1 1252.02 2190.69 1252.04 Q2191.22 1252.04 2191.34 1252.25 Q2191.46 1252.47 2191.46 1253.28 L2191.46 1275.11 L2196.26 1275.11 L2196.26 1276.59 L2191.46 1276.59 L2191.46 1280.76 Q2191.46 1282.14 2192.02 1282.59 Q2192.61 1283.03 2195.09 1283.03 L2196.1 1283.03 L2196.1 1284.51 Q2194.13 1284.37 2189.59 1284.37 Q2185.06 1284.37 2183.1 1284.51 L2183.1 1283.03 L2184.1 1283.03 Q2186.59 1283.03 2187.17 1282.61 Q2187.76 1282.16 2187.76 1280.76 L2187.76 1276.59 L2174.99 1276.59 M2176.35 1275.11 L2188.04 1275.11 L2188.04 1257.22 L2176.35 1275.11 Z" fill="#000000" fill-rule="evenodd" fill-opacity="1" /><path clip-path="url(#clip900)" d="M 0 0 M2199.47 1283.73 Q2198.74 1282.96 2198.74 1281.95 Q2198.74 1280.95 2199.47 1280.22 Q2200.2 1279.47 2201.3 1279.47 Q2202.35 1279.47 2203.05 1280.17 Q2203.78 1280.85 2203.78 1281.98 Q2203.78 1283.08 2203.01 1283.8 Q2202.26 1284.51 2201.3 1284.51 Q2200.2 1284.51 2199.47 1283.73 Z" fill="#000000" fill-rule="evenodd" fill-opacity="1" /><path clip-path="url(#clip900)" d="M 0 0 M2211.94 1269.17 Q2211.94 1262.12 2213.72 1258.27 Q2216.2 1252.56 2222.06 1252.56 Q2223.3 1252.56 2224.59 1252.91 Q2225.9 1253.24 2227.54 1254.53 Q2229.2 1255.81 2230.21 1257.92 Q2232.13 1262 2232.13 1269.17 Q2232.13 1276.17 2230.35 1279.99 Q2227.75 1285.56 2222.01 1285.56 Q2219.86 1285.56 2217.66 1284.46 Q2215.48 1283.36 2214.1 1280.71 Q2211.94 1276.75 2211.94 1269.17 M2215.92 1268.58 Q2215.92 1275.82 2216.44 1278.7 Q2217.02 1281.81 2218.62 1283.17 Q2220.23 1284.51 2222.01 1284.51 Q2223.93 1284.51 2225.53 1283.08 Q2227.14 1281.63 2227.63 1278.51 Q2228.17 1275.44 2228.15 1268.58 Q2228.15 1261.9 2227.68 1259.23 Q2227.05 1256.12 2225.36 1254.88 Q2223.7 1253.61 2222.01 1253.61 Q2221.38 1253.61 2220.7 1253.8 Q2220.04 1253.99 2219.08 1254.53 Q2218.12 1255.07 2217.37 1256.4 Q2216.65 1257.74 2216.3 1259.75 Q2215.92 1262.35 2215.92 1268.58 Z" fill="#000000" fill-rule="evenodd" fill-opacity="1" /><polyline clip-path="url(#clip900)" style="stroke:#ac8d18; stroke-width:4; stroke-opacity:1; fill:none" points="
  1899.57,1335.95 2040.05,1335.95 
  "/>
<path clip-path="url(#clip900)" d="M 0 0 M2086.7 1324.93 Q2086.7 1326.57 2084.33 1326.57 L2076.28 1326.57 L2073.07 1342.99 Q2073 1343.41 2072.9 1343.65 Q2072.83 1343.88 2072.62 1344.28 Q2072.43 1344.65 2072.04 1344.84 Q2071.66 1345.05 2071.1 1345.05 Q2070.4 1345.05 2070.05 1344.63 Q2069.72 1344.23 2069.72 1343.74 Q2069.72 1343.44 2070.19 1341.98 L2074.89 1326.57 L2070.91 1326.57 Q2067.16 1326.57 2064.82 1330.27 Q2064.45 1330.76 2064.24 1330.81 Q2064.14 1330.83 2064.05 1330.83 Q2063.79 1330.83 2063.63 1330.72 Q2063.49 1330.6 2063.49 1330.48 L2063.46 1330.37 Q2063.46 1330.2 2063.84 1329.55 Q2064.24 1328.87 2064.94 1327.86 Q2065.67 1326.85 2066.39 1326.06 Q2067.35 1325.03 2068.43 1324.49 Q2069.51 1323.93 2070.05 1323.85 Q2070.61 1323.78 2071.33 1323.78 L2084.78 1323.78 Q2085.39 1323.78 2085.72 1323.83 Q2086.04 1323.85 2086.37 1324.14 Q2086.7 1324.39 2086.7 1324.93 Z" fill="#000000" fill-rule="evenodd" fill-opacity="1" /><path clip-path="url(#clip900)" d="M 0 0 M2091.58 1352.92 Q2091.58 1351.92 2092.13 1351.55 Q2092.67 1351.15 2093.24 1351.15 Q2094.01 1351.15 2094.45 1351.64 Q2094.91 1352.12 2094.91 1352.79 Q2094.91 1353.46 2094.45 1353.96 Q2094.01 1354.43 2093.24 1354.43 Q2092.86 1354.43 2092.67 1354.37 Q2093.11 1355.91 2094.45 1357.02 Q2095.81 1358.14 2097.6 1358.14 Q2099.85 1358.14 2101.19 1355.96 Q2102 1354.55 2102 1351.35 Q2102 1348.53 2101.39 1347.12 Q2100.45 1344.97 2098.54 1344.97 Q2095.81 1344.97 2094.21 1347.32 Q2094.01 1347.61 2093.78 1347.63 Q2093.45 1347.63 2093.37 1347.45 Q2093.31 1347.25 2093.31 1346.74 L2093.31 1336.81 Q2093.31 1336 2093.63 1336 Q2093.76 1336 2094.04 1336.1 Q2096.16 1337.04 2098.5 1337.05 Q2100.91 1337.05 2103.08 1336.07 Q2103.24 1335.97 2103.34 1335.97 Q2103.67 1335.97 2103.68 1336.35 Q2103.68 1336.48 2103.41 1336.87 Q2103.14 1337.25 2102.57 1337.76 Q2102 1338.25 2101.26 1338.72 Q2100.52 1339.2 2099.44 1339.53 Q2098.37 1339.84 2097.19 1339.84 Q2095.78 1339.84 2094.34 1339.4 L2094.34 1345.94 Q2096.08 1344.23 2098.6 1344.23 Q2101.29 1344.23 2103.14 1346.4 Q2105 1348.56 2105 1351.58 Q2105 1354.74 2102.8 1356.91 Q2100.62 1359.07 2097.67 1359.07 Q2094.98 1359.07 2093.27 1357.15 Q2091.58 1355.24 2091.58 1352.92 Z" fill="#000000" fill-rule="evenodd" fill-opacity="1" /><path clip-path="url(#clip900)" d="M 0 0 M2123.29 1337.18 Q2123.33 1336.6 2124.25 1336.6 L2153.64 1336.6 Q2155.02 1336.6 2155.05 1337.14 Q2155.05 1337.72 2153.74 1337.7 L2124.58 1337.7 Q2123.29 1337.72 2123.29 1337.18 M2123.29 1327.81 Q2123.29 1327.23 2124.29 1327.25 L2153.6 1327.25 Q2155.02 1327.25 2155.05 1327.81 Q2155.05 1328.35 2153.83 1328.35 L2124.25 1328.35 Q2123.29 1328.35 2123.29 1327.81 Z" fill="#000000" fill-rule="evenodd" fill-opacity="1" /><path clip-path="url(#clip900)" d="M 0 0 M2173.54 1337.23 Q2173.54 1331.87 2180.45 1328.4 Q2177.47 1326.38 2176.93 1325.8 Q2174.83 1323.46 2174.83 1320.53 Q2174.83 1317.18 2177.36 1314.86 Q2179.91 1312.52 2183.52 1312.52 Q2186.96 1312.52 2189.56 1314.51 Q2192.16 1316.5 2192.16 1319.66 Q2192.16 1324.11 2186.35 1327.11 Q2190.19 1329.5 2191.11 1330.51 Q2193.45 1333.11 2193.45 1336.41 Q2193.45 1340.25 2190.5 1342.9 Q2187.55 1345.52 2183.47 1345.52 Q2179.49 1345.52 2176.51 1343.2 Q2173.54 1340.88 2173.54 1337.23 M2175.93 1337.23 Q2175.93 1340.2 2178.15 1342.19 Q2180.4 1344.19 2183.52 1344.19 Q2186.54 1344.19 2188.79 1342.45 Q2191.06 1340.72 2191.06 1338.14 Q2191.06 1337.14 2190.71 1336.27 Q2190.38 1335.4 2189.7 1334.72 Q2189.04 1334.02 2188.62 1333.72 Q2188.22 1333.39 2187.45 1332.85 L2181.55 1329.12 Q2175.93 1332.24 2175.93 1337.23 M2176.93 1318.66 Q2176.93 1320.95 2179.35 1322.54 L2185.3 1326.38 Q2190.05 1323.6 2190.05 1319.66 Q2190.05 1317.11 2188.11 1315.42 Q2186.16 1313.71 2183.47 1313.71 Q2180.82 1313.71 2178.88 1315.12 Q2176.93 1316.5 2176.93 1318.66 Z" fill="#000000" fill-rule="evenodd" fill-opacity="1" /><path clip-path="url(#clip900)" d="M 0 0 M2198.01 1343.69 Q2197.29 1342.92 2197.29 1341.91 Q2197.29 1340.91 2198.01 1340.18 Q2198.74 1339.43 2199.84 1339.43 Q2200.9 1339.43 2201.6 1340.13 Q2202.32 1340.81 2202.32 1341.94 Q2202.32 1343.04 2201.55 1343.76 Q2200.8 1344.47 2199.84 1344.47 Q2198.74 1344.47 2198.01 1343.69 Z" fill="#000000" fill-rule="evenodd" fill-opacity="1" /><path clip-path="url(#clip900)" d="M 0 0 M2210.49 1329.12 Q2210.49 1322.07 2212.27 1318.23 Q2214.75 1312.52 2220.6 1312.52 Q2221.85 1312.52 2223.13 1312.87 Q2224.45 1313.2 2226.08 1314.49 Q2227.75 1315.77 2228.76 1317.88 Q2230.68 1321.96 2230.68 1329.12 Q2230.68 1336.13 2228.9 1339.95 Q2226.3 1345.52 2220.56 1345.52 Q2218.4 1345.52 2216.2 1344.42 Q2214.02 1343.32 2212.64 1340.67 Q2210.49 1336.71 2210.49 1329.12 M2214.47 1328.54 Q2214.47 1335.78 2214.98 1338.66 Q2215.57 1341.77 2217.16 1343.13 Q2218.78 1344.47 2220.56 1344.47 Q2222.48 1344.47 2224.07 1343.04 Q2225.69 1341.59 2226.18 1338.47 Q2226.72 1335.4 2226.69 1328.54 Q2226.69 1321.86 2226.23 1319.19 Q2225.59 1316.08 2223.91 1314.84 Q2222.24 1313.57 2220.56 1313.57 Q2219.92 1313.57 2219.25 1313.76 Q2218.59 1313.95 2217.63 1314.49 Q2216.67 1315.02 2215.92 1316.36 Q2215.19 1317.69 2214.84 1319.71 Q2214.47 1322.31 2214.47 1328.54 Z" fill="#000000" fill-rule="evenodd" fill-opacity="1" /></svg>
