<?xml version="1.0" encoding="utf-8"?>
<svg xmlns="http://www.w3.org/2000/svg" xmlns:xlink="http://www.w3.org/1999/xlink" width="600" height="400" viewBox="0 0 2400 1600">
<defs>
  <clipPath id="clip820">
    <rect x="0" y="0" width="2400" height="1600"/>
  </clipPath>
</defs>
<path clip-path="url(#clip820)" d="
M0 1600 L2400 1600 L2400 0 L0 0  Z
  " fill="#ffffff" fill-rule="evenodd" fill-opacity="1"/>
<defs>
  <clipPath id="clip821">
    <rect x="480" y="0" width="1681" height="1600"/>
  </clipPath>
</defs>
<path clip-path="url(#clip820)" d="
M110.881 1442.95 L2352.76 1442.95 L2352.76 47.2441 L110.881 47.2441  Z
  " fill="#ffffff" fill-rule="evenodd" fill-opacity="1"/>
<defs>
  <clipPath id="clip822">
    <rect x="110" y="47" width="2243" height="1397"/>
  </clipPath>
</defs>
<polyline clip-path="url(#clip822)" style="stroke:#000000; stroke-width:2; stroke-opacity:0.1; fill:none" points="
  174.33,1442.95 174.33,47.2441 
  "/>
<polyline clip-path="url(#clip822)" style="stroke:#000000; stroke-width:2; stroke-opacity:0.1; fill:none" points="
  879.322,1442.95 879.322,47.2441 
  "/>
<polyline clip-path="url(#clip822)" style="stroke:#000000; stroke-width:2; stroke-opacity:0.1; fill:none" points="
  1584.31,1442.95 1584.31,47.2441 
  "/>
<polyline clip-path="url(#clip822)" style="stroke:#000000; stroke-width:2; stroke-opacity:0.1; fill:none" points="
  2289.31,1442.95 2289.31,47.2441 
  "/>
<polyline clip-path="url(#clip820)" style="stroke:#000000; stroke-width:4; stroke-opacity:1; fill:none" points="
  110.881,1442.95 2352.76,1442.95 
  "/>
<polyline clip-path="url(#clip820)" style="stroke:#000000; stroke-width:4; stroke-opacity:1; fill:none" points="
  174.33,1442.95 174.33,1426.2 
  "/>
<polyline clip-path="url(#clip820)" style="stroke:#000000; stroke-width:4; stroke-opacity:1; fill:none" points="
  879.322,1442.95 879.322,1426.2 
  "/>
<polyline clip-path="url(#clip820)" style="stroke:#000000; stroke-width:4; stroke-opacity:1; fill:none" points="
  1584.31,1442.95 1584.31,1426.2 
  "/>
<polyline clip-path="url(#clip820)" style="stroke:#000000; stroke-width:4; stroke-opacity:1; fill:none" points="
  2289.31,1442.95 2289.31,1426.2 
  "/>
<path clip-path="url(#clip820)" d="M 0 0 M174.33 1472.14 Q170.719 1472.14 168.89 1475.71 Q167.085 1479.25 167.085 1486.38 Q167.085 1493.48 168.89 1497.05 Q170.719 1500.59 174.33 1500.59 Q177.964 1500.59 179.77 1497.05 Q181.599 1493.48 181.599 1486.38 Q181.599 1479.25 179.77 1475.71 Q177.964 1472.14 174.33 1472.14 M174.33 1468.44 Q180.14 1468.44 183.196 1473.04 Q186.275 1477.63 186.275 1486.38 Q186.275 1495.1 183.196 1499.71 Q180.14 1504.29 174.33 1504.29 Q168.52 1504.29 165.441 1499.71 Q162.386 1495.1 162.386 1486.38 Q162.386 1477.63 165.441 1473.04 Q168.52 1468.44 174.33 1468.44 Z" fill="#000000" fill-rule="evenodd" fill-opacity="1" /><path clip-path="url(#clip820)" d="M 0 0 M869.704 1499.69 L877.343 1499.69 L877.343 1473.32 L869.033 1474.99 L869.033 1470.73 L877.297 1469.06 L881.973 1469.06 L881.973 1499.69 L889.612 1499.69 L889.612 1503.62 L869.704 1503.62 L869.704 1499.69 Z" fill="#000000" fill-rule="evenodd" fill-opacity="1" /><path clip-path="url(#clip820)" d="M 0 0 M1578.97 1499.69 L1595.29 1499.69 L1595.29 1503.62 L1573.34 1503.62 L1573.34 1499.69 Q1576 1496.93 1580.59 1492.3 Q1585.19 1487.65 1586.37 1486.31 Q1588.62 1483.78 1589.5 1482.05 Q1590.4 1480.29 1590.4 1478.6 Q1590.4 1475.84 1588.46 1474.11 Q1586.54 1472.37 1583.43 1472.37 Q1581.24 1472.37 1578.78 1473.14 Q1576.35 1473.9 1573.57 1475.45 L1573.57 1470.73 Q1576.4 1469.59 1578.85 1469.02 Q1581.31 1468.44 1583.34 1468.44 Q1588.71 1468.44 1591.91 1471.12 Q1595.1 1473.81 1595.1 1478.3 Q1595.1 1480.43 1594.29 1482.35 Q1593.5 1484.25 1591.4 1486.84 Q1590.82 1487.51 1587.72 1490.73 Q1584.62 1493.92 1578.97 1499.69 Z" fill="#000000" fill-rule="evenodd" fill-opacity="1" /><path clip-path="url(#clip820)" d="M 0 0 M2293.55 1484.99 Q2296.91 1485.71 2298.79 1487.97 Q2300.68 1490.24 2300.68 1493.58 Q2300.68 1498.69 2297.17 1501.49 Q2293.65 1504.29 2287.17 1504.29 Q2284.99 1504.29 2282.67 1503.85 Q2280.38 1503.44 2277.93 1502.58 L2277.93 1498.07 Q2279.87 1499.2 2282.19 1499.78 Q2284.5 1500.36 2287.03 1500.36 Q2291.42 1500.36 2293.72 1498.62 Q2296.03 1496.89 2296.03 1493.58 Q2296.03 1490.52 2293.88 1488.81 Q2291.75 1487.07 2287.93 1487.07 L2283.9 1487.07 L2283.9 1483.23 L2288.11 1483.23 Q2291.56 1483.23 2293.39 1481.86 Q2295.22 1480.47 2295.22 1477.88 Q2295.22 1475.22 2293.32 1473.81 Q2291.45 1472.37 2287.93 1472.37 Q2286.01 1472.37 2283.81 1472.79 Q2281.61 1473.21 2278.97 1474.08 L2278.97 1469.92 Q2281.63 1469.18 2283.95 1468.81 Q2286.29 1468.44 2288.35 1468.44 Q2293.67 1468.44 2296.77 1470.87 Q2299.87 1473.27 2299.87 1477.4 Q2299.87 1480.27 2298.23 1482.26 Q2296.59 1484.22 2293.55 1484.99 Z" fill="#000000" fill-rule="evenodd" fill-opacity="1" /><path clip-path="url(#clip820)" d="M 0 0 M1240.29 1539.82 Q1240.29 1540.72 1239.87 1540.95 Q1239.45 1541.14 1238.29 1541.14 L1232.11 1541.14 L1227.21 1560.59 Q1226.83 1562.3 1226.83 1563.75 Q1226.83 1565.36 1227.31 1566.07 Q1227.83 1566.78 1228.89 1566.78 Q1230.98 1566.78 1233.24 1564.88 Q1235.52 1562.98 1237.46 1558.34 Q1237.71 1557.73 1237.84 1557.6 Q1238 1557.44 1238.42 1557.44 Q1239.23 1557.44 1239.23 1558.08 Q1239.23 1558.31 1238.78 1559.34 Q1238.36 1560.37 1237.42 1561.88 Q1236.52 1563.4 1235.33 1564.81 Q1234.17 1566.23 1232.4 1567.26 Q1230.63 1568.26 1228.73 1568.26 Q1226.05 1568.26 1224.35 1566.55 Q1222.67 1564.84 1222.67 1562.17 Q1222.67 1561.3 1223.35 1558.53 Q1224.03 1555.73 1227.7 1541.14 L1221.87 1541.14 Q1221.06 1541.14 1220.74 1541.11 Q1220.45 1541.08 1220.23 1540.92 Q1220.03 1540.72 1220.03 1540.34 Q1220.03 1539.72 1220.29 1539.47 Q1220.55 1539.18 1220.87 1539.14 Q1221.22 1539.08 1222.03 1539.08 L1228.21 1539.08 L1230.79 1528.61 Q1231.05 1527.58 1231.69 1527 Q1232.37 1526.39 1232.75 1526.33 Q1233.14 1526.23 1233.43 1526.23 Q1234.3 1526.23 1234.81 1526.71 Q1235.33 1527.16 1235.33 1528 Q1235.33 1528.45 1232.62 1539.08 L1238.42 1539.08 Q1239.16 1539.08 1239.45 1539.11 Q1239.77 1539.14 1240.03 1539.31 Q1240.29 1539.47 1240.29 1539.82 Z" fill="#000000" fill-rule="evenodd" fill-opacity="1" /><polyline clip-path="url(#clip822)" style="stroke:#000000; stroke-width:2; stroke-opacity:0.1; fill:none" points="
  110.881,1403.45 2352.76,1403.45 
  "/>
<polyline clip-path="url(#clip822)" style="stroke:#000000; stroke-width:2; stroke-opacity:0.1; fill:none" points="
  110.881,964.548 2352.76,964.548 
  "/>
<polyline clip-path="url(#clip822)" style="stroke:#000000; stroke-width:2; stroke-opacity:0.1; fill:none" points="
  110.881,525.646 2352.76,525.646 
  "/>
<polyline clip-path="url(#clip822)" style="stroke:#000000; stroke-width:2; stroke-opacity:0.1; fill:none" points="
  110.881,86.7452 2352.76,86.7452 
  "/>
<polyline clip-path="url(#clip820)" style="stroke:#000000; stroke-width:4; stroke-opacity:1; fill:none" points="
  110.881,1442.95 110.881,47.2441 
  "/>
<polyline clip-path="url(#clip820)" style="stroke:#000000; stroke-width:4; stroke-opacity:1; fill:none" points="
  110.881,1403.45 137.783,1403.45 
  "/>
<polyline clip-path="url(#clip820)" style="stroke:#000000; stroke-width:4; stroke-opacity:1; fill:none" points="
  110.881,964.548 137.783,964.548 
  "/>
<polyline clip-path="url(#clip820)" style="stroke:#000000; stroke-width:4; stroke-opacity:1; fill:none" points="
  110.881,525.646 137.783,525.646 
  "/>
<polyline clip-path="url(#clip820)" style="stroke:#000000; stroke-width:4; stroke-opacity:1; fill:none" points="
  110.881,86.7452 137.783,86.7452 
  "/>
<path clip-path="url(#clip820)" d="M 0 0 M62.9365 1389.25 Q59.3254 1389.25 57.4967 1392.81 Q55.6912 1396.35 55.6912 1403.48 Q55.6912 1410.59 57.4967 1414.15 Q59.3254 1417.7 62.9365 1417.7 Q66.5707 1417.7 68.3763 1414.15 Q70.205 1410.59 70.205 1403.48 Q70.205 1396.35 68.3763 1392.81 Q66.5707 1389.25 62.9365 1389.25 M62.9365 1385.54 Q68.7467 1385.54 71.8022 1390.15 Q74.8809 1394.73 74.8809 1403.48 Q74.8809 1412.21 71.8022 1416.82 Q68.7467 1421.4 62.9365 1421.4 Q57.1264 1421.4 54.0477 1416.82 Q50.9921 1412.21 50.9921 1403.48 Q50.9921 1394.73 54.0477 1390.15 Q57.1264 1385.54 62.9365 1385.54 Z" fill="#000000" fill-rule="evenodd" fill-opacity="1" /><path clip-path="url(#clip820)" d="M 0 0 M54.9736 977.892 L62.6124 977.892 L62.6124 951.527 L54.3023 953.193 L54.3023 948.934 L62.5661 947.268 L67.242 947.268 L67.242 977.892 L74.8809 977.892 L74.8809 981.828 L54.9736 981.828 L54.9736 977.892 Z" fill="#000000" fill-rule="evenodd" fill-opacity="1" /><path clip-path="url(#clip820)" d="M 0 0 M58.5615 538.991 L74.8809 538.991 L74.8809 542.926 L52.9366 542.926 L52.9366 538.991 Q55.5986 536.237 60.1819 531.607 Q64.7883 526.954 65.9689 525.612 Q68.2143 523.089 69.0939 521.352 Q69.9967 519.593 69.9967 517.903 Q69.9967 515.149 68.0522 513.413 Q66.1309 511.677 63.0291 511.677 Q60.83 511.677 58.3763 512.44 Q55.9458 513.204 53.168 514.755 L53.168 510.033 Q55.9921 508.899 58.4458 508.32 Q60.8995 507.741 62.9365 507.741 Q68.3068 507.741 71.5013 510.427 Q74.6957 513.112 74.6957 517.602 Q74.6957 519.732 73.8855 521.653 Q73.0985 523.551 70.992 526.144 Q70.4133 526.815 67.3115 530.033 Q64.2096 533.227 58.5615 538.991 Z" fill="#000000" fill-rule="evenodd" fill-opacity="1" /><path clip-path="url(#clip820)" d="M 0 0 M67.7513 85.391 Q71.1078 86.1086 72.9827 88.3771 Q74.8809 90.6456 74.8809 93.979 Q74.8809 99.0947 71.3624 101.896 Q67.8439 104.696 61.3624 104.696 Q59.1865 104.696 56.8717 104.257 Q54.5801 103.84 52.1264 102.984 L52.1264 98.4697 Q54.0708 99.6039 56.3856 100.183 Q58.7004 100.761 61.2236 100.761 Q65.6217 100.761 67.9133 99.0252 Q70.2281 97.2891 70.2281 93.979 Q70.2281 90.9234 68.0754 89.2105 Q65.9457 87.4744 62.1263 87.4744 L58.0986 87.4744 L58.0986 83.6318 L62.3115 83.6318 Q65.7606 83.6318 67.5893 82.2661 Q69.418 80.8772 69.418 78.2846 Q69.418 75.6226 67.5198 74.2105 Q65.6448 72.7754 62.1263 72.7754 Q60.205 72.7754 58.006 73.192 Q55.8069 73.6087 53.168 74.4883 L53.168 70.3217 Q55.8301 69.5809 58.1449 69.2106 Q60.4828 68.8402 62.543 68.8402 Q67.867 68.8402 70.9689 71.2707 Q74.0707 73.6781 74.0707 77.7985 Q74.0707 80.6688 72.4272 82.6596 Q70.7837 84.6272 67.7513 85.391 Z" fill="#000000" fill-rule="evenodd" fill-opacity="1" /><polyline clip-path="url(#clip822)" style="stroke:#009af9; stroke-width:8; stroke-opacity:1; fill:none" points="
  194.985,1403.08 385.965,1370.75 500.736,1332.76 597.774,1293.27 703.184,1244.7 800.363,1196 904.549,1140.64 1025.26,1073.51 1132.53,1011.88 1226.6,956.708 
  1329.16,895.658 1432.33,833.532 1546.4,764.228 1654.93,697.847 1767.77,628.493 1862.77,569.918 1978.74,498.227 2087.77,430.704 2262.43,322.343 2289.31,305.652 
  
  "/>
<polyline clip-path="url(#clip822)" style="stroke:#e26f46; stroke-width:8; stroke-opacity:1; fill:none" points="
  174.33,1403.45 194.985,1390.59 385.965,1271.69 500.736,1200.24 597.774,1139.83 703.184,1074.2 800.363,1013.7 904.549,948.842 1025.26,873.693 1132.53,806.909 
  1226.6,748.346 1329.16,684.496 1432.33,620.267 1546.4,549.254 1654.93,481.686 1767.77,411.431 1862.77,352.292 1978.74,280.089 2087.77,212.217 2262.43,103.479 
  2289.31,86.7452 
  "/>
<path clip-path="url(#clip820)" d="
M185.61 275.208 L511.941 275.208 L511.941 93.7676 L185.61 93.7676  Z
  " fill="#ffffff" fill-rule="evenodd" fill-opacity="1"/>
<polyline clip-path="url(#clip820)" style="stroke:#000000; stroke-width:4; stroke-opacity:1; fill:none" points="
  185.61,275.208 511.941,275.208 511.941,93.7676 185.61,93.7676 185.61,275.208 
  "/>
<polyline clip-path="url(#clip820)" style="stroke:#009af9; stroke-width:4; stroke-opacity:1; fill:none" points="
  210.52,154.248 359.978,154.248 
  "/>
<path clip-path="url(#clip820)" d="M 0 0 M407.022 146.752 Q407.022 147.08 406.811 147.853 L402.22 166.169 Q401.213 170.245 397.934 173.103 Q394.678 175.96 390.978 175.96 Q388.753 175.96 387.324 174.766 Q385.895 173.594 385.895 171.791 Q385.895 170.198 386.738 169.425 Q387.581 168.676 388.589 168.676 Q388.916 168.676 389.268 168.769 Q389.619 168.863 389.994 169.261 Q390.369 169.659 390.369 170.339 Q390.369 171.44 389.408 172.306 Q388.94 172.704 388.495 172.798 Q388.073 172.892 387.347 172.892 Q387.628 173.548 388.144 173.993 Q388.659 174.438 389.244 174.602 Q389.83 174.789 390.205 174.836 Q390.603 174.906 390.978 174.906 Q393.976 174.906 396.271 171.885 Q396.95 170.971 397.442 170.058 Q397.958 169.168 398.332 168.067 Q398.707 166.989 398.871 166.404 Q399.058 165.818 399.386 164.483 Q397.208 166.661 394.538 166.661 Q393.414 166.661 392.406 166.357 Q391.423 166.052 390.556 165.42 Q389.689 164.764 389.174 163.616 Q388.682 162.469 388.682 160.946 Q388.682 159.33 389.315 157.128 Q389.947 154.927 391.47 150.875 Q392.289 148.603 392.289 147.502 Q392.289 146.963 392.172 146.635 Q392.055 146.284 391.821 146.167 Q391.587 146.026 391.446 146.003 Q391.329 145.979 391.095 145.979 Q389.713 145.979 388.425 147.385 Q387.136 148.79 386.246 151.929 Q386.059 152.514 385.942 152.655 Q385.825 152.795 385.473 152.795 Q384.888 152.772 384.888 152.303 Q384.888 152.116 385.099 151.39 Q385.309 150.64 385.801 149.54 Q386.317 148.415 387.019 147.408 Q387.722 146.377 388.823 145.651 Q389.947 144.925 391.235 144.925 Q392.992 144.925 394.069 146.073 Q395.17 147.197 395.17 148.86 Q395.17 149.54 394.983 150.149 Q394.819 150.734 394.21 152.303 Q391.751 158.627 391.751 161.719 Q391.751 162.469 391.868 163.101 Q392.008 163.71 392.313 164.319 Q392.617 164.905 393.226 165.256 Q393.859 165.584 394.725 165.584 Q395.826 165.584 396.857 165.069 Q397.911 164.53 398.567 163.804 Q399.246 163.078 399.644 162.469 Q400.066 161.836 400.159 161.508 L402.314 152.889 L403.274 149.048 Q403.719 146.963 403.93 146.448 Q404.211 145.956 404.703 145.698 Q405.195 145.441 405.617 145.441 Q406.202 145.441 406.6 145.792 Q407.022 146.143 407.022 146.752 Z" fill="#000000" fill-rule="evenodd" fill-opacity="1" /><path clip-path="url(#clip820)" d="M 0 0 M408.151 154.13 Q408.151 146.026 411.172 139.491 Q412.461 136.751 414.264 134.455 Q416.068 132.16 417.262 131.153 Q418.457 130.146 418.785 130.146 Q419.253 130.146 419.276 130.614 Q419.276 130.848 418.644 131.434 Q410.915 139.304 410.938 154.13 Q410.938 169.004 418.457 176.569 Q419.276 177.389 419.276 177.646 Q419.276 178.115 418.785 178.115 Q418.457 178.115 417.309 177.155 Q416.161 176.194 414.381 173.993 Q412.601 171.791 411.313 169.097 Q408.151 162.562 408.151 154.13 Z" fill="#000000" fill-rule="evenodd" fill-opacity="1" /><path clip-path="url(#clip820)" d="M 0 0 M441.299 145.979 Q441.299 146.635 440.995 146.799 Q440.69 146.94 439.847 146.94 L435.35 146.94 L431.79 161.087 Q431.508 162.328 431.508 163.382 Q431.508 164.553 431.86 165.069 Q432.235 165.584 433.007 165.584 Q434.53 165.584 436.17 164.202 Q437.832 162.82 439.238 159.447 Q439.425 159.002 439.519 158.909 Q439.636 158.791 439.941 158.791 Q440.526 158.791 440.526 159.26 Q440.526 159.424 440.198 160.173 Q439.894 160.923 439.214 162.024 Q438.559 163.125 437.692 164.155 Q436.849 165.186 435.561 165.935 Q434.272 166.661 432.89 166.661 Q430.946 166.661 429.705 165.42 Q428.487 164.179 428.487 162.234 Q428.487 161.602 428.979 159.588 Q429.471 157.55 432.141 146.94 L427.901 146.94 Q427.316 146.94 427.082 146.916 Q426.871 146.893 426.707 146.776 Q426.566 146.635 426.566 146.354 Q426.566 145.909 426.754 145.722 Q426.941 145.511 427.175 145.487 Q427.433 145.441 428.018 145.441 L432.516 145.441 L434.389 137.828 Q434.577 137.079 435.045 136.657 Q435.537 136.212 435.818 136.165 Q436.099 136.095 436.31 136.095 Q436.942 136.095 437.317 136.446 Q437.692 136.774 437.692 137.383 Q437.692 137.711 435.724 145.441 L439.941 145.441 Q440.479 145.441 440.69 145.464 Q440.924 145.487 441.112 145.605 Q441.299 145.722 441.299 145.979 Z" fill="#000000" fill-rule="evenodd" fill-opacity="1" /><path clip-path="url(#clip820)" d="M 0 0 M443.706 177.646 Q443.706 177.412 444.315 176.827 Q452.045 168.957 452.045 154.13 Q452.045 139.257 444.62 131.738 Q443.706 130.872 443.706 130.614 Q443.706 130.146 444.175 130.146 Q444.503 130.146 445.65 131.106 Q446.821 132.066 448.578 134.268 Q450.358 136.47 451.67 139.163 Q454.832 145.698 454.832 154.13 Q454.832 162.234 451.81 168.769 Q450.522 171.51 448.719 173.805 Q446.915 176.101 445.721 177.108 Q444.526 178.115 444.175 178.115 Q443.706 178.115 443.706 177.646 Z" fill="#000000" fill-rule="evenodd" fill-opacity="1" /><polyline clip-path="url(#clip820)" style="stroke:#e26f46; stroke-width:4; stroke-opacity:1; fill:none" points="
  210.52,214.728 359.978,214.728 
  "/>
<path clip-path="url(#clip820)" d="M 0 0 M399.621 209.186 Q399.621 209.842 399.316 210.006 Q399.012 210.146 398.168 210.146 L393.671 210.146 L390.111 224.293 Q389.83 225.535 389.83 226.589 Q389.83 227.76 390.181 228.275 Q390.556 228.79 391.329 228.79 Q392.851 228.79 394.491 227.409 Q396.154 226.027 397.559 222.654 Q397.747 222.209 397.84 222.115 Q397.958 221.998 398.262 221.998 Q398.848 221.998 398.848 222.466 Q398.848 222.63 398.52 223.38 Q398.215 224.129 397.536 225.23 Q396.88 226.331 396.013 227.362 Q395.17 228.392 393.882 229.142 Q392.594 229.868 391.212 229.868 Q389.268 229.868 388.026 228.627 Q386.808 227.385 386.808 225.441 Q386.808 224.809 387.3 222.794 Q387.792 220.757 390.462 210.146 L386.223 210.146 Q385.637 210.146 385.403 210.123 Q385.192 210.099 385.028 209.982 Q384.888 209.842 384.888 209.561 Q384.888 209.116 385.075 208.928 Q385.263 208.717 385.497 208.694 Q385.754 208.647 386.34 208.647 L390.837 208.647 L392.711 201.035 Q392.898 200.285 393.367 199.864 Q393.859 199.419 394.14 199.372 Q394.421 199.302 394.632 199.302 Q395.264 199.302 395.639 199.653 Q396.013 199.981 396.013 200.59 Q396.013 200.918 394.046 208.647 L398.262 208.647 Q398.801 208.647 399.012 208.671 Q399.246 208.694 399.433 208.811 Q399.621 208.928 399.621 209.186 Z" fill="#000000" fill-rule="evenodd" fill-opacity="1" /></svg>