<?xml version="1.0" encoding="utf-8"?>
<svg xmlns="http://www.w3.org/2000/svg" xmlns:xlink="http://www.w3.org/1999/xlink" width="525" height="350" viewBox="0 0 2100 1400">
<defs>
  <clipPath id="clip800">
    <rect x="0" y="0" width="2100" height="1400"/>
  </clipPath>
</defs>
<path clip-path="url(#clip800)" d="
M0 1400 L2100 1400 L2100 0 L0 0  Z
  " fill="#ffffff" fill-rule="evenodd" fill-opacity="1"/>
<defs>
  <clipPath id="clip801">
    <rect x="420" y="0" width="1471" height="1400"/>
  </clipPath>
</defs>
<path clip-path="url(#clip800)" d="
M216.32 1234.53 L2058.66 1234.53 L2058.66 41.3386 L216.32 41.3386  Z
  " fill="#ffffff" fill-rule="evenodd" fill-opacity="1"/>
<defs>
  <clipPath id="clip802">
    <rect x="216" y="41" width="1843" height="1194"/>
  </clipPath>
</defs>
<polyline clip-path="url(#clip802)" style="stroke:#000000; stroke-width:1.75; stroke-opacity:0.1; fill:none" points="
  268.462,1234.53 268.462,41.3386 
  "/>
<polyline clip-path="url(#clip802)" style="stroke:#000000; stroke-width:1.75; stroke-opacity:0.1; fill:none" points="
  794.982,1234.53 794.982,41.3386 
  "/>
<polyline clip-path="url(#clip802)" style="stroke:#000000; stroke-width:1.75; stroke-opacity:0.1; fill:none" points="
  1321.5,1234.53 1321.5,41.3386 
  "/>
<polyline clip-path="url(#clip802)" style="stroke:#000000; stroke-width:1.75; stroke-opacity:0.1; fill:none" points="
  1848.02,1234.53 1848.02,41.3386 
  "/>
<polyline clip-path="url(#clip800)" style="stroke:#000000; stroke-width:3.5; stroke-opacity:1; fill:none" points="
  216.32,1234.53 2058.66,1234.53 
  "/>
<polyline clip-path="url(#clip800)" style="stroke:#000000; stroke-width:3.5; stroke-opacity:1; fill:none" points="
  268.462,1234.53 268.462,1220.22 
  "/>
<polyline clip-path="url(#clip800)" style="stroke:#000000; stroke-width:3.5; stroke-opacity:1; fill:none" points="
  794.982,1234.53 794.982,1220.22 
  "/>
<polyline clip-path="url(#clip800)" style="stroke:#000000; stroke-width:3.5; stroke-opacity:1; fill:none" points="
  1321.5,1234.53 1321.5,1220.22 
  "/>
<polyline clip-path="url(#clip800)" style="stroke:#000000; stroke-width:3.5; stroke-opacity:1; fill:none" points="
  1848.02,1234.53 1848.02,1220.22 
  "/>
<path clip-path="url(#clip800)" d="M 0 0 M228.644 1303.02 L235.328 1303.02 L235.328 1279.95 L228.057 1281.41 L228.057 1277.68 L235.287 1276.23 L239.379 1276.23 L239.379 1303.02 L246.063 1303.02 L246.063 1306.47 L228.644 1306.47 L228.644 1303.02 Z" fill="#000000" fill-rule="evenodd" fill-opacity="1" /><path clip-path="url(#clip800)" d="M 0 0 M259.248 1278.92 Q256.089 1278.92 254.489 1282.04 Q252.909 1285.14 252.909 1291.38 Q252.909 1297.59 254.489 1300.71 Q256.089 1303.81 259.248 1303.81 Q262.428 1303.81 264.008 1300.71 Q265.608 1297.59 265.608 1291.38 Q265.608 1285.14 264.008 1282.04 Q262.428 1278.92 259.248 1278.92 M259.248 1275.68 Q264.332 1275.68 267.006 1279.71 Q269.7 1283.72 269.7 1291.38 Q269.7 1299.01 267.006 1303.04 Q264.332 1307.05 259.248 1307.05 Q254.165 1307.05 251.471 1303.04 Q248.797 1299.01 248.797 1291.38 Q248.797 1283.72 251.471 1279.71 Q254.165 1275.68 259.248 1275.68 Z" fill="#000000" fill-rule="evenodd" fill-opacity="1" /><path clip-path="url(#clip800)" d="M 0 0 M269.7 1270.52 L290.797 1270.52 L290.797 1273.32 L269.7 1273.32 L269.7 1270.52 Z" fill="#000000" fill-rule="evenodd" fill-opacity="1" /><path clip-path="url(#clip800)" d="M 0 0 M297.265 1279.68 L308.867 1279.68 L308.867 1282.48 L293.266 1282.48 L293.266 1279.68 Q295.158 1277.73 298.417 1274.43 Q301.692 1271.13 302.531 1270.17 Q304.127 1268.38 304.753 1267.14 Q305.395 1265.89 305.395 1264.69 Q305.395 1262.73 304.012 1261.5 Q302.646 1260.27 300.441 1260.27 Q298.878 1260.27 297.133 1260.81 Q295.405 1261.35 293.431 1262.45 L293.431 1259.1 Q295.438 1258.29 297.183 1257.88 Q298.927 1257.47 300.375 1257.47 Q304.193 1257.47 306.464 1259.38 Q308.735 1261.29 308.735 1264.48 Q308.735 1265.99 308.159 1267.36 Q307.6 1268.71 306.102 1270.55 Q305.691 1271.03 303.486 1273.32 Q301.28 1275.59 297.265 1279.68 Z" fill="#000000" fill-rule="evenodd" fill-opacity="1" /><path clip-path="url(#clip800)" d="M 0 0 M755.032 1303.02 L761.716 1303.02 L761.716 1279.95 L754.445 1281.41 L754.445 1277.68 L761.676 1276.23 L765.767 1276.23 L765.767 1303.02 L772.451 1303.02 L772.451 1306.47 L755.032 1306.47 L755.032 1303.02 Z" fill="#000000" fill-rule="evenodd" fill-opacity="1" /><path clip-path="url(#clip800)" d="M 0 0 M785.637 1278.92 Q782.477 1278.92 780.877 1282.04 Q779.297 1285.14 779.297 1291.38 Q779.297 1297.59 780.877 1300.71 Q782.477 1303.81 785.637 1303.81 Q788.817 1303.81 790.397 1300.71 Q791.997 1297.59 791.997 1291.38 Q791.997 1285.14 790.397 1282.04 Q788.817 1278.92 785.637 1278.92 M785.637 1275.68 Q790.721 1275.68 793.394 1279.71 Q796.088 1283.72 796.088 1291.38 Q796.088 1299.01 793.394 1303.04 Q790.721 1307.05 785.637 1307.05 Q780.553 1307.05 777.859 1303.04 Q775.185 1299.01 775.185 1291.38 Q775.185 1283.72 777.859 1279.71 Q780.553 1275.68 785.637 1275.68 Z" fill="#000000" fill-rule="evenodd" fill-opacity="1" /><path clip-path="url(#clip800)" d="M 0 0 M796.088 1270.52 L817.186 1270.52 L817.186 1273.32 L796.088 1273.32 L796.088 1270.52 Z" fill="#000000" fill-rule="evenodd" fill-opacity="1" /><path clip-path="url(#clip800)" d="M 0 0 M821.366 1279.68 L826.796 1279.68 L826.796 1260.94 L820.888 1262.12 L820.888 1259.1 L826.764 1257.91 L830.088 1257.91 L830.088 1279.68 L835.519 1279.68 L835.519 1282.48 L821.366 1282.48 L821.366 1279.68 Z" fill="#000000" fill-rule="evenodd" fill-opacity="1" /><path clip-path="url(#clip800)" d="M 0 0 M1292.78 1303.02 L1299.46 1303.02 L1299.46 1279.95 L1292.19 1281.41 L1292.19 1277.68 L1299.42 1276.23 L1303.51 1276.23 L1303.51 1303.02 L1310.19 1303.02 L1310.19 1306.47 L1292.78 1306.47 L1292.78 1303.02 Z" fill="#000000" fill-rule="evenodd" fill-opacity="1" /><path clip-path="url(#clip800)" d="M 0 0 M1323.38 1278.92 Q1320.22 1278.92 1318.62 1282.04 Q1317.04 1285.14 1317.04 1291.38 Q1317.04 1297.59 1318.62 1300.71 Q1320.22 1303.81 1323.38 1303.81 Q1326.56 1303.81 1328.14 1300.71 Q1329.74 1297.59 1329.74 1291.38 Q1329.74 1285.14 1328.14 1282.04 Q1326.56 1278.92 1323.38 1278.92 M1323.38 1275.68 Q1328.46 1275.68 1331.14 1279.71 Q1333.83 1283.72 1333.83 1291.38 Q1333.83 1299.01 1331.14 1303.04 Q1328.46 1307.05 1323.38 1307.05 Q1318.3 1307.05 1315.6 1303.04 Q1312.93 1299.01 1312.93 1291.38 Q1312.93 1283.72 1315.6 1279.71 Q1318.3 1275.68 1323.38 1275.68 Z" fill="#000000" fill-rule="evenodd" fill-opacity="1" /><path clip-path="url(#clip800)" d="M 0 0 M1342.32 1260.1 Q1339.76 1260.1 1338.46 1262.63 Q1337.17 1265.15 1337.17 1270.22 Q1337.17 1275.27 1338.46 1277.81 Q1339.76 1280.33 1342.32 1280.33 Q1344.91 1280.33 1346.19 1277.81 Q1347.49 1275.27 1347.49 1270.22 Q1347.49 1265.15 1346.19 1262.63 Q1344.91 1260.1 1342.32 1260.1 M1342.32 1257.47 Q1346.45 1257.47 1348.63 1260.74 Q1350.81 1264 1350.81 1270.22 Q1350.81 1276.43 1348.63 1279.7 Q1346.45 1282.96 1342.32 1282.96 Q1338.19 1282.96 1336 1279.7 Q1333.83 1276.43 1333.83 1270.22 Q1333.83 1264 1336 1260.74 Q1338.19 1257.47 1342.32 1257.47 Z" fill="#000000" fill-rule="evenodd" fill-opacity="1" /><path clip-path="url(#clip800)" d="M 0 0 M1820.47 1303.02 L1827.16 1303.02 L1827.16 1279.95 L1819.88 1281.41 L1819.88 1277.68 L1827.12 1276.23 L1831.21 1276.23 L1831.21 1303.02 L1837.89 1303.02 L1837.89 1306.47 L1820.47 1306.47 L1820.47 1303.02 Z" fill="#000000" fill-rule="evenodd" fill-opacity="1" /><path clip-path="url(#clip800)" d="M 0 0 M1851.08 1278.92 Q1847.92 1278.92 1846.32 1282.04 Q1844.74 1285.14 1844.74 1291.38 Q1844.74 1297.59 1846.32 1300.71 Q1847.92 1303.81 1851.08 1303.81 Q1854.26 1303.81 1855.84 1300.71 Q1857.44 1297.59 1857.44 1291.38 Q1857.44 1285.14 1855.84 1282.04 Q1854.26 1278.92 1851.08 1278.92 M1851.08 1275.68 Q1856.16 1275.68 1858.83 1279.71 Q1861.53 1283.72 1861.53 1291.38 Q1861.53 1299.01 1858.83 1303.04 Q1856.16 1307.05 1851.08 1307.05 Q1845.99 1307.05 1843.3 1303.04 Q1840.63 1299.01 1840.63 1291.38 Q1840.63 1283.72 1843.3 1279.71 Q1845.99 1275.68 1851.08 1275.68 Z" fill="#000000" fill-rule="evenodd" fill-opacity="1" /><path clip-path="url(#clip800)" d="M 0 0 M1862.01 1279.68 L1867.44 1279.68 L1867.44 1260.94 L1861.53 1262.12 L1861.53 1259.1 L1867.4 1257.91 L1870.73 1257.91 L1870.73 1279.68 L1876.16 1279.68 L1876.16 1282.48 L1862.01 1282.48 L1862.01 1279.68 Z" fill="#000000" fill-rule="evenodd" fill-opacity="1" /><path clip-path="url(#clip800)" d="M 0 0 M1119.12 1378.22 Q1107.57 1378.22 1107.57 1361.68 Q1107.57 1355.13 1111.88 1346.22 L1117.4 1346.22 Q1113.41 1355.13 1113.41 1361.82 Q1113.41 1373.88 1119.6 1373.88 Q1125.25 1373.88 1125.25 1358.89 L1129.99 1358.89 Q1129.99 1373.88 1135.64 1373.88 Q1141.82 1373.88 1141.82 1361.82 Q1141.82 1355.13 1137.84 1346.22 L1143.35 1346.22 Q1147.67 1355.13 1147.67 1361.68 Q1147.67 1378.22 1136.11 1378.22 Q1128.54 1378.22 1127.62 1369.89 Q1126.48 1378.22 1119.12 1378.22 Z" fill="#000000" fill-rule="evenodd" fill-opacity="1" /><path clip-path="url(#clip800)" d="M 0 0 M1152.01 1374.35 L1157.7 1374.35 L1157.7 1357.33 L1151.49 1358.47 L1151.49 1355.24 L1157.89 1354.16 L1161.71 1354.16 L1161.71 1374.35 L1167.42 1374.35 L1167.42 1377.41 L1152.01 1377.41 L1152.01 1374.35 Z" fill="#000000" fill-rule="evenodd" fill-opacity="1" /><polyline clip-path="url(#clip802)" style="stroke:#000000; stroke-width:1.75; stroke-opacity:0.1; fill:none" points="
  216.32,1040.81 2058.66,1040.81 
  "/>
<polyline clip-path="url(#clip802)" style="stroke:#000000; stroke-width:1.75; stroke-opacity:0.1; fill:none" points="
  216.32,718.906 2058.66,718.906 
  "/>
<polyline clip-path="url(#clip802)" style="stroke:#000000; stroke-width:1.75; stroke-opacity:0.1; fill:none" points="
  216.32,397.007 2058.66,397.007 
  "/>
<polyline clip-path="url(#clip802)" style="stroke:#000000; stroke-width:1.75; stroke-opacity:0.1; fill:none" points="
  216.32,75.1083 2058.66,75.1083 
  "/>
<polyline clip-path="url(#clip800)" style="stroke:#000000; stroke-width:3.5; stroke-opacity:1; fill:none" points="
  216.32,1234.53 216.32,41.3386 
  "/>
<polyline clip-path="url(#clip800)" style="stroke:#000000; stroke-width:3.5; stroke-opacity:1; fill:none" points="
  216.32,1040.81 238.428,1040.81 
  "/>
<polyline clip-path="url(#clip800)" style="stroke:#000000; stroke-width:3.5; stroke-opacity:1; fill:none" points="
  216.32,718.906 238.428,718.906 
  "/>
<polyline clip-path="url(#clip800)" style="stroke:#000000; stroke-width:3.5; stroke-opacity:1; fill:none" points="
  216.32,397.007 238.428,397.007 
  "/>
<polyline clip-path="url(#clip800)" style="stroke:#000000; stroke-width:3.5; stroke-opacity:1; fill:none" points="
  216.32,75.1083 238.428,75.1083 
  "/>
<path clip-path="url(#clip800)" d="M 0 0 M101.141 1058.12 L107.825 1058.12 L107.825 1035.05 L100.554 1036.51 L100.554 1032.79 L107.784 1031.33 L111.876 1031.33 L111.876 1058.12 L118.56 1058.12 L118.56 1061.57 L101.141 1061.57 L101.141 1058.12 Z" fill="#000000" fill-rule="evenodd" fill-opacity="1" /><path clip-path="url(#clip800)" d="M 0 0 M131.746 1034.02 Q128.586 1034.02 126.986 1037.14 Q125.406 1040.24 125.406 1046.48 Q125.406 1052.7 126.986 1055.81 Q128.586 1058.91 131.746 1058.91 Q134.926 1058.91 136.505 1055.81 Q138.106 1052.7 138.106 1046.48 Q138.106 1040.24 136.505 1037.14 Q134.926 1034.02 131.746 1034.02 M131.746 1030.78 Q136.829 1030.78 139.503 1034.81 Q142.197 1038.82 142.197 1046.48 Q142.197 1054.11 139.503 1058.14 Q136.829 1062.15 131.746 1062.15 Q126.662 1062.15 123.968 1058.14 Q121.294 1054.11 121.294 1046.48 Q121.294 1038.82 123.968 1034.81 Q126.662 1030.78 131.746 1030.78 Z" fill="#000000" fill-rule="evenodd" fill-opacity="1" /><path clip-path="url(#clip800)" d="M 0 0 M150.689 1015.2 Q148.121 1015.2 146.821 1017.74 Q145.538 1020.25 145.538 1025.32 Q145.538 1030.37 146.821 1032.91 Q148.121 1035.43 150.689 1035.43 Q153.272 1035.43 154.556 1032.91 Q155.856 1030.37 155.856 1025.32 Q155.856 1020.25 154.556 1017.74 Q153.272 1015.2 150.689 1015.2 M150.689 1012.57 Q154.819 1012.57 156.992 1015.84 Q159.18 1019.1 159.18 1025.32 Q159.18 1031.53 156.992 1034.8 Q154.819 1038.06 150.689 1038.06 Q146.558 1038.06 144.369 1034.8 Q142.197 1031.53 142.197 1025.32 Q142.197 1019.1 144.369 1015.84 Q146.558 1012.57 150.689 1012.57 Z" fill="#000000" fill-rule="evenodd" fill-opacity="1" /><path clip-path="url(#clip800)" d="M 0 0 M162.784 1033.4 L166.257 1033.4 L166.257 1037.58 L162.784 1037.58 L162.784 1033.4 Z" fill="#000000" fill-rule="evenodd" fill-opacity="1" /><path clip-path="url(#clip800)" d="M 0 0 M169.022 1013.01 L184.82 1013.01 L184.82 1014.43 L175.9 1037.58 L172.428 1037.58 L180.821 1015.81 L169.022 1015.81 L169.022 1013.01 Z" fill="#000000" fill-rule="evenodd" fill-opacity="1" /><path clip-path="url(#clip800)" d="M 0 0 M100.565 736.225 L107.249 736.225 L107.249 713.155 L99.9776 714.613 L99.9776 710.886 L107.209 709.428 L111.3 709.428 L111.3 736.225 L117.984 736.225 L117.984 739.668 L100.565 739.668 L100.565 736.225 Z" fill="#000000" fill-rule="evenodd" fill-opacity="1" /><path clip-path="url(#clip800)" d="M 0 0 M131.17 712.122 Q128.01 712.122 126.41 715.241 Q124.83 718.34 124.83 724.578 Q124.83 730.796 126.41 733.916 Q128.01 737.015 131.17 737.015 Q134.35 737.015 135.929 733.916 Q137.53 730.796 137.53 724.578 Q137.53 718.34 135.929 715.241 Q134.35 712.122 131.17 712.122 M131.17 708.881 Q136.253 708.881 138.927 712.912 Q141.621 716.922 141.621 724.578 Q141.621 732.214 138.927 736.245 Q136.253 740.255 131.17 740.255 Q126.086 740.255 123.392 736.245 Q120.718 732.214 120.718 724.578 Q120.718 716.922 123.392 712.912 Q126.086 708.881 131.17 708.881 Z" fill="#000000" fill-rule="evenodd" fill-opacity="1" /><path clip-path="url(#clip800)" d="M 0 0 M150.113 693.303 Q147.545 693.303 146.245 695.837 Q144.962 698.355 144.962 703.424 Q144.962 708.476 146.245 711.01 Q147.545 713.528 150.113 713.528 Q152.696 713.528 153.98 711.01 Q155.28 708.476 155.28 703.424 Q155.28 698.355 153.98 695.837 Q152.696 693.303 150.113 693.303 M150.113 690.669 Q154.243 690.669 156.416 693.944 Q158.604 697.203 158.604 703.424 Q158.604 709.628 156.416 712.903 Q154.243 716.161 150.113 716.161 Q145.982 716.161 143.793 712.903 Q141.621 709.628 141.621 703.424 Q141.621 697.203 143.793 693.944 Q145.982 690.669 150.113 690.669 Z" fill="#000000" fill-rule="evenodd" fill-opacity="1" /><path clip-path="url(#clip800)" d="M 0 0 M162.208 711.504 L165.681 711.504 L165.681 715.684 L162.208 715.684 L162.208 711.504 Z" fill="#000000" fill-rule="evenodd" fill-opacity="1" /><path clip-path="url(#clip800)" d="M 0 0 M176.394 704.016 Q174.024 704.016 172.658 705.283 Q171.309 706.55 171.309 708.772 Q171.309 710.994 172.658 712.261 Q174.024 713.528 176.394 713.528 Q178.764 713.528 180.13 712.261 Q181.496 710.977 181.496 708.772 Q181.496 706.55 180.13 705.283 Q178.78 704.016 176.394 704.016 M173.07 702.601 Q170.93 702.074 169.729 700.609 Q168.544 699.145 168.544 697.038 Q168.544 694.093 170.634 692.381 Q172.741 690.669 176.394 690.669 Q180.064 690.669 182.154 692.381 Q184.244 694.093 184.244 697.038 Q184.244 699.145 183.043 700.609 Q181.858 702.074 179.735 702.601 Q182.138 703.16 183.471 704.789 Q184.82 706.419 184.82 708.772 Q184.82 712.343 182.631 714.252 Q180.459 716.161 176.394 716.161 Q172.329 716.161 170.141 714.252 Q167.968 712.343 167.968 708.772 Q167.968 706.419 169.318 704.789 Q170.667 703.16 173.07 702.601 M171.852 697.351 Q171.852 699.26 173.037 700.33 Q174.238 701.399 176.394 701.399 Q178.534 701.399 179.735 700.33 Q180.953 699.26 180.953 697.351 Q180.953 695.442 179.735 694.372 Q178.534 693.303 176.394 693.303 Q174.238 693.303 173.037 694.372 Q171.852 695.442 171.852 697.351 Z" fill="#000000" fill-rule="evenodd" fill-opacity="1" /><path clip-path="url(#clip800)" d="M 0 0 M100.631 414.326 L107.315 414.326 L107.315 391.256 L100.043 392.714 L100.043 388.987 L107.274 387.529 L111.366 387.529 L111.366 414.326 L118.05 414.326 L118.05 417.769 L100.631 417.769 L100.631 414.326 Z" fill="#000000" fill-rule="evenodd" fill-opacity="1" /><path clip-path="url(#clip800)" d="M 0 0 M131.235 390.223 Q128.076 390.223 126.476 393.342 Q124.896 396.441 124.896 402.679 Q124.896 408.897 126.476 412.017 Q128.076 415.116 131.235 415.116 Q134.415 415.116 135.995 412.017 Q137.595 408.897 137.595 402.679 Q137.595 396.441 135.995 393.342 Q134.415 390.223 131.235 390.223 M131.235 386.982 Q136.319 386.982 138.993 391.013 Q141.687 395.023 141.687 402.679 Q141.687 410.315 138.993 414.346 Q136.319 418.356 131.235 418.356 Q126.152 418.356 123.458 414.346 Q120.784 410.315 120.784 402.679 Q120.784 395.023 123.458 391.013 Q126.152 386.982 131.235 386.982 Z" fill="#000000" fill-rule="evenodd" fill-opacity="1" /><path clip-path="url(#clip800)" d="M 0 0 M150.178 371.404 Q147.611 371.404 146.311 373.938 Q145.027 376.456 145.027 381.525 Q145.027 386.577 146.311 389.111 Q147.611 391.629 150.178 391.629 Q152.762 391.629 154.046 389.111 Q155.346 386.577 155.346 381.525 Q155.346 376.456 154.046 373.938 Q152.762 371.404 150.178 371.404 M150.178 368.77 Q154.309 368.77 156.481 372.045 Q158.67 375.304 158.67 381.525 Q158.67 387.729 156.481 391.004 Q154.309 394.262 150.178 394.262 Q146.048 394.262 143.859 391.004 Q141.687 387.729 141.687 381.525 Q141.687 375.304 143.859 372.045 Q146.048 368.77 150.178 368.77 Z" fill="#000000" fill-rule="evenodd" fill-opacity="1" /><path clip-path="url(#clip800)" d="M 0 0 M162.274 389.605 L165.747 389.605 L165.747 393.785 L162.274 393.785 L162.274 389.605 Z" fill="#000000" fill-rule="evenodd" fill-opacity="1" /><path clip-path="url(#clip800)" d="M 0 0 M169.449 393.275 L169.449 390.247 Q170.7 390.839 171.984 391.152 Q173.267 391.464 174.502 391.464 Q177.793 391.464 179.521 389.259 Q181.265 387.038 181.512 382.528 Q180.558 383.944 179.093 384.701 Q177.628 385.458 175.851 385.458 Q172.165 385.458 170.009 383.236 Q167.87 380.998 167.87 377.131 Q167.87 373.345 170.108 371.058 Q172.346 368.77 176.065 368.77 Q180.327 368.77 182.565 372.045 Q184.82 375.304 184.82 381.525 Q184.82 387.334 182.055 390.806 Q179.307 394.262 174.65 394.262 Q173.399 394.262 172.115 394.015 Q170.832 393.768 169.449 393.275 M176.065 382.858 Q178.303 382.858 179.603 381.327 Q180.92 379.797 180.92 377.131 Q180.92 374.481 179.603 372.951 Q178.303 371.404 176.065 371.404 Q173.827 371.404 172.51 372.951 Q171.21 374.481 171.21 377.131 Q171.21 379.797 172.51 381.327 Q173.827 382.858 176.065 382.858 Z" fill="#000000" fill-rule="evenodd" fill-opacity="1" /><path clip-path="url(#clip800)" d="M 0 0 M102.853 92.4267 L109.537 92.4267 L109.537 69.3568 L102.265 70.8151 L102.265 67.0883 L109.496 65.6299 L113.587 65.6299 L113.587 92.4267 L120.271 92.4267 L120.271 95.8699 L102.853 95.8699 L102.853 92.4267 Z" fill="#000000" fill-rule="evenodd" fill-opacity="1" /><path clip-path="url(#clip800)" d="M 0 0 M133.457 68.3238 Q130.297 68.3238 128.697 71.443 Q127.117 74.5419 127.117 80.7803 Q127.117 86.9984 128.697 90.1176 Q130.297 93.2166 133.457 93.2166 Q136.637 93.2166 138.217 90.1176 Q139.817 86.9984 139.817 80.7803 Q139.817 74.5419 138.217 71.443 Q136.637 68.3238 133.457 68.3238 M133.457 65.0831 Q138.541 65.0831 141.215 69.1137 Q143.908 73.1241 143.908 80.7803 Q143.908 88.4163 141.215 92.4469 Q138.541 96.4573 133.457 96.4573 Q128.373 96.4573 125.679 92.4469 Q123.006 88.4163 123.006 80.7803 Q123.006 73.1241 125.679 69.1137 Q128.373 65.0831 133.457 65.0831 Z" fill="#000000" fill-rule="evenodd" fill-opacity="1" /><path clip-path="url(#clip800)" d="M 0 0 M144.386 69.0882 L149.816 69.0882 L149.816 50.3439 L143.908 51.5288 L143.908 48.5007 L149.784 47.3158 L153.108 47.3158 L153.108 69.0882 L158.539 69.0882 L158.539 71.8858 L144.386 71.8858 L144.386 69.0882 Z" fill="#000000" fill-rule="evenodd" fill-opacity="1" /><path clip-path="url(#clip800)" d="M 0 0 M162.143 67.7058 L165.615 67.7058 L165.615 71.8858 L162.143 71.8858 L162.143 67.7058 Z" fill="#000000" fill-rule="evenodd" fill-opacity="1" /><path clip-path="url(#clip800)" d="M 0 0 M176.328 49.5046 Q173.761 49.5046 172.461 52.0389 Q171.177 54.5568 171.177 59.6255 Q171.177 64.6778 172.461 67.2121 Q173.761 69.73 176.328 69.73 Q178.912 69.73 180.196 67.2121 Q181.496 64.6778 181.496 59.6255 Q181.496 54.5568 180.196 52.0389 Q178.912 49.5046 176.328 49.5046 M176.328 46.8715 Q180.459 46.8715 182.631 50.1464 Q184.82 53.4048 184.82 59.6255 Q184.82 65.8297 182.631 69.1046 Q180.459 72.3631 176.328 72.3631 Q172.198 72.3631 170.009 69.1046 Q167.837 65.8297 167.837 59.6255 Q167.837 53.4048 170.009 50.1464 Q172.198 46.8715 176.328 46.8715 Z" fill="#000000" fill-rule="evenodd" fill-opacity="1" /><path clip-path="url(#clip800)" d="M 0 0 M36.5087 662.403 Q37.1214 660.593 39.1266 658.894 Q41.1318 657.167 44.6409 655.44 L56.0036 649.731 L56.0036 655.774 L45.3371 661.094 Q41.1596 663.155 39.795 665.104 Q38.4303 667.026 38.4303 670.368 L38.4303 676.495 L56.0036 676.495 L56.0036 682.121 L14.4236 682.121 L14.4236 669.421 Q14.4236 662.291 17.4036 658.782 Q20.3835 655.273 26.3991 655.273 Q30.326 655.273 32.916 657.111 Q35.5061 658.922 36.5087 662.403 M19.0467 676.495 L33.8072 676.495 L33.8072 669.421 Q33.8072 665.355 31.9413 663.294 Q30.0475 661.205 26.3991 661.205 Q22.7508 661.205 20.9127 663.294 Q19.0467 665.355 19.0467 669.421 L19.0467 676.495 Z" fill="#000000" fill-rule="evenodd" fill-opacity="1" /><path clip-path="url(#clip800)" d="M 0 0 M19.9658 632.548 L40.6583 640.178 L40.6583 624.889 L19.9658 632.548 M14.4236 635.723 L14.4236 629.345 L56.0036 613.498 L56.0036 619.347 L45.3371 623.134 L45.3371 641.877 L56.0036 645.665 L56.0036 651.597 L14.4236 635.723 Z" fill="#000000" fill-rule="evenodd" fill-opacity="1" /><path clip-path="url(#clip800)" d="M 0 0 M52.9401 609.154 L52.9401 603.472 L35.9238 603.472 L37.0657 609.683 L33.8351 609.683 L32.7489 603.277 L32.7489 599.462 L52.9401 599.462 L52.9401 593.753 L56.0036 593.753 L56.0036 609.154 L52.9401 609.154 Z" fill="#000000" fill-rule="evenodd" fill-opacity="1" /><circle clip-path="url(#clip802)" cx="268.462" cy="75.1083" r="12" fill="#009af9" fill-rule="evenodd" fill-opacity="1" stroke="#000000" stroke-opacity="1" stroke-width="2.8"/>
<circle clip-path="url(#clip802)" cx="636.483" cy="76.507" r="12" fill="#009af9" fill-rule="evenodd" fill-opacity="1" stroke="#000000" stroke-opacity="1" stroke-width="2.8"/>
<circle clip-path="url(#clip802)" cx="794.982" cy="76.507" r="12" fill="#009af9" fill-rule="evenodd" fill-opacity="1" stroke="#000000" stroke-opacity="1" stroke-width="2.8"/>
<circle clip-path="url(#clip802)" cx="1321.5" cy="82.1158" r="12" fill="#009af9" fill-rule="evenodd" fill-opacity="1" stroke="#000000" stroke-opacity="1" stroke-width="2.8"/>
<circle clip-path="url(#clip802)" cx="1572.72" cy="135.093" r="12" fill="#009af9" fill-rule="evenodd" fill-opacity="1" stroke="#000000" stroke-opacity="1" stroke-width="2.8"/>
<circle clip-path="url(#clip802)" cx="1689.52" cy="231.752" r="12" fill="#009af9" fill-rule="evenodd" fill-opacity="1" stroke="#000000" stroke-opacity="1" stroke-width="2.8"/>
<circle clip-path="url(#clip802)" cx="1766.46" cy="354.247" r="12" fill="#009af9" fill-rule="evenodd" fill-opacity="1" stroke="#000000" stroke-opacity="1" stroke-width="2.8"/>
<circle clip-path="url(#clip802)" cx="1823.93" cy="490.394" r="12" fill="#009af9" fill-rule="evenodd" fill-opacity="1" stroke="#000000" stroke-opacity="1" stroke-width="2.8"/>
<circle clip-path="url(#clip802)" cx="1848.02" cy="565.77" r="12" fill="#009af9" fill-rule="evenodd" fill-opacity="1" stroke="#000000" stroke-opacity="1" stroke-width="2.8"/>
<circle clip-path="url(#clip802)" cx="1889.71" cy="699.013" r="12" fill="#009af9" fill-rule="evenodd" fill-opacity="1" stroke="#000000" stroke-opacity="1" stroke-width="2.8"/>
<circle clip-path="url(#clip802)" cx="1940.74" cy="898.227" r="12" fill="#009af9" fill-rule="evenodd" fill-opacity="1" stroke="#000000" stroke-opacity="1" stroke-width="2.8"/>
<circle clip-path="url(#clip802)" cx="2006.52" cy="1200.76" r="12" fill="#009af9" fill-rule="evenodd" fill-opacity="1" stroke="#000000" stroke-opacity="1" stroke-width="2.8"/>
</svg>