<?xml version="1.0" encoding="utf-8"?>
<svg xmlns="http://www.w3.org/2000/svg" xmlns:xlink="http://www.w3.org/1999/xlink" width="600" height="400" viewBox="0 0 2400 1600">
<defs>
  <clipPath id="clip410">
    <rect x="0" y="0" width="2400" height="1600"/>
  </clipPath>
</defs>
<path clip-path="url(#clip410)" d="
M0 1600 L2400 1600 L2400 0 L0 0  Z
  " fill="#ffffff" fill-rule="evenodd" fill-opacity="1"/>
<defs>
  <clipPath id="clip411">
    <rect x="480" y="0" width="1681" height="1600"/>
  </clipPath>
</defs>
<path clip-path="url(#clip410)" d="
M228.421 1427.15 L2352.76 1427.15 L2352.76 47.2441 L228.421 47.2441  Z
  " fill="#ffffff" fill-rule="evenodd" fill-opacity="1"/>
<defs>
  <clipPath id="clip412">
    <rect x="228" y="47" width="2125" height="1381"/>
  </clipPath>
</defs>
<polyline clip-path="url(#clip412)" style="stroke:#000000; stroke-width:2; stroke-opacity:0.1; fill:none" points="
  288.544,1427.15 288.544,47.2441 
  "/>
<polyline clip-path="url(#clip412)" style="stroke:#000000; stroke-width:2; stroke-opacity:0.1; fill:none" points="
  689.362,1427.15 689.362,47.2441 
  "/>
<polyline clip-path="url(#clip412)" style="stroke:#000000; stroke-width:2; stroke-opacity:0.1; fill:none" points="
  1090.18,1427.15 1090.18,47.2441 
  "/>
<polyline clip-path="url(#clip412)" style="stroke:#000000; stroke-width:2; stroke-opacity:0.1; fill:none" points="
  1491,1427.15 1491,47.2441 
  "/>
<polyline clip-path="url(#clip412)" style="stroke:#000000; stroke-width:2; stroke-opacity:0.1; fill:none" points="
  1891.82,1427.15 1891.82,47.2441 
  "/>
<polyline clip-path="url(#clip412)" style="stroke:#000000; stroke-width:2; stroke-opacity:0.1; fill:none" points="
  2292.63,1427.15 2292.63,47.2441 
  "/>
<polyline clip-path="url(#clip410)" style="stroke:#000000; stroke-width:4; stroke-opacity:1; fill:none" points="
  228.421,1427.15 2352.76,1427.15 
  "/>
<polyline clip-path="url(#clip410)" style="stroke:#000000; stroke-width:4; stroke-opacity:1; fill:none" points="
  288.544,1427.15 288.544,1410.59 
  "/>
<polyline clip-path="url(#clip410)" style="stroke:#000000; stroke-width:4; stroke-opacity:1; fill:none" points="
  689.362,1427.15 689.362,1410.59 
  "/>
<polyline clip-path="url(#clip410)" style="stroke:#000000; stroke-width:4; stroke-opacity:1; fill:none" points="
  1090.18,1427.15 1090.18,1410.59 
  "/>
<polyline clip-path="url(#clip410)" style="stroke:#000000; stroke-width:4; stroke-opacity:1; fill:none" points="
  1491,1427.15 1491,1410.59 
  "/>
<polyline clip-path="url(#clip410)" style="stroke:#000000; stroke-width:4; stroke-opacity:1; fill:none" points="
  1891.82,1427.15 1891.82,1410.59 
  "/>
<polyline clip-path="url(#clip410)" style="stroke:#000000; stroke-width:4; stroke-opacity:1; fill:none" points="
  2292.63,1427.15 2292.63,1410.59 
  "/>
<path clip-path="url(#clip410)" d="M 0 0 M264.169 1487.1 L264.169 1482.84 Q265.928 1483.68 267.734 1484.12 Q269.54 1484.56 271.276 1484.56 Q275.905 1484.56 278.336 1481.45 Q280.79 1478.33 281.137 1471.99 Q279.794 1473.98 277.734 1475.04 Q275.674 1476.11 273.174 1476.11 Q267.989 1476.11 264.956 1472.98 Q261.947 1469.83 261.947 1464.39 Q261.947 1459.07 265.095 1455.85 Q268.243 1452.63 273.475 1452.63 Q279.47 1452.63 282.618 1457.24 Q285.789 1461.82 285.789 1470.57 Q285.789 1478.75 281.901 1483.63 Q278.035 1488.49 271.484 1488.49 Q269.725 1488.49 267.919 1488.14 Q266.114 1487.8 264.169 1487.1 M273.475 1472.45 Q276.623 1472.45 278.452 1470.3 Q280.303 1468.14 280.303 1464.39 Q280.303 1460.67 278.452 1458.51 Q276.623 1456.34 273.475 1456.34 Q270.327 1456.34 268.475 1458.51 Q266.646 1460.67 266.646 1464.39 Q266.646 1468.14 268.475 1470.3 Q270.327 1472.45 273.475 1472.45 Z" fill="#000000" fill-rule="evenodd" fill-opacity="1" /><path clip-path="url(#clip410)" d="M 0 0 M294.239 1453.26 L312.595 1453.26 L312.595 1457.19 L298.521 1457.19 L298.521 1465.67 Q299.539 1465.32 300.558 1465.16 Q301.576 1464.97 302.595 1464.97 Q308.382 1464.97 311.762 1468.14 Q315.141 1471.32 315.141 1476.73 Q315.141 1482.31 311.669 1485.41 Q308.197 1488.49 301.877 1488.49 Q299.701 1488.49 297.433 1488.12 Q295.188 1487.75 292.78 1487.01 L292.78 1482.31 Q294.864 1483.44 297.086 1484 Q299.308 1484.56 301.785 1484.56 Q305.789 1484.56 308.127 1482.45 Q310.465 1480.34 310.465 1476.73 Q310.465 1473.12 308.127 1471.01 Q305.789 1468.91 301.785 1468.91 Q299.91 1468.91 298.035 1469.32 Q296.183 1469.74 294.239 1470.62 L294.239 1453.26 Z" fill="#000000" fill-rule="evenodd" fill-opacity="1" /><path clip-path="url(#clip410)" d="M 0 0 M664.408 1487.1 L664.408 1482.84 Q666.168 1483.68 667.973 1484.12 Q669.779 1484.56 671.515 1484.56 Q676.144 1484.56 678.575 1481.45 Q681.029 1478.33 681.376 1471.99 Q680.033 1473.98 677.973 1475.04 Q675.913 1476.11 673.413 1476.11 Q668.228 1476.11 665.195 1472.98 Q662.186 1469.83 662.186 1464.39 Q662.186 1459.07 665.334 1455.85 Q668.482 1452.63 673.714 1452.63 Q679.709 1452.63 682.857 1457.24 Q686.029 1461.82 686.029 1470.57 Q686.029 1478.75 682.14 1483.63 Q678.274 1488.49 671.723 1488.49 Q669.964 1488.49 668.158 1488.14 Q666.353 1487.8 664.408 1487.1 M673.714 1472.45 Q676.862 1472.45 678.691 1470.3 Q680.543 1468.14 680.543 1464.39 Q680.543 1460.67 678.691 1458.51 Q676.862 1456.34 673.714 1456.34 Q670.566 1456.34 668.714 1458.51 Q666.885 1460.67 666.885 1464.39 Q666.885 1468.14 668.714 1470.3 Q670.566 1472.45 673.714 1472.45 Z" fill="#000000" fill-rule="evenodd" fill-opacity="1" /><path clip-path="url(#clip410)" d="M 0 0 M705.01 1468.68 Q701.862 1468.68 700.01 1470.83 Q698.181 1472.98 698.181 1476.73 Q698.181 1480.46 700.01 1482.63 Q701.862 1484.79 705.01 1484.79 Q708.158 1484.79 709.987 1482.63 Q711.839 1480.46 711.839 1476.73 Q711.839 1472.98 709.987 1470.83 Q708.158 1468.68 705.01 1468.68 M714.292 1454.02 L714.292 1458.28 Q712.533 1457.45 710.728 1457.01 Q708.945 1456.57 707.186 1456.57 Q702.556 1456.57 700.103 1459.69 Q697.672 1462.82 697.325 1469.14 Q698.691 1467.13 700.751 1466.06 Q702.811 1464.97 705.288 1464.97 Q710.496 1464.97 713.505 1468.14 Q716.538 1471.29 716.538 1476.73 Q716.538 1482.06 713.39 1485.27 Q710.241 1488.49 705.01 1488.49 Q699.015 1488.49 695.843 1483.91 Q692.672 1479.3 692.672 1470.57 Q692.672 1462.38 696.561 1457.52 Q700.45 1452.63 707.001 1452.63 Q708.76 1452.63 710.542 1452.98 Q712.348 1453.33 714.292 1454.02 Z" fill="#000000" fill-rule="evenodd" fill-opacity="1" /><path clip-path="url(#clip410)" d="M 0 0 M1065.76 1487.1 L1065.76 1482.84 Q1067.52 1483.68 1069.32 1484.12 Q1071.13 1484.56 1072.87 1484.56 Q1077.49 1484.56 1079.93 1481.45 Q1082.38 1478.33 1082.73 1471.99 Q1081.38 1473.98 1079.32 1475.04 Q1077.26 1476.11 1074.76 1476.11 Q1069.58 1476.11 1066.55 1472.98 Q1063.54 1469.83 1063.54 1464.39 Q1063.54 1459.07 1066.68 1455.85 Q1069.83 1452.63 1075.06 1452.63 Q1081.06 1452.63 1084.21 1457.24 Q1087.38 1461.82 1087.38 1470.57 Q1087.38 1478.75 1083.49 1483.63 Q1079.62 1488.49 1073.07 1488.49 Q1071.31 1488.49 1069.51 1488.14 Q1067.7 1487.8 1065.76 1487.1 M1075.06 1472.45 Q1078.21 1472.45 1080.04 1470.3 Q1081.89 1468.14 1081.89 1464.39 Q1081.89 1460.67 1080.04 1458.51 Q1078.21 1456.34 1075.06 1456.34 Q1071.92 1456.34 1070.06 1458.51 Q1068.24 1460.67 1068.24 1464.39 Q1068.24 1468.14 1070.06 1470.3 Q1071.92 1472.45 1075.06 1472.45 Z" fill="#000000" fill-rule="evenodd" fill-opacity="1" /><path clip-path="url(#clip410)" d="M 0 0 M1094.6 1453.26 L1116.82 1453.26 L1116.82 1455.25 L1104.28 1487.82 L1099.39 1487.82 L1111.2 1457.19 L1094.6 1457.19 L1094.6 1453.26 Z" fill="#000000" fill-rule="evenodd" fill-opacity="1" /><path clip-path="url(#clip410)" d="M 0 0 M1466.17 1487.1 L1466.17 1482.84 Q1467.93 1483.68 1469.74 1484.12 Q1471.54 1484.56 1473.28 1484.56 Q1477.91 1484.56 1480.34 1481.45 Q1482.79 1478.33 1483.14 1471.99 Q1481.8 1473.98 1479.74 1475.04 Q1477.68 1476.11 1475.18 1476.11 Q1469.99 1476.11 1466.96 1472.98 Q1463.95 1469.83 1463.95 1464.39 Q1463.95 1459.07 1467.1 1455.85 Q1470.25 1452.63 1475.48 1452.63 Q1481.47 1452.63 1484.62 1457.24 Q1487.79 1461.82 1487.79 1470.57 Q1487.79 1478.75 1483.9 1483.63 Q1480.04 1488.49 1473.49 1488.49 Q1471.73 1488.49 1469.92 1488.14 Q1468.12 1487.8 1466.17 1487.1 M1475.48 1472.45 Q1478.62 1472.45 1480.45 1470.3 Q1482.31 1468.14 1482.31 1464.39 Q1482.31 1460.67 1480.45 1458.51 Q1478.62 1456.34 1475.48 1456.34 Q1472.33 1456.34 1470.48 1458.51 Q1468.65 1460.67 1468.65 1464.39 Q1468.65 1468.14 1470.48 1470.3 Q1472.33 1472.45 1475.48 1472.45 Z" fill="#000000" fill-rule="evenodd" fill-opacity="1" /><path clip-path="url(#clip410)" d="M 0 0 M1506.19 1471.41 Q1502.86 1471.41 1500.94 1473.19 Q1499.04 1474.97 1499.04 1478.1 Q1499.04 1481.22 1500.94 1483 Q1502.86 1484.79 1506.19 1484.79 Q1509.53 1484.79 1511.45 1483 Q1513.37 1481.2 1513.37 1478.1 Q1513.37 1474.97 1511.45 1473.19 Q1509.55 1471.41 1506.19 1471.41 M1501.52 1469.42 Q1498.51 1468.68 1496.82 1466.62 Q1495.15 1464.56 1495.15 1461.59 Q1495.15 1457.45 1498.09 1455.04 Q1501.06 1452.63 1506.19 1452.63 Q1511.36 1452.63 1514.3 1455.04 Q1517.24 1457.45 1517.24 1461.59 Q1517.24 1464.56 1515.55 1466.62 Q1513.88 1468.68 1510.89 1469.42 Q1514.27 1470.2 1516.15 1472.5 Q1518.05 1474.79 1518.05 1478.1 Q1518.05 1483.12 1514.97 1485.81 Q1511.91 1488.49 1506.19 1488.49 Q1500.48 1488.49 1497.4 1485.81 Q1494.34 1483.12 1494.34 1478.1 Q1494.34 1474.79 1496.24 1472.5 Q1498.14 1470.2 1501.52 1469.42 M1499.81 1462.03 Q1499.81 1464.72 1501.47 1466.22 Q1503.16 1467.73 1506.19 1467.73 Q1509.2 1467.73 1510.89 1466.22 Q1512.61 1464.72 1512.61 1462.03 Q1512.61 1459.35 1510.89 1457.84 Q1509.2 1456.34 1506.19 1456.34 Q1503.16 1456.34 1501.47 1457.84 Q1499.81 1459.35 1499.81 1462.03 Z" fill="#000000" fill-rule="evenodd" fill-opacity="1" /><path clip-path="url(#clip410)" d="M 0 0 M1867.04 1487.1 L1867.04 1482.84 Q1868.79 1483.68 1870.6 1484.12 Q1872.41 1484.56 1874.14 1484.56 Q1878.77 1484.56 1881.2 1481.45 Q1883.66 1478.33 1884 1471.99 Q1882.66 1473.98 1880.6 1475.04 Q1878.54 1476.11 1876.04 1476.11 Q1870.85 1476.11 1867.82 1472.98 Q1864.81 1469.83 1864.81 1464.39 Q1864.81 1459.07 1867.96 1455.85 Q1871.11 1452.63 1876.34 1452.63 Q1882.34 1452.63 1885.48 1457.24 Q1888.66 1461.82 1888.66 1470.57 Q1888.66 1478.75 1884.77 1483.63 Q1880.9 1488.49 1874.35 1488.49 Q1872.59 1488.49 1870.79 1488.14 Q1868.98 1487.8 1867.04 1487.1 M1876.34 1472.45 Q1879.49 1472.45 1881.32 1470.3 Q1883.17 1468.14 1883.17 1464.39 Q1883.17 1460.67 1881.32 1458.51 Q1879.49 1456.34 1876.34 1456.34 Q1873.19 1456.34 1871.34 1458.51 Q1869.51 1460.67 1869.51 1464.39 Q1869.51 1468.14 1871.34 1470.3 Q1873.19 1472.45 1876.34 1472.45 Z" fill="#000000" fill-rule="evenodd" fill-opacity="1" /><path clip-path="url(#clip410)" d="M 0 0 M1897.2 1487.1 L1897.2 1482.84 Q1898.96 1483.68 1900.76 1484.12 Q1902.57 1484.56 1904.3 1484.56 Q1908.93 1484.56 1911.36 1481.45 Q1913.82 1478.33 1914.16 1471.99 Q1912.82 1473.98 1910.76 1475.04 Q1908.7 1476.11 1906.2 1476.11 Q1901.02 1476.11 1897.98 1472.98 Q1894.98 1469.83 1894.98 1464.39 Q1894.98 1459.07 1898.12 1455.85 Q1901.27 1452.63 1906.5 1452.63 Q1912.5 1452.63 1915.65 1457.24 Q1918.82 1461.82 1918.82 1470.57 Q1918.82 1478.75 1914.93 1483.63 Q1911.06 1488.49 1904.51 1488.49 Q1902.75 1488.49 1900.95 1488.14 Q1899.14 1487.8 1897.2 1487.1 M1906.5 1472.45 Q1909.65 1472.45 1911.48 1470.3 Q1913.33 1468.14 1913.33 1464.39 Q1913.33 1460.67 1911.48 1458.51 Q1909.65 1456.34 1906.5 1456.34 Q1903.35 1456.34 1901.5 1458.51 Q1899.67 1460.67 1899.67 1464.39 Q1899.67 1468.14 1901.5 1470.3 Q1903.35 1472.45 1906.5 1472.45 Z" fill="#000000" fill-rule="evenodd" fill-opacity="1" /><path clip-path="url(#clip410)" d="M 0 0 M2252.24 1483.88 L2259.88 1483.88 L2259.88 1457.52 L2251.57 1459.19 L2251.57 1454.93 L2259.83 1453.26 L2264.51 1453.26 L2264.51 1483.88 L2272.15 1483.88 L2272.15 1487.82 L2252.24 1487.82 L2252.24 1483.88 Z" fill="#000000" fill-rule="evenodd" fill-opacity="1" /><path clip-path="url(#clip410)" d="M 0 0 M2291.59 1456.34 Q2287.98 1456.34 2286.15 1459.9 Q2284.35 1463.44 2284.35 1470.57 Q2284.35 1477.68 2286.15 1481.25 Q2287.98 1484.79 2291.59 1484.79 Q2295.23 1484.79 2297.03 1481.25 Q2298.86 1477.68 2298.86 1470.57 Q2298.86 1463.44 2297.03 1459.9 Q2295.23 1456.34 2291.59 1456.34 M2291.59 1452.63 Q2297.4 1452.63 2300.46 1457.24 Q2303.54 1461.82 2303.54 1470.57 Q2303.54 1479.3 2300.46 1483.91 Q2297.4 1488.49 2291.59 1488.49 Q2285.78 1488.49 2282.7 1483.91 Q2279.65 1479.3 2279.65 1470.57 Q2279.65 1461.82 2282.7 1457.24 Q2285.78 1452.63 2291.59 1452.63 Z" fill="#000000" fill-rule="evenodd" fill-opacity="1" /><path clip-path="url(#clip410)" d="M 0 0 M2321.75 1456.34 Q2318.14 1456.34 2316.31 1459.9 Q2314.51 1463.44 2314.51 1470.57 Q2314.51 1477.68 2316.31 1481.25 Q2318.14 1484.79 2321.75 1484.79 Q2325.39 1484.79 2327.19 1481.25 Q2329.02 1477.68 2329.02 1470.57 Q2329.02 1463.44 2327.19 1459.9 Q2325.39 1456.34 2321.75 1456.34 M2321.75 1452.63 Q2327.56 1452.63 2330.62 1457.24 Q2333.7 1461.82 2333.7 1470.57 Q2333.7 1479.3 2330.62 1483.91 Q2327.56 1488.49 2321.75 1488.49 Q2315.94 1488.49 2312.86 1483.91 Q2309.81 1479.3 2309.81 1470.57 Q2309.81 1461.82 2312.86 1457.24 Q2315.94 1452.63 2321.75 1452.63 Z" fill="#000000" fill-rule="evenodd" fill-opacity="1" /><path clip-path="url(#clip410)" d="M 0 0 M1247.9 1513.53 Q1247.9 1514.14 1247.77 1514.65 L1245.97 1526.12 Q1245.87 1526.99 1245.68 1527.31 Q1245.52 1527.63 1245 1527.63 Q1244.2 1527.63 1244.2 1526.79 Q1244.2 1526.31 1244.39 1525.54 Q1244.94 1521.9 1244.94 1520.26 Q1244.94 1519.16 1244.71 1518.36 Q1244.52 1517.52 1244.2 1516.94 Q1243.91 1516.36 1243.23 1515.97 Q1242.55 1515.59 1241.91 1515.36 Q1241.26 1515.14 1240.11 1515.04 Q1238.95 1514.91 1237.95 1514.88 Q1236.95 1514.85 1235.31 1514.85 Q1231.73 1514.85 1231.15 1514.98 Q1230.54 1515.14 1230.22 1515.62 Q1229.93 1516.07 1229.61 1517.42 L1220.85 1552.43 L1220.59 1553.82 Q1220.59 1554.59 1221.07 1554.85 Q1221.55 1555.1 1223.04 1555.26 Q1225.16 1555.43 1227.25 1555.43 Q1227.32 1555.43 1227.45 1555.43 Q1228.16 1555.43 1228.45 1555.46 Q1228.74 1555.46 1229.03 1555.52 Q1229.32 1555.59 1229.38 1555.75 Q1229.48 1555.88 1229.48 1556.13 Q1229.48 1556.75 1229.22 1557.07 Q1228.96 1557.36 1228.7 1557.42 Q1228.48 1557.45 1228.03 1557.45 Q1227.13 1557.45 1225.19 1557.39 Q1223.26 1557.33 1222.3 1557.33 L1216.82 1557.26 L1211.22 1557.33 Q1210.35 1557.33 1208.51 1557.39 Q1206.68 1557.45 1205.81 1557.45 Q1204.68 1557.45 1204.68 1556.65 Q1204.68 1555.75 1205.1 1555.59 Q1205.55 1555.43 1207.45 1555.43 Q1210.12 1555.43 1211.57 1555.3 Q1213.02 1555.17 1213.79 1554.72 Q1214.6 1554.27 1214.82 1553.82 Q1215.05 1553.33 1215.31 1552.24 L1224.16 1517.04 Q1224.42 1516.26 1224.42 1515.65 Q1224.42 1515.33 1224.32 1515.2 Q1224.26 1515.07 1223.84 1514.98 Q1223.42 1514.85 1222.55 1514.85 L1219.98 1514.85 Q1217.34 1514.85 1215.69 1514.98 Q1214.08 1515.07 1212.54 1515.56 Q1211.02 1516.04 1210.12 1516.71 Q1209.25 1517.39 1208.29 1518.78 Q1207.32 1520.16 1206.61 1521.84 Q1205.93 1523.51 1204.97 1526.25 Q1204.65 1527.15 1204.45 1527.41 Q1204.29 1527.63 1203.84 1527.63 Q1203.52 1527.63 1203.26 1527.44 Q1203.04 1527.21 1203.04 1526.92 Q1203.36 1525.86 1203.42 1525.73 L1207.38 1514.11 Q1207.71 1513.17 1208 1513.01 Q1208.32 1512.82 1209.51 1512.82 L1246.1 1512.82 Q1246.68 1512.82 1246.87 1512.82 Q1247.06 1512.82 1247.38 1512.88 Q1247.71 1512.95 1247.8 1513.11 Q1247.9 1513.27 1247.9 1513.53 Z" fill="#000000" fill-rule="evenodd" fill-opacity="1" /><path clip-path="url(#clip410)" d="M 0 0 M1258.62 1540.97 Q1258.62 1529.82 1262.77 1520.84 Q1264.54 1517.07 1267.02 1513.91 Q1269.5 1510.76 1271.15 1509.37 Q1272.79 1507.99 1273.24 1507.99 Q1273.88 1507.99 1273.92 1508.63 Q1273.92 1508.95 1273.05 1509.76 Q1262.42 1520.58 1262.45 1540.97 Q1262.45 1561.42 1272.79 1571.82 Q1273.92 1572.95 1273.92 1573.3 Q1273.92 1573.94 1273.24 1573.94 Q1272.79 1573.94 1271.21 1572.62 Q1269.63 1571.3 1267.18 1568.28 Q1264.74 1565.25 1262.97 1561.55 Q1258.62 1552.56 1258.62 1540.97 Z" fill="#000000" fill-rule="evenodd" fill-opacity="1" /><path clip-path="url(#clip410)" d="M 0 0 M1283.94 1519.74 Q1283.94 1516.71 1286.07 1514.56 Q1288.23 1512.4 1291.26 1512.4 Q1294.35 1512.4 1296.44 1514.59 Q1298.57 1516.75 1298.57 1519.65 Q1298.57 1522.67 1296.38 1524.83 Q1294.22 1526.99 1291.26 1526.99 Q1288.16 1526.99 1286.04 1524.83 Q1283.94 1522.64 1283.94 1519.74 M1287.97 1516.39 Q1286.59 1517.75 1286.59 1519.74 Q1286.59 1521.71 1287.97 1523.03 Q1289.36 1524.35 1291.26 1524.35 Q1293.16 1524.35 1294.51 1523.03 Q1295.86 1521.71 1295.86 1519.74 Q1295.86 1517.75 1294.48 1516.39 Q1293.09 1515.04 1291.26 1515.04 Q1289.36 1515.04 1287.97 1516.39 Z" fill="#000000" fill-rule="evenodd" fill-opacity="1" /><path clip-path="url(#clip410)" d="M 0 0 M1305.67 1534.91 Q1305.67 1524.96 1312.46 1517.97 Q1319.26 1510.95 1328.6 1510.95 Q1331.5 1510.95 1334.07 1512.01 Q1336.65 1513.08 1337.84 1514.01 Q1339.03 1514.91 1340.74 1516.62 L1344.06 1511.75 Q1344.57 1510.95 1345.09 1510.95 Q1345.64 1510.95 1345.73 1511.27 Q1345.83 1511.56 1345.83 1512.53 L1345.83 1528.18 Q1345.83 1529.24 1345.7 1529.5 Q1345.57 1529.76 1344.77 1529.76 Q1344.12 1529.76 1343.96 1529.56 Q1343.83 1529.37 1343.7 1528.63 Q1342.7 1521.51 1338.74 1517.26 Q1334.81 1513.01 1329.34 1513.01 Q1327.76 1513.01 1325.99 1513.37 Q1324.25 1513.72 1321.71 1515.07 Q1319.19 1516.42 1317.23 1518.68 Q1315.3 1520.9 1313.88 1525.15 Q1312.46 1529.37 1312.46 1534.98 Q1312.46 1540.51 1313.88 1544.77 Q1315.3 1549.02 1317.23 1551.24 Q1319.19 1553.43 1321.71 1554.78 Q1324.25 1556.13 1326.02 1556.52 Q1327.83 1556.88 1329.4 1556.88 Q1335.07 1556.88 1339.42 1552.85 Q1343.77 1548.82 1344.19 1542.03 Q1344.25 1541.71 1344.25 1541.58 Q1344.25 1541.42 1344.31 1541.26 Q1344.38 1541.09 1344.54 1541.03 Q1344.7 1540.97 1344.96 1540.97 Q1345.83 1540.97 1345.83 1542.09 Q1345.83 1548.37 1341 1553.65 Q1336.2 1558.9 1328.6 1558.9 Q1319.23 1558.9 1312.43 1551.95 Q1305.67 1544.99 1305.67 1534.91 Z" fill="#000000" fill-rule="evenodd" fill-opacity="1" /><path clip-path="url(#clip410)" d="M 0 0 M1352.81 1573.3 Q1352.81 1572.98 1353.65 1572.17 Q1364.28 1561.35 1364.28 1540.97 Q1364.28 1520.51 1354.07 1510.18 Q1352.81 1508.99 1352.81 1508.63 Q1352.81 1507.99 1353.46 1507.99 Q1353.91 1507.99 1355.49 1509.31 Q1357.1 1510.63 1359.51 1513.65 Q1361.96 1516.68 1363.76 1520.39 Q1368.11 1529.37 1368.11 1540.97 Q1368.11 1552.11 1363.96 1561.09 Q1362.19 1564.86 1359.71 1568.02 Q1357.23 1571.17 1355.58 1572.56 Q1353.94 1573.94 1353.46 1573.94 Q1352.81 1573.94 1352.81 1573.3 Z" fill="#000000" fill-rule="evenodd" fill-opacity="1" /><polyline clip-path="url(#clip412)" style="stroke:#000000; stroke-width:2; stroke-opacity:0.1; fill:none" points="
  228.421,1388.09 2352.76,1388.09 
  "/>
<polyline clip-path="url(#clip412)" style="stroke:#000000; stroke-width:2; stroke-opacity:0.1; fill:none" points="
  228.421,1098.81 2352.76,1098.81 
  "/>
<polyline clip-path="url(#clip412)" style="stroke:#000000; stroke-width:2; stroke-opacity:0.1; fill:none" points="
  228.421,809.518 2352.76,809.518 
  "/>
<polyline clip-path="url(#clip412)" style="stroke:#000000; stroke-width:2; stroke-opacity:0.1; fill:none" points="
  228.421,520.23 2352.76,520.23 
  "/>
<polyline clip-path="url(#clip412)" style="stroke:#000000; stroke-width:2; stroke-opacity:0.1; fill:none" points="
  228.421,230.942 2352.76,230.942 
  "/>
<polyline clip-path="url(#clip410)" style="stroke:#000000; stroke-width:4; stroke-opacity:1; fill:none" points="
  228.421,1427.15 228.421,47.2441 
  "/>
<polyline clip-path="url(#clip410)" style="stroke:#000000; stroke-width:4; stroke-opacity:1; fill:none" points="
  228.421,1388.09 253.913,1388.09 
  "/>
<polyline clip-path="url(#clip410)" style="stroke:#000000; stroke-width:4; stroke-opacity:1; fill:none" points="
  228.421,1098.81 253.913,1098.81 
  "/>
<polyline clip-path="url(#clip410)" style="stroke:#000000; stroke-width:4; stroke-opacity:1; fill:none" points="
  228.421,809.518 253.913,809.518 
  "/>
<polyline clip-path="url(#clip410)" style="stroke:#000000; stroke-width:4; stroke-opacity:1; fill:none" points="
  228.421,520.23 253.913,520.23 
  "/>
<polyline clip-path="url(#clip410)" style="stroke:#000000; stroke-width:4; stroke-opacity:1; fill:none" points="
  228.421,230.942 253.913,230.942 
  "/>
<path clip-path="url(#clip410)" d="M 0 0 M144.343 1401.44 L160.662 1401.44 L160.662 1405.37 L138.718 1405.37 L138.718 1401.44 Q141.38 1398.68 145.963 1394.05 Q150.57 1389.4 151.75 1388.06 Q153.996 1385.54 154.875 1383.8 Q155.778 1382.04 155.778 1380.35 Q155.778 1377.6 153.834 1375.86 Q151.912 1374.12 148.811 1374.12 Q146.611 1374.12 144.158 1374.89 Q141.727 1375.65 138.949 1377.2 L138.949 1372.48 Q141.774 1371.35 144.227 1370.77 Q146.681 1370.19 148.718 1370.19 Q154.088 1370.19 157.283 1372.87 Q160.477 1375.56 160.477 1380.05 Q160.477 1382.18 159.667 1384.1 Q158.88 1386 156.773 1388.59 Q156.195 1389.26 153.093 1392.48 Q149.991 1395.67 144.343 1401.44 Z" fill="#000000" fill-rule="evenodd" fill-opacity="1" /><path clip-path="url(#clip410)" d="M 0 0 M180.477 1373.89 Q176.866 1373.89 175.037 1377.46 Q173.232 1381 173.232 1388.13 Q173.232 1395.24 175.037 1398.8 Q176.866 1402.34 180.477 1402.34 Q184.111 1402.34 185.917 1398.8 Q187.746 1395.24 187.746 1388.13 Q187.746 1381 185.917 1377.46 Q184.111 1373.89 180.477 1373.89 M180.477 1370.19 Q186.287 1370.19 189.343 1374.8 Q192.421 1379.38 192.421 1388.13 Q192.421 1396.86 189.343 1401.46 Q186.287 1406.05 180.477 1406.05 Q174.667 1406.05 171.588 1401.46 Q168.533 1396.86 168.533 1388.13 Q168.533 1379.38 171.588 1374.8 Q174.667 1370.19 180.477 1370.19 Z" fill="#000000" fill-rule="evenodd" fill-opacity="1" /><path clip-path="url(#clip410)" d="M 0 0 M153.162 1085.6 L141.357 1104.05 L153.162 1104.05 L153.162 1085.6 M151.936 1081.53 L157.815 1081.53 L157.815 1104.05 L162.746 1104.05 L162.746 1107.94 L157.815 1107.94 L157.815 1116.09 L153.162 1116.09 L153.162 1107.94 L137.561 1107.94 L137.561 1103.42 L151.936 1081.53 Z" fill="#000000" fill-rule="evenodd" fill-opacity="1" /><path clip-path="url(#clip410)" d="M 0 0 M180.477 1084.6 Q176.866 1084.6 175.037 1088.17 Q173.232 1091.71 173.232 1098.84 Q173.232 1105.95 175.037 1109.51 Q176.866 1113.05 180.477 1113.05 Q184.111 1113.05 185.917 1109.51 Q187.746 1105.95 187.746 1098.84 Q187.746 1091.71 185.917 1088.17 Q184.111 1084.6 180.477 1084.6 M180.477 1080.9 Q186.287 1080.9 189.343 1085.51 Q192.421 1090.09 192.421 1098.84 Q192.421 1107.57 189.343 1112.17 Q186.287 1116.76 180.477 1116.76 Q174.667 1116.76 171.588 1112.17 Q168.533 1107.57 168.533 1098.84 Q168.533 1090.09 171.588 1085.51 Q174.667 1080.9 180.477 1080.9 Z" fill="#000000" fill-rule="evenodd" fill-opacity="1" /><path clip-path="url(#clip410)" d="M 0 0 M150.894 807.655 Q147.746 807.655 145.894 809.807 Q144.065 811.96 144.065 815.71 Q144.065 819.437 145.894 821.613 Q147.746 823.766 150.894 823.766 Q154.042 823.766 155.871 821.613 Q157.723 819.437 157.723 815.71 Q157.723 811.96 155.871 809.807 Q154.042 807.655 150.894 807.655 M160.176 793.002 L160.176 797.261 Q158.417 796.428 156.611 795.988 Q154.829 795.548 153.07 795.548 Q148.44 795.548 145.986 798.673 Q143.556 801.798 143.209 808.117 Q144.574 806.104 146.635 805.039 Q148.695 803.951 151.172 803.951 Q156.38 803.951 159.389 807.122 Q162.422 810.27 162.422 815.71 Q162.422 821.034 159.273 824.252 Q156.125 827.469 150.894 827.469 Q144.899 827.469 141.727 822.886 Q138.556 818.279 138.556 809.553 Q138.556 801.358 142.445 796.497 Q146.334 791.613 152.885 791.613 Q154.644 791.613 156.426 791.96 Q158.232 792.307 160.176 793.002 Z" fill="#000000" fill-rule="evenodd" fill-opacity="1" /><path clip-path="url(#clip410)" d="M 0 0 M180.477 795.317 Q176.866 795.317 175.037 798.881 Q173.232 802.423 173.232 809.553 Q173.232 816.659 175.037 820.224 Q176.866 823.766 180.477 823.766 Q184.111 823.766 185.917 820.224 Q187.746 816.659 187.746 809.553 Q187.746 802.423 185.917 798.881 Q184.111 795.317 180.477 795.317 M180.477 791.613 Q186.287 791.613 189.343 796.219 Q192.421 800.803 192.421 809.553 Q192.421 818.279 189.343 822.886 Q186.287 827.469 180.477 827.469 Q174.667 827.469 171.588 822.886 Q168.533 818.279 168.533 809.553 Q168.533 800.803 171.588 796.219 Q174.667 791.613 180.477 791.613 Z" fill="#000000" fill-rule="evenodd" fill-opacity="1" /><path clip-path="url(#clip410)" d="M 0 0 M150.315 521.098 Q146.982 521.098 145.061 522.88 Q143.162 524.663 143.162 527.788 Q143.162 530.913 145.061 532.695 Q146.982 534.478 150.315 534.478 Q153.648 534.478 155.57 532.695 Q157.491 530.89 157.491 527.788 Q157.491 524.663 155.57 522.88 Q153.672 521.098 150.315 521.098 M145.639 519.107 Q142.63 518.367 140.94 516.306 Q139.274 514.246 139.274 511.283 Q139.274 507.14 142.213 504.732 Q145.176 502.325 150.315 502.325 Q155.477 502.325 158.417 504.732 Q161.357 507.14 161.357 511.283 Q161.357 514.246 159.667 516.306 Q158 518.367 155.014 519.107 Q158.394 519.894 160.269 522.186 Q162.167 524.478 162.167 527.788 Q162.167 532.811 159.088 535.496 Q156.033 538.181 150.315 538.181 Q144.598 538.181 141.519 535.496 Q138.463 532.811 138.463 527.788 Q138.463 524.478 140.362 522.186 Q142.26 519.894 145.639 519.107 M143.926 511.723 Q143.926 514.408 145.593 515.913 Q147.283 517.417 150.315 517.417 Q153.324 517.417 155.014 515.913 Q156.727 514.408 156.727 511.723 Q156.727 509.038 155.014 507.533 Q153.324 506.029 150.315 506.029 Q147.283 506.029 145.593 507.533 Q143.926 509.038 143.926 511.723 Z" fill="#000000" fill-rule="evenodd" fill-opacity="1" /><path clip-path="url(#clip410)" d="M 0 0 M180.477 506.029 Q176.866 506.029 175.037 509.593 Q173.232 513.135 173.232 520.265 Q173.232 527.371 175.037 530.936 Q176.866 534.478 180.477 534.478 Q184.111 534.478 185.917 530.936 Q187.746 527.371 187.746 520.265 Q187.746 513.135 185.917 509.593 Q184.111 506.029 180.477 506.029 M180.477 502.325 Q186.287 502.325 189.343 506.931 Q192.421 511.515 192.421 520.265 Q192.421 528.991 189.343 533.598 Q186.287 538.181 180.477 538.181 Q174.667 538.181 171.588 533.598 Q168.533 528.991 168.533 520.265 Q168.533 511.515 171.588 506.931 Q174.667 502.325 180.477 502.325 Z" fill="#000000" fill-rule="evenodd" fill-opacity="1" /><path clip-path="url(#clip410)" d="M 0 0 M110.964 244.287 L118.602 244.287 L118.602 217.921 L110.292 219.588 L110.292 215.329 L118.556 213.662 L123.232 213.662 L123.232 244.287 L130.871 244.287 L130.871 248.222 L110.964 248.222 L110.964 244.287 Z" fill="#000000" fill-rule="evenodd" fill-opacity="1" /><path clip-path="url(#clip410)" d="M 0 0 M150.315 216.741 Q146.704 216.741 144.875 220.305 Q143.07 223.847 143.07 230.977 Q143.07 238.083 144.875 241.648 Q146.704 245.19 150.315 245.19 Q153.949 245.19 155.755 241.648 Q157.584 238.083 157.584 230.977 Q157.584 223.847 155.755 220.305 Q153.949 216.741 150.315 216.741 M150.315 213.037 Q156.125 213.037 159.181 217.643 Q162.26 222.227 162.26 230.977 Q162.26 239.703 159.181 244.31 Q156.125 248.893 150.315 248.893 Q144.505 248.893 141.426 244.31 Q138.371 239.703 138.371 230.977 Q138.371 222.227 141.426 217.643 Q144.505 213.037 150.315 213.037 Z" fill="#000000" fill-rule="evenodd" fill-opacity="1" /><path clip-path="url(#clip410)" d="M 0 0 M180.477 216.741 Q176.866 216.741 175.037 220.305 Q173.232 223.847 173.232 230.977 Q173.232 238.083 175.037 241.648 Q176.866 245.19 180.477 245.19 Q184.111 245.19 185.917 241.648 Q187.746 238.083 187.746 230.977 Q187.746 223.847 185.917 220.305 Q184.111 216.741 180.477 216.741 M180.477 213.037 Q186.287 213.037 189.343 217.643 Q192.421 222.227 192.421 230.977 Q192.421 239.703 189.343 244.31 Q186.287 248.893 180.477 248.893 Q174.667 248.893 171.588 244.31 Q168.533 239.703 168.533 230.977 Q168.533 222.227 171.588 217.643 Q174.667 213.037 180.477 213.037 Z" fill="#000000" fill-rule="evenodd" fill-opacity="1" /><path clip-path="url(#clip410)" d="M 0 0 M29.3925 799.416 Q32.9996 799.416 36.3168 802.089 Q39.634 804.73 41.663 809.046 Q43.6597 813.329 43.6597 817.935 L43.6597 829.142 L60.1491 833.232 Q60.2458 833.265 60.6644 833.361 Q61.0509 833.458 61.2763 833.458 Q62.0815 833.458 62.2747 832.459 Q62.468 831.429 62.468 829.142 Q62.468 827.661 62.7256 827.435 Q62.8866 827.307 63.1765 827.307 Q63.6274 827.307 63.9494 827.435 Q64.2393 827.564 64.3359 827.822 Q64.4325 828.047 64.4647 828.208 Q64.4969 828.369 64.4969 828.627 Q64.4969 829.303 64.4325 830.753 Q64.3681 832.17 64.3681 832.91 L64.3037 837.129 L64.4969 845.503 Q64.4969 846.501 63.6918 846.501 Q63.0799 846.501 62.8222 846.244 Q62.5324 845.986 62.5002 845.696 Q62.468 845.406 62.468 844.665 Q62.468 843.055 62.3713 842.089 Q62.2747 841.123 62.1459 840.511 Q61.9849 839.867 61.534 839.545 Q61.0831 839.19 60.6966 839.029 Q60.278 838.868 59.344 838.643 L23.9175 829.819 Q22.8547 829.561 22.6937 829.561 Q22.1462 829.561 21.953 829.883 Q21.7275 830.173 21.6309 831.01 Q21.5021 832.62 21.5021 833.844 Q21.5021 834.649 21.4699 834.972 Q21.4377 835.261 21.2767 835.519 Q21.0834 835.744 20.697 835.744 Q20.085 835.744 19.8274 835.487 Q19.5375 835.197 19.5053 834.875 Q19.4409 834.553 19.4409 833.78 L19.4409 812.395 Q19.4409 806.244 22.3717 802.83 Q25.3024 799.416 29.3925 799.416 M27.8145 805.535 Q21.5021 805.535 21.5021 814.521 L21.5021 820.833 Q21.5021 822.927 21.8886 823.442 Q22.2428 823.957 24.0142 824.408 L41.9528 828.885 L41.9528 819.577 Q41.9528 813.329 38.4424 809.432 Q36.8321 807.661 33.4827 806.598 Q30.1333 805.535 27.8145 805.535 Z" fill="#000000" fill-rule="evenodd" fill-opacity="1" /><path clip-path="url(#clip410)" d="M 0 0 M48.0075 787.156 Q36.8643 787.156 27.8789 783.001 Q24.1108 781.23 20.9546 778.75 Q17.7984 776.27 16.4136 774.628 Q15.0287 772.985 15.0287 772.534 Q15.0287 771.89 15.6728 771.858 Q15.9949 771.858 16.8 772.727 Q27.6212 783.355 48.0075 783.323 Q68.4582 783.323 78.8607 772.985 Q79.9879 771.858 80.3422 771.858 Q80.9863 771.858 80.9863 772.534 Q80.9863 772.985 79.6659 774.563 Q78.3454 776.141 75.3181 778.589 Q72.2907 781.037 68.5871 782.808 Q59.6016 787.156 48.0075 787.156 Z" fill="#000000" fill-rule="evenodd" fill-opacity="1" /><path clip-path="url(#clip410)" d="M 0 0 M64.4969 761.828 L62.468 761.828 Q62.468 758.318 62.0493 757.513 Q61.5984 756.675 59.4728 756.675 L25.1736 756.675 Q22.7259 756.675 22.114 757.545 Q21.5021 758.382 21.5021 761.828 L19.4409 761.828 L18.7324 752.328 L50.3908 752.328 L42.3393 743.02 Q41.0833 741.571 39.7628 741.571 Q38.2492 741.571 38.1203 743.471 L36.0592 743.471 Q36.2524 740.701 36.2524 736.096 Q36.2524 733.391 36.0592 731.49 L38.1203 731.49 Q38.3136 735.645 41.663 739.799 Q42.4037 740.733 44.3361 742.956 Q46.2362 745.146 46.4294 745.146 Q46.4939 745.146 46.6549 745.081 Q46.8159 744.985 46.9447 744.856 Q47.0736 744.727 47.138 744.727 L58.9575 736.353 Q61.3408 734.647 61.9205 733.391 Q62.468 732.134 62.468 729.944 L64.4969 729.944 Q64.3037 732.779 64.3037 735.709 Q64.3037 737.287 64.4969 742.827 L62.468 742.827 Q62.468 740.444 60.9221 740.444 Q59.8593 740.444 52.4841 745.79 Q51.9688 746.176 50.8416 747.046 Q49.65 747.851 49.0703 748.302 L52.6774 752.521 L59.4728 752.521 Q61.5984 752.521 62.0493 751.716 Q62.468 750.878 62.468 747.368 L64.4969 747.368 Q64.3037 751.329 64.3037 754.614 Q64.3037 755.291 64.4969 761.828 Z" fill="#000000" fill-rule="evenodd" fill-opacity="1" /><path clip-path="url(#clip410)" d="M 0 0 M64.4969 727.41 L62.468 727.41 L62.468 725.832 Q62.468 722.257 61.8883 721.452 Q61.2763 720.614 59.344 720.614 L24.5939 720.614 Q22.6937 720.614 22.114 721.452 Q21.5021 722.289 21.5021 725.832 L21.5021 727.41 L19.4409 727.41 L19.4409 704.125 Q19.4409 697.458 23.1124 693.014 Q26.7839 688.57 31.7114 688.57 Q36.6067 688.57 40.1493 693.111 Q43.6597 697.619 43.6597 703.61 L43.6597 714.753 L59.344 714.753 Q61.2441 714.753 61.856 713.948 Q62.468 713.11 62.468 709.536 L62.468 707.957 L64.4969 707.957 Q64.3037 710.276 64.3037 717.716 Q64.3037 725.091 64.4969 727.41 M41.9528 714.946 L41.9528 705.864 Q41.9528 702.901 41.1155 700.743 Q40.2781 698.586 39.2797 697.619 Q38.2492 696.621 36.6067 696.074 Q34.9319 695.494 34.0302 695.429 Q33.0962 695.365 31.7114 695.365 Q30.2621 695.365 29.3603 695.429 Q28.4264 695.494 26.7839 696.074 Q25.1092 696.621 24.1108 697.619 Q23.0802 698.586 22.3072 700.743 Q21.5021 702.869 21.5021 705.864 L21.5021 711.726 Q21.5021 713.98 21.953 714.463 Q22.4039 714.946 24.143 714.946 L41.9528 714.946 Z" fill="#000000" fill-rule="evenodd" fill-opacity="1" /><path clip-path="url(#clip410)" d="M 0 0 M58.2168 685.882 Q52.613 685.882 49.65 679.28 Q47.7499 675.319 47.2668 667.138 L44.8514 667.138 Q40.7612 667.138 38.6034 669.296 Q36.4134 671.422 36.4134 674.127 Q36.4134 678.958 39.4408 681.277 Q39.5052 679.312 40.5036 678.604 Q41.4697 677.895 42.4681 677.895 Q43.7886 677.895 44.6581 678.732 Q45.4955 679.538 45.4955 680.922 Q45.4955 682.243 44.6903 683.112 Q43.853 683.982 42.4037 683.982 Q39.1831 683.982 37.0575 681.083 Q34.9319 678.153 34.9319 673.998 Q34.9319 668.588 38.5712 664.981 Q39.6984 663.853 41.1477 663.306 Q42.5969 662.726 43.5631 662.662 Q44.4971 662.597 46.365 662.597 L59.5372 662.597 Q59.9237 662.597 60.5678 662.468 Q61.2119 662.34 62.0493 661.76 Q62.8544 661.148 62.8544 660.15 Q62.8544 657.766 58.6355 657.799 L54.9318 657.799 L54.9318 656.124 L58.6355 656.124 Q62.1459 656.124 63.5308 657.992 Q64.8834 659.828 64.8834 661.534 Q64.8834 663.724 63.2731 665.109 Q61.6628 666.494 59.4728 666.687 Q61.9849 667.686 63.6274 669.972 Q65.2377 672.227 65.2377 675.319 Q65.2377 677.702 64.6258 679.956 Q64.046 682.178 62.4035 684.046 Q60.7288 685.882 58.2168 685.882 M58.1524 680.794 Q60.6 680.794 62.1781 679.054 Q63.7562 677.315 63.7562 674.868 Q63.7562 672.098 61.6306 669.618 Q59.4728 667.138 55.2538 667.138 L48.6516 667.138 Q48.9093 674.449 51.84 677.637 Q54.7386 680.794 58.1524 680.794 Z" fill="#000000" fill-rule="evenodd" fill-opacity="1" /><path clip-path="url(#clip410)" d="M 0 0 M80.3422 653.218 Q80.0202 653.218 79.215 652.381 Q68.3938 641.753 48.0075 641.753 Q27.5568 641.753 17.2187 651.962 Q16.0271 653.218 15.6728 653.218 Q15.0287 653.218 15.0287 652.574 Q15.0287 652.123 16.3492 650.545 Q17.6696 648.935 20.697 646.519 Q23.7243 644.072 27.428 642.268 Q36.4134 637.92 48.0075 637.92 Q59.1508 637.92 68.1362 642.075 Q71.9043 643.846 75.0605 646.326 Q78.2166 648.806 79.6015 650.448 Q80.9863 652.091 80.9863 652.574 Q80.9863 653.218 80.3422 653.218 Z" fill="#000000" fill-rule="evenodd" fill-opacity="1" /><polyline clip-path="url(#clip412)" style="stroke:#009af9; stroke-width:4; stroke-opacity:1; fill:none" points="
  288.544,1388.09 2292.63,86.298 
  "/>
</svg>