<?xml version="1.0" encoding="utf-8"?>
<svg xmlns="http://www.w3.org/2000/svg" xmlns:xlink="http://www.w3.org/1999/xlink" width="525" height="350" viewBox="0 0 2100 1400">
<defs>
  <clipPath id="clip960">
    <rect x="0" y="0" width="2100" height="1400"/>
  </clipPath>
</defs>
<path clip-path="url(#clip960)" d="
M0 1400 L2100 1400 L2100 0 L0 0  Z
  " fill="#ffffff" fill-rule="evenodd" fill-opacity="1"/>
<defs>
  <clipPath id="clip961">
    <rect x="420" y="0" width="1471" height="1400"/>
  </clipPath>
</defs>
<path clip-path="url(#clip960)" d="
M227.282 1234.53 L2058.66 1234.53 L2058.66 41.3386 L227.282 41.3386  Z
  " fill="#ffffff" fill-rule="evenodd" fill-opacity="1"/>
<defs>
  <clipPath id="clip962">
    <rect x="227" y="41" width="1832" height="1194"/>
  </clipPath>
</defs>
<polyline clip-path="url(#clip962)" style="stroke:#000000; stroke-width:1.75; stroke-opacity:0.1; fill:none" points="
  279.113,1234.53 279.113,41.3386 
  "/>
<polyline clip-path="url(#clip962)" style="stroke:#000000; stroke-width:1.75; stroke-opacity:0.1; fill:none" points="
  599.183,1234.53 599.183,41.3386 
  "/>
<polyline clip-path="url(#clip962)" style="stroke:#000000; stroke-width:1.75; stroke-opacity:0.1; fill:none" points="
  919.252,1234.53 919.252,41.3386 
  "/>
<polyline clip-path="url(#clip962)" style="stroke:#000000; stroke-width:1.75; stroke-opacity:0.1; fill:none" points="
  1239.32,1234.53 1239.32,41.3386 
  "/>
<polyline clip-path="url(#clip962)" style="stroke:#000000; stroke-width:1.75; stroke-opacity:0.1; fill:none" points="
  1559.39,1234.53 1559.39,41.3386 
  "/>
<polyline clip-path="url(#clip962)" style="stroke:#000000; stroke-width:1.75; stroke-opacity:0.1; fill:none" points="
  1879.46,1234.53 1879.46,41.3386 
  "/>
<polyline clip-path="url(#clip960)" style="stroke:#000000; stroke-width:3.5; stroke-opacity:1; fill:none" points="
  227.282,1234.53 2058.66,1234.53 
  "/>
<polyline clip-path="url(#clip960)" style="stroke:#000000; stroke-width:3.5; stroke-opacity:1; fill:none" points="
  279.113,1234.53 279.113,1220.22 
  "/>
<polyline clip-path="url(#clip960)" style="stroke:#000000; stroke-width:3.5; stroke-opacity:1; fill:none" points="
  599.183,1234.53 599.183,1220.22 
  "/>
<polyline clip-path="url(#clip960)" style="stroke:#000000; stroke-width:3.5; stroke-opacity:1; fill:none" points="
  919.252,1234.53 919.252,1220.22 
  "/>
<polyline clip-path="url(#clip960)" style="stroke:#000000; stroke-width:3.5; stroke-opacity:1; fill:none" points="
  1239.32,1234.53 1239.32,1220.22 
  "/>
<polyline clip-path="url(#clip960)" style="stroke:#000000; stroke-width:3.5; stroke-opacity:1; fill:none" points="
  1559.39,1234.53 1559.39,1220.22 
  "/>
<polyline clip-path="url(#clip960)" style="stroke:#000000; stroke-width:3.5; stroke-opacity:1; fill:none" points="
  1879.46,1234.53 1879.46,1220.22 
  "/>
<path clip-path="url(#clip960)" d="M 0 0 M226.154 1303.02 L232.838 1303.02 L232.838 1279.95 L225.567 1281.41 L225.567 1277.68 L232.798 1276.23 L236.889 1276.23 L236.889 1303.02 L243.573 1303.02 L243.573 1306.47 L226.154 1306.47 L226.154 1303.02 Z" fill="#000000" fill-rule="evenodd" fill-opacity="1" /><path clip-path="url(#clip960)" d="M 0 0 M256.759 1278.92 Q253.599 1278.92 251.999 1282.04 Q250.419 1285.14 250.419 1291.38 Q250.419 1297.59 251.999 1300.71 Q253.599 1303.81 256.759 1303.81 Q259.939 1303.81 261.519 1300.71 Q263.119 1297.59 263.119 1291.38 Q263.119 1285.14 261.519 1282.04 Q259.939 1278.92 256.759 1278.92 M256.759 1275.68 Q261.843 1275.68 264.516 1279.71 Q267.21 1283.72 267.21 1291.38 Q267.21 1299.01 264.516 1303.04 Q261.843 1307.05 256.759 1307.05 Q251.675 1307.05 248.981 1303.04 Q246.308 1299.01 246.308 1291.38 Q246.308 1283.72 248.981 1279.71 Q251.675 1275.68 256.759 1275.68 Z" fill="#000000" fill-rule="evenodd" fill-opacity="1" /><path clip-path="url(#clip960)" d="M 0 0 M267.21 1270.52 L288.308 1270.52 L288.308 1273.32 L267.21 1273.32 L267.21 1270.52 Z" fill="#000000" fill-rule="evenodd" fill-opacity="1" /><path clip-path="url(#clip960)" d="M 0 0 M294.775 1279.68 L306.378 1279.68 L306.378 1282.48 L290.776 1282.48 L290.776 1279.68 Q292.669 1277.73 295.927 1274.43 Q299.202 1271.13 300.042 1270.17 Q301.638 1268.38 302.263 1267.14 Q302.905 1265.89 302.905 1264.69 Q302.905 1262.73 301.523 1261.5 Q300.157 1260.27 297.952 1260.27 Q296.388 1260.27 294.644 1260.81 Q292.916 1261.35 290.941 1262.45 L290.941 1259.1 Q292.949 1258.29 294.693 1257.88 Q296.438 1257.47 297.886 1257.47 Q301.704 1257.47 303.975 1259.38 Q306.246 1261.29 306.246 1264.48 Q306.246 1265.99 305.67 1267.36 Q305.11 1268.71 303.613 1270.55 Q303.201 1271.03 300.996 1273.32 Q298.791 1275.59 294.775 1279.68 Z" fill="#000000" fill-rule="evenodd" fill-opacity="1" /><path clip-path="url(#clip960)" d="M 0 0 M309.982 1278.3 L313.454 1278.3 L313.454 1282.48 L309.982 1282.48 L309.982 1278.3 Z" fill="#000000" fill-rule="evenodd" fill-opacity="1" /><path clip-path="url(#clip960)" d="M 0 0 M324.167 1260.1 Q321.6 1260.1 320.3 1262.63 Q319.016 1265.15 319.016 1270.22 Q319.016 1275.27 320.3 1277.81 Q321.6 1280.33 324.167 1280.33 Q326.751 1280.33 328.035 1277.81 Q329.335 1275.27 329.335 1270.22 Q329.335 1265.15 328.035 1262.63 Q326.751 1260.1 324.167 1260.1 M324.167 1257.47 Q328.298 1257.47 330.47 1260.74 Q332.659 1264 332.659 1270.22 Q332.659 1276.43 330.47 1279.7 Q328.298 1282.96 324.167 1282.96 Q320.037 1282.96 317.848 1279.7 Q315.676 1276.43 315.676 1270.22 Q315.676 1264 317.848 1260.74 Q320.037 1257.47 324.167 1257.47 Z" fill="#000000" fill-rule="evenodd" fill-opacity="1" /><path clip-path="url(#clip960)" d="M 0 0 M546.446 1303.02 L553.13 1303.02 L553.13 1279.95 L545.859 1281.41 L545.859 1277.68 L553.09 1276.23 L557.181 1276.23 L557.181 1303.02 L563.865 1303.02 L563.865 1306.47 L546.446 1306.47 L546.446 1303.02 Z" fill="#000000" fill-rule="evenodd" fill-opacity="1" /><path clip-path="url(#clip960)" d="M 0 0 M577.051 1278.92 Q573.891 1278.92 572.291 1282.04 Q570.711 1285.14 570.711 1291.38 Q570.711 1297.59 572.291 1300.71 Q573.891 1303.81 577.051 1303.81 Q580.231 1303.81 581.811 1300.71 Q583.411 1297.59 583.411 1291.38 Q583.411 1285.14 581.811 1282.04 Q580.231 1278.92 577.051 1278.92 M577.051 1275.68 Q582.135 1275.68 584.808 1279.71 Q587.502 1283.72 587.502 1291.38 Q587.502 1299.01 584.808 1303.04 Q582.135 1307.05 577.051 1307.05 Q571.967 1307.05 569.273 1303.04 Q566.6 1299.01 566.6 1291.38 Q566.6 1283.72 569.273 1279.71 Q571.967 1275.68 577.051 1275.68 Z" fill="#000000" fill-rule="evenodd" fill-opacity="1" /><path clip-path="url(#clip960)" d="M 0 0 M587.502 1270.52 L608.6 1270.52 L608.6 1273.32 L587.502 1273.32 L587.502 1270.52 Z" fill="#000000" fill-rule="evenodd" fill-opacity="1" /><path clip-path="url(#clip960)" d="M 0 0 M612.78 1279.68 L618.211 1279.68 L618.211 1260.94 L612.303 1262.12 L612.303 1259.1 L618.178 1257.91 L621.502 1257.91 L621.502 1279.68 L626.933 1279.68 L626.933 1282.48 L612.78 1282.48 L612.78 1279.68 Z" fill="#000000" fill-rule="evenodd" fill-opacity="1" /><path clip-path="url(#clip960)" d="M 0 0 M630.537 1278.3 L634.009 1278.3 L634.009 1282.48 L630.537 1282.48 L630.537 1278.3 Z" fill="#000000" fill-rule="evenodd" fill-opacity="1" /><path clip-path="url(#clip960)" d="M 0 0 M637.646 1257.91 L650.696 1257.91 L650.696 1260.71 L640.691 1260.71 L640.691 1266.73 Q641.415 1266.49 642.139 1266.37 Q642.863 1266.24 643.587 1266.24 Q647.701 1266.24 650.104 1268.49 Q652.507 1270.75 652.507 1274.6 Q652.507 1278.57 650.038 1280.77 Q647.569 1282.96 643.077 1282.96 Q641.53 1282.96 639.917 1282.7 Q638.321 1282.43 636.609 1281.91 L636.609 1278.57 Q638.09 1279.37 639.67 1279.77 Q641.25 1280.16 643.011 1280.16 Q645.858 1280.16 647.52 1278.66 Q649.182 1277.17 649.182 1274.6 Q649.182 1272.03 647.52 1270.53 Q645.858 1269.04 643.011 1269.04 Q641.678 1269.04 640.345 1269.33 Q639.028 1269.63 637.646 1270.25 L637.646 1257.91 Z" fill="#000000" fill-rule="evenodd" fill-opacity="1" /><path clip-path="url(#clip960)" d="M 0 0 M866.162 1303.02 L872.846 1303.02 L872.846 1279.95 L865.575 1281.41 L865.575 1277.68 L872.806 1276.23 L876.897 1276.23 L876.897 1303.02 L883.581 1303.02 L883.581 1306.47 L866.162 1306.47 L866.162 1303.02 Z" fill="#000000" fill-rule="evenodd" fill-opacity="1" /><path clip-path="url(#clip960)" d="M 0 0 M896.767 1278.92 Q893.607 1278.92 892.007 1282.04 Q890.427 1285.14 890.427 1291.38 Q890.427 1297.59 892.007 1300.71 Q893.607 1303.81 896.767 1303.81 Q899.947 1303.81 901.527 1300.71 Q903.127 1297.59 903.127 1291.38 Q903.127 1285.14 901.527 1282.04 Q899.947 1278.92 896.767 1278.92 M896.767 1275.68 Q901.851 1275.68 904.524 1279.71 Q907.218 1283.72 907.218 1291.38 Q907.218 1299.01 904.524 1303.04 Q901.851 1307.05 896.767 1307.05 Q891.683 1307.05 888.989 1303.04 Q886.315 1299.01 886.315 1291.38 Q886.315 1283.72 888.989 1279.71 Q891.683 1275.68 896.767 1275.68 Z" fill="#000000" fill-rule="evenodd" fill-opacity="1" /><path clip-path="url(#clip960)" d="M 0 0 M907.218 1270.52 L928.316 1270.52 L928.316 1273.32 L907.218 1273.32 L907.218 1270.52 Z" fill="#000000" fill-rule="evenodd" fill-opacity="1" /><path clip-path="url(#clip960)" d="M 0 0 M932.496 1279.68 L937.926 1279.68 L937.926 1260.94 L932.018 1262.12 L932.018 1259.1 L937.893 1257.91 L941.218 1257.91 L941.218 1279.68 L946.649 1279.68 L946.649 1282.48 L932.496 1282.48 L932.496 1279.68 Z" fill="#000000" fill-rule="evenodd" fill-opacity="1" /><path clip-path="url(#clip960)" d="M 0 0 M950.253 1278.3 L953.725 1278.3 L953.725 1282.48 L950.253 1282.48 L950.253 1278.3 Z" fill="#000000" fill-rule="evenodd" fill-opacity="1" /><path clip-path="url(#clip960)" d="M 0 0 M964.438 1260.1 Q961.871 1260.1 960.571 1262.63 Q959.287 1265.15 959.287 1270.22 Q959.287 1275.27 960.571 1277.81 Q961.871 1280.33 964.438 1280.33 Q967.022 1280.33 968.306 1277.81 Q969.606 1275.27 969.606 1270.22 Q969.606 1265.15 968.306 1262.63 Q967.022 1260.1 964.438 1260.1 M964.438 1257.47 Q968.569 1257.47 970.741 1260.74 Q972.93 1264 972.93 1270.22 Q972.93 1276.43 970.741 1279.7 Q968.569 1282.96 964.438 1282.96 Q960.308 1282.96 958.119 1279.7 Q955.947 1276.43 955.947 1270.22 Q955.947 1264 958.119 1260.74 Q960.308 1257.47 964.438 1257.47 Z" fill="#000000" fill-rule="evenodd" fill-opacity="1" /><path clip-path="url(#clip960)" d="M 0 0 M1186.15 1303.02 L1192.83 1303.02 L1192.83 1279.95 L1185.56 1281.41 L1185.56 1277.68 L1192.79 1276.23 L1196.88 1276.23 L1196.88 1303.02 L1203.57 1303.02 L1203.57 1306.47 L1186.15 1306.47 L1186.15 1303.02 Z" fill="#000000" fill-rule="evenodd" fill-opacity="1" /><path clip-path="url(#clip960)" d="M 0 0 M1216.75 1278.92 Q1213.59 1278.92 1211.99 1282.04 Q1210.41 1285.14 1210.41 1291.38 Q1210.41 1297.59 1211.99 1300.71 Q1213.59 1303.81 1216.75 1303.81 Q1219.93 1303.81 1221.51 1300.71 Q1223.11 1297.59 1223.11 1291.38 Q1223.11 1285.14 1221.51 1282.04 Q1219.93 1278.92 1216.75 1278.92 M1216.75 1275.68 Q1221.84 1275.68 1224.51 1279.71 Q1227.21 1283.72 1227.21 1291.38 Q1227.21 1299.01 1224.51 1303.04 Q1221.84 1307.05 1216.75 1307.05 Q1211.67 1307.05 1208.98 1303.04 Q1206.3 1299.01 1206.3 1291.38 Q1206.3 1283.72 1208.98 1279.71 Q1211.67 1275.68 1216.75 1275.68 Z" fill="#000000" fill-rule="evenodd" fill-opacity="1" /><path clip-path="url(#clip960)" d="M 0 0 M1227.21 1270.52 L1248.3 1270.52 L1248.3 1273.32 L1227.21 1273.32 L1227.21 1270.52 Z" fill="#000000" fill-rule="evenodd" fill-opacity="1" /><path clip-path="url(#clip960)" d="M 0 0 M1259.02 1260.1 Q1256.45 1260.1 1255.15 1262.63 Q1253.87 1265.15 1253.87 1270.22 Q1253.87 1275.27 1255.15 1277.81 Q1256.45 1280.33 1259.02 1280.33 Q1261.6 1280.33 1262.88 1277.81 Q1264.18 1275.27 1264.18 1270.22 Q1264.18 1265.15 1262.88 1262.63 Q1261.6 1260.1 1259.02 1260.1 M1259.02 1257.47 Q1263.15 1257.47 1265.32 1260.74 Q1267.51 1264 1267.51 1270.22 Q1267.51 1276.43 1265.32 1279.7 Q1263.15 1282.96 1259.02 1282.96 Q1254.89 1282.96 1252.7 1279.7 Q1250.52 1276.43 1250.52 1270.22 Q1250.52 1264 1252.7 1260.74 Q1254.89 1257.47 1259.02 1257.47 Z" fill="#000000" fill-rule="evenodd" fill-opacity="1" /><path clip-path="url(#clip960)" d="M 0 0 M1271.11 1278.3 L1274.58 1278.3 L1274.58 1282.48 L1271.11 1282.48 L1271.11 1278.3 Z" fill="#000000" fill-rule="evenodd" fill-opacity="1" /><path clip-path="url(#clip960)" d="M 0 0 M1278.22 1257.91 L1291.27 1257.91 L1291.27 1260.71 L1281.27 1260.71 L1281.27 1266.73 Q1281.99 1266.49 1282.71 1266.37 Q1283.44 1266.24 1284.16 1266.24 Q1288.28 1266.24 1290.68 1268.49 Q1293.08 1270.75 1293.08 1274.6 Q1293.08 1278.57 1290.61 1280.77 Q1288.14 1282.96 1283.65 1282.96 Q1282.11 1282.96 1280.49 1282.7 Q1278.9 1282.43 1277.18 1281.91 L1277.18 1278.57 Q1278.67 1279.37 1280.25 1279.77 Q1281.83 1280.16 1283.59 1280.16 Q1286.43 1280.16 1288.1 1278.66 Q1289.76 1277.17 1289.76 1274.6 Q1289.76 1272.03 1288.1 1270.53 Q1286.43 1269.04 1283.59 1269.04 Q1282.25 1269.04 1280.92 1269.33 Q1279.6 1269.63 1278.22 1270.25 L1278.22 1257.91 Z" fill="#000000" fill-rule="evenodd" fill-opacity="1" /><path clip-path="url(#clip960)" d="M 0 0 M1517.52 1303.02 L1524.21 1303.02 L1524.21 1279.95 L1516.94 1281.41 L1516.94 1277.68 L1524.17 1276.23 L1528.26 1276.23 L1528.26 1303.02 L1534.94 1303.02 L1534.94 1306.47 L1517.52 1306.47 L1517.52 1303.02 Z" fill="#000000" fill-rule="evenodd" fill-opacity="1" /><path clip-path="url(#clip960)" d="M 0 0 M1548.13 1278.92 Q1544.97 1278.92 1543.37 1282.04 Q1541.79 1285.14 1541.79 1291.38 Q1541.79 1297.59 1543.37 1300.71 Q1544.97 1303.81 1548.13 1303.81 Q1551.31 1303.81 1552.89 1300.71 Q1554.49 1297.59 1554.49 1291.38 Q1554.49 1285.14 1552.89 1282.04 Q1551.31 1278.92 1548.13 1278.92 M1548.13 1275.68 Q1553.21 1275.68 1555.89 1279.71 Q1558.58 1283.72 1558.58 1291.38 Q1558.58 1299.01 1555.89 1303.04 Q1553.21 1307.05 1548.13 1307.05 Q1543.05 1307.05 1540.35 1303.04 Q1537.68 1299.01 1537.68 1291.38 Q1537.68 1283.72 1540.35 1279.71 Q1543.05 1275.68 1548.13 1275.68 Z" fill="#000000" fill-rule="evenodd" fill-opacity="1" /><path clip-path="url(#clip960)" d="M 0 0 M1567.07 1260.1 Q1564.51 1260.1 1563.21 1262.63 Q1561.92 1265.15 1561.92 1270.22 Q1561.92 1275.27 1563.21 1277.81 Q1564.51 1280.33 1567.07 1280.33 Q1569.66 1280.33 1570.94 1277.81 Q1572.24 1275.27 1572.24 1270.22 Q1572.24 1265.15 1570.94 1262.63 Q1569.66 1260.1 1567.07 1260.1 M1567.07 1257.47 Q1571.2 1257.47 1573.38 1260.74 Q1575.56 1264 1575.56 1270.22 Q1575.56 1276.43 1573.38 1279.7 Q1571.2 1282.96 1567.07 1282.96 Q1562.94 1282.96 1560.75 1279.7 Q1558.58 1276.43 1558.58 1270.22 Q1558.58 1264 1560.75 1260.74 Q1562.94 1257.47 1567.07 1257.47 Z" fill="#000000" fill-rule="evenodd" fill-opacity="1" /><path clip-path="url(#clip960)" d="M 0 0 M1579.17 1278.3 L1582.64 1278.3 L1582.64 1282.48 L1579.17 1282.48 L1579.17 1278.3 Z" fill="#000000" fill-rule="evenodd" fill-opacity="1" /><path clip-path="url(#clip960)" d="M 0 0 M1593.35 1260.1 Q1590.79 1260.1 1589.49 1262.63 Q1588.2 1265.15 1588.2 1270.22 Q1588.2 1275.27 1589.49 1277.81 Q1590.79 1280.33 1593.35 1280.33 Q1595.94 1280.33 1597.22 1277.81 Q1598.52 1275.27 1598.52 1270.22 Q1598.52 1265.15 1597.22 1262.63 Q1595.94 1260.1 1593.35 1260.1 M1593.35 1257.47 Q1597.48 1257.47 1599.66 1260.74 Q1601.85 1264 1601.85 1270.22 Q1601.85 1276.43 1599.66 1279.7 Q1597.48 1282.96 1593.35 1282.96 Q1589.22 1282.96 1587.03 1279.7 Q1584.86 1276.43 1584.86 1270.22 Q1584.86 1264 1587.03 1260.74 Q1589.22 1257.47 1593.35 1257.47 Z" fill="#000000" fill-rule="evenodd" fill-opacity="1" /><path clip-path="url(#clip960)" d="M 0 0 M1837.95 1303.02 L1844.63 1303.02 L1844.63 1279.95 L1837.36 1281.41 L1837.36 1277.68 L1844.59 1276.23 L1848.68 1276.23 L1848.68 1303.02 L1855.37 1303.02 L1855.37 1306.47 L1837.95 1306.47 L1837.95 1303.02 Z" fill="#000000" fill-rule="evenodd" fill-opacity="1" /><path clip-path="url(#clip960)" d="M 0 0 M1868.55 1278.92 Q1865.39 1278.92 1863.79 1282.04 Q1862.21 1285.14 1862.21 1291.38 Q1862.21 1297.59 1863.79 1300.71 Q1865.39 1303.81 1868.55 1303.81 Q1871.73 1303.81 1873.31 1300.71 Q1874.91 1297.59 1874.91 1291.38 Q1874.91 1285.14 1873.31 1282.04 Q1871.73 1278.92 1868.55 1278.92 M1868.55 1275.68 Q1873.64 1275.68 1876.31 1279.71 Q1879 1283.72 1879 1291.38 Q1879 1299.01 1876.31 1303.04 Q1873.64 1307.05 1868.55 1307.05 Q1863.47 1307.05 1860.78 1303.04 Q1858.1 1299.01 1858.1 1291.38 Q1858.1 1283.72 1860.78 1279.71 Q1863.47 1275.68 1868.55 1275.68 Z" fill="#000000" fill-rule="evenodd" fill-opacity="1" /><path clip-path="url(#clip960)" d="M 0 0 M1887.5 1260.1 Q1884.93 1260.1 1883.63 1262.63 Q1882.35 1265.15 1882.35 1270.22 Q1882.35 1275.27 1883.63 1277.81 Q1884.93 1280.33 1887.5 1280.33 Q1890.08 1280.33 1891.36 1277.81 Q1892.66 1275.27 1892.66 1270.22 Q1892.66 1265.15 1891.36 1262.63 Q1890.08 1260.1 1887.5 1260.1 M1887.5 1257.47 Q1891.63 1257.47 1893.8 1260.74 Q1895.99 1264 1895.99 1270.22 Q1895.99 1276.43 1893.8 1279.7 Q1891.63 1282.96 1887.5 1282.96 Q1883.37 1282.96 1881.18 1279.7 Q1879 1276.43 1879 1270.22 Q1879 1264 1881.18 1260.74 Q1883.37 1257.47 1887.5 1257.47 Z" fill="#000000" fill-rule="evenodd" fill-opacity="1" /><path clip-path="url(#clip960)" d="M 0 0 M1899.59 1278.3 L1903.06 1278.3 L1903.06 1282.48 L1899.59 1282.48 L1899.59 1278.3 Z" fill="#000000" fill-rule="evenodd" fill-opacity="1" /><path clip-path="url(#clip960)" d="M 0 0 M1906.7 1257.91 L1919.75 1257.91 L1919.75 1260.71 L1909.75 1260.71 L1909.75 1266.73 Q1910.47 1266.49 1911.19 1266.37 Q1911.92 1266.24 1912.64 1266.24 Q1916.76 1266.24 1919.16 1268.49 Q1921.56 1270.75 1921.56 1274.6 Q1921.56 1278.57 1919.09 1280.77 Q1916.62 1282.96 1912.13 1282.96 Q1910.58 1282.96 1908.97 1282.7 Q1907.38 1282.43 1905.66 1281.91 L1905.66 1278.57 Q1907.15 1279.37 1908.73 1279.77 Q1910.31 1280.16 1912.07 1280.16 Q1914.91 1280.16 1916.58 1278.66 Q1918.24 1277.17 1918.24 1274.6 Q1918.24 1272.03 1916.58 1270.53 Q1914.91 1269.04 1912.07 1269.04 Q1910.73 1269.04 1909.4 1269.33 Q1908.08 1269.63 1906.7 1270.25 L1906.7 1257.91 Z" fill="#000000" fill-rule="evenodd" fill-opacity="1" /><path clip-path="url(#clip960)" d="M 0 0 M1124.84 1378.22 Q1113.28 1378.22 1113.28 1361.68 Q1113.28 1355.13 1117.6 1346.22 L1123.11 1346.22 Q1119.13 1355.13 1119.13 1361.82 Q1119.13 1373.88 1125.31 1373.88 Q1130.97 1373.88 1130.97 1358.89 L1135.7 1358.89 Q1135.7 1373.88 1141.36 1373.88 Q1147.54 1373.88 1147.54 1361.82 Q1147.54 1355.13 1143.56 1346.22 L1149.07 1346.22 Q1153.39 1355.13 1153.39 1361.68 Q1153.39 1378.22 1141.83 1378.22 Q1134.25 1378.22 1133.34 1369.89 Q1132.19 1378.22 1124.84 1378.22 Z" fill="#000000" fill-rule="evenodd" fill-opacity="1" /><path clip-path="url(#clip960)" d="M 0 0 M1160.85 1374.24 L1172.66 1374.24 L1172.66 1377.41 L1156.01 1377.41 L1156.01 1374.35 Q1156.95 1373.49 1158.71 1371.93 Q1168.29 1363.43 1168.29 1360.81 Q1168.29 1358.98 1166.84 1357.86 Q1165.39 1356.72 1163.02 1356.72 Q1161.58 1356.72 1159.88 1357.22 Q1158.18 1357.69 1156.17 1358.67 L1156.17 1355.24 Q1158.32 1354.46 1160.15 1354.07 Q1162.02 1353.68 1163.61 1353.68 Q1167.65 1353.68 1170.07 1355.52 Q1172.49 1357.36 1172.49 1360.37 Q1172.49 1364.24 1163.27 1372.15 Q1161.71 1373.49 1160.85 1374.24 Z" fill="#000000" fill-rule="evenodd" fill-opacity="1" /><polyline clip-path="url(#clip962)" style="stroke:#000000; stroke-width:1.75; stroke-opacity:0.1; fill:none" points="
  227.282,1019.01 2058.66,1019.01 
  "/>
<polyline clip-path="url(#clip962)" style="stroke:#000000; stroke-width:1.75; stroke-opacity:0.1; fill:none" points="
  227.282,703.89 2058.66,703.89 
  "/>
<polyline clip-path="url(#clip962)" style="stroke:#000000; stroke-width:1.75; stroke-opacity:0.1; fill:none" points="
  227.282,388.775 2058.66,388.775 
  "/>
<polyline clip-path="url(#clip962)" style="stroke:#000000; stroke-width:1.75; stroke-opacity:0.1; fill:none" points="
  227.282,73.6587 2058.66,73.6587 
  "/>
<polyline clip-path="url(#clip960)" style="stroke:#000000; stroke-width:3.5; stroke-opacity:1; fill:none" points="
  227.282,1234.53 227.282,41.3386 
  "/>
<polyline clip-path="url(#clip960)" style="stroke:#000000; stroke-width:3.5; stroke-opacity:1; fill:none" points="
  227.282,1019.01 249.258,1019.01 
  "/>
<polyline clip-path="url(#clip960)" style="stroke:#000000; stroke-width:3.5; stroke-opacity:1; fill:none" points="
  227.282,703.89 249.258,703.89 
  "/>
<polyline clip-path="url(#clip960)" style="stroke:#000000; stroke-width:3.5; stroke-opacity:1; fill:none" points="
  227.282,388.775 249.258,388.775 
  "/>
<polyline clip-path="url(#clip960)" style="stroke:#000000; stroke-width:3.5; stroke-opacity:1; fill:none" points="
  227.282,73.6587 249.258,73.6587 
  "/>
<path clip-path="url(#clip960)" d="M 0 0 M100.849 1019.4 L126.815 1019.4 L126.815 1022.84 L100.849 1022.84 L100.849 1019.4 Z" fill="#000000" fill-rule="evenodd" fill-opacity="1" /><path clip-path="url(#clip960)" d="M 0 0 M131.96 1030.68 L138.644 1030.68 L138.644 1007.61 L131.372 1009.07 L131.372 1005.34 L138.603 1003.89 L142.694 1003.89 L142.694 1030.68 L149.378 1030.68 L149.378 1034.13 L131.96 1034.13 L131.96 1030.68 Z" fill="#000000" fill-rule="evenodd" fill-opacity="1" /><path clip-path="url(#clip960)" d="M 0 0 M153.855 1003.89 L169.916 1003.89 L169.916 1007.33 L157.602 1007.33 L157.602 1014.74 Q158.493 1014.44 159.384 1014.3 Q160.275 1014.13 161.167 1014.13 Q166.23 1014.13 169.187 1016.91 Q172.144 1019.68 172.144 1024.42 Q172.144 1029.31 169.106 1032.02 Q166.068 1034.71 160.539 1034.71 Q158.635 1034.71 156.65 1034.39 Q154.685 1034.07 152.579 1033.42 L152.579 1029.31 Q154.402 1030.3 156.346 1030.78 Q158.29 1031.27 160.458 1031.27 Q163.962 1031.27 166.007 1029.43 Q168.053 1027.58 168.053 1024.42 Q168.053 1021.26 166.007 1019.42 Q163.962 1017.58 160.458 1017.58 Q158.817 1017.58 157.176 1017.94 Q155.556 1018.31 153.855 1019.08 L153.855 1003.89 Z" fill="#000000" fill-rule="evenodd" fill-opacity="1" /><path clip-path="url(#clip960)" d="M 0 0 M185.33 1006.58 Q182.17 1006.58 180.57 1009.7 Q178.991 1012.8 178.991 1019.04 Q178.991 1025.25 180.57 1028.37 Q182.17 1031.47 185.33 1031.47 Q188.51 1031.47 190.09 1028.37 Q191.69 1025.25 191.69 1019.04 Q191.69 1012.8 190.09 1009.7 Q188.51 1006.58 185.33 1006.58 M185.33 1003.34 Q190.414 1003.34 193.088 1007.37 Q195.782 1011.38 195.782 1019.04 Q195.782 1026.67 193.088 1030.7 Q190.414 1034.71 185.33 1034.71 Q180.246 1034.71 177.552 1030.7 Q174.879 1026.67 174.879 1019.04 Q174.879 1011.38 177.552 1007.37 Q180.246 1003.34 185.33 1003.34 Z" fill="#000000" fill-rule="evenodd" fill-opacity="1" /><path clip-path="url(#clip960)" d="M 0 0 M99.9776 704.285 L125.944 704.285 L125.944 707.729 L99.9776 707.729 L99.9776 704.285 Z" fill="#000000" fill-rule="evenodd" fill-opacity="1" /><path clip-path="url(#clip960)" d="M 0 0 M131.089 715.567 L137.773 715.567 L137.773 692.497 L130.501 693.955 L130.501 690.229 L137.732 688.77 L141.823 688.77 L141.823 715.567 L148.507 715.567 L148.507 719.01 L131.089 719.01 L131.089 715.567 Z" fill="#000000" fill-rule="evenodd" fill-opacity="1" /><path clip-path="url(#clip960)" d="M 0 0 M161.693 691.464 Q158.533 691.464 156.933 694.583 Q155.353 697.682 155.353 703.921 Q155.353 710.139 156.933 713.258 Q158.533 716.357 161.693 716.357 Q164.873 716.357 166.453 713.258 Q168.053 710.139 168.053 703.921 Q168.053 697.682 166.453 694.583 Q164.873 691.464 161.693 691.464 M161.693 688.223 Q166.777 688.223 169.451 692.254 Q172.144 696.264 172.144 703.921 Q172.144 711.557 169.451 715.587 Q166.777 719.598 161.693 719.598 Q156.609 719.598 153.915 715.587 Q151.242 711.557 151.242 703.921 Q151.242 696.264 153.915 692.254 Q156.609 688.223 161.693 688.223 Z" fill="#000000" fill-rule="evenodd" fill-opacity="1" /><path clip-path="url(#clip960)" d="M 0 0 M185.33 691.464 Q182.17 691.464 180.57 694.583 Q178.991 697.682 178.991 703.921 Q178.991 710.139 180.57 713.258 Q182.17 716.357 185.33 716.357 Q188.51 716.357 190.09 713.258 Q191.69 710.139 191.69 703.921 Q191.69 697.682 190.09 694.583 Q188.51 691.464 185.33 691.464 M185.33 688.223 Q190.414 688.223 193.088 692.254 Q195.782 696.264 195.782 703.921 Q195.782 711.557 193.088 715.587 Q190.414 719.598 185.33 719.598 Q180.246 719.598 177.552 715.587 Q174.879 711.557 174.879 703.921 Q174.879 696.264 177.552 692.254 Q180.246 688.223 185.33 688.223 Z" fill="#000000" fill-rule="evenodd" fill-opacity="1" /><path clip-path="url(#clip960)" d="M 0 0 M123.412 389.169 L149.378 389.169 L149.378 392.613 L123.412 392.613 L123.412 389.169 Z" fill="#000000" fill-rule="evenodd" fill-opacity="1" /><path clip-path="url(#clip960)" d="M 0 0 M153.855 373.655 L169.916 373.655 L169.916 377.098 L157.602 377.098 L157.602 384.511 Q158.493 384.207 159.384 384.065 Q160.275 383.903 161.167 383.903 Q166.23 383.903 169.187 386.678 Q172.144 389.453 172.144 394.193 Q172.144 399.074 169.106 401.788 Q166.068 404.482 160.539 404.482 Q158.635 404.482 156.65 404.158 Q154.685 403.834 152.579 403.186 L152.579 399.074 Q154.402 400.066 156.346 400.553 Q158.29 401.039 160.458 401.039 Q163.962 401.039 166.007 399.195 Q168.053 397.352 168.053 394.193 Q168.053 391.033 166.007 389.19 Q163.962 387.347 160.458 387.347 Q158.817 387.347 157.176 387.711 Q155.556 388.076 153.855 388.845 L153.855 373.655 Z" fill="#000000" fill-rule="evenodd" fill-opacity="1" /><path clip-path="url(#clip960)" d="M 0 0 M185.33 376.348 Q182.17 376.348 180.57 379.468 Q178.991 382.567 178.991 388.805 Q178.991 395.023 180.57 398.142 Q182.17 401.241 185.33 401.241 Q188.51 401.241 190.09 398.142 Q191.69 395.023 191.69 388.805 Q191.69 382.567 190.09 379.468 Q188.51 376.348 185.33 376.348 M185.33 373.108 Q190.414 373.108 193.088 377.138 Q195.782 381.149 195.782 388.805 Q195.782 396.441 193.088 400.472 Q190.414 404.482 185.33 404.482 Q180.246 404.482 177.552 400.472 Q174.879 396.441 174.879 388.805 Q174.879 381.149 177.552 377.138 Q180.246 373.108 185.33 373.108 Z" fill="#000000" fill-rule="evenodd" fill-opacity="1" /><path clip-path="url(#clip960)" d="M 0 0 M185.33 61.2326 Q182.17 61.2326 180.57 64.3518 Q178.991 67.4507 178.991 73.6891 Q178.991 79.9073 180.57 83.0265 Q182.17 86.1254 185.33 86.1254 Q188.51 86.1254 190.09 83.0265 Q191.69 79.9073 191.69 73.6891 Q191.69 67.4507 190.09 64.3518 Q188.51 61.2326 185.33 61.2326 M185.33 57.9919 Q190.414 57.9919 193.088 62.0225 Q195.782 66.0329 195.782 73.6891 Q195.782 81.3251 193.088 85.3557 Q190.414 89.3661 185.33 89.3661 Q180.246 89.3661 177.552 85.3557 Q174.879 81.3251 174.879 73.6891 Q174.879 66.0329 177.552 62.0225 Q180.246 57.9919 185.33 57.9919 Z" fill="#000000" fill-rule="evenodd" fill-opacity="1" /><path clip-path="url(#clip960)" d="M 0 0 M28.9613 643.214 Q28.9613 645.024 32.9996 645.024 L52.1046 645.024 Q52.1046 642.379 49.2082 639.733 Q46.6182 637.366 40.4077 637.366 Q34.6149 637.366 31.4957 639.761 Q28.9613 641.71 28.9613 643.214 M24.5889 643.214 Q24.5889 639.315 28.2651 635.778 Q32.1919 631.963 40.4077 631.963 Q47.955 631.963 52.4388 635.778 Q56.672 639.371 56.672 645.024 L67.8677 645.024 L67.8677 650.121 L56.6999 650.121 Q56.6999 655.663 52.4388 659.395 Q48.0942 663.183 40.4355 663.183 Q32.4704 663.183 28.4043 659.395 Q25.3687 656.554 24.5889 651.931 L29.1284 651.931 Q29.769 653.769 31.9413 655.385 Q35.144 657.78 40.4355 657.78 Q46.0612 657.78 49.2639 655.385 Q52.1325 653.24 52.1325 650.121 L32.9996 650.121 Q24.5889 650.121 24.5889 643.214 Z" fill="#000000" fill-rule="evenodd" fill-opacity="1" /><path clip-path="url(#clip960)" d="M 0 0 M52.8287 624.499 L52.8287 612.691 L56.0036 612.691 L56.0036 629.345 L52.9401 629.345 Q52.0768 628.398 50.5172 626.643 Q42.023 617.063 39.4051 617.063 Q37.567 617.063 36.453 618.511 Q35.3111 619.959 35.3111 622.327 Q35.3111 623.775 35.8124 625.474 Q36.2859 627.173 37.2606 629.178 L33.8351 629.178 Q33.0553 627.033 32.6654 625.195 Q32.2755 623.329 32.2755 621.742 Q32.2755 617.704 34.1136 615.281 Q35.9517 612.858 38.9595 612.858 Q42.8306 612.858 50.74 622.076 Q52.0768 623.636 52.8287 624.499 Z" fill="#000000" fill-rule="evenodd" fill-opacity="1" /><circle clip-path="url(#clip962)" cx="279.113" cy="75.1083" r="12" fill="#009af9" fill-rule="evenodd" fill-opacity="1" stroke="#000000" stroke-opacity="1" stroke-width="2.8"/>
<circle clip-path="url(#clip962)" cx="726.551" cy="80.7804" r="12" fill="#009af9" fill-rule="evenodd" fill-opacity="1" stroke="#000000" stroke-opacity="1" stroke-width="2.8"/>
<circle clip-path="url(#clip962)" cx="919.252" cy="88.7213" r="12" fill="#009af9" fill-rule="evenodd" fill-opacity="1" stroke="#000000" stroke-opacity="1" stroke-width="2.8"/>
<circle clip-path="url(#clip962)" cx="1111.95" cy="107.943" r="12" fill="#009af9" fill-rule="evenodd" fill-opacity="1" stroke="#000000" stroke-opacity="1" stroke-width="2.8"/>
<circle clip-path="url(#clip962)" cx="1224.68" cy="146.892" r="12" fill="#009af9" fill-rule="evenodd" fill-opacity="1" stroke="#000000" stroke-opacity="1" stroke-width="2.8"/>
<circle clip-path="url(#clip962)" cx="1304.65" cy="224.662" r="12" fill="#009af9" fill-rule="evenodd" fill-opacity="1" stroke="#000000" stroke-opacity="1" stroke-width="2.8"/>
<circle clip-path="url(#clip962)" cx="1366.69" cy="640.867" r="12" fill="#009af9" fill-rule="evenodd" fill-opacity="1" stroke="#000000" stroke-opacity="1" stroke-width="2.8"/>
<circle clip-path="url(#clip962)" cx="1417.38" cy="1027.77" r="12" fill="#009af9" fill-rule="evenodd" fill-opacity="1" stroke="#000000" stroke-opacity="1" stroke-width="2.8"/>
<circle clip-path="url(#clip962)" cx="1460.23" cy="1105.6" r="12" fill="#009af9" fill-rule="evenodd" fill-opacity="1" stroke="#000000" stroke-opacity="1" stroke-width="2.8"/>
<circle clip-path="url(#clip962)" cx="1497.36" cy="1133.08" r="12" fill="#009af9" fill-rule="evenodd" fill-opacity="1" stroke="#000000" stroke-opacity="1" stroke-width="2.8"/>
<circle clip-path="url(#clip962)" cx="1530.1" cy="1150.54" r="12" fill="#009af9" fill-rule="evenodd" fill-opacity="1" stroke="#000000" stroke-opacity="1" stroke-width="2.8"/>
<circle clip-path="url(#clip962)" cx="1585.89" cy="1166.86" r="12" fill="#009af9" fill-rule="evenodd" fill-opacity="1" stroke="#000000" stroke-opacity="1" stroke-width="2.8"/>
<circle clip-path="url(#clip962)" cx="1672.11" cy="1181.04" r="12" fill="#009af9" fill-rule="evenodd" fill-opacity="1" stroke="#000000" stroke-opacity="1" stroke-width="2.8"/>
<circle clip-path="url(#clip962)" cx="1752.09" cy="1188.85" r="12" fill="#009af9" fill-rule="evenodd" fill-opacity="1" stroke="#000000" stroke-opacity="1" stroke-width="2.8"/>
<circle clip-path="url(#clip962)" cx="2006.83" cy="1200.76" r="12" fill="#009af9" fill-rule="evenodd" fill-opacity="1" stroke="#000000" stroke-opacity="1" stroke-width="2.8"/>
</svg>