<?xml version="1.0" encoding="utf-8"?>
<svg xmlns="http://www.w3.org/2000/svg" xmlns:xlink="http://www.w3.org/1999/xlink" width="600" height="400" viewBox="0 0 2400 1600">
<defs>
  <clipPath id="clip930">
    <rect x="0" y="0" width="2400" height="1600"/>
  </clipPath>
</defs>
<path clip-path="url(#clip930)" d="
M0 1600 L2400 1600 L2400 0 L0 0  Z
  " fill="#ffffff" fill-rule="evenodd" fill-opacity="1"/>
<defs>
  <clipPath id="clip931">
    <rect x="480" y="0" width="1681" height="1600"/>
  </clipPath>
</defs>
<path clip-path="url(#clip930)" d="
M289.119 642.531 L2352.76 642.531 L2352.76 47.2441 L289.119 47.2441  Z
  " fill="#ffffff" fill-rule="evenodd" fill-opacity="1"/>
<defs>
  <clipPath id="clip932">
    <rect x="289" y="47" width="2065" height="596"/>
  </clipPath>
</defs>
<polyline clip-path="url(#clip932)" style="stroke:#000000; stroke-width:2; stroke-opacity:0.1; fill:none" points="
  347.524,642.531 347.524,47.2441 
  "/>
<polyline clip-path="url(#clip932)" style="stroke:#000000; stroke-width:2; stroke-opacity:0.1; fill:none" points="
  834.231,642.531 834.231,47.2441 
  "/>
<polyline clip-path="url(#clip932)" style="stroke:#000000; stroke-width:2; stroke-opacity:0.1; fill:none" points="
  1320.94,642.531 1320.94,47.2441 
  "/>
<polyline clip-path="url(#clip932)" style="stroke:#000000; stroke-width:2; stroke-opacity:0.1; fill:none" points="
  1807.64,642.531 1807.64,47.2441 
  "/>
<polyline clip-path="url(#clip932)" style="stroke:#000000; stroke-width:2; stroke-opacity:0.1; fill:none" points="
  2294.35,642.531 2294.35,47.2441 
  "/>
<polyline clip-path="url(#clip930)" style="stroke:#000000; stroke-width:4; stroke-opacity:1; fill:none" points="
  289.119,642.531 2352.76,642.531 
  "/>
<polyline clip-path="url(#clip930)" style="stroke:#000000; stroke-width:4; stroke-opacity:1; fill:none" points="
  347.524,642.531 347.524,635.387 
  "/>
<polyline clip-path="url(#clip930)" style="stroke:#000000; stroke-width:4; stroke-opacity:1; fill:none" points="
  834.231,642.531 834.231,635.387 
  "/>
<polyline clip-path="url(#clip930)" style="stroke:#000000; stroke-width:4; stroke-opacity:1; fill:none" points="
  1320.94,642.531 1320.94,635.387 
  "/>
<polyline clip-path="url(#clip930)" style="stroke:#000000; stroke-width:4; stroke-opacity:1; fill:none" points="
  1807.64,642.531 1807.64,635.387 
  "/>
<polyline clip-path="url(#clip930)" style="stroke:#000000; stroke-width:4; stroke-opacity:1; fill:none" points="
  2294.35,642.531 2294.35,635.387 
  "/>
<polyline clip-path="url(#clip930)" style="stroke:#000000; stroke-width:4; stroke-opacity:1; fill:none" points="
  499.456,642.531 499.456,638.959 
  "/>
<polyline clip-path="url(#clip930)" style="stroke:#000000; stroke-width:4; stroke-opacity:1; fill:none" points="
  610.986,642.531 610.986,638.959 
  "/>
<polyline clip-path="url(#clip930)" style="stroke:#000000; stroke-width:4; stroke-opacity:1; fill:none" points="
  699.151,642.531 699.151,638.959 
  "/>
<polyline clip-path="url(#clip930)" style="stroke:#000000; stroke-width:4; stroke-opacity:1; fill:none" points="
  772.063,642.531 772.063,638.959 
  "/>
<polyline clip-path="url(#clip930)" style="stroke:#000000; stroke-width:4; stroke-opacity:1; fill:none" points="
  986.162,642.531 986.162,638.959 
  "/>
<polyline clip-path="url(#clip930)" style="stroke:#000000; stroke-width:4; stroke-opacity:1; fill:none" points="
  1097.69,642.531 1097.69,638.959 
  "/>
<polyline clip-path="url(#clip930)" style="stroke:#000000; stroke-width:4; stroke-opacity:1; fill:none" points="
  1185.86,642.531 1185.86,638.959 
  "/>
<polyline clip-path="url(#clip930)" style="stroke:#000000; stroke-width:4; stroke-opacity:1; fill:none" points="
  1258.77,642.531 1258.77,638.959 
  "/>
<polyline clip-path="url(#clip930)" style="stroke:#000000; stroke-width:4; stroke-opacity:1; fill:none" points="
  1472.87,642.531 1472.87,638.959 
  "/>
<polyline clip-path="url(#clip930)" style="stroke:#000000; stroke-width:4; stroke-opacity:1; fill:none" points="
  1584.4,642.531 1584.4,638.959 
  "/>
<polyline clip-path="url(#clip930)" style="stroke:#000000; stroke-width:4; stroke-opacity:1; fill:none" points="
  1672.56,642.531 1672.56,638.959 
  "/>
<polyline clip-path="url(#clip930)" style="stroke:#000000; stroke-width:4; stroke-opacity:1; fill:none" points="
  1745.48,642.531 1745.48,638.959 
  "/>
<polyline clip-path="url(#clip930)" style="stroke:#000000; stroke-width:4; stroke-opacity:1; fill:none" points="
  1959.58,642.531 1959.58,638.959 
  "/>
<polyline clip-path="url(#clip930)" style="stroke:#000000; stroke-width:4; stroke-opacity:1; fill:none" points="
  2071.11,642.531 2071.11,638.959 
  "/>
<polyline clip-path="url(#clip930)" style="stroke:#000000; stroke-width:4; stroke-opacity:1; fill:none" points="
  2159.27,642.531 2159.27,638.959 
  "/>
<polyline clip-path="url(#clip930)" style="stroke:#000000; stroke-width:4; stroke-opacity:1; fill:none" points="
  2232.18,642.531 2232.18,638.959 
  "/>
<path clip-path="url(#clip930)" d="M 0 0 M294.132 720.803 L301.771 720.803 L301.771 694.437 L293.461 696.104 L293.461 691.845 L301.724 690.178 L306.4 690.178 L306.4 720.803 L314.039 720.803 L314.039 724.738 L294.132 724.738 L294.132 720.803 Z" fill="#000000" fill-rule="evenodd" fill-opacity="1" /><path clip-path="url(#clip930)" d="M 0 0 M333.483 693.257 Q329.872 693.257 328.044 696.821 Q326.238 700.363 326.238 707.493 Q326.238 714.599 328.044 718.164 Q329.872 721.705 333.483 721.705 Q337.118 721.705 338.923 718.164 Q340.752 714.599 340.752 707.493 Q340.752 700.363 338.923 696.821 Q337.118 693.257 333.483 693.257 M333.483 689.553 Q339.294 689.553 342.349 694.159 Q345.428 698.743 345.428 707.493 Q345.428 716.219 342.349 720.826 Q339.294 725.409 333.483 725.409 Q327.673 725.409 324.595 720.826 Q321.539 716.219 321.539 707.493 Q321.539 698.743 324.595 694.159 Q327.673 689.553 333.483 689.553 Z" fill="#000000" fill-rule="evenodd" fill-opacity="1" /><path clip-path="url(#clip930)" d="M 0 0 M355.133 671.749 Q352.199 671.749 350.713 674.645 Q349.246 677.523 349.246 683.316 Q349.246 689.09 350.713 691.986 Q352.199 694.864 355.133 694.864 Q358.085 694.864 359.552 691.986 Q361.038 689.09 361.038 683.316 Q361.038 677.523 359.552 674.645 Q358.085 671.749 355.133 671.749 M355.133 668.74 Q359.853 668.74 362.336 672.482 Q364.837 676.206 364.837 683.316 Q364.837 690.406 362.336 694.149 Q359.853 697.873 355.133 697.873 Q350.412 697.873 347.91 694.149 Q345.428 690.406 345.428 683.316 Q345.428 676.206 347.91 672.482 Q350.412 668.74 355.133 668.74 Z" fill="#000000" fill-rule="evenodd" fill-opacity="1" /><path clip-path="url(#clip930)" d="M 0 0 M371.514 692.55 L375.483 692.55 L375.483 697.327 L371.514 697.327 L371.514 692.55 Z" fill="#000000" fill-rule="evenodd" fill-opacity="1" /><path clip-path="url(#clip930)" d="M 0 0 M391.883 671.749 Q388.949 671.749 387.463 674.645 Q385.996 677.523 385.996 683.316 Q385.996 689.09 387.463 691.986 Q388.949 694.864 391.883 694.864 Q394.836 694.864 396.303 691.986 Q397.789 689.09 397.789 683.316 Q397.789 677.523 396.303 674.645 Q394.836 671.749 391.883 671.749 M391.883 668.74 Q396.604 668.74 399.086 672.482 Q401.588 676.206 401.588 683.316 Q401.588 690.406 399.086 694.149 Q396.604 697.873 391.883 697.873 Q387.162 697.873 384.661 694.149 Q382.178 690.406 382.178 683.316 Q382.178 676.206 384.661 672.482 Q387.162 668.74 391.883 668.74 Z" fill="#000000" fill-rule="evenodd" fill-opacity="1" /><path clip-path="url(#clip930)" d="M 0 0 M781.243 720.803 L788.882 720.803 L788.882 694.437 L780.572 696.104 L780.572 691.845 L788.835 690.178 L793.511 690.178 L793.511 720.803 L801.15 720.803 L801.15 724.738 L781.243 724.738 L781.243 720.803 Z" fill="#000000" fill-rule="evenodd" fill-opacity="1" /><path clip-path="url(#clip930)" d="M 0 0 M820.595 693.257 Q816.983 693.257 815.155 696.821 Q813.349 700.363 813.349 707.493 Q813.349 714.599 815.155 718.164 Q816.983 721.705 820.595 721.705 Q824.229 721.705 826.034 718.164 Q827.863 714.599 827.863 707.493 Q827.863 700.363 826.034 696.821 Q824.229 693.257 820.595 693.257 M820.595 689.553 Q826.405 689.553 829.46 694.159 Q832.539 698.743 832.539 707.493 Q832.539 716.219 829.46 720.826 Q826.405 725.409 820.595 725.409 Q814.784 725.409 811.706 720.826 Q808.65 716.219 808.65 707.493 Q808.65 698.743 811.706 694.159 Q814.784 689.553 820.595 689.553 Z" fill="#000000" fill-rule="evenodd" fill-opacity="1" /><path clip-path="url(#clip930)" d="M 0 0 M842.244 671.749 Q839.31 671.749 837.824 674.645 Q836.357 677.523 836.357 683.316 Q836.357 689.09 837.824 691.986 Q839.31 694.864 842.244 694.864 Q845.197 694.864 846.664 691.986 Q848.149 689.09 848.149 683.316 Q848.149 677.523 846.664 674.645 Q845.197 671.749 842.244 671.749 M842.244 668.74 Q846.964 668.74 849.447 672.482 Q851.949 676.206 851.949 683.316 Q851.949 690.406 849.447 694.149 Q846.964 697.873 842.244 697.873 Q837.523 697.873 835.022 694.149 Q832.539 690.406 832.539 683.316 Q832.539 676.206 835.022 672.482 Q837.523 668.74 842.244 668.74 Z" fill="#000000" fill-rule="evenodd" fill-opacity="1" /><path clip-path="url(#clip930)" d="M 0 0 M858.625 692.55 L862.594 692.55 L862.594 697.327 L858.625 697.327 L858.625 692.55 Z" fill="#000000" fill-rule="evenodd" fill-opacity="1" /><path clip-path="url(#clip930)" d="M 0 0 M870.907 669.247 L885.821 669.247 L885.821 672.445 L874.386 672.445 L874.386 679.328 Q875.214 679.046 876.041 678.915 Q876.869 678.764 877.696 678.764 Q882.398 678.764 885.144 681.341 Q887.89 683.918 887.89 688.319 Q887.89 692.851 885.069 695.371 Q882.248 697.873 877.113 697.873 Q875.345 697.873 873.502 697.572 Q871.678 697.271 869.722 696.669 L869.722 692.851 Q871.415 693.773 873.22 694.224 Q875.026 694.676 877.038 694.676 Q880.292 694.676 882.191 692.964 Q884.091 691.253 884.091 688.319 Q884.091 685.385 882.191 683.673 Q880.292 681.962 877.038 681.962 Q875.515 681.962 873.991 682.3 Q872.487 682.639 870.907 683.353 L870.907 669.247 Z" fill="#000000" fill-rule="evenodd" fill-opacity="1" /><path clip-path="url(#clip930)" d="M 0 0 M1268.39 720.803 L1276.03 720.803 L1276.03 694.437 L1267.72 696.104 L1267.72 691.845 L1275.98 690.178 L1280.66 690.178 L1280.66 720.803 L1288.3 720.803 L1288.3 724.738 L1268.39 724.738 L1268.39 720.803 Z" fill="#000000" fill-rule="evenodd" fill-opacity="1" /><path clip-path="url(#clip930)" d="M 0 0 M1307.74 693.257 Q1304.13 693.257 1302.3 696.821 Q1300.5 700.363 1300.5 707.493 Q1300.5 714.599 1302.3 718.164 Q1304.13 721.705 1307.74 721.705 Q1311.38 721.705 1313.18 718.164 Q1315.01 714.599 1315.01 707.493 Q1315.01 700.363 1313.18 696.821 Q1311.38 693.257 1307.74 693.257 M1307.74 689.553 Q1313.55 689.553 1316.61 694.159 Q1319.69 698.743 1319.69 707.493 Q1319.69 716.219 1316.61 720.826 Q1313.55 725.409 1307.74 725.409 Q1301.93 725.409 1298.85 720.826 Q1295.8 716.219 1295.8 707.493 Q1295.8 698.743 1298.85 694.159 Q1301.93 689.553 1307.74 689.553 Z" fill="#000000" fill-rule="evenodd" fill-opacity="1" /><path clip-path="url(#clip930)" d="M 0 0 M1320.23 694.13 L1326.44 694.13 L1326.44 672.708 L1319.69 674.062 L1319.69 670.602 L1326.4 669.247 L1330.2 669.247 L1330.2 694.13 L1336.41 694.13 L1336.41 697.327 L1320.23 697.327 L1320.23 694.13 Z" fill="#000000" fill-rule="evenodd" fill-opacity="1" /><path clip-path="url(#clip930)" d="M 0 0 M1344.08 692.55 L1348.05 692.55 L1348.05 697.327 L1344.08 697.327 L1344.08 692.55 Z" fill="#000000" fill-rule="evenodd" fill-opacity="1" /><path clip-path="url(#clip930)" d="M 0 0 M1364.45 671.749 Q1361.52 671.749 1360.03 674.645 Q1358.56 677.523 1358.56 683.316 Q1358.56 689.09 1360.03 691.986 Q1361.52 694.864 1364.45 694.864 Q1367.4 694.864 1368.87 691.986 Q1370.36 689.09 1370.36 683.316 Q1370.36 677.523 1368.87 674.645 Q1367.4 671.749 1364.45 671.749 M1364.45 668.74 Q1369.17 668.74 1371.65 672.482 Q1374.15 676.206 1374.15 683.316 Q1374.15 690.406 1371.65 694.149 Q1369.17 697.873 1364.45 697.873 Q1359.73 697.873 1357.23 694.149 Q1354.75 690.406 1354.75 683.316 Q1354.75 676.206 1357.23 672.482 Q1359.73 668.74 1364.45 668.74 Z" fill="#000000" fill-rule="evenodd" fill-opacity="1" /><path clip-path="url(#clip930)" d="M 0 0 M1755.5 720.803 L1763.14 720.803 L1763.14 694.437 L1754.83 696.104 L1754.83 691.845 L1763.1 690.178 L1767.77 690.178 L1767.77 720.803 L1775.41 720.803 L1775.41 724.738 L1755.5 724.738 L1755.5 720.803 Z" fill="#000000" fill-rule="evenodd" fill-opacity="1" /><path clip-path="url(#clip930)" d="M 0 0 M1794.85 693.257 Q1791.24 693.257 1789.41 696.821 Q1787.61 700.363 1787.61 707.493 Q1787.61 714.599 1789.41 718.164 Q1791.24 721.705 1794.85 721.705 Q1798.49 721.705 1800.29 718.164 Q1802.12 714.599 1802.12 707.493 Q1802.12 700.363 1800.29 696.821 Q1798.49 693.257 1794.85 693.257 M1794.85 689.553 Q1800.66 689.553 1803.72 694.159 Q1806.8 698.743 1806.8 707.493 Q1806.8 716.219 1803.72 720.826 Q1800.66 725.409 1794.85 725.409 Q1789.04 725.409 1785.97 720.826 Q1782.91 716.219 1782.91 707.493 Q1782.91 698.743 1785.97 694.159 Q1789.04 689.553 1794.85 689.553 Z" fill="#000000" fill-rule="evenodd" fill-opacity="1" /><path clip-path="url(#clip930)" d="M 0 0 M1807.34 694.13 L1813.55 694.13 L1813.55 672.708 L1806.8 674.062 L1806.8 670.602 L1813.51 669.247 L1817.31 669.247 L1817.31 694.13 L1823.52 694.13 L1823.52 697.327 L1807.34 697.327 L1807.34 694.13 Z" fill="#000000" fill-rule="evenodd" fill-opacity="1" /><path clip-path="url(#clip930)" d="M 0 0 M1831.19 692.55 L1835.16 692.55 L1835.16 697.327 L1831.19 697.327 L1831.19 692.55 Z" fill="#000000" fill-rule="evenodd" fill-opacity="1" /><path clip-path="url(#clip930)" d="M 0 0 M1843.47 669.247 L1858.39 669.247 L1858.39 672.445 L1846.95 672.445 L1846.95 679.328 Q1847.78 679.046 1848.61 678.915 Q1849.44 678.764 1850.26 678.764 Q1854.97 678.764 1857.71 681.341 Q1860.46 683.918 1860.46 688.319 Q1860.46 692.851 1857.64 695.371 Q1854.81 697.873 1849.68 697.873 Q1847.91 697.873 1846.07 697.572 Q1844.25 697.271 1842.29 696.669 L1842.29 692.851 Q1843.98 693.773 1845.79 694.224 Q1847.59 694.676 1849.61 694.676 Q1852.86 694.676 1854.76 692.964 Q1856.66 691.253 1856.66 688.319 Q1856.66 685.385 1854.76 683.673 Q1852.86 681.962 1849.61 681.962 Q1848.08 681.962 1846.56 682.3 Q1845.05 682.639 1843.47 683.353 L1843.47 669.247 Z" fill="#000000" fill-rule="evenodd" fill-opacity="1" /><path clip-path="url(#clip930)" d="M 0 0 M2241.1 720.803 L2248.74 720.803 L2248.74 694.437 L2240.43 696.104 L2240.43 691.845 L2248.69 690.178 L2253.37 690.178 L2253.37 720.803 L2261.01 720.803 L2261.01 724.738 L2241.1 724.738 L2241.1 720.803 Z" fill="#000000" fill-rule="evenodd" fill-opacity="1" /><path clip-path="url(#clip930)" d="M 0 0 M2280.45 693.257 Q2276.84 693.257 2275.01 696.821 Q2273.21 700.363 2273.21 707.493 Q2273.21 714.599 2275.01 718.164 Q2276.84 721.705 2280.45 721.705 Q2284.09 721.705 2285.89 718.164 Q2287.72 714.599 2287.72 707.493 Q2287.72 700.363 2285.89 696.821 Q2284.09 693.257 2280.45 693.257 M2280.45 689.553 Q2286.26 689.553 2289.32 694.159 Q2292.4 698.743 2292.4 707.493 Q2292.4 716.219 2289.32 720.826 Q2286.26 725.409 2280.45 725.409 Q2274.64 725.409 2271.56 720.826 Q2268.51 716.219 2268.51 707.493 Q2268.51 698.743 2271.56 694.159 Q2274.64 689.553 2280.45 689.553 Z" fill="#000000" fill-rule="evenodd" fill-opacity="1" /><path clip-path="url(#clip930)" d="M 0 0 M2296.97 694.13 L2310.23 694.13 L2310.23 697.327 L2292.4 697.327 L2292.4 694.13 Q2294.56 691.892 2298.28 688.13 Q2302.03 684.35 2302.98 683.259 Q2304.81 681.209 2305.52 679.799 Q2306.26 678.369 2306.26 676.996 Q2306.26 674.758 2304.68 673.348 Q2303.12 671.937 2300.6 671.937 Q2298.81 671.937 2296.82 672.558 Q2294.84 673.178 2292.58 674.438 L2292.58 670.602 Q2294.88 669.68 2296.87 669.21 Q2298.87 668.74 2300.52 668.74 Q2304.88 668.74 2307.48 670.921 Q2310.08 673.103 2310.08 676.752 Q2310.08 678.482 2309.42 680.043 Q2308.78 681.585 2307.07 683.692 Q2306.6 684.237 2304.08 686.852 Q2301.56 689.447 2296.97 694.13 Z" fill="#000000" fill-rule="evenodd" fill-opacity="1" /><path clip-path="url(#clip930)" d="M 0 0 M2318.2 692.55 L2322.17 692.55 L2322.17 697.327 L2318.2 697.327 L2318.2 692.55 Z" fill="#000000" fill-rule="evenodd" fill-opacity="1" /><path clip-path="url(#clip930)" d="M 0 0 M2338.57 671.749 Q2335.63 671.749 2334.15 674.645 Q2332.68 677.523 2332.68 683.316 Q2332.68 689.09 2334.15 691.986 Q2335.63 694.864 2338.57 694.864 Q2341.52 694.864 2342.99 691.986 Q2344.47 689.09 2344.47 683.316 Q2344.47 677.523 2342.99 674.645 Q2341.52 671.749 2338.57 671.749 M2338.57 668.74 Q2343.29 668.74 2345.77 672.482 Q2348.27 676.206 2348.27 683.316 Q2348.27 690.406 2345.77 694.149 Q2343.29 697.873 2338.57 697.873 Q2333.85 697.873 2331.35 694.149 Q2328.86 690.406 2328.86 683.316 Q2328.86 676.206 2331.35 672.482 Q2333.85 668.74 2338.57 668.74 Z" fill="#000000" fill-rule="evenodd" fill-opacity="1" /><polyline clip-path="url(#clip932)" style="stroke:#000000; stroke-width:2; stroke-opacity:0.1; fill:none" points="
  289.119,543.573 2352.76,543.573 
  "/>
<polyline clip-path="url(#clip932)" style="stroke:#000000; stroke-width:2; stroke-opacity:0.1; fill:none" points="
  289.119,378.41 2352.76,378.41 
  "/>
<polyline clip-path="url(#clip932)" style="stroke:#000000; stroke-width:2; stroke-opacity:0.1; fill:none" points="
  289.119,213.248 2352.76,213.248 
  "/>
<polyline clip-path="url(#clip932)" style="stroke:#000000; stroke-width:2; stroke-opacity:0.1; fill:none" points="
  289.119,48.086 2352.76,48.086 
  "/>
<polyline clip-path="url(#clip930)" style="stroke:#000000; stroke-width:4; stroke-opacity:1; fill:none" points="
  289.119,642.531 289.119,47.2441 
  "/>
<polyline clip-path="url(#clip930)" style="stroke:#000000; stroke-width:4; stroke-opacity:1; fill:none" points="
  289.119,543.573 313.883,543.573 
  "/>
<polyline clip-path="url(#clip930)" style="stroke:#000000; stroke-width:4; stroke-opacity:1; fill:none" points="
  289.119,378.41 313.883,378.41 
  "/>
<polyline clip-path="url(#clip930)" style="stroke:#000000; stroke-width:4; stroke-opacity:1; fill:none" points="
  289.119,213.248 313.883,213.248 
  "/>
<polyline clip-path="url(#clip930)" style="stroke:#000000; stroke-width:4; stroke-opacity:1; fill:none" points="
  289.119,48.086 313.883,48.086 
  "/>
<polyline clip-path="url(#clip930)" style="stroke:#000000; stroke-width:4; stroke-opacity:1; fill:none" points="
  289.119,619.33 301.501,619.33 
  "/>
<polyline clip-path="url(#clip930)" style="stroke:#000000; stroke-width:4; stroke-opacity:1; fill:none" points="
  289.119,589.412 301.501,589.412 
  "/>
<polyline clip-path="url(#clip930)" style="stroke:#000000; stroke-width:4; stroke-opacity:1; fill:none" points="
  289.119,564.669 301.501,564.669 
  "/>
<polyline clip-path="url(#clip930)" style="stroke:#000000; stroke-width:4; stroke-opacity:1; fill:none" points="
  289.119,492.015 301.501,492.015 
  "/>
<polyline clip-path="url(#clip930)" style="stroke:#000000; stroke-width:4; stroke-opacity:1; fill:none" points="
  289.119,454.168 301.501,454.168 
  "/>
<polyline clip-path="url(#clip930)" style="stroke:#000000; stroke-width:4; stroke-opacity:1; fill:none" points="
  289.119,424.249 301.501,424.249 
  "/>
<polyline clip-path="url(#clip930)" style="stroke:#000000; stroke-width:4; stroke-opacity:1; fill:none" points="
  289.119,399.507 301.501,399.507 
  "/>
<polyline clip-path="url(#clip930)" style="stroke:#000000; stroke-width:4; stroke-opacity:1; fill:none" points="
  289.119,326.853 301.501,326.853 
  "/>
<polyline clip-path="url(#clip930)" style="stroke:#000000; stroke-width:4; stroke-opacity:1; fill:none" points="
  289.119,289.005 301.501,289.005 
  "/>
<polyline clip-path="url(#clip930)" style="stroke:#000000; stroke-width:4; stroke-opacity:1; fill:none" points="
  289.119,259.087 301.501,259.087 
  "/>
<polyline clip-path="url(#clip930)" style="stroke:#000000; stroke-width:4; stroke-opacity:1; fill:none" points="
  289.119,234.345 301.501,234.345 
  "/>
<polyline clip-path="url(#clip930)" style="stroke:#000000; stroke-width:4; stroke-opacity:1; fill:none" points="
  289.119,161.691 301.501,161.691 
  "/>
<polyline clip-path="url(#clip930)" style="stroke:#000000; stroke-width:4; stroke-opacity:1; fill:none" points="
  289.119,123.843 301.501,123.843 
  "/>
<polyline clip-path="url(#clip930)" style="stroke:#000000; stroke-width:4; stroke-opacity:1; fill:none" points="
  289.119,93.925 301.501,93.925 
  "/>
<polyline clip-path="url(#clip930)" style="stroke:#000000; stroke-width:4; stroke-opacity:1; fill:none" points="
  289.119,69.1823 301.501,69.1823 
  "/>
<path clip-path="url(#clip930)" d="M 0 0 M115.74 563.365 L123.379 563.365 L123.379 536.999 L115.069 538.666 L115.069 534.407 L123.333 532.74 L128.009 532.74 L128.009 563.365 L135.647 563.365 L135.647 567.3 L115.74 567.3 L115.74 563.365 Z" fill="#000000" fill-rule="evenodd" fill-opacity="1" /><path clip-path="url(#clip930)" d="M 0 0 M155.092 535.819 Q151.481 535.819 149.652 539.384 Q147.846 542.925 147.846 550.055 Q147.846 557.161 149.652 560.726 Q151.481 564.268 155.092 564.268 Q158.726 564.268 160.532 560.726 Q162.36 557.161 162.36 550.055 Q162.36 542.925 160.532 539.384 Q158.726 535.819 155.092 535.819 M155.092 532.115 Q160.902 532.115 163.958 536.722 Q167.036 541.305 167.036 550.055 Q167.036 558.782 163.958 563.388 Q160.902 567.971 155.092 567.971 Q149.282 567.971 146.203 563.388 Q143.147 558.782 143.147 550.055 Q143.147 541.305 146.203 536.722 Q149.282 532.115 155.092 532.115 Z" fill="#000000" fill-rule="evenodd" fill-opacity="1" /><path clip-path="url(#clip930)" d="M 0 0 M167.036 526.217 L191.148 526.217 L191.148 529.414 L167.036 529.414 L167.036 526.217 Z" fill="#000000" fill-rule="evenodd" fill-opacity="1" /><path clip-path="url(#clip930)" d="M 0 0 M200.006 536.692 L206.213 536.692 L206.213 515.27 L199.461 516.625 L199.461 513.164 L206.175 511.81 L209.974 511.81 L209.974 536.692 L216.181 536.692 L216.181 539.89 L200.006 539.89 L200.006 536.692 Z" fill="#000000" fill-rule="evenodd" fill-opacity="1" /><path clip-path="url(#clip930)" d="M 0 0 M223.854 535.113 L227.823 535.113 L227.823 539.89 L223.854 539.89 L223.854 535.113 Z" fill="#000000" fill-rule="evenodd" fill-opacity="1" /><path clip-path="url(#clip930)" d="M 0 0 M236.136 511.81 L251.051 511.81 L251.051 515.007 L239.615 515.007 L239.615 521.891 Q240.443 521.609 241.27 521.477 Q242.098 521.326 242.926 521.326 Q247.627 521.326 250.373 523.903 Q253.119 526.48 253.119 530.881 Q253.119 535.414 250.298 537.934 Q247.477 540.435 242.343 540.435 Q240.575 540.435 238.731 540.134 Q236.907 539.833 234.951 539.231 L234.951 535.414 Q236.644 536.335 238.449 536.786 Q240.255 537.238 242.267 537.238 Q245.521 537.238 247.421 535.526 Q249.32 533.815 249.32 530.881 Q249.32 527.947 247.421 526.235 Q245.521 524.524 242.267 524.524 Q240.744 524.524 239.22 524.862 Q237.716 525.201 236.136 525.916 L236.136 511.81 Z" fill="#000000" fill-rule="evenodd" fill-opacity="1" /><path clip-path="url(#clip930)" d="M 0 0 M114.931 398.203 L122.57 398.203 L122.57 371.837 L114.26 373.504 L114.26 369.245 L122.524 367.578 L127.2 367.578 L127.2 398.203 L134.839 398.203 L134.839 402.138 L114.931 402.138 L114.931 398.203 Z" fill="#000000" fill-rule="evenodd" fill-opacity="1" /><path clip-path="url(#clip930)" d="M 0 0 M154.283 370.657 Q150.672 370.657 148.843 374.221 Q147.038 377.763 147.038 384.893 Q147.038 391.999 148.843 395.564 Q150.672 399.106 154.283 399.106 Q157.917 399.106 159.723 395.564 Q161.552 391.999 161.552 384.893 Q161.552 377.763 159.723 374.221 Q157.917 370.657 154.283 370.657 M154.283 366.953 Q160.093 366.953 163.149 371.559 Q166.227 376.143 166.227 384.893 Q166.227 393.619 163.149 398.226 Q160.093 402.809 154.283 402.809 Q148.473 402.809 145.394 398.226 Q142.339 393.619 142.339 384.893 Q142.339 376.143 145.394 371.559 Q148.473 366.953 154.283 366.953 Z" fill="#000000" fill-rule="evenodd" fill-opacity="1" /><path clip-path="url(#clip930)" d="M 0 0 M166.227 361.054 L190.339 361.054 L190.339 364.252 L166.227 364.252 L166.227 361.054 Z" fill="#000000" fill-rule="evenodd" fill-opacity="1" /><path clip-path="url(#clip930)" d="M 0 0 M199.197 371.53 L205.404 371.53 L205.404 350.108 L198.652 351.462 L198.652 348.002 L205.366 346.648 L209.166 346.648 L209.166 371.53 L215.372 371.53 L215.372 374.728 L199.197 374.728 L199.197 371.53 Z" fill="#000000" fill-rule="evenodd" fill-opacity="1" /><path clip-path="url(#clip930)" d="M 0 0 M223.046 369.95 L227.014 369.95 L227.014 374.728 L223.046 374.728 L223.046 369.95 Z" fill="#000000" fill-rule="evenodd" fill-opacity="1" /><path clip-path="url(#clip930)" d="M 0 0 M243.415 349.149 Q240.481 349.149 238.995 352.045 Q237.528 354.923 237.528 360.716 Q237.528 366.49 238.995 369.386 Q240.481 372.264 243.415 372.264 Q246.367 372.264 247.834 369.386 Q249.32 366.49 249.32 360.716 Q249.32 354.923 247.834 352.045 Q246.367 349.149 243.415 349.149 M243.415 346.14 Q248.135 346.14 250.618 349.883 Q253.119 353.606 253.119 360.716 Q253.119 367.806 250.618 371.549 Q248.135 375.273 243.415 375.273 Q238.694 375.273 236.192 371.549 Q233.71 367.806 233.71 360.716 Q233.71 353.606 236.192 349.883 Q238.694 346.14 243.415 346.14 Z" fill="#000000" fill-rule="evenodd" fill-opacity="1" /><path clip-path="url(#clip930)" d="M 0 0 M115.74 233.041 L123.379 233.041 L123.379 206.675 L115.069 208.342 L115.069 204.082 L123.333 202.416 L128.009 202.416 L128.009 233.041 L135.647 233.041 L135.647 236.976 L115.74 236.976 L115.74 233.041 Z" fill="#000000" fill-rule="evenodd" fill-opacity="1" /><path clip-path="url(#clip930)" d="M 0 0 M155.092 205.494 Q151.481 205.494 149.652 209.059 Q147.846 212.601 147.846 219.73 Q147.846 226.837 149.652 230.402 Q151.481 233.943 155.092 233.943 Q158.726 233.943 160.532 230.402 Q162.36 226.837 162.36 219.73 Q162.36 212.601 160.532 209.059 Q158.726 205.494 155.092 205.494 M155.092 201.791 Q160.902 201.791 163.958 206.397 Q167.036 210.981 167.036 219.73 Q167.036 228.457 163.958 233.064 Q160.902 237.647 155.092 237.647 Q149.282 237.647 146.203 233.064 Q143.147 228.457 143.147 219.73 Q143.147 210.981 146.203 206.397 Q149.282 201.791 155.092 201.791 Z" fill="#000000" fill-rule="evenodd" fill-opacity="1" /><path clip-path="url(#clip930)" d="M 0 0 M167.036 195.892 L191.148 195.892 L191.148 199.089 L167.036 199.089 L167.036 195.892 Z" fill="#000000" fill-rule="evenodd" fill-opacity="1" /><path clip-path="url(#clip930)" d="M 0 0 M207.473 183.987 Q204.539 183.987 203.053 186.883 Q201.586 189.761 201.586 195.554 Q201.586 201.328 203.053 204.224 Q204.539 207.102 207.473 207.102 Q210.426 207.102 211.893 204.224 Q213.379 201.328 213.379 195.554 Q213.379 189.761 211.893 186.883 Q210.426 183.987 207.473 183.987 M207.473 180.978 Q212.194 180.978 214.676 184.72 Q217.178 188.444 217.178 195.554 Q217.178 202.644 214.676 206.387 Q212.194 210.111 207.473 210.111 Q202.752 210.111 200.251 206.387 Q197.768 202.644 197.768 195.554 Q197.768 188.444 200.251 184.72 Q202.752 180.978 207.473 180.978 Z" fill="#000000" fill-rule="evenodd" fill-opacity="1" /><path clip-path="url(#clip930)" d="M 0 0 M223.854 204.788 L227.823 204.788 L227.823 209.565 L223.854 209.565 L223.854 204.788 Z" fill="#000000" fill-rule="evenodd" fill-opacity="1" /><path clip-path="url(#clip930)" d="M 0 0 M236.136 181.485 L251.051 181.485 L251.051 184.683 L239.615 184.683 L239.615 191.566 Q240.443 191.284 241.27 191.153 Q242.098 191.002 242.926 191.002 Q247.627 191.002 250.373 193.579 Q253.119 196.155 253.119 200.556 Q253.119 205.089 250.298 207.609 Q247.477 210.111 242.343 210.111 Q240.575 210.111 238.731 209.81 Q236.907 209.509 234.951 208.907 L234.951 205.089 Q236.644 206.011 238.449 206.462 Q240.255 206.913 242.267 206.913 Q245.521 206.913 247.421 205.202 Q249.32 203.49 249.32 200.556 Q249.32 197.622 247.421 195.911 Q245.521 194.199 242.267 194.199 Q240.744 194.199 239.22 194.538 Q237.716 194.876 236.136 195.591 L236.136 181.485 Z" fill="#000000" fill-rule="evenodd" fill-opacity="1" /><path clip-path="url(#clip930)" d="M 0 0 M145.663 67.8784 L153.302 67.8784 L153.302 41.5128 L144.992 43.1795 L144.992 38.9202 L153.256 37.2536 L157.932 37.2536 L157.932 67.8784 L165.571 67.8784 L165.571 71.8136 L145.663 71.8136 L145.663 67.8784 Z" fill="#000000" fill-rule="evenodd" fill-opacity="1" /><path clip-path="url(#clip930)" d="M 0 0 M185.015 40.3322 Q181.404 40.3322 179.575 43.897 Q177.77 47.4387 177.77 54.5683 Q177.77 61.6747 179.575 65.2395 Q181.404 68.7812 185.015 68.7812 Q188.649 68.7812 190.455 65.2395 Q192.283 61.6747 192.283 54.5683 Q192.283 47.4387 190.455 43.897 Q188.649 40.3322 185.015 40.3322 M185.015 36.6286 Q190.825 36.6286 193.881 41.235 Q196.959 45.8183 196.959 54.5683 Q196.959 63.2951 193.881 67.9015 Q190.825 72.4848 185.015 72.4848 Q179.205 72.4848 176.126 67.9015 Q173.071 63.2951 173.071 54.5683 Q173.071 45.8183 176.126 41.235 Q179.205 36.6286 185.015 36.6286 Z" fill="#000000" fill-rule="evenodd" fill-opacity="1" /><path clip-path="url(#clip930)" d="M 0 0 M206.664 18.8246 Q203.73 18.8246 202.244 21.721 Q200.777 24.5986 200.777 30.3914 Q200.777 36.1654 202.244 39.0617 Q203.73 41.9393 206.664 41.9393 Q209.617 41.9393 211.084 39.0617 Q212.57 36.1654 212.57 30.3914 Q212.57 24.5986 211.084 21.721 Q209.617 18.8246 206.664 18.8246 M206.664 15.8153 Q211.385 15.8153 213.868 19.5581 Q216.369 23.282 216.369 30.3914 Q216.369 37.4819 213.868 41.2246 Q211.385 44.9486 206.664 44.9486 Q201.943 44.9486 199.442 41.2246 Q196.959 37.4819 196.959 30.3914 Q196.959 23.282 199.442 19.5581 Q201.943 15.8153 206.664 15.8153 Z" fill="#000000" fill-rule="evenodd" fill-opacity="1" /><path clip-path="url(#clip930)" d="M 0 0 M223.046 39.626 L227.014 39.626 L227.014 44.4032 L223.046 44.4032 L223.046 39.626 Z" fill="#000000" fill-rule="evenodd" fill-opacity="1" /><path clip-path="url(#clip930)" d="M 0 0 M243.415 18.8246 Q240.481 18.8246 238.995 21.721 Q237.528 24.5986 237.528 30.3914 Q237.528 36.1654 238.995 39.0617 Q240.481 41.9393 243.415 41.9393 Q246.367 41.9393 247.834 39.0617 Q249.32 36.1654 249.32 30.3914 Q249.32 24.5986 247.834 21.721 Q246.367 18.8246 243.415 18.8246 M243.415 15.8153 Q248.135 15.8153 250.618 19.5581 Q253.119 23.282 253.119 30.3914 Q253.119 37.4819 250.618 41.2246 Q248.135 44.9486 243.415 44.9486 Q238.694 44.9486 236.192 41.2246 Q233.71 37.4819 233.71 30.3914 Q233.71 23.282 236.192 19.5581 Q238.694 15.8153 243.415 15.8153 Z" fill="#000000" fill-rule="evenodd" fill-opacity="1" /><path clip-path="url(#clip930)" d="M 0 0 M41.7242 362.504 Q42.4244 360.436 44.7161 358.494 Q47.0077 356.521 51.0181 354.547 L64.0042 348.022 L64.0042 354.929 L51.8138 361.009 Q47.0395 363.364 45.48 365.592 Q43.9204 367.788 43.9204 371.607 L43.9204 378.61 L64.0042 378.61 L64.0042 385.039 L16.4842 385.039 L16.4842 370.525 Q16.4842 362.377 19.8898 358.367 Q23.2955 354.356 30.1704 354.356 Q34.6582 354.356 37.6183 356.457 Q40.5784 358.526 41.7242 362.504 M21.7677 378.61 L38.6368 378.61 L38.6368 370.525 Q38.6368 365.878 36.5043 363.523 Q34.34 361.136 30.1704 361.136 Q26.0009 361.136 23.9002 363.523 Q21.7677 365.878 21.7677 370.525 L21.7677 378.61 Z" fill="#000000" fill-rule="evenodd" fill-opacity="1" /><path clip-path="url(#clip930)" d="M 0 0 M22.818 326.506 L46.4666 335.227 L46.4666 317.754 L22.818 326.506 M16.4842 330.135 L16.4842 322.846 L64.0042 304.736 L64.0042 311.42 L51.8138 315.748 L51.8138 337.169 L64.0042 341.498 L64.0042 348.277 L16.4842 330.135 Z" fill="#000000" fill-rule="evenodd" fill-opacity="1" /><polyline clip-path="url(#clip932)" style="stroke:#009af9; stroke-width:8; stroke-opacity:1; fill:none" points="
  347.524,64.0918 366.537,65.4294 542.333,83.0586 647.98,99.0763 737.303,116.083 834.332,137.97 923.785,160.883 1019.69,187.782 1130.8,221.178 1229.54,252.249 
  1316.13,280.219 1410.54,311.232 1505.51,342.794 1610.5,377.962 1710.41,411.591 1814.28,446.665 1901.72,476.244 2008.48,512.399 2108.83,546.412 2269.61,600.933 
  2294.35,609.326 
  "/>
<polyline clip-path="url(#clip932)" style="stroke:#ff0000; stroke-width:4; stroke-opacity:1; fill:none" points="
  347.524,355.14 1542.45,355.14 1542.45,625.683 
  "/>
<path clip-path="url(#clip930)" d="M 0 0 M1582.15 348.005 Q1582.15 350.259 1580.92 355.236 Q1579.69 360.213 1578.2 363.61 Q1575 370.988 1569.5 370.988 Q1568.83 370.988 1568.15 370.929 Q1567.51 370.871 1566.54 370.607 Q1565.58 370.344 1564.79 369.934 Q1564 369.495 1563.2 368.675 Q1562.44 367.855 1562 366.772 Q1559.57 370.988 1555.77 370.988 Q1552.08 370.988 1549.65 369.114 Q1547.25 367.24 1547.25 363.405 Q1547.25 361.677 1547.95 359.13 Q1548.65 356.583 1550.62 351.313 Q1551.7 348.59 1551.7 347.097 Q1551.7 346.424 1551.55 345.984 Q1551.41 345.545 1551.11 345.399 Q1550.85 345.223 1550.67 345.194 Q1550.5 345.135 1550.21 345.135 Q1548.45 345.135 1546.87 346.921 Q1545.29 348.678 1544.14 352.572 Q1543.91 353.304 1543.76 353.48 Q1543.62 353.655 1543.18 353.655 Q1542.45 353.626 1542.45 353.04 Q1542.45 352.806 1542.71 351.899 Q1542.97 350.962 1543.59 349.586 Q1544.23 348.18 1545.11 346.921 Q1545.99 345.633 1547.37 344.725 Q1548.77 343.818 1550.38 343.818 Q1552.55 343.818 1553.92 345.252 Q1555.3 346.687 1555.3 348.736 Q1555.3 349.322 1555.15 349.966 Q1555.01 350.581 1554.86 350.991 Q1554.74 351.372 1554.27 352.572 Q1552.34 357.637 1551.73 360.067 Q1551.14 362.497 1551.14 364.195 Q1551.14 364.752 1551.17 365.191 Q1551.2 365.63 1551.43 366.538 Q1551.7 367.445 1552.17 368.06 Q1552.64 368.646 1553.6 369.143 Q1554.6 369.641 1555.94 369.641 Q1559.31 369.641 1561.48 364.605 Q1561.42 364.312 1561.42 363.551 Q1561.42 361.853 1561.95 359.569 Q1562.09 359.042 1562.94 355.675 Q1563.79 352.279 1564.52 349.322 Q1565.28 346.336 1565.37 346.16 Q1565.66 345.34 1566.31 344.901 Q1566.95 344.462 1567.6 344.462 Q1568.33 344.462 1568.83 344.901 Q1569.32 345.34 1569.32 346.101 Q1569.32 346.248 1569.15 346.921 Q1569 347.565 1568.77 348.532 Q1568.53 349.498 1568.42 349.995 L1565.9 360.067 Q1565.25 362.409 1565.25 364.43 Q1565.25 366.977 1566.4 368.324 Q1567.54 369.641 1569.68 369.641 Q1573.69 369.641 1576.26 364.371 Q1577.43 362.087 1578.49 358.515 Q1579.57 354.943 1579.57 353.392 Q1579.57 350.464 1577.4 348.297 Q1576.94 347.887 1576.73 347.565 Q1576.53 347.214 1576.53 346.687 Q1576.53 345.692 1577.46 344.755 Q1578.4 343.818 1579.51 343.818 Q1580.51 343.818 1581.33 344.813 Q1582.15 345.779 1582.15 348.005 Z" fill="#000000" fill-rule="evenodd" fill-opacity="1" /><path clip-path="url(#clip930)" d="M 0 0 M1604.33 377.154 Q1604.49 377.339 1604.49 377.523 Q1604.49 377.707 1604.08 378.24 Q1603.69 378.773 1602.85 379.49 Q1602.01 380.208 1600.93 380.884 Q1599.84 381.56 1598.24 382.011 Q1596.64 382.483 1594.96 382.483 Q1591.83 382.483 1589.98 380.413 Q1588.16 378.343 1588.16 375.371 Q1588.16 372.481 1589.78 369.715 Q1591.4 366.927 1594.02 365.206 Q1596.64 363.464 1599.41 363.464 Q1601.6 363.464 1602.98 364.488 Q1604.35 365.513 1604.35 367.071 Q1604.35 368.28 1603.65 369.018 Q1602.96 369.755 1602.01 369.755 Q1601.36 369.755 1600.91 369.387 Q1600.46 368.997 1600.46 368.28 Q1600.46 367.358 1601.21 366.64 Q1601.5 366.353 1601.83 366.23 Q1602.18 366.087 1602.38 366.087 Q1602.59 366.066 1603.06 366.066 Q1602.63 365.267 1601.6 364.837 Q1600.6 364.386 1599.45 364.386 Q1597.75 364.386 1596.13 365.575 Q1594.51 366.743 1593.53 368.587 Q1592.54 370.391 1591.91 372.953 Q1591.27 375.494 1591.27 376.97 Q1591.27 378.999 1592.22 380.269 Q1593.16 381.54 1595.05 381.54 Q1595.41 381.54 1595.8 381.519 Q1596.21 381.499 1597.24 381.273 Q1598.28 381.048 1599.21 380.659 Q1600.13 380.269 1601.3 379.429 Q1602.48 378.568 1603.43 377.4 Q1603.76 376.97 1603.98 376.97 Q1604.17 376.97 1604.33 377.154 Z" fill="#000000" fill-rule="evenodd" fill-opacity="1" /><path clip-path="url(#clip930)" d="M 0 0 M1624.12 370.555 Q1624.12 372.789 1623.13 375.002 Q1622.15 377.195 1620.57 378.835 Q1619.02 380.454 1616.97 381.478 Q1614.92 382.483 1612.87 382.483 Q1609.94 382.483 1608.03 380.495 Q1606.14 378.486 1606.14 375.371 Q1606.14 372.461 1607.76 369.694 Q1609.4 366.907 1612.03 365.185 Q1614.65 363.464 1617.4 363.464 Q1620.29 363.464 1622.19 365.411 Q1624.12 367.358 1624.12 370.555 M1621.04 368.915 Q1621.04 366.927 1620.08 365.657 Q1619.12 364.386 1617.36 364.386 Q1616.84 364.386 1616.25 364.55 Q1615.65 364.693 1614.88 365.083 Q1614.12 365.472 1613.26 366.292 Q1612.42 367.091 1611.68 368.239 Q1610.71 369.755 1609.98 372.543 Q1609.26 375.31 1609.26 376.97 Q1609.26 379.265 1610.33 380.413 Q1611.39 381.54 1612.91 381.54 Q1614.38 381.54 1615.94 380.515 Q1617.52 379.47 1618.61 377.687 Q1619.69 375.842 1620.37 373.137 Q1621.04 370.411 1621.04 368.915 Z" fill="#000000" fill-rule="evenodd" fill-opacity="1" /><path clip-path="url(#clip930)" d="M 0 0 M1633.55 369.348 Q1632.7 368.382 1632.7 367.123 Q1632.7 365.864 1633.52 364.927 Q1634.37 363.961 1635.89 363.961 Q1637.68 363.961 1638.7 365.688 Q1639.73 367.387 1639.73 370.256 Q1639.73 373.359 1638.47 376.229 Q1637.21 379.127 1635.98 380.503 Q1634.75 381.879 1634.25 381.879 Q1633.67 381.879 1633.67 381.235 Q1633.67 381.001 1634.08 380.562 Q1638.38 375.936 1638.41 370.256 Q1638.41 369.348 1638.29 369.348 L1638.15 369.465 Q1637.12 370.314 1635.89 370.314 Q1634.4 370.314 1633.55 369.348 Z" fill="#000000" fill-rule="evenodd" fill-opacity="1" /><path clip-path="url(#clip930)" d="M 0 0 M1694.93 337.142 Q1694.93 336.176 1694.66 335.386 Q1694.43 334.566 1694.05 334.01 Q1693.7 333.424 1693.02 332.985 Q1692.35 332.516 1691.79 332.224 Q1691.24 331.931 1690.3 331.755 Q1689.36 331.55 1688.75 331.462 Q1688.14 331.345 1687.08 331.287 Q1686.03 331.228 1685.5 331.228 Q1685 331.228 1684.01 331.228 Q1680.87 331.228 1680.35 331.287 Q1679.56 331.404 1679.26 331.872 Q1678.97 332.311 1678.68 333.512 L1674.78 349.146 L1681.49 349.146 Q1685.15 349.146 1687.67 348.122 Q1690.18 347.097 1691.62 345.662 Q1693.2 344.081 1694.05 341.534 Q1694.93 338.987 1694.93 337.142 M1701.46 364.752 Q1701.46 365.074 1701.19 365.806 Q1700.96 366.538 1700.37 367.562 Q1699.79 368.558 1699 369.465 Q1698.21 370.373 1696.95 370.988 Q1695.69 371.632 1694.25 371.632 Q1693.9 371.632 1693.55 371.603 Q1693.2 371.603 1692.32 371.456 Q1691.47 371.339 1690.77 371.105 Q1690.07 370.9 1689.19 370.402 Q1688.31 369.934 1687.7 369.29 Q1687.11 368.616 1686.7 367.562 Q1686.29 366.479 1686.29 365.161 Q1686.29 363.99 1687.26 360.067 Q1688.11 356.729 1688.11 355.91 Q1688.11 355.002 1687.81 354.153 Q1687.55 353.304 1686.88 352.426 Q1686.23 351.547 1684.86 351.02 Q1683.48 350.464 1681.55 350.464 L1674.43 350.464 L1670.45 366.362 Q1670.45 366.391 1670.36 366.801 Q1670.28 367.182 1670.28 367.387 Q1670.28 367.767 1670.51 368.001 Q1670.77 368.236 1671.42 368.353 Q1672.06 368.441 1672.56 368.47 Q1673.09 368.47 1674.17 368.47 Q1675.52 368.47 1675.75 368.704 Q1675.87 368.851 1675.87 369.114 Q1675.87 369.524 1675.75 369.817 Q1675.66 370.08 1675.43 370.168 Q1675.22 370.256 1675.08 370.285 Q1674.93 370.314 1674.67 370.314 L1667.05 370.139 L1659.5 370.314 Q1658.65 370.314 1658.65 369.641 Q1658.65 369.055 1658.86 368.821 Q1659.06 368.558 1659.33 368.528 Q1659.59 368.47 1660.26 368.47 Q1661.73 368.47 1662.6 368.382 Q1663.48 368.294 1664.04 368.177 Q1664.62 368.031 1664.92 367.621 Q1665.24 367.211 1665.39 366.86 Q1665.53 366.479 1665.74 365.63 L1673.76 333.424 Q1673.99 332.458 1673.99 332.311 Q1673.99 331.755 1673.64 331.609 Q1673.32 331.433 1672.38 331.345 L1670.1 331.228 Q1669.4 331.228 1669.1 331.199 Q1668.84 331.17 1668.64 331.023 Q1668.43 330.877 1668.43 330.555 Q1668.43 329.735 1668.78 329.559 Q1669.13 329.354 1670.16 329.354 L1687.26 329.354 Q1693.08 329.354 1696.77 331.902 Q1700.49 334.449 1700.49 338.343 Q1700.49 340.099 1699.7 341.739 Q1698.91 343.379 1697.59 344.667 Q1696.3 345.955 1694.58 347.038 Q1692.85 348.092 1691 348.824 Q1689.19 349.527 1687.32 349.937 Q1688.14 350.23 1688.9 350.669 Q1689.69 351.108 1690.68 351.928 Q1691.71 352.748 1692.32 354.065 Q1692.94 355.383 1692.94 356.993 Q1692.94 358.135 1692.7 359.833 Q1692.12 364.664 1692.12 366.655 Q1692.12 368.558 1692.61 369.436 Q1693.11 370.314 1694.52 370.314 Q1695.89 370.314 1697.42 369.085 Q1698.97 367.826 1699.96 364.869 Q1700.2 364.02 1700.75 364.02 Q1700.78 364.02 1700.81 364.02 Q1700.87 364.02 1700.99 364.078 Q1701.11 364.107 1701.19 364.195 Q1701.31 364.254 1701.37 364.4 Q1701.46 364.547 1701.46 364.752 Z" fill="#000000" fill-rule="evenodd" fill-opacity="1" /><path clip-path="url(#clip930)" d="M 0 0 M1744.85 369.114 Q1744.85 369.67 1744.62 369.963 Q1744.41 370.227 1744.21 370.285 Q1744.03 370.314 1743.77 370.314 Q1743.01 370.314 1740.37 370.227 Q1737.74 370.139 1736.98 370.139 Q1735.75 370.139 1733.23 370.227 Q1730.71 370.314 1729.48 370.314 Q1728.66 370.314 1728.66 369.641 Q1728.66 369.202 1728.75 368.968 Q1728.84 368.704 1729.07 368.616 Q1729.34 368.499 1729.48 368.499 Q1729.66 368.47 1730.1 368.47 Q1730.68 368.47 1731.3 368.411 Q1731.91 368.324 1732.67 368.148 Q1733.43 367.972 1733.9 367.533 Q1734.4 367.094 1734.4 366.479 Q1734.4 366.215 1734.2 364.049 Q1733.99 361.882 1733.73 359.364 Q1733.46 356.817 1733.43 356.466 L1718.39 356.466 Q1717.01 358.837 1716.04 360.477 Q1715.08 362.117 1714.73 362.673 Q1714.37 363.229 1714.17 363.58 Q1713.96 363.932 1713.85 364.137 Q1713 365.688 1713 366.362 Q1713 368.236 1715.81 368.47 Q1716.78 368.47 1716.78 369.173 Q1716.78 369.7 1716.54 369.992 Q1716.31 370.256 1716.1 370.285 Q1715.93 370.314 1715.63 370.314 Q1714.67 370.314 1712.65 370.227 Q1710.63 370.139 1709.63 370.139 Q1708.78 370.139 1707.03 370.227 Q1705.27 370.314 1704.48 370.314 Q1704.13 370.314 1703.92 370.109 Q1703.72 369.905 1703.72 369.641 Q1703.72 369.231 1703.78 368.997 Q1703.86 368.763 1704.1 368.646 Q1704.33 368.528 1704.45 368.528 Q1704.57 368.499 1704.98 368.47 Q1707.2 368.324 1708.93 367.269 Q1710.69 366.186 1712.35 363.405 L1733.2 328.388 Q1733.4 328.037 1733.55 327.861 Q1733.7 327.686 1733.99 327.539 Q1734.31 327.393 1734.78 327.393 Q1735.51 327.393 1735.66 327.627 Q1735.81 327.832 1735.89 328.827 L1739.55 366.303 Q1739.64 367.094 1739.7 367.416 Q1739.79 367.709 1740.17 368.031 Q1740.58 368.324 1741.31 368.411 Q1742.07 368.47 1743.48 368.47 Q1744 368.47 1744.21 368.499 Q1744.41 368.499 1744.62 368.646 Q1744.85 368.792 1744.85 369.114 M1733.26 354.592 L1731.36 334.829 L1719.53 354.592 L1733.26 354.592 Z" fill="#000000" fill-rule="evenodd" fill-opacity="1" /><path clip-path="url(#clip930)" d="M 0 0 M1767.02 376.482 Q1767.19 376.667 1767.19 376.851 Q1767.19 377.036 1766.78 377.568 Q1766.39 378.101 1765.55 378.819 Q1764.71 379.536 1763.62 380.212 Q1762.53 380.889 1760.93 381.339 Q1759.34 381.811 1757.66 381.811 Q1754.52 381.811 1752.68 379.741 Q1750.85 377.671 1750.85 374.699 Q1750.85 371.809 1752.47 369.043 Q1754.09 366.255 1756.71 364.534 Q1759.34 362.792 1762.1 362.792 Q1764.3 362.792 1765.67 363.816 Q1767.04 364.841 1767.04 366.399 Q1767.04 367.608 1766.35 368.346 Q1765.65 369.084 1764.71 369.084 Q1764.05 369.084 1763.6 368.715 Q1763.15 368.325 1763.15 367.608 Q1763.15 366.686 1763.91 365.968 Q1764.19 365.682 1764.52 365.559 Q1764.87 365.415 1765.07 365.415 Q1765.28 365.395 1765.75 365.395 Q1765.32 364.595 1764.3 364.165 Q1763.29 363.714 1762.14 363.714 Q1760.44 363.714 1758.82 364.903 Q1757.2 366.071 1756.22 367.915 Q1755.24 369.719 1754.6 372.281 Q1753.97 374.822 1753.97 376.298 Q1753.97 378.327 1754.91 379.597 Q1755.85 380.868 1757.74 380.868 Q1758.11 380.868 1758.5 380.848 Q1758.91 380.827 1759.93 380.602 Q1760.98 380.376 1761.9 379.987 Q1762.82 379.597 1763.99 378.757 Q1765.18 377.896 1766.12 376.728 Q1766.45 376.298 1766.67 376.298 Q1766.86 376.298 1767.02 376.482 Z" fill="#000000" fill-rule="evenodd" fill-opacity="1" /><path clip-path="url(#clip930)" d="M 0 0 M1786.81 369.883 Q1786.81 372.117 1785.83 374.33 Q1784.84 376.523 1783.26 378.163 Q1781.71 379.782 1779.66 380.807 Q1777.61 381.811 1775.56 381.811 Q1772.63 381.811 1770.72 379.823 Q1768.84 377.814 1768.84 374.699 Q1768.84 371.789 1770.46 369.022 Q1772.1 366.235 1774.72 364.513 Q1777.34 362.792 1780.09 362.792 Q1782.98 362.792 1784.88 364.739 Q1786.81 366.686 1786.81 369.883 M1783.74 368.243 Q1783.74 366.255 1782.77 364.985 Q1781.81 363.714 1780.05 363.714 Q1779.53 363.714 1778.94 363.878 Q1778.35 364.021 1777.57 364.411 Q1776.81 364.8 1775.95 365.62 Q1775.11 366.419 1774.37 367.567 Q1773.41 369.084 1772.67 371.871 Q1771.95 374.638 1771.95 376.298 Q1771.95 378.593 1773.02 379.741 Q1774.08 380.868 1775.6 380.868 Q1777.08 380.868 1778.63 379.843 Q1780.21 378.798 1781.3 377.015 Q1782.38 375.171 1783.06 372.465 Q1783.74 369.739 1783.74 368.243 Z" fill="#000000" fill-rule="evenodd" fill-opacity="1" /><path clip-path="url(#clip930)" d="
M289.119 1410.9 L2352.76 1410.9 L2352.76 815.61 L289.119 815.61  Z
  " fill="#ffffff" fill-rule="evenodd" fill-opacity="1"/>
<defs>
  <clipPath id="clip933">
    <rect x="289" y="815" width="2065" height="596"/>
  </clipPath>
</defs>
<polyline clip-path="url(#clip933)" style="stroke:#000000; stroke-width:2; stroke-opacity:0.1; fill:none" points="
  347.524,1410.9 347.524,815.61 
  "/>
<polyline clip-path="url(#clip933)" style="stroke:#000000; stroke-width:2; stroke-opacity:0.1; fill:none" points="
  834.231,1410.9 834.231,815.61 
  "/>
<polyline clip-path="url(#clip933)" style="stroke:#000000; stroke-width:2; stroke-opacity:0.1; fill:none" points="
  1320.94,1410.9 1320.94,815.61 
  "/>
<polyline clip-path="url(#clip933)" style="stroke:#000000; stroke-width:2; stroke-opacity:0.1; fill:none" points="
  1807.64,1410.9 1807.64,815.61 
  "/>
<polyline clip-path="url(#clip933)" style="stroke:#000000; stroke-width:2; stroke-opacity:0.1; fill:none" points="
  2294.35,1410.9 2294.35,815.61 
  "/>
<polyline clip-path="url(#clip930)" style="stroke:#000000; stroke-width:4; stroke-opacity:1; fill:none" points="
  289.119,1410.9 2352.76,1410.9 
  "/>
<polyline clip-path="url(#clip930)" style="stroke:#000000; stroke-width:4; stroke-opacity:1; fill:none" points="
  347.524,1410.9 347.524,1403.75 
  "/>
<polyline clip-path="url(#clip930)" style="stroke:#000000; stroke-width:4; stroke-opacity:1; fill:none" points="
  834.231,1410.9 834.231,1403.75 
  "/>
<polyline clip-path="url(#clip930)" style="stroke:#000000; stroke-width:4; stroke-opacity:1; fill:none" points="
  1320.94,1410.9 1320.94,1403.75 
  "/>
<polyline clip-path="url(#clip930)" style="stroke:#000000; stroke-width:4; stroke-opacity:1; fill:none" points="
  1807.64,1410.9 1807.64,1403.75 
  "/>
<polyline clip-path="url(#clip930)" style="stroke:#000000; stroke-width:4; stroke-opacity:1; fill:none" points="
  2294.35,1410.9 2294.35,1403.75 
  "/>
<polyline clip-path="url(#clip930)" style="stroke:#000000; stroke-width:4; stroke-opacity:1; fill:none" points="
  499.456,1410.9 499.456,1407.32 
  "/>
<polyline clip-path="url(#clip930)" style="stroke:#000000; stroke-width:4; stroke-opacity:1; fill:none" points="
  610.986,1410.9 610.986,1407.32 
  "/>
<polyline clip-path="url(#clip930)" style="stroke:#000000; stroke-width:4; stroke-opacity:1; fill:none" points="
  699.151,1410.9 699.151,1407.32 
  "/>
<polyline clip-path="url(#clip930)" style="stroke:#000000; stroke-width:4; stroke-opacity:1; fill:none" points="
  772.063,1410.9 772.063,1407.32 
  "/>
<polyline clip-path="url(#clip930)" style="stroke:#000000; stroke-width:4; stroke-opacity:1; fill:none" points="
  986.162,1410.9 986.162,1407.32 
  "/>
<polyline clip-path="url(#clip930)" style="stroke:#000000; stroke-width:4; stroke-opacity:1; fill:none" points="
  1097.69,1410.9 1097.69,1407.32 
  "/>
<polyline clip-path="url(#clip930)" style="stroke:#000000; stroke-width:4; stroke-opacity:1; fill:none" points="
  1185.86,1410.9 1185.86,1407.32 
  "/>
<polyline clip-path="url(#clip930)" style="stroke:#000000; stroke-width:4; stroke-opacity:1; fill:none" points="
  1258.77,1410.9 1258.77,1407.32 
  "/>
<polyline clip-path="url(#clip930)" style="stroke:#000000; stroke-width:4; stroke-opacity:1; fill:none" points="
  1472.87,1410.9 1472.87,1407.32 
  "/>
<polyline clip-path="url(#clip930)" style="stroke:#000000; stroke-width:4; stroke-opacity:1; fill:none" points="
  1584.4,1410.9 1584.4,1407.32 
  "/>
<polyline clip-path="url(#clip930)" style="stroke:#000000; stroke-width:4; stroke-opacity:1; fill:none" points="
  1672.56,1410.9 1672.56,1407.32 
  "/>
<polyline clip-path="url(#clip930)" style="stroke:#000000; stroke-width:4; stroke-opacity:1; fill:none" points="
  1745.48,1410.9 1745.48,1407.32 
  "/>
<polyline clip-path="url(#clip930)" style="stroke:#000000; stroke-width:4; stroke-opacity:1; fill:none" points="
  1959.58,1410.9 1959.58,1407.32 
  "/>
<polyline clip-path="url(#clip930)" style="stroke:#000000; stroke-width:4; stroke-opacity:1; fill:none" points="
  2071.11,1410.9 2071.11,1407.32 
  "/>
<polyline clip-path="url(#clip930)" style="stroke:#000000; stroke-width:4; stroke-opacity:1; fill:none" points="
  2159.27,1410.9 2159.27,1407.32 
  "/>
<polyline clip-path="url(#clip930)" style="stroke:#000000; stroke-width:4; stroke-opacity:1; fill:none" points="
  2232.18,1410.9 2232.18,1407.32 
  "/>
<path clip-path="url(#clip930)" d="M 0 0 M294.132 1489.17 L301.771 1489.17 L301.771 1462.8 L293.461 1464.47 L293.461 1460.21 L301.724 1458.54 L306.4 1458.54 L306.4 1489.17 L314.039 1489.17 L314.039 1493.1 L294.132 1493.1 L294.132 1489.17 Z" fill="#000000" fill-rule="evenodd" fill-opacity="1" /><path clip-path="url(#clip930)" d="M 0 0 M333.483 1461.62 Q329.872 1461.62 328.044 1465.19 Q326.238 1468.73 326.238 1475.86 Q326.238 1482.97 328.044 1486.53 Q329.872 1490.07 333.483 1490.07 Q337.118 1490.07 338.923 1486.53 Q340.752 1482.97 340.752 1475.86 Q340.752 1468.73 338.923 1465.19 Q337.118 1461.62 333.483 1461.62 M333.483 1457.92 Q339.294 1457.92 342.349 1462.53 Q345.428 1467.11 345.428 1475.86 Q345.428 1484.59 342.349 1489.19 Q339.294 1493.78 333.483 1493.78 Q327.673 1493.78 324.595 1489.19 Q321.539 1484.59 321.539 1475.86 Q321.539 1467.11 324.595 1462.53 Q327.673 1457.92 333.483 1457.92 Z" fill="#000000" fill-rule="evenodd" fill-opacity="1" /><path clip-path="url(#clip930)" d="M 0 0 M355.133 1440.11 Q352.199 1440.11 350.713 1443.01 Q349.246 1445.89 349.246 1451.68 Q349.246 1457.46 350.713 1460.35 Q352.199 1463.23 355.133 1463.23 Q358.085 1463.23 359.552 1460.35 Q361.038 1457.46 361.038 1451.68 Q361.038 1445.89 359.552 1443.01 Q358.085 1440.11 355.133 1440.11 M355.133 1437.11 Q359.853 1437.11 362.336 1440.85 Q364.837 1444.57 364.837 1451.68 Q364.837 1458.77 362.336 1462.51 Q359.853 1466.24 355.133 1466.24 Q350.412 1466.24 347.91 1462.51 Q345.428 1458.77 345.428 1451.68 Q345.428 1444.57 347.91 1440.85 Q350.412 1437.11 355.133 1437.11 Z" fill="#000000" fill-rule="evenodd" fill-opacity="1" /><path clip-path="url(#clip930)" d="M 0 0 M371.514 1460.92 L375.483 1460.92 L375.483 1465.69 L371.514 1465.69 L371.514 1460.92 Z" fill="#000000" fill-rule="evenodd" fill-opacity="1" /><path clip-path="url(#clip930)" d="M 0 0 M391.883 1440.11 Q388.949 1440.11 387.463 1443.01 Q385.996 1445.89 385.996 1451.68 Q385.996 1457.46 387.463 1460.35 Q388.949 1463.23 391.883 1463.23 Q394.836 1463.23 396.303 1460.35 Q397.789 1457.46 397.789 1451.68 Q397.789 1445.89 396.303 1443.01 Q394.836 1440.11 391.883 1440.11 M391.883 1437.11 Q396.604 1437.11 399.086 1440.85 Q401.588 1444.57 401.588 1451.68 Q401.588 1458.77 399.086 1462.51 Q396.604 1466.24 391.883 1466.24 Q387.162 1466.24 384.661 1462.51 Q382.178 1458.77 382.178 1451.68 Q382.178 1444.57 384.661 1440.85 Q387.162 1437.11 391.883 1437.11 Z" fill="#000000" fill-rule="evenodd" fill-opacity="1" /><path clip-path="url(#clip930)" d="M 0 0 M781.243 1489.17 L788.882 1489.17 L788.882 1462.8 L780.572 1464.47 L780.572 1460.21 L788.835 1458.54 L793.511 1458.54 L793.511 1489.17 L801.15 1489.17 L801.15 1493.1 L781.243 1493.1 L781.243 1489.17 Z" fill="#000000" fill-rule="evenodd" fill-opacity="1" /><path clip-path="url(#clip930)" d="M 0 0 M820.595 1461.62 Q816.983 1461.62 815.155 1465.19 Q813.349 1468.73 813.349 1475.86 Q813.349 1482.97 815.155 1486.53 Q816.983 1490.07 820.595 1490.07 Q824.229 1490.07 826.034 1486.53 Q827.863 1482.97 827.863 1475.86 Q827.863 1468.73 826.034 1465.19 Q824.229 1461.62 820.595 1461.62 M820.595 1457.92 Q826.405 1457.92 829.46 1462.53 Q832.539 1467.11 832.539 1475.86 Q832.539 1484.59 829.46 1489.19 Q826.405 1493.78 820.595 1493.78 Q814.784 1493.78 811.706 1489.19 Q808.65 1484.59 808.65 1475.86 Q808.65 1467.11 811.706 1462.53 Q814.784 1457.92 820.595 1457.92 Z" fill="#000000" fill-rule="evenodd" fill-opacity="1" /><path clip-path="url(#clip930)" d="M 0 0 M842.244 1440.11 Q839.31 1440.11 837.824 1443.01 Q836.357 1445.89 836.357 1451.68 Q836.357 1457.46 837.824 1460.35 Q839.31 1463.23 842.244 1463.23 Q845.197 1463.23 846.664 1460.35 Q848.149 1457.46 848.149 1451.68 Q848.149 1445.89 846.664 1443.01 Q845.197 1440.11 842.244 1440.11 M842.244 1437.11 Q846.964 1437.11 849.447 1440.85 Q851.949 1444.57 851.949 1451.68 Q851.949 1458.77 849.447 1462.51 Q846.964 1466.24 842.244 1466.24 Q837.523 1466.24 835.022 1462.51 Q832.539 1458.77 832.539 1451.68 Q832.539 1444.57 835.022 1440.85 Q837.523 1437.11 842.244 1437.11 Z" fill="#000000" fill-rule="evenodd" fill-opacity="1" /><path clip-path="url(#clip930)" d="M 0 0 M858.625 1460.92 L862.594 1460.92 L862.594 1465.69 L858.625 1465.69 L858.625 1460.92 Z" fill="#000000" fill-rule="evenodd" fill-opacity="1" /><path clip-path="url(#clip930)" d="M 0 0 M870.907 1437.61 L885.821 1437.61 L885.821 1440.81 L874.386 1440.81 L874.386 1447.69 Q875.214 1447.41 876.041 1447.28 Q876.869 1447.13 877.696 1447.13 Q882.398 1447.13 885.144 1449.71 Q887.89 1452.28 887.89 1456.68 Q887.89 1461.22 885.069 1463.74 Q882.248 1466.24 877.113 1466.24 Q875.345 1466.24 873.502 1465.94 Q871.678 1465.64 869.722 1465.04 L869.722 1461.22 Q871.415 1462.14 873.22 1462.59 Q875.026 1463.04 877.038 1463.04 Q880.292 1463.04 882.191 1461.33 Q884.091 1459.62 884.091 1456.68 Q884.091 1453.75 882.191 1452.04 Q880.292 1450.33 877.038 1450.33 Q875.515 1450.33 873.991 1450.67 Q872.487 1451 870.907 1451.72 L870.907 1437.61 Z" fill="#000000" fill-rule="evenodd" fill-opacity="1" /><path clip-path="url(#clip930)" d="M 0 0 M1268.39 1489.17 L1276.03 1489.17 L1276.03 1462.8 L1267.72 1464.47 L1267.72 1460.21 L1275.98 1458.54 L1280.66 1458.54 L1280.66 1489.17 L1288.3 1489.17 L1288.3 1493.1 L1268.39 1493.1 L1268.39 1489.17 Z" fill="#000000" fill-rule="evenodd" fill-opacity="1" /><path clip-path="url(#clip930)" d="M 0 0 M1307.74 1461.62 Q1304.13 1461.62 1302.3 1465.19 Q1300.5 1468.73 1300.5 1475.86 Q1300.5 1482.97 1302.3 1486.53 Q1304.13 1490.07 1307.74 1490.07 Q1311.38 1490.07 1313.18 1486.53 Q1315.01 1482.97 1315.01 1475.86 Q1315.01 1468.73 1313.18 1465.19 Q1311.38 1461.62 1307.74 1461.62 M1307.74 1457.92 Q1313.55 1457.92 1316.61 1462.53 Q1319.69 1467.11 1319.69 1475.86 Q1319.69 1484.59 1316.61 1489.19 Q1313.55 1493.78 1307.74 1493.78 Q1301.93 1493.78 1298.85 1489.19 Q1295.8 1484.59 1295.8 1475.86 Q1295.8 1467.11 1298.85 1462.53 Q1301.93 1457.92 1307.74 1457.92 Z" fill="#000000" fill-rule="evenodd" fill-opacity="1" /><path clip-path="url(#clip930)" d="M 0 0 M1320.23 1462.5 L1326.44 1462.5 L1326.44 1441.07 L1319.69 1442.43 L1319.69 1438.97 L1326.4 1437.61 L1330.2 1437.61 L1330.2 1462.5 L1336.41 1462.5 L1336.41 1465.69 L1320.23 1465.69 L1320.23 1462.5 Z" fill="#000000" fill-rule="evenodd" fill-opacity="1" /><path clip-path="url(#clip930)" d="M 0 0 M1344.08 1460.92 L1348.05 1460.92 L1348.05 1465.69 L1344.08 1465.69 L1344.08 1460.92 Z" fill="#000000" fill-rule="evenodd" fill-opacity="1" /><path clip-path="url(#clip930)" d="M 0 0 M1364.45 1440.11 Q1361.52 1440.11 1360.03 1443.01 Q1358.56 1445.89 1358.56 1451.68 Q1358.56 1457.46 1360.03 1460.35 Q1361.52 1463.23 1364.45 1463.23 Q1367.4 1463.23 1368.87 1460.35 Q1370.36 1457.46 1370.36 1451.68 Q1370.36 1445.89 1368.87 1443.01 Q1367.4 1440.11 1364.45 1440.11 M1364.45 1437.11 Q1369.17 1437.11 1371.65 1440.85 Q1374.15 1444.57 1374.15 1451.68 Q1374.15 1458.77 1371.65 1462.51 Q1369.17 1466.24 1364.45 1466.24 Q1359.73 1466.24 1357.23 1462.51 Q1354.75 1458.77 1354.75 1451.68 Q1354.75 1444.57 1357.23 1440.85 Q1359.73 1437.11 1364.45 1437.11 Z" fill="#000000" fill-rule="evenodd" fill-opacity="1" /><path clip-path="url(#clip930)" d="M 0 0 M1755.5 1489.17 L1763.14 1489.17 L1763.14 1462.8 L1754.83 1464.47 L1754.83 1460.21 L1763.1 1458.54 L1767.77 1458.54 L1767.77 1489.17 L1775.41 1489.17 L1775.41 1493.1 L1755.5 1493.1 L1755.5 1489.17 Z" fill="#000000" fill-rule="evenodd" fill-opacity="1" /><path clip-path="url(#clip930)" d="M 0 0 M1794.85 1461.62 Q1791.24 1461.62 1789.41 1465.19 Q1787.61 1468.73 1787.61 1475.86 Q1787.61 1482.97 1789.41 1486.53 Q1791.24 1490.07 1794.85 1490.07 Q1798.49 1490.07 1800.29 1486.53 Q1802.12 1482.97 1802.12 1475.86 Q1802.12 1468.73 1800.29 1465.19 Q1798.49 1461.62 1794.85 1461.62 M1794.85 1457.92 Q1800.66 1457.92 1803.72 1462.53 Q1806.8 1467.11 1806.8 1475.86 Q1806.8 1484.59 1803.72 1489.19 Q1800.66 1493.78 1794.85 1493.78 Q1789.04 1493.78 1785.97 1489.19 Q1782.91 1484.59 1782.91 1475.86 Q1782.91 1467.11 1785.97 1462.53 Q1789.04 1457.92 1794.85 1457.92 Z" fill="#000000" fill-rule="evenodd" fill-opacity="1" /><path clip-path="url(#clip930)" d="M 0 0 M1807.34 1462.5 L1813.55 1462.5 L1813.55 1441.07 L1806.8 1442.43 L1806.8 1438.97 L1813.51 1437.61 L1817.31 1437.61 L1817.31 1462.5 L1823.52 1462.5 L1823.52 1465.69 L1807.34 1465.69 L1807.34 1462.5 Z" fill="#000000" fill-rule="evenodd" fill-opacity="1" /><path clip-path="url(#clip930)" d="M 0 0 M1831.19 1460.92 L1835.16 1460.92 L1835.16 1465.69 L1831.19 1465.69 L1831.19 1460.92 Z" fill="#000000" fill-rule="evenodd" fill-opacity="1" /><path clip-path="url(#clip930)" d="M 0 0 M1843.47 1437.61 L1858.39 1437.61 L1858.39 1440.81 L1846.95 1440.81 L1846.95 1447.69 Q1847.78 1447.41 1848.61 1447.28 Q1849.44 1447.13 1850.26 1447.13 Q1854.97 1447.13 1857.71 1449.71 Q1860.46 1452.28 1860.46 1456.68 Q1860.46 1461.22 1857.64 1463.74 Q1854.81 1466.24 1849.68 1466.24 Q1847.91 1466.24 1846.07 1465.94 Q1844.25 1465.64 1842.29 1465.04 L1842.29 1461.22 Q1843.98 1462.14 1845.79 1462.59 Q1847.59 1463.04 1849.61 1463.04 Q1852.86 1463.04 1854.76 1461.33 Q1856.66 1459.62 1856.66 1456.68 Q1856.66 1453.75 1854.76 1452.04 Q1852.86 1450.33 1849.61 1450.33 Q1848.08 1450.33 1846.56 1450.67 Q1845.05 1451 1843.47 1451.72 L1843.47 1437.61 Z" fill="#000000" fill-rule="evenodd" fill-opacity="1" /><path clip-path="url(#clip930)" d="M 0 0 M2241.1 1489.17 L2248.74 1489.17 L2248.74 1462.8 L2240.43 1464.47 L2240.43 1460.21 L2248.69 1458.54 L2253.37 1458.54 L2253.37 1489.17 L2261.01 1489.17 L2261.01 1493.1 L2241.1 1493.1 L2241.1 1489.17 Z" fill="#000000" fill-rule="evenodd" fill-opacity="1" /><path clip-path="url(#clip930)" d="M 0 0 M2280.45 1461.62 Q2276.84 1461.62 2275.01 1465.19 Q2273.21 1468.73 2273.21 1475.86 Q2273.21 1482.97 2275.01 1486.53 Q2276.84 1490.07 2280.45 1490.07 Q2284.09 1490.07 2285.89 1486.53 Q2287.72 1482.97 2287.72 1475.86 Q2287.72 1468.73 2285.89 1465.19 Q2284.09 1461.62 2280.45 1461.62 M2280.45 1457.92 Q2286.26 1457.92 2289.32 1462.53 Q2292.4 1467.11 2292.4 1475.86 Q2292.4 1484.59 2289.32 1489.19 Q2286.26 1493.78 2280.45 1493.78 Q2274.64 1493.78 2271.56 1489.19 Q2268.51 1484.59 2268.51 1475.86 Q2268.51 1467.11 2271.56 1462.53 Q2274.64 1457.92 2280.45 1457.92 Z" fill="#000000" fill-rule="evenodd" fill-opacity="1" /><path clip-path="url(#clip930)" d="M 0 0 M2296.97 1462.5 L2310.23 1462.5 L2310.23 1465.69 L2292.4 1465.69 L2292.4 1462.5 Q2294.56 1460.26 2298.28 1456.5 Q2302.03 1452.72 2302.98 1451.63 Q2304.81 1449.58 2305.52 1448.16 Q2306.26 1446.74 2306.26 1445.36 Q2306.26 1443.12 2304.68 1441.71 Q2303.12 1440.3 2300.6 1440.3 Q2298.81 1440.3 2296.82 1440.92 Q2294.84 1441.54 2292.58 1442.8 L2292.58 1438.97 Q2294.88 1438.05 2296.87 1437.58 Q2298.87 1437.11 2300.52 1437.11 Q2304.88 1437.11 2307.48 1439.29 Q2310.08 1441.47 2310.08 1445.12 Q2310.08 1446.85 2309.42 1448.41 Q2308.78 1449.95 2307.07 1452.06 Q2306.6 1452.6 2304.08 1455.22 Q2301.56 1457.81 2296.97 1462.5 Z" fill="#000000" fill-rule="evenodd" fill-opacity="1" /><path clip-path="url(#clip930)" d="M 0 0 M2318.2 1460.92 L2322.17 1460.92 L2322.17 1465.69 L2318.2 1465.69 L2318.2 1460.92 Z" fill="#000000" fill-rule="evenodd" fill-opacity="1" /><path clip-path="url(#clip930)" d="M 0 0 M2338.57 1440.11 Q2335.63 1440.11 2334.15 1443.01 Q2332.68 1445.89 2332.68 1451.68 Q2332.68 1457.46 2334.15 1460.35 Q2335.63 1463.23 2338.57 1463.23 Q2341.52 1463.23 2342.99 1460.35 Q2344.47 1457.46 2344.47 1451.68 Q2344.47 1445.89 2342.99 1443.01 Q2341.52 1440.11 2338.57 1440.11 M2338.57 1437.11 Q2343.29 1437.11 2345.77 1440.85 Q2348.27 1444.57 2348.27 1451.68 Q2348.27 1458.77 2345.77 1462.51 Q2343.29 1466.24 2338.57 1466.24 Q2333.85 1466.24 2331.35 1462.51 Q2328.86 1458.77 2328.86 1451.68 Q2328.86 1444.57 2331.35 1440.85 Q2333.85 1437.11 2338.57 1437.11 Z" fill="#000000" fill-rule="evenodd" fill-opacity="1" /><path clip-path="url(#clip930)" d="M 0 0 M1311.23 1575.11 Q1298.02 1575.11 1298.02 1556.2 Q1298.02 1548.72 1302.95 1538.54 L1309.26 1538.54 Q1304.71 1548.72 1304.71 1556.36 Q1304.71 1570.14 1311.77 1570.14 Q1318.23 1570.14 1318.23 1553.02 L1323.64 1553.02 Q1323.64 1570.14 1330.1 1570.14 Q1337.17 1570.14 1337.17 1556.36 Q1337.17 1548.72 1332.62 1538.54 L1338.92 1538.54 Q1343.85 1548.72 1343.85 1556.2 Q1343.85 1575.11 1330.65 1575.11 Q1321.99 1575.11 1320.94 1565.59 Q1319.63 1575.11 1311.23 1575.11 Z" fill="#000000" fill-rule="evenodd" fill-opacity="1" /><polyline clip-path="url(#clip933)" style="stroke:#000000; stroke-width:2; stroke-opacity:0.1; fill:none" points="
  289.119,1410.77 2352.76,1410.77 
  "/>
<polyline clip-path="url(#clip933)" style="stroke:#000000; stroke-width:2; stroke-opacity:0.1; fill:none" points="
  289.119,1324.16 2352.76,1324.16 
  "/>
<polyline clip-path="url(#clip933)" style="stroke:#000000; stroke-width:2; stroke-opacity:0.1; fill:none" points="
  289.119,1237.54 2352.76,1237.54 
  "/>
<polyline clip-path="url(#clip933)" style="stroke:#000000; stroke-width:2; stroke-opacity:0.1; fill:none" points="
  289.119,1150.93 2352.76,1150.93 
  "/>
<polyline clip-path="url(#clip933)" style="stroke:#000000; stroke-width:2; stroke-opacity:0.1; fill:none" points="
  289.119,1064.32 2352.76,1064.32 
  "/>
<polyline clip-path="url(#clip933)" style="stroke:#000000; stroke-width:2; stroke-opacity:0.1; fill:none" points="
  289.119,977.71 2352.76,977.71 
  "/>
<polyline clip-path="url(#clip933)" style="stroke:#000000; stroke-width:2; stroke-opacity:0.1; fill:none" points="
  289.119,891.098 2352.76,891.098 
  "/>
<polyline clip-path="url(#clip930)" style="stroke:#000000; stroke-width:4; stroke-opacity:1; fill:none" points="
  289.119,1410.9 289.119,815.61 
  "/>
<polyline clip-path="url(#clip930)" style="stroke:#000000; stroke-width:4; stroke-opacity:1; fill:none" points="
  289.119,1410.77 313.883,1410.77 
  "/>
<polyline clip-path="url(#clip930)" style="stroke:#000000; stroke-width:4; stroke-opacity:1; fill:none" points="
  289.119,1324.16 313.883,1324.16 
  "/>
<polyline clip-path="url(#clip930)" style="stroke:#000000; stroke-width:4; stroke-opacity:1; fill:none" points="
  289.119,1237.54 313.883,1237.54 
  "/>
<polyline clip-path="url(#clip930)" style="stroke:#000000; stroke-width:4; stroke-opacity:1; fill:none" points="
  289.119,1150.93 313.883,1150.93 
  "/>
<polyline clip-path="url(#clip930)" style="stroke:#000000; stroke-width:4; stroke-opacity:1; fill:none" points="
  289.119,1064.32 313.883,1064.32 
  "/>
<polyline clip-path="url(#clip930)" style="stroke:#000000; stroke-width:4; stroke-opacity:1; fill:none" points="
  289.119,977.71 313.883,977.71 
  "/>
<polyline clip-path="url(#clip930)" style="stroke:#000000; stroke-width:4; stroke-opacity:1; fill:none" points="
  289.119,891.098 313.883,891.098 
  "/>
<polyline clip-path="url(#clip930)" style="stroke:#000000; stroke-width:4; stroke-opacity:1; fill:none" points="
  289.119,1393.44 301.501,1393.44 
  "/>
<polyline clip-path="url(#clip930)" style="stroke:#000000; stroke-width:4; stroke-opacity:1; fill:none" points="
  289.119,1376.12 301.501,1376.12 
  "/>
<polyline clip-path="url(#clip930)" style="stroke:#000000; stroke-width:4; stroke-opacity:1; fill:none" points="
  289.119,1358.8 301.501,1358.8 
  "/>
<polyline clip-path="url(#clip930)" style="stroke:#000000; stroke-width:4; stroke-opacity:1; fill:none" points="
  289.119,1341.48 301.501,1341.48 
  "/>
<polyline clip-path="url(#clip930)" style="stroke:#000000; stroke-width:4; stroke-opacity:1; fill:none" points="
  289.119,1306.83 301.501,1306.83 
  "/>
<polyline clip-path="url(#clip930)" style="stroke:#000000; stroke-width:4; stroke-opacity:1; fill:none" points="
  289.119,1289.51 301.501,1289.51 
  "/>
<polyline clip-path="url(#clip930)" style="stroke:#000000; stroke-width:4; stroke-opacity:1; fill:none" points="
  289.119,1272.19 301.501,1272.19 
  "/>
<polyline clip-path="url(#clip930)" style="stroke:#000000; stroke-width:4; stroke-opacity:1; fill:none" points="
  289.119,1254.87 301.501,1254.87 
  "/>
<polyline clip-path="url(#clip930)" style="stroke:#000000; stroke-width:4; stroke-opacity:1; fill:none" points="
  289.119,1220.22 301.501,1220.22 
  "/>
<polyline clip-path="url(#clip930)" style="stroke:#000000; stroke-width:4; stroke-opacity:1; fill:none" points="
  289.119,1202.9 301.501,1202.9 
  "/>
<polyline clip-path="url(#clip930)" style="stroke:#000000; stroke-width:4; stroke-opacity:1; fill:none" points="
  289.119,1185.58 301.501,1185.58 
  "/>
<polyline clip-path="url(#clip930)" style="stroke:#000000; stroke-width:4; stroke-opacity:1; fill:none" points="
  289.119,1168.26 301.501,1168.26 
  "/>
<polyline clip-path="url(#clip930)" style="stroke:#000000; stroke-width:4; stroke-opacity:1; fill:none" points="
  289.119,1133.61 301.501,1133.61 
  "/>
<polyline clip-path="url(#clip930)" style="stroke:#000000; stroke-width:4; stroke-opacity:1; fill:none" points="
  289.119,1116.29 301.501,1116.29 
  "/>
<polyline clip-path="url(#clip930)" style="stroke:#000000; stroke-width:4; stroke-opacity:1; fill:none" points="
  289.119,1098.97 301.501,1098.97 
  "/>
<polyline clip-path="url(#clip930)" style="stroke:#000000; stroke-width:4; stroke-opacity:1; fill:none" points="
  289.119,1081.64 301.501,1081.64 
  "/>
<polyline clip-path="url(#clip930)" style="stroke:#000000; stroke-width:4; stroke-opacity:1; fill:none" points="
  289.119,1047 301.501,1047 
  "/>
<polyline clip-path="url(#clip930)" style="stroke:#000000; stroke-width:4; stroke-opacity:1; fill:none" points="
  289.119,1029.68 301.501,1029.68 
  "/>
<polyline clip-path="url(#clip930)" style="stroke:#000000; stroke-width:4; stroke-opacity:1; fill:none" points="
  289.119,1012.35 301.501,1012.35 
  "/>
<polyline clip-path="url(#clip930)" style="stroke:#000000; stroke-width:4; stroke-opacity:1; fill:none" points="
  289.119,995.032 301.501,995.032 
  "/>
<polyline clip-path="url(#clip930)" style="stroke:#000000; stroke-width:4; stroke-opacity:1; fill:none" points="
  289.119,960.388 301.501,960.388 
  "/>
<polyline clip-path="url(#clip930)" style="stroke:#000000; stroke-width:4; stroke-opacity:1; fill:none" points="
  289.119,943.065 301.501,943.065 
  "/>
<polyline clip-path="url(#clip930)" style="stroke:#000000; stroke-width:4; stroke-opacity:1; fill:none" points="
  289.119,925.743 301.501,925.743 
  "/>
<polyline clip-path="url(#clip930)" style="stroke:#000000; stroke-width:4; stroke-opacity:1; fill:none" points="
  289.119,908.421 301.501,908.421 
  "/>
<polyline clip-path="url(#clip930)" style="stroke:#000000; stroke-width:4; stroke-opacity:1; fill:none" points="
  289.119,873.776 301.501,873.776 
  "/>
<polyline clip-path="url(#clip930)" style="stroke:#000000; stroke-width:4; stroke-opacity:1; fill:none" points="
  289.119,856.454 301.501,856.454 
  "/>
<polyline clip-path="url(#clip930)" style="stroke:#000000; stroke-width:4; stroke-opacity:1; fill:none" points="
  289.119,839.132 301.501,839.132 
  "/>
<polyline clip-path="url(#clip930)" style="stroke:#000000; stroke-width:4; stroke-opacity:1; fill:none" points="
  289.119,821.809 301.501,821.809 
  "/>
<path clip-path="url(#clip930)" d="M 0 0 M131.083 1411.22 L160.759 1411.22 L160.759 1415.15 L131.083 1415.15 L131.083 1411.22 Z" fill="#000000" fill-rule="evenodd" fill-opacity="1" /><path clip-path="url(#clip930)" d="M 0 0 M169.671 1393.49 L191.893 1393.49 L191.893 1395.48 L179.347 1428.05 L174.462 1428.05 L186.268 1397.42 L169.671 1397.42 L169.671 1393.49 Z" fill="#000000" fill-rule="evenodd" fill-opacity="1" /><path clip-path="url(#clip930)" d="M 0 0 M211.013 1396.57 Q207.402 1396.57 205.573 1400.13 Q203.768 1403.67 203.768 1410.8 Q203.768 1417.91 205.573 1421.47 Q207.402 1425.01 211.013 1425.01 Q214.647 1425.01 216.453 1421.47 Q218.282 1417.91 218.282 1410.8 Q218.282 1403.67 216.453 1400.13 Q214.647 1396.57 211.013 1396.57 M211.013 1392.86 Q216.823 1392.86 219.879 1397.47 Q222.957 1402.05 222.957 1410.8 Q222.957 1419.53 219.879 1424.14 Q216.823 1428.72 211.013 1428.72 Q205.203 1428.72 202.124 1424.14 Q199.069 1419.53 199.069 1410.8 Q199.069 1402.05 202.124 1397.47 Q205.203 1392.86 211.013 1392.86 Z" fill="#000000" fill-rule="evenodd" fill-opacity="1" /><path clip-path="url(#clip930)" d="M 0 0 M241.175 1396.57 Q237.564 1396.57 235.735 1400.13 Q233.93 1403.67 233.93 1410.8 Q233.93 1417.91 235.735 1421.47 Q237.564 1425.01 241.175 1425.01 Q244.809 1425.01 246.615 1421.47 Q248.443 1417.91 248.443 1410.8 Q248.443 1403.67 246.615 1400.13 Q244.809 1396.57 241.175 1396.57 M241.175 1392.86 Q246.985 1392.86 250.041 1397.47 Q253.119 1402.05 253.119 1410.8 Q253.119 1419.53 250.041 1424.14 Q246.985 1428.72 241.175 1428.72 Q235.365 1428.72 232.286 1424.14 Q229.231 1419.53 229.231 1410.8 Q229.231 1402.05 232.286 1397.47 Q235.365 1392.86 241.175 1392.86 Z" fill="#000000" fill-rule="evenodd" fill-opacity="1" /><path clip-path="url(#clip930)" d="M 0 0 M131.083 1324.61 L160.759 1324.61 L160.759 1328.54 L131.083 1328.54 L131.083 1324.61 Z" fill="#000000" fill-rule="evenodd" fill-opacity="1" /><path clip-path="url(#clip930)" d="M 0 0 M181.43 1322.29 Q178.282 1322.29 176.43 1324.44 Q174.601 1326.6 174.601 1330.35 Q174.601 1334.07 176.43 1336.25 Q178.282 1338.4 181.43 1338.4 Q184.578 1338.4 186.407 1336.25 Q188.259 1334.07 188.259 1330.35 Q188.259 1326.6 186.407 1324.44 Q184.578 1322.29 181.43 1322.29 M190.712 1307.64 L190.712 1311.9 Q188.953 1311.07 187.147 1310.63 Q185.365 1310.19 183.606 1310.19 Q178.976 1310.19 176.523 1313.31 Q174.092 1316.44 173.745 1322.76 Q175.111 1320.74 177.171 1319.68 Q179.231 1318.59 181.708 1318.59 Q186.916 1318.59 189.925 1321.76 Q192.958 1324.91 192.958 1330.35 Q192.958 1335.67 189.81 1338.89 Q186.661 1342.11 181.43 1342.11 Q175.435 1342.11 172.263 1337.52 Q169.092 1332.92 169.092 1324.19 Q169.092 1316 172.981 1311.13 Q176.87 1306.25 183.421 1306.25 Q185.18 1306.25 186.962 1306.6 Q188.768 1306.95 190.712 1307.64 Z" fill="#000000" fill-rule="evenodd" fill-opacity="1" /><path clip-path="url(#clip930)" d="M 0 0 M211.013 1309.95 Q207.402 1309.95 205.573 1313.52 Q203.768 1317.06 203.768 1324.19 Q203.768 1331.3 205.573 1334.86 Q207.402 1338.4 211.013 1338.4 Q214.647 1338.4 216.453 1334.86 Q218.282 1331.3 218.282 1324.19 Q218.282 1317.06 216.453 1313.52 Q214.647 1309.95 211.013 1309.95 M211.013 1306.25 Q216.823 1306.25 219.879 1310.86 Q222.957 1315.44 222.957 1324.19 Q222.957 1332.92 219.879 1337.52 Q216.823 1342.11 211.013 1342.11 Q205.203 1342.11 202.124 1337.52 Q199.069 1332.92 199.069 1324.19 Q199.069 1315.44 202.124 1310.86 Q205.203 1306.25 211.013 1306.25 Z" fill="#000000" fill-rule="evenodd" fill-opacity="1" /><path clip-path="url(#clip930)" d="M 0 0 M241.175 1309.95 Q237.564 1309.95 235.735 1313.52 Q233.93 1317.06 233.93 1324.19 Q233.93 1331.3 235.735 1334.86 Q237.564 1338.4 241.175 1338.4 Q244.809 1338.4 246.615 1334.86 Q248.443 1331.3 248.443 1324.19 Q248.443 1317.06 246.615 1313.52 Q244.809 1309.95 241.175 1309.95 M241.175 1306.25 Q246.985 1306.25 250.041 1310.86 Q253.119 1315.44 253.119 1324.19 Q253.119 1332.92 250.041 1337.52 Q246.985 1342.11 241.175 1342.11 Q235.365 1342.11 232.286 1337.52 Q229.231 1332.92 229.231 1324.19 Q229.231 1315.44 232.286 1310.86 Q235.365 1306.25 241.175 1306.25 Z" fill="#000000" fill-rule="evenodd" fill-opacity="1" /><path clip-path="url(#clip930)" d="M 0 0 M131.083 1238 L160.759 1238 L160.759 1241.93 L131.083 1241.93 L131.083 1238 Z" fill="#000000" fill-rule="evenodd" fill-opacity="1" /><path clip-path="url(#clip930)" d="M 0 0 M170.898 1220.26 L189.254 1220.26 L189.254 1224.2 L175.18 1224.2 L175.18 1232.67 Q176.198 1232.32 177.217 1232.16 Q178.236 1231.98 179.254 1231.98 Q185.041 1231.98 188.421 1235.15 Q191.8 1238.32 191.8 1243.74 Q191.8 1249.31 188.328 1252.42 Q184.856 1255.5 178.536 1255.5 Q176.361 1255.5 174.092 1255.13 Q171.847 1254.75 169.439 1254.01 L169.439 1249.31 Q171.523 1250.45 173.745 1251 Q175.967 1251.56 178.444 1251.56 Q182.448 1251.56 184.786 1249.45 Q187.124 1247.35 187.124 1243.74 Q187.124 1240.13 184.786 1238.02 Q182.448 1235.91 178.444 1235.91 Q176.569 1235.91 174.694 1236.33 Q172.842 1236.75 170.898 1237.63 L170.898 1220.26 Z" fill="#000000" fill-rule="evenodd" fill-opacity="1" /><path clip-path="url(#clip930)" d="M 0 0 M211.013 1223.34 Q207.402 1223.34 205.573 1226.91 Q203.768 1230.45 203.768 1237.58 Q203.768 1244.69 205.573 1248.25 Q207.402 1251.79 211.013 1251.79 Q214.647 1251.79 216.453 1248.25 Q218.282 1244.69 218.282 1237.58 Q218.282 1230.45 216.453 1226.91 Q214.647 1223.34 211.013 1223.34 M211.013 1219.64 Q216.823 1219.64 219.879 1224.25 Q222.957 1228.83 222.957 1237.58 Q222.957 1246.31 219.879 1250.91 Q216.823 1255.5 211.013 1255.5 Q205.203 1255.5 202.124 1250.91 Q199.069 1246.31 199.069 1237.58 Q199.069 1228.83 202.124 1224.25 Q205.203 1219.64 211.013 1219.64 Z" fill="#000000" fill-rule="evenodd" fill-opacity="1" /><path clip-path="url(#clip930)" d="M 0 0 M241.175 1223.34 Q237.564 1223.34 235.735 1226.91 Q233.93 1230.45 233.93 1237.58 Q233.93 1244.69 235.735 1248.25 Q237.564 1251.79 241.175 1251.79 Q244.809 1251.79 246.615 1248.25 Q248.443 1244.69 248.443 1237.58 Q248.443 1230.45 246.615 1226.91 Q244.809 1223.34 241.175 1223.34 M241.175 1219.64 Q246.985 1219.64 250.041 1224.25 Q253.119 1228.83 253.119 1237.58 Q253.119 1246.31 250.041 1250.91 Q246.985 1255.5 241.175 1255.5 Q235.365 1255.5 232.286 1250.91 Q229.231 1246.31 229.231 1237.58 Q229.231 1228.83 232.286 1224.25 Q235.365 1219.64 241.175 1219.64 Z" fill="#000000" fill-rule="evenodd" fill-opacity="1" /><path clip-path="url(#clip930)" d="M 0 0 M131.083 1151.38 L160.759 1151.38 L160.759 1155.32 L131.083 1155.32 L131.083 1151.38 Z" fill="#000000" fill-rule="evenodd" fill-opacity="1" /><path clip-path="url(#clip930)" d="M 0 0 M183.698 1137.73 L171.893 1156.18 L183.698 1156.18 L183.698 1137.73 M182.472 1133.65 L188.351 1133.65 L188.351 1156.18 L193.282 1156.18 L193.282 1160.06 L188.351 1160.06 L188.351 1168.21 L183.698 1168.21 L183.698 1160.06 L168.097 1160.06 L168.097 1155.55 L182.472 1133.65 Z" fill="#000000" fill-rule="evenodd" fill-opacity="1" /><path clip-path="url(#clip930)" d="M 0 0 M211.013 1136.73 Q207.402 1136.73 205.573 1140.3 Q203.768 1143.84 203.768 1150.97 Q203.768 1158.07 205.573 1161.64 Q207.402 1165.18 211.013 1165.18 Q214.647 1165.18 216.453 1161.64 Q218.282 1158.07 218.282 1150.97 Q218.282 1143.84 216.453 1140.3 Q214.647 1136.73 211.013 1136.73 M211.013 1133.03 Q216.823 1133.03 219.879 1137.63 Q222.957 1142.22 222.957 1150.97 Q222.957 1159.69 219.879 1164.3 Q216.823 1168.88 211.013 1168.88 Q205.203 1168.88 202.124 1164.3 Q199.069 1159.69 199.069 1150.97 Q199.069 1142.22 202.124 1137.63 Q205.203 1133.03 211.013 1133.03 Z" fill="#000000" fill-rule="evenodd" fill-opacity="1" /><path clip-path="url(#clip930)" d="M 0 0 M241.175 1136.73 Q237.564 1136.73 235.735 1140.3 Q233.93 1143.84 233.93 1150.97 Q233.93 1158.07 235.735 1161.64 Q237.564 1165.18 241.175 1165.18 Q244.809 1165.18 246.615 1161.64 Q248.443 1158.07 248.443 1150.97 Q248.443 1143.84 246.615 1140.3 Q244.809 1136.73 241.175 1136.73 M241.175 1133.03 Q246.985 1133.03 250.041 1137.63 Q253.119 1142.22 253.119 1150.97 Q253.119 1159.69 250.041 1164.3 Q246.985 1168.88 241.175 1168.88 Q235.365 1168.88 232.286 1164.3 Q229.231 1159.69 229.231 1150.97 Q229.231 1142.22 232.286 1137.63 Q235.365 1133.03 241.175 1133.03 Z" fill="#000000" fill-rule="evenodd" fill-opacity="1" /><path clip-path="url(#clip930)" d="M 0 0 M131.083 1064.77 L160.759 1064.77 L160.759 1068.71 L131.083 1068.71 L131.083 1064.77 Z" fill="#000000" fill-rule="evenodd" fill-opacity="1" /><path clip-path="url(#clip930)" d="M 0 0 M185.018 1062.97 Q188.374 1063.68 190.249 1065.95 Q192.147 1068.22 192.147 1071.56 Q192.147 1076.67 188.629 1079.47 Q185.11 1082.27 178.629 1082.27 Q176.453 1082.27 174.138 1081.83 Q171.847 1081.42 169.393 1080.56 L169.393 1076.05 Q171.337 1077.18 173.652 1077.76 Q175.967 1078.34 178.49 1078.34 Q182.888 1078.34 185.18 1076.6 Q187.495 1074.87 187.495 1071.56 Q187.495 1068.5 185.342 1066.79 Q183.212 1065.05 179.393 1065.05 L175.365 1065.05 L175.365 1061.21 L179.578 1061.21 Q183.027 1061.21 184.856 1059.84 Q186.685 1058.45 186.685 1055.86 Q186.685 1053.2 184.786 1051.79 Q182.911 1050.35 179.393 1050.35 Q177.472 1050.35 175.273 1050.77 Q173.073 1051.18 170.435 1052.06 L170.435 1047.9 Q173.097 1047.16 175.411 1046.79 Q177.749 1046.42 179.81 1046.42 Q185.134 1046.42 188.235 1048.85 Q191.337 1051.25 191.337 1055.37 Q191.337 1058.24 189.694 1060.24 Q188.05 1062.2 185.018 1062.97 Z" fill="#000000" fill-rule="evenodd" fill-opacity="1" /><path clip-path="url(#clip930)" d="M 0 0 M211.013 1050.12 Q207.402 1050.12 205.573 1053.68 Q203.768 1057.23 203.768 1064.36 Q203.768 1071.46 205.573 1075.03 Q207.402 1078.57 211.013 1078.57 Q214.647 1078.57 216.453 1075.03 Q218.282 1071.46 218.282 1064.36 Q218.282 1057.23 216.453 1053.68 Q214.647 1050.12 211.013 1050.12 M211.013 1046.42 Q216.823 1046.42 219.879 1051.02 Q222.957 1055.61 222.957 1064.36 Q222.957 1073.08 219.879 1077.69 Q216.823 1082.27 211.013 1082.27 Q205.203 1082.27 202.124 1077.69 Q199.069 1073.08 199.069 1064.36 Q199.069 1055.61 202.124 1051.02 Q205.203 1046.42 211.013 1046.42 Z" fill="#000000" fill-rule="evenodd" fill-opacity="1" /><path clip-path="url(#clip930)" d="M 0 0 M241.175 1050.12 Q237.564 1050.12 235.735 1053.68 Q233.93 1057.23 233.93 1064.36 Q233.93 1071.46 235.735 1075.03 Q237.564 1078.57 241.175 1078.57 Q244.809 1078.57 246.615 1075.03 Q248.443 1071.46 248.443 1064.36 Q248.443 1057.23 246.615 1053.68 Q244.809 1050.12 241.175 1050.12 M241.175 1046.42 Q246.985 1046.42 250.041 1051.02 Q253.119 1055.61 253.119 1064.36 Q253.119 1073.08 250.041 1077.69 Q246.985 1082.27 241.175 1082.27 Q235.365 1082.27 232.286 1077.69 Q229.231 1073.08 229.231 1064.36 Q229.231 1055.61 232.286 1051.02 Q235.365 1046.42 241.175 1046.42 Z" fill="#000000" fill-rule="evenodd" fill-opacity="1" /><path clip-path="url(#clip930)" d="M 0 0 M131.083 978.161 L160.759 978.161 L160.759 982.096 L131.083 982.096 L131.083 978.161 Z" fill="#000000" fill-rule="evenodd" fill-opacity="1" /><path clip-path="url(#clip930)" d="M 0 0 M174.879 991.055 L191.198 991.055 L191.198 994.99 L169.254 994.99 L169.254 991.055 Q171.916 988.3 176.499 983.67 Q181.106 979.018 182.286 977.675 Q184.532 975.152 185.411 973.416 Q186.314 971.657 186.314 969.967 Q186.314 967.212 184.37 965.476 Q182.448 963.74 179.347 963.74 Q177.148 963.74 174.694 964.504 Q172.263 965.268 169.486 966.819 L169.486 962.097 Q172.31 960.962 174.763 960.384 Q177.217 959.805 179.254 959.805 Q184.624 959.805 187.819 962.49 Q191.013 965.175 191.013 969.666 Q191.013 971.796 190.203 973.717 Q189.416 975.615 187.31 978.208 Q186.731 978.879 183.629 982.096 Q180.527 985.291 174.879 991.055 Z" fill="#000000" fill-rule="evenodd" fill-opacity="1" /><path clip-path="url(#clip930)" d="M 0 0 M211.013 963.509 Q207.402 963.509 205.573 967.073 Q203.768 970.615 203.768 977.745 Q203.768 984.851 205.573 988.416 Q207.402 991.957 211.013 991.957 Q214.647 991.957 216.453 988.416 Q218.282 984.851 218.282 977.745 Q218.282 970.615 216.453 967.073 Q214.647 963.509 211.013 963.509 M211.013 959.805 Q216.823 959.805 219.879 964.411 Q222.957 968.995 222.957 977.745 Q222.957 986.471 219.879 991.078 Q216.823 995.661 211.013 995.661 Q205.203 995.661 202.124 991.078 Q199.069 986.471 199.069 977.745 Q199.069 968.995 202.124 964.411 Q205.203 959.805 211.013 959.805 Z" fill="#000000" fill-rule="evenodd" fill-opacity="1" /><path clip-path="url(#clip930)" d="M 0 0 M241.175 963.509 Q237.564 963.509 235.735 967.073 Q233.93 970.615 233.93 977.745 Q233.93 984.851 235.735 988.416 Q237.564 991.957 241.175 991.957 Q244.809 991.957 246.615 988.416 Q248.443 984.851 248.443 977.745 Q248.443 970.615 246.615 967.073 Q244.809 963.509 241.175 963.509 M241.175 959.805 Q246.985 959.805 250.041 964.411 Q253.119 968.995 253.119 977.745 Q253.119 986.471 250.041 991.078 Q246.985 995.661 241.175 995.661 Q235.365 995.661 232.286 991.078 Q229.231 986.471 229.231 977.745 Q229.231 968.995 232.286 964.411 Q235.365 959.805 241.175 959.805 Z" fill="#000000" fill-rule="evenodd" fill-opacity="1" /><path clip-path="url(#clip930)" d="M 0 0 M131.083 891.55 L160.759 891.55 L160.759 895.485 L131.083 895.485 L131.083 891.55 Z" fill="#000000" fill-rule="evenodd" fill-opacity="1" /><path clip-path="url(#clip930)" d="M 0 0 M171.661 904.443 L179.3 904.443 L179.3 878.078 L170.99 879.744 L170.99 875.485 L179.254 873.818 L183.93 873.818 L183.93 904.443 L191.569 904.443 L191.569 908.378 L171.661 908.378 L171.661 904.443 Z" fill="#000000" fill-rule="evenodd" fill-opacity="1" /><path clip-path="url(#clip930)" d="M 0 0 M211.013 876.897 Q207.402 876.897 205.573 880.462 Q203.768 884.004 203.768 891.133 Q203.768 898.24 205.573 901.804 Q207.402 905.346 211.013 905.346 Q214.647 905.346 216.453 901.804 Q218.282 898.24 218.282 891.133 Q218.282 884.004 216.453 880.462 Q214.647 876.897 211.013 876.897 M211.013 873.193 Q216.823 873.193 219.879 877.8 Q222.957 882.383 222.957 891.133 Q222.957 899.86 219.879 904.466 Q216.823 909.05 211.013 909.05 Q205.203 909.05 202.124 904.466 Q199.069 899.86 199.069 891.133 Q199.069 882.383 202.124 877.8 Q205.203 873.193 211.013 873.193 Z" fill="#000000" fill-rule="evenodd" fill-opacity="1" /><path clip-path="url(#clip930)" d="M 0 0 M241.175 876.897 Q237.564 876.897 235.735 880.462 Q233.93 884.004 233.93 891.133 Q233.93 898.24 235.735 901.804 Q237.564 905.346 241.175 905.346 Q244.809 905.346 246.615 901.804 Q248.443 898.24 248.443 891.133 Q248.443 884.004 246.615 880.462 Q244.809 876.897 241.175 876.897 M241.175 873.193 Q246.985 873.193 250.041 877.8 Q253.119 882.383 253.119 891.133 Q253.119 899.86 250.041 904.466 Q246.985 909.05 241.175 909.05 Q235.365 909.05 232.286 904.466 Q229.231 899.86 229.231 891.133 Q229.231 882.383 232.286 877.8 Q235.365 873.193 241.175 873.193 Z" fill="#000000" fill-rule="evenodd" fill-opacity="1" /><path clip-path="url(#clip930)" d="M 0 0 M49.9215 1108.27 Q49.9215 1110.34 54.5366 1110.34 L76.371 1110.34 Q76.371 1107.32 73.0608 1104.29 Q70.1008 1101.59 63.003 1101.59 Q56.3827 1101.59 52.8179 1104.33 Q49.9215 1106.55 49.9215 1108.27 M44.9244 1108.27 Q44.9244 1103.82 49.1258 1099.77 Q53.6136 1095.41 63.003 1095.41 Q71.6285 1095.41 76.7529 1099.77 Q81.5909 1103.88 81.5909 1110.34 L94.3859 1110.34 L94.3859 1116.17 L81.6227 1116.17 Q81.6227 1122.5 76.7529 1126.76 Q71.7877 1131.09 63.0348 1131.09 Q53.9319 1131.09 49.2849 1126.76 Q45.8156 1123.52 44.9244 1118.23 L50.1124 1118.23 Q50.8445 1120.34 53.3271 1122.18 Q56.9874 1124.92 63.0348 1124.92 Q69.4642 1124.92 73.1245 1122.18 Q76.4028 1119.73 76.4028 1116.17 L54.5366 1116.17 Q44.9244 1116.17 44.9244 1108.27 Z" fill="#000000" fill-rule="evenodd" fill-opacity="1" /><polyline clip-path="url(#clip933)" style="stroke:#009af9; stroke-width:8; stroke-opacity:1; fill:none" points="
  347.524,832.458 367.189,833.63 386.854,834.839 406.519,836.084 426.184,837.365 445.849,838.68 465.514,840.03 485.179,841.414 504.844,842.83 524.508,844.278 
  544.173,845.755 563.838,847.262 583.503,848.796 603.168,850.356 622.833,851.94 642.498,853.547 662.163,855.176 681.828,856.824 701.493,858.491 721.158,860.175 
  740.823,861.875 760.487,863.59 780.152,865.319 799.817,867.062 819.482,868.819 839.147,870.588 858.812,872.371 878.477,874.167 898.142,875.978 917.807,877.803 
  937.472,879.645 957.137,881.504 976.802,883.382 996.466,885.281 1016.13,887.204 1035.8,889.151 1055.46,891.127 1075.13,893.133 1094.79,895.173 1114.46,897.25 
  1134.12,899.368 1153.79,901.529 1173.45,903.738 1193.12,905.999 1212.78,908.316 1232.45,910.693 1252.11,913.135 1271.78,915.647 1291.44,918.234 1311.11,920.901 
  1330.77,923.654 1350.44,926.497 1370.1,929.438 1389.76,932.482 1409.43,935.636 1429.09,938.906 1448.76,942.299 1468.42,945.823 1488.09,949.485 1507.75,953.292 
  1527.42,957.254 1547.08,961.377 1566.75,965.673 1586.41,970.148 1606.08,974.814 1625.74,979.68 1645.41,984.757 1665.07,990.055 1684.74,995.587 1704.4,1001.36 
  1724.07,1007.4 1743.73,1013.7 1763.4,1020.29 1783.06,1027.18 1802.73,1034.38 1822.39,1041.91 1842.06,1049.78 1861.72,1058.02 1881.39,1066.64 1901.05,1075.65 
  1920.72,1085.09 1940.38,1094.96 1960.05,1105.29 1979.71,1116.11 1999.38,1127.43 2019.04,1139.28 2038.71,1151.68 2058.37,1164.67 2078.04,1178.27 2097.7,1192.52 
  2117.37,1207.43 2137.03,1223.04 2156.7,1239.39 2176.36,1256.52 2196.03,1274.45 2215.69,1293.23 2235.36,1312.91 2255.02,1333.51 2274.69,1355.09 2294.35,1377.69 
  
  "/>
<polyline clip-path="url(#clip933)" style="stroke:#ff0000; stroke-width:4; stroke-opacity:1; fill:none" points="
  347.524,960.388 1542.45,960.388 1542.45,1394.05 
  "/>
<path clip-path="url(#clip930)" d="M 0 0 M1582.15 952.275 Q1582.15 954.53 1580.92 959.507 Q1579.69 964.484 1578.2 967.881 Q1575 975.259 1569.5 975.259 Q1568.83 975.259 1568.15 975.2 Q1567.51 975.141 1566.54 974.878 Q1565.58 974.614 1564.79 974.205 Q1564 973.765 1563.2 972.946 Q1562.44 972.126 1562 971.043 Q1559.57 975.259 1555.77 975.259 Q1552.08 975.259 1549.65 973.385 Q1547.25 971.511 1547.25 967.676 Q1547.25 965.948 1547.95 963.401 Q1548.65 960.854 1550.62 955.584 Q1551.7 952.861 1551.7 951.368 Q1551.7 950.694 1551.55 950.255 Q1551.41 949.816 1551.11 949.67 Q1550.85 949.494 1550.67 949.465 Q1550.5 949.406 1550.21 949.406 Q1548.45 949.406 1546.87 951.192 Q1545.29 952.949 1544.14 956.843 Q1543.91 957.575 1543.76 957.75 Q1543.62 957.926 1543.18 957.926 Q1542.45 957.897 1542.45 957.311 Q1542.45 957.077 1542.71 956.169 Q1542.97 955.232 1543.59 953.856 Q1544.23 952.451 1545.11 951.192 Q1545.99 949.904 1547.37 948.996 Q1548.77 948.089 1550.38 948.089 Q1552.55 948.089 1553.92 949.523 Q1555.3 950.958 1555.3 953.007 Q1555.3 953.593 1555.15 954.237 Q1555.01 954.852 1554.86 955.262 Q1554.74 955.642 1554.27 956.843 Q1552.34 961.908 1551.73 964.338 Q1551.14 966.768 1551.14 968.466 Q1551.14 969.022 1551.17 969.462 Q1551.2 969.901 1551.43 970.808 Q1551.7 971.716 1552.17 972.331 Q1552.64 972.916 1553.6 973.414 Q1554.6 973.912 1555.94 973.912 Q1559.31 973.912 1561.48 968.876 Q1561.42 968.583 1561.42 967.822 Q1561.42 966.124 1561.95 963.84 Q1562.09 963.313 1562.94 959.946 Q1563.79 956.55 1564.52 953.593 Q1565.28 950.606 1565.37 950.431 Q1565.66 949.611 1566.31 949.172 Q1566.95 948.733 1567.6 948.733 Q1568.33 948.733 1568.83 949.172 Q1569.32 949.611 1569.32 950.372 Q1569.32 950.519 1569.15 951.192 Q1569 951.836 1568.77 952.802 Q1568.53 953.769 1568.42 954.266 L1565.9 964.338 Q1565.25 966.68 1565.25 968.7 Q1565.25 971.248 1566.4 972.594 Q1567.54 973.912 1569.68 973.912 Q1573.69 973.912 1576.26 968.642 Q1577.43 966.358 1578.49 962.786 Q1579.57 959.214 1579.57 957.662 Q1579.57 954.735 1577.4 952.568 Q1576.94 952.158 1576.73 951.836 Q1576.53 951.485 1576.53 950.958 Q1576.53 949.962 1577.46 949.025 Q1578.4 948.089 1579.51 948.089 Q1580.51 948.089 1581.33 949.084 Q1582.15 950.05 1582.15 952.275 Z" fill="#000000" fill-rule="evenodd" fill-opacity="1" /><path clip-path="url(#clip930)" d="M 0 0 M1604.33 981.425 Q1604.49 981.609 1604.49 981.794 Q1604.49 981.978 1604.08 982.511 Q1603.69 983.044 1602.85 983.761 Q1602.01 984.479 1600.93 985.155 Q1599.84 985.831 1598.24 986.282 Q1596.64 986.753 1594.96 986.753 Q1591.83 986.753 1589.98 984.684 Q1588.16 982.614 1588.16 979.642 Q1588.16 976.752 1589.78 973.985 Q1591.4 971.198 1594.02 969.476 Q1596.64 967.734 1599.41 967.734 Q1601.6 967.734 1602.98 968.759 Q1604.35 969.784 1604.35 971.341 Q1604.35 972.551 1603.65 973.288 Q1602.96 974.026 1602.01 974.026 Q1601.36 974.026 1600.91 973.657 Q1600.46 973.268 1600.46 972.551 Q1600.46 971.628 1601.21 970.911 Q1601.5 970.624 1601.83 970.501 Q1602.18 970.358 1602.38 970.358 Q1602.59 970.337 1603.06 970.337 Q1602.63 969.538 1601.6 969.108 Q1600.6 968.657 1599.45 968.657 Q1597.75 968.657 1596.13 969.845 Q1594.51 971.014 1593.53 972.858 Q1592.54 974.662 1591.91 977.223 Q1591.27 979.765 1591.27 981.24 Q1591.27 983.269 1592.22 984.54 Q1593.16 985.811 1595.05 985.811 Q1595.41 985.811 1595.8 985.79 Q1596.21 985.77 1597.24 985.544 Q1598.28 985.319 1599.21 984.929 Q1600.13 984.54 1601.3 983.7 Q1602.48 982.839 1603.43 981.671 Q1603.76 981.24 1603.98 981.24 Q1604.17 981.24 1604.33 981.425 Z" fill="#000000" fill-rule="evenodd" fill-opacity="1" /><path clip-path="url(#clip930)" d="M 0 0 M1624.12 974.826 Q1624.12 977.06 1623.13 979.273 Q1622.15 981.466 1620.57 983.105 Q1619.02 984.724 1616.97 985.749 Q1614.92 986.753 1612.87 986.753 Q1609.94 986.753 1608.03 984.765 Q1606.14 982.757 1606.14 979.642 Q1606.14 976.732 1607.76 973.965 Q1609.4 971.178 1612.03 969.456 Q1614.65 967.734 1617.4 967.734 Q1620.29 967.734 1622.19 969.681 Q1624.12 971.628 1624.12 974.826 M1621.04 973.186 Q1621.04 971.198 1620.08 969.927 Q1619.12 968.657 1617.36 968.657 Q1616.84 968.657 1616.25 968.821 Q1615.65 968.964 1614.88 969.354 Q1614.12 969.743 1613.26 970.563 Q1612.42 971.362 1611.68 972.51 Q1610.71 974.026 1609.98 976.814 Q1609.26 979.58 1609.26 981.24 Q1609.26 983.536 1610.33 984.684 Q1611.39 985.811 1612.91 985.811 Q1614.38 985.811 1615.94 984.786 Q1617.52 983.741 1618.61 981.958 Q1619.69 980.113 1620.37 977.408 Q1621.04 974.682 1621.04 973.186 Z" fill="#000000" fill-rule="evenodd" fill-opacity="1" /><path clip-path="url(#clip930)" d="M 0 0 M1633.55 973.619 Q1632.7 972.653 1632.7 971.394 Q1632.7 970.135 1633.52 969.198 Q1634.37 968.232 1635.89 968.232 Q1637.68 968.232 1638.7 969.959 Q1639.73 971.657 1639.73 974.527 Q1639.73 977.63 1638.47 980.499 Q1637.21 983.398 1635.98 984.774 Q1634.75 986.15 1634.25 986.15 Q1633.67 986.15 1633.67 985.506 Q1633.67 985.272 1634.08 984.833 Q1638.38 980.207 1638.41 974.527 Q1638.41 973.619 1638.29 973.619 L1638.15 973.736 Q1637.12 974.585 1635.89 974.585 Q1634.4 974.585 1633.55 973.619 Z" fill="#000000" fill-rule="evenodd" fill-opacity="1" /><path clip-path="url(#clip930)" d="M 0 0 M1714.87 958.746 Q1715.23 959.097 1715.23 959.595 Q1715.23 960.093 1714.87 960.444 Q1714.52 960.795 1714.03 960.795 L1676.49 960.795 Q1675.99 960.795 1675.64 960.444 Q1675.29 960.093 1675.29 959.595 Q1675.29 959.097 1675.64 958.746 Q1675.99 958.394 1676.49 958.394 L1714.03 958.394 Q1714.52 958.394 1714.87 958.746 Z" fill="#000000" fill-rule="evenodd" fill-opacity="1" /><path clip-path="url(#clip930)" d="M 0 0 M1738.12 940.359 L1738.12 938.485 Q1745.33 938.485 1749.05 934.65 Q1750.07 934.65 1750.25 934.884 Q1750.42 935.118 1750.42 936.202 L1750.42 969.842 Q1750.42 971.628 1751.3 972.184 Q1752.18 972.741 1756.01 972.741 L1757.92 972.741 L1757.92 974.585 Q1755.81 974.41 1748.2 974.41 Q1740.58 974.41 1738.5 974.585 L1738.5 972.741 L1740.41 972.741 Q1744.18 972.741 1745.09 972.214 Q1746 971.657 1746 969.842 L1746 938.778 Q1742.87 940.359 1738.12 940.359 Z" fill="#000000" fill-rule="evenodd" fill-opacity="1" /><path clip-path="url(#clip930)" d="M 0 0 M1763.44 965.538 Q1763.44 958.834 1772.08 954.5 Q1768.36 951.983 1767.69 951.251 Q1765.05 948.323 1765.05 944.663 Q1765.05 940.476 1768.22 937.578 Q1771.41 934.65 1775.92 934.65 Q1780.22 934.65 1783.47 937.139 Q1786.72 939.627 1786.72 943.58 Q1786.72 949.143 1779.46 952.89 Q1784.26 955.877 1785.4 957.135 Q1788.33 960.385 1788.33 964.514 Q1788.33 969.315 1784.64 972.624 Q1780.95 975.903 1775.86 975.903 Q1770.88 975.903 1767.16 973.004 Q1763.44 970.106 1763.44 965.538 M1766.43 965.538 Q1766.43 969.257 1769.21 971.745 Q1772.02 974.234 1775.92 974.234 Q1779.69 974.234 1782.5 972.067 Q1785.34 969.901 1785.34 966.68 Q1785.34 965.421 1784.91 964.338 Q1784.5 963.255 1783.65 962.406 Q1782.83 961.527 1782.3 961.147 Q1781.8 960.737 1780.84 960.063 L1773.46 955.408 Q1766.43 959.302 1766.43 965.538 M1767.69 942.321 Q1767.69 945.19 1770.71 947.181 L1778.14 951.983 Q1784.09 948.498 1784.09 943.58 Q1784.09 940.388 1781.66 938.28 Q1779.23 936.143 1775.86 936.143 Q1772.55 936.143 1770.12 937.9 Q1767.69 939.627 1767.69 942.321 Z" fill="#000000" fill-rule="evenodd" fill-opacity="1" /><path clip-path="url(#clip930)" d="M 0 0 M1793.14 955.408 Q1793.14 946.595 1795.37 941.794 Q1798.47 934.65 1805.79 934.65 Q1807.34 934.65 1808.95 935.089 Q1810.59 935.499 1812.64 937.109 Q1814.72 938.72 1815.98 941.355 Q1818.38 946.449 1818.38 955.408 Q1818.38 964.162 1816.15 968.935 Q1812.9 975.903 1805.73 975.903 Q1803.04 975.903 1800.28 974.527 Q1797.56 973.151 1795.83 969.842 Q1793.14 964.894 1793.14 955.408 M1798.12 954.676 Q1798.12 963.723 1798.76 967.324 Q1799.49 971.218 1801.48 972.916 Q1803.5 974.585 1805.73 974.585 Q1808.13 974.585 1810.12 972.799 Q1812.14 970.984 1812.76 967.09 Q1813.43 963.255 1813.4 954.676 Q1813.4 946.332 1812.81 942.994 Q1812.02 939.1 1809.92 937.548 Q1807.84 935.967 1805.73 935.967 Q1804.94 935.967 1804.09 936.202 Q1803.27 936.436 1802.07 937.109 Q1800.87 937.783 1799.93 939.452 Q1799.02 941.12 1798.59 943.638 Q1798.12 946.888 1798.12 954.676 Z" fill="#000000" fill-rule="evenodd" fill-opacity="1" /><path clip-path="url(#clip930)" d="M 0 0 M1822.84 940.301 Q1822.84 937.548 1824.77 935.587 Q1826.73 933.625 1829.48 933.625 Q1832.29 933.625 1834.2 935.616 Q1836.13 937.578 1836.13 940.213 Q1836.13 942.965 1834.14 944.927 Q1832.17 946.888 1829.48 946.888 Q1826.67 946.888 1824.74 944.927 Q1822.84 942.936 1822.84 940.301 M1826.49 937.256 Q1825.24 938.485 1825.24 940.301 Q1825.24 942.087 1826.49 943.287 Q1827.75 944.487 1829.48 944.487 Q1831.21 944.487 1832.44 943.287 Q1833.67 942.087 1833.67 940.301 Q1833.67 938.485 1832.41 937.256 Q1831.15 936.026 1829.48 936.026 Q1827.75 936.026 1826.49 937.256 Z" fill="#000000" fill-rule="evenodd" fill-opacity="1" /></svg>