<?xml version="1.0" encoding="utf-8" standalone="no"?>
<!DOCTYPE svg PUBLIC "-//W3C//DTD SVG 1.1//EN"
  "http://www.w3.org/Graphics/SVG/1.1/DTD/svg11.dtd">
<!-- Created with matplotlib (https://matplotlib.org/) -->
<svg height="150.57pt" version="1.1" viewBox="0 0 218.6244 150.57" width="218.6244pt" xmlns="http://www.w3.org/2000/svg" xmlns:xlink="http://www.w3.org/1999/xlink">
 <metadata>
  <rdf:RDF xmlns:cc="http://creativecommons.org/ns#" xmlns:dc="http://purl.org/dc/elements/1.1/" xmlns:rdf="http://www.w3.org/1999/02/22-rdf-syntax-ns#">
   <cc:Work>
    <dc:type rdf:resource="http://purl.org/dc/dcmitype/StillImage"/>
    <dc:date>2021-05-04T12:54:58.146547</dc:date>
    <dc:format>image/svg+xml</dc:format>
    <dc:creator>
     <cc:Agent>
      <dc:title>Matplotlib v3.3.4, https://matplotlib.org/</dc:title>
     </cc:Agent>
    </dc:creator>
   </cc:Work>
  </rdf:RDF>
 </metadata>
 <defs>
  <style type="text/css">*{stroke-linecap:butt;stroke-linejoin:round;}</style>
 </defs>
 <g id="figure_1">
  <g id="patch_1">
   <path d="M 0 150.57 
L 218.6244 150.57 
L 218.6244 0 
L 0 0 
z
" style="fill:#ffffff;"/>
  </g>
  <g id="axes_1">
   <g id="patch_2">
    <path clip-path="url(#pc86027860a)" d="M 72.684 29.385 
L 66.564 31.68 
L 66.564 29.4003 
L 63.504 29.4003 
L 63.504 29.3697 
L 66.564 29.3697 
L 66.564 27.09 
z
" style="stroke:#000000;stroke-linejoin:miter;stroke-width:2;"/>
   </g>
   <g id="patch_3">
    <path clip-path="url(#pc86027860a)" d="M 133.884 59.985 
L 131.589 53.865 
L 133.8687 53.865 
L 133.8687 50.805 
L 133.8993 50.805 
L 133.8993 53.865 
L 136.179 53.865 
z
" style="stroke:#000000;stroke-linejoin:miter;stroke-width:2;"/>
   </g>
   <g id="patch_4">
    <path clip-path="url(#pc86027860a)" d="M 133.884 90.585 
C 137.941607 90.585 141.833572 88.972895 144.702734 86.103734 
C 147.571895 83.234572 149.184 79.342607 149.184 75.285 
C 149.184 71.227393 147.571895 67.335428 144.702734 64.466266 
C 141.833572 61.597105 137.941607 59.985 133.884 59.985 
C 129.826393 59.985 125.934428 61.597105 123.065266 64.466266 
C 120.196105 67.335428 118.584 71.227393 118.584 75.285 
C 118.584 79.342607 120.196105 83.234572 123.065266 86.103734 
C 125.934428 88.972895 129.826393 90.585 133.884 90.585 
z
" style="fill:none;stroke:#000000;stroke-linejoin:miter;stroke-width:2;"/>
   </g>
   <g id="patch_5">
    <path clip-path="url(#pc86027860a)" d="M 133.884 90.585 
L 136.179 96.705 
L 133.8993 96.705 
L 133.8993 99.765 
L 133.8687 99.765 
L 133.8687 96.705 
L 131.589 96.705 
z
" style="stroke:#000000;stroke-linejoin:miter;stroke-width:2;"/>
   </g>
   <g id="patch_6">
    <path clip-path="url(#pc86027860a)" d="M 72.684 121.185 
L 66.564 123.48 
L 66.564 121.2003 
L 63.504 121.2003 
L 63.504 121.1697 
L 66.564 121.1697 
L 66.564 118.89 
z
" style="stroke:#000000;stroke-linejoin:miter;stroke-width:2;"/>
   </g>
   <g id="patch_7">
    <path clip-path="url(#pc86027860a)" d="M 179.784 75.285 
L 173.664 77.58 
L 173.664 75.3003 
L 170.604 75.3003 
L 170.604 75.2697 
L 173.664 75.2697 
L 173.664 72.99 
z
" style="stroke:#000000;stroke-linejoin:miter;stroke-width:2;"/>
   </g>
   <g id="line2d_1">
    <path clip-path="url(#pc86027860a)" d="M 42.084 29.385 
L 57.384 29.385 
L 72.684 29.385 
" style="fill:none;stroke:#000000;stroke-linecap:round;stroke-width:2;"/>
   </g>
   <g id="line2d_2">
    <path clip-path="url(#pc86027860a)" d="M 87.984 10.26 
L 103.284 10.26 
L 103.284 48.51 
L 72.684 48.51 
L 72.684 10.26 
L 87.984 10.26 
" style="fill:none;stroke:#000000;stroke-linecap:round;stroke-width:2;"/>
   </g>
   <g id="line2d_3">
    <path clip-path="url(#pc86027860a)" d="M 103.284 29.385 
L 118.584 29.385 
L 133.884 29.385 
" style="fill:none;stroke:#000000;stroke-linecap:round;stroke-width:2;"/>
   </g>
   <g id="line2d_4">
    <path clip-path="url(#pc86027860a)" d="M 133.884 29.385 
L 133.884 44.685 
L 133.884 59.985 
" style="fill:none;stroke:#000000;stroke-linecap:round;stroke-width:2;"/>
   </g>
   <g id="line2d_5">
    <path clip-path="url(#pc86027860a)" d="M 144.702734 86.103734 
L 123.065266 64.466266 
" style="fill:none;stroke:#000000;stroke-linecap:round;stroke-width:2;"/>
   </g>
   <g id="line2d_6">
    <path clip-path="url(#pc86027860a)" d="M 123.065266 86.103734 
L 144.702734 64.466266 
" style="fill:none;stroke:#000000;stroke-linecap:round;stroke-width:2;"/>
   </g>
   <g id="line2d_7">
    <path clip-path="url(#pc86027860a)" d="M 133.884 90.585 
L 133.884 105.885 
L 133.884 121.185 
" style="fill:none;stroke:#000000;stroke-linecap:round;stroke-width:2;"/>
   </g>
   <g id="line2d_8">
    <path clip-path="url(#pc86027860a)" d="M 133.884 121.185 
L 118.584 121.185 
L 103.284 121.185 
" style="fill:none;stroke:#000000;stroke-linecap:round;stroke-width:2;"/>
   </g>
   <g id="line2d_9">
    <path clip-path="url(#pc86027860a)" d="M 87.984 102.06 
L 103.284 102.06 
L 103.284 140.31 
L 72.684 140.31 
L 72.684 102.06 
L 87.984 102.06 
" style="fill:none;stroke:#000000;stroke-linecap:round;stroke-width:2;"/>
   </g>
   <g id="line2d_10">
    <path clip-path="url(#pc86027860a)" d="M 72.684 121.185 
L 57.384 121.185 
L 42.084 121.185 
" style="fill:none;stroke:#000000;stroke-linecap:round;stroke-width:2;"/>
   </g>
   <g id="line2d_11">
    <path clip-path="url(#pc86027860a)" d="M 149.184 75.285 
L 164.484 75.285 
L 179.784 75.285 
" style="fill:none;stroke:#000000;stroke-linecap:round;stroke-width:2;"/>
   </g>
   <g id="text_1">
    <!-- $Q_1(s)$ -->
    <g transform="translate(8.184 32.69625)scale(0.12 -0.12)">
     <defs>
      <path d="M 36.078125 -1.3125 
Q 35.546875 -1.375 34.953125 -1.390625 
Q 34.375 -1.421875 33.203125 -1.421875 
Q 19.53125 -1.421875 11.8125 6.421875 
Q 4.109375 14.265625 4.109375 28.078125 
Q 4.109375 36.234375 7.0625 44.4375 
Q 10.015625 52.640625 15.28125 59.1875 
Q 21.390625 66.703125 29.03125 70.453125 
Q 36.671875 74.21875 45.90625 74.21875 
Q 59.28125 74.21875 66.984375 66.328125 
Q 74.703125 58.453125 74.703125 44.828125 
Q 74.703125 30.125 66.640625 17.921875 
Q 58.59375 5.71875 45.609375 0.6875 
L 55.515625 -12.890625 
L 44.484375 -12.890625 
z
M 45.609375 66.21875 
Q 37.5 66.21875 31.296875 62.28125 
Q 25.09375 58.34375 20.515625 50.296875 
Q 17.578125 45.171875 16.03125 39.40625 
Q 14.5 33.640625 14.5 27.78125 
Q 14.5 17.625 19.359375 12.109375 
Q 24.21875 6.59375 33.109375 6.59375 
Q 41.109375 6.59375 47.375 10.5625 
Q 53.65625 14.546875 58.109375 22.40625 
Q 61.078125 27.6875 62.640625 33.46875 
Q 64.203125 39.265625 64.203125 45.015625 
Q 64.203125 55.125 59.3125 60.671875 
Q 54.4375 66.21875 45.609375 66.21875 
z
" id="DejaVuSans-Oblique-81"/>
      <path d="M 12.40625 8.296875 
L 28.515625 8.296875 
L 28.515625 63.921875 
L 10.984375 60.40625 
L 10.984375 69.390625 
L 28.421875 72.90625 
L 38.28125 72.90625 
L 38.28125 8.296875 
L 54.390625 8.296875 
L 54.390625 0 
L 12.40625 0 
z
" id="DejaVuSans-49"/>
      <path d="M 31 75.875 
Q 24.46875 64.65625 21.28125 53.65625 
Q 18.109375 42.671875 18.109375 31.390625 
Q 18.109375 20.125 21.3125 9.0625 
Q 24.515625 -2 31 -13.1875 
L 23.1875 -13.1875 
Q 15.875 -1.703125 12.234375 9.375 
Q 8.59375 20.453125 8.59375 31.390625 
Q 8.59375 42.28125 12.203125 53.3125 
Q 15.828125 64.359375 23.1875 75.875 
z
" id="DejaVuSans-40"/>
      <path d="M 50 53.078125 
L 48.296875 44.578125 
Q 44.734375 46.53125 40.765625 47.5 
Q 36.8125 48.484375 32.625 48.484375 
Q 25.53125 48.484375 21.453125 46.0625 
Q 17.390625 43.65625 17.390625 39.5 
Q 17.390625 34.671875 26.859375 32.078125 
Q 27.59375 31.890625 27.9375 31.78125 
L 30.8125 30.90625 
Q 39.796875 28.421875 42.796875 25.6875 
Q 45.796875 22.953125 45.796875 18.21875 
Q 45.796875 9.515625 38.890625 4.046875 
Q 31.984375 -1.421875 20.796875 -1.421875 
Q 16.453125 -1.421875 11.671875 -0.578125 
Q 6.890625 0.25 1.125 2 
L 2.875 11.28125 
Q 7.8125 8.734375 12.59375 7.421875 
Q 17.390625 6.109375 21.78125 6.109375 
Q 28.375 6.109375 32.5 8.9375 
Q 36.625 11.765625 36.625 16.109375 
Q 36.625 20.796875 25.78125 23.6875 
L 24.859375 23.921875 
L 21.78125 24.703125 
Q 14.9375 26.515625 11.765625 29.46875 
Q 8.59375 32.421875 8.59375 37.015625 
Q 8.59375 45.75 15.15625 50.875 
Q 21.734375 56 33.015625 56 
Q 37.453125 56 41.671875 55.265625 
Q 45.90625 54.546875 50 53.078125 
z
" id="DejaVuSans-Oblique-115"/>
      <path d="M 8.015625 75.875 
L 15.828125 75.875 
Q 23.140625 64.359375 26.78125 53.3125 
Q 30.421875 42.28125 30.421875 31.390625 
Q 30.421875 20.453125 26.78125 9.375 
Q 23.140625 -1.703125 15.828125 -13.1875 
L 8.015625 -13.1875 
Q 14.5 -2 17.703125 9.0625 
Q 20.90625 20.125 20.90625 31.390625 
Q 20.90625 42.671875 17.703125 53.65625 
Q 14.5 64.65625 8.015625 75.875 
z
" id="DejaVuSans-41"/>
     </defs>
     <use transform="translate(0 0.125)" xlink:href="#DejaVuSans-Oblique-81"/>
     <use transform="translate(78.710938 -16.28125)scale(0.7)" xlink:href="#DejaVuSans-49"/>
     <use transform="translate(125.981445 0.125)" xlink:href="#DejaVuSans-40"/>
     <use transform="translate(164.995117 0.125)" xlink:href="#DejaVuSans-Oblique-115"/>
     <use transform="translate(217.094727 0.125)" xlink:href="#DejaVuSans-41"/>
    </g>
   </g>
   <g id="text_2">
    <!-- $\frac{1}{As}$ -->
    <g transform="translate(82.164 32.685)scale(0.12 -0.12)">
     <defs>
      <path d="M 36.8125 72.90625 
L 48 72.90625 
L 61.53125 0 
L 51.21875 0 
L 48.1875 18.703125 
L 15.375 18.703125 
L 5.078125 0 
L -5.328125 0 
z
M 40.375 63.1875 
L 19.921875 26.90625 
L 46.6875 26.90625 
z
" id="DejaVuSans-Oblique-65"/>
     </defs>
     <use transform="translate(20 43.965625)scale(0.7)" xlink:href="#DejaVuSans-49"/>
     <use transform="translate(0 -38.31875)scale(0.7)" xlink:href="#DejaVuSans-Oblique-65"/>
     <use transform="translate(47.885742 -38.31875)scale(0.7)" xlink:href="#DejaVuSans-Oblique-115"/>
     <path d="M 0 18.965625 
L 0 25.215625 
L 84.355469 25.215625 
L 84.355469 18.965625 
L 0 18.965625 
z
"/>
    </g>
   </g>
   <g id="text_3">
    <!-- - -->
    <g transform="translate(132.080094 87.224375)scale(0.1 -0.1)">
     <defs>
      <path d="M 4.890625 31.390625 
L 31.203125 31.390625 
L 31.203125 23.390625 
L 4.890625 23.390625 
z
" id="DejaVuSans-45"/>
     </defs>
     <use xlink:href="#DejaVuSans-45"/>
    </g>
   </g>
   <g id="text_4">
    <!-- + -->
    <g transform="translate(129.694156 68.864375)scale(0.1 -0.1)">
     <defs>
      <path d="M 46 62.703125 
L 46 35.5 
L 73.1875 35.5 
L 73.1875 27.203125 
L 46 27.203125 
L 46 0 
L 37.796875 0 
L 37.796875 27.203125 
L 10.59375 27.203125 
L 10.59375 35.5 
L 37.796875 35.5 
L 37.796875 62.703125 
z
" id="DejaVuSans-43"/>
     </defs>
     <use xlink:href="#DejaVuSans-43"/>
    </g>
   </g>
   <g id="text_5">
    <!-- $\frac{1}{As}$ -->
    <g transform="translate(82.164 124.485)scale(0.12 -0.12)">
     <use transform="translate(20 43.965625)scale(0.7)" xlink:href="#DejaVuSans-49"/>
     <use transform="translate(0 -38.31875)scale(0.7)" xlink:href="#DejaVuSans-Oblique-65"/>
     <use transform="translate(47.885742 -38.31875)scale(0.7)" xlink:href="#DejaVuSans-Oblique-115"/>
     <path d="M 0 18.965625 
L 0 25.215625 
L 84.355469 25.215625 
L 84.355469 18.965625 
L 0 18.965625 
z
"/>
    </g>
   </g>
   <g id="text_6">
    <!-- $Q_2(s)$ -->
    <g transform="translate(8.184 124.49625)scale(0.12 -0.12)">
     <defs>
      <path d="M 19.1875 8.296875 
L 53.609375 8.296875 
L 53.609375 0 
L 7.328125 0 
L 7.328125 8.296875 
Q 12.9375 14.109375 22.625 23.890625 
Q 32.328125 33.6875 34.8125 36.53125 
Q 39.546875 41.84375 41.421875 45.53125 
Q 43.3125 49.21875 43.3125 52.78125 
Q 43.3125 58.59375 39.234375 62.25 
Q 35.15625 65.921875 28.609375 65.921875 
Q 23.96875 65.921875 18.8125 64.3125 
Q 13.671875 62.703125 7.8125 59.421875 
L 7.8125 69.390625 
Q 13.765625 71.78125 18.9375 73 
Q 24.125 74.21875 28.421875 74.21875 
Q 39.75 74.21875 46.484375 68.546875 
Q 53.21875 62.890625 53.21875 53.421875 
Q 53.21875 48.921875 51.53125 44.890625 
Q 49.859375 40.875 45.40625 35.40625 
Q 44.1875 33.984375 37.640625 27.21875 
Q 31.109375 20.453125 19.1875 8.296875 
z
" id="DejaVuSans-50"/>
     </defs>
     <use transform="translate(0 0.125)" xlink:href="#DejaVuSans-Oblique-81"/>
     <use transform="translate(78.710938 -16.28125)scale(0.7)" xlink:href="#DejaVuSans-50"/>
     <use transform="translate(125.981445 0.125)" xlink:href="#DejaVuSans-40"/>
     <use transform="translate(164.995117 0.125)" xlink:href="#DejaVuSans-Oblique-115"/>
     <use transform="translate(217.094727 0.125)" xlink:href="#DejaVuSans-41"/>
    </g>
   </g>
   <g id="text_7">
    <!-- $H(s)$ -->
    <g transform="translate(182.844 78.59625)scale(0.12 -0.12)">
     <defs>
      <path d="M 16.890625 72.90625 
L 26.8125 72.90625 
L 21 43.015625 
L 56.78125 43.015625 
L 62.59375 72.90625 
L 72.515625 72.90625 
L 58.296875 0 
L 48.390625 0 
L 55.171875 34.71875 
L 19.390625 34.71875 
L 12.59375 0 
L 2.6875 0 
z
" id="DejaVuSans-Oblique-72"/>
     </defs>
     <use transform="translate(0 0.125)" xlink:href="#DejaVuSans-Oblique-72"/>
     <use transform="translate(75.195312 0.125)" xlink:href="#DejaVuSans-40"/>
     <use transform="translate(114.208984 0.125)" xlink:href="#DejaVuSans-Oblique-115"/>
     <use transform="translate(166.308594 0.125)" xlink:href="#DejaVuSans-41"/>
    </g>
   </g>
  </g>
 </g>
 <defs>
  <clipPath id="pc86027860a">
   <rect height="136.17" width="204.2244" x="7.2" y="7.2"/>
  </clipPath>
 </defs>
</svg>