<?xml version="1.0" encoding="utf-8"?>
<svg xmlns="http://www.w3.org/2000/svg" xmlns:xlink="http://www.w3.org/1999/xlink" width="525" height="350" viewBox="0 0 2100 1400">
<defs>
  <clipPath id="clip040">
    <rect x="0" y="0" width="2100" height="1400"/>
  </clipPath>
</defs>
<path clip-path="url(#clip040)" d="
M0 1400 L2100 1400 L2100 0 L0 0  Z
  " fill="#ffffff" fill-rule="evenodd" fill-opacity="1"/>
<defs>
  <clipPath id="clip041">
    <rect x="420" y="0" width="1471" height="1400"/>
  </clipPath>
</defs>
<path clip-path="url(#clip040)" d="
M238.997 1234.53 L2058.66 1234.53 L2058.66 41.3386 L238.997 41.3386  Z
  " fill="#ffffff" fill-rule="evenodd" fill-opacity="1"/>
<defs>
  <clipPath id="clip042">
    <rect x="238" y="41" width="1821" height="1194"/>
  </clipPath>
</defs>
<polyline clip-path="url(#clip042)" style="stroke:#000000; stroke-width:1.75; stroke-opacity:0.1; fill:none" points="
  290.497,1234.53 290.497,41.3386 
  "/>
<polyline clip-path="url(#clip042)" style="stroke:#000000; stroke-width:1.75; stroke-opacity:0.1; fill:none" points="
  810.536,1234.53 810.536,41.3386 
  "/>
<polyline clip-path="url(#clip042)" style="stroke:#000000; stroke-width:1.75; stroke-opacity:0.1; fill:none" points="
  1330.58,1234.53 1330.58,41.3386 
  "/>
<polyline clip-path="url(#clip042)" style="stroke:#000000; stroke-width:1.75; stroke-opacity:0.1; fill:none" points="
  1850.61,1234.53 1850.61,41.3386 
  "/>
<polyline clip-path="url(#clip040)" style="stroke:#000000; stroke-width:3.5; stroke-opacity:1; fill:none" points="
  238.997,1234.53 2058.66,1234.53 
  "/>
<polyline clip-path="url(#clip040)" style="stroke:#000000; stroke-width:3.5; stroke-opacity:1; fill:none" points="
  290.497,1234.53 290.497,1220.22 
  "/>
<polyline clip-path="url(#clip040)" style="stroke:#000000; stroke-width:3.5; stroke-opacity:1; fill:none" points="
  810.536,1234.53 810.536,1220.22 
  "/>
<polyline clip-path="url(#clip040)" style="stroke:#000000; stroke-width:3.5; stroke-opacity:1; fill:none" points="
  1330.58,1234.53 1330.58,1220.22 
  "/>
<polyline clip-path="url(#clip040)" style="stroke:#000000; stroke-width:3.5; stroke-opacity:1; fill:none" points="
  1850.61,1234.53 1850.61,1220.22 
  "/>
<path clip-path="url(#clip040)" d="M 0 0 M250.68 1303.02 L257.364 1303.02 L257.364 1279.95 L250.092 1281.41 L250.092 1277.68 L257.323 1276.23 L261.414 1276.23 L261.414 1303.02 L268.098 1303.02 L268.098 1306.47 L250.68 1306.47 L250.68 1303.02 Z" fill="#000000" fill-rule="evenodd" fill-opacity="1" /><path clip-path="url(#clip040)" d="M 0 0 M281.284 1278.92 Q278.124 1278.92 276.524 1282.04 Q274.944 1285.14 274.944 1291.38 Q274.944 1297.59 276.524 1300.71 Q278.124 1303.81 281.284 1303.81 Q284.464 1303.81 286.044 1300.71 Q287.644 1297.59 287.644 1291.38 Q287.644 1285.14 286.044 1282.04 Q284.464 1278.92 281.284 1278.92 M281.284 1275.68 Q286.368 1275.68 289.042 1279.71 Q291.735 1283.72 291.735 1291.38 Q291.735 1299.01 289.042 1303.04 Q286.368 1307.05 281.284 1307.05 Q276.2 1307.05 273.506 1303.04 Q270.833 1299.01 270.833 1291.38 Q270.833 1283.72 273.506 1279.71 Q276.2 1275.68 281.284 1275.68 Z" fill="#000000" fill-rule="evenodd" fill-opacity="1" /><path clip-path="url(#clip040)" d="M 0 0 M291.735 1270.52 L312.833 1270.52 L312.833 1273.32 L291.735 1273.32 L291.735 1270.52 Z" fill="#000000" fill-rule="evenodd" fill-opacity="1" /><path clip-path="url(#clip040)" d="M 0 0 M319.301 1279.68 L330.903 1279.68 L330.903 1282.48 L315.302 1282.48 L315.302 1279.68 Q317.194 1277.73 320.453 1274.43 Q323.727 1271.13 324.567 1270.17 Q326.163 1268.38 326.788 1267.14 Q327.43 1265.89 327.43 1264.69 Q327.43 1262.73 326.048 1261.5 Q324.682 1260.27 322.477 1260.27 Q320.913 1260.27 319.169 1260.81 Q317.441 1261.35 315.466 1262.45 L315.466 1259.1 Q317.474 1258.29 319.218 1257.88 Q320.963 1257.47 322.411 1257.47 Q326.229 1257.47 328.5 1259.38 Q330.771 1261.29 330.771 1264.48 Q330.771 1265.99 330.195 1267.36 Q329.635 1268.71 328.138 1270.55 Q327.726 1271.03 325.521 1273.32 Q323.316 1275.59 319.301 1279.68 Z" fill="#000000" fill-rule="evenodd" fill-opacity="1" /><path clip-path="url(#clip040)" d="M 0 0 M770.587 1303.02 L777.271 1303.02 L777.271 1279.95 L769.999 1281.41 L769.999 1277.68 L777.23 1276.23 L781.322 1276.23 L781.322 1303.02 L788.006 1303.02 L788.006 1306.47 L770.587 1306.47 L770.587 1303.02 Z" fill="#000000" fill-rule="evenodd" fill-opacity="1" /><path clip-path="url(#clip040)" d="M 0 0 M801.191 1278.92 Q798.032 1278.92 796.432 1282.04 Q794.852 1285.14 794.852 1291.38 Q794.852 1297.59 796.432 1300.71 Q798.032 1303.81 801.191 1303.81 Q804.371 1303.81 805.951 1300.71 Q807.551 1297.59 807.551 1291.38 Q807.551 1285.14 805.951 1282.04 Q804.371 1278.92 801.191 1278.92 M801.191 1275.68 Q806.275 1275.68 808.949 1279.71 Q811.643 1283.72 811.643 1291.38 Q811.643 1299.01 808.949 1303.04 Q806.275 1307.05 801.191 1307.05 Q796.108 1307.05 793.414 1303.04 Q790.74 1299.01 790.74 1291.38 Q790.74 1283.72 793.414 1279.71 Q796.108 1275.68 801.191 1275.68 Z" fill="#000000" fill-rule="evenodd" fill-opacity="1" /><path clip-path="url(#clip040)" d="M 0 0 M811.643 1270.52 L832.74 1270.52 L832.74 1273.32 L811.643 1273.32 L811.643 1270.52 Z" fill="#000000" fill-rule="evenodd" fill-opacity="1" /><path clip-path="url(#clip040)" d="M 0 0 M836.92 1279.68 L842.351 1279.68 L842.351 1260.94 L836.443 1262.12 L836.443 1259.1 L842.318 1257.91 L845.642 1257.91 L845.642 1279.68 L851.073 1279.68 L851.073 1282.48 L836.92 1282.48 L836.92 1279.68 Z" fill="#000000" fill-rule="evenodd" fill-opacity="1" /><path clip-path="url(#clip040)" d="M 0 0 M1301.85 1303.02 L1308.53 1303.02 L1308.53 1279.95 L1301.26 1281.41 L1301.26 1277.68 L1308.49 1276.23 L1312.58 1276.23 L1312.58 1303.02 L1319.27 1303.02 L1319.27 1306.47 L1301.85 1306.47 L1301.85 1303.02 Z" fill="#000000" fill-rule="evenodd" fill-opacity="1" /><path clip-path="url(#clip040)" d="M 0 0 M1332.45 1278.92 Q1329.29 1278.92 1327.69 1282.04 Q1326.11 1285.14 1326.11 1291.38 Q1326.11 1297.59 1327.69 1300.71 Q1329.29 1303.81 1332.45 1303.81 Q1335.63 1303.81 1337.21 1300.71 Q1338.81 1297.59 1338.81 1291.38 Q1338.81 1285.14 1337.21 1282.04 Q1335.63 1278.92 1332.45 1278.92 M1332.45 1275.68 Q1337.54 1275.68 1340.21 1279.71 Q1342.91 1283.72 1342.91 1291.38 Q1342.91 1299.01 1340.21 1303.04 Q1337.54 1307.05 1332.45 1307.05 Q1327.37 1307.05 1324.68 1303.04 Q1322 1299.01 1322 1291.38 Q1322 1283.72 1324.68 1279.71 Q1327.37 1275.68 1332.45 1275.68 Z" fill="#000000" fill-rule="evenodd" fill-opacity="1" /><path clip-path="url(#clip040)" d="M 0 0 M1351.4 1260.1 Q1348.83 1260.1 1347.53 1262.63 Q1346.25 1265.15 1346.25 1270.22 Q1346.25 1275.27 1347.53 1277.81 Q1348.83 1280.33 1351.4 1280.33 Q1353.98 1280.33 1355.26 1277.81 Q1356.56 1275.27 1356.56 1270.22 Q1356.56 1265.15 1355.26 1262.63 Q1353.98 1260.1 1351.4 1260.1 M1351.4 1257.47 Q1355.53 1257.47 1357.7 1260.74 Q1359.89 1264 1359.89 1270.22 Q1359.89 1276.43 1357.7 1279.7 Q1355.53 1282.96 1351.4 1282.96 Q1347.27 1282.96 1345.08 1279.7 Q1342.91 1276.43 1342.91 1270.22 Q1342.91 1264 1345.08 1260.74 Q1347.27 1257.47 1351.4 1257.47 Z" fill="#000000" fill-rule="evenodd" fill-opacity="1" /><path clip-path="url(#clip040)" d="M 0 0 M1823.06 1303.02 L1829.75 1303.02 L1829.75 1279.95 L1822.48 1281.41 L1822.48 1277.68 L1829.71 1276.23 L1833.8 1276.23 L1833.8 1303.02 L1840.48 1303.02 L1840.48 1306.47 L1823.06 1306.47 L1823.06 1303.02 Z" fill="#000000" fill-rule="evenodd" fill-opacity="1" /><path clip-path="url(#clip040)" d="M 0 0 M1853.67 1278.92 Q1850.51 1278.92 1848.91 1282.04 Q1847.33 1285.14 1847.33 1291.38 Q1847.33 1297.59 1848.91 1300.71 Q1850.51 1303.81 1853.67 1303.81 Q1856.85 1303.81 1858.43 1300.71 Q1860.03 1297.59 1860.03 1291.38 Q1860.03 1285.14 1858.43 1282.04 Q1856.85 1278.92 1853.67 1278.92 M1853.67 1275.68 Q1858.75 1275.68 1861.43 1279.71 Q1864.12 1283.72 1864.12 1291.38 Q1864.12 1299.01 1861.43 1303.04 Q1858.75 1307.05 1853.67 1307.05 Q1848.59 1307.05 1845.89 1303.04 Q1843.22 1299.01 1843.22 1291.38 Q1843.22 1283.72 1845.89 1279.71 Q1848.59 1275.68 1853.67 1275.68 Z" fill="#000000" fill-rule="evenodd" fill-opacity="1" /><path clip-path="url(#clip040)" d="M 0 0 M1864.6 1279.68 L1870.03 1279.68 L1870.03 1260.94 L1864.12 1262.12 L1864.12 1259.1 L1870 1257.91 L1873.32 1257.91 L1873.32 1279.68 L1878.75 1279.68 L1878.75 1282.48 L1864.6 1282.48 L1864.6 1279.68 Z" fill="#000000" fill-rule="evenodd" fill-opacity="1" /><path clip-path="url(#clip040)" d="M 0 0 M1130.35 1378.22 Q1118.79 1378.22 1118.79 1361.68 Q1118.79 1355.13 1123.11 1346.22 L1128.62 1346.22 Q1124.64 1355.13 1124.64 1361.82 Q1124.64 1373.88 1130.82 1373.88 Q1136.48 1373.88 1136.48 1358.89 L1141.21 1358.89 Q1141.21 1373.88 1146.87 1373.88 Q1153.05 1373.88 1153.05 1361.82 Q1153.05 1355.13 1149.07 1346.22 L1154.58 1346.22 Q1158.9 1355.13 1158.9 1361.68 Q1158.9 1378.22 1147.34 1378.22 Q1139.76 1378.22 1138.85 1369.89 Q1137.7 1378.22 1130.35 1378.22 Z" fill="#000000" fill-rule="evenodd" fill-opacity="1" /><path clip-path="url(#clip040)" d="M 0 0 M1173.49 1364.82 Q1176.05 1365.33 1177.45 1366.86 Q1178.87 1368.36 1178.87 1370.64 Q1178.87 1374.1 1176.22 1375.96 Q1173.57 1377.83 1168.64 1377.83 Q1167.06 1377.83 1165.3 1377.52 Q1163.58 1377.25 1161.63 1376.69 L1161.63 1373.32 Q1163.07 1374.07 1164.72 1374.43 Q1166.39 1374.79 1168.25 1374.79 Q1171.29 1374.79 1172.96 1373.71 Q1174.63 1372.59 1174.63 1370.64 Q1174.63 1368.58 1173.07 1367.53 Q1171.54 1366.47 1168.53 1366.47 L1166.14 1366.47 L1166.14 1363.46 L1168.76 1363.46 Q1171.37 1363.46 1172.71 1362.6 Q1174.08 1361.7 1174.08 1360.03 Q1174.08 1358.42 1172.68 1357.58 Q1171.29 1356.72 1168.64 1356.72 Q1167.53 1356.72 1166.11 1356.97 Q1164.69 1357.22 1162.43 1357.86 L1162.43 1354.66 Q1164.47 1354.19 1166.25 1353.93 Q1168.03 1353.68 1169.56 1353.68 Q1173.57 1353.68 1175.91 1355.33 Q1178.28 1356.97 1178.28 1359.73 Q1178.28 1361.65 1177.03 1362.99 Q1175.77 1364.32 1173.49 1364.82 Z" fill="#000000" fill-rule="evenodd" fill-opacity="1" /><polyline clip-path="url(#clip042)" style="stroke:#000000; stroke-width:1.75; stroke-opacity:0.1; fill:none" points="
  238.997,1030.34 2058.66,1030.34 
  "/>
<polyline clip-path="url(#clip042)" style="stroke:#000000; stroke-width:1.75; stroke-opacity:0.1; fill:none" points="
  238.997,816.205 2058.66,816.205 
  "/>
<polyline clip-path="url(#clip042)" style="stroke:#000000; stroke-width:1.75; stroke-opacity:0.1; fill:none" points="
  238.997,602.071 2058.66,602.071 
  "/>
<polyline clip-path="url(#clip042)" style="stroke:#000000; stroke-width:1.75; stroke-opacity:0.1; fill:none" points="
  238.997,387.937 2058.66,387.937 
  "/>
<polyline clip-path="url(#clip042)" style="stroke:#000000; stroke-width:1.75; stroke-opacity:0.1; fill:none" points="
  238.997,173.802 2058.66,173.802 
  "/>
<polyline clip-path="url(#clip040)" style="stroke:#000000; stroke-width:3.5; stroke-opacity:1; fill:none" points="
  238.997,1234.53 238.997,41.3386 
  "/>
<polyline clip-path="url(#clip040)" style="stroke:#000000; stroke-width:3.5; stroke-opacity:1; fill:none" points="
  238.997,1030.34 260.833,1030.34 
  "/>
<polyline clip-path="url(#clip040)" style="stroke:#000000; stroke-width:3.5; stroke-opacity:1; fill:none" points="
  238.997,816.205 260.833,816.205 
  "/>
<polyline clip-path="url(#clip040)" style="stroke:#000000; stroke-width:3.5; stroke-opacity:1; fill:none" points="
  238.997,602.071 260.833,602.071 
  "/>
<polyline clip-path="url(#clip040)" style="stroke:#000000; stroke-width:3.5; stroke-opacity:1; fill:none" points="
  238.997,387.937 260.833,387.937 
  "/>
<polyline clip-path="url(#clip040)" style="stroke:#000000; stroke-width:3.5; stroke-opacity:1; fill:none" points="
  238.997,173.802 260.833,173.802 
  "/>
<path clip-path="url(#clip040)" d="M 0 0 M100.73 1047.66 L107.414 1047.66 L107.414 1024.59 L100.142 1026.05 L100.142 1022.32 L107.373 1020.86 L111.464 1020.86 L111.464 1047.66 L118.148 1047.66 L118.148 1051.1 L100.73 1051.1 L100.73 1047.66 Z" fill="#000000" fill-rule="evenodd" fill-opacity="1" /><path clip-path="url(#clip040)" d="M 0 0 M131.334 1023.56 Q128.174 1023.56 126.574 1026.67 Q124.995 1029.77 124.995 1036.01 Q124.995 1042.23 126.574 1045.35 Q128.174 1048.45 131.334 1048.45 Q134.514 1048.45 136.094 1045.35 Q137.694 1042.23 137.694 1036.01 Q137.694 1029.77 136.094 1026.67 Q134.514 1023.56 131.334 1023.56 M131.334 1020.31 Q136.418 1020.31 139.092 1024.35 Q141.786 1028.36 141.786 1036.01 Q141.786 1043.65 139.092 1047.68 Q136.418 1051.69 131.334 1051.69 Q126.25 1051.69 123.556 1047.68 Q120.883 1043.65 120.883 1036.01 Q120.883 1028.36 123.556 1024.35 Q126.25 1020.31 131.334 1020.31 Z" fill="#000000" fill-rule="evenodd" fill-opacity="1" /><path clip-path="url(#clip040)" d="M 0 0 M141.786 1015.15 L162.883 1015.15 L162.883 1017.95 L141.786 1017.95 L141.786 1015.15 Z" fill="#000000" fill-rule="evenodd" fill-opacity="1" /><path clip-path="url(#clip040)" d="M 0 0 M167.063 1024.32 L172.494 1024.32 L172.494 1005.58 L166.586 1006.76 L166.586 1003.73 L172.461 1002.55 L175.785 1002.55 L175.785 1024.32 L181.216 1024.32 L181.216 1027.12 L167.063 1027.12 L167.063 1024.32 Z" fill="#000000" fill-rule="evenodd" fill-opacity="1" /><path clip-path="url(#clip040)" d="M 0 0 M184.82 1022.94 L188.292 1022.94 L188.292 1027.12 L184.82 1027.12 L184.82 1022.94 Z" fill="#000000" fill-rule="evenodd" fill-opacity="1" /><path clip-path="url(#clip040)" d="M 0 0 M199.006 1004.74 Q196.439 1004.74 195.138 1007.27 Q193.855 1009.79 193.855 1014.86 Q193.855 1019.91 195.138 1022.44 Q196.439 1024.96 199.006 1024.96 Q201.59 1024.96 202.873 1022.44 Q204.173 1019.91 204.173 1014.86 Q204.173 1009.79 202.873 1007.27 Q201.59 1004.74 199.006 1004.74 M199.006 1002.1 Q203.136 1002.1 205.309 1005.38 Q207.497 1008.64 207.497 1014.86 Q207.497 1021.06 205.309 1024.34 Q203.136 1027.59 199.006 1027.59 Q194.875 1027.59 192.686 1024.34 Q190.514 1021.06 190.514 1014.86 Q190.514 1008.64 192.686 1005.38 Q194.875 1002.1 199.006 1002.1 Z" fill="#000000" fill-rule="evenodd" fill-opacity="1" /><path clip-path="url(#clip040)" d="M 0 0 M100.565 833.524 L107.249 833.524 L107.249 810.454 L99.9776 811.912 L99.9776 808.185 L107.209 806.727 L111.3 806.727 L111.3 833.524 L117.984 833.524 L117.984 836.967 L100.565 836.967 L100.565 833.524 Z" fill="#000000" fill-rule="evenodd" fill-opacity="1" /><path clip-path="url(#clip040)" d="M 0 0 M131.17 809.421 Q128.01 809.421 126.41 812.54 Q124.83 815.639 124.83 821.877 Q124.83 828.095 126.41 831.215 Q128.01 834.314 131.17 834.314 Q134.35 834.314 135.929 831.215 Q137.53 828.095 137.53 821.877 Q137.53 815.639 135.929 812.54 Q134.35 809.421 131.17 809.421 M131.17 806.18 Q136.253 806.18 138.927 810.211 Q141.621 814.221 141.621 821.877 Q141.621 829.513 138.927 833.544 Q136.253 837.554 131.17 837.554 Q126.086 837.554 123.392 833.544 Q120.718 829.513 120.718 821.877 Q120.718 814.221 123.392 810.211 Q126.086 806.18 131.17 806.18 Z" fill="#000000" fill-rule="evenodd" fill-opacity="1" /><path clip-path="url(#clip040)" d="M 0 0 M141.621 801.019 L162.719 801.019 L162.719 803.816 L141.621 803.816 L141.621 801.019 Z" fill="#000000" fill-rule="evenodd" fill-opacity="1" /><path clip-path="url(#clip040)" d="M 0 0 M173.432 790.602 Q170.865 790.602 169.565 793.136 Q168.281 795.654 168.281 800.723 Q168.281 805.775 169.565 808.309 Q170.865 810.827 173.432 810.827 Q176.016 810.827 177.299 808.309 Q178.599 805.775 178.599 800.723 Q178.599 795.654 177.299 793.136 Q176.016 790.602 173.432 790.602 M173.432 787.969 Q177.563 787.969 179.735 791.243 Q181.924 794.502 181.924 800.723 Q181.924 806.927 179.735 810.202 Q177.563 813.46 173.432 813.46 Q169.301 813.46 167.113 810.202 Q164.94 806.927 164.94 800.723 Q164.94 794.502 167.113 791.243 Q169.301 787.969 173.432 787.969 Z" fill="#000000" fill-rule="evenodd" fill-opacity="1" /><path clip-path="url(#clip040)" d="M 0 0 M185.528 808.803 L189 808.803 L189 812.983 L185.528 812.983 L185.528 808.803 Z" fill="#000000" fill-rule="evenodd" fill-opacity="1" /><path clip-path="url(#clip040)" d="M 0 0 M192.637 788.413 L205.687 788.413 L205.687 791.211 L195.682 791.211 L195.682 797.234 Q196.406 796.987 197.13 796.872 Q197.854 796.74 198.578 796.74 Q202.692 796.74 205.095 798.995 Q207.497 801.249 207.497 805.1 Q207.497 809.066 205.029 811.271 Q202.56 813.46 198.068 813.46 Q196.521 813.46 194.908 813.197 Q193.312 812.933 191.6 812.407 L191.6 809.066 Q193.081 809.873 194.661 810.267 Q196.241 810.662 198.002 810.662 Q200.849 810.662 202.511 809.165 Q204.173 807.667 204.173 805.1 Q204.173 802.533 202.511 801.035 Q200.849 799.538 198.002 799.538 Q196.669 799.538 195.336 799.834 Q194.019 800.13 192.637 800.755 L192.637 788.413 Z" fill="#000000" fill-rule="evenodd" fill-opacity="1" /><path clip-path="url(#clip040)" d="M 0 0 M123.177 619.389 L129.861 619.389 L129.861 596.319 L122.589 597.778 L122.589 594.051 L129.82 592.593 L133.912 592.593 L133.912 619.389 L140.596 619.389 L140.596 622.833 L123.177 622.833 L123.177 619.389 Z" fill="#000000" fill-rule="evenodd" fill-opacity="1" /><path clip-path="url(#clip040)" d="M 0 0 M153.781 595.286 Q150.622 595.286 149.021 598.406 Q147.442 601.505 147.442 607.743 Q147.442 613.961 149.021 617.08 Q150.622 620.179 153.781 620.179 Q156.961 620.179 158.541 617.08 Q160.141 613.961 160.141 607.743 Q160.141 601.505 158.541 598.406 Q156.961 595.286 153.781 595.286 M153.781 592.046 Q158.865 592.046 161.539 596.076 Q164.233 600.087 164.233 607.743 Q164.233 615.379 161.539 619.41 Q158.865 623.42 153.781 623.42 Q148.697 623.42 146.004 619.41 Q143.33 615.379 143.33 607.743 Q143.33 600.087 146.004 596.076 Q148.697 592.046 153.781 592.046 Z" fill="#000000" fill-rule="evenodd" fill-opacity="1" /><path clip-path="url(#clip040)" d="M 0 0 M172.724 576.467 Q170.157 576.467 168.857 579.002 Q167.573 581.52 167.573 586.588 Q167.573 591.64 168.857 594.175 Q170.157 596.693 172.724 596.693 Q175.308 596.693 176.592 594.175 Q177.892 591.64 177.892 586.588 Q177.892 581.52 176.592 579.002 Q175.308 576.467 172.724 576.467 M172.724 573.834 Q176.855 573.834 179.027 577.109 Q181.216 580.368 181.216 586.588 Q181.216 592.792 179.027 596.067 Q176.855 599.326 172.724 599.326 Q168.594 599.326 166.405 596.067 Q164.233 592.792 164.233 586.588 Q164.233 580.368 166.405 577.109 Q168.594 573.834 172.724 573.834 Z" fill="#000000" fill-rule="evenodd" fill-opacity="1" /><path clip-path="url(#clip040)" d="M 0 0 M184.82 594.669 L188.292 594.669 L188.292 598.849 L184.82 598.849 L184.82 594.669 Z" fill="#000000" fill-rule="evenodd" fill-opacity="1" /><path clip-path="url(#clip040)" d="M 0 0 M199.006 576.467 Q196.439 576.467 195.138 579.002 Q193.855 581.52 193.855 586.588 Q193.855 591.64 195.138 594.175 Q196.439 596.693 199.006 596.693 Q201.59 596.693 202.873 594.175 Q204.173 591.64 204.173 586.588 Q204.173 581.52 202.873 579.002 Q201.59 576.467 199.006 576.467 M199.006 573.834 Q203.136 573.834 205.309 577.109 Q207.497 580.368 207.497 586.588 Q207.497 592.792 205.309 596.067 Q203.136 599.326 199.006 599.326 Q194.875 599.326 192.686 596.067 Q190.514 592.792 190.514 586.588 Q190.514 580.368 192.686 577.109 Q194.875 573.834 199.006 573.834 Z" fill="#000000" fill-rule="evenodd" fill-opacity="1" /><path clip-path="url(#clip040)" d="M 0 0 M123.884 405.255 L130.568 405.255 L130.568 382.185 L123.297 383.643 L123.297 379.917 L130.528 378.458 L134.619 378.458 L134.619 405.255 L141.303 405.255 L141.303 408.698 L123.884 408.698 L123.884 405.255 Z" fill="#000000" fill-rule="evenodd" fill-opacity="1" /><path clip-path="url(#clip040)" d="M 0 0 M154.489 381.152 Q151.329 381.152 149.729 384.271 Q148.149 387.37 148.149 393.609 Q148.149 399.827 149.729 402.946 Q151.329 406.045 154.489 406.045 Q157.669 406.045 159.249 402.946 Q160.849 399.827 160.849 393.609 Q160.849 387.37 159.249 384.271 Q157.669 381.152 154.489 381.152 M154.489 377.911 Q159.573 377.911 162.246 381.942 Q164.94 385.952 164.94 393.609 Q164.94 401.245 162.246 405.275 Q159.573 409.286 154.489 409.286 Q149.405 409.286 146.711 405.275 Q144.038 401.245 144.038 393.609 Q144.038 385.952 146.711 381.942 Q149.405 377.911 154.489 377.911 Z" fill="#000000" fill-rule="evenodd" fill-opacity="1" /><path clip-path="url(#clip040)" d="M 0 0 M173.432 362.333 Q170.865 362.333 169.565 364.867 Q168.281 367.385 168.281 372.454 Q168.281 377.506 169.565 380.04 Q170.865 382.558 173.432 382.558 Q176.016 382.558 177.299 380.04 Q178.599 377.506 178.599 372.454 Q178.599 367.385 177.299 364.867 Q176.016 362.333 173.432 362.333 M173.432 359.7 Q177.563 359.7 179.735 362.975 Q181.924 366.233 181.924 372.454 Q181.924 378.658 179.735 381.933 Q177.563 385.191 173.432 385.191 Q169.301 385.191 167.113 381.933 Q164.94 378.658 164.94 372.454 Q164.94 366.233 167.113 362.975 Q169.301 359.7 173.432 359.7 Z" fill="#000000" fill-rule="evenodd" fill-opacity="1" /><path clip-path="url(#clip040)" d="M 0 0 M185.528 380.534 L189 380.534 L189 384.714 L185.528 384.714 L185.528 380.534 Z" fill="#000000" fill-rule="evenodd" fill-opacity="1" /><path clip-path="url(#clip040)" d="M 0 0 M192.637 360.144 L205.687 360.144 L205.687 362.942 L195.682 362.942 L195.682 368.965 Q196.406 368.718 197.13 368.603 Q197.854 368.471 198.578 368.471 Q202.692 368.471 205.095 370.726 Q207.497 372.981 207.497 376.831 Q207.497 380.797 205.029 383.003 Q202.56 385.191 198.068 385.191 Q196.521 385.191 194.908 384.928 Q193.312 384.665 191.6 384.138 L191.6 380.797 Q193.081 381.604 194.661 381.999 Q196.241 382.394 198.002 382.394 Q200.849 382.394 202.511 380.896 Q204.173 379.399 204.173 376.831 Q204.173 374.264 202.511 372.767 Q200.849 371.269 198.002 371.269 Q196.669 371.269 195.336 371.565 Q194.019 371.861 192.637 372.487 L192.637 360.144 Z" fill="#000000" fill-rule="evenodd" fill-opacity="1" /><path clip-path="url(#clip040)" d="M 0 0 M125.53 191.121 L132.214 191.121 L132.214 168.051 L124.943 169.509 L124.943 165.782 L132.173 164.324 L136.265 164.324 L136.265 191.121 L142.949 191.121 L142.949 194.564 L125.53 194.564 L125.53 191.121 Z" fill="#000000" fill-rule="evenodd" fill-opacity="1" /><path clip-path="url(#clip040)" d="M 0 0 M156.135 167.018 Q152.975 167.018 151.375 170.137 Q149.795 173.236 149.795 179.474 Q149.795 185.692 151.375 188.812 Q152.975 191.911 156.135 191.911 Q159.315 191.911 160.894 188.812 Q162.494 185.692 162.494 179.474 Q162.494 173.236 160.894 170.137 Q159.315 167.018 156.135 167.018 M156.135 163.777 Q161.218 163.777 163.892 167.808 Q166.586 171.818 166.586 179.474 Q166.586 187.11 163.892 191.141 Q161.218 195.151 156.135 195.151 Q151.051 195.151 148.357 191.141 Q145.683 187.11 145.683 179.474 Q145.683 171.818 148.357 167.808 Q151.051 163.777 156.135 163.777 Z" fill="#000000" fill-rule="evenodd" fill-opacity="1" /><path clip-path="url(#clip040)" d="M 0 0 M167.063 167.782 L172.494 167.782 L172.494 149.038 L166.586 150.223 L166.586 147.195 L172.461 146.01 L175.785 146.01 L175.785 167.782 L181.216 167.782 L181.216 170.58 L167.063 170.58 L167.063 167.782 Z" fill="#000000" fill-rule="evenodd" fill-opacity="1" /><path clip-path="url(#clip040)" d="M 0 0 M184.82 166.4 L188.292 166.4 L188.292 170.58 L184.82 170.58 L184.82 166.4 Z" fill="#000000" fill-rule="evenodd" fill-opacity="1" /><path clip-path="url(#clip040)" d="M 0 0 M199.006 148.199 Q196.439 148.199 195.138 150.733 Q193.855 153.251 193.855 158.32 Q193.855 163.372 195.138 165.906 Q196.439 168.424 199.006 168.424 Q201.59 168.424 202.873 165.906 Q204.173 163.372 204.173 158.32 Q204.173 153.251 202.873 150.733 Q201.59 148.199 199.006 148.199 M199.006 145.566 Q203.136 145.566 205.309 148.84 Q207.497 152.099 207.497 158.32 Q207.497 164.524 205.309 167.799 Q203.136 171.057 199.006 171.057 Q194.875 171.057 192.686 167.799 Q190.514 164.524 190.514 158.32 Q190.514 152.099 192.686 148.84 Q194.875 145.566 199.006 145.566 Z" fill="#000000" fill-rule="evenodd" fill-opacity="1" /><path clip-path="url(#clip040)" d="M 0 0 M36.5087 662.514 Q37.1214 660.704 39.1266 659.005 Q41.1318 657.278 44.6409 655.552 L56.0036 649.842 L56.0036 655.886 L45.3371 661.205 Q41.1596 663.266 39.795 665.216 Q38.4303 667.137 38.4303 670.479 L38.4303 676.606 L56.0036 676.606 L56.0036 682.232 L14.4236 682.232 L14.4236 669.532 Q14.4236 662.403 17.4036 658.894 Q20.3835 655.385 26.3991 655.385 Q30.326 655.385 32.916 657.223 Q35.5061 659.033 36.5087 662.514 M19.0467 676.606 L33.8072 676.606 L33.8072 669.532 Q33.8072 665.466 31.9413 663.405 Q30.0475 661.317 26.3991 661.317 Q22.7508 661.317 20.9127 663.405 Q19.0467 665.466 19.0467 669.532 L19.0467 676.606 Z" fill="#000000" fill-rule="evenodd" fill-opacity="1" /><path clip-path="url(#clip040)" d="M 0 0 M19.9658 632.659 L40.6583 640.29 L40.6583 625 L19.9658 632.659 M14.4236 635.834 L14.4236 629.456 L56.0036 613.61 L56.0036 619.458 L45.3371 623.246 L45.3371 641.989 L56.0036 645.776 L56.0036 651.708 L14.4236 635.834 Z" fill="#000000" fill-rule="evenodd" fill-opacity="1" /><path clip-path="url(#clip040)" d="M 0 0 M43.4155 599.016 Q43.9168 596.454 45.4485 595.062 Q46.9524 593.641 49.2361 593.641 Q52.6895 593.641 54.5554 596.287 Q56.4214 598.933 56.4214 603.862 Q56.4214 605.45 56.115 607.204 Q55.8365 608.931 55.2795 610.88 L51.9097 610.88 Q52.6616 609.432 53.0237 607.789 Q53.3857 606.118 53.3857 604.252 Q53.3857 601.216 52.2996 599.545 Q51.1856 597.874 49.2361 597.874 Q47.1752 597.874 46.1169 599.434 Q45.0586 600.966 45.0586 603.974 L45.0586 606.369 L42.0508 606.369 L42.0508 603.751 Q42.0508 601.133 41.1875 599.796 Q40.2963 598.431 38.6253 598.431 Q37.01 598.431 36.1745 599.824 Q35.3111 601.216 35.3111 603.862 Q35.3111 604.976 35.5618 606.396 Q35.8124 607.817 36.453 610.073 L33.2502 610.073 Q32.7768 608.04 32.5261 606.257 Q32.2755 604.475 32.2755 602.943 Q32.2755 598.933 33.9186 596.593 Q35.5618 594.226 38.3189 594.226 Q40.2406 594.226 41.5774 595.479 Q42.9142 596.733 43.4155 599.016 Z" fill="#000000" fill-rule="evenodd" fill-opacity="1" /><circle clip-path="url(#clip042)" cx="290.497" cy="75.1083" r="12" fill="#009af9" fill-rule="evenodd" fill-opacity="1" stroke="#000000" stroke-opacity="1" stroke-width="2.8"/>
<circle clip-path="url(#clip042)" cx="447.045" cy="75.2177" r="12" fill="#009af9" fill-rule="evenodd" fill-opacity="1" stroke="#000000" stroke-opacity="1" stroke-width="2.8"/>
<circle clip-path="url(#clip042)" cx="810.536" cy="78.7543" r="12" fill="#009af9" fill-rule="evenodd" fill-opacity="1" stroke="#000000" stroke-opacity="1" stroke-width="2.8"/>
<circle clip-path="url(#clip042)" cx="1058.66" cy="105.722" r="12" fill="#009af9" fill-rule="evenodd" fill-opacity="1" stroke="#000000" stroke-opacity="1" stroke-width="2.8"/>
<circle clip-path="url(#clip042)" cx="1174.03" cy="145.237" r="12" fill="#009af9" fill-rule="evenodd" fill-opacity="1" stroke="#000000" stroke-opacity="1" stroke-width="2.8"/>
<circle clip-path="url(#clip042)" cx="1250.02" cy="186.701" r="12" fill="#009af9" fill-rule="evenodd" fill-opacity="1" stroke="#000000" stroke-opacity="1" stroke-width="2.8"/>
<circle clip-path="url(#clip042)" cx="1330.58" cy="245.534" r="12" fill="#009af9" fill-rule="evenodd" fill-opacity="1" stroke="#000000" stroke-opacity="1" stroke-width="2.8"/>
<circle clip-path="url(#clip042)" cx="1422.15" cy="330.776" r="12" fill="#009af9" fill-rule="evenodd" fill-opacity="1" stroke="#000000" stroke-opacity="1" stroke-width="2.8"/>
<circle clip-path="url(#clip042)" cx="1487.12" cy="402.762" r="12" fill="#009af9" fill-rule="evenodd" fill-opacity="1" stroke="#000000" stroke-opacity="1" stroke-width="2.8"/>
<circle clip-path="url(#clip042)" cx="1537.52" cy="466.751" r="12" fill="#009af9" fill-rule="evenodd" fill-opacity="1" stroke="#000000" stroke-opacity="1" stroke-width="2.8"/>
<circle clip-path="url(#clip042)" cx="1578.7" cy="520.558" r="12" fill="#009af9" fill-rule="evenodd" fill-opacity="1" stroke="#000000" stroke-opacity="1" stroke-width="2.8"/>
<circle clip-path="url(#clip042)" cx="1643.67" cy="613.579" r="12" fill="#009af9" fill-rule="evenodd" fill-opacity="1" stroke="#000000" stroke-opacity="1" stroke-width="2.8"/>
<circle clip-path="url(#clip042)" cx="1800.22" cy="852.62" r="12" fill="#009af9" fill-rule="evenodd" fill-opacity="1" stroke="#000000" stroke-opacity="1" stroke-width="2.8"/>
<circle clip-path="url(#clip042)" cx="1850.61" cy="931.646" r="12" fill="#009af9" fill-rule="evenodd" fill-opacity="1" stroke="#000000" stroke-opacity="1" stroke-width="2.8"/>
<circle clip-path="url(#clip042)" cx="2007.16" cy="1200.76" r="12" fill="#009af9" fill-rule="evenodd" fill-opacity="1" stroke="#000000" stroke-opacity="1" stroke-width="2.8"/>
</svg>