<?xml version="1.0" encoding="utf-8"?>
<svg xmlns="http://www.w3.org/2000/svg" xmlns:xlink="http://www.w3.org/1999/xlink" width="600" height="400" viewBox="0 0 2400 1600">
<defs>
  <clipPath id="clip890">
    <rect x="0" y="0" width="2400" height="1600"/>
  </clipPath>
</defs>
<path clip-path="url(#clip890)" d="
M0 1600 L2400 1600 L2400 0 L0 0  Z
  " fill="#ffffff" fill-rule="evenodd" fill-opacity="1"/>
<defs>
  <clipPath id="clip891">
    <rect x="480" y="0" width="1681" height="1600"/>
  </clipPath>
</defs>
<path clip-path="url(#clip890)" d="
M289.119 642.531 L2352.76 642.531 L2352.76 47.2441 L289.119 47.2441  Z
  " fill="#ffffff" fill-rule="evenodd" fill-opacity="1"/>
<defs>
  <clipPath id="clip892">
    <rect x="289" y="47" width="2065" height="596"/>
  </clipPath>
</defs>
<polyline clip-path="url(#clip892)" style="stroke:#000000; stroke-width:2; stroke-opacity:0.1; fill:none" points="
  347.524,642.531 347.524,47.2441 
  "/>
<polyline clip-path="url(#clip892)" style="stroke:#000000; stroke-width:2; stroke-opacity:0.1; fill:none" points="
  907.42,642.531 907.42,47.2441 
  "/>
<polyline clip-path="url(#clip892)" style="stroke:#000000; stroke-width:2; stroke-opacity:0.1; fill:none" points="
  1467.32,642.531 1467.32,47.2441 
  "/>
<polyline clip-path="url(#clip892)" style="stroke:#000000; stroke-width:2; stroke-opacity:0.1; fill:none" points="
  2027.21,642.531 2027.21,47.2441 
  "/>
<polyline clip-path="url(#clip890)" style="stroke:#000000; stroke-width:4; stroke-opacity:1; fill:none" points="
  289.119,642.531 2352.76,642.531 
  "/>
<polyline clip-path="url(#clip890)" style="stroke:#000000; stroke-width:4; stroke-opacity:1; fill:none" points="
  347.524,642.531 347.524,635.387 
  "/>
<polyline clip-path="url(#clip890)" style="stroke:#000000; stroke-width:4; stroke-opacity:1; fill:none" points="
  907.42,642.531 907.42,635.387 
  "/>
<polyline clip-path="url(#clip890)" style="stroke:#000000; stroke-width:4; stroke-opacity:1; fill:none" points="
  1467.32,642.531 1467.32,635.387 
  "/>
<polyline clip-path="url(#clip890)" style="stroke:#000000; stroke-width:4; stroke-opacity:1; fill:none" points="
  2027.21,642.531 2027.21,635.387 
  "/>
<polyline clip-path="url(#clip890)" style="stroke:#000000; stroke-width:4; stroke-opacity:1; fill:none" points="
  299.269,642.531 299.269,638.959 
  "/>
<polyline clip-path="url(#clip890)" style="stroke:#000000; stroke-width:4; stroke-opacity:1; fill:none" points="
  597.886,642.531 597.886,638.959 
  "/>
<polyline clip-path="url(#clip890)" style="stroke:#000000; stroke-width:4; stroke-opacity:1; fill:none" points="
  718.6,642.531 718.6,638.959 
  "/>
<polyline clip-path="url(#clip890)" style="stroke:#000000; stroke-width:4; stroke-opacity:1; fill:none" points="
  798.901,642.531 798.901,638.959 
  "/>
<polyline clip-path="url(#clip890)" style="stroke:#000000; stroke-width:4; stroke-opacity:1; fill:none" points="
  859.165,642.531 859.165,638.959 
  "/>
<polyline clip-path="url(#clip890)" style="stroke:#000000; stroke-width:4; stroke-opacity:1; fill:none" points="
  1157.78,642.531 1157.78,638.959 
  "/>
<polyline clip-path="url(#clip890)" style="stroke:#000000; stroke-width:4; stroke-opacity:1; fill:none" points="
  1278.5,642.531 1278.5,638.959 
  "/>
<polyline clip-path="url(#clip890)" style="stroke:#000000; stroke-width:4; stroke-opacity:1; fill:none" points="
  1358.8,642.531 1358.8,638.959 
  "/>
<polyline clip-path="url(#clip890)" style="stroke:#000000; stroke-width:4; stroke-opacity:1; fill:none" points="
  1419.06,642.531 1419.06,638.959 
  "/>
<polyline clip-path="url(#clip890)" style="stroke:#000000; stroke-width:4; stroke-opacity:1; fill:none" points="
  1717.68,642.531 1717.68,638.959 
  "/>
<polyline clip-path="url(#clip890)" style="stroke:#000000; stroke-width:4; stroke-opacity:1; fill:none" points="
  1838.39,642.531 1838.39,638.959 
  "/>
<polyline clip-path="url(#clip890)" style="stroke:#000000; stroke-width:4; stroke-opacity:1; fill:none" points="
  1918.69,642.531 1918.69,638.959 
  "/>
<polyline clip-path="url(#clip890)" style="stroke:#000000; stroke-width:4; stroke-opacity:1; fill:none" points="
  1978.96,642.531 1978.96,638.959 
  "/>
<polyline clip-path="url(#clip890)" style="stroke:#000000; stroke-width:4; stroke-opacity:1; fill:none" points="
  2277.57,642.531 2277.57,638.959 
  "/>
<path clip-path="url(#clip890)" d="M 0 0 M297.639 720.803 L305.278 720.803 L305.278 694.437 L296.968 696.104 L296.968 691.845 L305.232 690.178 L309.908 690.178 L309.908 720.803 L317.547 720.803 L317.547 724.738 L297.639 724.738 L297.639 720.803 Z" fill="#000000" fill-rule="evenodd" fill-opacity="1" /><path clip-path="url(#clip890)" d="M 0 0 M336.991 693.257 Q333.38 693.257 331.551 696.821 Q329.746 700.363 329.746 707.493 Q329.746 714.599 331.551 718.164 Q333.38 721.705 336.991 721.705 Q340.625 721.705 342.431 718.164 Q344.26 714.599 344.26 707.493 Q344.26 700.363 342.431 696.821 Q340.625 693.257 336.991 693.257 M336.991 689.553 Q342.801 689.553 345.857 694.159 Q348.935 698.743 348.935 707.493 Q348.935 716.219 345.857 720.826 Q342.801 725.409 336.991 725.409 Q331.181 725.409 328.102 720.826 Q325.047 716.219 325.047 707.493 Q325.047 698.743 328.102 694.159 Q331.181 689.553 336.991 689.553 Z" fill="#000000" fill-rule="evenodd" fill-opacity="1" /><path clip-path="url(#clip890)" d="M 0 0 M348.935 683.654 L373.047 683.654 L373.047 686.852 L348.935 686.852 L348.935 683.654 Z" fill="#000000" fill-rule="evenodd" fill-opacity="1" /><path clip-path="url(#clip890)" d="M 0 0 M381.906 694.13 L388.112 694.13 L388.112 672.708 L381.36 674.062 L381.36 670.602 L388.074 669.247 L391.874 669.247 L391.874 694.13 L398.08 694.13 L398.08 697.327 L381.906 697.327 L381.906 694.13 Z" fill="#000000" fill-rule="evenodd" fill-opacity="1" /><path clip-path="url(#clip890)" d="M 0 0 M872.403 720.803 L880.042 720.803 L880.042 694.437 L871.732 696.104 L871.732 691.845 L879.996 690.178 L884.672 690.178 L884.672 720.803 L892.31 720.803 L892.31 724.738 L872.403 724.738 L872.403 720.803 Z" fill="#000000" fill-rule="evenodd" fill-opacity="1" /><path clip-path="url(#clip890)" d="M 0 0 M911.755 693.257 Q908.144 693.257 906.315 696.821 Q904.509 700.363 904.509 707.493 Q904.509 714.599 906.315 718.164 Q908.144 721.705 911.755 721.705 Q915.389 721.705 917.195 718.164 Q919.023 714.599 919.023 707.493 Q919.023 700.363 917.195 696.821 Q915.389 693.257 911.755 693.257 M911.755 689.553 Q917.565 689.553 920.621 694.159 Q923.699 698.743 923.699 707.493 Q923.699 716.219 920.621 720.826 Q917.565 725.409 911.755 725.409 Q905.945 725.409 902.866 720.826 Q899.81 716.219 899.81 707.493 Q899.81 698.743 902.866 694.159 Q905.945 689.553 911.755 689.553 Z" fill="#000000" fill-rule="evenodd" fill-opacity="1" /><path clip-path="url(#clip890)" d="M 0 0 M933.404 671.749 Q930.47 671.749 928.984 674.645 Q927.517 677.523 927.517 683.316 Q927.517 689.09 928.984 691.986 Q930.47 694.864 933.404 694.864 Q936.357 694.864 937.824 691.986 Q939.31 689.09 939.31 683.316 Q939.31 677.523 937.824 674.645 Q936.357 671.749 933.404 671.749 M933.404 668.74 Q938.125 668.74 940.607 672.482 Q943.109 676.206 943.109 683.316 Q943.109 690.406 940.607 694.149 Q938.125 697.873 933.404 697.873 Q928.683 697.873 926.182 694.149 Q923.699 690.406 923.699 683.316 Q923.699 676.206 926.182 672.482 Q928.683 668.74 933.404 668.74 Z" fill="#000000" fill-rule="evenodd" fill-opacity="1" /><path clip-path="url(#clip890)" d="M 0 0 M1433.64 720.803 L1441.28 720.803 L1441.28 694.437 L1432.97 696.104 L1432.97 691.845 L1441.24 690.178 L1445.91 690.178 L1445.91 720.803 L1453.55 720.803 L1453.55 724.738 L1433.64 724.738 L1433.64 720.803 Z" fill="#000000" fill-rule="evenodd" fill-opacity="1" /><path clip-path="url(#clip890)" d="M 0 0 M1473 693.257 Q1469.38 693.257 1467.56 696.821 Q1465.75 700.363 1465.75 707.493 Q1465.75 714.599 1467.56 718.164 Q1469.38 721.705 1473 721.705 Q1476.63 721.705 1478.44 718.164 Q1480.26 714.599 1480.26 707.493 Q1480.26 700.363 1478.44 696.821 Q1476.63 693.257 1473 693.257 M1473 689.553 Q1478.81 689.553 1481.86 694.159 Q1484.94 698.743 1484.94 707.493 Q1484.94 716.219 1481.86 720.826 Q1478.81 725.409 1473 725.409 Q1467.19 725.409 1464.11 720.826 Q1461.05 716.219 1461.05 707.493 Q1461.05 698.743 1464.11 694.159 Q1467.19 689.553 1473 689.553 Z" fill="#000000" fill-rule="evenodd" fill-opacity="1" /><path clip-path="url(#clip890)" d="M 0 0 M1485.49 694.13 L1491.69 694.13 L1491.69 672.708 L1484.94 674.062 L1484.94 670.602 L1491.65 669.247 L1495.45 669.247 L1495.45 694.13 L1501.66 694.13 L1501.66 697.327 L1485.49 697.327 L1485.49 694.13 Z" fill="#000000" fill-rule="evenodd" fill-opacity="1" /><path clip-path="url(#clip890)" d="M 0 0 M1992.99 720.803 L2000.62 720.803 L2000.62 694.437 L1992.31 696.104 L1992.31 691.845 L2000.58 690.178 L2005.25 690.178 L2005.25 720.803 L2012.89 720.803 L2012.89 724.738 L1992.99 724.738 L1992.99 720.803 Z" fill="#000000" fill-rule="evenodd" fill-opacity="1" /><path clip-path="url(#clip890)" d="M 0 0 M2032.34 693.257 Q2028.73 693.257 2026.9 696.821 Q2025.09 700.363 2025.09 707.493 Q2025.09 714.599 2026.9 718.164 Q2028.73 721.705 2032.34 721.705 Q2035.97 721.705 2037.78 718.164 Q2039.61 714.599 2039.61 707.493 Q2039.61 700.363 2037.78 696.821 Q2035.97 693.257 2032.34 693.257 M2032.34 689.553 Q2038.15 689.553 2041.2 694.159 Q2044.28 698.743 2044.28 707.493 Q2044.28 716.219 2041.2 720.826 Q2038.15 725.409 2032.34 725.409 Q2026.53 725.409 2023.45 720.826 Q2020.39 716.219 2020.39 707.493 Q2020.39 698.743 2023.45 694.159 Q2026.53 689.553 2032.34 689.553 Z" fill="#000000" fill-rule="evenodd" fill-opacity="1" /><path clip-path="url(#clip890)" d="M 0 0 M2048.85 694.13 L2062.11 694.13 L2062.11 697.327 L2044.28 697.327 L2044.28 694.13 Q2046.44 691.892 2050.17 688.13 Q2053.91 684.35 2054.87 683.259 Q2056.69 681.209 2057.41 679.799 Q2058.14 678.369 2058.14 676.996 Q2058.14 674.758 2056.56 673.348 Q2055 671.937 2052.48 671.937 Q2050.69 671.937 2048.7 672.558 Q2046.73 673.178 2044.47 674.438 L2044.47 670.602 Q2046.76 669.68 2048.76 669.21 Q2050.75 668.74 2052.41 668.74 Q2056.77 668.74 2059.37 670.921 Q2061.96 673.103 2061.96 676.752 Q2061.96 678.482 2061.3 680.043 Q2060.66 681.585 2058.95 683.692 Q2058.48 684.237 2055.96 686.852 Q2053.44 689.447 2048.85 694.13 Z" fill="#000000" fill-rule="evenodd" fill-opacity="1" /><polyline clip-path="url(#clip892)" style="stroke:#000000; stroke-width:2; stroke-opacity:0.1; fill:none" points="
  289.119,565.192 2352.76,565.192 
  "/>
<polyline clip-path="url(#clip892)" style="stroke:#000000; stroke-width:2; stroke-opacity:0.1; fill:none" points="
  289.119,439.883 2352.76,439.883 
  "/>
<polyline clip-path="url(#clip892)" style="stroke:#000000; stroke-width:2; stroke-opacity:0.1; fill:none" points="
  289.119,314.574 2352.76,314.574 
  "/>
<polyline clip-path="url(#clip892)" style="stroke:#000000; stroke-width:2; stroke-opacity:0.1; fill:none" points="
  289.119,189.265 2352.76,189.265 
  "/>
<polyline clip-path="url(#clip892)" style="stroke:#000000; stroke-width:2; stroke-opacity:0.1; fill:none" points="
  289.119,63.9559 2352.76,63.9559 
  "/>
<polyline clip-path="url(#clip890)" style="stroke:#000000; stroke-width:4; stroke-opacity:1; fill:none" points="
  289.119,642.531 289.119,47.2441 
  "/>
<polyline clip-path="url(#clip890)" style="stroke:#000000; stroke-width:4; stroke-opacity:1; fill:none" points="
  289.119,565.192 313.883,565.192 
  "/>
<polyline clip-path="url(#clip890)" style="stroke:#000000; stroke-width:4; stroke-opacity:1; fill:none" points="
  289.119,439.883 313.883,439.883 
  "/>
<polyline clip-path="url(#clip890)" style="stroke:#000000; stroke-width:4; stroke-opacity:1; fill:none" points="
  289.119,314.574 313.883,314.574 
  "/>
<polyline clip-path="url(#clip890)" style="stroke:#000000; stroke-width:4; stroke-opacity:1; fill:none" points="
  289.119,189.265 313.883,189.265 
  "/>
<polyline clip-path="url(#clip890)" style="stroke:#000000; stroke-width:4; stroke-opacity:1; fill:none" points="
  289.119,63.9559 313.883,63.9559 
  "/>
<polyline clip-path="url(#clip890)" style="stroke:#000000; stroke-width:4; stroke-opacity:1; fill:none" points="
  289.119,622.669 301.501,622.669 
  "/>
<polyline clip-path="url(#clip890)" style="stroke:#000000; stroke-width:4; stroke-opacity:1; fill:none" points="
  289.119,599.97 301.501,599.97 
  "/>
<polyline clip-path="url(#clip890)" style="stroke:#000000; stroke-width:4; stroke-opacity:1; fill:none" points="
  289.119,581.198 301.501,581.198 
  "/>
<polyline clip-path="url(#clip890)" style="stroke:#000000; stroke-width:4; stroke-opacity:1; fill:none" points="
  289.119,526.075 301.501,526.075 
  "/>
<polyline clip-path="url(#clip890)" style="stroke:#000000; stroke-width:4; stroke-opacity:1; fill:none" points="
  289.119,497.36 301.501,497.36 
  "/>
<polyline clip-path="url(#clip890)" style="stroke:#000000; stroke-width:4; stroke-opacity:1; fill:none" points="
  289.119,474.661 301.501,474.661 
  "/>
<polyline clip-path="url(#clip890)" style="stroke:#000000; stroke-width:4; stroke-opacity:1; fill:none" points="
  289.119,455.889 301.501,455.889 
  "/>
<polyline clip-path="url(#clip890)" style="stroke:#000000; stroke-width:4; stroke-opacity:1; fill:none" points="
  289.119,400.766 301.501,400.766 
  "/>
<polyline clip-path="url(#clip890)" style="stroke:#000000; stroke-width:4; stroke-opacity:1; fill:none" points="
  289.119,372.051 301.501,372.051 
  "/>
<polyline clip-path="url(#clip890)" style="stroke:#000000; stroke-width:4; stroke-opacity:1; fill:none" points="
  289.119,349.352 301.501,349.352 
  "/>
<polyline clip-path="url(#clip890)" style="stroke:#000000; stroke-width:4; stroke-opacity:1; fill:none" points="
  289.119,330.58 301.501,330.58 
  "/>
<polyline clip-path="url(#clip890)" style="stroke:#000000; stroke-width:4; stroke-opacity:1; fill:none" points="
  289.119,275.457 301.501,275.457 
  "/>
<polyline clip-path="url(#clip890)" style="stroke:#000000; stroke-width:4; stroke-opacity:1; fill:none" points="
  289.119,246.742 301.501,246.742 
  "/>
<polyline clip-path="url(#clip890)" style="stroke:#000000; stroke-width:4; stroke-opacity:1; fill:none" points="
  289.119,224.043 301.501,224.043 
  "/>
<polyline clip-path="url(#clip890)" style="stroke:#000000; stroke-width:4; stroke-opacity:1; fill:none" points="
  289.119,205.271 301.501,205.271 
  "/>
<polyline clip-path="url(#clip890)" style="stroke:#000000; stroke-width:4; stroke-opacity:1; fill:none" points="
  289.119,150.148 301.501,150.148 
  "/>
<polyline clip-path="url(#clip890)" style="stroke:#000000; stroke-width:4; stroke-opacity:1; fill:none" points="
  289.119,121.433 301.501,121.433 
  "/>
<polyline clip-path="url(#clip890)" style="stroke:#000000; stroke-width:4; stroke-opacity:1; fill:none" points="
  289.119,98.7341 301.501,98.7341 
  "/>
<polyline clip-path="url(#clip890)" style="stroke:#000000; stroke-width:4; stroke-opacity:1; fill:none" points="
  289.119,79.9618 301.501,79.9618 
  "/>
<path clip-path="url(#clip890)" d="M 0 0 M114.931 584.984 L122.57 584.984 L122.57 558.619 L114.26 560.285 L114.26 556.026 L122.524 554.359 L127.2 554.359 L127.2 584.984 L134.839 584.984 L134.839 588.919 L114.931 588.919 L114.931 584.984 Z" fill="#000000" fill-rule="evenodd" fill-opacity="1" /><path clip-path="url(#clip890)" d="M 0 0 M154.283 557.438 Q150.672 557.438 148.843 561.003 Q147.038 564.545 147.038 571.674 Q147.038 578.781 148.843 582.345 Q150.672 585.887 154.283 585.887 Q157.917 585.887 159.723 582.345 Q161.552 578.781 161.552 571.674 Q161.552 564.545 159.723 561.003 Q157.917 557.438 154.283 557.438 M154.283 553.734 Q160.093 553.734 163.149 558.341 Q166.227 562.924 166.227 571.674 Q166.227 580.401 163.149 585.007 Q160.093 589.591 154.283 589.591 Q148.473 589.591 145.394 585.007 Q142.339 580.401 142.339 571.674 Q142.339 562.924 145.394 558.341 Q148.473 553.734 154.283 553.734 Z" fill="#000000" fill-rule="evenodd" fill-opacity="1" /><path clip-path="url(#clip890)" d="M 0 0 M166.227 547.836 L190.339 547.836 L190.339 551.033 L166.227 551.033 L166.227 547.836 Z" fill="#000000" fill-rule="evenodd" fill-opacity="1" /><path clip-path="url(#clip890)" d="M 0 0 M201.812 558.312 L215.071 558.312 L215.071 561.509 L197.241 561.509 L197.241 558.312 Q199.404 556.074 203.128 552.312 Q206.871 548.532 207.83 547.441 Q209.655 545.391 210.369 543.98 Q211.103 542.551 211.103 541.178 Q211.103 538.94 209.523 537.529 Q207.962 536.119 205.442 536.119 Q203.655 536.119 201.661 536.739 Q199.686 537.36 197.43 538.62 L197.43 534.783 Q199.724 533.862 201.718 533.391 Q203.711 532.921 205.366 532.921 Q209.73 532.921 212.325 535.103 Q214.921 537.285 214.921 540.933 Q214.921 542.664 214.263 544.225 Q213.623 545.767 211.912 547.873 Q211.441 548.419 208.921 551.033 Q206.401 553.629 201.812 558.312 Z" fill="#000000" fill-rule="evenodd" fill-opacity="1" /><path clip-path="url(#clip890)" d="M 0 0 M223.046 556.732 L227.014 556.732 L227.014 561.509 L223.046 561.509 L223.046 556.732 Z" fill="#000000" fill-rule="evenodd" fill-opacity="1" /><path clip-path="url(#clip890)" d="M 0 0 M243.415 535.93 Q240.481 535.93 238.995 538.827 Q237.528 541.704 237.528 547.497 Q237.528 553.271 238.995 556.168 Q240.481 559.045 243.415 559.045 Q246.367 559.045 247.834 556.168 Q249.32 553.271 249.32 547.497 Q249.32 541.704 247.834 538.827 Q246.367 535.93 243.415 535.93 M243.415 532.921 Q248.135 532.921 250.618 536.664 Q253.119 540.388 253.119 547.497 Q253.119 554.588 250.618 558.331 Q248.135 562.054 243.415 562.054 Q238.694 562.054 236.192 558.331 Q233.71 554.588 233.71 547.497 Q233.71 540.388 236.192 536.664 Q238.694 532.921 243.415 532.921 Z" fill="#000000" fill-rule="evenodd" fill-opacity="1" /><path clip-path="url(#clip890)" d="M 0 0 M115.74 459.675 L123.379 459.675 L123.379 433.31 L115.069 434.976 L115.069 430.717 L123.333 429.05 L128.009 429.05 L128.009 459.675 L135.647 459.675 L135.647 463.61 L115.74 463.61 L115.74 459.675 Z" fill="#000000" fill-rule="evenodd" fill-opacity="1" /><path clip-path="url(#clip890)" d="M 0 0 M155.092 432.129 Q151.481 432.129 149.652 435.694 Q147.846 439.236 147.846 446.365 Q147.846 453.472 149.652 457.036 Q151.481 460.578 155.092 460.578 Q158.726 460.578 160.532 457.036 Q162.36 453.472 162.36 446.365 Q162.36 439.236 160.532 435.694 Q158.726 432.129 155.092 432.129 M155.092 428.425 Q160.902 428.425 163.958 433.032 Q167.036 437.615 167.036 446.365 Q167.036 455.092 163.958 459.698 Q160.902 464.282 155.092 464.282 Q149.282 464.282 146.203 459.698 Q143.147 455.092 143.147 446.365 Q143.147 437.615 146.203 433.032 Q149.282 428.425 155.092 428.425 Z" fill="#000000" fill-rule="evenodd" fill-opacity="1" /><path clip-path="url(#clip890)" d="M 0 0 M167.036 422.527 L191.148 422.527 L191.148 425.724 L167.036 425.724 L167.036 422.527 Z" fill="#000000" fill-rule="evenodd" fill-opacity="1" /><path clip-path="url(#clip890)" d="M 0 0 M200.006 433.003 L206.213 433.003 L206.213 411.581 L199.461 412.935 L199.461 409.474 L206.175 408.12 L209.974 408.12 L209.974 433.003 L216.181 433.003 L216.181 436.2 L200.006 436.2 L200.006 433.003 Z" fill="#000000" fill-rule="evenodd" fill-opacity="1" /><path clip-path="url(#clip890)" d="M 0 0 M223.854 431.423 L227.823 431.423 L227.823 436.2 L223.854 436.2 L223.854 431.423 Z" fill="#000000" fill-rule="evenodd" fill-opacity="1" /><path clip-path="url(#clip890)" d="M 0 0 M236.136 408.12 L251.051 408.12 L251.051 411.317 L239.615 411.317 L239.615 418.201 Q240.443 417.919 241.27 417.787 Q242.098 417.637 242.926 417.637 Q247.627 417.637 250.373 420.213 Q253.119 422.79 253.119 427.191 Q253.119 431.724 250.298 434.244 Q247.477 436.746 242.343 436.746 Q240.575 436.746 238.731 436.445 Q236.907 436.144 234.951 435.542 L234.951 431.724 Q236.644 432.645 238.449 433.097 Q240.255 433.548 242.267 433.548 Q245.521 433.548 247.421 431.837 Q249.32 430.125 249.32 427.191 Q249.32 424.257 247.421 422.546 Q245.521 420.834 242.267 420.834 Q240.744 420.834 239.22 421.173 Q237.716 421.511 236.136 422.226 L236.136 408.12 Z" fill="#000000" fill-rule="evenodd" fill-opacity="1" /><path clip-path="url(#clip890)" d="M 0 0 M114.931 334.366 L122.57 334.366 L122.57 308.001 L114.26 309.667 L114.26 305.408 L122.524 303.741 L127.2 303.741 L127.2 334.366 L134.839 334.366 L134.839 338.301 L114.931 338.301 L114.931 334.366 Z" fill="#000000" fill-rule="evenodd" fill-opacity="1" /><path clip-path="url(#clip890)" d="M 0 0 M154.283 306.82 Q150.672 306.82 148.843 310.385 Q147.038 313.927 147.038 321.056 Q147.038 328.163 148.843 331.727 Q150.672 335.269 154.283 335.269 Q157.917 335.269 159.723 331.727 Q161.552 328.163 161.552 321.056 Q161.552 313.927 159.723 310.385 Q157.917 306.82 154.283 306.82 M154.283 303.117 Q160.093 303.117 163.149 307.723 Q166.227 312.306 166.227 321.056 Q166.227 329.783 163.149 334.389 Q160.093 338.973 154.283 338.973 Q148.473 338.973 145.394 334.389 Q142.339 329.783 142.339 321.056 Q142.339 312.306 145.394 307.723 Q148.473 303.117 154.283 303.117 Z" fill="#000000" fill-rule="evenodd" fill-opacity="1" /><path clip-path="url(#clip890)" d="M 0 0 M166.227 297.218 L190.339 297.218 L190.339 300.415 L166.227 300.415 L166.227 297.218 Z" fill="#000000" fill-rule="evenodd" fill-opacity="1" /><path clip-path="url(#clip890)" d="M 0 0 M199.197 307.694 L205.404 307.694 L205.404 286.272 L198.652 287.626 L198.652 284.165 L205.366 282.811 L209.166 282.811 L209.166 307.694 L215.372 307.694 L215.372 310.891 L199.197 310.891 L199.197 307.694 Z" fill="#000000" fill-rule="evenodd" fill-opacity="1" /><path clip-path="url(#clip890)" d="M 0 0 M223.046 306.114 L227.014 306.114 L227.014 310.891 L223.046 310.891 L223.046 306.114 Z" fill="#000000" fill-rule="evenodd" fill-opacity="1" /><path clip-path="url(#clip890)" d="M 0 0 M243.415 285.313 Q240.481 285.313 238.995 288.209 Q237.528 291.087 237.528 296.879 Q237.528 302.653 238.995 305.55 Q240.481 308.427 243.415 308.427 Q246.367 308.427 247.834 305.55 Q249.32 302.653 249.32 296.879 Q249.32 291.087 247.834 288.209 Q246.367 285.313 243.415 285.313 M243.415 282.303 Q248.135 282.303 250.618 286.046 Q253.119 289.77 253.119 296.879 Q253.119 303.97 250.618 307.713 Q248.135 311.437 243.415 311.437 Q238.694 311.437 236.192 307.713 Q233.71 303.97 233.71 296.879 Q233.71 289.77 236.192 286.046 Q238.694 282.303 243.415 282.303 Z" fill="#000000" fill-rule="evenodd" fill-opacity="1" /><path clip-path="url(#clip890)" d="M 0 0 M115.74 209.057 L123.379 209.057 L123.379 182.692 L115.069 184.358 L115.069 180.099 L123.333 178.433 L128.009 178.433 L128.009 209.057 L135.647 209.057 L135.647 212.993 L115.74 212.993 L115.74 209.057 Z" fill="#000000" fill-rule="evenodd" fill-opacity="1" /><path clip-path="url(#clip890)" d="M 0 0 M155.092 181.511 Q151.481 181.511 149.652 185.076 Q147.846 188.618 147.846 195.747 Q147.846 202.854 149.652 206.418 Q151.481 209.96 155.092 209.96 Q158.726 209.96 160.532 206.418 Q162.36 202.854 162.36 195.747 Q162.36 188.618 160.532 185.076 Q158.726 181.511 155.092 181.511 M155.092 177.808 Q160.902 177.808 163.958 182.414 Q167.036 186.997 167.036 195.747 Q167.036 204.474 163.958 209.081 Q160.902 213.664 155.092 213.664 Q149.282 213.664 146.203 209.081 Q143.147 204.474 143.147 195.747 Q143.147 186.997 146.203 182.414 Q149.282 177.808 155.092 177.808 Z" fill="#000000" fill-rule="evenodd" fill-opacity="1" /><path clip-path="url(#clip890)" d="M 0 0 M167.036 171.909 L191.148 171.909 L191.148 175.106 L167.036 175.106 L167.036 171.909 Z" fill="#000000" fill-rule="evenodd" fill-opacity="1" /><path clip-path="url(#clip890)" d="M 0 0 M207.473 160.004 Q204.539 160.004 203.053 162.9 Q201.586 165.778 201.586 171.57 Q201.586 177.344 203.053 180.241 Q204.539 183.118 207.473 183.118 Q210.426 183.118 211.893 180.241 Q213.379 177.344 213.379 171.57 Q213.379 165.778 211.893 162.9 Q210.426 160.004 207.473 160.004 M207.473 156.994 Q212.194 156.994 214.676 160.737 Q217.178 164.461 217.178 171.57 Q217.178 178.661 214.676 182.404 Q212.194 186.128 207.473 186.128 Q202.752 186.128 200.251 182.404 Q197.768 178.661 197.768 171.57 Q197.768 164.461 200.251 160.737 Q202.752 156.994 207.473 156.994 Z" fill="#000000" fill-rule="evenodd" fill-opacity="1" /><path clip-path="url(#clip890)" d="M 0 0 M223.854 180.805 L227.823 180.805 L227.823 185.582 L223.854 185.582 L223.854 180.805 Z" fill="#000000" fill-rule="evenodd" fill-opacity="1" /><path clip-path="url(#clip890)" d="M 0 0 M236.136 157.502 L251.051 157.502 L251.051 160.699 L239.615 160.699 L239.615 167.583 Q240.443 167.301 241.27 167.169 Q242.098 167.019 242.926 167.019 Q247.627 167.019 250.373 169.596 Q253.119 172.172 253.119 176.573 Q253.119 181.106 250.298 183.626 Q247.477 186.128 242.343 186.128 Q240.575 186.128 238.731 185.827 Q236.907 185.526 234.951 184.924 L234.951 181.106 Q236.644 182.027 238.449 182.479 Q240.255 182.93 242.267 182.93 Q245.521 182.93 247.421 181.219 Q249.32 179.507 249.32 176.573 Q249.32 173.639 247.421 171.928 Q245.521 170.216 242.267 170.216 Q240.744 170.216 239.22 170.555 Q237.716 170.893 236.136 171.608 L236.136 157.502 Z" fill="#000000" fill-rule="evenodd" fill-opacity="1" /><path clip-path="url(#clip890)" d="M 0 0 M145.663 83.7484 L153.302 83.7484 L153.302 57.3828 L144.992 59.0494 L144.992 54.7902 L153.256 53.1235 L157.932 53.1235 L157.932 83.7484 L165.571 83.7484 L165.571 87.6835 L145.663 87.6835 L145.663 83.7484 Z" fill="#000000" fill-rule="evenodd" fill-opacity="1" /><path clip-path="url(#clip890)" d="M 0 0 M185.015 56.2022 Q181.404 56.2022 179.575 59.767 Q177.77 63.3087 177.77 70.4383 Q177.77 77.5447 179.575 81.1095 Q181.404 84.6512 185.015 84.6512 Q188.649 84.6512 190.455 81.1095 Q192.283 77.5447 192.283 70.4383 Q192.283 63.3087 190.455 59.767 Q188.649 56.2022 185.015 56.2022 M185.015 52.4985 Q190.825 52.4985 193.881 57.105 Q196.959 61.6883 196.959 70.4383 Q196.959 79.1651 193.881 83.7715 Q190.825 88.3548 185.015 88.3548 Q179.205 88.3548 176.126 83.7715 Q173.071 79.1651 173.071 70.4383 Q173.071 61.6883 176.126 57.105 Q179.205 52.4985 185.015 52.4985 Z" fill="#000000" fill-rule="evenodd" fill-opacity="1" /><path clip-path="url(#clip890)" d="M 0 0 M206.664 34.6946 Q203.73 34.6946 202.244 37.591 Q200.777 40.4686 200.777 46.2614 Q200.777 52.0353 202.244 54.9317 Q203.73 57.8093 206.664 57.8093 Q209.617 57.8093 211.084 54.9317 Q212.57 52.0353 212.57 46.2614 Q212.57 40.4686 211.084 37.591 Q209.617 34.6946 206.664 34.6946 M206.664 31.6853 Q211.385 31.6853 213.868 35.4281 Q216.369 39.152 216.369 46.2614 Q216.369 53.3519 213.868 57.0946 Q211.385 60.8186 206.664 60.8186 Q201.943 60.8186 199.442 57.0946 Q196.959 53.3519 196.959 46.2614 Q196.959 39.152 199.442 35.4281 Q201.943 31.6853 206.664 31.6853 Z" fill="#000000" fill-rule="evenodd" fill-opacity="1" /><path clip-path="url(#clip890)" d="M 0 0 M223.046 55.496 L227.014 55.496 L227.014 60.2731 L223.046 60.2731 L223.046 55.496 Z" fill="#000000" fill-rule="evenodd" fill-opacity="1" /><path clip-path="url(#clip890)" d="M 0 0 M243.415 34.6946 Q240.481 34.6946 238.995 37.591 Q237.528 40.4686 237.528 46.2614 Q237.528 52.0353 238.995 54.9317 Q240.481 57.8093 243.415 57.8093 Q246.367 57.8093 247.834 54.9317 Q249.32 52.0353 249.32 46.2614 Q249.32 40.4686 247.834 37.591 Q246.367 34.6946 243.415 34.6946 M243.415 31.6853 Q248.135 31.6853 250.618 35.4281 Q253.119 39.152 253.119 46.2614 Q253.119 53.3519 250.618 57.0946 Q248.135 60.8186 243.415 60.8186 Q238.694 60.8186 236.192 57.0946 Q233.71 53.3519 233.71 46.2614 Q233.71 39.152 236.192 35.4281 Q238.694 31.6853 243.415 31.6853 Z" fill="#000000" fill-rule="evenodd" fill-opacity="1" /><path clip-path="url(#clip890)" d="M 0 0 M41.7242 411.027 Q42.4244 408.958 44.7161 407.017 Q47.0077 405.043 51.0181 403.07 L64.0042 396.545 L64.0042 403.452 L51.8138 409.531 Q47.0395 411.886 45.48 414.114 Q43.9204 416.311 43.9204 420.13 L43.9204 427.132 L64.0042 427.132 L64.0042 433.562 L16.4842 433.562 L16.4842 419.048 Q16.4842 410.9 19.8898 406.889 Q23.2955 402.879 30.1704 402.879 Q34.6582 402.879 37.6183 404.98 Q40.5784 407.049 41.7242 411.027 M21.7677 427.132 L38.6368 427.132 L38.6368 419.048 Q38.6368 414.401 36.5043 412.046 Q34.34 409.658 30.1704 409.658 Q26.0009 409.658 23.9002 412.046 Q21.7677 414.401 21.7677 419.048 L21.7677 427.132 Z" fill="#000000" fill-rule="evenodd" fill-opacity="1" /><path clip-path="url(#clip890)" d="M 0 0 M22.818 375.029 L46.4666 383.75 L46.4666 366.276 L22.818 375.029 M16.4842 378.657 L16.4842 371.369 L64.0042 353.258 L64.0042 359.942 L51.8138 364.271 L51.8138 385.692 L64.0042 390.02 L64.0042 396.8 L16.4842 378.657 Z" fill="#000000" fill-rule="evenodd" fill-opacity="1" /><path clip-path="url(#clip890)" d="M 0 0 M16.4842 336.166 L16.4842 330.756 L70.0516 347.306 L70.0516 352.717 L16.4842 336.166 Z" fill="#000000" fill-rule="evenodd" fill-opacity="1" /><path clip-path="url(#clip890)" d="M 0 0 M16.4842 324.358 L16.4842 317.929 L36.568 317.929 L16.4842 296.603 L16.4842 288.328 L38.6368 311.913 L64.0042 286.641 L64.0042 295.108 L41.1194 317.929 L64.0042 317.929 L64.0042 324.358 L16.4842 324.358 Z" fill="#000000" fill-rule="evenodd" fill-opacity="1" /><path clip-path="url(#clip890)" d="M 0 0 M29.7248 256.213 L35.1993 256.213 Q33.8307 258.696 33.1623 261.21 Q32.4621 263.693 32.4621 266.239 Q32.4621 271.936 36.0905 275.087 Q39.6872 278.238 46.212 278.238 Q52.7369 278.238 56.3653 275.087 Q59.9619 271.936 59.9619 266.239 Q59.9619 263.693 59.2935 261.21 Q58.5933 258.696 57.2247 256.213 L62.6355 256.213 Q63.7814 258.664 64.3543 261.306 Q64.9272 263.916 64.9272 266.876 Q64.9272 274.928 59.8664 279.671 Q54.8057 284.413 46.212 284.413 Q37.491 284.413 32.4939 279.639 Q27.4968 274.833 27.4968 266.494 Q27.4968 263.788 28.0697 261.21 Q28.6108 258.632 29.7248 256.213 Z" fill="#000000" fill-rule="evenodd" fill-opacity="1" /><polyline clip-path="url(#clip892)" style="stroke:#009af9; stroke-width:8; stroke-opacity:1; fill:none" points="
  347.524,64.0918 366.537,64.1148 542.333,64.6272 647.98,65.5431 737.303,67.214 834.332,70.9454 923.785,77.6456 971.736,83.2039 1019.69,90.5269 1075.24,101.516 
  1130.8,115.322 1229.54,146.251 1316.13,178.528 1410.54,217.082 1505.51,257.792 1610.5,303.89 1710.41,348.235 1814.28,394.563 1901.72,433.639 2008.48,481.389 
  2108.83,526.294 2269.61,598.251 2294.35,609.326 
  "/>
<polyline clip-path="url(#clip892)" style="stroke:#ff0000; stroke-width:4; stroke-opacity:1; fill:none" points="
  347.524,539.78 2138.97,539.78 2138.97,625.683 
  "/>
<path clip-path="url(#clip890)" d="M 0 0 M2178.67 532.645 Q2178.67 534.899 2177.44 539.876 Q2176.21 544.854 2174.72 548.25 Q2171.53 555.628 2166.02 555.628 Q2165.35 555.628 2164.67 555.569 Q2164.03 555.511 2163.06 555.247 Q2162.1 554.984 2161.31 554.574 Q2160.52 554.135 2159.73 553.315 Q2158.96 552.495 2158.53 551.412 Q2156.1 555.628 2152.29 555.628 Q2148.6 555.628 2146.17 553.754 Q2143.77 551.88 2143.77 548.045 Q2143.77 546.318 2144.47 543.77 Q2145.17 541.223 2147.14 535.953 Q2148.22 533.23 2148.22 531.737 Q2148.22 531.064 2148.07 530.624 Q2147.93 530.185 2147.63 530.039 Q2147.37 529.863 2147.2 529.834 Q2147.02 529.775 2146.73 529.775 Q2144.97 529.775 2143.39 531.561 Q2141.81 533.318 2140.67 537.212 Q2140.43 537.944 2140.29 538.12 Q2140.14 538.295 2139.7 538.295 Q2138.97 538.266 2138.97 537.68 Q2138.97 537.446 2139.23 536.539 Q2139.49 535.602 2140.11 534.226 Q2140.75 532.82 2141.63 531.561 Q2142.51 530.273 2143.89 529.366 Q2145.29 528.458 2146.9 528.458 Q2149.07 528.458 2150.44 529.893 Q2151.82 531.327 2151.82 533.377 Q2151.82 533.962 2151.67 534.606 Q2151.53 535.221 2151.38 535.631 Q2151.26 536.012 2150.8 537.212 Q2148.86 542.277 2148.25 544.707 Q2147.66 547.137 2147.66 548.835 Q2147.66 549.392 2147.69 549.831 Q2147.72 550.27 2147.96 551.178 Q2148.22 552.085 2148.69 552.7 Q2149.16 553.286 2150.12 553.783 Q2151.12 554.281 2152.47 554.281 Q2155.83 554.281 2158 549.245 Q2157.94 548.953 2157.94 548.191 Q2157.94 546.493 2158.47 544.209 Q2158.61 543.682 2159.46 540.316 Q2160.31 536.919 2161.04 533.962 Q2161.8 530.976 2161.89 530.8 Q2162.19 529.98 2162.83 529.541 Q2163.47 529.102 2164.12 529.102 Q2164.85 529.102 2165.35 529.541 Q2165.85 529.98 2165.85 530.742 Q2165.85 530.888 2165.67 531.561 Q2165.52 532.205 2165.29 533.172 Q2165.05 534.138 2164.94 534.636 L2162.42 544.707 Q2161.78 547.049 2161.78 549.07 Q2161.78 551.617 2162.92 552.964 Q2164.06 554.281 2166.2 554.281 Q2170.21 554.281 2172.78 549.011 Q2173.96 546.727 2175.01 543.155 Q2176.09 539.584 2176.09 538.032 Q2176.09 535.104 2173.93 532.937 Q2173.46 532.528 2173.25 532.205 Q2173.05 531.854 2173.05 531.327 Q2173.05 530.332 2173.98 529.395 Q2174.92 528.458 2176.03 528.458 Q2177.03 528.458 2177.85 529.453 Q2178.67 530.42 2178.67 532.645 Z" fill="#000000" fill-rule="evenodd" fill-opacity="1" /><path clip-path="url(#clip890)" d="M 0 0 M2200.85 561.794 Q2201.01 561.979 2201.01 562.163 Q2201.01 562.348 2200.6 562.88 Q2200.22 563.413 2199.38 564.131 Q2198.53 564.848 2197.45 565.524 Q2196.36 566.201 2194.76 566.651 Q2193.17 567.123 2191.48 567.123 Q2188.35 567.123 2186.5 565.053 Q2184.68 562.983 2184.68 560.011 Q2184.68 557.121 2186.3 554.355 Q2187.92 551.567 2190.54 549.846 Q2193.17 548.104 2195.93 548.104 Q2198.12 548.104 2199.5 549.128 Q2200.87 550.153 2200.87 551.711 Q2200.87 552.92 2200.17 553.658 Q2199.48 554.396 2198.53 554.396 Q2197.88 554.396 2197.43 554.027 Q2196.98 553.637 2196.98 552.92 Q2196.98 551.998 2197.74 551.28 Q2198.02 550.994 2198.35 550.871 Q2198.7 550.727 2198.9 550.727 Q2199.11 550.707 2199.58 550.707 Q2199.15 549.907 2198.12 549.477 Q2197.12 549.026 2195.97 549.026 Q2194.27 549.026 2192.65 550.215 Q2191.03 551.383 2190.05 553.227 Q2189.07 555.031 2188.43 557.593 Q2187.8 560.134 2187.8 561.61 Q2187.8 563.639 2188.74 564.909 Q2189.68 566.18 2191.57 566.18 Q2191.94 566.18 2192.32 566.16 Q2192.73 566.139 2193.76 565.914 Q2194.8 565.688 2195.73 565.299 Q2196.65 564.909 2197.82 564.069 Q2199.01 563.208 2199.95 562.04 Q2200.28 561.61 2200.5 561.61 Q2200.69 561.61 2200.85 561.794 Z" fill="#000000" fill-rule="evenodd" fill-opacity="1" /><path clip-path="url(#clip890)" d="M 0 0 M2220.64 555.195 Q2220.64 557.429 2219.66 559.642 Q2218.67 561.835 2217.09 563.475 Q2215.54 565.094 2213.49 566.119 Q2211.44 567.123 2209.39 567.123 Q2206.46 567.123 2204.55 565.135 Q2202.67 563.126 2202.67 560.011 Q2202.67 557.101 2204.28 554.334 Q2205.92 551.547 2208.55 549.825 Q2211.17 548.104 2213.92 548.104 Q2216.81 548.104 2218.71 550.051 Q2220.64 551.998 2220.64 555.195 M2217.57 553.555 Q2217.57 551.567 2216.6 550.297 Q2215.64 549.026 2213.88 549.026 Q2213.36 549.026 2212.77 549.19 Q2212.18 549.333 2211.4 549.723 Q2210.64 550.112 2209.78 550.932 Q2208.94 551.731 2208.2 552.879 Q2207.24 554.396 2206.5 557.183 Q2205.78 559.95 2205.78 561.61 Q2205.78 563.905 2206.85 565.053 Q2207.91 566.18 2209.43 566.18 Q2210.9 566.18 2212.46 565.155 Q2214.04 564.11 2215.13 562.327 Q2216.21 560.483 2216.89 557.777 Q2217.57 555.051 2217.57 553.555 Z" fill="#000000" fill-rule="evenodd" fill-opacity="1" /><path clip-path="url(#clip890)" d="M 0 0 M2230.07 553.988 Q2229.22 553.022 2229.22 551.763 Q2229.22 550.504 2230.04 549.567 Q2230.89 548.601 2232.41 548.601 Q2234.2 548.601 2235.23 550.329 Q2236.25 552.027 2236.25 554.896 Q2236.25 557.999 2234.99 560.869 Q2233.73 563.767 2232.5 565.143 Q2231.27 566.519 2230.77 566.519 Q2230.19 566.519 2230.19 565.875 Q2230.19 565.641 2230.6 565.202 Q2234.9 560.576 2234.93 554.896 Q2234.93 553.988 2234.82 553.988 L2234.67 554.105 Q2233.64 554.955 2232.41 554.955 Q2230.92 554.955 2230.07 553.988 Z" fill="#000000" fill-rule="evenodd" fill-opacity="1" /><path clip-path="url(#clip890)" d="M 0 0 M2291.45 521.782 Q2291.45 520.816 2291.19 520.026 Q2290.95 519.206 2290.57 518.65 Q2290.22 518.064 2289.55 517.625 Q2288.87 517.157 2288.32 516.864 Q2287.76 516.571 2286.82 516.395 Q2285.89 516.19 2285.27 516.103 Q2284.66 515.985 2283.6 515.927 Q2282.55 515.868 2282.02 515.868 Q2281.52 515.868 2280.53 515.868 Q2277.4 515.868 2276.87 515.927 Q2276.08 516.044 2275.79 516.512 Q2275.49 516.952 2275.2 518.152 L2271.31 533.787 L2278.01 533.787 Q2281.67 533.787 2284.19 532.762 Q2286.71 531.737 2288.14 530.302 Q2289.72 528.721 2290.57 526.174 Q2291.45 523.627 2291.45 521.782 M2297.98 549.392 Q2297.98 549.714 2297.71 550.446 Q2297.48 551.178 2296.89 552.202 Q2296.31 553.198 2295.52 554.105 Q2294.73 555.013 2293.47 555.628 Q2292.21 556.272 2290.78 556.272 Q2290.42 556.272 2290.07 556.243 Q2289.72 556.243 2288.84 556.096 Q2287.99 555.979 2287.29 555.745 Q2286.59 555.54 2285.71 555.042 Q2284.83 554.574 2284.22 553.93 Q2283.63 553.256 2283.22 552.202 Q2282.81 551.119 2282.81 549.802 Q2282.81 548.63 2283.78 544.707 Q2284.63 541.37 2284.63 540.55 Q2284.63 539.642 2284.33 538.793 Q2284.07 537.944 2283.4 537.066 Q2282.75 536.187 2281.38 535.66 Q2280 535.104 2278.07 535.104 L2270.95 535.104 L2266.97 551.002 Q2266.97 551.031 2266.88 551.441 Q2266.8 551.822 2266.8 552.027 Q2266.8 552.407 2267.03 552.642 Q2267.29 552.876 2267.94 552.993 Q2268.58 553.081 2269.08 553.11 Q2269.61 553.11 2270.69 553.11 Q2272.04 553.11 2272.27 553.344 Q2272.39 553.491 2272.39 553.754 Q2272.39 554.164 2272.27 554.457 Q2272.18 554.72 2271.95 554.808 Q2271.74 554.896 2271.6 554.925 Q2271.45 554.955 2271.19 554.955 L2263.58 554.779 L2256.02 554.955 Q2255.17 554.955 2255.17 554.281 Q2255.17 553.696 2255.38 553.461 Q2255.58 553.198 2255.85 553.169 Q2256.11 553.11 2256.78 553.11 Q2258.25 553.11 2259.13 553.022 Q2260 552.934 2260.56 552.817 Q2261.15 552.671 2261.44 552.261 Q2261.76 551.851 2261.91 551.5 Q2262.05 551.119 2262.26 550.27 L2270.28 518.064 Q2270.52 517.098 2270.52 516.952 Q2270.52 516.395 2270.16 516.249 Q2269.84 516.073 2268.9 515.985 L2266.62 515.868 Q2265.92 515.868 2265.63 515.839 Q2265.36 515.81 2265.16 515.663 Q2264.95 515.517 2264.95 515.195 Q2264.95 514.375 2265.3 514.199 Q2265.65 513.995 2266.68 513.995 L2283.78 513.995 Q2289.6 513.995 2293.29 516.542 Q2297.01 519.089 2297.01 522.983 Q2297.01 524.74 2296.22 526.379 Q2295.43 528.019 2294.11 529.307 Q2292.82 530.595 2291.1 531.678 Q2289.37 532.732 2287.53 533.464 Q2285.71 534.167 2283.84 534.577 Q2284.66 534.87 2285.42 535.309 Q2286.21 535.748 2287.2 536.568 Q2288.23 537.388 2288.84 538.705 Q2289.46 540.023 2289.46 541.633 Q2289.46 542.775 2289.22 544.473 Q2288.64 549.304 2288.64 551.295 Q2288.64 553.198 2289.14 554.076 Q2289.63 554.955 2291.04 554.955 Q2292.42 554.955 2293.94 553.725 Q2295.49 552.466 2296.48 549.509 Q2296.72 548.66 2297.28 548.66 Q2297.3 548.66 2297.33 548.66 Q2297.39 548.66 2297.51 548.718 Q2297.63 548.748 2297.71 548.835 Q2297.83 548.894 2297.89 549.04 Q2297.98 549.187 2297.98 549.392 Z" fill="#000000" fill-rule="evenodd" fill-opacity="1" /><path clip-path="url(#clip890)" d="M 0 0 M2341.37 553.754 Q2341.37 554.31 2341.14 554.603 Q2340.93 554.867 2340.73 554.925 Q2340.55 554.955 2340.29 554.955 Q2339.53 554.955 2336.89 554.867 Q2334.26 554.779 2333.5 554.779 Q2332.27 554.779 2329.75 554.867 Q2327.23 554.955 2326 554.955 Q2325.18 554.955 2325.18 554.281 Q2325.18 553.842 2325.27 553.608 Q2325.36 553.344 2325.59 553.256 Q2325.86 553.139 2326 553.139 Q2326.18 553.11 2326.62 553.11 Q2327.2 553.11 2327.82 553.051 Q2328.43 552.964 2329.19 552.788 Q2329.96 552.612 2330.42 552.173 Q2330.92 551.734 2330.92 551.119 Q2330.92 550.856 2330.72 548.689 Q2330.51 546.522 2330.25 544.005 Q2329.98 541.457 2329.96 541.106 L2314.91 541.106 Q2313.53 543.478 2312.56 545.117 Q2311.6 546.757 2311.25 547.313 Q2310.9 547.869 2310.69 548.221 Q2310.49 548.572 2310.37 548.777 Q2309.52 550.329 2309.52 551.002 Q2309.52 552.876 2312.33 553.11 Q2313.3 553.11 2313.3 553.813 Q2313.3 554.34 2313.06 554.632 Q2312.83 554.896 2312.62 554.925 Q2312.45 554.955 2312.15 554.955 Q2311.19 554.955 2309.17 554.867 Q2307.15 554.779 2306.15 554.779 Q2305.3 554.779 2303.55 554.867 Q2301.79 554.955 2301 554.955 Q2300.65 554.955 2300.44 554.75 Q2300.24 554.545 2300.24 554.281 Q2300.24 553.871 2300.3 553.637 Q2300.38 553.403 2300.62 553.286 Q2300.85 553.169 2300.97 553.169 Q2301.09 553.139 2301.5 553.11 Q2303.72 552.964 2305.45 551.91 Q2307.21 550.826 2308.88 548.045 L2329.72 513.028 Q2329.93 512.677 2330.07 512.501 Q2330.22 512.326 2330.51 512.179 Q2330.83 512.033 2331.3 512.033 Q2332.03 512.033 2332.18 512.267 Q2332.33 512.472 2332.41 513.468 L2336.07 550.943 Q2336.16 551.734 2336.22 552.056 Q2336.31 552.349 2336.69 552.671 Q2337.1 552.964 2337.83 553.051 Q2338.59 553.11 2340 553.11 Q2340.52 553.11 2340.73 553.139 Q2340.93 553.139 2341.14 553.286 Q2341.37 553.432 2341.37 553.754 M2329.78 539.232 L2327.88 519.47 L2316.05 539.232 L2329.78 539.232 Z" fill="#000000" fill-rule="evenodd" fill-opacity="1" /><path clip-path="url(#clip890)" d="M 0 0 M2363.54 561.122 Q2363.71 561.307 2363.71 561.491 Q2363.71 561.676 2363.3 562.209 Q2362.91 562.741 2362.07 563.459 Q2361.23 564.176 2360.14 564.852 Q2359.05 565.529 2357.46 565.98 Q2355.86 566.451 2354.18 566.451 Q2351.04 566.451 2349.2 564.381 Q2347.37 562.311 2347.37 559.339 Q2347.37 556.45 2348.99 553.683 Q2350.61 550.895 2353.23 549.174 Q2355.86 547.432 2358.62 547.432 Q2360.82 547.432 2362.19 548.457 Q2363.56 549.481 2363.56 551.039 Q2363.56 552.248 2362.87 552.986 Q2362.17 553.724 2361.23 553.724 Q2360.57 553.724 2360.12 553.355 Q2359.67 552.965 2359.67 552.248 Q2359.67 551.326 2360.43 550.609 Q2360.71 550.322 2361.04 550.199 Q2361.39 550.055 2361.6 550.055 Q2361.8 550.035 2362.27 550.035 Q2361.84 549.235 2360.82 548.805 Q2359.81 548.354 2358.67 548.354 Q2356.96 548.354 2355.35 549.543 Q2353.73 550.711 2352.74 552.556 Q2351.76 554.359 2351.12 556.921 Q2350.49 559.462 2350.49 560.938 Q2350.49 562.967 2351.43 564.237 Q2352.37 565.508 2354.26 565.508 Q2354.63 565.508 2355.02 565.488 Q2355.43 565.467 2356.45 565.242 Q2357.5 565.016 2358.42 564.627 Q2359.34 564.237 2360.51 563.397 Q2361.7 562.536 2362.64 561.368 Q2362.97 560.938 2363.19 560.938 Q2363.38 560.938 2363.54 561.122 Z" fill="#000000" fill-rule="evenodd" fill-opacity="1" /><path clip-path="url(#clip890)" d="M 0 0 M2383.33 554.523 Q2383.33 556.757 2382.35 558.97 Q2381.36 561.163 2379.79 562.803 Q2378.23 564.422 2376.18 565.447 Q2374.13 566.451 2372.08 566.451 Q2369.15 566.451 2367.24 564.463 Q2365.36 562.454 2365.36 559.339 Q2365.36 556.429 2366.98 553.662 Q2368.62 550.875 2371.24 549.153 Q2373.86 547.432 2376.61 547.432 Q2379.5 547.432 2381.41 549.379 Q2383.33 551.326 2383.33 554.523 M2380.26 552.883 Q2380.26 550.895 2379.29 549.625 Q2378.33 548.354 2376.57 548.354 Q2376.06 548.354 2375.46 548.518 Q2374.87 548.662 2374.09 549.051 Q2373.33 549.44 2372.47 550.26 Q2371.63 551.059 2370.89 552.207 Q2369.93 553.724 2369.19 556.511 Q2368.47 559.278 2368.47 560.938 Q2368.47 563.233 2369.54 564.381 Q2370.6 565.508 2372.12 565.508 Q2373.6 565.508 2375.15 564.483 Q2376.73 563.438 2377.82 561.655 Q2378.91 559.811 2379.58 557.105 Q2380.26 554.38 2380.26 552.883 Z" fill="#000000" fill-rule="evenodd" fill-opacity="1" /><path clip-path="url(#clip890)" d="
M289.119 1410.9 L2352.76 1410.9 L2352.76 815.61 L289.119 815.61  Z
  " fill="#ffffff" fill-rule="evenodd" fill-opacity="1"/>
<defs>
  <clipPath id="clip893">
    <rect x="289" y="815" width="2065" height="596"/>
  </clipPath>
</defs>
<polyline clip-path="url(#clip893)" style="stroke:#000000; stroke-width:2; stroke-opacity:0.1; fill:none" points="
  347.524,1410.9 347.524,815.61 
  "/>
<polyline clip-path="url(#clip893)" style="stroke:#000000; stroke-width:2; stroke-opacity:0.1; fill:none" points="
  907.42,1410.9 907.42,815.61 
  "/>
<polyline clip-path="url(#clip893)" style="stroke:#000000; stroke-width:2; stroke-opacity:0.1; fill:none" points="
  1467.32,1410.9 1467.32,815.61 
  "/>
<polyline clip-path="url(#clip893)" style="stroke:#000000; stroke-width:2; stroke-opacity:0.1; fill:none" points="
  2027.21,1410.9 2027.21,815.61 
  "/>
<polyline clip-path="url(#clip890)" style="stroke:#000000; stroke-width:4; stroke-opacity:1; fill:none" points="
  289.119,1410.9 2352.76,1410.9 
  "/>
<polyline clip-path="url(#clip890)" style="stroke:#000000; stroke-width:4; stroke-opacity:1; fill:none" points="
  347.524,1410.9 347.524,1403.75 
  "/>
<polyline clip-path="url(#clip890)" style="stroke:#000000; stroke-width:4; stroke-opacity:1; fill:none" points="
  907.42,1410.9 907.42,1403.75 
  "/>
<polyline clip-path="url(#clip890)" style="stroke:#000000; stroke-width:4; stroke-opacity:1; fill:none" points="
  1467.32,1410.9 1467.32,1403.75 
  "/>
<polyline clip-path="url(#clip890)" style="stroke:#000000; stroke-width:4; stroke-opacity:1; fill:none" points="
  2027.21,1410.9 2027.21,1403.75 
  "/>
<polyline clip-path="url(#clip890)" style="stroke:#000000; stroke-width:4; stroke-opacity:1; fill:none" points="
  299.269,1410.9 299.269,1407.32 
  "/>
<polyline clip-path="url(#clip890)" style="stroke:#000000; stroke-width:4; stroke-opacity:1; fill:none" points="
  597.886,1410.9 597.886,1407.32 
  "/>
<polyline clip-path="url(#clip890)" style="stroke:#000000; stroke-width:4; stroke-opacity:1; fill:none" points="
  718.6,1410.9 718.6,1407.32 
  "/>
<polyline clip-path="url(#clip890)" style="stroke:#000000; stroke-width:4; stroke-opacity:1; fill:none" points="
  798.901,1410.9 798.901,1407.32 
  "/>
<polyline clip-path="url(#clip890)" style="stroke:#000000; stroke-width:4; stroke-opacity:1; fill:none" points="
  859.165,1410.9 859.165,1407.32 
  "/>
<polyline clip-path="url(#clip890)" style="stroke:#000000; stroke-width:4; stroke-opacity:1; fill:none" points="
  1157.78,1410.9 1157.78,1407.32 
  "/>
<polyline clip-path="url(#clip890)" style="stroke:#000000; stroke-width:4; stroke-opacity:1; fill:none" points="
  1278.5,1410.9 1278.5,1407.32 
  "/>
<polyline clip-path="url(#clip890)" style="stroke:#000000; stroke-width:4; stroke-opacity:1; fill:none" points="
  1358.8,1410.9 1358.8,1407.32 
  "/>
<polyline clip-path="url(#clip890)" style="stroke:#000000; stroke-width:4; stroke-opacity:1; fill:none" points="
  1419.06,1410.9 1419.06,1407.32 
  "/>
<polyline clip-path="url(#clip890)" style="stroke:#000000; stroke-width:4; stroke-opacity:1; fill:none" points="
  1717.68,1410.9 1717.68,1407.32 
  "/>
<polyline clip-path="url(#clip890)" style="stroke:#000000; stroke-width:4; stroke-opacity:1; fill:none" points="
  1838.39,1410.9 1838.39,1407.32 
  "/>
<polyline clip-path="url(#clip890)" style="stroke:#000000; stroke-width:4; stroke-opacity:1; fill:none" points="
  1918.69,1410.9 1918.69,1407.32 
  "/>
<polyline clip-path="url(#clip890)" style="stroke:#000000; stroke-width:4; stroke-opacity:1; fill:none" points="
  1978.96,1410.9 1978.96,1407.32 
  "/>
<polyline clip-path="url(#clip890)" style="stroke:#000000; stroke-width:4; stroke-opacity:1; fill:none" points="
  2277.57,1410.9 2277.57,1407.32 
  "/>
<path clip-path="url(#clip890)" d="M 0 0 M297.639 1489.17 L305.278 1489.17 L305.278 1462.8 L296.968 1464.47 L296.968 1460.21 L305.232 1458.54 L309.908 1458.54 L309.908 1489.17 L317.547 1489.17 L317.547 1493.1 L297.639 1493.1 L297.639 1489.17 Z" fill="#000000" fill-rule="evenodd" fill-opacity="1" /><path clip-path="url(#clip890)" d="M 0 0 M336.991 1461.62 Q333.38 1461.62 331.551 1465.19 Q329.746 1468.73 329.746 1475.86 Q329.746 1482.97 331.551 1486.53 Q333.38 1490.07 336.991 1490.07 Q340.625 1490.07 342.431 1486.53 Q344.26 1482.97 344.26 1475.86 Q344.26 1468.73 342.431 1465.19 Q340.625 1461.62 336.991 1461.62 M336.991 1457.92 Q342.801 1457.92 345.857 1462.53 Q348.935 1467.11 348.935 1475.86 Q348.935 1484.59 345.857 1489.19 Q342.801 1493.78 336.991 1493.78 Q331.181 1493.78 328.102 1489.19 Q325.047 1484.59 325.047 1475.86 Q325.047 1467.11 328.102 1462.53 Q331.181 1457.92 336.991 1457.92 Z" fill="#000000" fill-rule="evenodd" fill-opacity="1" /><path clip-path="url(#clip890)" d="M 0 0 M348.935 1452.02 L373.047 1452.02 L373.047 1455.22 L348.935 1455.22 L348.935 1452.02 Z" fill="#000000" fill-rule="evenodd" fill-opacity="1" /><path clip-path="url(#clip890)" d="M 0 0 M381.906 1462.5 L388.112 1462.5 L388.112 1441.07 L381.36 1442.43 L381.36 1438.97 L388.074 1437.61 L391.874 1437.61 L391.874 1462.5 L398.08 1462.5 L398.08 1465.69 L381.906 1465.69 L381.906 1462.5 Z" fill="#000000" fill-rule="evenodd" fill-opacity="1" /><path clip-path="url(#clip890)" d="M 0 0 M872.403 1489.17 L880.042 1489.17 L880.042 1462.8 L871.732 1464.47 L871.732 1460.21 L879.996 1458.54 L884.672 1458.54 L884.672 1489.17 L892.31 1489.17 L892.31 1493.1 L872.403 1493.1 L872.403 1489.17 Z" fill="#000000" fill-rule="evenodd" fill-opacity="1" /><path clip-path="url(#clip890)" d="M 0 0 M911.755 1461.62 Q908.144 1461.62 906.315 1465.19 Q904.509 1468.73 904.509 1475.86 Q904.509 1482.97 906.315 1486.53 Q908.144 1490.07 911.755 1490.07 Q915.389 1490.07 917.195 1486.53 Q919.023 1482.97 919.023 1475.86 Q919.023 1468.73 917.195 1465.19 Q915.389 1461.62 911.755 1461.62 M911.755 1457.92 Q917.565 1457.92 920.621 1462.53 Q923.699 1467.11 923.699 1475.86 Q923.699 1484.59 920.621 1489.19 Q917.565 1493.78 911.755 1493.78 Q905.945 1493.78 902.866 1489.19 Q899.81 1484.59 899.81 1475.86 Q899.81 1467.11 902.866 1462.53 Q905.945 1457.92 911.755 1457.92 Z" fill="#000000" fill-rule="evenodd" fill-opacity="1" /><path clip-path="url(#clip890)" d="M 0 0 M933.404 1440.11 Q930.47 1440.11 928.984 1443.01 Q927.517 1445.89 927.517 1451.68 Q927.517 1457.46 928.984 1460.35 Q930.47 1463.23 933.404 1463.23 Q936.357 1463.23 937.824 1460.35 Q939.31 1457.46 939.31 1451.68 Q939.31 1445.89 937.824 1443.01 Q936.357 1440.11 933.404 1440.11 M933.404 1437.11 Q938.125 1437.11 940.607 1440.85 Q943.109 1444.57 943.109 1451.68 Q943.109 1458.77 940.607 1462.51 Q938.125 1466.24 933.404 1466.24 Q928.683 1466.24 926.182 1462.51 Q923.699 1458.77 923.699 1451.68 Q923.699 1444.57 926.182 1440.85 Q928.683 1437.11 933.404 1437.11 Z" fill="#000000" fill-rule="evenodd" fill-opacity="1" /><path clip-path="url(#clip890)" d="M 0 0 M1433.64 1489.17 L1441.28 1489.17 L1441.28 1462.8 L1432.97 1464.47 L1432.97 1460.21 L1441.24 1458.54 L1445.91 1458.54 L1445.91 1489.17 L1453.55 1489.17 L1453.55 1493.1 L1433.64 1493.1 L1433.64 1489.17 Z" fill="#000000" fill-rule="evenodd" fill-opacity="1" /><path clip-path="url(#clip890)" d="M 0 0 M1473 1461.62 Q1469.38 1461.62 1467.56 1465.19 Q1465.75 1468.73 1465.75 1475.86 Q1465.75 1482.97 1467.56 1486.53 Q1469.38 1490.07 1473 1490.07 Q1476.63 1490.07 1478.44 1486.53 Q1480.26 1482.97 1480.26 1475.86 Q1480.26 1468.73 1478.44 1465.19 Q1476.63 1461.62 1473 1461.62 M1473 1457.92 Q1478.81 1457.92 1481.86 1462.53 Q1484.94 1467.11 1484.94 1475.86 Q1484.94 1484.59 1481.86 1489.19 Q1478.81 1493.78 1473 1493.78 Q1467.19 1493.78 1464.11 1489.19 Q1461.05 1484.59 1461.05 1475.86 Q1461.05 1467.11 1464.11 1462.53 Q1467.19 1457.92 1473 1457.92 Z" fill="#000000" fill-rule="evenodd" fill-opacity="1" /><path clip-path="url(#clip890)" d="M 0 0 M1485.49 1462.5 L1491.69 1462.5 L1491.69 1441.07 L1484.94 1442.43 L1484.94 1438.97 L1491.65 1437.61 L1495.45 1437.61 L1495.45 1462.5 L1501.66 1462.5 L1501.66 1465.69 L1485.49 1465.69 L1485.49 1462.5 Z" fill="#000000" fill-rule="evenodd" fill-opacity="1" /><path clip-path="url(#clip890)" d="M 0 0 M1992.99 1489.17 L2000.62 1489.17 L2000.62 1462.8 L1992.31 1464.47 L1992.31 1460.21 L2000.58 1458.54 L2005.25 1458.54 L2005.25 1489.17 L2012.89 1489.17 L2012.89 1493.1 L1992.99 1493.1 L1992.99 1489.17 Z" fill="#000000" fill-rule="evenodd" fill-opacity="1" /><path clip-path="url(#clip890)" d="M 0 0 M2032.34 1461.62 Q2028.73 1461.62 2026.9 1465.19 Q2025.09 1468.73 2025.09 1475.86 Q2025.09 1482.97 2026.9 1486.53 Q2028.73 1490.07 2032.34 1490.07 Q2035.97 1490.07 2037.78 1486.53 Q2039.61 1482.97 2039.61 1475.86 Q2039.61 1468.73 2037.78 1465.19 Q2035.97 1461.62 2032.34 1461.62 M2032.34 1457.92 Q2038.15 1457.92 2041.2 1462.53 Q2044.28 1467.11 2044.28 1475.86 Q2044.28 1484.59 2041.2 1489.19 Q2038.15 1493.78 2032.34 1493.78 Q2026.53 1493.78 2023.45 1489.19 Q2020.39 1484.59 2020.39 1475.86 Q2020.39 1467.11 2023.45 1462.53 Q2026.53 1457.92 2032.34 1457.92 Z" fill="#000000" fill-rule="evenodd" fill-opacity="1" /><path clip-path="url(#clip890)" d="M 0 0 M2048.85 1462.5 L2062.11 1462.5 L2062.11 1465.69 L2044.28 1465.69 L2044.28 1462.5 Q2046.44 1460.26 2050.17 1456.5 Q2053.91 1452.72 2054.87 1451.63 Q2056.69 1449.58 2057.41 1448.16 Q2058.14 1446.74 2058.14 1445.36 Q2058.14 1443.12 2056.56 1441.71 Q2055 1440.3 2052.48 1440.3 Q2050.69 1440.3 2048.7 1440.92 Q2046.73 1441.54 2044.47 1442.8 L2044.47 1438.97 Q2046.76 1438.05 2048.76 1437.58 Q2050.75 1437.11 2052.41 1437.11 Q2056.77 1437.11 2059.37 1439.29 Q2061.96 1441.47 2061.96 1445.12 Q2061.96 1446.85 2061.3 1448.41 Q2060.66 1449.95 2058.95 1452.06 Q2058.48 1452.6 2055.96 1455.22 Q2053.44 1457.81 2048.85 1462.5 Z" fill="#000000" fill-rule="evenodd" fill-opacity="1" /><path clip-path="url(#clip890)" d="M 0 0 M1311.23 1575.11 Q1298.02 1575.11 1298.02 1556.2 Q1298.02 1548.72 1302.95 1538.54 L1309.26 1538.54 Q1304.71 1548.72 1304.71 1556.36 Q1304.71 1570.14 1311.77 1570.14 Q1318.23 1570.14 1318.23 1553.02 L1323.64 1553.02 Q1323.64 1570.14 1330.1 1570.14 Q1337.17 1570.14 1337.17 1556.36 Q1337.17 1548.72 1332.62 1538.54 L1338.92 1538.54 Q1343.85 1548.72 1343.85 1556.2 Q1343.85 1575.11 1330.65 1575.11 Q1321.99 1575.11 1320.94 1565.59 Q1319.63 1575.11 1311.23 1575.11 Z" fill="#000000" fill-rule="evenodd" fill-opacity="1" /><polyline clip-path="url(#clip893)" style="stroke:#000000; stroke-width:2; stroke-opacity:0.1; fill:none" points="
  289.119,1353.43 2352.76,1353.43 
  "/>
<polyline clip-path="url(#clip893)" style="stroke:#000000; stroke-width:2; stroke-opacity:0.1; fill:none" points="
  289.119,1248.01 2352.76,1248.01 
  "/>
<polyline clip-path="url(#clip893)" style="stroke:#000000; stroke-width:2; stroke-opacity:0.1; fill:none" points="
  289.119,1142.58 2352.76,1142.58 
  "/>
<polyline clip-path="url(#clip893)" style="stroke:#000000; stroke-width:2; stroke-opacity:0.1; fill:none" points="
  289.119,1037.15 2352.76,1037.15 
  "/>
<polyline clip-path="url(#clip893)" style="stroke:#000000; stroke-width:2; stroke-opacity:0.1; fill:none" points="
  289.119,931.728 2352.76,931.728 
  "/>
<polyline clip-path="url(#clip893)" style="stroke:#000000; stroke-width:2; stroke-opacity:0.1; fill:none" points="
  289.119,826.302 2352.76,826.302 
  "/>
<polyline clip-path="url(#clip890)" style="stroke:#000000; stroke-width:4; stroke-opacity:1; fill:none" points="
  289.119,1410.9 289.119,815.61 
  "/>
<polyline clip-path="url(#clip890)" style="stroke:#000000; stroke-width:4; stroke-opacity:1; fill:none" points="
  289.119,1353.43 313.883,1353.43 
  "/>
<polyline clip-path="url(#clip890)" style="stroke:#000000; stroke-width:4; stroke-opacity:1; fill:none" points="
  289.119,1248.01 313.883,1248.01 
  "/>
<polyline clip-path="url(#clip890)" style="stroke:#000000; stroke-width:4; stroke-opacity:1; fill:none" points="
  289.119,1142.58 313.883,1142.58 
  "/>
<polyline clip-path="url(#clip890)" style="stroke:#000000; stroke-width:4; stroke-opacity:1; fill:none" points="
  289.119,1037.15 313.883,1037.15 
  "/>
<polyline clip-path="url(#clip890)" style="stroke:#000000; stroke-width:4; stroke-opacity:1; fill:none" points="
  289.119,931.728 313.883,931.728 
  "/>
<polyline clip-path="url(#clip890)" style="stroke:#000000; stroke-width:4; stroke-opacity:1; fill:none" points="
  289.119,826.302 313.883,826.302 
  "/>
<polyline clip-path="url(#clip890)" style="stroke:#000000; stroke-width:4; stroke-opacity:1; fill:none" points="
  289.119,1395.6 301.501,1395.6 
  "/>
<polyline clip-path="url(#clip890)" style="stroke:#000000; stroke-width:4; stroke-opacity:1; fill:none" points="
  289.119,1374.52 301.501,1374.52 
  "/>
<polyline clip-path="url(#clip890)" style="stroke:#000000; stroke-width:4; stroke-opacity:1; fill:none" points="
  289.119,1332.35 301.501,1332.35 
  "/>
<polyline clip-path="url(#clip890)" style="stroke:#000000; stroke-width:4; stroke-opacity:1; fill:none" points="
  289.119,1311.26 301.501,1311.26 
  "/>
<polyline clip-path="url(#clip890)" style="stroke:#000000; stroke-width:4; stroke-opacity:1; fill:none" points="
  289.119,1290.18 301.501,1290.18 
  "/>
<polyline clip-path="url(#clip890)" style="stroke:#000000; stroke-width:4; stroke-opacity:1; fill:none" points="
  289.119,1269.09 301.501,1269.09 
  "/>
<polyline clip-path="url(#clip890)" style="stroke:#000000; stroke-width:4; stroke-opacity:1; fill:none" points="
  289.119,1226.92 301.501,1226.92 
  "/>
<polyline clip-path="url(#clip890)" style="stroke:#000000; stroke-width:4; stroke-opacity:1; fill:none" points="
  289.119,1205.84 301.501,1205.84 
  "/>
<polyline clip-path="url(#clip890)" style="stroke:#000000; stroke-width:4; stroke-opacity:1; fill:none" points="
  289.119,1184.75 301.501,1184.75 
  "/>
<polyline clip-path="url(#clip890)" style="stroke:#000000; stroke-width:4; stroke-opacity:1; fill:none" points="
  289.119,1163.67 301.501,1163.67 
  "/>
<polyline clip-path="url(#clip890)" style="stroke:#000000; stroke-width:4; stroke-opacity:1; fill:none" points="
  289.119,1121.49 301.501,1121.49 
  "/>
<polyline clip-path="url(#clip890)" style="stroke:#000000; stroke-width:4; stroke-opacity:1; fill:none" points="
  289.119,1100.41 301.501,1100.41 
  "/>
<polyline clip-path="url(#clip890)" style="stroke:#000000; stroke-width:4; stroke-opacity:1; fill:none" points="
  289.119,1079.32 301.501,1079.32 
  "/>
<polyline clip-path="url(#clip890)" style="stroke:#000000; stroke-width:4; stroke-opacity:1; fill:none" points="
  289.119,1058.24 301.501,1058.24 
  "/>
<polyline clip-path="url(#clip890)" style="stroke:#000000; stroke-width:4; stroke-opacity:1; fill:none" points="
  289.119,1016.07 301.501,1016.07 
  "/>
<polyline clip-path="url(#clip890)" style="stroke:#000000; stroke-width:4; stroke-opacity:1; fill:none" points="
  289.119,994.983 301.501,994.983 
  "/>
<polyline clip-path="url(#clip890)" style="stroke:#000000; stroke-width:4; stroke-opacity:1; fill:none" points="
  289.119,973.898 301.501,973.898 
  "/>
<polyline clip-path="url(#clip890)" style="stroke:#000000; stroke-width:4; stroke-opacity:1; fill:none" points="
  289.119,952.813 301.501,952.813 
  "/>
<polyline clip-path="url(#clip890)" style="stroke:#000000; stroke-width:4; stroke-opacity:1; fill:none" points="
  289.119,910.643 301.501,910.643 
  "/>
<polyline clip-path="url(#clip890)" style="stroke:#000000; stroke-width:4; stroke-opacity:1; fill:none" points="
  289.119,889.557 301.501,889.557 
  "/>
<polyline clip-path="url(#clip890)" style="stroke:#000000; stroke-width:4; stroke-opacity:1; fill:none" points="
  289.119,868.472 301.501,868.472 
  "/>
<polyline clip-path="url(#clip890)" style="stroke:#000000; stroke-width:4; stroke-opacity:1; fill:none" points="
  289.119,847.387 301.501,847.387 
  "/>
<path clip-path="url(#clip890)" d="M 0 0 M131.083 1353.88 L160.759 1353.88 L160.759 1357.82 L131.083 1357.82 L131.083 1353.88 Z" fill="#000000" fill-rule="evenodd" fill-opacity="1" /><path clip-path="url(#clip890)" d="M 0 0 M174.879 1366.78 L191.198 1366.78 L191.198 1370.71 L169.254 1370.71 L169.254 1366.78 Q171.916 1364.02 176.499 1359.39 Q181.106 1354.74 182.286 1353.4 Q184.532 1350.87 185.411 1349.14 Q186.314 1347.38 186.314 1345.69 Q186.314 1342.93 184.37 1341.2 Q182.448 1339.46 179.347 1339.46 Q177.148 1339.46 174.694 1340.23 Q172.263 1340.99 169.486 1342.54 L169.486 1337.82 Q172.31 1336.68 174.763 1336.11 Q177.217 1335.53 179.254 1335.53 Q184.624 1335.53 187.819 1338.21 Q191.013 1340.9 191.013 1345.39 Q191.013 1347.52 190.203 1349.44 Q189.416 1351.34 187.31 1353.93 Q186.731 1354.6 183.629 1357.82 Q180.527 1361.01 174.879 1366.78 Z" fill="#000000" fill-rule="evenodd" fill-opacity="1" /><path clip-path="url(#clip890)" d="M 0 0 M201.059 1336.15 L219.416 1336.15 L219.416 1340.09 L205.342 1340.09 L205.342 1348.56 Q206.36 1348.21 207.379 1348.05 Q208.397 1347.87 209.416 1347.87 Q215.203 1347.87 218.583 1351.04 Q221.962 1354.21 221.962 1359.62 Q221.962 1365.2 218.49 1368.31 Q215.018 1371.38 208.698 1371.38 Q206.522 1371.38 204.254 1371.01 Q202.009 1370.64 199.601 1369.9 L199.601 1365.2 Q201.684 1366.34 203.907 1366.89 Q206.129 1367.45 208.606 1367.45 Q212.61 1367.45 214.948 1365.34 Q217.286 1363.24 217.286 1359.62 Q217.286 1356.01 214.948 1353.91 Q212.61 1351.8 208.606 1351.8 Q206.731 1351.8 204.856 1352.22 Q203.004 1352.63 201.059 1353.51 L201.059 1336.15 Z" fill="#000000" fill-rule="evenodd" fill-opacity="1" /><path clip-path="url(#clip890)" d="M 0 0 M241.175 1339.23 Q237.564 1339.23 235.735 1342.8 Q233.93 1346.34 233.93 1353.47 Q233.93 1360.57 235.735 1364.14 Q237.564 1367.68 241.175 1367.68 Q244.809 1367.68 246.615 1364.14 Q248.443 1360.57 248.443 1353.47 Q248.443 1346.34 246.615 1342.8 Q244.809 1339.23 241.175 1339.23 M241.175 1335.53 Q246.985 1335.53 250.041 1340.13 Q253.119 1344.72 253.119 1353.47 Q253.119 1362.19 250.041 1366.8 Q246.985 1371.38 241.175 1371.38 Q235.365 1371.38 232.286 1366.8 Q229.231 1362.19 229.231 1353.47 Q229.231 1344.72 232.286 1340.13 Q235.365 1335.53 241.175 1335.53 Z" fill="#000000" fill-rule="evenodd" fill-opacity="1" /><path clip-path="url(#clip890)" d="M 0 0 M131.083 1248.46 L160.759 1248.46 L160.759 1252.39 L131.083 1252.39 L131.083 1248.46 Z" fill="#000000" fill-rule="evenodd" fill-opacity="1" /><path clip-path="url(#clip890)" d="M 0 0 M174.879 1261.35 L191.198 1261.35 L191.198 1265.29 L169.254 1265.29 L169.254 1261.35 Q171.916 1258.6 176.499 1253.97 Q181.106 1249.31 182.286 1247.97 Q184.532 1245.45 185.411 1243.71 Q186.314 1241.95 186.314 1240.26 Q186.314 1237.51 184.37 1235.77 Q182.448 1234.04 179.347 1234.04 Q177.148 1234.04 174.694 1234.8 Q172.263 1235.56 169.486 1237.12 L169.486 1232.39 Q172.31 1231.26 174.763 1230.68 Q177.217 1230.1 179.254 1230.1 Q184.624 1230.1 187.819 1232.79 Q191.013 1235.47 191.013 1239.96 Q191.013 1242.09 190.203 1244.01 Q189.416 1245.91 187.31 1248.5 Q186.731 1249.18 183.629 1252.39 Q180.527 1255.59 174.879 1261.35 Z" fill="#000000" fill-rule="evenodd" fill-opacity="1" /><path clip-path="url(#clip890)" d="M 0 0 M211.013 1233.81 Q207.402 1233.81 205.573 1237.37 Q203.768 1240.91 203.768 1248.04 Q203.768 1255.15 205.573 1258.71 Q207.402 1262.25 211.013 1262.25 Q214.647 1262.25 216.453 1258.71 Q218.282 1255.15 218.282 1248.04 Q218.282 1240.91 216.453 1237.37 Q214.647 1233.81 211.013 1233.81 M211.013 1230.1 Q216.823 1230.1 219.879 1234.71 Q222.957 1239.29 222.957 1248.04 Q222.957 1256.77 219.879 1261.37 Q216.823 1265.96 211.013 1265.96 Q205.203 1265.96 202.124 1261.37 Q199.069 1256.77 199.069 1248.04 Q199.069 1239.29 202.124 1234.71 Q205.203 1230.1 211.013 1230.1 Z" fill="#000000" fill-rule="evenodd" fill-opacity="1" /><path clip-path="url(#clip890)" d="M 0 0 M241.175 1233.81 Q237.564 1233.81 235.735 1237.37 Q233.93 1240.91 233.93 1248.04 Q233.93 1255.15 235.735 1258.71 Q237.564 1262.25 241.175 1262.25 Q244.809 1262.25 246.615 1258.71 Q248.443 1255.15 248.443 1248.04 Q248.443 1240.91 246.615 1237.37 Q244.809 1233.81 241.175 1233.81 M241.175 1230.1 Q246.985 1230.1 250.041 1234.71 Q253.119 1239.29 253.119 1248.04 Q253.119 1256.77 250.041 1261.37 Q246.985 1265.96 241.175 1265.96 Q235.365 1265.96 232.286 1261.37 Q229.231 1256.77 229.231 1248.04 Q229.231 1239.29 232.286 1234.71 Q235.365 1230.1 241.175 1230.1 Z" fill="#000000" fill-rule="evenodd" fill-opacity="1" /><path clip-path="url(#clip890)" d="M 0 0 M131.083 1143.03 L160.759 1143.03 L160.759 1146.97 L131.083 1146.97 L131.083 1143.03 Z" fill="#000000" fill-rule="evenodd" fill-opacity="1" /><path clip-path="url(#clip890)" d="M 0 0 M171.661 1155.92 L179.3 1155.92 L179.3 1129.56 L170.99 1131.23 L170.99 1126.97 L179.254 1125.3 L183.93 1125.3 L183.93 1155.92 L191.569 1155.92 L191.569 1159.86 L171.661 1159.86 L171.661 1155.92 Z" fill="#000000" fill-rule="evenodd" fill-opacity="1" /><path clip-path="url(#clip890)" d="M 0 0 M201.059 1125.3 L219.416 1125.3 L219.416 1129.24 L205.342 1129.24 L205.342 1137.71 Q206.36 1137.36 207.379 1137.2 Q208.397 1137.01 209.416 1137.01 Q215.203 1137.01 218.583 1140.18 Q221.962 1143.36 221.962 1148.77 Q221.962 1154.35 218.49 1157.45 Q215.018 1160.53 208.698 1160.53 Q206.522 1160.53 204.254 1160.16 Q202.009 1159.79 199.601 1159.05 L199.601 1154.35 Q201.684 1155.49 203.907 1156.04 Q206.129 1156.6 208.606 1156.6 Q212.61 1156.6 214.948 1154.49 Q217.286 1152.38 217.286 1148.77 Q217.286 1145.16 214.948 1143.05 Q212.61 1140.95 208.606 1140.95 Q206.731 1140.95 204.856 1141.36 Q203.004 1141.78 201.059 1142.66 L201.059 1125.3 Z" fill="#000000" fill-rule="evenodd" fill-opacity="1" /><path clip-path="url(#clip890)" d="M 0 0 M241.175 1128.38 Q237.564 1128.38 235.735 1131.94 Q233.93 1135.49 233.93 1142.61 Q233.93 1149.72 235.735 1153.29 Q237.564 1156.83 241.175 1156.83 Q244.809 1156.83 246.615 1153.29 Q248.443 1149.72 248.443 1142.61 Q248.443 1135.49 246.615 1131.94 Q244.809 1128.38 241.175 1128.38 M241.175 1124.68 Q246.985 1124.68 250.041 1129.28 Q253.119 1133.86 253.119 1142.61 Q253.119 1151.34 250.041 1155.95 Q246.985 1160.53 241.175 1160.53 Q235.365 1160.53 232.286 1155.95 Q229.231 1151.34 229.231 1142.61 Q229.231 1133.86 232.286 1129.28 Q235.365 1124.68 241.175 1124.68 Z" fill="#000000" fill-rule="evenodd" fill-opacity="1" /><path clip-path="url(#clip890)" d="M 0 0 M131.083 1037.61 L160.759 1037.61 L160.759 1041.54 L131.083 1041.54 L131.083 1037.61 Z" fill="#000000" fill-rule="evenodd" fill-opacity="1" /><path clip-path="url(#clip890)" d="M 0 0 M171.661 1050.5 L179.3 1050.5 L179.3 1024.13 L170.99 1025.8 L170.99 1021.54 L179.254 1019.87 L183.93 1019.87 L183.93 1050.5 L191.569 1050.5 L191.569 1054.43 L171.661 1054.43 L171.661 1050.5 Z" fill="#000000" fill-rule="evenodd" fill-opacity="1" /><path clip-path="url(#clip890)" d="M 0 0 M211.013 1022.95 Q207.402 1022.95 205.573 1026.52 Q203.768 1030.06 203.768 1037.19 Q203.768 1044.3 205.573 1047.86 Q207.402 1051.4 211.013 1051.4 Q214.647 1051.4 216.453 1047.86 Q218.282 1044.3 218.282 1037.19 Q218.282 1030.06 216.453 1026.52 Q214.647 1022.95 211.013 1022.95 M211.013 1019.25 Q216.823 1019.25 219.879 1023.86 Q222.957 1028.44 222.957 1037.19 Q222.957 1045.92 219.879 1050.52 Q216.823 1055.11 211.013 1055.11 Q205.203 1055.11 202.124 1050.52 Q199.069 1045.92 199.069 1037.19 Q199.069 1028.44 202.124 1023.86 Q205.203 1019.25 211.013 1019.25 Z" fill="#000000" fill-rule="evenodd" fill-opacity="1" /><path clip-path="url(#clip890)" d="M 0 0 M241.175 1022.95 Q237.564 1022.95 235.735 1026.52 Q233.93 1030.06 233.93 1037.19 Q233.93 1044.3 235.735 1047.86 Q237.564 1051.4 241.175 1051.4 Q244.809 1051.4 246.615 1047.86 Q248.443 1044.3 248.443 1037.19 Q248.443 1030.06 246.615 1026.52 Q244.809 1022.95 241.175 1022.95 M241.175 1019.25 Q246.985 1019.25 250.041 1023.86 Q253.119 1028.44 253.119 1037.19 Q253.119 1045.92 250.041 1050.52 Q246.985 1055.11 241.175 1055.11 Q235.365 1055.11 232.286 1050.52 Q229.231 1045.92 229.231 1037.19 Q229.231 1028.44 232.286 1023.86 Q235.365 1019.25 241.175 1019.25 Z" fill="#000000" fill-rule="evenodd" fill-opacity="1" /><path clip-path="url(#clip890)" d="M 0 0 M161.245 932.179 L190.921 932.179 L190.921 936.114 L161.245 936.114 L161.245 932.179 Z" fill="#000000" fill-rule="evenodd" fill-opacity="1" /><path clip-path="url(#clip890)" d="M 0 0 M201.059 914.448 L219.416 914.448 L219.416 918.383 L205.342 918.383 L205.342 926.855 Q206.36 926.508 207.379 926.346 Q208.397 926.161 209.416 926.161 Q215.203 926.161 218.583 929.332 Q221.962 932.503 221.962 937.92 Q221.962 943.499 218.49 946.6 Q215.018 949.679 208.698 949.679 Q206.522 949.679 204.254 949.309 Q202.009 948.938 199.601 948.198 L199.601 943.499 Q201.684 944.633 203.907 945.188 Q206.129 945.744 208.606 945.744 Q212.61 945.744 214.948 943.637 Q217.286 941.531 217.286 937.92 Q217.286 934.309 214.948 932.202 Q212.61 930.096 208.606 930.096 Q206.731 930.096 204.856 930.512 Q203.004 930.929 201.059 931.809 L201.059 914.448 Z" fill="#000000" fill-rule="evenodd" fill-opacity="1" /><path clip-path="url(#clip890)" d="M 0 0 M241.175 917.526 Q237.564 917.526 235.735 921.091 Q233.93 924.633 233.93 931.762 Q233.93 938.869 235.735 942.434 Q237.564 945.975 241.175 945.975 Q244.809 945.975 246.615 942.434 Q248.443 938.869 248.443 931.762 Q248.443 924.633 246.615 921.091 Q244.809 917.526 241.175 917.526 M241.175 913.823 Q246.985 913.823 250.041 918.429 Q253.119 923.013 253.119 931.762 Q253.119 940.489 250.041 945.096 Q246.985 949.679 241.175 949.679 Q235.365 949.679 232.286 945.096 Q229.231 940.489 229.231 931.762 Q229.231 923.013 232.286 918.429 Q235.365 913.823 241.175 913.823 Z" fill="#000000" fill-rule="evenodd" fill-opacity="1" /><path clip-path="url(#clip890)" d="M 0 0 M241.175 812.1 Q237.564 812.1 235.735 815.665 Q233.93 819.207 233.93 826.336 Q233.93 833.443 235.735 837.008 Q237.564 840.549 241.175 840.549 Q244.809 840.549 246.615 837.008 Q248.443 833.443 248.443 826.336 Q248.443 819.207 246.615 815.665 Q244.809 812.1 241.175 812.1 M241.175 808.397 Q246.985 808.397 250.041 813.003 Q253.119 817.586 253.119 826.336 Q253.119 835.063 250.041 839.67 Q246.985 844.253 241.175 844.253 Q235.365 844.253 232.286 839.67 Q229.231 835.063 229.231 826.336 Q229.231 817.586 232.286 813.003 Q235.365 808.397 241.175 808.397 Z" fill="#000000" fill-rule="evenodd" fill-opacity="1" /><path clip-path="url(#clip890)" d="M 0 0 M49.9215 1108.27 Q49.9215 1110.34 54.5366 1110.34 L76.371 1110.34 Q76.371 1107.32 73.0608 1104.29 Q70.1008 1101.59 63.003 1101.59 Q56.3827 1101.59 52.8179 1104.33 Q49.9215 1106.55 49.9215 1108.27 M44.9244 1108.27 Q44.9244 1103.82 49.1258 1099.77 Q53.6136 1095.41 63.003 1095.41 Q71.6285 1095.41 76.7529 1099.77 Q81.5909 1103.88 81.5909 1110.34 L94.3859 1110.34 L94.3859 1116.17 L81.6227 1116.17 Q81.6227 1122.5 76.7529 1126.76 Q71.7877 1131.09 63.0348 1131.09 Q53.9319 1131.09 49.2849 1126.76 Q45.8156 1123.52 44.9244 1118.23 L50.1124 1118.23 Q50.8445 1120.34 53.3271 1122.18 Q56.9874 1124.92 63.0348 1124.92 Q69.4642 1124.92 73.1245 1122.18 Q76.4028 1119.73 76.4028 1116.17 L54.5366 1116.17 Q44.9244 1116.17 44.9244 1108.27 Z" fill="#000000" fill-rule="evenodd" fill-opacity="1" /><polyline clip-path="url(#clip893)" style="stroke:#009af9; stroke-width:8; stroke-opacity:1; fill:none" points="
  347.524,832.458 367.189,832.975 386.854,833.536 406.519,834.144 426.184,834.803 445.849,835.516 465.514,836.289 485.179,837.127 504.844,838.033 524.508,839.015 
  544.173,840.077 563.838,841.227 583.503,842.471 603.168,843.815 622.833,845.269 642.498,846.839 662.163,848.534 681.828,850.362 701.493,852.332 721.158,854.453 
  740.823,856.735 760.487,859.185 780.152,861.812 799.817,864.625 819.482,867.63 839.147,870.832 858.812,874.236 878.477,877.844 898.142,881.655 917.807,885.666 
  937.472,889.87 957.137,894.258 976.802,898.814 996.466,903.521 1016.13,908.358 1035.8,913.3 1055.46,918.318 1075.13,923.384 1094.79,928.468 1114.46,933.538 
  1134.12,938.565 1153.79,943.523 1173.45,948.386 1193.12,953.134 1212.78,957.75 1232.45,962.221 1252.11,966.537 1271.78,970.695 1291.44,974.691 1311.11,978.529 
  1330.77,982.212 1350.44,985.748 1370.1,989.145 1389.76,992.415 1409.43,995.568 1429.09,998.618 1448.76,1001.58 1468.42,1004.46 1488.09,1007.29 1507.75,1010.07 
  1527.42,1012.82 1547.08,1015.55 1566.75,1018.29 1586.41,1021.05 1606.08,1023.85 1625.74,1026.7 1645.41,1029.62 1665.07,1032.63 1684.74,1035.75 1704.4,1039 
  1724.07,1042.4 1743.73,1045.98 1763.4,1049.75 1783.06,1053.74 1802.73,1057.98 1822.39,1062.5 1842.06,1067.31 1861.72,1072.47 1881.39,1077.99 1901.05,1083.92 
  1920.72,1090.29 1940.38,1097.15 1960.05,1104.54 1979.71,1112.5 1999.38,1121.1 2019.04,1130.39 2038.71,1140.42 2058.37,1151.27 2078.04,1163 2097.7,1175.7 
  2117.37,1189.43 2137.03,1204.31 2156.7,1220.41 2176.36,1237.85 2196.03,1256.75 2215.69,1277.22 2235.36,1299.39 2255.02,1323.42 2274.69,1349.47 2294.35,1377.69 
  
  "/>
<polyline clip-path="url(#clip893)" style="stroke:#ff0000; stroke-width:4; stroke-opacity:1; fill:none" points="
  347.524,1205.84 2138.97,1205.84 2138.97,1394.05 
  "/>
<path clip-path="url(#clip890)" d="M 0 0 M2178.67 1197.72 Q2178.67 1199.98 2177.44 1204.96 Q2176.21 1209.93 2174.72 1213.33 Q2171.53 1220.71 2166.02 1220.71 Q2165.35 1220.71 2164.67 1220.65 Q2164.03 1220.59 2163.06 1220.33 Q2162.1 1220.06 2161.31 1219.65 Q2160.52 1219.21 2159.73 1218.39 Q2158.96 1217.57 2158.53 1216.49 Q2156.1 1220.71 2152.29 1220.71 Q2148.6 1220.71 2146.17 1218.83 Q2143.77 1216.96 2143.77 1213.12 Q2143.77 1211.4 2144.47 1208.85 Q2145.17 1206.3 2147.14 1201.03 Q2148.22 1198.31 2148.22 1196.82 Q2148.22 1196.14 2148.07 1195.7 Q2147.93 1195.26 2147.63 1195.12 Q2147.37 1194.94 2147.2 1194.91 Q2147.02 1194.85 2146.73 1194.85 Q2144.97 1194.85 2143.39 1196.64 Q2141.81 1198.4 2140.67 1202.29 Q2140.43 1203.02 2140.29 1203.2 Q2140.14 1203.37 2139.7 1203.37 Q2138.97 1203.35 2138.97 1202.76 Q2138.97 1202.53 2139.23 1201.62 Q2139.49 1200.68 2140.11 1199.3 Q2140.75 1197.9 2141.63 1196.64 Q2142.51 1195.35 2143.89 1194.44 Q2145.29 1193.54 2146.9 1193.54 Q2149.07 1193.54 2150.44 1194.97 Q2151.82 1196.41 2151.82 1198.46 Q2151.82 1199.04 2151.67 1199.69 Q2151.53 1200.3 2151.38 1200.71 Q2151.26 1201.09 2150.8 1202.29 Q2148.86 1207.36 2148.25 1209.79 Q2147.66 1212.22 2147.66 1213.91 Q2147.66 1214.47 2147.69 1214.91 Q2147.72 1215.35 2147.96 1216.26 Q2148.22 1217.16 2148.69 1217.78 Q2149.16 1218.36 2150.12 1218.86 Q2151.12 1219.36 2152.47 1219.36 Q2155.83 1219.36 2158 1214.32 Q2157.94 1214.03 2157.94 1213.27 Q2157.94 1211.57 2158.47 1209.29 Q2158.61 1208.76 2159.46 1205.39 Q2160.31 1202 2161.04 1199.04 Q2161.8 1196.05 2161.89 1195.88 Q2162.19 1195.06 2162.83 1194.62 Q2163.47 1194.18 2164.12 1194.18 Q2164.85 1194.18 2165.35 1194.62 Q2165.85 1195.06 2165.85 1195.82 Q2165.85 1195.97 2165.67 1196.64 Q2165.52 1197.28 2165.29 1198.25 Q2165.05 1199.22 2164.94 1199.71 L2162.42 1209.79 Q2161.78 1212.13 2161.78 1214.15 Q2161.78 1216.7 2162.92 1218.04 Q2164.06 1219.36 2166.2 1219.36 Q2170.21 1219.36 2172.78 1214.09 Q2173.96 1211.81 2175.01 1208.23 Q2176.09 1204.66 2176.09 1203.11 Q2176.09 1200.18 2173.93 1198.02 Q2173.46 1197.61 2173.25 1197.28 Q2173.05 1196.93 2173.05 1196.41 Q2173.05 1195.41 2173.98 1194.47 Q2174.92 1193.54 2176.03 1193.54 Q2177.03 1193.54 2177.85 1194.53 Q2178.67 1195.5 2178.67 1197.72 Z" fill="#000000" fill-rule="evenodd" fill-opacity="1" /><path clip-path="url(#clip890)" d="M 0 0 M2200.85 1226.87 Q2201.01 1227.06 2201.01 1227.24 Q2201.01 1227.43 2200.6 1227.96 Q2200.22 1228.49 2199.38 1229.21 Q2198.53 1229.93 2197.45 1230.6 Q2196.36 1231.28 2194.76 1231.73 Q2193.17 1232.2 2191.48 1232.2 Q2188.35 1232.2 2186.5 1230.13 Q2184.68 1228.06 2184.68 1225.09 Q2184.68 1222.2 2186.3 1219.43 Q2187.92 1216.65 2190.54 1214.92 Q2193.17 1213.18 2195.93 1213.18 Q2198.12 1213.18 2199.5 1214.21 Q2200.87 1215.23 2200.87 1216.79 Q2200.87 1218 2200.17 1218.74 Q2199.48 1219.47 2198.53 1219.47 Q2197.88 1219.47 2197.43 1219.11 Q2196.98 1218.72 2196.98 1218 Q2196.98 1217.08 2197.74 1216.36 Q2198.02 1216.07 2198.35 1215.95 Q2198.7 1215.81 2198.9 1215.81 Q2199.11 1215.79 2199.58 1215.79 Q2199.15 1214.99 2198.12 1214.56 Q2197.12 1214.11 2195.97 1214.11 Q2194.27 1214.11 2192.65 1215.29 Q2191.03 1216.46 2190.05 1218.31 Q2189.07 1220.11 2188.43 1222.67 Q2187.8 1225.21 2187.8 1226.69 Q2187.8 1228.72 2188.74 1229.99 Q2189.68 1231.26 2191.57 1231.26 Q2191.94 1231.26 2192.32 1231.24 Q2192.73 1231.22 2193.76 1230.99 Q2194.8 1230.77 2195.73 1230.38 Q2196.65 1229.99 2197.82 1229.15 Q2199.01 1228.29 2199.95 1227.12 Q2200.28 1226.69 2200.5 1226.69 Q2200.69 1226.69 2200.85 1226.87 Z" fill="#000000" fill-rule="evenodd" fill-opacity="1" /><path clip-path="url(#clip890)" d="M 0 0 M2220.64 1220.27 Q2220.64 1222.51 2219.66 1224.72 Q2218.67 1226.91 2217.09 1228.55 Q2215.54 1230.17 2213.49 1231.2 Q2211.44 1232.2 2209.39 1232.2 Q2206.46 1232.2 2204.55 1230.21 Q2202.67 1228.21 2202.67 1225.09 Q2202.67 1222.18 2204.28 1219.41 Q2205.92 1216.63 2208.55 1214.9 Q2211.17 1213.18 2213.92 1213.18 Q2216.81 1213.18 2218.71 1215.13 Q2220.64 1217.08 2220.64 1220.27 M2217.57 1218.63 Q2217.57 1216.65 2216.6 1215.38 Q2215.64 1214.11 2213.88 1214.11 Q2213.36 1214.11 2212.77 1214.27 Q2212.18 1214.41 2211.4 1214.8 Q2210.64 1215.19 2209.78 1216.01 Q2208.94 1216.81 2208.2 1217.96 Q2207.24 1219.47 2206.5 1222.26 Q2205.78 1225.03 2205.78 1226.69 Q2205.78 1228.98 2206.85 1230.13 Q2207.91 1231.26 2209.43 1231.26 Q2210.9 1231.26 2212.46 1230.23 Q2214.04 1229.19 2215.13 1227.41 Q2216.21 1225.56 2216.89 1222.86 Q2217.57 1220.13 2217.57 1218.63 Z" fill="#000000" fill-rule="evenodd" fill-opacity="1" /><path clip-path="url(#clip890)" d="M 0 0 M2230.07 1219.07 Q2229.22 1218.1 2229.22 1216.84 Q2229.22 1215.58 2230.04 1214.65 Q2230.89 1213.68 2232.41 1213.68 Q2234.2 1213.68 2235.23 1215.41 Q2236.25 1217.11 2236.25 1219.97 Q2236.25 1223.08 2234.99 1225.95 Q2233.73 1228.85 2232.5 1230.22 Q2231.27 1231.6 2230.77 1231.6 Q2230.19 1231.6 2230.19 1230.95 Q2230.19 1230.72 2230.6 1230.28 Q2234.9 1225.65 2234.93 1219.97 Q2234.93 1219.07 2234.82 1219.07 L2234.67 1219.18 Q2233.64 1220.03 2232.41 1220.03 Q2230.92 1220.03 2230.07 1219.07 Z" fill="#000000" fill-rule="evenodd" fill-opacity="1" /><path clip-path="url(#clip890)" d="M 0 0 M2311.4 1204.19 Q2311.75 1204.55 2311.75 1205.04 Q2311.75 1205.54 2311.4 1205.89 Q2311.04 1206.24 2310.55 1206.24 L2273.01 1206.24 Q2272.51 1206.24 2272.16 1205.89 Q2271.81 1205.54 2271.81 1205.04 Q2271.81 1204.55 2272.16 1204.19 Q2272.51 1203.84 2273.01 1203.84 L2310.55 1203.84 Q2311.04 1203.84 2311.4 1204.19 Z" fill="#000000" fill-rule="evenodd" fill-opacity="1" /><path clip-path="url(#clip890)" d="M 0 0 M2334.65 1185.81 L2334.65 1183.93 Q2341.85 1183.93 2345.57 1180.1 Q2346.59 1180.1 2346.77 1180.33 Q2346.94 1180.57 2346.94 1181.65 L2346.94 1215.29 Q2346.94 1217.08 2347.82 1217.63 Q2348.7 1218.19 2352.53 1218.19 L2354.44 1218.19 L2354.44 1220.03 Q2352.33 1219.86 2344.72 1219.86 Q2337.1 1219.86 2335.03 1220.03 L2335.03 1218.19 L2336.93 1218.19 Q2340.71 1218.19 2341.61 1217.66 Q2342.52 1217.11 2342.52 1215.29 L2342.52 1184.23 Q2339.39 1185.81 2334.65 1185.81 Z" fill="#000000" fill-rule="evenodd" fill-opacity="1" /><path clip-path="url(#clip890)" d="M 0 0 M2359.97 1210.99 Q2359.97 1204.28 2368.6 1199.95 Q2364.88 1197.43 2364.21 1196.7 Q2361.58 1193.77 2361.58 1190.11 Q2361.58 1185.92 2364.74 1183.03 Q2367.93 1180.1 2372.44 1180.1 Q2376.74 1180.1 2379.99 1182.59 Q2383.24 1185.08 2383.24 1189.03 Q2383.24 1194.59 2375.98 1198.34 Q2380.78 1201.32 2381.92 1202.58 Q2384.85 1205.83 2384.85 1209.96 Q2384.85 1214.76 2381.16 1218.07 Q2377.47 1221.35 2372.38 1221.35 Q2367.4 1221.35 2363.68 1218.45 Q2359.97 1215.55 2359.97 1210.99 M2362.95 1210.99 Q2362.95 1214.7 2365.73 1217.19 Q2368.54 1219.68 2372.44 1219.68 Q2376.22 1219.68 2379.03 1217.52 Q2381.87 1215.35 2381.87 1212.13 Q2381.87 1210.87 2381.43 1209.79 Q2381.02 1208.7 2380.17 1207.85 Q2379.35 1206.98 2378.82 1206.59 Q2378.32 1206.18 2377.36 1205.51 L2369.98 1200.86 Q2362.95 1204.75 2362.95 1210.99 M2364.21 1187.77 Q2364.21 1190.64 2367.23 1192.63 L2374.66 1197.43 Q2380.61 1193.95 2380.61 1189.03 Q2380.61 1185.84 2378.18 1183.73 Q2375.75 1181.59 2372.38 1181.59 Q2369.07 1181.59 2366.64 1183.35 Q2364.21 1185.08 2364.21 1187.77 Z" fill="#000000" fill-rule="evenodd" fill-opacity="1" /><path clip-path="url(#clip890)" d="M 0 0 M2389.66 1200.86 Q2389.66 1192.04 2391.89 1187.24 Q2394.99 1180.1 2402.31 1180.1 Q2403.86 1180.1 2405.47 1180.54 Q2407.11 1180.95 2409.16 1182.56 Q2411.24 1184.17 2412.5 1186.8 Q2414.9 1191.9 2414.9 1200.86 Q2414.9 1209.61 2412.67 1214.38 Q2409.42 1221.35 2402.25 1221.35 Q2399.56 1221.35 2396.81 1219.97 Q2394.08 1218.6 2392.35 1215.29 Q2389.66 1210.34 2389.66 1200.86 M2394.64 1200.12 Q2394.64 1209.17 2395.28 1212.77 Q2396.01 1216.67 2398.01 1218.36 Q2400.03 1220.03 2402.25 1220.03 Q2404.65 1220.03 2406.64 1218.25 Q2408.66 1216.43 2409.28 1212.54 Q2409.95 1208.7 2409.92 1200.12 Q2409.92 1191.78 2409.34 1188.44 Q2408.55 1184.55 2406.44 1183 Q2404.36 1181.42 2402.25 1181.42 Q2401.46 1181.42 2400.61 1181.65 Q2399.79 1181.88 2398.59 1182.56 Q2397.39 1183.23 2396.45 1184.9 Q2395.55 1186.57 2395.11 1189.09 Q2394.64 1192.34 2394.64 1200.12 Z" fill="#000000" fill-rule="evenodd" fill-opacity="1" /><path clip-path="url(#clip890)" d="M 0 0 M2419.36 1185.75 Q2419.36 1183 2421.29 1181.04 Q2423.25 1179.07 2426 1179.07 Q2428.81 1179.07 2430.72 1181.06 Q2432.65 1183.03 2432.65 1185.66 Q2432.65 1188.41 2430.66 1190.37 Q2428.7 1192.34 2426 1192.34 Q2423.19 1192.34 2421.26 1190.37 Q2419.36 1188.38 2419.36 1185.75 M2423.02 1182.7 Q2421.76 1183.93 2421.76 1185.75 Q2421.76 1187.53 2423.02 1188.74 Q2424.28 1189.94 2426 1189.94 Q2427.73 1189.94 2428.96 1188.74 Q2430.19 1187.53 2430.19 1185.75 Q2430.19 1183.93 2428.93 1182.7 Q2427.67 1181.47 2426 1181.47 Q2424.28 1181.47 2423.02 1182.7 Z" fill="#000000" fill-rule="evenodd" fill-opacity="1" /></svg>