<?xml version="1.0" encoding="utf-8"?>
<svg xmlns="http://www.w3.org/2000/svg" xmlns:xlink="http://www.w3.org/1999/xlink" width="600" height="400" viewBox="0 0 2400 1600">
<defs>
  <clipPath id="clip960">
    <rect x="0" y="0" width="2400" height="1600"/>
  </clipPath>
</defs>
<path clip-path="url(#clip960)" d="
M0 1600 L2400 1600 L2400 0 L0 0  Z
  " fill="#ffffff" fill-rule="evenodd" fill-opacity="1"/>
<defs>
  <clipPath id="clip961">
    <rect x="480" y="0" width="1681" height="1600"/>
  </clipPath>
</defs>
<path clip-path="url(#clip960)" d="
M273.735 681.826 L2352.76 681.826 L2352.76 47.2441 L273.735 47.2441  Z
  " fill="#ffffff" fill-rule="evenodd" fill-opacity="1"/>
<defs>
  <clipPath id="clip962">
    <rect x="273" y="47" width="2080" height="636"/>
  </clipPath>
</defs>
<polyline clip-path="url(#clip960)" style="stroke:#000000; stroke-width:4; stroke-opacity:1; fill:none" points="
  273.735,681.826 2352.76,681.826 
  "/>
<polyline clip-path="url(#clip962)" style="stroke:#000000; stroke-width:2; stroke-opacity:0.1; fill:none" points="
  273.735,663.86 2352.76,663.86 
  "/>
<polyline clip-path="url(#clip962)" style="stroke:#000000; stroke-width:2; stroke-opacity:0.1; fill:none" points="
  273.735,514.194 2352.76,514.194 
  "/>
<polyline clip-path="url(#clip962)" style="stroke:#000000; stroke-width:2; stroke-opacity:0.1; fill:none" points="
  273.735,364.529 2352.76,364.529 
  "/>
<polyline clip-path="url(#clip962)" style="stroke:#000000; stroke-width:2; stroke-opacity:0.1; fill:none" points="
  273.735,214.863 2352.76,214.863 
  "/>
<polyline clip-path="url(#clip962)" style="stroke:#000000; stroke-width:2; stroke-opacity:0.1; fill:none" points="
  273.735,65.1975 2352.76,65.1975 
  "/>
<polyline clip-path="url(#clip960)" style="stroke:#000000; stroke-width:4; stroke-opacity:1; fill:none" points="
  273.735,681.826 273.735,47.2441 
  "/>
<polyline clip-path="url(#clip960)" style="stroke:#000000; stroke-width:4; stroke-opacity:1; fill:none" points="
  273.735,663.86 298.683,663.86 
  "/>
<polyline clip-path="url(#clip960)" style="stroke:#000000; stroke-width:4; stroke-opacity:1; fill:none" points="
  273.735,514.194 298.683,514.194 
  "/>
<polyline clip-path="url(#clip960)" style="stroke:#000000; stroke-width:4; stroke-opacity:1; fill:none" points="
  273.735,364.529 298.683,364.529 
  "/>
<polyline clip-path="url(#clip960)" style="stroke:#000000; stroke-width:4; stroke-opacity:1; fill:none" points="
  273.735,214.863 298.683,214.863 
  "/>
<polyline clip-path="url(#clip960)" style="stroke:#000000; stroke-width:4; stroke-opacity:1; fill:none" points="
  273.735,65.1975 298.683,65.1975 
  "/>
<polyline clip-path="url(#clip960)" style="stroke:#000000; stroke-width:4; stroke-opacity:1; fill:none" points="
  273.735,617.14 286.209,617.14 
  "/>
<polyline clip-path="url(#clip960)" style="stroke:#000000; stroke-width:4; stroke-opacity:1; fill:none" points="
  273.735,582.843 286.209,582.843 
  "/>
<polyline clip-path="url(#clip960)" style="stroke:#000000; stroke-width:4; stroke-opacity:1; fill:none" points="
  273.735,555.732 286.209,555.732 
  "/>
<polyline clip-path="url(#clip960)" style="stroke:#000000; stroke-width:4; stroke-opacity:1; fill:none" points="
  273.735,533.311 286.209,533.311 
  "/>
<polyline clip-path="url(#clip960)" style="stroke:#000000; stroke-width:4; stroke-opacity:1; fill:none" points="
  273.735,467.474 286.209,467.474 
  "/>
<polyline clip-path="url(#clip960)" style="stroke:#000000; stroke-width:4; stroke-opacity:1; fill:none" points="
  273.735,433.178 286.209,433.178 
  "/>
<polyline clip-path="url(#clip960)" style="stroke:#000000; stroke-width:4; stroke-opacity:1; fill:none" points="
  273.735,406.067 286.209,406.067 
  "/>
<polyline clip-path="url(#clip960)" style="stroke:#000000; stroke-width:4; stroke-opacity:1; fill:none" points="
  273.735,383.646 286.209,383.646 
  "/>
<polyline clip-path="url(#clip960)" style="stroke:#000000; stroke-width:4; stroke-opacity:1; fill:none" points="
  273.735,317.809 286.209,317.809 
  "/>
<polyline clip-path="url(#clip960)" style="stroke:#000000; stroke-width:4; stroke-opacity:1; fill:none" points="
  273.735,283.512 286.209,283.512 
  "/>
<polyline clip-path="url(#clip960)" style="stroke:#000000; stroke-width:4; stroke-opacity:1; fill:none" points="
  273.735,256.401 286.209,256.401 
  "/>
<polyline clip-path="url(#clip960)" style="stroke:#000000; stroke-width:4; stroke-opacity:1; fill:none" points="
  273.735,233.98 286.209,233.98 
  "/>
<polyline clip-path="url(#clip960)" style="stroke:#000000; stroke-width:4; stroke-opacity:1; fill:none" points="
  273.735,168.143 286.209,168.143 
  "/>
<polyline clip-path="url(#clip960)" style="stroke:#000000; stroke-width:4; stroke-opacity:1; fill:none" points="
  273.735,133.847 286.209,133.847 
  "/>
<polyline clip-path="url(#clip960)" style="stroke:#000000; stroke-width:4; stroke-opacity:1; fill:none" points="
  273.735,106.736 286.209,106.736 
  "/>
<polyline clip-path="url(#clip960)" style="stroke:#000000; stroke-width:4; stroke-opacity:1; fill:none" points="
  273.735,84.3145 286.209,84.3145 
  "/>
<path clip-path="url(#clip960)" d="M 0 0 M99.5469 683.652 L107.186 683.652 L107.186 657.287 L98.8756 658.953 L98.8756 654.694 L107.139 653.028 L111.815 653.028 L111.815 683.652 L119.454 683.652 L119.454 687.588 L99.5469 687.588 L99.5469 683.652 Z" fill="#000000" fill-rule="evenodd" fill-opacity="1" /><path clip-path="url(#clip960)" d="M 0 0 M138.899 656.106 Q135.287 656.106 133.459 659.671 Q131.653 663.213 131.653 670.342 Q131.653 677.449 133.459 681.013 Q135.287 684.555 138.899 684.555 Q142.533 684.555 144.338 681.013 Q146.167 677.449 146.167 670.342 Q146.167 663.213 144.338 659.671 Q142.533 656.106 138.899 656.106 M138.899 652.403 Q144.709 652.403 147.764 657.009 Q150.843 661.592 150.843 670.342 Q150.843 679.069 147.764 683.675 Q144.709 688.259 138.899 688.259 Q133.088 688.259 130.01 683.675 Q126.954 679.069 126.954 670.342 Q126.954 661.592 130.01 657.009 Q133.088 652.403 138.899 652.403 Z" fill="#000000" fill-rule="evenodd" fill-opacity="1" /><path clip-path="url(#clip960)" d="M 0 0 M150.843 646.504 L174.954 646.504 L174.954 649.701 L150.843 649.701 L150.843 646.504 Z" fill="#000000" fill-rule="evenodd" fill-opacity="1" /><path clip-path="url(#clip960)" d="M 0 0 M186.427 656.98 L199.687 656.98 L199.687 660.177 L181.857 660.177 L181.857 656.98 Q184.02 654.742 187.744 650.98 Q191.486 647.2 192.446 646.109 Q194.27 644.059 194.985 642.648 Q195.718 641.219 195.718 639.846 Q195.718 637.608 194.138 636.197 Q192.577 634.787 190.057 634.787 Q188.27 634.787 186.277 635.407 Q184.302 636.028 182.045 637.288 L182.045 633.451 Q184.34 632.53 186.333 632.059 Q188.327 631.589 189.982 631.589 Q194.345 631.589 196.941 633.771 Q199.536 635.953 199.536 639.601 Q199.536 641.332 198.878 642.893 Q198.238 644.435 196.527 646.541 Q196.057 647.087 193.537 649.701 Q191.016 652.297 186.427 656.98 Z" fill="#000000" fill-rule="evenodd" fill-opacity="1" /><path clip-path="url(#clip960)" d="M 0 0 M207.661 655.4 L211.63 655.4 L211.63 660.177 L207.661 660.177 L207.661 655.4 Z" fill="#000000" fill-rule="evenodd" fill-opacity="1" /><path clip-path="url(#clip960)" d="M 0 0 M228.03 634.599 Q225.096 634.599 223.61 637.495 Q222.143 640.373 222.143 646.165 Q222.143 651.939 223.61 654.836 Q225.096 657.713 228.03 657.713 Q230.983 657.713 232.45 654.836 Q233.936 651.939 233.936 646.165 Q233.936 640.373 232.45 637.495 Q230.983 634.599 228.03 634.599 M228.03 631.589 Q232.751 631.589 235.233 635.332 Q237.735 639.056 237.735 646.165 Q237.735 653.256 235.233 656.999 Q232.751 660.723 228.03 660.723 Q223.309 660.723 220.808 656.999 Q218.325 653.256 218.325 646.165 Q218.325 639.056 220.808 635.332 Q223.309 631.589 228.03 631.589 Z" fill="#000000" fill-rule="evenodd" fill-opacity="1" /><path clip-path="url(#clip960)" d="M 0 0 M100.356 533.987 L107.994 533.987 L107.994 507.621 L99.6843 509.288 L99.6843 505.029 L107.948 503.362 L112.624 503.362 L112.624 533.987 L120.263 533.987 L120.263 537.922 L100.356 537.922 L100.356 533.987 Z" fill="#000000" fill-rule="evenodd" fill-opacity="1" /><path clip-path="url(#clip960)" d="M 0 0 M139.707 506.441 Q136.096 506.441 134.267 510.005 Q132.462 513.547 132.462 520.677 Q132.462 527.783 134.267 531.348 Q136.096 534.89 139.707 534.89 Q143.341 534.89 145.147 531.348 Q146.976 527.783 146.976 520.677 Q146.976 513.547 145.147 510.005 Q143.341 506.441 139.707 506.441 M139.707 502.737 Q145.517 502.737 148.573 507.343 Q151.652 511.927 151.652 520.677 Q151.652 529.403 148.573 534.01 Q145.517 538.593 139.707 538.593 Q133.897 538.593 130.818 534.01 Q127.763 529.403 127.763 520.677 Q127.763 511.927 130.818 507.343 Q133.897 502.737 139.707 502.737 Z" fill="#000000" fill-rule="evenodd" fill-opacity="1" /><path clip-path="url(#clip960)" d="M 0 0 M151.652 496.838 L175.763 496.838 L175.763 500.036 L151.652 500.036 L151.652 496.838 Z" fill="#000000" fill-rule="evenodd" fill-opacity="1" /><path clip-path="url(#clip960)" d="M 0 0 M184.622 507.314 L190.828 507.314 L190.828 485.892 L184.076 487.246 L184.076 483.786 L190.791 482.431 L194.59 482.431 L194.59 507.314 L200.796 507.314 L200.796 510.511 L184.622 510.511 L184.622 507.314 Z" fill="#000000" fill-rule="evenodd" fill-opacity="1" /><path clip-path="url(#clip960)" d="M 0 0 M208.47 505.734 L212.438 505.734 L212.438 510.511 L208.47 510.511 L208.47 505.734 Z" fill="#000000" fill-rule="evenodd" fill-opacity="1" /><path clip-path="url(#clip960)" d="M 0 0 M220.751 482.431 L235.666 482.431 L235.666 485.629 L224.231 485.629 L224.231 492.512 Q225.058 492.23 225.886 492.099 Q226.713 491.948 227.541 491.948 Q232.243 491.948 234.989 494.525 Q237.735 497.102 237.735 501.503 Q237.735 506.035 234.914 508.555 Q232.092 511.057 226.958 511.057 Q225.19 511.057 223.347 510.756 Q221.522 510.455 219.566 509.853 L219.566 506.035 Q221.259 506.957 223.065 507.408 Q224.87 507.86 226.883 507.86 Q230.136 507.86 232.036 506.148 Q233.936 504.437 233.936 501.503 Q233.936 498.569 232.036 496.857 Q230.136 495.146 226.883 495.146 Q225.359 495.146 223.836 495.484 Q222.331 495.823 220.751 496.537 L220.751 482.431 Z" fill="#000000" fill-rule="evenodd" fill-opacity="1" /><path clip-path="url(#clip960)" d="M 0 0 M99.5469 384.321 L107.186 384.321 L107.186 357.956 L98.8756 359.622 L98.8756 355.363 L107.139 353.696 L111.815 353.696 L111.815 384.321 L119.454 384.321 L119.454 388.256 L99.5469 388.256 L99.5469 384.321 Z" fill="#000000" fill-rule="evenodd" fill-opacity="1" /><path clip-path="url(#clip960)" d="M 0 0 M138.899 356.775 Q135.287 356.775 133.459 360.34 Q131.653 363.881 131.653 371.011 Q131.653 378.117 133.459 381.682 Q135.287 385.224 138.899 385.224 Q142.533 385.224 144.338 381.682 Q146.167 378.117 146.167 371.011 Q146.167 363.881 144.338 360.34 Q142.533 356.775 138.899 356.775 M138.899 353.071 Q144.709 353.071 147.764 357.678 Q150.843 362.261 150.843 371.011 Q150.843 379.738 147.764 384.344 Q144.709 388.928 138.899 388.928 Q133.088 388.928 130.01 384.344 Q126.954 379.738 126.954 371.011 Q126.954 362.261 130.01 357.678 Q133.088 353.071 138.899 353.071 Z" fill="#000000" fill-rule="evenodd" fill-opacity="1" /><path clip-path="url(#clip960)" d="M 0 0 M150.843 347.173 L174.954 347.173 L174.954 350.37 L150.843 350.37 L150.843 347.173 Z" fill="#000000" fill-rule="evenodd" fill-opacity="1" /><path clip-path="url(#clip960)" d="M 0 0 M183.813 357.649 L190.019 357.649 L190.019 336.227 L183.267 337.581 L183.267 334.12 L189.982 332.766 L193.781 332.766 L193.781 357.649 L199.988 357.649 L199.988 360.846 L183.813 360.846 L183.813 357.649 Z" fill="#000000" fill-rule="evenodd" fill-opacity="1" /><path clip-path="url(#clip960)" d="M 0 0 M207.661 356.069 L211.63 356.069 L211.63 360.846 L207.661 360.846 L207.661 356.069 Z" fill="#000000" fill-rule="evenodd" fill-opacity="1" /><path clip-path="url(#clip960)" d="M 0 0 M228.03 335.267 Q225.096 335.267 223.61 338.164 Q222.143 341.041 222.143 346.834 Q222.143 352.608 223.61 355.504 Q225.096 358.382 228.03 358.382 Q230.983 358.382 232.45 355.504 Q233.936 352.608 233.936 346.834 Q233.936 341.041 232.45 338.164 Q230.983 335.267 228.03 335.267 M228.03 332.258 Q232.751 332.258 235.233 336.001 Q237.735 339.725 237.735 346.834 Q237.735 353.925 235.233 357.667 Q232.751 361.391 228.03 361.391 Q223.309 361.391 220.808 357.667 Q218.325 353.925 218.325 346.834 Q218.325 339.725 220.808 336.001 Q223.309 332.258 228.03 332.258 Z" fill="#000000" fill-rule="evenodd" fill-opacity="1" /><path clip-path="url(#clip960)" d="M 0 0 M100.356 234.656 L107.994 234.656 L107.994 208.29 L99.6843 209.957 L99.6843 205.697 L107.948 204.031 L112.624 204.031 L112.624 234.656 L120.263 234.656 L120.263 238.591 L100.356 238.591 L100.356 234.656 Z" fill="#000000" fill-rule="evenodd" fill-opacity="1" /><path clip-path="url(#clip960)" d="M 0 0 M139.707 207.109 Q136.096 207.109 134.267 210.674 Q132.462 214.216 132.462 221.345 Q132.462 228.452 134.267 232.017 Q136.096 235.558 139.707 235.558 Q143.341 235.558 145.147 232.017 Q146.976 228.452 146.976 221.345 Q146.976 214.216 145.147 210.674 Q143.341 207.109 139.707 207.109 M139.707 203.406 Q145.517 203.406 148.573 208.012 Q151.652 212.595 151.652 221.345 Q151.652 230.072 148.573 234.679 Q145.517 239.262 139.707 239.262 Q133.897 239.262 130.818 234.679 Q127.763 230.072 127.763 221.345 Q127.763 212.595 130.818 208.012 Q133.897 203.406 139.707 203.406 Z" fill="#000000" fill-rule="evenodd" fill-opacity="1" /><path clip-path="url(#clip960)" d="M 0 0 M151.652 197.507 L175.763 197.507 L175.763 200.704 L151.652 200.704 L151.652 197.507 Z" fill="#000000" fill-rule="evenodd" fill-opacity="1" /><path clip-path="url(#clip960)" d="M 0 0 M192.088 185.602 Q189.154 185.602 187.669 188.498 Q186.201 191.376 186.201 197.168 Q186.201 202.942 187.669 205.839 Q189.154 208.716 192.088 208.716 Q195.041 208.716 196.508 205.839 Q197.994 202.942 197.994 197.168 Q197.994 191.376 196.508 188.498 Q195.041 185.602 192.088 185.602 M192.088 182.592 Q196.809 182.592 199.292 186.335 Q201.793 190.059 201.793 197.168 Q201.793 204.259 199.292 208.002 Q196.809 211.726 192.088 211.726 Q187.368 211.726 184.866 208.002 Q182.384 204.259 182.384 197.168 Q182.384 190.059 184.866 186.335 Q187.368 182.592 192.088 182.592 Z" fill="#000000" fill-rule="evenodd" fill-opacity="1" /><path clip-path="url(#clip960)" d="M 0 0 M208.47 206.403 L212.438 206.403 L212.438 211.18 L208.47 211.18 L208.47 206.403 Z" fill="#000000" fill-rule="evenodd" fill-opacity="1" /><path clip-path="url(#clip960)" d="M 0 0 M220.751 183.1 L235.666 183.1 L235.666 186.298 L224.231 186.298 L224.231 193.181 Q225.058 192.899 225.886 192.767 Q226.713 192.617 227.541 192.617 Q232.243 192.617 234.989 195.194 Q237.735 197.77 237.735 202.171 Q237.735 206.704 234.914 209.224 Q232.092 211.726 226.958 211.726 Q225.19 211.726 223.347 211.425 Q221.522 211.124 219.566 210.522 L219.566 206.704 Q221.259 207.626 223.065 208.077 Q224.87 208.528 226.883 208.528 Q230.136 208.528 232.036 206.817 Q233.936 205.105 233.936 202.171 Q233.936 199.237 232.036 197.526 Q230.136 195.814 226.883 195.814 Q225.359 195.814 223.836 196.153 Q222.331 196.491 220.751 197.206 L220.751 183.1 Z" fill="#000000" fill-rule="evenodd" fill-opacity="1" /><path clip-path="url(#clip960)" d="M 0 0 M130.279 84.9899 L137.918 84.9899 L137.918 58.6243 L129.607 60.291 L129.607 56.0317 L137.871 54.3651 L142.547 54.3651 L142.547 84.9899 L150.186 84.9899 L150.186 88.9251 L130.279 88.9251 L130.279 84.9899 Z" fill="#000000" fill-rule="evenodd" fill-opacity="1" /><path clip-path="url(#clip960)" d="M 0 0 M169.63 57.4438 Q166.019 57.4438 164.191 61.0086 Q162.385 64.5502 162.385 71.6798 Q162.385 78.7862 164.191 82.351 Q166.019 85.8927 169.63 85.8927 Q173.265 85.8927 175.07 82.351 Q176.899 78.7862 176.899 71.6798 Q176.899 64.5502 175.07 61.0086 Q173.265 57.4438 169.63 57.4438 M169.63 53.7401 Q175.441 53.7401 178.496 58.3465 Q181.575 62.9298 181.575 71.6798 Q181.575 80.4066 178.496 85.0131 Q175.441 89.5964 169.63 89.5964 Q163.82 89.5964 160.742 85.0131 Q157.686 80.4066 157.686 71.6798 Q157.686 62.9298 160.742 58.3465 Q163.82 53.7401 169.63 53.7401 Z" fill="#000000" fill-rule="evenodd" fill-opacity="1" /><path clip-path="url(#clip960)" d="M 0 0 M191.28 35.9361 Q188.346 35.9361 186.86 38.8325 Q185.393 41.7101 185.393 47.5029 Q185.393 53.2769 186.86 56.1733 Q188.346 59.0509 191.28 59.0509 Q194.232 59.0509 195.699 56.1733 Q197.185 53.2769 197.185 47.5029 Q197.185 41.7101 195.699 38.8325 Q194.232 35.9361 191.28 35.9361 M191.28 32.9269 Q196 32.9269 198.483 36.6696 Q200.984 40.3935 200.984 47.5029 Q200.984 54.5934 198.483 58.3362 Q196 62.0601 191.28 62.0601 Q186.559 62.0601 184.057 58.3362 Q181.575 54.5934 181.575 47.5029 Q181.575 40.3935 184.057 36.6696 Q186.559 32.9269 191.28 32.9269 Z" fill="#000000" fill-rule="evenodd" fill-opacity="1" /><path clip-path="url(#clip960)" d="M 0 0 M207.661 56.7375 L211.63 56.7375 L211.63 61.5147 L207.661 61.5147 L207.661 56.7375 Z" fill="#000000" fill-rule="evenodd" fill-opacity="1" /><path clip-path="url(#clip960)" d="M 0 0 M228.03 35.9361 Q225.096 35.9361 223.61 38.8325 Q222.143 41.7101 222.143 47.5029 Q222.143 53.2769 223.61 56.1733 Q225.096 59.0509 228.03 59.0509 Q230.983 59.0509 232.45 56.1733 Q233.936 53.2769 233.936 47.5029 Q233.936 41.7101 232.45 38.8325 Q230.983 35.9361 228.03 35.9361 M228.03 32.9269 Q232.751 32.9269 235.233 36.6696 Q237.735 40.3935 237.735 47.5029 Q237.735 54.5934 235.233 58.3362 Q232.751 62.0601 228.03 62.0601 Q223.309 62.0601 220.808 58.3362 Q218.325 54.5934 218.325 47.5029 Q218.325 40.3935 220.808 36.6696 Q223.309 32.9269 228.03 32.9269 Z" fill="#000000" fill-rule="evenodd" fill-opacity="1" /><path clip-path="url(#clip960)" d="M 0 0 M29.7691 373.915 Q28.7064 373.915 27.8368 374.205 Q26.935 374.463 26.3231 374.881 Q25.679 375.268 25.1959 376.009 Q24.6806 376.749 24.3586 377.361 Q24.0365 377.973 23.8433 379.004 Q23.6178 380.034 23.5212 380.711 Q23.3924 381.387 23.328 382.546 Q23.2636 383.706 23.2636 384.286 Q23.2636 384.833 23.2636 385.928 Q23.2636 389.374 23.328 389.954 Q23.4568 390.823 23.9721 391.145 Q24.4552 391.467 25.7756 391.79 L42.9735 396.073 L42.9735 388.698 Q42.9735 384.672 41.8463 381.902 Q40.7191 379.133 39.1411 377.555 Q37.4019 375.815 34.6 374.881 Q31.7981 373.915 29.7691 373.915 M60.1393 366.733 Q60.4935 366.733 61.2987 367.023 Q62.1038 367.281 63.231 367.925 Q64.326 368.569 65.3244 369.439 Q66.3228 370.308 66.9991 371.693 Q67.7077 373.078 67.7077 374.656 Q67.7077 375.043 67.6754 375.429 Q67.6754 375.815 67.5144 376.782 Q67.3856 377.716 67.1279 378.489 Q66.9025 379.261 66.355 380.228 Q65.8397 381.194 65.1312 381.87 Q64.3904 382.514 63.231 382.965 Q62.0394 383.416 60.5902 383.416 Q59.3019 383.416 54.9863 382.353 Q51.3149 381.419 50.4131 381.419 Q49.4147 381.419 48.4808 381.741 Q47.5468 382.031 46.5806 382.772 Q45.6144 383.48 45.0347 384.994 Q44.4228 386.508 44.4228 388.633 L44.4228 396.459 L61.9106 400.839 Q61.9428 400.839 62.3937 400.936 Q62.8124 401.033 63.0378 401.033 Q63.4565 401.033 63.7141 400.775 Q63.9718 400.485 64.1006 399.777 Q64.1972 399.068 64.2294 398.521 Q64.2294 397.941 64.2294 396.749 Q64.2294 395.268 64.4871 395.01 Q64.6481 394.881 64.9379 394.881 Q65.3888 394.881 65.7109 395.01 Q66.0007 395.107 66.0974 395.364 Q66.194 395.59 66.2262 395.751 Q66.2584 395.912 66.2584 396.202 L66.0652 404.575 L66.2584 412.884 Q66.2584 413.818 65.5177 413.818 Q64.8735 413.818 64.6159 413.593 Q64.326 413.367 64.2938 413.078 Q64.2294 412.788 64.2294 412.047 Q64.2294 410.437 64.1328 409.471 Q64.0362 408.504 63.9074 407.892 Q63.7463 407.248 63.2954 406.926 Q62.8446 406.572 62.4581 406.411 Q62.0394 406.25 61.1054 406.025 L25.679 397.2 Q24.6162 396.942 24.4552 396.942 Q23.8433 396.942 23.6822 397.329 Q23.489 397.683 23.3924 398.714 L23.2636 401.226 Q23.2636 401.999 23.2314 402.321 Q23.1992 402.611 23.0381 402.836 Q22.8771 403.062 22.5228 403.062 Q21.6211 403.062 21.4278 402.675 Q21.2024 402.289 21.2024 401.161 L21.2024 382.353 Q21.2024 375.944 24.0043 371.886 Q26.8062 367.796 31.0896 367.796 Q33.0219 367.796 34.8255 368.666 Q36.629 369.535 38.0461 370.985 Q39.4631 372.402 40.6547 374.302 Q41.8141 376.202 42.6193 378.231 Q43.3922 380.228 43.8431 382.289 Q44.1652 381.387 44.6483 380.55 Q45.1313 379.68 46.0331 378.585 Q46.9349 377.458 48.3841 376.782 Q49.8334 376.105 51.6047 376.105 Q52.8607 376.105 54.7287 376.363 Q60.0427 377.007 62.2327 377.007 Q64.326 377.007 65.2922 376.46 Q66.2584 375.912 66.2584 374.366 Q66.2584 372.853 64.9057 371.178 Q63.5209 369.471 60.2681 368.376 Q59.3341 368.118 59.3341 367.506 Q59.3341 367.474 59.3341 367.442 Q59.3341 367.378 59.3985 367.249 Q59.4307 367.12 59.5274 367.023 Q59.5918 366.894 59.7528 366.83 Q59.9138 366.733 60.1393 366.733 Z" fill="#000000" fill-rule="evenodd" fill-opacity="1" /><path clip-path="url(#clip960)" d="M 0 0 M64.9379 318.999 Q65.5499 318.999 65.8719 319.257 Q66.1618 319.482 66.2262 319.707 Q66.2584 319.901 66.2584 320.19 Q66.2584 321.028 66.1618 323.926 Q66.0652 326.825 66.0652 327.662 Q66.0652 329.015 66.1618 331.785 Q66.2584 334.554 66.2584 335.907 Q66.2584 336.809 65.5177 336.809 Q65.0346 336.809 64.7769 336.712 Q64.4871 336.615 64.3904 336.358 Q64.2616 336.068 64.2616 335.907 Q64.2294 335.714 64.2294 335.231 Q64.2294 334.586 64.165 333.91 Q64.0684 333.234 63.8752 332.397 Q63.6819 331.559 63.1988 331.044 Q62.7157 330.496 62.0394 330.496 Q61.7496 330.496 59.3663 330.722 Q56.9831 330.947 54.2134 331.237 Q51.4115 331.527 51.025 331.559 L51.025 348.113 Q53.6337 349.627 55.4372 350.689 Q57.2407 351.752 57.8527 352.139 Q58.4646 352.525 58.851 352.751 Q59.2375 352.976 59.4629 353.105 Q61.1699 354.039 61.9106 354.039 Q63.9718 354.039 64.2294 350.947 Q64.2294 349.884 65.0024 349.884 Q65.5821 349.884 65.9041 350.142 Q66.194 350.4 66.2262 350.625 Q66.2584 350.818 66.2584 351.14 Q66.2584 352.203 66.1618 354.425 Q66.0652 356.648 66.0652 357.743 Q66.0652 358.676 66.1618 360.609 Q66.2584 362.541 66.2584 363.411 Q66.2584 363.797 66.0329 364.023 Q65.8075 364.248 65.5177 364.248 Q65.0668 364.248 64.8091 364.184 Q64.5515 364.087 64.4227 363.829 Q64.2938 363.572 64.2938 363.443 Q64.2616 363.314 64.2294 362.863 Q64.0684 360.416 62.909 358.515 Q61.7174 356.583 58.6578 354.747 L20.1396 331.817 Q19.7531 331.591 19.5599 331.43 Q19.3667 331.269 19.2056 330.947 Q19.0446 330.593 19.0446 330.078 Q19.0446 329.273 19.3022 329.112 Q19.5277 328.95 20.6227 328.854 L61.8462 324.828 Q62.7157 324.732 63.07 324.667 Q63.3921 324.57 63.7463 324.152 Q64.0684 323.701 64.165 322.896 Q64.2294 322.058 64.2294 320.513 Q64.2294 319.933 64.2616 319.707 Q64.2616 319.482 64.4227 319.257 Q64.5837 318.999 64.9379 318.999 M48.9638 331.752 L27.2249 333.846 L48.9638 346.857 L48.9638 331.752 Z" fill="#000000" fill-rule="evenodd" fill-opacity="1" /><polyline clip-path="url(#clip962)" style="stroke:#009af9; stroke-width:8; stroke-opacity:1; fill:none" points="
  332.575,65.204 352.387,65.2053 372.198,65.2069 392.01,65.2088 411.821,65.2111 431.633,65.2139 451.444,65.2173 471.256,65.2214 491.067,65.2263 510.879,65.2321 
  530.69,65.2392 550.502,65.2478 570.313,65.2581 590.125,65.2704 609.936,65.2854 629.748,65.3033 649.559,65.3249 669.371,65.351 689.182,65.3823 708.994,65.4201 
  728.805,65.4655 748.617,65.5202 768.428,65.586 788.24,65.6651 808.052,65.7604 827.863,65.8749 847.675,66.0125 867.486,66.178 887.298,66.3767 907.109,66.6152 
  926.921,66.9014 946.732,67.2444 966.544,67.6552 986.355,68.1465 1006.17,68.7335 1025.98,69.4335 1045.79,70.2668 1065.6,71.2565 1085.41,72.429 1105.22,73.8137 
  1125.04,75.4434 1144.85,77.3536 1164.66,79.5823 1184.47,82.1691 1204.28,85.1541 1224.09,88.5765 1243.91,92.4731 1263.72,96.876 1283.53,101.812 1303.34,107.298 
  1323.15,113.345 1342.96,119.953 1362.77,127.111 1382.59,134.803 1402.4,143 1422.21,151.672 1442.02,160.781 1461.83,170.289 1481.64,180.154 1501.45,190.338 
  1521.27,200.803 1541.08,211.512 1560.89,222.434 1580.7,233.538 1600.51,244.799 1620.32,256.193 1640.14,267.701 1659.95,279.304 1679.76,290.987 1699.57,302.738 
  1719.38,314.546 1739.19,326.402 1759,338.297 1778.82,350.226 1798.63,362.183 1818.44,374.162 1838.25,386.161 1858.06,398.176 1877.87,410.205 1897.69,422.244 
  1917.5,434.293 1937.31,446.349 1957.12,458.412 1976.93,470.48 1996.74,482.553 2016.55,494.629 2036.37,506.708 2056.18,518.79 2075.99,530.874 2095.8,542.96 
  2115.61,555.047 2135.42,567.135 2155.24,579.224 2175.05,591.315 2194.86,603.405 2214.67,615.497 2234.48,627.589 2254.29,639.681 2274.1,651.774 2293.92,663.866 
  
  "/>
<path clip-path="url(#clip960)" d="
M273.735 1410.9 L2352.76 1410.9 L2352.76 776.314 L273.735 776.314  Z
  " fill="#ffffff" fill-rule="evenodd" fill-opacity="1"/>
<defs>
  <clipPath id="clip963">
    <rect x="273" y="776" width="2080" height="636"/>
  </clipPath>
</defs>
<polyline clip-path="url(#clip963)" style="stroke:#000000; stroke-width:2; stroke-opacity:0.1; fill:none" points="
  332.575,1410.9 332.575,776.314 
  "/>
<polyline clip-path="url(#clip963)" style="stroke:#000000; stroke-width:2; stroke-opacity:0.1; fill:none" points="
  822.91,1410.9 822.91,776.314 
  "/>
<polyline clip-path="url(#clip963)" style="stroke:#000000; stroke-width:2; stroke-opacity:0.1; fill:none" points="
  1313.25,1410.9 1313.25,776.314 
  "/>
<polyline clip-path="url(#clip963)" style="stroke:#000000; stroke-width:2; stroke-opacity:0.1; fill:none" points="
  1803.58,1410.9 1803.58,776.314 
  "/>
<polyline clip-path="url(#clip963)" style="stroke:#000000; stroke-width:2; stroke-opacity:0.1; fill:none" points="
  2293.92,1410.9 2293.92,776.314 
  "/>
<polyline clip-path="url(#clip960)" style="stroke:#000000; stroke-width:4; stroke-opacity:1; fill:none" points="
  273.735,1410.9 2352.76,1410.9 
  "/>
<polyline clip-path="url(#clip960)" style="stroke:#000000; stroke-width:4; stroke-opacity:1; fill:none" points="
  332.575,1410.9 332.575,1403.28 
  "/>
<polyline clip-path="url(#clip960)" style="stroke:#000000; stroke-width:4; stroke-opacity:1; fill:none" points="
  822.91,1410.9 822.91,1403.28 
  "/>
<polyline clip-path="url(#clip960)" style="stroke:#000000; stroke-width:4; stroke-opacity:1; fill:none" points="
  1313.25,1410.9 1313.25,1403.28 
  "/>
<polyline clip-path="url(#clip960)" style="stroke:#000000; stroke-width:4; stroke-opacity:1; fill:none" points="
  1803.58,1410.9 1803.58,1403.28 
  "/>
<polyline clip-path="url(#clip960)" style="stroke:#000000; stroke-width:4; stroke-opacity:1; fill:none" points="
  2293.92,1410.9 2293.92,1403.28 
  "/>
<polyline clip-path="url(#clip960)" style="stroke:#000000; stroke-width:4; stroke-opacity:1; fill:none" points="
  290.315,1410.9 290.315,1407.09 
  "/>
<polyline clip-path="url(#clip960)" style="stroke:#000000; stroke-width:4; stroke-opacity:1; fill:none" points="
  551.832,1410.9 551.832,1407.09 
  "/>
<polyline clip-path="url(#clip960)" style="stroke:#000000; stroke-width:4; stroke-opacity:1; fill:none" points="
  657.548,1410.9 657.548,1407.09 
  "/>
<polyline clip-path="url(#clip960)" style="stroke:#000000; stroke-width:4; stroke-opacity:1; fill:none" points="
  727.873,1410.9 727.873,1407.09 
  "/>
<polyline clip-path="url(#clip960)" style="stroke:#000000; stroke-width:4; stroke-opacity:1; fill:none" points="
  780.65,1410.9 780.65,1407.09 
  "/>
<polyline clip-path="url(#clip960)" style="stroke:#000000; stroke-width:4; stroke-opacity:1; fill:none" points="
  1042.17,1410.9 1042.17,1407.09 
  "/>
<polyline clip-path="url(#clip960)" style="stroke:#000000; stroke-width:4; stroke-opacity:1; fill:none" points="
  1147.88,1410.9 1147.88,1407.09 
  "/>
<polyline clip-path="url(#clip960)" style="stroke:#000000; stroke-width:4; stroke-opacity:1; fill:none" points="
  1218.21,1410.9 1218.21,1407.09 
  "/>
<polyline clip-path="url(#clip960)" style="stroke:#000000; stroke-width:4; stroke-opacity:1; fill:none" points="
  1270.99,1410.9 1270.99,1407.09 
  "/>
<polyline clip-path="url(#clip960)" style="stroke:#000000; stroke-width:4; stroke-opacity:1; fill:none" points="
  1532.5,1410.9 1532.5,1407.09 
  "/>
<polyline clip-path="url(#clip960)" style="stroke:#000000; stroke-width:4; stroke-opacity:1; fill:none" points="
  1638.22,1410.9 1638.22,1407.09 
  "/>
<polyline clip-path="url(#clip960)" style="stroke:#000000; stroke-width:4; stroke-opacity:1; fill:none" points="
  1708.54,1410.9 1708.54,1407.09 
  "/>
<polyline clip-path="url(#clip960)" style="stroke:#000000; stroke-width:4; stroke-opacity:1; fill:none" points="
  1761.32,1410.9 1761.32,1407.09 
  "/>
<polyline clip-path="url(#clip960)" style="stroke:#000000; stroke-width:4; stroke-opacity:1; fill:none" points="
  2022.84,1410.9 2022.84,1407.09 
  "/>
<polyline clip-path="url(#clip960)" style="stroke:#000000; stroke-width:4; stroke-opacity:1; fill:none" points="
  2128.55,1410.9 2128.55,1407.09 
  "/>
<polyline clip-path="url(#clip960)" style="stroke:#000000; stroke-width:4; stroke-opacity:1; fill:none" points="
  2198.88,1410.9 2198.88,1407.09 
  "/>
<polyline clip-path="url(#clip960)" style="stroke:#000000; stroke-width:4; stroke-opacity:1; fill:none" points="
  2251.66,1410.9 2251.66,1407.09 
  "/>
<path clip-path="url(#clip960)" d="M 0 0 M282.841 1489.17 L290.48 1489.17 L290.48 1462.8 L282.169 1464.47 L282.169 1460.21 L290.433 1458.54 L295.109 1458.54 L295.109 1489.17 L302.748 1489.17 L302.748 1493.1 L282.841 1493.1 L282.841 1489.17 Z" fill="#000000" fill-rule="evenodd" fill-opacity="1" /><path clip-path="url(#clip960)" d="M 0 0 M322.192 1461.62 Q318.581 1461.62 316.753 1465.19 Q314.947 1468.73 314.947 1475.86 Q314.947 1482.97 316.753 1486.53 Q318.581 1490.07 322.192 1490.07 Q325.827 1490.07 327.632 1486.53 Q329.461 1482.97 329.461 1475.86 Q329.461 1468.73 327.632 1465.19 Q325.827 1461.62 322.192 1461.62 M322.192 1457.92 Q328.003 1457.92 331.058 1462.53 Q334.137 1467.11 334.137 1475.86 Q334.137 1484.59 331.058 1489.19 Q328.003 1493.78 322.192 1493.78 Q316.382 1493.78 313.304 1489.19 Q310.248 1484.59 310.248 1475.86 Q310.248 1467.11 313.304 1462.53 Q316.382 1457.92 322.192 1457.92 Z" fill="#000000" fill-rule="evenodd" fill-opacity="1" /><path clip-path="url(#clip960)" d="M 0 0 M334.137 1452.02 L358.248 1452.02 L358.248 1455.22 L334.137 1455.22 L334.137 1452.02 Z" fill="#000000" fill-rule="evenodd" fill-opacity="1" /><path clip-path="url(#clip960)" d="M 0 0 M369.721 1462.5 L382.981 1462.5 L382.981 1465.69 L365.151 1465.69 L365.151 1462.5 Q367.314 1460.26 371.038 1456.5 Q374.78 1452.72 375.74 1451.63 Q377.564 1449.58 378.279 1448.16 Q379.012 1446.74 379.012 1445.36 Q379.012 1443.12 377.432 1441.71 Q375.871 1440.3 373.351 1440.3 Q371.564 1440.3 369.571 1440.92 Q367.596 1441.54 365.339 1442.8 L365.339 1438.97 Q367.633 1438.05 369.627 1437.58 Q371.621 1437.11 373.276 1437.11 Q377.639 1437.11 380.235 1439.29 Q382.83 1441.47 382.83 1445.12 Q382.83 1446.85 382.172 1448.41 Q381.532 1449.95 379.821 1452.06 Q379.351 1452.6 376.83 1455.22 Q374.31 1457.81 369.721 1462.5 Z" fill="#000000" fill-rule="evenodd" fill-opacity="1" /><path clip-path="url(#clip960)" d="M 0 0 M773.025 1489.17 L780.664 1489.17 L780.664 1462.8 L772.354 1464.47 L772.354 1460.21 L780.618 1458.54 L785.294 1458.54 L785.294 1489.17 L792.933 1489.17 L792.933 1493.1 L773.025 1493.1 L773.025 1489.17 Z" fill="#000000" fill-rule="evenodd" fill-opacity="1" /><path clip-path="url(#clip960)" d="M 0 0 M812.377 1461.62 Q808.766 1461.62 806.937 1465.19 Q805.132 1468.73 805.132 1475.86 Q805.132 1482.97 806.937 1486.53 Q808.766 1490.07 812.377 1490.07 Q816.011 1490.07 817.817 1486.53 Q819.646 1482.97 819.646 1475.86 Q819.646 1468.73 817.817 1465.19 Q816.011 1461.62 812.377 1461.62 M812.377 1457.92 Q818.187 1457.92 821.243 1462.53 Q824.321 1467.11 824.321 1475.86 Q824.321 1484.59 821.243 1489.19 Q818.187 1493.78 812.377 1493.78 Q806.567 1493.78 803.488 1489.19 Q800.433 1484.59 800.433 1475.86 Q800.433 1467.11 803.488 1462.53 Q806.567 1457.92 812.377 1457.92 Z" fill="#000000" fill-rule="evenodd" fill-opacity="1" /><path clip-path="url(#clip960)" d="M 0 0 M824.321 1452.02 L848.433 1452.02 L848.433 1455.22 L824.321 1455.22 L824.321 1452.02 Z" fill="#000000" fill-rule="evenodd" fill-opacity="1" /><path clip-path="url(#clip960)" d="M 0 0 M857.292 1462.5 L863.498 1462.5 L863.498 1441.07 L856.746 1442.43 L856.746 1438.97 L863.46 1437.61 L867.26 1437.61 L867.26 1462.5 L873.466 1462.5 L873.466 1465.69 L857.292 1465.69 L857.292 1462.5 Z" fill="#000000" fill-rule="evenodd" fill-opacity="1" /><path clip-path="url(#clip960)" d="M 0 0 M1278.23 1489.17 L1285.87 1489.17 L1285.87 1462.8 L1277.56 1464.47 L1277.56 1460.21 L1285.82 1458.54 L1290.5 1458.54 L1290.5 1489.17 L1298.14 1489.17 L1298.14 1493.1 L1278.23 1493.1 L1278.23 1489.17 Z" fill="#000000" fill-rule="evenodd" fill-opacity="1" /><path clip-path="url(#clip960)" d="M 0 0 M1317.58 1461.62 Q1313.97 1461.62 1312.14 1465.19 Q1310.33 1468.73 1310.33 1475.86 Q1310.33 1482.97 1312.14 1486.53 Q1313.97 1490.07 1317.58 1490.07 Q1321.21 1490.07 1323.02 1486.53 Q1324.85 1482.97 1324.85 1475.86 Q1324.85 1468.73 1323.02 1465.19 Q1321.21 1461.62 1317.58 1461.62 M1317.58 1457.92 Q1323.39 1457.92 1326.45 1462.53 Q1329.52 1467.11 1329.52 1475.86 Q1329.52 1484.59 1326.45 1489.19 Q1323.39 1493.78 1317.58 1493.78 Q1311.77 1493.78 1308.69 1489.19 Q1305.64 1484.59 1305.64 1475.86 Q1305.64 1467.11 1308.69 1462.53 Q1311.77 1457.92 1317.58 1457.92 Z" fill="#000000" fill-rule="evenodd" fill-opacity="1" /><path clip-path="url(#clip960)" d="M 0 0 M1339.23 1440.11 Q1336.29 1440.11 1334.81 1443.01 Q1333.34 1445.89 1333.34 1451.68 Q1333.34 1457.46 1334.81 1460.35 Q1336.29 1463.23 1339.23 1463.23 Q1342.18 1463.23 1343.65 1460.35 Q1345.13 1457.46 1345.13 1451.68 Q1345.13 1445.89 1343.65 1443.01 Q1342.18 1440.11 1339.23 1440.11 M1339.23 1437.11 Q1343.95 1437.11 1346.43 1440.85 Q1348.93 1444.57 1348.93 1451.68 Q1348.93 1458.77 1346.43 1462.51 Q1343.95 1466.24 1339.23 1466.24 Q1334.51 1466.24 1332.01 1462.51 Q1329.52 1458.77 1329.52 1451.68 Q1329.52 1444.57 1332.01 1440.85 Q1334.51 1437.11 1339.23 1437.11 Z" fill="#000000" fill-rule="evenodd" fill-opacity="1" /><path clip-path="url(#clip960)" d="M 0 0 M1769.91 1489.17 L1777.55 1489.17 L1777.55 1462.8 L1769.24 1464.47 L1769.24 1460.21 L1777.5 1458.54 L1782.18 1458.54 L1782.18 1489.17 L1789.82 1489.17 L1789.82 1493.1 L1769.91 1493.1 L1769.91 1489.17 Z" fill="#000000" fill-rule="evenodd" fill-opacity="1" /><path clip-path="url(#clip960)" d="M 0 0 M1809.26 1461.62 Q1805.65 1461.62 1803.82 1465.19 Q1802.01 1468.73 1802.01 1475.86 Q1802.01 1482.97 1803.82 1486.53 Q1805.65 1490.07 1809.26 1490.07 Q1812.89 1490.07 1814.7 1486.53 Q1816.53 1482.97 1816.53 1475.86 Q1816.53 1468.73 1814.7 1465.19 Q1812.89 1461.62 1809.26 1461.62 M1809.26 1457.92 Q1815.07 1457.92 1818.13 1462.53 Q1821.2 1467.11 1821.2 1475.86 Q1821.2 1484.59 1818.13 1489.19 Q1815.07 1493.78 1809.26 1493.78 Q1803.45 1493.78 1800.37 1489.19 Q1797.32 1484.59 1797.32 1475.86 Q1797.32 1467.11 1800.37 1462.53 Q1803.45 1457.92 1809.26 1457.92 Z" fill="#000000" fill-rule="evenodd" fill-opacity="1" /><path clip-path="url(#clip960)" d="M 0 0 M1821.75 1462.5 L1827.96 1462.5 L1827.96 1441.07 L1821.2 1442.43 L1821.2 1438.97 L1827.92 1437.61 L1831.72 1437.61 L1831.72 1462.5 L1837.92 1462.5 L1837.92 1465.69 L1821.75 1465.69 L1821.75 1462.5 Z" fill="#000000" fill-rule="evenodd" fill-opacity="1" /><path clip-path="url(#clip960)" d="M 0 0 M2259.69 1489.17 L2267.33 1489.17 L2267.33 1462.8 L2259.02 1464.47 L2259.02 1460.21 L2267.28 1458.54 L2271.96 1458.54 L2271.96 1489.17 L2279.6 1489.17 L2279.6 1493.1 L2259.69 1493.1 L2259.69 1489.17 Z" fill="#000000" fill-rule="evenodd" fill-opacity="1" /><path clip-path="url(#clip960)" d="M 0 0 M2299.04 1461.62 Q2295.43 1461.62 2293.6 1465.19 Q2291.79 1468.73 2291.79 1475.86 Q2291.79 1482.97 2293.6 1486.53 Q2295.43 1490.07 2299.04 1490.07 Q2302.67 1490.07 2304.48 1486.53 Q2306.31 1482.97 2306.31 1475.86 Q2306.31 1468.73 2304.48 1465.19 Q2302.67 1461.62 2299.04 1461.62 M2299.04 1457.92 Q2304.85 1457.92 2307.91 1462.53 Q2310.98 1467.11 2310.98 1475.86 Q2310.98 1484.59 2307.91 1489.19 Q2304.85 1493.78 2299.04 1493.78 Q2293.23 1493.78 2290.15 1489.19 Q2287.1 1484.59 2287.1 1475.86 Q2287.1 1467.11 2290.15 1462.53 Q2293.23 1457.92 2299.04 1457.92 Z" fill="#000000" fill-rule="evenodd" fill-opacity="1" /><path clip-path="url(#clip960)" d="M 0 0 M2315.55 1462.5 L2328.81 1462.5 L2328.81 1465.69 L2310.98 1465.69 L2310.98 1462.5 Q2313.15 1460.26 2316.87 1456.5 Q2320.61 1452.72 2321.57 1451.63 Q2323.4 1449.58 2324.11 1448.16 Q2324.85 1446.74 2324.85 1445.36 Q2324.85 1443.12 2323.27 1441.71 Q2321.7 1440.3 2319.18 1440.3 Q2317.4 1440.3 2315.4 1440.92 Q2313.43 1441.54 2311.17 1442.8 L2311.17 1438.97 Q2313.47 1438.05 2315.46 1437.58 Q2317.45 1437.11 2319.11 1437.11 Q2323.47 1437.11 2326.07 1439.29 Q2328.66 1441.47 2328.66 1445.12 Q2328.66 1446.85 2328.01 1448.41 Q2327.37 1449.95 2325.65 1452.06 Q2325.18 1452.6 2322.66 1455.22 Q2320.14 1457.81 2315.55 1462.5 Z" fill="#000000" fill-rule="evenodd" fill-opacity="1" /><path clip-path="url(#clip960)" d="M 0 0 M1303.54 1575.11 Q1290.33 1575.11 1290.33 1556.2 Q1290.33 1548.72 1295.26 1538.54 L1301.56 1538.54 Q1297.01 1548.72 1297.01 1556.36 Q1297.01 1570.14 1304.08 1570.14 Q1310.54 1570.14 1310.54 1553.02 L1315.95 1553.02 Q1315.95 1570.14 1322.41 1570.14 Q1329.48 1570.14 1329.48 1556.36 Q1329.48 1548.72 1324.93 1538.54 L1331.23 1538.54 Q1336.16 1548.72 1336.16 1556.2 Q1336.16 1575.11 1322.95 1575.11 Q1314.3 1575.11 1313.25 1565.59 Q1311.94 1575.11 1303.54 1575.11 Z" fill="#000000" fill-rule="evenodd" fill-opacity="1" /><polyline clip-path="url(#clip963)" style="stroke:#000000; stroke-width:2; stroke-opacity:0.1; fill:none" points="
  273.735,1329.42 2352.76,1329.42 
  "/>
<polyline clip-path="url(#clip963)" style="stroke:#000000; stroke-width:2; stroke-opacity:0.1; fill:none" points="
  273.735,1194.67 2352.76,1194.67 
  "/>
<polyline clip-path="url(#clip963)" style="stroke:#000000; stroke-width:2; stroke-opacity:0.1; fill:none" points="
  273.735,1059.92 2352.76,1059.92 
  "/>
<polyline clip-path="url(#clip963)" style="stroke:#000000; stroke-width:2; stroke-opacity:0.1; fill:none" points="
  273.735,925.166 2352.76,925.166 
  "/>
<polyline clip-path="url(#clip963)" style="stroke:#000000; stroke-width:2; stroke-opacity:0.1; fill:none" points="
  273.735,790.414 2352.76,790.414 
  "/>
<polyline clip-path="url(#clip960)" style="stroke:#000000; stroke-width:4; stroke-opacity:1; fill:none" points="
  273.735,1410.9 273.735,776.314 
  "/>
<polyline clip-path="url(#clip960)" style="stroke:#000000; stroke-width:4; stroke-opacity:1; fill:none" points="
  273.735,1329.42 298.683,1329.42 
  "/>
<polyline clip-path="url(#clip960)" style="stroke:#000000; stroke-width:4; stroke-opacity:1; fill:none" points="
  273.735,1194.67 298.683,1194.67 
  "/>
<polyline clip-path="url(#clip960)" style="stroke:#000000; stroke-width:4; stroke-opacity:1; fill:none" points="
  273.735,1059.92 298.683,1059.92 
  "/>
<polyline clip-path="url(#clip960)" style="stroke:#000000; stroke-width:4; stroke-opacity:1; fill:none" points="
  273.735,925.166 298.683,925.166 
  "/>
<polyline clip-path="url(#clip960)" style="stroke:#000000; stroke-width:4; stroke-opacity:1; fill:none" points="
  273.735,790.414 298.683,790.414 
  "/>
<polyline clip-path="url(#clip960)" style="stroke:#000000; stroke-width:4; stroke-opacity:1; fill:none" points="
  273.735,1410.27 286.209,1410.27 
  "/>
<polyline clip-path="url(#clip960)" style="stroke:#000000; stroke-width:4; stroke-opacity:1; fill:none" points="
  273.735,1383.32 286.209,1383.32 
  "/>
<polyline clip-path="url(#clip960)" style="stroke:#000000; stroke-width:4; stroke-opacity:1; fill:none" points="
  273.735,1356.37 286.209,1356.37 
  "/>
<polyline clip-path="url(#clip960)" style="stroke:#000000; stroke-width:4; stroke-opacity:1; fill:none" points="
  273.735,1302.47 286.209,1302.47 
  "/>
<polyline clip-path="url(#clip960)" style="stroke:#000000; stroke-width:4; stroke-opacity:1; fill:none" points="
  273.735,1275.52 286.209,1275.52 
  "/>
<polyline clip-path="url(#clip960)" style="stroke:#000000; stroke-width:4; stroke-opacity:1; fill:none" points="
  273.735,1248.57 286.209,1248.57 
  "/>
<polyline clip-path="url(#clip960)" style="stroke:#000000; stroke-width:4; stroke-opacity:1; fill:none" points="
  273.735,1221.62 286.209,1221.62 
  "/>
<polyline clip-path="url(#clip960)" style="stroke:#000000; stroke-width:4; stroke-opacity:1; fill:none" points="
  273.735,1167.72 286.209,1167.72 
  "/>
<polyline clip-path="url(#clip960)" style="stroke:#000000; stroke-width:4; stroke-opacity:1; fill:none" points="
  273.735,1140.77 286.209,1140.77 
  "/>
<polyline clip-path="url(#clip960)" style="stroke:#000000; stroke-width:4; stroke-opacity:1; fill:none" points="
  273.735,1113.82 286.209,1113.82 
  "/>
<polyline clip-path="url(#clip960)" style="stroke:#000000; stroke-width:4; stroke-opacity:1; fill:none" points="
  273.735,1086.87 286.209,1086.87 
  "/>
<polyline clip-path="url(#clip960)" style="stroke:#000000; stroke-width:4; stroke-opacity:1; fill:none" points="
  273.735,1032.97 286.209,1032.97 
  "/>
<polyline clip-path="url(#clip960)" style="stroke:#000000; stroke-width:4; stroke-opacity:1; fill:none" points="
  273.735,1006.02 286.209,1006.02 
  "/>
<polyline clip-path="url(#clip960)" style="stroke:#000000; stroke-width:4; stroke-opacity:1; fill:none" points="
  273.735,979.067 286.209,979.067 
  "/>
<polyline clip-path="url(#clip960)" style="stroke:#000000; stroke-width:4; stroke-opacity:1; fill:none" points="
  273.735,952.116 286.209,952.116 
  "/>
<polyline clip-path="url(#clip960)" style="stroke:#000000; stroke-width:4; stroke-opacity:1; fill:none" points="
  273.735,898.216 286.209,898.216 
  "/>
<polyline clip-path="url(#clip960)" style="stroke:#000000; stroke-width:4; stroke-opacity:1; fill:none" points="
  273.735,871.265 286.209,871.265 
  "/>
<polyline clip-path="url(#clip960)" style="stroke:#000000; stroke-width:4; stroke-opacity:1; fill:none" points="
  273.735,844.315 286.209,844.315 
  "/>
<polyline clip-path="url(#clip960)" style="stroke:#000000; stroke-width:4; stroke-opacity:1; fill:none" points="
  273.735,817.364 286.209,817.364 
  "/>
<path clip-path="url(#clip960)" d="M 0 0 M145.86 1329.87 L175.536 1329.87 L175.536 1333.81 L145.86 1333.81 L145.86 1329.87 Z" fill="#000000" fill-rule="evenodd" fill-opacity="1" /><path clip-path="url(#clip960)" d="M 0 0 M195.629 1330.29 Q192.295 1330.29 190.374 1332.07 Q188.476 1333.85 188.476 1336.98 Q188.476 1340.1 190.374 1341.89 Q192.295 1343.67 195.629 1343.67 Q198.962 1343.67 200.883 1341.89 Q202.804 1340.08 202.804 1336.98 Q202.804 1333.85 200.883 1332.07 Q198.985 1330.29 195.629 1330.29 M190.953 1328.3 Q187.943 1327.56 186.254 1325.5 Q184.587 1323.44 184.587 1320.47 Q184.587 1316.33 187.527 1313.92 Q190.49 1311.52 195.629 1311.52 Q200.791 1311.52 203.73 1313.92 Q206.67 1316.33 206.67 1320.47 Q206.67 1323.44 204.98 1325.5 Q203.314 1327.56 200.328 1328.3 Q203.707 1329.09 205.582 1331.38 Q207.48 1333.67 207.48 1336.98 Q207.48 1342 204.402 1344.69 Q201.346 1347.37 195.629 1347.37 Q189.911 1347.37 186.832 1344.69 Q183.777 1342 183.777 1336.98 Q183.777 1333.67 185.675 1331.38 Q187.573 1329.09 190.953 1328.3 M189.24 1320.91 Q189.24 1323.6 190.906 1325.1 Q192.596 1326.61 195.629 1326.61 Q198.638 1326.61 200.328 1325.1 Q202.041 1323.6 202.041 1320.91 Q202.041 1318.23 200.328 1316.72 Q198.638 1315.22 195.629 1315.22 Q192.596 1315.22 190.906 1316.72 Q189.24 1318.23 189.24 1320.91 Z" fill="#000000" fill-rule="evenodd" fill-opacity="1" /><path clip-path="url(#clip960)" d="M 0 0 M225.79 1315.22 Q222.179 1315.22 220.351 1318.78 Q218.545 1322.33 218.545 1329.46 Q218.545 1336.56 220.351 1340.13 Q222.179 1343.67 225.79 1343.67 Q229.425 1343.67 231.23 1340.13 Q233.059 1336.56 233.059 1329.46 Q233.059 1322.33 231.23 1318.78 Q229.425 1315.22 225.79 1315.22 M225.79 1311.52 Q231.601 1311.52 234.656 1316.12 Q237.735 1320.71 237.735 1329.46 Q237.735 1338.18 234.656 1342.79 Q231.601 1347.37 225.79 1347.37 Q219.98 1347.37 216.902 1342.79 Q213.846 1338.18 213.846 1329.46 Q213.846 1320.71 216.902 1316.12 Q219.98 1311.52 225.79 1311.52 Z" fill="#000000" fill-rule="evenodd" fill-opacity="1" /><path clip-path="url(#clip960)" d="M 0 0 M145.86 1195.12 L175.536 1195.12 L175.536 1199.06 L145.86 1199.06 L145.86 1195.12 Z" fill="#000000" fill-rule="evenodd" fill-opacity="1" /><path clip-path="url(#clip960)" d="M 0 0 M196.207 1192.81 Q193.059 1192.81 191.207 1194.96 Q189.379 1197.11 189.379 1200.86 Q189.379 1204.59 191.207 1206.76 Q193.059 1208.92 196.207 1208.92 Q199.355 1208.92 201.184 1206.76 Q203.036 1204.59 203.036 1200.86 Q203.036 1197.11 201.184 1194.96 Q199.355 1192.81 196.207 1192.81 M205.49 1178.15 L205.49 1182.41 Q203.73 1181.58 201.925 1181.14 Q200.142 1180.7 198.383 1180.7 Q193.754 1180.7 191.3 1183.82 Q188.869 1186.95 188.522 1193.27 Q189.888 1191.26 191.948 1190.19 Q194.008 1189.1 196.485 1189.1 Q201.693 1189.1 204.703 1192.27 Q207.735 1195.42 207.735 1200.86 Q207.735 1206.19 204.587 1209.4 Q201.439 1212.62 196.207 1212.62 Q190.212 1212.62 187.041 1208.04 Q183.869 1203.43 183.869 1194.7 Q183.869 1186.51 187.758 1181.65 Q191.647 1176.76 198.198 1176.76 Q199.957 1176.76 201.74 1177.11 Q203.545 1177.46 205.49 1178.15 Z" fill="#000000" fill-rule="evenodd" fill-opacity="1" /><path clip-path="url(#clip960)" d="M 0 0 M225.79 1180.47 Q222.179 1180.47 220.351 1184.03 Q218.545 1187.57 218.545 1194.7 Q218.545 1201.81 220.351 1205.38 Q222.179 1208.92 225.79 1208.92 Q229.425 1208.92 231.23 1205.38 Q233.059 1201.81 233.059 1194.7 Q233.059 1187.57 231.23 1184.03 Q229.425 1180.47 225.79 1180.47 M225.79 1176.76 Q231.601 1176.76 234.656 1181.37 Q237.735 1185.95 237.735 1194.7 Q237.735 1203.43 234.656 1208.04 Q231.601 1212.62 225.79 1212.62 Q219.98 1212.62 216.902 1208.04 Q213.846 1203.43 213.846 1194.7 Q213.846 1185.95 216.902 1181.37 Q219.98 1176.76 225.79 1176.76 Z" fill="#000000" fill-rule="evenodd" fill-opacity="1" /><path clip-path="url(#clip960)" d="M 0 0 M145.86 1060.37 L175.536 1060.37 L175.536 1064.3 L145.86 1064.3 L145.86 1060.37 Z" fill="#000000" fill-rule="evenodd" fill-opacity="1" /><path clip-path="url(#clip960)" d="M 0 0 M198.476 1046.71 L186.67 1065.16 L198.476 1065.16 L198.476 1046.71 M197.249 1042.64 L203.128 1042.64 L203.128 1065.16 L208.059 1065.16 L208.059 1069.05 L203.128 1069.05 L203.128 1077.2 L198.476 1077.2 L198.476 1069.05 L182.874 1069.05 L182.874 1064.54 L197.249 1042.64 Z" fill="#000000" fill-rule="evenodd" fill-opacity="1" /><path clip-path="url(#clip960)" d="M 0 0 M225.79 1045.72 Q222.179 1045.72 220.351 1049.28 Q218.545 1052.82 218.545 1059.95 Q218.545 1067.06 220.351 1070.62 Q222.179 1074.17 225.79 1074.17 Q229.425 1074.17 231.23 1070.62 Q233.059 1067.06 233.059 1059.95 Q233.059 1052.82 231.23 1049.28 Q229.425 1045.72 225.79 1045.72 M225.79 1042.01 Q231.601 1042.01 234.656 1046.62 Q237.735 1051.2 237.735 1059.95 Q237.735 1068.68 234.656 1073.29 Q231.601 1077.87 225.79 1077.87 Q219.98 1077.87 216.902 1073.29 Q213.846 1068.68 213.846 1059.95 Q213.846 1051.2 216.902 1046.62 Q219.98 1042.01 225.79 1042.01 Z" fill="#000000" fill-rule="evenodd" fill-opacity="1" /><path clip-path="url(#clip960)" d="M 0 0 M145.86 925.617 L175.536 925.617 L175.536 929.552 L145.86 929.552 L145.86 925.617 Z" fill="#000000" fill-rule="evenodd" fill-opacity="1" /><path clip-path="url(#clip960)" d="M 0 0 M189.656 938.511 L205.976 938.511 L205.976 942.446 L184.031 942.446 L184.031 938.511 Q186.693 935.756 191.277 931.126 Q195.883 926.474 197.064 925.131 Q199.309 922.608 200.189 920.872 Q201.091 919.113 201.091 917.423 Q201.091 914.668 199.147 912.932 Q197.226 911.196 194.124 911.196 Q191.925 911.196 189.471 911.96 Q187.041 912.724 184.263 914.275 L184.263 909.553 Q187.087 908.418 189.541 907.84 Q191.994 907.261 194.031 907.261 Q199.402 907.261 202.596 909.946 Q205.791 912.631 205.791 917.122 Q205.791 919.252 204.98 921.173 Q204.193 923.071 202.087 925.664 Q201.508 926.335 198.406 929.552 Q195.304 932.747 189.656 938.511 Z" fill="#000000" fill-rule="evenodd" fill-opacity="1" /><path clip-path="url(#clip960)" d="M 0 0 M225.79 910.965 Q222.179 910.965 220.351 914.529 Q218.545 918.071 218.545 925.201 Q218.545 932.307 220.351 935.872 Q222.179 939.413 225.79 939.413 Q229.425 939.413 231.23 935.872 Q233.059 932.307 233.059 925.201 Q233.059 918.071 231.23 914.529 Q229.425 910.965 225.79 910.965 M225.79 907.261 Q231.601 907.261 234.656 911.867 Q237.735 916.451 237.735 925.201 Q237.735 933.927 234.656 938.534 Q231.601 943.117 225.79 943.117 Q219.98 943.117 216.902 938.534 Q213.846 933.927 213.846 925.201 Q213.846 916.451 216.902 911.867 Q219.98 907.261 225.79 907.261 Z" fill="#000000" fill-rule="evenodd" fill-opacity="1" /><path clip-path="url(#clip960)" d="M 0 0 M225.79 776.213 Q222.179 776.213 220.351 779.778 Q218.545 783.319 218.545 790.449 Q218.545 797.555 220.351 801.12 Q222.179 804.662 225.79 804.662 Q229.425 804.662 231.23 801.12 Q233.059 797.555 233.059 790.449 Q233.059 783.319 231.23 779.778 Q229.425 776.213 225.79 776.213 M225.79 772.509 Q231.601 772.509 234.656 777.116 Q237.735 781.699 237.735 790.449 Q237.735 799.176 234.656 803.782 Q231.601 808.365 225.79 808.365 Q219.98 808.365 216.902 803.782 Q213.846 799.176 213.846 790.449 Q213.846 781.699 216.902 777.116 Q219.98 772.509 225.79 772.509 Z" fill="#000000" fill-rule="evenodd" fill-opacity="1" /><path clip-path="url(#clip960)" d="M 0 0 M64.6988 1088.62 Q64.6988 1090.69 69.3139 1090.69 L91.1483 1090.69 Q91.1483 1087.67 87.8381 1084.65 Q84.8781 1081.94 77.7803 1081.94 Q71.16 1081.94 67.5952 1084.68 Q64.6988 1086.91 64.6988 1088.62 M59.7017 1088.62 Q59.7017 1084.17 63.9031 1080.13 Q68.3909 1075.77 77.7803 1075.77 Q86.4058 1075.77 91.5302 1080.13 Q96.3682 1084.23 96.3682 1090.69 L109.163 1090.69 L109.163 1096.52 L96.4 1096.52 Q96.4 1102.85 91.5302 1107.12 Q86.565 1111.45 77.8121 1111.45 Q68.7092 1111.45 64.0622 1107.12 Q60.5929 1103.87 59.7017 1098.59 L64.8897 1098.59 Q65.6218 1100.69 68.1044 1102.53 Q71.7647 1105.27 77.8121 1105.27 Q84.2415 1105.27 87.9018 1102.53 Q91.1801 1100.08 91.1801 1096.52 L69.3139 1096.52 Q59.7017 1096.52 59.7017 1088.62 Z" fill="#000000" fill-rule="evenodd" fill-opacity="1" /><polyline clip-path="url(#clip963)" style="stroke:#009af9; stroke-width:8; stroke-opacity:1; fill:none" points="
  332.575,794.274 352.387,794.651 372.198,795.064 392.01,795.517 411.821,796.014 431.633,796.56 451.444,797.16 471.256,797.817 491.067,798.539 510.879,799.33 
  530.69,800.199 550.502,801.153 570.313,802.199 590.125,803.348 609.936,804.608 629.748,805.99 649.559,807.507 669.371,809.171 689.182,810.996 708.994,812.998 
  728.805,815.195 748.617,817.603 768.428,820.244 788.24,823.139 808.052,826.312 827.863,829.789 847.675,833.597 867.486,837.767 887.298,842.331 907.109,847.323 
  926.921,852.78 946.732,858.74 966.544,865.243 986.355,872.331 1006.17,880.046 1025.98,888.429 1045.79,897.523 1065.6,907.364 1085.41,917.986 1105.22,929.418 
  1125.04,941.676 1144.85,954.769 1164.66,968.688 1184.47,983.41 1204.28,998.889 1224.09,1015.06 1243.91,1031.84 1263.72,1049.11 1283.53,1066.76 1303.34,1084.63 
  1323.15,1102.58 1342.96,1120.45 1362.77,1138.1 1382.59,1155.37 1402.4,1172.15 1422.21,1188.32 1442.02,1203.8 1461.83,1218.52 1481.64,1232.44 1501.45,1245.53 
  1521.27,1257.79 1541.08,1269.22 1560.89,1279.85 1580.7,1289.69 1600.51,1298.78 1620.32,1307.17 1640.14,1314.88 1659.95,1321.97 1679.76,1328.47 1699.57,1334.43 
  1719.38,1339.89 1739.19,1344.88 1759,1349.44 1778.82,1353.61 1798.63,1357.42 1818.44,1360.9 1838.25,1364.07 1858.06,1366.97 1877.87,1369.61 1897.69,1372.02 
  1917.5,1374.21 1937.31,1376.21 1957.12,1378.04 1976.93,1379.7 1996.74,1381.22 2016.55,1382.6 2036.37,1383.86 2056.18,1385.01 2075.99,1386.06 2095.8,1387.01 
  2115.61,1387.88 2135.42,1388.67 2155.24,1389.39 2175.05,1390.05 2194.86,1390.65 2214.67,1391.2 2234.48,1391.69 2254.29,1392.15 2274.1,1392.56 2293.92,1392.94 
  
  "/>
</svg>