<?xml version="1.0" encoding="utf-8"?>
<svg xmlns="http://www.w3.org/2000/svg" xmlns:xlink="http://www.w3.org/1999/xlink" width="600" height="400" viewBox="0 0 2400 1600">
<defs>
  <clipPath id="clip140">
    <rect x="0" y="0" width="2400" height="1600"/>
  </clipPath>
</defs>
<path clip-path="url(#clip140)" d="
M0 1600 L2400 1600 L2400 0 L0 0  Z
  " fill="#ffffff" fill-rule="evenodd" fill-opacity="1"/>
<defs>
  <clipPath id="clip141">
    <rect x="480" y="0" width="1681" height="1600"/>
  </clipPath>
</defs>
<path clip-path="url(#clip140)" d="
M259.75 642.531 L2352.76 642.531 L2352.76 47.2441 L259.75 47.2441  Z
  " fill="#ffffff" fill-rule="evenodd" fill-opacity="1"/>
<defs>
  <clipPath id="clip142">
    <rect x="259" y="47" width="2094" height="596"/>
  </clipPath>
</defs>
<polyline clip-path="url(#clip142)" style="stroke:#000000; stroke-width:2; stroke-opacity:0.1; fill:none" points="
  318.986,642.531 318.986,47.2441 
  "/>
<polyline clip-path="url(#clip142)" style="stroke:#000000; stroke-width:2; stroke-opacity:0.1; fill:none" points="
  812.62,642.531 812.62,47.2441 
  "/>
<polyline clip-path="url(#clip142)" style="stroke:#000000; stroke-width:2; stroke-opacity:0.1; fill:none" points="
  1306.25,642.531 1306.25,47.2441 
  "/>
<polyline clip-path="url(#clip142)" style="stroke:#000000; stroke-width:2; stroke-opacity:0.1; fill:none" points="
  1799.89,642.531 1799.89,47.2441 
  "/>
<polyline clip-path="url(#clip142)" style="stroke:#000000; stroke-width:2; stroke-opacity:0.1; fill:none" points="
  2293.52,642.531 2293.52,47.2441 
  "/>
<polyline clip-path="url(#clip140)" style="stroke:#000000; stroke-width:4; stroke-opacity:1; fill:none" points="
  259.75,642.531 2352.76,642.531 
  "/>
<polyline clip-path="url(#clip140)" style="stroke:#000000; stroke-width:4; stroke-opacity:1; fill:none" points="
  318.986,642.531 318.986,635.387 
  "/>
<polyline clip-path="url(#clip140)" style="stroke:#000000; stroke-width:4; stroke-opacity:1; fill:none" points="
  812.62,642.531 812.62,635.387 
  "/>
<polyline clip-path="url(#clip140)" style="stroke:#000000; stroke-width:4; stroke-opacity:1; fill:none" points="
  1306.25,642.531 1306.25,635.387 
  "/>
<polyline clip-path="url(#clip140)" style="stroke:#000000; stroke-width:4; stroke-opacity:1; fill:none" points="
  1799.89,642.531 1799.89,635.387 
  "/>
<polyline clip-path="url(#clip140)" style="stroke:#000000; stroke-width:4; stroke-opacity:1; fill:none" points="
  2293.52,642.531 2293.52,635.387 
  "/>
<polyline clip-path="url(#clip140)" style="stroke:#000000; stroke-width:4; stroke-opacity:1; fill:none" points="
  443.043,642.531 443.043,638.959 
  "/>
<polyline clip-path="url(#clip140)" style="stroke:#000000; stroke-width:4; stroke-opacity:1; fill:none" points="
  551.401,642.531 551.401,638.959 
  "/>
<polyline clip-path="url(#clip140)" style="stroke:#000000; stroke-width:4; stroke-opacity:1; fill:none" points="
  647.589,642.531 647.589,638.959 
  "/>
<polyline clip-path="url(#clip140)" style="stroke:#000000; stroke-width:4; stroke-opacity:1; fill:none" points="
  734.068,642.531 734.068,638.959 
  "/>
<polyline clip-path="url(#clip140)" style="stroke:#000000; stroke-width:4; stroke-opacity:1; fill:none" points="
  936.677,642.531 936.677,638.959 
  "/>
<polyline clip-path="url(#clip140)" style="stroke:#000000; stroke-width:4; stroke-opacity:1; fill:none" points="
  1045.03,642.531 1045.03,638.959 
  "/>
<polyline clip-path="url(#clip140)" style="stroke:#000000; stroke-width:4; stroke-opacity:1; fill:none" points="
  1141.22,642.531 1141.22,638.959 
  "/>
<polyline clip-path="url(#clip140)" style="stroke:#000000; stroke-width:4; stroke-opacity:1; fill:none" points="
  1227.7,642.531 1227.7,638.959 
  "/>
<polyline clip-path="url(#clip140)" style="stroke:#000000; stroke-width:4; stroke-opacity:1; fill:none" points="
  1430.31,642.531 1430.31,638.959 
  "/>
<polyline clip-path="url(#clip140)" style="stroke:#000000; stroke-width:4; stroke-opacity:1; fill:none" points="
  1538.67,642.531 1538.67,638.959 
  "/>
<polyline clip-path="url(#clip140)" style="stroke:#000000; stroke-width:4; stroke-opacity:1; fill:none" points="
  1634.86,642.531 1634.86,638.959 
  "/>
<polyline clip-path="url(#clip140)" style="stroke:#000000; stroke-width:4; stroke-opacity:1; fill:none" points="
  1721.34,642.531 1721.34,638.959 
  "/>
<polyline clip-path="url(#clip140)" style="stroke:#000000; stroke-width:4; stroke-opacity:1; fill:none" points="
  1923.94,642.531 1923.94,638.959 
  "/>
<polyline clip-path="url(#clip140)" style="stroke:#000000; stroke-width:4; stroke-opacity:1; fill:none" points="
  2032.3,642.531 2032.3,638.959 
  "/>
<polyline clip-path="url(#clip140)" style="stroke:#000000; stroke-width:4; stroke-opacity:1; fill:none" points="
  2128.49,642.531 2128.49,638.959 
  "/>
<polyline clip-path="url(#clip140)" style="stroke:#000000; stroke-width:4; stroke-opacity:1; fill:none" points="
  2214.97,642.531 2214.97,638.959 
  "/>
<path clip-path="url(#clip140)" d="M 0 0 M247.337 720.803 L254.976 720.803 L254.976 694.437 L246.666 696.104 L246.666 691.845 L254.93 690.178 L259.606 690.178 L259.606 720.803 L267.245 720.803 L267.245 724.738 L247.337 724.738 L247.337 720.803 Z" fill="#000000" fill-rule="evenodd" fill-opacity="1" /><path clip-path="url(#clip140)" d="M 0 0 M282.314 693.257 Q278.703 693.257 276.874 696.821 Q275.069 700.363 275.069 707.493 Q275.069 714.599 276.874 718.164 Q278.703 721.705 282.314 721.705 Q285.948 721.705 287.754 718.164 Q289.583 714.599 289.583 707.493 Q289.583 700.363 287.754 696.821 Q285.948 693.257 282.314 693.257 M282.314 689.553 Q288.124 689.553 291.18 694.159 Q294.258 698.743 294.258 707.493 Q294.258 716.219 291.18 720.826 Q288.124 725.409 282.314 725.409 Q276.504 725.409 273.425 720.826 Q270.37 716.219 270.37 707.493 Q270.37 698.743 273.425 694.159 Q276.504 689.553 282.314 689.553 Z" fill="#000000" fill-rule="evenodd" fill-opacity="1" /><path clip-path="url(#clip140)" d="M 0 0 M294.258 683.654 L318.37 683.654 L318.37 686.852 L294.258 686.852 L294.258 683.654 Z" fill="#000000" fill-rule="evenodd" fill-opacity="1" /><path clip-path="url(#clip140)" d="M 0 0 M323.147 694.13 L329.354 694.13 L329.354 672.708 L322.602 674.062 L322.602 670.602 L329.316 669.247 L333.115 669.247 L333.115 694.13 L339.322 694.13 L339.322 697.327 L323.147 697.327 L323.147 694.13 Z" fill="#000000" fill-rule="evenodd" fill-opacity="1" /><path clip-path="url(#clip140)" d="M 0 0 M343.441 692.55 L347.409 692.55 L347.409 697.327 L343.441 697.327 L343.441 692.55 Z" fill="#000000" fill-rule="evenodd" fill-opacity="1" /><path clip-path="url(#clip140)" d="M 0 0 M359.653 671.749 Q356.719 671.749 355.233 674.645 Q353.766 677.523 353.766 683.316 Q353.766 689.09 355.233 691.986 Q356.719 694.864 359.653 694.864 Q362.606 694.864 364.073 691.986 Q365.559 689.09 365.559 683.316 Q365.559 677.523 364.073 674.645 Q362.606 671.749 359.653 671.749 M359.653 668.74 Q364.374 668.74 366.856 672.482 Q369.358 676.206 369.358 683.316 Q369.358 690.406 366.856 694.149 Q364.374 697.873 359.653 697.873 Q354.932 697.873 352.431 694.149 Q349.948 690.406 349.948 683.316 Q349.948 676.206 352.431 672.482 Q354.932 668.74 359.653 668.74 Z" fill="#000000" fill-rule="evenodd" fill-opacity="1" /><path clip-path="url(#clip140)" d="M 0 0 M381.602 671.749 Q378.668 671.749 377.182 674.645 Q375.715 677.523 375.715 683.316 Q375.715 689.09 377.182 691.986 Q378.668 694.864 381.602 694.864 Q384.555 694.864 386.022 691.986 Q387.507 689.09 387.507 683.316 Q387.507 677.523 386.022 674.645 Q384.555 671.749 381.602 671.749 M381.602 668.74 Q386.322 668.74 388.805 672.482 Q391.307 676.206 391.307 683.316 Q391.307 690.406 388.805 694.149 Q386.322 697.873 381.602 697.873 Q376.881 697.873 374.38 694.149 Q371.897 690.406 371.897 683.316 Q371.897 676.206 374.38 672.482 Q376.881 668.74 381.602 668.74 Z" fill="#000000" fill-rule="evenodd" fill-opacity="1" /><path clip-path="url(#clip140)" d="M 0 0 M741.244 720.803 L748.882 720.803 L748.882 694.437 L740.572 696.104 L740.572 691.845 L748.836 690.178 L753.512 690.178 L753.512 720.803 L761.151 720.803 L761.151 724.738 L741.244 724.738 L741.244 720.803 Z" fill="#000000" fill-rule="evenodd" fill-opacity="1" /><path clip-path="url(#clip140)" d="M 0 0 M776.22 693.257 Q772.609 693.257 770.78 696.821 Q768.975 700.363 768.975 707.493 Q768.975 714.599 770.78 718.164 Q772.609 721.705 776.22 721.705 Q779.854 721.705 781.66 718.164 Q783.489 714.599 783.489 707.493 Q783.489 700.363 781.66 696.821 Q779.854 693.257 776.22 693.257 M776.22 689.553 Q782.03 689.553 785.086 694.159 Q788.165 698.743 788.165 707.493 Q788.165 716.219 785.086 720.826 Q782.03 725.409 776.22 725.409 Q770.41 725.409 767.331 720.826 Q764.276 716.219 764.276 707.493 Q764.276 698.743 767.331 694.159 Q770.41 689.553 776.22 689.553 Z" fill="#000000" fill-rule="evenodd" fill-opacity="1" /><path clip-path="url(#clip140)" d="M 0 0 M788.165 683.654 L812.276 683.654 L812.276 686.852 L788.165 686.852 L788.165 683.654 Z" fill="#000000" fill-rule="evenodd" fill-opacity="1" /><path clip-path="url(#clip140)" d="M 0 0 M824.52 671.749 Q821.586 671.749 820.1 674.645 Q818.633 677.523 818.633 683.316 Q818.633 689.09 820.1 691.986 Q821.586 694.864 824.52 694.864 Q827.473 694.864 828.94 691.986 Q830.426 689.09 830.426 683.316 Q830.426 677.523 828.94 674.645 Q827.473 671.749 824.52 671.749 M824.52 668.74 Q829.241 668.74 831.723 672.482 Q834.225 676.206 834.225 683.316 Q834.225 690.406 831.723 694.149 Q829.241 697.873 824.52 697.873 Q819.799 697.873 817.298 694.149 Q814.815 690.406 814.815 683.316 Q814.815 676.206 817.298 672.482 Q819.799 668.74 824.52 668.74 Z" fill="#000000" fill-rule="evenodd" fill-opacity="1" /><path clip-path="url(#clip140)" d="M 0 0 M838.344 692.55 L842.312 692.55 L842.312 697.327 L838.344 697.327 L838.344 692.55 Z" fill="#000000" fill-rule="evenodd" fill-opacity="1" /><path clip-path="url(#clip140)" d="M 0 0 M845.472 669.247 L863.527 669.247 L863.527 670.865 L853.333 697.327 L849.365 697.327 L858.957 672.445 L845.472 672.445 L845.472 669.247 Z" fill="#000000" fill-rule="evenodd" fill-opacity="1" /><path clip-path="url(#clip140)" d="M 0 0 M867.684 669.247 L882.598 669.247 L882.598 672.445 L871.163 672.445 L871.163 679.328 Q871.991 679.046 872.818 678.915 Q873.646 678.764 874.473 678.764 Q879.175 678.764 881.921 681.341 Q884.667 683.918 884.667 688.319 Q884.667 692.851 881.846 695.371 Q879.025 697.873 873.89 697.873 Q872.122 697.873 870.279 697.572 Q868.455 697.271 866.499 696.669 L866.499 692.851 Q868.192 693.773 869.997 694.224 Q871.803 694.676 873.815 694.676 Q877.069 694.676 878.968 692.964 Q880.868 691.253 880.868 688.319 Q880.868 685.385 878.968 683.673 Q877.069 681.962 873.815 681.962 Q872.292 681.962 870.768 682.3 Q869.264 682.639 867.684 683.353 L867.684 669.247 Z" fill="#000000" fill-rule="evenodd" fill-opacity="1" /><path clip-path="url(#clip140)" d="M 0 0 M1234.51 720.803 L1242.15 720.803 L1242.15 694.437 L1233.84 696.104 L1233.84 691.845 L1242.1 690.178 L1246.78 690.178 L1246.78 720.803 L1254.42 720.803 L1254.42 724.738 L1234.51 724.738 L1234.51 720.803 Z" fill="#000000" fill-rule="evenodd" fill-opacity="1" /><path clip-path="url(#clip140)" d="M 0 0 M1269.49 693.257 Q1265.88 693.257 1264.05 696.821 Q1262.24 700.363 1262.24 707.493 Q1262.24 714.599 1264.05 718.164 Q1265.88 721.705 1269.49 721.705 Q1273.12 721.705 1274.93 718.164 Q1276.76 714.599 1276.76 707.493 Q1276.76 700.363 1274.93 696.821 Q1273.12 693.257 1269.49 693.257 M1269.49 689.553 Q1275.3 689.553 1278.35 694.159 Q1281.43 698.743 1281.43 707.493 Q1281.43 716.219 1278.35 720.826 Q1275.3 725.409 1269.49 725.409 Q1263.68 725.409 1260.6 720.826 Q1257.54 716.219 1257.54 707.493 Q1257.54 698.743 1260.6 694.159 Q1263.68 689.553 1269.49 689.553 Z" fill="#000000" fill-rule="evenodd" fill-opacity="1" /><path clip-path="url(#clip140)" d="M 0 0 M1281.43 683.654 L1305.54 683.654 L1305.54 686.852 L1281.43 686.852 L1281.43 683.654 Z" fill="#000000" fill-rule="evenodd" fill-opacity="1" /><path clip-path="url(#clip140)" d="M 0 0 M1317.79 671.749 Q1314.85 671.749 1313.37 674.645 Q1311.9 677.523 1311.9 683.316 Q1311.9 689.09 1313.37 691.986 Q1314.85 694.864 1317.79 694.864 Q1320.74 694.864 1322.21 691.986 Q1323.69 689.09 1323.69 683.316 Q1323.69 677.523 1322.21 674.645 Q1320.74 671.749 1317.79 671.749 M1317.79 668.74 Q1322.51 668.74 1324.99 672.482 Q1327.49 676.206 1327.49 683.316 Q1327.49 690.406 1324.99 694.149 Q1322.51 697.873 1317.79 697.873 Q1313.07 697.873 1310.56 694.149 Q1308.08 690.406 1308.08 683.316 Q1308.08 676.206 1310.56 672.482 Q1313.07 668.74 1317.79 668.74 Z" fill="#000000" fill-rule="evenodd" fill-opacity="1" /><path clip-path="url(#clip140)" d="M 0 0 M1331.61 692.55 L1335.58 692.55 L1335.58 697.327 L1331.61 697.327 L1331.61 692.55 Z" fill="#000000" fill-rule="evenodd" fill-opacity="1" /><path clip-path="url(#clip140)" d="M 0 0 M1339.74 669.247 L1354.65 669.247 L1354.65 672.445 L1343.21 672.445 L1343.21 679.328 Q1344.04 679.046 1344.87 678.915 Q1345.7 678.764 1346.52 678.764 Q1351.23 678.764 1353.97 681.341 Q1356.72 683.918 1356.72 688.319 Q1356.72 692.851 1353.9 695.371 Q1351.08 697.873 1345.94 697.873 Q1344.17 697.873 1342.33 697.572 Q1340.51 697.271 1338.55 696.669 L1338.55 692.851 Q1340.24 693.773 1342.05 694.224 Q1343.85 694.676 1345.87 694.676 Q1349.12 694.676 1351.02 692.964 Q1352.92 691.253 1352.92 688.319 Q1352.92 685.385 1351.02 683.673 Q1349.12 681.962 1345.87 681.962 Q1344.34 681.962 1342.82 682.3 Q1341.32 682.639 1339.74 683.353 L1339.74 669.247 Z" fill="#000000" fill-rule="evenodd" fill-opacity="1" /><path clip-path="url(#clip140)" d="M 0 0 M1368.96 671.749 Q1366.03 671.749 1364.54 674.645 Q1363.08 677.523 1363.08 683.316 Q1363.08 689.09 1364.54 691.986 Q1366.03 694.864 1368.96 694.864 Q1371.92 694.864 1373.38 691.986 Q1374.87 689.09 1374.87 683.316 Q1374.87 677.523 1373.38 674.645 Q1371.92 671.749 1368.96 671.749 M1368.96 668.74 Q1373.68 668.74 1376.17 672.482 Q1378.67 676.206 1378.67 683.316 Q1378.67 690.406 1376.17 694.149 Q1373.68 697.873 1368.96 697.873 Q1364.24 697.873 1361.74 694.149 Q1359.26 690.406 1359.26 683.316 Q1359.26 676.206 1361.74 672.482 Q1364.24 668.74 1368.96 668.74 Z" fill="#000000" fill-rule="evenodd" fill-opacity="1" /><path clip-path="url(#clip140)" d="M 0 0 M1728.79 720.803 L1736.43 720.803 L1736.43 694.437 L1728.12 696.104 L1728.12 691.845 L1736.38 690.178 L1741.06 690.178 L1741.06 720.803 L1748.7 720.803 L1748.7 724.738 L1728.79 724.738 L1728.79 720.803 Z" fill="#000000" fill-rule="evenodd" fill-opacity="1" /><path clip-path="url(#clip140)" d="M 0 0 M1763.77 693.257 Q1760.16 693.257 1758.33 696.821 Q1756.52 700.363 1756.52 707.493 Q1756.52 714.599 1758.33 718.164 Q1760.16 721.705 1763.77 721.705 Q1767.4 721.705 1769.21 718.164 Q1771.04 714.599 1771.04 707.493 Q1771.04 700.363 1769.21 696.821 Q1767.4 693.257 1763.77 693.257 M1763.77 689.553 Q1769.58 689.553 1772.63 694.159 Q1775.71 698.743 1775.71 707.493 Q1775.71 716.219 1772.63 720.826 Q1769.58 725.409 1763.77 725.409 Q1757.96 725.409 1754.88 720.826 Q1751.82 716.219 1751.82 707.493 Q1751.82 698.743 1754.88 694.159 Q1757.96 689.553 1763.77 689.553 Z" fill="#000000" fill-rule="evenodd" fill-opacity="1" /><path clip-path="url(#clip140)" d="M 0 0 M1775.71 683.654 L1799.83 683.654 L1799.83 686.852 L1775.71 686.852 L1775.71 683.654 Z" fill="#000000" fill-rule="evenodd" fill-opacity="1" /><path clip-path="url(#clip140)" d="M 0 0 M1812.07 671.749 Q1809.13 671.749 1807.65 674.645 Q1806.18 677.523 1806.18 683.316 Q1806.18 689.09 1807.65 691.986 Q1809.13 694.864 1812.07 694.864 Q1815.02 694.864 1816.49 691.986 Q1817.97 689.09 1817.97 683.316 Q1817.97 677.523 1816.49 674.645 Q1815.02 671.749 1812.07 671.749 M1812.07 668.74 Q1816.79 668.74 1819.27 672.482 Q1821.77 676.206 1821.77 683.316 Q1821.77 690.406 1819.27 694.149 Q1816.79 697.873 1812.07 697.873 Q1807.35 697.873 1804.85 694.149 Q1802.36 690.406 1802.36 683.316 Q1802.36 676.206 1804.85 672.482 Q1807.35 668.74 1812.07 668.74 Z" fill="#000000" fill-rule="evenodd" fill-opacity="1" /><path clip-path="url(#clip140)" d="M 0 0 M1825.89 692.55 L1829.86 692.55 L1829.86 697.327 L1825.89 697.327 L1825.89 692.55 Z" fill="#000000" fill-rule="evenodd" fill-opacity="1" /><path clip-path="url(#clip140)" d="M 0 0 M1837.25 694.13 L1850.51 694.13 L1850.51 697.327 L1832.68 697.327 L1832.68 694.13 Q1834.85 691.892 1838.57 688.13 Q1842.31 684.35 1843.27 683.259 Q1845.1 681.209 1845.81 679.799 Q1846.54 678.369 1846.54 676.996 Q1846.54 674.758 1844.96 673.348 Q1843.4 671.937 1840.88 671.937 Q1839.1 671.937 1837.1 672.558 Q1835.13 673.178 1832.87 674.438 L1832.87 670.602 Q1835.16 669.68 1837.16 669.21 Q1839.15 668.74 1840.81 668.74 Q1845.17 668.74 1847.77 670.921 Q1850.36 673.103 1850.36 676.752 Q1850.36 678.482 1849.7 680.043 Q1849.06 681.585 1847.35 683.692 Q1846.88 684.237 1844.36 686.852 Q1841.84 689.447 1837.25 694.13 Z" fill="#000000" fill-rule="evenodd" fill-opacity="1" /><path clip-path="url(#clip140)" d="M 0 0 M1854.67 669.247 L1869.58 669.247 L1869.58 672.445 L1858.15 672.445 L1858.15 679.328 Q1858.98 679.046 1859.8 678.915 Q1860.63 678.764 1861.46 678.764 Q1866.16 678.764 1868.91 681.341 Q1871.65 683.918 1871.65 688.319 Q1871.65 692.851 1868.83 695.371 Q1866.01 697.873 1860.88 697.873 Q1859.11 697.873 1857.26 697.572 Q1855.44 697.271 1853.48 696.669 L1853.48 692.851 Q1855.18 693.773 1856.98 694.224 Q1858.79 694.676 1860.8 694.676 Q1864.05 694.676 1865.95 692.964 Q1867.85 691.253 1867.85 688.319 Q1867.85 685.385 1865.95 683.673 Q1864.05 681.962 1860.8 681.962 Q1859.28 681.962 1857.75 682.3 Q1856.25 682.639 1854.67 683.353 L1854.67 669.247 Z" fill="#000000" fill-rule="evenodd" fill-opacity="1" /><path clip-path="url(#clip140)" d="M 0 0 M2234.7 720.803 L2242.34 720.803 L2242.34 694.437 L2234.03 696.104 L2234.03 691.845 L2242.29 690.178 L2246.97 690.178 L2246.97 720.803 L2254.61 720.803 L2254.61 724.738 L2234.7 724.738 L2234.7 720.803 Z" fill="#000000" fill-rule="evenodd" fill-opacity="1" /><path clip-path="url(#clip140)" d="M 0 0 M2269.67 693.257 Q2266.06 693.257 2264.23 696.821 Q2262.43 700.363 2262.43 707.493 Q2262.43 714.599 2264.23 718.164 Q2266.06 721.705 2269.67 721.705 Q2273.31 721.705 2275.11 718.164 Q2276.94 714.599 2276.94 707.493 Q2276.94 700.363 2275.11 696.821 Q2273.31 693.257 2269.67 693.257 M2269.67 689.553 Q2275.48 689.553 2278.54 694.159 Q2281.62 698.743 2281.62 707.493 Q2281.62 716.219 2278.54 720.826 Q2275.48 725.409 2269.67 725.409 Q2263.86 725.409 2260.79 720.826 Q2257.73 716.219 2257.73 707.493 Q2257.73 698.743 2260.79 694.159 Q2263.86 689.553 2269.67 689.553 Z" fill="#000000" fill-rule="evenodd" fill-opacity="1" /><path clip-path="url(#clip140)" d="M 0 0 M2291.32 671.749 Q2288.39 671.749 2286.9 674.645 Q2285.44 677.523 2285.44 683.316 Q2285.44 689.09 2286.9 691.986 Q2288.39 694.864 2291.32 694.864 Q2294.28 694.864 2295.74 691.986 Q2297.23 689.09 2297.23 683.316 Q2297.23 677.523 2295.74 674.645 Q2294.28 671.749 2291.32 671.749 M2291.32 668.74 Q2296.04 668.74 2298.53 672.482 Q2301.03 676.206 2301.03 683.316 Q2301.03 690.406 2298.53 694.149 Q2296.04 697.873 2291.32 697.873 Q2286.6 697.873 2284.1 694.149 Q2281.62 690.406 2281.62 683.316 Q2281.62 676.206 2284.1 672.482 Q2286.6 668.74 2291.32 668.74 Z" fill="#000000" fill-rule="evenodd" fill-opacity="1" /><path clip-path="url(#clip140)" d="M 0 0 M2305.15 692.55 L2309.12 692.55 L2309.12 697.327 L2305.15 697.327 L2305.15 692.55 Z" fill="#000000" fill-rule="evenodd" fill-opacity="1" /><path clip-path="url(#clip140)" d="M 0 0 M2321.36 671.749 Q2318.43 671.749 2316.94 674.645 Q2315.47 677.523 2315.47 683.316 Q2315.47 689.09 2316.94 691.986 Q2318.43 694.864 2321.36 694.864 Q2324.31 694.864 2325.78 691.986 Q2327.27 689.09 2327.27 683.316 Q2327.27 677.523 2325.78 674.645 Q2324.31 671.749 2321.36 671.749 M2321.36 668.74 Q2326.08 668.74 2328.56 672.482 Q2331.06 676.206 2331.06 683.316 Q2331.06 690.406 2328.56 694.149 Q2326.08 697.873 2321.36 697.873 Q2316.64 697.873 2314.14 694.149 Q2311.65 690.406 2311.65 683.316 Q2311.65 676.206 2314.14 672.482 Q2316.64 668.74 2321.36 668.74 Z" fill="#000000" fill-rule="evenodd" fill-opacity="1" /><path clip-path="url(#clip140)" d="M 0 0 M2343.31 671.749 Q2340.37 671.749 2338.89 674.645 Q2337.42 677.523 2337.42 683.316 Q2337.42 689.09 2338.89 691.986 Q2340.37 694.864 2343.31 694.864 Q2346.26 694.864 2347.73 691.986 Q2349.21 689.09 2349.21 683.316 Q2349.21 677.523 2347.73 674.645 Q2346.26 671.749 2343.31 671.749 M2343.31 668.74 Q2348.03 668.74 2350.51 672.482 Q2353.01 676.206 2353.01 683.316 Q2353.01 690.406 2350.51 694.149 Q2348.03 697.873 2343.31 697.873 Q2338.59 697.873 2336.09 694.149 Q2333.6 690.406 2333.6 683.316 Q2333.6 676.206 2336.09 672.482 Q2338.59 668.74 2343.31 668.74 Z" fill="#000000" fill-rule="evenodd" fill-opacity="1" /><polyline clip-path="url(#clip142)" style="stroke:#000000; stroke-width:2; stroke-opacity:0.1; fill:none" points="
  259.75,618.839 2352.76,618.839 
  "/>
<polyline clip-path="url(#clip142)" style="stroke:#000000; stroke-width:2; stroke-opacity:0.1; fill:none" points="
  259.75,521.578 2352.76,521.578 
  "/>
<polyline clip-path="url(#clip142)" style="stroke:#000000; stroke-width:2; stroke-opacity:0.1; fill:none" points="
  259.75,424.316 2352.76,424.316 
  "/>
<polyline clip-path="url(#clip142)" style="stroke:#000000; stroke-width:2; stroke-opacity:0.1; fill:none" points="
  259.75,327.055 2352.76,327.055 
  "/>
<polyline clip-path="url(#clip142)" style="stroke:#000000; stroke-width:2; stroke-opacity:0.1; fill:none" points="
  259.75,229.793 2352.76,229.793 
  "/>
<polyline clip-path="url(#clip142)" style="stroke:#000000; stroke-width:2; stroke-opacity:0.1; fill:none" points="
  259.75,132.532 2352.76,132.532 
  "/>
<polyline clip-path="url(#clip140)" style="stroke:#000000; stroke-width:4; stroke-opacity:1; fill:none" points="
  259.75,642.531 259.75,47.2441 
  "/>
<polyline clip-path="url(#clip140)" style="stroke:#000000; stroke-width:4; stroke-opacity:1; fill:none" points="
  259.75,618.839 284.866,618.839 
  "/>
<polyline clip-path="url(#clip140)" style="stroke:#000000; stroke-width:4; stroke-opacity:1; fill:none" points="
  259.75,521.578 284.866,521.578 
  "/>
<polyline clip-path="url(#clip140)" style="stroke:#000000; stroke-width:4; stroke-opacity:1; fill:none" points="
  259.75,424.316 284.866,424.316 
  "/>
<polyline clip-path="url(#clip140)" style="stroke:#000000; stroke-width:4; stroke-opacity:1; fill:none" points="
  259.75,327.055 284.866,327.055 
  "/>
<polyline clip-path="url(#clip140)" style="stroke:#000000; stroke-width:4; stroke-opacity:1; fill:none" points="
  259.75,229.793 284.866,229.793 
  "/>
<polyline clip-path="url(#clip140)" style="stroke:#000000; stroke-width:4; stroke-opacity:1; fill:none" points="
  259.75,132.532 284.866,132.532 
  "/>
<polyline clip-path="url(#clip140)" style="stroke:#000000; stroke-width:4; stroke-opacity:1; fill:none" points="
  259.75,636.582 272.308,636.582 
  "/>
<polyline clip-path="url(#clip140)" style="stroke:#000000; stroke-width:4; stroke-opacity:1; fill:none" points="
  259.75,597.513 272.308,597.513 
  "/>
<polyline clip-path="url(#clip140)" style="stroke:#000000; stroke-width:4; stroke-opacity:1; fill:none" points="
  259.75,577.211 272.308,577.211 
  "/>
<polyline clip-path="url(#clip140)" style="stroke:#000000; stroke-width:4; stroke-opacity:1; fill:none" points="
  259.75,557.841 272.308,557.841 
  "/>
<polyline clip-path="url(#clip140)" style="stroke:#000000; stroke-width:4; stroke-opacity:1; fill:none" points="
  259.75,539.32 272.308,539.32 
  "/>
<polyline clip-path="url(#clip140)" style="stroke:#000000; stroke-width:4; stroke-opacity:1; fill:none" points="
  259.75,500.251 272.308,500.251 
  "/>
<polyline clip-path="url(#clip140)" style="stroke:#000000; stroke-width:4; stroke-opacity:1; fill:none" points="
  259.75,479.95 272.308,479.95 
  "/>
<polyline clip-path="url(#clip140)" style="stroke:#000000; stroke-width:4; stroke-opacity:1; fill:none" points="
  259.75,460.58 272.308,460.58 
  "/>
<polyline clip-path="url(#clip140)" style="stroke:#000000; stroke-width:4; stroke-opacity:1; fill:none" points="
  259.75,442.059 272.308,442.059 
  "/>
<polyline clip-path="url(#clip140)" style="stroke:#000000; stroke-width:4; stroke-opacity:1; fill:none" points="
  259.75,402.99 272.308,402.99 
  "/>
<polyline clip-path="url(#clip140)" style="stroke:#000000; stroke-width:4; stroke-opacity:1; fill:none" points="
  259.75,382.688 272.308,382.688 
  "/>
<polyline clip-path="url(#clip140)" style="stroke:#000000; stroke-width:4; stroke-opacity:1; fill:none" points="
  259.75,363.318 272.308,363.318 
  "/>
<polyline clip-path="url(#clip140)" style="stroke:#000000; stroke-width:4; stroke-opacity:1; fill:none" points="
  259.75,344.797 272.308,344.797 
  "/>
<polyline clip-path="url(#clip140)" style="stroke:#000000; stroke-width:4; stroke-opacity:1; fill:none" points="
  259.75,305.728 272.308,305.728 
  "/>
<polyline clip-path="url(#clip140)" style="stroke:#000000; stroke-width:4; stroke-opacity:1; fill:none" points="
  259.75,285.427 272.308,285.427 
  "/>
<polyline clip-path="url(#clip140)" style="stroke:#000000; stroke-width:4; stroke-opacity:1; fill:none" points="
  259.75,266.057 272.308,266.057 
  "/>
<polyline clip-path="url(#clip140)" style="stroke:#000000; stroke-width:4; stroke-opacity:1; fill:none" points="
  259.75,247.536 272.308,247.536 
  "/>
<polyline clip-path="url(#clip140)" style="stroke:#000000; stroke-width:4; stroke-opacity:1; fill:none" points="
  259.75,208.467 272.308,208.467 
  "/>
<polyline clip-path="url(#clip140)" style="stroke:#000000; stroke-width:4; stroke-opacity:1; fill:none" points="
  259.75,188.165 272.308,188.165 
  "/>
<polyline clip-path="url(#clip140)" style="stroke:#000000; stroke-width:4; stroke-opacity:1; fill:none" points="
  259.75,168.795 272.308,168.795 
  "/>
<polyline clip-path="url(#clip140)" style="stroke:#000000; stroke-width:4; stroke-opacity:1; fill:none" points="
  259.75,150.274 272.308,150.274 
  "/>
<polyline clip-path="url(#clip140)" style="stroke:#000000; stroke-width:4; stroke-opacity:1; fill:none" points="
  259.75,111.205 272.308,111.205 
  "/>
<polyline clip-path="url(#clip140)" style="stroke:#000000; stroke-width:4; stroke-opacity:1; fill:none" points="
  259.75,90.9038 272.308,90.9038 
  "/>
<polyline clip-path="url(#clip140)" style="stroke:#000000; stroke-width:4; stroke-opacity:1; fill:none" points="
  259.75,71.5336 272.308,71.5336 
  "/>
<polyline clip-path="url(#clip140)" style="stroke:#000000; stroke-width:4; stroke-opacity:1; fill:none" points="
  259.75,53.0128 272.308,53.0128 
  "/>
<path clip-path="url(#clip140)" d="M 0 0 M131.07 638.632 L138.709 638.632 L138.709 612.266 L130.399 613.933 L130.399 609.673 L138.663 608.007 L143.338 608.007 L143.338 638.632 L150.977 638.632 L150.977 642.567 L131.07 642.567 L131.07 638.632 Z" fill="#000000" fill-rule="evenodd" fill-opacity="1" /><path clip-path="url(#clip140)" d="M 0 0 M166.047 611.085 Q162.436 611.085 160.607 614.65 Q158.801 618.192 158.801 625.321 Q158.801 632.428 160.607 635.993 Q162.436 639.534 166.047 639.534 Q169.681 639.534 171.486 635.993 Q173.315 632.428 173.315 625.321 Q173.315 618.192 171.486 614.65 Q169.681 611.085 166.047 611.085 M166.047 607.382 Q171.857 607.382 174.912 611.988 Q177.991 616.571 177.991 625.321 Q177.991 634.048 174.912 638.655 Q171.857 643.238 166.047 643.238 Q160.236 643.238 157.158 638.655 Q154.102 634.048 154.102 625.321 Q154.102 616.571 157.158 611.988 Q160.236 607.382 166.047 607.382 Z" fill="#000000" fill-rule="evenodd" fill-opacity="1" /><path clip-path="url(#clip140)" d="M 0 0 M178.536 611.959 L184.743 611.959 L184.743 590.537 L177.991 591.891 L177.991 588.43 L184.705 587.076 L188.505 587.076 L188.505 611.959 L194.711 611.959 L194.711 615.156 L178.536 615.156 L178.536 611.959 Z" fill="#000000" fill-rule="evenodd" fill-opacity="1" /><path clip-path="url(#clip140)" d="M 0 0 M198.83 610.379 L202.798 610.379 L202.798 615.156 L198.83 615.156 L198.83 610.379 Z" fill="#000000" fill-rule="evenodd" fill-opacity="1" /><path clip-path="url(#clip140)" d="M 0 0 M207.576 611.959 L213.782 611.959 L213.782 590.537 L207.03 591.891 L207.03 588.43 L213.745 587.076 L217.544 587.076 L217.544 611.959 L223.75 611.959 L223.75 615.156 L207.576 615.156 L207.576 611.959 Z" fill="#000000" fill-rule="evenodd" fill-opacity="1" /><path clip-path="url(#clip140)" d="M 0 0 M131.371 541.37 L139.01 541.37 L139.01 515.004 L130.7 516.671 L130.7 512.412 L138.963 510.745 L143.639 510.745 L143.639 541.37 L151.278 541.37 L151.278 545.305 L131.371 545.305 L131.371 541.37 Z" fill="#000000" fill-rule="evenodd" fill-opacity="1" /><path clip-path="url(#clip140)" d="M 0 0 M166.348 513.824 Q162.736 513.824 160.908 517.389 Q159.102 520.93 159.102 528.06 Q159.102 535.166 160.908 538.731 Q162.736 542.273 166.348 542.273 Q169.982 542.273 171.787 538.731 Q173.616 535.166 173.616 528.06 Q173.616 520.93 171.787 517.389 Q169.982 513.824 166.348 513.824 M166.348 510.12 Q172.158 510.12 175.213 514.727 Q178.292 519.31 178.292 528.06 Q178.292 536.787 175.213 541.393 Q172.158 545.977 166.348 545.977 Q160.537 545.977 157.459 541.393 Q154.403 536.787 154.403 528.06 Q154.403 519.31 157.459 514.727 Q160.537 510.12 166.348 510.12 Z" fill="#000000" fill-rule="evenodd" fill-opacity="1" /><path clip-path="url(#clip140)" d="M 0 0 M178.837 514.697 L185.044 514.697 L185.044 493.275 L178.292 494.63 L178.292 491.169 L185.006 489.815 L188.805 489.815 L188.805 514.697 L195.012 514.697 L195.012 517.895 L178.837 517.895 L178.837 514.697 Z" fill="#000000" fill-rule="evenodd" fill-opacity="1" /><path clip-path="url(#clip140)" d="M 0 0 M199.131 513.118 L203.099 513.118 L203.099 517.895 L199.131 517.895 L199.131 513.118 Z" fill="#000000" fill-rule="evenodd" fill-opacity="1" /><path clip-path="url(#clip140)" d="M 0 0 M210.491 514.697 L223.75 514.697 L223.75 517.895 L205.921 517.895 L205.921 514.697 Q208.083 512.459 211.807 508.698 Q215.55 504.917 216.509 503.827 Q218.334 501.777 219.048 500.366 Q219.782 498.937 219.782 497.564 Q219.782 495.325 218.202 493.915 Q216.641 492.504 214.121 492.504 Q212.334 492.504 210.34 493.125 Q208.366 493.746 206.109 495.006 L206.109 491.169 Q208.403 490.247 210.397 489.777 Q212.39 489.307 214.046 489.307 Q218.409 489.307 221.004 491.489 Q223.6 493.67 223.6 497.319 Q223.6 499.049 222.942 500.61 Q222.302 502.153 220.591 504.259 Q220.12 504.805 217.6 507.419 Q215.08 510.014 210.491 514.697 Z" fill="#000000" fill-rule="evenodd" fill-opacity="1" /><path clip-path="url(#clip140)" d="M 0 0 M130.6 444.109 L138.239 444.109 L138.239 417.743 L129.928 419.41 L129.928 415.15 L138.192 413.484 L142.868 413.484 L142.868 444.109 L150.507 444.109 L150.507 448.044 L130.6 448.044 L130.6 444.109 Z" fill="#000000" fill-rule="evenodd" fill-opacity="1" /><path clip-path="url(#clip140)" d="M 0 0 M165.576 416.562 Q161.965 416.562 160.137 420.127 Q158.331 423.669 158.331 430.798 Q158.331 437.905 160.137 441.47 Q161.965 445.011 165.576 445.011 Q169.211 445.011 171.016 441.47 Q172.845 437.905 172.845 430.798 Q172.845 423.669 171.016 420.127 Q169.211 416.562 165.576 416.562 M165.576 412.859 Q171.387 412.859 174.442 417.465 Q177.521 422.048 177.521 430.798 Q177.521 439.525 174.442 444.132 Q171.387 448.715 165.576 448.715 Q159.766 448.715 156.688 444.132 Q153.632 439.525 153.632 430.798 Q153.632 422.048 156.688 417.465 Q159.766 412.859 165.576 412.859 Z" fill="#000000" fill-rule="evenodd" fill-opacity="1" /><path clip-path="url(#clip140)" d="M 0 0 M178.066 417.436 L184.273 417.436 L184.273 396.014 L177.521 397.368 L177.521 393.907 L184.235 392.553 L188.034 392.553 L188.034 417.436 L194.241 417.436 L194.241 420.633 L178.066 420.633 L178.066 417.436 Z" fill="#000000" fill-rule="evenodd" fill-opacity="1" /><path clip-path="url(#clip140)" d="M 0 0 M198.36 415.856 L202.328 415.856 L202.328 420.633 L198.36 420.633 L198.36 415.856 Z" fill="#000000" fill-rule="evenodd" fill-opacity="1" /><path clip-path="url(#clip140)" d="M 0 0 M217.958 405.493 Q220.685 406.076 222.208 407.919 Q223.75 409.762 223.75 412.471 Q223.75 416.627 220.892 418.903 Q218.033 421.179 212.767 421.179 Q210.999 421.179 209.118 420.821 Q207.256 420.483 205.262 419.787 L205.262 416.119 Q206.842 417.041 208.723 417.511 Q210.604 417.981 212.654 417.981 Q216.227 417.981 218.089 416.571 Q219.97 415.16 219.97 412.471 Q219.97 409.988 218.221 408.596 Q216.491 407.186 213.387 407.186 L210.115 407.186 L210.115 404.064 L213.538 404.064 Q216.34 404.064 217.826 402.954 Q219.312 401.826 219.312 399.719 Q219.312 397.556 217.769 396.409 Q216.246 395.243 213.387 395.243 Q211.826 395.243 210.039 395.581 Q208.253 395.92 206.109 396.635 L206.109 393.249 Q208.272 392.647 210.152 392.346 Q212.052 392.046 213.726 392.046 Q218.052 392.046 220.572 394.02 Q223.092 395.976 223.092 399.324 Q223.092 401.656 221.757 403.274 Q220.421 404.872 217.958 405.493 Z" fill="#000000" fill-rule="evenodd" fill-opacity="1" /><path clip-path="url(#clip140)" d="M 0 0 M129.678 346.847 L137.317 346.847 L137.317 320.481 L129.007 322.148 L129.007 317.889 L137.271 316.222 L141.947 316.222 L141.947 346.847 L149.585 346.847 L149.585 350.782 L129.678 350.782 L129.678 346.847 Z" fill="#000000" fill-rule="evenodd" fill-opacity="1" /><path clip-path="url(#clip140)" d="M 0 0 M164.655 319.301 Q161.044 319.301 159.215 322.866 Q157.41 326.407 157.41 333.537 Q157.41 340.643 159.215 344.208 Q161.044 347.75 164.655 347.75 Q168.289 347.75 170.095 344.208 Q171.923 340.643 171.923 333.537 Q171.923 326.407 170.095 322.866 Q168.289 319.301 164.655 319.301 M164.655 315.597 Q170.465 315.597 173.521 320.204 Q176.599 324.787 176.599 333.537 Q176.599 342.264 173.521 346.87 Q170.465 351.454 164.655 351.454 Q158.845 351.454 155.766 346.87 Q152.71 342.264 152.71 333.537 Q152.71 324.787 155.766 320.204 Q158.845 315.597 164.655 315.597 Z" fill="#000000" fill-rule="evenodd" fill-opacity="1" /><path clip-path="url(#clip140)" d="M 0 0 M177.145 320.175 L183.351 320.175 L183.351 298.752 L176.599 300.107 L176.599 296.646 L183.314 295.292 L187.113 295.292 L187.113 320.175 L193.319 320.175 L193.319 323.372 L177.145 323.372 L177.145 320.175 Z" fill="#000000" fill-rule="evenodd" fill-opacity="1" /><path clip-path="url(#clip140)" d="M 0 0 M197.438 318.595 L201.407 318.595 L201.407 323.372 L197.438 323.372 L197.438 318.595 Z" fill="#000000" fill-rule="evenodd" fill-opacity="1" /><path clip-path="url(#clip140)" d="M 0 0 M215.964 298.602 L206.372 313.592 L215.964 313.592 L215.964 298.602 M214.967 295.292 L219.744 295.292 L219.744 313.592 L223.75 313.592 L223.75 316.751 L219.744 316.751 L219.744 323.372 L215.964 323.372 L215.964 316.751 L203.287 316.751 L203.287 313.084 L214.967 295.292 Z" fill="#000000" fill-rule="evenodd" fill-opacity="1" /><path clip-path="url(#clip140)" d="M 0 0 M130.882 249.586 L138.521 249.586 L138.521 223.22 L130.211 224.887 L130.211 220.627 L138.474 218.961 L143.15 218.961 L143.15 249.586 L150.789 249.586 L150.789 253.521 L130.882 253.521 L130.882 249.586 Z" fill="#000000" fill-rule="evenodd" fill-opacity="1" /><path clip-path="url(#clip140)" d="M 0 0 M165.859 222.039 Q162.247 222.039 160.419 225.604 Q158.613 229.146 158.613 236.275 Q158.613 243.382 160.419 246.947 Q162.247 250.488 165.859 250.488 Q169.493 250.488 171.298 246.947 Q173.127 243.382 173.127 236.275 Q173.127 229.146 171.298 225.604 Q169.493 222.039 165.859 222.039 M165.859 218.336 Q171.669 218.336 174.724 222.942 Q177.803 227.525 177.803 236.275 Q177.803 245.002 174.724 249.609 Q171.669 254.192 165.859 254.192 Q160.048 254.192 156.97 249.609 Q153.914 245.002 153.914 236.275 Q153.914 227.525 156.97 222.942 Q160.048 218.336 165.859 218.336 Z" fill="#000000" fill-rule="evenodd" fill-opacity="1" /><path clip-path="url(#clip140)" d="M 0 0 M178.348 222.913 L184.555 222.913 L184.555 201.491 L177.803 202.845 L177.803 199.384 L184.517 198.03 L188.316 198.03 L188.316 222.913 L194.523 222.913 L194.523 226.11 L178.348 226.11 L178.348 222.913 Z" fill="#000000" fill-rule="evenodd" fill-opacity="1" /><path clip-path="url(#clip140)" d="M 0 0 M198.642 221.333 L202.61 221.333 L202.61 226.11 L198.642 226.11 L198.642 221.333 Z" fill="#000000" fill-rule="evenodd" fill-opacity="1" /><path clip-path="url(#clip140)" d="M 0 0 M206.767 198.03 L221.681 198.03 L221.681 201.228 L210.246 201.228 L210.246 208.111 Q211.074 207.829 211.901 207.698 Q212.729 207.547 213.557 207.547 Q218.258 207.547 221.004 210.124 Q223.75 212.7 223.75 217.101 Q223.75 221.634 220.929 224.154 Q218.108 226.656 212.973 226.656 Q211.206 226.656 209.362 226.355 Q207.538 226.054 205.582 225.452 L205.582 221.634 Q207.275 222.556 209.08 223.007 Q210.886 223.458 212.898 223.458 Q216.152 223.458 218.052 221.747 Q219.951 220.035 219.951 217.101 Q219.951 214.167 218.052 212.456 Q216.152 210.744 212.898 210.744 Q211.375 210.744 209.851 211.083 Q208.347 211.421 206.767 212.136 L206.767 198.03 Z" fill="#000000" fill-rule="evenodd" fill-opacity="1" /><path clip-path="url(#clip140)" d="M 0 0 M129.941 152.324 L137.58 152.324 L137.58 125.958 L129.27 127.625 L129.27 123.366 L137.534 121.699 L142.21 121.699 L142.21 152.324 L149.849 152.324 L149.849 156.259 L129.941 156.259 L129.941 152.324 Z" fill="#000000" fill-rule="evenodd" fill-opacity="1" /><path clip-path="url(#clip140)" d="M 0 0 M164.918 124.778 Q161.307 124.778 159.478 128.343 Q157.673 131.884 157.673 139.014 Q157.673 146.12 159.478 149.685 Q161.307 153.227 164.918 153.227 Q168.552 153.227 170.358 149.685 Q172.187 146.12 172.187 139.014 Q172.187 131.884 170.358 128.343 Q168.552 124.778 164.918 124.778 M164.918 121.074 Q170.728 121.074 173.784 125.681 Q176.863 130.264 176.863 139.014 Q176.863 147.741 173.784 152.347 Q170.728 156.931 164.918 156.931 Q159.108 156.931 156.029 152.347 Q152.974 147.741 152.974 139.014 Q152.974 130.264 156.029 125.681 Q159.108 121.074 164.918 121.074 Z" fill="#000000" fill-rule="evenodd" fill-opacity="1" /><path clip-path="url(#clip140)" d="M 0 0 M177.408 125.652 L183.615 125.652 L183.615 104.229 L176.863 105.584 L176.863 102.123 L183.577 100.769 L187.376 100.769 L187.376 125.652 L193.583 125.652 L193.583 128.849 L177.408 128.849 L177.408 125.652 Z" fill="#000000" fill-rule="evenodd" fill-opacity="1" /><path clip-path="url(#clip140)" d="M 0 0 M197.702 124.072 L201.67 124.072 L201.67 128.849 L197.702 128.849 L197.702 124.072 Z" fill="#000000" fill-rule="evenodd" fill-opacity="1" /><path clip-path="url(#clip140)" d="M 0 0 M214.384 113.295 Q211.826 113.295 210.322 115.044 Q208.836 116.793 208.836 119.84 Q208.836 122.868 210.322 124.636 Q211.826 126.385 214.384 126.385 Q216.942 126.385 218.428 124.636 Q219.932 122.868 219.932 119.84 Q219.932 116.793 218.428 115.044 Q216.942 113.295 214.384 113.295 M221.926 101.389 L221.926 104.85 Q220.497 104.173 219.03 103.816 Q217.581 103.458 216.152 103.458 Q212.39 103.458 210.397 105.997 Q208.422 108.536 208.14 113.671 Q209.25 112.035 210.923 111.17 Q212.597 110.286 214.61 110.286 Q218.841 110.286 221.286 112.862 Q223.75 115.42 223.75 119.84 Q223.75 124.166 221.192 126.78 Q218.635 129.394 214.384 129.394 Q209.513 129.394 206.936 125.67 Q204.36 121.928 204.36 114.837 Q204.36 108.179 207.519 104.229 Q210.679 100.261 216.002 100.261 Q217.431 100.261 218.879 100.543 Q220.346 100.825 221.926 101.389 Z" fill="#000000" fill-rule="evenodd" fill-opacity="1" /><path clip-path="url(#clip140)" d="M 0 0 M56.4709 361.566 Q57.1712 359.497 59.4628 357.555 Q61.7545 355.582 65.7649 353.608 L78.7509 347.084 L78.7509 353.99 L66.5606 360.07 Q61.7863 362.425 60.2267 364.653 Q58.6671 366.849 58.6671 370.668 L58.6671 377.671 L78.7509 377.671 L78.7509 384.1 L31.2309 384.1 L31.2309 369.586 Q31.2309 361.438 34.6365 357.428 Q38.0422 353.417 44.9172 353.417 Q49.405 353.417 52.365 355.518 Q55.3251 357.587 56.4709 361.566 M36.5144 377.671 L53.3836 377.671 L53.3836 369.586 Q53.3836 364.939 51.251 362.584 Q49.0867 360.197 44.9172 360.197 Q40.7476 360.197 38.6469 362.584 Q36.5144 364.939 36.5144 369.586 L36.5144 377.671 Z" fill="#000000" fill-rule="evenodd" fill-opacity="1" /><path clip-path="url(#clip140)" d="M 0 0 M37.5648 327.445 L61.2134 336.166 L61.2134 318.692 L37.5648 327.445 M31.2309 331.074 L31.2309 323.785 L78.7509 305.675 L78.7509 312.359 L66.5606 316.687 L66.5606 338.108 L78.7509 342.437 L78.7509 349.216 L31.2309 331.074 Z" fill="#000000" fill-rule="evenodd" fill-opacity="1" /><polyline clip-path="url(#clip142)" style="stroke:#009af9; stroke-width:8; stroke-opacity:1; fill:none" points="
  318.986,64.0918 338.269,65.2874 516.568,78.8238 623.718,89.4911 714.312,100.279 812.722,114.065 903.448,128.869 1000.72,147.145 1113.41,171.603 1213.56,196.381 
  1301.38,220.467 1397.13,249.177 1493.45,280.516 1599.94,317.829 1701.27,355.682 1806.62,397.186 1895.31,433.601 2003.58,479.628 2105.36,524.222 2268.43,597.807 
  2293.52,609.326 
  "/>
<polyline clip-path="url(#clip142)" style="stroke:#ff0000; stroke-width:4; stroke-opacity:1; fill:none" points="
  318.986,466.042 1972,466.042 1972,625.683 
  "/>
<path clip-path="url(#clip140)" d="M 0 0 M2011.7 458.815 Q2011.7 461.069 2010.47 466.047 Q2009.24 471.024 2007.75 474.42 Q2004.56 481.798 1999.06 481.798 Q1998.38 481.798 1997.71 481.74 Q1997.06 481.681 1996.1 481.418 Q1995.13 481.154 1994.34 480.744 Q1993.55 480.305 1992.76 479.485 Q1992 478.665 1991.56 477.582 Q1989.13 481.798 1985.32 481.798 Q1981.63 481.798 1979.2 479.924 Q1976.8 478.051 1976.8 474.215 Q1976.8 472.488 1977.51 469.941 Q1978.21 467.393 1980.17 462.123 Q1981.25 459.401 1981.25 457.907 Q1981.25 457.234 1981.11 456.795 Q1980.96 456.356 1980.67 456.209 Q1980.41 456.034 1980.23 456.004 Q1980.05 455.946 1979.76 455.946 Q1978 455.946 1976.42 457.732 Q1974.84 459.488 1973.7 463.382 Q1973.47 464.114 1973.32 464.29 Q1973.17 464.466 1972.73 464.466 Q1972 464.436 1972 463.851 Q1972 463.617 1972.27 462.709 Q1972.53 461.772 1973.14 460.396 Q1973.79 458.991 1974.67 457.732 Q1975.55 456.443 1976.92 455.536 Q1978.33 454.628 1979.94 454.628 Q1982.1 454.628 1983.48 456.063 Q1984.86 457.497 1984.86 459.547 Q1984.86 460.132 1984.71 460.777 Q1984.56 461.391 1984.42 461.801 Q1984.3 462.182 1983.83 463.382 Q1981.9 468.447 1981.28 470.878 Q1980.7 473.308 1980.7 475.006 Q1980.7 475.562 1980.73 476.001 Q1980.76 476.44 1980.99 477.348 Q1981.25 478.256 1981.72 478.87 Q1982.19 479.456 1983.16 479.954 Q1984.15 480.451 1985.5 480.451 Q1988.87 480.451 1991.03 475.416 Q1990.97 475.123 1990.97 474.362 Q1990.97 472.663 1991.5 470.38 Q1991.65 469.853 1992.5 466.486 Q1993.35 463.09 1994.08 460.132 Q1994.84 457.146 1994.93 456.97 Q1995.22 456.151 1995.86 455.711 Q1996.51 455.272 1997.15 455.272 Q1997.88 455.272 1998.38 455.711 Q1998.88 456.151 1998.88 456.912 Q1998.88 457.058 1998.7 457.732 Q1998.56 458.376 1998.32 459.342 Q1998.09 460.308 1997.97 460.806 L1995.45 470.878 Q1994.81 473.22 1994.81 475.24 Q1994.81 477.787 1995.95 479.134 Q1997.09 480.451 1999.23 480.451 Q2003.24 480.451 2005.82 475.181 Q2006.99 472.898 2008.04 469.326 Q2009.13 465.754 2009.13 464.202 Q2009.13 461.274 2006.96 459.108 Q2006.49 458.698 2006.29 458.376 Q2006.08 458.024 2006.08 457.497 Q2006.08 456.502 2007.02 455.565 Q2007.96 454.628 2009.07 454.628 Q2010.06 454.628 2010.88 455.624 Q2011.7 456.59 2011.7 458.815 Z" fill="#000000" fill-rule="evenodd" fill-opacity="1" /><path clip-path="url(#clip140)" d="M 0 0 M2033.89 487.877 Q2034.05 488.061 2034.05 488.246 Q2034.05 488.43 2033.64 488.963 Q2033.25 489.496 2032.41 490.213 Q2031.57 490.93 2030.48 491.607 Q2029.4 492.283 2027.8 492.734 Q2026.2 493.205 2024.52 493.205 Q2021.38 493.205 2019.54 491.135 Q2017.72 489.065 2017.72 486.094 Q2017.72 483.204 2019.33 480.437 Q2020.95 477.65 2023.58 475.928 Q2026.2 474.186 2028.97 474.186 Q2031.16 474.186 2032.53 475.211 Q2033.91 476.236 2033.91 477.793 Q2033.91 479.002 2033.21 479.74 Q2032.51 480.478 2031.57 480.478 Q2030.91 480.478 2030.46 480.109 Q2030.01 479.72 2030.01 479.002 Q2030.01 478.08 2030.77 477.363 Q2031.06 477.076 2031.38 476.953 Q2031.73 476.81 2031.94 476.81 Q2032.14 476.789 2032.61 476.789 Q2032.18 475.99 2031.16 475.559 Q2030.16 475.109 2029.01 475.109 Q2027.31 475.109 2025.69 476.297 Q2024.07 477.465 2023.08 479.31 Q2022.1 481.113 2021.47 483.675 Q2020.83 486.217 2020.83 487.692 Q2020.83 489.721 2021.77 490.992 Q2022.72 492.263 2024.6 492.263 Q2024.97 492.263 2025.36 492.242 Q2025.77 492.222 2026.79 491.996 Q2027.84 491.771 2028.76 491.381 Q2029.68 490.992 2030.85 490.152 Q2032.04 489.291 2032.98 488.123 Q2033.31 487.692 2033.54 487.692 Q2033.72 487.692 2033.89 487.877 Z" fill="#000000" fill-rule="evenodd" fill-opacity="1" /><path clip-path="url(#clip140)" d="M 0 0 M2053.67 481.277 Q2053.67 483.511 2052.69 485.725 Q2051.7 487.918 2050.12 489.557 Q2048.57 491.176 2046.52 492.201 Q2044.47 493.205 2042.42 493.205 Q2039.49 493.205 2037.58 491.217 Q2035.7 489.209 2035.7 486.094 Q2035.7 483.183 2037.31 480.417 Q2038.95 477.629 2041.58 475.908 Q2044.2 474.186 2046.95 474.186 Q2049.84 474.186 2051.74 476.133 Q2053.67 478.08 2053.67 481.277 M2050.6 479.638 Q2050.6 477.65 2049.63 476.379 Q2048.67 475.109 2046.91 475.109 Q2046.39 475.109 2045.8 475.272 Q2045.21 475.416 2044.43 475.805 Q2043.67 476.195 2042.81 477.015 Q2041.97 477.814 2041.23 478.962 Q2040.27 480.478 2039.53 483.265 Q2038.81 486.032 2038.81 487.692 Q2038.81 489.988 2039.88 491.135 Q2040.94 492.263 2042.46 492.263 Q2043.93 492.263 2045.49 491.238 Q2047.07 490.193 2048.16 488.41 Q2049.24 486.565 2049.92 483.86 Q2050.6 481.134 2050.6 479.638 Z" fill="#000000" fill-rule="evenodd" fill-opacity="1" /><path clip-path="url(#clip140)" d="M 0 0 M2063.1 480.159 Q2062.25 479.192 2062.25 477.934 Q2062.25 476.675 2063.07 475.738 Q2063.92 474.772 2065.44 474.772 Q2067.23 474.772 2068.25 476.499 Q2069.27 478.197 2069.27 481.066 Q2069.27 484.17 2068.02 487.039 Q2066.76 489.938 2065.53 491.314 Q2064.3 492.69 2063.8 492.69 Q2063.21 492.69 2063.21 492.046 Q2063.21 491.811 2063.62 491.372 Q2067.93 486.746 2067.96 481.066 Q2067.96 480.159 2067.84 480.159 L2067.69 480.276 Q2066.67 481.125 2065.44 481.125 Q2063.95 481.125 2063.1 480.159 Z" fill="#000000" fill-rule="evenodd" fill-opacity="1" /><path clip-path="url(#clip140)" d="M 0 0 M2124.47 447.953 Q2124.47 446.987 2124.2 446.196 Q2123.97 445.376 2123.59 444.82 Q2123.24 444.234 2122.56 443.795 Q2121.89 443.327 2121.33 443.034 Q2120.78 442.741 2119.84 442.566 Q2118.9 442.361 2118.29 442.273 Q2117.67 442.156 2116.62 442.097 Q2115.57 442.039 2115.04 442.039 Q2114.54 442.039 2113.55 442.039 Q2110.41 442.039 2109.89 442.097 Q2109.1 442.214 2108.8 442.683 Q2108.51 443.122 2108.22 444.322 L2104.32 459.957 L2111.03 459.957 Q2114.69 459.957 2117.21 458.932 Q2119.72 457.907 2121.16 456.473 Q2122.74 454.892 2123.59 452.345 Q2124.47 449.797 2124.47 447.953 M2131 475.562 Q2131 475.884 2130.73 476.616 Q2130.5 477.348 2129.91 478.373 Q2129.33 479.368 2128.54 480.276 Q2127.75 481.183 2126.49 481.798 Q2125.23 482.442 2123.79 482.442 Q2123.44 482.442 2123.09 482.413 Q2122.74 482.413 2121.86 482.267 Q2121.01 482.15 2120.31 481.915 Q2119.61 481.71 2118.73 481.213 Q2117.85 480.744 2117.23 480.1 Q2116.65 479.427 2116.24 478.373 Q2115.83 477.289 2115.83 475.972 Q2115.83 474.801 2116.8 470.878 Q2117.64 467.54 2117.64 466.72 Q2117.64 465.812 2117.35 464.963 Q2117.09 464.114 2116.42 463.236 Q2115.77 462.358 2114.39 461.831 Q2113.02 461.274 2111.09 461.274 L2103.97 461.274 L2099.99 477.172 Q2099.99 477.202 2099.9 477.611 Q2099.81 477.992 2099.81 478.197 Q2099.81 478.578 2100.05 478.812 Q2100.31 479.046 2100.96 479.163 Q2101.6 479.251 2102.1 479.28 Q2102.63 479.28 2103.71 479.28 Q2105.06 479.28 2105.29 479.515 Q2105.41 479.661 2105.41 479.924 Q2105.41 480.334 2105.29 480.627 Q2105.2 480.891 2104.97 480.978 Q2104.76 481.066 2104.62 481.096 Q2104.47 481.125 2104.21 481.125 L2096.59 480.949 L2089.04 481.125 Q2088.19 481.125 2088.19 480.451 Q2088.19 479.866 2088.4 479.632 Q2088.6 479.368 2088.86 479.339 Q2089.13 479.28 2089.8 479.28 Q2091.27 479.28 2092.14 479.192 Q2093.02 479.105 2093.58 478.988 Q2094.16 478.841 2094.46 478.431 Q2094.78 478.021 2094.92 477.67 Q2095.07 477.289 2095.28 476.44 L2103.3 444.234 Q2103.53 443.268 2103.53 443.122 Q2103.53 442.566 2103.18 442.419 Q2102.86 442.244 2101.92 442.156 L2099.64 442.039 Q2098.94 442.039 2098.64 442.009 Q2098.38 441.98 2098.17 441.834 Q2097.97 441.687 2097.97 441.365 Q2097.97 440.545 2098.32 440.37 Q2098.67 440.165 2099.7 440.165 L2116.8 440.165 Q2122.62 440.165 2126.31 442.712 Q2130.03 445.259 2130.03 449.153 Q2130.03 450.91 2129.24 452.549 Q2128.45 454.189 2127.13 455.477 Q2125.84 456.766 2124.12 457.849 Q2122.39 458.903 2120.54 459.635 Q2118.73 460.337 2116.85 460.747 Q2117.67 461.04 2118.44 461.479 Q2119.23 461.918 2120.22 462.738 Q2121.25 463.558 2121.86 464.876 Q2122.48 466.193 2122.48 467.803 Q2122.48 468.945 2122.24 470.643 Q2121.66 475.474 2121.66 477.465 Q2121.66 479.368 2122.15 480.247 Q2122.65 481.125 2124.06 481.125 Q2125.43 481.125 2126.96 479.895 Q2128.51 478.636 2129.5 475.679 Q2129.74 474.83 2130.29 474.83 Q2130.32 474.83 2130.35 474.83 Q2130.41 474.83 2130.53 474.889 Q2130.64 474.918 2130.73 475.006 Q2130.85 475.064 2130.91 475.211 Q2131 475.357 2131 475.562 Z" fill="#000000" fill-rule="evenodd" fill-opacity="1" /><path clip-path="url(#clip140)" d="M 0 0 M2174.38 479.924 Q2174.38 480.481 2174.15 480.774 Q2173.94 481.037 2173.74 481.096 Q2173.56 481.125 2173.3 481.125 Q2172.54 481.125 2169.9 481.037 Q2167.27 480.949 2166.5 480.949 Q2165.27 480.949 2162.76 481.037 Q2160.24 481.125 2159.01 481.125 Q2158.19 481.125 2158.19 480.451 Q2158.19 480.012 2158.28 479.778 Q2158.36 479.515 2158.6 479.427 Q2158.86 479.31 2159.01 479.31 Q2159.18 479.28 2159.62 479.28 Q2160.21 479.28 2160.82 479.222 Q2161.44 479.134 2162.2 478.958 Q2162.96 478.783 2163.43 478.343 Q2163.93 477.904 2163.93 477.289 Q2163.93 477.026 2163.72 474.859 Q2163.52 472.693 2163.25 470.175 Q2162.99 467.628 2162.96 467.276 L2147.91 467.276 Q2146.54 469.648 2145.57 471.287 Q2144.6 472.927 2144.25 473.483 Q2143.9 474.04 2143.7 474.391 Q2143.49 474.742 2143.37 474.947 Q2142.53 476.499 2142.53 477.172 Q2142.53 479.046 2145.34 479.28 Q2146.3 479.28 2146.3 479.983 Q2146.3 480.51 2146.07 480.803 Q2145.83 481.066 2145.63 481.096 Q2145.45 481.125 2145.16 481.125 Q2144.19 481.125 2142.17 481.037 Q2140.15 480.949 2139.16 480.949 Q2138.31 480.949 2136.55 481.037 Q2134.8 481.125 2134.01 481.125 Q2133.65 481.125 2133.45 480.92 Q2133.24 480.715 2133.24 480.451 Q2133.24 480.042 2133.3 479.807 Q2133.39 479.573 2133.62 479.456 Q2133.86 479.339 2133.98 479.339 Q2134.09 479.31 2134.5 479.28 Q2136.73 479.134 2138.46 478.08 Q2140.21 476.997 2141.88 474.215 L2162.73 439.199 Q2162.93 438.847 2163.08 438.672 Q2163.22 438.496 2163.52 438.35 Q2163.84 438.203 2164.31 438.203 Q2165.04 438.203 2165.19 438.437 Q2165.33 438.642 2165.42 439.638 L2169.08 477.114 Q2169.17 477.904 2169.23 478.226 Q2169.31 478.519 2169.7 478.841 Q2170.11 479.134 2170.84 479.222 Q2171.6 479.28 2173 479.28 Q2173.53 479.28 2173.74 479.31 Q2173.94 479.31 2174.15 479.456 Q2174.38 479.602 2174.38 479.924 M2162.79 465.403 L2160.88 445.64 L2149.05 465.403 L2162.79 465.403 Z" fill="#000000" fill-rule="evenodd" fill-opacity="1" /><path clip-path="url(#clip140)" d="M 0 0 M2196.53 487.22 Q2196.7 487.405 2196.7 487.589 Q2196.7 487.774 2196.29 488.307 Q2195.9 488.84 2195.06 489.557 Q2194.22 490.274 2193.13 490.95 Q2192.04 491.627 2190.45 492.078 Q2188.85 492.549 2187.17 492.549 Q2184.03 492.549 2182.19 490.479 Q2180.36 488.409 2180.36 485.437 Q2180.36 482.548 2181.98 479.781 Q2183.6 476.994 2186.22 475.272 Q2188.85 473.53 2191.61 473.53 Q2193.81 473.53 2195.18 474.555 Q2196.55 475.579 2196.55 477.137 Q2196.55 478.346 2195.86 479.084 Q2195.16 479.822 2194.22 479.822 Q2193.56 479.822 2193.11 479.453 Q2192.66 479.064 2192.66 478.346 Q2192.66 477.424 2193.42 476.707 Q2193.7 476.42 2194.03 476.297 Q2194.38 476.153 2194.59 476.153 Q2194.79 476.133 2195.26 476.133 Q2194.83 475.334 2193.81 474.903 Q2192.8 474.452 2191.66 474.452 Q2189.95 474.452 2188.34 475.641 Q2186.72 476.809 2185.73 478.654 Q2184.75 480.457 2184.11 483.019 Q2183.48 485.56 2183.48 487.036 Q2183.48 489.065 2184.42 490.336 Q2185.36 491.606 2187.25 491.606 Q2187.62 491.606 2188.01 491.586 Q2188.42 491.565 2189.44 491.34 Q2190.49 491.114 2191.41 490.725 Q2192.33 490.336 2193.5 489.495 Q2194.69 488.635 2195.63 487.466 Q2195.96 487.036 2196.18 487.036 Q2196.37 487.036 2196.53 487.22 Z" fill="#000000" fill-rule="evenodd" fill-opacity="1" /><path clip-path="url(#clip140)" d="M 0 0 M2216.32 480.621 Q2216.32 482.855 2215.33 485.068 Q2214.35 487.261 2212.77 488.901 Q2211.21 490.52 2209.16 491.545 Q2207.12 492.549 2205.07 492.549 Q2202.14 492.549 2200.23 490.561 Q2198.34 488.553 2198.34 485.437 Q2198.34 482.527 2199.96 479.76 Q2201.6 476.973 2204.23 475.252 Q2206.85 473.53 2209.6 473.53 Q2212.48 473.53 2214.39 475.477 Q2216.32 477.424 2216.32 480.621 M2213.24 478.982 Q2213.24 476.994 2212.28 475.723 Q2211.32 474.452 2209.55 474.452 Q2209.04 474.452 2208.45 474.616 Q2207.85 474.76 2207.07 475.149 Q2206.32 475.538 2205.46 476.358 Q2204.61 477.158 2203.88 478.305 Q2202.91 479.822 2202.18 482.609 Q2201.46 485.376 2201.46 487.036 Q2201.46 489.331 2202.52 490.479 Q2203.59 491.606 2205.11 491.606 Q2206.58 491.606 2208.14 490.582 Q2209.72 489.536 2210.8 487.753 Q2211.89 485.909 2212.57 483.203 Q2213.24 480.478 2213.24 478.982 Z" fill="#000000" fill-rule="evenodd" fill-opacity="1" /><path clip-path="url(#clip140)" d="
M259.75 1410.9 L2352.76 1410.9 L2352.76 815.61 L259.75 815.61  Z
  " fill="#ffffff" fill-rule="evenodd" fill-opacity="1"/>
<defs>
  <clipPath id="clip143">
    <rect x="259" y="815" width="2094" height="596"/>
  </clipPath>
</defs>
<polyline clip-path="url(#clip143)" style="stroke:#000000; stroke-width:2; stroke-opacity:0.1; fill:none" points="
  318.986,1410.9 318.986,815.61 
  "/>
<polyline clip-path="url(#clip143)" style="stroke:#000000; stroke-width:2; stroke-opacity:0.1; fill:none" points="
  812.62,1410.9 812.62,815.61 
  "/>
<polyline clip-path="url(#clip143)" style="stroke:#000000; stroke-width:2; stroke-opacity:0.1; fill:none" points="
  1306.25,1410.9 1306.25,815.61 
  "/>
<polyline clip-path="url(#clip143)" style="stroke:#000000; stroke-width:2; stroke-opacity:0.1; fill:none" points="
  1799.89,1410.9 1799.89,815.61 
  "/>
<polyline clip-path="url(#clip143)" style="stroke:#000000; stroke-width:2; stroke-opacity:0.1; fill:none" points="
  2293.52,1410.9 2293.52,815.61 
  "/>
<polyline clip-path="url(#clip140)" style="stroke:#000000; stroke-width:4; stroke-opacity:1; fill:none" points="
  259.75,1410.9 2352.76,1410.9 
  "/>
<polyline clip-path="url(#clip140)" style="stroke:#000000; stroke-width:4; stroke-opacity:1; fill:none" points="
  318.986,1410.9 318.986,1403.75 
  "/>
<polyline clip-path="url(#clip140)" style="stroke:#000000; stroke-width:4; stroke-opacity:1; fill:none" points="
  812.62,1410.9 812.62,1403.75 
  "/>
<polyline clip-path="url(#clip140)" style="stroke:#000000; stroke-width:4; stroke-opacity:1; fill:none" points="
  1306.25,1410.9 1306.25,1403.75 
  "/>
<polyline clip-path="url(#clip140)" style="stroke:#000000; stroke-width:4; stroke-opacity:1; fill:none" points="
  1799.89,1410.9 1799.89,1403.75 
  "/>
<polyline clip-path="url(#clip140)" style="stroke:#000000; stroke-width:4; stroke-opacity:1; fill:none" points="
  2293.52,1410.9 2293.52,1403.75 
  "/>
<polyline clip-path="url(#clip140)" style="stroke:#000000; stroke-width:4; stroke-opacity:1; fill:none" points="
  443.043,1410.9 443.043,1407.32 
  "/>
<polyline clip-path="url(#clip140)" style="stroke:#000000; stroke-width:4; stroke-opacity:1; fill:none" points="
  551.401,1410.9 551.401,1407.32 
  "/>
<polyline clip-path="url(#clip140)" style="stroke:#000000; stroke-width:4; stroke-opacity:1; fill:none" points="
  647.589,1410.9 647.589,1407.32 
  "/>
<polyline clip-path="url(#clip140)" style="stroke:#000000; stroke-width:4; stroke-opacity:1; fill:none" points="
  734.068,1410.9 734.068,1407.32 
  "/>
<polyline clip-path="url(#clip140)" style="stroke:#000000; stroke-width:4; stroke-opacity:1; fill:none" points="
  936.677,1410.9 936.677,1407.32 
  "/>
<polyline clip-path="url(#clip140)" style="stroke:#000000; stroke-width:4; stroke-opacity:1; fill:none" points="
  1045.03,1410.9 1045.03,1407.32 
  "/>
<polyline clip-path="url(#clip140)" style="stroke:#000000; stroke-width:4; stroke-opacity:1; fill:none" points="
  1141.22,1410.9 1141.22,1407.32 
  "/>
<polyline clip-path="url(#clip140)" style="stroke:#000000; stroke-width:4; stroke-opacity:1; fill:none" points="
  1227.7,1410.9 1227.7,1407.32 
  "/>
<polyline clip-path="url(#clip140)" style="stroke:#000000; stroke-width:4; stroke-opacity:1; fill:none" points="
  1430.31,1410.9 1430.31,1407.32 
  "/>
<polyline clip-path="url(#clip140)" style="stroke:#000000; stroke-width:4; stroke-opacity:1; fill:none" points="
  1538.67,1410.9 1538.67,1407.32 
  "/>
<polyline clip-path="url(#clip140)" style="stroke:#000000; stroke-width:4; stroke-opacity:1; fill:none" points="
  1634.86,1410.9 1634.86,1407.32 
  "/>
<polyline clip-path="url(#clip140)" style="stroke:#000000; stroke-width:4; stroke-opacity:1; fill:none" points="
  1721.34,1410.9 1721.34,1407.32 
  "/>
<polyline clip-path="url(#clip140)" style="stroke:#000000; stroke-width:4; stroke-opacity:1; fill:none" points="
  1923.94,1410.9 1923.94,1407.32 
  "/>
<polyline clip-path="url(#clip140)" style="stroke:#000000; stroke-width:4; stroke-opacity:1; fill:none" points="
  2032.3,1410.9 2032.3,1407.32 
  "/>
<polyline clip-path="url(#clip140)" style="stroke:#000000; stroke-width:4; stroke-opacity:1; fill:none" points="
  2128.49,1410.9 2128.49,1407.32 
  "/>
<polyline clip-path="url(#clip140)" style="stroke:#000000; stroke-width:4; stroke-opacity:1; fill:none" points="
  2214.97,1410.9 2214.97,1407.32 
  "/>
<path clip-path="url(#clip140)" d="M 0 0 M247.337 1489.17 L254.976 1489.17 L254.976 1462.8 L246.666 1464.47 L246.666 1460.21 L254.93 1458.54 L259.606 1458.54 L259.606 1489.17 L267.245 1489.17 L267.245 1493.1 L247.337 1493.1 L247.337 1489.17 Z" fill="#000000" fill-rule="evenodd" fill-opacity="1" /><path clip-path="url(#clip140)" d="M 0 0 M282.314 1461.62 Q278.703 1461.62 276.874 1465.19 Q275.069 1468.73 275.069 1475.86 Q275.069 1482.97 276.874 1486.53 Q278.703 1490.07 282.314 1490.07 Q285.948 1490.07 287.754 1486.53 Q289.583 1482.97 289.583 1475.86 Q289.583 1468.73 287.754 1465.19 Q285.948 1461.62 282.314 1461.62 M282.314 1457.92 Q288.124 1457.92 291.18 1462.53 Q294.258 1467.11 294.258 1475.86 Q294.258 1484.59 291.18 1489.19 Q288.124 1493.78 282.314 1493.78 Q276.504 1493.78 273.425 1489.19 Q270.37 1484.59 270.37 1475.86 Q270.37 1467.11 273.425 1462.53 Q276.504 1457.92 282.314 1457.92 Z" fill="#000000" fill-rule="evenodd" fill-opacity="1" /><path clip-path="url(#clip140)" d="M 0 0 M294.258 1452.02 L318.37 1452.02 L318.37 1455.22 L294.258 1455.22 L294.258 1452.02 Z" fill="#000000" fill-rule="evenodd" fill-opacity="1" /><path clip-path="url(#clip140)" d="M 0 0 M323.147 1462.5 L329.354 1462.5 L329.354 1441.07 L322.602 1442.43 L322.602 1438.97 L329.316 1437.61 L333.115 1437.61 L333.115 1462.5 L339.322 1462.5 L339.322 1465.69 L323.147 1465.69 L323.147 1462.5 Z" fill="#000000" fill-rule="evenodd" fill-opacity="1" /><path clip-path="url(#clip140)" d="M 0 0 M343.441 1460.92 L347.409 1460.92 L347.409 1465.69 L343.441 1465.69 L343.441 1460.92 Z" fill="#000000" fill-rule="evenodd" fill-opacity="1" /><path clip-path="url(#clip140)" d="M 0 0 M359.653 1440.11 Q356.719 1440.11 355.233 1443.01 Q353.766 1445.89 353.766 1451.68 Q353.766 1457.46 355.233 1460.35 Q356.719 1463.23 359.653 1463.23 Q362.606 1463.23 364.073 1460.35 Q365.559 1457.46 365.559 1451.68 Q365.559 1445.89 364.073 1443.01 Q362.606 1440.11 359.653 1440.11 M359.653 1437.11 Q364.374 1437.11 366.856 1440.85 Q369.358 1444.57 369.358 1451.68 Q369.358 1458.77 366.856 1462.51 Q364.374 1466.24 359.653 1466.24 Q354.932 1466.24 352.431 1462.51 Q349.948 1458.77 349.948 1451.68 Q349.948 1444.57 352.431 1440.85 Q354.932 1437.11 359.653 1437.11 Z" fill="#000000" fill-rule="evenodd" fill-opacity="1" /><path clip-path="url(#clip140)" d="M 0 0 M381.602 1440.11 Q378.668 1440.11 377.182 1443.01 Q375.715 1445.89 375.715 1451.68 Q375.715 1457.46 377.182 1460.35 Q378.668 1463.23 381.602 1463.23 Q384.555 1463.23 386.022 1460.35 Q387.507 1457.46 387.507 1451.68 Q387.507 1445.89 386.022 1443.01 Q384.555 1440.11 381.602 1440.11 M381.602 1437.11 Q386.322 1437.11 388.805 1440.85 Q391.307 1444.57 391.307 1451.68 Q391.307 1458.77 388.805 1462.51 Q386.322 1466.24 381.602 1466.24 Q376.881 1466.24 374.38 1462.51 Q371.897 1458.77 371.897 1451.68 Q371.897 1444.57 374.38 1440.85 Q376.881 1437.11 381.602 1437.11 Z" fill="#000000" fill-rule="evenodd" fill-opacity="1" /><path clip-path="url(#clip140)" d="M 0 0 M741.244 1489.17 L748.882 1489.17 L748.882 1462.8 L740.572 1464.47 L740.572 1460.21 L748.836 1458.54 L753.512 1458.54 L753.512 1489.17 L761.151 1489.17 L761.151 1493.1 L741.244 1493.1 L741.244 1489.17 Z" fill="#000000" fill-rule="evenodd" fill-opacity="1" /><path clip-path="url(#clip140)" d="M 0 0 M776.22 1461.62 Q772.609 1461.62 770.78 1465.19 Q768.975 1468.73 768.975 1475.86 Q768.975 1482.97 770.78 1486.53 Q772.609 1490.07 776.22 1490.07 Q779.854 1490.07 781.66 1486.53 Q783.489 1482.97 783.489 1475.86 Q783.489 1468.73 781.66 1465.19 Q779.854 1461.62 776.22 1461.62 M776.22 1457.92 Q782.03 1457.92 785.086 1462.53 Q788.165 1467.11 788.165 1475.86 Q788.165 1484.59 785.086 1489.19 Q782.03 1493.78 776.22 1493.78 Q770.41 1493.78 767.331 1489.19 Q764.276 1484.59 764.276 1475.86 Q764.276 1467.11 767.331 1462.53 Q770.41 1457.92 776.22 1457.92 Z" fill="#000000" fill-rule="evenodd" fill-opacity="1" /><path clip-path="url(#clip140)" d="M 0 0 M788.165 1452.02 L812.276 1452.02 L812.276 1455.22 L788.165 1455.22 L788.165 1452.02 Z" fill="#000000" fill-rule="evenodd" fill-opacity="1" /><path clip-path="url(#clip140)" d="M 0 0 M824.52 1440.11 Q821.586 1440.11 820.1 1443.01 Q818.633 1445.89 818.633 1451.68 Q818.633 1457.46 820.1 1460.35 Q821.586 1463.23 824.52 1463.23 Q827.473 1463.23 828.94 1460.35 Q830.426 1457.46 830.426 1451.68 Q830.426 1445.89 828.94 1443.01 Q827.473 1440.11 824.52 1440.11 M824.52 1437.11 Q829.241 1437.11 831.723 1440.85 Q834.225 1444.57 834.225 1451.68 Q834.225 1458.77 831.723 1462.51 Q829.241 1466.24 824.52 1466.24 Q819.799 1466.24 817.298 1462.51 Q814.815 1458.77 814.815 1451.68 Q814.815 1444.57 817.298 1440.85 Q819.799 1437.11 824.52 1437.11 Z" fill="#000000" fill-rule="evenodd" fill-opacity="1" /><path clip-path="url(#clip140)" d="M 0 0 M838.344 1460.92 L842.312 1460.92 L842.312 1465.69 L838.344 1465.69 L838.344 1460.92 Z" fill="#000000" fill-rule="evenodd" fill-opacity="1" /><path clip-path="url(#clip140)" d="M 0 0 M845.472 1437.61 L863.527 1437.61 L863.527 1439.23 L853.333 1465.69 L849.365 1465.69 L858.957 1440.81 L845.472 1440.81 L845.472 1437.61 Z" fill="#000000" fill-rule="evenodd" fill-opacity="1" /><path clip-path="url(#clip140)" d="M 0 0 M867.684 1437.61 L882.598 1437.61 L882.598 1440.81 L871.163 1440.81 L871.163 1447.69 Q871.991 1447.41 872.818 1447.28 Q873.646 1447.13 874.473 1447.13 Q879.175 1447.13 881.921 1449.71 Q884.667 1452.28 884.667 1456.68 Q884.667 1461.22 881.846 1463.74 Q879.025 1466.24 873.89 1466.24 Q872.122 1466.24 870.279 1465.94 Q868.455 1465.64 866.499 1465.04 L866.499 1461.22 Q868.192 1462.14 869.997 1462.59 Q871.803 1463.04 873.815 1463.04 Q877.069 1463.04 878.968 1461.33 Q880.868 1459.62 880.868 1456.68 Q880.868 1453.75 878.968 1452.04 Q877.069 1450.33 873.815 1450.33 Q872.292 1450.33 870.768 1450.67 Q869.264 1451 867.684 1451.72 L867.684 1437.61 Z" fill="#000000" fill-rule="evenodd" fill-opacity="1" /><path clip-path="url(#clip140)" d="M 0 0 M1234.51 1489.17 L1242.15 1489.17 L1242.15 1462.8 L1233.84 1464.47 L1233.84 1460.21 L1242.1 1458.54 L1246.78 1458.54 L1246.78 1489.17 L1254.42 1489.17 L1254.42 1493.1 L1234.51 1493.1 L1234.51 1489.17 Z" fill="#000000" fill-rule="evenodd" fill-opacity="1" /><path clip-path="url(#clip140)" d="M 0 0 M1269.49 1461.62 Q1265.88 1461.62 1264.05 1465.19 Q1262.24 1468.73 1262.24 1475.86 Q1262.24 1482.97 1264.05 1486.53 Q1265.88 1490.07 1269.49 1490.07 Q1273.12 1490.07 1274.93 1486.53 Q1276.76 1482.97 1276.76 1475.86 Q1276.76 1468.73 1274.93 1465.19 Q1273.12 1461.62 1269.49 1461.62 M1269.49 1457.92 Q1275.3 1457.92 1278.35 1462.53 Q1281.43 1467.11 1281.43 1475.86 Q1281.43 1484.59 1278.35 1489.19 Q1275.3 1493.78 1269.49 1493.78 Q1263.68 1493.78 1260.6 1489.19 Q1257.54 1484.59 1257.54 1475.86 Q1257.54 1467.11 1260.6 1462.53 Q1263.68 1457.92 1269.49 1457.92 Z" fill="#000000" fill-rule="evenodd" fill-opacity="1" /><path clip-path="url(#clip140)" d="M 0 0 M1281.43 1452.02 L1305.54 1452.02 L1305.54 1455.22 L1281.43 1455.22 L1281.43 1452.02 Z" fill="#000000" fill-rule="evenodd" fill-opacity="1" /><path clip-path="url(#clip140)" d="M 0 0 M1317.79 1440.11 Q1314.85 1440.11 1313.37 1443.01 Q1311.9 1445.89 1311.9 1451.68 Q1311.9 1457.46 1313.37 1460.35 Q1314.85 1463.23 1317.79 1463.23 Q1320.74 1463.23 1322.21 1460.35 Q1323.69 1457.46 1323.69 1451.68 Q1323.69 1445.89 1322.21 1443.01 Q1320.74 1440.11 1317.79 1440.11 M1317.79 1437.11 Q1322.51 1437.11 1324.99 1440.85 Q1327.49 1444.57 1327.49 1451.68 Q1327.49 1458.77 1324.99 1462.51 Q1322.51 1466.24 1317.79 1466.24 Q1313.07 1466.24 1310.56 1462.51 Q1308.08 1458.77 1308.08 1451.68 Q1308.08 1444.57 1310.56 1440.85 Q1313.07 1437.11 1317.79 1437.11 Z" fill="#000000" fill-rule="evenodd" fill-opacity="1" /><path clip-path="url(#clip140)" d="M 0 0 M1331.61 1460.92 L1335.58 1460.92 L1335.58 1465.69 L1331.61 1465.69 L1331.61 1460.92 Z" fill="#000000" fill-rule="evenodd" fill-opacity="1" /><path clip-path="url(#clip140)" d="M 0 0 M1339.74 1437.61 L1354.65 1437.61 L1354.65 1440.81 L1343.21 1440.81 L1343.21 1447.69 Q1344.04 1447.41 1344.87 1447.28 Q1345.7 1447.13 1346.52 1447.13 Q1351.23 1447.13 1353.97 1449.71 Q1356.72 1452.28 1356.72 1456.68 Q1356.72 1461.22 1353.9 1463.74 Q1351.08 1466.24 1345.94 1466.24 Q1344.17 1466.24 1342.33 1465.94 Q1340.51 1465.64 1338.55 1465.04 L1338.55 1461.22 Q1340.24 1462.14 1342.05 1462.59 Q1343.85 1463.04 1345.87 1463.04 Q1349.12 1463.04 1351.02 1461.33 Q1352.92 1459.62 1352.92 1456.68 Q1352.92 1453.75 1351.02 1452.04 Q1349.12 1450.33 1345.87 1450.33 Q1344.34 1450.33 1342.82 1450.67 Q1341.32 1451 1339.74 1451.72 L1339.74 1437.61 Z" fill="#000000" fill-rule="evenodd" fill-opacity="1" /><path clip-path="url(#clip140)" d="M 0 0 M1368.96 1440.11 Q1366.03 1440.11 1364.54 1443.01 Q1363.08 1445.89 1363.08 1451.68 Q1363.08 1457.46 1364.54 1460.35 Q1366.03 1463.23 1368.96 1463.23 Q1371.92 1463.23 1373.38 1460.35 Q1374.87 1457.46 1374.87 1451.68 Q1374.87 1445.89 1373.38 1443.01 Q1371.92 1440.11 1368.96 1440.11 M1368.96 1437.11 Q1373.68 1437.11 1376.17 1440.85 Q1378.67 1444.57 1378.67 1451.68 Q1378.67 1458.77 1376.17 1462.51 Q1373.68 1466.24 1368.96 1466.24 Q1364.24 1466.24 1361.74 1462.51 Q1359.26 1458.77 1359.26 1451.68 Q1359.26 1444.57 1361.74 1440.85 Q1364.24 1437.11 1368.96 1437.11 Z" fill="#000000" fill-rule="evenodd" fill-opacity="1" /><path clip-path="url(#clip140)" d="M 0 0 M1728.79 1489.17 L1736.43 1489.17 L1736.43 1462.8 L1728.12 1464.47 L1728.12 1460.21 L1736.38 1458.54 L1741.06 1458.54 L1741.06 1489.17 L1748.7 1489.17 L1748.7 1493.1 L1728.79 1493.1 L1728.79 1489.17 Z" fill="#000000" fill-rule="evenodd" fill-opacity="1" /><path clip-path="url(#clip140)" d="M 0 0 M1763.77 1461.62 Q1760.16 1461.62 1758.33 1465.19 Q1756.52 1468.73 1756.52 1475.86 Q1756.52 1482.97 1758.33 1486.53 Q1760.16 1490.07 1763.77 1490.07 Q1767.4 1490.07 1769.21 1486.53 Q1771.04 1482.97 1771.04 1475.86 Q1771.04 1468.73 1769.21 1465.19 Q1767.4 1461.62 1763.77 1461.62 M1763.77 1457.92 Q1769.58 1457.92 1772.63 1462.53 Q1775.71 1467.11 1775.71 1475.86 Q1775.71 1484.59 1772.63 1489.19 Q1769.58 1493.78 1763.77 1493.78 Q1757.96 1493.78 1754.88 1489.19 Q1751.82 1484.59 1751.82 1475.86 Q1751.82 1467.11 1754.88 1462.53 Q1757.96 1457.92 1763.77 1457.92 Z" fill="#000000" fill-rule="evenodd" fill-opacity="1" /><path clip-path="url(#clip140)" d="M 0 0 M1775.71 1452.02 L1799.83 1452.02 L1799.83 1455.22 L1775.71 1455.22 L1775.71 1452.02 Z" fill="#000000" fill-rule="evenodd" fill-opacity="1" /><path clip-path="url(#clip140)" d="M 0 0 M1812.07 1440.11 Q1809.13 1440.11 1807.65 1443.01 Q1806.18 1445.89 1806.18 1451.68 Q1806.18 1457.46 1807.65 1460.35 Q1809.13 1463.23 1812.07 1463.23 Q1815.02 1463.23 1816.49 1460.35 Q1817.97 1457.46 1817.97 1451.68 Q1817.97 1445.89 1816.49 1443.01 Q1815.02 1440.11 1812.07 1440.11 M1812.07 1437.11 Q1816.79 1437.11 1819.27 1440.85 Q1821.77 1444.57 1821.77 1451.68 Q1821.77 1458.77 1819.27 1462.51 Q1816.79 1466.24 1812.07 1466.24 Q1807.35 1466.24 1804.85 1462.51 Q1802.36 1458.77 1802.36 1451.68 Q1802.36 1444.57 1804.85 1440.85 Q1807.35 1437.11 1812.07 1437.11 Z" fill="#000000" fill-rule="evenodd" fill-opacity="1" /><path clip-path="url(#clip140)" d="M 0 0 M1825.89 1460.92 L1829.86 1460.92 L1829.86 1465.69 L1825.89 1465.69 L1825.89 1460.92 Z" fill="#000000" fill-rule="evenodd" fill-opacity="1" /><path clip-path="url(#clip140)" d="M 0 0 M1837.25 1462.5 L1850.51 1462.5 L1850.51 1465.69 L1832.68 1465.69 L1832.68 1462.5 Q1834.85 1460.26 1838.57 1456.5 Q1842.31 1452.72 1843.27 1451.63 Q1845.1 1449.58 1845.81 1448.16 Q1846.54 1446.74 1846.54 1445.36 Q1846.54 1443.12 1844.96 1441.71 Q1843.4 1440.3 1840.88 1440.3 Q1839.1 1440.3 1837.1 1440.92 Q1835.13 1441.54 1832.87 1442.8 L1832.87 1438.97 Q1835.16 1438.05 1837.16 1437.58 Q1839.15 1437.11 1840.81 1437.11 Q1845.17 1437.11 1847.77 1439.29 Q1850.36 1441.47 1850.36 1445.12 Q1850.36 1446.85 1849.7 1448.41 Q1849.06 1449.95 1847.35 1452.06 Q1846.88 1452.6 1844.36 1455.22 Q1841.84 1457.81 1837.25 1462.5 Z" fill="#000000" fill-rule="evenodd" fill-opacity="1" /><path clip-path="url(#clip140)" d="M 0 0 M1854.67 1437.61 L1869.58 1437.61 L1869.58 1440.81 L1858.15 1440.81 L1858.15 1447.69 Q1858.98 1447.41 1859.8 1447.28 Q1860.63 1447.13 1861.46 1447.13 Q1866.16 1447.13 1868.91 1449.71 Q1871.65 1452.28 1871.65 1456.68 Q1871.65 1461.22 1868.83 1463.74 Q1866.01 1466.24 1860.88 1466.24 Q1859.11 1466.24 1857.26 1465.94 Q1855.44 1465.64 1853.48 1465.04 L1853.48 1461.22 Q1855.18 1462.14 1856.98 1462.59 Q1858.79 1463.04 1860.8 1463.04 Q1864.05 1463.04 1865.95 1461.33 Q1867.85 1459.62 1867.85 1456.68 Q1867.85 1453.75 1865.95 1452.04 Q1864.05 1450.33 1860.8 1450.33 Q1859.28 1450.33 1857.75 1450.67 Q1856.25 1451 1854.67 1451.72 L1854.67 1437.61 Z" fill="#000000" fill-rule="evenodd" fill-opacity="1" /><path clip-path="url(#clip140)" d="M 0 0 M2234.7 1489.17 L2242.34 1489.17 L2242.34 1462.8 L2234.03 1464.47 L2234.03 1460.21 L2242.29 1458.54 L2246.97 1458.54 L2246.97 1489.17 L2254.61 1489.17 L2254.61 1493.1 L2234.7 1493.1 L2234.7 1489.17 Z" fill="#000000" fill-rule="evenodd" fill-opacity="1" /><path clip-path="url(#clip140)" d="M 0 0 M2269.67 1461.62 Q2266.06 1461.62 2264.23 1465.19 Q2262.43 1468.73 2262.43 1475.86 Q2262.43 1482.97 2264.23 1486.53 Q2266.06 1490.07 2269.67 1490.07 Q2273.31 1490.07 2275.11 1486.53 Q2276.94 1482.97 2276.94 1475.86 Q2276.94 1468.73 2275.11 1465.19 Q2273.31 1461.62 2269.67 1461.62 M2269.67 1457.92 Q2275.48 1457.92 2278.54 1462.53 Q2281.62 1467.11 2281.62 1475.86 Q2281.62 1484.59 2278.54 1489.19 Q2275.48 1493.78 2269.67 1493.78 Q2263.86 1493.78 2260.79 1489.19 Q2257.73 1484.59 2257.73 1475.86 Q2257.73 1467.11 2260.79 1462.53 Q2263.86 1457.92 2269.67 1457.92 Z" fill="#000000" fill-rule="evenodd" fill-opacity="1" /><path clip-path="url(#clip140)" d="M 0 0 M2291.32 1440.11 Q2288.39 1440.11 2286.9 1443.01 Q2285.44 1445.89 2285.44 1451.68 Q2285.44 1457.46 2286.9 1460.35 Q2288.39 1463.23 2291.32 1463.23 Q2294.28 1463.23 2295.74 1460.35 Q2297.23 1457.46 2297.23 1451.68 Q2297.23 1445.89 2295.74 1443.01 Q2294.28 1440.11 2291.32 1440.11 M2291.32 1437.11 Q2296.04 1437.11 2298.53 1440.85 Q2301.03 1444.57 2301.03 1451.68 Q2301.03 1458.77 2298.53 1462.51 Q2296.04 1466.24 2291.32 1466.24 Q2286.6 1466.24 2284.1 1462.51 Q2281.62 1458.77 2281.62 1451.68 Q2281.62 1444.57 2284.1 1440.85 Q2286.6 1437.11 2291.32 1437.11 Z" fill="#000000" fill-rule="evenodd" fill-opacity="1" /><path clip-path="url(#clip140)" d="M 0 0 M2305.15 1460.92 L2309.12 1460.92 L2309.12 1465.69 L2305.15 1465.69 L2305.15 1460.92 Z" fill="#000000" fill-rule="evenodd" fill-opacity="1" /><path clip-path="url(#clip140)" d="M 0 0 M2321.36 1440.11 Q2318.43 1440.11 2316.94 1443.01 Q2315.47 1445.89 2315.47 1451.68 Q2315.47 1457.46 2316.94 1460.35 Q2318.43 1463.23 2321.36 1463.23 Q2324.31 1463.23 2325.78 1460.35 Q2327.27 1457.46 2327.27 1451.68 Q2327.27 1445.89 2325.78 1443.01 Q2324.31 1440.11 2321.36 1440.11 M2321.36 1437.11 Q2326.08 1437.11 2328.56 1440.85 Q2331.06 1444.57 2331.06 1451.68 Q2331.06 1458.77 2328.56 1462.51 Q2326.08 1466.24 2321.36 1466.24 Q2316.64 1466.24 2314.14 1462.51 Q2311.65 1458.77 2311.65 1451.68 Q2311.65 1444.57 2314.14 1440.85 Q2316.64 1437.11 2321.36 1437.11 Z" fill="#000000" fill-rule="evenodd" fill-opacity="1" /><path clip-path="url(#clip140)" d="M 0 0 M2343.31 1440.11 Q2340.37 1440.11 2338.89 1443.01 Q2337.42 1445.89 2337.42 1451.68 Q2337.42 1457.46 2338.89 1460.35 Q2340.37 1463.23 2343.31 1463.23 Q2346.26 1463.23 2347.73 1460.35 Q2349.21 1457.46 2349.21 1451.68 Q2349.21 1445.89 2347.73 1443.01 Q2346.26 1440.11 2343.31 1440.11 M2343.31 1437.11 Q2348.03 1437.11 2350.51 1440.85 Q2353.01 1444.57 2353.01 1451.68 Q2353.01 1458.77 2350.51 1462.51 Q2348.03 1466.24 2343.31 1466.24 Q2338.59 1466.24 2336.09 1462.51 Q2333.6 1458.77 2333.6 1451.68 Q2333.6 1444.57 2336.09 1440.85 Q2338.59 1437.11 2343.31 1437.11 Z" fill="#000000" fill-rule="evenodd" fill-opacity="1" /><path clip-path="url(#clip140)" d="M 0 0 M1296.55 1575.11 Q1283.34 1575.11 1283.34 1556.2 Q1283.34 1548.72 1288.27 1538.54 L1294.57 1538.54 Q1290.02 1548.72 1290.02 1556.36 Q1290.02 1570.14 1297.09 1570.14 Q1303.55 1570.14 1303.55 1553.02 L1308.96 1553.02 Q1308.96 1570.14 1315.42 1570.14 Q1322.49 1570.14 1322.49 1556.36 Q1322.49 1548.72 1317.93 1538.54 L1324.24 1538.54 Q1329.17 1548.72 1329.17 1556.2 Q1329.17 1575.11 1315.96 1575.11 Q1307.3 1575.11 1306.25 1565.59 Q1304.95 1575.11 1296.55 1575.11 Z" fill="#000000" fill-rule="evenodd" fill-opacity="1" /><polyline clip-path="url(#clip143)" style="stroke:#000000; stroke-width:2; stroke-opacity:0.1; fill:none" points="
  259.75,1277.28 2352.76,1277.28 
  "/>
<polyline clip-path="url(#clip143)" style="stroke:#000000; stroke-width:2; stroke-opacity:0.1; fill:none" points="
  259.75,1141.04 2352.76,1141.04 
  "/>
<polyline clip-path="url(#clip143)" style="stroke:#000000; stroke-width:2; stroke-opacity:0.1; fill:none" points="
  259.75,1004.81 2352.76,1004.81 
  "/>
<polyline clip-path="url(#clip143)" style="stroke:#000000; stroke-width:2; stroke-opacity:0.1; fill:none" points="
  259.75,868.574 2352.76,868.574 
  "/>
<polyline clip-path="url(#clip140)" style="stroke:#000000; stroke-width:4; stroke-opacity:1; fill:none" points="
  259.75,1410.9 259.75,815.61 
  "/>
<polyline clip-path="url(#clip140)" style="stroke:#000000; stroke-width:4; stroke-opacity:1; fill:none" points="
  259.75,1277.28 284.866,1277.28 
  "/>
<polyline clip-path="url(#clip140)" style="stroke:#000000; stroke-width:4; stroke-opacity:1; fill:none" points="
  259.75,1141.04 284.866,1141.04 
  "/>
<polyline clip-path="url(#clip140)" style="stroke:#000000; stroke-width:4; stroke-opacity:1; fill:none" points="
  259.75,1004.81 284.866,1004.81 
  "/>
<polyline clip-path="url(#clip140)" style="stroke:#000000; stroke-width:4; stroke-opacity:1; fill:none" points="
  259.75,868.574 284.866,868.574 
  "/>
<polyline clip-path="url(#clip140)" style="stroke:#000000; stroke-width:4; stroke-opacity:1; fill:none" points="
  259.75,1386.27 272.308,1386.27 
  "/>
<polyline clip-path="url(#clip140)" style="stroke:#000000; stroke-width:4; stroke-opacity:1; fill:none" points="
  259.75,1359.02 272.308,1359.02 
  "/>
<polyline clip-path="url(#clip140)" style="stroke:#000000; stroke-width:4; stroke-opacity:1; fill:none" points="
  259.75,1331.77 272.308,1331.77 
  "/>
<polyline clip-path="url(#clip140)" style="stroke:#000000; stroke-width:4; stroke-opacity:1; fill:none" points="
  259.75,1304.52 272.308,1304.52 
  "/>
<polyline clip-path="url(#clip140)" style="stroke:#000000; stroke-width:4; stroke-opacity:1; fill:none" points="
  259.75,1250.03 272.308,1250.03 
  "/>
<polyline clip-path="url(#clip140)" style="stroke:#000000; stroke-width:4; stroke-opacity:1; fill:none" points="
  259.75,1222.78 272.308,1222.78 
  "/>
<polyline clip-path="url(#clip140)" style="stroke:#000000; stroke-width:4; stroke-opacity:1; fill:none" points="
  259.75,1195.54 272.308,1195.54 
  "/>
<polyline clip-path="url(#clip140)" style="stroke:#000000; stroke-width:4; stroke-opacity:1; fill:none" points="
  259.75,1168.29 272.308,1168.29 
  "/>
<polyline clip-path="url(#clip140)" style="stroke:#000000; stroke-width:4; stroke-opacity:1; fill:none" points="
  259.75,1113.8 272.308,1113.8 
  "/>
<polyline clip-path="url(#clip140)" style="stroke:#000000; stroke-width:4; stroke-opacity:1; fill:none" points="
  259.75,1086.55 272.308,1086.55 
  "/>
<polyline clip-path="url(#clip140)" style="stroke:#000000; stroke-width:4; stroke-opacity:1; fill:none" points="
  259.75,1059.3 272.308,1059.3 
  "/>
<polyline clip-path="url(#clip140)" style="stroke:#000000; stroke-width:4; stroke-opacity:1; fill:none" points="
  259.75,1032.06 272.308,1032.06 
  "/>
<polyline clip-path="url(#clip140)" style="stroke:#000000; stroke-width:4; stroke-opacity:1; fill:none" points="
  259.75,977.562 272.308,977.562 
  "/>
<polyline clip-path="url(#clip140)" style="stroke:#000000; stroke-width:4; stroke-opacity:1; fill:none" points="
  259.75,950.315 272.308,950.315 
  "/>
<polyline clip-path="url(#clip140)" style="stroke:#000000; stroke-width:4; stroke-opacity:1; fill:none" points="
  259.75,923.068 272.308,923.068 
  "/>
<polyline clip-path="url(#clip140)" style="stroke:#000000; stroke-width:4; stroke-opacity:1; fill:none" points="
  259.75,895.821 272.308,895.821 
  "/>
<polyline clip-path="url(#clip140)" style="stroke:#000000; stroke-width:4; stroke-opacity:1; fill:none" points="
  259.75,841.327 272.308,841.327 
  "/>
<path clip-path="url(#clip140)" d="M 0 0 M114.631 1277.73 L144.306 1277.73 L144.306 1281.66 L114.631 1281.66 L114.631 1277.73 Z" fill="#000000" fill-rule="evenodd" fill-opacity="1" /><path clip-path="url(#clip140)" d="M 0 0 M153.403 1290.62 L169.723 1290.62 L169.723 1294.56 L147.778 1294.56 L147.778 1290.62 Q150.441 1287.87 155.024 1283.24 Q159.63 1278.59 160.811 1277.24 Q163.056 1274.72 163.936 1272.98 Q164.839 1271.22 164.839 1269.53 Q164.839 1266.78 162.894 1265.04 Q160.973 1263.31 157.871 1263.31 Q155.672 1263.31 153.218 1264.07 Q150.788 1264.84 148.01 1266.39 L148.01 1261.66 Q150.834 1260.53 153.288 1259.95 Q155.741 1259.37 157.778 1259.37 Q163.149 1259.37 166.343 1262.06 Q169.538 1264.74 169.538 1269.23 Q169.538 1271.36 168.727 1273.28 Q167.94 1275.18 165.834 1277.78 Q165.255 1278.45 162.153 1281.66 Q159.052 1284.86 153.403 1290.62 Z" fill="#000000" fill-rule="evenodd" fill-opacity="1" /><path clip-path="url(#clip140)" d="M 0 0 M184.792 1263.08 Q181.181 1263.08 179.352 1266.64 Q177.547 1270.18 177.547 1277.31 Q177.547 1284.42 179.352 1287.98 Q181.181 1291.53 184.792 1291.53 Q188.426 1291.53 190.232 1287.98 Q192.061 1284.42 192.061 1277.31 Q192.061 1270.18 190.232 1266.64 Q188.426 1263.08 184.792 1263.08 M184.792 1259.37 Q190.602 1259.37 193.658 1263.98 Q196.737 1268.56 196.737 1277.31 Q196.737 1286.04 193.658 1290.65 Q190.602 1295.23 184.792 1295.23 Q178.982 1295.23 175.903 1290.65 Q172.848 1286.04 172.848 1277.31 Q172.848 1268.56 175.903 1263.98 Q178.982 1259.37 184.792 1259.37 Z" fill="#000000" fill-rule="evenodd" fill-opacity="1" /><path clip-path="url(#clip140)" d="M 0 0 M211.806 1263.08 Q208.195 1263.08 206.366 1266.64 Q204.561 1270.18 204.561 1277.31 Q204.561 1284.42 206.366 1287.98 Q208.195 1291.53 211.806 1291.53 Q215.44 1291.53 217.246 1287.98 Q219.074 1284.42 219.074 1277.31 Q219.074 1270.18 217.246 1266.64 Q215.44 1263.08 211.806 1263.08 M211.806 1259.37 Q217.616 1259.37 220.672 1263.98 Q223.75 1268.56 223.75 1277.31 Q223.75 1286.04 220.672 1290.65 Q217.616 1295.23 211.806 1295.23 Q205.996 1295.23 202.917 1290.65 Q199.862 1286.04 199.862 1277.31 Q199.862 1268.56 202.917 1263.98 Q205.996 1259.37 211.806 1259.37 Z" fill="#000000" fill-rule="evenodd" fill-opacity="1" /><path clip-path="url(#clip140)" d="M 0 0 M115.256 1141.49 L144.931 1141.49 L144.931 1145.43 L115.256 1145.43 L115.256 1141.49 Z" fill="#000000" fill-rule="evenodd" fill-opacity="1" /><path clip-path="url(#clip140)" d="M 0 0 M150.811 1154.39 L158.45 1154.39 L158.45 1128.02 L150.14 1129.69 L150.14 1125.43 L158.403 1123.76 L163.079 1123.76 L163.079 1154.39 L170.718 1154.39 L170.718 1158.32 L150.811 1158.32 L150.811 1154.39 Z" fill="#000000" fill-rule="evenodd" fill-opacity="1" /><path clip-path="url(#clip140)" d="M 0 0 M175.834 1123.76 L194.19 1123.76 L194.19 1127.7 L180.116 1127.7 L180.116 1136.17 Q181.135 1135.82 182.153 1135.66 Q183.172 1135.48 184.19 1135.48 Q189.977 1135.48 193.357 1138.65 Q196.737 1141.82 196.737 1147.24 Q196.737 1152.81 193.264 1155.92 Q189.792 1158.99 183.473 1158.99 Q181.297 1158.99 179.028 1158.62 Q176.783 1158.25 174.376 1157.51 L174.376 1152.81 Q176.459 1153.95 178.681 1154.5 Q180.903 1155.06 183.38 1155.06 Q187.385 1155.06 189.723 1152.95 Q192.061 1150.85 192.061 1147.24 Q192.061 1143.62 189.723 1141.52 Q187.385 1139.41 183.38 1139.41 Q181.505 1139.41 179.63 1139.83 Q177.778 1140.24 175.834 1141.12 L175.834 1123.76 Z" fill="#000000" fill-rule="evenodd" fill-opacity="1" /><path clip-path="url(#clip140)" d="M 0 0 M211.806 1126.84 Q208.195 1126.84 206.366 1130.41 Q204.561 1133.95 204.561 1141.08 Q204.561 1148.18 206.366 1151.75 Q208.195 1155.29 211.806 1155.29 Q215.44 1155.29 217.246 1151.75 Q219.074 1148.18 219.074 1141.08 Q219.074 1133.95 217.246 1130.41 Q215.44 1126.84 211.806 1126.84 M211.806 1123.14 Q217.616 1123.14 220.672 1127.74 Q223.75 1132.33 223.75 1141.08 Q223.75 1149.8 220.672 1154.41 Q217.616 1158.99 211.806 1158.99 Q205.996 1158.99 202.917 1154.41 Q199.862 1149.8 199.862 1141.08 Q199.862 1132.33 202.917 1127.74 Q205.996 1123.14 211.806 1123.14 Z" fill="#000000" fill-rule="evenodd" fill-opacity="1" /><path clip-path="url(#clip140)" d="M 0 0 M114.26 1005.26 L143.936 1005.26 L143.936 1009.2 L114.26 1009.2 L114.26 1005.26 Z" fill="#000000" fill-rule="evenodd" fill-opacity="1" /><path clip-path="url(#clip140)" d="M 0 0 M149.816 1018.15 L157.454 1018.15 L157.454 991.788 L149.144 993.455 L149.144 989.195 L157.408 987.529 L162.084 987.529 L162.084 1018.15 L169.723 1018.15 L169.723 1022.09 L149.816 1022.09 L149.816 1018.15 Z" fill="#000000" fill-rule="evenodd" fill-opacity="1" /><path clip-path="url(#clip140)" d="M 0 0 M184.792 990.607 Q181.181 990.607 179.352 994.172 Q177.547 997.714 177.547 1004.84 Q177.547 1011.95 179.352 1015.51 Q181.181 1019.06 184.792 1019.06 Q188.426 1019.06 190.232 1015.51 Q192.061 1011.95 192.061 1004.84 Q192.061 997.714 190.232 994.172 Q188.426 990.607 184.792 990.607 M184.792 986.904 Q190.602 986.904 193.658 991.51 Q196.737 996.093 196.737 1004.84 Q196.737 1013.57 193.658 1018.18 Q190.602 1022.76 184.792 1022.76 Q178.982 1022.76 175.903 1018.18 Q172.848 1013.57 172.848 1004.84 Q172.848 996.093 175.903 991.51 Q178.982 986.904 184.792 986.904 Z" fill="#000000" fill-rule="evenodd" fill-opacity="1" /><path clip-path="url(#clip140)" d="M 0 0 M211.806 990.607 Q208.195 990.607 206.366 994.172 Q204.561 997.714 204.561 1004.84 Q204.561 1011.95 206.366 1015.51 Q208.195 1019.06 211.806 1019.06 Q215.44 1019.06 217.246 1015.51 Q219.074 1011.95 219.074 1004.84 Q219.074 997.714 217.246 994.172 Q215.44 990.607 211.806 990.607 M211.806 986.904 Q217.616 986.904 220.672 991.51 Q223.75 996.093 223.75 1004.84 Q223.75 1013.57 220.672 1018.18 Q217.616 1022.76 211.806 1022.76 Q205.996 1022.76 202.917 1018.18 Q199.862 1013.57 199.862 1004.84 Q199.862 996.093 202.917 991.51 Q205.996 986.904 211.806 986.904 Z" fill="#000000" fill-rule="evenodd" fill-opacity="1" /><path clip-path="url(#clip140)" d="M 0 0 M141.042 869.025 L170.718 869.025 L170.718 872.961 L141.042 872.961 L141.042 869.025 Z" fill="#000000" fill-rule="evenodd" fill-opacity="1" /><path clip-path="url(#clip140)" d="M 0 0 M175.834 851.294 L194.19 851.294 L194.19 855.229 L180.116 855.229 L180.116 863.701 Q181.135 863.354 182.153 863.192 Q183.172 863.007 184.19 863.007 Q189.977 863.007 193.357 866.178 Q196.737 869.349 196.737 874.766 Q196.737 880.345 193.264 883.447 Q189.792 886.525 183.473 886.525 Q181.297 886.525 179.028 886.155 Q176.783 885.785 174.376 885.044 L174.376 880.345 Q176.459 881.479 178.681 882.035 Q180.903 882.59 183.38 882.59 Q187.385 882.59 189.723 880.484 Q192.061 878.377 192.061 874.766 Q192.061 871.155 189.723 869.049 Q187.385 866.942 183.38 866.942 Q181.505 866.942 179.63 867.359 Q177.778 867.775 175.834 868.655 L175.834 851.294 Z" fill="#000000" fill-rule="evenodd" fill-opacity="1" /><path clip-path="url(#clip140)" d="M 0 0 M211.806 854.373 Q208.195 854.373 206.366 857.938 Q204.561 861.479 204.561 868.609 Q204.561 875.715 206.366 879.28 Q208.195 882.822 211.806 882.822 Q215.44 882.822 217.246 879.28 Q219.074 875.715 219.074 868.609 Q219.074 861.479 217.246 857.938 Q215.44 854.373 211.806 854.373 M211.806 850.669 Q217.616 850.669 220.672 855.275 Q223.75 859.859 223.75 868.609 Q223.75 877.336 220.672 881.942 Q217.616 886.525 211.806 886.525 Q205.996 886.525 202.917 881.942 Q199.862 877.336 199.862 868.609 Q199.862 859.859 202.917 855.275 Q205.996 850.669 211.806 850.669 Z" fill="#000000" fill-rule="evenodd" fill-opacity="1" /><path clip-path="url(#clip140)" d="M 0 0 M33.0987 1108.27 Q33.0987 1110.34 37.7138 1110.34 L59.5482 1110.34 Q59.5482 1107.32 56.238 1104.29 Q53.2779 1101.59 46.1802 1101.59 Q39.5598 1101.59 35.995 1104.33 Q33.0987 1106.55 33.0987 1108.27 M28.1016 1108.27 Q28.1016 1103.82 32.3029 1099.77 Q36.7908 1095.41 46.1802 1095.41 Q54.8057 1095.41 59.9301 1099.77 Q64.768 1103.88 64.768 1110.34 L77.5631 1110.34 L77.5631 1116.17 L64.7999 1116.17 Q64.7999 1122.5 59.9301 1126.76 Q54.9649 1131.09 46.212 1131.09 Q37.109 1131.09 32.4621 1126.76 Q28.9928 1123.52 28.1016 1118.23 L33.2896 1118.23 Q34.0217 1120.34 36.5043 1122.18 Q40.1646 1124.92 46.212 1124.92 Q52.6414 1124.92 56.3017 1122.18 Q59.58 1119.73 59.58 1116.17 L37.7138 1116.17 Q28.1016 1116.17 28.1016 1108.27 Z" fill="#000000" fill-rule="evenodd" fill-opacity="1" /><polyline clip-path="url(#clip143)" style="stroke:#009af9; stroke-width:8; stroke-opacity:1; fill:none" points="
  318.986,832.458 338.931,834.7 358.876,836.987 378.821,839.321 398.765,841.701 418.71,844.128 438.655,846.603 458.6,849.127 478.545,851.7 498.489,854.322 
  518.434,856.995 538.379,859.718 558.324,862.493 578.269,865.32 598.213,868.199 618.158,871.131 638.103,874.116 658.048,877.156 677.992,880.249 697.937,883.397 
  717.882,886.601 737.827,889.86 757.772,893.175 777.716,896.546 797.661,899.974 817.606,903.459 837.551,907.002 857.495,910.602 877.44,914.261 897.385,917.978 
  917.33,921.753 937.275,925.588 957.219,929.483 977.164,933.437 997.109,937.451 1017.05,941.525 1037,945.66 1056.94,949.856 1076.89,954.113 1096.83,958.432 
  1116.78,962.814 1136.72,967.258 1156.67,971.764 1176.61,976.335 1196.56,980.969 1216.5,985.668 1236.45,990.432 1256.39,995.262 1276.34,1000.16 1296.28,1005.12 
  1316.23,1010.15 1336.17,1015.25 1356.12,1020.42 1376.06,1025.66 1396,1030.97 1415.95,1036.36 1435.89,1041.82 1455.84,1047.35 1475.78,1052.96 1495.73,1058.65 
  1515.67,1064.42 1535.62,1070.27 1555.56,1076.2 1575.51,1082.22 1595.45,1088.32 1615.4,1094.51 1635.34,1100.79 1655.29,1107.16 1675.23,1113.63 1695.18,1120.19 
  1715.12,1126.86 1735.07,1133.62 1755.01,1140.49 1774.96,1147.47 1794.9,1154.56 1814.85,1161.75 1834.79,1169.07 1854.73,1176.5 1874.68,1184.06 1894.62,1191.74 
  1914.57,1199.55 1934.51,1207.49 1954.46,1215.57 1974.4,1223.78 1994.35,1232.14 2014.29,1240.65 2034.24,1249.31 2054.18,1258.12 2074.13,1267.1 2094.07,1276.24 
  2114.02,1285.54 2133.96,1295.02 2153.91,1304.68 2173.85,1314.52 2193.8,1324.55 2213.74,1334.77 2233.69,1345.19 2253.63,1355.81 2273.58,1366.65 2293.52,1377.69 
  
  "/>
<polyline clip-path="url(#clip143)" style="stroke:#ff0000; stroke-width:4; stroke-opacity:1; fill:none" points="
  318.986,1222.78 1972,1222.78 1972,1394.05 
  "/>
<path clip-path="url(#clip140)" d="M 0 0 M2011.7 1214.59 Q2011.7 1216.84 2010.47 1221.82 Q2009.24 1226.8 2007.75 1230.19 Q2004.56 1237.57 1999.06 1237.57 Q1998.38 1237.57 1997.71 1237.51 Q1997.06 1237.45 1996.1 1237.19 Q1995.13 1236.93 1994.34 1236.52 Q1993.55 1236.08 1992.76 1235.26 Q1992 1234.44 1991.56 1233.36 Q1989.13 1237.57 1985.32 1237.57 Q1981.63 1237.57 1979.2 1235.7 Q1976.8 1233.82 1976.8 1229.99 Q1976.8 1228.26 1977.51 1225.71 Q1978.21 1223.17 1980.17 1217.9 Q1981.25 1215.17 1981.25 1213.68 Q1981.25 1213.01 1981.11 1212.57 Q1980.96 1212.13 1980.67 1211.98 Q1980.41 1211.81 1980.23 1211.78 Q1980.05 1211.72 1979.76 1211.72 Q1978 1211.72 1976.42 1213.51 Q1974.84 1215.26 1973.7 1219.16 Q1973.47 1219.89 1973.32 1220.06 Q1973.17 1220.24 1972.73 1220.24 Q1972 1220.21 1972 1219.62 Q1972 1219.39 1972.27 1218.48 Q1972.53 1217.55 1973.14 1216.17 Q1973.79 1214.76 1974.67 1213.51 Q1975.55 1212.22 1976.92 1211.31 Q1978.33 1210.4 1979.94 1210.4 Q1982.1 1210.4 1983.48 1211.84 Q1984.86 1213.27 1984.86 1215.32 Q1984.86 1215.91 1984.71 1216.55 Q1984.56 1217.16 1984.42 1217.57 Q1984.3 1217.96 1983.83 1219.16 Q1981.9 1224.22 1981.28 1226.65 Q1980.7 1229.08 1980.7 1230.78 Q1980.7 1231.34 1980.73 1231.77 Q1980.76 1232.21 1980.99 1233.12 Q1981.25 1234.03 1981.72 1234.64 Q1982.19 1235.23 1983.16 1235.73 Q1984.15 1236.22 1985.5 1236.22 Q1988.87 1236.22 1991.03 1231.19 Q1990.97 1230.9 1990.97 1230.13 Q1990.97 1228.44 1991.5 1226.15 Q1991.65 1225.63 1992.5 1222.26 Q1993.35 1218.86 1994.08 1215.91 Q1994.84 1212.92 1994.93 1212.74 Q1995.22 1211.92 1995.86 1211.48 Q1996.51 1211.05 1997.15 1211.05 Q1997.88 1211.05 1998.38 1211.48 Q1998.88 1211.92 1998.88 1212.69 Q1998.88 1212.83 1998.7 1213.51 Q1998.56 1214.15 1998.32 1215.12 Q1998.09 1216.08 1997.97 1216.58 L1995.45 1226.65 Q1994.81 1228.99 1994.81 1231.01 Q1994.81 1233.56 1995.95 1234.91 Q1997.09 1236.22 1999.23 1236.22 Q2003.24 1236.22 2005.82 1230.95 Q2006.99 1228.67 2008.04 1225.1 Q2009.13 1221.53 2009.13 1219.98 Q2009.13 1217.05 2006.96 1214.88 Q2006.49 1214.47 2006.29 1214.15 Q2006.08 1213.8 2006.08 1213.27 Q2006.08 1212.28 2007.02 1211.34 Q2007.96 1210.4 2009.07 1210.4 Q2010.06 1210.4 2010.88 1211.4 Q2011.7 1212.36 2011.7 1214.59 Z" fill="#000000" fill-rule="evenodd" fill-opacity="1" /><path clip-path="url(#clip140)" d="M 0 0 M2033.89 1243.65 Q2034.05 1243.83 2034.05 1244.02 Q2034.05 1244.2 2033.64 1244.74 Q2033.25 1245.27 2032.41 1245.99 Q2031.57 1246.7 2030.48 1247.38 Q2029.4 1248.06 2027.8 1248.51 Q2026.2 1248.98 2024.52 1248.98 Q2021.38 1248.98 2019.54 1246.91 Q2017.72 1244.84 2017.72 1241.87 Q2017.72 1238.98 2019.33 1236.21 Q2020.95 1233.42 2023.58 1231.7 Q2026.2 1229.96 2028.97 1229.96 Q2031.16 1229.96 2032.53 1230.98 Q2033.91 1232.01 2033.91 1233.57 Q2033.91 1234.78 2033.21 1235.51 Q2032.51 1236.25 2031.57 1236.25 Q2030.91 1236.25 2030.46 1235.88 Q2030.01 1235.49 2030.01 1234.78 Q2030.01 1233.85 2030.77 1233.14 Q2031.06 1232.85 2031.38 1232.73 Q2031.73 1232.58 2031.94 1232.58 Q2032.14 1232.56 2032.61 1232.56 Q2032.18 1231.76 2031.16 1231.33 Q2030.16 1230.88 2029.01 1230.88 Q2027.31 1230.88 2025.69 1232.07 Q2024.07 1233.24 2023.08 1235.08 Q2022.1 1236.89 2021.47 1239.45 Q2020.83 1241.99 2020.83 1243.47 Q2020.83 1245.49 2021.77 1246.77 Q2022.72 1248.04 2024.6 1248.04 Q2024.97 1248.04 2025.36 1248.02 Q2025.77 1247.99 2026.79 1247.77 Q2027.84 1247.54 2028.76 1247.15 Q2029.68 1246.77 2030.85 1245.92 Q2032.04 1245.06 2032.98 1243.9 Q2033.31 1243.47 2033.54 1243.47 Q2033.72 1243.47 2033.89 1243.65 Z" fill="#000000" fill-rule="evenodd" fill-opacity="1" /><path clip-path="url(#clip140)" d="M 0 0 M2053.67 1237.05 Q2053.67 1239.28 2052.69 1241.5 Q2051.7 1243.69 2050.12 1245.33 Q2048.57 1246.95 2046.52 1247.97 Q2044.47 1248.98 2042.42 1248.98 Q2039.49 1248.98 2037.58 1246.99 Q2035.7 1244.98 2035.7 1241.87 Q2035.7 1238.96 2037.31 1236.19 Q2038.95 1233.4 2041.58 1231.68 Q2044.2 1229.96 2046.95 1229.96 Q2049.84 1229.96 2051.74 1231.91 Q2053.67 1233.85 2053.67 1237.05 M2050.6 1235.41 Q2050.6 1233.42 2049.63 1232.15 Q2048.67 1230.88 2046.91 1230.88 Q2046.39 1230.88 2045.8 1231.05 Q2045.21 1231.19 2044.43 1231.58 Q2043.67 1231.97 2042.81 1232.79 Q2041.97 1233.59 2041.23 1234.73 Q2040.27 1236.25 2039.53 1239.04 Q2038.81 1241.81 2038.81 1243.47 Q2038.81 1245.76 2039.88 1246.91 Q2040.94 1248.04 2042.46 1248.04 Q2043.93 1248.04 2045.49 1247.01 Q2047.07 1245.97 2048.16 1244.18 Q2049.24 1242.34 2049.92 1239.63 Q2050.6 1236.91 2050.6 1235.41 Z" fill="#000000" fill-rule="evenodd" fill-opacity="1" /><path clip-path="url(#clip140)" d="M 0 0 M2063.1 1235.93 Q2062.25 1234.97 2062.25 1233.71 Q2062.25 1232.45 2063.07 1231.51 Q2063.92 1230.54 2065.44 1230.54 Q2067.23 1230.54 2068.25 1232.27 Q2069.27 1233.97 2069.27 1236.84 Q2069.27 1239.94 2068.02 1242.81 Q2066.76 1245.71 2065.53 1247.09 Q2064.3 1248.46 2063.8 1248.46 Q2063.21 1248.46 2063.21 1247.82 Q2063.21 1247.58 2063.62 1247.15 Q2067.93 1242.52 2067.96 1236.84 Q2067.96 1235.93 2067.84 1235.93 L2067.69 1236.05 Q2066.67 1236.9 2065.44 1236.9 Q2063.95 1236.9 2063.1 1235.93 Z" fill="#000000" fill-rule="evenodd" fill-opacity="1" /><path clip-path="url(#clip140)" d="M 0 0 M2137.28 1221.06 Q2137.63 1221.41 2137.63 1221.91 Q2137.63 1222.41 2137.28 1222.76 Q2136.93 1223.11 2136.43 1223.11 L2098.9 1223.11 Q2098.4 1223.11 2098.05 1222.76 Q2097.7 1222.41 2097.7 1221.91 Q2097.7 1221.41 2098.05 1221.06 Q2098.4 1220.71 2098.9 1220.71 L2136.43 1220.71 Q2136.93 1220.71 2137.28 1221.06 Z" fill="#000000" fill-rule="evenodd" fill-opacity="1" /><path clip-path="url(#clip140)" d="M 0 0 M2153.38 1202.67 L2153.38 1200.8 Q2160.59 1200.8 2164.31 1196.96 Q2165.33 1196.96 2165.51 1197.2 Q2165.68 1197.43 2165.68 1198.51 L2165.68 1232.16 Q2165.68 1233.94 2166.56 1234.5 Q2167.44 1235.05 2171.27 1235.05 L2173.18 1235.05 L2173.18 1236.9 Q2171.07 1236.72 2163.46 1236.72 Q2155.84 1236.72 2153.77 1236.9 L2153.77 1235.05 L2155.67 1235.05 Q2159.45 1235.05 2160.35 1234.53 Q2161.26 1233.97 2161.26 1232.16 L2161.26 1201.09 Q2158.13 1202.67 2153.38 1202.67 Z" fill="#000000" fill-rule="evenodd" fill-opacity="1" /><path clip-path="url(#clip140)" d="M 0 0 M2178.7 1227.85 Q2178.7 1221.15 2187.33 1216.81 Q2183.62 1214.3 2182.94 1213.56 Q2180.31 1210.64 2180.31 1206.98 Q2180.31 1202.79 2183.47 1199.89 Q2186.66 1196.96 2191.17 1196.96 Q2195.47 1196.96 2198.72 1199.45 Q2201.97 1201.94 2201.97 1205.89 Q2201.97 1211.46 2194.71 1215.2 Q2199.51 1218.19 2200.66 1219.45 Q2203.58 1222.7 2203.58 1226.83 Q2203.58 1231.63 2199.89 1234.94 Q2196.21 1238.22 2191.11 1238.22 Q2186.13 1238.22 2182.42 1235.32 Q2178.7 1232.42 2178.7 1227.85 M2181.68 1227.85 Q2181.68 1231.57 2184.46 1234.06 Q2187.28 1236.55 2191.17 1236.55 Q2194.95 1236.55 2197.76 1234.38 Q2200.6 1232.21 2200.6 1228.99 Q2200.6 1227.73 2200.16 1226.65 Q2199.75 1225.57 2198.9 1224.72 Q2198.08 1223.84 2197.55 1223.46 Q2197.05 1223.05 2196.09 1222.38 L2188.71 1217.72 Q2181.68 1221.62 2181.68 1227.85 M2182.94 1204.63 Q2182.94 1207.5 2185.96 1209.49 L2193.39 1214.3 Q2199.34 1210.81 2199.34 1205.89 Q2199.34 1202.7 2196.91 1200.59 Q2194.48 1198.46 2191.11 1198.46 Q2187.8 1198.46 2185.37 1200.21 Q2182.94 1201.94 2182.94 1204.63 Z" fill="#000000" fill-rule="evenodd" fill-opacity="1" /><path clip-path="url(#clip140)" d="M 0 0 M2208.38 1217.72 Q2208.38 1208.91 2210.61 1204.11 Q2213.71 1196.96 2221.03 1196.96 Q2222.58 1196.96 2224.19 1197.4 Q2225.83 1197.81 2227.88 1199.42 Q2229.96 1201.03 2231.22 1203.67 Q2233.62 1208.76 2233.62 1217.72 Q2233.62 1226.48 2231.4 1231.25 Q2228.15 1238.22 2220.97 1238.22 Q2218.28 1238.22 2215.53 1236.84 Q2212.81 1235.46 2211.08 1232.16 Q2208.38 1227.21 2208.38 1217.72 M2213.36 1216.99 Q2213.36 1226.04 2214.01 1229.64 Q2214.74 1233.53 2216.73 1235.23 Q2218.75 1236.9 2220.97 1236.9 Q2223.37 1236.9 2225.37 1235.11 Q2227.39 1233.3 2228 1229.4 Q2228.67 1225.57 2228.65 1216.99 Q2228.65 1208.64 2228.06 1205.31 Q2227.27 1201.41 2225.16 1199.86 Q2223.08 1198.28 2220.97 1198.28 Q2220.18 1198.28 2219.33 1198.51 Q2218.51 1198.75 2217.31 1199.42 Q2216.11 1200.1 2215.18 1201.76 Q2214.27 1203.43 2213.83 1205.95 Q2213.36 1209.2 2213.36 1216.99 Z" fill="#000000" fill-rule="evenodd" fill-opacity="1" /><path clip-path="url(#clip140)" d="M 0 0 M2238.07 1202.61 Q2238.07 1199.86 2240 1197.9 Q2241.97 1195.94 2244.72 1195.94 Q2247.53 1195.94 2249.43 1197.93 Q2251.36 1199.89 2251.36 1202.53 Q2251.36 1205.28 2249.37 1207.24 Q2247.41 1209.2 2244.72 1209.2 Q2241.91 1209.2 2239.98 1207.24 Q2238.07 1205.25 2238.07 1202.61 M2241.73 1199.57 Q2240.47 1200.8 2240.47 1202.61 Q2240.47 1204.4 2241.73 1205.6 Q2242.99 1206.8 2244.72 1206.8 Q2246.45 1206.8 2247.68 1205.6 Q2248.91 1204.4 2248.91 1202.61 Q2248.91 1200.8 2247.65 1199.57 Q2246.39 1198.34 2244.72 1198.34 Q2242.99 1198.34 2241.73 1199.57 Z" fill="#000000" fill-rule="evenodd" fill-opacity="1" /></svg>