<?xml version="1.0" encoding="utf-8"?>
<svg xmlns="http://www.w3.org/2000/svg" xmlns:xlink="http://www.w3.org/1999/xlink" width="600" height="400" viewBox="0 0 2400 1600">
<defs>
  <clipPath id="clip310">
    <rect x="0" y="0" width="2400" height="1600"/>
  </clipPath>
</defs>
<path clip-path="url(#clip310)" d="
M0 1600 L2400 1600 L2400 0 L0 0  Z
  " fill="#ffffff" fill-rule="evenodd" fill-opacity="1"/>
<defs>
  <clipPath id="clip311">
    <rect x="480" y="0" width="1681" height="1600"/>
  </clipPath>
</defs>
<path clip-path="url(#clip310)" d="
M170.181 1509.26 L1152.76 1509.26 L1152.76 123.472 L170.181 123.472  Z
  " fill="#ffffff" fill-rule="evenodd" fill-opacity="1"/>
<defs>
  <clipPath id="clip312">
    <rect x="170" y="123" width="984" height="1387"/>
  </clipPath>
</defs>
<polyline clip-path="url(#clip310)" style="stroke:#000000; stroke-width:4; stroke-opacity:1; fill:none" points="
  170.181,1509.26 1152.76,1509.26 
  "/>
<path clip-path="url(#clip310)" d="M 0 0 M669.939 1554.29 Q669.939 1555.19 669.521 1555.42 Q669.102 1555.61 667.943 1555.61 L661.759 1555.61 L656.864 1575.06 Q656.477 1576.77 656.477 1578.22 Q656.477 1579.83 656.96 1580.54 Q657.476 1581.25 658.539 1581.25 Q660.632 1581.25 662.886 1579.35 Q665.173 1577.44 667.105 1572.81 Q667.363 1572.2 667.492 1572.07 Q667.653 1571.91 668.072 1571.91 Q668.877 1571.91 668.877 1572.55 Q668.877 1572.78 668.426 1573.81 Q668.007 1574.84 667.073 1576.35 Q666.171 1577.86 664.98 1579.28 Q663.82 1580.7 662.049 1581.73 Q660.278 1582.73 658.378 1582.73 Q655.704 1582.73 653.998 1581.02 Q652.323 1579.31 652.323 1576.64 Q652.323 1575.77 652.999 1573 Q653.675 1570.2 657.347 1555.61 L651.518 1555.61 Q650.713 1555.61 650.39 1555.58 Q650.101 1555.54 649.875 1555.38 Q649.682 1555.19 649.682 1554.8 Q649.682 1554.19 649.94 1553.93 Q650.197 1553.64 650.519 1553.61 Q650.874 1553.55 651.679 1553.55 L657.862 1553.55 L660.439 1543.08 Q660.696 1542.05 661.34 1541.47 Q662.017 1540.86 662.403 1540.79 Q662.79 1540.7 663.08 1540.7 Q663.949 1540.7 664.464 1541.18 Q664.98 1541.63 664.98 1542.47 Q664.98 1542.92 662.274 1553.55 L668.072 1553.55 Q668.812 1553.55 669.102 1553.58 Q669.424 1553.61 669.682 1553.77 Q669.939 1553.93 669.939 1554.29 Z" fill="#000000" fill-rule="evenodd" fill-opacity="1" /><polyline clip-path="url(#clip310)" style="stroke:#000000; stroke-width:4; stroke-opacity:1; fill:none" points="
  170.181,1509.26 170.181,123.472 
  "/>
<polyline clip-path="url(#clip310)" style="stroke:#000000; stroke-width:4; stroke-opacity:1; fill:none" points="
  170.181,1470.04 181.972,1470.04 
  "/>
<polyline clip-path="url(#clip310)" style="stroke:#000000; stroke-width:4; stroke-opacity:1; fill:none" points="
  170.181,162.692 181.972,162.692 
  "/>
<path clip-path="url(#clip310)" d="M 0 0 M122.237 1455.84 Q118.626 1455.84 116.797 1459.4 Q114.991 1462.94 114.991 1470.07 Q114.991 1477.18 116.797 1480.74 Q118.626 1484.29 122.237 1484.29 Q125.871 1484.29 127.676 1480.74 Q129.505 1477.18 129.505 1470.07 Q129.505 1462.94 127.676 1459.4 Q125.871 1455.84 122.237 1455.84 M122.237 1452.13 Q128.047 1452.13 131.102 1456.74 Q134.181 1461.32 134.181 1470.07 Q134.181 1478.8 131.102 1483.41 Q128.047 1487.99 122.237 1487.99 Q116.426 1487.99 113.348 1483.41 Q110.292 1478.8 110.292 1470.07 Q110.292 1461.32 113.348 1456.74 Q116.426 1452.13 122.237 1452.13 Z" fill="#000000" fill-rule="evenodd" fill-opacity="1" /><path clip-path="url(#clip310)" d="M 0 0 M114.274 176.037 L121.913 176.037 L121.913 149.672 L113.602 151.338 L113.602 147.079 L121.866 145.412 L126.542 145.412 L126.542 176.037 L134.181 176.037 L134.181 179.972 L114.274 179.972 L114.274 176.037 Z" fill="#000000" fill-rule="evenodd" fill-opacity="1" /><path clip-path="url(#clip310)" d="M 0 0 M37.8627 839.041 Q38.3136 839.041 39.3764 839.331 L64.5613 845.644 Q70.1652 847.029 74.0943 851.537 Q78.0234 856.014 78.0234 861.102 Q78.0234 864.162 76.3809 866.127 Q74.7706 868.091 72.2907 868.091 Q70.1007 868.091 69.038 866.932 Q68.0074 865.772 68.0074 864.387 Q68.0074 863.937 68.1362 863.453 Q68.265 862.97 68.8125 862.455 Q69.36 861.94 70.294 861.94 Q71.8077 861.94 72.9993 863.26 Q73.5468 863.904 73.6756 864.516 Q73.8044 865.096 73.8044 866.094 Q74.7062 865.708 75.3181 864.999 Q75.93 864.291 76.1555 863.486 Q76.4131 862.681 76.4775 862.165 Q76.5741 861.618 76.5741 861.102 Q76.5741 856.98 72.4196 853.824 Q71.1635 852.89 69.9075 852.214 Q68.6837 851.505 67.17 850.99 Q65.6885 850.475 64.8834 850.249 Q64.0783 849.991 62.2425 849.541 Q65.2377 852.536 65.2377 856.207 Q65.2377 857.753 64.819 859.138 Q64.4003 860.491 63.5308 861.682 Q62.629 862.874 61.0509 863.582 Q59.4728 864.259 57.3794 864.259 Q55.1572 864.259 52.1299 863.389 Q49.1025 862.52 43.5309 860.426 Q40.4069 859.299 38.8933 859.299 Q38.1525 859.299 37.7017 859.46 Q37.2186 859.621 37.0575 859.943 Q36.8643 860.265 36.8321 860.458 Q36.7999 860.619 36.7999 860.941 Q36.7999 862.842 38.7322 864.613 Q40.6646 866.384 44.9802 867.608 Q45.7853 867.866 45.9786 868.027 Q46.1718 868.188 46.1718 868.671 Q46.1396 869.476 45.4955 869.476 Q45.2378 869.476 44.2394 869.186 Q43.2089 868.896 41.6952 868.22 Q40.1493 867.511 38.7644 866.545 Q37.3474 865.579 36.349 864.065 Q35.3506 862.52 35.3506 860.748 Q35.3506 858.333 36.9287 856.851 Q38.4746 855.338 40.7612 855.338 Q41.6952 855.338 42.5325 855.595 Q43.3377 855.821 45.4955 856.658 Q54.1911 860.04 58.4422 860.04 Q59.4728 860.04 60.3424 859.879 Q61.1797 859.685 62.0171 859.267 Q62.8222 858.848 63.3053 858.011 Q63.7562 857.141 63.7562 855.95 Q63.7562 854.436 63.0477 853.019 Q62.3069 851.57 61.3085 850.668 Q60.3102 849.734 59.4728 849.186 Q58.6033 848.607 58.1524 848.478 L46.3006 845.515 L41.0189 844.194 Q38.1525 843.582 37.444 843.293 Q36.7677 842.906 36.4134 842.23 Q36.0592 841.554 36.0592 840.974 Q36.0592 840.169 36.5422 839.621 Q37.0253 839.041 37.8627 839.041 Z" fill="#000000" fill-rule="evenodd" fill-opacity="1" /><path clip-path="url(#clip310)" d="M 0 0 M48.0075 837.482 Q36.8643 837.482 27.8789 833.327 Q24.1108 831.556 20.9546 829.076 Q17.7984 826.596 16.4136 824.954 Q15.0287 823.311 15.0287 822.86 Q15.0287 822.216 15.6728 822.184 Q15.9949 822.184 16.8 823.054 Q27.6212 833.682 48.0075 833.649 Q68.4582 833.649 78.8607 823.311 Q79.9879 822.184 80.3422 822.184 Q80.9863 822.184 80.9863 822.86 Q80.9863 823.311 79.6659 824.889 Q78.3454 826.467 75.3181 828.915 Q72.2907 831.363 68.5871 833.134 Q59.6016 837.482 48.0075 837.482 Z" fill="#000000" fill-rule="evenodd" fill-opacity="1" /><path clip-path="url(#clip310)" d="M 0 0 M36.7999 791.897 Q37.7017 791.897 37.9271 792.316 Q38.1203 792.734 38.1203 793.894 L38.1203 800.077 L57.5727 804.972 Q59.2796 805.359 60.7288 805.359 Q62.3391 805.359 63.0477 804.876 Q63.7562 804.361 63.7562 803.298 Q63.7562 801.204 61.856 798.95 Q59.9559 796.663 55.3183 794.731 Q54.7063 794.473 54.5775 794.345 Q54.4165 794.184 54.4165 793.765 Q54.4165 792.96 55.0606 792.96 Q55.2861 792.96 56.3166 793.411 Q57.3472 793.829 58.8609 794.763 Q60.3746 795.665 61.7916 796.857 Q63.2087 798.016 64.2393 799.787 Q65.2377 801.559 65.2377 803.459 Q65.2377 806.132 63.5308 807.839 Q61.8238 809.514 59.1508 809.514 Q58.2812 809.514 55.5115 808.837 Q52.7096 808.161 38.1203 804.489 L38.1203 810.319 Q38.1203 811.124 38.0881 811.446 Q38.0559 811.736 37.8949 811.961 Q37.7017 812.154 37.3152 812.154 Q36.7033 812.154 36.4456 811.897 Q36.1558 811.639 36.1236 811.317 Q36.0592 810.963 36.0592 810.158 L36.0592 803.974 L25.5922 801.398 Q24.5617 801.14 23.982 800.496 Q23.37 799.82 23.3056 799.433 Q23.209 799.047 23.209 798.757 Q23.209 797.887 23.6921 797.372 Q24.143 796.857 24.9803 796.857 Q25.4312 796.857 36.0592 799.562 L36.0592 793.765 Q36.0592 793.024 36.0914 792.734 Q36.1236 792.412 36.2846 792.155 Q36.4456 791.897 36.7999 791.897 Z" fill="#000000" fill-rule="evenodd" fill-opacity="1" /><path clip-path="url(#clip310)" d="M 0 0 M80.3422 788.581 Q80.0202 788.581 79.215 787.744 Q68.3938 777.116 48.0075 777.116 Q27.5568 777.116 17.2187 787.325 Q16.0271 788.581 15.6728 788.581 Q15.0287 788.581 15.0287 787.937 Q15.0287 787.486 16.3492 785.908 Q17.6696 784.298 20.697 781.883 Q23.7243 779.435 27.428 777.631 Q36.4134 773.284 48.0075 773.284 Q59.1508 773.284 68.1362 777.438 Q71.9043 779.21 75.0605 781.689 Q78.2166 784.169 79.6015 785.812 Q80.9863 787.454 80.9863 787.937 Q80.9863 788.581 80.3422 788.581 Z" fill="#000000" fill-rule="evenodd" fill-opacity="1" /><path clip-path="url(#clip310)" d="M 0 0 M649.377 49.7694 Q640.343 49.7694 636.859 51.8354 Q633.375 53.9013 633.375 58.8839 Q633.375 62.8538 635.968 65.2034 Q638.601 67.5124 643.098 67.5124 Q649.295 67.5124 653.022 63.1374 Q656.79 58.7219 656.79 51.4303 L656.79 49.7694 L649.377 49.7694 M664.243 46.6907 L664.243 72.576 L656.79 72.576 L656.79 65.6895 Q654.238 69.8214 650.43 71.8063 Q646.622 73.7508 641.113 73.7508 Q634.145 73.7508 630.013 69.8619 Q625.922 65.9325 625.922 59.3701 Q625.922 51.7138 631.026 47.825 Q636.171 43.9361 646.338 43.9361 L656.79 43.9361 L656.79 43.2069 Q656.79 38.0623 653.387 35.2672 Q650.025 32.4315 643.908 32.4315 Q640.019 32.4315 636.333 33.3632 Q632.646 34.295 629.244 36.1584 L629.244 29.2718 Q633.335 27.692 637.183 26.9223 Q641.032 26.1121 644.677 26.1121 Q654.521 26.1121 659.382 31.2163 Q664.243 36.3204 664.243 46.6907 Z" fill="#000000" fill-rule="evenodd" fill-opacity="1" /><path clip-path="url(#clip310)" d="M 0 0 M678.421 9.62495 L684.903 9.62495 Q690.979 19.1851 693.977 28.3401 Q697.015 37.4952 697.015 46.5287 Q697.015 55.6027 693.977 64.7983 Q690.979 73.9938 684.903 83.5134 L678.421 83.5134 Q683.809 74.2369 686.442 65.0818 Q689.116 55.8863 689.116 46.5287 Q689.116 37.1711 686.442 28.0566 Q683.809 18.942 678.421 9.62495 Z" fill="#000000" fill-rule="evenodd" fill-opacity="1" /><polyline clip-path="url(#clip312)" style="stroke:#009af9; stroke-width:8; stroke-opacity:1; fill:none" points="
  226.359,1438.58 228.494,1408.04 230.629,1378.37 232.764,1349.56 242.635,1226.82 252.506,1119.62 262.377,1026 272.247,944.241 282.118,872.839 291.989,810.482 
  301.859,756.024 311.73,708.465 323.594,659.205 335.457,617.346 347.321,581.775 359.185,551.549 379.246,510.407 399.307,479.165 421.1,453.685 442.892,434.79 
  462.982,421.729 483.073,411.815 526.151,397.876 576.061,389.302 620.416,385.327 659.311,383.365 701.716,382.138 744.374,381.449 791.538,381.037 836.413,380.828 
  883.072,380.712 922.35,380.659 970.303,380.622 1015.38,380.604 1087.6,380.591 1098.71,380.59 
  "/>
<polyline clip-path="url(#clip312)" style="stroke:#e26f46; stroke-width:8; stroke-opacity:1; fill:none" stroke-dasharray="32, 20" points="
  197.99,1470.04 199.121,1470.04 200.253,1470.04 201.384,1470.04 202.516,1470.04 203.648,1470.04 204.779,1470.04 205.911,1470.04 207.042,1470.04 212.274,1470.04 
  217.505,1470.04 218.813,1470.04 220.121,1470.04 221.429,1470.04 222.737,1470.04 223.391,1470.04 224.044,1470.04 224.698,162.692 225.352,162.692 226.006,162.692 
  226.66,162.692 227.314,162.692 227.968,162.692 230.584,162.692 233.2,162.692 235.815,162.692 238.431,162.692 243.662,162.692 248.894,162.692 269.82,162.692 
  290.746,162.692 315.897,162.692 341.048,162.692 362.313,162.692 383.578,162.692 429.777,162.692 472.369,162.692 518.032,162.692 570.937,162.692 617.953,162.692 
  659.181,162.692 704.131,162.692 749.348,162.692 799.342,162.692 846.909,162.692 896.369,162.692 938.003,162.692 988.833,162.692 1036.62,162.692 1113.17,162.692 
  1124.95,162.692 
  "/>
<polyline clip-path="url(#clip312)" style="stroke:#a52a2a; stroke-width:8; stroke-opacity:1; fill:none" points="
  1011.26,380.583 1011.26,162.692 
  "/>
<circle clip-path="url(#clip312)" cx="1011.26" cy="380.583" r="14" fill="#a52a2a" fill-rule="evenodd" fill-opacity="1" stroke="#ffffff" stroke-opacity="1" stroke-width="3.2"/>
<circle clip-path="url(#clip312)" cx="1011.26" cy="162.692" r="14" fill="#a52a2a" fill-rule="evenodd" fill-opacity="1" stroke="#ffffff" stroke-opacity="1" stroke-width="3.2"/>
<path clip-path="url(#clip310)" d="M 0 0 M465.955 492.504 Q465.955 492.914 465.691 493.88 L459.953 516.776 Q458.694 521.87 454.595 525.442 Q450.525 529.014 445.899 529.014 Q443.118 529.014 441.332 527.521 Q439.546 526.057 439.546 523.802 Q439.546 521.811 440.6 520.845 Q441.654 519.908 442.913 519.908 Q443.323 519.908 443.762 520.025 Q444.201 520.143 444.67 520.64 Q445.138 521.138 445.138 521.987 Q445.138 523.363 443.938 524.446 Q443.352 524.944 442.796 525.061 Q442.269 525.178 441.361 525.178 Q441.712 525.998 442.357 526.554 Q443.001 527.111 443.733 527.316 Q444.465 527.55 444.933 527.608 Q445.431 527.696 445.899 527.696 Q449.647 527.696 452.516 523.919 Q453.365 522.778 453.98 521.636 Q454.624 520.523 455.093 519.147 Q455.561 517.8 455.766 517.068 Q456 516.336 456.41 514.668 Q453.687 517.39 450.35 517.39 Q448.944 517.39 447.685 517.01 Q446.456 516.629 445.372 515.839 Q444.289 515.019 443.645 513.584 Q443.03 512.15 443.03 510.247 Q443.03 508.226 443.82 505.474 Q444.611 502.722 446.514 497.657 Q447.539 494.817 447.539 493.441 Q447.539 492.768 447.392 492.358 Q447.246 491.918 446.953 491.772 Q446.66 491.596 446.485 491.567 Q446.338 491.538 446.046 491.538 Q444.318 491.538 442.708 493.295 Q441.098 495.051 439.985 498.974 Q439.751 499.706 439.604 499.882 Q439.458 500.058 439.019 500.058 Q438.287 500.028 438.287 499.443 Q438.287 499.209 438.55 498.301 Q438.814 497.364 439.429 495.988 Q440.073 494.583 440.951 493.324 Q441.83 492.036 443.206 491.128 Q444.611 490.22 446.221 490.22 Q448.417 490.22 449.764 491.655 Q451.14 493.06 451.14 495.139 Q451.14 495.988 450.906 496.749 Q450.701 497.481 449.94 499.443 Q446.865 507.348 446.865 511.213 Q446.865 512.15 447.012 512.94 Q447.187 513.701 447.568 514.463 Q447.949 515.195 448.71 515.634 Q449.5 516.044 450.584 516.044 Q451.96 516.044 453.248 515.399 Q454.566 514.726 455.385 513.818 Q456.234 512.911 456.732 512.15 Q457.259 511.359 457.376 510.949 L460.07 500.175 L461.27 495.373 Q461.827 492.768 462.09 492.123 Q462.441 491.509 463.056 491.187 Q463.671 490.864 464.198 490.864 Q464.93 490.864 465.428 491.304 Q465.955 491.743 465.955 492.504 Z" fill="#000000" fill-rule="evenodd" fill-opacity="1" /><path clip-path="url(#clip310)" d="M 0 0 M467.373 501.727 Q467.373 491.596 471.15 483.428 Q472.76 480.002 475.015 477.133 Q477.269 474.264 478.762 473.005 Q480.256 471.746 480.666 471.746 Q481.251 471.746 481.28 472.331 Q481.28 472.624 480.49 473.356 Q470.828 483.194 470.857 501.727 Q470.857 520.318 480.256 529.775 Q481.28 530.8 481.28 531.122 Q481.28 531.707 480.666 531.707 Q480.256 531.707 478.821 530.507 Q477.386 529.307 475.161 526.554 Q472.936 523.802 471.326 520.435 Q467.373 512.267 467.373 501.727 Z" fill="#000000" fill-rule="evenodd" fill-opacity="1" /><path clip-path="url(#clip310)" d="M 0 0 M508.815 491.538 Q508.815 492.358 508.434 492.563 Q508.053 492.738 506.999 492.738 L501.378 492.738 L496.928 510.422 Q496.576 511.974 496.576 513.291 Q496.576 514.755 497.016 515.399 Q497.484 516.044 498.45 516.044 Q500.353 516.044 502.403 514.316 Q504.481 512.589 506.238 508.373 Q506.472 507.816 506.589 507.699 Q506.736 507.553 507.117 507.553 Q507.848 507.553 507.848 508.139 Q507.848 508.343 507.439 509.28 Q507.058 510.217 506.209 511.593 Q505.389 512.969 504.306 514.258 Q503.252 515.546 501.642 516.483 Q500.031 517.39 498.304 517.39 Q495.874 517.39 494.322 515.839 Q492.8 514.287 492.8 511.857 Q492.8 511.066 493.414 508.548 Q494.029 506.001 497.367 492.738 L492.068 492.738 Q491.336 492.738 491.043 492.709 Q490.779 492.68 490.574 492.533 Q490.399 492.358 490.399 492.006 Q490.399 491.45 490.633 491.216 Q490.867 490.952 491.16 490.923 Q491.482 490.864 492.214 490.864 L497.835 490.864 L500.178 481.349 Q500.412 480.412 500.997 479.885 Q501.612 479.329 501.964 479.27 Q502.315 479.183 502.578 479.183 Q503.369 479.183 503.837 479.622 Q504.306 480.032 504.306 480.793 Q504.306 481.203 501.846 490.864 L507.117 490.864 Q507.79 490.864 508.053 490.894 Q508.346 490.923 508.58 491.069 Q508.815 491.216 508.815 491.538 Z" fill="#000000" fill-rule="evenodd" fill-opacity="1" /><path clip-path="url(#clip310)" d="M 0 0 M511.829 531.122 Q511.829 530.829 512.59 530.097 Q522.252 520.26 522.252 501.727 Q522.252 483.135 512.971 473.737 Q511.829 472.654 511.829 472.331 Q511.829 471.746 512.415 471.746 Q512.825 471.746 514.259 472.946 Q515.723 474.147 517.919 476.899 Q520.144 479.651 521.784 483.018 Q525.736 491.187 525.736 501.727 Q525.736 511.857 521.959 520.025 Q520.349 523.451 518.095 526.32 Q515.84 529.189 514.347 530.448 Q512.854 531.707 512.415 531.707 Q511.829 531.707 511.829 531.122 Z" fill="#000000" fill-rule="evenodd" fill-opacity="1" /><path clip-path="url(#clip310)" d="M 0 0 M440.205 210.483 Q440.205 210.893 439.941 211.86 L434.203 234.755 Q432.944 239.849 428.845 243.421 Q424.775 246.993 420.149 246.993 Q417.368 246.993 415.582 245.5 Q413.796 244.036 413.796 241.782 Q413.796 239.791 414.85 238.825 Q415.904 237.888 417.163 237.888 Q417.573 237.888 418.012 238.005 Q418.451 238.122 418.919 238.62 Q419.388 239.117 419.388 239.966 Q419.388 241.343 418.187 242.426 Q417.602 242.924 417.046 243.041 Q416.519 243.158 415.611 243.158 Q415.962 243.978 416.606 244.534 Q417.251 245.09 417.982 245.295 Q418.714 245.529 419.183 245.588 Q419.681 245.676 420.149 245.676 Q423.897 245.676 426.766 241.899 Q427.615 240.757 428.23 239.615 Q428.874 238.503 429.342 237.127 Q429.811 235.78 430.016 235.048 Q430.25 234.316 430.66 232.647 Q427.937 235.37 424.599 235.37 Q423.194 235.37 421.935 234.989 Q420.705 234.609 419.622 233.818 Q418.539 232.998 417.895 231.564 Q417.28 230.129 417.28 228.226 Q417.28 226.206 418.07 223.454 Q418.861 220.702 420.764 215.636 Q421.789 212.796 421.789 211.42 Q421.789 210.747 421.642 210.337 Q421.496 209.898 421.203 209.752 Q420.91 209.576 420.735 209.547 Q420.588 209.517 420.295 209.517 Q418.568 209.517 416.958 211.274 Q415.347 213.031 414.235 216.954 Q414.001 217.686 413.854 217.862 Q413.708 218.037 413.269 218.037 Q412.537 218.008 412.537 217.422 Q412.537 217.188 412.8 216.281 Q413.064 215.344 413.679 213.968 Q414.323 212.562 415.201 211.303 Q416.079 210.015 417.455 209.107 Q418.861 208.2 420.471 208.2 Q422.667 208.2 424.014 209.634 Q425.39 211.04 425.39 213.119 Q425.39 213.968 425.156 214.729 Q424.951 215.461 424.189 217.422 Q421.115 225.327 421.115 229.192 Q421.115 230.129 421.262 230.92 Q421.437 231.681 421.818 232.442 Q422.199 233.174 422.96 233.613 Q423.75 234.023 424.834 234.023 Q426.21 234.023 427.498 233.379 Q428.815 232.706 429.635 231.798 Q430.484 230.89 430.982 230.129 Q431.509 229.339 431.626 228.929 L434.32 218.154 L435.52 213.353 Q436.076 210.747 436.34 210.103 Q436.691 209.488 437.306 209.166 Q437.921 208.844 438.448 208.844 Q439.18 208.844 439.678 209.283 Q440.205 209.722 440.205 210.483 Z" fill="#000000" fill-rule="evenodd" fill-opacity="1" /><path clip-path="url(#clip310)" d="M 0 0 M461.78 242.968 Q461.78 244.116 461.206 244.731 Q460.633 245.325 459.854 245.325 Q459.219 245.325 458.87 244.956 Q458.542 244.587 458.542 244.096 Q458.542 243.378 459.116 242.804 Q459.71 242.231 460.571 242.21 Q460.284 241.452 459.526 241.001 Q458.768 240.529 458.091 240.407 Q457.435 240.284 456.78 240.284 Q455.488 240.284 454.505 240.693 Q453.521 241.103 453.029 241.739 Q452.537 242.354 452.312 242.948 Q452.086 243.542 452.086 244.055 Q452.086 244.505 452.189 244.874 Q452.312 245.223 452.599 245.489 Q452.886 245.735 453.091 245.899 Q453.316 246.063 453.808 246.207 Q454.3 246.35 454.505 246.411 Q454.71 246.452 455.284 246.575 Q456.472 246.821 457.005 246.965 Q457.538 247.088 458.235 247.436 Q458.952 247.785 459.485 248.338 Q460.776 249.629 460.776 251.412 Q460.776 252.068 460.551 252.867 Q460.346 253.667 459.751 254.671 Q459.157 255.675 458.255 256.474 Q457.354 257.274 455.796 257.827 Q454.259 258.38 452.332 258.38 Q449.648 258.38 447.987 257.253 Q446.327 256.105 446.327 254.302 Q446.327 252.99 447.045 252.273 Q447.762 251.535 448.684 251.535 Q449.381 251.535 449.811 251.925 Q450.242 252.293 450.242 252.99 Q450.242 253.933 449.484 254.65 Q448.725 255.368 447.598 255.224 Q448.561 257.438 452.373 257.438 Q453.808 257.438 454.915 257.069 Q456.042 256.679 456.657 256.146 Q457.292 255.593 457.702 254.917 Q458.112 254.24 458.235 253.728 Q458.378 253.216 458.378 252.826 Q458.378 252.15 458.112 251.638 Q457.845 251.125 457.476 250.838 Q457.128 250.531 456.452 250.285 Q455.796 250.019 455.325 249.916 Q454.853 249.814 454.013 249.65 Q453.623 249.568 453.378 249.527 Q453.132 249.465 452.619 249.301 Q452.127 249.117 451.779 248.932 Q451.451 248.748 451.021 248.42 Q450.59 248.092 450.324 247.703 Q450.057 247.313 449.873 246.739 Q449.689 246.166 449.689 245.489 Q449.689 244.874 449.873 244.137 Q450.078 243.399 450.59 242.538 Q451.123 241.677 451.881 240.98 Q452.64 240.284 453.91 239.833 Q455.202 239.361 456.78 239.361 Q459.075 239.361 460.428 240.427 Q461.78 241.472 461.78 242.968 Z" fill="#000000" fill-rule="evenodd" fill-opacity="1" /><path clip-path="url(#clip310)" d="M 0 0 M487.744 246.063 Q487.744 249.055 486.228 251.945 Q484.731 254.835 482.375 256.618 Q480.018 258.38 477.62 258.38 Q476.185 258.38 475.222 257.602 Q474.279 256.802 473.767 255.675 Q473.377 257.069 472.537 260.409 Q471.697 263.75 471.697 264.078 Q471.697 264.262 471.738 264.344 Q471.779 264.426 471.963 264.529 Q472.148 264.652 472.599 264.693 Q473.05 264.754 473.808 264.754 Q474.197 264.754 474.341 264.754 Q474.505 264.775 474.648 264.877 Q474.812 264.98 474.812 265.205 Q474.812 266.045 474.054 266.045 Q473.377 266.045 471.984 265.984 Q470.59 265.922 469.893 265.922 Q469.299 265.922 468.11 265.984 Q466.922 266.045 466.368 266.045 Q465.815 266.045 465.815 265.553 Q465.815 265.267 465.897 265.082 Q465.958 264.918 466.122 264.836 Q466.286 264.775 466.43 264.754 Q466.553 264.754 466.799 264.754 Q467.741 264.754 468.151 264.59 Q468.561 264.447 468.705 264.139 Q468.869 263.852 469.053 263.033 L473.767 244.341 Q474.054 243.091 474.054 242.21 Q474.054 241.103 473.705 240.693 Q473.357 240.284 472.742 240.284 Q471.676 240.284 470.98 241.554 Q470.283 242.825 469.688 245.284 Q469.504 245.961 469.381 246.104 Q469.279 246.247 468.971 246.247 Q468.459 246.227 468.459 245.817 Q468.459 245.715 468.623 245.059 Q468.787 244.382 469.094 243.399 Q469.422 242.395 469.77 241.759 Q469.975 241.329 470.16 241.042 Q470.344 240.755 470.713 240.304 Q471.103 239.853 471.656 239.607 Q472.209 239.361 472.886 239.361 Q474.197 239.361 475.283 240.14 Q476.37 240.919 476.657 242.497 Q477.825 241.124 479.259 240.243 Q480.694 239.361 482.149 239.361 Q484.568 239.361 486.146 241.247 Q487.744 243.112 487.744 246.063 M484.711 244.219 Q484.711 242.354 483.994 241.329 Q483.297 240.284 482.026 240.284 Q480.448 240.284 478.624 241.882 Q476.821 243.399 476.452 244.813 L474.382 253.031 L474.259 253.708 Q474.259 253.831 474.32 254.199 Q474.402 254.548 474.628 255.122 Q474.874 255.696 475.201 256.208 Q475.55 256.7 476.165 257.069 Q476.8 257.438 477.579 257.438 Q478.829 257.438 480.182 256.331 Q481.555 255.224 482.58 253.134 Q483.215 251.781 483.953 248.871 Q484.711 245.94 484.711 244.219 Z" fill="#000000" fill-rule="evenodd" fill-opacity="1" /><path clip-path="url(#clip310)" d="M 0 0 M493.123 219.706 Q493.123 209.576 496.9 201.407 Q498.511 197.982 500.765 195.113 Q503.019 192.243 504.513 190.984 Q506.006 189.725 506.416 189.725 Q507.001 189.725 507.031 190.311 Q507.031 190.604 506.24 191.336 Q496.578 201.173 496.608 219.706 Q496.608 238.298 506.006 247.754 Q507.031 248.779 507.031 249.101 Q507.031 249.687 506.416 249.687 Q506.006 249.687 504.571 248.486 Q503.137 247.286 500.911 244.534 Q498.686 241.782 497.076 238.415 Q493.123 230.246 493.123 219.706 Z" fill="#000000" fill-rule="evenodd" fill-opacity="1" /><path clip-path="url(#clip310)" d="M 0 0 M534.565 209.517 Q534.565 210.337 534.184 210.542 Q533.804 210.718 532.75 210.718 L527.128 210.718 L522.678 228.402 Q522.327 229.953 522.327 231.271 Q522.327 232.735 522.766 233.379 Q523.234 234.023 524.2 234.023 Q526.103 234.023 528.153 232.296 Q530.232 230.568 531.988 226.352 Q532.223 225.796 532.34 225.679 Q532.486 225.532 532.867 225.532 Q533.599 225.532 533.599 226.118 Q533.599 226.323 533.189 227.26 Q532.808 228.197 531.959 229.573 Q531.139 230.949 530.056 232.237 Q529.002 233.525 527.392 234.462 Q525.781 235.37 524.054 235.37 Q521.624 235.37 520.072 233.818 Q518.55 232.266 518.55 229.836 Q518.55 229.046 519.165 226.528 Q519.779 223.981 523.117 210.718 L517.818 210.718 Q517.086 210.718 516.793 210.688 Q516.53 210.659 516.325 210.513 Q516.149 210.337 516.149 209.986 Q516.149 209.429 516.383 209.195 Q516.617 208.932 516.91 208.902 Q517.232 208.844 517.964 208.844 L523.586 208.844 L525.928 199.329 Q526.162 198.392 526.748 197.865 Q527.362 197.308 527.714 197.25 Q528.065 197.162 528.329 197.162 Q529.119 197.162 529.588 197.601 Q530.056 198.011 530.056 198.772 Q530.056 199.182 527.597 208.844 L532.867 208.844 Q533.54 208.844 533.804 208.873 Q534.096 208.902 534.331 209.049 Q534.565 209.195 534.565 209.517 Z" fill="#000000" fill-rule="evenodd" fill-opacity="1" /><path clip-path="url(#clip310)" d="M 0 0 M537.579 249.101 Q537.579 248.808 538.341 248.077 Q548.002 238.239 548.002 219.706 Q548.002 201.115 538.721 191.716 Q537.579 190.633 537.579 190.311 Q537.579 189.725 538.165 189.725 Q538.575 189.725 540.009 190.926 Q541.473 192.126 543.669 194.878 Q545.894 197.63 547.534 200.997 Q551.486 209.166 551.486 219.706 Q551.486 229.836 547.71 238.005 Q546.099 241.43 543.845 244.3 Q541.591 247.169 540.097 248.428 Q538.604 249.687 538.165 249.687 Q537.579 249.687 537.579 249.101 Z" fill="#000000" fill-rule="evenodd" fill-opacity="1" /><path clip-path="url(#clip310)" d="M 0 0 M813.373 254.002 Q807.008 254.002 803.246 258.747 Q799.514 263.493 799.514 271.681 Q799.514 279.841 803.246 284.586 Q807.008 289.332 813.373 289.332 Q819.739 289.332 823.443 284.586 Q827.175 279.841 827.175 271.681 Q827.175 263.493 823.443 258.747 Q819.739 254.002 813.373 254.002 M813.373 249.257 Q822.459 249.257 827.899 255.362 Q833.339 261.438 833.339 271.681 Q833.339 281.895 827.899 288.001 Q822.459 294.077 813.373 294.077 Q804.259 294.077 798.79 288.001 Q793.35 281.924 793.35 271.681 Q793.35 261.438 798.79 255.362 Q804.259 249.257 813.373 249.257 Z" fill="#000000" fill-rule="evenodd" fill-opacity="1" /><path clip-path="url(#clip310)" d="M 0 0 M858.657 248.215 L858.657 252.642 L853.564 252.642 Q850.7 252.642 849.571 253.799 Q848.472 254.957 848.472 257.966 L848.472 260.831 L857.239 260.831 L857.239 264.968 L848.472 264.968 L848.472 293.238 L843.119 293.238 L843.119 264.968 L838.026 264.968 L838.026 260.831 L843.119 260.831 L843.119 258.574 Q843.119 253.163 845.636 250.703 Q848.153 248.215 853.622 248.215 L858.657 248.215 Z" fill="#000000" fill-rule="evenodd" fill-opacity="1" /><path clip-path="url(#clip310)" d="M 0 0 M879.519 248.215 L879.519 252.642 L874.426 252.642 Q871.562 252.642 870.433 253.799 Q869.334 254.957 869.334 257.966 L869.334 260.831 L878.101 260.831 L878.101 264.968 L869.334 264.968 L869.334 293.238 L863.981 293.238 L863.981 264.968 L858.888 264.968 L858.888 260.831 L863.981 260.831 L863.981 258.574 Q863.981 253.163 866.498 250.703 Q869.016 248.215 874.484 248.215 L879.519 248.215 Z" fill="#000000" fill-rule="evenodd" fill-opacity="1" /><path clip-path="url(#clip310)" d="M 0 0 M904.635 261.786 L904.635 266.82 Q902.378 265.663 899.947 265.084 Q897.517 264.505 894.912 264.505 Q890.948 264.505 888.952 265.721 Q886.984 266.936 886.984 269.366 Q886.984 271.218 888.402 272.289 Q889.82 273.331 894.102 274.285 L895.925 274.691 Q901.596 275.906 903.969 278.134 Q906.371 280.333 906.371 284.297 Q906.371 288.811 902.783 291.444 Q899.224 294.077 892.974 294.077 Q890.37 294.077 887.534 293.556 Q884.727 293.064 881.602 292.052 L881.602 286.554 Q884.554 288.087 887.418 288.869 Q890.283 289.621 893.089 289.621 Q896.851 289.621 898.876 288.348 Q900.902 287.046 900.902 284.702 Q900.902 282.532 899.426 281.375 Q897.979 280.217 893.032 279.147 L891.18 278.713 Q886.232 277.671 884.033 275.53 Q881.834 273.36 881.834 269.598 Q881.834 265.026 885.074 262.538 Q888.315 260.049 894.276 260.049 Q897.227 260.049 899.831 260.483 Q902.435 260.917 904.635 261.786 Z" fill="#000000" fill-rule="evenodd" fill-opacity="1" /><path clip-path="url(#clip310)" d="M 0 0 M942.568 275.703 L942.568 278.307 L918.089 278.307 Q918.437 283.805 921.388 286.699 Q924.368 289.563 929.663 289.563 Q932.73 289.563 935.595 288.811 Q938.489 288.059 941.324 286.554 L941.324 291.589 Q938.46 292.804 935.45 293.44 Q932.441 294.077 929.345 294.077 Q921.59 294.077 917.048 289.563 Q912.534 285.049 912.534 277.353 Q912.534 269.395 916.816 264.737 Q921.128 260.049 928.419 260.049 Q934.958 260.049 938.749 264.274 Q942.568 268.47 942.568 275.703 M937.244 274.141 Q937.186 269.772 934.785 267.167 Q932.412 264.563 928.477 264.563 Q924.021 264.563 921.33 267.081 Q918.668 269.598 918.263 274.17 L937.244 274.141 Z" fill="#000000" fill-rule="evenodd" fill-opacity="1" /><path clip-path="url(#clip310)" d="M 0 0 M956.573 251.629 L956.573 260.831 L967.539 260.831 L967.539 264.968 L956.573 264.968 L956.573 282.561 Q956.573 286.525 957.644 287.653 Q958.743 288.782 962.071 288.782 L967.539 288.782 L967.539 293.238 L962.071 293.238 Q955.907 293.238 953.564 290.952 Q951.22 288.637 951.22 282.561 L951.22 264.968 L947.314 264.968 L947.314 260.831 L951.22 260.831 L951.22 251.629 L956.573 251.629 Z" fill="#000000" fill-rule="evenodd" fill-opacity="1" /><path clip-path="url(#clip310)" d="
M1370.18 1509.26 L2352.76 1509.26 L2352.76 123.472 L1370.18 123.472  Z
  " fill="#ffffff" fill-rule="evenodd" fill-opacity="1"/>
<defs>
  <clipPath id="clip313">
    <rect x="1370" y="123" width="984" height="1387"/>
  </clipPath>
</defs>
<polyline clip-path="url(#clip310)" style="stroke:#000000; stroke-width:4; stroke-opacity:1; fill:none" points="
  1370.18,1509.26 2352.76,1509.26 
  "/>
<path clip-path="url(#clip310)" d="M 0 0 M1869.94 1554.29 Q1869.94 1555.19 1869.52 1555.42 Q1869.1 1555.61 1867.94 1555.61 L1861.76 1555.61 L1856.86 1575.06 Q1856.48 1576.77 1856.48 1578.22 Q1856.48 1579.83 1856.96 1580.54 Q1857.48 1581.25 1858.54 1581.25 Q1860.63 1581.25 1862.89 1579.35 Q1865.17 1577.44 1867.11 1572.81 Q1867.36 1572.2 1867.49 1572.07 Q1867.65 1571.91 1868.07 1571.91 Q1868.88 1571.91 1868.88 1572.55 Q1868.88 1572.78 1868.43 1573.81 Q1868.01 1574.84 1867.07 1576.35 Q1866.17 1577.86 1864.98 1579.28 Q1863.82 1580.7 1862.05 1581.73 Q1860.28 1582.73 1858.38 1582.73 Q1855.7 1582.73 1854 1581.02 Q1852.32 1579.31 1852.32 1576.64 Q1852.32 1575.77 1853 1573 Q1853.68 1570.2 1857.35 1555.61 L1851.52 1555.61 Q1850.71 1555.61 1850.39 1555.58 Q1850.1 1555.54 1849.88 1555.38 Q1849.68 1555.19 1849.68 1554.8 Q1849.68 1554.19 1849.94 1553.93 Q1850.2 1553.64 1850.52 1553.61 Q1850.87 1553.55 1851.68 1553.55 L1857.86 1553.55 L1860.44 1543.08 Q1860.7 1542.05 1861.34 1541.47 Q1862.02 1540.86 1862.4 1540.79 Q1862.79 1540.7 1863.08 1540.7 Q1863.95 1540.7 1864.46 1541.18 Q1864.98 1541.63 1864.98 1542.47 Q1864.98 1542.92 1862.27 1553.55 L1868.07 1553.55 Q1868.81 1553.55 1869.1 1553.58 Q1869.42 1553.61 1869.68 1553.77 Q1869.94 1553.93 1869.94 1554.29 Z" fill="#000000" fill-rule="evenodd" fill-opacity="1" /><polyline clip-path="url(#clip310)" style="stroke:#000000; stroke-width:4; stroke-opacity:1; fill:none" points="
  1370.18,1509.26 1370.18,123.472 
  "/>
<polyline clip-path="url(#clip310)" style="stroke:#000000; stroke-width:4; stroke-opacity:1; fill:none" points="
  1370.18,1470.04 1381.97,1470.04 
  "/>
<polyline clip-path="url(#clip310)" style="stroke:#000000; stroke-width:4; stroke-opacity:1; fill:none" points="
  1370.18,162.692 1381.97,162.692 
  "/>
<path clip-path="url(#clip310)" d="M 0 0 M1322.24 1455.84 Q1318.63 1455.84 1316.8 1459.4 Q1314.99 1462.94 1314.99 1470.07 Q1314.99 1477.18 1316.8 1480.74 Q1318.63 1484.29 1322.24 1484.29 Q1325.87 1484.29 1327.68 1480.74 Q1329.51 1477.18 1329.51 1470.07 Q1329.51 1462.94 1327.68 1459.4 Q1325.87 1455.84 1322.24 1455.84 M1322.24 1452.13 Q1328.05 1452.13 1331.1 1456.74 Q1334.18 1461.32 1334.18 1470.07 Q1334.18 1478.8 1331.1 1483.41 Q1328.05 1487.99 1322.24 1487.99 Q1316.43 1487.99 1313.35 1483.41 Q1310.29 1478.8 1310.29 1470.07 Q1310.29 1461.32 1313.35 1456.74 Q1316.43 1452.13 1322.24 1452.13 Z" fill="#000000" fill-rule="evenodd" fill-opacity="1" /><path clip-path="url(#clip310)" d="M 0 0 M1314.27 176.037 L1321.91 176.037 L1321.91 149.672 L1313.6 151.338 L1313.6 147.079 L1321.87 145.412 L1326.54 145.412 L1326.54 176.037 L1334.18 176.037 L1334.18 179.972 L1314.27 179.972 L1314.27 176.037 Z" fill="#000000" fill-rule="evenodd" fill-opacity="1" /><path clip-path="url(#clip310)" d="M 0 0 M1237.86 839.041 Q1238.31 839.041 1239.38 839.331 L1264.56 845.644 Q1270.17 847.029 1274.09 851.537 Q1278.02 856.014 1278.02 861.102 Q1278.02 864.162 1276.38 866.127 Q1274.77 868.091 1272.29 868.091 Q1270.1 868.091 1269.04 866.932 Q1268.01 865.772 1268.01 864.387 Q1268.01 863.937 1268.14 863.453 Q1268.27 862.97 1268.81 862.455 Q1269.36 861.94 1270.29 861.94 Q1271.81 861.94 1273 863.26 Q1273.55 863.904 1273.68 864.516 Q1273.8 865.096 1273.8 866.094 Q1274.71 865.708 1275.32 864.999 Q1275.93 864.291 1276.16 863.486 Q1276.41 862.681 1276.48 862.165 Q1276.57 861.618 1276.57 861.102 Q1276.57 856.98 1272.42 853.824 Q1271.16 852.89 1269.91 852.214 Q1268.68 851.505 1267.17 850.99 Q1265.69 850.475 1264.88 850.249 Q1264.08 849.991 1262.24 849.541 Q1265.24 852.536 1265.24 856.207 Q1265.24 857.753 1264.82 859.138 Q1264.4 860.491 1263.53 861.682 Q1262.63 862.874 1261.05 863.582 Q1259.47 864.259 1257.38 864.259 Q1255.16 864.259 1252.13 863.389 Q1249.1 862.52 1243.53 860.426 Q1240.41 859.299 1238.89 859.299 Q1238.15 859.299 1237.7 859.46 Q1237.22 859.621 1237.06 859.943 Q1236.86 860.265 1236.83 860.458 Q1236.8 860.619 1236.8 860.941 Q1236.8 862.842 1238.73 864.613 Q1240.66 866.384 1244.98 867.608 Q1245.79 867.866 1245.98 868.027 Q1246.17 868.188 1246.17 868.671 Q1246.14 869.476 1245.5 869.476 Q1245.24 869.476 1244.24 869.186 Q1243.21 868.896 1241.7 868.22 Q1240.15 867.511 1238.76 866.545 Q1237.35 865.579 1236.35 864.065 Q1235.35 862.52 1235.35 860.748 Q1235.35 858.333 1236.93 856.851 Q1238.47 855.338 1240.76 855.338 Q1241.7 855.338 1242.53 855.595 Q1243.34 855.821 1245.5 856.658 Q1254.19 860.04 1258.44 860.04 Q1259.47 860.04 1260.34 859.879 Q1261.18 859.685 1262.02 859.267 Q1262.82 858.848 1263.31 858.011 Q1263.76 857.141 1263.76 855.95 Q1263.76 854.436 1263.05 853.019 Q1262.31 851.57 1261.31 850.668 Q1260.31 849.734 1259.47 849.186 Q1258.6 848.607 1258.15 848.478 L1246.3 845.515 L1241.02 844.194 Q1238.15 843.582 1237.44 843.293 Q1236.77 842.906 1236.41 842.23 Q1236.06 841.554 1236.06 840.974 Q1236.06 840.169 1236.54 839.621 Q1237.03 839.041 1237.86 839.041 Z" fill="#000000" fill-rule="evenodd" fill-opacity="1" /><path clip-path="url(#clip310)" d="M 0 0 M1248.01 837.482 Q1236.86 837.482 1227.88 833.327 Q1224.11 831.556 1220.95 829.076 Q1217.8 826.596 1216.41 824.954 Q1215.03 823.311 1215.03 822.86 Q1215.03 822.216 1215.67 822.184 Q1215.99 822.184 1216.8 823.054 Q1227.62 833.682 1248.01 833.649 Q1268.46 833.649 1278.86 823.311 Q1279.99 822.184 1280.34 822.184 Q1280.99 822.184 1280.99 822.86 Q1280.99 823.311 1279.67 824.889 Q1278.35 826.467 1275.32 828.915 Q1272.29 831.363 1268.59 833.134 Q1259.6 837.482 1248.01 837.482 Z" fill="#000000" fill-rule="evenodd" fill-opacity="1" /><path clip-path="url(#clip310)" d="M 0 0 M1236.8 791.897 Q1237.7 791.897 1237.93 792.316 Q1238.12 792.734 1238.12 793.894 L1238.12 800.077 L1257.57 804.972 Q1259.28 805.359 1260.73 805.359 Q1262.34 805.359 1263.05 804.876 Q1263.76 804.361 1263.76 803.298 Q1263.76 801.204 1261.86 798.95 Q1259.96 796.663 1255.32 794.731 Q1254.71 794.473 1254.58 794.345 Q1254.42 794.184 1254.42 793.765 Q1254.42 792.96 1255.06 792.96 Q1255.29 792.96 1256.32 793.411 Q1257.35 793.829 1258.86 794.763 Q1260.37 795.665 1261.79 796.857 Q1263.21 798.016 1264.24 799.787 Q1265.24 801.559 1265.24 803.459 Q1265.24 806.132 1263.53 807.839 Q1261.82 809.514 1259.15 809.514 Q1258.28 809.514 1255.51 808.837 Q1252.71 808.161 1238.12 804.489 L1238.12 810.319 Q1238.12 811.124 1238.09 811.446 Q1238.06 811.736 1237.89 811.961 Q1237.7 812.154 1237.32 812.154 Q1236.7 812.154 1236.45 811.897 Q1236.16 811.639 1236.12 811.317 Q1236.06 810.963 1236.06 810.158 L1236.06 803.974 L1225.59 801.398 Q1224.56 801.14 1223.98 800.496 Q1223.37 799.82 1223.31 799.433 Q1223.21 799.047 1223.21 798.757 Q1223.21 797.887 1223.69 797.372 Q1224.14 796.857 1224.98 796.857 Q1225.43 796.857 1236.06 799.562 L1236.06 793.765 Q1236.06 793.024 1236.09 792.734 Q1236.12 792.412 1236.28 792.155 Q1236.45 791.897 1236.8 791.897 Z" fill="#000000" fill-rule="evenodd" fill-opacity="1" /><path clip-path="url(#clip310)" d="M 0 0 M1280.34 788.581 Q1280.02 788.581 1279.22 787.744 Q1268.39 777.116 1248.01 777.116 Q1227.56 777.116 1217.22 787.325 Q1216.03 788.581 1215.67 788.581 Q1215.03 788.581 1215.03 787.937 Q1215.03 787.486 1216.35 785.908 Q1217.67 784.298 1220.7 781.883 Q1223.72 779.435 1227.43 777.631 Q1236.41 773.284 1248.01 773.284 Q1259.15 773.284 1268.14 777.438 Q1271.9 779.21 1275.06 781.689 Q1278.22 784.169 1279.6 785.812 Q1280.99 787.454 1280.99 787.937 Q1280.99 788.581 1280.34 788.581 Z" fill="#000000" fill-rule="evenodd" fill-opacity="1" /><path clip-path="url(#clip310)" d="M 0 0 M1859.14 49.9314 Q1859.14 41.7081 1855.74 37.0496 Q1852.37 32.3505 1846.46 32.3505 Q1840.55 32.3505 1837.14 37.0496 Q1833.78 41.7081 1833.78 49.9314 Q1833.78 58.1548 1837.14 62.8538 Q1840.55 67.5124 1846.46 67.5124 Q1852.37 67.5124 1855.74 62.8538 Q1859.14 58.1548 1859.14 49.9314 M1833.78 34.0924 Q1836.13 30.0415 1839.69 28.0971 Q1843.3 26.1121 1848.28 26.1121 Q1856.55 26.1121 1861.69 32.6746 Q1866.88 39.2371 1866.88 49.9314 Q1866.88 60.6258 1861.69 67.1883 Q1856.55 73.7508 1848.28 73.7508 Q1843.3 73.7508 1839.69 71.8063 Q1836.13 69.8214 1833.78 65.7705 L1833.78 72.576 L1826.29 72.576 L1826.29 9.54393 L1833.78 9.54393 L1833.78 34.0924 Z" fill="#000000" fill-rule="evenodd" fill-opacity="1" /><path clip-path="url(#clip310)" d="M 0 0 M1878.06 9.62495 L1884.54 9.62495 Q1890.61 19.1851 1893.61 28.3401 Q1896.65 37.4952 1896.65 46.5287 Q1896.65 55.6027 1893.61 64.7983 Q1890.61 73.9938 1884.54 83.5134 L1878.06 83.5134 Q1883.44 74.2369 1886.08 65.0818 Q1888.75 55.8863 1888.75 46.5287 Q1888.75 37.1711 1886.08 28.0566 Q1883.44 18.942 1878.06 9.62495 Z" fill="#000000" fill-rule="evenodd" fill-opacity="1" /><polyline clip-path="url(#clip313)" style="stroke:#009af9; stroke-width:8; stroke-opacity:1; fill:none" points="
  1426.36,194.148 1428.49,224.695 1430.63,254.36 1432.76,283.168 1442.64,405.915 1452.51,513.112 1462.38,606.73 1472.25,688.489 1482.12,759.891 1491.99,822.248 
  1501.86,876.706 1511.73,924.265 1523.59,973.525 1535.46,1015.38 1547.32,1050.95 1559.18,1081.18 1579.25,1122.32 1599.31,1153.56 1621.1,1179.05 1642.89,1197.94 
  1662.98,1211 1683.07,1220.91 1726.15,1234.85 1776.06,1243.43 1820.42,1247.4 1859.31,1249.37 1901.72,1250.59 1944.37,1251.28 1991.54,1251.69 2036.41,1251.9 
  2083.07,1252.02 2122.35,1252.07 2170.3,1252.11 2215.38,1252.13 2287.6,1252.14 2298.71,1252.14 
  "/>
<polyline clip-path="url(#clip313)" style="stroke:#e26f46; stroke-width:8; stroke-opacity:1; fill:none" stroke-dasharray="32, 20" points="
  1424.22,1470.04 2298.71,1470.04 
  "/>
<polyline clip-path="url(#clip313)" style="stroke:#3da44d; stroke-width:8; stroke-opacity:1; fill:none" stroke-dasharray="32, 20" points="
  1397.99,1470.04 1399.12,1470.04 1400.25,1470.04 1401.38,1470.04 1402.52,1470.04 1403.65,1470.04 1404.78,1470.04 1405.91,1470.04 1407.04,1470.04 1412.27,1470.04 
  1417.51,1470.04 1418.81,1470.04 1420.12,1470.04 1421.43,1470.04 1422.74,1470.04 1423.39,1470.04 1424.04,1470.04 1424.7,162.692 1425.35,162.692 1426.01,162.692 
  1426.66,162.692 1427.31,162.692 1427.97,162.692 1430.58,162.692 1433.2,162.692 1435.82,162.692 1438.43,162.692 1443.66,162.692 1448.89,162.692 1469.82,162.692 
  1490.75,162.692 1515.9,162.692 1541.05,162.692 1562.31,162.692 1583.58,162.692 1629.78,162.692 1672.37,162.692 1718.03,162.692 1770.94,162.692 1817.95,162.692 
  1859.18,162.692 1904.13,162.692 1949.35,162.692 1999.34,162.692 2046.91,162.692 2096.37,162.692 2138,162.692 2188.83,162.692 2236.62,162.692 2313.17,162.692 
  2324.95,162.692 
  "/>
<polyline clip-path="url(#clip313)" style="stroke:#a52a2a; stroke-width:8; stroke-opacity:1; fill:none" points="
  2211.26,1252.15 2211.26,1470.04 
  "/>
<circle clip-path="url(#clip313)" cx="2211.26" cy="1252.15" r="14" fill="#a52a2a" fill-rule="evenodd" fill-opacity="1" stroke="#ffffff" stroke-opacity="1" stroke-width="3.2"/>
<circle clip-path="url(#clip313)" cx="2211.26" cy="1470.04" r="14" fill="#a52a2a" fill-rule="evenodd" fill-opacity="1" stroke="#ffffff" stroke-opacity="1" stroke-width="3.2"/>
<path clip-path="url(#clip310)" d="M 0 0 M1665.95 1121.5 Q1665.95 1121.91 1665.69 1122.88 L1659.95 1145.77 Q1658.69 1150.87 1654.59 1154.44 Q1650.53 1158.01 1645.9 1158.01 Q1643.12 1158.01 1641.33 1156.52 Q1639.55 1155.06 1639.55 1152.8 Q1639.55 1150.81 1640.6 1149.84 Q1641.65 1148.91 1642.91 1148.91 Q1643.32 1148.91 1643.76 1149.02 Q1644.2 1149.14 1644.67 1149.64 Q1645.14 1150.14 1645.14 1150.99 Q1645.14 1152.36 1643.94 1153.45 Q1643.35 1153.94 1642.8 1154.06 Q1642.27 1154.18 1641.36 1154.18 Q1641.71 1155 1642.36 1155.55 Q1643 1156.11 1643.73 1156.31 Q1644.46 1156.55 1644.93 1156.61 Q1645.43 1156.7 1645.9 1156.7 Q1649.65 1156.7 1652.52 1152.92 Q1653.37 1151.78 1653.98 1150.63 Q1654.62 1149.52 1655.09 1148.15 Q1655.56 1146.8 1655.77 1146.07 Q1656 1145.34 1656.41 1143.67 Q1653.69 1146.39 1650.35 1146.39 Q1648.94 1146.39 1647.69 1146.01 Q1646.46 1145.63 1645.37 1144.84 Q1644.29 1144.02 1643.64 1142.58 Q1643.03 1141.15 1643.03 1139.25 Q1643.03 1137.23 1643.82 1134.47 Q1644.61 1131.72 1646.51 1126.66 Q1647.54 1123.82 1647.54 1122.44 Q1647.54 1121.77 1647.39 1121.36 Q1647.25 1120.92 1646.95 1120.77 Q1646.66 1120.6 1646.48 1120.57 Q1646.34 1120.54 1646.05 1120.54 Q1644.32 1120.54 1642.71 1122.29 Q1641.1 1124.05 1639.99 1127.97 Q1639.75 1128.71 1639.6 1128.88 Q1639.46 1129.06 1639.02 1129.06 Q1638.29 1129.03 1638.29 1128.44 Q1638.29 1128.21 1638.55 1127.3 Q1638.81 1126.36 1639.43 1124.99 Q1640.07 1123.58 1640.95 1122.32 Q1641.83 1121.03 1643.21 1120.13 Q1644.61 1119.22 1646.22 1119.22 Q1648.42 1119.22 1649.76 1120.65 Q1651.14 1122.06 1651.14 1124.14 Q1651.14 1124.99 1650.91 1125.75 Q1650.7 1126.48 1649.94 1128.44 Q1646.87 1136.35 1646.87 1140.21 Q1646.87 1141.15 1647.01 1141.94 Q1647.19 1142.7 1647.57 1143.46 Q1647.95 1144.19 1648.71 1144.63 Q1649.5 1145.04 1650.58 1145.04 Q1651.96 1145.04 1653.25 1144.4 Q1654.57 1143.73 1655.39 1142.82 Q1656.23 1141.91 1656.73 1141.15 Q1657.26 1140.36 1657.38 1139.95 L1660.07 1129.17 L1661.27 1124.37 Q1661.83 1121.77 1662.09 1121.12 Q1662.44 1120.51 1663.06 1120.19 Q1663.67 1119.86 1664.2 1119.86 Q1664.93 1119.86 1665.43 1120.3 Q1665.95 1120.74 1665.95 1121.5 Z" fill="#000000" fill-rule="evenodd" fill-opacity="1" /><path clip-path="url(#clip310)" d="M 0 0 M1667.37 1130.73 Q1667.37 1120.6 1671.15 1112.43 Q1672.76 1109 1675.01 1106.13 Q1677.27 1103.26 1678.76 1102 Q1680.26 1100.75 1680.67 1100.75 Q1681.25 1100.75 1681.28 1101.33 Q1681.28 1101.62 1680.49 1102.36 Q1670.83 1112.19 1670.86 1130.73 Q1670.86 1149.32 1680.26 1158.77 Q1681.28 1159.8 1681.28 1160.12 Q1681.28 1160.71 1680.67 1160.71 Q1680.26 1160.71 1678.82 1159.51 Q1677.39 1158.31 1675.16 1155.55 Q1672.94 1152.8 1671.33 1149.43 Q1667.37 1141.27 1667.37 1130.73 Z" fill="#000000" fill-rule="evenodd" fill-opacity="1" /><path clip-path="url(#clip310)" d="M 0 0 M1708.81 1120.54 Q1708.81 1121.36 1708.43 1121.56 Q1708.05 1121.74 1707 1121.74 L1701.38 1121.74 L1696.93 1139.42 Q1696.58 1140.97 1696.58 1142.29 Q1696.58 1143.75 1697.02 1144.4 Q1697.48 1145.04 1698.45 1145.04 Q1700.35 1145.04 1702.4 1143.32 Q1704.48 1141.59 1706.24 1137.37 Q1706.47 1136.82 1706.59 1136.7 Q1706.74 1136.55 1707.12 1136.55 Q1707.85 1136.55 1707.85 1137.14 Q1707.85 1137.34 1707.44 1138.28 Q1707.06 1139.22 1706.21 1140.59 Q1705.39 1141.97 1704.31 1143.26 Q1703.25 1144.55 1701.64 1145.48 Q1700.03 1146.39 1698.3 1146.39 Q1695.87 1146.39 1694.32 1144.84 Q1692.8 1143.29 1692.8 1140.86 Q1692.8 1140.07 1693.41 1137.55 Q1694.03 1135 1697.37 1121.74 L1692.07 1121.74 Q1691.34 1121.74 1691.04 1121.71 Q1690.78 1121.68 1690.57 1121.53 Q1690.4 1121.36 1690.4 1121.01 Q1690.4 1120.45 1690.63 1120.21 Q1690.87 1119.95 1691.16 1119.92 Q1691.48 1119.86 1692.21 1119.86 L1697.84 1119.86 L1700.18 1110.35 Q1700.41 1109.41 1701 1108.88 Q1701.61 1108.33 1701.96 1108.27 Q1702.31 1108.18 1702.58 1108.18 Q1703.37 1108.18 1703.84 1108.62 Q1704.31 1109.03 1704.31 1109.79 Q1704.31 1110.2 1701.85 1119.86 L1707.12 1119.86 Q1707.79 1119.86 1708.05 1119.89 Q1708.35 1119.92 1708.58 1120.07 Q1708.81 1120.21 1708.81 1120.54 Z" fill="#000000" fill-rule="evenodd" fill-opacity="1" /><path clip-path="url(#clip310)" d="M 0 0 M1711.83 1160.12 Q1711.83 1159.83 1712.59 1159.1 Q1722.25 1149.26 1722.25 1130.73 Q1722.25 1112.13 1712.97 1102.74 Q1711.83 1101.65 1711.83 1101.33 Q1711.83 1100.75 1712.41 1100.75 Q1712.82 1100.75 1714.26 1101.95 Q1715.72 1103.15 1717.92 1105.9 Q1720.14 1108.65 1721.78 1112.02 Q1725.74 1120.19 1725.74 1130.73 Q1725.74 1140.86 1721.96 1149.02 Q1720.35 1152.45 1718.09 1155.32 Q1715.84 1158.19 1714.35 1159.45 Q1712.85 1160.71 1712.41 1160.71 Q1711.83 1160.71 1711.83 1160.12 Z" fill="#000000" fill-rule="evenodd" fill-opacity="1" /><path clip-path="url(#clip310)" d="M 0 0 M1640.2 1387.09 Q1640.2 1387.5 1639.94 1388.47 L1634.2 1411.37 Q1632.94 1416.46 1628.84 1420.03 Q1624.77 1423.6 1620.15 1423.6 Q1617.37 1423.6 1615.58 1422.11 Q1613.8 1420.65 1613.8 1418.39 Q1613.8 1416.4 1614.85 1415.44 Q1615.9 1414.5 1617.16 1414.5 Q1617.57 1414.5 1618.01 1414.62 Q1618.45 1414.73 1618.92 1415.23 Q1619.39 1415.73 1619.39 1416.58 Q1619.39 1417.95 1618.19 1419.04 Q1617.6 1419.53 1617.05 1419.65 Q1616.52 1419.77 1615.61 1419.77 Q1615.96 1420.59 1616.61 1421.14 Q1617.25 1421.7 1617.98 1421.91 Q1618.71 1422.14 1619.18 1422.2 Q1619.68 1422.29 1620.15 1422.29 Q1623.9 1422.29 1626.77 1418.51 Q1627.61 1417.37 1628.23 1416.23 Q1628.87 1415.11 1629.34 1413.74 Q1629.81 1412.39 1630.02 1411.66 Q1630.25 1410.93 1630.66 1409.26 Q1627.94 1411.98 1624.6 1411.98 Q1623.19 1411.98 1621.94 1411.6 Q1620.71 1411.22 1619.62 1410.43 Q1618.54 1409.61 1617.89 1408.17 Q1617.28 1406.74 1617.28 1404.84 Q1617.28 1402.82 1618.07 1400.06 Q1618.86 1397.31 1620.76 1392.25 Q1621.79 1389.41 1621.79 1388.03 Q1621.79 1387.36 1621.64 1386.95 Q1621.5 1386.51 1621.2 1386.36 Q1620.91 1386.19 1620.73 1386.16 Q1620.59 1386.13 1620.3 1386.13 Q1618.57 1386.13 1616.96 1387.88 Q1615.35 1389.64 1614.23 1393.56 Q1614 1394.3 1613.85 1394.47 Q1613.71 1394.65 1613.27 1394.65 Q1612.54 1394.62 1612.54 1394.03 Q1612.54 1393.8 1612.8 1392.89 Q1613.06 1391.95 1613.68 1390.58 Q1614.32 1389.17 1615.2 1387.91 Q1616.08 1386.63 1617.46 1385.72 Q1618.86 1384.81 1620.47 1384.81 Q1622.67 1384.81 1624.01 1386.24 Q1625.39 1387.65 1625.39 1389.73 Q1625.39 1390.58 1625.16 1391.34 Q1624.95 1392.07 1624.19 1394.03 Q1621.12 1401.94 1621.12 1405.8 Q1621.12 1406.74 1621.26 1407.53 Q1621.44 1408.29 1621.82 1409.05 Q1622.2 1409.78 1622.96 1410.22 Q1623.75 1410.63 1624.83 1410.63 Q1626.21 1410.63 1627.5 1409.99 Q1628.82 1409.32 1629.64 1408.41 Q1630.48 1407.5 1630.98 1406.74 Q1631.51 1405.95 1631.63 1405.54 L1634.32 1394.76 L1635.52 1389.96 Q1636.08 1387.36 1636.34 1386.71 Q1636.69 1386.1 1637.31 1385.78 Q1637.92 1385.45 1638.45 1385.45 Q1639.18 1385.45 1639.68 1385.89 Q1640.2 1386.33 1640.2 1387.09 Z" fill="#000000" fill-rule="evenodd" fill-opacity="1" /><path clip-path="url(#clip310)" d="M 0 0 M1661.78 1419.58 Q1661.78 1420.73 1661.21 1421.34 Q1660.63 1421.94 1659.85 1421.94 Q1659.22 1421.94 1658.87 1421.57 Q1658.54 1421.2 1658.54 1420.71 Q1658.54 1419.99 1659.12 1419.41 Q1659.71 1418.84 1660.57 1418.82 Q1660.28 1418.06 1659.53 1417.61 Q1658.77 1417.14 1658.09 1417.02 Q1657.44 1416.89 1656.78 1416.89 Q1655.49 1416.89 1654.5 1417.3 Q1653.52 1417.71 1653.03 1418.35 Q1652.54 1418.96 1652.31 1419.56 Q1652.09 1420.15 1652.09 1420.67 Q1652.09 1421.12 1652.19 1421.48 Q1652.31 1421.83 1652.6 1422.1 Q1652.89 1422.35 1653.09 1422.51 Q1653.32 1422.67 1653.81 1422.82 Q1654.3 1422.96 1654.5 1423.02 Q1654.71 1423.06 1655.28 1423.19 Q1656.47 1423.43 1657.01 1423.58 Q1657.54 1423.7 1658.23 1424.05 Q1658.95 1424.4 1659.48 1424.95 Q1660.78 1426.24 1660.78 1428.02 Q1660.78 1428.68 1660.55 1429.48 Q1660.35 1430.28 1659.75 1431.28 Q1659.16 1432.29 1658.26 1433.08 Q1657.35 1433.88 1655.8 1434.44 Q1654.26 1434.99 1652.33 1434.99 Q1649.65 1434.99 1647.99 1433.86 Q1646.33 1432.72 1646.33 1430.91 Q1646.33 1429.6 1647.04 1428.88 Q1647.76 1428.15 1648.68 1428.15 Q1649.38 1428.15 1649.81 1428.54 Q1650.24 1428.9 1650.24 1429.6 Q1650.24 1430.54 1649.48 1431.26 Q1648.73 1431.98 1647.6 1431.83 Q1648.56 1434.05 1652.37 1434.05 Q1653.81 1434.05 1654.91 1433.68 Q1656.04 1433.29 1656.66 1432.76 Q1657.29 1432.2 1657.7 1431.53 Q1658.11 1430.85 1658.23 1430.34 Q1658.38 1429.83 1658.38 1429.44 Q1658.38 1428.76 1658.11 1428.25 Q1657.85 1427.74 1657.48 1427.45 Q1657.13 1427.14 1656.45 1426.9 Q1655.8 1426.63 1655.32 1426.53 Q1654.85 1426.42 1654.01 1426.26 Q1653.62 1426.18 1653.38 1426.14 Q1653.13 1426.08 1652.62 1425.91 Q1652.13 1425.73 1651.78 1425.54 Q1651.45 1425.36 1651.02 1425.03 Q1650.59 1424.7 1650.32 1424.31 Q1650.06 1423.92 1649.87 1423.35 Q1649.69 1422.78 1649.69 1422.1 Q1649.69 1421.48 1649.87 1420.75 Q1650.08 1420.01 1650.59 1419.15 Q1651.12 1418.29 1651.88 1417.59 Q1652.64 1416.89 1653.91 1416.44 Q1655.2 1415.97 1656.78 1415.97 Q1659.08 1415.97 1660.43 1417.04 Q1661.78 1418.08 1661.78 1419.58 Z" fill="#000000" fill-rule="evenodd" fill-opacity="1" /><path clip-path="url(#clip310)" d="M 0 0 M1687.74 1422.67 Q1687.74 1425.67 1686.23 1428.56 Q1684.73 1431.45 1682.37 1433.23 Q1680.02 1434.99 1677.62 1434.99 Q1676.19 1434.99 1675.22 1434.21 Q1674.28 1433.41 1673.77 1432.29 Q1673.38 1433.68 1672.54 1437.02 Q1671.7 1440.36 1671.7 1440.69 Q1671.7 1440.87 1671.74 1440.95 Q1671.78 1441.04 1671.96 1441.14 Q1672.15 1441.26 1672.6 1441.3 Q1673.05 1441.36 1673.81 1441.36 Q1674.2 1441.36 1674.34 1441.36 Q1674.5 1441.39 1674.65 1441.49 Q1674.81 1441.59 1674.81 1441.82 Q1674.81 1442.66 1674.05 1442.66 Q1673.38 1442.66 1671.98 1442.59 Q1670.59 1442.53 1669.89 1442.53 Q1669.3 1442.53 1668.11 1442.59 Q1666.92 1442.66 1666.37 1442.66 Q1665.81 1442.66 1665.81 1442.16 Q1665.81 1441.88 1665.9 1441.69 Q1665.96 1441.53 1666.12 1441.45 Q1666.29 1441.39 1666.43 1441.36 Q1666.55 1441.36 1666.8 1441.36 Q1667.74 1441.36 1668.15 1441.2 Q1668.56 1441.06 1668.7 1440.75 Q1668.87 1440.46 1669.05 1439.64 L1673.77 1420.95 Q1674.05 1419.7 1674.05 1418.82 Q1674.05 1417.71 1673.71 1417.3 Q1673.36 1416.89 1672.74 1416.89 Q1671.68 1416.89 1670.98 1418.16 Q1670.28 1419.44 1669.69 1421.89 Q1669.5 1422.57 1669.38 1422.71 Q1669.28 1422.86 1668.97 1422.86 Q1668.46 1422.84 1668.46 1422.43 Q1668.46 1422.33 1668.62 1421.67 Q1668.79 1420.99 1669.09 1420.01 Q1669.42 1419.01 1669.77 1418.37 Q1669.98 1417.94 1670.16 1417.65 Q1670.34 1417.37 1670.71 1416.91 Q1671.1 1416.46 1671.66 1416.22 Q1672.21 1415.97 1672.89 1415.97 Q1674.2 1415.97 1675.28 1416.75 Q1676.37 1417.53 1676.66 1419.11 Q1677.82 1417.73 1679.26 1416.85 Q1680.69 1415.97 1682.15 1415.97 Q1684.57 1415.97 1686.15 1417.86 Q1687.74 1419.72 1687.74 1422.67 M1684.71 1420.83 Q1684.71 1418.96 1683.99 1417.94 Q1683.3 1416.89 1682.03 1416.89 Q1680.45 1416.89 1678.62 1418.49 Q1676.82 1420.01 1676.45 1421.42 L1674.38 1429.64 L1674.26 1430.32 Q1674.26 1430.44 1674.32 1430.81 Q1674.4 1431.16 1674.63 1431.73 Q1674.87 1432.31 1675.2 1432.82 Q1675.55 1433.31 1676.16 1433.68 Q1676.8 1434.05 1677.58 1434.05 Q1678.83 1434.05 1680.18 1432.94 Q1681.55 1431.83 1682.58 1429.74 Q1683.21 1428.39 1683.95 1425.48 Q1684.71 1422.55 1684.71 1420.83 Z" fill="#000000" fill-rule="evenodd" fill-opacity="1" /><path clip-path="url(#clip310)" d="M 0 0 M1693.12 1396.32 Q1693.12 1386.19 1696.9 1378.02 Q1698.51 1374.59 1700.77 1371.72 Q1703.02 1368.85 1704.51 1367.59 Q1706.01 1366.34 1706.42 1366.34 Q1707 1366.34 1707.03 1366.92 Q1707.03 1367.21 1706.24 1367.95 Q1696.58 1377.78 1696.61 1396.32 Q1696.61 1414.91 1706.01 1424.37 Q1707.03 1425.39 1707.03 1425.71 Q1707.03 1426.3 1706.42 1426.3 Q1706.01 1426.3 1704.57 1425.1 Q1703.14 1423.9 1700.91 1421.14 Q1698.69 1418.39 1697.08 1415.03 Q1693.12 1406.86 1693.12 1396.32 Z" fill="#000000" fill-rule="evenodd" fill-opacity="1" /><path clip-path="url(#clip310)" d="M 0 0 M1734.56 1386.13 Q1734.56 1386.95 1734.18 1387.15 Q1733.8 1387.33 1732.75 1387.33 L1727.13 1387.33 L1722.68 1405.01 Q1722.33 1406.56 1722.33 1407.88 Q1722.33 1409.35 1722.77 1409.99 Q1723.23 1410.63 1724.2 1410.63 Q1726.1 1410.63 1728.15 1408.91 Q1730.23 1407.18 1731.99 1402.96 Q1732.22 1402.41 1732.34 1402.29 Q1732.49 1402.14 1732.87 1402.14 Q1733.6 1402.14 1733.6 1402.73 Q1733.6 1402.93 1733.19 1403.87 Q1732.81 1404.81 1731.96 1406.18 Q1731.14 1407.56 1730.06 1408.85 Q1729 1410.14 1727.39 1411.07 Q1725.78 1411.98 1724.05 1411.98 Q1721.62 1411.98 1720.07 1410.43 Q1718.55 1408.88 1718.55 1406.45 Q1718.55 1405.66 1719.16 1403.14 Q1719.78 1400.59 1723.12 1387.33 L1717.82 1387.33 Q1717.09 1387.33 1716.79 1387.3 Q1716.53 1387.27 1716.32 1387.12 Q1716.15 1386.95 1716.15 1386.6 Q1716.15 1386.04 1716.38 1385.81 Q1716.62 1385.54 1716.91 1385.51 Q1717.23 1385.45 1717.96 1385.45 L1723.59 1385.45 L1725.93 1375.94 Q1726.16 1375 1726.75 1374.48 Q1727.36 1373.92 1727.71 1373.86 Q1728.07 1373.77 1728.33 1373.77 Q1729.12 1373.77 1729.59 1374.21 Q1730.06 1374.62 1730.06 1375.38 Q1730.06 1375.79 1727.6 1385.45 L1732.87 1385.45 Q1733.54 1385.45 1733.8 1385.48 Q1734.1 1385.51 1734.33 1385.66 Q1734.56 1385.81 1734.56 1386.13 Z" fill="#000000" fill-rule="evenodd" fill-opacity="1" /><path clip-path="url(#clip310)" d="M 0 0 M1737.58 1425.71 Q1737.58 1425.42 1738.34 1424.69 Q1748 1414.85 1748 1396.32 Q1748 1377.73 1738.72 1368.33 Q1737.58 1367.24 1737.58 1366.92 Q1737.58 1366.34 1738.16 1366.34 Q1738.57 1366.34 1740.01 1367.54 Q1741.47 1368.74 1743.67 1371.49 Q1745.89 1374.24 1747.53 1377.61 Q1751.49 1385.78 1751.49 1396.32 Q1751.49 1406.45 1747.71 1414.62 Q1746.1 1418.04 1743.84 1420.91 Q1741.59 1423.78 1740.1 1425.04 Q1738.6 1426.3 1738.16 1426.3 Q1737.58 1426.3 1737.58 1425.71 Z" fill="#000000" fill-rule="evenodd" fill-opacity="1" /><path clip-path="url(#clip310)" d="M 0 0 M1665.95 201.951 L1657.31 236.617 Q1656.96 238.168 1656.96 239.486 Q1656.96 242.238 1658.75 242.238 Q1659.62 242.238 1660.33 241.682 Q1661.03 241.125 1661.59 239.954 Q1662.14 238.783 1662.49 237.7 Q1662.85 236.587 1663.31 234.831 Q1663.46 234.128 1663.58 233.952 Q1663.72 233.747 1664.13 233.747 Q1664.87 233.747 1664.87 234.333 Q1664.07 238.11 1663.05 240.276 Q1661.41 243.585 1658.63 243.585 Q1656.52 243.585 1655.03 242.296 Q1653.53 241.008 1653.18 239.076 Q1649.35 243.585 1645.37 243.585 Q1641.85 243.585 1639.63 240.92 Q1637.4 238.227 1637.4 233.981 Q1637.4 229.707 1639.51 225.608 Q1641.65 221.509 1645.01 218.962 Q1648.38 216.415 1651.84 216.415 Q1655.5 216.415 1657.37 220.25 L1660.97 206.021 L1661.15 204.85 Q1661.15 204.498 1661 204.323 Q1660.88 204.118 1660.18 203.971 Q1659.51 203.825 1658.16 203.825 Q1657.6 203.825 1657.34 203.796 Q1657.11 203.767 1656.9 203.62 Q1656.7 203.444 1656.7 203.093 Q1656.7 202.068 1657.55 201.951 Q1663.17 201.307 1665.16 201.307 Q1665.51 201.307 1665.71 201.483 Q1665.92 201.629 1665.92 201.805 L1665.95 201.951 M1656.64 223.002 Q1656.64 222.739 1656.43 222.007 Q1656.23 221.275 1655.76 220.25 Q1655.29 219.225 1654.27 218.493 Q1653.27 217.732 1651.92 217.732 Q1650.11 217.732 1648.21 219.284 Q1646.33 220.836 1644.96 223.471 Q1643.9 225.579 1642.76 230 Q1641.65 234.421 1641.65 236.617 Q1641.65 237.963 1641.94 239.164 Q1642.26 240.335 1643.17 241.301 Q1644.08 242.238 1645.48 242.238 Q1648.91 242.238 1652.28 237.993 Q1652.92 237.261 1653.07 236.968 Q1653.24 236.646 1653.48 235.767 L1656.46 224.027 Q1656.64 223.149 1656.64 223.002 Z" fill="#000000" fill-rule="evenodd" fill-opacity="1" /><path clip-path="url(#clip310)" d="M 0 0 M1668.26 227.921 Q1668.26 217.791 1672.03 209.622 Q1673.64 206.197 1675.9 203.327 Q1678.15 200.458 1679.65 199.199 Q1681.14 197.94 1681.55 197.94 Q1682.14 197.94 1682.16 198.526 Q1682.16 198.819 1681.37 199.55 Q1671.71 209.388 1671.74 227.921 Q1671.74 246.512 1681.14 255.969 Q1682.16 256.994 1682.16 257.316 Q1682.16 257.902 1681.55 257.902 Q1681.14 257.902 1679.71 256.701 Q1678.27 255.501 1676.05 252.749 Q1673.82 249.997 1672.21 246.63 Q1668.26 238.461 1668.26 227.921 Z" fill="#000000" fill-rule="evenodd" fill-opacity="1" /><path clip-path="url(#clip310)" d="M 0 0 M1709.7 217.732 Q1709.7 218.552 1709.32 218.757 Q1708.94 218.933 1707.88 218.933 L1702.26 218.933 L1697.81 236.617 Q1697.46 238.168 1697.46 239.486 Q1697.46 240.95 1697.9 241.594 Q1698.37 242.238 1699.33 242.238 Q1701.24 242.238 1703.29 240.51 Q1705.37 238.783 1707.12 234.567 Q1707.36 234.011 1707.47 233.894 Q1707.62 233.747 1708 233.747 Q1708.73 233.747 1708.73 234.333 Q1708.73 234.538 1708.32 235.475 Q1707.94 236.412 1707.09 237.788 Q1706.27 239.164 1705.19 240.452 Q1704.14 241.74 1702.53 242.677 Q1700.92 243.585 1699.19 243.585 Q1696.76 243.585 1695.21 242.033 Q1693.68 240.481 1693.68 238.051 Q1693.68 237.261 1694.3 234.743 Q1694.91 232.196 1698.25 218.933 L1692.95 218.933 Q1692.22 218.933 1691.93 218.903 Q1691.66 218.874 1691.46 218.728 Q1691.28 218.552 1691.28 218.201 Q1691.28 217.644 1691.52 217.41 Q1691.75 217.147 1692.04 217.117 Q1692.37 217.059 1693.1 217.059 L1698.72 217.059 L1701.06 207.543 Q1701.3 206.607 1701.88 206.079 Q1702.5 205.523 1702.85 205.465 Q1703.2 205.377 1703.46 205.377 Q1704.25 205.377 1704.72 205.816 Q1705.19 206.226 1705.19 206.987 Q1705.19 207.397 1702.73 217.059 L1708 217.059 Q1708.67 217.059 1708.94 217.088 Q1709.23 217.117 1709.46 217.264 Q1709.7 217.41 1709.7 217.732 Z" fill="#000000" fill-rule="evenodd" fill-opacity="1" /><path clip-path="url(#clip310)" d="M 0 0 M1712.71 257.316 Q1712.71 257.023 1713.47 256.291 Q1723.14 246.454 1723.14 227.921 Q1723.14 209.329 1713.86 199.931 Q1712.71 198.848 1712.71 198.526 Q1712.71 197.94 1713.3 197.94 Q1713.71 197.94 1715.14 199.141 Q1716.61 200.341 1718.8 203.093 Q1721.03 205.845 1722.67 209.212 Q1726.62 217.381 1726.62 227.921 Q1726.62 238.051 1722.84 246.22 Q1721.23 249.645 1718.98 252.514 Q1716.72 255.384 1715.23 256.643 Q1713.74 257.902 1713.3 257.902 Q1712.71 257.902 1712.71 257.316 Z" fill="#000000" fill-rule="evenodd" fill-opacity="1" /><path clip-path="url(#clip310)" d="M 0 0 M2013.37 1343.46 Q2007.01 1343.46 2003.25 1348.2 Q1999.51 1352.95 1999.51 1361.14 Q1999.51 1369.3 2003.25 1374.04 Q2007.01 1378.79 2013.37 1378.79 Q2019.74 1378.79 2023.44 1374.04 Q2027.18 1369.3 2027.18 1361.14 Q2027.18 1352.95 2023.44 1348.2 Q2019.74 1343.46 2013.37 1343.46 M2013.37 1338.71 Q2022.46 1338.71 2027.9 1344.82 Q2033.34 1350.89 2033.34 1361.14 Q2033.34 1371.35 2027.9 1377.45 Q2022.46 1383.53 2013.37 1383.53 Q2004.26 1383.53 1998.79 1377.45 Q1993.35 1371.38 1993.35 1361.14 Q1993.35 1350.89 1998.79 1344.82 Q2004.26 1338.71 2013.37 1338.71 Z" fill="#000000" fill-rule="evenodd" fill-opacity="1" /><path clip-path="url(#clip310)" d="M 0 0 M2058.66 1337.67 L2058.66 1342.1 L2053.56 1342.1 Q2050.7 1342.1 2049.57 1343.25 Q2048.47 1344.41 2048.47 1347.42 L2048.47 1350.28 L2057.24 1350.28 L2057.24 1354.42 L2048.47 1354.42 L2048.47 1382.69 L2043.12 1382.69 L2043.12 1354.42 L2038.03 1354.42 L2038.03 1350.28 L2043.12 1350.28 L2043.12 1348.03 Q2043.12 1342.62 2045.64 1340.16 Q2048.15 1337.67 2053.62 1337.67 L2058.66 1337.67 Z" fill="#000000" fill-rule="evenodd" fill-opacity="1" /><path clip-path="url(#clip310)" d="M 0 0 M2079.52 1337.67 L2079.52 1342.1 L2074.43 1342.1 Q2071.56 1342.1 2070.43 1343.25 Q2069.33 1344.41 2069.33 1347.42 L2069.33 1350.28 L2078.1 1350.28 L2078.1 1354.42 L2069.33 1354.42 L2069.33 1382.69 L2063.98 1382.69 L2063.98 1354.42 L2058.89 1354.42 L2058.89 1350.28 L2063.98 1350.28 L2063.98 1348.03 Q2063.98 1342.62 2066.5 1340.16 Q2069.02 1337.67 2074.48 1337.67 L2079.52 1337.67 Z" fill="#000000" fill-rule="evenodd" fill-opacity="1" /><path clip-path="url(#clip310)" d="M 0 0 M2104.63 1351.24 L2104.63 1356.27 Q2102.38 1355.12 2099.95 1354.54 Q2097.52 1353.96 2094.91 1353.96 Q2090.95 1353.96 2088.95 1355.17 Q2086.98 1356.39 2086.98 1358.82 Q2086.98 1360.67 2088.4 1361.74 Q2089.82 1362.78 2094.1 1363.74 L2095.93 1364.14 Q2101.6 1365.36 2103.97 1367.59 Q2106.37 1369.79 2106.37 1373.75 Q2106.37 1378.27 2102.78 1380.9 Q2099.22 1383.53 2092.97 1383.53 Q2090.37 1383.53 2087.53 1383.01 Q2084.73 1382.52 2081.6 1381.51 L2081.6 1376.01 Q2084.55 1377.54 2087.42 1378.32 Q2090.28 1379.08 2093.09 1379.08 Q2096.85 1379.08 2098.88 1377.8 Q2100.9 1376.5 2100.9 1374.16 Q2100.9 1371.99 2099.43 1370.83 Q2097.98 1369.67 2093.03 1368.6 L2091.18 1368.17 Q2086.23 1367.13 2084.03 1364.98 Q2081.83 1362.81 2081.83 1359.05 Q2081.83 1354.48 2085.07 1351.99 Q2088.32 1349.5 2094.28 1349.5 Q2097.23 1349.5 2099.83 1349.94 Q2102.44 1350.37 2104.63 1351.24 Z" fill="#000000" fill-rule="evenodd" fill-opacity="1" /><path clip-path="url(#clip310)" d="M 0 0 M2142.57 1365.16 L2142.57 1367.76 L2118.09 1367.76 Q2118.44 1373.26 2121.39 1376.15 Q2124.37 1379.02 2129.66 1379.02 Q2132.73 1379.02 2135.6 1378.27 Q2138.49 1377.51 2141.32 1376.01 L2141.32 1381.04 Q2138.46 1382.26 2135.45 1382.89 Q2132.44 1383.53 2129.35 1383.53 Q2121.59 1383.53 2117.05 1379.02 Q2112.53 1374.5 2112.53 1366.81 Q2112.53 1358.85 2116.82 1354.19 Q2121.13 1349.5 2128.42 1349.5 Q2134.96 1349.5 2138.75 1353.73 Q2142.57 1357.92 2142.57 1365.16 M2137.24 1363.59 Q2137.19 1359.23 2134.78 1356.62 Q2132.41 1354.02 2128.48 1354.02 Q2124.02 1354.02 2121.33 1356.53 Q2118.67 1359.05 2118.26 1363.62 L2137.24 1363.59 Z" fill="#000000" fill-rule="evenodd" fill-opacity="1" /><path clip-path="url(#clip310)" d="M 0 0 M2156.57 1341.08 L2156.57 1350.28 L2167.54 1350.28 L2167.54 1354.42 L2156.57 1354.42 L2156.57 1372.02 Q2156.57 1375.98 2157.64 1377.11 Q2158.74 1378.24 2162.07 1378.24 L2167.54 1378.24 L2167.54 1382.69 L2162.07 1382.69 Q2155.91 1382.69 2153.56 1380.41 Q2151.22 1378.09 2151.22 1372.02 L2151.22 1354.42 L2147.31 1354.42 L2147.31 1350.28 L2151.22 1350.28 L2151.22 1341.08 L2156.57 1341.08 Z" fill="#000000" fill-rule="evenodd" fill-opacity="1" /></svg>