<?xml version="1.0" encoding="utf-8"?>
<svg xmlns="http://www.w3.org/2000/svg" xmlns:xlink="http://www.w3.org/1999/xlink" width="600" height="400" viewBox="0 0 2400 1600">
<defs>
  <clipPath id="clip490">
    <rect x="0" y="0" width="2400" height="1600"/>
  </clipPath>
</defs>
<path clip-path="url(#clip490)" d="
M0 1600 L2400 1600 L2400 0 L0 0  Z
  " fill="#ffffff" fill-rule="evenodd" fill-opacity="1"/>
<defs>
  <clipPath id="clip491">
    <rect x="480" y="0" width="1681" height="1600"/>
  </clipPath>
</defs>
<defs>
  <clipPath id="clip492">
    <rect x="170" y="47" width="2183" height="1397"/>
  </clipPath>
</defs>
<path clip-path="url(#clip490)" d="
M169.121 1442.95 L2352.76 1442.95 L2352.76 47.2441 L169.121 47.2441  Z
  " fill="#ffffff" fill-rule="evenodd" fill-opacity="1"/>
<defs>
  <clipPath id="clip493">
    <rect x="169" y="47" width="2185" height="1397"/>
  </clipPath>
</defs>
<polyline clip-path="url(#clip493)" style="stroke:#000000; stroke-width:2; stroke-opacity:0.1; fill:none" points="
  230.922,1442.95 230.922,47.2441 
  "/>
<polyline clip-path="url(#clip493)" style="stroke:#000000; stroke-width:2; stroke-opacity:0.1; fill:none" points="
  660.096,1442.95 660.096,47.2441 
  "/>
<polyline clip-path="url(#clip493)" style="stroke:#000000; stroke-width:2; stroke-opacity:0.1; fill:none" points="
  1089.27,1442.95 1089.27,47.2441 
  "/>
<polyline clip-path="url(#clip493)" style="stroke:#000000; stroke-width:2; stroke-opacity:0.1; fill:none" points="
  1518.44,1442.95 1518.44,47.2441 
  "/>
<polyline clip-path="url(#clip493)" style="stroke:#000000; stroke-width:2; stroke-opacity:0.1; fill:none" points="
  1947.62,1442.95 1947.62,47.2441 
  "/>
<polyline clip-path="url(#clip490)" style="stroke:#000000; stroke-width:4; stroke-opacity:1; fill:none" points="
  169.121,1442.95 2352.76,1442.95 
  "/>
<polyline clip-path="url(#clip490)" style="stroke:#000000; stroke-width:4; stroke-opacity:1; fill:none" points="
  230.922,1442.95 230.922,1426.2 
  "/>
<polyline clip-path="url(#clip490)" style="stroke:#000000; stroke-width:4; stroke-opacity:1; fill:none" points="
  660.096,1442.95 660.096,1426.2 
  "/>
<polyline clip-path="url(#clip490)" style="stroke:#000000; stroke-width:4; stroke-opacity:1; fill:none" points="
  1089.27,1442.95 1089.27,1426.2 
  "/>
<polyline clip-path="url(#clip490)" style="stroke:#000000; stroke-width:4; stroke-opacity:1; fill:none" points="
  1518.44,1442.95 1518.44,1426.2 
  "/>
<polyline clip-path="url(#clip490)" style="stroke:#000000; stroke-width:4; stroke-opacity:1; fill:none" points="
  1947.62,1442.95 1947.62,1426.2 
  "/>
<path clip-path="url(#clip490)" d="M 0 0 M208.307 1472.14 Q204.696 1472.14 202.867 1475.71 Q201.061 1479.25 201.061 1486.38 Q201.061 1493.48 202.867 1497.05 Q204.696 1500.59 208.307 1500.59 Q211.941 1500.59 213.746 1497.05 Q215.575 1493.48 215.575 1486.38 Q215.575 1479.25 213.746 1475.71 Q211.941 1472.14 208.307 1472.14 M208.307 1468.44 Q214.117 1468.44 217.172 1473.04 Q220.251 1477.63 220.251 1486.38 Q220.251 1495.1 217.172 1499.71 Q214.117 1504.29 208.307 1504.29 Q202.497 1504.29 199.418 1499.71 Q196.362 1495.1 196.362 1486.38 Q196.362 1477.63 199.418 1473.04 Q202.497 1468.44 208.307 1468.44 Z" fill="#000000" fill-rule="evenodd" fill-opacity="1" /><path clip-path="url(#clip490)" d="M 0 0 M228.469 1497.74 L233.353 1497.74 L233.353 1503.62 L228.469 1503.62 L228.469 1497.74 Z" fill="#000000" fill-rule="evenodd" fill-opacity="1" /><path clip-path="url(#clip490)" d="M 0 0 M253.538 1472.14 Q249.927 1472.14 248.098 1475.71 Q246.293 1479.25 246.293 1486.38 Q246.293 1493.48 248.098 1497.05 Q249.927 1500.59 253.538 1500.59 Q257.172 1500.59 258.978 1497.05 Q260.806 1493.48 260.806 1486.38 Q260.806 1479.25 258.978 1475.71 Q257.172 1472.14 253.538 1472.14 M253.538 1468.44 Q259.348 1468.44 262.404 1473.04 Q265.482 1477.63 265.482 1486.38 Q265.482 1495.1 262.404 1499.71 Q259.348 1504.29 253.538 1504.29 Q247.728 1504.29 244.649 1499.71 Q241.594 1495.1 241.594 1486.38 Q241.594 1477.63 244.649 1473.04 Q247.728 1468.44 253.538 1468.44 Z" fill="#000000" fill-rule="evenodd" fill-opacity="1" /><path clip-path="url(#clip490)" d="M 0 0 M637.978 1472.14 Q634.367 1472.14 632.538 1475.71 Q630.732 1479.25 630.732 1486.38 Q630.732 1493.48 632.538 1497.05 Q634.367 1500.59 637.978 1500.59 Q641.612 1500.59 643.418 1497.05 Q645.246 1493.48 645.246 1486.38 Q645.246 1479.25 643.418 1475.71 Q641.612 1472.14 637.978 1472.14 M637.978 1468.44 Q643.788 1468.44 646.844 1473.04 Q649.922 1477.63 649.922 1486.38 Q649.922 1495.1 646.844 1499.71 Q643.788 1504.29 637.978 1504.29 Q632.168 1504.29 629.089 1499.71 Q626.033 1495.1 626.033 1486.38 Q626.033 1477.63 629.089 1473.04 Q632.168 1468.44 637.978 1468.44 Z" fill="#000000" fill-rule="evenodd" fill-opacity="1" /><path clip-path="url(#clip490)" d="M 0 0 M658.14 1497.74 L663.024 1497.74 L663.024 1503.62 L658.14 1503.62 L658.14 1497.74 Z" fill="#000000" fill-rule="evenodd" fill-opacity="1" /><path clip-path="url(#clip490)" d="M 0 0 M673.255 1469.06 L691.612 1469.06 L691.612 1473 L677.538 1473 L677.538 1481.47 Q678.556 1481.12 679.575 1480.96 Q680.593 1480.77 681.612 1480.77 Q687.399 1480.77 690.778 1483.95 Q694.158 1487.12 694.158 1492.53 Q694.158 1498.11 690.686 1501.21 Q687.214 1504.29 680.894 1504.29 Q678.718 1504.29 676.45 1503.92 Q674.204 1503.55 671.797 1502.81 L671.797 1498.11 Q673.88 1499.25 676.103 1499.8 Q678.325 1500.36 680.802 1500.36 Q684.806 1500.36 687.144 1498.25 Q689.482 1496.15 689.482 1492.53 Q689.482 1488.92 687.144 1486.82 Q684.806 1484.71 680.802 1484.71 Q678.927 1484.71 677.052 1485.13 Q675.2 1485.54 673.255 1486.42 L673.255 1469.06 Z" fill="#000000" fill-rule="evenodd" fill-opacity="1" /><path clip-path="url(#clip490)" d="M 0 0 M1056.42 1499.69 L1064.06 1499.69 L1064.06 1473.32 L1055.75 1474.99 L1055.75 1470.73 L1064.01 1469.06 L1068.69 1469.06 L1068.69 1499.69 L1076.33 1499.69 L1076.33 1503.62 L1056.42 1503.62 L1056.42 1499.69 Z" fill="#000000" fill-rule="evenodd" fill-opacity="1" /><path clip-path="url(#clip490)" d="M 0 0 M1085.77 1497.74 L1090.66 1497.74 L1090.66 1503.62 L1085.77 1503.62 L1085.77 1497.74 Z" fill="#000000" fill-rule="evenodd" fill-opacity="1" /><path clip-path="url(#clip490)" d="M 0 0 M1110.84 1472.14 Q1107.23 1472.14 1105.4 1475.71 Q1103.6 1479.25 1103.6 1486.38 Q1103.6 1493.48 1105.4 1497.05 Q1107.23 1500.59 1110.84 1500.59 Q1114.48 1500.59 1116.28 1497.05 Q1118.11 1493.48 1118.11 1486.38 Q1118.11 1479.25 1116.28 1475.71 Q1114.48 1472.14 1110.84 1472.14 M1110.84 1468.44 Q1116.65 1468.44 1119.71 1473.04 Q1122.79 1477.63 1122.79 1486.38 Q1122.79 1495.1 1119.71 1499.71 Q1116.65 1504.29 1110.84 1504.29 Q1105.03 1504.29 1101.95 1499.71 Q1098.9 1495.1 1098.9 1486.38 Q1098.9 1477.63 1101.95 1473.04 Q1105.03 1468.44 1110.84 1468.44 Z" fill="#000000" fill-rule="evenodd" fill-opacity="1" /><path clip-path="url(#clip490)" d="M 0 0 M1486.09 1499.69 L1493.73 1499.69 L1493.73 1473.32 L1485.42 1474.99 L1485.42 1470.73 L1493.69 1469.06 L1498.36 1469.06 L1498.36 1499.69 L1506 1499.69 L1506 1503.62 L1486.09 1503.62 L1486.09 1499.69 Z" fill="#000000" fill-rule="evenodd" fill-opacity="1" /><path clip-path="url(#clip490)" d="M 0 0 M1515.45 1497.74 L1520.33 1497.74 L1520.33 1503.62 L1515.45 1503.62 L1515.45 1497.74 Z" fill="#000000" fill-rule="evenodd" fill-opacity="1" /><path clip-path="url(#clip490)" d="M 0 0 M1530.56 1469.06 L1548.92 1469.06 L1548.92 1473 L1534.84 1473 L1534.84 1481.47 Q1535.86 1481.12 1536.88 1480.96 Q1537.9 1480.77 1538.92 1480.77 Q1544.7 1480.77 1548.08 1483.95 Q1551.46 1487.12 1551.46 1492.53 Q1551.46 1498.11 1547.99 1501.21 Q1544.52 1504.29 1538.2 1504.29 Q1536.02 1504.29 1533.76 1503.92 Q1531.51 1503.55 1529.1 1502.81 L1529.1 1498.11 Q1531.19 1499.25 1533.41 1499.8 Q1535.63 1500.36 1538.11 1500.36 Q1542.11 1500.36 1544.45 1498.25 Q1546.79 1496.15 1546.79 1492.53 Q1546.79 1488.92 1544.45 1486.82 Q1542.11 1484.71 1538.11 1484.71 Q1536.23 1484.71 1534.36 1485.13 Q1532.51 1485.54 1530.56 1486.42 L1530.56 1469.06 Z" fill="#000000" fill-rule="evenodd" fill-opacity="1" /><path clip-path="url(#clip490)" d="M 0 0 M1918.85 1499.69 L1935.17 1499.69 L1935.17 1503.62 L1913.23 1503.62 L1913.23 1499.69 Q1915.89 1496.93 1920.48 1492.3 Q1925.08 1487.65 1926.26 1486.31 Q1928.51 1483.78 1929.39 1482.05 Q1930.29 1480.29 1930.29 1478.6 Q1930.29 1475.84 1928.35 1474.11 Q1926.42 1472.37 1923.32 1472.37 Q1921.12 1472.37 1918.67 1473.14 Q1916.24 1473.9 1913.46 1475.45 L1913.46 1470.73 Q1916.29 1469.59 1918.74 1469.02 Q1921.19 1468.44 1923.23 1468.44 Q1928.6 1468.44 1931.79 1471.12 Q1934.99 1473.81 1934.99 1478.3 Q1934.99 1480.43 1934.18 1482.35 Q1933.39 1484.25 1931.29 1486.84 Q1930.71 1487.51 1927.6 1490.73 Q1924.5 1493.92 1918.85 1499.69 Z" fill="#000000" fill-rule="evenodd" fill-opacity="1" /><path clip-path="url(#clip490)" d="M 0 0 M1944.99 1497.74 L1949.87 1497.74 L1949.87 1503.62 L1944.99 1503.62 L1944.99 1497.74 Z" fill="#000000" fill-rule="evenodd" fill-opacity="1" /><path clip-path="url(#clip490)" d="M 0 0 M1970.06 1472.14 Q1966.45 1472.14 1964.62 1475.71 Q1962.81 1479.25 1962.81 1486.38 Q1962.81 1493.48 1964.62 1497.05 Q1966.45 1500.59 1970.06 1500.59 Q1973.69 1500.59 1975.5 1497.05 Q1977.33 1493.48 1977.33 1486.38 Q1977.33 1479.25 1975.5 1475.71 Q1973.69 1472.14 1970.06 1472.14 M1970.06 1468.44 Q1975.87 1468.44 1978.92 1473.04 Q1982 1477.63 1982 1486.38 Q1982 1495.1 1978.92 1499.71 Q1975.87 1504.29 1970.06 1504.29 Q1964.25 1504.29 1961.17 1499.71 Q1958.11 1495.1 1958.11 1486.38 Q1958.11 1477.63 1961.17 1473.04 Q1964.25 1468.44 1970.06 1468.44 Z" fill="#000000" fill-rule="evenodd" fill-opacity="1" /><path clip-path="url(#clip490)" d="M 0 0 M1269.41 1539.82 Q1269.41 1540.72 1268.99 1540.95 Q1268.57 1541.14 1267.41 1541.14 L1261.23 1541.14 L1256.33 1560.59 Q1255.95 1562.3 1255.95 1563.75 Q1255.95 1565.36 1256.43 1566.07 Q1256.95 1566.78 1258.01 1566.78 Q1260.1 1566.78 1262.36 1564.88 Q1264.64 1562.98 1266.58 1558.34 Q1266.83 1557.73 1266.96 1557.6 Q1267.12 1557.44 1267.54 1557.44 Q1268.35 1557.44 1268.35 1558.08 Q1268.35 1558.31 1267.9 1559.34 Q1267.48 1560.37 1266.54 1561.88 Q1265.64 1563.4 1264.45 1564.81 Q1263.29 1566.23 1261.52 1567.26 Q1259.75 1568.26 1257.85 1568.26 Q1255.17 1568.26 1253.47 1566.55 Q1251.79 1564.84 1251.79 1562.17 Q1251.79 1561.3 1252.47 1558.53 Q1253.15 1555.73 1256.82 1541.14 L1250.99 1541.14 Q1250.18 1541.14 1249.86 1541.11 Q1249.57 1541.08 1249.35 1540.92 Q1249.15 1540.72 1249.15 1540.34 Q1249.15 1539.72 1249.41 1539.47 Q1249.67 1539.18 1249.99 1539.14 Q1250.34 1539.08 1251.15 1539.08 L1257.33 1539.08 L1259.91 1528.61 Q1260.17 1527.58 1260.81 1527 Q1261.49 1526.39 1261.87 1526.33 Q1262.26 1526.23 1262.55 1526.23 Q1263.42 1526.23 1263.93 1526.71 Q1264.45 1527.16 1264.45 1528 Q1264.45 1528.45 1261.74 1539.08 L1267.54 1539.08 Q1268.28 1539.08 1268.57 1539.11 Q1268.89 1539.14 1269.15 1539.31 Q1269.41 1539.47 1269.41 1539.82 Z" fill="#000000" fill-rule="evenodd" fill-opacity="1" /><polyline clip-path="url(#clip493)" style="stroke:#000000; stroke-width:2; stroke-opacity:0.1; fill:none" points="
  169.121,1404.38 2352.76,1404.38 
  "/>
<polyline clip-path="url(#clip493)" style="stroke:#000000; stroke-width:2; stroke-opacity:0.1; fill:none" points="
  169.121,1170.76 2352.76,1170.76 
  "/>
<polyline clip-path="url(#clip493)" style="stroke:#000000; stroke-width:2; stroke-opacity:0.1; fill:none" points="
  169.121,937.136 2352.76,937.136 
  "/>
<polyline clip-path="url(#clip493)" style="stroke:#000000; stroke-width:2; stroke-opacity:0.1; fill:none" points="
  169.121,703.512 2352.76,703.512 
  "/>
<polyline clip-path="url(#clip493)" style="stroke:#000000; stroke-width:2; stroke-opacity:0.1; fill:none" points="
  169.121,469.888 2352.76,469.888 
  "/>
<polyline clip-path="url(#clip493)" style="stroke:#000000; stroke-width:2; stroke-opacity:0.1; fill:none" points="
  169.121,236.264 2352.76,236.264 
  "/>
<polyline clip-path="url(#clip490)" style="stroke:#000000; stroke-width:4; stroke-opacity:1; fill:none" points="
  169.121,1442.95 169.121,47.2441 
  "/>
<polyline clip-path="url(#clip490)" style="stroke:#000000; stroke-width:4; stroke-opacity:1; fill:none" points="
  169.121,1404.38 195.325,1404.38 
  "/>
<polyline clip-path="url(#clip490)" style="stroke:#000000; stroke-width:4; stroke-opacity:1; fill:none" points="
  169.121,1170.76 195.325,1170.76 
  "/>
<polyline clip-path="url(#clip490)" style="stroke:#000000; stroke-width:4; stroke-opacity:1; fill:none" points="
  169.121,937.136 195.325,937.136 
  "/>
<polyline clip-path="url(#clip490)" style="stroke:#000000; stroke-width:4; stroke-opacity:1; fill:none" points="
  169.121,703.512 195.325,703.512 
  "/>
<polyline clip-path="url(#clip490)" style="stroke:#000000; stroke-width:4; stroke-opacity:1; fill:none" points="
  169.121,469.888 195.325,469.888 
  "/>
<polyline clip-path="url(#clip490)" style="stroke:#000000; stroke-width:4; stroke-opacity:1; fill:none" points="
  169.121,236.264 195.325,236.264 
  "/>
<path clip-path="url(#clip490)" d="M 0 0 M121.177 1390.18 Q117.566 1390.18 115.737 1393.75 Q113.932 1397.29 113.932 1404.42 Q113.932 1411.52 115.737 1415.09 Q117.566 1418.63 121.177 1418.63 Q124.811 1418.63 126.617 1415.09 Q128.445 1411.52 128.445 1404.42 Q128.445 1397.29 126.617 1393.75 Q124.811 1390.18 121.177 1390.18 M121.177 1386.48 Q126.987 1386.48 130.043 1391.08 Q133.121 1395.67 133.121 1404.42 Q133.121 1413.14 130.043 1417.75 Q126.987 1422.33 121.177 1422.33 Q115.367 1422.33 112.288 1417.75 Q109.233 1413.14 109.233 1404.42 Q109.233 1395.67 112.288 1391.08 Q115.367 1386.48 121.177 1386.48 Z" fill="#000000" fill-rule="evenodd" fill-opacity="1" /><path clip-path="url(#clip490)" d="M 0 0 M86.0382 1184.1 L102.358 1184.1 L102.358 1188.04 L80.4133 1188.04 L80.4133 1184.1 Q83.0753 1181.35 87.6586 1176.72 Q92.2651 1172.07 93.4456 1170.72 Q95.691 1168.2 96.5706 1166.47 Q97.4734 1164.71 97.4734 1163.02 Q97.4734 1160.26 95.5289 1158.53 Q93.6076 1156.79 90.5058 1156.79 Q88.3067 1156.79 85.8531 1157.55 Q83.4225 1158.32 80.6447 1159.87 L80.6447 1155.15 Q83.4688 1154.01 85.9225 1153.43 Q88.3762 1152.85 90.4132 1152.85 Q95.7836 1152.85 98.978 1155.54 Q102.172 1158.22 102.172 1162.72 Q102.172 1164.85 101.362 1166.77 Q100.575 1168.66 98.4687 1171.26 Q97.89 1171.93 94.7882 1175.15 Q91.6864 1178.34 86.0382 1184.1 Z" fill="#000000" fill-rule="evenodd" fill-opacity="1" /><path clip-path="url(#clip490)" d="M 0 0 M112.219 1153.48 L130.575 1153.48 L130.575 1157.41 L116.501 1157.41 L116.501 1165.89 Q117.52 1165.54 118.538 1165.38 Q119.557 1165.19 120.575 1165.19 Q126.362 1165.19 129.742 1168.36 Q133.121 1171.53 133.121 1176.95 Q133.121 1182.53 129.649 1185.63 Q126.177 1188.71 119.857 1188.71 Q117.682 1188.71 115.413 1188.34 Q113.168 1187.97 110.76 1187.23 L110.76 1182.53 Q112.844 1183.66 115.066 1184.22 Q117.288 1184.78 119.765 1184.78 Q123.77 1184.78 126.107 1182.67 Q128.445 1180.56 128.445 1176.95 Q128.445 1173.34 126.107 1171.23 Q123.77 1169.13 119.765 1169.13 Q117.89 1169.13 116.015 1169.54 Q114.163 1169.96 112.219 1170.84 L112.219 1153.48 Z" fill="#000000" fill-rule="evenodd" fill-opacity="1" /><path clip-path="url(#clip490)" d="M 0 0 M81.0614 919.856 L99.4178 919.856 L99.4178 923.791 L85.3438 923.791 L85.3438 932.263 Q86.3623 931.916 87.3808 931.754 Q88.3993 931.569 89.4178 931.569 Q95.2049 931.569 98.5845 934.74 Q101.964 937.911 101.964 943.328 Q101.964 948.906 98.4919 952.008 Q95.0197 955.087 88.7003 955.087 Q86.5243 955.087 84.2558 954.717 Q82.0105 954.346 79.6031 953.606 L79.6031 948.906 Q81.6864 950.041 83.9086 950.596 Q86.1308 951.152 88.6077 951.152 Q92.6123 951.152 94.9502 949.045 Q97.2882 946.939 97.2882 943.328 Q97.2882 939.717 94.9502 937.61 Q92.6123 935.504 88.6077 935.504 Q86.7327 935.504 84.8577 935.92 Q83.0058 936.337 81.0614 937.217 L81.0614 919.856 Z" fill="#000000" fill-rule="evenodd" fill-opacity="1" /><path clip-path="url(#clip490)" d="M 0 0 M121.177 922.934 Q117.566 922.934 115.737 926.499 Q113.932 930.041 113.932 937.17 Q113.932 944.277 115.737 947.842 Q117.566 951.383 121.177 951.383 Q124.811 951.383 126.617 947.842 Q128.445 944.277 128.445 937.17 Q128.445 930.041 126.617 926.499 Q124.811 922.934 121.177 922.934 M121.177 919.231 Q126.987 919.231 130.043 923.837 Q133.121 928.42 133.121 937.17 Q133.121 945.897 130.043 950.504 Q126.987 955.087 121.177 955.087 Q115.367 955.087 112.288 950.504 Q109.233 945.897 109.233 937.17 Q109.233 928.42 112.288 923.837 Q115.367 919.231 121.177 919.231 Z" fill="#000000" fill-rule="evenodd" fill-opacity="1" /><path clip-path="url(#clip490)" d="M 0 0 M80.8299 686.232 L103.052 686.232 L103.052 688.223 L90.5058 720.792 L85.6216 720.792 L97.4271 690.167 L80.8299 690.167 L80.8299 686.232 Z" fill="#000000" fill-rule="evenodd" fill-opacity="1" /><path clip-path="url(#clip490)" d="M 0 0 M112.219 686.232 L130.575 686.232 L130.575 690.167 L116.501 690.167 L116.501 698.639 Q117.52 698.292 118.538 698.13 Q119.557 697.945 120.575 697.945 Q126.362 697.945 129.742 701.116 Q133.121 704.287 133.121 709.704 Q133.121 715.283 129.649 718.385 Q126.177 721.463 119.857 721.463 Q117.682 721.463 115.413 721.093 Q113.168 720.722 110.76 719.982 L110.76 715.283 Q112.844 716.417 115.066 716.973 Q117.288 717.528 119.765 717.528 Q123.77 717.528 126.107 715.422 Q128.445 713.315 128.445 709.704 Q128.445 706.093 126.107 703.986 Q123.77 701.88 119.765 701.88 Q117.89 701.88 116.015 702.297 Q114.163 702.713 112.219 703.593 L112.219 686.232 Z" fill="#000000" fill-rule="evenodd" fill-opacity="1" /><path clip-path="url(#clip490)" d="M 0 0 M51.6634 483.233 L59.3023 483.233 L59.3023 456.867 L50.9921 458.534 L50.9921 454.275 L59.256 452.608 L63.9319 452.608 L63.9319 483.233 L71.5707 483.233 L71.5707 487.168 L51.6634 487.168 L51.6634 483.233 Z" fill="#000000" fill-rule="evenodd" fill-opacity="1" /><path clip-path="url(#clip490)" d="M 0 0 M91.0151 455.687 Q87.404 455.687 85.5753 459.252 Q83.7697 462.793 83.7697 469.923 Q83.7697 477.029 85.5753 480.594 Q87.404 484.136 91.0151 484.136 Q94.6493 484.136 96.4548 480.594 Q98.2835 477.029 98.2835 469.923 Q98.2835 462.793 96.4548 459.252 Q94.6493 455.687 91.0151 455.687 M91.0151 451.983 Q96.8252 451.983 99.8808 456.59 Q102.959 461.173 102.959 469.923 Q102.959 478.65 99.8808 483.256 Q96.8252 487.839 91.0151 487.839 Q85.2049 487.839 82.1262 483.256 Q79.0707 478.65 79.0707 469.923 Q79.0707 461.173 82.1262 456.59 Q85.2049 451.983 91.0151 451.983 Z" fill="#000000" fill-rule="evenodd" fill-opacity="1" /><path clip-path="url(#clip490)" d="M 0 0 M121.177 455.687 Q117.566 455.687 115.737 459.252 Q113.932 462.793 113.932 469.923 Q113.932 477.029 115.737 480.594 Q117.566 484.136 121.177 484.136 Q124.811 484.136 126.617 480.594 Q128.445 477.029 128.445 469.923 Q128.445 462.793 126.617 459.252 Q124.811 455.687 121.177 455.687 M121.177 451.983 Q126.987 451.983 130.043 456.59 Q133.121 461.173 133.121 469.923 Q133.121 478.65 130.043 483.256 Q126.987 487.839 121.177 487.839 Q115.367 487.839 112.288 483.256 Q109.233 478.65 109.233 469.923 Q109.233 461.173 112.288 456.59 Q115.367 451.983 121.177 451.983 Z" fill="#000000" fill-rule="evenodd" fill-opacity="1" /><path clip-path="url(#clip490)" d="M 0 0 M52.6588 249.609 L60.2976 249.609 L60.2976 223.244 L51.9875 224.91 L51.9875 220.651 L60.2513 218.984 L64.9272 218.984 L64.9272 249.609 L72.5661 249.609 L72.5661 253.544 L52.6588 253.544 L52.6588 249.609 Z" fill="#000000" fill-rule="evenodd" fill-opacity="1" /><path clip-path="url(#clip490)" d="M 0 0 M86.0382 249.609 L102.358 249.609 L102.358 253.544 L80.4133 253.544 L80.4133 249.609 Q83.0753 246.855 87.6586 242.225 Q92.2651 237.572 93.4456 236.23 Q95.691 233.707 96.5706 231.97 Q97.4734 230.211 97.4734 228.521 Q97.4734 225.767 95.5289 224.031 Q93.6076 222.295 90.5058 222.295 Q88.3067 222.295 85.8531 223.058 Q83.4225 223.822 80.6447 225.373 L80.6447 220.651 Q83.4688 219.517 85.9225 218.938 Q88.3762 218.359 90.4132 218.359 Q95.7836 218.359 98.978 221.045 Q102.172 223.73 102.172 228.22 Q102.172 230.35 101.362 232.271 Q100.575 234.17 98.4687 236.762 Q97.89 237.433 94.7882 240.651 Q91.6864 243.845 86.0382 249.609 Z" fill="#000000" fill-rule="evenodd" fill-opacity="1" /><path clip-path="url(#clip490)" d="M 0 0 M112.219 218.984 L130.575 218.984 L130.575 222.92 L116.501 222.92 L116.501 231.392 Q117.52 231.045 118.538 230.882 Q119.557 230.697 120.575 230.697 Q126.362 230.697 129.742 233.869 Q133.121 237.04 133.121 242.457 Q133.121 248.035 129.649 251.137 Q126.177 254.216 119.857 254.216 Q117.682 254.216 115.413 253.845 Q113.168 253.475 110.76 252.734 L110.76 248.035 Q112.844 249.169 115.066 249.725 Q117.288 250.281 119.765 250.281 Q123.77 250.281 126.107 248.174 Q128.445 246.068 128.445 242.457 Q128.445 238.845 126.107 236.739 Q123.77 234.632 119.765 234.632 Q117.89 234.632 116.015 235.049 Q114.163 235.466 112.219 236.345 L112.219 218.984 Z" fill="#000000" fill-rule="evenodd" fill-opacity="1" /><circle clip-path="url(#clip493)" cx="230.922" cy="937.136" r="14" fill="#009af9" fill-rule="evenodd" fill-opacity="1" stroke="#000000" stroke-opacity="1" stroke-width="3.2"/>
<circle clip-path="url(#clip493)" cx="402.592" cy="937.136" r="14" fill="#009af9" fill-rule="evenodd" fill-opacity="1" stroke="#000000" stroke-opacity="1" stroke-width="3.2"/>
<circle clip-path="url(#clip493)" cx="574.261" cy="937.136" r="14" fill="#009af9" fill-rule="evenodd" fill-opacity="1" stroke="#000000" stroke-opacity="1" stroke-width="3.2"/>
<circle clip-path="url(#clip493)" cx="745.93" cy="937.136" r="14" fill="#009af9" fill-rule="evenodd" fill-opacity="1" stroke="#000000" stroke-opacity="1" stroke-width="3.2"/>
<circle clip-path="url(#clip493)" cx="917.6" cy="937.136" r="14" fill="#009af9" fill-rule="evenodd" fill-opacity="1" stroke="#000000" stroke-opacity="1" stroke-width="3.2"/>
<circle clip-path="url(#clip493)" cx="1089.27" cy="937.136" r="14" fill="#009af9" fill-rule="evenodd" fill-opacity="1" stroke="#000000" stroke-opacity="1" stroke-width="3.2"/>
<circle clip-path="url(#clip493)" cx="1260.94" cy="937.136" r="14" fill="#009af9" fill-rule="evenodd" fill-opacity="1" stroke="#000000" stroke-opacity="1" stroke-width="3.2"/>
<circle clip-path="url(#clip493)" cx="1432.61" cy="937.136" r="14" fill="#009af9" fill-rule="evenodd" fill-opacity="1" stroke="#000000" stroke-opacity="1" stroke-width="3.2"/>
<circle clip-path="url(#clip493)" cx="1604.28" cy="937.136" r="14" fill="#009af9" fill-rule="evenodd" fill-opacity="1" stroke="#000000" stroke-opacity="1" stroke-width="3.2"/>
<circle clip-path="url(#clip493)" cx="1775.95" cy="937.136" r="14" fill="#009af9" fill-rule="evenodd" fill-opacity="1" stroke="#000000" stroke-opacity="1" stroke-width="3.2"/>
<circle clip-path="url(#clip493)" cx="1947.62" cy="937.136" r="14" fill="#009af9" fill-rule="evenodd" fill-opacity="1" stroke="#000000" stroke-opacity="1" stroke-width="3.2"/>
<circle clip-path="url(#clip493)" cx="2119.29" cy="937.136" r="14" fill="#009af9" fill-rule="evenodd" fill-opacity="1" stroke="#000000" stroke-opacity="1" stroke-width="3.2"/>
<circle clip-path="url(#clip493)" cx="2290.95" cy="937.136" r="14" fill="#009af9" fill-rule="evenodd" fill-opacity="1" stroke="#000000" stroke-opacity="1" stroke-width="3.2"/>
<circle clip-path="url(#clip493)" cx="230.922" cy="1403.45" r="14" fill="#e26f46" fill-rule="evenodd" fill-opacity="1" stroke="#000000" stroke-opacity="1" stroke-width="3.2"/>
<circle clip-path="url(#clip493)" cx="402.592" cy="1394.1" r="14" fill="#e26f46" fill-rule="evenodd" fill-opacity="1" stroke="#000000" stroke-opacity="1" stroke-width="3.2"/>
<circle clip-path="url(#clip493)" cx="574.261" cy="1367" r="14" fill="#e26f46" fill-rule="evenodd" fill-opacity="1" stroke="#000000" stroke-opacity="1" stroke-width="3.2"/>
<circle clip-path="url(#clip493)" cx="745.93" cy="1152.07" r="14" fill="#e26f46" fill-rule="evenodd" fill-opacity="1" stroke="#000000" stroke-opacity="1" stroke-width="3.2"/>
<circle clip-path="url(#clip493)" cx="917.6" cy="927.791" r="14" fill="#e26f46" fill-rule="evenodd" fill-opacity="1" stroke="#000000" stroke-opacity="1" stroke-width="3.2"/>
<circle clip-path="url(#clip493)" cx="1089.27" cy="656.787" r="14" fill="#e26f46" fill-rule="evenodd" fill-opacity="1" stroke="#000000" stroke-opacity="1" stroke-width="3.2"/>
<circle clip-path="url(#clip493)" cx="1260.94" cy="446.526" r="14" fill="#e26f46" fill-rule="evenodd" fill-opacity="1" stroke="#000000" stroke-opacity="1" stroke-width="3.2"/>
<circle clip-path="url(#clip493)" cx="1432.61" cy="301.679" r="14" fill="#e26f46" fill-rule="evenodd" fill-opacity="1" stroke="#000000" stroke-opacity="1" stroke-width="3.2"/>
<circle clip-path="url(#clip493)" cx="1604.28" cy="194.212" r="14" fill="#e26f46" fill-rule="evenodd" fill-opacity="1" stroke="#000000" stroke-opacity="1" stroke-width="3.2"/>
<circle clip-path="url(#clip493)" cx="1775.95" cy="133.47" r="14" fill="#e26f46" fill-rule="evenodd" fill-opacity="1" stroke="#000000" stroke-opacity="1" stroke-width="3.2"/>
<circle clip-path="url(#clip493)" cx="1947.62" cy="105.435" r="14" fill="#e26f46" fill-rule="evenodd" fill-opacity="1" stroke="#000000" stroke-opacity="1" stroke-width="3.2"/>
<circle clip-path="url(#clip493)" cx="2119.29" cy="91.4177" r="14" fill="#e26f46" fill-rule="evenodd" fill-opacity="1" stroke="#000000" stroke-opacity="1" stroke-width="3.2"/>
<circle clip-path="url(#clip493)" cx="2290.95" cy="86.7452" r="14" fill="#e26f46" fill-rule="evenodd" fill-opacity="1" stroke="#000000" stroke-opacity="1" stroke-width="3.2"/>
<path clip-path="url(#clip490)" d="
M241.909 275.208 L610.512 275.208 L610.512 93.7676 L241.909 93.7676  Z
  " fill="#ffffff" fill-rule="evenodd" fill-opacity="1"/>
<polyline clip-path="url(#clip490)" style="stroke:#000000; stroke-width:4; stroke-opacity:1; fill:none" points="
  241.909,275.208 610.512,275.208 610.512,93.7676 241.909,93.7676 241.909,275.208 
  "/>
<circle clip-path="url(#clip490)" cx="338.96" cy="154.248" r="23" fill="#009af9" fill-rule="evenodd" fill-opacity="1" stroke="#000000" stroke-opacity="1" stroke-width="5.12"/>
<path clip-path="url(#clip490)" d="M 0 0 M470.066 132.792 L467.045 145.019 Q466.834 145.792 466.693 145.886 Q466.576 145.979 466.202 145.979 Q465.475 145.979 465.475 145.487 Q465.475 145.441 465.546 144.832 Q465.616 144.199 465.616 143.052 Q465.616 138.812 463.555 136.306 Q461.517 133.8 457.887 133.8 Q454.748 133.8 451.586 135.392 Q448.447 136.985 446.199 139.585 Q444.512 141.552 443.271 144.035 Q442.053 146.518 441.467 148.79 Q440.905 151.062 440.648 152.772 Q440.39 154.482 440.39 155.723 Q440.39 157.527 440.765 159.049 Q441.163 160.572 441.866 161.649 Q442.568 162.703 443.458 163.523 Q444.372 164.319 445.426 164.788 Q446.503 165.256 447.581 165.49 Q448.658 165.701 449.782 165.701 Q454.303 165.701 458.613 162.188 Q462.032 159.307 463.461 154.599 Q463.578 154.13 464.07 154.13 Q464.656 154.13 464.656 154.599 Q464.656 154.692 464.539 155.161 Q464.421 155.606 464.07 156.519 Q463.719 157.409 463.18 158.417 Q462.641 159.424 461.634 160.689 Q460.627 161.953 459.386 163.054 Q457.278 164.881 454.607 166.029 Q451.937 167.177 449.009 167.177 Q445.356 167.177 442.404 165.56 Q439.453 163.944 437.72 160.923 Q436.01 157.901 436.01 154.037 Q436.01 149.961 437.884 145.956 Q439.758 141.951 442.732 138.976 Q445.707 136.001 449.642 134.151 Q453.577 132.301 457.512 132.301 Q459.011 132.301 460.346 132.699 Q461.681 133.097 462.477 133.589 Q463.297 134.081 464.023 134.807 Q464.749 135.509 464.984 135.837 Q465.241 136.165 465.475 136.563 L468.825 132.886 Q469.41 132.301 469.551 132.301 Q469.832 132.301 469.949 132.465 Q470.066 132.629 470.066 132.792 Z" fill="#000000" fill-rule="evenodd" fill-opacity="1" /><path clip-path="url(#clip490)" d="M 0 0 M469.965 154.13 Q469.965 146.026 472.987 139.491 Q474.275 136.751 476.078 134.455 Q477.882 132.16 479.076 131.153 Q480.271 130.146 480.599 130.146 Q481.067 130.146 481.091 130.614 Q481.091 130.848 480.458 131.434 Q472.729 139.304 472.752 154.13 Q472.752 169.004 480.271 176.569 Q481.091 177.389 481.091 177.646 Q481.091 178.115 480.599 178.115 Q480.271 178.115 479.123 177.155 Q477.976 176.194 476.195 173.993 Q474.415 171.791 473.127 169.097 Q469.965 162.562 469.965 154.13 Z" fill="#000000" fill-rule="evenodd" fill-opacity="1" /><path clip-path="url(#clip490)" d="M 0 0 M503.113 145.979 Q503.113 146.635 502.809 146.799 Q502.504 146.94 501.661 146.94 L497.164 146.94 L493.604 161.087 Q493.323 162.328 493.323 163.382 Q493.323 164.553 493.674 165.069 Q494.049 165.584 494.822 165.584 Q496.344 165.584 497.984 164.202 Q499.647 162.82 501.052 159.447 Q501.24 159.002 501.333 158.909 Q501.45 158.791 501.755 158.791 Q502.34 158.791 502.34 159.26 Q502.34 159.424 502.012 160.173 Q501.708 160.923 501.029 162.024 Q500.373 163.125 499.506 164.155 Q498.663 165.186 497.375 165.935 Q496.087 166.661 494.705 166.661 Q492.761 166.661 491.519 165.42 Q490.301 164.179 490.301 162.234 Q490.301 161.602 490.793 159.588 Q491.285 157.55 493.955 146.94 L489.716 146.94 Q489.13 146.94 488.896 146.916 Q488.685 146.893 488.521 146.776 Q488.381 146.635 488.381 146.354 Q488.381 145.909 488.568 145.722 Q488.755 145.511 488.99 145.487 Q489.247 145.441 489.833 145.441 L494.33 145.441 L496.204 137.828 Q496.391 137.079 496.86 136.657 Q497.351 136.212 497.632 136.165 Q497.914 136.095 498.124 136.095 Q498.757 136.095 499.131 136.446 Q499.506 136.774 499.506 137.383 Q499.506 137.711 497.539 145.441 L501.755 145.441 Q502.294 145.441 502.504 145.464 Q502.739 145.487 502.926 145.605 Q503.113 145.722 503.113 145.979 Z" fill="#000000" fill-rule="evenodd" fill-opacity="1" /><path clip-path="url(#clip490)" d="M 0 0 M505.52 177.646 Q505.52 177.412 506.129 176.827 Q513.859 168.957 513.859 154.13 Q513.859 139.257 506.434 131.738 Q505.52 130.872 505.52 130.614 Q505.52 130.146 505.989 130.146 Q506.317 130.146 507.465 131.106 Q508.636 132.066 510.392 134.268 Q512.172 136.47 513.484 139.163 Q516.646 145.698 516.646 154.13 Q516.646 162.234 513.625 168.769 Q512.336 171.51 510.533 173.805 Q508.729 176.101 507.535 177.108 Q506.34 178.115 505.989 178.115 Q505.52 178.115 505.52 177.646 Z" fill="#000000" fill-rule="evenodd" fill-opacity="1" /><circle clip-path="url(#clip490)" cx="338.96" cy="214.728" r="23" fill="#e26f46" fill-rule="evenodd" fill-opacity="1" stroke="#000000" stroke-opacity="1" stroke-width="5.12"/>
<path clip-path="url(#clip490)" d="M 0 0 M470.886 194.42 Q470.886 194.725 470.816 194.912 Q470.769 195.099 470.582 195.193 Q470.418 195.263 470.3 195.287 Q470.207 195.31 469.926 195.334 Q468.778 195.427 467.818 195.732 Q466.857 196.013 466.038 196.575 Q465.241 197.137 464.796 197.512 Q464.375 197.887 463.625 198.636 L462.969 199.315 L451.071 212.971 Q450.649 213.439 450.391 214.47 L448.705 221.239 Q448.049 224.05 448.049 224.26 Q448.049 224.682 448.283 224.823 Q448.541 224.94 449.337 225.01 L451.164 225.127 Q452.242 225.127 452.406 225.314 Q452.499 225.431 452.499 225.642 Q452.499 226.087 452.312 226.322 Q452.148 226.532 451.984 226.579 Q451.844 226.603 451.586 226.603 L445.449 226.462 L439.406 226.603 Q438.727 226.603 438.727 226.064 Q438.727 225.713 438.774 225.525 Q438.844 225.314 439.055 225.244 Q439.266 225.15 439.43 225.15 Q439.594 225.127 440.039 225.127 Q441.116 225.104 441.655 225.104 Q442.217 225.08 442.756 224.94 Q443.294 224.799 443.482 224.705 Q443.693 224.588 443.927 224.19 Q444.184 223.769 444.255 223.441 Q444.348 223.113 444.536 222.293 Q444.723 221.567 445.707 217.608 Q446.691 213.65 446.691 213.556 Q446.691 213.299 446.503 212.737 L440.601 196.95 Q440.343 196.247 440.132 195.966 Q439.922 195.685 439.219 195.521 Q438.516 195.334 437.111 195.334 Q436.713 195.334 436.525 195.31 Q436.338 195.287 436.174 195.17 Q436.01 195.053 436.01 194.795 Q436.01 194.35 436.197 194.139 Q436.385 193.905 436.525 193.881 Q436.689 193.835 436.923 193.835 Q437.509 193.835 439.594 193.905 Q441.678 193.975 442.287 193.975 L448.33 193.835 Q449.056 193.835 449.056 194.373 Q449.056 195.029 448.799 195.193 Q448.541 195.334 447.909 195.334 Q445.074 195.334 445.074 196.481 Q445.074 196.622 445.356 197.301 L450.626 211.542 L461.751 198.73 L461.915 198.543 Q462.056 198.355 462.173 198.215 Q462.29 198.074 462.477 197.816 Q462.665 197.559 462.758 197.348 Q462.876 197.137 462.969 196.88 Q463.063 196.622 463.063 196.435 Q463.063 196.083 462.852 195.849 Q462.641 195.591 462.313 195.498 Q461.985 195.404 461.751 195.381 Q461.517 195.334 461.33 195.334 Q460.604 195.334 460.604 194.748 Q460.604 194.326 460.791 194.116 Q460.978 193.881 461.119 193.858 Q461.283 193.835 461.517 193.835 Q462.29 193.835 463.906 193.905 Q465.522 193.975 466.319 193.975 Q466.974 193.975 468.31 193.905 Q469.645 193.835 470.254 193.835 Q470.886 193.835 470.886 194.42 Z" fill="#000000" fill-rule="evenodd" fill-opacity="1" /><path clip-path="url(#clip490)" d="M 0 0 M503.173 230.612 Q503.173 230.743 503.026 231.252 Q502.878 231.76 502.517 232.547 Q502.173 233.334 501.681 234.055 Q501.206 234.76 500.419 235.285 Q499.648 235.793 498.763 235.793 Q497.582 235.793 496.795 235.006 Q496.008 234.219 496.008 233.039 Q496.008 232.399 496.451 231.186 Q498.533 225.644 498.533 223.66 Q498.533 221.316 496.713 221.316 Q495.68 221.316 494.746 221.742 Q493.811 222.168 493.205 222.759 Q492.598 223.349 492.123 224.021 Q491.647 224.693 491.434 225.136 Q491.237 225.579 491.188 225.775 L489.171 233.875 Q489.007 234.563 488.893 234.891 Q488.778 235.219 488.466 235.498 Q488.155 235.793 487.663 235.793 Q487.253 235.793 486.958 235.547 Q486.679 235.301 486.679 234.875 Q486.679 234.809 486.761 234.465 Q486.843 234.121 486.958 233.645 Q487.073 233.17 487.122 232.891 Q487.712 230.661 487.794 230.35 L488.729 226.448 Q489.237 224.513 489.237 223.66 Q489.237 221.316 487.417 221.316 Q486.515 221.316 485.663 221.66 Q484.826 221.988 484.253 222.447 Q483.679 222.906 483.154 223.546 Q482.646 224.169 482.383 224.595 Q482.138 225.005 481.941 225.415 L481.515 227.087 Q481.416 227.546 480.941 229.333 L480.203 232.366 Q479.678 234.629 479.563 234.842 Q479.399 235.301 479.039 235.547 Q478.678 235.793 478.317 235.793 Q477.907 235.793 477.629 235.547 Q477.35 235.301 477.35 234.875 Q477.35 234.809 477.399 234.563 Q477.448 234.318 477.53 233.973 Q477.612 233.629 477.645 233.432 L479.596 225.677 Q479.957 224.267 480.039 223.824 Q480.137 223.365 480.137 222.857 Q480.137 221.316 479.088 221.316 Q478.235 221.316 477.678 222.332 Q477.12 223.349 476.645 225.316 Q476.497 225.857 476.399 225.972 Q476.317 226.087 476.071 226.087 Q475.661 226.071 475.661 225.743 Q475.661 225.661 475.792 225.136 Q475.924 224.611 476.17 223.824 Q476.432 223.021 476.711 222.496 Q476.875 222.152 477.022 221.922 Q477.17 221.693 477.465 221.332 Q477.76 220.971 478.203 220.775 Q478.645 220.578 479.186 220.578 Q480.383 220.578 481.269 221.349 Q482.17 222.119 482.285 223.496 Q484.466 220.578 487.515 220.578 Q489.237 220.578 490.27 221.447 Q491.237 222.283 491.352 223.824 Q493.615 220.578 496.828 220.578 Q498.681 220.578 499.681 221.545 Q500.681 222.496 500.681 224.169 Q500.681 225.038 500.238 226.694 Q499.796 228.333 499.501 229.153 Q499.205 229.973 498.632 231.547 Q498.025 233.055 498.025 233.94 Q498.025 234.514 498.222 234.777 Q498.418 235.039 498.845 235.039 Q499.501 235.039 500.074 234.662 Q500.648 234.268 501.058 233.629 Q501.484 232.973 501.763 232.317 Q502.042 231.645 502.255 230.891 Q502.386 230.481 502.452 230.383 Q502.534 230.284 502.763 230.284 Q503.173 230.284 503.173 230.612 Z" fill="#000000" fill-rule="evenodd" fill-opacity="1" /><path clip-path="url(#clip490)" d="M 0 0 M508.016 214.61 Q508.016 206.506 511.037 199.971 Q512.325 197.231 514.129 194.935 Q515.932 192.64 517.127 191.633 Q518.321 190.626 518.649 190.626 Q519.118 190.626 519.141 191.094 Q519.141 191.328 518.509 191.914 Q510.779 199.784 510.803 214.61 Q510.803 229.484 518.321 237.049 Q519.141 237.869 519.141 238.126 Q519.141 238.595 518.649 238.595 Q518.321 238.595 517.174 237.635 Q516.026 236.674 514.246 234.473 Q512.466 232.271 511.178 229.577 Q508.016 223.042 508.016 214.61 Z" fill="#000000" fill-rule="evenodd" fill-opacity="1" /><path clip-path="url(#clip490)" d="M 0 0 M541.164 206.459 Q541.164 207.115 540.859 207.279 Q540.555 207.42 539.712 207.42 L535.215 207.42 L531.654 221.567 Q531.373 222.808 531.373 223.862 Q531.373 225.033 531.725 225.549 Q532.099 226.064 532.872 226.064 Q534.395 226.064 536.034 224.682 Q537.697 223.3 539.103 219.927 Q539.29 219.482 539.384 219.389 Q539.501 219.271 539.805 219.271 Q540.391 219.271 540.391 219.74 Q540.391 219.904 540.063 220.653 Q539.759 221.403 539.079 222.504 Q538.423 223.605 537.557 224.635 Q536.714 225.666 535.425 226.415 Q534.137 227.141 532.755 227.141 Q530.811 227.141 529.57 225.9 Q528.352 224.659 528.352 222.714 Q528.352 222.082 528.844 220.068 Q529.336 218.03 532.006 207.42 L527.766 207.42 Q527.181 207.42 526.946 207.396 Q526.736 207.373 526.572 207.256 Q526.431 207.115 526.431 206.834 Q526.431 206.389 526.619 206.202 Q526.806 205.991 527.04 205.967 Q527.298 205.921 527.883 205.921 L532.38 205.921 L534.254 198.308 Q534.442 197.559 534.91 197.137 Q535.402 196.692 535.683 196.645 Q535.964 196.575 536.175 196.575 Q536.807 196.575 537.182 196.926 Q537.557 197.254 537.557 197.863 Q537.557 198.191 535.589 205.921 L539.805 205.921 Q540.344 205.921 540.555 205.944 Q540.789 205.967 540.976 206.085 Q541.164 206.202 541.164 206.459 Z" fill="#000000" fill-rule="evenodd" fill-opacity="1" /><path clip-path="url(#clip490)" d="M 0 0 M543.571 238.126 Q543.571 237.892 544.18 237.307 Q551.909 229.437 551.909 214.61 Q551.909 199.737 544.485 192.218 Q543.571 191.352 543.571 191.094 Q543.571 190.626 544.039 190.626 Q544.367 190.626 545.515 191.586 Q546.686 192.546 548.443 194.748 Q550.223 196.95 551.535 199.643 Q554.697 206.178 554.697 214.61 Q554.697 222.714 551.675 229.249 Q550.387 231.99 548.583 234.285 Q546.78 236.581 545.585 237.588 Q544.391 238.595 544.039 238.595 Q543.571 238.595 543.571 238.126 Z" fill="#000000" fill-rule="evenodd" fill-opacity="1" /></svg>