<?xml version="1.0" encoding="UTF-8" standalone="no"?>
<!-- Creator: fig2dev Version 3.2.8 -->
<!-- CreationDate: 2021-04-27 13:06:44 -->
<!-- Magnification: 1.05 -->
<svg	xmlns="http://www.w3.org/2000/svg"
	xmlns:xlink="http://www.w3.org/1999/xlink"
	width="405pt" height="251pt"
	viewBox="1906 1383 6416 3984">
<g fill="none">
<!-- Text -->
<text xml:space="preserve" x="1921" y="5210" fill="#000000" font-family="Times" font-style="normal" font-weight="normal" font-size="168" text-anchor="start">a)</text>
<!-- Line -->
<polyline points=" 4095,3375 4095,5355"
	stroke="#000000" stroke-width="8px"/>
<!-- Line -->
<polyline points=" 4770,3375 2205,3375"
	stroke="#000000" stroke-width="8px"/>
<!-- Line -->
<defs>
<clipPath id="cp0">
	<path clip-rule="evenodd" d="M 1906,1383 H 8322 V 5367 H 1906 z
		M 3807,4935 3830,4792 3910,4912 3830,4762 3817,4765z"/>
</clipPath>
</defs>
<polyline points=" 3864,4949 3825,4770" clip-path="url(#cp0)"
	stroke="#000000" stroke-width="8px"/>
<!-- Forward arrow to point 3825,4770 -->
<polyline points=" 3807,4935 3830,4792 3910,4912"
	stroke="#000000" stroke-width="15px" stroke-miterlimit="8"/>
<!-- Line -->
<defs>
<clipPath id="cp1">
	<path clip-rule="evenodd" d="M 1906,1383 H 8322 V 5367 H 1906 z
		M 2903,2815 3038,2867 2903,2920 3067,2874 3067,2860z"/>
</clipPath>
</defs>
<polyline points=" 2925,2867 3060,2867" clip-path="url(#cp1)"
	stroke="#000000" stroke-width="8px"/>
<!-- Forward arrow to point 3060,2867 -->
<polyline points=" 2903,2815 3038,2867 2903,2920"
	stroke="#000000" stroke-width="15px" stroke-miterlimit="8"/>
<!-- Line -->
<defs>
<clipPath id="cp2">
	<path clip-rule="evenodd" d="M 1906,1383 H 8322 V 5367 H 1906 z
		M 3810,3634 3955,3637 3847,3732 3985,3633 3980,3620z"/>
</clipPath>
</defs>
<polyline points=" 3834,3681 3976,3629" clip-path="url(#cp2)"
	stroke="#000000" stroke-width="8px"/>
<!-- Forward arrow to point 3976,3629 -->
<polyline points=" 3810,3634 3955,3637 3847,3732"
	stroke="#000000" stroke-width="15px" stroke-miterlimit="8"/>
<!-- Line -->
<defs>
<clipPath id="cp3">
	<path clip-rule="evenodd" d="M 1906,1383 H 8322 V 5367 H 1906 z
		M 3813,3131 3673,3168 3751,3046 3646,3180 3654,3190z"/>
</clipPath>
</defs>
<polyline points=" 3811,3067 3655,3181" clip-path="url(#cp3)"
	stroke="#000000" stroke-width="8px"/>
<!-- Forward arrow to point 3655,3181 -->
<polyline points=" 3813,3131 3673,3168 3751,3046"
	stroke="#000000" stroke-width="15px" stroke-miterlimit="8"/>
<!-- Line -->
<defs>
<clipPath id="cp4">
	<path clip-rule="evenodd" d="M 1906,1383 H 8322 V 5367 H 1906 z
		M 3065,3935 2930,3882 3065,3830 2901,3875 2901,3889z"/>
</clipPath>
</defs>
<polyline points=" 3043,3882 2908,3882" clip-path="url(#cp4)"
	stroke="#000000" stroke-width="8px"/>
<!-- Forward arrow to point 2908,3882 -->
<polyline points=" 3065,3935 2930,3882 3065,3830"
	stroke="#000000" stroke-width="15px" stroke-miterlimit="8"/>
<!-- Line -->
<defs>
<clipPath id="cp5">
	<path clip-rule="evenodd" d="M 1906,1383 H 8322 V 5367 H 1906 z
		M 3830,1694 3903,1570 3933,1711 3915,1542 3901,1540z"/>
</clipPath>
</defs>
<polyline points=" 3879,1718 3907,1548" clip-path="url(#cp5)"
	stroke="#000000" stroke-width="8px"/>
<!-- Forward arrow to point 3907,1548 -->
<polyline points=" 3830,1694 3903,1570 3933,1711"
	stroke="#000000" stroke-width="15px" stroke-miterlimit="8"/>
<!-- Line -->
<defs>
<clipPath id="cp6">
	<path clip-rule="evenodd" d="M 1906,1383 H 8322 V 5367 H 1906 z
		M 6343,3170 6398,3280 6297,3209 6408,3303 6419,3294z"/>
</clipPath>
</defs>
<polyline points=" 5554,2301 6409,3293" clip-path="url(#cp6)"
	stroke="#000000" stroke-width="8px"/>
<!-- Forward arrow to point 6409,3293 -->
<polyline points=" 6343,3170 6398,3280 6297,3209"
	stroke="#000000" stroke-width="8px" stroke-miterlimit="8"/>
<!-- Text -->
<text xml:space="preserve" x="5054" y="2268" fill="#000000" font-family="Times" font-style="normal" font-weight="normal" font-size="168" text-anchor="start">(-1,0)</text>
<!-- Text -->
<text xml:space="preserve" x="5489" y="5210" fill="#000000" font-family="Times" font-style="normal" font-weight="normal" font-size="168" text-anchor="start">b)</text>
<!-- Line -->
<polyline points=" 4095,1395 4095,3375"
	stroke="#000000" stroke-width="8px"/>
<!-- Line -->
<polyline points=" 7635,1395 7635,3375"
	stroke="#000000" stroke-width="8px"/>
<!-- Line -->
<polyline points=" 7635,3375 7635,5355"
	stroke="#000000" stroke-width="8px"/>
<!-- Line -->
<polyline points=" 8310,3375 5745,3375"
	stroke="#000000" stroke-width="8px"/>
<!-- Line -->
<defs>
<clipPath id="cp7">
	<path clip-rule="evenodd" d="M 1906,1383 H 8322 V 5367 H 1906 z
		M 7347,4935 7370,4792 7450,4912 7370,4762 7357,4765z"/>
</clipPath>
</defs>
<polyline points=" 7404,4949 7365,4770" clip-path="url(#cp7)"
	stroke="#000000" stroke-width="8px"/>
<!-- Forward arrow to point 7365,4770 -->
<polyline points=" 7347,4935 7370,4792 7450,4912"
	stroke="#000000" stroke-width="15px" stroke-miterlimit="8"/>
<!-- Line -->
<defs>
<clipPath id="cp8">
	<path clip-rule="evenodd" d="M 1906,1383 H 8322 V 5367 H 1906 z
		M 6443,2815 6578,2867 6443,2920 6607,2874 6607,2860z"/>
</clipPath>
</defs>
<polyline points=" 6465,2867 6600,2867" clip-path="url(#cp8)"
	stroke="#000000" stroke-width="8px"/>
<!-- Forward arrow to point 6600,2867 -->
<polyline points=" 6443,2815 6578,2867 6443,2920"
	stroke="#000000" stroke-width="15px" stroke-miterlimit="8"/>
<!-- Line -->
<defs>
<clipPath id="cp9">
	<path clip-rule="evenodd" d="M 1906,1383 H 8322 V 5367 H 1906 z
		M 7350,3634 7495,3637 7387,3732 7525,3633 7520,3620z"/>
</clipPath>
</defs>
<polyline points=" 7374,3681 7516,3629" clip-path="url(#cp9)"
	stroke="#000000" stroke-width="8px"/>
<!-- Forward arrow to point 7516,3629 -->
<polyline points=" 7350,3634 7495,3637 7387,3732"
	stroke="#000000" stroke-width="15px" stroke-miterlimit="8"/>
<!-- Line -->
<defs>
<clipPath id="cp10">
	<path clip-rule="evenodd" d="M 1906,1383 H 8322 V 5367 H 1906 z
		M 7353,3131 7213,3168 7291,3046 7186,3180 7194,3190z"/>
</clipPath>
</defs>
<polyline points=" 7351,3067 7195,3181" clip-path="url(#cp10)"
	stroke="#000000" stroke-width="8px"/>
<!-- Forward arrow to point 7195,3181 -->
<polyline points=" 7353,3131 7213,3168 7291,3046"
	stroke="#000000" stroke-width="15px" stroke-miterlimit="8"/>
<!-- Line -->
<defs>
<clipPath id="cp11">
	<path clip-rule="evenodd" d="M 1906,1383 H 8322 V 5367 H 1906 z
		M 6605,3935 6470,3882 6605,3830 6441,3875 6441,3889z"/>
</clipPath>
</defs>
<polyline points=" 6583,3882 6448,3882" clip-path="url(#cp11)"
	stroke="#000000" stroke-width="8px"/>
<!-- Forward arrow to point 6448,3882 -->
<polyline points=" 6605,3935 6470,3882 6605,3830"
	stroke="#000000" stroke-width="15px" stroke-miterlimit="8"/>
<!-- Line -->
<defs>
<clipPath id="cp12">
	<path clip-rule="evenodd" d="M 1906,1383 H 8322 V 5367 H 1906 z
		M 7370,1694 7443,1570 7473,1711 7455,1542 7441,1540z"/>
</clipPath>
</defs>
<polyline points=" 7419,1718 7447,1548" clip-path="url(#cp12)"
	stroke="#000000" stroke-width="8px"/>
<!-- Forward arrow to point 7447,1548 -->
<polyline points=" 7370,1694 7443,1570 7473,1711"
	stroke="#000000" stroke-width="15px" stroke-miterlimit="8"/>
<!-- Line -->
<polyline points=" 3836,3373 3840,3315"
	stroke="#000000" stroke-width="8px"/>
<!-- Line -->
<polyline points=" 3832,3431 3836,3373"
	stroke="#000000" stroke-width="8px"/>
<!-- Line -->
<polyline points=" 6494,3373 6498,3315"
	stroke="#000000" stroke-width="8px"/>
<!-- Line -->
<polyline points=" 6490,3431 6494,3373"
	stroke="#000000" stroke-width="8px"/>
<!-- Line -->
<defs>
<clipPath id="cp13">
	<path clip-rule="evenodd" d="M 1906,1383 H 8322 V 5367 H 1906 z
		M 4031,3217 3921,3274 3991,3172 3899,3284 3908,3295z"/>
</clipPath>
</defs>
<polyline points=" 5006,2309 3909,3285" clip-path="url(#cp13)"
	stroke="#000000" stroke-width="8px"/>
<!-- Forward arrow to point 3909,3285 -->
<polyline points=" 4031,3217 3921,3274 3991,3172"
	stroke="#000000" stroke-width="8px" stroke-miterlimit="8"/>
<!-- Line -->
<polyline points=" 3915,5265 3915,5262 3914,5257 3912,5247 3910,5231 3907,5210
 3903,5184 3899,5153 3893,5118 3887,5080 3881,5040 3875,5000 3868,4960 3861,4922
 3855,4885 3848,4850 3842,4817 3835,4786 3829,4758 3822,4731 3816,4706 3809,4682
 3802,4660 3795,4638 3788,4618 3780,4598 3770,4574 3760,4552 3749,4529 3737,4507
 3725,4484 3711,4462 3697,4440 3681,4418 3665,4397 3647,4376 3629,4355 3611,4335
 3591,4316 3571,4297 3551,4279 3530,4262 3509,4246 3487,4231 3465,4217 3443,4203
 3421,4190 3398,4178 3377,4167 3357,4157 3335,4147 3313,4138 3290,4128 3266,4118
 3241,4108 3216,4098 3190,4088 3163,4078 3136,4067 3109,4057 3081,4046 3054,4035
 3026,4024 2999,4013 2972,4002 2946,3990 2920,3979 2895,3967 2871,3955 2847,3943
 2824,3931 2802,3919 2781,3906 2760,3893 2740,3879 2720,3864 2700,3849 2681,3833
 2662,3817 2643,3799 2625,3781 2607,3762 2590,3742 2573,3722 2557,3701 2543,3679
 2529,3657 2516,3635 2504,3612 2494,3589 2484,3566 2476,3543 2470,3521 2464,3498
 2460,3476 2458,3454 2456,3432 2456,3410 2457,3389 2460,3368 2464,3344 2470,3321
 2477,3297 2486,3273 2496,3249 2508,3224 2521,3200 2536,3175 2552,3150 2570,3126
 2588,3102 2607,3079 2627,3056 2648,3034 2669,3014 2691,2994 2712,2976 2734,2959
 2755,2943 2776,2929 2797,2917 2817,2906 2838,2896 2858,2888 2879,2880 2900,2874
 2922,2869 2943,2866 2965,2864 2987,2863 3009,2864 3031,2867 3053,2870 3075,2875
 3097,2881 3118,2889 3139,2897 3159,2906 3178,2916 3197,2927 3215,2938 3232,2950
 3248,2962 3263,2974 3278,2987 3293,3000 3308,3015 3323,3030 3337,3046 3352,3062
 3366,3080 3381,3098 3395,3116 3409,3136 3423,3156 3436,3176 3449,3196 3462,3216
 3474,3236 3486,3256 3498,3276 3508,3295 3519,3314 3529,3332 3538,3350 3548,3368
 3558,3387 3568,3406 3579,3426 3589,3446 3600,3466 3611,3486 3623,3505 3634,3525
 3646,3544 3658,3562 3670,3578 3681,3594 3693,3609 3705,3622 3716,3633 3727,3644
 3739,3652 3750,3660 3763,3667 3777,3672 3791,3677 3805,3679 3821,3680 3836,3680
 3852,3678 3868,3675 3884,3671 3899,3666 3914,3659 3928,3652 3941,3643 3953,3634
 3964,3625 3975,3615 3985,3604 3994,3593 4004,3580 4013,3566 4022,3549 4031,3531
 4041,3510 4051,3488 4061,3464 4070,3440 4079,3418 4086,3400 4091,3387 4094,3379
 4095,3376 4095,3375"
	stroke="#000000" stroke-width="15px" stroke-linejoin="bevel"/>
<!-- Line -->
<polyline points=" 3915,1485 3915,1488 3914,1493 3912,1503 3910,1519 3907,1540
 3903,1566 3899,1597 3893,1632 3887,1670 3881,1710 3875,1750 3868,1790 3861,1828
 3855,1865 3848,1900 3842,1933 3835,1964 3829,1992 3822,2019 3816,2044 3809,2068
 3802,2090 3795,2112 3788,2132 3780,2153 3770,2176 3760,2198 3749,2221 3737,2243
 3725,2266 3711,2288 3697,2310 3681,2332 3665,2353 3647,2374 3629,2395 3611,2415
 3591,2434 3571,2453 3551,2471 3530,2488 3509,2504 3487,2519 3465,2533 3443,2547
 3421,2560 3398,2573 3377,2583 3357,2593 3335,2603 3313,2612 3290,2622 3266,2632
 3241,2642 3216,2652 3190,2662 3163,2672 3136,2683 3109,2693 3081,2704 3054,2715
 3026,2726 2999,2737 2972,2748 2946,2760 2920,2771 2895,2783 2871,2795 2847,2807
 2824,2819 2802,2831 2781,2844 2760,2858 2740,2871 2720,2886 2700,2901 2681,2917
 2662,2933 2643,2951 2625,2969 2607,2988 2590,3008 2573,3028 2557,3049 2543,3071
 2529,3093 2516,3115 2504,3138 2494,3161 2484,3184 2476,3207 2470,3229 2464,3252
 2460,3274 2458,3296 2456,3318 2456,3340 2457,3361 2460,3383 2464,3406 2470,3429
 2477,3453 2486,3477 2496,3501 2508,3526 2521,3550 2536,3575 2552,3600 2570,3624
 2588,3648 2607,3671 2627,3694 2648,3716 2669,3736 2691,3756 2712,3774 2734,3791
 2755,3807 2776,3821 2797,3833 2817,3844 2838,3854 2858,3863 2879,3870 2900,3876
 2922,3881 2943,3884 2965,3886 2987,3887 3009,3886 3031,3883 3053,3880 3075,3875
 3097,3869 3118,3861 3139,3853 3159,3844 3178,3834 3197,3823 3215,3812 3232,3800
 3248,3788 3263,3776 3278,3763 3293,3750 3308,3735 3323,3720 3337,3704 3352,3688
 3366,3670 3381,3652 3395,3634 3409,3614 3423,3594 3436,3574 3449,3554 3462,3534
 3474,3514 3486,3494 3498,3474 3508,3455 3519,3436 3529,3418 3538,3400 3548,3383
 3558,3363 3568,3344 3579,3324 3589,3304 3600,3284 3611,3264 3623,3245 3634,3225
 3646,3206 3658,3188 3670,3172 3681,3156 3693,3141 3705,3128 3716,3117 3727,3106
 3739,3098 3750,3090 3763,3083 3777,3078 3791,3073 3805,3071 3821,3070 3836,3070
 3852,3072 3868,3075 3884,3079 3899,3084 3914,3091 3928,3098 3941,3107 3953,3116
 3964,3125 3975,3135 3985,3146 3994,3157 4004,3170 4013,3184 4022,3201 4031,3219
 4041,3240 4051,3263 4061,3286 4070,3310 4079,3332 4086,3350 4091,3363 4094,3371
 4095,3374 4095,3375"
	stroke="#000000" stroke-width="15px" stroke-linejoin="bevel"/>
<!-- Line -->
<polyline points=" 7455,1485 7455,1488 7454,1493 7452,1503 7450,1519 7447,1540
 7443,1566 7439,1597 7433,1632 7427,1670 7421,1710 7415,1750 7408,1790 7401,1828
 7395,1865 7388,1900 7382,1933 7375,1964 7369,1992 7362,2019 7356,2044 7349,2068
 7342,2090 7335,2112 7328,2132 7320,2153 7310,2176 7300,2198 7289,2221 7277,2243
 7265,2266 7251,2288 7237,2310 7221,2332 7205,2353 7187,2374 7169,2395 7151,2415
 7131,2434 7111,2453 7091,2471 7070,2488 7049,2504 7027,2519 7005,2533 6983,2547
 6961,2560 6938,2573 6917,2583 6897,2593 6875,2603 6853,2612 6830,2622 6806,2632
 6781,2642 6756,2652 6730,2662 6703,2672 6676,2683 6649,2693 6621,2704 6594,2715
 6566,2726 6539,2737 6512,2748 6486,2760 6460,2771 6435,2783 6411,2795 6387,2807
 6364,2819 6342,2831 6321,2844 6300,2858 6280,2871 6260,2886 6240,2901 6221,2917
 6202,2933 6183,2951 6165,2969 6147,2988 6130,3008 6113,3028 6097,3049 6083,3071
 6069,3093 6056,3115 6044,3138 6034,3161 6024,3184 6016,3207 6010,3229 6004,3252
 6000,3274 5998,3296 5996,3318 5996,3340 5997,3361 6000,3383 6004,3406 6010,3429
 6017,3453 6026,3477 6036,3501 6048,3526 6061,3550 6076,3575 6092,3600 6110,3624
 6128,3648 6147,3671 6167,3694 6188,3716 6209,3736 6231,3756 6252,3774 6274,3791
 6295,3807 6316,3821 6337,3833 6357,3844 6378,3854 6398,3863 6419,3870 6440,3876
 6462,3881 6483,3884 6505,3886 6527,3887 6549,3886 6571,3883 6593,3880 6615,3875
 6637,3869 6658,3861 6679,3853 6699,3844 6718,3834 6737,3823 6755,3812 6772,3800
 6788,3788 6803,3776 6818,3763 6833,3750 6848,3735 6863,3720 6877,3704 6892,3688
 6906,3670 6921,3652 6935,3634 6949,3614 6963,3594 6976,3574 6989,3554 7002,3534
 7014,3514 7026,3494 7038,3474 7048,3455 7059,3436 7069,3418 7078,3400 7088,3383
 7098,3363 7108,3344 7119,3324 7129,3304 7140,3284 7151,3264 7163,3245 7174,3225
 7186,3206 7198,3188 7210,3172 7221,3156 7233,3141 7245,3128 7256,3117 7267,3106
 7279,3098 7290,3090 7303,3083 7317,3078 7331,3073 7345,3071 7361,3070 7376,3070
 7392,3072 7408,3075 7424,3079 7439,3084 7454,3091 7468,3098 7481,3107 7493,3116
 7504,3125 7515,3135 7525,3146 7534,3157 7544,3170 7553,3184 7562,3201 7571,3219
 7581,3240 7591,3263 7601,3286 7610,3310 7619,3332 7626,3350 7631,3363 7634,3371
 7635,3374 7635,3375"
	stroke="#000000" stroke-width="15px" stroke-linejoin="bevel"/>
<!-- Line -->
<polyline points=" 7455,5265 7455,5262 7454,5257 7452,5247 7450,5231 7447,5210
 7443,5184 7439,5153 7433,5118 7427,5080 7421,5040 7415,5000 7408,4960 7401,4922
 7395,4885 7388,4850 7382,4817 7375,4786 7369,4758 7362,4731 7356,4706 7349,4682
 7342,4660 7335,4638 7328,4618 7320,4598 7310,4574 7300,4552 7289,4529 7277,4507
 7265,4484 7251,4462 7237,4440 7221,4418 7205,4397 7187,4376 7169,4355 7151,4335
 7131,4316 7111,4297 7091,4279 7070,4262 7049,4246 7027,4231 7005,4217 6983,4203
 6961,4190 6938,4178 6917,4167 6897,4157 6875,4147 6853,4138 6830,4128 6806,4118
 6781,4108 6756,4098 6730,4088 6703,4078 6676,4067 6649,4057 6621,4046 6594,4035
 6566,4024 6539,4013 6512,4002 6486,3990 6460,3979 6435,3967 6411,3955 6387,3943
 6364,3931 6342,3919 6321,3906 6300,3893 6280,3879 6260,3864 6240,3849 6221,3833
 6202,3817 6183,3799 6165,3781 6147,3762 6130,3742 6113,3722 6097,3701 6083,3679
 6069,3657 6056,3635 6044,3612 6034,3589 6024,3566 6016,3543 6010,3521 6004,3498
 6000,3476 5998,3454 5996,3432 5996,3410 5997,3389 6000,3368 6004,3344 6010,3321
 6017,3297 6026,3273 6036,3249 6048,3224 6061,3200 6076,3175 6092,3150 6110,3126
 6128,3102 6147,3079 6167,3056 6188,3034 6209,3014 6231,2994 6252,2976 6274,2959
 6295,2943 6316,2929 6337,2917 6357,2906 6378,2896 6398,2888 6419,2880 6440,2874
 6462,2869 6483,2866 6505,2864 6527,2863 6549,2864 6571,2867 6593,2870 6615,2875
 6637,2881 6658,2889 6679,2897 6699,2906 6718,2916 6737,2927 6755,2938 6772,2950
 6788,2962 6803,2974 6818,2987 6833,3000 6848,3015 6863,3030 6877,3046 6892,3062
 6906,3080 6921,3098 6935,3116 6949,3136 6963,3156 6976,3176 6989,3196 7002,3216
 7014,3236 7026,3256 7038,3276 7048,3295 7059,3314 7069,3332 7078,3350 7088,3368
 7098,3387 7108,3406 7119,3426 7129,3446 7140,3466 7151,3486 7163,3505 7174,3525
 7186,3544 7198,3562 7210,3578 7221,3594 7233,3609 7245,3622 7256,3633 7267,3644
 7279,3652 7290,3660 7303,3667 7317,3672 7331,3677 7345,3679 7361,3680 7376,3680
 7392,3678 7408,3675 7424,3671 7439,3666 7454,3659 7468,3652 7481,3643 7493,3634
 7504,3625 7515,3615 7525,3604 7534,3593 7544,3580 7553,3566 7562,3549 7571,3531
 7581,3510 7591,3488 7601,3464 7610,3440 7619,3418 7626,3400 7631,3387 7634,3379
 7635,3376 7635,3375"
	stroke="#000000" stroke-width="15px" stroke-linejoin="bevel"/>
</g>
</svg>
