<?xml version="1.0" encoding="utf-8"?>
<svg xmlns="http://www.w3.org/2000/svg" xmlns:xlink="http://www.w3.org/1999/xlink" width="600" height="400" viewBox="0 0 2400 1600">
<defs>
  <clipPath id="clip810">
    <rect x="0" y="0" width="2400" height="1600"/>
  </clipPath>
</defs>
<path clip-path="url(#clip810)" d="
M0 1600 L2400 1600 L2400 0 L0 0  Z
  " fill="#ffffff" fill-rule="evenodd" fill-opacity="1"/>
<defs>
  <clipPath id="clip811">
    <rect x="480" y="0" width="1681" height="1600"/>
  </clipPath>
</defs>
<path clip-path="url(#clip810)" d="
M257.204 1423.18 L2352.76 1423.18 L2352.76 47.2441 L257.204 47.2441  Z
  " fill="#ffffff" fill-rule="evenodd" fill-opacity="1"/>
<defs>
  <clipPath id="clip812">
    <rect x="257" y="47" width="2097" height="1377"/>
  </clipPath>
</defs>
<polyline clip-path="url(#clip812)" style="stroke:#000000; stroke-width:2; stroke-opacity:0.1; fill:none" points="
  676.599,1423.18 676.599,47.2441 
  "/>
<polyline clip-path="url(#clip812)" style="stroke:#000000; stroke-width:2; stroke-opacity:0.1; fill:none" points="
  1179.3,1423.18 1179.3,47.2441 
  "/>
<polyline clip-path="url(#clip812)" style="stroke:#000000; stroke-width:2; stroke-opacity:0.1; fill:none" points="
  1682.01,1423.18 1682.01,47.2441 
  "/>
<polyline clip-path="url(#clip812)" style="stroke:#000000; stroke-width:2; stroke-opacity:0.1; fill:none" points="
  2184.71,1423.18 2184.71,47.2441 
  "/>
<polyline clip-path="url(#clip810)" style="stroke:#000000; stroke-width:4; stroke-opacity:1; fill:none" points="
  257.204,1423.18 2352.76,1423.18 
  "/>
<polyline clip-path="url(#clip810)" style="stroke:#000000; stroke-width:4; stroke-opacity:1; fill:none" points="
  676.599,1423.18 676.599,1406.67 
  "/>
<polyline clip-path="url(#clip810)" style="stroke:#000000; stroke-width:4; stroke-opacity:1; fill:none" points="
  1179.3,1423.18 1179.3,1406.67 
  "/>
<polyline clip-path="url(#clip810)" style="stroke:#000000; stroke-width:4; stroke-opacity:1; fill:none" points="
  1682.01,1423.18 1682.01,1406.67 
  "/>
<polyline clip-path="url(#clip810)" style="stroke:#000000; stroke-width:4; stroke-opacity:1; fill:none" points="
  2184.71,1423.18 2184.71,1406.67 
  "/>
<path clip-path="url(#clip810)" d="M 0 0 M676.599 1452.37 Q672.988 1452.37 671.16 1455.94 Q669.354 1459.48 669.354 1466.61 Q669.354 1473.71 671.16 1477.28 Q672.988 1480.82 676.599 1480.82 Q680.234 1480.82 682.039 1477.28 Q683.868 1473.71 683.868 1466.61 Q683.868 1459.48 682.039 1455.94 Q680.234 1452.37 676.599 1452.37 M676.599 1448.67 Q682.409 1448.67 685.465 1453.27 Q688.544 1457.86 688.544 1466.61 Q688.544 1475.33 685.465 1479.94 Q682.409 1484.52 676.599 1484.52 Q670.789 1484.52 667.71 1479.94 Q664.655 1475.33 664.655 1466.61 Q664.655 1457.86 667.71 1453.27 Q670.789 1448.67 676.599 1448.67 Z" fill="#000000" fill-rule="evenodd" fill-opacity="1" /><path clip-path="url(#clip810)" d="M 0 0 M1173.96 1479.92 L1190.28 1479.92 L1190.28 1483.85 L1168.33 1483.85 L1168.33 1479.92 Q1170.99 1477.16 1175.58 1472.53 Q1180.18 1467.88 1181.36 1466.54 Q1183.61 1464.01 1184.49 1462.28 Q1185.39 1460.52 1185.39 1458.83 Q1185.39 1456.07 1183.45 1454.34 Q1181.53 1452.6 1178.42 1452.6 Q1176.23 1452.6 1173.77 1453.37 Q1171.34 1454.13 1168.56 1455.68 L1168.56 1450.96 Q1171.39 1449.82 1173.84 1449.25 Q1176.29 1448.67 1178.33 1448.67 Q1183.7 1448.67 1186.9 1451.35 Q1190.09 1454.04 1190.09 1458.53 Q1190.09 1460.66 1189.28 1462.58 Q1188.49 1464.48 1186.39 1467.07 Q1185.81 1467.74 1182.71 1470.96 Q1179.6 1474.15 1173.96 1479.92 Z" fill="#000000" fill-rule="evenodd" fill-opacity="1" /><path clip-path="url(#clip810)" d="M 0 0 M1685.02 1453.37 L1673.21 1471.81 L1685.02 1471.81 L1685.02 1453.37 M1683.79 1449.29 L1689.67 1449.29 L1689.67 1471.81 L1694.6 1471.81 L1694.6 1475.7 L1689.67 1475.7 L1689.67 1483.85 L1685.02 1483.85 L1685.02 1475.7 L1669.42 1475.7 L1669.42 1471.19 L1683.79 1449.29 Z" fill="#000000" fill-rule="evenodd" fill-opacity="1" /><path clip-path="url(#clip810)" d="M 0 0 M2185.12 1464.71 Q2181.97 1464.71 2180.12 1466.86 Q2178.29 1469.01 2178.29 1472.76 Q2178.29 1476.49 2180.12 1478.67 Q2181.97 1480.82 2185.12 1480.82 Q2188.27 1480.82 2190.09 1478.67 Q2191.95 1476.49 2191.95 1472.76 Q2191.95 1469.01 2190.09 1466.86 Q2188.27 1464.71 2185.12 1464.71 M2194.4 1450.06 L2194.4 1454.31 Q2192.64 1453.48 2190.84 1453.04 Q2189.05 1452.6 2187.29 1452.6 Q2182.66 1452.6 2180.21 1455.73 Q2177.78 1458.85 2177.43 1465.17 Q2178.8 1463.16 2180.86 1462.09 Q2182.92 1461 2185.4 1461 Q2190.6 1461 2193.61 1464.18 Q2196.65 1467.32 2196.65 1472.76 Q2196.65 1478.09 2193.5 1481.31 Q2190.35 1484.52 2185.12 1484.52 Q2179.12 1484.52 2175.95 1479.94 Q2172.78 1475.33 2172.78 1466.61 Q2172.78 1458.41 2176.67 1453.55 Q2180.56 1448.67 2187.11 1448.67 Q2188.87 1448.67 2190.65 1449.01 Q2192.46 1449.36 2194.4 1450.06 Z" fill="#000000" fill-rule="evenodd" fill-opacity="1" /><path clip-path="url(#clip810)" d="M 0 0 M1304.04 1522.27 L1304.04 1532.4 L1316.1 1532.4 L1316.1 1536.95 L1304.04 1536.95 L1304.04 1556.3 Q1304.04 1560.66 1305.22 1561.9 Q1306.43 1563.14 1310.09 1563.14 L1316.1 1563.14 L1316.1 1568.04 L1310.09 1568.04 Q1303.31 1568.04 1300.73 1565.53 Q1298.15 1562.98 1298.15 1556.3 L1298.15 1536.95 L1293.86 1536.95 L1293.86 1532.4 L1298.15 1532.4 L1298.15 1522.27 L1304.04 1522.27 Z" fill="#000000" fill-rule="evenodd" fill-opacity="1" /><polyline clip-path="url(#clip812)" style="stroke:#000000; stroke-width:2; stroke-opacity:0.1; fill:none" points="
  257.204,1384.24 2352.76,1384.24 
  "/>
<polyline clip-path="url(#clip812)" style="stroke:#000000; stroke-width:2; stroke-opacity:0.1; fill:none" points="
  257.204,1059.73 2352.76,1059.73 
  "/>
<polyline clip-path="url(#clip812)" style="stroke:#000000; stroke-width:2; stroke-opacity:0.1; fill:none" points="
  257.204,735.212 2352.76,735.212 
  "/>
<polyline clip-path="url(#clip812)" style="stroke:#000000; stroke-width:2; stroke-opacity:0.1; fill:none" points="
  257.204,410.699 2352.76,410.699 
  "/>
<polyline clip-path="url(#clip812)" style="stroke:#000000; stroke-width:2; stroke-opacity:0.1; fill:none" points="
  257.204,86.1857 2352.76,86.1857 
  "/>
<polyline clip-path="url(#clip810)" style="stroke:#000000; stroke-width:4; stroke-opacity:1; fill:none" points="
  257.204,1423.18 257.204,47.2441 
  "/>
<polyline clip-path="url(#clip810)" style="stroke:#000000; stroke-width:4; stroke-opacity:1; fill:none" points="
  257.204,1384.24 282.351,1384.24 
  "/>
<polyline clip-path="url(#clip810)" style="stroke:#000000; stroke-width:4; stroke-opacity:1; fill:none" points="
  257.204,1059.73 282.351,1059.73 
  "/>
<polyline clip-path="url(#clip810)" style="stroke:#000000; stroke-width:4; stroke-opacity:1; fill:none" points="
  257.204,735.212 282.351,735.212 
  "/>
<polyline clip-path="url(#clip810)" style="stroke:#000000; stroke-width:4; stroke-opacity:1; fill:none" points="
  257.204,410.699 282.351,410.699 
  "/>
<polyline clip-path="url(#clip810)" style="stroke:#000000; stroke-width:4; stroke-opacity:1; fill:none" points="
  257.204,86.1857 282.351,86.1857 
  "/>
<path clip-path="url(#clip810)" d="M 0 0 M114.26 1384.69 L143.936 1384.69 L143.936 1388.62 L114.26 1388.62 L114.26 1384.69 Z" fill="#000000" fill-rule="evenodd" fill-opacity="1" /><path clip-path="url(#clip810)" d="M 0 0 M154.839 1397.58 L162.477 1397.58 L162.477 1371.22 L154.167 1372.88 L154.167 1368.62 L162.431 1366.96 L167.107 1366.96 L167.107 1397.58 L174.746 1397.58 L174.746 1401.52 L154.839 1401.52 L154.839 1397.58 Z" fill="#000000" fill-rule="evenodd" fill-opacity="1" /><path clip-path="url(#clip810)" d="M 0 0 M184.19 1395.64 L189.075 1395.64 L189.075 1401.52 L184.19 1401.52 L184.19 1395.64 Z" fill="#000000" fill-rule="evenodd" fill-opacity="1" /><path clip-path="url(#clip810)" d="M 0 0 M209.26 1370.04 Q205.649 1370.04 203.82 1373.6 Q202.014 1377.14 202.014 1384.27 Q202.014 1391.38 203.82 1394.94 Q205.649 1398.49 209.26 1398.49 Q212.894 1398.49 214.699 1394.94 Q216.528 1391.38 216.528 1384.27 Q216.528 1377.14 214.699 1373.6 Q212.894 1370.04 209.26 1370.04 M209.26 1366.33 Q215.07 1366.33 218.125 1370.94 Q221.204 1375.52 221.204 1384.27 Q221.204 1393 218.125 1397.61 Q215.07 1402.19 209.26 1402.19 Q203.449 1402.19 200.371 1397.61 Q197.315 1393 197.315 1384.27 Q197.315 1375.52 200.371 1370.94 Q203.449 1366.33 209.26 1366.33 Z" fill="#000000" fill-rule="evenodd" fill-opacity="1" /><path clip-path="url(#clip810)" d="M 0 0 M115.256 1060.18 L144.931 1060.18 L144.931 1064.11 L115.256 1064.11 L115.256 1060.18 Z" fill="#000000" fill-rule="evenodd" fill-opacity="1" /><path clip-path="url(#clip810)" d="M 0 0 M165.024 1045.52 Q161.413 1045.52 159.584 1049.09 Q157.778 1052.63 157.778 1059.76 Q157.778 1066.87 159.584 1070.43 Q161.413 1073.97 165.024 1073.97 Q168.658 1073.97 170.464 1070.43 Q172.292 1066.87 172.292 1059.76 Q172.292 1052.63 170.464 1049.09 Q168.658 1045.52 165.024 1045.52 M165.024 1041.82 Q170.834 1041.82 173.889 1046.43 Q176.968 1051.01 176.968 1059.76 Q176.968 1068.49 173.889 1073.09 Q170.834 1077.68 165.024 1077.68 Q159.214 1077.68 156.135 1073.09 Q153.079 1068.49 153.079 1059.76 Q153.079 1051.01 156.135 1046.43 Q159.214 1041.82 165.024 1041.82 Z" fill="#000000" fill-rule="evenodd" fill-opacity="1" /><path clip-path="url(#clip810)" d="M 0 0 M185.186 1071.13 L190.07 1071.13 L190.07 1077.01 L185.186 1077.01 L185.186 1071.13 Z" fill="#000000" fill-rule="evenodd" fill-opacity="1" /><path clip-path="url(#clip810)" d="M 0 0 M200.301 1042.45 L218.658 1042.45 L218.658 1046.38 L204.584 1046.38 L204.584 1054.85 Q205.602 1054.51 206.621 1054.34 Q207.639 1054.16 208.658 1054.16 Q214.445 1054.16 217.824 1057.33 Q221.204 1060.5 221.204 1065.92 Q221.204 1071.5 217.732 1074.6 Q214.26 1077.68 207.94 1077.68 Q205.764 1077.68 203.496 1077.31 Q201.25 1076.94 198.843 1076.19 L198.843 1071.5 Q200.926 1072.63 203.149 1073.19 Q205.371 1073.74 207.848 1073.74 Q211.852 1073.74 214.19 1071.63 Q216.528 1069.53 216.528 1065.92 Q216.528 1062.31 214.19 1060.2 Q211.852 1058.09 207.848 1058.09 Q205.973 1058.09 204.098 1058.51 Q202.246 1058.93 200.301 1059.81 L200.301 1042.45 Z" fill="#000000" fill-rule="evenodd" fill-opacity="1" /><path clip-path="url(#clip810)" d="M 0 0 M164.028 721.011 Q160.417 721.011 158.589 724.575 Q156.783 728.117 156.783 735.247 Q156.783 742.353 158.589 745.918 Q160.417 749.46 164.028 749.46 Q167.663 749.46 169.468 745.918 Q171.297 742.353 171.297 735.247 Q171.297 728.117 169.468 724.575 Q167.663 721.011 164.028 721.011 M164.028 717.307 Q169.839 717.307 172.894 721.913 Q175.973 726.497 175.973 735.247 Q175.973 743.973 172.894 748.58 Q169.839 753.163 164.028 753.163 Q158.218 753.163 155.14 748.58 Q152.084 743.973 152.084 735.247 Q152.084 726.497 155.14 721.913 Q158.218 717.307 164.028 717.307 Z" fill="#000000" fill-rule="evenodd" fill-opacity="1" /><path clip-path="url(#clip810)" d="M 0 0 M184.19 746.612 L189.075 746.612 L189.075 752.492 L184.19 752.492 L184.19 746.612 Z" fill="#000000" fill-rule="evenodd" fill-opacity="1" /><path clip-path="url(#clip810)" d="M 0 0 M209.26 721.011 Q205.649 721.011 203.82 724.575 Q202.014 728.117 202.014 735.247 Q202.014 742.353 203.82 745.918 Q205.649 749.46 209.26 749.46 Q212.894 749.46 214.699 745.918 Q216.528 742.353 216.528 735.247 Q216.528 728.117 214.699 724.575 Q212.894 721.011 209.26 721.011 M209.26 717.307 Q215.07 717.307 218.125 721.913 Q221.204 726.497 221.204 735.247 Q221.204 743.973 218.125 748.58 Q215.07 753.163 209.26 753.163 Q203.449 753.163 200.371 748.58 Q197.315 743.973 197.315 735.247 Q197.315 726.497 200.371 721.913 Q203.449 717.307 209.26 717.307 Z" fill="#000000" fill-rule="evenodd" fill-opacity="1" /><path clip-path="url(#clip810)" d="M 0 0 M165.024 396.498 Q161.413 396.498 159.584 400.062 Q157.778 403.604 157.778 410.734 Q157.778 417.84 159.584 421.405 Q161.413 424.946 165.024 424.946 Q168.658 424.946 170.464 421.405 Q172.292 417.84 172.292 410.734 Q172.292 403.604 170.464 400.062 Q168.658 396.498 165.024 396.498 M165.024 392.794 Q170.834 392.794 173.889 397.4 Q176.968 401.984 176.968 410.734 Q176.968 419.46 173.889 424.067 Q170.834 428.65 165.024 428.65 Q159.214 428.65 156.135 424.067 Q153.079 419.46 153.079 410.734 Q153.079 401.984 156.135 397.4 Q159.214 392.794 165.024 392.794 Z" fill="#000000" fill-rule="evenodd" fill-opacity="1" /><path clip-path="url(#clip810)" d="M 0 0 M185.186 422.099 L190.07 422.099 L190.07 427.979 L185.186 427.979 L185.186 422.099 Z" fill="#000000" fill-rule="evenodd" fill-opacity="1" /><path clip-path="url(#clip810)" d="M 0 0 M200.301 393.419 L218.658 393.419 L218.658 397.354 L204.584 397.354 L204.584 405.826 Q205.602 405.479 206.621 405.317 Q207.639 405.132 208.658 405.132 Q214.445 405.132 217.824 408.303 Q221.204 411.474 221.204 416.891 Q221.204 422.47 217.732 425.571 Q214.26 428.65 207.94 428.65 Q205.764 428.65 203.496 428.28 Q201.25 427.909 198.843 427.169 L198.843 422.47 Q200.926 423.604 203.149 424.159 Q205.371 424.715 207.848 424.715 Q211.852 424.715 214.19 422.608 Q216.528 420.502 216.528 416.891 Q216.528 413.28 214.19 411.173 Q211.852 409.067 207.848 409.067 Q205.973 409.067 204.098 409.484 Q202.246 409.9 200.301 410.78 L200.301 393.419 Z" fill="#000000" fill-rule="evenodd" fill-opacity="1" /><path clip-path="url(#clip810)" d="M 0 0 M154.839 99.5305 L162.477 99.5305 L162.477 73.1649 L154.167 74.8316 L154.167 70.5723 L162.431 68.9057 L167.107 68.9057 L167.107 99.5305 L174.746 99.5305 L174.746 103.466 L154.839 103.466 L154.839 99.5305 Z" fill="#000000" fill-rule="evenodd" fill-opacity="1" /><path clip-path="url(#clip810)" d="M 0 0 M184.19 97.5861 L189.075 97.5861 L189.075 103.466 L184.19 103.466 L184.19 97.5861 Z" fill="#000000" fill-rule="evenodd" fill-opacity="1" /><path clip-path="url(#clip810)" d="M 0 0 M209.26 71.9844 Q205.649 71.9844 203.82 75.5492 Q202.014 79.0908 202.014 86.2204 Q202.014 93.3268 203.82 96.8916 Q205.649 100.433 209.26 100.433 Q212.894 100.433 214.699 96.8916 Q216.528 93.3268 216.528 86.2204 Q216.528 79.0908 214.699 75.5492 Q212.894 71.9844 209.26 71.9844 M209.26 68.2807 Q215.07 68.2807 218.125 72.8871 Q221.204 77.4704 221.204 86.2204 Q221.204 94.9472 218.125 99.5537 Q215.07 104.137 209.26 104.137 Q203.449 104.137 200.371 99.5537 Q197.315 94.9472 197.315 86.2204 Q197.315 77.4704 200.371 72.8871 Q203.449 68.2807 209.26 68.2807 Z" fill="#000000" fill-rule="evenodd" fill-opacity="1" /><path clip-path="url(#clip810)" d="M 0 0 M14.479 758.654 L19.3487 758.654 L19.3487 764.256 Q19.3487 767.407 20.6219 768.648 Q21.895 769.857 25.2052 769.857 L28.3562 769.857 L28.3562 760.213 L32.9077 760.213 L32.9077 769.857 L64.0042 769.857 L64.0042 775.746 L32.9077 775.746 L32.9077 781.347 L28.3562 781.347 L28.3562 775.746 L25.8736 775.746 Q19.9216 775.746 17.2162 772.977 Q14.479 770.207 14.479 764.192 L14.479 758.654 Z" fill="#000000" fill-rule="evenodd" fill-opacity="1" /><path clip-path="url(#clip810)" d="M 0 0 M14.5426 739.684 Q21.8632 743.949 29.0246 746.018 Q36.186 748.087 43.5384 748.087 Q50.8908 748.087 58.1159 746.018 Q65.3091 743.917 72.5979 739.684 L72.5979 744.776 Q65.1182 749.551 57.8931 751.938 Q50.668 754.293 43.5384 754.293 Q36.4406 754.293 29.2474 751.938 Q22.0542 749.583 14.5426 744.776 L14.5426 739.684 Z" fill="#000000" fill-rule="evenodd" fill-opacity="1" /><path clip-path="url(#clip810)" d="M 0 0 M18.2347 722.528 L28.3562 722.528 L28.3562 710.465 L32.9077 710.465 L32.9077 722.528 L52.2594 722.528 Q56.6199 722.528 57.8613 721.351 Q59.1026 720.141 59.1026 716.481 L59.1026 710.465 L64.0042 710.465 L64.0042 716.481 Q64.0042 723.26 61.4897 725.838 Q58.9434 728.417 52.2594 728.417 L32.9077 728.417 L32.9077 732.713 L28.3562 732.713 L28.3562 728.417 L18.2347 728.417 L18.2347 722.528 Z" fill="#000000" fill-rule="evenodd" fill-opacity="1" /><path clip-path="url(#clip810)" d="M 0 0 M14.5426 703.686 L14.5426 698.593 Q22.0542 693.819 29.2474 691.464 Q36.4406 689.077 43.5384 689.077 Q50.668 689.077 57.8931 691.464 Q65.1182 693.819 72.5979 698.593 L72.5979 703.686 Q65.3091 699.453 58.1159 697.384 Q50.8908 695.283 43.5384 695.283 Q36.186 695.283 29.0246 697.384 Q21.8632 699.453 14.5426 703.686 Z" fill="#000000" fill-rule="evenodd" fill-opacity="1" /><polyline clip-path="url(#clip812)" style="stroke:#008000; stroke-width:8; stroke-opacity:1; fill:none" points="
  425.247,735.212 433.838,735.212 442.43,735.212 521.869,735.212 601.308,735.212 625.178,735.212 649.047,735.212 655.015,735.212 660.982,735.212 663.966,735.212 
  666.95,735.212 669.934,735.212 672.917,735.212 673.663,735.212 674.409,735.212 675.155,735.212 675.901,735.212 676.647,86.1857 677.393,86.1857 678.139,86.1857 
  678.885,86.1857 680.377,86.1857 681.868,86.1857 683.36,86.1857 684.852,86.1857 690.82,86.1857 696.787,86.1857 706.878,86.1857 716.969,86.1857 727.059,86.1857 
  737.15,86.1857 757.332,86.1857 777.513,86.1857 865.205,86.1857 946.049,86.1857 1032.72,86.1857 1133.14,86.1857 1222.38,86.1857 1300.64,86.1857 1385.96,86.1857 
  1471.79,86.1857 1566.68,86.1857 1656.97,86.1857 1750.85,86.1857 1829.87,86.1857 1926.35,86.1857 2017.05,86.1857 2162.35,86.1857 2184.71,86.1857 
  "/>
<polyline clip-path="url(#clip812)" style="stroke:#0000ff; stroke-width:8; stroke-opacity:1; fill:none" points="
  372.463,735.212 390.677,735.212 559.088,735.212 660.295,735.212 745.865,735.212 838.818,735.212 924.513,735.212 1016.39,735.212 1122.83,735.212 1217.43,735.212 
  1300.38,735.212 1322.99,735.212 1345.6,735.212 1368.21,735.212 1390.82,735.212 1402.19,735.212 1413.56,735.212 1419.25,735.212 1424.93,735.212 1426.35,735.212 
  1427.78,735.212 1428.49,735.212 1429.2,735.212 1429.91,735.212 1430.62,735.212 1431.33,1384.24 1432.04,1384.24 1432.75,1384.24 1433.46,1384.24 1434.88,1384.24 
  1436.31,1384.24 1439.15,1384.24 1441.99,1384.24 1444.83,1384.24 1447.68,1384.24 1453.36,1384.24 1459.05,1384.24 1470.42,1384.24 1481.79,1384.24 1532.09,1384.24 
  1582.38,1384.24 1630.23,1384.24 1678.09,1384.24 1777.6,1384.24 1861.37,1384.24 1963.64,1384.24 2059.77,1384.24 2213.79,1384.24 2237.5,1384.24 
  "/>
<polyline clip-path="url(#clip812)" style="stroke:#ffa500; stroke-width:12; stroke-opacity:1; fill:none" stroke-dasharray="48, 30" points="
  316.512,735.212 326.165,735.212 335.818,735.212 425.076,735.212 514.334,735.212 567.974,735.212 621.614,735.212 632.952,735.212 644.29,735.212 649.959,735.212 
  655.628,735.212 661.297,735.212 666.966,735.212 669.801,735.212 672.636,735.212 673.344,735.212 674.053,735.212 674.761,735.212 675.47,735.212 676.179,735.212 
  676.887,86.1857 677.596,86.1857 678.305,86.1857 679.722,86.1857 681.139,86.1857 682.556,86.1857 683.974,86.1857 686.808,86.1857 689.643,86.1857 700.981,86.1857 
  712.319,86.1857 736.951,86.1857 761.584,86.1857 786.216,86.1857 810.849,86.1857 856.267,86.1857 901.685,86.1857 999.071,86.1857 1111.9,86.1857 1212.17,86.1857 
  1300.1,86.1857 1324.07,86.1857 1348.03,86.1857 1372,86.1857 1395.97,86.1857 1401.99,86.1857 1408.02,86.1857 1414.05,86.1857 1420.08,86.1857 1423.09,86.1857 
  1426.1,86.1857 1427.61,86.1857 1429.12,86.1857 1429.87,86.1857 1430.62,86.1857 1431.38,735.212 1432.13,735.212 1432.88,735.212 1433.64,735.212 1434.39,735.212 
  1435.14,735.212 1436.65,735.212 1438.16,735.212 1441.17,735.212 1444.19,735.212 1456.24,735.212 1468.29,735.212 1480.35,735.212 1492.4,735.212 1545.71,735.212 
  1599.02,735.212 1649.75,735.212 1700.47,735.212 1805.96,735.212 1894.75,735.212 2003.16,735.212 2105.06,735.212 2268.32,735.212 2293.45,735.212 
  "/>
<path clip-path="url(#clip810)" d="
M327.056 1377.32 L949.661 1377.32 L949.661 1135.4 L327.056 1135.4  Z
  " fill="#ffffff" fill-rule="evenodd" fill-opacity="1"/>
<polyline clip-path="url(#clip810)" style="stroke:#000000; stroke-width:4; stroke-opacity:1; fill:none" points="
  327.056,1377.32 949.661,1377.32 949.661,1135.4 327.056,1135.4 327.056,1377.32 
  "/>
<polyline clip-path="url(#clip810)" style="stroke:#008000; stroke-width:4; stroke-opacity:1; fill:none" points="
  350.34,1195.88 490.043,1195.88 
  "/>
<path clip-path="url(#clip810)" d="M 0 0 M513.327 1178.6 L535.179 1178.6 L535.179 1182.53 L518.003 1182.53 L518.003 1192.76 L534.461 1192.76 L534.461 1196.7 L518.003 1196.7 L518.003 1209.22 L535.595 1209.22 L535.595 1213.16 L513.327 1213.16 L513.327 1178.6 Z" fill="#000000" fill-rule="evenodd" fill-opacity="1" /><path clip-path="url(#clip810)" d="M 0 0 M559.623 1187.99 L559.623 1192.02 Q557.818 1191.1 555.873 1190.63 Q553.929 1190.17 551.845 1190.17 Q548.674 1190.17 547.077 1191.14 Q545.503 1192.11 545.503 1194.06 Q545.503 1195.54 546.637 1196.4 Q547.771 1197.23 551.197 1197.99 L552.656 1198.32 Q557.193 1199.29 559.091 1201.07 Q561.012 1202.83 561.012 1206 Q561.012 1209.61 558.142 1211.72 Q555.294 1213.83 550.294 1213.83 Q548.211 1213.83 545.943 1213.41 Q543.697 1213.02 541.197 1212.21 L541.197 1207.81 Q543.558 1209.03 545.85 1209.66 Q548.142 1210.26 550.387 1210.26 Q553.396 1210.26 555.017 1209.24 Q556.637 1208.2 556.637 1206.33 Q556.637 1204.59 555.456 1203.66 Q554.299 1202.74 550.341 1201.88 L548.859 1201.54 Q544.901 1200.7 543.142 1198.99 Q541.382 1197.25 541.382 1194.24 Q541.382 1190.59 543.975 1188.6 Q546.568 1186.6 551.336 1186.6 Q553.697 1186.6 555.781 1186.95 Q557.864 1187.3 559.623 1187.99 Z" fill="#000000" fill-rule="evenodd" fill-opacity="1" /><path clip-path="url(#clip810)" d="M 0 0 M586.452 1188.22 L586.452 1192.21 Q584.646 1191.21 582.817 1190.72 Q581.012 1190.22 579.16 1190.22 Q575.017 1190.22 572.725 1192.85 Q570.433 1195.47 570.433 1200.22 Q570.433 1204.96 572.725 1207.6 Q575.017 1210.22 579.16 1210.22 Q581.012 1210.22 582.817 1209.73 Q584.646 1209.22 586.452 1208.22 L586.452 1212.16 Q584.669 1212.99 582.748 1213.41 Q580.85 1213.83 578.697 1213.83 Q572.841 1213.83 569.392 1210.15 Q565.942 1206.47 565.942 1200.22 Q565.942 1193.87 569.415 1190.24 Q572.91 1186.6 578.975 1186.6 Q580.942 1186.6 582.817 1187.02 Q584.692 1187.41 586.452 1188.22 Z" fill="#000000" fill-rule="evenodd" fill-opacity="1" /><path clip-path="url(#clip810)" d="M 0 0 M605.641 1200.12 Q600.479 1200.12 598.489 1201.3 Q596.498 1202.48 596.498 1205.33 Q596.498 1207.6 597.979 1208.94 Q599.484 1210.26 602.053 1210.26 Q605.595 1210.26 607.725 1207.76 Q609.877 1205.24 609.877 1201.07 L609.877 1200.12 L605.641 1200.12 M614.137 1198.36 L614.137 1213.16 L609.877 1213.16 L609.877 1209.22 Q608.419 1211.58 606.243 1212.72 Q604.067 1213.83 600.919 1213.83 Q596.938 1213.83 594.577 1211.6 Q592.239 1209.36 592.239 1205.61 Q592.239 1201.23 595.155 1199.01 Q598.095 1196.79 603.905 1196.79 L609.877 1196.79 L609.877 1196.37 Q609.877 1193.43 607.933 1191.84 Q606.012 1190.22 602.516 1190.22 Q600.294 1190.22 598.188 1190.75 Q596.081 1191.28 594.137 1192.35 L594.137 1188.41 Q596.475 1187.51 598.674 1187.07 Q600.873 1186.6 602.956 1186.6 Q608.581 1186.6 611.359 1189.52 Q614.137 1192.44 614.137 1198.36 Z" fill="#000000" fill-rule="evenodd" fill-opacity="1" /><path clip-path="url(#clip810)" d="M 0 0 M622.91 1177.14 L627.169 1177.14 L627.169 1213.16 L622.91 1213.16 L622.91 1177.14 Z" fill="#000000" fill-rule="evenodd" fill-opacity="1" /><path clip-path="url(#clip810)" d="M 0 0 M646.127 1190.22 Q642.701 1190.22 640.711 1192.9 Q638.72 1195.56 638.72 1200.22 Q638.72 1204.87 640.687 1207.55 Q642.678 1210.22 646.127 1210.22 Q649.53 1210.22 651.521 1207.53 Q653.511 1204.85 653.511 1200.22 Q653.511 1195.61 651.521 1192.92 Q649.53 1190.22 646.127 1190.22 M646.127 1186.6 Q651.683 1186.6 654.854 1190.22 Q658.025 1193.83 658.025 1200.22 Q658.025 1206.58 654.854 1210.22 Q651.683 1213.83 646.127 1213.83 Q640.549 1213.83 637.377 1210.22 Q634.229 1206.58 634.229 1200.22 Q634.229 1193.83 637.377 1190.22 Q640.549 1186.6 646.127 1186.6 M649.345 1175.24 L653.951 1175.24 L646.405 1183.94 L642.863 1183.94 L649.345 1175.24 Z" fill="#000000" fill-rule="evenodd" fill-opacity="1" /><path clip-path="url(#clip810)" d="M 0 0 M686.636 1197.51 L686.636 1213.16 L682.377 1213.16 L682.377 1197.65 Q682.377 1193.97 680.942 1192.14 Q679.507 1190.31 676.636 1190.31 Q673.187 1190.31 671.197 1192.51 Q669.206 1194.71 669.206 1198.5 L669.206 1213.16 L664.923 1213.16 L664.923 1187.23 L669.206 1187.23 L669.206 1191.26 Q670.734 1188.92 672.794 1187.76 Q674.877 1186.6 677.585 1186.6 Q682.053 1186.6 684.345 1189.38 Q686.636 1192.14 686.636 1197.51 Z" fill="#000000" fill-rule="evenodd" fill-opacity="1" /><path clip-path="url(#clip810)" d="M 0 0 M721.983 1200.12 Q716.821 1200.12 714.831 1201.3 Q712.84 1202.48 712.84 1205.33 Q712.84 1207.6 714.321 1208.94 Q715.826 1210.26 718.395 1210.26 Q721.937 1210.26 724.067 1207.76 Q726.219 1205.24 726.219 1201.07 L726.219 1200.12 L721.983 1200.12 M730.479 1198.36 L730.479 1213.16 L726.219 1213.16 L726.219 1209.22 Q724.761 1211.58 722.585 1212.72 Q720.409 1213.83 717.261 1213.83 Q713.28 1213.83 710.919 1211.6 Q708.581 1209.36 708.581 1205.61 Q708.581 1201.23 711.497 1199.01 Q714.437 1196.79 720.247 1196.79 L726.219 1196.79 L726.219 1196.37 Q726.219 1193.43 724.275 1191.84 Q722.354 1190.22 718.858 1190.22 Q716.636 1190.22 714.53 1190.75 Q712.423 1191.28 710.479 1192.35 L710.479 1188.41 Q712.817 1187.51 715.016 1187.07 Q717.215 1186.6 719.298 1186.6 Q724.923 1186.6 727.701 1189.52 Q730.479 1192.44 730.479 1198.36 Z" fill="#000000" fill-rule="evenodd" fill-opacity="1" /><path clip-path="url(#clip810)" d="M 0 0 M739.252 1177.14 L743.511 1177.14 L743.511 1213.16 L739.252 1213.16 L739.252 1177.14 Z" fill="#000000" fill-rule="evenodd" fill-opacity="1" /><path clip-path="url(#clip810)" d="M 0 0 M756.636 1179.87 L756.636 1187.23 L765.409 1187.23 L765.409 1190.54 L756.636 1190.54 L756.636 1204.61 Q756.636 1207.78 757.492 1208.69 Q758.372 1209.59 761.034 1209.59 L765.409 1209.59 L765.409 1213.16 L761.034 1213.16 Q756.104 1213.16 754.229 1211.33 Q752.354 1209.47 752.354 1204.61 L752.354 1190.54 L749.229 1190.54 L749.229 1187.23 L752.354 1187.23 L752.354 1179.87 L756.636 1179.87 Z" fill="#000000" fill-rule="evenodd" fill-opacity="1" /><path clip-path="url(#clip810)" d="M 0 0 M770.571 1202.92 L770.571 1187.23 L774.83 1187.23 L774.83 1202.76 Q774.83 1206.44 776.265 1208.29 Q777.701 1210.12 780.571 1210.12 Q784.02 1210.12 786.011 1207.92 Q788.025 1205.72 788.025 1201.93 L788.025 1187.23 L792.284 1187.23 L792.284 1213.16 L788.025 1213.16 L788.025 1209.17 Q786.474 1211.53 784.414 1212.69 Q782.377 1213.83 779.668 1213.83 Q775.201 1213.83 772.886 1211.05 Q770.571 1208.27 770.571 1202.92 M781.289 1186.6 L781.289 1186.6 Z" fill="#000000" fill-rule="evenodd" fill-opacity="1" /><path clip-path="url(#clip810)" d="M 0 0 M816.08 1191.21 Q815.362 1190.79 814.506 1190.61 Q813.673 1190.4 812.654 1190.4 Q809.043 1190.4 807.099 1192.76 Q805.177 1195.1 805.177 1199.5 L805.177 1213.16 L800.895 1213.16 L800.895 1187.23 L805.177 1187.23 L805.177 1191.26 Q806.52 1188.9 808.673 1187.76 Q810.825 1186.6 813.904 1186.6 Q814.344 1186.6 814.876 1186.67 Q815.409 1186.72 816.057 1186.84 L816.08 1191.21 Z" fill="#000000" fill-rule="evenodd" fill-opacity="1" /><path clip-path="url(#clip810)" d="M 0 0 M832.33 1200.12 Q827.168 1200.12 825.177 1201.3 Q823.186 1202.48 823.186 1205.33 Q823.186 1207.6 824.668 1208.94 Q826.173 1210.26 828.742 1210.26 Q832.284 1210.26 834.413 1207.76 Q836.566 1205.24 836.566 1201.07 L836.566 1200.12 L832.33 1200.12 M840.825 1198.36 L840.825 1213.16 L836.566 1213.16 L836.566 1209.22 Q835.108 1211.58 832.932 1212.72 Q830.756 1213.83 827.608 1213.83 Q823.626 1213.83 821.265 1211.6 Q818.927 1209.36 818.927 1205.61 Q818.927 1201.23 821.844 1199.01 Q824.784 1196.79 830.594 1196.79 L836.566 1196.79 L836.566 1196.37 Q836.566 1193.43 834.622 1191.84 Q832.7 1190.22 829.205 1190.22 Q826.983 1190.22 824.876 1190.75 Q822.77 1191.28 820.825 1192.35 L820.825 1188.41 Q823.163 1187.51 825.362 1187.07 Q827.561 1186.6 829.645 1186.6 Q835.27 1186.6 838.048 1189.52 Q840.825 1192.44 840.825 1198.36 Z" fill="#000000" fill-rule="evenodd" fill-opacity="1" /><path clip-path="url(#clip810)" d="M 0 0 M866.08 1209.22 L873.719 1209.22 L873.719 1182.85 L865.408 1184.52 L865.408 1180.26 L873.672 1178.6 L878.348 1178.6 L878.348 1209.22 L885.987 1209.22 L885.987 1213.16 L866.08 1213.16 L866.08 1209.22 Z" fill="#000000" fill-rule="evenodd" fill-opacity="1" /><polyline clip-path="url(#clip810)" style="stroke:#0000ff; stroke-width:4; stroke-opacity:1; fill:none" points="
  350.34,1256.36 490.043,1256.36 
  "/>
<path clip-path="url(#clip810)" d="M 0 0 M513.327 1239.08 L535.179 1239.08 L535.179 1243.01 L518.003 1243.01 L518.003 1253.24 L534.461 1253.24 L534.461 1257.18 L518.003 1257.18 L518.003 1269.7 L535.595 1269.7 L535.595 1273.64 L513.327 1273.64 L513.327 1239.08 Z" fill="#000000" fill-rule="evenodd" fill-opacity="1" /><path clip-path="url(#clip810)" d="M 0 0 M559.623 1248.47 L559.623 1252.5 Q557.818 1251.58 555.873 1251.11 Q553.929 1250.65 551.845 1250.65 Q548.674 1250.65 547.077 1251.62 Q545.503 1252.59 545.503 1254.54 Q545.503 1256.02 546.637 1256.88 Q547.771 1257.71 551.197 1258.47 L552.656 1258.8 Q557.193 1259.77 559.091 1261.55 Q561.012 1263.31 561.012 1266.48 Q561.012 1270.09 558.142 1272.2 Q555.294 1274.31 550.294 1274.31 Q548.211 1274.31 545.943 1273.89 Q543.697 1273.5 541.197 1272.69 L541.197 1268.29 Q543.558 1269.51 545.85 1270.14 Q548.142 1270.74 550.387 1270.74 Q553.396 1270.74 555.017 1269.72 Q556.637 1268.68 556.637 1266.81 Q556.637 1265.07 555.456 1264.14 Q554.299 1263.22 550.341 1262.36 L548.859 1262.02 Q544.901 1261.18 543.142 1259.47 Q541.382 1257.73 541.382 1254.72 Q541.382 1251.07 543.975 1249.08 Q546.568 1247.08 551.336 1247.08 Q553.697 1247.08 555.781 1247.43 Q557.864 1247.78 559.623 1248.47 Z" fill="#000000" fill-rule="evenodd" fill-opacity="1" /><path clip-path="url(#clip810)" d="M 0 0 M586.452 1248.7 L586.452 1252.69 Q584.646 1251.69 582.817 1251.2 Q581.012 1250.7 579.16 1250.7 Q575.017 1250.7 572.725 1253.33 Q570.433 1255.95 570.433 1260.7 Q570.433 1265.44 572.725 1268.08 Q575.017 1270.7 579.16 1270.7 Q581.012 1270.7 582.817 1270.21 Q584.646 1269.7 586.452 1268.7 L586.452 1272.64 Q584.669 1273.47 582.748 1273.89 Q580.85 1274.31 578.697 1274.31 Q572.841 1274.31 569.392 1270.63 Q565.942 1266.95 565.942 1260.7 Q565.942 1254.35 569.415 1250.72 Q572.91 1247.08 578.975 1247.08 Q580.942 1247.08 582.817 1247.5 Q584.692 1247.89 586.452 1248.7 Z" fill="#000000" fill-rule="evenodd" fill-opacity="1" /><path clip-path="url(#clip810)" d="M 0 0 M605.641 1260.6 Q600.479 1260.6 598.489 1261.78 Q596.498 1262.96 596.498 1265.81 Q596.498 1268.08 597.979 1269.42 Q599.484 1270.74 602.053 1270.74 Q605.595 1270.74 607.725 1268.24 Q609.877 1265.72 609.877 1261.55 L609.877 1260.6 L605.641 1260.6 M614.137 1258.84 L614.137 1273.64 L609.877 1273.64 L609.877 1269.7 Q608.419 1272.06 606.243 1273.2 Q604.067 1274.31 600.919 1274.31 Q596.938 1274.31 594.577 1272.08 Q592.239 1269.84 592.239 1266.09 Q592.239 1261.71 595.155 1259.49 Q598.095 1257.27 603.905 1257.27 L609.877 1257.27 L609.877 1256.85 Q609.877 1253.91 607.933 1252.32 Q606.012 1250.7 602.516 1250.7 Q600.294 1250.7 598.188 1251.23 Q596.081 1251.76 594.137 1252.83 L594.137 1248.89 Q596.475 1247.99 598.674 1247.55 Q600.873 1247.08 602.956 1247.08 Q608.581 1247.08 611.359 1250 Q614.137 1252.92 614.137 1258.84 Z" fill="#000000" fill-rule="evenodd" fill-opacity="1" /><path clip-path="url(#clip810)" d="M 0 0 M622.91 1237.62 L627.169 1237.62 L627.169 1273.64 L622.91 1273.64 L622.91 1237.62 Z" fill="#000000" fill-rule="evenodd" fill-opacity="1" /><path clip-path="url(#clip810)" d="M 0 0 M646.127 1250.7 Q642.701 1250.7 640.711 1253.38 Q638.72 1256.04 638.72 1260.7 Q638.72 1265.35 640.687 1268.03 Q642.678 1270.7 646.127 1270.7 Q649.53 1270.7 651.521 1268.01 Q653.511 1265.33 653.511 1260.7 Q653.511 1256.09 651.521 1253.4 Q649.53 1250.7 646.127 1250.7 M646.127 1247.08 Q651.683 1247.08 654.854 1250.7 Q658.025 1254.31 658.025 1260.7 Q658.025 1267.06 654.854 1270.7 Q651.683 1274.31 646.127 1274.31 Q640.549 1274.31 637.377 1270.7 Q634.229 1267.06 634.229 1260.7 Q634.229 1254.31 637.377 1250.7 Q640.549 1247.08 646.127 1247.08 M649.345 1235.72 L653.951 1235.72 L646.405 1244.42 L642.863 1244.42 L649.345 1235.72 Z" fill="#000000" fill-rule="evenodd" fill-opacity="1" /><path clip-path="url(#clip810)" d="M 0 0 M686.636 1257.99 L686.636 1273.64 L682.377 1273.64 L682.377 1258.13 Q682.377 1254.45 680.942 1252.62 Q679.507 1250.79 676.636 1250.79 Q673.187 1250.79 671.197 1252.99 Q669.206 1255.19 669.206 1258.98 L669.206 1273.64 L664.923 1273.64 L664.923 1247.71 L669.206 1247.71 L669.206 1251.74 Q670.734 1249.4 672.794 1248.24 Q674.877 1247.08 677.585 1247.08 Q682.053 1247.08 684.345 1249.86 Q686.636 1252.62 686.636 1257.99 Z" fill="#000000" fill-rule="evenodd" fill-opacity="1" /><path clip-path="url(#clip810)" d="M 0 0 M721.983 1260.6 Q716.821 1260.6 714.831 1261.78 Q712.84 1262.96 712.84 1265.81 Q712.84 1268.08 714.321 1269.42 Q715.826 1270.74 718.395 1270.74 Q721.937 1270.74 724.067 1268.24 Q726.219 1265.72 726.219 1261.55 L726.219 1260.6 L721.983 1260.6 M730.479 1258.84 L730.479 1273.64 L726.219 1273.64 L726.219 1269.7 Q724.761 1272.06 722.585 1273.2 Q720.409 1274.31 717.261 1274.31 Q713.28 1274.31 710.919 1272.08 Q708.581 1269.84 708.581 1266.09 Q708.581 1261.71 711.497 1259.49 Q714.437 1257.27 720.247 1257.27 L726.219 1257.27 L726.219 1256.85 Q726.219 1253.91 724.275 1252.32 Q722.354 1250.7 718.858 1250.7 Q716.636 1250.7 714.53 1251.23 Q712.423 1251.76 710.479 1252.83 L710.479 1248.89 Q712.817 1247.99 715.016 1247.55 Q717.215 1247.08 719.298 1247.08 Q724.923 1247.08 727.701 1250 Q730.479 1252.92 730.479 1258.84 Z" fill="#000000" fill-rule="evenodd" fill-opacity="1" /><path clip-path="url(#clip810)" d="M 0 0 M739.252 1237.62 L743.511 1237.62 L743.511 1273.64 L739.252 1273.64 L739.252 1237.62 Z" fill="#000000" fill-rule="evenodd" fill-opacity="1" /><path clip-path="url(#clip810)" d="M 0 0 M756.636 1240.35 L756.636 1247.71 L765.409 1247.71 L765.409 1251.02 L756.636 1251.02 L756.636 1265.09 Q756.636 1268.26 757.492 1269.17 Q758.372 1270.07 761.034 1270.07 L765.409 1270.07 L765.409 1273.64 L761.034 1273.64 Q756.104 1273.64 754.229 1271.81 Q752.354 1269.95 752.354 1265.09 L752.354 1251.02 L749.229 1251.02 L749.229 1247.71 L752.354 1247.71 L752.354 1240.35 L756.636 1240.35 Z" fill="#000000" fill-rule="evenodd" fill-opacity="1" /><path clip-path="url(#clip810)" d="M 0 0 M770.571 1263.4 L770.571 1247.71 L774.83 1247.71 L774.83 1263.24 Q774.83 1266.92 776.265 1268.77 Q777.701 1270.6 780.571 1270.6 Q784.02 1270.6 786.011 1268.4 Q788.025 1266.2 788.025 1262.41 L788.025 1247.71 L792.284 1247.71 L792.284 1273.64 L788.025 1273.64 L788.025 1269.65 Q786.474 1272.01 784.414 1273.17 Q782.377 1274.31 779.668 1274.31 Q775.201 1274.31 772.886 1271.53 Q770.571 1268.75 770.571 1263.4 M781.289 1247.08 L781.289 1247.08 Z" fill="#000000" fill-rule="evenodd" fill-opacity="1" /><path clip-path="url(#clip810)" d="M 0 0 M816.08 1251.69 Q815.362 1251.27 814.506 1251.09 Q813.673 1250.88 812.654 1250.88 Q809.043 1250.88 807.099 1253.24 Q805.177 1255.58 805.177 1259.98 L805.177 1273.64 L800.895 1273.64 L800.895 1247.71 L805.177 1247.71 L805.177 1251.74 Q806.52 1249.38 808.673 1248.24 Q810.825 1247.08 813.904 1247.08 Q814.344 1247.08 814.876 1247.15 Q815.409 1247.2 816.057 1247.32 L816.08 1251.69 Z" fill="#000000" fill-rule="evenodd" fill-opacity="1" /><path clip-path="url(#clip810)" d="M 0 0 M832.33 1260.6 Q827.168 1260.6 825.177 1261.78 Q823.186 1262.96 823.186 1265.81 Q823.186 1268.08 824.668 1269.42 Q826.173 1270.74 828.742 1270.74 Q832.284 1270.74 834.413 1268.24 Q836.566 1265.72 836.566 1261.55 L836.566 1260.6 L832.33 1260.6 M840.825 1258.84 L840.825 1273.64 L836.566 1273.64 L836.566 1269.7 Q835.108 1272.06 832.932 1273.2 Q830.756 1274.31 827.608 1274.31 Q823.626 1274.31 821.265 1272.08 Q818.927 1269.84 818.927 1266.09 Q818.927 1261.71 821.844 1259.49 Q824.784 1257.27 830.594 1257.27 L836.566 1257.27 L836.566 1256.85 Q836.566 1253.91 834.622 1252.32 Q832.7 1250.7 829.205 1250.7 Q826.983 1250.7 824.876 1251.23 Q822.77 1251.76 820.825 1252.83 L820.825 1248.89 Q823.163 1247.99 825.362 1247.55 Q827.561 1247.08 829.645 1247.08 Q835.27 1247.08 838.048 1250 Q840.825 1252.92 840.825 1258.84 Z" fill="#000000" fill-rule="evenodd" fill-opacity="1" /><path clip-path="url(#clip810)" d="M 0 0 M862.515 1258.75 L874.992 1258.75 L874.992 1262.55 L862.515 1262.55 L862.515 1258.75 Z" fill="#000000" fill-rule="evenodd" fill-opacity="1" /><path clip-path="url(#clip810)" d="M 0 0 M883.186 1269.7 L890.825 1269.7 L890.825 1243.33 L882.515 1245 L882.515 1240.74 L890.779 1239.08 L895.455 1239.08 L895.455 1269.7 L903.093 1269.7 L903.093 1273.64 L883.186 1273.64 L883.186 1269.7 Z" fill="#000000" fill-rule="evenodd" fill-opacity="1" /><polyline clip-path="url(#clip810)" style="stroke:#ffa500; stroke-width:4; stroke-opacity:1; fill:none" stroke-dasharray="16, 10" points="
  350.34,1316.84 490.043,1316.84 
  "/>
<path clip-path="url(#clip810)" d="M 0 0 M518.003 1303.4 L518.003 1316.38 L523.883 1316.38 Q527.146 1316.38 528.929 1314.69 Q530.711 1313 530.711 1309.88 Q530.711 1306.78 528.929 1305.09 Q527.146 1303.4 523.883 1303.4 L518.003 1303.4 M513.327 1299.56 L523.883 1299.56 Q529.693 1299.56 532.656 1302.19 Q535.642 1304.81 535.642 1309.88 Q535.642 1315 532.656 1317.61 Q529.693 1320.23 523.883 1320.23 L518.003 1320.23 L518.003 1334.12 L513.327 1334.12 L513.327 1299.56 Z" fill="#000000" fill-rule="evenodd" fill-opacity="1" /><path clip-path="url(#clip810)" d="M 0 0 M540.457 1323.88 L540.457 1308.19 L544.716 1308.19 L544.716 1323.72 Q544.716 1327.4 546.151 1329.25 Q547.586 1331.08 550.456 1331.08 Q553.906 1331.08 555.896 1328.88 Q557.91 1326.68 557.91 1322.89 L557.91 1308.19 L562.169 1308.19 L562.169 1334.12 L557.91 1334.12 L557.91 1330.13 Q556.359 1332.49 554.299 1333.65 Q552.262 1334.79 549.554 1334.79 Q545.086 1334.79 542.771 1332.01 Q540.457 1329.23 540.457 1323.88 M551.174 1307.56 L551.174 1307.56 Z" fill="#000000" fill-rule="evenodd" fill-opacity="1" /><path clip-path="url(#clip810)" d="M 0 0 M570.942 1298.1 L575.202 1298.1 L575.202 1334.12 L570.942 1334.12 L570.942 1298.1 Z" fill="#000000" fill-rule="evenodd" fill-opacity="1" /><path clip-path="url(#clip810)" d="M 0 0 M600.641 1308.95 L600.641 1312.98 Q598.836 1312.06 596.891 1311.59 Q594.947 1311.13 592.864 1311.13 Q589.692 1311.13 588.095 1312.1 Q586.521 1313.07 586.521 1315.02 Q586.521 1316.5 587.655 1317.36 Q588.79 1318.19 592.216 1318.95 L593.674 1319.28 Q598.211 1320.25 600.109 1322.03 Q602.03 1323.79 602.03 1326.96 Q602.03 1330.57 599.16 1332.68 Q596.313 1334.79 591.313 1334.79 Q589.229 1334.79 586.961 1334.37 Q584.716 1333.98 582.216 1333.17 L582.216 1328.77 Q584.577 1329.99 586.868 1330.62 Q589.16 1331.22 591.405 1331.22 Q594.415 1331.22 596.035 1330.2 Q597.655 1329.16 597.655 1327.29 Q597.655 1325.55 596.475 1324.62 Q595.317 1323.7 591.359 1322.84 L589.878 1322.5 Q585.919 1321.66 584.16 1319.95 Q582.401 1318.21 582.401 1315.2 Q582.401 1311.55 584.993 1309.56 Q587.586 1307.56 592.354 1307.56 Q594.715 1307.56 596.799 1307.91 Q598.882 1308.26 600.641 1308.95 Z" fill="#000000" fill-rule="evenodd" fill-opacity="1" /><path clip-path="url(#clip810)" d="M 0 0 M618.859 1311.18 Q615.433 1311.18 613.442 1313.86 Q611.452 1316.52 611.452 1321.18 Q611.452 1325.83 613.419 1328.51 Q615.41 1331.18 618.859 1331.18 Q622.262 1331.18 624.252 1328.49 Q626.243 1325.81 626.243 1321.18 Q626.243 1316.57 624.252 1313.88 Q622.262 1311.18 618.859 1311.18 M618.859 1307.56 Q624.414 1307.56 627.586 1311.18 Q630.757 1314.79 630.757 1321.18 Q630.757 1327.54 627.586 1331.18 Q624.414 1334.79 618.859 1334.79 Q613.28 1334.79 610.109 1331.18 Q606.961 1327.54 606.961 1321.18 Q606.961 1314.79 610.109 1311.18 Q613.28 1307.56 618.859 1307.56 Z" fill="#000000" fill-rule="evenodd" fill-opacity="1" /></svg>