<?xml version="1.0" encoding="utf-8"?>
<svg xmlns="http://www.w3.org/2000/svg" xmlns:xlink="http://www.w3.org/1999/xlink" width="525" height="350" viewBox="0 0 2100 1400">
<defs>
  <clipPath id="clip920">
    <rect x="0" y="0" width="2100" height="1400"/>
  </clipPath>
</defs>
<path clip-path="url(#clip920)" d="
M0 1400 L2100 1400 L2100 0 L0 0  Z
  " fill="#ffffff" fill-rule="evenodd" fill-opacity="1"/>
<defs>
  <clipPath id="clip921">
    <rect x="420" y="0" width="1471" height="1400"/>
  </clipPath>
</defs>
<path clip-path="url(#clip920)" d="
M238.997 1234.53 L2058.66 1234.53 L2058.66 41.3386 L238.997 41.3386  Z
  " fill="#ffffff" fill-rule="evenodd" fill-opacity="1"/>
<defs>
  <clipPath id="clip922">
    <rect x="238" y="41" width="1821" height="1194"/>
  </clipPath>
</defs>
<polyline clip-path="url(#clip922)" style="stroke:#000000; stroke-width:1.75; stroke-opacity:0.1; fill:none" points="
  290.497,1234.53 290.497,41.3386 
  "/>
<polyline clip-path="url(#clip922)" style="stroke:#000000; stroke-width:1.75; stroke-opacity:0.1; fill:none" points="
  608.519,1234.53 608.519,41.3386 
  "/>
<polyline clip-path="url(#clip922)" style="stroke:#000000; stroke-width:1.75; stroke-opacity:0.1; fill:none" points="
  926.542,1234.53 926.542,41.3386 
  "/>
<polyline clip-path="url(#clip922)" style="stroke:#000000; stroke-width:1.75; stroke-opacity:0.1; fill:none" points="
  1244.56,1234.53 1244.56,41.3386 
  "/>
<polyline clip-path="url(#clip922)" style="stroke:#000000; stroke-width:1.75; stroke-opacity:0.1; fill:none" points="
  1562.59,1234.53 1562.59,41.3386 
  "/>
<polyline clip-path="url(#clip922)" style="stroke:#000000; stroke-width:1.75; stroke-opacity:0.1; fill:none" points="
  1880.61,1234.53 1880.61,41.3386 
  "/>
<polyline clip-path="url(#clip920)" style="stroke:#000000; stroke-width:3.5; stroke-opacity:1; fill:none" points="
  238.997,1234.53 2058.66,1234.53 
  "/>
<polyline clip-path="url(#clip920)" style="stroke:#000000; stroke-width:3.5; stroke-opacity:1; fill:none" points="
  290.497,1234.53 290.497,1220.22 
  "/>
<polyline clip-path="url(#clip920)" style="stroke:#000000; stroke-width:3.5; stroke-opacity:1; fill:none" points="
  608.519,1234.53 608.519,1220.22 
  "/>
<polyline clip-path="url(#clip920)" style="stroke:#000000; stroke-width:3.5; stroke-opacity:1; fill:none" points="
  926.542,1234.53 926.542,1220.22 
  "/>
<polyline clip-path="url(#clip920)" style="stroke:#000000; stroke-width:3.5; stroke-opacity:1; fill:none" points="
  1244.56,1234.53 1244.56,1220.22 
  "/>
<polyline clip-path="url(#clip920)" style="stroke:#000000; stroke-width:3.5; stroke-opacity:1; fill:none" points="
  1562.59,1234.53 1562.59,1220.22 
  "/>
<polyline clip-path="url(#clip920)" style="stroke:#000000; stroke-width:3.5; stroke-opacity:1; fill:none" points="
  1880.61,1234.53 1880.61,1220.22 
  "/>
<path clip-path="url(#clip920)" d="M 0 0 M237.539 1303.02 L244.223 1303.02 L244.223 1279.95 L236.951 1281.41 L236.951 1277.68 L244.182 1276.23 L248.274 1276.23 L248.274 1303.02 L254.958 1303.02 L254.958 1306.47 L237.539 1306.47 L237.539 1303.02 Z" fill="#000000" fill-rule="evenodd" fill-opacity="1" /><path clip-path="url(#clip920)" d="M 0 0 M268.143 1278.92 Q264.984 1278.92 263.384 1282.04 Q261.804 1285.14 261.804 1291.38 Q261.804 1297.59 263.384 1300.71 Q264.984 1303.81 268.143 1303.81 Q271.323 1303.81 272.903 1300.71 Q274.503 1297.59 274.503 1291.38 Q274.503 1285.14 272.903 1282.04 Q271.323 1278.92 268.143 1278.92 M268.143 1275.68 Q273.227 1275.68 275.901 1279.71 Q278.595 1283.72 278.595 1291.38 Q278.595 1299.01 275.901 1303.04 Q273.227 1307.05 268.143 1307.05 Q263.06 1307.05 260.366 1303.04 Q257.692 1299.01 257.692 1291.38 Q257.692 1283.72 260.366 1279.71 Q263.06 1275.68 268.143 1275.68 Z" fill="#000000" fill-rule="evenodd" fill-opacity="1" /><path clip-path="url(#clip920)" d="M 0 0 M278.595 1270.52 L299.692 1270.52 L299.692 1273.32 L278.595 1273.32 L278.595 1270.52 Z" fill="#000000" fill-rule="evenodd" fill-opacity="1" /><path clip-path="url(#clip920)" d="M 0 0 M306.16 1279.68 L317.762 1279.68 L317.762 1282.48 L302.161 1282.48 L302.161 1279.68 Q304.053 1277.73 307.312 1274.43 Q310.587 1271.13 311.426 1270.17 Q313.022 1268.38 313.648 1267.14 Q314.29 1265.89 314.29 1264.69 Q314.29 1262.73 312.907 1261.5 Q311.541 1260.27 309.336 1260.27 Q307.773 1260.27 306.028 1260.81 Q304.3 1261.35 302.325 1262.45 L302.325 1259.1 Q304.333 1258.29 306.078 1257.88 Q307.822 1257.47 309.27 1257.47 Q313.088 1257.47 315.359 1259.38 Q317.63 1261.29 317.63 1264.48 Q317.63 1265.99 317.054 1267.36 Q316.495 1268.71 314.997 1270.55 Q314.586 1271.03 312.381 1273.32 Q310.175 1275.59 306.16 1279.68 Z" fill="#000000" fill-rule="evenodd" fill-opacity="1" /><path clip-path="url(#clip920)" d="M 0 0 M321.366 1278.3 L324.838 1278.3 L324.838 1282.48 L321.366 1282.48 L321.366 1278.3 Z" fill="#000000" fill-rule="evenodd" fill-opacity="1" /><path clip-path="url(#clip920)" d="M 0 0 M335.552 1260.1 Q332.984 1260.1 331.684 1262.63 Q330.401 1265.15 330.401 1270.22 Q330.401 1275.27 331.684 1277.81 Q332.984 1280.33 335.552 1280.33 Q338.135 1280.33 339.419 1277.81 Q340.719 1275.27 340.719 1270.22 Q340.719 1265.15 339.419 1262.63 Q338.135 1260.1 335.552 1260.1 M335.552 1257.47 Q339.682 1257.47 341.855 1260.74 Q344.043 1264 344.043 1270.22 Q344.043 1276.43 341.855 1279.7 Q339.682 1282.96 335.552 1282.96 Q331.421 1282.96 329.232 1279.7 Q327.06 1276.43 327.06 1270.22 Q327.06 1264 329.232 1260.74 Q331.421 1257.47 335.552 1257.47 Z" fill="#000000" fill-rule="evenodd" fill-opacity="1" /><path clip-path="url(#clip920)" d="M 0 0 M555.783 1303.02 L562.467 1303.02 L562.467 1279.95 L555.196 1281.41 L555.196 1277.68 L562.427 1276.23 L566.518 1276.23 L566.518 1303.02 L573.202 1303.02 L573.202 1306.47 L555.783 1306.47 L555.783 1303.02 Z" fill="#000000" fill-rule="evenodd" fill-opacity="1" /><path clip-path="url(#clip920)" d="M 0 0 M586.388 1278.92 Q583.228 1278.92 581.628 1282.04 Q580.048 1285.14 580.048 1291.38 Q580.048 1297.59 581.628 1300.71 Q583.228 1303.81 586.388 1303.81 Q589.568 1303.81 591.147 1300.71 Q592.748 1297.59 592.748 1291.38 Q592.748 1285.14 591.147 1282.04 Q589.568 1278.92 586.388 1278.92 M586.388 1275.68 Q591.472 1275.68 594.145 1279.71 Q596.839 1283.72 596.839 1291.38 Q596.839 1299.01 594.145 1303.04 Q591.472 1307.05 586.388 1307.05 Q581.304 1307.05 578.61 1303.04 Q575.936 1299.01 575.936 1291.38 Q575.936 1283.72 578.61 1279.71 Q581.304 1275.68 586.388 1275.68 Z" fill="#000000" fill-rule="evenodd" fill-opacity="1" /><path clip-path="url(#clip920)" d="M 0 0 M596.839 1270.52 L617.937 1270.52 L617.937 1273.32 L596.839 1273.32 L596.839 1270.52 Z" fill="#000000" fill-rule="evenodd" fill-opacity="1" /><path clip-path="url(#clip920)" d="M 0 0 M622.117 1279.68 L627.547 1279.68 L627.547 1260.94 L621.639 1262.12 L621.639 1259.1 L627.514 1257.91 L630.839 1257.91 L630.839 1279.68 L636.269 1279.68 L636.269 1282.48 L622.117 1282.48 L622.117 1279.68 Z" fill="#000000" fill-rule="evenodd" fill-opacity="1" /><path clip-path="url(#clip920)" d="M 0 0 M639.873 1278.3 L643.346 1278.3 L643.346 1282.48 L639.873 1282.48 L639.873 1278.3 Z" fill="#000000" fill-rule="evenodd" fill-opacity="1" /><path clip-path="url(#clip920)" d="M 0 0 M646.983 1257.91 L660.033 1257.91 L660.033 1260.71 L650.027 1260.71 L650.027 1266.73 Q650.751 1266.49 651.476 1266.37 Q652.2 1266.24 652.924 1266.24 Q657.038 1266.24 659.441 1268.49 Q661.843 1270.75 661.843 1274.6 Q661.843 1278.57 659.375 1280.77 Q656.906 1282.96 652.414 1282.96 Q650.867 1282.96 649.254 1282.7 Q647.658 1282.43 645.946 1281.91 L645.946 1278.57 Q647.427 1279.37 649.007 1279.77 Q650.587 1280.16 652.348 1280.16 Q655.195 1280.16 656.857 1278.66 Q658.519 1277.17 658.519 1274.6 Q658.519 1272.03 656.857 1270.53 Q655.195 1269.04 652.348 1269.04 Q651.015 1269.04 649.682 1269.33 Q648.365 1269.63 646.983 1270.25 L646.983 1257.91 Z" fill="#000000" fill-rule="evenodd" fill-opacity="1" /><path clip-path="url(#clip920)" d="M 0 0 M873.451 1303.02 L880.135 1303.02 L880.135 1279.95 L872.864 1281.41 L872.864 1277.68 L880.095 1276.23 L884.186 1276.23 L884.186 1303.02 L890.87 1303.02 L890.87 1306.47 L873.451 1306.47 L873.451 1303.02 Z" fill="#000000" fill-rule="evenodd" fill-opacity="1" /><path clip-path="url(#clip920)" d="M 0 0 M904.056 1278.92 Q900.896 1278.92 899.296 1282.04 Q897.716 1285.14 897.716 1291.38 Q897.716 1297.59 899.296 1300.71 Q900.896 1303.81 904.056 1303.81 Q907.236 1303.81 908.816 1300.71 Q910.416 1297.59 910.416 1291.38 Q910.416 1285.14 908.816 1282.04 Q907.236 1278.92 904.056 1278.92 M904.056 1275.68 Q909.14 1275.68 911.813 1279.71 Q914.507 1283.72 914.507 1291.38 Q914.507 1299.01 911.813 1303.04 Q909.14 1307.05 904.056 1307.05 Q898.972 1307.05 896.278 1303.04 Q893.605 1299.01 893.605 1291.38 Q893.605 1283.72 896.278 1279.71 Q898.972 1275.68 904.056 1275.68 Z" fill="#000000" fill-rule="evenodd" fill-opacity="1" /><path clip-path="url(#clip920)" d="M 0 0 M914.507 1270.52 L935.605 1270.52 L935.605 1273.32 L914.507 1273.32 L914.507 1270.52 Z" fill="#000000" fill-rule="evenodd" fill-opacity="1" /><path clip-path="url(#clip920)" d="M 0 0 M939.785 1279.68 L945.216 1279.68 L945.216 1260.94 L939.308 1262.12 L939.308 1259.1 L945.183 1257.91 L948.507 1257.91 L948.507 1279.68 L953.938 1279.68 L953.938 1282.48 L939.785 1282.48 L939.785 1279.68 Z" fill="#000000" fill-rule="evenodd" fill-opacity="1" /><path clip-path="url(#clip920)" d="M 0 0 M957.542 1278.3 L961.014 1278.3 L961.014 1282.48 L957.542 1282.48 L957.542 1278.3 Z" fill="#000000" fill-rule="evenodd" fill-opacity="1" /><path clip-path="url(#clip920)" d="M 0 0 M971.728 1260.1 Q969.16 1260.1 967.86 1262.63 Q966.577 1265.15 966.577 1270.22 Q966.577 1275.27 967.86 1277.81 Q969.16 1280.33 971.728 1280.33 Q974.311 1280.33 975.595 1277.81 Q976.895 1275.27 976.895 1270.22 Q976.895 1265.15 975.595 1262.63 Q974.311 1260.1 971.728 1260.1 M971.728 1257.47 Q975.858 1257.47 978.03 1260.74 Q980.219 1264 980.219 1270.22 Q980.219 1276.43 978.03 1279.7 Q975.858 1282.96 971.728 1282.96 Q967.597 1282.96 965.408 1279.7 Q963.236 1276.43 963.236 1270.22 Q963.236 1264 965.408 1260.74 Q967.597 1257.47 971.728 1257.47 Z" fill="#000000" fill-rule="evenodd" fill-opacity="1" /><path clip-path="url(#clip920)" d="M 0 0 M1191.39 1303.02 L1198.08 1303.02 L1198.08 1279.95 L1190.8 1281.41 L1190.8 1277.68 L1198.03 1276.23 L1202.13 1276.23 L1202.13 1303.02 L1208.81 1303.02 L1208.81 1306.47 L1191.39 1306.47 L1191.39 1303.02 Z" fill="#000000" fill-rule="evenodd" fill-opacity="1" /><path clip-path="url(#clip920)" d="M 0 0 M1222 1278.92 Q1218.84 1278.92 1217.24 1282.04 Q1215.66 1285.14 1215.66 1291.38 Q1215.66 1297.59 1217.24 1300.71 Q1218.84 1303.81 1222 1303.81 Q1225.18 1303.81 1226.76 1300.71 Q1228.36 1297.59 1228.36 1291.38 Q1228.36 1285.14 1226.76 1282.04 Q1225.18 1278.92 1222 1278.92 M1222 1275.68 Q1227.08 1275.68 1229.75 1279.71 Q1232.45 1283.72 1232.45 1291.38 Q1232.45 1299.01 1229.75 1303.04 Q1227.08 1307.05 1222 1307.05 Q1216.91 1307.05 1214.22 1303.04 Q1211.54 1299.01 1211.54 1291.38 Q1211.54 1283.72 1214.22 1279.71 Q1216.91 1275.68 1222 1275.68 Z" fill="#000000" fill-rule="evenodd" fill-opacity="1" /><path clip-path="url(#clip920)" d="M 0 0 M1232.45 1270.52 L1253.54 1270.52 L1253.54 1273.32 L1232.45 1273.32 L1232.45 1270.52 Z" fill="#000000" fill-rule="evenodd" fill-opacity="1" /><path clip-path="url(#clip920)" d="M 0 0 M1264.26 1260.1 Q1261.69 1260.1 1260.39 1262.63 Q1259.11 1265.15 1259.11 1270.22 Q1259.11 1275.27 1260.39 1277.81 Q1261.69 1280.33 1264.26 1280.33 Q1266.84 1280.33 1268.13 1277.81 Q1269.43 1275.27 1269.43 1270.22 Q1269.43 1265.15 1268.13 1262.63 Q1266.84 1260.1 1264.26 1260.1 M1264.26 1257.47 Q1268.39 1257.47 1270.56 1260.74 Q1272.75 1264 1272.75 1270.22 Q1272.75 1276.43 1270.56 1279.7 Q1268.39 1282.96 1264.26 1282.96 Q1260.13 1282.96 1257.94 1279.7 Q1255.77 1276.43 1255.77 1270.22 Q1255.77 1264 1257.94 1260.74 Q1260.13 1257.47 1264.26 1257.47 Z" fill="#000000" fill-rule="evenodd" fill-opacity="1" /><path clip-path="url(#clip920)" d="M 0 0 M1276.35 1278.3 L1279.83 1278.3 L1279.83 1282.48 L1276.35 1282.48 L1276.35 1278.3 Z" fill="#000000" fill-rule="evenodd" fill-opacity="1" /><path clip-path="url(#clip920)" d="M 0 0 M1283.46 1257.91 L1296.51 1257.91 L1296.51 1260.71 L1286.51 1260.71 L1286.51 1266.73 Q1287.23 1266.49 1287.96 1266.37 Q1288.68 1266.24 1289.4 1266.24 Q1293.52 1266.24 1295.92 1268.49 Q1298.32 1270.75 1298.32 1274.6 Q1298.32 1278.57 1295.86 1280.77 Q1293.39 1282.96 1288.89 1282.96 Q1287.35 1282.96 1285.73 1282.7 Q1284.14 1282.43 1282.43 1281.91 L1282.43 1278.57 Q1283.91 1279.37 1285.49 1279.77 Q1287.07 1280.16 1288.83 1280.16 Q1291.68 1280.16 1293.34 1278.66 Q1295 1277.17 1295 1274.6 Q1295 1272.03 1293.34 1270.53 Q1291.68 1269.04 1288.83 1269.04 Q1287.49 1269.04 1286.16 1269.33 Q1284.85 1269.63 1283.46 1270.25 L1283.46 1257.91 Z" fill="#000000" fill-rule="evenodd" fill-opacity="1" /><path clip-path="url(#clip920)" d="M 0 0 M1520.72 1303.02 L1527.4 1303.02 L1527.4 1279.95 L1520.13 1281.41 L1520.13 1277.68 L1527.36 1276.23 L1531.45 1276.23 L1531.45 1303.02 L1538.14 1303.02 L1538.14 1306.47 L1520.72 1306.47 L1520.72 1303.02 Z" fill="#000000" fill-rule="evenodd" fill-opacity="1" /><path clip-path="url(#clip920)" d="M 0 0 M1551.32 1278.92 Q1548.16 1278.92 1546.56 1282.04 Q1544.98 1285.14 1544.98 1291.38 Q1544.98 1297.59 1546.56 1300.71 Q1548.16 1303.81 1551.32 1303.81 Q1554.5 1303.81 1556.08 1300.71 Q1557.68 1297.59 1557.68 1291.38 Q1557.68 1285.14 1556.08 1282.04 Q1554.5 1278.92 1551.32 1278.92 M1551.32 1275.68 Q1556.41 1275.68 1559.08 1279.71 Q1561.77 1283.72 1561.77 1291.38 Q1561.77 1299.01 1559.08 1303.04 Q1556.41 1307.05 1551.32 1307.05 Q1546.24 1307.05 1543.55 1303.04 Q1540.87 1299.01 1540.87 1291.38 Q1540.87 1283.72 1543.55 1279.71 Q1546.24 1275.68 1551.32 1275.68 Z" fill="#000000" fill-rule="evenodd" fill-opacity="1" /><path clip-path="url(#clip920)" d="M 0 0 M1570.27 1260.1 Q1567.7 1260.1 1566.4 1262.63 Q1565.12 1265.15 1565.12 1270.22 Q1565.12 1275.27 1566.4 1277.81 Q1567.7 1280.33 1570.27 1280.33 Q1572.85 1280.33 1574.13 1277.81 Q1575.43 1275.27 1575.43 1270.22 Q1575.43 1265.15 1574.13 1262.63 Q1572.85 1260.1 1570.27 1260.1 M1570.27 1257.47 Q1574.4 1257.47 1576.57 1260.74 Q1578.76 1264 1578.76 1270.22 Q1578.76 1276.43 1576.57 1279.7 Q1574.4 1282.96 1570.27 1282.96 Q1566.14 1282.96 1563.95 1279.7 Q1561.77 1276.43 1561.77 1270.22 Q1561.77 1264 1563.95 1260.74 Q1566.14 1257.47 1570.27 1257.47 Z" fill="#000000" fill-rule="evenodd" fill-opacity="1" /><path clip-path="url(#clip920)" d="M 0 0 M1582.36 1278.3 L1585.83 1278.3 L1585.83 1282.48 L1582.36 1282.48 L1582.36 1278.3 Z" fill="#000000" fill-rule="evenodd" fill-opacity="1" /><path clip-path="url(#clip920)" d="M 0 0 M1596.55 1260.1 Q1593.98 1260.1 1592.68 1262.63 Q1591.4 1265.15 1591.4 1270.22 Q1591.4 1275.27 1592.68 1277.81 Q1593.98 1280.33 1596.55 1280.33 Q1599.13 1280.33 1600.42 1277.81 Q1601.72 1275.27 1601.72 1270.22 Q1601.72 1265.15 1600.42 1262.63 Q1599.13 1260.1 1596.55 1260.1 M1596.55 1257.47 Q1600.68 1257.47 1602.85 1260.74 Q1605.04 1264 1605.04 1270.22 Q1605.04 1276.43 1602.85 1279.7 Q1600.68 1282.96 1596.55 1282.96 Q1592.42 1282.96 1590.23 1279.7 Q1588.06 1276.43 1588.06 1270.22 Q1588.06 1264 1590.23 1260.74 Q1592.42 1257.47 1596.55 1257.47 Z" fill="#000000" fill-rule="evenodd" fill-opacity="1" /><path clip-path="url(#clip920)" d="M 0 0 M1839.09 1303.02 L1845.78 1303.02 L1845.78 1279.95 L1838.51 1281.41 L1838.51 1277.68 L1845.74 1276.23 L1849.83 1276.23 L1849.83 1303.02 L1856.51 1303.02 L1856.51 1306.47 L1839.09 1306.47 L1839.09 1303.02 Z" fill="#000000" fill-rule="evenodd" fill-opacity="1" /><path clip-path="url(#clip920)" d="M 0 0 M1869.7 1278.92 Q1866.54 1278.92 1864.94 1282.04 Q1863.36 1285.14 1863.36 1291.38 Q1863.36 1297.59 1864.94 1300.71 Q1866.54 1303.81 1869.7 1303.81 Q1872.88 1303.81 1874.46 1300.71 Q1876.06 1297.59 1876.06 1291.38 Q1876.06 1285.14 1874.46 1282.04 Q1872.88 1278.92 1869.7 1278.92 M1869.7 1275.68 Q1874.78 1275.68 1877.46 1279.71 Q1880.15 1283.72 1880.15 1291.38 Q1880.15 1299.01 1877.46 1303.04 Q1874.78 1307.05 1869.7 1307.05 Q1864.62 1307.05 1861.92 1303.04 Q1859.25 1299.01 1859.25 1291.38 Q1859.25 1283.72 1861.92 1279.71 Q1864.62 1275.68 1869.7 1275.68 Z" fill="#000000" fill-rule="evenodd" fill-opacity="1" /><path clip-path="url(#clip920)" d="M 0 0 M1888.64 1260.1 Q1886.08 1260.1 1884.78 1262.63 Q1883.49 1265.15 1883.49 1270.22 Q1883.49 1275.27 1884.78 1277.81 Q1886.08 1280.33 1888.64 1280.33 Q1891.23 1280.33 1892.51 1277.81 Q1893.81 1275.27 1893.81 1270.22 Q1893.81 1265.15 1892.51 1262.63 Q1891.23 1260.1 1888.64 1260.1 M1888.64 1257.47 Q1892.77 1257.47 1894.95 1260.74 Q1897.13 1264 1897.13 1270.22 Q1897.13 1276.43 1894.95 1279.7 Q1892.77 1282.96 1888.64 1282.96 Q1884.51 1282.96 1882.32 1279.7 Q1880.15 1276.43 1880.15 1270.22 Q1880.15 1264 1882.32 1260.74 Q1884.51 1257.47 1888.64 1257.47 Z" fill="#000000" fill-rule="evenodd" fill-opacity="1" /><path clip-path="url(#clip920)" d="M 0 0 M1900.74 1278.3 L1904.21 1278.3 L1904.21 1282.48 L1900.74 1282.48 L1900.74 1278.3 Z" fill="#000000" fill-rule="evenodd" fill-opacity="1" /><path clip-path="url(#clip920)" d="M 0 0 M1907.85 1257.91 L1920.9 1257.91 L1920.9 1260.71 L1910.89 1260.71 L1910.89 1266.73 Q1911.62 1266.49 1912.34 1266.37 Q1913.06 1266.24 1913.79 1266.24 Q1917.9 1266.24 1920.31 1268.49 Q1922.71 1270.75 1922.71 1274.6 Q1922.71 1278.57 1920.24 1280.77 Q1917.77 1282.96 1913.28 1282.96 Q1911.73 1282.96 1910.12 1282.7 Q1908.52 1282.43 1906.81 1281.91 L1906.81 1278.57 Q1908.29 1279.37 1909.87 1279.77 Q1911.45 1280.16 1913.21 1280.16 Q1916.06 1280.16 1917.72 1278.66 Q1919.38 1277.17 1919.38 1274.6 Q1919.38 1272.03 1917.72 1270.53 Q1916.06 1269.04 1913.21 1269.04 Q1911.88 1269.04 1910.55 1269.33 Q1909.23 1269.63 1907.85 1270.25 L1907.85 1257.91 Z" fill="#000000" fill-rule="evenodd" fill-opacity="1" /><path clip-path="url(#clip920)" d="M 0 0 M1130.7 1378.22 Q1119.14 1378.22 1119.14 1361.68 Q1119.14 1355.13 1123.46 1346.22 L1128.97 1346.22 Q1124.99 1355.13 1124.99 1361.82 Q1124.99 1373.88 1131.17 1373.88 Q1136.83 1373.88 1136.83 1358.89 L1141.56 1358.89 Q1141.56 1373.88 1147.21 1373.88 Q1153.4 1373.88 1153.4 1361.82 Q1153.4 1355.13 1149.41 1346.22 L1154.93 1346.22 Q1159.25 1355.13 1159.25 1361.68 Q1159.25 1378.22 1147.69 1378.22 Q1140.11 1378.22 1139.19 1369.89 Q1138.05 1378.22 1130.7 1378.22 Z" fill="#000000" fill-rule="evenodd" fill-opacity="1" /><path clip-path="url(#clip920)" d="M 0 0 M1166.71 1374.24 L1178.52 1374.24 L1178.52 1377.41 L1161.86 1377.41 L1161.86 1374.35 Q1162.81 1373.49 1164.56 1371.93 Q1174.15 1363.43 1174.15 1360.81 Q1174.15 1358.98 1172.7 1357.86 Q1171.25 1356.72 1168.88 1356.72 Q1167.43 1356.72 1165.73 1357.22 Q1164.04 1357.69 1162.03 1358.67 L1162.03 1355.24 Q1164.17 1354.46 1166.01 1354.07 Q1167.88 1353.68 1169.47 1353.68 Q1173.5 1353.68 1175.93 1355.52 Q1178.35 1357.36 1178.35 1360.37 Q1178.35 1364.24 1169.13 1372.15 Q1167.57 1373.49 1166.71 1374.24 Z" fill="#000000" fill-rule="evenodd" fill-opacity="1" /><polyline clip-path="url(#clip922)" style="stroke:#000000; stroke-width:1.75; stroke-opacity:0.1; fill:none" points="
  238.997,1075.21 2058.66,1075.21 
  "/>
<polyline clip-path="url(#clip922)" style="stroke:#000000; stroke-width:1.75; stroke-opacity:0.1; fill:none" points="
  238.997,866.68 2058.66,866.68 
  "/>
<polyline clip-path="url(#clip922)" style="stroke:#000000; stroke-width:1.75; stroke-opacity:0.1; fill:none" points="
  238.997,658.146 2058.66,658.146 
  "/>
<polyline clip-path="url(#clip922)" style="stroke:#000000; stroke-width:1.75; stroke-opacity:0.1; fill:none" points="
  238.997,449.611 2058.66,449.611 
  "/>
<polyline clip-path="url(#clip922)" style="stroke:#000000; stroke-width:1.75; stroke-opacity:0.1; fill:none" points="
  238.997,241.077 2058.66,241.077 
  "/>
<polyline clip-path="url(#clip920)" style="stroke:#000000; stroke-width:3.5; stroke-opacity:1; fill:none" points="
  238.997,1234.53 238.997,41.3386 
  "/>
<polyline clip-path="url(#clip920)" style="stroke:#000000; stroke-width:3.5; stroke-opacity:1; fill:none" points="
  238.997,1075.21 260.833,1075.21 
  "/>
<polyline clip-path="url(#clip920)" style="stroke:#000000; stroke-width:3.5; stroke-opacity:1; fill:none" points="
  238.997,866.68 260.833,866.68 
  "/>
<polyline clip-path="url(#clip920)" style="stroke:#000000; stroke-width:3.5; stroke-opacity:1; fill:none" points="
  238.997,658.146 260.833,658.146 
  "/>
<polyline clip-path="url(#clip920)" style="stroke:#000000; stroke-width:3.5; stroke-opacity:1; fill:none" points="
  238.997,449.611 260.833,449.611 
  "/>
<polyline clip-path="url(#clip920)" style="stroke:#000000; stroke-width:3.5; stroke-opacity:1; fill:none" points="
  238.997,241.077 260.833,241.077 
  "/>
<path clip-path="url(#clip920)" d="M 0 0 M100.73 1092.53 L107.414 1092.53 L107.414 1069.46 L100.142 1070.92 L100.142 1067.19 L107.373 1065.74 L111.464 1065.74 L111.464 1092.53 L118.148 1092.53 L118.148 1095.98 L100.73 1095.98 L100.73 1092.53 Z" fill="#000000" fill-rule="evenodd" fill-opacity="1" /><path clip-path="url(#clip920)" d="M 0 0 M131.334 1068.43 Q128.174 1068.43 126.574 1071.55 Q124.995 1074.65 124.995 1080.89 Q124.995 1087.1 126.574 1090.22 Q128.174 1093.32 131.334 1093.32 Q134.514 1093.32 136.094 1090.22 Q137.694 1087.1 137.694 1080.89 Q137.694 1074.65 136.094 1071.55 Q134.514 1068.43 131.334 1068.43 M131.334 1065.19 Q136.418 1065.19 139.092 1069.22 Q141.786 1073.23 141.786 1080.89 Q141.786 1088.52 139.092 1092.55 Q136.418 1096.56 131.334 1096.56 Q126.25 1096.56 123.556 1092.55 Q120.883 1088.52 120.883 1080.89 Q120.883 1073.23 123.556 1069.22 Q126.25 1065.19 131.334 1065.19 Z" fill="#000000" fill-rule="evenodd" fill-opacity="1" /><path clip-path="url(#clip920)" d="M 0 0 M141.786 1060.03 L162.883 1060.03 L162.883 1062.83 L141.786 1062.83 L141.786 1060.03 Z" fill="#000000" fill-rule="evenodd" fill-opacity="1" /><path clip-path="url(#clip920)" d="M 0 0 M167.063 1069.19 L172.494 1069.19 L172.494 1050.45 L166.586 1051.64 L166.586 1048.61 L172.461 1047.42 L175.785 1047.42 L175.785 1069.19 L181.216 1069.19 L181.216 1071.99 L167.063 1071.99 L167.063 1069.19 Z" fill="#000000" fill-rule="evenodd" fill-opacity="1" /><path clip-path="url(#clip920)" d="M 0 0 M184.82 1067.81 L188.292 1067.81 L188.292 1071.99 L184.82 1071.99 L184.82 1067.81 Z" fill="#000000" fill-rule="evenodd" fill-opacity="1" /><path clip-path="url(#clip920)" d="M 0 0 M199.006 1049.61 Q196.439 1049.61 195.138 1052.15 Q193.855 1054.66 193.855 1059.73 Q193.855 1064.78 195.138 1067.32 Q196.439 1069.84 199.006 1069.84 Q201.59 1069.84 202.873 1067.32 Q204.173 1064.78 204.173 1059.73 Q204.173 1054.66 202.873 1052.15 Q201.59 1049.61 199.006 1049.61 M199.006 1046.98 Q203.136 1046.98 205.309 1050.25 Q207.497 1053.51 207.497 1059.73 Q207.497 1065.94 205.309 1069.21 Q203.136 1072.47 199.006 1072.47 Q194.875 1072.47 192.686 1069.21 Q190.514 1065.94 190.514 1059.73 Q190.514 1053.51 192.686 1050.25 Q194.875 1046.98 199.006 1046.98 Z" fill="#000000" fill-rule="evenodd" fill-opacity="1" /><path clip-path="url(#clip920)" d="M 0 0 M100.565 883.999 L107.249 883.999 L107.249 860.929 L99.9776 862.387 L99.9776 858.66 L107.209 857.202 L111.3 857.202 L111.3 883.999 L117.984 883.999 L117.984 887.442 L100.565 887.442 L100.565 883.999 Z" fill="#000000" fill-rule="evenodd" fill-opacity="1" /><path clip-path="url(#clip920)" d="M 0 0 M131.17 859.896 Q128.01 859.896 126.41 863.015 Q124.83 866.114 124.83 872.352 Q124.83 878.57 126.41 881.689 Q128.01 884.788 131.17 884.788 Q134.35 884.788 135.929 881.689 Q137.53 878.57 137.53 872.352 Q137.53 866.114 135.929 863.015 Q134.35 859.896 131.17 859.896 M131.17 856.655 Q136.253 856.655 138.927 860.686 Q141.621 864.696 141.621 872.352 Q141.621 879.988 138.927 884.019 Q136.253 888.029 131.17 888.029 Q126.086 888.029 123.392 884.019 Q120.718 879.988 120.718 872.352 Q120.718 864.696 123.392 860.686 Q126.086 856.655 131.17 856.655 Z" fill="#000000" fill-rule="evenodd" fill-opacity="1" /><path clip-path="url(#clip920)" d="M 0 0 M141.621 851.494 L162.719 851.494 L162.719 854.291 L141.621 854.291 L141.621 851.494 Z" fill="#000000" fill-rule="evenodd" fill-opacity="1" /><path clip-path="url(#clip920)" d="M 0 0 M173.432 841.076 Q170.865 841.076 169.565 843.611 Q168.281 846.129 168.281 851.197 Q168.281 856.25 169.565 858.784 Q170.865 861.302 173.432 861.302 Q176.016 861.302 177.299 858.784 Q178.599 856.25 178.599 851.197 Q178.599 846.129 177.299 843.611 Q176.016 841.076 173.432 841.076 M173.432 838.443 Q177.563 838.443 179.735 841.718 Q181.924 844.977 181.924 851.197 Q181.924 857.402 179.735 860.676 Q177.563 863.935 173.432 863.935 Q169.301 863.935 167.113 860.676 Q164.94 857.402 164.94 851.197 Q164.94 844.977 167.113 841.718 Q169.301 838.443 173.432 838.443 Z" fill="#000000" fill-rule="evenodd" fill-opacity="1" /><path clip-path="url(#clip920)" d="M 0 0 M185.528 859.278 L189 859.278 L189 863.458 L185.528 863.458 L185.528 859.278 Z" fill="#000000" fill-rule="evenodd" fill-opacity="1" /><path clip-path="url(#clip920)" d="M 0 0 M192.637 838.888 L205.687 838.888 L205.687 841.685 L195.682 841.685 L195.682 847.709 Q196.406 847.462 197.13 847.346 Q197.854 847.215 198.578 847.215 Q202.692 847.215 205.095 849.469 Q207.497 851.724 207.497 855.575 Q207.497 859.541 205.029 861.746 Q202.56 863.935 198.068 863.935 Q196.521 863.935 194.908 863.672 Q193.312 863.408 191.6 862.882 L191.6 859.541 Q193.081 860.347 194.661 860.742 Q196.241 861.137 198.002 861.137 Q200.849 861.137 202.511 859.64 Q204.173 858.142 204.173 855.575 Q204.173 853.008 202.511 851.51 Q200.849 850.012 198.002 850.012 Q196.669 850.012 195.336 850.309 Q194.019 850.605 192.637 851.23 L192.637 838.888 Z" fill="#000000" fill-rule="evenodd" fill-opacity="1" /><path clip-path="url(#clip920)" d="M 0 0 M123.177 675.464 L129.861 675.464 L129.861 652.394 L122.589 653.852 L122.589 650.126 L129.82 648.667 L133.912 648.667 L133.912 675.464 L140.596 675.464 L140.596 678.907 L123.177 678.907 L123.177 675.464 Z" fill="#000000" fill-rule="evenodd" fill-opacity="1" /><path clip-path="url(#clip920)" d="M 0 0 M153.781 651.361 Q150.622 651.361 149.021 654.48 Q147.442 657.579 147.442 663.818 Q147.442 670.036 149.021 673.155 Q150.622 676.254 153.781 676.254 Q156.961 676.254 158.541 673.155 Q160.141 670.036 160.141 663.818 Q160.141 657.579 158.541 654.48 Q156.961 651.361 153.781 651.361 M153.781 648.12 Q158.865 648.12 161.539 652.151 Q164.233 656.161 164.233 663.818 Q164.233 671.454 161.539 675.484 Q158.865 679.495 153.781 679.495 Q148.697 679.495 146.004 675.484 Q143.33 671.454 143.33 663.818 Q143.33 656.161 146.004 652.151 Q148.697 648.12 153.781 648.12 Z" fill="#000000" fill-rule="evenodd" fill-opacity="1" /><path clip-path="url(#clip920)" d="M 0 0 M172.724 632.542 Q170.157 632.542 168.857 635.076 Q167.573 637.594 167.573 642.663 Q167.573 647.715 168.857 650.249 Q170.157 652.767 172.724 652.767 Q175.308 652.767 176.592 650.249 Q177.892 647.715 177.892 642.663 Q177.892 637.594 176.592 635.076 Q175.308 632.542 172.724 632.542 M172.724 629.909 Q176.855 629.909 179.027 633.184 Q181.216 636.442 181.216 642.663 Q181.216 648.867 179.027 652.142 Q176.855 655.4 172.724 655.4 Q168.594 655.4 166.405 652.142 Q164.233 648.867 164.233 642.663 Q164.233 636.442 166.405 633.184 Q168.594 629.909 172.724 629.909 Z" fill="#000000" fill-rule="evenodd" fill-opacity="1" /><path clip-path="url(#clip920)" d="M 0 0 M184.82 650.743 L188.292 650.743 L188.292 654.923 L184.82 654.923 L184.82 650.743 Z" fill="#000000" fill-rule="evenodd" fill-opacity="1" /><path clip-path="url(#clip920)" d="M 0 0 M199.006 632.542 Q196.439 632.542 195.138 635.076 Q193.855 637.594 193.855 642.663 Q193.855 647.715 195.138 650.249 Q196.439 652.767 199.006 652.767 Q201.59 652.767 202.873 650.249 Q204.173 647.715 204.173 642.663 Q204.173 637.594 202.873 635.076 Q201.59 632.542 199.006 632.542 M199.006 629.909 Q203.136 629.909 205.309 633.184 Q207.497 636.442 207.497 642.663 Q207.497 648.867 205.309 652.142 Q203.136 655.4 199.006 655.4 Q194.875 655.4 192.686 652.142 Q190.514 648.867 190.514 642.663 Q190.514 636.442 192.686 633.184 Q194.875 629.909 199.006 629.909 Z" fill="#000000" fill-rule="evenodd" fill-opacity="1" /><path clip-path="url(#clip920)" d="M 0 0 M123.884 466.93 L130.568 466.93 L130.568 443.86 L123.297 445.318 L123.297 441.591 L130.528 440.133 L134.619 440.133 L134.619 466.93 L141.303 466.93 L141.303 470.373 L123.884 470.373 L123.884 466.93 Z" fill="#000000" fill-rule="evenodd" fill-opacity="1" /><path clip-path="url(#clip920)" d="M 0 0 M154.489 442.827 Q151.329 442.827 149.729 445.946 Q148.149 449.045 148.149 455.283 Q148.149 461.501 149.729 464.621 Q151.329 467.719 154.489 467.719 Q157.669 467.719 159.249 464.621 Q160.849 461.501 160.849 455.283 Q160.849 449.045 159.249 445.946 Q157.669 442.827 154.489 442.827 M154.489 439.586 Q159.573 439.586 162.246 443.617 Q164.94 447.627 164.94 455.283 Q164.94 462.919 162.246 466.95 Q159.573 470.96 154.489 470.96 Q149.405 470.96 146.711 466.95 Q144.038 462.919 144.038 455.283 Q144.038 447.627 146.711 443.617 Q149.405 439.586 154.489 439.586 Z" fill="#000000" fill-rule="evenodd" fill-opacity="1" /><path clip-path="url(#clip920)" d="M 0 0 M173.432 424.007 Q170.865 424.007 169.565 426.542 Q168.281 429.06 168.281 434.128 Q168.281 439.181 169.565 441.715 Q170.865 444.233 173.432 444.233 Q176.016 444.233 177.299 441.715 Q178.599 439.181 178.599 434.128 Q178.599 429.06 177.299 426.542 Q176.016 424.007 173.432 424.007 M173.432 421.374 Q177.563 421.374 179.735 424.649 Q181.924 427.908 181.924 434.128 Q181.924 440.333 179.735 443.608 Q177.563 446.866 173.432 446.866 Q169.301 446.866 167.113 443.608 Q164.94 440.333 164.94 434.128 Q164.94 427.908 167.113 424.649 Q169.301 421.374 173.432 421.374 Z" fill="#000000" fill-rule="evenodd" fill-opacity="1" /><path clip-path="url(#clip920)" d="M 0 0 M185.528 442.209 L189 442.209 L189 446.389 L185.528 446.389 L185.528 442.209 Z" fill="#000000" fill-rule="evenodd" fill-opacity="1" /><path clip-path="url(#clip920)" d="M 0 0 M192.637 421.819 L205.687 421.819 L205.687 424.616 L195.682 424.616 L195.682 430.64 Q196.406 430.393 197.13 430.278 Q197.854 430.146 198.578 430.146 Q202.692 430.146 205.095 432.4 Q207.497 434.655 207.497 438.506 Q207.497 442.472 205.029 444.677 Q202.56 446.866 198.068 446.866 Q196.521 446.866 194.908 446.603 Q193.312 446.339 191.6 445.813 L191.6 442.472 Q193.081 443.278 194.661 443.673 Q196.241 444.068 198.002 444.068 Q200.849 444.068 202.511 442.571 Q204.173 441.073 204.173 438.506 Q204.173 435.939 202.511 434.441 Q200.849 432.944 198.002 432.944 Q196.669 432.944 195.336 433.24 Q194.019 433.536 192.637 434.161 L192.637 421.819 Z" fill="#000000" fill-rule="evenodd" fill-opacity="1" /><path clip-path="url(#clip920)" d="M 0 0 M125.53 258.395 L132.214 258.395 L132.214 235.325 L124.943 236.784 L124.943 233.057 L132.173 231.598 L136.265 231.598 L136.265 258.395 L142.949 258.395 L142.949 261.838 L125.53 261.838 L125.53 258.395 Z" fill="#000000" fill-rule="evenodd" fill-opacity="1" /><path clip-path="url(#clip920)" d="M 0 0 M156.135 234.292 Q152.975 234.292 151.375 237.411 Q149.795 240.51 149.795 246.749 Q149.795 252.967 151.375 256.086 Q152.975 259.185 156.135 259.185 Q159.315 259.185 160.894 256.086 Q162.494 252.967 162.494 246.749 Q162.494 240.51 160.894 237.411 Q159.315 234.292 156.135 234.292 M156.135 231.051 Q161.218 231.051 163.892 235.082 Q166.586 239.093 166.586 246.749 Q166.586 254.385 163.892 258.415 Q161.218 262.426 156.135 262.426 Q151.051 262.426 148.357 258.415 Q145.683 254.385 145.683 246.749 Q145.683 239.093 148.357 235.082 Q151.051 231.051 156.135 231.051 Z" fill="#000000" fill-rule="evenodd" fill-opacity="1" /><path clip-path="url(#clip920)" d="M 0 0 M167.063 235.057 L172.494 235.057 L172.494 216.312 L166.586 217.497 L166.586 214.469 L172.461 213.284 L175.785 213.284 L175.785 235.057 L181.216 235.057 L181.216 237.854 L167.063 237.854 L167.063 235.057 Z" fill="#000000" fill-rule="evenodd" fill-opacity="1" /><path clip-path="url(#clip920)" d="M 0 0 M184.82 233.674 L188.292 233.674 L188.292 237.854 L184.82 237.854 L184.82 233.674 Z" fill="#000000" fill-rule="evenodd" fill-opacity="1" /><path clip-path="url(#clip920)" d="M 0 0 M199.006 215.473 Q196.439 215.473 195.138 218.007 Q193.855 220.525 193.855 225.594 Q193.855 230.646 195.138 233.181 Q196.439 235.698 199.006 235.698 Q201.59 235.698 202.873 233.181 Q204.173 230.646 204.173 225.594 Q204.173 220.525 202.873 218.007 Q201.59 215.473 199.006 215.473 M199.006 212.84 Q203.136 212.84 205.309 216.115 Q207.497 219.373 207.497 225.594 Q207.497 231.798 205.309 235.073 Q203.136 238.331 199.006 238.331 Q194.875 238.331 192.686 235.073 Q190.514 231.798 190.514 225.594 Q190.514 219.373 192.686 216.115 Q194.875 212.84 199.006 212.84 Z" fill="#000000" fill-rule="evenodd" fill-opacity="1" /><path clip-path="url(#clip920)" d="M 0 0 M36.5087 662.166 Q37.1214 660.356 39.1266 658.657 Q41.1318 656.93 44.6409 655.204 L56.0036 649.494 L56.0036 655.538 L45.3371 660.857 Q41.1596 662.918 39.795 664.867 Q38.4303 666.789 38.4303 670.131 L38.4303 676.258 L56.0036 676.258 L56.0036 681.884 L14.4236 681.884 L14.4236 669.184 Q14.4236 662.055 17.4036 658.546 Q20.3835 655.036 26.3991 655.036 Q30.326 655.036 32.916 656.875 Q35.5061 658.685 36.5087 662.166 M19.0467 676.258 L33.8072 676.258 L33.8072 669.184 Q33.8072 665.118 31.9413 663.057 Q30.0475 660.968 26.3991 660.968 Q22.7508 660.968 20.9127 663.057 Q19.0467 665.118 19.0467 669.184 L19.0467 676.258 Z" fill="#000000" fill-rule="evenodd" fill-opacity="1" /><path clip-path="url(#clip920)" d="M 0 0 M19.9658 632.311 L40.6583 639.942 L40.6583 624.652 L19.9658 632.311 M14.4236 635.486 L14.4236 629.108 L56.0036 613.262 L56.0036 619.11 L45.3371 622.898 L45.3371 641.641 L56.0036 645.428 L56.0036 651.36 L14.4236 635.486 Z" fill="#000000" fill-rule="evenodd" fill-opacity="1" /><path clip-path="url(#clip920)" d="M 0 0 M52.8287 605.798 L52.8287 593.989 L56.0036 593.989 L56.0036 610.644 L52.9401 610.644 Q52.0768 609.697 50.5172 607.942 Q42.023 598.362 39.4051 598.362 Q37.567 598.362 36.453 599.81 Q35.3111 601.258 35.3111 603.625 Q35.3111 605.074 35.8124 606.772 Q36.2859 608.471 37.2606 610.477 L33.8351 610.477 Q33.0553 608.332 32.6654 606.494 Q32.2755 604.628 32.2755 603.041 Q32.2755 599.002 34.1136 596.579 Q35.9517 594.156 38.9595 594.156 Q42.8306 594.156 50.74 603.375 Q52.0768 604.934 52.8287 605.798 Z" fill="#000000" fill-rule="evenodd" fill-opacity="1" /><circle clip-path="url(#clip922)" cx="290.497" cy="366.627" r="12" fill="#009af9" fill-rule="evenodd" fill-opacity="1" stroke="#000000" stroke-opacity="1" stroke-width="2.8"/>
<circle clip-path="url(#clip922)" cx="735.073" cy="364.825" r="12" fill="#009af9" fill-rule="evenodd" fill-opacity="1" stroke="#000000" stroke-opacity="1" stroke-width="2.8"/>
<circle clip-path="url(#clip922)" cx="926.542" cy="359.523" r="12" fill="#009af9" fill-rule="evenodd" fill-opacity="1" stroke="#000000" stroke-opacity="1" stroke-width="2.8"/>
<circle clip-path="url(#clip922)" cx="1118.01" cy="335.729" r="12" fill="#009af9" fill-rule="evenodd" fill-opacity="1" stroke="#000000" stroke-opacity="1" stroke-width="2.8"/>
<circle clip-path="url(#clip922)" cx="1230.01" cy="288.889" r="12" fill="#009af9" fill-rule="evenodd" fill-opacity="1" stroke="#000000" stroke-opacity="1" stroke-width="2.8"/>
<circle clip-path="url(#clip922)" cx="1309.48" cy="197.926" r="12" fill="#009af9" fill-rule="evenodd" fill-opacity="1" stroke="#000000" stroke-opacity="1" stroke-width="2.8"/>
<circle clip-path="url(#clip922)" cx="1371.12" cy="75.1083" r="12" fill="#009af9" fill-rule="evenodd" fill-opacity="1" stroke="#000000" stroke-opacity="1" stroke-width="2.8"/>
<circle clip-path="url(#clip922)" cx="1421.48" cy="241.439" r="12" fill="#009af9" fill-rule="evenodd" fill-opacity="1" stroke="#000000" stroke-opacity="1" stroke-width="2.8"/>
<circle clip-path="url(#clip922)" cx="1464.06" cy="366.627" r="12" fill="#009af9" fill-rule="evenodd" fill-opacity="1" stroke="#000000" stroke-opacity="1" stroke-width="2.8"/>
<circle clip-path="url(#clip922)" cx="1500.95" cy="444.655" r="12" fill="#009af9" fill-rule="evenodd" fill-opacity="1" stroke="#000000" stroke-opacity="1" stroke-width="2.8"/>
<circle clip-path="url(#clip922)" cx="1533.48" cy="515.332" r="12" fill="#009af9" fill-rule="evenodd" fill-opacity="1" stroke="#000000" stroke-opacity="1" stroke-width="2.8"/>
<circle clip-path="url(#clip922)" cx="1588.91" cy="612.022" r="12" fill="#009af9" fill-rule="evenodd" fill-opacity="1" stroke="#000000" stroke-opacity="1" stroke-width="2.8"/>
<circle clip-path="url(#clip922)" cx="1674.59" cy="744.733" r="12" fill="#009af9" fill-rule="evenodd" fill-opacity="1" stroke="#000000" stroke-opacity="1" stroke-width="2.8"/>
<circle clip-path="url(#clip922)" cx="1754.05" cy="858.959" r="12" fill="#009af9" fill-rule="evenodd" fill-opacity="1" stroke="#000000" stroke-opacity="1" stroke-width="2.8"/>
<circle clip-path="url(#clip922)" cx="2007.16" cy="1200.76" r="12" fill="#009af9" fill-rule="evenodd" fill-opacity="1" stroke="#000000" stroke-opacity="1" stroke-width="2.8"/>
</svg>