<?xml version="1.0" encoding="utf-8"?>
<svg xmlns="http://www.w3.org/2000/svg" xmlns:xlink="http://www.w3.org/1999/xlink" width="600" height="400" viewBox="0 0 2400 1600">
<defs>
  <clipPath id="clip840">
    <rect x="0" y="0" width="2400" height="1600"/>
  </clipPath>
</defs>
<path clip-path="url(#clip840)" d="
M0 1600 L2400 1600 L2400 0 L0 0  Z
  " fill="#ffffff" fill-rule="evenodd" fill-opacity="1"/>
<defs>
  <clipPath id="clip841">
    <rect x="480" y="0" width="1681" height="1600"/>
  </clipPath>
</defs>
<path clip-path="url(#clip840)" d="
M373.826 1447.86 L2352.76 1447.86 L2352.76 47.2441 L373.826 47.2441  Z
  " fill="#ffffff" fill-rule="evenodd" fill-opacity="1"/>
<defs>
  <clipPath id="clip842">
    <rect x="373" y="47" width="1980" height="1402"/>
  </clipPath>
</defs>
<polyline clip-path="url(#clip842)" style="stroke:#000000; stroke-width:2; stroke-opacity:0.6; fill:none" points="
  429.834,1447.86 429.834,47.2441 
  "/>
<polyline clip-path="url(#clip842)" style="stroke:#000000; stroke-width:2; stroke-opacity:0.6; fill:none" points="
  740.986,1447.86 740.986,47.2441 
  "/>
<polyline clip-path="url(#clip842)" style="stroke:#000000; stroke-width:2; stroke-opacity:0.6; fill:none" points="
  1052.14,1447.86 1052.14,47.2441 
  "/>
<polyline clip-path="url(#clip840)" style="stroke:#000000; stroke-width:4; stroke-opacity:1; fill:none" points="
  373.826,1447.86 2352.76,1447.86 
  "/>
<polyline clip-path="url(#clip840)" style="stroke:#000000; stroke-width:4; stroke-opacity:1; fill:none" points="
  429.834,1447.86 429.834,1431.05 
  "/>
<polyline clip-path="url(#clip840)" style="stroke:#000000; stroke-width:4; stroke-opacity:1; fill:none" points="
  740.986,1447.86 740.986,1431.05 
  "/>
<polyline clip-path="url(#clip840)" style="stroke:#000000; stroke-width:4; stroke-opacity:1; fill:none" points="
  1052.14,1447.86 1052.14,1431.05 
  "/>
<path clip-path="url(#clip840)" d="M 0 0 M417.959 1486.63 Q417.959 1479.58 419.739 1475.73 Q422.221 1470.02 428.077 1470.02 Q429.318 1470.02 430.607 1470.37 Q431.918 1470.7 433.558 1471.99 Q435.221 1473.27 436.228 1475.38 Q438.149 1479.46 438.149 1486.63 Q438.149 1493.63 436.369 1497.45 Q433.769 1503.02 428.03 1503.02 Q425.875 1503.02 423.674 1501.92 Q421.495 1500.82 420.113 1498.17 Q417.959 1494.21 417.959 1486.63 M421.94 1486.04 Q421.94 1493.28 422.456 1496.16 Q423.041 1499.27 424.634 1500.63 Q426.25 1501.97 428.03 1501.97 Q429.951 1501.97 431.544 1500.54 Q433.16 1499.09 433.652 1495.97 Q434.19 1492.9 434.167 1486.04 Q434.167 1479.36 433.698 1476.69 Q433.066 1473.58 431.38 1472.34 Q429.717 1471.07 428.03 1471.07 Q427.398 1471.07 426.719 1471.26 Q426.063 1471.45 425.102 1471.99 Q424.142 1472.53 423.393 1473.86 Q422.666 1475.2 422.315 1477.21 Q421.94 1479.81 421.94 1486.04 Z" fill="#000000" fill-rule="evenodd" fill-opacity="1" /><path clip-path="url(#clip840)" d="M 0 0 M735.396 1481.1 Q735.396 1481.75 735.092 1481.92 Q734.787 1482.06 733.944 1482.06 L729.447 1482.06 L725.887 1496.2 Q725.606 1497.45 725.606 1498.5 Q725.606 1499.67 725.957 1500.19 Q726.332 1500.7 727.105 1500.7 Q728.627 1500.7 730.267 1499.32 Q731.93 1497.94 733.335 1494.56 Q733.523 1494.12 733.616 1494.03 Q733.733 1493.91 734.038 1493.91 Q734.623 1493.91 734.623 1494.38 Q734.623 1494.54 734.296 1495.29 Q733.991 1496.04 733.312 1497.14 Q732.656 1498.24 731.789 1499.27 Q730.946 1500.3 729.658 1501.05 Q728.37 1501.78 726.988 1501.78 Q725.044 1501.78 723.802 1500.54 Q722.584 1499.3 722.584 1497.35 Q722.584 1496.72 723.076 1494.71 Q723.568 1492.67 726.238 1482.06 L721.999 1482.06 Q721.413 1482.06 721.179 1482.03 Q720.968 1482.01 720.804 1481.89 Q720.664 1481.75 720.664 1481.47 Q720.664 1481.03 720.851 1480.84 Q721.038 1480.63 721.273 1480.6 Q721.53 1480.56 722.116 1480.56 L726.613 1480.56 L728.487 1472.95 Q728.674 1472.2 729.143 1471.77 Q729.634 1471.33 729.916 1471.28 Q730.197 1471.21 730.407 1471.21 Q731.04 1471.21 731.415 1471.56 Q731.789 1471.89 731.789 1472.5 Q731.789 1472.83 729.822 1480.56 L734.038 1480.56 Q734.577 1480.56 734.787 1480.58 Q735.022 1480.6 735.209 1480.72 Q735.396 1480.84 735.396 1481.1 Z" fill="#000000" fill-rule="evenodd" fill-opacity="1" /><path clip-path="url(#clip840)" d="M 0 0 M756.348 1492.67 L751.511 1512.09 Q751.314 1512.96 751.314 1513.69 Q751.314 1515.23 752.314 1515.23 Q752.806 1515.23 753.2 1514.92 Q753.593 1514.61 753.905 1513.96 Q754.216 1513.3 754.413 1512.69 Q754.61 1512.07 754.872 1511.09 Q754.954 1510.69 755.02 1510.59 Q755.102 1510.48 755.331 1510.48 Q755.741 1510.48 755.741 1510.81 Q755.298 1512.92 754.724 1514.14 Q753.806 1515.99 752.249 1515.99 Q751.068 1515.99 750.232 1515.27 Q749.396 1514.55 749.199 1513.46 Q747.051 1515.99 744.821 1515.99 Q742.854 1515.99 741.608 1514.5 Q740.362 1512.99 740.362 1510.61 Q740.362 1508.22 741.542 1505.92 Q742.739 1503.63 744.625 1502.2 Q746.51 1500.77 748.445 1500.77 Q750.494 1500.77 751.544 1502.92 L753.56 1494.95 L753.659 1494.3 Q753.659 1494.1 753.577 1494 Q753.511 1493.89 753.118 1493.81 Q752.741 1493.72 751.986 1493.72 Q751.675 1493.72 751.527 1493.71 Q751.396 1493.69 751.281 1493.61 Q751.167 1493.51 751.167 1493.31 Q751.167 1492.74 751.642 1492.67 Q754.79 1492.31 755.905 1492.31 Q756.102 1492.31 756.216 1492.41 Q756.331 1492.49 756.331 1492.59 L756.348 1492.67 M751.134 1504.46 Q751.134 1504.32 751.019 1503.91 Q750.904 1503.5 750.642 1502.92 Q750.38 1502.35 749.806 1501.94 Q749.248 1501.51 748.494 1501.51 Q747.478 1501.51 746.412 1502.38 Q745.363 1503.25 744.592 1504.72 Q744.002 1505.91 743.362 1508.38 Q742.739 1510.86 742.739 1512.09 Q742.739 1512.84 742.903 1513.51 Q743.084 1514.17 743.592 1514.71 Q744.1 1515.23 744.887 1515.23 Q746.805 1515.23 748.691 1512.86 Q749.052 1512.45 749.134 1512.28 Q749.232 1512.1 749.363 1511.61 L751.035 1505.04 Q751.134 1504.54 751.134 1504.46 Z" fill="#000000" fill-rule="evenodd" fill-opacity="1" /><path clip-path="url(#clip840)" d="M 0 0 M1012.91 1481.71 Q1012.91 1483.35 1010.54 1483.35 L1002.48 1483.35 L999.274 1499.76 Q999.203 1500.19 999.11 1500.42 Q999.04 1500.65 998.829 1501.05 Q998.641 1501.43 998.243 1501.61 Q997.868 1501.83 997.306 1501.83 Q996.604 1501.83 996.252 1501.4 Q995.924 1501.01 995.924 1500.51 Q995.924 1500.21 996.393 1498.76 L1001.1 1483.35 L997.119 1483.35 Q993.371 1483.35 991.029 1487.05 Q990.654 1487.54 990.443 1487.58 Q990.35 1487.61 990.256 1487.61 Q989.998 1487.61 989.834 1487.49 Q989.694 1487.37 989.694 1487.26 L989.671 1487.14 Q989.671 1486.98 990.045 1486.32 Q990.443 1485.64 991.146 1484.63 Q991.872 1483.63 992.598 1482.83 Q993.559 1481.8 994.636 1481.26 Q995.714 1480.7 996.252 1480.63 Q996.814 1480.56 997.54 1480.56 L1010.98 1480.56 Q1011.59 1480.56 1011.92 1480.6 Q1012.25 1480.63 1012.58 1480.91 Q1012.91 1481.17 1012.91 1481.71 Z" fill="#000000" fill-rule="evenodd" fill-opacity="1" /><path clip-path="url(#clip840)" d="M 0 0 M1024.81 1489.83 Q1023.71 1489.83 1023.71 1489.25 Q1023.71 1488.66 1024.86 1488.66 Q1025 1488.66 1025.23 1488.69 Q1025.49 1488.71 1025.54 1488.71 L1039.05 1488.71 L1039.05 1475.15 Q1039.05 1475.1 1039.03 1474.89 Q1039 1474.66 1039 1474.52 Q1039 1473.37 1039.57 1473.37 Q1040.15 1473.37 1040.15 1474.52 L1040.15 1488.71 L1053.69 1488.71 Q1053.74 1488.71 1053.97 1488.69 Q1054.21 1488.66 1054.35 1488.66 Q1055.45 1488.66 1055.45 1489.25 Q1055.47 1489.83 1054.3 1489.83 Q1054.16 1489.83 1053.95 1489.81 Q1053.74 1489.79 1053.69 1489.79 L1040.15 1489.79 L1040.15 1504.03 Q1040.15 1505.13 1039.57 1505.13 Q1039 1505.13 1039 1503.98 Q1039 1503.84 1039.03 1503.61 Q1039.05 1503.39 1039.05 1503.35 L1039.05 1489.79 L1025.54 1489.79 Q1025.49 1489.79 1025.21 1489.81 Q1024.95 1489.83 1024.81 1489.83 Z" fill="#000000" fill-rule="evenodd" fill-opacity="1" /><path clip-path="url(#clip840)" d="M 0 0 M1088.69 1481.1 Q1088.69 1481.75 1088.39 1481.92 Q1088.09 1482.06 1087.24 1482.06 L1082.75 1482.06 L1079.19 1496.2 Q1078.9 1497.45 1078.9 1498.5 Q1078.9 1499.67 1079.26 1500.19 Q1079.63 1500.7 1080.4 1500.7 Q1081.93 1500.7 1083.57 1499.32 Q1085.23 1497.94 1086.63 1494.56 Q1086.82 1494.12 1086.91 1494.03 Q1087.03 1493.91 1087.34 1493.91 Q1087.92 1493.91 1087.92 1494.38 Q1087.92 1494.54 1087.59 1495.29 Q1087.29 1496.04 1086.61 1497.14 Q1085.95 1498.24 1085.09 1499.27 Q1084.24 1500.3 1082.96 1501.05 Q1081.67 1501.78 1080.29 1501.78 Q1078.34 1501.78 1077.1 1500.54 Q1075.88 1499.3 1075.88 1497.35 Q1075.88 1496.72 1076.37 1494.71 Q1076.87 1492.67 1079.54 1482.06 L1075.3 1482.06 Q1074.71 1482.06 1074.48 1482.03 Q1074.27 1482.01 1074.1 1481.89 Q1073.96 1481.75 1073.96 1481.47 Q1073.96 1481.03 1074.15 1480.84 Q1074.34 1480.63 1074.57 1480.6 Q1074.83 1480.56 1075.41 1480.56 L1079.91 1480.56 L1081.78 1472.95 Q1081.97 1472.2 1082.44 1471.77 Q1082.93 1471.33 1083.21 1471.28 Q1083.49 1471.21 1083.71 1471.21 Q1084.34 1471.21 1084.71 1471.56 Q1085.09 1471.89 1085.09 1472.5 Q1085.09 1472.83 1083.12 1480.56 L1087.34 1480.56 Q1087.87 1480.56 1088.09 1480.58 Q1088.32 1480.6 1088.51 1480.72 Q1088.69 1480.84 1088.69 1481.1 Z" fill="#000000" fill-rule="evenodd" fill-opacity="1" /><path clip-path="url(#clip840)" d="M 0 0 M1109.65 1492.67 L1104.81 1512.09 Q1104.61 1512.96 1104.61 1513.69 Q1104.61 1515.23 1105.61 1515.23 Q1106.1 1515.23 1106.5 1514.92 Q1106.89 1514.61 1107.2 1513.96 Q1107.51 1513.3 1107.71 1512.69 Q1107.91 1512.07 1108.17 1511.09 Q1108.25 1510.69 1108.32 1510.59 Q1108.4 1510.48 1108.63 1510.48 Q1109.04 1510.48 1109.04 1510.81 Q1108.6 1512.92 1108.02 1514.14 Q1107.1 1515.99 1105.55 1515.99 Q1104.37 1515.99 1103.53 1515.27 Q1102.69 1514.55 1102.5 1513.46 Q1100.35 1515.99 1098.12 1515.99 Q1096.15 1515.99 1094.91 1514.5 Q1093.66 1512.99 1093.66 1510.61 Q1093.66 1508.22 1094.84 1505.92 Q1096.04 1503.63 1097.92 1502.2 Q1099.81 1500.77 1101.74 1500.77 Q1103.79 1500.77 1104.84 1502.92 L1106.86 1494.95 L1106.96 1494.3 Q1106.96 1494.1 1106.87 1494 Q1106.81 1493.89 1106.42 1493.81 Q1106.04 1493.72 1105.28 1493.72 Q1104.97 1493.72 1104.83 1493.71 Q1104.69 1493.69 1104.58 1493.61 Q1104.46 1493.51 1104.46 1493.31 Q1104.46 1492.74 1104.94 1492.67 Q1108.09 1492.31 1109.2 1492.31 Q1109.4 1492.31 1109.51 1492.41 Q1109.63 1492.49 1109.63 1492.59 L1109.65 1492.67 M1104.43 1504.46 Q1104.43 1504.32 1104.32 1503.91 Q1104.2 1503.5 1103.94 1502.92 Q1103.68 1502.35 1103.1 1501.94 Q1102.55 1501.51 1101.79 1501.51 Q1100.78 1501.51 1099.71 1502.38 Q1098.66 1503.25 1097.89 1504.72 Q1097.3 1505.91 1096.66 1508.38 Q1096.04 1510.86 1096.04 1512.09 Q1096.04 1512.84 1096.2 1513.51 Q1096.38 1514.17 1096.89 1514.71 Q1097.4 1515.23 1098.19 1515.23 Q1100.1 1515.23 1101.99 1512.86 Q1102.35 1512.45 1102.43 1512.28 Q1102.53 1512.1 1102.66 1511.61 L1104.33 1505.04 Q1104.43 1504.54 1104.43 1504.46 Z" fill="#000000" fill-rule="evenodd" fill-opacity="1" /><path clip-path="url(#clip840)" d="M 0 0 M1371.76 1537.37 Q1371.76 1538.27 1371.34 1538.49 Q1370.92 1538.69 1369.77 1538.69 L1363.58 1538.69 L1358.69 1558.14 Q1358.3 1559.85 1358.3 1561.3 Q1358.3 1562.91 1358.78 1563.61 Q1359.3 1564.32 1360.36 1564.32 Q1362.45 1564.32 1364.71 1562.42 Q1367 1560.52 1368.93 1555.89 Q1369.19 1555.27 1369.31 1555.14 Q1369.48 1554.98 1369.89 1554.98 Q1370.7 1554.98 1370.7 1555.63 Q1370.7 1555.85 1370.25 1556.88 Q1369.83 1557.91 1368.9 1559.43 Q1367.99 1560.94 1366.8 1562.36 Q1365.64 1563.78 1363.87 1564.81 Q1362.1 1565.8 1360.2 1565.8 Q1357.53 1565.8 1355.82 1564.1 Q1354.15 1562.39 1354.15 1559.72 Q1354.15 1558.85 1354.82 1556.08 Q1355.5 1553.28 1359.17 1538.69 L1353.34 1538.69 Q1352.54 1538.69 1352.21 1538.66 Q1351.92 1538.62 1351.7 1538.46 Q1351.5 1538.27 1351.5 1537.88 Q1351.5 1537.27 1351.76 1537.01 Q1352.02 1536.72 1352.34 1536.69 Q1352.7 1536.63 1353.5 1536.63 L1359.68 1536.63 L1362.26 1526.16 Q1362.52 1525.13 1363.16 1524.55 Q1363.84 1523.94 1364.23 1523.87 Q1364.61 1523.78 1364.9 1523.78 Q1365.77 1523.78 1366.29 1524.26 Q1366.8 1524.71 1366.8 1525.55 Q1366.8 1526 1364.1 1536.63 L1369.89 1536.63 Q1370.63 1536.63 1370.92 1536.66 Q1371.25 1536.69 1371.5 1536.85 Q1371.76 1537.01 1371.76 1537.37 Z" fill="#000000" fill-rule="evenodd" fill-opacity="1" /><polyline clip-path="url(#clip842)" style="stroke:#000000; stroke-width:2; stroke-opacity:0.6; fill:none" points="
  373.826,572.976 2352.76,572.976 
  "/>
<polyline clip-path="url(#clip842)" style="stroke:#000000; stroke-width:2; stroke-opacity:0.6; fill:none" points="
  373.826,86.8841 2352.76,86.8841 
  "/>
<polyline clip-path="url(#clip840)" style="stroke:#000000; stroke-width:4; stroke-opacity:1; fill:none" points="
  373.826,1447.86 373.826,47.2441 
  "/>
<polyline clip-path="url(#clip840)" style="stroke:#000000; stroke-width:4; stroke-opacity:1; fill:none" points="
  373.826,572.976 397.573,572.976 
  "/>
<polyline clip-path="url(#clip840)" style="stroke:#000000; stroke-width:4; stroke-opacity:1; fill:none" points="
  373.826,86.8841 397.573,86.8841 
  "/>
<path clip-path="url(#clip840)" d="M 0 0 M103.345 572.792 Q103.345 559.739 108.212 549.213 Q110.287 544.799 113.192 541.102 Q116.097 537.405 118.021 535.782 Q119.945 534.16 120.473 534.16 Q121.227 534.16 121.265 534.915 Q121.265 535.292 120.247 536.235 Q107.797 548.911 107.834 572.792 Q107.834 596.749 119.945 608.935 Q121.265 610.255 121.265 610.67 Q121.265 611.425 120.473 611.425 Q119.945 611.425 118.096 609.878 Q116.248 608.331 113.38 604.785 Q110.513 601.238 108.438 596.9 Q103.345 586.374 103.345 572.792 Z" fill="#000000" fill-rule="evenodd" fill-opacity="1" /><path clip-path="url(#clip840)" d="M 0 0 M138.13 562.387 L138.13 560.888 Q143.892 560.888 146.866 557.82 Q147.686 557.82 147.827 558.007 Q147.967 558.195 147.967 559.061 L147.967 585.974 Q147.967 587.402 148.67 587.848 Q149.372 588.293 152.441 588.293 L153.963 588.293 L153.963 589.768 Q152.277 589.628 146.187 589.628 Q140.097 589.628 138.434 589.768 L138.434 588.293 L139.957 588.293 Q142.978 588.293 143.704 587.871 Q144.43 587.426 144.43 585.974 L144.43 561.123 Q141.924 562.387 138.13 562.387 Z" fill="#000000" fill-rule="evenodd" fill-opacity="1" /><path clip-path="url(#clip840)" d="M 0 0 M206.852 577.097 Q207.133 577.378 207.133 577.776 Q207.133 578.174 206.852 578.455 Q206.57 578.736 206.172 578.736 L176.145 578.736 Q175.747 578.736 175.465 578.455 Q175.184 578.174 175.184 577.776 Q175.184 577.378 175.465 577.097 Q175.747 576.816 176.145 576.816 L206.172 576.816 Q206.57 576.816 206.852 577.097 Z" fill="#000000" fill-rule="evenodd" fill-opacity="1" /><path clip-path="url(#clip840)" d="M 0 0 M238.676 538.985 L238.676 537.485 Q244.438 537.485 247.413 534.417 Q248.232 534.417 248.373 534.605 Q248.514 534.792 248.514 535.659 L248.514 562.571 Q248.514 564 249.216 564.445 Q249.919 564.89 252.987 564.89 L254.51 564.89 L254.51 566.365 Q252.823 566.225 246.733 566.225 Q240.644 566.225 238.981 566.365 L238.981 564.89 L240.503 564.89 Q243.525 564.89 244.251 564.468 Q244.977 564.023 244.977 562.571 L244.977 537.72 Q242.471 538.985 238.676 538.985 Z" fill="#000000" fill-rule="evenodd" fill-opacity="1" /><path clip-path="url(#clip840)" d="
M235.676 579.165 L261.879 579.165 L261.879 576.605 L235.676 576.605  Z
  " fill="#000000" fill-rule="evenodd" fill-opacity="1"/>
<path clip-path="url(#clip840)" d="M 0 0 M235.676 600.139 Q235.676 595.618 238.581 592.409 Q241.485 589.2 245.654 589.2 Q249.87 589.2 252.048 591.941 Q254.25 594.681 254.25 598.616 Q254.25 599.342 254.063 599.483 Q253.875 599.623 253.056 599.623 L239.658 599.623 Q239.658 604.519 241.11 606.814 Q243.124 610.023 246.521 610.023 Q246.989 610.023 247.551 609.929 Q248.113 609.836 249.261 609.437 Q250.409 609.016 251.416 607.915 Q252.423 606.814 253.009 605.081 Q253.149 604.402 253.618 604.425 Q254.25 604.425 254.25 604.987 Q254.25 605.409 253.782 606.369 Q253.337 607.306 252.47 608.43 Q251.603 609.555 249.917 610.398 Q248.254 611.241 246.24 611.241 Q242.024 611.241 238.838 608.055 Q235.676 604.847 235.676 600.139 M239.705 598.616 L251.088 598.616 Q251.088 597.609 250.901 596.485 Q250.737 595.361 250.221 593.815 Q249.73 592.245 248.558 591.262 Q247.387 590.278 245.654 590.278 Q244.881 590.278 244.038 590.606 Q243.218 590.934 242.211 591.73 Q241.204 592.526 240.501 594.33 Q239.798 596.133 239.705 598.616 Z" fill="#000000" fill-rule="evenodd" fill-opacity="1" /><path clip-path="url(#clip840)" d="M 0 0 M272.119 610.67 Q272.119 610.293 273.1 609.35 Q285.55 596.673 285.55 572.792 Q285.55 548.836 273.59 536.726 Q272.119 535.33 272.119 534.915 Q272.119 534.16 272.873 534.16 Q273.402 534.16 275.25 535.707 Q277.137 537.254 279.966 540.8 Q282.833 544.346 284.946 548.685 Q290.039 559.211 290.039 572.792 Q290.039 585.846 285.172 596.372 Q283.097 600.786 280.192 604.483 Q277.287 608.18 275.363 609.802 Q273.439 611.425 272.873 611.425 Q272.119 611.425 272.119 610.67 Z" fill="#000000" fill-rule="evenodd" fill-opacity="1" /><path clip-path="url(#clip840)" d="M 0 0 M336.027 563.629 Q336.027 565.807 334.528 567.774 Q333.053 569.719 330.804 570.96 Q328.555 572.178 326.002 572.646 Q329.446 573.045 331.436 574.918 Q333.451 576.792 333.451 579.415 Q333.451 581.172 332.42 583.023 Q331.413 584.849 329.68 586.348 Q327.97 587.848 325.44 588.808 Q322.934 589.768 320.194 589.768 L303.072 589.768 Q302.533 589.768 302.322 589.745 Q302.112 589.721 301.948 589.604 Q301.784 589.487 301.784 589.229 Q301.784 588.761 301.948 588.55 Q302.135 588.339 302.346 588.316 Q302.557 588.293 303.072 588.293 Q304.243 588.293 304.946 588.222 Q305.648 588.152 306.093 588.058 Q306.562 587.941 306.796 587.613 Q307.054 587.285 307.171 587.004 Q307.288 586.7 307.452 586.021 L313.87 560.256 Q314.057 559.483 314.057 559.366 Q314.057 558.921 313.776 558.804 Q313.518 558.663 312.769 558.593 L310.942 558.499 Q310.38 558.499 310.145 558.476 Q309.935 558.452 309.771 558.335 Q309.607 558.218 309.607 557.96 Q309.607 557.305 309.888 557.164 Q310.192 557 310.989 557 L327.103 557 Q331.249 557 333.638 558.921 Q336.027 560.818 336.027 563.629 M331.671 563.441 Q331.671 562.551 331.436 561.755 Q331.202 560.959 330.64 560.186 Q330.101 559.413 329.024 558.968 Q327.947 558.499 326.447 558.499 L320.241 558.499 Q318.718 558.499 318.343 558.78 Q317.992 559.038 317.664 560.326 L314.689 572.201 L321.693 572.201 Q323.824 572.201 325.698 571.428 Q327.595 570.655 328.883 569.414 Q330.172 568.149 330.921 566.58 Q331.671 565.011 331.671 563.441 M328.977 578.877 Q328.977 578.174 328.86 577.495 Q328.743 576.816 328.368 576.019 Q327.993 575.223 327.408 574.637 Q326.822 574.052 325.792 573.654 Q324.784 573.255 323.473 573.255 L314.408 573.255 L311.082 586.653 Q310.848 587.52 310.848 587.754 Q310.848 588.011 310.965 588.105 Q311.106 588.175 311.481 588.222 Q311.902 588.293 312.535 588.293 L319.046 588.293 Q321.107 588.293 322.981 587.496 Q324.855 586.676 326.143 585.365 Q327.455 584.053 328.204 582.343 Q328.977 580.633 328.977 578.877 Z" fill="#000000" fill-rule="evenodd" fill-opacity="1" /><path clip-path="url(#clip840)" d="M 0 0 M336.027 76.9712 Q336.027 79.1495 334.528 81.117 Q333.053 83.0611 330.804 84.3024 Q328.555 85.5204 326.002 85.9889 Q329.446 86.387 331.436 88.2608 Q333.451 90.1346 333.451 92.758 Q333.451 94.5146 332.42 96.365 Q331.413 98.192 329.68 99.691 Q327.97 101.19 325.44 102.15 Q322.934 103.111 320.194 103.111 L303.072 103.111 Q302.533 103.111 302.322 103.087 Q302.112 103.064 301.948 102.947 Q301.784 102.83 301.784 102.572 Q301.784 102.104 301.948 101.893 Q302.135 101.682 302.346 101.658 Q302.557 101.635 303.072 101.635 Q304.243 101.635 304.946 101.565 Q305.648 101.495 306.093 101.401 Q306.562 101.284 306.796 100.956 Q307.054 100.628 307.171 100.347 Q307.288 100.042 307.452 99.3631 L313.87 73.5984 Q314.057 72.8255 314.057 72.7083 Q314.057 72.2633 313.776 72.1462 Q313.518 72.0057 312.769 71.9354 L310.942 71.8417 Q310.38 71.8417 310.145 71.8183 Q309.935 71.7949 309.771 71.6778 Q309.607 71.5606 309.607 71.303 Q309.607 70.6472 309.888 70.5066 Q310.192 70.3427 310.989 70.3427 L327.103 70.3427 Q331.249 70.3427 333.638 72.2633 Q336.027 74.1605 336.027 76.9712 M331.671 76.7838 Q331.671 75.8938 331.436 75.0974 Q331.202 74.3011 330.64 73.5281 Q330.101 72.7552 329.024 72.3102 Q327.947 71.8417 326.447 71.8417 L320.241 71.8417 Q318.718 71.8417 318.343 72.1228 Q317.992 72.3804 317.664 73.6687 L314.689 85.5438 L321.693 85.5438 Q323.824 85.5438 325.698 84.7709 Q327.595 83.998 328.883 82.7566 Q330.172 81.4918 330.921 79.9225 Q331.671 78.3531 331.671 76.7838 M328.977 92.2192 Q328.977 91.5166 328.86 90.8373 Q328.743 90.1581 328.368 89.3617 Q327.993 88.5653 327.408 87.9798 Q326.822 87.3942 325.792 86.996 Q324.784 86.5978 323.473 86.5978 L314.408 86.5978 L311.082 99.9955 Q310.848 100.862 310.848 101.096 Q310.848 101.354 310.965 101.448 Q311.106 101.518 311.481 101.565 Q311.902 101.635 312.535 101.635 L319.046 101.635 Q321.107 101.635 322.981 100.839 Q324.855 100.019 326.143 98.7073 Q327.455 97.3956 328.204 95.6858 Q328.977 93.9759 328.977 92.2192 Z" fill="#000000" fill-rule="evenodd" fill-opacity="1" /><path clip-path="url(#clip840)" d="M 0 0 M20.1692 757.957 Q20.6201 757.957 21.6829 758.247 L46.8679 764.559 Q52.4717 765.944 56.4008 770.453 Q60.3299 774.93 60.3299 780.018 Q60.3299 783.078 58.6874 785.042 Q57.0772 787.007 54.5973 787.007 Q52.4073 787.007 51.3445 785.848 Q50.3139 784.688 50.3139 783.303 Q50.3139 782.852 50.4427 782.369 Q50.5716 781.886 51.1191 781.371 Q51.6666 780.856 52.6005 780.856 Q54.1142 780.856 55.3058 782.176 Q55.8533 782.82 55.9822 783.432 Q56.111 784.012 56.111 785.01 Q57.0127 784.624 57.6246 783.915 Q58.2366 783.207 58.462 782.402 Q58.7196 781.596 58.7841 781.081 Q58.8807 780.534 58.8807 780.018 Q58.8807 775.896 54.7261 772.74 Q53.4701 771.806 52.2141 771.129 Q50.9902 770.421 49.4766 769.906 Q47.9951 769.39 47.19 769.165 Q46.3848 768.907 44.5491 768.456 Q47.5442 771.452 47.5442 775.123 Q47.5442 776.669 47.1255 778.054 Q46.7069 779.406 45.8373 780.598 Q44.9355 781.79 43.3575 782.498 Q41.7794 783.174 39.686 783.174 Q37.4638 783.174 34.4364 782.305 Q31.4091 781.435 25.8375 779.342 Q22.7135 778.215 21.1998 778.215 Q20.4591 778.215 20.0082 778.376 Q19.5251 778.537 19.3641 778.859 Q19.1709 779.181 19.1386 779.374 Q19.1064 779.535 19.1064 779.857 Q19.1064 781.757 21.0388 783.529 Q22.9711 785.3 27.2867 786.524 Q28.0919 786.782 28.2851 786.943 Q28.4783 787.104 28.4783 787.587 Q28.4461 788.392 27.802 788.392 Q27.5444 788.392 26.546 788.102 Q25.5154 787.812 24.0017 787.136 Q22.4558 786.427 21.071 785.461 Q19.6539 784.495 18.6556 782.981 Q17.6572 781.435 17.6572 779.664 Q17.6572 777.249 19.2353 775.767 Q20.7811 774.253 23.0678 774.253 Q24.0017 774.253 24.8391 774.511 Q25.6442 774.737 27.802 775.574 Q36.4976 778.955 40.7488 778.955 Q41.7794 778.955 42.6489 778.794 Q43.4863 778.601 44.3236 778.183 Q45.1288 777.764 45.6119 776.927 Q46.0627 776.057 46.0627 774.865 Q46.0627 773.352 45.3542 771.935 Q44.6135 770.485 43.6151 769.584 Q42.6167 768.65 41.7794 768.102 Q40.9098 767.522 40.4589 767.394 L28.6072 764.431 L23.3254 763.11 Q20.4591 762.498 19.7506 762.208 Q19.0742 761.822 18.72 761.146 Q18.3657 760.469 18.3657 759.89 Q18.3657 759.084 18.8488 758.537 Q19.3319 757.957 20.1692 757.957 Z" fill="#000000" fill-rule="evenodd" fill-opacity="1" /><path clip-path="url(#clip840)" d="M 0 0 M65.7162 713.382 Q65.8965 713.382 66.5954 713.585 Q67.2943 713.788 68.3764 714.284 Q69.4585 714.757 70.4504 715.434 Q71.4198 716.087 72.1413 717.17 Q72.8401 718.229 72.8401 719.447 Q72.8401 721.07 71.758 722.152 Q70.6759 723.234 69.0527 723.234 Q68.1735 723.234 66.5052 722.625 Q58.8853 719.762 56.1575 719.762 Q52.9337 719.762 52.9337 722.265 Q52.9337 723.685 53.5198 724.97 Q54.106 726.255 54.9176 727.089 Q55.7291 727.923 56.6535 728.577 Q57.5778 729.231 58.1865 729.524 Q58.7951 729.794 59.0657 729.862 L70.2025 732.635 Q71.1493 732.86 71.6002 733.018 Q72.0511 733.176 72.4343 733.604 Q72.8401 734.033 72.8401 734.709 Q72.8401 735.273 72.502 735.678 Q72.1638 736.062 71.5777 736.062 Q71.4875 736.062 71.014 735.949 Q70.5406 735.836 69.8868 735.678 Q69.2331 735.52 68.8498 735.453 Q65.7838 734.641 65.3555 734.529 L59.99 733.244 Q57.3298 732.545 56.1575 732.545 Q52.9337 732.545 52.9337 735.047 Q52.9337 736.287 53.4071 737.459 Q53.858 738.609 54.4892 739.398 Q55.1205 740.187 55.9997 740.909 Q56.8564 741.607 57.4425 741.968 Q58.0061 742.306 58.5697 742.577 L60.8692 743.163 Q61.5004 743.298 63.9577 743.952 L68.1284 744.966 Q71.2395 745.688 71.5326 745.846 Q72.1638 746.071 72.502 746.567 Q72.8401 747.063 72.8401 747.559 Q72.8401 748.123 72.502 748.506 Q72.1638 748.889 71.5777 748.889 Q71.4875 748.889 71.1493 748.822 Q70.8112 748.754 70.3377 748.641 Q69.8643 748.528 69.5938 748.483 L58.9304 745.801 Q56.9916 745.305 56.3829 745.192 Q55.7517 745.057 55.0528 745.057 Q52.9337 745.057 52.9337 746.499 Q52.9337 747.672 54.3314 748.438 Q55.7291 749.205 58.4344 749.859 Q59.1784 750.061 59.3362 750.197 Q59.494 750.309 59.494 750.648 Q59.4715 751.211 59.0206 751.211 Q58.9079 751.211 58.1865 751.031 Q57.465 750.85 56.3829 750.512 Q55.2783 750.152 54.5569 749.768 Q54.0834 749.543 53.7678 749.34 Q53.4522 749.137 52.9562 748.731 Q52.4603 748.326 52.1897 747.717 Q51.9192 747.108 51.9192 746.364 Q51.9192 744.718 52.9788 743.501 Q54.0383 742.261 55.932 742.103 Q51.9192 739.105 51.9192 734.912 Q51.9192 732.545 53.114 731.124 Q54.2638 729.794 56.3829 729.636 Q51.9192 726.525 51.9192 722.107 Q51.9192 719.559 53.2493 718.184 Q54.5569 716.809 56.8564 716.809 Q58.0512 716.809 60.3281 717.418 Q62.5826 718.026 63.7098 718.432 Q64.837 718.838 67.0012 719.627 Q69.0753 720.461 70.2926 720.461 Q71.0817 720.461 71.4424 720.191 Q71.8031 719.92 71.8031 719.334 Q71.8031 718.432 71.2846 717.643 Q70.7435 716.854 69.8643 716.29 Q68.9625 715.704 68.0608 715.321 Q67.1365 714.938 66.0994 714.645 Q65.5358 714.464 65.4006 714.374 Q65.2653 714.261 65.2653 713.946 Q65.2653 713.382 65.7162 713.382 Z" fill="#000000" fill-rule="evenodd" fill-opacity="1" /><polyline clip-path="url(#clip842)" style="stroke:#009af9; stroke-width:16; stroke-opacity:1; fill:none" points="
  429.834,1408.22 438.95,1408.22 448.066,1408.22 532.356,1408.22 616.646,1408.22 641.974,1408.22 667.301,1408.22 692.629,1408.22 717.956,1408.22 728.663,1408.22 
  739.37,1408.22 750.077,1370.17 760.784,1326.76 782.198,1244.3 803.613,1167.32 826.874,1089.5 850.136,1017.27 873.398,950.256 896.659,888.064 939.55,784.9 
  982.44,695.02 1028.42,611.473 1074.41,539.404 1127.68,468.193 1180.96,408.188 1228.3,362.836 1275.65,323.886 1317.17,294.281 1358.68,268.375 1449.21,222.557 
  1540.28,188.132 1640.97,160.141 1736.77,140.727 1836.39,125.977 1920.24,116.742 2022.61,108.371 2118.85,102.655 2273.02,96.4926 2296.75,95.7872 
  "/>
<polyline clip-path="url(#clip842)" style="stroke:#e26f46; stroke-width:16; stroke-opacity:1; fill:none" stroke-dasharray="64, 40" points="
  -1605.1,86.8841 4331.69,86.8841 
  "/>
</svg>