<?xml version="1.0" encoding="utf-8"?>
<svg xmlns="http://www.w3.org/2000/svg" xmlns:xlink="http://www.w3.org/1999/xlink" width="600" height="400" viewBox="0 0 2400 1600">
<defs>
  <clipPath id="clip160">
    <rect x="0" y="0" width="2400" height="1600"/>
  </clipPath>
</defs>
<path clip-path="url(#clip160)" d="
M0 1600 L2400 1600 L2400 0 L0 0  Z
  " fill="#ffffff" fill-rule="evenodd" fill-opacity="1"/>
<defs>
  <clipPath id="clip161">
    <rect x="480" y="0" width="1681" height="1600"/>
  </clipPath>
</defs>
<defs>
  <clipPath id="clip162">
    <rect x="243" y="776" width="2111" height="636"/>
  </clipPath>
</defs>
<path clip-path="url(#clip160)" d="
M267.509 681.826 L2352.76 681.826 L2352.76 47.2441 L267.509 47.2441  Z
  " fill="#ffffff" fill-rule="evenodd" fill-opacity="1"/>
<defs>
  <clipPath id="clip163">
    <rect x="267" y="47" width="2086" height="636"/>
  </clipPath>
</defs>
<polyline clip-path="url(#clip160)" style="stroke:#000000; stroke-width:4; stroke-opacity:1; fill:none" points="
  267.509,681.826 2352.76,681.826 
  "/>
<polyline clip-path="url(#clip163)" style="stroke:#000000; stroke-width:2; stroke-opacity:0.1; fill:none" points="
  267.509,663.878 2352.76,663.878 
  "/>
<polyline clip-path="url(#clip163)" style="stroke:#000000; stroke-width:2; stroke-opacity:0.1; fill:none" points="
  267.509,514.526 2352.76,514.526 
  "/>
<polyline clip-path="url(#clip163)" style="stroke:#000000; stroke-width:2; stroke-opacity:0.1; fill:none" points="
  267.509,365.173 2352.76,365.173 
  "/>
<polyline clip-path="url(#clip163)" style="stroke:#000000; stroke-width:2; stroke-opacity:0.1; fill:none" points="
  267.509,215.821 2352.76,215.821 
  "/>
<polyline clip-path="url(#clip163)" style="stroke:#000000; stroke-width:2; stroke-opacity:0.1; fill:none" points="
  267.509,66.4691 2352.76,66.4691 
  "/>
<polyline clip-path="url(#clip160)" style="stroke:#000000; stroke-width:4; stroke-opacity:1; fill:none" points="
  267.509,681.826 267.509,47.2441 
  "/>
<polyline clip-path="url(#clip160)" style="stroke:#000000; stroke-width:4; stroke-opacity:1; fill:none" points="
  267.509,663.878 292.532,663.878 
  "/>
<polyline clip-path="url(#clip160)" style="stroke:#000000; stroke-width:4; stroke-opacity:1; fill:none" points="
  267.509,514.526 292.532,514.526 
  "/>
<polyline clip-path="url(#clip160)" style="stroke:#000000; stroke-width:4; stroke-opacity:1; fill:none" points="
  267.509,365.173 292.532,365.173 
  "/>
<polyline clip-path="url(#clip160)" style="stroke:#000000; stroke-width:4; stroke-opacity:1; fill:none" points="
  267.509,215.821 292.532,215.821 
  "/>
<polyline clip-path="url(#clip160)" style="stroke:#000000; stroke-width:4; stroke-opacity:1; fill:none" points="
  267.509,66.4691 292.532,66.4691 
  "/>
<polyline clip-path="url(#clip160)" style="stroke:#000000; stroke-width:4; stroke-opacity:1; fill:none" points="
  267.509,626.343 280.021,626.343 
  "/>
<polyline clip-path="url(#clip160)" style="stroke:#000000; stroke-width:4; stroke-opacity:1; fill:none" points="
  267.509,593.559 280.021,593.559 
  "/>
<polyline clip-path="url(#clip160)" style="stroke:#000000; stroke-width:4; stroke-opacity:1; fill:none" points="
  267.509,564.457 280.021,564.457 
  "/>
<polyline clip-path="url(#clip160)" style="stroke:#000000; stroke-width:4; stroke-opacity:1; fill:none" points="
  267.509,538.292 280.021,538.292 
  "/>
<polyline clip-path="url(#clip160)" style="stroke:#000000; stroke-width:4; stroke-opacity:1; fill:none" points="
  267.509,476.991 280.021,476.991 
  "/>
<polyline clip-path="url(#clip160)" style="stroke:#000000; stroke-width:4; stroke-opacity:1; fill:none" points="
  267.509,444.207 280.021,444.207 
  "/>
<polyline clip-path="url(#clip160)" style="stroke:#000000; stroke-width:4; stroke-opacity:1; fill:none" points="
  267.509,415.104 280.021,415.104 
  "/>
<polyline clip-path="url(#clip160)" style="stroke:#000000; stroke-width:4; stroke-opacity:1; fill:none" points="
  267.509,388.94 280.021,388.94 
  "/>
<polyline clip-path="url(#clip160)" style="stroke:#000000; stroke-width:4; stroke-opacity:1; fill:none" points="
  267.509,327.639 280.021,327.639 
  "/>
<polyline clip-path="url(#clip160)" style="stroke:#000000; stroke-width:4; stroke-opacity:1; fill:none" points="
  267.509,294.855 280.021,294.855 
  "/>
<polyline clip-path="url(#clip160)" style="stroke:#000000; stroke-width:4; stroke-opacity:1; fill:none" points="
  267.509,265.752 280.021,265.752 
  "/>
<polyline clip-path="url(#clip160)" style="stroke:#000000; stroke-width:4; stroke-opacity:1; fill:none" points="
  267.509,239.587 280.021,239.587 
  "/>
<polyline clip-path="url(#clip160)" style="stroke:#000000; stroke-width:4; stroke-opacity:1; fill:none" points="
  267.509,178.287 280.021,178.287 
  "/>
<polyline clip-path="url(#clip160)" style="stroke:#000000; stroke-width:4; stroke-opacity:1; fill:none" points="
  267.509,145.503 280.021,145.503 
  "/>
<polyline clip-path="url(#clip160)" style="stroke:#000000; stroke-width:4; stroke-opacity:1; fill:none" points="
  267.509,116.4 280.021,116.4 
  "/>
<polyline clip-path="url(#clip160)" style="stroke:#000000; stroke-width:4; stroke-opacity:1; fill:none" points="
  267.509,90.2353 280.021,90.2353 
  "/>
<path clip-path="url(#clip160)" d="M 0 0 M99.5469 683.67 L107.186 683.67 L107.186 657.304 L98.8756 658.971 L98.8756 654.712 L107.139 653.045 L111.815 653.045 L111.815 683.67 L119.454 683.67 L119.454 687.605 L99.5469 687.605 L99.5469 683.67 Z" fill="#000000" fill-rule="evenodd" fill-opacity="1" /><path clip-path="url(#clip160)" d="M 0 0 M138.899 656.124 Q135.287 656.124 133.459 659.689 Q131.653 663.23 131.653 670.36 Q131.653 677.466 133.459 681.031 Q135.287 684.573 138.899 684.573 Q142.533 684.573 144.338 681.031 Q146.167 677.466 146.167 670.36 Q146.167 663.23 144.338 659.689 Q142.533 656.124 138.899 656.124 M138.899 652.42 Q144.709 652.42 147.764 657.027 Q150.843 661.61 150.843 670.36 Q150.843 679.087 147.764 683.693 Q144.709 688.277 138.899 688.277 Q133.088 688.277 130.01 683.693 Q126.954 679.087 126.954 670.36 Q126.954 661.61 130.01 657.027 Q133.088 652.42 138.899 652.42 Z" fill="#000000" fill-rule="evenodd" fill-opacity="1" /><path clip-path="url(#clip160)" d="M 0 0 M160.548 634.616 Q157.614 634.616 156.128 637.513 Q154.661 640.39 154.661 646.183 Q154.661 651.957 156.128 654.853 Q157.614 657.731 160.548 657.731 Q163.501 657.731 164.968 654.853 Q166.453 651.957 166.453 646.183 Q166.453 640.39 164.968 637.513 Q163.501 634.616 160.548 634.616 M160.548 631.607 Q165.268 631.607 167.751 635.35 Q170.253 639.074 170.253 646.183 Q170.253 653.274 167.751 657.016 Q165.268 660.74 160.548 660.74 Q155.827 660.74 153.326 657.016 Q150.843 653.274 150.843 646.183 Q150.843 639.074 153.326 635.35 Q155.827 631.607 160.548 631.607 Z" fill="#000000" fill-rule="evenodd" fill-opacity="1" /><path clip-path="url(#clip160)" d="M 0 0 M176.929 655.418 L180.898 655.418 L180.898 660.195 L176.929 660.195 L176.929 655.418 Z" fill="#000000" fill-rule="evenodd" fill-opacity="1" /><path clip-path="url(#clip160)" d="M 0 0 M197.298 634.616 Q194.364 634.616 192.878 637.513 Q191.411 640.39 191.411 646.183 Q191.411 651.957 192.878 654.853 Q194.364 657.731 197.298 657.731 Q200.251 657.731 201.718 654.853 Q203.204 651.957 203.204 646.183 Q203.204 640.39 201.718 637.513 Q200.251 634.616 197.298 634.616 M197.298 631.607 Q202.019 631.607 204.501 635.35 Q207.003 639.074 207.003 646.183 Q207.003 653.274 204.501 657.016 Q202.019 660.74 197.298 660.74 Q192.577 660.74 190.076 657.016 Q187.593 653.274 187.593 646.183 Q187.593 639.074 190.076 635.35 Q192.577 631.607 197.298 631.607 Z" fill="#000000" fill-rule="evenodd" fill-opacity="1" /><path clip-path="url(#clip160)" d="M 0 0 M221.805 634.616 Q218.871 634.616 217.385 637.513 Q215.918 640.39 215.918 646.183 Q215.918 651.957 217.385 654.853 Q218.871 657.731 221.805 657.731 Q224.757 657.731 226.224 654.853 Q227.71 651.957 227.71 646.183 Q227.71 640.39 226.224 637.513 Q224.757 634.616 221.805 634.616 M221.805 631.607 Q226.525 631.607 229.008 635.35 Q231.509 639.074 231.509 646.183 Q231.509 653.274 229.008 657.016 Q226.525 660.74 221.805 660.74 Q217.084 660.74 214.582 657.016 Q212.1 653.274 212.1 646.183 Q212.1 639.074 214.582 635.35 Q217.084 631.607 221.805 631.607 Z" fill="#000000" fill-rule="evenodd" fill-opacity="1" /><path clip-path="url(#clip160)" d="M 0 0 M100.356 534.318 L107.994 534.318 L107.994 507.952 L99.6843 509.619 L99.6843 505.36 L107.948 503.693 L112.624 503.693 L112.624 534.318 L120.263 534.318 L120.263 538.253 L100.356 538.253 L100.356 534.318 Z" fill="#000000" fill-rule="evenodd" fill-opacity="1" /><path clip-path="url(#clip160)" d="M 0 0 M139.707 506.772 Q136.096 506.772 134.267 510.337 Q132.462 513.878 132.462 521.008 Q132.462 528.114 134.267 531.679 Q136.096 535.221 139.707 535.221 Q143.341 535.221 145.147 531.679 Q146.976 528.114 146.976 521.008 Q146.976 513.878 145.147 510.337 Q143.341 506.772 139.707 506.772 M139.707 503.068 Q145.517 503.068 148.573 507.675 Q151.652 512.258 151.652 521.008 Q151.652 529.735 148.573 534.341 Q145.517 538.924 139.707 538.924 Q133.897 538.924 130.818 534.341 Q127.763 529.735 127.763 521.008 Q127.763 512.258 130.818 507.675 Q133.897 503.068 139.707 503.068 Z" fill="#000000" fill-rule="evenodd" fill-opacity="1" /><path clip-path="url(#clip160)" d="M 0 0 M161.356 485.264 Q158.422 485.264 156.937 488.161 Q155.47 491.038 155.47 496.831 Q155.47 502.605 156.937 505.501 Q158.422 508.379 161.356 508.379 Q164.309 508.379 165.776 505.501 Q167.262 502.605 167.262 496.831 Q167.262 491.038 165.776 488.161 Q164.309 485.264 161.356 485.264 M161.356 482.255 Q166.077 482.255 168.56 485.998 Q171.061 489.722 171.061 496.831 Q171.061 503.921 168.56 507.664 Q166.077 511.388 161.356 511.388 Q156.636 511.388 154.134 507.664 Q151.652 503.921 151.652 496.831 Q151.652 489.722 154.134 485.998 Q156.636 482.255 161.356 482.255 Z" fill="#000000" fill-rule="evenodd" fill-opacity="1" /><path clip-path="url(#clip160)" d="M 0 0 M177.738 506.066 L181.706 506.066 L181.706 510.843 L177.738 510.843 L177.738 506.066 Z" fill="#000000" fill-rule="evenodd" fill-opacity="1" /><path clip-path="url(#clip160)" d="M 0 0 M193.254 507.645 L206.514 507.645 L206.514 510.843 L188.684 510.843 L188.684 507.645 Q190.847 505.407 194.571 501.646 Q198.314 497.865 199.273 496.774 Q201.097 494.724 201.812 493.314 Q202.545 491.884 202.545 490.512 Q202.545 488.273 200.966 486.863 Q199.405 485.452 196.884 485.452 Q195.098 485.452 193.104 486.073 Q191.129 486.694 188.872 487.954 L188.872 484.117 Q191.167 483.195 193.16 482.725 Q195.154 482.255 196.809 482.255 Q201.172 482.255 203.768 484.437 Q206.363 486.618 206.363 490.267 Q206.363 491.997 205.705 493.558 Q205.066 495.101 203.354 497.207 Q202.884 497.752 200.364 500.367 Q197.844 502.962 193.254 507.645 Z" fill="#000000" fill-rule="evenodd" fill-opacity="1" /><path clip-path="url(#clip160)" d="M 0 0 M214.526 482.763 L229.441 482.763 L229.441 485.96 L218.005 485.96 L218.005 492.844 Q218.833 492.562 219.661 492.43 Q220.488 492.279 221.316 492.279 Q226.018 492.279 228.763 494.856 Q231.509 497.433 231.509 501.834 Q231.509 506.366 228.688 508.887 Q225.867 511.388 220.733 511.388 Q218.965 511.388 217.121 511.087 Q215.297 510.786 213.341 510.184 L213.341 506.366 Q215.034 507.288 216.839 507.739 Q218.645 508.191 220.657 508.191 Q223.911 508.191 225.811 506.479 Q227.71 504.768 227.71 501.834 Q227.71 498.9 225.811 497.188 Q223.911 495.477 220.657 495.477 Q219.134 495.477 217.61 495.815 Q216.106 496.154 214.526 496.869 L214.526 482.763 Z" fill="#000000" fill-rule="evenodd" fill-opacity="1" /><path clip-path="url(#clip160)" d="M 0 0 M99.5469 384.966 L107.186 384.966 L107.186 358.6 L98.8756 360.267 L98.8756 356.008 L107.139 354.341 L111.815 354.341 L111.815 384.966 L119.454 384.966 L119.454 388.901 L99.5469 388.901 L99.5469 384.966 Z" fill="#000000" fill-rule="evenodd" fill-opacity="1" /><path clip-path="url(#clip160)" d="M 0 0 M138.899 357.42 Q135.287 357.42 133.459 360.984 Q131.653 364.526 131.653 371.656 Q131.653 378.762 133.459 382.327 Q135.287 385.869 138.899 385.869 Q142.533 385.869 144.338 382.327 Q146.167 378.762 146.167 371.656 Q146.167 364.526 144.338 360.984 Q142.533 357.42 138.899 357.42 M138.899 353.716 Q144.709 353.716 147.764 358.322 Q150.843 362.906 150.843 371.656 Q150.843 380.382 147.764 384.989 Q144.709 389.572 138.899 389.572 Q133.088 389.572 130.01 384.989 Q126.954 380.382 126.954 371.656 Q126.954 362.906 130.01 358.322 Q133.088 353.716 138.899 353.716 Z" fill="#000000" fill-rule="evenodd" fill-opacity="1" /><path clip-path="url(#clip160)" d="M 0 0 M160.548 335.912 Q157.614 335.912 156.128 338.808 Q154.661 341.686 154.661 347.479 Q154.661 353.253 156.128 356.149 Q157.614 359.027 160.548 359.027 Q163.501 359.027 164.968 356.149 Q166.453 353.253 166.453 347.479 Q166.453 341.686 164.968 338.808 Q163.501 335.912 160.548 335.912 M160.548 332.903 Q165.268 332.903 167.751 336.646 Q170.253 340.369 170.253 347.479 Q170.253 354.569 167.751 358.312 Q165.268 362.036 160.548 362.036 Q155.827 362.036 153.326 358.312 Q150.843 354.569 150.843 347.479 Q150.843 340.369 153.326 336.646 Q155.827 332.903 160.548 332.903 Z" fill="#000000" fill-rule="evenodd" fill-opacity="1" /><path clip-path="url(#clip160)" d="M 0 0 M176.929 356.713 L180.898 356.713 L180.898 361.491 L176.929 361.491 L176.929 356.713 Z" fill="#000000" fill-rule="evenodd" fill-opacity="1" /><path clip-path="url(#clip160)" d="M 0 0 M189.211 333.411 L204.125 333.411 L204.125 336.608 L192.69 336.608 L192.69 343.492 Q193.518 343.209 194.345 343.078 Q195.173 342.927 196 342.927 Q200.702 342.927 203.448 345.504 Q206.194 348.081 206.194 352.482 Q206.194 357.014 203.373 359.535 Q200.552 362.036 195.417 362.036 Q193.649 362.036 191.806 361.735 Q189.982 361.434 188.026 360.832 L188.026 357.014 Q189.719 357.936 191.524 358.387 Q193.33 358.839 195.342 358.839 Q198.596 358.839 200.495 357.127 Q202.395 355.416 202.395 352.482 Q202.395 349.548 200.495 347.836 Q198.596 346.125 195.342 346.125 Q193.819 346.125 192.295 346.463 Q190.791 346.802 189.211 347.516 L189.211 333.411 Z" fill="#000000" fill-rule="evenodd" fill-opacity="1" /><path clip-path="url(#clip160)" d="M 0 0 M221.805 335.912 Q218.871 335.912 217.385 338.808 Q215.918 341.686 215.918 347.479 Q215.918 353.253 217.385 356.149 Q218.871 359.027 221.805 359.027 Q224.757 359.027 226.224 356.149 Q227.71 353.253 227.71 347.479 Q227.71 341.686 226.224 338.808 Q224.757 335.912 221.805 335.912 M221.805 332.903 Q226.525 332.903 229.008 336.646 Q231.509 340.369 231.509 347.479 Q231.509 354.569 229.008 358.312 Q226.525 362.036 221.805 362.036 Q217.084 362.036 214.582 358.312 Q212.1 354.569 212.1 347.479 Q212.1 340.369 214.582 336.646 Q217.084 332.903 221.805 332.903 Z" fill="#000000" fill-rule="evenodd" fill-opacity="1" /><path clip-path="url(#clip160)" d="M 0 0 M100.356 235.614 L107.994 235.614 L107.994 209.248 L99.6843 210.915 L99.6843 206.655 L107.948 204.989 L112.624 204.989 L112.624 235.614 L120.263 235.614 L120.263 239.549 L100.356 239.549 L100.356 235.614 Z" fill="#000000" fill-rule="evenodd" fill-opacity="1" /><path clip-path="url(#clip160)" d="M 0 0 M139.707 208.068 Q136.096 208.068 134.267 211.632 Q132.462 215.174 132.462 222.304 Q132.462 229.41 134.267 232.975 Q136.096 236.516 139.707 236.516 Q143.341 236.516 145.147 232.975 Q146.976 229.41 146.976 222.304 Q146.976 215.174 145.147 211.632 Q143.341 208.068 139.707 208.068 M139.707 204.364 Q145.517 204.364 148.573 208.97 Q151.652 213.554 151.652 222.304 Q151.652 231.03 148.573 235.637 Q145.517 240.22 139.707 240.22 Q133.897 240.22 130.818 235.637 Q127.763 231.03 127.763 222.304 Q127.763 213.554 130.818 208.97 Q133.897 204.364 139.707 204.364 Z" fill="#000000" fill-rule="evenodd" fill-opacity="1" /><path clip-path="url(#clip160)" d="M 0 0 M161.356 186.56 Q158.422 186.56 156.937 189.456 Q155.47 192.334 155.47 198.127 Q155.47 203.901 156.937 206.797 Q158.422 209.675 161.356 209.675 Q164.309 209.675 165.776 206.797 Q167.262 203.901 167.262 198.127 Q167.262 192.334 165.776 189.456 Q164.309 186.56 161.356 186.56 M161.356 183.551 Q166.077 183.551 168.56 187.293 Q171.061 191.017 171.061 198.127 Q171.061 205.217 168.56 208.96 Q166.077 212.684 161.356 212.684 Q156.636 212.684 154.134 208.96 Q151.652 205.217 151.652 198.127 Q151.652 191.017 154.134 187.293 Q156.636 183.551 161.356 183.551 Z" fill="#000000" fill-rule="evenodd" fill-opacity="1" /><path clip-path="url(#clip160)" d="M 0 0 M177.738 207.361 L181.706 207.361 L181.706 212.138 L177.738 212.138 L177.738 207.361 Z" fill="#000000" fill-rule="evenodd" fill-opacity="1" /><path clip-path="url(#clip160)" d="M 0 0 M189.023 184.058 L207.078 184.058 L207.078 185.676 L196.884 212.138 L192.916 212.138 L202.508 187.256 L189.023 187.256 L189.023 184.058 Z" fill="#000000" fill-rule="evenodd" fill-opacity="1" /><path clip-path="url(#clip160)" d="M 0 0 M214.526 184.058 L229.441 184.058 L229.441 187.256 L218.005 187.256 L218.005 194.139 Q218.833 193.857 219.661 193.726 Q220.488 193.575 221.316 193.575 Q226.018 193.575 228.763 196.152 Q231.509 198.728 231.509 203.13 Q231.509 207.662 228.688 210.182 Q225.867 212.684 220.733 212.684 Q218.965 212.684 217.121 212.383 Q215.297 212.082 213.341 211.48 L213.341 207.662 Q215.034 208.584 216.839 209.035 Q218.645 209.487 220.657 209.487 Q223.911 209.487 225.811 207.775 Q227.71 206.064 227.71 203.13 Q227.71 200.195 225.811 198.484 Q223.911 196.772 220.657 196.772 Q219.134 196.772 217.61 197.111 Q216.106 197.45 214.526 198.164 L214.526 184.058 Z" fill="#000000" fill-rule="evenodd" fill-opacity="1" /><path clip-path="url(#clip160)" d="M 0 0 M101.24 86.2615 L108.878 86.2615 L108.878 59.8959 L100.568 61.5626 L100.568 57.3033 L108.832 55.6367 L113.508 55.6367 L113.508 86.2615 L121.147 86.2615 L121.147 90.1967 L101.24 90.1967 L101.24 86.2615 Z" fill="#000000" fill-rule="evenodd" fill-opacity="1" /><path clip-path="url(#clip160)" d="M 0 0 M140.591 58.7154 Q136.98 58.7154 135.151 62.2802 Q133.346 65.8218 133.346 72.9514 Q133.346 80.0579 135.151 83.6227 Q136.98 87.1643 140.591 87.1643 Q144.225 87.1643 146.031 83.6227 Q147.86 80.0579 147.86 72.9514 Q147.86 65.8218 146.031 62.2802 Q144.225 58.7154 140.591 58.7154 M140.591 55.0117 Q146.401 55.0117 149.457 59.6182 Q152.536 64.2015 152.536 72.9514 Q152.536 81.6782 149.457 86.2847 Q146.401 90.868 140.591 90.868 Q134.781 90.868 131.702 86.2847 Q128.647 81.6782 128.647 72.9514 Q128.647 64.2015 131.702 59.6182 Q134.781 55.0117 140.591 55.0117 Z" fill="#000000" fill-rule="evenodd" fill-opacity="1" /><path clip-path="url(#clip160)" d="M 0 0 M153.081 59.589 L159.288 59.589 L159.288 38.1669 L152.536 39.5211 L152.536 36.0605 L159.25 34.7063 L163.049 34.7063 L163.049 59.589 L169.256 59.589 L169.256 62.7863 L153.081 62.7863 L153.081 59.589 Z" fill="#000000" fill-rule="evenodd" fill-opacity="1" /><path clip-path="url(#clip160)" d="M 0 0 M176.929 58.0091 L180.898 58.0091 L180.898 62.7863 L176.929 62.7863 L176.929 58.0091 Z" fill="#000000" fill-rule="evenodd" fill-opacity="1" /><path clip-path="url(#clip160)" d="M 0 0 M197.298 37.2077 Q194.364 37.2077 192.878 40.1041 Q191.411 42.9817 191.411 48.7745 Q191.411 54.5485 192.878 57.4449 Q194.364 60.3225 197.298 60.3225 Q200.251 60.3225 201.718 57.4449 Q203.204 54.5485 203.204 48.7745 Q203.204 42.9817 201.718 40.1041 Q200.251 37.2077 197.298 37.2077 M197.298 34.1985 Q202.019 34.1985 204.501 37.9412 Q207.003 41.6652 207.003 48.7745 Q207.003 55.865 204.501 59.6078 Q202.019 63.3317 197.298 63.3317 Q192.577 63.3317 190.076 59.6078 Q187.593 55.865 187.593 48.7745 Q187.593 41.6652 190.076 37.9412 Q192.577 34.1985 197.298 34.1985 Z" fill="#000000" fill-rule="evenodd" fill-opacity="1" /><path clip-path="url(#clip160)" d="M 0 0 M221.805 37.2077 Q218.871 37.2077 217.385 40.1041 Q215.918 42.9817 215.918 48.7745 Q215.918 54.5485 217.385 57.4449 Q218.871 60.3225 221.805 60.3225 Q224.757 60.3225 226.224 57.4449 Q227.71 54.5485 227.71 48.7745 Q227.71 42.9817 226.224 40.1041 Q224.757 37.2077 221.805 37.2077 M221.805 34.1985 Q226.525 34.1985 229.008 37.9412 Q231.509 41.6652 231.509 48.7745 Q231.509 55.865 229.008 59.6078 Q226.525 63.3317 221.805 63.3317 Q217.084 63.3317 214.582 59.6078 Q212.1 55.865 212.1 48.7745 Q212.1 41.6652 214.582 37.9412 Q217.084 34.1985 221.805 34.1985 Z" fill="#000000" fill-rule="evenodd" fill-opacity="1" /><path clip-path="url(#clip160)" d="M 0 0 M29.7691 373.915 Q28.7064 373.915 27.8368 374.205 Q26.935 374.463 26.3231 374.881 Q25.679 375.268 25.1959 376.009 Q24.6806 376.749 24.3586 377.361 Q24.0365 377.973 23.8433 379.004 Q23.6178 380.034 23.5212 380.711 Q23.3924 381.387 23.328 382.546 Q23.2636 383.706 23.2636 384.286 Q23.2636 384.833 23.2636 385.928 Q23.2636 389.374 23.328 389.954 Q23.4568 390.823 23.9721 391.145 Q24.4552 391.467 25.7756 391.79 L42.9735 396.073 L42.9735 388.698 Q42.9735 384.672 41.8463 381.902 Q40.7191 379.133 39.1411 377.555 Q37.4019 375.815 34.6 374.881 Q31.7981 373.915 29.7691 373.915 M60.1393 366.733 Q60.4935 366.733 61.2987 367.023 Q62.1038 367.281 63.231 367.925 Q64.326 368.569 65.3244 369.439 Q66.3228 370.308 66.9991 371.693 Q67.7077 373.078 67.7077 374.656 Q67.7077 375.043 67.6754 375.429 Q67.6754 375.815 67.5144 376.782 Q67.3856 377.716 67.1279 378.489 Q66.9025 379.261 66.355 380.228 Q65.8397 381.194 65.1312 381.87 Q64.3904 382.514 63.231 382.965 Q62.0394 383.416 60.5902 383.416 Q59.3019 383.416 54.9863 382.353 Q51.3149 381.419 50.4131 381.419 Q49.4147 381.419 48.4808 381.741 Q47.5468 382.031 46.5806 382.772 Q45.6144 383.48 45.0347 384.994 Q44.4228 386.508 44.4228 388.633 L44.4228 396.459 L61.9106 400.839 Q61.9428 400.839 62.3937 400.936 Q62.8124 401.033 63.0378 401.033 Q63.4565 401.033 63.7141 400.775 Q63.9718 400.485 64.1006 399.777 Q64.1972 399.068 64.2294 398.521 Q64.2294 397.941 64.2294 396.749 Q64.2294 395.268 64.4871 395.01 Q64.6481 394.881 64.9379 394.881 Q65.3888 394.881 65.7109 395.01 Q66.0007 395.107 66.0974 395.364 Q66.194 395.59 66.2262 395.751 Q66.2584 395.912 66.2584 396.202 L66.0652 404.575 L66.2584 412.884 Q66.2584 413.818 65.5177 413.818 Q64.8735 413.818 64.6159 413.593 Q64.326 413.367 64.2938 413.078 Q64.2294 412.788 64.2294 412.047 Q64.2294 410.437 64.1328 409.471 Q64.0362 408.504 63.9074 407.892 Q63.7463 407.248 63.2954 406.926 Q62.8446 406.572 62.4581 406.411 Q62.0394 406.25 61.1054 406.025 L25.679 397.2 Q24.6162 396.942 24.4552 396.942 Q23.8433 396.942 23.6822 397.329 Q23.489 397.683 23.3924 398.714 L23.2636 401.226 Q23.2636 401.999 23.2314 402.321 Q23.1992 402.611 23.0381 402.836 Q22.8771 403.062 22.5228 403.062 Q21.6211 403.062 21.4278 402.675 Q21.2024 402.289 21.2024 401.161 L21.2024 382.353 Q21.2024 375.944 24.0043 371.886 Q26.8062 367.796 31.0896 367.796 Q33.0219 367.796 34.8255 368.666 Q36.629 369.535 38.0461 370.985 Q39.4631 372.402 40.6547 374.302 Q41.8141 376.202 42.6193 378.231 Q43.3922 380.228 43.8431 382.289 Q44.1652 381.387 44.6483 380.55 Q45.1313 379.68 46.0331 378.585 Q46.9349 377.458 48.3841 376.782 Q49.8334 376.105 51.6047 376.105 Q52.8607 376.105 54.7287 376.363 Q60.0427 377.007 62.2327 377.007 Q64.326 377.007 65.2922 376.46 Q66.2584 375.912 66.2584 374.366 Q66.2584 372.853 64.9057 371.178 Q63.5209 369.471 60.2681 368.376 Q59.3341 368.118 59.3341 367.506 Q59.3341 367.474 59.3341 367.442 Q59.3341 367.378 59.3985 367.249 Q59.4307 367.12 59.5274 367.023 Q59.5918 366.894 59.7528 366.83 Q59.9138 366.733 60.1393 366.733 Z" fill="#000000" fill-rule="evenodd" fill-opacity="1" /><path clip-path="url(#clip160)" d="M 0 0 M64.9379 318.999 Q65.5499 318.999 65.8719 319.257 Q66.1618 319.482 66.2262 319.707 Q66.2584 319.901 66.2584 320.19 Q66.2584 321.028 66.1618 323.926 Q66.0652 326.825 66.0652 327.662 Q66.0652 329.015 66.1618 331.785 Q66.2584 334.554 66.2584 335.907 Q66.2584 336.809 65.5177 336.809 Q65.0346 336.809 64.7769 336.712 Q64.4871 336.615 64.3904 336.358 Q64.2616 336.068 64.2616 335.907 Q64.2294 335.714 64.2294 335.231 Q64.2294 334.586 64.165 333.91 Q64.0684 333.234 63.8752 332.397 Q63.6819 331.559 63.1988 331.044 Q62.7157 330.496 62.0394 330.496 Q61.7496 330.496 59.3663 330.722 Q56.9831 330.947 54.2134 331.237 Q51.4115 331.527 51.025 331.559 L51.025 348.113 Q53.6337 349.627 55.4372 350.689 Q57.2407 351.752 57.8527 352.139 Q58.4646 352.525 58.851 352.751 Q59.2375 352.976 59.4629 353.105 Q61.1699 354.039 61.9106 354.039 Q63.9718 354.039 64.2294 350.947 Q64.2294 349.884 65.0024 349.884 Q65.5821 349.884 65.9041 350.142 Q66.194 350.4 66.2262 350.625 Q66.2584 350.818 66.2584 351.14 Q66.2584 352.203 66.1618 354.425 Q66.0652 356.648 66.0652 357.743 Q66.0652 358.676 66.1618 360.609 Q66.2584 362.541 66.2584 363.411 Q66.2584 363.797 66.0329 364.023 Q65.8075 364.248 65.5177 364.248 Q65.0668 364.248 64.8091 364.184 Q64.5515 364.087 64.4227 363.829 Q64.2938 363.572 64.2938 363.443 Q64.2616 363.314 64.2294 362.863 Q64.0684 360.416 62.909 358.515 Q61.7174 356.583 58.6578 354.747 L20.1396 331.817 Q19.7531 331.591 19.5599 331.43 Q19.3667 331.269 19.2056 330.947 Q19.0446 330.593 19.0446 330.078 Q19.0446 329.273 19.3022 329.112 Q19.5277 328.95 20.6227 328.854 L61.8462 324.828 Q62.7157 324.732 63.07 324.667 Q63.3921 324.57 63.7463 324.152 Q64.0684 323.701 64.165 322.896 Q64.2294 322.058 64.2294 320.513 Q64.2294 319.933 64.2616 319.707 Q64.2616 319.482 64.4227 319.257 Q64.5837 318.999 64.9379 318.999 M48.9638 331.752 L27.2249 333.846 L48.9638 346.857 L48.9638 331.752 Z" fill="#000000" fill-rule="evenodd" fill-opacity="1" /><polyline clip-path="url(#clip163)" style="stroke:#009af9; stroke-width:8; stroke-opacity:1; fill:none" points="
  326.526,65.204 346.397,89.0845 366.268,112.913 386.138,136.679 406.009,160.371 425.88,183.974 445.751,207.47 465.622,230.839 485.493,254.057 505.363,277.095 
  525.234,299.921 545.105,322.496 564.976,344.776 584.847,366.711 604.718,388.244 624.588,409.313 644.459,429.847 664.33,449.773 684.201,469.014 704.072,487.488 
  723.943,505.116 743.814,521.824 763.684,537.542 783.555,552.215 803.426,565.799 823.297,578.268 843.168,589.616 863.039,599.854 882.909,609.014 902.78,617.142 
  922.651,624.298 942.522,630.554 962.393,635.984 982.264,640.669 1002.13,644.688 1022.01,648.118 1041.88,651.031 1061.75,653.494 1081.62,655.568 1101.49,657.306 
  1121.36,658.755 1141.23,659.957 1161.1,660.947 1180.97,661.755 1200.84,662.405 1220.71,662.917 1240.58,663.309 1260.46,663.592 1280.33,663.776 1300.2,663.866 
  1320.07,663.866 1339.94,663.776 1359.81,663.592 1379.68,663.309 1399.55,662.917 1419.42,662.405 1439.29,661.755 1459.16,660.947 1479.03,659.957 1498.91,658.755 
  1518.78,657.306 1538.65,655.568 1558.52,653.494 1578.39,651.031 1598.26,648.118 1618.13,644.688 1638,640.669 1657.87,635.984 1677.74,630.554 1697.61,624.298 
  1717.48,617.142 1737.36,609.014 1757.23,599.854 1777.1,589.616 1796.97,578.268 1816.84,565.799 1836.71,552.215 1856.58,537.542 1876.45,521.824 1896.32,505.116 
  1916.19,487.488 1936.06,469.014 1955.94,449.773 1975.81,429.847 1995.68,409.313 2015.55,388.244 2035.42,366.711 2055.29,344.776 2075.16,322.496 2095.03,299.921 
  2114.9,277.095 2134.77,254.057 2154.64,230.839 2174.51,207.47 2194.39,183.974 2214.26,160.371 2234.13,136.679 2254,112.913 2273.87,89.0845 2293.74,65.204 
  
  "/>
<path clip-path="url(#clip160)" d="
M267.509 1410.9 L2352.76 1410.9 L2352.76 776.314 L267.509 776.314  Z
  " fill="#ffffff" fill-rule="evenodd" fill-opacity="1"/>
<defs>
  <clipPath id="clip164">
    <rect x="267" y="776" width="2086" height="636"/>
  </clipPath>
</defs>
<polyline clip-path="url(#clip164)" style="stroke:#000000; stroke-width:2; stroke-opacity:0.1; fill:none" points="
  326.526,1410.9 326.526,776.314 
  "/>
<polyline clip-path="url(#clip164)" style="stroke:#000000; stroke-width:2; stroke-opacity:0.1; fill:none" points="
  818.329,1410.9 818.329,776.314 
  "/>
<polyline clip-path="url(#clip164)" style="stroke:#000000; stroke-width:2; stroke-opacity:0.1; fill:none" points="
  1310.13,1410.9 1310.13,776.314 
  "/>
<polyline clip-path="url(#clip164)" style="stroke:#000000; stroke-width:2; stroke-opacity:0.1; fill:none" points="
  1801.94,1410.9 1801.94,776.314 
  "/>
<polyline clip-path="url(#clip164)" style="stroke:#000000; stroke-width:2; stroke-opacity:0.1; fill:none" points="
  2293.74,1410.9 2293.74,776.314 
  "/>
<polyline clip-path="url(#clip160)" style="stroke:#000000; stroke-width:4; stroke-opacity:1; fill:none" points="
  267.509,1410.9 2352.76,1410.9 
  "/>
<polyline clip-path="url(#clip160)" style="stroke:#000000; stroke-width:4; stroke-opacity:1; fill:none" points="
  326.526,1410.9 326.526,1403.28 
  "/>
<polyline clip-path="url(#clip160)" style="stroke:#000000; stroke-width:4; stroke-opacity:1; fill:none" points="
  818.329,1410.9 818.329,1403.28 
  "/>
<polyline clip-path="url(#clip160)" style="stroke:#000000; stroke-width:4; stroke-opacity:1; fill:none" points="
  1310.13,1410.9 1310.13,1403.28 
  "/>
<polyline clip-path="url(#clip160)" style="stroke:#000000; stroke-width:4; stroke-opacity:1; fill:none" points="
  1801.94,1410.9 1801.94,1403.28 
  "/>
<polyline clip-path="url(#clip160)" style="stroke:#000000; stroke-width:4; stroke-opacity:1; fill:none" points="
  2293.74,1410.9 2293.74,1403.28 
  "/>
<polyline clip-path="url(#clip160)" style="stroke:#000000; stroke-width:4; stroke-opacity:1; fill:none" points="
  284.139,1410.9 284.139,1407.09 
  "/>
<polyline clip-path="url(#clip160)" style="stroke:#000000; stroke-width:4; stroke-opacity:1; fill:none" points="
  546.44,1410.9 546.44,1407.09 
  "/>
<polyline clip-path="url(#clip160)" style="stroke:#000000; stroke-width:4; stroke-opacity:1; fill:none" points="
  652.472,1410.9 652.472,1407.09 
  "/>
<polyline clip-path="url(#clip160)" style="stroke:#000000; stroke-width:4; stroke-opacity:1; fill:none" points="
  723.008,1410.9 723.008,1407.09 
  "/>
<polyline clip-path="url(#clip160)" style="stroke:#000000; stroke-width:4; stroke-opacity:1; fill:none" points="
  775.943,1410.9 775.943,1407.09 
  "/>
<polyline clip-path="url(#clip160)" style="stroke:#000000; stroke-width:4; stroke-opacity:1; fill:none" points="
  1038.24,1410.9 1038.24,1407.09 
  "/>
<polyline clip-path="url(#clip160)" style="stroke:#000000; stroke-width:4; stroke-opacity:1; fill:none" points="
  1144.28,1410.9 1144.28,1407.09 
  "/>
<polyline clip-path="url(#clip160)" style="stroke:#000000; stroke-width:4; stroke-opacity:1; fill:none" points="
  1214.81,1410.9 1214.81,1407.09 
  "/>
<polyline clip-path="url(#clip160)" style="stroke:#000000; stroke-width:4; stroke-opacity:1; fill:none" points="
  1267.75,1410.9 1267.75,1407.09 
  "/>
<polyline clip-path="url(#clip160)" style="stroke:#000000; stroke-width:4; stroke-opacity:1; fill:none" points="
  1530.05,1410.9 1530.05,1407.09 
  "/>
<polyline clip-path="url(#clip160)" style="stroke:#000000; stroke-width:4; stroke-opacity:1; fill:none" points="
  1636.08,1410.9 1636.08,1407.09 
  "/>
<polyline clip-path="url(#clip160)" style="stroke:#000000; stroke-width:4; stroke-opacity:1; fill:none" points="
  1706.61,1410.9 1706.61,1407.09 
  "/>
<polyline clip-path="url(#clip160)" style="stroke:#000000; stroke-width:4; stroke-opacity:1; fill:none" points="
  1759.55,1410.9 1759.55,1407.09 
  "/>
<polyline clip-path="url(#clip160)" style="stroke:#000000; stroke-width:4; stroke-opacity:1; fill:none" points="
  2021.85,1410.9 2021.85,1407.09 
  "/>
<polyline clip-path="url(#clip160)" style="stroke:#000000; stroke-width:4; stroke-opacity:1; fill:none" points="
  2127.88,1410.9 2127.88,1407.09 
  "/>
<polyline clip-path="url(#clip160)" style="stroke:#000000; stroke-width:4; stroke-opacity:1; fill:none" points="
  2198.42,1410.9 2198.42,1407.09 
  "/>
<polyline clip-path="url(#clip160)" style="stroke:#000000; stroke-width:4; stroke-opacity:1; fill:none" points="
  2251.35,1410.9 2251.35,1407.09 
  "/>
<path clip-path="url(#clip160)" d="M 0 0 M276.792 1489.17 L284.43 1489.17 L284.43 1462.8 L276.12 1464.47 L276.12 1460.21 L284.384 1458.54 L289.06 1458.54 L289.06 1489.17 L296.699 1489.17 L296.699 1493.1 L276.792 1493.1 L276.792 1489.17 Z" fill="#000000" fill-rule="evenodd" fill-opacity="1" /><path clip-path="url(#clip160)" d="M 0 0 M316.143 1461.62 Q312.532 1461.62 310.703 1465.19 Q308.898 1468.73 308.898 1475.86 Q308.898 1482.97 310.703 1486.53 Q312.532 1490.07 316.143 1490.07 Q319.777 1490.07 321.583 1486.53 Q323.412 1482.97 323.412 1475.86 Q323.412 1468.73 321.583 1465.19 Q319.777 1461.62 316.143 1461.62 M316.143 1457.92 Q321.953 1457.92 325.009 1462.53 Q328.088 1467.11 328.088 1475.86 Q328.088 1484.59 325.009 1489.19 Q321.953 1493.78 316.143 1493.78 Q310.333 1493.78 307.254 1489.19 Q304.199 1484.59 304.199 1475.86 Q304.199 1467.11 307.254 1462.53 Q310.333 1457.92 316.143 1457.92 Z" fill="#000000" fill-rule="evenodd" fill-opacity="1" /><path clip-path="url(#clip160)" d="M 0 0 M328.088 1452.02 L352.199 1452.02 L352.199 1455.22 L328.088 1455.22 L328.088 1452.02 Z" fill="#000000" fill-rule="evenodd" fill-opacity="1" /><path clip-path="url(#clip160)" d="M 0 0 M363.672 1462.5 L376.931 1462.5 L376.931 1465.69 L359.102 1465.69 L359.102 1462.5 Q361.264 1460.26 364.988 1456.5 Q368.731 1452.72 369.69 1451.63 Q371.515 1449.58 372.229 1448.16 Q372.963 1446.74 372.963 1445.36 Q372.963 1443.12 371.383 1441.71 Q369.822 1440.3 367.302 1440.3 Q365.515 1440.3 363.521 1440.92 Q361.547 1441.54 359.29 1442.8 L359.29 1438.97 Q361.584 1438.05 363.578 1437.58 Q365.571 1437.11 367.227 1437.11 Q371.59 1437.11 374.185 1439.29 Q376.781 1441.47 376.781 1445.12 Q376.781 1446.85 376.123 1448.41 Q375.483 1449.95 373.772 1452.06 Q373.301 1452.6 370.781 1455.22 Q368.261 1457.81 363.672 1462.5 Z" fill="#000000" fill-rule="evenodd" fill-opacity="1" /><path clip-path="url(#clip160)" d="M 0 0 M768.445 1489.17 L776.083 1489.17 L776.083 1462.8 L767.773 1464.47 L767.773 1460.21 L776.037 1458.54 L780.713 1458.54 L780.713 1489.17 L788.352 1489.17 L788.352 1493.1 L768.445 1493.1 L768.445 1489.17 Z" fill="#000000" fill-rule="evenodd" fill-opacity="1" /><path clip-path="url(#clip160)" d="M 0 0 M807.796 1461.62 Q804.185 1461.62 802.356 1465.19 Q800.551 1468.73 800.551 1475.86 Q800.551 1482.97 802.356 1486.53 Q804.185 1490.07 807.796 1490.07 Q811.43 1490.07 813.236 1486.53 Q815.065 1482.97 815.065 1475.86 Q815.065 1468.73 813.236 1465.19 Q811.43 1461.62 807.796 1461.62 M807.796 1457.92 Q813.606 1457.92 816.662 1462.53 Q819.741 1467.11 819.741 1475.86 Q819.741 1484.59 816.662 1489.19 Q813.606 1493.78 807.796 1493.78 Q801.986 1493.78 798.907 1489.19 Q795.852 1484.59 795.852 1475.86 Q795.852 1467.11 798.907 1462.53 Q801.986 1457.92 807.796 1457.92 Z" fill="#000000" fill-rule="evenodd" fill-opacity="1" /><path clip-path="url(#clip160)" d="M 0 0 M819.741 1452.02 L843.852 1452.02 L843.852 1455.22 L819.741 1455.22 L819.741 1452.02 Z" fill="#000000" fill-rule="evenodd" fill-opacity="1" /><path clip-path="url(#clip160)" d="M 0 0 M852.711 1462.5 L858.917 1462.5 L858.917 1441.07 L852.165 1442.43 L852.165 1438.97 L858.88 1437.61 L862.679 1437.61 L862.679 1462.5 L868.885 1462.5 L868.885 1465.69 L852.711 1465.69 L852.711 1462.5 Z" fill="#000000" fill-rule="evenodd" fill-opacity="1" /><path clip-path="url(#clip160)" d="M 0 0 M1275.12 1489.17 L1282.75 1489.17 L1282.75 1462.8 L1274.44 1464.47 L1274.44 1460.21 L1282.71 1458.54 L1287.38 1458.54 L1287.38 1489.17 L1295.02 1489.17 L1295.02 1493.1 L1275.12 1493.1 L1275.12 1489.17 Z" fill="#000000" fill-rule="evenodd" fill-opacity="1" /><path clip-path="url(#clip160)" d="M 0 0 M1314.47 1461.62 Q1310.86 1461.62 1309.03 1465.19 Q1307.22 1468.73 1307.22 1475.86 Q1307.22 1482.97 1309.03 1486.53 Q1310.86 1490.07 1314.47 1490.07 Q1318.1 1490.07 1319.91 1486.53 Q1321.74 1482.97 1321.74 1475.86 Q1321.74 1468.73 1319.91 1465.19 Q1318.1 1461.62 1314.47 1461.62 M1314.47 1457.92 Q1320.28 1457.92 1323.33 1462.53 Q1326.41 1467.11 1326.41 1475.86 Q1326.41 1484.59 1323.33 1489.19 Q1320.28 1493.78 1314.47 1493.78 Q1308.66 1493.78 1305.58 1489.19 Q1302.52 1484.59 1302.52 1475.86 Q1302.52 1467.11 1305.58 1462.53 Q1308.66 1457.92 1314.47 1457.92 Z" fill="#000000" fill-rule="evenodd" fill-opacity="1" /><path clip-path="url(#clip160)" d="M 0 0 M1336.12 1440.11 Q1333.18 1440.11 1331.7 1443.01 Q1330.23 1445.89 1330.23 1451.68 Q1330.23 1457.46 1331.7 1460.35 Q1333.18 1463.23 1336.12 1463.23 Q1339.07 1463.23 1340.54 1460.35 Q1342.02 1457.46 1342.02 1451.68 Q1342.02 1445.89 1340.54 1443.01 Q1339.07 1440.11 1336.12 1440.11 M1336.12 1437.11 Q1340.84 1437.11 1343.32 1440.85 Q1345.82 1444.57 1345.82 1451.68 Q1345.82 1458.77 1343.32 1462.51 Q1340.84 1466.24 1336.12 1466.24 Q1331.4 1466.24 1328.89 1462.51 Q1326.41 1458.77 1326.41 1451.68 Q1326.41 1444.57 1328.89 1440.85 Q1331.4 1437.11 1336.12 1437.11 Z" fill="#000000" fill-rule="evenodd" fill-opacity="1" /><path clip-path="url(#clip160)" d="M 0 0 M1768.26 1489.17 L1775.9 1489.17 L1775.9 1462.8 L1767.59 1464.47 L1767.59 1460.21 L1775.86 1458.54 L1780.53 1458.54 L1780.53 1489.17 L1788.17 1489.17 L1788.17 1493.1 L1768.26 1493.1 L1768.26 1489.17 Z" fill="#000000" fill-rule="evenodd" fill-opacity="1" /><path clip-path="url(#clip160)" d="M 0 0 M1807.62 1461.62 Q1804 1461.62 1802.18 1465.19 Q1800.37 1468.73 1800.37 1475.86 Q1800.37 1482.97 1802.18 1486.53 Q1804 1490.07 1807.62 1490.07 Q1811.25 1490.07 1813.06 1486.53 Q1814.88 1482.97 1814.88 1475.86 Q1814.88 1468.73 1813.06 1465.19 Q1811.25 1461.62 1807.62 1461.62 M1807.62 1457.92 Q1813.43 1457.92 1816.48 1462.53 Q1819.56 1467.11 1819.56 1475.86 Q1819.56 1484.59 1816.48 1489.19 Q1813.43 1493.78 1807.62 1493.78 Q1801.81 1493.78 1798.73 1489.19 Q1795.67 1484.59 1795.67 1475.86 Q1795.67 1467.11 1798.73 1462.53 Q1801.81 1457.92 1807.62 1457.92 Z" fill="#000000" fill-rule="evenodd" fill-opacity="1" /><path clip-path="url(#clip160)" d="M 0 0 M1820.11 1462.5 L1826.31 1462.5 L1826.31 1441.07 L1819.56 1442.43 L1819.56 1438.97 L1826.27 1437.61 L1830.07 1437.61 L1830.07 1462.5 L1836.28 1462.5 L1836.28 1465.69 L1820.11 1465.69 L1820.11 1462.5 Z" fill="#000000" fill-rule="evenodd" fill-opacity="1" /><path clip-path="url(#clip160)" d="M 0 0 M2259.51 1489.17 L2267.15 1489.17 L2267.15 1462.8 L2258.84 1464.47 L2258.84 1460.21 L2267.1 1458.54 L2271.78 1458.54 L2271.78 1489.17 L2279.42 1489.17 L2279.42 1493.1 L2259.51 1493.1 L2259.51 1489.17 Z" fill="#000000" fill-rule="evenodd" fill-opacity="1" /><path clip-path="url(#clip160)" d="M 0 0 M2298.86 1461.62 Q2295.25 1461.62 2293.42 1465.19 Q2291.62 1468.73 2291.62 1475.86 Q2291.62 1482.97 2293.42 1486.53 Q2295.25 1490.07 2298.86 1490.07 Q2302.5 1490.07 2304.3 1486.53 Q2306.13 1482.97 2306.13 1475.86 Q2306.13 1468.73 2304.3 1465.19 Q2302.5 1461.62 2298.86 1461.62 M2298.86 1457.92 Q2304.67 1457.92 2307.73 1462.53 Q2310.81 1467.11 2310.81 1475.86 Q2310.81 1484.59 2307.73 1489.19 Q2304.67 1493.78 2298.86 1493.78 Q2293.05 1493.78 2289.98 1489.19 Q2286.92 1484.59 2286.92 1475.86 Q2286.92 1467.11 2289.98 1462.53 Q2293.05 1457.92 2298.86 1457.92 Z" fill="#000000" fill-rule="evenodd" fill-opacity="1" /><path clip-path="url(#clip160)" d="M 0 0 M2315.38 1462.5 L2328.64 1462.5 L2328.64 1465.69 L2310.81 1465.69 L2310.81 1462.5 Q2312.97 1460.26 2316.7 1456.5 Q2320.44 1452.72 2321.4 1451.63 Q2323.22 1449.58 2323.94 1448.16 Q2324.67 1446.74 2324.67 1445.36 Q2324.67 1443.12 2323.09 1441.71 Q2321.53 1440.3 2319.01 1440.3 Q2317.22 1440.3 2315.23 1440.92 Q2313.25 1441.54 2311 1442.8 L2311 1438.97 Q2313.29 1438.05 2315.28 1437.58 Q2317.28 1437.11 2318.93 1437.11 Q2323.3 1437.11 2325.89 1439.29 Q2328.49 1441.47 2328.49 1445.12 Q2328.49 1446.85 2327.83 1448.41 Q2327.19 1449.95 2325.48 1452.06 Q2325.01 1452.6 2322.49 1455.22 Q2319.97 1457.81 2315.38 1462.5 Z" fill="#000000" fill-rule="evenodd" fill-opacity="1" /><path clip-path="url(#clip160)" d="M 0 0 M1300.42 1575.11 Q1287.22 1575.11 1287.22 1556.2 Q1287.22 1548.72 1292.15 1538.54 L1298.45 1538.54 Q1293.9 1548.72 1293.9 1556.36 Q1293.9 1570.14 1300.97 1570.14 Q1307.43 1570.14 1307.43 1553.02 L1312.84 1553.02 Q1312.84 1570.14 1319.3 1570.14 Q1326.37 1570.14 1326.37 1556.36 Q1326.37 1548.72 1321.81 1538.54 L1328.12 1538.54 Q1333.05 1548.72 1333.05 1556.2 Q1333.05 1575.11 1319.84 1575.11 Q1311.18 1575.11 1310.13 1565.59 Q1308.83 1575.11 1300.42 1575.11 Z" fill="#000000" fill-rule="evenodd" fill-opacity="1" /><polyline clip-path="url(#clip164)" style="stroke:#000000; stroke-width:2; stroke-opacity:0.1; fill:none" points="
  267.509,1306.68 2352.76,1306.68 
  "/>
<polyline clip-path="url(#clip164)" style="stroke:#000000; stroke-width:2; stroke-opacity:0.1; fill:none" points="
  267.509,1200.14 2352.76,1200.14 
  "/>
<polyline clip-path="url(#clip164)" style="stroke:#000000; stroke-width:2; stroke-opacity:0.1; fill:none" points="
  267.509,1093.61 2352.76,1093.61 
  "/>
<polyline clip-path="url(#clip164)" style="stroke:#000000; stroke-width:2; stroke-opacity:0.1; fill:none" points="
  267.509,987.068 2352.76,987.068 
  "/>
<polyline clip-path="url(#clip164)" style="stroke:#000000; stroke-width:2; stroke-opacity:0.1; fill:none" points="
  267.509,880.53 2352.76,880.53 
  "/>
<polyline clip-path="url(#clip160)" style="stroke:#000000; stroke-width:4; stroke-opacity:1; fill:none" points="
  267.509,1410.9 267.509,776.314 
  "/>
<polyline clip-path="url(#clip160)" style="stroke:#000000; stroke-width:4; stroke-opacity:1; fill:none" points="
  267.509,1306.68 292.532,1306.68 
  "/>
<polyline clip-path="url(#clip160)" style="stroke:#000000; stroke-width:4; stroke-opacity:1; fill:none" points="
  267.509,1200.14 292.532,1200.14 
  "/>
<polyline clip-path="url(#clip160)" style="stroke:#000000; stroke-width:4; stroke-opacity:1; fill:none" points="
  267.509,1093.61 292.532,1093.61 
  "/>
<polyline clip-path="url(#clip160)" style="stroke:#000000; stroke-width:4; stroke-opacity:1; fill:none" points="
  267.509,987.068 292.532,987.068 
  "/>
<polyline clip-path="url(#clip160)" style="stroke:#000000; stroke-width:4; stroke-opacity:1; fill:none" points="
  267.509,880.53 292.532,880.53 
  "/>
<polyline clip-path="url(#clip160)" style="stroke:#000000; stroke-width:4; stroke-opacity:1; fill:none" points="
  267.509,1391.91 280.021,1391.91 
  "/>
<polyline clip-path="url(#clip160)" style="stroke:#000000; stroke-width:4; stroke-opacity:1; fill:none" points="
  267.509,1370.6 280.021,1370.6 
  "/>
<polyline clip-path="url(#clip160)" style="stroke:#000000; stroke-width:4; stroke-opacity:1; fill:none" points="
  267.509,1349.3 280.021,1349.3 
  "/>
<polyline clip-path="url(#clip160)" style="stroke:#000000; stroke-width:4; stroke-opacity:1; fill:none" points="
  267.509,1327.99 280.021,1327.99 
  "/>
<polyline clip-path="url(#clip160)" style="stroke:#000000; stroke-width:4; stroke-opacity:1; fill:none" points="
  267.509,1285.37 280.021,1285.37 
  "/>
<polyline clip-path="url(#clip160)" style="stroke:#000000; stroke-width:4; stroke-opacity:1; fill:none" points="
  267.509,1264.07 280.021,1264.07 
  "/>
<polyline clip-path="url(#clip160)" style="stroke:#000000; stroke-width:4; stroke-opacity:1; fill:none" points="
  267.509,1242.76 280.021,1242.76 
  "/>
<polyline clip-path="url(#clip160)" style="stroke:#000000; stroke-width:4; stroke-opacity:1; fill:none" points="
  267.509,1221.45 280.021,1221.45 
  "/>
<polyline clip-path="url(#clip160)" style="stroke:#000000; stroke-width:4; stroke-opacity:1; fill:none" points="
  267.509,1178.84 280.021,1178.84 
  "/>
<polyline clip-path="url(#clip160)" style="stroke:#000000; stroke-width:4; stroke-opacity:1; fill:none" points="
  267.509,1157.53 280.021,1157.53 
  "/>
<polyline clip-path="url(#clip160)" style="stroke:#000000; stroke-width:4; stroke-opacity:1; fill:none" points="
  267.509,1136.22 280.021,1136.22 
  "/>
<polyline clip-path="url(#clip160)" style="stroke:#000000; stroke-width:4; stroke-opacity:1; fill:none" points="
  267.509,1114.91 280.021,1114.91 
  "/>
<polyline clip-path="url(#clip160)" style="stroke:#000000; stroke-width:4; stroke-opacity:1; fill:none" points="
  267.509,1072.3 280.021,1072.3 
  "/>
<polyline clip-path="url(#clip160)" style="stroke:#000000; stroke-width:4; stroke-opacity:1; fill:none" points="
  267.509,1050.99 280.021,1050.99 
  "/>
<polyline clip-path="url(#clip160)" style="stroke:#000000; stroke-width:4; stroke-opacity:1; fill:none" points="
  267.509,1029.68 280.021,1029.68 
  "/>
<polyline clip-path="url(#clip160)" style="stroke:#000000; stroke-width:4; stroke-opacity:1; fill:none" points="
  267.509,1008.38 280.021,1008.38 
  "/>
<polyline clip-path="url(#clip160)" style="stroke:#000000; stroke-width:4; stroke-opacity:1; fill:none" points="
  267.509,965.76 280.021,965.76 
  "/>
<polyline clip-path="url(#clip160)" style="stroke:#000000; stroke-width:4; stroke-opacity:1; fill:none" points="
  267.509,944.453 280.021,944.453 
  "/>
<polyline clip-path="url(#clip160)" style="stroke:#000000; stroke-width:4; stroke-opacity:1; fill:none" points="
  267.509,923.145 280.021,923.145 
  "/>
<polyline clip-path="url(#clip160)" style="stroke:#000000; stroke-width:4; stroke-opacity:1; fill:none" points="
  267.509,901.838 280.021,901.838 
  "/>
<polyline clip-path="url(#clip160)" style="stroke:#000000; stroke-width:4; stroke-opacity:1; fill:none" points="
  267.509,859.223 280.021,859.223 
  "/>
<polyline clip-path="url(#clip160)" style="stroke:#000000; stroke-width:4; stroke-opacity:1; fill:none" points="
  267.509,837.915 280.021,837.915 
  "/>
<polyline clip-path="url(#clip160)" style="stroke:#000000; stroke-width:4; stroke-opacity:1; fill:none" points="
  267.509,816.608 280.021,816.608 
  "/>
<polyline clip-path="url(#clip160)" style="stroke:#000000; stroke-width:4; stroke-opacity:1; fill:none" points="
  267.509,795.3 280.021,795.3 
  "/>
<path clip-path="url(#clip160)" d="M 0 0 M139.635 1307.13 L169.311 1307.13 L169.311 1311.07 L139.635 1311.07 L139.635 1307.13 Z" fill="#000000" fill-rule="evenodd" fill-opacity="1" /><path clip-path="url(#clip160)" d="M 0 0 M189.982 1304.82 Q186.834 1304.82 184.982 1306.97 Q183.153 1309.12 183.153 1312.87 Q183.153 1316.6 184.982 1318.78 Q186.834 1320.93 189.982 1320.93 Q193.13 1320.93 194.959 1318.78 Q196.811 1316.6 196.811 1312.87 Q196.811 1309.12 194.959 1306.97 Q193.13 1304.82 189.982 1304.82 M199.264 1290.16 L199.264 1294.42 Q197.505 1293.59 195.699 1293.15 Q193.917 1292.71 192.158 1292.71 Q187.528 1292.71 185.074 1295.84 Q182.644 1298.96 182.297 1305.28 Q183.662 1303.27 185.723 1302.2 Q187.783 1301.11 190.26 1301.11 Q195.468 1301.11 198.477 1304.29 Q201.51 1307.43 201.51 1312.87 Q201.51 1318.2 198.361 1321.41 Q195.213 1324.63 189.982 1324.63 Q183.987 1324.63 180.815 1320.05 Q177.644 1315.44 177.644 1306.72 Q177.644 1298.52 181.533 1293.66 Q185.422 1288.78 191.973 1288.78 Q193.732 1288.78 195.514 1289.12 Q197.32 1289.47 199.264 1290.16 Z" fill="#000000" fill-rule="evenodd" fill-opacity="1" /><path clip-path="url(#clip160)" d="M 0 0 M219.565 1292.48 Q215.954 1292.48 214.125 1296.04 Q212.32 1299.59 212.32 1306.72 Q212.32 1313.82 214.125 1317.39 Q215.954 1320.93 219.565 1320.93 Q223.199 1320.93 225.005 1317.39 Q226.834 1313.82 226.834 1306.72 Q226.834 1299.59 225.005 1296.04 Q223.199 1292.48 219.565 1292.48 M219.565 1288.78 Q225.375 1288.78 228.431 1293.38 Q231.509 1297.97 231.509 1306.72 Q231.509 1315.44 228.431 1320.05 Q225.375 1324.63 219.565 1324.63 Q213.755 1324.63 210.676 1320.05 Q207.621 1315.44 207.621 1306.72 Q207.621 1297.97 210.676 1293.38 Q213.755 1288.78 219.565 1288.78 Z" fill="#000000" fill-rule="evenodd" fill-opacity="1" /><path clip-path="url(#clip160)" d="M 0 0 M139.635 1200.59 L169.311 1200.59 L169.311 1204.53 L139.635 1204.53 L139.635 1200.59 Z" fill="#000000" fill-rule="evenodd" fill-opacity="1" /><path clip-path="url(#clip160)" d="M 0 0 M193.57 1198.79 Q196.926 1199.51 198.801 1201.78 Q200.699 1204.04 200.699 1207.38 Q200.699 1212.49 197.181 1215.29 Q193.662 1218.09 187.181 1218.09 Q185.005 1218.09 182.69 1217.65 Q180.399 1217.24 177.945 1216.38 L177.945 1211.87 Q179.889 1213 182.204 1213.58 Q184.519 1214.16 187.042 1214.16 Q191.44 1214.16 193.732 1212.42 Q196.047 1210.69 196.047 1207.38 Q196.047 1204.32 193.894 1202.61 Q191.764 1200.87 187.945 1200.87 L183.917 1200.87 L183.917 1197.03 L188.13 1197.03 Q191.579 1197.03 193.408 1195.66 Q195.236 1194.28 195.236 1191.68 Q195.236 1189.02 193.338 1187.61 Q191.463 1186.17 187.945 1186.17 Q186.024 1186.17 183.824 1186.59 Q181.625 1187.01 178.987 1187.89 L178.987 1183.72 Q181.649 1182.98 183.963 1182.61 Q186.301 1182.24 188.361 1182.24 Q193.686 1182.24 196.787 1184.67 Q199.889 1187.08 199.889 1191.2 Q199.889 1194.07 198.246 1196.06 Q196.602 1198.03 193.57 1198.79 Z" fill="#000000" fill-rule="evenodd" fill-opacity="1" /><path clip-path="url(#clip160)" d="M 0 0 M219.565 1185.94 Q215.954 1185.94 214.125 1189.51 Q212.32 1193.05 212.32 1200.18 Q212.32 1207.28 214.125 1210.85 Q215.954 1214.39 219.565 1214.39 Q223.199 1214.39 225.005 1210.85 Q226.834 1207.28 226.834 1200.18 Q226.834 1193.05 225.005 1189.51 Q223.199 1185.94 219.565 1185.94 M219.565 1182.24 Q225.375 1182.24 228.431 1186.84 Q231.509 1191.43 231.509 1200.18 Q231.509 1208.9 228.431 1213.51 Q225.375 1218.09 219.565 1218.09 Q213.755 1218.09 210.676 1213.51 Q207.621 1208.9 207.621 1200.18 Q207.621 1191.43 210.676 1186.84 Q213.755 1182.24 219.565 1182.24 Z" fill="#000000" fill-rule="evenodd" fill-opacity="1" /><path clip-path="url(#clip160)" d="M 0 0 M219.565 1079.4 Q215.954 1079.4 214.125 1082.97 Q212.32 1086.51 212.32 1093.64 Q212.32 1100.75 214.125 1104.31 Q215.954 1107.85 219.565 1107.85 Q223.199 1107.85 225.005 1104.31 Q226.834 1100.75 226.834 1093.64 Q226.834 1086.51 225.005 1082.97 Q223.199 1079.4 219.565 1079.4 M219.565 1075.7 Q225.375 1075.7 228.431 1080.31 Q231.509 1084.89 231.509 1093.64 Q231.509 1102.37 228.431 1106.97 Q225.375 1111.56 219.565 1111.56 Q213.755 1111.56 210.676 1106.97 Q207.621 1102.37 207.621 1093.64 Q207.621 1084.89 210.676 1080.31 Q213.755 1075.7 219.565 1075.7 Z" fill="#000000" fill-rule="evenodd" fill-opacity="1" /><path clip-path="url(#clip160)" d="M 0 0 M193.57 985.714 Q196.926 986.431 198.801 988.7 Q200.699 990.968 200.699 994.302 Q200.699 999.417 197.181 1002.22 Q193.662 1005.02 187.181 1005.02 Q185.005 1005.02 182.69 1004.58 Q180.399 1004.16 177.945 1003.31 L177.945 998.792 Q179.889 999.927 182.204 1000.51 Q184.519 1001.08 187.042 1001.08 Q191.44 1001.08 193.732 999.348 Q196.047 997.612 196.047 994.302 Q196.047 991.246 193.894 989.533 Q191.764 987.797 187.945 987.797 L183.917 987.797 L183.917 983.954 L188.13 983.954 Q191.579 983.954 193.408 982.589 Q195.236 981.2 195.236 978.607 Q195.236 975.945 193.338 974.533 Q191.463 973.098 187.945 973.098 Q186.024 973.098 183.824 973.515 Q181.625 973.931 178.987 974.811 L178.987 970.644 Q181.649 969.904 183.963 969.533 Q186.301 969.163 188.361 969.163 Q193.686 969.163 196.787 971.593 Q199.889 974.001 199.889 978.121 Q199.889 980.992 198.246 982.982 Q196.602 984.95 193.57 985.714 Z" fill="#000000" fill-rule="evenodd" fill-opacity="1" /><path clip-path="url(#clip160)" d="M 0 0 M219.565 972.867 Q215.954 972.867 214.125 976.431 Q212.32 979.973 212.32 987.103 Q212.32 994.209 214.125 997.774 Q215.954 1001.32 219.565 1001.32 Q223.199 1001.32 225.005 997.774 Q226.834 994.209 226.834 987.103 Q226.834 979.973 225.005 976.431 Q223.199 972.867 219.565 972.867 M219.565 969.163 Q225.375 969.163 228.431 973.769 Q231.509 978.353 231.509 987.103 Q231.509 995.829 228.431 1000.44 Q225.375 1005.02 219.565 1005.02 Q213.755 1005.02 210.676 1000.44 Q207.621 995.829 207.621 987.103 Q207.621 978.353 210.676 973.769 Q213.755 969.163 219.565 969.163 Z" fill="#000000" fill-rule="evenodd" fill-opacity="1" /><path clip-path="url(#clip160)" d="M 0 0 M189.982 878.667 Q186.834 878.667 184.982 880.82 Q183.153 882.972 183.153 886.722 Q183.153 890.449 184.982 892.625 Q186.834 894.778 189.982 894.778 Q193.13 894.778 194.959 892.625 Q196.811 890.449 196.811 886.722 Q196.811 882.972 194.959 880.82 Q193.13 878.667 189.982 878.667 M199.264 864.014 L199.264 868.273 Q197.505 867.44 195.699 867 Q193.917 866.56 192.158 866.56 Q187.528 866.56 185.074 869.685 Q182.644 872.81 182.297 879.13 Q183.662 877.116 185.723 876.051 Q187.783 874.963 190.26 874.963 Q195.468 874.963 198.477 878.134 Q201.51 881.283 201.51 886.722 Q201.51 892.046 198.361 895.264 Q195.213 898.482 189.982 898.482 Q183.987 898.482 180.815 893.898 Q177.644 889.292 177.644 880.565 Q177.644 872.371 181.533 867.509 Q185.422 862.625 191.973 862.625 Q193.732 862.625 195.514 862.972 Q197.32 863.32 199.264 864.014 Z" fill="#000000" fill-rule="evenodd" fill-opacity="1" /><path clip-path="url(#clip160)" d="M 0 0 M219.565 866.329 Q215.954 866.329 214.125 869.894 Q212.32 873.435 212.32 880.565 Q212.32 887.671 214.125 891.236 Q215.954 894.778 219.565 894.778 Q223.199 894.778 225.005 891.236 Q226.834 887.671 226.834 880.565 Q226.834 873.435 225.005 869.894 Q223.199 866.329 219.565 866.329 M219.565 862.625 Q225.375 862.625 228.431 867.232 Q231.509 871.815 231.509 880.565 Q231.509 889.292 228.431 893.898 Q225.375 898.482 219.565 898.482 Q213.755 898.482 210.676 893.898 Q207.621 889.292 207.621 880.565 Q207.621 871.815 210.676 867.232 Q213.755 862.625 219.565 862.625 Z" fill="#000000" fill-rule="evenodd" fill-opacity="1" /><path clip-path="url(#clip160)" d="M 0 0 M58.4734 1088.62 Q58.4734 1090.69 63.0885 1090.69 L84.9229 1090.69 Q84.9229 1087.67 81.6127 1084.65 Q78.6527 1081.94 71.5549 1081.94 Q64.9346 1081.94 61.3698 1084.68 Q58.4734 1086.91 58.4734 1088.62 M53.4763 1088.62 Q53.4763 1084.17 57.6777 1080.13 Q62.1655 1075.77 71.5549 1075.77 Q80.1805 1075.77 85.3049 1080.13 Q90.1428 1084.23 90.1428 1090.69 L102.938 1090.69 L102.938 1096.52 L90.1746 1096.52 Q90.1746 1102.85 85.3049 1107.12 Q80.3396 1111.45 71.5868 1111.45 Q62.4838 1111.45 57.8368 1107.12 Q54.3675 1103.87 53.4763 1098.59 L58.6644 1098.59 Q59.3964 1100.69 61.8791 1102.53 Q65.5393 1105.27 71.5868 1105.27 Q78.0161 1105.27 81.6764 1102.53 Q84.9547 1100.08 84.9547 1096.52 L63.0885 1096.52 Q53.4763 1096.52 53.4763 1088.62 Z" fill="#000000" fill-rule="evenodd" fill-opacity="1" /><polyline clip-path="url(#clip164)" style="stroke:#009af9; stroke-width:8; stroke-opacity:1; fill:none" points="
  326.526,1392.94 346.397,1390.97 366.268,1388.82 386.138,1386.47 406.009,1383.9 425.88,1381.08 445.751,1378.01 465.622,1374.65 485.493,1370.99 505.363,1367 
  525.234,1362.66 545.105,1357.96 564.976,1352.86 584.847,1347.35 604.718,1341.41 624.588,1335.03 644.459,1328.21 664.33,1320.94 684.201,1313.23 704.072,1305.11 
  723.943,1296.59 743.814,1287.73 763.684,1278.57 783.555,1269.17 803.426,1259.62 823.297,1249.98 843.168,1240.33 863.039,1230.75 882.909,1221.32 902.78,1212.1 
  922.651,1203.16 942.522,1194.54 962.393,1186.28 982.264,1178.39 1002.13,1170.9 1022.01,1163.81 1041.88,1157.11 1061.75,1150.79 1081.62,1144.83 1101.49,1139.21 
  1121.36,1133.91 1141.23,1128.89 1161.1,1124.13 1180.97,1119.6 1200.84,1115.27 1220.71,1111.1 1240.58,1107.07 1260.46,1103.15 1280.33,1099.3 1300.2,1095.5 
  1320.07,1091.71 1339.94,1087.91 1359.81,1084.06 1379.68,1080.14 1399.55,1076.11 1419.42,1071.94 1439.29,1067.61 1459.16,1063.08 1479.03,1058.32 1498.91,1053.31 
  1518.78,1048 1538.65,1042.38 1558.52,1036.42 1578.39,1030.1 1598.26,1023.4 1618.13,1016.31 1638,1008.82 1657.87,1000.94 1677.74,992.672 1697.61,984.051 
  1717.48,975.109 1737.36,965.894 1757.23,956.463 1777.1,946.886 1796.97,937.236 1816.84,927.593 1836.71,918.036 1856.58,908.643 1876.45,899.483 1896.32,890.62 
  1916.19,882.105 1936.06,873.98 1955.94,866.273 1975.81,859.003 1995.68,852.179 2015.55,845.801 2035.42,839.863 2055.29,834.353 2075.16,829.254 2095.03,824.547 
  2114.9,820.211 2134.77,816.223 2154.64,812.562 2174.51,809.205 2194.39,806.129 2214.26,803.314 2234.13,800.74 2254,798.387 2273.87,796.237 2293.74,794.274 
  
  "/>
</svg>