<?xml version="1.0" encoding="utf-8"?>
<svg xmlns="http://www.w3.org/2000/svg" xmlns:xlink="http://www.w3.org/1999/xlink" width="600" height="400" viewBox="0 0 2400 1600">
<defs>
  <clipPath id="clip080">
    <rect x="0" y="0" width="2400" height="1600"/>
  </clipPath>
</defs>
<path clip-path="url(#clip080)" d="
M0 1600 L2400 1600 L2400 0 L0 0  Z
  " fill="#ffffff" fill-rule="evenodd" fill-opacity="1"/>
<defs>
  <clipPath id="clip081">
    <rect x="480" y="0" width="1681" height="1600"/>
  </clipPath>
</defs>
<defs>
  <clipPath id="clip082">
    <rect x="289" y="779" width="2065" height="639"/>
  </clipPath>
</defs>
<path clip-path="url(#clip080)" d="
M243.003 665.436 L2352.76 665.436 L2352.76 47.2441 L243.003 47.2441  Z
  " fill="#ffffff" fill-rule="evenodd" fill-opacity="1"/>
<defs>
  <clipPath id="clip083">
    <rect x="243" y="47" width="2111" height="619"/>
  </clipPath>
</defs>
<polyline clip-path="url(#clip080)" style="stroke:#000000; stroke-width:4; stroke-opacity:1; fill:none" points="
  243.003,665.436 2352.76,665.436 
  "/>
<path clip-path="url(#clip080)" d="M 0 0 M1283.1 700.929 Q1283.1 703.924 1281.59 709.721 Q1280.98 712.233 1280.14 714.52 Q1279.33 716.774 1278.14 718.964 Q1276.95 721.154 1275.57 722.732 Q1274.18 724.278 1272.38 725.244 Q1270.57 726.21 1268.58 726.21 Q1265.42 726.21 1263.55 724.342 Q1261.72 722.442 1261.14 719.189 Q1256.82 726.21 1251.06 726.21 Q1247.48 726.21 1245.81 723.666 Q1244.13 721.09 1244.13 716.774 Q1244.13 713.135 1245.1 709.367 Q1246.94 702.217 1250.51 697.225 Q1250.99 696.645 1251.7 696.645 Q1252.12 696.645 1252.31 696.774 Q1252.89 697.128 1252.89 697.708 Q1252.89 698.127 1252.57 698.545 Q1250.32 701.669 1248.84 704.343 Q1247.35 707.016 1246.68 709.721 Q1246.16 712.04 1246.16 714.004 Q1246.16 717.321 1247.58 719.383 Q1249.03 721.444 1251.9 721.444 Q1254.54 721.444 1256.85 719.801 Q1259.17 718.127 1260.88 715.325 Q1260.98 712.265 1261.72 709.367 Q1262.39 706.275 1263.97 706.275 Q1265.23 706.275 1265.23 707.982 Q1265.23 708.561 1264.97 709.721 Q1264.26 712.78 1262.97 715.518 Q1263.42 718.191 1265.1 719.834 Q1266.77 721.444 1269.45 721.444 Q1271.93 721.444 1274.12 719.64 Q1276.34 717.837 1277.76 715.196 Q1279.21 712.523 1280.01 709.367 Q1280.27 708.304 1280.27 706.951 Q1280.27 703.344 1277.76 701.122 Q1277.05 700.413 1277.05 699.479 Q1277.05 698.384 1277.95 697.386 Q1279.01 696.323 1280.27 696.323 Q1281.2 696.323 1281.78 696.903 Q1283.1 698.062 1283.1 700.929 Z" fill="#000000" fill-rule="evenodd" fill-opacity="1" /><path clip-path="url(#clip080)" d="M 0 0 M1316.69 698.61 Q1316.69 700.864 1313.44 700.864 L1302.36 700.864 L1297.94 723.441 Q1297.85 724.02 1297.72 724.342 Q1297.62 724.664 1297.33 725.212 Q1297.08 725.727 1296.53 725.985 Q1296.01 726.275 1295.24 726.275 Q1294.27 726.275 1293.79 725.695 Q1293.34 725.148 1293.34 724.471 Q1293.34 724.053 1293.98 722.056 L1300.46 700.864 L1294.98 700.864 Q1289.83 700.864 1286.61 705.953 Q1286.09 706.629 1285.8 706.694 Q1285.67 706.726 1285.55 706.726 Q1285.19 706.726 1284.97 706.565 Q1284.77 706.404 1284.77 706.243 L1284.74 706.082 Q1284.74 705.856 1285.26 704.954 Q1285.8 704.02 1286.77 702.636 Q1287.77 701.251 1288.77 700.156 Q1290.09 698.739 1291.57 697.998 Q1293.05 697.225 1293.79 697.128 Q1294.56 697.032 1295.56 697.032 L1314.05 697.032 Q1314.89 697.032 1315.34 697.096 Q1315.79 697.128 1316.24 697.515 Q1316.69 697.869 1316.69 698.61 Z" fill="#000000" fill-rule="evenodd" fill-opacity="1" /><path clip-path="url(#clip080)" d="M 0 0 M1344.79 714.033 Q1344.79 714.462 1344.61 714.665 Q1344.45 714.845 1344.21 714.89 Q1343.96 714.913 1343.3 714.913 Q1342.2 714.913 1341.5 715.003 Q1340.8 715.07 1340.37 715.183 Q1339.95 715.273 1339.7 715.589 Q1339.47 715.882 1339.36 716.152 Q1339.27 716.423 1339.11 717.032 L1332.93 741.627 Q1332.73 742.349 1332.73 742.709 Q1332.73 743.093 1332.96 743.251 Q1333.18 743.408 1333.9 743.476 Q1335.05 743.589 1335.89 743.589 Q1336.99 743.589 1337.15 743.746 Q1337.26 743.904 1337.26 744.13 Q1337.26 744.536 1337.08 744.761 Q1336.9 744.964 1336.74 744.986 Q1336.61 745.009 1336.34 745.009 L1330.16 744.874 L1324.1 745.009 Q1323.42 745.009 1323.42 744.49 Q1323.42 744.152 1323.47 743.972 Q1323.53 743.769 1323.76 743.701 Q1324.01 743.611 1324.19 743.611 Q1324.37 743.589 1324.89 743.589 Q1325.81 743.589 1326.42 743.566 Q1327.05 743.521 1327.5 743.408 Q1327.97 743.273 1328.2 743.16 Q1328.45 743.025 1328.63 742.732 Q1328.83 742.416 1328.9 742.168 Q1328.99 741.92 1329.1 741.402 L1335.32 716.513 Q1335.41 716.107 1335.41 715.792 Q1335.41 715.183 1334.69 715.048 Q1333.99 714.913 1332.24 714.913 Q1331.69 714.913 1331.47 714.89 Q1331.27 714.867 1331.09 714.755 Q1330.93 714.642 1330.93 714.394 Q1330.93 714.078 1331.02 713.876 Q1331.11 713.65 1331.27 713.582 Q1331.45 713.515 1331.56 713.492 Q1331.67 713.47 1331.85 713.47 L1338.01 713.605 L1344.09 713.47 Q1344.79 713.47 1344.79 714.033 Z" fill="#000000" fill-rule="evenodd" fill-opacity="1" /><polyline clip-path="url(#clip083)" style="stroke:#000000; stroke-width:2; stroke-opacity:0.1; fill:none" points="
  243.003,647.946 2352.76,647.946 
  "/>
<polyline clip-path="url(#clip083)" style="stroke:#000000; stroke-width:2; stroke-opacity:0.1; fill:none" points="
  243.003,502.146 2352.76,502.146 
  "/>
<polyline clip-path="url(#clip083)" style="stroke:#000000; stroke-width:2; stroke-opacity:0.1; fill:none" points="
  243.003,356.346 2352.76,356.346 
  "/>
<polyline clip-path="url(#clip083)" style="stroke:#000000; stroke-width:2; stroke-opacity:0.1; fill:none" points="
  243.003,210.546 2352.76,210.546 
  "/>
<polyline clip-path="url(#clip083)" style="stroke:#000000; stroke-width:2; stroke-opacity:0.1; fill:none" points="
  243.003,64.7464 2352.76,64.7464 
  "/>
<polyline clip-path="url(#clip080)" style="stroke:#000000; stroke-width:4; stroke-opacity:1; fill:none" points="
  243.003,665.436 243.003,47.2441 
  "/>
<polyline clip-path="url(#clip080)" style="stroke:#000000; stroke-width:4; stroke-opacity:1; fill:none" points="
  243.003,647.946 268.32,647.946 
  "/>
<polyline clip-path="url(#clip080)" style="stroke:#000000; stroke-width:4; stroke-opacity:1; fill:none" points="
  243.003,502.146 268.32,502.146 
  "/>
<polyline clip-path="url(#clip080)" style="stroke:#000000; stroke-width:4; stroke-opacity:1; fill:none" points="
  243.003,356.346 268.32,356.346 
  "/>
<polyline clip-path="url(#clip080)" style="stroke:#000000; stroke-width:4; stroke-opacity:1; fill:none" points="
  243.003,210.546 268.32,210.546 
  "/>
<polyline clip-path="url(#clip080)" style="stroke:#000000; stroke-width:4; stroke-opacity:1; fill:none" points="
  243.003,64.7464 268.32,64.7464 
  "/>
<polyline clip-path="url(#clip080)" style="stroke:#000000; stroke-width:4; stroke-opacity:1; fill:none" points="
  243.003,602.433 255.661,602.433 
  "/>
<polyline clip-path="url(#clip080)" style="stroke:#000000; stroke-width:4; stroke-opacity:1; fill:none" points="
  243.003,569.022 255.661,569.022 
  "/>
<polyline clip-path="url(#clip080)" style="stroke:#000000; stroke-width:4; stroke-opacity:1; fill:none" points="
  243.003,542.612 255.661,542.612 
  "/>
<polyline clip-path="url(#clip080)" style="stroke:#000000; stroke-width:4; stroke-opacity:1; fill:none" points="
  243.003,520.77 255.661,520.77 
  "/>
<polyline clip-path="url(#clip080)" style="stroke:#000000; stroke-width:4; stroke-opacity:1; fill:none" points="
  243.003,456.633 255.661,456.633 
  "/>
<polyline clip-path="url(#clip080)" style="stroke:#000000; stroke-width:4; stroke-opacity:1; fill:none" points="
  243.003,423.222 255.661,423.222 
  "/>
<polyline clip-path="url(#clip080)" style="stroke:#000000; stroke-width:4; stroke-opacity:1; fill:none" points="
  243.003,396.812 255.661,396.812 
  "/>
<polyline clip-path="url(#clip080)" style="stroke:#000000; stroke-width:4; stroke-opacity:1; fill:none" points="
  243.003,374.97 255.661,374.97 
  "/>
<polyline clip-path="url(#clip080)" style="stroke:#000000; stroke-width:4; stroke-opacity:1; fill:none" points="
  243.003,310.833 255.661,310.833 
  "/>
<polyline clip-path="url(#clip080)" style="stroke:#000000; stroke-width:4; stroke-opacity:1; fill:none" points="
  243.003,277.422 255.661,277.422 
  "/>
<polyline clip-path="url(#clip080)" style="stroke:#000000; stroke-width:4; stroke-opacity:1; fill:none" points="
  243.003,251.012 255.661,251.012 
  "/>
<polyline clip-path="url(#clip080)" style="stroke:#000000; stroke-width:4; stroke-opacity:1; fill:none" points="
  243.003,229.17 255.661,229.17 
  "/>
<polyline clip-path="url(#clip080)" style="stroke:#000000; stroke-width:4; stroke-opacity:1; fill:none" points="
  243.003,165.033 255.661,165.033 
  "/>
<polyline clip-path="url(#clip080)" style="stroke:#000000; stroke-width:4; stroke-opacity:1; fill:none" points="
  243.003,131.623 255.661,131.623 
  "/>
<polyline clip-path="url(#clip080)" style="stroke:#000000; stroke-width:4; stroke-opacity:1; fill:none" points="
  243.003,105.212 255.661,105.212 
  "/>
<polyline clip-path="url(#clip080)" style="stroke:#000000; stroke-width:4; stroke-opacity:1; fill:none" points="
  243.003,83.3696 255.661,83.3696 
  "/>
<path clip-path="url(#clip080)" d="M 0 0 M99.5469 667.739 L107.186 667.739 L107.186 641.373 L98.8756 643.04 L98.8756 638.781 L107.139 637.114 L111.815 637.114 L111.815 667.739 L119.454 667.739 L119.454 671.674 L99.5469 671.674 L99.5469 667.739 Z" fill="#000000" fill-rule="evenodd" fill-opacity="1" /><path clip-path="url(#clip080)" d="M 0 0 M138.899 640.193 Q135.287 640.193 133.459 643.757 Q131.653 647.299 131.653 654.429 Q131.653 661.535 133.459 665.1 Q135.287 668.642 138.899 668.642 Q142.533 668.642 144.338 665.1 Q146.167 661.535 146.167 654.429 Q146.167 647.299 144.338 643.757 Q142.533 640.193 138.899 640.193 M138.899 636.489 Q144.709 636.489 147.764 641.095 Q150.843 645.679 150.843 654.429 Q150.843 663.155 147.764 667.762 Q144.709 672.345 138.899 672.345 Q133.088 672.345 130.01 667.762 Q126.954 663.155 126.954 654.429 Q126.954 645.679 130.01 641.095 Q133.088 636.489 138.899 636.489 Z" fill="#000000" fill-rule="evenodd" fill-opacity="1" /><path clip-path="url(#clip080)" d="M 0 0 M160.548 618.685 Q157.614 618.685 156.128 621.581 Q154.661 624.459 154.661 630.252 Q154.661 636.026 156.128 638.922 Q157.614 641.8 160.548 641.8 Q163.501 641.8 164.968 638.922 Q166.453 636.026 166.453 630.252 Q166.453 624.459 164.968 621.581 Q163.501 618.685 160.548 618.685 M160.548 615.676 Q165.268 615.676 167.751 619.418 Q170.253 623.142 170.253 630.252 Q170.253 637.342 167.751 641.085 Q165.268 644.809 160.548 644.809 Q155.827 644.809 153.326 641.085 Q150.843 637.342 150.843 630.252 Q150.843 623.142 153.326 619.418 Q155.827 615.676 160.548 615.676 Z" fill="#000000" fill-rule="evenodd" fill-opacity="1" /><path clip-path="url(#clip080)" d="M 0 0 M176.929 639.486 L180.898 639.486 L180.898 644.264 L176.929 644.264 L176.929 639.486 Z" fill="#000000" fill-rule="evenodd" fill-opacity="1" /><path clip-path="url(#clip080)" d="M 0 0 M197.298 618.685 Q194.364 618.685 192.878 621.581 Q191.411 624.459 191.411 630.252 Q191.411 636.026 192.878 638.922 Q194.364 641.8 197.298 641.8 Q200.251 641.8 201.718 638.922 Q203.204 636.026 203.204 630.252 Q203.204 624.459 201.718 621.581 Q200.251 618.685 197.298 618.685 M197.298 615.676 Q202.019 615.676 204.501 619.418 Q207.003 623.142 207.003 630.252 Q207.003 637.342 204.501 641.085 Q202.019 644.809 197.298 644.809 Q192.577 644.809 190.076 641.085 Q187.593 637.342 187.593 630.252 Q187.593 623.142 190.076 619.418 Q192.577 615.676 197.298 615.676 Z" fill="#000000" fill-rule="evenodd" fill-opacity="1" /><path clip-path="url(#clip080)" d="M 0 0 M100.356 521.939 L107.994 521.939 L107.994 495.573 L99.6843 497.24 L99.6843 492.981 L107.948 491.314 L112.624 491.314 L112.624 521.939 L120.263 521.939 L120.263 525.874 L100.356 525.874 L100.356 521.939 Z" fill="#000000" fill-rule="evenodd" fill-opacity="1" /><path clip-path="url(#clip080)" d="M 0 0 M139.707 494.393 Q136.096 494.393 134.267 497.957 Q132.462 501.499 132.462 508.629 Q132.462 515.735 134.267 519.3 Q136.096 522.842 139.707 522.842 Q143.341 522.842 145.147 519.3 Q146.976 515.735 146.976 508.629 Q146.976 501.499 145.147 497.957 Q143.341 494.393 139.707 494.393 M139.707 490.689 Q145.517 490.689 148.573 495.295 Q151.652 499.879 151.652 508.629 Q151.652 517.355 148.573 521.962 Q145.517 526.545 139.707 526.545 Q133.897 526.545 130.818 521.962 Q127.763 517.355 127.763 508.629 Q127.763 499.879 130.818 495.295 Q133.897 490.689 139.707 490.689 Z" fill="#000000" fill-rule="evenodd" fill-opacity="1" /><path clip-path="url(#clip080)" d="M 0 0 M161.356 472.885 Q158.422 472.885 156.937 475.781 Q155.47 478.659 155.47 484.452 Q155.47 490.226 156.937 493.122 Q158.422 496 161.356 496 Q164.309 496 165.776 493.122 Q167.262 490.226 167.262 484.452 Q167.262 478.659 165.776 475.781 Q164.309 472.885 161.356 472.885 M161.356 469.876 Q166.077 469.876 168.56 473.618 Q171.061 477.342 171.061 484.452 Q171.061 491.542 168.56 495.285 Q166.077 499.009 161.356 499.009 Q156.636 499.009 154.134 495.285 Q151.652 491.542 151.652 484.452 Q151.652 477.342 154.134 473.618 Q156.636 469.876 161.356 469.876 Z" fill="#000000" fill-rule="evenodd" fill-opacity="1" /><path clip-path="url(#clip080)" d="M 0 0 M177.738 493.686 L181.706 493.686 L181.706 498.464 L177.738 498.464 L177.738 493.686 Z" fill="#000000" fill-rule="evenodd" fill-opacity="1" /><path clip-path="url(#clip080)" d="M 0 0 M190.019 470.384 L204.934 470.384 L204.934 473.581 L193.499 473.581 L193.499 480.465 Q194.326 480.182 195.154 480.051 Q195.982 479.9 196.809 479.9 Q201.511 479.9 204.257 482.477 Q207.003 485.054 207.003 489.455 Q207.003 493.987 204.182 496.508 Q201.361 499.009 196.226 499.009 Q194.458 499.009 192.615 498.708 Q190.791 498.407 188.835 497.805 L188.835 493.987 Q190.527 494.909 192.333 495.36 Q194.138 495.812 196.151 495.812 Q199.405 495.812 201.304 494.1 Q203.204 492.389 203.204 489.455 Q203.204 486.521 201.304 484.809 Q199.405 483.098 196.151 483.098 Q194.627 483.098 193.104 483.436 Q191.599 483.775 190.019 484.489 L190.019 470.384 Z" fill="#000000" fill-rule="evenodd" fill-opacity="1" /><path clip-path="url(#clip080)" d="M 0 0 M101.24 376.139 L108.878 376.139 L108.878 349.773 L100.568 351.44 L100.568 347.181 L108.832 345.514 L113.508 345.514 L113.508 376.139 L121.147 376.139 L121.147 380.074 L101.24 380.074 L101.24 376.139 Z" fill="#000000" fill-rule="evenodd" fill-opacity="1" /><path clip-path="url(#clip080)" d="M 0 0 M140.591 348.593 Q136.98 348.593 135.151 352.157 Q133.346 355.699 133.346 362.829 Q133.346 369.935 135.151 373.5 Q136.98 377.042 140.591 377.042 Q144.225 377.042 146.031 373.5 Q147.86 369.935 147.86 362.829 Q147.86 355.699 146.031 352.157 Q144.225 348.593 140.591 348.593 M140.591 344.889 Q146.401 344.889 149.457 349.495 Q152.536 354.079 152.536 362.829 Q152.536 371.556 149.457 376.162 Q146.401 380.745 140.591 380.745 Q134.781 380.745 131.702 376.162 Q128.647 371.556 128.647 362.829 Q128.647 354.079 131.702 349.495 Q134.781 344.889 140.591 344.889 Z" fill="#000000" fill-rule="evenodd" fill-opacity="1" /><path clip-path="url(#clip080)" d="M 0 0 M153.081 349.466 L159.288 349.466 L159.288 328.044 L152.536 329.398 L152.536 325.938 L159.25 324.584 L163.049 324.584 L163.049 349.466 L169.256 349.466 L169.256 352.664 L153.081 352.664 L153.081 349.466 Z" fill="#000000" fill-rule="evenodd" fill-opacity="1" /><path clip-path="url(#clip080)" d="M 0 0 M176.929 347.886 L180.898 347.886 L180.898 352.664 L176.929 352.664 L176.929 347.886 Z" fill="#000000" fill-rule="evenodd" fill-opacity="1" /><path clip-path="url(#clip080)" d="M 0 0 M197.298 327.085 Q194.364 327.085 192.878 329.981 Q191.411 332.859 191.411 338.652 Q191.411 344.426 192.878 347.322 Q194.364 350.2 197.298 350.2 Q200.251 350.2 201.718 347.322 Q203.204 344.426 203.204 338.652 Q203.204 332.859 201.718 329.981 Q200.251 327.085 197.298 327.085 M197.298 324.076 Q202.019 324.076 204.501 327.819 Q207.003 331.542 207.003 338.652 Q207.003 345.742 204.501 349.485 Q202.019 353.209 197.298 353.209 Q192.577 353.209 190.076 349.485 Q187.593 345.742 187.593 338.652 Q187.593 331.542 190.076 327.819 Q192.577 324.076 197.298 324.076 Z" fill="#000000" fill-rule="evenodd" fill-opacity="1" /><path clip-path="url(#clip080)" d="M 0 0 M102.048 230.339 L109.687 230.339 L109.687 203.973 L101.377 205.64 L101.377 201.381 L109.641 199.714 L114.317 199.714 L114.317 230.339 L121.956 230.339 L121.956 234.274 L102.048 234.274 L102.048 230.339 Z" fill="#000000" fill-rule="evenodd" fill-opacity="1" /><path clip-path="url(#clip080)" d="M 0 0 M141.4 202.793 Q137.789 202.793 135.96 206.357 Q134.155 209.899 134.155 217.029 Q134.155 224.135 135.96 227.7 Q137.789 231.242 141.4 231.242 Q145.034 231.242 146.84 227.7 Q148.668 224.135 148.668 217.029 Q148.668 209.899 146.84 206.357 Q145.034 202.793 141.4 202.793 M141.4 199.089 Q147.21 199.089 150.266 203.695 Q153.344 208.279 153.344 217.029 Q153.344 225.756 150.266 230.362 Q147.21 234.945 141.4 234.945 Q135.59 234.945 132.511 230.362 Q129.456 225.756 129.456 217.029 Q129.456 208.279 132.511 203.695 Q135.59 199.089 141.4 199.089 Z" fill="#000000" fill-rule="evenodd" fill-opacity="1" /><path clip-path="url(#clip080)" d="M 0 0 M153.89 203.666 L160.096 203.666 L160.096 182.244 L153.344 183.598 L153.344 180.138 L160.059 178.784 L163.858 178.784 L163.858 203.666 L170.064 203.666 L170.064 206.864 L153.89 206.864 L153.89 203.666 Z" fill="#000000" fill-rule="evenodd" fill-opacity="1" /><path clip-path="url(#clip080)" d="M 0 0 M177.738 202.086 L181.706 202.086 L181.706 206.864 L177.738 206.864 L177.738 202.086 Z" fill="#000000" fill-rule="evenodd" fill-opacity="1" /><path clip-path="url(#clip080)" d="M 0 0 M190.019 178.784 L204.934 178.784 L204.934 181.981 L193.499 181.981 L193.499 188.865 Q194.326 188.582 195.154 188.451 Q195.982 188.3 196.809 188.3 Q201.511 188.3 204.257 190.877 Q207.003 193.454 207.003 197.855 Q207.003 202.387 204.182 204.908 Q201.361 207.409 196.226 207.409 Q194.458 207.409 192.615 207.108 Q190.791 206.807 188.835 206.205 L188.835 202.387 Q190.527 203.309 192.333 203.76 Q194.138 204.212 196.151 204.212 Q199.405 204.212 201.304 202.5 Q203.204 200.789 203.204 197.855 Q203.204 194.921 201.304 193.209 Q199.405 191.498 196.151 191.498 Q194.627 191.498 193.104 191.836 Q191.599 192.175 190.019 192.889 L190.019 178.784 Z" fill="#000000" fill-rule="evenodd" fill-opacity="1" /><path clip-path="url(#clip080)" d="M 0 0 M99.829 84.5389 L107.468 84.5389 L107.468 58.1733 L99.1577 59.8399 L99.1577 55.5807 L107.422 53.914 L112.097 53.914 L112.097 84.5389 L119.736 84.5389 L119.736 88.474 L99.829 88.474 L99.829 84.5389 Z" fill="#000000" fill-rule="evenodd" fill-opacity="1" /><path clip-path="url(#clip080)" d="M 0 0 M139.181 56.9927 Q135.57 56.9927 133.741 60.5575 Q131.935 64.0992 131.935 71.2287 Q131.935 78.3352 133.741 81.9 Q135.57 85.4416 139.181 85.4416 Q142.815 85.4416 144.62 81.9 Q146.449 78.3352 146.449 71.2287 Q146.449 64.0992 144.62 60.5575 Q142.815 56.9927 139.181 56.9927 M139.181 53.289 Q144.991 53.289 148.046 57.8955 Q151.125 62.4788 151.125 71.2287 Q151.125 79.9556 148.046 84.562 Q144.991 89.1453 139.181 89.1453 Q133.37 89.1453 130.292 84.562 Q127.236 79.9556 127.236 71.2287 Q127.236 62.4788 130.292 57.8955 Q133.37 53.289 139.181 53.289 Z" fill="#000000" fill-rule="evenodd" fill-opacity="1" /><path clip-path="url(#clip080)" d="M 0 0 M155.695 57.8663 L168.955 57.8663 L168.955 61.0636 L151.125 61.0636 L151.125 57.8663 Q153.288 55.6282 157.012 51.8666 Q160.755 48.0863 161.714 46.9954 Q163.538 44.9454 164.253 43.5348 Q164.986 42.1054 164.986 40.7324 Q164.986 38.4943 163.406 37.0837 Q161.845 35.6731 159.325 35.6731 Q157.538 35.6731 155.545 36.2938 Q153.57 36.9144 151.313 38.1746 L151.313 34.3378 Q153.608 33.4162 155.601 32.946 Q157.595 32.4758 159.25 32.4758 Q163.613 32.4758 166.209 34.6575 Q168.804 36.8392 168.804 40.4879 Q168.804 42.2182 168.146 43.7793 Q167.507 45.3215 165.795 47.428 Q165.325 47.9734 162.805 50.5877 Q160.284 53.1832 155.695 57.8663 Z" fill="#000000" fill-rule="evenodd" fill-opacity="1" /><path clip-path="url(#clip080)" d="M 0 0 M176.929 56.2865 L180.898 56.2865 L180.898 61.0636 L176.929 61.0636 L176.929 56.2865 Z" fill="#000000" fill-rule="evenodd" fill-opacity="1" /><path clip-path="url(#clip080)" d="M 0 0 M197.298 35.4851 Q194.364 35.4851 192.878 38.3815 Q191.411 41.259 191.411 47.0518 Q191.411 52.8258 192.878 55.7222 Q194.364 58.5998 197.298 58.5998 Q200.251 58.5998 201.718 55.7222 Q203.204 52.8258 203.204 47.0518 Q203.204 41.259 201.718 38.3815 Q200.251 35.4851 197.298 35.4851 M197.298 32.4758 Q202.019 32.4758 204.501 36.2186 Q207.003 39.9425 207.003 47.0518 Q207.003 54.1424 204.501 57.8851 Q202.019 61.609 197.298 61.609 Q192.577 61.609 190.076 57.8851 Q187.593 54.1424 187.593 47.0518 Q187.593 39.9425 190.076 36.2186 Q192.577 32.4758 197.298 32.4758 Z" fill="#000000" fill-rule="evenodd" fill-opacity="1" /><path clip-path="url(#clip080)" d="M 0 0 M29.7691 365.72 Q28.7064 365.72 27.8368 366.01 Q26.935 366.268 26.3231 366.686 Q25.679 367.073 25.1959 367.814 Q24.6806 368.554 24.3586 369.166 Q24.0365 369.778 23.8433 370.809 Q23.6178 371.839 23.5212 372.516 Q23.3924 373.192 23.328 374.351 Q23.2636 375.511 23.2636 376.09 Q23.2636 376.638 23.2636 377.733 Q23.2636 381.179 23.328 381.759 Q23.4568 382.628 23.9721 382.95 Q24.4552 383.272 25.7756 383.594 L42.9735 387.878 L42.9735 380.503 Q42.9735 376.477 41.8463 373.707 Q40.7191 370.938 39.1411 369.359 Q37.4019 367.62 34.6 366.686 Q31.7981 365.72 29.7691 365.72 M60.1393 358.538 Q60.4935 358.538 61.2987 358.828 Q62.1038 359.086 63.231 359.73 Q64.326 360.374 65.3244 361.244 Q66.3228 362.113 66.9991 363.498 Q67.7077 364.883 67.7077 366.461 Q67.7077 366.847 67.6754 367.234 Q67.6754 367.62 67.5144 368.586 Q67.3856 369.52 67.1279 370.293 Q66.9025 371.066 66.355 372.033 Q65.8397 372.999 65.1312 373.675 Q64.3904 374.319 63.231 374.77 Q62.0394 375.221 60.5902 375.221 Q59.3019 375.221 54.9863 374.158 Q51.3149 373.224 50.4131 373.224 Q49.4147 373.224 48.4808 373.546 Q47.5468 373.836 46.5806 374.577 Q45.6144 375.285 45.0347 376.799 Q44.4228 378.313 44.4228 380.438 L44.4228 388.264 L61.9106 392.644 Q61.9428 392.644 62.3937 392.741 Q62.8124 392.838 63.0378 392.838 Q63.4565 392.838 63.7141 392.58 Q63.9718 392.29 64.1006 391.581 Q64.1972 390.873 64.2294 390.325 Q64.2294 389.746 64.2294 388.554 Q64.2294 387.073 64.4871 386.815 Q64.6481 386.686 64.9379 386.686 Q65.3888 386.686 65.7109 386.815 Q66.0007 386.912 66.0974 387.169 Q66.194 387.395 66.2262 387.556 Q66.2584 387.717 66.2584 388.007 L66.0652 396.38 L66.2584 404.689 Q66.2584 405.623 65.5177 405.623 Q64.8735 405.623 64.6159 405.398 Q64.326 405.172 64.2938 404.882 Q64.2294 404.593 64.2294 403.852 Q64.2294 402.242 64.1328 401.275 Q64.0362 400.309 63.9074 399.697 Q63.7463 399.053 63.2954 398.731 Q62.8446 398.377 62.4581 398.216 Q62.0394 398.055 61.1054 397.829 L25.679 389.005 Q24.6162 388.747 24.4552 388.747 Q23.8433 388.747 23.6822 389.134 Q23.489 389.488 23.3924 390.519 L23.2636 393.031 Q23.2636 393.804 23.2314 394.126 Q23.1992 394.416 23.0381 394.641 Q22.8771 394.866 22.5228 394.866 Q21.6211 394.866 21.4278 394.48 Q21.2024 394.094 21.2024 392.966 L21.2024 374.158 Q21.2024 367.749 24.0043 363.691 Q26.8062 359.601 31.0896 359.601 Q33.0219 359.601 34.8255 360.471 Q36.629 361.34 38.0461 362.789 Q39.4631 364.206 40.6547 366.107 Q41.8141 368.007 42.6193 370.036 Q43.3922 372.033 43.8431 374.094 Q44.1652 373.192 44.6483 372.355 Q45.1313 371.485 46.0331 370.39 Q46.9349 369.263 48.3841 368.586 Q49.8334 367.91 51.6047 367.91 Q52.8607 367.91 54.7287 368.168 Q60.0427 368.812 62.2327 368.812 Q64.326 368.812 65.2922 368.264 Q66.2584 367.717 66.2584 366.171 Q66.2584 364.657 64.9057 362.983 Q63.5209 361.276 60.2681 360.181 Q59.3341 359.923 59.3341 359.311 Q59.3341 359.279 59.3341 359.247 Q59.3341 359.182 59.3985 359.054 Q59.4307 358.925 59.5274 358.828 Q59.5918 358.699 59.7528 358.635 Q59.9138 358.538 60.1393 358.538 Z" fill="#000000" fill-rule="evenodd" fill-opacity="1" /><path clip-path="url(#clip080)" d="M 0 0 M64.9379 310.804 Q65.5499 310.804 65.8719 311.061 Q66.1618 311.287 66.2262 311.512 Q66.2584 311.705 66.2584 311.995 Q66.2584 312.833 66.1618 315.731 Q66.0652 318.63 66.0652 319.467 Q66.0652 320.82 66.1618 323.589 Q66.2584 326.359 66.2584 327.712 Q66.2584 328.614 65.5177 328.614 Q65.0346 328.614 64.7769 328.517 Q64.4871 328.42 64.3904 328.163 Q64.2616 327.873 64.2616 327.712 Q64.2294 327.519 64.2294 327.035 Q64.2294 326.391 64.165 325.715 Q64.0684 325.039 63.8752 324.201 Q63.6819 323.364 63.1988 322.849 Q62.7157 322.301 62.0394 322.301 Q61.7496 322.301 59.3663 322.527 Q56.9831 322.752 54.2134 323.042 Q51.4115 323.332 51.025 323.364 L51.025 339.918 Q53.6337 341.432 55.4372 342.494 Q57.2407 343.557 57.8527 343.944 Q58.4646 344.33 58.851 344.555 Q59.2375 344.781 59.4629 344.91 Q61.1699 345.844 61.9106 345.844 Q63.9718 345.844 64.2294 342.752 Q64.2294 341.689 65.0024 341.689 Q65.5821 341.689 65.9041 341.947 Q66.194 342.204 66.2262 342.43 Q66.2584 342.623 66.2584 342.945 Q66.2584 344.008 66.1618 346.23 Q66.0652 348.452 66.0652 349.547 Q66.0652 350.481 66.1618 352.414 Q66.2584 354.346 66.2584 355.216 Q66.2584 355.602 66.0329 355.828 Q65.8075 356.053 65.5177 356.053 Q65.0668 356.053 64.8091 355.989 Q64.5515 355.892 64.4227 355.634 Q64.2938 355.377 64.2938 355.248 Q64.2616 355.119 64.2294 354.668 Q64.0684 352.22 62.909 350.32 Q61.7174 348.388 58.6578 346.552 L20.1396 323.622 Q19.7531 323.396 19.5599 323.235 Q19.3667 323.074 19.2056 322.752 Q19.0446 322.398 19.0446 321.883 Q19.0446 321.077 19.3022 320.916 Q19.5277 320.755 20.6227 320.659 L61.8462 316.633 Q62.7157 316.536 63.07 316.472 Q63.3921 316.375 63.7463 315.957 Q64.0684 315.506 64.165 314.701 Q64.2294 313.863 64.2294 312.317 Q64.2294 311.738 64.2616 311.512 Q64.2616 311.287 64.4227 311.061 Q64.5837 310.804 64.9379 310.804 M48.9638 323.557 L27.2249 325.651 L48.9638 338.662 L48.9638 323.557 Z" fill="#000000" fill-rule="evenodd" fill-opacity="1" /><polyline clip-path="url(#clip083)" style="stroke:#009af9; stroke-width:8; stroke-opacity:1; fill:none" points="
  302.713,64.7401 322.817,76.5206 342.922,88.3009 363.026,100.081 383.13,111.86 403.235,123.639 423.339,135.418 443.443,147.196 463.548,158.973 483.652,170.749 
  503.757,182.524 523.861,194.297 543.965,206.069 564.07,217.839 584.174,229.606 604.278,241.371 624.383,253.131 644.487,264.888 664.592,276.639 684.696,288.384 
  704.8,300.122 724.905,311.85 745.009,323.568 765.113,335.273 785.218,346.962 805.322,358.632 825.427,370.28 845.531,381.9 865.635,393.489 885.74,405.038 
  905.844,416.541 925.948,427.989 946.053,439.37 966.157,450.673 986.262,461.883 1006.37,472.983 1026.47,483.953 1046.57,494.771 1066.68,505.411 1086.78,515.844 
  1106.89,526.038 1126.99,535.959 1147.1,545.569 1167.2,554.831 1187.31,563.705 1207.41,572.153 1227.51,580.139 1247.62,587.631 1267.72,594.605 1287.83,601.042 
  1307.93,606.933 1328.04,612.278 1348.14,617.086 1368.24,621.375 1388.35,625.171 1408.45,628.505 1428.56,631.413 1448.66,633.933 1468.77,636.104 1488.87,637.965 
  1508.98,639.553 1529.08,640.902 1549.18,642.044 1569.29,643.008 1589.39,643.82 1609.5,644.502 1629.6,645.073 1649.71,645.552 1669.81,645.952 1689.91,646.286 
  1710.02,646.565 1730.12,646.798 1750.23,646.991 1770.33,647.152 1790.44,647.286 1810.54,647.398 1830.65,647.491 1850.75,647.568 1870.85,647.632 1890.96,647.685 
  1911.06,647.729 1931.17,647.766 1951.27,647.797 1971.38,647.822 1991.48,647.843 2011.58,647.861 2031.69,647.875 2051.79,647.887 2071.9,647.897 2092,647.906 
  2112.11,647.913 2132.21,647.918 2152.32,647.923 2172.42,647.927 2192.52,647.93 2212.63,647.933 2232.73,647.935 2252.84,647.937 2272.94,647.939 2293.05,647.94 
  
  "/>
<path clip-path="url(#clip080)" d="
M243.003 1426.14 L2352.76 1426.14 L2352.76 807.948 L243.003 807.948  Z
  " fill="#ffffff" fill-rule="evenodd" fill-opacity="1"/>
<defs>
  <clipPath id="clip084">
    <rect x="243" y="807" width="2111" height="619"/>
  </clipPath>
</defs>
<polyline clip-path="url(#clip084)" style="stroke:#000000; stroke-width:2; stroke-opacity:0.1; fill:none" points="
  302.713,1426.14 302.713,807.948 
  "/>
<polyline clip-path="url(#clip084)" style="stroke:#000000; stroke-width:2; stroke-opacity:0.1; fill:none" points="
  800.296,1426.14 800.296,807.948 
  "/>
<polyline clip-path="url(#clip084)" style="stroke:#000000; stroke-width:2; stroke-opacity:0.1; fill:none" points="
  1297.88,1426.14 1297.88,807.948 
  "/>
<polyline clip-path="url(#clip084)" style="stroke:#000000; stroke-width:2; stroke-opacity:0.1; fill:none" points="
  1795.46,1426.14 1795.46,807.948 
  "/>
<polyline clip-path="url(#clip084)" style="stroke:#000000; stroke-width:2; stroke-opacity:0.1; fill:none" points="
  2293.05,1426.14 2293.05,807.948 
  "/>
<polyline clip-path="url(#clip080)" style="stroke:#000000; stroke-width:4; stroke-opacity:1; fill:none" points="
  243.003,1426.14 2352.76,1426.14 
  "/>
<polyline clip-path="url(#clip080)" style="stroke:#000000; stroke-width:4; stroke-opacity:1; fill:none" points="
  302.713,1426.14 302.713,1418.72 
  "/>
<polyline clip-path="url(#clip080)" style="stroke:#000000; stroke-width:4; stroke-opacity:1; fill:none" points="
  800.296,1426.14 800.296,1418.72 
  "/>
<polyline clip-path="url(#clip080)" style="stroke:#000000; stroke-width:4; stroke-opacity:1; fill:none" points="
  1297.88,1426.14 1297.88,1418.72 
  "/>
<polyline clip-path="url(#clip080)" style="stroke:#000000; stroke-width:4; stroke-opacity:1; fill:none" points="
  1795.46,1426.14 1795.46,1418.72 
  "/>
<polyline clip-path="url(#clip080)" style="stroke:#000000; stroke-width:4; stroke-opacity:1; fill:none" points="
  2293.05,1426.14 2293.05,1418.72 
  "/>
<polyline clip-path="url(#clip080)" style="stroke:#000000; stroke-width:4; stroke-opacity:1; fill:none" points="
  259.828,1426.14 259.828,1422.43 
  "/>
<polyline clip-path="url(#clip080)" style="stroke:#000000; stroke-width:4; stroke-opacity:1; fill:none" points="
  525.211,1426.14 525.211,1422.43 
  "/>
<polyline clip-path="url(#clip080)" style="stroke:#000000; stroke-width:4; stroke-opacity:1; fill:none" points="
  632.49,1426.14 632.49,1422.43 
  "/>
<polyline clip-path="url(#clip080)" style="stroke:#000000; stroke-width:4; stroke-opacity:1; fill:none" points="
  703.855,1426.14 703.855,1422.43 
  "/>
<polyline clip-path="url(#clip080)" style="stroke:#000000; stroke-width:4; stroke-opacity:1; fill:none" points="
  757.411,1426.14 757.411,1422.43 
  "/>
<polyline clip-path="url(#clip080)" style="stroke:#000000; stroke-width:4; stroke-opacity:1; fill:none" points="
  1022.79,1426.14 1022.79,1422.43 
  "/>
<polyline clip-path="url(#clip080)" style="stroke:#000000; stroke-width:4; stroke-opacity:1; fill:none" points="
  1130.07,1426.14 1130.07,1422.43 
  "/>
<polyline clip-path="url(#clip080)" style="stroke:#000000; stroke-width:4; stroke-opacity:1; fill:none" points="
  1201.44,1426.14 1201.44,1422.43 
  "/>
<polyline clip-path="url(#clip080)" style="stroke:#000000; stroke-width:4; stroke-opacity:1; fill:none" points="
  1254.99,1426.14 1254.99,1422.43 
  "/>
<polyline clip-path="url(#clip080)" style="stroke:#000000; stroke-width:4; stroke-opacity:1; fill:none" points="
  1520.38,1426.14 1520.38,1422.43 
  "/>
<polyline clip-path="url(#clip080)" style="stroke:#000000; stroke-width:4; stroke-opacity:1; fill:none" points="
  1627.66,1426.14 1627.66,1422.43 
  "/>
<polyline clip-path="url(#clip080)" style="stroke:#000000; stroke-width:4; stroke-opacity:1; fill:none" points="
  1699.02,1426.14 1699.02,1422.43 
  "/>
<polyline clip-path="url(#clip080)" style="stroke:#000000; stroke-width:4; stroke-opacity:1; fill:none" points="
  1752.58,1426.14 1752.58,1422.43 
  "/>
<polyline clip-path="url(#clip080)" style="stroke:#000000; stroke-width:4; stroke-opacity:1; fill:none" points="
  2017.96,1426.14 2017.96,1422.43 
  "/>
<polyline clip-path="url(#clip080)" style="stroke:#000000; stroke-width:4; stroke-opacity:1; fill:none" points="
  2125.24,1426.14 2125.24,1422.43 
  "/>
<polyline clip-path="url(#clip080)" style="stroke:#000000; stroke-width:4; stroke-opacity:1; fill:none" points="
  2196.6,1426.14 2196.6,1422.43 
  "/>
<polyline clip-path="url(#clip080)" style="stroke:#000000; stroke-width:4; stroke-opacity:1; fill:none" points="
  2250.16,1426.14 2250.16,1422.43 
  "/>
<path clip-path="url(#clip080)" d="M 0 0 M252.979 1504.41 L260.617 1504.41 L260.617 1478.05 L252.307 1479.71 L252.307 1475.45 L260.571 1473.79 L265.247 1473.79 L265.247 1504.41 L272.886 1504.41 L272.886 1508.35 L252.979 1508.35 L252.979 1504.41 Z" fill="#000000" fill-rule="evenodd" fill-opacity="1" /><path clip-path="url(#clip080)" d="M 0 0 M292.33 1476.87 Q288.719 1476.87 286.89 1480.43 Q285.085 1483.97 285.085 1491.1 Q285.085 1498.21 286.89 1501.77 Q288.719 1505.32 292.33 1505.32 Q295.965 1505.32 297.77 1501.77 Q299.599 1498.21 299.599 1491.1 Q299.599 1483.97 297.77 1480.43 Q295.965 1476.87 292.33 1476.87 M292.33 1473.16 Q298.14 1473.16 301.196 1477.77 Q304.275 1482.35 304.275 1491.1 Q304.275 1499.83 301.196 1504.44 Q298.14 1509.02 292.33 1509.02 Q286.52 1509.02 283.441 1504.44 Q280.386 1499.83 280.386 1491.1 Q280.386 1482.35 283.441 1477.77 Q286.52 1473.16 292.33 1473.16 Z" fill="#000000" fill-rule="evenodd" fill-opacity="1" /><path clip-path="url(#clip080)" d="M 0 0 M304.275 1467.26 L328.386 1467.26 L328.386 1470.46 L304.275 1470.46 L304.275 1467.26 Z" fill="#000000" fill-rule="evenodd" fill-opacity="1" /><path clip-path="url(#clip080)" d="M 0 0 M339.859 1477.74 L353.118 1477.74 L353.118 1480.94 L335.289 1480.94 L335.289 1477.74 Q337.452 1475.5 341.175 1471.74 Q344.918 1467.96 345.877 1466.87 Q347.702 1464.82 348.416 1463.41 Q349.15 1461.98 349.15 1460.61 Q349.15 1458.37 347.57 1456.96 Q346.009 1455.55 343.489 1455.55 Q341.702 1455.55 339.708 1456.17 Q337.734 1456.79 335.477 1458.05 L335.477 1454.21 Q337.771 1453.29 339.765 1452.82 Q341.759 1452.35 343.414 1452.35 Q347.777 1452.35 350.372 1454.53 Q352.968 1456.71 352.968 1460.36 Q352.968 1462.09 352.31 1463.65 Q351.67 1465.2 349.959 1467.3 Q349.489 1467.85 346.968 1470.46 Q344.448 1473.06 339.859 1477.74 Z" fill="#000000" fill-rule="evenodd" fill-opacity="1" /><path clip-path="url(#clip080)" d="M 0 0 M750.411 1504.41 L758.05 1504.41 L758.05 1478.05 L749.74 1479.71 L749.74 1475.45 L758.004 1473.79 L762.68 1473.79 L762.68 1504.41 L770.319 1504.41 L770.319 1508.35 L750.411 1508.35 L750.411 1504.41 Z" fill="#000000" fill-rule="evenodd" fill-opacity="1" /><path clip-path="url(#clip080)" d="M 0 0 M789.763 1476.87 Q786.152 1476.87 784.323 1480.43 Q782.518 1483.97 782.518 1491.1 Q782.518 1498.21 784.323 1501.77 Q786.152 1505.32 789.763 1505.32 Q793.397 1505.32 795.203 1501.77 Q797.032 1498.21 797.032 1491.1 Q797.032 1483.97 795.203 1480.43 Q793.397 1476.87 789.763 1476.87 M789.763 1473.16 Q795.573 1473.16 798.629 1477.77 Q801.707 1482.35 801.707 1491.1 Q801.707 1499.83 798.629 1504.44 Q795.573 1509.02 789.763 1509.02 Q783.953 1509.02 780.874 1504.44 Q777.819 1499.83 777.819 1491.1 Q777.819 1482.35 780.874 1477.77 Q783.953 1473.16 789.763 1473.16 Z" fill="#000000" fill-rule="evenodd" fill-opacity="1" /><path clip-path="url(#clip080)" d="M 0 0 M801.707 1467.26 L825.819 1467.26 L825.819 1470.46 L801.707 1470.46 L801.707 1467.26 Z" fill="#000000" fill-rule="evenodd" fill-opacity="1" /><path clip-path="url(#clip080)" d="M 0 0 M834.677 1477.74 L840.884 1477.74 L840.884 1456.32 L834.132 1457.67 L834.132 1454.21 L840.846 1452.86 L844.646 1452.86 L844.646 1477.74 L850.852 1477.74 L850.852 1480.94 L834.677 1480.94 L834.677 1477.74 Z" fill="#000000" fill-rule="evenodd" fill-opacity="1" /><path clip-path="url(#clip080)" d="M 0 0 M1262.86 1504.41 L1270.5 1504.41 L1270.5 1478.05 L1262.19 1479.71 L1262.19 1475.45 L1270.45 1473.79 L1275.13 1473.79 L1275.13 1504.41 L1282.77 1504.41 L1282.77 1508.35 L1262.86 1508.35 L1262.86 1504.41 Z" fill="#000000" fill-rule="evenodd" fill-opacity="1" /><path clip-path="url(#clip080)" d="M 0 0 M1302.21 1476.87 Q1298.6 1476.87 1296.77 1480.43 Q1294.97 1483.97 1294.97 1491.1 Q1294.97 1498.21 1296.77 1501.77 Q1298.6 1505.32 1302.21 1505.32 Q1305.85 1505.32 1307.65 1501.77 Q1309.48 1498.21 1309.48 1491.1 Q1309.48 1483.97 1307.65 1480.43 Q1305.85 1476.87 1302.21 1476.87 M1302.21 1473.16 Q1308.02 1473.16 1311.08 1477.77 Q1314.16 1482.35 1314.16 1491.1 Q1314.16 1499.83 1311.08 1504.44 Q1308.02 1509.02 1302.21 1509.02 Q1296.4 1509.02 1293.33 1504.44 Q1290.27 1499.83 1290.27 1491.1 Q1290.27 1482.35 1293.33 1477.77 Q1296.4 1473.16 1302.21 1473.16 Z" fill="#000000" fill-rule="evenodd" fill-opacity="1" /><path clip-path="url(#clip080)" d="M 0 0 M1323.86 1455.36 Q1320.93 1455.36 1319.44 1458.26 Q1317.98 1461.13 1317.98 1466.93 Q1317.98 1472.7 1319.44 1475.6 Q1320.93 1478.47 1323.86 1478.47 Q1326.82 1478.47 1328.28 1475.6 Q1329.77 1472.7 1329.77 1466.93 Q1329.77 1461.13 1328.28 1458.26 Q1326.82 1455.36 1323.86 1455.36 M1323.86 1452.35 Q1328.58 1452.35 1331.07 1456.09 Q1333.57 1459.82 1333.57 1466.93 Q1333.57 1474.02 1331.07 1477.76 Q1328.58 1481.48 1323.86 1481.48 Q1319.14 1481.48 1316.64 1477.76 Q1314.16 1474.02 1314.16 1466.93 Q1314.16 1459.82 1316.64 1456.09 Q1319.14 1452.35 1323.86 1452.35 Z" fill="#000000" fill-rule="evenodd" fill-opacity="1" /><path clip-path="url(#clip080)" d="M 0 0 M1761.79 1504.41 L1769.43 1504.41 L1769.43 1478.05 L1761.12 1479.71 L1761.12 1475.45 L1769.38 1473.79 L1774.06 1473.79 L1774.06 1504.41 L1781.7 1504.41 L1781.7 1508.35 L1761.79 1508.35 L1761.79 1504.41 Z" fill="#000000" fill-rule="evenodd" fill-opacity="1" /><path clip-path="url(#clip080)" d="M 0 0 M1801.14 1476.87 Q1797.53 1476.87 1795.7 1480.43 Q1793.9 1483.97 1793.9 1491.1 Q1793.9 1498.21 1795.7 1501.77 Q1797.53 1505.32 1801.14 1505.32 Q1804.78 1505.32 1806.58 1501.77 Q1808.41 1498.21 1808.41 1491.1 Q1808.41 1483.97 1806.58 1480.43 Q1804.78 1476.87 1801.14 1476.87 M1801.14 1473.16 Q1806.95 1473.16 1810.01 1477.77 Q1813.09 1482.35 1813.09 1491.1 Q1813.09 1499.83 1810.01 1504.44 Q1806.95 1509.02 1801.14 1509.02 Q1795.33 1509.02 1792.25 1504.44 Q1789.2 1499.83 1789.2 1491.1 Q1789.2 1482.35 1792.25 1477.77 Q1795.33 1473.16 1801.14 1473.16 Z" fill="#000000" fill-rule="evenodd" fill-opacity="1" /><path clip-path="url(#clip080)" d="M 0 0 M1813.63 1477.74 L1819.84 1477.74 L1819.84 1456.32 L1813.09 1457.67 L1813.09 1454.21 L1819.8 1452.86 L1823.6 1452.86 L1823.6 1477.74 L1829.81 1477.74 L1829.81 1480.94 L1813.63 1480.94 L1813.63 1477.74 Z" fill="#000000" fill-rule="evenodd" fill-opacity="1" /><path clip-path="url(#clip080)" d="M 0 0 M2258.82 1504.41 L2266.46 1504.41 L2266.46 1478.05 L2258.15 1479.71 L2258.15 1475.45 L2266.41 1473.79 L2271.09 1473.79 L2271.09 1504.41 L2278.73 1504.41 L2278.73 1508.35 L2258.82 1508.35 L2258.82 1504.41 Z" fill="#000000" fill-rule="evenodd" fill-opacity="1" /><path clip-path="url(#clip080)" d="M 0 0 M2298.17 1476.87 Q2294.56 1476.87 2292.73 1480.43 Q2290.92 1483.97 2290.92 1491.1 Q2290.92 1498.21 2292.73 1501.77 Q2294.56 1505.32 2298.17 1505.32 Q2301.8 1505.32 2303.61 1501.77 Q2305.44 1498.21 2305.44 1491.1 Q2305.44 1483.97 2303.61 1480.43 Q2301.8 1476.87 2298.17 1476.87 M2298.17 1473.16 Q2303.98 1473.16 2307.04 1477.77 Q2310.11 1482.35 2310.11 1491.1 Q2310.11 1499.83 2307.04 1504.44 Q2303.98 1509.02 2298.17 1509.02 Q2292.36 1509.02 2289.28 1504.44 Q2286.23 1499.83 2286.23 1491.1 Q2286.23 1482.35 2289.28 1477.77 Q2292.36 1473.16 2298.17 1473.16 Z" fill="#000000" fill-rule="evenodd" fill-opacity="1" /><path clip-path="url(#clip080)" d="M 0 0 M2314.68 1477.74 L2327.94 1477.74 L2327.94 1480.94 L2310.11 1480.94 L2310.11 1477.74 Q2312.28 1475.5 2316 1471.74 Q2319.74 1467.96 2320.7 1466.87 Q2322.53 1464.82 2323.24 1463.41 Q2323.98 1461.98 2323.98 1460.61 Q2323.98 1458.37 2322.4 1456.96 Q2320.84 1455.55 2318.31 1455.55 Q2316.53 1455.55 2314.53 1456.17 Q2312.56 1456.79 2310.3 1458.05 L2310.3 1454.21 Q2312.6 1453.29 2314.59 1452.82 Q2316.58 1452.35 2318.24 1452.35 Q2322.6 1452.35 2325.2 1454.53 Q2327.79 1456.71 2327.79 1460.36 Q2327.79 1462.09 2327.14 1463.65 Q2326.5 1465.2 2324.78 1467.3 Q2324.31 1467.85 2321.79 1470.46 Q2319.27 1473.06 2314.68 1477.74 Z" fill="#000000" fill-rule="evenodd" fill-opacity="1" /><path clip-path="url(#clip080)" d="M 0 0 M1283.1 1531.9 Q1283.1 1534.89 1281.59 1540.69 Q1280.98 1543.2 1280.14 1545.49 Q1279.33 1547.74 1278.14 1549.93 Q1276.95 1552.12 1275.57 1553.7 Q1274.18 1555.25 1272.38 1556.21 Q1270.57 1557.18 1268.58 1557.18 Q1265.42 1557.18 1263.55 1555.31 Q1261.72 1553.41 1261.14 1550.16 Q1256.82 1557.18 1251.06 1557.18 Q1247.48 1557.18 1245.81 1554.64 Q1244.13 1552.06 1244.13 1547.74 Q1244.13 1544.1 1245.1 1540.34 Q1246.94 1533.19 1250.51 1528.19 Q1250.99 1527.61 1251.7 1527.61 Q1252.12 1527.61 1252.31 1527.74 Q1252.89 1528.1 1252.89 1528.68 Q1252.89 1529.1 1252.57 1529.51 Q1250.32 1532.64 1248.84 1535.31 Q1247.35 1537.98 1246.68 1540.69 Q1246.16 1543.01 1246.16 1544.97 Q1246.16 1548.29 1247.58 1550.35 Q1249.03 1552.41 1251.9 1552.41 Q1254.54 1552.41 1256.85 1550.77 Q1259.17 1549.1 1260.88 1546.29 Q1260.98 1543.23 1261.72 1540.34 Q1262.39 1537.24 1263.97 1537.24 Q1265.23 1537.24 1265.23 1538.95 Q1265.23 1539.53 1264.97 1540.69 Q1264.26 1543.75 1262.97 1546.49 Q1263.42 1549.16 1265.1 1550.8 Q1266.77 1552.41 1269.45 1552.41 Q1271.93 1552.41 1274.12 1550.61 Q1276.34 1548.81 1277.76 1546.17 Q1279.21 1543.49 1280.01 1540.34 Q1280.27 1539.27 1280.27 1537.92 Q1280.27 1534.31 1277.76 1532.09 Q1277.05 1531.38 1277.05 1530.45 Q1277.05 1529.35 1277.95 1528.36 Q1279.01 1527.29 1280.27 1527.29 Q1281.2 1527.29 1281.78 1527.87 Q1283.1 1529.03 1283.1 1531.9 Z" fill="#000000" fill-rule="evenodd" fill-opacity="1" /><path clip-path="url(#clip080)" d="M 0 0 M1316.69 1529.58 Q1316.69 1531.83 1313.44 1531.83 L1302.36 1531.83 L1297.94 1554.41 Q1297.85 1554.99 1297.72 1555.31 Q1297.62 1555.63 1297.33 1556.18 Q1297.08 1556.7 1296.53 1556.95 Q1296.01 1557.24 1295.24 1557.24 Q1294.27 1557.24 1293.79 1556.66 Q1293.34 1556.12 1293.34 1555.44 Q1293.34 1555.02 1293.98 1553.02 L1300.46 1531.83 L1294.98 1531.83 Q1289.83 1531.83 1286.61 1536.92 Q1286.09 1537.6 1285.8 1537.66 Q1285.67 1537.69 1285.55 1537.69 Q1285.19 1537.69 1284.97 1537.53 Q1284.77 1537.37 1284.77 1537.21 L1284.74 1537.05 Q1284.74 1536.83 1285.26 1535.92 Q1285.8 1534.99 1286.77 1533.6 Q1287.77 1532.22 1288.77 1531.12 Q1290.09 1529.71 1291.57 1528.97 Q1293.05 1528.19 1293.79 1528.1 Q1294.56 1528 1295.56 1528 L1314.05 1528 Q1314.89 1528 1315.34 1528.07 Q1315.79 1528.1 1316.24 1528.48 Q1316.69 1528.84 1316.69 1529.58 Z" fill="#000000" fill-rule="evenodd" fill-opacity="1" /><path clip-path="url(#clip080)" d="M 0 0 M1344.79 1545 Q1344.79 1545.43 1344.61 1545.63 Q1344.45 1545.81 1344.21 1545.86 Q1343.96 1545.88 1343.3 1545.88 Q1342.2 1545.88 1341.5 1545.97 Q1340.8 1546.04 1340.37 1546.15 Q1339.95 1546.24 1339.7 1546.56 Q1339.47 1546.85 1339.36 1547.12 Q1339.27 1547.39 1339.11 1548 L1332.93 1572.6 Q1332.73 1573.32 1332.73 1573.68 Q1332.73 1574.06 1332.96 1574.22 Q1333.18 1574.38 1333.9 1574.45 Q1335.05 1574.56 1335.89 1574.56 Q1336.99 1574.56 1337.15 1574.72 Q1337.26 1574.87 1337.26 1575.1 Q1337.26 1575.5 1337.08 1575.73 Q1336.9 1575.93 1336.74 1575.96 Q1336.61 1575.98 1336.34 1575.98 L1330.16 1575.84 L1324.1 1575.98 Q1323.42 1575.98 1323.42 1575.46 Q1323.42 1575.12 1323.47 1574.94 Q1323.53 1574.74 1323.76 1574.67 Q1324.01 1574.58 1324.19 1574.58 Q1324.37 1574.56 1324.89 1574.56 Q1325.81 1574.56 1326.42 1574.54 Q1327.05 1574.49 1327.5 1574.38 Q1327.97 1574.24 1328.2 1574.13 Q1328.45 1573.99 1328.63 1573.7 Q1328.83 1573.39 1328.9 1573.14 Q1328.99 1572.89 1329.1 1572.37 L1335.32 1547.48 Q1335.41 1547.08 1335.41 1546.76 Q1335.41 1546.15 1334.69 1546.02 Q1333.99 1545.88 1332.24 1545.88 Q1331.69 1545.88 1331.47 1545.86 Q1331.27 1545.84 1331.09 1545.72 Q1330.93 1545.61 1330.93 1545.36 Q1330.93 1545.05 1331.02 1544.84 Q1331.11 1544.62 1331.27 1544.55 Q1331.45 1544.48 1331.56 1544.46 Q1331.67 1544.44 1331.85 1544.44 L1338.01 1544.57 L1344.09 1544.44 Q1344.79 1544.44 1344.79 1545 Z" fill="#000000" fill-rule="evenodd" fill-opacity="1" /><polyline clip-path="url(#clip084)" style="stroke:#000000; stroke-width:2; stroke-opacity:0.1; fill:none" points="
  243.003,1346.77 2352.76,1346.77 
  "/>
<polyline clip-path="url(#clip084)" style="stroke:#000000; stroke-width:2; stroke-opacity:0.1; fill:none" points="
  243.003,1215.5 2352.76,1215.5 
  "/>
<polyline clip-path="url(#clip084)" style="stroke:#000000; stroke-width:2; stroke-opacity:0.1; fill:none" points="
  243.003,1084.23 2352.76,1084.23 
  "/>
<polyline clip-path="url(#clip084)" style="stroke:#000000; stroke-width:2; stroke-opacity:0.1; fill:none" points="
  243.003,952.955 2352.76,952.955 
  "/>
<polyline clip-path="url(#clip084)" style="stroke:#000000; stroke-width:2; stroke-opacity:0.1; fill:none" points="
  243.003,821.684 2352.76,821.684 
  "/>
<polyline clip-path="url(#clip080)" style="stroke:#000000; stroke-width:4; stroke-opacity:1; fill:none" points="
  243.003,1426.14 243.003,807.948 
  "/>
<polyline clip-path="url(#clip080)" style="stroke:#000000; stroke-width:4; stroke-opacity:1; fill:none" points="
  243.003,1346.77 268.32,1346.77 
  "/>
<polyline clip-path="url(#clip080)" style="stroke:#000000; stroke-width:4; stroke-opacity:1; fill:none" points="
  243.003,1215.5 268.32,1215.5 
  "/>
<polyline clip-path="url(#clip080)" style="stroke:#000000; stroke-width:4; stroke-opacity:1; fill:none" points="
  243.003,1084.23 268.32,1084.23 
  "/>
<polyline clip-path="url(#clip080)" style="stroke:#000000; stroke-width:4; stroke-opacity:1; fill:none" points="
  243.003,952.955 268.32,952.955 
  "/>
<polyline clip-path="url(#clip080)" style="stroke:#000000; stroke-width:4; stroke-opacity:1; fill:none" points="
  243.003,821.684 268.32,821.684 
  "/>
<polyline clip-path="url(#clip080)" style="stroke:#000000; stroke-width:4; stroke-opacity:1; fill:none" points="
  243.003,1425.53 255.661,1425.53 
  "/>
<polyline clip-path="url(#clip080)" style="stroke:#000000; stroke-width:4; stroke-opacity:1; fill:none" points="
  243.003,1399.28 255.661,1399.28 
  "/>
<polyline clip-path="url(#clip080)" style="stroke:#000000; stroke-width:4; stroke-opacity:1; fill:none" points="
  243.003,1373.02 255.661,1373.02 
  "/>
<polyline clip-path="url(#clip080)" style="stroke:#000000; stroke-width:4; stroke-opacity:1; fill:none" points="
  243.003,1320.51 255.661,1320.51 
  "/>
<polyline clip-path="url(#clip080)" style="stroke:#000000; stroke-width:4; stroke-opacity:1; fill:none" points="
  243.003,1294.26 255.661,1294.26 
  "/>
<polyline clip-path="url(#clip080)" style="stroke:#000000; stroke-width:4; stroke-opacity:1; fill:none" points="
  243.003,1268.01 255.661,1268.01 
  "/>
<polyline clip-path="url(#clip080)" style="stroke:#000000; stroke-width:4; stroke-opacity:1; fill:none" points="
  243.003,1241.75 255.661,1241.75 
  "/>
<polyline clip-path="url(#clip080)" style="stroke:#000000; stroke-width:4; stroke-opacity:1; fill:none" points="
  243.003,1189.24 255.661,1189.24 
  "/>
<polyline clip-path="url(#clip080)" style="stroke:#000000; stroke-width:4; stroke-opacity:1; fill:none" points="
  243.003,1162.99 255.661,1162.99 
  "/>
<polyline clip-path="url(#clip080)" style="stroke:#000000; stroke-width:4; stroke-opacity:1; fill:none" points="
  243.003,1136.74 255.661,1136.74 
  "/>
<polyline clip-path="url(#clip080)" style="stroke:#000000; stroke-width:4; stroke-opacity:1; fill:none" points="
  243.003,1110.48 255.661,1110.48 
  "/>
<polyline clip-path="url(#clip080)" style="stroke:#000000; stroke-width:4; stroke-opacity:1; fill:none" points="
  243.003,1057.97 255.661,1057.97 
  "/>
<polyline clip-path="url(#clip080)" style="stroke:#000000; stroke-width:4; stroke-opacity:1; fill:none" points="
  243.003,1031.72 255.661,1031.72 
  "/>
<polyline clip-path="url(#clip080)" style="stroke:#000000; stroke-width:4; stroke-opacity:1; fill:none" points="
  243.003,1005.46 255.661,1005.46 
  "/>
<polyline clip-path="url(#clip080)" style="stroke:#000000; stroke-width:4; stroke-opacity:1; fill:none" points="
  243.003,979.21 255.661,979.21 
  "/>
<polyline clip-path="url(#clip080)" style="stroke:#000000; stroke-width:4; stroke-opacity:1; fill:none" points="
  243.003,926.701 255.661,926.701 
  "/>
<polyline clip-path="url(#clip080)" style="stroke:#000000; stroke-width:4; stroke-opacity:1; fill:none" points="
  243.003,900.447 255.661,900.447 
  "/>
<polyline clip-path="url(#clip080)" style="stroke:#000000; stroke-width:4; stroke-opacity:1; fill:none" points="
  243.003,874.192 255.661,874.192 
  "/>
<polyline clip-path="url(#clip080)" style="stroke:#000000; stroke-width:4; stroke-opacity:1; fill:none" points="
  243.003,847.938 255.661,847.938 
  "/>
<path clip-path="url(#clip080)" d="M 0 0 M115.128 1347.22 L144.804 1347.22 L144.804 1351.16 L115.128 1351.16 L115.128 1347.22 Z" fill="#000000" fill-rule="evenodd" fill-opacity="1" /><path clip-path="url(#clip080)" d="M 0 0 M164.897 1347.64 Q161.563 1347.64 159.642 1349.42 Q157.744 1351.2 157.744 1354.33 Q157.744 1357.45 159.642 1359.23 Q161.563 1361.02 164.897 1361.02 Q168.23 1361.02 170.151 1359.23 Q172.073 1357.43 172.073 1354.33 Q172.073 1351.2 170.151 1349.42 Q168.253 1347.64 164.897 1347.64 M160.221 1345.65 Q157.211 1344.91 155.522 1342.85 Q153.855 1340.79 153.855 1337.82 Q153.855 1333.68 156.795 1331.27 Q159.758 1328.86 164.897 1328.86 Q170.059 1328.86 172.998 1331.27 Q175.938 1333.68 175.938 1337.82 Q175.938 1340.79 174.248 1342.85 Q172.582 1344.91 169.596 1345.65 Q172.975 1346.43 174.85 1348.73 Q176.748 1351.02 176.748 1354.33 Q176.748 1359.35 173.67 1362.04 Q170.614 1364.72 164.897 1364.72 Q159.179 1364.72 156.1 1362.04 Q153.045 1359.35 153.045 1354.33 Q153.045 1351.02 154.943 1348.73 Q156.841 1346.43 160.221 1345.65 M158.508 1338.26 Q158.508 1340.95 160.174 1342.45 Q161.864 1343.96 164.897 1343.96 Q167.906 1343.96 169.596 1342.45 Q171.309 1340.95 171.309 1338.26 Q171.309 1335.58 169.596 1334.07 Q167.906 1332.57 164.897 1332.57 Q161.864 1332.57 160.174 1334.07 Q158.508 1335.58 158.508 1338.26 Z" fill="#000000" fill-rule="evenodd" fill-opacity="1" /><path clip-path="url(#clip080)" d="M 0 0 M195.059 1332.57 Q191.447 1332.57 189.619 1336.13 Q187.813 1339.67 187.813 1346.8 Q187.813 1353.91 189.619 1357.48 Q191.447 1361.02 195.059 1361.02 Q198.693 1361.02 200.498 1357.48 Q202.327 1353.91 202.327 1346.8 Q202.327 1339.67 200.498 1336.13 Q198.693 1332.57 195.059 1332.57 M195.059 1328.86 Q200.869 1328.86 203.924 1333.47 Q207.003 1338.05 207.003 1346.8 Q207.003 1355.53 203.924 1360.14 Q200.869 1364.72 195.059 1364.72 Q189.248 1364.72 186.17 1360.14 Q183.114 1355.53 183.114 1346.8 Q183.114 1338.05 186.17 1333.47 Q189.248 1328.86 195.059 1328.86 Z" fill="#000000" fill-rule="evenodd" fill-opacity="1" /><path clip-path="url(#clip080)" d="M 0 0 M115.128 1215.95 L144.804 1215.95 L144.804 1219.88 L115.128 1219.88 L115.128 1215.95 Z" fill="#000000" fill-rule="evenodd" fill-opacity="1" /><path clip-path="url(#clip080)" d="M 0 0 M165.475 1213.63 Q162.327 1213.63 160.475 1215.79 Q158.647 1217.94 158.647 1221.69 Q158.647 1225.42 160.475 1227.59 Q162.327 1229.75 165.475 1229.75 Q168.623 1229.75 170.452 1227.59 Q172.304 1225.42 172.304 1221.69 Q172.304 1217.94 170.452 1215.79 Q168.623 1213.63 165.475 1213.63 M174.758 1198.98 L174.758 1203.24 Q172.998 1202.41 171.193 1201.97 Q169.41 1201.53 167.651 1201.53 Q163.022 1201.53 160.568 1204.65 Q158.137 1207.78 157.79 1214.1 Q159.156 1212.08 161.216 1211.02 Q163.276 1209.93 165.753 1209.93 Q170.961 1209.93 173.971 1213.1 Q177.003 1216.25 177.003 1221.69 Q177.003 1227.01 173.855 1230.23 Q170.707 1233.45 165.475 1233.45 Q159.48 1233.45 156.309 1228.87 Q153.137 1224.26 153.137 1215.53 Q153.137 1207.34 157.026 1202.48 Q160.915 1197.59 167.466 1197.59 Q169.225 1197.59 171.008 1197.94 Q172.813 1198.29 174.758 1198.98 Z" fill="#000000" fill-rule="evenodd" fill-opacity="1" /><path clip-path="url(#clip080)" d="M 0 0 M195.059 1201.3 Q191.447 1201.3 189.619 1204.86 Q187.813 1208.4 187.813 1215.53 Q187.813 1222.64 189.619 1226.2 Q191.447 1229.75 195.059 1229.75 Q198.693 1229.75 200.498 1226.2 Q202.327 1222.64 202.327 1215.53 Q202.327 1208.4 200.498 1204.86 Q198.693 1201.3 195.059 1201.3 M195.059 1197.59 Q200.869 1197.59 203.924 1202.2 Q207.003 1206.78 207.003 1215.53 Q207.003 1224.26 203.924 1228.87 Q200.869 1233.45 195.059 1233.45 Q189.248 1233.45 186.17 1228.87 Q183.114 1224.26 183.114 1215.53 Q183.114 1206.78 186.17 1202.2 Q189.248 1197.59 195.059 1197.59 Z" fill="#000000" fill-rule="evenodd" fill-opacity="1" /><path clip-path="url(#clip080)" d="M 0 0 M115.128 1084.68 L144.804 1084.68 L144.804 1088.61 L115.128 1088.61 L115.128 1084.68 Z" fill="#000000" fill-rule="evenodd" fill-opacity="1" /><path clip-path="url(#clip080)" d="M 0 0 M167.744 1071.02 L155.938 1089.47 L167.744 1089.47 L167.744 1071.02 M166.517 1066.95 L172.397 1066.95 L172.397 1089.47 L177.327 1089.47 L177.327 1093.36 L172.397 1093.36 L172.397 1101.51 L167.744 1101.51 L167.744 1093.36 L152.142 1093.36 L152.142 1088.84 L166.517 1066.95 Z" fill="#000000" fill-rule="evenodd" fill-opacity="1" /><path clip-path="url(#clip080)" d="M 0 0 M195.059 1070.03 Q191.447 1070.03 189.619 1073.59 Q187.813 1077.13 187.813 1084.26 Q187.813 1091.37 189.619 1094.93 Q191.447 1098.47 195.059 1098.47 Q198.693 1098.47 200.498 1094.93 Q202.327 1091.37 202.327 1084.26 Q202.327 1077.13 200.498 1073.59 Q198.693 1070.03 195.059 1070.03 M195.059 1066.32 Q200.869 1066.32 203.924 1070.93 Q207.003 1075.51 207.003 1084.26 Q207.003 1092.99 203.924 1097.59 Q200.869 1102.18 195.059 1102.18 Q189.248 1102.18 186.17 1097.59 Q183.114 1092.99 183.114 1084.26 Q183.114 1075.51 186.17 1070.93 Q189.248 1066.32 195.059 1066.32 Z" fill="#000000" fill-rule="evenodd" fill-opacity="1" /><path clip-path="url(#clip080)" d="M 0 0 M115.128 953.407 L144.804 953.407 L144.804 957.342 L115.128 957.342 L115.128 953.407 Z" fill="#000000" fill-rule="evenodd" fill-opacity="1" /><path clip-path="url(#clip080)" d="M 0 0 M158.924 966.3 L175.244 966.3 L175.244 970.235 L153.299 970.235 L153.299 966.3 Q155.961 963.546 160.545 958.916 Q165.151 954.263 166.332 952.921 Q168.577 950.397 169.457 948.661 Q170.36 946.902 170.36 945.212 Q170.36 942.458 168.415 940.722 Q166.494 938.985 163.392 938.985 Q161.193 938.985 158.739 939.749 Q156.309 940.513 153.531 942.064 L153.531 937.342 Q156.355 936.208 158.809 935.629 Q161.262 935.05 163.299 935.05 Q168.67 935.05 171.864 937.735 Q175.059 940.421 175.059 944.911 Q175.059 947.041 174.248 948.962 Q173.461 950.86 171.355 953.453 Q170.776 954.124 167.674 957.342 Q164.573 960.536 158.924 966.3 Z" fill="#000000" fill-rule="evenodd" fill-opacity="1" /><path clip-path="url(#clip080)" d="M 0 0 M195.059 938.754 Q191.447 938.754 189.619 942.319 Q187.813 945.86 187.813 952.99 Q187.813 960.096 189.619 963.661 Q191.447 967.203 195.059 967.203 Q198.693 967.203 200.498 963.661 Q202.327 960.096 202.327 952.99 Q202.327 945.86 200.498 942.319 Q198.693 938.754 195.059 938.754 M195.059 935.05 Q200.869 935.05 203.924 939.657 Q207.003 944.24 207.003 952.99 Q207.003 961.717 203.924 966.323 Q200.869 970.907 195.059 970.907 Q189.248 970.907 186.17 966.323 Q183.114 961.717 183.114 952.99 Q183.114 944.24 186.17 939.657 Q189.248 935.05 195.059 935.05 Z" fill="#000000" fill-rule="evenodd" fill-opacity="1" /><path clip-path="url(#clip080)" d="M 0 0 M195.059 807.483 Q191.447 807.483 189.619 811.047 Q187.813 814.589 187.813 821.719 Q187.813 828.825 189.619 832.39 Q191.447 835.932 195.059 835.932 Q198.693 835.932 200.498 832.39 Q202.327 828.825 202.327 821.719 Q202.327 814.589 200.498 811.047 Q198.693 807.483 195.059 807.483 M195.059 803.779 Q200.869 803.779 203.924 808.385 Q207.003 812.969 207.003 821.719 Q207.003 830.445 203.924 835.052 Q200.869 839.635 195.059 839.635 Q189.248 839.635 186.17 835.052 Q183.114 830.445 183.114 821.719 Q183.114 812.969 186.17 808.385 Q189.248 803.779 195.059 803.779 Z" fill="#000000" fill-rule="evenodd" fill-opacity="1" /><path clip-path="url(#clip080)" d="M 0 0 M33.9669 1112.06 Q33.9669 1114.13 38.582 1114.13 L60.4164 1114.13 Q60.4164 1111.11 57.1062 1108.08 Q54.1462 1105.38 47.0484 1105.38 Q40.4281 1105.38 36.8633 1108.12 Q33.9669 1110.34 33.9669 1112.06 M28.9698 1112.06 Q28.9698 1107.61 33.1712 1103.57 Q37.659 1099.2 47.0484 1099.2 Q55.6739 1099.2 60.7983 1103.57 Q65.6363 1107.67 65.6363 1114.13 L78.4313 1114.13 L78.4313 1119.96 L65.6681 1119.96 Q65.6681 1126.29 60.7983 1130.56 Q55.8331 1134.88 47.0802 1134.88 Q37.9773 1134.88 33.3303 1130.56 Q29.861 1127.31 28.9698 1122.03 L34.1578 1122.03 Q34.8899 1124.13 37.3725 1125.97 Q41.0328 1128.71 47.0802 1128.71 Q53.5096 1128.71 57.1699 1125.97 Q60.4482 1123.52 60.4482 1119.96 L38.582 1119.96 Q28.9698 1119.96 28.9698 1112.06 Z" fill="#000000" fill-rule="evenodd" fill-opacity="1" /><polyline clip-path="url(#clip084)" style="stroke:#009af9; stroke-width:8; stroke-opacity:1; fill:none" points="
  302.713,1408.64 322.817,1408.28 342.922,1407.88 363.026,1407.43 383.13,1406.95 403.235,1406.42 423.339,1405.83 443.443,1405.19 463.548,1404.49 483.652,1403.72 
  503.757,1402.87 523.861,1401.94 543.965,1400.92 564.07,1399.81 584.174,1398.58 604.278,1397.23 624.383,1395.75 644.487,1394.13 664.592,1392.35 684.696,1390.4 
  704.8,1388.26 724.905,1385.92 745.009,1383.35 765.113,1380.53 785.218,1377.43 805.322,1374.05 825.427,1370.34 845.531,1366.27 865.635,1361.83 885.74,1356.97 
  905.844,1351.65 925.948,1345.84 946.053,1339.51 966.157,1332.6 986.262,1325.09 1006.37,1316.92 1026.47,1308.06 1046.57,1298.48 1066.68,1288.13 1086.78,1276.99 
  1106.89,1265.05 1126.99,1252.3 1147.1,1238.74 1167.2,1224.39 1187.31,1209.31 1207.41,1193.56 1227.51,1177.22 1247.62,1160.39 1267.72,1143.2 1287.83,1125.79 
  1307.93,1108.3 1328.04,1090.89 1348.14,1073.7 1368.24,1056.87 1388.35,1040.53 1408.45,1024.77 1428.56,1009.69 1448.66,995.354 1468.77,981.794 1488.87,969.039 
  1508.98,957.097 1529.08,945.961 1549.18,935.613 1569.29,926.026 1589.39,917.167 1609.5,909 1629.6,901.485 1649.71,894.58 1669.81,888.245 1689.91,882.439 
  1710.02,877.123 1730.12,872.26 1750.23,867.814 1770.33,863.752 1790.44,860.042 1810.54,856.655 1830.65,853.564 1850.75,850.743 1870.85,848.171 1890.96,845.824 
  1911.06,843.685 1931.17,841.734 1951.27,839.956 1971.38,838.335 1991.48,836.858 2011.58,835.511 2031.69,834.283 2051.79,833.165 2071.9,832.145 2092,831.217 
  2112.11,830.37 2132.21,829.599 2152.32,828.896 2172.42,828.255 2192.52,827.671 2212.63,827.14 2232.73,826.655 2252.84,826.213 2272.94,825.811 2293.05,825.444 
  
  "/>
</svg>