<?xml version="1.0" encoding="utf-8"?>
<svg xmlns="http://www.w3.org/2000/svg" xmlns:xlink="http://www.w3.org/1999/xlink" width="600" height="400" viewBox="0 0 2400 1600">
<defs>
  <clipPath id="clip300">
    <rect x="0" y="0" width="2400" height="1600"/>
  </clipPath>
</defs>
<path clip-path="url(#clip300)" d="
M0 1600 L2400 1600 L2400 0 L0 0  Z
  " fill="#ffffff" fill-rule="evenodd" fill-opacity="1"/>
<defs>
  <clipPath id="clip301">
    <rect x="480" y="0" width="1681" height="1600"/>
  </clipPath>
</defs>
<path clip-path="url(#clip300)" d="
M249.542 1423.18 L2352.76 1423.18 L2352.76 47.2441 L249.542 47.2441  Z
  " fill="#ffffff" fill-rule="evenodd" fill-opacity="1"/>
<defs>
  <clipPath id="clip302">
    <rect x="249" y="47" width="2104" height="1377"/>
  </clipPath>
</defs>
<polyline clip-path="url(#clip302)" style="stroke:#000000; stroke-width:2; stroke-opacity:0.1; fill:none" points="
  401.926,1423.18 401.926,47.2441 
  "/>
<polyline clip-path="url(#clip302)" style="stroke:#000000; stroke-width:2; stroke-opacity:0.1; fill:none" points="
  768.956,1423.18 768.956,47.2441 
  "/>
<polyline clip-path="url(#clip302)" style="stroke:#000000; stroke-width:2; stroke-opacity:0.1; fill:none" points="
  1135.99,1423.18 1135.99,47.2441 
  "/>
<polyline clip-path="url(#clip302)" style="stroke:#000000; stroke-width:2; stroke-opacity:0.1; fill:none" points="
  1503.02,1423.18 1503.02,47.2441 
  "/>
<polyline clip-path="url(#clip302)" style="stroke:#000000; stroke-width:2; stroke-opacity:0.1; fill:none" points="
  1870.05,1423.18 1870.05,47.2441 
  "/>
<polyline clip-path="url(#clip302)" style="stroke:#000000; stroke-width:2; stroke-opacity:0.1; fill:none" points="
  2237.08,1423.18 2237.08,47.2441 
  "/>
<polyline clip-path="url(#clip300)" style="stroke:#000000; stroke-width:4; stroke-opacity:1; fill:none" points="
  249.542,1423.18 2352.76,1423.18 
  "/>
<polyline clip-path="url(#clip300)" style="stroke:#000000; stroke-width:4; stroke-opacity:1; fill:none" points="
  401.926,1423.18 401.926,1406.67 
  "/>
<polyline clip-path="url(#clip300)" style="stroke:#000000; stroke-width:4; stroke-opacity:1; fill:none" points="
  768.956,1423.18 768.956,1406.67 
  "/>
<polyline clip-path="url(#clip300)" style="stroke:#000000; stroke-width:4; stroke-opacity:1; fill:none" points="
  1135.99,1423.18 1135.99,1406.67 
  "/>
<polyline clip-path="url(#clip300)" style="stroke:#000000; stroke-width:4; stroke-opacity:1; fill:none" points="
  1503.02,1423.18 1503.02,1406.67 
  "/>
<polyline clip-path="url(#clip300)" style="stroke:#000000; stroke-width:4; stroke-opacity:1; fill:none" points="
  1870.05,1423.18 1870.05,1406.67 
  "/>
<polyline clip-path="url(#clip300)" style="stroke:#000000; stroke-width:4; stroke-opacity:1; fill:none" points="
  2237.08,1423.18 2237.08,1406.67 
  "/>
<path clip-path="url(#clip300)" d="M 0 0 M401.926 1452.37 Q398.314 1452.37 396.486 1455.94 Q394.68 1459.48 394.68 1466.61 Q394.68 1473.71 396.486 1477.28 Q398.314 1480.82 401.926 1480.82 Q405.56 1480.82 407.365 1477.28 Q409.194 1473.71 409.194 1466.61 Q409.194 1459.48 407.365 1455.94 Q405.56 1452.37 401.926 1452.37 M401.926 1448.67 Q407.736 1448.67 410.791 1453.27 Q413.87 1457.86 413.87 1466.61 Q413.87 1475.33 410.791 1479.94 Q407.736 1484.52 401.926 1484.52 Q396.115 1484.52 393.037 1479.94 Q389.981 1475.33 389.981 1466.61 Q389.981 1457.86 393.037 1453.27 Q396.115 1448.67 401.926 1448.67 Z" fill="#000000" fill-rule="evenodd" fill-opacity="1" /><path clip-path="url(#clip300)" d="M 0 0 M743.643 1479.92 L751.282 1479.92 L751.282 1453.55 L742.972 1455.22 L742.972 1450.96 L751.236 1449.29 L755.912 1449.29 L755.912 1479.92 L763.55 1479.92 L763.55 1483.85 L743.643 1483.85 L743.643 1479.92 Z" fill="#000000" fill-rule="evenodd" fill-opacity="1" /><path clip-path="url(#clip300)" d="M 0 0 M782.995 1452.37 Q779.384 1452.37 777.555 1455.94 Q775.749 1459.48 775.749 1466.61 Q775.749 1473.71 777.555 1477.28 Q779.384 1480.82 782.995 1480.82 Q786.629 1480.82 788.435 1477.28 Q790.263 1473.71 790.263 1466.61 Q790.263 1459.48 788.435 1455.94 Q786.629 1452.37 782.995 1452.37 M782.995 1448.67 Q788.805 1448.67 791.86 1453.27 Q794.939 1457.86 794.939 1466.61 Q794.939 1475.33 791.86 1479.94 Q788.805 1484.52 782.995 1484.52 Q777.185 1484.52 774.106 1479.94 Q771.05 1475.33 771.05 1466.61 Q771.05 1457.86 774.106 1453.27 Q777.185 1448.67 782.995 1448.67 Z" fill="#000000" fill-rule="evenodd" fill-opacity="1" /><path clip-path="url(#clip300)" d="M 0 0 M1114.76 1479.92 L1131.08 1479.92 L1131.08 1483.85 L1109.13 1483.85 L1109.13 1479.92 Q1111.8 1477.16 1116.38 1472.53 Q1120.99 1467.88 1122.17 1466.54 Q1124.41 1464.01 1125.29 1462.28 Q1126.19 1460.52 1126.19 1458.83 Q1126.19 1456.07 1124.25 1454.34 Q1122.33 1452.6 1119.23 1452.6 Q1117.03 1452.6 1114.57 1453.37 Q1112.14 1454.13 1109.37 1455.68 L1109.37 1450.96 Q1112.19 1449.82 1114.64 1449.25 Q1117.1 1448.67 1119.13 1448.67 Q1124.5 1448.67 1127.7 1451.35 Q1130.89 1454.04 1130.89 1458.53 Q1130.89 1460.66 1130.08 1462.58 Q1129.3 1464.48 1127.19 1467.07 Q1126.61 1467.74 1123.51 1470.96 Q1120.41 1474.15 1114.76 1479.92 Z" fill="#000000" fill-rule="evenodd" fill-opacity="1" /><path clip-path="url(#clip300)" d="M 0 0 M1150.89 1452.37 Q1147.28 1452.37 1145.45 1455.94 Q1143.65 1459.48 1143.65 1466.61 Q1143.65 1473.71 1145.45 1477.28 Q1147.28 1480.82 1150.89 1480.82 Q1154.53 1480.82 1156.33 1477.28 Q1158.16 1473.71 1158.16 1466.61 Q1158.16 1459.48 1156.33 1455.94 Q1154.53 1452.37 1150.89 1452.37 M1150.89 1448.67 Q1156.7 1448.67 1159.76 1453.27 Q1162.84 1457.86 1162.84 1466.61 Q1162.84 1475.33 1159.76 1479.94 Q1156.7 1484.52 1150.89 1484.52 Q1145.08 1484.52 1142 1479.94 Q1138.95 1475.33 1138.95 1466.61 Q1138.95 1457.86 1142 1453.27 Q1145.08 1448.67 1150.89 1448.67 Z" fill="#000000" fill-rule="evenodd" fill-opacity="1" /><path clip-path="url(#clip300)" d="M 0 0 M1491.86 1465.22 Q1495.21 1465.94 1497.09 1468.2 Q1498.99 1470.47 1498.99 1473.81 Q1498.99 1478.92 1495.47 1481.72 Q1491.95 1484.52 1485.47 1484.52 Q1483.29 1484.52 1480.98 1484.08 Q1478.69 1483.67 1476.23 1482.81 L1476.23 1478.3 Q1478.18 1479.43 1480.49 1480.01 Q1482.81 1480.59 1485.33 1480.59 Q1489.73 1480.59 1492.02 1478.85 Q1494.33 1477.12 1494.33 1473.81 Q1494.33 1470.75 1492.18 1469.04 Q1490.05 1467.3 1486.23 1467.3 L1482.21 1467.3 L1482.21 1463.46 L1486.42 1463.46 Q1489.87 1463.46 1491.7 1462.09 Q1493.52 1460.7 1493.52 1458.11 Q1493.52 1455.45 1491.63 1454.04 Q1489.75 1452.6 1486.23 1452.6 Q1484.31 1452.6 1482.11 1453.02 Q1479.91 1453.44 1477.27 1454.31 L1477.27 1450.15 Q1479.94 1449.41 1482.25 1449.04 Q1484.59 1448.67 1486.65 1448.67 Q1491.97 1448.67 1495.08 1451.1 Q1498.18 1453.5 1498.18 1457.63 Q1498.18 1460.5 1496.53 1462.49 Q1494.89 1464.45 1491.86 1465.22 Z" fill="#000000" fill-rule="evenodd" fill-opacity="1" /><path clip-path="url(#clip300)" d="M 0 0 M1517.85 1452.37 Q1514.24 1452.37 1512.41 1455.94 Q1510.61 1459.48 1510.61 1466.61 Q1510.61 1473.71 1512.41 1477.28 Q1514.24 1480.82 1517.85 1480.82 Q1521.49 1480.82 1523.29 1477.28 Q1525.12 1473.71 1525.12 1466.61 Q1525.12 1459.48 1523.29 1455.94 Q1521.49 1452.37 1517.85 1452.37 M1517.85 1448.67 Q1523.66 1448.67 1526.72 1453.27 Q1529.8 1457.86 1529.8 1466.61 Q1529.8 1475.33 1526.72 1479.94 Q1523.66 1484.52 1517.85 1484.52 Q1512.04 1484.52 1508.96 1479.94 Q1505.91 1475.33 1505.91 1466.61 Q1505.91 1457.86 1508.96 1453.27 Q1512.04 1448.67 1517.85 1448.67 Z" fill="#000000" fill-rule="evenodd" fill-opacity="1" /><path clip-path="url(#clip300)" d="M 0 0 M1858.22 1453.37 L1846.41 1471.81 L1858.22 1471.81 L1858.22 1453.37 M1856.99 1449.29 L1862.87 1449.29 L1862.87 1471.81 L1867.8 1471.81 L1867.8 1475.7 L1862.87 1475.7 L1862.87 1483.85 L1858.22 1483.85 L1858.22 1475.7 L1842.62 1475.7 L1842.62 1471.19 L1856.99 1449.29 Z" fill="#000000" fill-rule="evenodd" fill-opacity="1" /><path clip-path="url(#clip300)" d="M 0 0 M1885.53 1452.37 Q1881.92 1452.37 1880.09 1455.94 Q1878.29 1459.48 1878.29 1466.61 Q1878.29 1473.71 1880.09 1477.28 Q1881.92 1480.82 1885.53 1480.82 Q1889.17 1480.82 1890.97 1477.28 Q1892.8 1473.71 1892.8 1466.61 Q1892.8 1459.48 1890.97 1455.94 Q1889.17 1452.37 1885.53 1452.37 M1885.53 1448.67 Q1891.34 1448.67 1894.4 1453.27 Q1897.48 1457.86 1897.48 1466.61 Q1897.48 1475.33 1894.4 1479.94 Q1891.34 1484.52 1885.53 1484.52 Q1879.72 1484.52 1876.64 1479.94 Q1873.59 1475.33 1873.59 1466.61 Q1873.59 1457.86 1876.64 1453.27 Q1879.72 1448.67 1885.53 1448.67 Z" fill="#000000" fill-rule="evenodd" fill-opacity="1" /><path clip-path="url(#clip300)" d="M 0 0 M2211.77 1449.29 L2230.13 1449.29 L2230.13 1453.23 L2216.06 1453.23 L2216.06 1461.7 Q2217.08 1461.35 2218.09 1461.19 Q2219.11 1461 2220.13 1461 Q2225.92 1461 2229.3 1464.18 Q2232.68 1467.35 2232.68 1472.76 Q2232.68 1478.34 2229.21 1481.44 Q2225.73 1484.52 2219.41 1484.52 Q2217.24 1484.52 2214.97 1484.15 Q2212.72 1483.78 2210.32 1483.04 L2210.32 1478.34 Q2212.4 1479.48 2214.62 1480.03 Q2216.84 1480.59 2219.32 1480.59 Q2223.33 1480.59 2225.66 1478.48 Q2228 1476.38 2228 1472.76 Q2228 1469.15 2225.66 1467.05 Q2223.33 1464.94 2219.32 1464.94 Q2217.45 1464.94 2215.57 1465.36 Q2213.72 1465.77 2211.77 1466.65 L2211.77 1449.29 Z" fill="#000000" fill-rule="evenodd" fill-opacity="1" /><path clip-path="url(#clip300)" d="M 0 0 M2251.89 1452.37 Q2248.28 1452.37 2246.45 1455.94 Q2244.64 1459.48 2244.64 1466.61 Q2244.64 1473.71 2246.45 1477.28 Q2248.28 1480.82 2251.89 1480.82 Q2255.52 1480.82 2257.33 1477.28 Q2259.16 1473.71 2259.16 1466.61 Q2259.16 1459.48 2257.33 1455.94 Q2255.52 1452.37 2251.89 1452.37 M2251.89 1448.67 Q2257.7 1448.67 2260.76 1453.27 Q2263.83 1457.86 2263.83 1466.61 Q2263.83 1475.33 2260.76 1479.94 Q2257.7 1484.52 2251.89 1484.52 Q2246.08 1484.52 2243 1479.94 Q2239.95 1475.33 2239.95 1466.61 Q2239.95 1457.86 2243 1453.27 Q2246.08 1448.67 2251.89 1448.67 Z" fill="#000000" fill-rule="evenodd" fill-opacity="1" /><path clip-path="url(#clip300)" d="M 0 0 M1300.21 1522.27 L1300.21 1532.4 L1312.27 1532.4 L1312.27 1536.95 L1300.21 1536.95 L1300.21 1556.3 Q1300.21 1560.66 1301.39 1561.9 Q1302.6 1563.14 1306.26 1563.14 L1312.27 1563.14 L1312.27 1568.04 L1306.26 1568.04 Q1299.48 1568.04 1296.9 1565.53 Q1294.32 1562.98 1294.32 1556.3 L1294.32 1536.95 L1290.02 1536.95 L1290.02 1532.4 L1294.32 1532.4 L1294.32 1522.27 L1300.21 1522.27 Z" fill="#000000" fill-rule="evenodd" fill-opacity="1" /><polyline clip-path="url(#clip302)" style="stroke:#000000; stroke-width:2; stroke-opacity:0.1; fill:none" points="
  249.542,1384.24 2352.76,1384.24 
  "/>
<polyline clip-path="url(#clip302)" style="stroke:#000000; stroke-width:2; stroke-opacity:0.1; fill:none" points="
  249.542,1126.8 2352.76,1126.8 
  "/>
<polyline clip-path="url(#clip302)" style="stroke:#000000; stroke-width:2; stroke-opacity:0.1; fill:none" points="
  249.542,869.37 2352.76,869.37 
  "/>
<polyline clip-path="url(#clip302)" style="stroke:#000000; stroke-width:2; stroke-opacity:0.1; fill:none" points="
  249.542,611.936 2352.76,611.936 
  "/>
<polyline clip-path="url(#clip302)" style="stroke:#000000; stroke-width:2; stroke-opacity:0.1; fill:none" points="
  249.542,354.501 2352.76,354.501 
  "/>
<polyline clip-path="url(#clip302)" style="stroke:#000000; stroke-width:2; stroke-opacity:0.1; fill:none" points="
  249.542,97.067 2352.76,97.067 
  "/>
<polyline clip-path="url(#clip300)" style="stroke:#000000; stroke-width:4; stroke-opacity:1; fill:none" points="
  249.542,1423.18 249.542,47.2441 
  "/>
<polyline clip-path="url(#clip300)" style="stroke:#000000; stroke-width:4; stroke-opacity:1; fill:none" points="
  249.542,1384.24 274.781,1384.24 
  "/>
<polyline clip-path="url(#clip300)" style="stroke:#000000; stroke-width:4; stroke-opacity:1; fill:none" points="
  249.542,1126.8 274.781,1126.8 
  "/>
<polyline clip-path="url(#clip300)" style="stroke:#000000; stroke-width:4; stroke-opacity:1; fill:none" points="
  249.542,869.37 274.781,869.37 
  "/>
<polyline clip-path="url(#clip300)" style="stroke:#000000; stroke-width:4; stroke-opacity:1; fill:none" points="
  249.542,611.936 274.781,611.936 
  "/>
<polyline clip-path="url(#clip300)" style="stroke:#000000; stroke-width:4; stroke-opacity:1; fill:none" points="
  249.542,354.501 274.781,354.501 
  "/>
<polyline clip-path="url(#clip300)" style="stroke:#000000; stroke-width:4; stroke-opacity:1; fill:none" points="
  249.542,97.067 274.781,97.067 
  "/>
<path clip-path="url(#clip300)" d="M 0 0 M126.205 1370.04 Q122.593 1370.04 120.765 1373.6 Q118.959 1377.14 118.959 1384.27 Q118.959 1391.38 120.765 1394.94 Q122.593 1398.49 126.205 1398.49 Q129.839 1398.49 131.644 1394.94 Q133.473 1391.38 133.473 1384.27 Q133.473 1377.14 131.644 1373.6 Q129.839 1370.04 126.205 1370.04 M126.205 1366.33 Q132.015 1366.33 135.07 1370.94 Q138.149 1375.52 138.149 1384.27 Q138.149 1393 135.07 1397.61 Q132.015 1402.19 126.205 1402.19 Q120.394 1402.19 117.316 1397.61 Q114.26 1393 114.26 1384.27 Q114.26 1375.52 117.316 1370.94 Q120.394 1366.33 126.205 1366.33 Z" fill="#000000" fill-rule="evenodd" fill-opacity="1" /><path clip-path="url(#clip300)" d="M 0 0 M146.366 1395.64 L151.251 1395.64 L151.251 1401.52 L146.366 1401.52 L146.366 1395.64 Z" fill="#000000" fill-rule="evenodd" fill-opacity="1" /><path clip-path="url(#clip300)" d="M 0 0 M171.436 1370.04 Q167.825 1370.04 165.996 1373.6 Q164.19 1377.14 164.19 1384.27 Q164.19 1391.38 165.996 1394.94 Q167.825 1398.49 171.436 1398.49 Q175.07 1398.49 176.876 1394.94 Q178.704 1391.38 178.704 1384.27 Q178.704 1377.14 176.876 1373.6 Q175.07 1370.04 171.436 1370.04 M171.436 1366.33 Q177.246 1366.33 180.301 1370.94 Q183.38 1375.52 183.38 1384.27 Q183.38 1393 180.301 1397.61 Q177.246 1402.19 171.436 1402.19 Q165.626 1402.19 162.547 1397.61 Q159.491 1393 159.491 1384.27 Q159.491 1375.52 162.547 1370.94 Q165.626 1366.33 171.436 1366.33 Z" fill="#000000" fill-rule="evenodd" fill-opacity="1" /><path clip-path="url(#clip300)" d="M 0 0 M201.598 1370.04 Q197.987 1370.04 196.158 1373.6 Q194.352 1377.14 194.352 1384.27 Q194.352 1391.38 196.158 1394.94 Q197.987 1398.49 201.598 1398.49 Q205.232 1398.49 207.037 1394.94 Q208.866 1391.38 208.866 1384.27 Q208.866 1377.14 207.037 1373.6 Q205.232 1370.04 201.598 1370.04 M201.598 1366.33 Q207.408 1366.33 210.463 1370.94 Q213.542 1375.52 213.542 1384.27 Q213.542 1393 210.463 1397.61 Q207.408 1402.19 201.598 1402.19 Q195.787 1402.19 192.709 1397.61 Q189.653 1393 189.653 1384.27 Q189.653 1375.52 192.709 1370.94 Q195.787 1366.33 201.598 1366.33 Z" fill="#000000" fill-rule="evenodd" fill-opacity="1" /><path clip-path="url(#clip300)" d="M 0 0 M127.2 1112.6 Q123.589 1112.6 121.76 1116.17 Q119.955 1119.71 119.955 1126.84 Q119.955 1133.95 121.76 1137.51 Q123.589 1141.05 127.2 1141.05 Q130.834 1141.05 132.64 1137.51 Q134.468 1133.95 134.468 1126.84 Q134.468 1119.71 132.64 1116.17 Q130.834 1112.6 127.2 1112.6 M127.2 1108.9 Q133.01 1108.9 136.066 1113.51 Q139.144 1118.09 139.144 1126.84 Q139.144 1135.57 136.066 1140.17 Q133.01 1144.76 127.2 1144.76 Q121.39 1144.76 118.311 1140.17 Q115.256 1135.57 115.256 1126.84 Q115.256 1118.09 118.311 1113.51 Q121.39 1108.9 127.2 1108.9 Z" fill="#000000" fill-rule="evenodd" fill-opacity="1" /><path clip-path="url(#clip300)" d="M 0 0 M147.362 1138.2 L152.246 1138.2 L152.246 1144.08 L147.362 1144.08 L147.362 1138.2 Z" fill="#000000" fill-rule="evenodd" fill-opacity="1" /><path clip-path="url(#clip300)" d="M 0 0 M172.431 1112.6 Q168.82 1112.6 166.991 1116.17 Q165.186 1119.71 165.186 1126.84 Q165.186 1133.95 166.991 1137.51 Q168.82 1141.05 172.431 1141.05 Q176.065 1141.05 177.871 1137.51 Q179.7 1133.95 179.7 1126.84 Q179.7 1119.71 177.871 1116.17 Q176.065 1112.6 172.431 1112.6 M172.431 1108.9 Q178.241 1108.9 181.297 1113.51 Q184.376 1118.09 184.376 1126.84 Q184.376 1135.57 181.297 1140.17 Q178.241 1144.76 172.431 1144.76 Q166.621 1144.76 163.542 1140.17 Q160.487 1135.57 160.487 1126.84 Q160.487 1118.09 163.542 1113.51 Q166.621 1108.9 172.431 1108.9 Z" fill="#000000" fill-rule="evenodd" fill-opacity="1" /><path clip-path="url(#clip300)" d="M 0 0 M192.639 1109.52 L210.996 1109.52 L210.996 1113.46 L196.922 1113.46 L196.922 1121.93 Q197.94 1121.58 198.959 1121.42 Q199.977 1121.24 200.996 1121.24 Q206.783 1121.24 210.162 1124.41 Q213.542 1127.58 213.542 1133 Q213.542 1138.57 210.07 1141.68 Q206.598 1144.76 200.278 1144.76 Q198.102 1144.76 195.834 1144.38 Q193.588 1144.01 191.181 1143.27 L191.181 1138.57 Q193.264 1139.71 195.487 1140.26 Q197.709 1140.82 200.186 1140.82 Q204.19 1140.82 206.528 1138.71 Q208.866 1136.61 208.866 1133 Q208.866 1129.39 206.528 1127.28 Q204.19 1125.17 200.186 1125.17 Q198.311 1125.17 196.436 1125.59 Q194.584 1126.01 192.639 1126.89 L192.639 1109.52 Z" fill="#000000" fill-rule="evenodd" fill-opacity="1" /><path clip-path="url(#clip300)" d="M 0 0 M126.205 855.168 Q122.593 855.168 120.765 858.733 Q118.959 862.275 118.959 869.404 Q118.959 876.511 120.765 880.076 Q122.593 883.617 126.205 883.617 Q129.839 883.617 131.644 880.076 Q133.473 876.511 133.473 869.404 Q133.473 862.275 131.644 858.733 Q129.839 855.168 126.205 855.168 M126.205 851.465 Q132.015 851.465 135.07 856.071 Q138.149 860.655 138.149 869.404 Q138.149 878.131 135.07 882.738 Q132.015 887.321 126.205 887.321 Q120.394 887.321 117.316 882.738 Q114.26 878.131 114.26 869.404 Q114.26 860.655 117.316 856.071 Q120.394 851.465 126.205 851.465 Z" fill="#000000" fill-rule="evenodd" fill-opacity="1" /><path clip-path="url(#clip300)" d="M 0 0 M146.366 880.77 L151.251 880.77 L151.251 886.65 L146.366 886.65 L146.366 880.77 Z" fill="#000000" fill-rule="evenodd" fill-opacity="1" /><path clip-path="url(#clip300)" d="M 0 0 M162.246 882.715 L169.885 882.715 L169.885 856.349 L161.575 858.016 L161.575 853.756 L169.839 852.09 L174.514 852.09 L174.514 882.715 L182.153 882.715 L182.153 886.65 L162.246 886.65 L162.246 882.715 Z" fill="#000000" fill-rule="evenodd" fill-opacity="1" /><path clip-path="url(#clip300)" d="M 0 0 M201.598 855.168 Q197.987 855.168 196.158 858.733 Q194.352 862.275 194.352 869.404 Q194.352 876.511 196.158 880.076 Q197.987 883.617 201.598 883.617 Q205.232 883.617 207.037 880.076 Q208.866 876.511 208.866 869.404 Q208.866 862.275 207.037 858.733 Q205.232 855.168 201.598 855.168 M201.598 851.465 Q207.408 851.465 210.463 856.071 Q213.542 860.655 213.542 869.404 Q213.542 878.131 210.463 882.738 Q207.408 887.321 201.598 887.321 Q195.787 887.321 192.709 882.738 Q189.653 878.131 189.653 869.404 Q189.653 860.655 192.709 856.071 Q195.787 851.465 201.598 851.465 Z" fill="#000000" fill-rule="evenodd" fill-opacity="1" /><path clip-path="url(#clip300)" d="M 0 0 M127.2 597.734 Q123.589 597.734 121.76 601.299 Q119.955 604.841 119.955 611.97 Q119.955 619.077 121.76 622.641 Q123.589 626.183 127.2 626.183 Q130.834 626.183 132.64 622.641 Q134.468 619.077 134.468 611.97 Q134.468 604.841 132.64 601.299 Q130.834 597.734 127.2 597.734 M127.2 594.031 Q133.01 594.031 136.066 598.637 Q139.144 603.22 139.144 611.97 Q139.144 620.697 136.066 625.303 Q133.01 629.887 127.2 629.887 Q121.39 629.887 118.311 625.303 Q115.256 620.697 115.256 611.97 Q115.256 603.22 118.311 598.637 Q121.39 594.031 127.2 594.031 Z" fill="#000000" fill-rule="evenodd" fill-opacity="1" /><path clip-path="url(#clip300)" d="M 0 0 M147.362 623.336 L152.246 623.336 L152.246 629.216 L147.362 629.216 L147.362 623.336 Z" fill="#000000" fill-rule="evenodd" fill-opacity="1" /><path clip-path="url(#clip300)" d="M 0 0 M163.241 625.28 L170.88 625.28 L170.88 598.915 L162.57 600.581 L162.57 596.322 L170.834 594.656 L175.51 594.656 L175.51 625.28 L183.149 625.28 L183.149 629.216 L163.241 629.216 L163.241 625.28 Z" fill="#000000" fill-rule="evenodd" fill-opacity="1" /><path clip-path="url(#clip300)" d="M 0 0 M192.639 594.656 L210.996 594.656 L210.996 598.591 L196.922 598.591 L196.922 607.063 Q197.94 606.716 198.959 606.554 Q199.977 606.368 200.996 606.368 Q206.783 606.368 210.162 609.54 Q213.542 612.711 213.542 618.128 Q213.542 623.706 210.07 626.808 Q206.598 629.887 200.278 629.887 Q198.102 629.887 195.834 629.516 Q193.588 629.146 191.181 628.405 L191.181 623.706 Q193.264 624.841 195.487 625.396 Q197.709 625.952 200.186 625.952 Q204.19 625.952 206.528 623.845 Q208.866 621.739 208.866 618.128 Q208.866 614.517 206.528 612.41 Q204.19 610.304 200.186 610.304 Q198.311 610.304 196.436 610.72 Q194.584 611.137 192.639 612.017 L192.639 594.656 Z" fill="#000000" fill-rule="evenodd" fill-opacity="1" /><path clip-path="url(#clip300)" d="M 0 0 M126.205 340.3 Q122.593 340.3 120.765 343.865 Q118.959 347.406 118.959 354.536 Q118.959 361.642 120.765 365.207 Q122.593 368.749 126.205 368.749 Q129.839 368.749 131.644 365.207 Q133.473 361.642 133.473 354.536 Q133.473 347.406 131.644 343.865 Q129.839 340.3 126.205 340.3 M126.205 336.596 Q132.015 336.596 135.07 341.203 Q138.149 345.786 138.149 354.536 Q138.149 363.263 135.07 367.869 Q132.015 372.453 126.205 372.453 Q120.394 372.453 117.316 367.869 Q114.26 363.263 114.26 354.536 Q114.26 345.786 117.316 341.203 Q120.394 336.596 126.205 336.596 Z" fill="#000000" fill-rule="evenodd" fill-opacity="1" /><path clip-path="url(#clip300)" d="M 0 0 M146.366 365.902 L151.251 365.902 L151.251 371.781 L146.366 371.781 L146.366 365.902 Z" fill="#000000" fill-rule="evenodd" fill-opacity="1" /><path clip-path="url(#clip300)" d="M 0 0 M165.464 367.846 L181.783 367.846 L181.783 371.781 L159.839 371.781 L159.839 367.846 Q162.501 365.091 167.084 360.462 Q171.69 355.809 172.871 354.467 Q175.116 351.943 175.996 350.207 Q176.899 348.448 176.899 346.758 Q176.899 344.004 174.954 342.268 Q173.033 340.531 169.931 340.531 Q167.732 340.531 165.278 341.295 Q162.848 342.059 160.07 343.61 L160.07 338.888 Q162.894 337.754 165.348 337.175 Q167.802 336.596 169.839 336.596 Q175.209 336.596 178.403 339.281 Q181.598 341.967 181.598 346.457 Q181.598 348.587 180.788 350.508 Q180.001 352.406 177.894 354.999 Q177.315 355.67 174.214 358.888 Q171.112 362.082 165.464 367.846 Z" fill="#000000" fill-rule="evenodd" fill-opacity="1" /><path clip-path="url(#clip300)" d="M 0 0 M201.598 340.3 Q197.987 340.3 196.158 343.865 Q194.352 347.406 194.352 354.536 Q194.352 361.642 196.158 365.207 Q197.987 368.749 201.598 368.749 Q205.232 368.749 207.037 365.207 Q208.866 361.642 208.866 354.536 Q208.866 347.406 207.037 343.865 Q205.232 340.3 201.598 340.3 M201.598 336.596 Q207.408 336.596 210.463 341.203 Q213.542 345.786 213.542 354.536 Q213.542 363.263 210.463 367.869 Q207.408 372.453 201.598 372.453 Q195.787 372.453 192.709 367.869 Q189.653 363.263 189.653 354.536 Q189.653 345.786 192.709 341.203 Q195.787 336.596 201.598 336.596 Z" fill="#000000" fill-rule="evenodd" fill-opacity="1" /><path clip-path="url(#clip300)" d="M 0 0 M127.2 82.8657 Q123.589 82.8657 121.76 86.4305 Q119.955 89.9721 119.955 97.1017 Q119.955 104.208 121.76 107.773 Q123.589 111.315 127.2 111.315 Q130.834 111.315 132.64 107.773 Q134.468 104.208 134.468 97.1017 Q134.468 89.9721 132.64 86.4305 Q130.834 82.8657 127.2 82.8657 M127.2 79.162 Q133.01 79.162 136.066 83.7685 Q139.144 88.3518 139.144 97.1017 Q139.144 105.829 136.066 110.435 Q133.01 115.018 127.2 115.018 Q121.39 115.018 118.311 110.435 Q115.256 105.829 115.256 97.1017 Q115.256 88.3518 118.311 83.7685 Q121.39 79.162 127.2 79.162 Z" fill="#000000" fill-rule="evenodd" fill-opacity="1" /><path clip-path="url(#clip300)" d="M 0 0 M147.362 108.467 L152.246 108.467 L152.246 114.347 L147.362 114.347 L147.362 108.467 Z" fill="#000000" fill-rule="evenodd" fill-opacity="1" /><path clip-path="url(#clip300)" d="M 0 0 M166.459 110.412 L182.778 110.412 L182.778 114.347 L160.834 114.347 L160.834 110.412 Q163.496 107.657 168.079 103.028 Q172.686 98.3749 173.866 97.0323 Q176.112 94.5091 176.991 92.773 Q177.894 91.0138 177.894 89.324 Q177.894 86.5694 175.95 84.8333 Q174.028 83.0972 170.927 83.0972 Q168.727 83.0972 166.274 83.861 Q163.843 84.6249 161.065 86.1758 L161.065 81.4537 Q163.89 80.3194 166.343 79.7407 Q168.797 79.162 170.834 79.162 Q176.204 79.162 179.399 81.8472 Q182.593 84.5323 182.593 89.0231 Q182.593 91.1527 181.783 93.074 Q180.996 94.9721 178.889 97.5647 Q178.311 98.236 175.209 101.454 Q172.107 104.648 166.459 110.412 Z" fill="#000000" fill-rule="evenodd" fill-opacity="1" /><path clip-path="url(#clip300)" d="M 0 0 M192.639 79.787 L210.996 79.787 L210.996 83.7222 L196.922 83.7222 L196.922 92.1943 Q197.94 91.8471 198.959 91.6851 Q199.977 91.4999 200.996 91.4999 Q206.783 91.4999 210.162 94.6712 Q213.542 97.8425 213.542 103.259 Q213.542 108.838 210.07 111.94 Q206.598 115.018 200.278 115.018 Q198.102 115.018 195.834 114.648 Q193.588 114.278 191.181 113.537 L191.181 108.838 Q193.264 109.972 195.487 110.528 Q197.709 111.083 200.186 111.083 Q204.19 111.083 206.528 108.977 Q208.866 106.87 208.866 103.259 Q208.866 99.648 206.528 97.5415 Q204.19 95.4351 200.186 95.4351 Q198.311 95.4351 196.436 95.8517 Q194.584 96.2684 192.639 97.148 L192.639 79.787 Z" fill="#000000" fill-rule="evenodd" fill-opacity="1" /><path clip-path="url(#clip300)" d="M 0 0 M20.1444 753.227 L26.9239 753.227 Q23.9002 756.473 22.4043 760.166 Q20.9083 763.826 20.9083 767.964 Q20.9083 776.112 25.9054 780.44 Q30.8707 784.769 40.2919 784.769 Q49.6813 784.769 54.6784 780.44 Q59.6436 776.112 59.6436 767.964 Q59.6436 763.826 58.1477 760.166 Q56.6518 756.473 53.6281 753.227 L60.3439 753.227 Q62.6355 756.601 63.7814 760.388 Q64.9272 764.144 64.9272 768.345 Q64.9272 779.135 58.3387 785.342 Q51.7183 791.548 40.2919 791.548 Q28.8336 791.548 22.2451 785.342 Q15.6248 779.135 15.6248 768.345 Q15.6248 764.08 16.7706 760.325 Q17.8846 756.537 20.1444 753.227 Z" fill="#000000" fill-rule="evenodd" fill-opacity="1" /><path clip-path="url(#clip300)" d="M 0 0 M14.5426 729.483 Q21.8632 733.748 29.0246 735.817 Q36.186 737.886 43.5384 737.886 Q50.8908 737.886 58.1159 735.817 Q65.3091 733.716 72.5979 729.483 L72.5979 734.575 Q65.1182 739.35 57.8931 741.737 Q50.668 744.092 43.5384 744.092 Q36.4406 744.092 29.2474 741.737 Q22.0542 739.382 14.5426 734.575 L14.5426 729.483 Z" fill="#000000" fill-rule="evenodd" fill-opacity="1" /><path clip-path="url(#clip300)" d="M 0 0 M18.2347 712.327 L28.3562 712.327 L28.3562 700.264 L32.9077 700.264 L32.9077 712.327 L52.2594 712.327 Q56.6199 712.327 57.8613 711.15 Q59.1026 709.94 59.1026 706.28 L59.1026 700.264 L64.0042 700.264 L64.0042 706.28 Q64.0042 713.059 61.4897 715.637 Q58.9434 718.216 52.2594 718.216 L32.9077 718.216 L32.9077 722.512 L28.3562 722.512 L28.3562 718.216 L18.2347 718.216 L18.2347 712.327 Z" fill="#000000" fill-rule="evenodd" fill-opacity="1" /><path clip-path="url(#clip300)" d="M 0 0 M14.5426 693.485 L14.5426 688.392 Q22.0542 683.618 29.2474 681.263 Q36.4406 678.875 43.5384 678.875 Q50.668 678.875 57.8931 681.263 Q65.1182 683.618 72.5979 688.392 L72.5979 693.485 Q65.3091 689.252 58.1159 687.183 Q50.8908 685.082 43.5384 685.082 Q36.186 685.082 29.0246 687.183 Q21.8632 689.252 14.5426 693.485 Z" fill="#000000" fill-rule="evenodd" fill-opacity="1" /><polyline clip-path="url(#clip302)" style="stroke:#009af9; stroke-width:8; stroke-opacity:1; fill:none" points="
  365.223,1384.24 369.793,1384.24 374.363,1384.24 378.933,1384.24 383.503,1384.24 404.631,1384.1 425.759,1373.8 446.888,1348.46 468.016,1309.92 489.144,1260.06 
  510.273,1200.75 531.401,1133.84 552.529,1061.11 577.924,968.407 603.318,872.522 628.713,775.98 654.107,681.027 675.578,603.44 697.049,529.401 718.519,459.767 
  739.99,395.236 763.313,331.556 786.637,275.051 809.96,226.041 833.283,184.667 854.785,153.274 876.287,128.233 897.789,109.329 919.291,96.2689 942.343,88.348 
  965.396,86.2177 988.448,89.3118 1011.5,97.0259 1064.92,129.173 1118.33,174.923 1213.28,267.729 1296.53,340.566 1341.91,371.814 1387.3,395.768 1432.95,412.296 
  1478.61,421.584 1579.56,420.75 1675.62,402.179 1775.5,376.788 1859.57,357.714 1962.21,342.221 2058.7,336.522 2213.29,340.661 2237.08,342.111 
  "/>
<polyline clip-path="url(#clip302)" style="stroke:#e26f46; stroke-width:4; stroke-opacity:1; fill:none" points="
  309.067,1384.24 313.911,1384.24 318.755,1384.24 323.6,1384.24 328.444,1384.24 350.84,1384.24 373.236,1384.24 378.835,1384.24 384.434,1384.24 390.033,1384.24 
  395.632,1384.24 397.032,1384.24 398.432,1384.24 399.831,1384.24 401.231,1384.24 402.631,354.501 404.031,354.501 405.43,354.501 406.83,354.501 409.63,354.501 
  412.429,354.501 415.229,354.501 418.028,354.501 429.226,354.501 440.424,354.501 451.622,354.501 462.82,354.501 485.216,354.501 507.612,354.501 561.448,354.501 
  615.285,354.501 660.803,354.501 706.321,354.501 805.211,354.501 896.379,354.501 994.121,354.501 1107.36,354.501 1208,354.501 1296.25,354.501 1392.47,354.501 
  1489.26,354.501 1596.27,354.501 1698.09,354.501 1803.96,354.501 1893.07,354.501 2001.88,354.501 2104.16,354.501 2268.01,354.501 2293.23,354.501 
  "/>
<polyline clip-path="url(#clip302)" style="stroke:#3da44d; stroke-width:4; stroke-opacity:1; fill:none" points="
  962.854,354.501 962.854,86.1857 
  "/>
<circle clip-path="url(#clip302)" cx="962.854" cy="354.501" r="14" fill="#3da44d" fill-rule="evenodd" fill-opacity="1" stroke="#000000" stroke-opacity="1" stroke-width="0"/>
<circle clip-path="url(#clip302)" cx="962.854" cy="86.1857" r="14" fill="#3da44d" fill-rule="evenodd" fill-opacity="1" stroke="#000000" stroke-opacity="1" stroke-width="0"/>
<polyline clip-path="url(#clip302)" style="stroke:#c271d2; stroke-width:4; stroke-opacity:1; fill:none" points="
  962.854,1384.24 962.854,354.501 
  "/>
<circle clip-path="url(#clip302)" cx="962.854" cy="1384.24" r="14" fill="#c271d2" fill-rule="evenodd" fill-opacity="1" stroke="#000000" stroke-opacity="1" stroke-width="0"/>
<circle clip-path="url(#clip302)" cx="962.854" cy="354.501" r="14" fill="#c271d2" fill-rule="evenodd" fill-opacity="1" stroke="#000000" stroke-opacity="1" stroke-width="0"/>
<path clip-path="url(#clip300)" d="M 0 0 M1025.88 203.605 L1014.78 233.704 L1037.02 233.704 L1025.88 203.605 M1021.26 195.544 L1030.54 195.544 L1053.58 256.024 L1045.08 256.024 L1039.57 240.509 L1012.31 240.509 L1006.8 256.024 L998.168 256.024 L1021.26 195.544 Z" fill="#000000" fill-rule="evenodd" fill-opacity="1" /><path clip-path="url(#clip300)" d="M 0 0 M1012.61 870.727 L1012.61 892.885 L1025.73 892.885 Q1032.34 892.885 1035.5 890.171 Q1038.7 887.417 1038.7 881.786 Q1038.7 876.115 1035.5 873.441 Q1032.34 870.727 1025.73 870.727 L1012.61 870.727 M1012.61 845.854 L1012.61 864.083 L1024.72 864.083 Q1030.72 864.083 1033.63 861.855 Q1036.59 859.587 1036.59 854.969 Q1036.59 850.391 1033.63 848.123 Q1030.72 845.854 1024.72 845.854 L1012.61 845.854 M1004.43 839.13 L1025.33 839.13 Q1034.69 839.13 1039.75 843.019 Q1044.81 846.907 1044.81 854.078 Q1044.81 859.627 1042.22 862.909 Q1039.63 866.19 1034.61 867 Q1040.64 868.296 1043.96 872.428 Q1047.33 876.52 1047.33 882.677 Q1047.33 890.779 1041.82 895.194 Q1036.31 899.61 1026.14 899.61 L1004.43 899.61 L1004.43 839.13 Z" fill="#000000" fill-rule="evenodd" fill-opacity="1" /></svg>