<?xml version="1.0" encoding="utf-8"?>
<svg xmlns="http://www.w3.org/2000/svg" xmlns:xlink="http://www.w3.org/1999/xlink" width="600" height="400" viewBox="0 0 2400 1600">
<defs>
  <clipPath id="clip090">
    <rect x="0" y="0" width="2400" height="1600"/>
  </clipPath>
</defs>
<path clip-path="url(#clip090)" d="
M0 1600 L2400 1600 L2400 0 L0 0  Z
  " fill="#ffffff" fill-rule="evenodd" fill-opacity="1"/>
<defs>
  <clipPath id="clip091">
    <rect x="480" y="0" width="1681" height="1600"/>
  </clipPath>
</defs>
<path clip-path="url(#clip090)" d="
M313.626 642.531 L2352.76 642.531 L2352.76 47.2441 L313.626 47.2441  Z
  " fill="#ffffff" fill-rule="evenodd" fill-opacity="1"/>
<defs>
  <clipPath id="clip092">
    <rect x="313" y="47" width="2040" height="596"/>
  </clipPath>
</defs>
<polyline clip-path="url(#clip092)" style="stroke:#000000; stroke-width:2; stroke-opacity:0.1; fill:none" points="
  371.337,642.531 371.337,47.2441 
  "/>
<polyline clip-path="url(#clip092)" style="stroke:#000000; stroke-width:2; stroke-opacity:0.1; fill:none" points="
  852.264,642.531 852.264,47.2441 
  "/>
<polyline clip-path="url(#clip092)" style="stroke:#000000; stroke-width:2; stroke-opacity:0.1; fill:none" points="
  1333.19,642.531 1333.19,47.2441 
  "/>
<polyline clip-path="url(#clip092)" style="stroke:#000000; stroke-width:2; stroke-opacity:0.1; fill:none" points="
  1814.12,642.531 1814.12,47.2441 
  "/>
<polyline clip-path="url(#clip092)" style="stroke:#000000; stroke-width:2; stroke-opacity:0.1; fill:none" points="
  2295.04,642.531 2295.04,47.2441 
  "/>
<polyline clip-path="url(#clip090)" style="stroke:#000000; stroke-width:4; stroke-opacity:1; fill:none" points="
  313.626,642.531 2352.76,642.531 
  "/>
<polyline clip-path="url(#clip090)" style="stroke:#000000; stroke-width:4; stroke-opacity:1; fill:none" points="
  371.337,642.531 371.337,635.387 
  "/>
<polyline clip-path="url(#clip090)" style="stroke:#000000; stroke-width:4; stroke-opacity:1; fill:none" points="
  852.264,642.531 852.264,635.387 
  "/>
<polyline clip-path="url(#clip090)" style="stroke:#000000; stroke-width:4; stroke-opacity:1; fill:none" points="
  1333.19,642.531 1333.19,635.387 
  "/>
<polyline clip-path="url(#clip090)" style="stroke:#000000; stroke-width:4; stroke-opacity:1; fill:none" points="
  1814.12,642.531 1814.12,635.387 
  "/>
<polyline clip-path="url(#clip090)" style="stroke:#000000; stroke-width:4; stroke-opacity:1; fill:none" points="
  2295.04,642.531 2295.04,635.387 
  "/>
<polyline clip-path="url(#clip090)" style="stroke:#000000; stroke-width:4; stroke-opacity:1; fill:none" points="
  521.464,642.531 521.464,638.959 
  "/>
<polyline clip-path="url(#clip090)" style="stroke:#000000; stroke-width:4; stroke-opacity:1; fill:none" points="
  631.671,642.531 631.671,638.959 
  "/>
<polyline clip-path="url(#clip090)" style="stroke:#000000; stroke-width:4; stroke-opacity:1; fill:none" points="
  718.788,642.531 718.788,638.959 
  "/>
<polyline clip-path="url(#clip090)" style="stroke:#000000; stroke-width:4; stroke-opacity:1; fill:none" points="
  790.835,642.531 790.835,638.959 
  "/>
<polyline clip-path="url(#clip090)" style="stroke:#000000; stroke-width:4; stroke-opacity:1; fill:none" points="
  1002.39,642.531 1002.39,638.959 
  "/>
<polyline clip-path="url(#clip090)" style="stroke:#000000; stroke-width:4; stroke-opacity:1; fill:none" points="
  1112.6,642.531 1112.6,638.959 
  "/>
<polyline clip-path="url(#clip090)" style="stroke:#000000; stroke-width:4; stroke-opacity:1; fill:none" points="
  1199.71,642.531 1199.71,638.959 
  "/>
<polyline clip-path="url(#clip090)" style="stroke:#000000; stroke-width:4; stroke-opacity:1; fill:none" points="
  1271.76,642.531 1271.76,638.959 
  "/>
<polyline clip-path="url(#clip090)" style="stroke:#000000; stroke-width:4; stroke-opacity:1; fill:none" points="
  1483.32,642.531 1483.32,638.959 
  "/>
<polyline clip-path="url(#clip090)" style="stroke:#000000; stroke-width:4; stroke-opacity:1; fill:none" points="
  1593.52,642.531 1593.52,638.959 
  "/>
<polyline clip-path="url(#clip090)" style="stroke:#000000; stroke-width:4; stroke-opacity:1; fill:none" points="
  1680.64,642.531 1680.64,638.959 
  "/>
<polyline clip-path="url(#clip090)" style="stroke:#000000; stroke-width:4; stroke-opacity:1; fill:none" points="
  1752.69,642.531 1752.69,638.959 
  "/>
<polyline clip-path="url(#clip090)" style="stroke:#000000; stroke-width:4; stroke-opacity:1; fill:none" points="
  1964.25,642.531 1964.25,638.959 
  "/>
<polyline clip-path="url(#clip090)" style="stroke:#000000; stroke-width:4; stroke-opacity:1; fill:none" points="
  2074.45,642.531 2074.45,638.959 
  "/>
<polyline clip-path="url(#clip090)" style="stroke:#000000; stroke-width:4; stroke-opacity:1; fill:none" points="
  2161.57,642.531 2161.57,638.959 
  "/>
<polyline clip-path="url(#clip090)" style="stroke:#000000; stroke-width:4; stroke-opacity:1; fill:none" points="
  2233.62,642.531 2233.62,638.959 
  "/>
<path clip-path="url(#clip090)" d="M 0 0 M302.579 720.803 L310.218 720.803 L310.218 694.437 L301.908 696.104 L301.908 691.845 L310.171 690.178 L314.847 690.178 L314.847 720.803 L322.486 720.803 L322.486 724.738 L302.579 724.738 L302.579 720.803 Z" fill="#000000" fill-rule="evenodd" fill-opacity="1" /><path clip-path="url(#clip090)" d="M 0 0 M341.93 693.257 Q338.319 693.257 336.491 696.821 Q334.685 700.363 334.685 707.493 Q334.685 714.599 336.491 718.164 Q338.319 721.705 341.93 721.705 Q345.565 721.705 347.37 718.164 Q349.199 714.599 349.199 707.493 Q349.199 700.363 347.37 696.821 Q345.565 693.257 341.93 693.257 M341.93 689.553 Q347.741 689.553 350.796 694.159 Q353.875 698.743 353.875 707.493 Q353.875 716.219 350.796 720.826 Q347.741 725.409 341.93 725.409 Q336.12 725.409 333.042 720.826 Q329.986 716.219 329.986 707.493 Q329.986 698.743 333.042 694.159 Q336.12 689.553 341.93 689.553 Z" fill="#000000" fill-rule="evenodd" fill-opacity="1" /><path clip-path="url(#clip090)" d="M 0 0 M353.875 683.654 L377.986 683.654 L377.986 686.852 L353.875 686.852 L353.875 683.654 Z" fill="#000000" fill-rule="evenodd" fill-opacity="1" /><path clip-path="url(#clip090)" d="M 0 0 M386.845 694.13 L393.051 694.13 L393.051 672.708 L386.299 674.062 L386.299 670.602 L393.014 669.247 L396.813 669.247 L396.813 694.13 L403.02 694.13 L403.02 697.327 L386.845 697.327 L386.845 694.13 Z" fill="#000000" fill-rule="evenodd" fill-opacity="1" /><path clip-path="url(#clip090)" d="M 0 0 M410.693 692.55 L414.662 692.55 L414.662 697.327 L410.693 697.327 L410.693 692.55 Z" fill="#000000" fill-rule="evenodd" fill-opacity="1" /><path clip-path="url(#clip090)" d="M 0 0 M431.062 671.749 Q428.128 671.749 426.642 674.645 Q425.175 677.523 425.175 683.316 Q425.175 689.09 426.642 691.986 Q428.128 694.864 431.062 694.864 Q434.015 694.864 435.482 691.986 Q436.968 689.09 436.968 683.316 Q436.968 677.523 435.482 674.645 Q434.015 671.749 431.062 671.749 M431.062 668.74 Q435.783 668.74 438.265 672.482 Q440.767 676.206 440.767 683.316 Q440.767 690.406 438.265 694.149 Q435.783 697.873 431.062 697.873 Q426.341 697.873 423.84 694.149 Q421.357 690.406 421.357 683.316 Q421.357 676.206 423.84 672.482 Q426.341 668.74 431.062 668.74 Z" fill="#000000" fill-rule="evenodd" fill-opacity="1" /><path clip-path="url(#clip090)" d="M 0 0 M783.91 720.803 L791.549 720.803 L791.549 694.437 L783.239 696.104 L783.239 691.845 L791.503 690.178 L796.179 690.178 L796.179 720.803 L803.817 720.803 L803.817 724.738 L783.91 724.738 L783.91 720.803 Z" fill="#000000" fill-rule="evenodd" fill-opacity="1" /><path clip-path="url(#clip090)" d="M 0 0 M823.262 693.257 Q819.651 693.257 817.822 696.821 Q816.016 700.363 816.016 707.493 Q816.016 714.599 817.822 718.164 Q819.651 721.705 823.262 721.705 Q826.896 721.705 828.701 718.164 Q830.53 714.599 830.53 707.493 Q830.53 700.363 828.701 696.821 Q826.896 693.257 823.262 693.257 M823.262 689.553 Q829.072 689.553 832.127 694.159 Q835.206 698.743 835.206 707.493 Q835.206 716.219 832.127 720.826 Q829.072 725.409 823.262 725.409 Q817.452 725.409 814.373 720.826 Q811.317 716.219 811.317 707.493 Q811.317 698.743 814.373 694.159 Q817.452 689.553 823.262 689.553 Z" fill="#000000" fill-rule="evenodd" fill-opacity="1" /><path clip-path="url(#clip090)" d="M 0 0 M835.206 683.654 L859.318 683.654 L859.318 686.852 L835.206 686.852 L835.206 683.654 Z" fill="#000000" fill-rule="evenodd" fill-opacity="1" /><path clip-path="url(#clip090)" d="M 0 0 M875.643 671.749 Q872.709 671.749 871.223 674.645 Q869.756 677.523 869.756 683.316 Q869.756 689.09 871.223 691.986 Q872.709 694.864 875.643 694.864 Q878.596 694.864 880.063 691.986 Q881.548 689.09 881.548 683.316 Q881.548 677.523 880.063 674.645 Q878.596 671.749 875.643 671.749 M875.643 668.74 Q880.364 668.74 882.846 672.482 Q885.348 676.206 885.348 683.316 Q885.348 690.406 882.846 694.149 Q880.364 697.873 875.643 697.873 Q870.922 697.873 868.421 694.149 Q865.938 690.406 865.938 683.316 Q865.938 676.206 868.421 672.482 Q870.922 668.74 875.643 668.74 Z" fill="#000000" fill-rule="evenodd" fill-opacity="1" /><path clip-path="url(#clip090)" d="M 0 0 M892.024 692.55 L895.993 692.55 L895.993 697.327 L892.024 697.327 L892.024 692.55 Z" fill="#000000" fill-rule="evenodd" fill-opacity="1" /><path clip-path="url(#clip090)" d="M 0 0 M904.306 669.247 L919.22 669.247 L919.22 672.445 L907.785 672.445 L907.785 679.328 Q908.613 679.046 909.44 678.915 Q910.268 678.764 911.095 678.764 Q915.797 678.764 918.543 681.341 Q921.289 683.918 921.289 688.319 Q921.289 692.851 918.468 695.371 Q915.647 697.873 910.512 697.873 Q908.744 697.873 906.901 697.572 Q905.077 697.271 903.121 696.669 L903.121 692.851 Q904.814 693.773 906.619 694.224 Q908.425 694.676 910.437 694.676 Q913.691 694.676 915.59 692.964 Q917.49 691.253 917.49 688.319 Q917.49 685.385 915.59 683.673 Q913.691 681.962 910.437 681.962 Q908.914 681.962 907.39 682.3 Q905.886 682.639 904.306 683.353 L904.306 669.247 Z" fill="#000000" fill-rule="evenodd" fill-opacity="1" /><path clip-path="url(#clip090)" d="M 0 0 M1279.8 720.803 L1287.44 720.803 L1287.44 694.437 L1279.13 696.104 L1279.13 691.845 L1287.39 690.178 L1292.07 690.178 L1292.07 720.803 L1299.71 720.803 L1299.71 724.738 L1279.8 724.738 L1279.8 720.803 Z" fill="#000000" fill-rule="evenodd" fill-opacity="1" /><path clip-path="url(#clip090)" d="M 0 0 M1319.15 693.257 Q1315.54 693.257 1313.71 696.821 Q1311.9 700.363 1311.9 707.493 Q1311.9 714.599 1313.71 718.164 Q1315.54 721.705 1319.15 721.705 Q1322.78 721.705 1324.59 718.164 Q1326.42 714.599 1326.42 707.493 Q1326.42 700.363 1324.59 696.821 Q1322.78 693.257 1319.15 693.257 M1319.15 689.553 Q1324.96 689.553 1328.02 694.159 Q1331.09 698.743 1331.09 707.493 Q1331.09 716.219 1328.02 720.826 Q1324.96 725.409 1319.15 725.409 Q1313.34 725.409 1310.26 720.826 Q1307.21 716.219 1307.21 707.493 Q1307.21 698.743 1310.26 694.159 Q1313.34 689.553 1319.15 689.553 Z" fill="#000000" fill-rule="evenodd" fill-opacity="1" /><path clip-path="url(#clip090)" d="M 0 0 M1340.8 671.749 Q1337.87 671.749 1336.38 674.645 Q1334.91 677.523 1334.91 683.316 Q1334.91 689.09 1336.38 691.986 Q1337.87 694.864 1340.8 694.864 Q1343.75 694.864 1345.22 691.986 Q1346.71 689.09 1346.71 683.316 Q1346.71 677.523 1345.22 674.645 Q1343.75 671.749 1340.8 671.749 M1340.8 668.74 Q1345.52 668.74 1348 672.482 Q1350.5 676.206 1350.5 683.316 Q1350.5 690.406 1348 694.149 Q1345.52 697.873 1340.8 697.873 Q1336.08 697.873 1333.58 694.149 Q1331.09 690.406 1331.09 683.316 Q1331.09 676.206 1333.58 672.482 Q1336.08 668.74 1340.8 668.74 Z" fill="#000000" fill-rule="evenodd" fill-opacity="1" /><path clip-path="url(#clip090)" d="M 0 0 M1357.18 692.55 L1361.15 692.55 L1361.15 697.327 L1357.18 697.327 L1357.18 692.55 Z" fill="#000000" fill-rule="evenodd" fill-opacity="1" /><path clip-path="url(#clip090)" d="M 0 0 M1377.55 671.749 Q1374.62 671.749 1373.13 674.645 Q1371.66 677.523 1371.66 683.316 Q1371.66 689.09 1373.13 691.986 Q1374.62 694.864 1377.55 694.864 Q1380.5 694.864 1381.97 691.986 Q1383.46 689.09 1383.46 683.316 Q1383.46 677.523 1381.97 674.645 Q1380.5 671.749 1377.55 671.749 M1377.55 668.74 Q1382.27 668.74 1384.75 672.482 Q1387.25 676.206 1387.25 683.316 Q1387.25 690.406 1384.75 694.149 Q1382.27 697.873 1377.55 697.873 Q1372.83 697.873 1370.33 694.149 Q1367.84 690.406 1367.84 683.316 Q1367.84 676.206 1370.33 672.482 Q1372.83 668.74 1377.55 668.74 Z" fill="#000000" fill-rule="evenodd" fill-opacity="1" /><path clip-path="url(#clip090)" d="M 0 0 M1761.13 720.803 L1768.77 720.803 L1768.77 694.437 L1760.46 696.104 L1760.46 691.845 L1768.72 690.178 L1773.4 690.178 L1773.4 720.803 L1781.04 720.803 L1781.04 724.738 L1761.13 724.738 L1761.13 720.803 Z" fill="#000000" fill-rule="evenodd" fill-opacity="1" /><path clip-path="url(#clip090)" d="M 0 0 M1800.48 693.257 Q1796.87 693.257 1795.04 696.821 Q1793.24 700.363 1793.24 707.493 Q1793.24 714.599 1795.04 718.164 Q1796.87 721.705 1800.48 721.705 Q1804.12 721.705 1805.92 718.164 Q1807.75 714.599 1807.75 707.493 Q1807.75 700.363 1805.92 696.821 Q1804.12 693.257 1800.48 693.257 M1800.48 689.553 Q1806.29 689.553 1809.35 694.159 Q1812.43 698.743 1812.43 707.493 Q1812.43 716.219 1809.35 720.826 Q1806.29 725.409 1800.48 725.409 Q1794.67 725.409 1791.59 720.826 Q1788.54 716.219 1788.54 707.493 Q1788.54 698.743 1791.59 694.159 Q1794.67 689.553 1800.48 689.553 Z" fill="#000000" fill-rule="evenodd" fill-opacity="1" /><path clip-path="url(#clip090)" d="M 0 0 M1822.13 671.749 Q1819.2 671.749 1817.71 674.645 Q1816.24 677.523 1816.24 683.316 Q1816.24 689.09 1817.71 691.986 Q1819.2 694.864 1822.13 694.864 Q1825.08 694.864 1826.55 691.986 Q1828.04 689.09 1828.04 683.316 Q1828.04 677.523 1826.55 674.645 Q1825.08 671.749 1822.13 671.749 M1822.13 668.74 Q1826.85 668.74 1829.33 672.482 Q1831.84 676.206 1831.84 683.316 Q1831.84 690.406 1829.33 694.149 Q1826.85 697.873 1822.13 697.873 Q1817.41 697.873 1814.91 694.149 Q1812.43 690.406 1812.43 683.316 Q1812.43 676.206 1814.91 672.482 Q1817.41 668.74 1822.13 668.74 Z" fill="#000000" fill-rule="evenodd" fill-opacity="1" /><path clip-path="url(#clip090)" d="M 0 0 M1838.51 692.55 L1842.48 692.55 L1842.48 697.327 L1838.51 697.327 L1838.51 692.55 Z" fill="#000000" fill-rule="evenodd" fill-opacity="1" /><path clip-path="url(#clip090)" d="M 0 0 M1850.79 669.247 L1865.71 669.247 L1865.71 672.445 L1854.27 672.445 L1854.27 679.328 Q1855.1 679.046 1855.93 678.915 Q1856.76 678.764 1857.58 678.764 Q1862.29 678.764 1865.03 681.341 Q1867.78 683.918 1867.78 688.319 Q1867.78 692.851 1864.96 695.371 Q1862.13 697.873 1857 697.873 Q1855.23 697.873 1853.39 697.572 Q1851.56 697.271 1849.61 696.669 L1849.61 692.851 Q1851.3 693.773 1853.11 694.224 Q1854.91 694.676 1856.92 694.676 Q1860.18 694.676 1862.08 692.964 Q1863.98 691.253 1863.98 688.319 Q1863.98 685.385 1862.08 683.673 Q1860.18 681.962 1856.92 681.962 Q1855.4 681.962 1853.88 682.3 Q1852.37 682.639 1850.79 683.353 L1850.79 669.247 Z" fill="#000000" fill-rule="evenodd" fill-opacity="1" /><path clip-path="url(#clip090)" d="M 0 0 M2242.5 720.803 L2250.14 720.803 L2250.14 694.437 L2241.83 696.104 L2241.83 691.845 L2250.09 690.178 L2254.77 690.178 L2254.77 720.803 L2262.41 720.803 L2262.41 724.738 L2242.5 724.738 L2242.5 720.803 Z" fill="#000000" fill-rule="evenodd" fill-opacity="1" /><path clip-path="url(#clip090)" d="M 0 0 M2281.85 693.257 Q2278.24 693.257 2276.41 696.821 Q2274.6 700.363 2274.6 707.493 Q2274.6 714.599 2276.41 718.164 Q2278.24 721.705 2281.85 721.705 Q2285.48 721.705 2287.29 718.164 Q2289.12 714.599 2289.12 707.493 Q2289.12 700.363 2287.29 696.821 Q2285.48 693.257 2281.85 693.257 M2281.85 689.553 Q2287.66 689.553 2290.72 694.159 Q2293.79 698.743 2293.79 707.493 Q2293.79 716.219 2290.72 720.826 Q2287.66 725.409 2281.85 725.409 Q2276.04 725.409 2272.96 720.826 Q2269.91 716.219 2269.91 707.493 Q2269.91 698.743 2272.96 694.159 Q2276.04 689.553 2281.85 689.553 Z" fill="#000000" fill-rule="evenodd" fill-opacity="1" /><path clip-path="url(#clip090)" d="M 0 0 M2294.34 694.13 L2300.55 694.13 L2300.55 672.708 L2293.79 674.062 L2293.79 670.602 L2300.51 669.247 L2304.31 669.247 L2304.31 694.13 L2310.51 694.13 L2310.51 697.327 L2294.34 697.327 L2294.34 694.13 Z" fill="#000000" fill-rule="evenodd" fill-opacity="1" /><path clip-path="url(#clip090)" d="M 0 0 M2318.19 692.55 L2322.16 692.55 L2322.16 697.327 L2318.19 697.327 L2318.19 692.55 Z" fill="#000000" fill-rule="evenodd" fill-opacity="1" /><path clip-path="url(#clip090)" d="M 0 0 M2338.56 671.749 Q2335.62 671.749 2334.14 674.645 Q2332.67 677.523 2332.67 683.316 Q2332.67 689.09 2334.14 691.986 Q2335.62 694.864 2338.56 694.864 Q2341.51 694.864 2342.98 691.986 Q2344.46 689.09 2344.46 683.316 Q2344.46 677.523 2342.98 674.645 Q2341.51 671.749 2338.56 671.749 M2338.56 668.74 Q2343.28 668.74 2345.76 672.482 Q2348.26 676.206 2348.26 683.316 Q2348.26 690.406 2345.76 694.149 Q2343.28 697.873 2338.56 697.873 Q2333.84 697.873 2331.33 694.149 Q2328.85 690.406 2328.85 683.316 Q2328.85 676.206 2331.33 672.482 Q2333.84 668.74 2338.56 668.74 Z" fill="#000000" fill-rule="evenodd" fill-opacity="1" /><polyline clip-path="url(#clip092)" style="stroke:#000000; stroke-width:2; stroke-opacity:0.1; fill:none" points="
  313.626,608.148 2352.76,608.148 
  "/>
<polyline clip-path="url(#clip092)" style="stroke:#000000; stroke-width:2; stroke-opacity:0.1; fill:none" points="
  313.626,471.839 2352.76,471.839 
  "/>
<polyline clip-path="url(#clip092)" style="stroke:#000000; stroke-width:2; stroke-opacity:0.1; fill:none" points="
  313.626,335.531 2352.76,335.531 
  "/>
<polyline clip-path="url(#clip092)" style="stroke:#000000; stroke-width:2; stroke-opacity:0.1; fill:none" points="
  313.626,199.222 2352.76,199.222 
  "/>
<polyline clip-path="url(#clip092)" style="stroke:#000000; stroke-width:2; stroke-opacity:0.1; fill:none" points="
  313.626,62.9137 2352.76,62.9137 
  "/>
<polyline clip-path="url(#clip090)" style="stroke:#000000; stroke-width:4; stroke-opacity:1; fill:none" points="
  313.626,642.531 313.626,47.2441 
  "/>
<polyline clip-path="url(#clip090)" style="stroke:#000000; stroke-width:4; stroke-opacity:1; fill:none" points="
  313.626,608.148 338.095,608.148 
  "/>
<polyline clip-path="url(#clip090)" style="stroke:#000000; stroke-width:4; stroke-opacity:1; fill:none" points="
  313.626,471.839 338.095,471.839 
  "/>
<polyline clip-path="url(#clip090)" style="stroke:#000000; stroke-width:4; stroke-opacity:1; fill:none" points="
  313.626,335.531 338.095,335.531 
  "/>
<polyline clip-path="url(#clip090)" style="stroke:#000000; stroke-width:4; stroke-opacity:1; fill:none" points="
  313.626,199.222 338.095,199.222 
  "/>
<polyline clip-path="url(#clip090)" style="stroke:#000000; stroke-width:4; stroke-opacity:1; fill:none" points="
  313.626,62.9137 338.095,62.9137 
  "/>
<polyline clip-path="url(#clip090)" style="stroke:#000000; stroke-width:4; stroke-opacity:1; fill:none" points="
  313.626,629.838 325.861,629.838 
  "/>
<polyline clip-path="url(#clip090)" style="stroke:#000000; stroke-width:4; stroke-opacity:1; fill:none" points="
  313.626,573.892 325.861,573.892 
  "/>
<polyline clip-path="url(#clip090)" style="stroke:#000000; stroke-width:4; stroke-opacity:1; fill:none" points="
  313.626,543.971 325.861,543.971 
  "/>
<polyline clip-path="url(#clip090)" style="stroke:#000000; stroke-width:4; stroke-opacity:1; fill:none" points="
  313.626,517.41 325.861,517.41 
  "/>
<polyline clip-path="url(#clip090)" style="stroke:#000000; stroke-width:4; stroke-opacity:1; fill:none" points="
  313.626,493.53 325.861,493.53 
  "/>
<polyline clip-path="url(#clip090)" style="stroke:#000000; stroke-width:4; stroke-opacity:1; fill:none" points="
  313.626,437.583 325.861,437.583 
  "/>
<polyline clip-path="url(#clip090)" style="stroke:#000000; stroke-width:4; stroke-opacity:1; fill:none" points="
  313.626,407.662 325.861,407.662 
  "/>
<polyline clip-path="url(#clip090)" style="stroke:#000000; stroke-width:4; stroke-opacity:1; fill:none" points="
  313.626,381.101 325.861,381.101 
  "/>
<polyline clip-path="url(#clip090)" style="stroke:#000000; stroke-width:4; stroke-opacity:1; fill:none" points="
  313.626,357.221 325.861,357.221 
  "/>
<polyline clip-path="url(#clip090)" style="stroke:#000000; stroke-width:4; stroke-opacity:1; fill:none" points="
  313.626,301.275 325.861,301.275 
  "/>
<polyline clip-path="url(#clip090)" style="stroke:#000000; stroke-width:4; stroke-opacity:1; fill:none" points="
  313.626,271.353 325.861,271.353 
  "/>
<polyline clip-path="url(#clip090)" style="stroke:#000000; stroke-width:4; stroke-opacity:1; fill:none" points="
  313.626,244.793 325.861,244.793 
  "/>
<polyline clip-path="url(#clip090)" style="stroke:#000000; stroke-width:4; stroke-opacity:1; fill:none" points="
  313.626,220.913 325.861,220.913 
  "/>
<polyline clip-path="url(#clip090)" style="stroke:#000000; stroke-width:4; stroke-opacity:1; fill:none" points="
  313.626,164.966 325.861,164.966 
  "/>
<polyline clip-path="url(#clip090)" style="stroke:#000000; stroke-width:4; stroke-opacity:1; fill:none" points="
  313.626,135.045 325.861,135.045 
  "/>
<polyline clip-path="url(#clip090)" style="stroke:#000000; stroke-width:4; stroke-opacity:1; fill:none" points="
  313.626,108.484 325.861,108.484 
  "/>
<polyline clip-path="url(#clip090)" style="stroke:#000000; stroke-width:4; stroke-opacity:1; fill:none" points="
  313.626,84.6044 325.861,84.6044 
  "/>
<path clip-path="url(#clip090)" d="M 0 0 M114.931 627.94 L122.57 627.94 L122.57 601.575 L114.26 603.241 L114.26 598.982 L122.524 597.315 L127.2 597.315 L127.2 627.94 L134.839 627.94 L134.839 631.875 L114.931 631.875 L114.931 627.94 Z" fill="#000000" fill-rule="evenodd" fill-opacity="1" /><path clip-path="url(#clip090)" d="M 0 0 M154.283 600.394 Q150.672 600.394 148.843 603.959 Q147.038 607.501 147.038 614.63 Q147.038 621.737 148.843 625.301 Q150.672 628.843 154.283 628.843 Q157.917 628.843 159.723 625.301 Q161.552 621.737 161.552 614.63 Q161.552 607.501 159.723 603.959 Q157.917 600.394 154.283 600.394 M154.283 596.69 Q160.093 596.69 163.149 601.297 Q166.227 605.88 166.227 614.63 Q166.227 623.357 163.149 627.963 Q160.093 632.547 154.283 632.547 Q148.473 632.547 145.394 627.963 Q142.339 623.357 142.339 614.63 Q142.339 605.88 145.394 601.297 Q148.473 596.69 154.283 596.69 Z" fill="#000000" fill-rule="evenodd" fill-opacity="1" /><path clip-path="url(#clip090)" d="M 0 0 M166.227 590.792 L190.339 590.792 L190.339 593.989 L166.227 593.989 L166.227 590.792 Z" fill="#000000" fill-rule="evenodd" fill-opacity="1" /><path clip-path="url(#clip090)" d="M 0 0 M199.197 601.268 L205.404 601.268 L205.404 579.846 L198.652 581.2 L198.652 577.739 L205.366 576.385 L209.166 576.385 L209.166 601.268 L215.372 601.268 L215.372 604.465 L199.197 604.465 L199.197 601.268 Z" fill="#000000" fill-rule="evenodd" fill-opacity="1" /><path clip-path="url(#clip090)" d="M 0 0 M223.046 599.688 L227.014 599.688 L227.014 604.465 L223.046 604.465 L223.046 599.688 Z" fill="#000000" fill-rule="evenodd" fill-opacity="1" /><path clip-path="url(#clip090)" d="M 0 0 M243.415 578.886 Q240.481 578.886 238.995 581.783 Q237.528 584.66 237.528 590.453 Q237.528 596.227 238.995 599.124 Q240.481 602.001 243.415 602.001 Q246.367 602.001 247.834 599.124 Q249.32 596.227 249.32 590.453 Q249.32 584.66 247.834 581.783 Q246.367 578.886 243.415 578.886 M243.415 575.877 Q248.135 575.877 250.618 579.62 Q253.119 583.344 253.119 590.453 Q253.119 597.544 250.618 601.287 Q248.135 605.01 243.415 605.01 Q238.694 605.01 236.192 601.287 Q233.71 597.544 233.71 590.453 Q233.71 583.344 236.192 579.62 Q238.694 575.877 243.415 575.877 Z" fill="#000000" fill-rule="evenodd" fill-opacity="1" /><path clip-path="url(#clip090)" d="M 0 0 M267.921 578.886 Q264.987 578.886 263.501 581.783 Q262.034 584.66 262.034 590.453 Q262.034 596.227 263.501 599.124 Q264.987 602.001 267.921 602.001 Q270.874 602.001 272.341 599.124 Q273.827 596.227 273.827 590.453 Q273.827 584.66 272.341 581.783 Q270.874 578.886 267.921 578.886 M267.921 575.877 Q272.642 575.877 275.124 579.62 Q277.626 583.344 277.626 590.453 Q277.626 597.544 275.124 601.287 Q272.642 605.01 267.921 605.01 Q263.2 605.01 260.699 601.287 Q258.216 597.544 258.216 590.453 Q258.216 583.344 260.699 579.62 Q263.2 575.877 267.921 575.877 Z" fill="#000000" fill-rule="evenodd" fill-opacity="1" /><path clip-path="url(#clip090)" d="M 0 0 M115.74 491.632 L123.379 491.632 L123.379 465.266 L115.069 466.933 L115.069 462.674 L123.333 461.007 L128.009 461.007 L128.009 491.632 L135.647 491.632 L135.647 495.567 L115.74 495.567 L115.74 491.632 Z" fill="#000000" fill-rule="evenodd" fill-opacity="1" /><path clip-path="url(#clip090)" d="M 0 0 M155.092 464.086 Q151.481 464.086 149.652 467.65 Q147.846 471.192 147.846 478.322 Q147.846 485.428 149.652 488.993 Q151.481 492.535 155.092 492.535 Q158.726 492.535 160.532 488.993 Q162.36 485.428 162.36 478.322 Q162.36 471.192 160.532 467.65 Q158.726 464.086 155.092 464.086 M155.092 460.382 Q160.902 460.382 163.958 464.988 Q167.036 469.572 167.036 478.322 Q167.036 487.048 163.958 491.655 Q160.902 496.238 155.092 496.238 Q149.282 496.238 146.203 491.655 Q143.147 487.048 143.147 478.322 Q143.147 469.572 146.203 464.988 Q149.282 460.382 155.092 460.382 Z" fill="#000000" fill-rule="evenodd" fill-opacity="1" /><path clip-path="url(#clip090)" d="M 0 0 M167.036 454.483 L191.148 454.483 L191.148 457.681 L167.036 457.681 L167.036 454.483 Z" fill="#000000" fill-rule="evenodd" fill-opacity="1" /><path clip-path="url(#clip090)" d="M 0 0 M207.473 442.578 Q204.539 442.578 203.053 445.474 Q201.586 448.352 201.586 454.145 Q201.586 459.919 203.053 462.815 Q204.539 465.693 207.473 465.693 Q210.426 465.693 211.893 462.815 Q213.379 459.919 213.379 454.145 Q213.379 448.352 211.893 445.474 Q210.426 442.578 207.473 442.578 M207.473 439.569 Q212.194 439.569 214.676 443.311 Q217.178 447.035 217.178 454.145 Q217.178 461.235 214.676 464.978 Q212.194 468.702 207.473 468.702 Q202.752 468.702 200.251 464.978 Q197.768 461.235 197.768 454.145 Q197.768 447.035 200.251 443.311 Q202.752 439.569 207.473 439.569 Z" fill="#000000" fill-rule="evenodd" fill-opacity="1" /><path clip-path="url(#clip090)" d="M 0 0 M223.854 463.379 L227.823 463.379 L227.823 468.157 L223.854 468.157 L223.854 463.379 Z" fill="#000000" fill-rule="evenodd" fill-opacity="1" /><path clip-path="url(#clip090)" d="M 0 0 M235.139 440.077 L253.195 440.077 L253.195 441.694 L243.001 468.157 L239.032 468.157 L248.624 443.274 L235.139 443.274 L235.139 440.077 Z" fill="#000000" fill-rule="evenodd" fill-opacity="1" /><path clip-path="url(#clip090)" d="M 0 0 M260.642 440.077 L275.557 440.077 L275.557 443.274 L264.122 443.274 L264.122 450.157 Q264.949 449.875 265.777 449.744 Q266.605 449.593 267.432 449.593 Q272.134 449.593 274.88 452.17 Q277.626 454.747 277.626 459.148 Q277.626 463.68 274.805 466.2 Q271.984 468.702 266.849 468.702 Q265.081 468.702 263.238 468.401 Q261.414 468.1 259.458 467.498 L259.458 463.68 Q261.15 464.602 262.956 465.053 Q264.761 465.505 266.774 465.505 Q270.028 465.505 271.927 463.793 Q273.827 462.082 273.827 459.148 Q273.827 456.214 271.927 454.502 Q270.028 452.791 266.774 452.791 Q265.25 452.791 263.727 453.129 Q262.222 453.468 260.642 454.182 L260.642 440.077 Z" fill="#000000" fill-rule="evenodd" fill-opacity="1" /><path clip-path="url(#clip090)" d="M 0 0 M114.931 355.323 L122.57 355.323 L122.57 328.958 L114.26 330.624 L114.26 326.365 L122.524 324.698 L127.2 324.698 L127.2 355.323 L134.839 355.323 L134.839 359.258 L114.931 359.258 L114.931 355.323 Z" fill="#000000" fill-rule="evenodd" fill-opacity="1" /><path clip-path="url(#clip090)" d="M 0 0 M154.283 327.777 Q150.672 327.777 148.843 331.342 Q147.038 334.884 147.038 342.013 Q147.038 349.12 148.843 352.684 Q150.672 356.226 154.283 356.226 Q157.917 356.226 159.723 352.684 Q161.552 349.12 161.552 342.013 Q161.552 334.884 159.723 331.342 Q157.917 327.777 154.283 327.777 M154.283 324.073 Q160.093 324.073 163.149 328.68 Q166.227 333.263 166.227 342.013 Q166.227 350.74 163.149 355.346 Q160.093 359.93 154.283 359.93 Q148.473 359.93 145.394 355.346 Q142.339 350.74 142.339 342.013 Q142.339 333.263 145.394 328.68 Q148.473 324.073 154.283 324.073 Z" fill="#000000" fill-rule="evenodd" fill-opacity="1" /><path clip-path="url(#clip090)" d="M 0 0 M166.227 318.175 L190.339 318.175 L190.339 321.372 L166.227 321.372 L166.227 318.175 Z" fill="#000000" fill-rule="evenodd" fill-opacity="1" /><path clip-path="url(#clip090)" d="M 0 0 M206.664 306.269 Q203.73 306.269 202.244 309.166 Q200.777 312.043 200.777 317.836 Q200.777 323.61 202.244 326.507 Q203.73 329.384 206.664 329.384 Q209.617 329.384 211.084 326.507 Q212.57 323.61 212.57 317.836 Q212.57 312.043 211.084 309.166 Q209.617 306.269 206.664 306.269 M206.664 303.26 Q211.385 303.26 213.868 307.003 Q216.369 310.727 216.369 317.836 Q216.369 324.927 213.868 328.669 Q211.385 332.393 206.664 332.393 Q201.943 332.393 199.442 328.669 Q196.959 324.927 196.959 317.836 Q196.959 310.727 199.442 307.003 Q201.943 303.26 206.664 303.26 Z" fill="#000000" fill-rule="evenodd" fill-opacity="1" /><path clip-path="url(#clip090)" d="M 0 0 M223.046 327.071 L227.014 327.071 L227.014 331.848 L223.046 331.848 L223.046 327.071 Z" fill="#000000" fill-rule="evenodd" fill-opacity="1" /><path clip-path="url(#clip090)" d="M 0 0 M235.327 303.768 L250.242 303.768 L250.242 306.965 L238.807 306.965 L238.807 313.849 Q239.634 313.567 240.462 313.435 Q241.289 313.285 242.117 313.285 Q246.819 313.285 249.565 315.861 Q252.311 318.438 252.311 322.839 Q252.311 327.372 249.489 329.892 Q246.668 332.393 241.534 332.393 Q239.766 332.393 237.923 332.092 Q236.098 331.792 234.142 331.19 L234.142 327.372 Q235.835 328.293 237.641 328.745 Q239.446 329.196 241.459 329.196 Q244.712 329.196 246.612 327.485 Q248.511 325.773 248.511 322.839 Q248.511 319.905 246.612 318.194 Q244.712 316.482 241.459 316.482 Q239.935 316.482 238.412 316.821 Q236.907 317.159 235.327 317.874 L235.327 303.768 Z" fill="#000000" fill-rule="evenodd" fill-opacity="1" /><path clip-path="url(#clip090)" d="M 0 0 M267.921 306.269 Q264.987 306.269 263.501 309.166 Q262.034 312.043 262.034 317.836 Q262.034 323.61 263.501 326.507 Q264.987 329.384 267.921 329.384 Q270.874 329.384 272.341 326.507 Q273.827 323.61 273.827 317.836 Q273.827 312.043 272.341 309.166 Q270.874 306.269 267.921 306.269 M267.921 303.26 Q272.642 303.26 275.124 307.003 Q277.626 310.727 277.626 317.836 Q277.626 324.927 275.124 328.669 Q272.642 332.393 267.921 332.393 Q263.2 332.393 260.699 328.669 Q258.216 324.927 258.216 317.836 Q258.216 310.727 260.699 307.003 Q263.2 303.26 267.921 303.26 Z" fill="#000000" fill-rule="evenodd" fill-opacity="1" /><path clip-path="url(#clip090)" d="M 0 0 M115.74 219.015 L123.379 219.015 L123.379 192.649 L115.069 194.316 L115.069 190.057 L123.333 188.39 L128.009 188.39 L128.009 219.015 L135.647 219.015 L135.647 222.95 L115.74 222.95 L115.74 219.015 Z" fill="#000000" fill-rule="evenodd" fill-opacity="1" /><path clip-path="url(#clip090)" d="M 0 0 M155.092 191.469 Q151.481 191.469 149.652 195.033 Q147.846 198.575 147.846 205.705 Q147.846 212.811 149.652 216.376 Q151.481 219.917 155.092 219.917 Q158.726 219.917 160.532 216.376 Q162.36 212.811 162.36 205.705 Q162.36 198.575 160.532 195.033 Q158.726 191.469 155.092 191.469 M155.092 187.765 Q160.902 187.765 163.958 192.371 Q167.036 196.955 167.036 205.705 Q167.036 214.431 163.958 219.038 Q160.902 223.621 155.092 223.621 Q149.282 223.621 146.203 219.038 Q143.147 214.431 143.147 205.705 Q143.147 196.955 146.203 192.371 Q149.282 187.765 155.092 187.765 Z" fill="#000000" fill-rule="evenodd" fill-opacity="1" /><path clip-path="url(#clip090)" d="M 0 0 M167.036 181.866 L191.148 181.866 L191.148 185.064 L167.036 185.064 L167.036 181.866 Z" fill="#000000" fill-rule="evenodd" fill-opacity="1" /><path clip-path="url(#clip090)" d="M 0 0 M207.473 169.961 Q204.539 169.961 203.053 172.857 Q201.586 175.735 201.586 181.528 Q201.586 187.302 203.053 190.198 Q204.539 193.076 207.473 193.076 Q210.426 193.076 211.893 190.198 Q213.379 187.302 213.379 181.528 Q213.379 175.735 211.893 172.857 Q210.426 169.961 207.473 169.961 M207.473 166.952 Q212.194 166.952 214.676 170.694 Q217.178 174.418 217.178 181.528 Q217.178 188.618 214.676 192.361 Q212.194 196.085 207.473 196.085 Q202.752 196.085 200.251 192.361 Q197.768 188.618 197.768 181.528 Q197.768 174.418 200.251 170.694 Q202.752 166.952 207.473 166.952 Z" fill="#000000" fill-rule="evenodd" fill-opacity="1" /><path clip-path="url(#clip090)" d="M 0 0 M223.854 190.762 L227.823 190.762 L227.823 195.539 L223.854 195.539 L223.854 190.762 Z" fill="#000000" fill-rule="evenodd" fill-opacity="1" /><path clip-path="url(#clip090)" d="M 0 0 M239.371 192.342 L252.63 192.342 L252.63 195.539 L234.801 195.539 L234.801 192.342 Q236.963 190.104 240.687 186.342 Q244.43 182.562 245.389 181.471 Q247.214 179.421 247.928 178.011 Q248.662 176.581 248.662 175.208 Q248.662 172.97 247.082 171.56 Q245.521 170.149 243.001 170.149 Q241.214 170.149 239.22 170.77 Q237.246 171.39 234.989 172.65 L234.989 168.814 Q237.283 167.892 239.277 167.422 Q241.27 166.952 242.926 166.952 Q247.289 166.952 249.884 169.133 Q252.48 171.315 252.48 174.964 Q252.48 176.694 251.822 178.255 Q251.182 179.797 249.471 181.904 Q249 182.449 246.48 185.064 Q243.96 187.659 239.371 192.342 Z" fill="#000000" fill-rule="evenodd" fill-opacity="1" /><path clip-path="url(#clip090)" d="M 0 0 M260.642 167.459 L275.557 167.459 L275.557 170.657 L264.122 170.657 L264.122 177.54 Q264.949 177.258 265.777 177.127 Q266.605 176.976 267.432 176.976 Q272.134 176.976 274.88 179.553 Q277.626 182.13 277.626 186.531 Q277.626 191.063 274.805 193.583 Q271.984 196.085 266.849 196.085 Q265.081 196.085 263.238 195.784 Q261.414 195.483 259.458 194.881 L259.458 191.063 Q261.15 191.985 262.956 192.436 Q264.761 192.888 266.774 192.888 Q270.028 192.888 271.927 191.176 Q273.827 189.465 273.827 186.531 Q273.827 183.597 271.927 181.885 Q270.028 180.174 266.774 180.174 Q265.25 180.174 263.727 180.512 Q262.222 180.851 260.642 181.565 L260.642 167.459 Z" fill="#000000" fill-rule="evenodd" fill-opacity="1" /><path clip-path="url(#clip090)" d="M 0 0 M145.663 82.7062 L153.302 82.7062 L153.302 56.3406 L144.992 58.0072 L144.992 53.748 L153.256 52.0813 L157.932 52.0813 L157.932 82.7062 L165.571 82.7062 L165.571 86.6413 L145.663 86.6413 L145.663 82.7062 Z" fill="#000000" fill-rule="evenodd" fill-opacity="1" /><path clip-path="url(#clip090)" d="M 0 0 M185.015 55.16 Q181.404 55.16 179.575 58.7248 Q177.77 62.2665 177.77 69.3961 Q177.77 76.5025 179.575 80.0673 Q181.404 83.609 185.015 83.609 Q188.649 83.609 190.455 80.0673 Q192.283 76.5025 192.283 69.3961 Q192.283 62.2665 190.455 58.7248 Q188.649 55.16 185.015 55.16 M185.015 51.4564 Q190.825 51.4564 193.881 56.0628 Q196.959 60.6461 196.959 69.3961 Q196.959 78.1229 193.881 82.7293 Q190.825 87.3126 185.015 87.3126 Q179.205 87.3126 176.126 82.7293 Q173.071 78.1229 173.071 69.3961 Q173.071 60.6461 176.126 56.0628 Q179.205 51.4564 185.015 51.4564 Z" fill="#000000" fill-rule="evenodd" fill-opacity="1" /><path clip-path="url(#clip090)" d="M 0 0 M206.664 33.6524 Q203.73 33.6524 202.244 36.5488 Q200.777 39.4264 200.777 45.2192 Q200.777 50.9931 202.244 53.8895 Q203.73 56.7671 206.664 56.7671 Q209.617 56.7671 211.084 53.8895 Q212.57 50.9931 212.57 45.2192 Q212.57 39.4264 211.084 36.5488 Q209.617 33.6524 206.664 33.6524 M206.664 30.6431 Q211.385 30.6431 213.868 34.3859 Q216.369 38.1098 216.369 45.2192 Q216.369 52.3097 213.868 56.0524 Q211.385 59.7764 206.664 59.7764 Q201.943 59.7764 199.442 56.0524 Q196.959 52.3097 196.959 45.2192 Q196.959 38.1098 199.442 34.3859 Q201.943 30.6431 206.664 30.6431 Z" fill="#000000" fill-rule="evenodd" fill-opacity="1" /><path clip-path="url(#clip090)" d="M 0 0 M223.046 54.4538 L227.014 54.4538 L227.014 59.2309 L223.046 59.2309 L223.046 54.4538 Z" fill="#000000" fill-rule="evenodd" fill-opacity="1" /><path clip-path="url(#clip090)" d="M 0 0 M243.415 33.6524 Q240.481 33.6524 238.995 36.5488 Q237.528 39.4264 237.528 45.2192 Q237.528 50.9931 238.995 53.8895 Q240.481 56.7671 243.415 56.7671 Q246.367 56.7671 247.834 53.8895 Q249.32 50.9931 249.32 45.2192 Q249.32 39.4264 247.834 36.5488 Q246.367 33.6524 243.415 33.6524 M243.415 30.6431 Q248.135 30.6431 250.618 34.3859 Q253.119 38.1098 253.119 45.2192 Q253.119 52.3097 250.618 56.0524 Q248.135 59.7764 243.415 59.7764 Q238.694 59.7764 236.192 56.0524 Q233.71 52.3097 233.71 45.2192 Q233.71 38.1098 236.192 34.3859 Q238.694 30.6431 243.415 30.6431 Z" fill="#000000" fill-rule="evenodd" fill-opacity="1" /><path clip-path="url(#clip090)" d="M 0 0 M267.921 33.6524 Q264.987 33.6524 263.501 36.5488 Q262.034 39.4264 262.034 45.2192 Q262.034 50.9931 263.501 53.8895 Q264.987 56.7671 267.921 56.7671 Q270.874 56.7671 272.341 53.8895 Q273.827 50.9931 273.827 45.2192 Q273.827 39.4264 272.341 36.5488 Q270.874 33.6524 267.921 33.6524 M267.921 30.6431 Q272.642 30.6431 275.124 34.3859 Q277.626 38.1098 277.626 45.2192 Q277.626 52.3097 275.124 56.0524 Q272.642 59.7764 267.921 59.7764 Q263.2 59.7764 260.699 56.0524 Q258.216 52.3097 258.216 45.2192 Q258.216 38.1098 260.699 34.3859 Q263.2 30.6431 267.921 30.6431 Z" fill="#000000" fill-rule="evenodd" fill-opacity="1" /><path clip-path="url(#clip090)" d="M 0 0 M41.7242 362.504 Q42.4244 360.436 44.7161 358.494 Q47.0077 356.521 51.0181 354.547 L64.0042 348.022 L64.0042 354.929 L51.8138 361.009 Q47.0395 363.364 45.48 365.592 Q43.9204 367.788 43.9204 371.607 L43.9204 378.61 L64.0042 378.61 L64.0042 385.039 L16.4842 385.039 L16.4842 370.525 Q16.4842 362.377 19.8898 358.367 Q23.2955 354.356 30.1704 354.356 Q34.6582 354.356 37.6183 356.457 Q40.5784 358.526 41.7242 362.504 M21.7677 378.61 L38.6368 378.61 L38.6368 370.525 Q38.6368 365.878 36.5043 363.523 Q34.34 361.136 30.1704 361.136 Q26.0009 361.136 23.9002 363.523 Q21.7677 365.878 21.7677 370.525 L21.7677 378.61 Z" fill="#000000" fill-rule="evenodd" fill-opacity="1" /><path clip-path="url(#clip090)" d="M 0 0 M22.818 326.506 L46.4666 335.227 L46.4666 317.754 L22.818 326.506 M16.4842 330.135 L16.4842 322.846 L64.0042 304.736 L64.0042 311.42 L51.8138 315.748 L51.8138 337.169 L64.0042 341.498 L64.0042 348.277 L16.4842 330.135 Z" fill="#000000" fill-rule="evenodd" fill-opacity="1" /><polyline clip-path="url(#clip092)" style="stroke:#009af9; stroke-width:8; stroke-opacity:1; fill:none" points="
  371.337,64.0918 390.124,64.2021 563.833,65.8527 668.225,67.7201 756.487,70.1716 852.364,74.2033 940.754,79.7445 1035.52,88.4261 1145.31,103.321 1242.88,122.129 
  1328.44,143.642 1421.73,172.713 1515.57,207.613 1619.32,251.917 1718.04,298.476 1820.68,350.2 1907.08,395.581 2012.57,452.516 2111.73,507.049 2270.6,595.612 
  2295.04,609.326 
  "/>
<polyline clip-path="url(#clip092)" style="stroke:#ff0000; stroke-width:4; stroke-opacity:1; fill:none" points="
  371.337,253.046 1621.81,253.046 1621.81,625.683 
  "/>
<path clip-path="url(#clip090)" d="M 0 0 M1661.51 245.91 Q1661.51 248.164 1660.28 253.142 Q1659.05 258.119 1657.56 261.515 Q1654.37 268.893 1648.87 268.893 Q1648.19 268.893 1647.52 268.835 Q1646.87 268.776 1645.91 268.513 Q1644.94 268.249 1644.15 267.839 Q1643.36 267.4 1642.57 266.58 Q1641.81 265.76 1641.37 264.677 Q1638.94 268.893 1635.13 268.893 Q1631.45 268.893 1629.02 267.019 Q1626.61 265.146 1626.61 261.31 Q1626.61 259.583 1627.32 257.036 Q1628.02 254.488 1629.98 249.218 Q1631.06 246.496 1631.06 245.002 Q1631.06 244.329 1630.92 243.89 Q1630.77 243.451 1630.48 243.304 Q1630.22 243.129 1630.04 243.099 Q1629.86 243.041 1629.57 243.041 Q1627.81 243.041 1626.23 244.827 Q1624.65 246.583 1623.51 250.477 Q1623.28 251.209 1623.13 251.385 Q1622.98 251.561 1622.54 251.561 Q1621.81 251.531 1621.81 250.946 Q1621.81 250.712 1622.08 249.804 Q1622.34 248.867 1622.95 247.491 Q1623.6 246.086 1624.48 244.827 Q1625.36 243.538 1626.73 242.631 Q1628.14 241.723 1629.75 241.723 Q1631.91 241.723 1633.29 243.158 Q1634.67 244.592 1634.67 246.642 Q1634.67 247.227 1634.52 247.872 Q1634.37 248.486 1634.23 248.896 Q1634.11 249.277 1633.64 250.477 Q1631.71 255.542 1631.09 257.973 Q1630.51 260.403 1630.51 262.101 Q1630.51 262.657 1630.54 263.096 Q1630.57 263.535 1630.8 264.443 Q1631.06 265.351 1631.53 265.965 Q1632 266.551 1632.97 267.049 Q1633.96 267.546 1635.31 267.546 Q1638.68 267.546 1640.84 262.511 Q1640.78 262.218 1640.78 261.457 Q1640.78 259.758 1641.31 257.475 Q1641.46 256.948 1642.31 253.581 Q1643.16 250.185 1643.89 247.227 Q1644.65 244.241 1644.74 244.065 Q1645.03 243.246 1645.67 242.806 Q1646.32 242.367 1646.96 242.367 Q1647.69 242.367 1648.19 242.806 Q1648.69 243.246 1648.69 244.007 Q1648.69 244.153 1648.51 244.827 Q1648.37 245.471 1648.13 246.437 Q1647.9 247.403 1647.78 247.901 L1645.26 257.973 Q1644.62 260.315 1644.62 262.335 Q1644.62 264.882 1645.76 266.229 Q1646.9 267.546 1649.04 267.546 Q1653.05 267.546 1655.63 262.276 Q1656.8 259.993 1657.85 256.421 Q1658.94 252.849 1658.94 251.297 Q1658.94 248.369 1656.77 246.203 Q1656.3 245.793 1656.1 245.471 Q1655.89 245.119 1655.89 244.592 Q1655.89 243.597 1656.83 242.66 Q1657.77 241.723 1658.88 241.723 Q1659.87 241.723 1660.69 242.719 Q1661.51 243.685 1661.51 245.91 Z" fill="#000000" fill-rule="evenodd" fill-opacity="1" /><path clip-path="url(#clip090)" d="M 0 0 M1683.7 275.059 Q1683.86 275.244 1683.86 275.428 Q1683.86 275.613 1683.45 276.146 Q1683.06 276.679 1682.22 277.396 Q1681.38 278.113 1680.29 278.79 Q1679.21 279.466 1677.61 279.917 Q1676.01 280.388 1674.33 280.388 Q1671.19 280.388 1669.35 278.318 Q1667.53 276.248 1667.53 273.276 Q1667.53 270.387 1669.14 267.62 Q1670.76 264.833 1673.39 263.111 Q1676.01 261.369 1678.78 261.369 Q1680.97 261.369 1682.34 262.394 Q1683.72 263.419 1683.72 264.976 Q1683.72 266.185 1683.02 266.923 Q1682.32 267.661 1681.38 267.661 Q1680.72 267.661 1680.27 267.292 Q1679.82 266.903 1679.82 266.185 Q1679.82 265.263 1680.58 264.546 Q1680.87 264.259 1681.2 264.136 Q1681.54 263.992 1681.75 263.992 Q1681.95 263.972 1682.42 263.972 Q1681.99 263.173 1680.97 262.742 Q1679.97 262.291 1678.82 262.291 Q1677.12 262.291 1675.5 263.48 Q1673.88 264.648 1672.89 266.493 Q1671.91 268.296 1671.28 270.858 Q1670.64 273.399 1670.64 274.875 Q1670.64 276.904 1671.58 278.175 Q1672.53 279.445 1674.41 279.445 Q1674.78 279.445 1675.17 279.425 Q1675.58 279.404 1676.6 279.179 Q1677.65 278.953 1678.57 278.564 Q1679.49 278.175 1680.66 277.334 Q1681.85 276.474 1682.79 275.305 Q1683.12 274.875 1683.35 274.875 Q1683.53 274.875 1683.7 275.059 Z" fill="#000000" fill-rule="evenodd" fill-opacity="1" /><path clip-path="url(#clip090)" d="M 0 0 M1703.48 268.46 Q1703.48 270.694 1702.5 272.908 Q1701.52 275.1 1699.94 276.74 Q1698.38 278.359 1696.33 279.384 Q1694.28 280.388 1692.23 280.388 Q1689.3 280.388 1687.4 278.4 Q1685.51 276.392 1685.51 273.276 Q1685.51 270.366 1687.13 267.599 Q1688.77 264.812 1691.39 263.091 Q1694.02 261.369 1696.76 261.369 Q1699.65 261.369 1701.56 263.316 Q1703.48 265.263 1703.48 268.46 M1700.41 266.821 Q1700.41 264.833 1699.45 263.562 Q1698.48 262.291 1696.72 262.291 Q1696.21 262.291 1695.61 262.455 Q1695.02 262.599 1694.24 262.988 Q1693.48 263.378 1692.62 264.197 Q1691.78 264.997 1691.04 266.144 Q1690.08 267.661 1689.34 270.448 Q1688.63 273.215 1688.63 274.875 Q1688.63 277.17 1689.69 278.318 Q1690.76 279.445 1692.27 279.445 Q1693.75 279.445 1695.31 278.421 Q1696.89 277.375 1697.97 275.592 Q1699.06 273.748 1699.73 271.043 Q1700.41 268.317 1700.41 266.821 Z" fill="#000000" fill-rule="evenodd" fill-opacity="1" /><path clip-path="url(#clip090)" d="M 0 0 M1712.92 267.254 Q1712.07 266.287 1712.07 265.029 Q1712.07 263.77 1712.89 262.833 Q1713.74 261.866 1715.26 261.866 Q1717.05 261.866 1718.07 263.594 Q1719.09 265.292 1719.09 268.161 Q1719.09 271.265 1717.84 274.134 Q1716.58 277.033 1715.35 278.409 Q1714.12 279.785 1713.62 279.785 Q1713.03 279.785 1713.03 279.141 Q1713.03 278.906 1713.44 278.467 Q1717.75 273.841 1717.78 268.161 Q1717.78 267.254 1717.66 267.254 L1717.51 267.371 Q1716.49 268.22 1715.26 268.22 Q1713.77 268.22 1712.92 267.254 Z" fill="#000000" fill-rule="evenodd" fill-opacity="1" /><path clip-path="url(#clip090)" d="M 0 0 M1774.29 235.048 Q1774.29 234.082 1774.03 233.291 Q1773.8 232.471 1773.42 231.915 Q1773.06 231.329 1772.39 230.89 Q1771.72 230.422 1771.16 230.129 Q1770.6 229.836 1769.67 229.661 Q1768.73 229.456 1768.12 229.368 Q1767.5 229.251 1766.45 229.192 Q1765.39 229.134 1764.87 229.134 Q1764.37 229.134 1763.37 229.134 Q1760.24 229.134 1759.71 229.192 Q1758.92 229.309 1758.63 229.778 Q1758.34 230.217 1758.04 231.417 L1754.15 247.052 L1760.86 247.052 Q1764.51 247.052 1767.03 246.027 Q1769.55 245.002 1770.99 243.568 Q1772.57 241.987 1773.42 239.44 Q1774.29 236.892 1774.29 235.048 M1780.82 262.657 Q1780.82 262.979 1780.56 263.711 Q1780.33 264.443 1779.74 265.468 Q1779.15 266.463 1778.36 267.371 Q1777.57 268.278 1776.31 268.893 Q1775.05 269.537 1773.62 269.537 Q1773.27 269.537 1772.92 269.508 Q1772.57 269.508 1771.69 269.362 Q1770.84 269.245 1770.14 269.01 Q1769.43 268.805 1768.56 268.308 Q1767.68 267.839 1767.06 267.195 Q1766.48 266.522 1766.07 265.468 Q1765.66 264.384 1765.66 263.067 Q1765.66 261.896 1766.62 257.973 Q1767.47 254.635 1767.47 253.815 Q1767.47 252.907 1767.18 252.058 Q1766.92 251.209 1766.24 250.331 Q1765.6 249.453 1764.22 248.926 Q1762.85 248.369 1760.91 248.369 L1753.8 248.369 L1749.82 264.267 Q1749.82 264.297 1749.73 264.706 Q1749.64 265.087 1749.64 265.292 Q1749.64 265.673 1749.88 265.907 Q1750.14 266.141 1750.78 266.258 Q1751.43 266.346 1751.93 266.375 Q1752.45 266.375 1753.54 266.375 Q1754.88 266.375 1755.12 266.61 Q1755.23 266.756 1755.23 267.019 Q1755.23 267.429 1755.12 267.722 Q1755.03 267.986 1754.79 268.073 Q1754.59 268.161 1754.44 268.191 Q1754.3 268.22 1754.03 268.22 L1746.42 268.044 L1738.87 268.22 Q1738.02 268.22 1738.02 267.546 Q1738.02 266.961 1738.22 266.727 Q1738.43 266.463 1738.69 266.434 Q1738.96 266.375 1739.63 266.375 Q1741.09 266.375 1741.97 266.287 Q1742.85 266.2 1743.41 266.083 Q1743.99 265.936 1744.28 265.526 Q1744.61 265.116 1744.75 264.765 Q1744.9 264.384 1745.1 263.535 L1753.13 231.329 Q1753.36 230.363 1753.36 230.217 Q1753.36 229.661 1753.01 229.514 Q1752.69 229.339 1751.75 229.251 L1749.47 229.134 Q1748.76 229.134 1748.47 229.104 Q1748.21 229.075 1748 228.929 Q1747.8 228.782 1747.8 228.46 Q1747.8 227.64 1748.15 227.465 Q1748.5 227.26 1749.52 227.26 L1766.62 227.26 Q1772.45 227.26 1776.14 229.807 Q1779.86 232.354 1779.86 236.248 Q1779.86 238.005 1779.07 239.644 Q1778.28 241.284 1776.96 242.572 Q1775.67 243.86 1773.94 244.944 Q1772.22 245.998 1770.37 246.73 Q1768.56 247.432 1766.68 247.842 Q1767.5 248.135 1768.26 248.574 Q1769.05 249.013 1770.05 249.833 Q1771.07 250.653 1771.69 251.971 Q1772.3 253.288 1772.3 254.898 Q1772.3 256.04 1772.07 257.738 Q1771.48 262.569 1771.48 264.56 Q1771.48 266.463 1771.98 267.341 Q1772.48 268.22 1773.88 268.22 Q1775.26 268.22 1776.78 266.99 Q1778.33 265.731 1779.33 262.774 Q1779.56 261.925 1780.12 261.925 Q1780.15 261.925 1780.18 261.925 Q1780.24 261.925 1780.35 261.984 Q1780.47 262.013 1780.56 262.101 Q1780.68 262.159 1780.73 262.306 Q1780.82 262.452 1780.82 262.657 Z" fill="#000000" fill-rule="evenodd" fill-opacity="1" /><path clip-path="url(#clip090)" d="M 0 0 M1824.22 267.019 Q1824.22 267.576 1823.98 267.868 Q1823.78 268.132 1823.57 268.191 Q1823.4 268.22 1823.14 268.22 Q1822.37 268.22 1819.74 268.132 Q1817.1 268.044 1816.34 268.044 Q1815.11 268.044 1812.6 268.132 Q1810.08 268.22 1808.85 268.22 Q1808.03 268.22 1808.03 267.546 Q1808.03 267.107 1808.12 266.873 Q1808.2 266.61 1808.44 266.522 Q1808.7 266.405 1808.85 266.405 Q1809.02 266.375 1809.46 266.375 Q1810.05 266.375 1810.66 266.317 Q1811.28 266.229 1812.04 266.053 Q1812.8 265.878 1813.27 265.438 Q1813.77 264.999 1813.77 264.384 Q1813.77 264.121 1813.56 261.954 Q1813.36 259.788 1813.09 257.27 Q1812.83 254.723 1812.8 254.371 L1797.75 254.371 Q1796.38 256.743 1795.41 258.382 Q1794.44 260.022 1794.09 260.578 Q1793.74 261.135 1793.54 261.486 Q1793.33 261.837 1793.21 262.042 Q1792.36 263.594 1792.36 264.267 Q1792.36 266.141 1795.18 266.375 Q1796.14 266.375 1796.14 267.078 Q1796.14 267.605 1795.91 267.898 Q1795.67 268.161 1795.47 268.191 Q1795.29 268.22 1795 268.22 Q1794.03 268.22 1792.01 268.132 Q1789.99 268.044 1789 268.044 Q1788.15 268.044 1786.39 268.132 Q1784.63 268.22 1783.84 268.22 Q1783.49 268.22 1783.29 268.015 Q1783.08 267.81 1783.08 267.546 Q1783.08 267.137 1783.14 266.902 Q1783.23 266.668 1783.46 266.551 Q1783.7 266.434 1783.82 266.434 Q1783.93 266.405 1784.34 266.375 Q1786.57 266.229 1788.29 265.175 Q1790.05 264.092 1791.72 261.31 L1812.57 226.294 Q1812.77 225.942 1812.92 225.767 Q1813.06 225.591 1813.36 225.445 Q1813.68 225.298 1814.15 225.298 Q1814.88 225.298 1815.03 225.532 Q1815.17 225.737 1815.26 226.733 L1818.92 264.209 Q1819.01 264.999 1819.07 265.321 Q1819.15 265.614 1819.53 265.936 Q1819.94 266.229 1820.68 266.317 Q1821.44 266.375 1822.84 266.375 Q1823.37 266.375 1823.57 266.405 Q1823.78 266.405 1823.98 266.551 Q1824.22 266.697 1824.22 267.019 M1812.62 252.498 L1810.72 232.735 L1798.89 252.498 L1812.62 252.498 Z" fill="#000000" fill-rule="evenodd" fill-opacity="1" /><path clip-path="url(#clip090)" d="M 0 0 M1846.39 274.388 Q1846.55 274.572 1846.55 274.757 Q1846.55 274.941 1846.14 275.474 Q1845.75 276.007 1844.91 276.724 Q1844.07 277.441 1842.99 278.118 Q1841.9 278.794 1840.3 279.245 Q1838.7 279.716 1837.02 279.716 Q1833.89 279.716 1832.04 277.646 Q1830.22 275.576 1830.22 272.605 Q1830.22 269.715 1831.84 266.948 Q1833.46 264.161 1836.08 262.439 Q1838.7 260.697 1841.47 260.697 Q1843.66 260.697 1845.04 261.722 Q1846.41 262.747 1846.41 264.304 Q1846.41 265.513 1845.71 266.251 Q1845.01 266.989 1844.07 266.989 Q1843.42 266.989 1842.97 266.62 Q1842.51 266.231 1842.51 265.513 Q1842.51 264.591 1843.27 263.874 Q1843.56 263.587 1843.89 263.464 Q1844.24 263.321 1844.44 263.321 Q1844.65 263.3 1845.12 263.3 Q1844.69 262.501 1843.66 262.07 Q1842.66 261.619 1841.51 261.619 Q1839.81 261.619 1838.19 262.808 Q1836.57 263.976 1835.59 265.821 Q1834.6 267.624 1833.97 270.186 Q1833.33 272.728 1833.33 274.203 Q1833.33 276.232 1834.28 277.503 Q1835.22 278.773 1837.1 278.773 Q1837.47 278.773 1837.86 278.753 Q1838.27 278.732 1839.3 278.507 Q1840.34 278.282 1841.26 277.892 Q1842.19 277.503 1843.35 276.663 Q1844.54 275.802 1845.49 274.634 Q1845.81 274.203 1846.04 274.203 Q1846.22 274.203 1846.39 274.388 Z" fill="#000000" fill-rule="evenodd" fill-opacity="1" /><path clip-path="url(#clip090)" d="M 0 0 M1866.18 267.788 Q1866.18 270.022 1865.19 272.236 Q1864.21 274.429 1862.63 276.068 Q1861.07 277.687 1859.02 278.712 Q1856.97 279.716 1854.93 279.716 Q1851.99 279.716 1850.09 277.728 Q1848.2 275.72 1848.2 272.605 Q1848.2 269.694 1849.82 266.928 Q1851.46 264.14 1854.08 262.419 Q1856.71 260.697 1859.45 260.697 Q1862.34 260.697 1864.25 262.644 Q1866.18 264.591 1866.18 267.788 M1863.1 266.149 Q1863.1 264.161 1862.14 262.89 Q1861.18 261.619 1859.41 261.619 Q1858.9 261.619 1858.31 261.783 Q1857.71 261.927 1856.93 262.316 Q1856.18 262.706 1855.31 263.525 Q1854.47 264.325 1853.74 265.472 Q1852.77 266.989 1852.04 269.776 Q1851.32 272.543 1851.32 274.203 Q1851.32 276.499 1852.38 277.646 Q1853.45 278.773 1854.97 278.773 Q1856.44 278.773 1858 277.749 Q1859.58 276.704 1860.66 274.92 Q1861.75 273.076 1862.43 270.371 Q1863.1 267.645 1863.1 266.149 Z" fill="#000000" fill-rule="evenodd" fill-opacity="1" /><path clip-path="url(#clip090)" d="
M313.626 1410.9 L2352.76 1410.9 L2352.76 815.61 L313.626 815.61  Z
  " fill="#ffffff" fill-rule="evenodd" fill-opacity="1"/>
<defs>
  <clipPath id="clip093">
    <rect x="313" y="815" width="2040" height="596"/>
  </clipPath>
</defs>
<polyline clip-path="url(#clip093)" style="stroke:#000000; stroke-width:2; stroke-opacity:0.1; fill:none" points="
  371.337,1410.9 371.337,815.61 
  "/>
<polyline clip-path="url(#clip093)" style="stroke:#000000; stroke-width:2; stroke-opacity:0.1; fill:none" points="
  852.264,1410.9 852.264,815.61 
  "/>
<polyline clip-path="url(#clip093)" style="stroke:#000000; stroke-width:2; stroke-opacity:0.1; fill:none" points="
  1333.19,1410.9 1333.19,815.61 
  "/>
<polyline clip-path="url(#clip093)" style="stroke:#000000; stroke-width:2; stroke-opacity:0.1; fill:none" points="
  1814.12,1410.9 1814.12,815.61 
  "/>
<polyline clip-path="url(#clip093)" style="stroke:#000000; stroke-width:2; stroke-opacity:0.1; fill:none" points="
  2295.04,1410.9 2295.04,815.61 
  "/>
<polyline clip-path="url(#clip090)" style="stroke:#000000; stroke-width:4; stroke-opacity:1; fill:none" points="
  313.626,1410.9 2352.76,1410.9 
  "/>
<polyline clip-path="url(#clip090)" style="stroke:#000000; stroke-width:4; stroke-opacity:1; fill:none" points="
  371.337,1410.9 371.337,1403.75 
  "/>
<polyline clip-path="url(#clip090)" style="stroke:#000000; stroke-width:4; stroke-opacity:1; fill:none" points="
  852.264,1410.9 852.264,1403.75 
  "/>
<polyline clip-path="url(#clip090)" style="stroke:#000000; stroke-width:4; stroke-opacity:1; fill:none" points="
  1333.19,1410.9 1333.19,1403.75 
  "/>
<polyline clip-path="url(#clip090)" style="stroke:#000000; stroke-width:4; stroke-opacity:1; fill:none" points="
  1814.12,1410.9 1814.12,1403.75 
  "/>
<polyline clip-path="url(#clip090)" style="stroke:#000000; stroke-width:4; stroke-opacity:1; fill:none" points="
  2295.04,1410.9 2295.04,1403.75 
  "/>
<polyline clip-path="url(#clip090)" style="stroke:#000000; stroke-width:4; stroke-opacity:1; fill:none" points="
  521.464,1410.9 521.464,1407.32 
  "/>
<polyline clip-path="url(#clip090)" style="stroke:#000000; stroke-width:4; stroke-opacity:1; fill:none" points="
  631.671,1410.9 631.671,1407.32 
  "/>
<polyline clip-path="url(#clip090)" style="stroke:#000000; stroke-width:4; stroke-opacity:1; fill:none" points="
  718.788,1410.9 718.788,1407.32 
  "/>
<polyline clip-path="url(#clip090)" style="stroke:#000000; stroke-width:4; stroke-opacity:1; fill:none" points="
  790.835,1410.9 790.835,1407.32 
  "/>
<polyline clip-path="url(#clip090)" style="stroke:#000000; stroke-width:4; stroke-opacity:1; fill:none" points="
  1002.39,1410.9 1002.39,1407.32 
  "/>
<polyline clip-path="url(#clip090)" style="stroke:#000000; stroke-width:4; stroke-opacity:1; fill:none" points="
  1112.6,1410.9 1112.6,1407.32 
  "/>
<polyline clip-path="url(#clip090)" style="stroke:#000000; stroke-width:4; stroke-opacity:1; fill:none" points="
  1199.71,1410.9 1199.71,1407.32 
  "/>
<polyline clip-path="url(#clip090)" style="stroke:#000000; stroke-width:4; stroke-opacity:1; fill:none" points="
  1271.76,1410.9 1271.76,1407.32 
  "/>
<polyline clip-path="url(#clip090)" style="stroke:#000000; stroke-width:4; stroke-opacity:1; fill:none" points="
  1483.32,1410.9 1483.32,1407.32 
  "/>
<polyline clip-path="url(#clip090)" style="stroke:#000000; stroke-width:4; stroke-opacity:1; fill:none" points="
  1593.52,1410.9 1593.52,1407.32 
  "/>
<polyline clip-path="url(#clip090)" style="stroke:#000000; stroke-width:4; stroke-opacity:1; fill:none" points="
  1680.64,1410.9 1680.64,1407.32 
  "/>
<polyline clip-path="url(#clip090)" style="stroke:#000000; stroke-width:4; stroke-opacity:1; fill:none" points="
  1752.69,1410.9 1752.69,1407.32 
  "/>
<polyline clip-path="url(#clip090)" style="stroke:#000000; stroke-width:4; stroke-opacity:1; fill:none" points="
  1964.25,1410.9 1964.25,1407.32 
  "/>
<polyline clip-path="url(#clip090)" style="stroke:#000000; stroke-width:4; stroke-opacity:1; fill:none" points="
  2074.45,1410.9 2074.45,1407.32 
  "/>
<polyline clip-path="url(#clip090)" style="stroke:#000000; stroke-width:4; stroke-opacity:1; fill:none" points="
  2161.57,1410.9 2161.57,1407.32 
  "/>
<polyline clip-path="url(#clip090)" style="stroke:#000000; stroke-width:4; stroke-opacity:1; fill:none" points="
  2233.62,1410.9 2233.62,1407.32 
  "/>
<path clip-path="url(#clip090)" d="M 0 0 M302.579 1489.17 L310.218 1489.17 L310.218 1462.8 L301.908 1464.47 L301.908 1460.21 L310.171 1458.54 L314.847 1458.54 L314.847 1489.17 L322.486 1489.17 L322.486 1493.1 L302.579 1493.1 L302.579 1489.17 Z" fill="#000000" fill-rule="evenodd" fill-opacity="1" /><path clip-path="url(#clip090)" d="M 0 0 M341.93 1461.62 Q338.319 1461.62 336.491 1465.19 Q334.685 1468.73 334.685 1475.86 Q334.685 1482.97 336.491 1486.53 Q338.319 1490.07 341.93 1490.07 Q345.565 1490.07 347.37 1486.53 Q349.199 1482.97 349.199 1475.86 Q349.199 1468.73 347.37 1465.19 Q345.565 1461.62 341.93 1461.62 M341.93 1457.92 Q347.741 1457.92 350.796 1462.53 Q353.875 1467.11 353.875 1475.86 Q353.875 1484.59 350.796 1489.19 Q347.741 1493.78 341.93 1493.78 Q336.12 1493.78 333.042 1489.19 Q329.986 1484.59 329.986 1475.86 Q329.986 1467.11 333.042 1462.53 Q336.12 1457.92 341.93 1457.92 Z" fill="#000000" fill-rule="evenodd" fill-opacity="1" /><path clip-path="url(#clip090)" d="M 0 0 M353.875 1452.02 L377.986 1452.02 L377.986 1455.22 L353.875 1455.22 L353.875 1452.02 Z" fill="#000000" fill-rule="evenodd" fill-opacity="1" /><path clip-path="url(#clip090)" d="M 0 0 M386.845 1462.5 L393.051 1462.5 L393.051 1441.07 L386.299 1442.43 L386.299 1438.97 L393.014 1437.61 L396.813 1437.61 L396.813 1462.5 L403.02 1462.5 L403.02 1465.69 L386.845 1465.69 L386.845 1462.5 Z" fill="#000000" fill-rule="evenodd" fill-opacity="1" /><path clip-path="url(#clip090)" d="M 0 0 M410.693 1460.92 L414.662 1460.92 L414.662 1465.69 L410.693 1465.69 L410.693 1460.92 Z" fill="#000000" fill-rule="evenodd" fill-opacity="1" /><path clip-path="url(#clip090)" d="M 0 0 M431.062 1440.11 Q428.128 1440.11 426.642 1443.01 Q425.175 1445.89 425.175 1451.68 Q425.175 1457.46 426.642 1460.35 Q428.128 1463.23 431.062 1463.23 Q434.015 1463.23 435.482 1460.35 Q436.968 1457.46 436.968 1451.68 Q436.968 1445.89 435.482 1443.01 Q434.015 1440.11 431.062 1440.11 M431.062 1437.11 Q435.783 1437.11 438.265 1440.85 Q440.767 1444.57 440.767 1451.68 Q440.767 1458.77 438.265 1462.51 Q435.783 1466.24 431.062 1466.24 Q426.341 1466.24 423.84 1462.51 Q421.357 1458.77 421.357 1451.68 Q421.357 1444.57 423.84 1440.85 Q426.341 1437.11 431.062 1437.11 Z" fill="#000000" fill-rule="evenodd" fill-opacity="1" /><path clip-path="url(#clip090)" d="M 0 0 M783.91 1489.17 L791.549 1489.17 L791.549 1462.8 L783.239 1464.47 L783.239 1460.21 L791.503 1458.54 L796.179 1458.54 L796.179 1489.17 L803.817 1489.17 L803.817 1493.1 L783.91 1493.1 L783.91 1489.17 Z" fill="#000000" fill-rule="evenodd" fill-opacity="1" /><path clip-path="url(#clip090)" d="M 0 0 M823.262 1461.62 Q819.651 1461.62 817.822 1465.19 Q816.016 1468.73 816.016 1475.86 Q816.016 1482.97 817.822 1486.53 Q819.651 1490.07 823.262 1490.07 Q826.896 1490.07 828.701 1486.53 Q830.53 1482.97 830.53 1475.86 Q830.53 1468.73 828.701 1465.19 Q826.896 1461.62 823.262 1461.62 M823.262 1457.92 Q829.072 1457.92 832.127 1462.53 Q835.206 1467.11 835.206 1475.86 Q835.206 1484.59 832.127 1489.19 Q829.072 1493.78 823.262 1493.78 Q817.452 1493.78 814.373 1489.19 Q811.317 1484.59 811.317 1475.86 Q811.317 1467.11 814.373 1462.53 Q817.452 1457.92 823.262 1457.92 Z" fill="#000000" fill-rule="evenodd" fill-opacity="1" /><path clip-path="url(#clip090)" d="M 0 0 M835.206 1452.02 L859.318 1452.02 L859.318 1455.22 L835.206 1455.22 L835.206 1452.02 Z" fill="#000000" fill-rule="evenodd" fill-opacity="1" /><path clip-path="url(#clip090)" d="M 0 0 M875.643 1440.11 Q872.709 1440.11 871.223 1443.01 Q869.756 1445.89 869.756 1451.68 Q869.756 1457.46 871.223 1460.35 Q872.709 1463.23 875.643 1463.23 Q878.596 1463.23 880.063 1460.35 Q881.548 1457.46 881.548 1451.68 Q881.548 1445.89 880.063 1443.01 Q878.596 1440.11 875.643 1440.11 M875.643 1437.11 Q880.364 1437.11 882.846 1440.85 Q885.348 1444.57 885.348 1451.68 Q885.348 1458.77 882.846 1462.51 Q880.364 1466.24 875.643 1466.24 Q870.922 1466.24 868.421 1462.51 Q865.938 1458.77 865.938 1451.68 Q865.938 1444.57 868.421 1440.85 Q870.922 1437.11 875.643 1437.11 Z" fill="#000000" fill-rule="evenodd" fill-opacity="1" /><path clip-path="url(#clip090)" d="M 0 0 M892.024 1460.92 L895.993 1460.92 L895.993 1465.69 L892.024 1465.69 L892.024 1460.92 Z" fill="#000000" fill-rule="evenodd" fill-opacity="1" /><path clip-path="url(#clip090)" d="M 0 0 M904.306 1437.61 L919.22 1437.61 L919.22 1440.81 L907.785 1440.81 L907.785 1447.69 Q908.613 1447.41 909.44 1447.28 Q910.268 1447.13 911.095 1447.13 Q915.797 1447.13 918.543 1449.71 Q921.289 1452.28 921.289 1456.68 Q921.289 1461.22 918.468 1463.74 Q915.647 1466.24 910.512 1466.24 Q908.744 1466.24 906.901 1465.94 Q905.077 1465.64 903.121 1465.04 L903.121 1461.22 Q904.814 1462.14 906.619 1462.59 Q908.425 1463.04 910.437 1463.04 Q913.691 1463.04 915.59 1461.33 Q917.49 1459.62 917.49 1456.68 Q917.49 1453.75 915.59 1452.04 Q913.691 1450.33 910.437 1450.33 Q908.914 1450.33 907.39 1450.67 Q905.886 1451 904.306 1451.72 L904.306 1437.61 Z" fill="#000000" fill-rule="evenodd" fill-opacity="1" /><path clip-path="url(#clip090)" d="M 0 0 M1279.8 1489.17 L1287.44 1489.17 L1287.44 1462.8 L1279.13 1464.47 L1279.13 1460.21 L1287.39 1458.54 L1292.07 1458.54 L1292.07 1489.17 L1299.71 1489.17 L1299.71 1493.1 L1279.8 1493.1 L1279.8 1489.17 Z" fill="#000000" fill-rule="evenodd" fill-opacity="1" /><path clip-path="url(#clip090)" d="M 0 0 M1319.15 1461.62 Q1315.54 1461.62 1313.71 1465.19 Q1311.9 1468.73 1311.9 1475.86 Q1311.9 1482.97 1313.71 1486.53 Q1315.54 1490.07 1319.15 1490.07 Q1322.78 1490.07 1324.59 1486.53 Q1326.42 1482.97 1326.42 1475.86 Q1326.42 1468.73 1324.59 1465.19 Q1322.78 1461.62 1319.15 1461.62 M1319.15 1457.92 Q1324.96 1457.92 1328.02 1462.53 Q1331.09 1467.11 1331.09 1475.86 Q1331.09 1484.59 1328.02 1489.19 Q1324.96 1493.78 1319.15 1493.78 Q1313.34 1493.78 1310.26 1489.19 Q1307.21 1484.59 1307.21 1475.86 Q1307.21 1467.11 1310.26 1462.53 Q1313.34 1457.92 1319.15 1457.92 Z" fill="#000000" fill-rule="evenodd" fill-opacity="1" /><path clip-path="url(#clip090)" d="M 0 0 M1340.8 1440.11 Q1337.87 1440.11 1336.38 1443.01 Q1334.91 1445.89 1334.91 1451.68 Q1334.91 1457.46 1336.38 1460.35 Q1337.87 1463.23 1340.8 1463.23 Q1343.75 1463.23 1345.22 1460.35 Q1346.71 1457.46 1346.71 1451.68 Q1346.71 1445.89 1345.22 1443.01 Q1343.75 1440.11 1340.8 1440.11 M1340.8 1437.11 Q1345.52 1437.11 1348 1440.85 Q1350.5 1444.57 1350.5 1451.68 Q1350.5 1458.77 1348 1462.51 Q1345.52 1466.24 1340.8 1466.24 Q1336.08 1466.24 1333.58 1462.51 Q1331.09 1458.77 1331.09 1451.68 Q1331.09 1444.57 1333.58 1440.85 Q1336.08 1437.11 1340.8 1437.11 Z" fill="#000000" fill-rule="evenodd" fill-opacity="1" /><path clip-path="url(#clip090)" d="M 0 0 M1357.18 1460.92 L1361.15 1460.92 L1361.15 1465.69 L1357.18 1465.69 L1357.18 1460.92 Z" fill="#000000" fill-rule="evenodd" fill-opacity="1" /><path clip-path="url(#clip090)" d="M 0 0 M1377.55 1440.11 Q1374.62 1440.11 1373.13 1443.01 Q1371.66 1445.89 1371.66 1451.68 Q1371.66 1457.46 1373.13 1460.35 Q1374.62 1463.23 1377.55 1463.23 Q1380.5 1463.23 1381.97 1460.35 Q1383.46 1457.46 1383.46 1451.68 Q1383.46 1445.89 1381.97 1443.01 Q1380.5 1440.11 1377.55 1440.11 M1377.55 1437.11 Q1382.27 1437.11 1384.75 1440.85 Q1387.25 1444.57 1387.25 1451.68 Q1387.25 1458.77 1384.75 1462.51 Q1382.27 1466.24 1377.55 1466.24 Q1372.83 1466.24 1370.33 1462.51 Q1367.84 1458.77 1367.84 1451.68 Q1367.84 1444.57 1370.33 1440.85 Q1372.83 1437.11 1377.55 1437.11 Z" fill="#000000" fill-rule="evenodd" fill-opacity="1" /><path clip-path="url(#clip090)" d="M 0 0 M1761.13 1489.17 L1768.77 1489.17 L1768.77 1462.8 L1760.46 1464.47 L1760.46 1460.21 L1768.72 1458.54 L1773.4 1458.54 L1773.4 1489.17 L1781.04 1489.17 L1781.04 1493.1 L1761.13 1493.1 L1761.13 1489.17 Z" fill="#000000" fill-rule="evenodd" fill-opacity="1" /><path clip-path="url(#clip090)" d="M 0 0 M1800.48 1461.62 Q1796.87 1461.62 1795.04 1465.19 Q1793.24 1468.73 1793.24 1475.86 Q1793.24 1482.97 1795.04 1486.53 Q1796.87 1490.07 1800.48 1490.07 Q1804.12 1490.07 1805.92 1486.53 Q1807.75 1482.97 1807.75 1475.86 Q1807.75 1468.73 1805.92 1465.19 Q1804.12 1461.62 1800.48 1461.62 M1800.48 1457.92 Q1806.29 1457.92 1809.35 1462.53 Q1812.43 1467.11 1812.43 1475.86 Q1812.43 1484.59 1809.35 1489.19 Q1806.29 1493.78 1800.48 1493.78 Q1794.67 1493.78 1791.59 1489.19 Q1788.54 1484.59 1788.54 1475.86 Q1788.54 1467.11 1791.59 1462.53 Q1794.67 1457.92 1800.48 1457.92 Z" fill="#000000" fill-rule="evenodd" fill-opacity="1" /><path clip-path="url(#clip090)" d="M 0 0 M1822.13 1440.11 Q1819.2 1440.11 1817.71 1443.01 Q1816.24 1445.89 1816.24 1451.68 Q1816.24 1457.46 1817.71 1460.35 Q1819.2 1463.23 1822.13 1463.23 Q1825.08 1463.23 1826.55 1460.35 Q1828.04 1457.46 1828.04 1451.68 Q1828.04 1445.89 1826.55 1443.01 Q1825.08 1440.11 1822.13 1440.11 M1822.13 1437.11 Q1826.85 1437.11 1829.33 1440.85 Q1831.84 1444.57 1831.84 1451.68 Q1831.84 1458.77 1829.33 1462.51 Q1826.85 1466.24 1822.13 1466.24 Q1817.41 1466.24 1814.91 1462.51 Q1812.43 1458.77 1812.43 1451.68 Q1812.43 1444.57 1814.91 1440.85 Q1817.41 1437.11 1822.13 1437.11 Z" fill="#000000" fill-rule="evenodd" fill-opacity="1" /><path clip-path="url(#clip090)" d="M 0 0 M1838.51 1460.92 L1842.48 1460.92 L1842.48 1465.69 L1838.51 1465.69 L1838.51 1460.92 Z" fill="#000000" fill-rule="evenodd" fill-opacity="1" /><path clip-path="url(#clip090)" d="M 0 0 M1850.79 1437.61 L1865.71 1437.61 L1865.71 1440.81 L1854.27 1440.81 L1854.27 1447.69 Q1855.1 1447.41 1855.93 1447.28 Q1856.76 1447.13 1857.58 1447.13 Q1862.29 1447.13 1865.03 1449.71 Q1867.78 1452.28 1867.78 1456.68 Q1867.78 1461.22 1864.96 1463.74 Q1862.13 1466.24 1857 1466.24 Q1855.23 1466.24 1853.39 1465.94 Q1851.56 1465.64 1849.61 1465.04 L1849.61 1461.22 Q1851.3 1462.14 1853.11 1462.59 Q1854.91 1463.04 1856.92 1463.04 Q1860.18 1463.04 1862.08 1461.33 Q1863.98 1459.62 1863.98 1456.68 Q1863.98 1453.75 1862.08 1452.04 Q1860.18 1450.33 1856.92 1450.33 Q1855.4 1450.33 1853.88 1450.67 Q1852.37 1451 1850.79 1451.72 L1850.79 1437.61 Z" fill="#000000" fill-rule="evenodd" fill-opacity="1" /><path clip-path="url(#clip090)" d="M 0 0 M2242.5 1489.17 L2250.14 1489.17 L2250.14 1462.8 L2241.83 1464.47 L2241.83 1460.21 L2250.09 1458.54 L2254.77 1458.54 L2254.77 1489.17 L2262.41 1489.17 L2262.41 1493.1 L2242.5 1493.1 L2242.5 1489.17 Z" fill="#000000" fill-rule="evenodd" fill-opacity="1" /><path clip-path="url(#clip090)" d="M 0 0 M2281.85 1461.62 Q2278.24 1461.62 2276.41 1465.19 Q2274.6 1468.73 2274.6 1475.86 Q2274.6 1482.97 2276.41 1486.53 Q2278.24 1490.07 2281.85 1490.07 Q2285.48 1490.07 2287.29 1486.53 Q2289.12 1482.97 2289.12 1475.86 Q2289.12 1468.73 2287.29 1465.19 Q2285.48 1461.62 2281.85 1461.62 M2281.85 1457.92 Q2287.66 1457.92 2290.72 1462.53 Q2293.79 1467.11 2293.79 1475.86 Q2293.79 1484.59 2290.72 1489.19 Q2287.66 1493.78 2281.85 1493.78 Q2276.04 1493.78 2272.96 1489.19 Q2269.91 1484.59 2269.91 1475.86 Q2269.91 1467.11 2272.96 1462.53 Q2276.04 1457.92 2281.85 1457.92 Z" fill="#000000" fill-rule="evenodd" fill-opacity="1" /><path clip-path="url(#clip090)" d="M 0 0 M2294.34 1462.5 L2300.55 1462.5 L2300.55 1441.07 L2293.79 1442.43 L2293.79 1438.97 L2300.51 1437.61 L2304.31 1437.61 L2304.31 1462.5 L2310.51 1462.5 L2310.51 1465.69 L2294.34 1465.69 L2294.34 1462.5 Z" fill="#000000" fill-rule="evenodd" fill-opacity="1" /><path clip-path="url(#clip090)" d="M 0 0 M2318.19 1460.92 L2322.16 1460.92 L2322.16 1465.69 L2318.19 1465.69 L2318.19 1460.92 Z" fill="#000000" fill-rule="evenodd" fill-opacity="1" /><path clip-path="url(#clip090)" d="M 0 0 M2338.56 1440.11 Q2335.62 1440.11 2334.14 1443.01 Q2332.67 1445.89 2332.67 1451.68 Q2332.67 1457.46 2334.14 1460.35 Q2335.62 1463.23 2338.56 1463.23 Q2341.51 1463.23 2342.98 1460.35 Q2344.46 1457.46 2344.46 1451.68 Q2344.46 1445.89 2342.98 1443.01 Q2341.51 1440.11 2338.56 1440.11 M2338.56 1437.11 Q2343.28 1437.11 2345.76 1440.85 Q2348.26 1444.57 2348.26 1451.68 Q2348.26 1458.77 2345.76 1462.51 Q2343.28 1466.24 2338.56 1466.24 Q2333.84 1466.24 2331.33 1462.51 Q2328.85 1458.77 2328.85 1451.68 Q2328.85 1444.57 2331.33 1440.85 Q2333.84 1437.11 2338.56 1437.11 Z" fill="#000000" fill-rule="evenodd" fill-opacity="1" /><path clip-path="url(#clip090)" d="M 0 0 M1323.48 1575.11 Q1310.27 1575.11 1310.27 1556.2 Q1310.27 1548.72 1315.21 1538.54 L1321.51 1538.54 Q1316.96 1548.72 1316.96 1556.36 Q1316.96 1570.14 1324.02 1570.14 Q1330.49 1570.14 1330.49 1553.02 L1335.9 1553.02 Q1335.9 1570.14 1342.36 1570.14 Q1349.42 1570.14 1349.42 1556.36 Q1349.42 1548.72 1344.87 1538.54 L1351.17 1538.54 Q1356.11 1548.72 1356.11 1556.2 Q1356.11 1575.11 1342.9 1575.11 Q1334.24 1575.11 1333.19 1565.59 Q1331.89 1575.11 1323.48 1575.11 Z" fill="#000000" fill-rule="evenodd" fill-opacity="1" /><polyline clip-path="url(#clip093)" style="stroke:#000000; stroke-width:2; stroke-opacity:0.1; fill:none" points="
  313.626,1320.69 2352.76,1320.69 
  "/>
<polyline clip-path="url(#clip093)" style="stroke:#000000; stroke-width:2; stroke-opacity:0.1; fill:none" points="
  313.626,1154.75 2352.76,1154.75 
  "/>
<polyline clip-path="url(#clip093)" style="stroke:#000000; stroke-width:2; stroke-opacity:0.1; fill:none" points="
  313.626,988.81 2352.76,988.81 
  "/>
<polyline clip-path="url(#clip093)" style="stroke:#000000; stroke-width:2; stroke-opacity:0.1; fill:none" points="
  313.626,822.871 2352.76,822.871 
  "/>
<polyline clip-path="url(#clip090)" style="stroke:#000000; stroke-width:4; stroke-opacity:1; fill:none" points="
  313.626,1410.9 313.626,815.61 
  "/>
<polyline clip-path="url(#clip090)" style="stroke:#000000; stroke-width:4; stroke-opacity:1; fill:none" points="
  313.626,1320.69 338.095,1320.69 
  "/>
<polyline clip-path="url(#clip090)" style="stroke:#000000; stroke-width:4; stroke-opacity:1; fill:none" points="
  313.626,1154.75 338.095,1154.75 
  "/>
<polyline clip-path="url(#clip090)" style="stroke:#000000; stroke-width:4; stroke-opacity:1; fill:none" points="
  313.626,988.81 338.095,988.81 
  "/>
<polyline clip-path="url(#clip090)" style="stroke:#000000; stroke-width:4; stroke-opacity:1; fill:none" points="
  313.626,822.871 338.095,822.871 
  "/>
<polyline clip-path="url(#clip090)" style="stroke:#000000; stroke-width:4; stroke-opacity:1; fill:none" points="
  313.626,1387.06 325.861,1387.06 
  "/>
<polyline clip-path="url(#clip090)" style="stroke:#000000; stroke-width:4; stroke-opacity:1; fill:none" points="
  313.626,1353.87 325.861,1353.87 
  "/>
<polyline clip-path="url(#clip090)" style="stroke:#000000; stroke-width:4; stroke-opacity:1; fill:none" points="
  313.626,1287.5 325.861,1287.5 
  "/>
<polyline clip-path="url(#clip090)" style="stroke:#000000; stroke-width:4; stroke-opacity:1; fill:none" points="
  313.626,1254.31 325.861,1254.31 
  "/>
<polyline clip-path="url(#clip090)" style="stroke:#000000; stroke-width:4; stroke-opacity:1; fill:none" points="
  313.626,1221.12 325.861,1221.12 
  "/>
<polyline clip-path="url(#clip090)" style="stroke:#000000; stroke-width:4; stroke-opacity:1; fill:none" points="
  313.626,1187.94 325.861,1187.94 
  "/>
<polyline clip-path="url(#clip090)" style="stroke:#000000; stroke-width:4; stroke-opacity:1; fill:none" points="
  313.626,1121.56 325.861,1121.56 
  "/>
<polyline clip-path="url(#clip090)" style="stroke:#000000; stroke-width:4; stroke-opacity:1; fill:none" points="
  313.626,1088.37 325.861,1088.37 
  "/>
<polyline clip-path="url(#clip090)" style="stroke:#000000; stroke-width:4; stroke-opacity:1; fill:none" points="
  313.626,1055.18 325.861,1055.18 
  "/>
<polyline clip-path="url(#clip090)" style="stroke:#000000; stroke-width:4; stroke-opacity:1; fill:none" points="
  313.626,1022 325.861,1022 
  "/>
<polyline clip-path="url(#clip090)" style="stroke:#000000; stroke-width:4; stroke-opacity:1; fill:none" points="
  313.626,955.622 325.861,955.622 
  "/>
<polyline clip-path="url(#clip090)" style="stroke:#000000; stroke-width:4; stroke-opacity:1; fill:none" points="
  313.626,922.434 325.861,922.434 
  "/>
<polyline clip-path="url(#clip090)" style="stroke:#000000; stroke-width:4; stroke-opacity:1; fill:none" points="
  313.626,889.246 325.861,889.246 
  "/>
<polyline clip-path="url(#clip090)" style="stroke:#000000; stroke-width:4; stroke-opacity:1; fill:none" points="
  313.626,856.059 325.861,856.059 
  "/>
<path clip-path="url(#clip090)" d="M 0 0 M155.59 1321.14 L185.265 1321.14 L185.265 1325.07 L155.59 1325.07 L155.59 1321.14 Z" fill="#000000" fill-rule="evenodd" fill-opacity="1" /><path clip-path="url(#clip090)" d="M 0 0 M205.936 1318.82 Q202.788 1318.82 200.936 1320.98 Q199.108 1323.13 199.108 1326.88 Q199.108 1330.61 200.936 1332.78 Q202.788 1334.93 205.936 1334.93 Q209.085 1334.93 210.913 1332.78 Q212.765 1330.61 212.765 1326.88 Q212.765 1323.13 210.913 1320.98 Q209.085 1318.82 205.936 1318.82 M215.219 1304.17 L215.219 1308.43 Q213.46 1307.6 211.654 1307.16 Q209.872 1306.72 208.112 1306.72 Q203.483 1306.72 201.029 1309.84 Q198.599 1312.97 198.251 1319.29 Q199.617 1317.27 201.677 1316.21 Q203.737 1315.12 206.214 1315.12 Q211.423 1315.12 214.432 1318.29 Q217.464 1321.44 217.464 1326.88 Q217.464 1332.2 214.316 1335.42 Q211.168 1338.64 205.936 1338.64 Q199.941 1338.64 196.77 1334.05 Q193.599 1329.45 193.599 1320.72 Q193.599 1312.53 197.487 1307.67 Q201.376 1302.78 207.927 1302.78 Q209.686 1302.78 211.469 1303.13 Q213.274 1303.48 215.219 1304.17 Z" fill="#000000" fill-rule="evenodd" fill-opacity="1" /><path clip-path="url(#clip090)" d="M 0 0 M235.52 1306.49 Q231.909 1306.49 230.08 1310.05 Q228.274 1313.59 228.274 1320.72 Q228.274 1327.83 230.08 1331.39 Q231.909 1334.93 235.52 1334.93 Q239.154 1334.93 240.959 1331.39 Q242.788 1327.83 242.788 1320.72 Q242.788 1313.59 240.959 1310.05 Q239.154 1306.49 235.52 1306.49 M235.52 1302.78 Q241.33 1302.78 244.385 1307.39 Q247.464 1311.97 247.464 1320.72 Q247.464 1329.45 244.385 1334.05 Q241.33 1338.64 235.52 1338.64 Q229.709 1338.64 226.631 1334.05 Q223.575 1329.45 223.575 1320.72 Q223.575 1311.97 226.631 1307.39 Q229.709 1302.78 235.52 1302.78 Z" fill="#000000" fill-rule="evenodd" fill-opacity="1" /><path clip-path="url(#clip090)" d="M 0 0 M265.682 1306.49 Q262.07 1306.49 260.242 1310.05 Q258.436 1313.59 258.436 1320.72 Q258.436 1327.83 260.242 1331.39 Q262.07 1334.93 265.682 1334.93 Q269.316 1334.93 271.121 1331.39 Q272.95 1327.83 272.95 1320.72 Q272.95 1313.59 271.121 1310.05 Q269.316 1306.49 265.682 1306.49 M265.682 1302.78 Q271.492 1302.78 274.547 1307.39 Q277.626 1311.97 277.626 1320.72 Q277.626 1329.45 274.547 1334.05 Q271.492 1338.64 265.682 1338.64 Q259.871 1338.64 256.793 1334.05 Q253.737 1329.45 253.737 1320.72 Q253.737 1311.97 256.793 1307.39 Q259.871 1302.78 265.682 1302.78 Z" fill="#000000" fill-rule="evenodd" fill-opacity="1" /><path clip-path="url(#clip090)" d="M 0 0 M155.59 1155.2 L185.265 1155.2 L185.265 1159.13 L155.59 1159.13 L155.59 1155.2 Z" fill="#000000" fill-rule="evenodd" fill-opacity="1" /><path clip-path="url(#clip090)" d="M 0 0 M208.205 1141.54 L196.399 1159.99 L208.205 1159.99 L208.205 1141.54 M206.978 1137.47 L212.858 1137.47 L212.858 1159.99 L217.788 1159.99 L217.788 1163.88 L212.858 1163.88 L212.858 1172.03 L208.205 1172.03 L208.205 1163.88 L192.603 1163.88 L192.603 1159.37 L206.978 1137.47 Z" fill="#000000" fill-rule="evenodd" fill-opacity="1" /><path clip-path="url(#clip090)" d="M 0 0 M235.52 1140.55 Q231.909 1140.55 230.08 1144.11 Q228.274 1147.65 228.274 1154.78 Q228.274 1161.89 230.08 1165.45 Q231.909 1169 235.52 1169 Q239.154 1169 240.959 1165.45 Q242.788 1161.89 242.788 1154.78 Q242.788 1147.65 240.959 1144.11 Q239.154 1140.55 235.52 1140.55 M235.52 1136.84 Q241.33 1136.84 244.385 1141.45 Q247.464 1146.03 247.464 1154.78 Q247.464 1163.51 244.385 1168.12 Q241.33 1172.7 235.52 1172.7 Q229.709 1172.7 226.631 1168.12 Q223.575 1163.51 223.575 1154.78 Q223.575 1146.03 226.631 1141.45 Q229.709 1136.84 235.52 1136.84 Z" fill="#000000" fill-rule="evenodd" fill-opacity="1" /><path clip-path="url(#clip090)" d="M 0 0 M265.682 1140.55 Q262.07 1140.55 260.242 1144.11 Q258.436 1147.65 258.436 1154.78 Q258.436 1161.89 260.242 1165.45 Q262.07 1169 265.682 1169 Q269.316 1169 271.121 1165.45 Q272.95 1161.89 272.95 1154.78 Q272.95 1147.65 271.121 1144.11 Q269.316 1140.55 265.682 1140.55 M265.682 1136.84 Q271.492 1136.84 274.547 1141.45 Q277.626 1146.03 277.626 1154.78 Q277.626 1163.51 274.547 1168.12 Q271.492 1172.7 265.682 1172.7 Q259.871 1172.7 256.793 1168.12 Q253.737 1163.51 253.737 1154.78 Q253.737 1146.03 256.793 1141.45 Q259.871 1136.84 265.682 1136.84 Z" fill="#000000" fill-rule="evenodd" fill-opacity="1" /><path clip-path="url(#clip090)" d="M 0 0 M155.59 989.261 L185.265 989.261 L185.265 993.196 L155.59 993.196 L155.59 989.261 Z" fill="#000000" fill-rule="evenodd" fill-opacity="1" /><path clip-path="url(#clip090)" d="M 0 0 M199.386 1002.15 L215.705 1002.15 L215.705 1006.09 L193.761 1006.09 L193.761 1002.15 Q196.423 999.4 201.006 994.77 Q205.612 990.117 206.793 988.775 Q209.038 986.252 209.918 984.516 Q210.821 982.756 210.821 981.066 Q210.821 978.312 208.876 976.576 Q206.955 974.84 203.853 974.84 Q201.654 974.84 199.2 975.604 Q196.77 976.367 193.992 977.918 L193.992 973.196 Q196.816 972.062 199.27 971.483 Q201.724 970.905 203.761 970.905 Q209.131 970.905 212.325 973.59 Q215.52 976.275 215.52 980.766 Q215.52 982.895 214.71 984.816 Q213.923 986.715 211.816 989.307 Q211.237 989.978 208.136 993.196 Q205.034 996.39 199.386 1002.15 Z" fill="#000000" fill-rule="evenodd" fill-opacity="1" /><path clip-path="url(#clip090)" d="M 0 0 M235.52 974.608 Q231.909 974.608 230.08 978.173 Q228.274 981.715 228.274 988.844 Q228.274 995.951 230.08 999.515 Q231.909 1003.06 235.52 1003.06 Q239.154 1003.06 240.959 999.515 Q242.788 995.951 242.788 988.844 Q242.788 981.715 240.959 978.173 Q239.154 974.608 235.52 974.608 M235.52 970.905 Q241.33 970.905 244.385 975.511 Q247.464 980.094 247.464 988.844 Q247.464 997.571 244.385 1002.18 Q241.33 1006.76 235.52 1006.76 Q229.709 1006.76 226.631 1002.18 Q223.575 997.571 223.575 988.844 Q223.575 980.094 226.631 975.511 Q229.709 970.905 235.52 970.905 Z" fill="#000000" fill-rule="evenodd" fill-opacity="1" /><path clip-path="url(#clip090)" d="M 0 0 M265.682 974.608 Q262.07 974.608 260.242 978.173 Q258.436 981.715 258.436 988.844 Q258.436 995.951 260.242 999.515 Q262.07 1003.06 265.682 1003.06 Q269.316 1003.06 271.121 999.515 Q272.95 995.951 272.95 988.844 Q272.95 981.715 271.121 978.173 Q269.316 974.608 265.682 974.608 M265.682 970.905 Q271.492 970.905 274.547 975.511 Q277.626 980.094 277.626 988.844 Q277.626 997.571 274.547 1002.18 Q271.492 1006.76 265.682 1006.76 Q259.871 1006.76 256.793 1002.18 Q253.737 997.571 253.737 988.844 Q253.737 980.094 256.793 975.511 Q259.871 970.905 265.682 970.905 Z" fill="#000000" fill-rule="evenodd" fill-opacity="1" /><path clip-path="url(#clip090)" d="M 0 0 M265.682 808.67 Q262.07 808.67 260.242 812.234 Q258.436 815.776 258.436 822.906 Q258.436 830.012 260.242 833.577 Q262.07 837.119 265.682 837.119 Q269.316 837.119 271.121 833.577 Q272.95 830.012 272.95 822.906 Q272.95 815.776 271.121 812.234 Q269.316 808.67 265.682 808.67 M265.682 804.966 Q271.492 804.966 274.547 809.572 Q277.626 814.156 277.626 822.906 Q277.626 831.632 274.547 836.239 Q271.492 840.822 265.682 840.822 Q259.871 840.822 256.793 836.239 Q253.737 831.632 253.737 822.906 Q253.737 814.156 256.793 809.572 Q259.871 804.966 265.682 804.966 Z" fill="#000000" fill-rule="evenodd" fill-opacity="1" /><path clip-path="url(#clip090)" d="M 0 0 M74.428 1108.27 Q74.428 1110.34 79.0431 1110.34 L100.878 1110.34 Q100.878 1107.32 97.5673 1104.29 Q94.6073 1101.59 87.5095 1101.59 Q80.8892 1101.59 77.3244 1104.33 Q74.428 1106.55 74.428 1108.27 M69.4309 1108.27 Q69.4309 1103.82 73.6323 1099.77 Q78.1201 1095.41 87.5095 1095.41 Q96.1351 1095.41 101.259 1099.77 Q106.097 1103.88 106.097 1110.34 L118.892 1110.34 L118.892 1116.17 L106.129 1116.17 Q106.129 1122.5 101.259 1126.76 Q96.2942 1131.09 87.5414 1131.09 Q78.4384 1131.09 73.7914 1126.76 Q70.3221 1123.52 69.4309 1118.23 L74.619 1118.23 Q75.351 1120.34 77.8337 1122.18 Q81.4939 1124.92 87.5414 1124.92 Q93.9707 1124.92 97.631 1122.18 Q100.909 1119.73 100.909 1116.17 L79.0431 1116.17 Q69.4309 1116.17 69.4309 1108.27 Z" fill="#000000" fill-rule="evenodd" fill-opacity="1" /><polyline clip-path="url(#clip093)" style="stroke:#009af9; stroke-width:8; stroke-opacity:1; fill:none" points="
  371.337,832.458 390.769,832.913 410.2,833.389 429.631,833.888 449.063,834.41 468.494,834.957 487.925,835.529 507.357,836.128 526.788,836.755 546.22,837.411 
  565.651,838.098 585.082,838.817 604.514,839.569 623.945,840.356 643.377,841.179 662.808,842.039 682.239,842.94 701.671,843.881 721.102,844.865 740.534,845.894 
  759.965,846.968 779.396,848.091 798.828,849.265 818.259,850.49 837.69,851.768 857.122,853.103 876.553,854.496 895.985,855.948 915.416,857.463 934.847,859.041 
  954.279,860.686 973.71,862.398 993.142,864.181 1012.57,866.036 1032,867.964 1051.44,869.969 1070.87,872.052 1090.3,874.214 1109.73,876.458 1129.16,878.786 
  1148.59,881.198 1168.02,883.698 1187.46,886.286 1206.89,888.964 1226.32,891.734 1245.75,894.598 1265.18,897.558 1284.61,900.614 1304.04,903.771 1323.48,907.028 
  1342.91,910.39 1362.34,913.857 1381.77,917.434 1401.2,921.122 1420.63,924.926 1440.06,928.848 1459.49,932.894 1478.93,937.068 1498.36,941.374 1517.79,945.817 
  1537.22,950.405 1556.65,955.143 1576.08,960.038 1595.51,965.098 1614.95,970.331 1634.38,975.745 1653.81,981.351 1673.24,987.157 1692.67,993.174 1712.1,999.413 
  1731.53,1005.89 1750.97,1012.61 1770.4,1019.59 1789.83,1026.84 1809.26,1034.39 1828.69,1042.23 1848.12,1050.4 1867.55,1058.9 1886.99,1067.76 1906.42,1076.99 
  1925.85,1086.61 1945.28,1096.65 1964.71,1107.12 1984.14,1118.04 2003.57,1129.45 2023.01,1141.36 2042.44,1153.79 2061.87,1166.79 2081.3,1180.37 2100.73,1194.56 
  2120.16,1209.4 2139.59,1224.91 2159.02,1241.13 2178.46,1258.09 2197.89,1275.84 2217.32,1294.41 2236.75,1313.83 2256.18,1334.16 2275.61,1355.43 2295.04,1377.69 
  
  "/>
<polyline clip-path="url(#clip093)" style="stroke:#ff0000; stroke-width:4; stroke-opacity:1; fill:none" points="
  371.337,972.216 1621.81,972.216 1621.81,1394.05 
  "/>
<path clip-path="url(#clip090)" d="M 0 0 M1661.51 964.103 Q1661.51 966.358 1660.28 971.335 Q1659.05 976.312 1657.56 979.709 Q1654.37 987.087 1648.87 987.087 Q1648.19 987.087 1647.52 987.028 Q1646.87 986.97 1645.91 986.706 Q1644.94 986.443 1644.15 986.033 Q1643.36 985.594 1642.57 984.774 Q1641.81 983.954 1641.37 982.871 Q1638.94 987.087 1635.13 987.087 Q1631.45 987.087 1629.02 985.213 Q1626.61 983.339 1626.61 979.504 Q1626.61 977.776 1627.32 975.229 Q1628.02 972.682 1629.98 967.412 Q1631.06 964.689 1631.06 963.196 Q1631.06 962.522 1630.92 962.083 Q1630.77 961.644 1630.48 961.498 Q1630.22 961.322 1630.04 961.293 Q1629.86 961.234 1629.57 961.234 Q1627.81 961.234 1626.23 963.02 Q1624.65 964.777 1623.51 968.671 Q1623.28 969.403 1623.13 969.578 Q1622.98 969.754 1622.54 969.754 Q1621.81 969.725 1621.81 969.139 Q1621.81 968.905 1622.08 967.997 Q1622.34 967.061 1622.95 965.684 Q1623.6 964.279 1624.48 963.02 Q1625.36 961.732 1626.73 960.824 Q1628.14 959.917 1629.75 959.917 Q1631.91 959.917 1633.29 961.351 Q1634.67 962.786 1634.67 964.835 Q1634.67 965.421 1634.52 966.065 Q1634.37 966.68 1634.23 967.09 Q1634.11 967.47 1633.64 968.671 Q1631.71 973.736 1631.09 976.166 Q1630.51 978.596 1630.51 980.294 Q1630.51 980.85 1630.54 981.29 Q1630.57 981.729 1630.8 982.636 Q1631.06 983.544 1631.53 984.159 Q1632 984.744 1632.97 985.242 Q1633.96 985.74 1635.31 985.74 Q1638.68 985.74 1640.84 980.704 Q1640.78 980.411 1640.78 979.65 Q1640.78 977.952 1641.31 975.668 Q1641.46 975.141 1642.31 971.774 Q1643.16 968.378 1643.89 965.421 Q1644.65 962.435 1644.74 962.259 Q1645.03 961.439 1645.67 961 Q1646.32 960.561 1646.96 960.561 Q1647.69 960.561 1648.19 961 Q1648.69 961.439 1648.69 962.2 Q1648.69 962.347 1648.51 963.02 Q1648.37 963.664 1648.13 964.63 Q1647.9 965.597 1647.78 966.094 L1645.26 976.166 Q1644.62 978.508 1644.62 980.528 Q1644.62 983.076 1645.76 984.422 Q1646.9 985.74 1649.04 985.74 Q1653.05 985.74 1655.63 980.47 Q1656.8 978.186 1657.85 974.614 Q1658.94 971.042 1658.94 969.491 Q1658.94 966.563 1656.77 964.396 Q1656.3 963.986 1656.1 963.664 Q1655.89 963.313 1655.89 962.786 Q1655.89 961.79 1656.83 960.854 Q1657.77 959.917 1658.88 959.917 Q1659.87 959.917 1660.69 960.912 Q1661.51 961.878 1661.51 964.103 Z" fill="#000000" fill-rule="evenodd" fill-opacity="1" /><path clip-path="url(#clip090)" d="M 0 0 M1683.7 993.253 Q1683.86 993.437 1683.86 993.622 Q1683.86 993.806 1683.45 994.339 Q1683.06 994.872 1682.22 995.589 Q1681.38 996.307 1680.29 996.983 Q1679.21 997.659 1677.61 998.11 Q1676.01 998.582 1674.33 998.582 Q1671.19 998.582 1669.35 996.512 Q1667.53 994.442 1667.53 991.47 Q1667.53 988.58 1669.14 985.813 Q1670.76 983.026 1673.39 981.305 Q1676.01 979.563 1678.78 979.563 Q1680.97 979.563 1682.34 980.587 Q1683.72 981.612 1683.72 983.17 Q1683.72 984.379 1683.02 985.117 Q1682.32 985.854 1681.38 985.854 Q1680.72 985.854 1680.27 985.485 Q1679.82 985.096 1679.82 984.379 Q1679.82 983.457 1680.58 982.739 Q1680.87 982.452 1681.2 982.329 Q1681.54 982.186 1681.75 982.186 Q1681.95 982.165 1682.42 982.165 Q1681.99 981.366 1680.97 980.936 Q1679.97 980.485 1678.82 980.485 Q1677.12 980.485 1675.5 981.673 Q1673.88 982.842 1672.89 984.686 Q1671.91 986.49 1671.28 989.052 Q1670.64 991.593 1670.64 993.068 Q1670.64 995.097 1671.58 996.368 Q1672.53 997.639 1674.41 997.639 Q1674.78 997.639 1675.17 997.618 Q1675.58 997.598 1676.6 997.372 Q1677.65 997.147 1678.57 996.758 Q1679.49 996.368 1680.66 995.528 Q1681.85 994.667 1682.79 993.499 Q1683.12 993.068 1683.35 993.068 Q1683.53 993.068 1683.7 993.253 Z" fill="#000000" fill-rule="evenodd" fill-opacity="1" /><path clip-path="url(#clip090)" d="M 0 0 M1703.48 986.654 Q1703.48 988.888 1702.5 991.101 Q1701.52 993.294 1699.94 994.934 Q1698.38 996.553 1696.33 997.577 Q1694.28 998.582 1692.23 998.582 Q1689.3 998.582 1687.4 996.594 Q1685.51 994.585 1685.51 991.47 Q1685.51 988.56 1687.13 985.793 Q1688.77 983.006 1691.39 981.284 Q1694.02 979.563 1696.76 979.563 Q1699.65 979.563 1701.56 981.51 Q1703.48 983.457 1703.48 986.654 M1700.41 985.014 Q1700.41 983.026 1699.45 981.755 Q1698.48 980.485 1696.72 980.485 Q1696.21 980.485 1695.61 980.649 Q1695.02 980.792 1694.24 981.182 Q1693.48 981.571 1692.62 982.391 Q1691.78 983.19 1691.04 984.338 Q1690.08 985.854 1689.34 988.642 Q1688.63 991.408 1688.63 993.068 Q1688.63 995.364 1689.69 996.512 Q1690.76 997.639 1692.27 997.639 Q1693.75 997.639 1695.31 996.614 Q1696.89 995.569 1697.97 993.786 Q1699.06 991.941 1699.73 989.236 Q1700.41 986.51 1700.41 985.014 Z" fill="#000000" fill-rule="evenodd" fill-opacity="1" /><path clip-path="url(#clip090)" d="M 0 0 M1712.92 985.447 Q1712.07 984.481 1712.07 983.222 Q1712.07 981.963 1712.89 981.026 Q1713.74 980.06 1715.26 980.06 Q1717.05 980.06 1718.07 981.787 Q1719.09 983.485 1719.09 986.355 Q1719.09 989.458 1717.84 992.327 Q1716.58 995.226 1715.35 996.602 Q1714.12 997.978 1713.62 997.978 Q1713.03 997.978 1713.03 997.334 Q1713.03 997.1 1713.44 996.661 Q1717.75 992.035 1717.78 986.355 Q1717.78 985.447 1717.66 985.447 L1717.51 985.564 Q1716.49 986.413 1715.26 986.413 Q1713.77 986.413 1712.92 985.447 Z" fill="#000000" fill-rule="evenodd" fill-opacity="1" /><path clip-path="url(#clip090)" d="M 0 0 M1794.24 970.574 Q1794.59 970.925 1794.59 971.423 Q1794.59 971.921 1794.24 972.272 Q1793.89 972.623 1793.39 972.623 L1755.86 972.623 Q1755.36 972.623 1755.01 972.272 Q1754.66 971.921 1754.66 971.423 Q1754.66 970.925 1755.01 970.574 Q1755.36 970.223 1755.86 970.223 L1793.39 970.223 Q1793.89 970.223 1794.24 970.574 Z" fill="#000000" fill-rule="evenodd" fill-opacity="1" /><path clip-path="url(#clip090)" d="M 0 0 M1817.49 952.187 L1817.49 950.313 Q1824.69 950.313 1828.41 946.478 Q1829.44 946.478 1829.61 946.712 Q1829.79 946.946 1829.79 948.03 L1829.79 981.67 Q1829.79 983.456 1830.67 984.013 Q1831.54 984.569 1835.38 984.569 L1837.28 984.569 L1837.28 986.413 Q1835.17 986.238 1827.56 986.238 Q1819.95 986.238 1817.87 986.413 L1817.87 984.569 L1819.77 984.569 Q1823.55 984.569 1824.46 984.042 Q1825.37 983.485 1825.37 981.67 L1825.37 950.606 Q1822.23 952.187 1817.49 952.187 Z" fill="#000000" fill-rule="evenodd" fill-opacity="1" /><path clip-path="url(#clip090)" d="M 0 0 M1842.81 977.366 Q1842.81 970.662 1851.45 966.329 Q1847.73 963.811 1847.06 963.079 Q1844.42 960.151 1844.42 956.491 Q1844.42 952.304 1847.58 949.406 Q1850.77 946.478 1855.28 946.478 Q1859.59 946.478 1862.84 948.967 Q1866.09 951.455 1866.09 955.408 Q1866.09 960.971 1858.83 964.718 Q1863.63 967.705 1864.77 968.964 Q1867.7 972.213 1867.7 976.342 Q1867.7 981.143 1864.01 984.452 Q1860.32 987.731 1855.22 987.731 Q1850.25 987.731 1846.53 984.832 Q1842.81 981.934 1842.81 977.366 M1845.8 977.366 Q1845.8 981.085 1848.58 983.573 Q1851.39 986.062 1855.28 986.062 Q1859.06 986.062 1861.87 983.895 Q1864.71 981.729 1864.71 978.508 Q1864.71 977.249 1864.27 976.166 Q1863.86 975.083 1863.01 974.234 Q1862.19 973.355 1861.67 972.975 Q1861.17 972.565 1860.2 971.891 L1852.82 967.236 Q1845.8 971.13 1845.8 977.366 M1847.06 954.149 Q1847.06 957.018 1850.07 959.009 L1857.51 963.811 Q1863.45 960.327 1863.45 955.408 Q1863.45 952.217 1861.02 950.109 Q1858.59 947.971 1855.22 947.971 Q1851.92 947.971 1849.49 949.728 Q1847.06 951.455 1847.06 954.149 Z" fill="#000000" fill-rule="evenodd" fill-opacity="1" /><path clip-path="url(#clip090)" d="M 0 0 M1872.51 967.236 Q1872.51 958.423 1874.73 953.622 Q1877.83 946.478 1885.15 946.478 Q1886.71 946.478 1888.32 946.917 Q1889.96 947.327 1892.01 948.937 Q1894.08 950.548 1895.34 953.183 Q1897.74 958.277 1897.74 967.236 Q1897.74 975.99 1895.52 980.763 Q1892.27 987.731 1885.1 987.731 Q1882.4 987.731 1879.65 986.355 Q1876.93 984.979 1875.2 981.67 Q1872.51 976.722 1872.51 967.236 M1877.48 966.504 Q1877.48 975.551 1878.13 979.152 Q1878.86 983.046 1880.85 984.744 Q1882.87 986.413 1885.1 986.413 Q1887.5 986.413 1889.49 984.627 Q1891.51 982.812 1892.12 978.918 Q1892.8 975.083 1892.77 966.504 Q1892.77 958.16 1892.18 954.822 Q1891.39 950.928 1889.28 949.377 Q1887.2 947.796 1885.1 947.796 Q1884.31 947.796 1883.46 948.03 Q1882.64 948.264 1881.44 948.937 Q1880.24 949.611 1879.3 951.28 Q1878.39 952.948 1877.95 955.466 Q1877.48 958.716 1877.48 966.504 Z" fill="#000000" fill-rule="evenodd" fill-opacity="1" /><path clip-path="url(#clip090)" d="M 0 0 M1902.2 952.129 Q1902.2 949.377 1904.13 947.415 Q1906.1 945.453 1908.85 945.453 Q1911.66 945.453 1913.56 947.444 Q1915.49 949.406 1915.49 952.041 Q1915.49 954.793 1913.5 956.755 Q1911.54 958.716 1908.85 958.716 Q1906.04 958.716 1904.1 956.755 Q1902.2 954.764 1902.2 952.129 M1905.86 949.084 Q1904.6 950.313 1904.6 952.129 Q1904.6 953.915 1905.86 955.115 Q1907.12 956.315 1908.85 956.315 Q1910.57 956.315 1911.8 955.115 Q1913.03 953.915 1913.03 952.129 Q1913.03 950.313 1911.78 949.084 Q1910.52 947.854 1908.85 947.854 Q1907.12 947.854 1905.86 949.084 Z" fill="#000000" fill-rule="evenodd" fill-opacity="1" /></svg>