<?xml version="1.0" encoding="utf-8"?>
<svg xmlns="http://www.w3.org/2000/svg" xmlns:xlink="http://www.w3.org/1999/xlink" width="600" height="400" viewBox="0 0 2400 1600">
<defs>
  <clipPath id="clip890">
    <rect x="0" y="0" width="2400" height="1600"/>
  </clipPath>
</defs>
<path clip-path="url(#clip890)" d="
M0 1600 L2400 1600 L2400 0 L0 0  Z
  " fill="#ffffff" fill-rule="evenodd" fill-opacity="1"/>
<defs>
  <clipPath id="clip891">
    <rect x="480" y="0" width="1681" height="1600"/>
  </clipPath>
</defs>
<path clip-path="url(#clip890)" d="
M257.204 1423.18 L2352.76 1423.18 L2352.76 47.2441 L257.204 47.2441  Z
  " fill="#ffffff" fill-rule="evenodd" fill-opacity="1"/>
<defs>
  <clipPath id="clip892">
    <rect x="257" y="47" width="2097" height="1377"/>
  </clipPath>
</defs>
<polyline clip-path="url(#clip892)" style="stroke:#000000; stroke-width:2; stroke-opacity:0.1; fill:none" points="
  496.234,1423.18 496.234,47.2441 
  "/>
<polyline clip-path="url(#clip892)" style="stroke:#000000; stroke-width:2; stroke-opacity:0.1; fill:none" points="
  945.537,1423.18 945.537,47.2441 
  "/>
<polyline clip-path="url(#clip892)" style="stroke:#000000; stroke-width:2; stroke-opacity:0.1; fill:none" points="
  1394.84,1423.18 1394.84,47.2441 
  "/>
<polyline clip-path="url(#clip892)" style="stroke:#000000; stroke-width:2; stroke-opacity:0.1; fill:none" points="
  1844.14,1423.18 1844.14,47.2441 
  "/>
<polyline clip-path="url(#clip892)" style="stroke:#000000; stroke-width:2; stroke-opacity:0.1; fill:none" points="
  2293.45,1423.18 2293.45,47.2441 
  "/>
<polyline clip-path="url(#clip890)" style="stroke:#000000; stroke-width:4; stroke-opacity:1; fill:none" points="
  257.204,1423.18 2352.76,1423.18 
  "/>
<polyline clip-path="url(#clip890)" style="stroke:#000000; stroke-width:4; stroke-opacity:1; fill:none" points="
  496.234,1423.18 496.234,1406.67 
  "/>
<polyline clip-path="url(#clip890)" style="stroke:#000000; stroke-width:4; stroke-opacity:1; fill:none" points="
  945.537,1423.18 945.537,1406.67 
  "/>
<polyline clip-path="url(#clip890)" style="stroke:#000000; stroke-width:4; stroke-opacity:1; fill:none" points="
  1394.84,1423.18 1394.84,1406.67 
  "/>
<polyline clip-path="url(#clip890)" style="stroke:#000000; stroke-width:4; stroke-opacity:1; fill:none" points="
  1844.14,1423.18 1844.14,1406.67 
  "/>
<polyline clip-path="url(#clip890)" style="stroke:#000000; stroke-width:4; stroke-opacity:1; fill:none" points="
  2293.45,1423.18 2293.45,1406.67 
  "/>
<path clip-path="url(#clip890)" d="M 0 0 M473.618 1452.37 Q470.007 1452.37 468.178 1455.94 Q466.373 1459.48 466.373 1466.61 Q466.373 1473.71 468.178 1477.28 Q470.007 1480.82 473.618 1480.82 Q477.252 1480.82 479.058 1477.28 Q480.886 1473.71 480.886 1466.61 Q480.886 1459.48 479.058 1455.94 Q477.252 1452.37 473.618 1452.37 M473.618 1448.67 Q479.428 1448.67 482.484 1453.27 Q485.562 1457.86 485.562 1466.61 Q485.562 1475.33 482.484 1479.94 Q479.428 1484.52 473.618 1484.52 Q467.808 1484.52 464.729 1479.94 Q461.674 1475.33 461.674 1466.61 Q461.674 1457.86 464.729 1453.27 Q467.808 1448.67 473.618 1448.67 Z" fill="#000000" fill-rule="evenodd" fill-opacity="1" /><path clip-path="url(#clip890)" d="M 0 0 M493.78 1477.97 L498.664 1477.97 L498.664 1483.85 L493.78 1483.85 L493.78 1477.97 Z" fill="#000000" fill-rule="evenodd" fill-opacity="1" /><path clip-path="url(#clip890)" d="M 0 0 M518.849 1452.37 Q515.238 1452.37 513.409 1455.94 Q511.604 1459.48 511.604 1466.61 Q511.604 1473.71 513.409 1477.28 Q515.238 1480.82 518.849 1480.82 Q522.483 1480.82 524.289 1477.28 Q526.118 1473.71 526.118 1466.61 Q526.118 1459.48 524.289 1455.94 Q522.483 1452.37 518.849 1452.37 M518.849 1448.67 Q524.659 1448.67 527.715 1453.27 Q530.794 1457.86 530.794 1466.61 Q530.794 1475.33 527.715 1479.94 Q524.659 1484.52 518.849 1484.52 Q513.039 1484.52 509.96 1479.94 Q506.905 1475.33 506.905 1466.61 Q506.905 1457.86 509.96 1453.27 Q513.039 1448.67 518.849 1448.67 Z" fill="#000000" fill-rule="evenodd" fill-opacity="1" /><path clip-path="url(#clip890)" d="M 0 0 M917.273 1479.92 L933.593 1479.92 L933.593 1483.85 L911.648 1483.85 L911.648 1479.92 Q914.31 1477.16 918.894 1472.53 Q923.5 1467.88 924.681 1466.54 Q926.926 1464.01 927.806 1462.28 Q928.708 1460.52 928.708 1458.83 Q928.708 1456.07 926.764 1454.34 Q924.843 1452.6 921.741 1452.6 Q919.542 1452.6 917.088 1453.37 Q914.658 1454.13 911.88 1455.68 L911.88 1450.96 Q914.704 1449.82 917.158 1449.25 Q919.611 1448.67 921.648 1448.67 Q927.019 1448.67 930.213 1451.35 Q933.408 1454.04 933.408 1458.53 Q933.408 1460.66 932.597 1462.58 Q931.81 1464.48 929.704 1467.07 Q929.125 1467.74 926.023 1470.96 Q922.921 1474.15 917.273 1479.92 Z" fill="#000000" fill-rule="evenodd" fill-opacity="1" /><path clip-path="url(#clip890)" d="M 0 0 M943.407 1477.97 L948.292 1477.97 L948.292 1483.85 L943.407 1483.85 L943.407 1477.97 Z" fill="#000000" fill-rule="evenodd" fill-opacity="1" /><path clip-path="url(#clip890)" d="M 0 0 M958.523 1449.29 L976.88 1449.29 L976.88 1453.23 L962.806 1453.23 L962.806 1461.7 Q963.824 1461.35 964.843 1461.19 Q965.861 1461 966.88 1461 Q972.667 1461 976.046 1464.18 Q979.426 1467.35 979.426 1472.76 Q979.426 1478.34 975.954 1481.44 Q972.481 1484.52 966.162 1484.52 Q963.986 1484.52 961.718 1484.15 Q959.472 1483.78 957.065 1483.04 L957.065 1478.34 Q959.148 1479.48 961.37 1480.03 Q963.593 1480.59 966.069 1480.59 Q970.074 1480.59 972.412 1478.48 Q974.75 1476.38 974.75 1472.76 Q974.75 1469.15 972.412 1467.05 Q970.074 1464.94 966.069 1464.94 Q964.194 1464.94 962.319 1465.36 Q960.468 1465.77 958.523 1466.65 L958.523 1449.29 Z" fill="#000000" fill-rule="evenodd" fill-opacity="1" /><path clip-path="url(#clip890)" d="M 0 0 M1362.01 1449.29 L1380.36 1449.29 L1380.36 1453.23 L1366.29 1453.23 L1366.29 1461.7 Q1367.31 1461.35 1368.32 1461.19 Q1369.34 1461 1370.36 1461 Q1376.15 1461 1379.53 1464.18 Q1382.91 1467.35 1382.91 1472.76 Q1382.91 1478.34 1379.44 1481.44 Q1375.96 1484.52 1369.64 1484.52 Q1367.47 1484.52 1365.2 1484.15 Q1362.95 1483.78 1360.55 1483.04 L1360.55 1478.34 Q1362.63 1479.48 1364.85 1480.03 Q1367.07 1480.59 1369.55 1480.59 Q1373.56 1480.59 1375.89 1478.48 Q1378.23 1476.38 1378.23 1472.76 Q1378.23 1469.15 1375.89 1467.05 Q1373.56 1464.94 1369.55 1464.94 Q1367.68 1464.94 1365.8 1465.36 Q1363.95 1465.77 1362.01 1466.65 L1362.01 1449.29 Z" fill="#000000" fill-rule="evenodd" fill-opacity="1" /><path clip-path="url(#clip890)" d="M 0 0 M1392.12 1477.97 L1397.01 1477.97 L1397.01 1483.85 L1392.12 1483.85 L1392.12 1477.97 Z" fill="#000000" fill-rule="evenodd" fill-opacity="1" /><path clip-path="url(#clip890)" d="M 0 0 M1417.19 1452.37 Q1413.58 1452.37 1411.75 1455.94 Q1409.94 1459.48 1409.94 1466.61 Q1409.94 1473.71 1411.75 1477.28 Q1413.58 1480.82 1417.19 1480.82 Q1420.82 1480.82 1422.63 1477.28 Q1424.46 1473.71 1424.46 1466.61 Q1424.46 1459.48 1422.63 1455.94 Q1420.82 1452.37 1417.19 1452.37 M1417.19 1448.67 Q1423 1448.67 1426.06 1453.27 Q1429.13 1457.86 1429.13 1466.61 Q1429.13 1475.33 1426.06 1479.94 Q1423 1484.52 1417.19 1484.52 Q1411.38 1484.52 1408.3 1479.94 Q1405.25 1475.33 1405.25 1466.61 Q1405.25 1457.86 1408.3 1453.27 Q1411.38 1448.67 1417.19 1448.67 Z" fill="#000000" fill-rule="evenodd" fill-opacity="1" /><path clip-path="url(#clip890)" d="M 0 0 M1810.46 1449.29 L1832.69 1449.29 L1832.69 1451.28 L1820.14 1483.85 L1815.26 1483.85 L1827.06 1453.23 L1810.46 1453.23 L1810.46 1449.29 Z" fill="#000000" fill-rule="evenodd" fill-opacity="1" /><path clip-path="url(#clip890)" d="M 0 0 M1841.81 1477.97 L1846.69 1477.97 L1846.69 1483.85 L1841.81 1483.85 L1841.81 1477.97 Z" fill="#000000" fill-rule="evenodd" fill-opacity="1" /><path clip-path="url(#clip890)" d="M 0 0 M1856.92 1449.29 L1875.28 1449.29 L1875.28 1453.23 L1861.2 1453.23 L1861.2 1461.7 Q1862.22 1461.35 1863.24 1461.19 Q1864.26 1461 1865.28 1461 Q1871.07 1461 1874.45 1464.18 Q1877.82 1467.35 1877.82 1472.76 Q1877.82 1478.34 1874.35 1481.44 Q1870.88 1484.52 1864.56 1484.52 Q1862.38 1484.52 1860.12 1484.15 Q1857.87 1483.78 1855.46 1483.04 L1855.46 1478.34 Q1857.55 1479.48 1859.77 1480.03 Q1861.99 1480.59 1864.47 1480.59 Q1868.47 1480.59 1870.81 1478.48 Q1873.15 1476.38 1873.15 1472.76 Q1873.15 1469.15 1870.81 1467.05 Q1868.47 1464.94 1864.47 1464.94 Q1862.59 1464.94 1860.72 1465.36 Q1858.87 1465.77 1856.92 1466.65 L1856.92 1449.29 Z" fill="#000000" fill-rule="evenodd" fill-opacity="1" /><path clip-path="url(#clip890)" d="M 0 0 M2245.52 1479.92 L2253.16 1479.92 L2253.16 1453.55 L2244.85 1455.22 L2244.85 1450.96 L2253.11 1449.29 L2257.79 1449.29 L2257.79 1479.92 L2265.43 1479.92 L2265.43 1483.85 L2245.52 1483.85 L2245.52 1479.92 Z" fill="#000000" fill-rule="evenodd" fill-opacity="1" /><path clip-path="url(#clip890)" d="M 0 0 M2284.87 1452.37 Q2281.26 1452.37 2279.43 1455.94 Q2277.63 1459.48 2277.63 1466.61 Q2277.63 1473.71 2279.43 1477.28 Q2281.26 1480.82 2284.87 1480.82 Q2288.51 1480.82 2290.31 1477.28 Q2292.14 1473.71 2292.14 1466.61 Q2292.14 1459.48 2290.31 1455.94 Q2288.51 1452.37 2284.87 1452.37 M2284.87 1448.67 Q2290.68 1448.67 2293.74 1453.27 Q2296.82 1457.86 2296.82 1466.61 Q2296.82 1475.33 2293.74 1479.94 Q2290.68 1484.52 2284.87 1484.52 Q2279.06 1484.52 2275.98 1479.94 Q2272.93 1475.33 2272.93 1466.61 Q2272.93 1457.86 2275.98 1453.27 Q2279.06 1448.67 2284.87 1448.67 Z" fill="#000000" fill-rule="evenodd" fill-opacity="1" /><path clip-path="url(#clip890)" d="M 0 0 M2305.03 1477.97 L2309.92 1477.97 L2309.92 1483.85 L2305.03 1483.85 L2305.03 1477.97 Z" fill="#000000" fill-rule="evenodd" fill-opacity="1" /><path clip-path="url(#clip890)" d="M 0 0 M2330.1 1452.37 Q2326.49 1452.37 2324.66 1455.94 Q2322.86 1459.48 2322.86 1466.61 Q2322.86 1473.71 2324.66 1477.28 Q2326.49 1480.82 2330.1 1480.82 Q2333.74 1480.82 2335.54 1477.28 Q2337.37 1473.71 2337.37 1466.61 Q2337.37 1459.48 2335.54 1455.94 Q2333.74 1452.37 2330.1 1452.37 M2330.1 1448.67 Q2335.91 1448.67 2338.97 1453.27 Q2342.05 1457.86 2342.05 1466.61 Q2342.05 1475.33 2338.97 1479.94 Q2335.91 1484.52 2330.1 1484.52 Q2324.29 1484.52 2321.21 1479.94 Q2318.16 1475.33 2318.16 1466.61 Q2318.16 1457.86 2321.21 1453.27 Q2324.29 1448.67 2330.1 1448.67 Z" fill="#000000" fill-rule="evenodd" fill-opacity="1" /><path clip-path="url(#clip890)" d="M 0 0 M1304.04 1522.27 L1304.04 1532.4 L1316.1 1532.4 L1316.1 1536.95 L1304.04 1536.95 L1304.04 1556.3 Q1304.04 1560.66 1305.22 1561.9 Q1306.43 1563.14 1310.09 1563.14 L1316.1 1563.14 L1316.1 1568.04 L1310.09 1568.04 Q1303.31 1568.04 1300.73 1565.53 Q1298.15 1562.98 1298.15 1556.3 L1298.15 1536.95 L1293.86 1536.95 L1293.86 1532.4 L1298.15 1532.4 L1298.15 1522.27 L1304.04 1522.27 Z" fill="#000000" fill-rule="evenodd" fill-opacity="1" /><polyline clip-path="url(#clip892)" style="stroke:#000000; stroke-width:2; stroke-opacity:0.1; fill:none" points="
  257.204,1384.26 2352.76,1384.26 
  "/>
<polyline clip-path="url(#clip892)" style="stroke:#000000; stroke-width:2; stroke-opacity:0.1; fill:none" points="
  257.204,1059.73 2352.76,1059.73 
  "/>
<polyline clip-path="url(#clip892)" style="stroke:#000000; stroke-width:2; stroke-opacity:0.1; fill:none" points="
  257.204,735.203 2352.76,735.203 
  "/>
<polyline clip-path="url(#clip892)" style="stroke:#000000; stroke-width:2; stroke-opacity:0.1; fill:none" points="
  257.204,410.673 2352.76,410.673 
  "/>
<polyline clip-path="url(#clip892)" style="stroke:#000000; stroke-width:2; stroke-opacity:0.1; fill:none" points="
  257.204,86.1423 2352.76,86.1423 
  "/>
<polyline clip-path="url(#clip890)" style="stroke:#000000; stroke-width:4; stroke-opacity:1; fill:none" points="
  257.204,1423.18 257.204,47.2441 
  "/>
<polyline clip-path="url(#clip890)" style="stroke:#000000; stroke-width:4; stroke-opacity:1; fill:none" points="
  257.204,1384.26 282.351,1384.26 
  "/>
<polyline clip-path="url(#clip890)" style="stroke:#000000; stroke-width:4; stroke-opacity:1; fill:none" points="
  257.204,1059.73 282.351,1059.73 
  "/>
<polyline clip-path="url(#clip890)" style="stroke:#000000; stroke-width:4; stroke-opacity:1; fill:none" points="
  257.204,735.203 282.351,735.203 
  "/>
<polyline clip-path="url(#clip890)" style="stroke:#000000; stroke-width:4; stroke-opacity:1; fill:none" points="
  257.204,410.673 282.351,410.673 
  "/>
<polyline clip-path="url(#clip890)" style="stroke:#000000; stroke-width:4; stroke-opacity:1; fill:none" points="
  257.204,86.1423 282.351,86.1423 
  "/>
<path clip-path="url(#clip890)" d="M 0 0 M114.26 1384.72 L143.936 1384.72 L143.936 1388.65 L114.26 1388.65 L114.26 1384.72 Z" fill="#000000" fill-rule="evenodd" fill-opacity="1" /><path clip-path="url(#clip890)" d="M 0 0 M154.839 1397.61 L162.477 1397.61 L162.477 1371.24 L154.167 1372.91 L154.167 1368.65 L162.431 1366.98 L167.107 1366.98 L167.107 1397.61 L174.746 1397.61 L174.746 1401.54 L154.839 1401.54 L154.839 1397.61 Z" fill="#000000" fill-rule="evenodd" fill-opacity="1" /><path clip-path="url(#clip890)" d="M 0 0 M184.19 1395.66 L189.075 1395.66 L189.075 1401.54 L184.19 1401.54 L184.19 1395.66 Z" fill="#000000" fill-rule="evenodd" fill-opacity="1" /><path clip-path="url(#clip890)" d="M 0 0 M209.26 1370.06 Q205.649 1370.06 203.82 1373.63 Q202.014 1377.17 202.014 1384.3 Q202.014 1391.41 203.82 1394.97 Q205.649 1398.51 209.26 1398.51 Q212.894 1398.51 214.699 1394.97 Q216.528 1391.41 216.528 1384.3 Q216.528 1377.17 214.699 1373.63 Q212.894 1370.06 209.26 1370.06 M209.26 1366.36 Q215.07 1366.36 218.125 1370.97 Q221.204 1375.55 221.204 1384.3 Q221.204 1393.03 218.125 1397.63 Q215.07 1402.22 209.26 1402.22 Q203.449 1402.22 200.371 1397.63 Q197.315 1393.03 197.315 1384.3 Q197.315 1375.55 200.371 1370.97 Q203.449 1366.36 209.26 1366.36 Z" fill="#000000" fill-rule="evenodd" fill-opacity="1" /><path clip-path="url(#clip890)" d="M 0 0 M115.256 1060.19 L144.931 1060.19 L144.931 1064.12 L115.256 1064.12 L115.256 1060.19 Z" fill="#000000" fill-rule="evenodd" fill-opacity="1" /><path clip-path="url(#clip890)" d="M 0 0 M165.024 1045.53 Q161.413 1045.53 159.584 1049.1 Q157.778 1052.64 157.778 1059.77 Q157.778 1066.88 159.584 1070.44 Q161.413 1073.98 165.024 1073.98 Q168.658 1073.98 170.464 1070.44 Q172.292 1066.88 172.292 1059.77 Q172.292 1052.64 170.464 1049.1 Q168.658 1045.53 165.024 1045.53 M165.024 1041.83 Q170.834 1041.83 173.889 1046.44 Q176.968 1051.02 176.968 1059.77 Q176.968 1068.5 173.889 1073.1 Q170.834 1077.69 165.024 1077.69 Q159.214 1077.69 156.135 1073.1 Q153.079 1068.5 153.079 1059.77 Q153.079 1051.02 156.135 1046.44 Q159.214 1041.83 165.024 1041.83 Z" fill="#000000" fill-rule="evenodd" fill-opacity="1" /><path clip-path="url(#clip890)" d="M 0 0 M185.186 1071.13 L190.07 1071.13 L190.07 1077.01 L185.186 1077.01 L185.186 1071.13 Z" fill="#000000" fill-rule="evenodd" fill-opacity="1" /><path clip-path="url(#clip890)" d="M 0 0 M200.301 1042.45 L218.658 1042.45 L218.658 1046.39 L204.584 1046.39 L204.584 1054.86 Q205.602 1054.51 206.621 1054.35 Q207.639 1054.17 208.658 1054.17 Q214.445 1054.17 217.824 1057.34 Q221.204 1060.51 221.204 1065.93 Q221.204 1071.5 217.732 1074.61 Q214.26 1077.69 207.94 1077.69 Q205.764 1077.69 203.496 1077.31 Q201.25 1076.94 198.843 1076.2 L198.843 1071.5 Q200.926 1072.64 203.149 1073.19 Q205.371 1073.75 207.848 1073.75 Q211.852 1073.75 214.19 1071.64 Q216.528 1069.54 216.528 1065.93 Q216.528 1062.31 214.19 1060.21 Q211.852 1058.1 207.848 1058.1 Q205.973 1058.1 204.098 1058.52 Q202.246 1058.94 200.301 1059.81 L200.301 1042.45 Z" fill="#000000" fill-rule="evenodd" fill-opacity="1" /><path clip-path="url(#clip890)" d="M 0 0 M164.028 721.002 Q160.417 721.002 158.589 724.567 Q156.783 728.108 156.783 735.238 Q156.783 742.345 158.589 745.909 Q160.417 749.451 164.028 749.451 Q167.663 749.451 169.468 745.909 Q171.297 742.345 171.297 735.238 Q171.297 728.108 169.468 724.567 Q167.663 721.002 164.028 721.002 M164.028 717.298 Q169.839 717.298 172.894 721.905 Q175.973 726.488 175.973 735.238 Q175.973 743.965 172.894 748.571 Q169.839 753.155 164.028 753.155 Q158.218 753.155 155.14 748.571 Q152.084 743.965 152.084 735.238 Q152.084 726.488 155.14 721.905 Q158.218 717.298 164.028 717.298 Z" fill="#000000" fill-rule="evenodd" fill-opacity="1" /><path clip-path="url(#clip890)" d="M 0 0 M184.19 746.604 L189.075 746.604 L189.075 752.483 L184.19 752.483 L184.19 746.604 Z" fill="#000000" fill-rule="evenodd" fill-opacity="1" /><path clip-path="url(#clip890)" d="M 0 0 M209.26 721.002 Q205.649 721.002 203.82 724.567 Q202.014 728.108 202.014 735.238 Q202.014 742.345 203.82 745.909 Q205.649 749.451 209.26 749.451 Q212.894 749.451 214.699 745.909 Q216.528 742.345 216.528 735.238 Q216.528 728.108 214.699 724.567 Q212.894 721.002 209.26 721.002 M209.26 717.298 Q215.07 717.298 218.125 721.905 Q221.204 726.488 221.204 735.238 Q221.204 743.965 218.125 748.571 Q215.07 753.155 209.26 753.155 Q203.449 753.155 200.371 748.571 Q197.315 743.965 197.315 735.238 Q197.315 726.488 200.371 721.905 Q203.449 717.298 209.26 717.298 Z" fill="#000000" fill-rule="evenodd" fill-opacity="1" /><path clip-path="url(#clip890)" d="M 0 0 M165.024 396.472 Q161.413 396.472 159.584 400.036 Q157.778 403.578 157.778 410.708 Q157.778 417.814 159.584 421.379 Q161.413 424.92 165.024 424.92 Q168.658 424.92 170.464 421.379 Q172.292 417.814 172.292 410.708 Q172.292 403.578 170.464 400.036 Q168.658 396.472 165.024 396.472 M165.024 392.768 Q170.834 392.768 173.889 397.374 Q176.968 401.958 176.968 410.708 Q176.968 419.434 173.889 424.041 Q170.834 428.624 165.024 428.624 Q159.214 428.624 156.135 424.041 Q153.079 419.434 153.079 410.708 Q153.079 401.958 156.135 397.374 Q159.214 392.768 165.024 392.768 Z" fill="#000000" fill-rule="evenodd" fill-opacity="1" /><path clip-path="url(#clip890)" d="M 0 0 M185.186 422.073 L190.07 422.073 L190.07 427.953 L185.186 427.953 L185.186 422.073 Z" fill="#000000" fill-rule="evenodd" fill-opacity="1" /><path clip-path="url(#clip890)" d="M 0 0 M200.301 393.393 L218.658 393.393 L218.658 397.328 L204.584 397.328 L204.584 405.8 Q205.602 405.453 206.621 405.291 Q207.639 405.106 208.658 405.106 Q214.445 405.106 217.824 408.277 Q221.204 411.448 221.204 416.865 Q221.204 422.444 217.732 425.545 Q214.26 428.624 207.94 428.624 Q205.764 428.624 203.496 428.254 Q201.25 427.883 198.843 427.143 L198.843 422.444 Q200.926 423.578 203.149 424.133 Q205.371 424.689 207.848 424.689 Q211.852 424.689 214.19 422.583 Q216.528 420.476 216.528 416.865 Q216.528 413.254 214.19 411.147 Q211.852 409.041 207.848 409.041 Q205.973 409.041 204.098 409.458 Q202.246 409.874 200.301 410.754 L200.301 393.393 Z" fill="#000000" fill-rule="evenodd" fill-opacity="1" /><path clip-path="url(#clip890)" d="M 0 0 M154.839 99.4872 L162.477 99.4872 L162.477 73.1216 L154.167 74.7882 L154.167 70.529 L162.431 68.8623 L167.107 68.8623 L167.107 99.4872 L174.746 99.4872 L174.746 103.422 L154.839 103.422 L154.839 99.4872 Z" fill="#000000" fill-rule="evenodd" fill-opacity="1" /><path clip-path="url(#clip890)" d="M 0 0 M184.19 97.5427 L189.075 97.5427 L189.075 103.422 L184.19 103.422 L184.19 97.5427 Z" fill="#000000" fill-rule="evenodd" fill-opacity="1" /><path clip-path="url(#clip890)" d="M 0 0 M209.26 71.941 Q205.649 71.941 203.82 75.5058 Q202.014 79.0475 202.014 86.1771 Q202.014 93.2835 203.82 96.8483 Q205.649 100.39 209.26 100.39 Q212.894 100.39 214.699 96.8483 Q216.528 93.2835 216.528 86.1771 Q216.528 79.0475 214.699 75.5058 Q212.894 71.941 209.26 71.941 M209.26 68.2373 Q215.07 68.2373 218.125 72.8438 Q221.204 77.4271 221.204 86.1771 Q221.204 94.9039 218.125 99.5103 Q215.07 104.094 209.26 104.094 Q203.449 104.094 200.371 99.5103 Q197.315 94.9039 197.315 86.1771 Q197.315 77.4271 200.371 72.8438 Q203.449 68.2373 209.26 68.2373 Z" fill="#000000" fill-rule="evenodd" fill-opacity="1" /><path clip-path="url(#clip890)" d="M 0 0 M14.479 758.654 L19.3487 758.654 L19.3487 764.256 Q19.3487 767.407 20.6219 768.648 Q21.895 769.857 25.2052 769.857 L28.3562 769.857 L28.3562 760.213 L32.9077 760.213 L32.9077 769.857 L64.0042 769.857 L64.0042 775.746 L32.9077 775.746 L32.9077 781.347 L28.3562 781.347 L28.3562 775.746 L25.8736 775.746 Q19.9216 775.746 17.2162 772.977 Q14.479 770.207 14.479 764.192 L14.479 758.654 Z" fill="#000000" fill-rule="evenodd" fill-opacity="1" /><path clip-path="url(#clip890)" d="M 0 0 M14.5426 739.684 Q21.8632 743.949 29.0246 746.018 Q36.186 748.087 43.5384 748.087 Q50.8908 748.087 58.1159 746.018 Q65.3091 743.917 72.5979 739.684 L72.5979 744.776 Q65.1182 749.551 57.8931 751.938 Q50.668 754.293 43.5384 754.293 Q36.4406 754.293 29.2474 751.938 Q22.0542 749.583 14.5426 744.776 L14.5426 739.684 Z" fill="#000000" fill-rule="evenodd" fill-opacity="1" /><path clip-path="url(#clip890)" d="M 0 0 M18.2347 722.528 L28.3562 722.528 L28.3562 710.465 L32.9077 710.465 L32.9077 722.528 L52.2594 722.528 Q56.6199 722.528 57.8613 721.351 Q59.1026 720.141 59.1026 716.481 L59.1026 710.465 L64.0042 710.465 L64.0042 716.481 Q64.0042 723.26 61.4897 725.838 Q58.9434 728.417 52.2594 728.417 L32.9077 728.417 L32.9077 732.713 L28.3562 732.713 L28.3562 728.417 L18.2347 728.417 L18.2347 722.528 Z" fill="#000000" fill-rule="evenodd" fill-opacity="1" /><path clip-path="url(#clip890)" d="M 0 0 M14.5426 703.686 L14.5426 698.593 Q22.0542 693.819 29.2474 691.464 Q36.4406 689.077 43.5384 689.077 Q50.668 689.077 57.8931 691.464 Q65.1182 693.819 72.5979 698.593 L72.5979 703.686 Q65.3091 699.453 58.1159 697.384 Q50.8908 695.283 43.5384 695.283 Q36.186 695.283 29.0246 697.384 Q21.8632 699.453 14.5426 703.686 Z" fill="#000000" fill-rule="evenodd" fill-opacity="1" /><polyline clip-path="url(#clip892)" style="stroke:#009af9; stroke-width:8; stroke-opacity:1; fill:none" points="
  316.512,735.203 321.339,735.203 326.165,735.203 330.992,735.203 335.818,735.203 380.447,735.203 425.076,735.203 447.391,735.203 469.705,735.203 475.284,735.203 
  480.862,735.203 486.441,735.203 492.02,735.203 494.809,735.203 497.598,720.419 500.387,690.234 503.177,660.145 508.755,600.521 514.334,542.065 521.039,474.063 
  527.744,409.33 534.449,348.674 541.154,292.856 547.859,242.573 554.564,198.454 561.269,161.052 567.974,130.836 574.679,108.182 581.384,93.3743 588.089,86.5985 
  594.794,87.9393 601.499,97.3799 608.204,114.802 614.909,139.988 621.614,172.622 632.952,243.566 644.29,332.068 655.628,434.967 666.966,548.588 689.643,791.528 
  712.319,1026.49 718.477,1084.47 724.635,1138.77 730.793,1188.8 736.951,1234.05 743.109,1274.02 749.267,1308.31 755.426,1336.55 761.584,1358.44 767.742,1373.75 
  773.9,1382.32 780.058,1384.06 786.216,1378.94 792.374,1367.03 798.533,1348.45 804.691,1323.4 810.849,1292.13 822.203,1219.36 833.558,1129.25 844.912,1025.02 
  856.267,910.41 878.976,666.699 901.685,432.714 907.772,376.028 913.858,323.047 919.945,274.317 926.031,230.34 932.118,191.571 938.205,158.408 944.291,131.194 
  950.378,110.211 956.464,95.6726 962.551,87.7308 968.638,86.4669 974.724,91.894 980.811,103.956 986.898,122.529 992.984,147.42 999.071,178.375 1006.12,221.395 
  1013.17,271.527 1020.23,328.077 1027.28,390.262 1041.38,528.027 1055.49,677.222 1069.59,829.617 1083.69,976.802 1090.75,1045.88 1097.8,1110.66 1104.85,1170.24 
  1111.9,1223.8 1118.17,1265.74 1124.44,1301.89 1130.7,1331.83 1136.97,1355.26 1143.24,1371.9 1149.5,1381.59 1155.77,1384.2 1162.04,1379.72 1168.3,1368.2 
  1174.57,1349.75 1180.84,1324.58 1187.11,1292.97 1193.37,1255.26 1199.64,1211.87 1205.91,1163.26 1212.17,1109.98 1223.16,1007.01 1234.16,894.912 1245.15,777.457 
  1256.14,658.584 1267.13,542.283 1278.12,432.457 1289.11,332.793 1300.1,246.637 1306.09,206.413 1312.08,171.475 1318.08,142.171 1324.07,118.794 1330.06,101.578 
  1336.05,90.6949 1342.04,86.2534 1348.03,88.2978 1354.03,96.8079 1360.02,111.699 1366.01,132.821 1372,159.964 1377.99,192.856 1383.98,231.169 1389.98,274.52 
  1395.97,322.474 1408.02,430.92 1420.08,551.645 1432.13,679.776 1444.19,810.145 1456.24,937.489 1468.29,1056.67 1480.35,1162.88 1492.4,1251.83 1499.07,1292.25 
  1505.73,1325.79 1512.39,1352.03 1519.06,1370.64 1525.72,1381.4 1532.39,1384.17 1539.05,1378.92 1545.71,1365.71 1552.38,1344.71 1559.04,1316.17 1565.71,1280.45 
  1572.37,1238 1579.03,1189.33 1585.7,1135.04 1592.36,1075.81 1599.02,1012.38 1624.39,746.794 1649.75,479.165 1656.09,417.59 1662.43,359.57 1668.77,305.754 
  1675.11,256.744 1681.45,213.088 1687.79,175.276 1694.13,143.731 1700.47,118.804 1707.07,100.205 1713.66,89.288 1720.25,86.1857 1726.84,90.9353 1733.44,103.48 
  1740.03,123.666 1746.62,151.252 1753.21,185.902 1759.81,227.198 1766.4,274.64 1772.99,327.654 1779.58,385.599 1792.77,513.425 1805.96,651.951 1817.05,771.955 
  1828.15,890.701 1839.25,1004.13 1850.35,1108.34 1855.9,1155.87 1861.45,1199.79 1867,1239.73 1872.55,1275.34 1878.1,1306.31 1883.65,1332.39 1889.2,1353.35 
  1894.75,1369.01 1901.52,1380.75 1908.3,1384.24 1915.08,1379.43 1921.85,1366.4 1928.63,1345.3 1935.4,1316.4 1942.18,1280.08 1948.95,1236.79 1955.73,1187.1 
  1962.5,1131.63 1969.28,1071.1 1976.05,1006.27 1989.6,867.101 2003.16,721.211 2015.89,584.584 2028.63,454.741 2041.37,337.531 2054.11,238.233 2060.48,196.736 
  2066.85,161.32 2073.22,132.385 2079.59,110.256 2085.95,95.1854 2092.32,87.3419 2098.69,86.8144 2105.06,93.6088 2115.27,119.533 2125.47,163.275 2135.67,223.57 
  2145.88,298.672 2156.08,386.407 2166.28,484.238 2176.49,589.331 2186.69,698.646 2207.1,917.257 2227.51,1114.94 2232.61,1158.34 2237.71,1198.67 2242.81,1235.64 
  2247.92,1268.99 2258.12,1323.86 2268.32,1361.69 2274.6,1376.01 2280.89,1383.29 2287.17,1383.45 2293.45,1376.5 
  "/>
</svg>
