<?xml version="1.0" encoding="utf-8" standalone="no"?>
<!DOCTYPE svg PUBLIC "-//W3C//DTD SVG 1.1//EN"
  "http://www.w3.org/Graphics/SVG/1.1/DTD/svg11.dtd">
<!-- Created with matplotlib (https://matplotlib.org/) -->
<svg height="66.42pt" version="1.1" viewBox="0 0 215.413188 66.42" width="215.413188pt" xmlns="http://www.w3.org/2000/svg" xmlns:xlink="http://www.w3.org/1999/xlink">
 <metadata>
  <rdf:RDF xmlns:cc="http://creativecommons.org/ns#" xmlns:dc="http://purl.org/dc/elements/1.1/" xmlns:rdf="http://www.w3.org/1999/02/22-rdf-syntax-ns#">
   <cc:Work>
    <dc:type rdf:resource="http://purl.org/dc/dcmitype/StillImage"/>
    <dc:date>2021-02-16T17:24:03.486720</dc:date>
    <dc:format>image/svg+xml</dc:format>
    <dc:creator>
     <cc:Agent>
      <dc:title>Matplotlib v3.3.4, https://matplotlib.org/</dc:title>
     </cc:Agent>
    </dc:creator>
   </cc:Work>
  </rdf:RDF>
 </metadata>
 <defs>
  <style type="text/css">*{stroke-linecap:butt;stroke-linejoin:round;}</style>
 </defs>
 <g id="figure_1">
  <g id="patch_1">
   <path d="M 0 66.42 
L 215.413188 66.42 
L 215.413188 0 
L 0 0 
z
" style="fill:none;"/>
  </g>
  <g id="axes_1">
   <g id="patch_2">
    <path clip-path="url(#p2a5aa5dee5)" d="M 80.152187 33.21 
L 74.032188 35.505 
L 74.032188 33.2253 
L 70.972188 33.2253 
L 70.972188 33.1947 
L 74.032188 33.1947 
L 74.032188 30.915 
z
" style="stroke:#000000;stroke-linejoin:miter;stroke-width:2;"/>
   </g>
   <g id="patch_3">
    <path clip-path="url(#p2a5aa5dee5)" d="M 171.952187 33.21 
L 165.832187 35.505 
L 165.832187 33.2253 
L 162.772188 33.2253 
L 162.772188 33.1947 
L 165.832187 33.1947 
L 165.832187 30.915 
z
" style="stroke:#000000;stroke-linejoin:miter;stroke-width:2;"/>
   </g>
   <g id="line2d_1">
    <path clip-path="url(#p2a5aa5dee5)" d="M 49.552188 33.21 
L 64.852187 33.21 
L 80.152187 33.21 
" style="fill:none;stroke:#000000;stroke-linecap:round;stroke-width:2;"/>
   </g>
   <g id="line2d_2">
    <path clip-path="url(#p2a5aa5dee5)" d="M 110.752187 10.26 
L 141.352188 10.26 
L 141.352188 56.16 
L 80.152187 56.16 
L 80.152187 10.26 
L 110.752187 10.26 
" style="fill:none;stroke:#000000;stroke-linecap:round;stroke-width:2;"/>
   </g>
   <g id="line2d_3">
    <path clip-path="url(#p2a5aa5dee5)" d="M 141.352188 33.21 
L 156.652187 33.21 
L 171.952187 33.21 
" style="fill:none;stroke:#000000;stroke-linecap:round;stroke-width:2;"/>
   </g>
   <g id="text_1">
    <!-- Entrada -->
    <g transform="translate(7.2 24.771563)scale(0.1 -0.1)">
     <defs>
      <path d="M 9.8125 72.90625 
L 55.90625 72.90625 
L 55.90625 64.59375 
L 19.671875 64.59375 
L 19.671875 43.015625 
L 54.390625 43.015625 
L 54.390625 34.71875 
L 19.671875 34.71875 
L 19.671875 8.296875 
L 56.78125 8.296875 
L 56.78125 0 
L 9.8125 0 
z
" id="DejaVuSans-69"/>
      <path d="M 54.890625 33.015625 
L 54.890625 0 
L 45.90625 0 
L 45.90625 32.71875 
Q 45.90625 40.484375 42.875 44.328125 
Q 39.84375 48.1875 33.796875 48.1875 
Q 26.515625 48.1875 22.3125 43.546875 
Q 18.109375 38.921875 18.109375 30.90625 
L 18.109375 0 
L 9.078125 0 
L 9.078125 54.6875 
L 18.109375 54.6875 
L 18.109375 46.1875 
Q 21.34375 51.125 25.703125 53.5625 
Q 30.078125 56 35.796875 56 
Q 45.21875 56 50.046875 50.171875 
Q 54.890625 44.34375 54.890625 33.015625 
z
" id="DejaVuSans-110"/>
      <path d="M 18.3125 70.21875 
L 18.3125 54.6875 
L 36.8125 54.6875 
L 36.8125 47.703125 
L 18.3125 47.703125 
L 18.3125 18.015625 
Q 18.3125 11.328125 20.140625 9.421875 
Q 21.96875 7.515625 27.59375 7.515625 
L 36.8125 7.515625 
L 36.8125 0 
L 27.59375 0 
Q 17.1875 0 13.234375 3.875 
Q 9.28125 7.765625 9.28125 18.015625 
L 9.28125 47.703125 
L 2.6875 47.703125 
L 2.6875 54.6875 
L 9.28125 54.6875 
L 9.28125 70.21875 
z
" id="DejaVuSans-116"/>
      <path d="M 41.109375 46.296875 
Q 39.59375 47.171875 37.8125 47.578125 
Q 36.03125 48 33.890625 48 
Q 26.265625 48 22.1875 43.046875 
Q 18.109375 38.09375 18.109375 28.8125 
L 18.109375 0 
L 9.078125 0 
L 9.078125 54.6875 
L 18.109375 54.6875 
L 18.109375 46.1875 
Q 20.953125 51.171875 25.484375 53.578125 
Q 30.03125 56 36.53125 56 
Q 37.453125 56 38.578125 55.875 
Q 39.703125 55.765625 41.0625 55.515625 
z
" id="DejaVuSans-114"/>
      <path d="M 34.28125 27.484375 
Q 23.390625 27.484375 19.1875 25 
Q 14.984375 22.515625 14.984375 16.5 
Q 14.984375 11.71875 18.140625 8.90625 
Q 21.296875 6.109375 26.703125 6.109375 
Q 34.1875 6.109375 38.703125 11.40625 
Q 43.21875 16.703125 43.21875 25.484375 
L 43.21875 27.484375 
z
M 52.203125 31.203125 
L 52.203125 0 
L 43.21875 0 
L 43.21875 8.296875 
Q 40.140625 3.328125 35.546875 0.953125 
Q 30.953125 -1.421875 24.3125 -1.421875 
Q 15.921875 -1.421875 10.953125 3.296875 
Q 6 8.015625 6 15.921875 
Q 6 25.140625 12.171875 29.828125 
Q 18.359375 34.515625 30.609375 34.515625 
L 43.21875 34.515625 
L 43.21875 35.40625 
Q 43.21875 41.609375 39.140625 45 
Q 35.0625 48.390625 27.6875 48.390625 
Q 23 48.390625 18.546875 47.265625 
Q 14.109375 46.140625 10.015625 43.890625 
L 10.015625 52.203125 
Q 14.9375 54.109375 19.578125 55.046875 
Q 24.21875 56 28.609375 56 
Q 40.484375 56 46.34375 49.84375 
Q 52.203125 43.703125 52.203125 31.203125 
z
" id="DejaVuSans-97"/>
      <path d="M 45.40625 46.390625 
L 45.40625 75.984375 
L 54.390625 75.984375 
L 54.390625 0 
L 45.40625 0 
L 45.40625 8.203125 
Q 42.578125 3.328125 38.25 0.953125 
Q 33.9375 -1.421875 27.875 -1.421875 
Q 17.96875 -1.421875 11.734375 6.484375 
Q 5.515625 14.40625 5.515625 27.296875 
Q 5.515625 40.1875 11.734375 48.09375 
Q 17.96875 56 27.875 56 
Q 33.9375 56 38.25 53.625 
Q 42.578125 51.265625 45.40625 46.390625 
z
M 14.796875 27.296875 
Q 14.796875 17.390625 18.875 11.75 
Q 22.953125 6.109375 30.078125 6.109375 
Q 37.203125 6.109375 41.296875 11.75 
Q 45.40625 17.390625 45.40625 27.296875 
Q 45.40625 37.203125 41.296875 42.84375 
Q 37.203125 48.484375 30.078125 48.484375 
Q 22.953125 48.484375 18.875 42.84375 
Q 14.796875 37.203125 14.796875 27.296875 
z
" id="DejaVuSans-100"/>
     </defs>
     <use xlink:href="#DejaVuSans-69"/>
     <use x="63.183594" xlink:href="#DejaVuSans-110"/>
     <use x="126.5625" xlink:href="#DejaVuSans-116"/>
     <use x="165.771484" xlink:href="#DejaVuSans-114"/>
     <use x="206.884766" xlink:href="#DejaVuSans-97"/>
     <use x="268.164062" xlink:href="#DejaVuSans-100"/>
     <use x="331.640625" xlink:href="#DejaVuSans-97"/>
    </g>
    <!--  -->
    <g transform="translate(46.492188 35.969375)scale(0.1 -0.1)"/>
    <!-- $f(t)$ -->
    <g transform="translate(31.192187 47.167188)scale(0.1 -0.1)">
     <defs>
      <path d="M 47.796875 75.984375 
L 46.390625 68.5 
L 37.796875 68.5 
Q 32.90625 68.5 30.6875 66.578125 
Q 28.46875 64.65625 27.390625 59.515625 
L 26.421875 54.6875 
L 41.21875 54.6875 
L 39.890625 47.703125 
L 25.09375 47.703125 
L 15.828125 0 
L 6.78125 0 
L 16.109375 47.703125 
L 7.515625 47.703125 
L 8.796875 54.6875 
L 17.390625 54.6875 
L 18.109375 58.5 
Q 19.96875 68.171875 24.625 72.078125 
Q 29.296875 75.984375 39.3125 75.984375 
z
" id="DejaVuSans-Oblique-102"/>
      <path d="M 31 75.875 
Q 24.46875 64.65625 21.28125 53.65625 
Q 18.109375 42.671875 18.109375 31.390625 
Q 18.109375 20.125 21.3125 9.0625 
Q 24.515625 -2 31 -13.1875 
L 23.1875 -13.1875 
Q 15.875 -1.703125 12.234375 9.375 
Q 8.59375 20.453125 8.59375 31.390625 
Q 8.59375 42.28125 12.203125 53.3125 
Q 15.828125 64.359375 23.1875 75.875 
z
" id="DejaVuSans-40"/>
      <path d="M 42.28125 54.6875 
L 40.921875 47.703125 
L 23 47.703125 
L 17.1875 18.015625 
Q 16.890625 16.359375 16.75 15.234375 
Q 16.609375 14.109375 16.609375 13.484375 
Q 16.609375 10.359375 18.484375 8.9375 
Q 20.359375 7.515625 24.515625 7.515625 
L 33.59375 7.515625 
L 32.078125 0 
L 23.484375 0 
Q 15.484375 0 11.546875 3.125 
Q 7.625 6.25 7.625 12.59375 
Q 7.625 13.71875 7.765625 15.0625 
Q 7.90625 16.40625 8.203125 18.015625 
L 14.015625 47.703125 
L 6.390625 47.703125 
L 7.8125 54.6875 
L 15.28125 54.6875 
L 18.3125 70.21875 
L 27.296875 70.21875 
L 24.3125 54.6875 
z
" id="DejaVuSans-Oblique-116"/>
      <path d="M 8.015625 75.875 
L 15.828125 75.875 
Q 23.140625 64.359375 26.78125 53.3125 
Q 30.421875 42.28125 30.421875 31.390625 
Q 30.421875 20.453125 26.78125 9.375 
Q 23.140625 -1.703125 15.828125 -13.1875 
L 8.015625 -13.1875 
Q 14.5 -2 17.703125 9.0625 
Q 20.90625 20.125 20.90625 31.390625 
Q 20.90625 42.671875 17.703125 53.65625 
Q 14.5 64.65625 8.015625 75.875 
z
" id="DejaVuSans-41"/>
     </defs>
     <use transform="translate(0 0.015625)" xlink:href="#DejaVuSans-Oblique-102"/>
     <use transform="translate(35.205078 0.015625)" xlink:href="#DejaVuSans-40"/>
     <use transform="translate(74.21875 0.015625)" xlink:href="#DejaVuSans-Oblique-116"/>
     <use transform="translate(113.427734 0.015625)" xlink:href="#DejaVuSans-41"/>
    </g>
   </g>
   <g id="text_2">
    <!-- Proceso -->
    <g transform="translate(91.332656 35.969375)scale(0.1 -0.1)">
     <defs>
      <path d="M 19.671875 64.796875 
L 19.671875 37.40625 
L 32.078125 37.40625 
Q 38.96875 37.40625 42.71875 40.96875 
Q 46.484375 44.53125 46.484375 51.125 
Q 46.484375 57.671875 42.71875 61.234375 
Q 38.96875 64.796875 32.078125 64.796875 
z
M 9.8125 72.90625 
L 32.078125 72.90625 
Q 44.34375 72.90625 50.609375 67.359375 
Q 56.890625 61.8125 56.890625 51.125 
Q 56.890625 40.328125 50.609375 34.8125 
Q 44.34375 29.296875 32.078125 29.296875 
L 19.671875 29.296875 
L 19.671875 0 
L 9.8125 0 
z
" id="DejaVuSans-80"/>
      <path d="M 30.609375 48.390625 
Q 23.390625 48.390625 19.1875 42.75 
Q 14.984375 37.109375 14.984375 27.296875 
Q 14.984375 17.484375 19.15625 11.84375 
Q 23.34375 6.203125 30.609375 6.203125 
Q 37.796875 6.203125 41.984375 11.859375 
Q 46.1875 17.53125 46.1875 27.296875 
Q 46.1875 37.015625 41.984375 42.703125 
Q 37.796875 48.390625 30.609375 48.390625 
z
M 30.609375 56 
Q 42.328125 56 49.015625 48.375 
Q 55.71875 40.765625 55.71875 27.296875 
Q 55.71875 13.875 49.015625 6.21875 
Q 42.328125 -1.421875 30.609375 -1.421875 
Q 18.84375 -1.421875 12.171875 6.21875 
Q 5.515625 13.875 5.515625 27.296875 
Q 5.515625 40.765625 12.171875 48.375 
Q 18.84375 56 30.609375 56 
z
" id="DejaVuSans-111"/>
      <path d="M 48.78125 52.59375 
L 48.78125 44.1875 
Q 44.96875 46.296875 41.140625 47.34375 
Q 37.3125 48.390625 33.40625 48.390625 
Q 24.65625 48.390625 19.8125 42.84375 
Q 14.984375 37.3125 14.984375 27.296875 
Q 14.984375 17.28125 19.8125 11.734375 
Q 24.65625 6.203125 33.40625 6.203125 
Q 37.3125 6.203125 41.140625 7.25 
Q 44.96875 8.296875 48.78125 10.40625 
L 48.78125 2.09375 
Q 45.015625 0.34375 40.984375 -0.53125 
Q 36.96875 -1.421875 32.421875 -1.421875 
Q 20.0625 -1.421875 12.78125 6.34375 
Q 5.515625 14.109375 5.515625 27.296875 
Q 5.515625 40.671875 12.859375 48.328125 
Q 20.21875 56 33.015625 56 
Q 37.15625 56 41.109375 55.140625 
Q 45.0625 54.296875 48.78125 52.59375 
z
" id="DejaVuSans-99"/>
      <path d="M 56.203125 29.59375 
L 56.203125 25.203125 
L 14.890625 25.203125 
Q 15.484375 15.921875 20.484375 11.0625 
Q 25.484375 6.203125 34.421875 6.203125 
Q 39.59375 6.203125 44.453125 7.46875 
Q 49.3125 8.734375 54.109375 11.28125 
L 54.109375 2.78125 
Q 49.265625 0.734375 44.1875 -0.34375 
Q 39.109375 -1.421875 33.890625 -1.421875 
Q 20.796875 -1.421875 13.15625 6.1875 
Q 5.515625 13.8125 5.515625 26.8125 
Q 5.515625 40.234375 12.765625 48.109375 
Q 20.015625 56 32.328125 56 
Q 43.359375 56 49.78125 48.890625 
Q 56.203125 41.796875 56.203125 29.59375 
z
M 47.21875 32.234375 
Q 47.125 39.59375 43.09375 43.984375 
Q 39.0625 48.390625 32.421875 48.390625 
Q 24.90625 48.390625 20.390625 44.140625 
Q 15.875 39.890625 15.1875 32.171875 
z
" id="DejaVuSans-101"/>
      <path d="M 44.28125 53.078125 
L 44.28125 44.578125 
Q 40.484375 46.53125 36.375 47.5 
Q 32.28125 48.484375 27.875 48.484375 
Q 21.1875 48.484375 17.84375 46.4375 
Q 14.5 44.390625 14.5 40.28125 
Q 14.5 37.15625 16.890625 35.375 
Q 19.28125 33.59375 26.515625 31.984375 
L 29.59375 31.296875 
Q 39.15625 29.25 43.1875 25.515625 
Q 47.21875 21.78125 47.21875 15.09375 
Q 47.21875 7.46875 41.1875 3.015625 
Q 35.15625 -1.421875 24.609375 -1.421875 
Q 20.21875 -1.421875 15.453125 -0.5625 
Q 10.6875 0.296875 5.421875 2 
L 5.421875 11.28125 
Q 10.40625 8.6875 15.234375 7.390625 
Q 20.0625 6.109375 24.8125 6.109375 
Q 31.15625 6.109375 34.5625 8.28125 
Q 37.984375 10.453125 37.984375 14.40625 
Q 37.984375 18.0625 35.515625 20.015625 
Q 33.0625 21.96875 24.703125 23.78125 
L 21.578125 24.515625 
Q 13.234375 26.265625 9.515625 29.90625 
Q 5.8125 33.546875 5.8125 39.890625 
Q 5.8125 47.609375 11.28125 51.796875 
Q 16.75 56 26.8125 56 
Q 31.78125 56 36.171875 55.265625 
Q 40.578125 54.546875 44.28125 53.078125 
z
" id="DejaVuSans-115"/>
     </defs>
     <use xlink:href="#DejaVuSans-80"/>
     <use x="58.552734" xlink:href="#DejaVuSans-114"/>
     <use x="97.416016" xlink:href="#DejaVuSans-111"/>
     <use x="158.597656" xlink:href="#DejaVuSans-99"/>
     <use x="213.578125" xlink:href="#DejaVuSans-101"/>
     <use x="275.101562" xlink:href="#DejaVuSans-115"/>
     <use x="327.201172" xlink:href="#DejaVuSans-111"/>
    </g>
   </g>
   <g id="text_3">
    <!-- Salida -->
    <g transform="translate(175.012187 24.760469)scale(0.1 -0.1)">
     <defs>
      <path d="M 53.515625 70.515625 
L 53.515625 60.890625 
Q 47.90625 63.578125 42.921875 64.890625 
Q 37.9375 66.21875 33.296875 66.21875 
Q 25.25 66.21875 20.875 63.09375 
Q 16.5 59.96875 16.5 54.203125 
Q 16.5 49.359375 19.40625 46.890625 
Q 22.3125 44.4375 30.421875 42.921875 
L 36.375 41.703125 
Q 47.40625 39.59375 52.65625 34.296875 
Q 57.90625 29 57.90625 20.125 
Q 57.90625 9.515625 50.796875 4.046875 
Q 43.703125 -1.421875 29.984375 -1.421875 
Q 24.8125 -1.421875 18.96875 -0.25 
Q 13.140625 0.921875 6.890625 3.21875 
L 6.890625 13.375 
Q 12.890625 10.015625 18.65625 8.296875 
Q 24.421875 6.59375 29.984375 6.59375 
Q 38.421875 6.59375 43.015625 9.90625 
Q 47.609375 13.234375 47.609375 19.390625 
Q 47.609375 24.75 44.3125 27.78125 
Q 41.015625 30.8125 33.5 32.328125 
L 27.484375 33.5 
Q 16.453125 35.6875 11.515625 40.375 
Q 6.59375 45.0625 6.59375 53.421875 
Q 6.59375 63.09375 13.40625 68.65625 
Q 20.21875 74.21875 32.171875 74.21875 
Q 37.3125 74.21875 42.625 73.28125 
Q 47.953125 72.359375 53.515625 70.515625 
z
" id="DejaVuSans-83"/>
      <path d="M 9.421875 75.984375 
L 18.40625 75.984375 
L 18.40625 0 
L 9.421875 0 
z
" id="DejaVuSans-108"/>
      <path d="M 9.421875 54.6875 
L 18.40625 54.6875 
L 18.40625 0 
L 9.421875 0 
z
M 9.421875 75.984375 
L 18.40625 75.984375 
L 18.40625 64.59375 
L 9.421875 64.59375 
z
" id="DejaVuSans-105"/>
     </defs>
     <use xlink:href="#DejaVuSans-83"/>
     <use x="63.476562" xlink:href="#DejaVuSans-97"/>
     <use x="124.755859" xlink:href="#DejaVuSans-108"/>
     <use x="152.539062" xlink:href="#DejaVuSans-105"/>
     <use x="180.322266" xlink:href="#DejaVuSans-100"/>
     <use x="243.798828" xlink:href="#DejaVuSans-97"/>
    </g>
    <!--  -->
    <g transform="translate(175.012187 35.958281)scale(0.1 -0.1)"/>
    <!-- $y(t)$ -->
    <g transform="translate(175.012187 47.157969)scale(0.1 -0.1)">
     <defs>
      <path d="M 24.8125 -5.078125 
Q 18.5625 -15.578125 14.625 -18.1875 
Q 10.6875 -20.796875 4.59375 -20.796875 
L -2.484375 -20.796875 
L -0.984375 -13.28125 
L 4.203125 -13.28125 
Q 7.953125 -13.28125 10.59375 -11.234375 
Q 13.234375 -9.1875 16.5 -3.21875 
L 19.28125 2 
L 7.171875 54.6875 
L 16.703125 54.6875 
L 25.78125 12.796875 
L 50.875 54.6875 
L 60.296875 54.6875 
z
" id="DejaVuSans-Oblique-121"/>
     </defs>
     <use transform="translate(0 0.125)" xlink:href="#DejaVuSans-Oblique-121"/>
     <use transform="translate(59.179688 0.125)" xlink:href="#DejaVuSans-40"/>
     <use transform="translate(98.193359 0.125)" xlink:href="#DejaVuSans-Oblique-116"/>
     <use transform="translate(137.402344 0.125)" xlink:href="#DejaVuSans-41"/>
    </g>
   </g>
  </g>
 </g>
 <defs>
  <clipPath id="p2a5aa5dee5">
   <rect height="52.02" width="198.543" x="9.670187" y="7.2"/>
  </clipPath>
 </defs>
</svg>
