<?xml version="1.0" encoding="utf-8" standalone="no"?>
<!DOCTYPE svg PUBLIC "-//W3C//DTD SVG 1.1//EN"
  "http://www.w3.org/Graphics/SVG/1.1/DTD/svg11.dtd">
<!-- Created with matplotlib (https://matplotlib.org/) -->
<svg height="143.6pt" version="1.1" viewBox="0 0 343.554 143.6" width="343.554pt" xmlns="http://www.w3.org/2000/svg" xmlns:xlink="http://www.w3.org/1999/xlink">
 <metadata>
  <rdf:RDF xmlns:cc="http://creativecommons.org/ns#" xmlns:dc="http://purl.org/dc/elements/1.1/" xmlns:rdf="http://www.w3.org/1999/02/22-rdf-syntax-ns#">
   <cc:Work>
    <dc:type rdf:resource="http://purl.org/dc/dcmitype/StillImage"/>
    <dc:date>2021-04-19T11:17:41.430479</dc:date>
    <dc:format>image/svg+xml</dc:format>
    <dc:creator>
     <cc:Agent>
      <dc:title>Matplotlib v3.3.4, https://matplotlib.org/</dc:title>
     </cc:Agent>
    </dc:creator>
   </cc:Work>
  </rdf:RDF>
 </metadata>
 <defs>
  <style type="text/css">*{stroke-linecap:butt;stroke-linejoin:round;}</style>
 </defs>
 <g id="figure_1">
  <g id="patch_1">
   <path d="M 0 143.6 
L 343.554 143.6 
L 343.554 0 
L 0 0 
z
" style="fill:none;"/>
  </g>
  <g id="axes_1">
   <g id="patch_2">
    <path clip-path="url(#p3cd1275181)" d="M 124.347 72.14 
L 118.227 74.435 
L 118.227 72.1553 
L 115.167 72.1553 
L 115.167 72.1247 
L 118.227 72.1247 
L 118.227 69.845 
z
" style="stroke:#000000;stroke-linejoin:miter;stroke-width:2;"/>
   </g>
   <g id="patch_3">
    <path clip-path="url(#p3cd1275181)" d="M 124.347 26.24 
L 118.227 28.535 
L 118.227 26.2553 
L 115.167 26.2553 
L 115.167 26.2247 
L 118.227 26.2247 
L 118.227 23.945 
z
" style="stroke:#000000;stroke-linejoin:miter;stroke-width:2;"/>
   </g>
   <g id="patch_4">
    <path clip-path="url(#p3cd1275181)" d="M 124.347 118.04 
L 118.227 120.335 
L 118.227 118.0553 
L 115.167 118.0553 
L 115.167 118.0247 
L 118.227 118.0247 
L 118.227 115.745 
z
" style="stroke:#000000;stroke-linejoin:miter;stroke-width:2;"/>
   </g>
   <g id="patch_5">
    <path clip-path="url(#p3cd1275181)" d="M 231.447 72.14 
L 225.327 74.435 
L 225.327 72.1553 
L 222.267 72.1553 
L 222.267 72.1247 
L 225.327 72.1247 
L 225.327 69.845 
z
" style="stroke:#000000;stroke-linejoin:miter;stroke-width:2;"/>
   </g>
   <g id="patch_6">
    <path clip-path="url(#p3cd1275181)" d="M 246.747 87.44 
C 250.804607 87.44 254.696572 85.827895 257.565734 82.958734 
C 260.434895 80.089572 262.047 76.197607 262.047 72.14 
C 262.047 68.082393 260.434895 64.190428 257.565734 61.321266 
C 254.696572 58.452105 250.804607 56.84 246.747 56.84 
C 242.689393 56.84 238.797428 58.452105 235.928266 61.321266 
C 233.059105 64.190428 231.447 68.082393 231.447 72.14 
C 231.447 76.197607 233.059105 80.089572 235.928266 82.958734 
C 238.797428 85.827895 242.689393 87.44 246.747 87.44 
z
" style="fill:none;stroke:#000000;stroke-linejoin:miter;stroke-width:2;"/>
   </g>
   <g id="patch_7">
    <path clip-path="url(#p3cd1275181)" d="M 246.747 56.84 
L 244.452 50.72 
L 246.7317 50.72 
L 246.7317 47.66 
L 246.7623 47.66 
L 246.7623 50.72 
L 249.042 50.72 
z
" style="stroke:#000000;stroke-linejoin:miter;stroke-width:2;"/>
   </g>
   <g id="patch_8">
    <path clip-path="url(#p3cd1275181)" d="M 246.747 87.44 
L 249.042 93.56 
L 246.7623 93.56 
L 246.7623 96.62 
L 246.7317 96.62 
L 246.7317 93.56 
L 244.452 93.56 
z
" style="stroke:#000000;stroke-linejoin:miter;stroke-width:2;"/>
   </g>
   <g id="patch_9">
    <path clip-path="url(#p3cd1275181)" d="M 307.947 72.14 
L 301.827 74.435 
L 301.827 72.1553 
L 298.767 72.1553 
L 298.767 72.1247 
L 301.827 72.1247 
L 301.827 69.845 
z
" style="stroke:#000000;stroke-linejoin:miter;stroke-width:2;"/>
   </g>
   <g id="line2d_1">
    <path clip-path="url(#p3cd1275181)" d="M 32.547 72.14 
L 55.497 72.14 
L 78.447 72.14 
" style="fill:none;stroke:#000000;stroke-linecap:round;stroke-width:2;"/>
   </g>
   <g id="line2d_2">
    <path clip-path="url(#p3cd1275181)" d="M 78.447 72.14 
L 101.397 72.14 
L 124.347 72.14 
" style="fill:none;stroke:#000000;stroke-linecap:round;stroke-width:2;"/>
   </g>
   <g id="line2d_3">
    <path clip-path="url(#p3cd1275181)" d="M 147.297 56.84 
L 170.247 56.84 
L 170.247 87.44 
L 124.347 87.44 
L 124.347 56.84 
L 147.297 56.84 
" style="fill:none;stroke:#000000;stroke-linecap:round;stroke-width:2;"/>
   </g>
   <g id="line2d_4">
    <path clip-path="url(#p3cd1275181)" d="M 78.447 72.14 
L 78.447 49.19 
L 78.447 26.24 
" style="fill:none;stroke:#000000;stroke-linecap:round;stroke-width:2;"/>
   </g>
   <g id="line2d_5">
    <path clip-path="url(#p3cd1275181)" d="M 78.447 26.24 
L 101.397 26.24 
L 124.347 26.24 
" style="fill:none;stroke:#000000;stroke-linecap:round;stroke-width:2;"/>
   </g>
   <g id="line2d_6">
    <path clip-path="url(#p3cd1275181)" d="M 147.297 10.94 
L 170.247 10.94 
L 170.247 41.54 
L 124.347 41.54 
L 124.347 10.94 
L 147.297 10.94 
" style="fill:none;stroke:#000000;stroke-linecap:round;stroke-width:2;"/>
   </g>
   <g id="line2d_7">
    <path clip-path="url(#p3cd1275181)" d="M 78.447 72.14 
L 78.447 95.09 
L 78.447 118.04 
" style="fill:none;stroke:#000000;stroke-linecap:round;stroke-width:2;"/>
   </g>
   <g id="line2d_8">
    <path clip-path="url(#p3cd1275181)" d="M 78.447 118.04 
L 101.397 118.04 
L 124.347 118.04 
" style="fill:none;stroke:#000000;stroke-linecap:round;stroke-width:2;"/>
   </g>
   <g id="line2d_9">
    <path clip-path="url(#p3cd1275181)" d="M 147.297 102.74 
L 170.247 102.74 
L 170.247 133.34 
L 124.347 133.34 
L 124.347 102.74 
L 147.297 102.74 
" style="fill:none;stroke:#000000;stroke-linecap:round;stroke-width:2;"/>
   </g>
   <g id="line2d_10">
    <path clip-path="url(#p3cd1275181)" d="M 170.247 72.14 
L 200.847 72.14 
L 231.447 72.14 
" style="fill:none;stroke:#000000;stroke-linecap:round;stroke-width:2;"/>
   </g>
   <g id="line2d_11">
    <path clip-path="url(#p3cd1275181)" d="M 170.247 26.24 
L 208.497 26.24 
L 246.747 26.24 
" style="fill:none;stroke:#000000;stroke-linecap:round;stroke-width:2;"/>
   </g>
   <g id="line2d_12">
    <path clip-path="url(#p3cd1275181)" d="M 246.747 26.24 
L 246.747 41.54 
L 246.747 56.84 
" style="fill:none;stroke:#000000;stroke-linecap:round;stroke-width:2;"/>
   </g>
   <g id="line2d_13">
    <path clip-path="url(#p3cd1275181)" d="M 170.247 118.04 
L 208.497 118.04 
L 246.747 118.04 
" style="fill:none;stroke:#000000;stroke-linecap:round;stroke-width:2;"/>
   </g>
   <g id="line2d_14">
    <path clip-path="url(#p3cd1275181)" d="M 246.747 118.04 
L 246.747 102.74 
L 246.747 87.44 
" style="fill:none;stroke:#000000;stroke-linecap:round;stroke-width:2;"/>
   </g>
   <g id="line2d_15">
    <path clip-path="url(#p3cd1275181)" d="M 262.047 72.14 
L 284.997 72.14 
L 307.947 72.14 
" style="fill:none;stroke:#000000;stroke-linecap:round;stroke-width:2;"/>
   </g>
   <g id="text_1">
    <!-- $X(s)$ -->
    <g transform="translate(9.587 74.899375)scale(0.1 -0.1)">
     <defs>
      <path d="M 13.71875 72.90625 
L 23.6875 72.90625 
L 36.1875 46.578125 
L 58.796875 72.90625 
L 70.3125 72.90625 
L 40.28125 38.09375 
L 58.40625 0 
L 48.484375 0 
L 33.796875 30.71875 
L 7.171875 0 
L -4.296875 0 
L 29.78125 39.203125 
z
" id="DejaVuSans-Oblique-88"/>
      <path d="M 31 75.875 
Q 24.46875 64.65625 21.28125 53.65625 
Q 18.109375 42.671875 18.109375 31.390625 
Q 18.109375 20.125 21.3125 9.0625 
Q 24.515625 -2 31 -13.1875 
L 23.1875 -13.1875 
Q 15.875 -1.703125 12.234375 9.375 
Q 8.59375 20.453125 8.59375 31.390625 
Q 8.59375 42.28125 12.203125 53.3125 
Q 15.828125 64.359375 23.1875 75.875 
z
" id="DejaVuSans-40"/>
      <path d="M 50 53.078125 
L 48.296875 44.578125 
Q 44.734375 46.53125 40.765625 47.5 
Q 36.8125 48.484375 32.625 48.484375 
Q 25.53125 48.484375 21.453125 46.0625 
Q 17.390625 43.65625 17.390625 39.5 
Q 17.390625 34.671875 26.859375 32.078125 
Q 27.59375 31.890625 27.9375 31.78125 
L 30.8125 30.90625 
Q 39.796875 28.421875 42.796875 25.6875 
Q 45.796875 22.953125 45.796875 18.21875 
Q 45.796875 9.515625 38.890625 4.046875 
Q 31.984375 -1.421875 20.796875 -1.421875 
Q 16.453125 -1.421875 11.671875 -0.578125 
Q 6.890625 0.25 1.125 2 
L 2.875 11.28125 
Q 7.8125 8.734375 12.59375 7.421875 
Q 17.390625 6.109375 21.78125 6.109375 
Q 28.375 6.109375 32.5 8.9375 
Q 36.625 11.765625 36.625 16.109375 
Q 36.625 20.796875 25.78125 23.6875 
L 24.859375 23.921875 
L 21.78125 24.703125 
Q 14.9375 26.515625 11.765625 29.46875 
Q 8.59375 32.421875 8.59375 37.015625 
Q 8.59375 45.75 15.15625 50.875 
Q 21.734375 56 33.015625 56 
Q 37.453125 56 41.671875 55.265625 
Q 45.90625 54.546875 50 53.078125 
z
" id="DejaVuSans-Oblique-115"/>
      <path d="M 8.015625 75.875 
L 15.828125 75.875 
Q 23.140625 64.359375 26.78125 53.3125 
Q 30.421875 42.28125 30.421875 31.390625 
Q 30.421875 20.453125 26.78125 9.375 
Q 23.140625 -1.703125 15.828125 -13.1875 
L 8.015625 -13.1875 
Q 14.5 -2 17.703125 9.0625 
Q 20.90625 20.125 20.90625 31.390625 
Q 20.90625 42.671875 17.703125 53.65625 
Q 14.5 64.65625 8.015625 75.875 
z
" id="DejaVuSans-41"/>
     </defs>
     <use transform="translate(0 0.125)" xlink:href="#DejaVuSans-Oblique-88"/>
     <use transform="translate(68.505859 0.125)" xlink:href="#DejaVuSans-40"/>
     <use transform="translate(107.519531 0.125)" xlink:href="#DejaVuSans-Oblique-115"/>
     <use transform="translate(159.619141 0.125)" xlink:href="#DejaVuSans-41"/>
    </g>
   </g>
   <g id="text_2">
    <!-- $G_2$ -->
    <g transform="translate(141.047 74.899375)scale(0.1 -0.1)">
     <defs>
      <path d="M 54.59375 10.890625 
L 58.40625 29.984375 
L 42.1875 29.984375 
L 43.703125 38.09375 
L 69.578125 38.09375 
L 63.28125 6 
Q 56.78125 2.4375 49.109375 0.5 
Q 41.453125 -1.421875 33.6875 -1.421875 
Q 19.96875 -1.421875 12.234375 6.1875 
Q 4.5 13.8125 4.5 27.390625 
Q 4.5 38.671875 9.203125 48.84375 
Q 13.921875 59.03125 22.21875 65.828125 
Q 27.4375 70.0625 33.640625 72.140625 
Q 39.84375 74.21875 47.40625 74.21875 
Q 54.25 74.21875 60.515625 72.484375 
Q 66.796875 70.75 72.515625 67.28125 
L 70.515625 56.78125 
Q 66.109375 61.375 60.203125 63.796875 
Q 54.296875 66.21875 47.609375 66.21875 
Q 39.84375 66.21875 33.9375 63.25 
Q 28.03125 60.296875 23.390625 54.109375 
Q 19.4375 48.828125 17.15625 41.671875 
Q 14.890625 34.515625 14.890625 27.09375 
Q 14.890625 16.890625 20.109375 11.734375 
Q 25.34375 6.59375 35.6875 6.59375 
Q 40.875 6.59375 45.703125 7.6875 
Q 50.53125 8.796875 54.59375 10.890625 
z
" id="DejaVuSans-Oblique-71"/>
      <path d="M 19.1875 8.296875 
L 53.609375 8.296875 
L 53.609375 0 
L 7.328125 0 
L 7.328125 8.296875 
Q 12.9375 14.109375 22.625 23.890625 
Q 32.328125 33.6875 34.8125 36.53125 
Q 39.546875 41.84375 41.421875 45.53125 
Q 43.3125 49.21875 43.3125 52.78125 
Q 43.3125 58.59375 39.234375 62.25 
Q 35.15625 65.921875 28.609375 65.921875 
Q 23.96875 65.921875 18.8125 64.3125 
Q 13.671875 62.703125 7.8125 59.421875 
L 7.8125 69.390625 
Q 13.765625 71.78125 18.9375 73 
Q 24.125 74.21875 28.421875 74.21875 
Q 39.75 74.21875 46.484375 68.546875 
Q 53.21875 62.890625 53.21875 53.421875 
Q 53.21875 48.921875 51.53125 44.890625 
Q 49.859375 40.875 45.40625 35.40625 
Q 44.1875 33.984375 37.640625 27.21875 
Q 31.109375 20.453125 19.1875 8.296875 
z
" id="DejaVuSans-50"/>
     </defs>
     <use transform="translate(0 0.78125)" xlink:href="#DejaVuSans-Oblique-71"/>
     <use transform="translate(77.490234 -15.625)scale(0.7)" xlink:href="#DejaVuSans-50"/>
    </g>
   </g>
   <g id="text_3">
    <!-- $G_1$ -->
    <g transform="translate(141.047 28.999375)scale(0.1 -0.1)">
     <defs>
      <path d="M 12.40625 8.296875 
L 28.515625 8.296875 
L 28.515625 63.921875 
L 10.984375 60.40625 
L 10.984375 69.390625 
L 28.421875 72.90625 
L 38.28125 72.90625 
L 38.28125 8.296875 
L 54.390625 8.296875 
L 54.390625 0 
L 12.40625 0 
z
" id="DejaVuSans-49"/>
     </defs>
     <use transform="translate(0 0.78125)" xlink:href="#DejaVuSans-Oblique-71"/>
     <use transform="translate(77.490234 -15.625)scale(0.7)" xlink:href="#DejaVuSans-49"/>
    </g>
   </g>
   <g id="text_4">
    <!-- $G_3$ -->
    <g transform="translate(141.047 120.799375)scale(0.1 -0.1)">
     <defs>
      <path d="M 40.578125 39.3125 
Q 47.65625 37.796875 51.625 33 
Q 55.609375 28.21875 55.609375 21.1875 
Q 55.609375 10.40625 48.1875 4.484375 
Q 40.765625 -1.421875 27.09375 -1.421875 
Q 22.515625 -1.421875 17.65625 -0.515625 
Q 12.796875 0.390625 7.625 2.203125 
L 7.625 11.71875 
Q 11.71875 9.328125 16.59375 8.109375 
Q 21.484375 6.890625 26.8125 6.890625 
Q 36.078125 6.890625 40.9375 10.546875 
Q 45.796875 14.203125 45.796875 21.1875 
Q 45.796875 27.640625 41.28125 31.265625 
Q 36.765625 34.90625 28.71875 34.90625 
L 20.21875 34.90625 
L 20.21875 43.015625 
L 29.109375 43.015625 
Q 36.375 43.015625 40.234375 45.921875 
Q 44.09375 48.828125 44.09375 54.296875 
Q 44.09375 59.90625 40.109375 62.90625 
Q 36.140625 65.921875 28.71875 65.921875 
Q 24.65625 65.921875 20.015625 65.03125 
Q 15.375 64.15625 9.8125 62.3125 
L 9.8125 71.09375 
Q 15.4375 72.65625 20.34375 73.4375 
Q 25.25 74.21875 29.59375 74.21875 
Q 40.828125 74.21875 47.359375 69.109375 
Q 53.90625 64.015625 53.90625 55.328125 
Q 53.90625 49.265625 50.4375 45.09375 
Q 46.96875 40.921875 40.578125 39.3125 
z
" id="DejaVuSans-51"/>
     </defs>
     <use transform="translate(0 0.78125)" xlink:href="#DejaVuSans-Oblique-71"/>
     <use transform="translate(77.490234 -15.625)scale(0.7)" xlink:href="#DejaVuSans-51"/>
    </g>
   </g>
   <g id="text_5">
    <!-- $Y_2(s)$ -->
    <g transform="translate(188.897 67.000313)scale(0.1 -0.1)">
     <defs>
      <path d="M 6.296875 72.90625 
L 16.890625 72.90625 
L 30.515625 42.921875 
L 56.5 72.90625 
L 67.578125 72.90625 
L 34.515625 34.71875 
L 27.78125 0 
L 17.921875 0 
L 24.609375 34.71875 
z
" id="DejaVuSans-Oblique-89"/>
     </defs>
     <use transform="translate(0 0.125)" xlink:href="#DejaVuSans-Oblique-89"/>
     <use transform="translate(61.083984 -16.28125)scale(0.7)" xlink:href="#DejaVuSans-50"/>
     <use transform="translate(108.354492 0.125)" xlink:href="#DejaVuSans-40"/>
     <use transform="translate(147.368164 0.125)" xlink:href="#DejaVuSans-Oblique-115"/>
     <use transform="translate(199.467773 0.125)" xlink:href="#DejaVuSans-41"/>
    </g>
   </g>
   <g id="text_6">
    <!-- + -->
    <g transform="translate(222.667156 57.820313)scale(0.1 -0.1)">
     <defs>
      <path d="M 46 62.703125 
L 46 35.5 
L 73.1875 35.5 
L 73.1875 27.203125 
L 46 27.203125 
L 46 0 
L 37.796875 0 
L 37.796875 27.203125 
L 10.59375 27.203125 
L 10.59375 35.5 
L 37.796875 35.5 
L 37.796875 62.703125 
z
" id="DejaVuSans-43"/>
     </defs>
     <use xlink:href="#DejaVuSans-43"/>
    </g>
   </g>
   <g id="text_7">
    <!-- $Y_1(s)$ -->
    <g transform="translate(196.547 21.100313)scale(0.1 -0.1)">
     <use transform="translate(0 0.125)" xlink:href="#DejaVuSans-Oblique-89"/>
     <use transform="translate(61.083984 -16.28125)scale(0.7)" xlink:href="#DejaVuSans-49"/>
     <use transform="translate(108.354492 0.125)" xlink:href="#DejaVuSans-40"/>
     <use transform="translate(147.368164 0.125)" xlink:href="#DejaVuSans-Oblique-115"/>
     <use transform="translate(199.467773 0.125)" xlink:href="#DejaVuSans-41"/>
    </g>
   </g>
   <g id="text_8">
    <!-- + -->
    <g transform="translate(258.987 55.009375)scale(0.1 -0.1)">
     <use xlink:href="#DejaVuSans-43"/>
    </g>
   </g>
   <g id="text_9">
    <!-- $Y_3(s)$ -->
    <g transform="translate(196.547 112.900313)scale(0.1 -0.1)">
     <use transform="translate(0 0.125)" xlink:href="#DejaVuSans-Oblique-89"/>
     <use transform="translate(61.083984 -16.28125)scale(0.7)" xlink:href="#DejaVuSans-51"/>
     <use transform="translate(108.354492 0.125)" xlink:href="#DejaVuSans-40"/>
     <use transform="translate(147.368164 0.125)" xlink:href="#DejaVuSans-Oblique-115"/>
     <use transform="translate(199.467773 0.125)" xlink:href="#DejaVuSans-41"/>
    </g>
   </g>
   <g id="text_10">
    <!-- + -->
    <g transform="translate(258.987 94.789375)scale(0.1 -0.1)">
     <use xlink:href="#DejaVuSans-43"/>
    </g>
   </g>
   <g id="text_11">
    <!-- $Y(s)$ -->
    <g transform="translate(311.007 74.899375)scale(0.1 -0.1)">
     <use transform="translate(0 0.125)" xlink:href="#DejaVuSans-Oblique-89"/>
     <use transform="translate(61.083984 0.125)" xlink:href="#DejaVuSans-40"/>
     <use transform="translate(100.097656 0.125)" xlink:href="#DejaVuSans-Oblique-115"/>
     <use transform="translate(152.197266 0.125)" xlink:href="#DejaVuSans-41"/>
    </g>
   </g>
   <g id="patch_10">
    <path clip-path="url(#p3cd1275181)" d="M 78.447 72.14 
C 78.447 72.14 78.447 72.14 78.447 72.14 
C 78.447 72.14 78.447 72.14 78.447 72.14 
C 78.447 72.14 78.447 72.14 78.447 72.14 
C 78.447 72.14 78.447 72.14 78.447 72.14 
C 78.447 72.14 78.447 72.14 78.447 72.14 
C 78.447 72.14 78.447 72.14 78.447 72.14 
C 78.447 72.14 78.447 72.14 78.447 72.14 
C 78.447 72.14 78.447 72.14 78.447 72.14 
z
" style="stroke:#000000;stroke-linejoin:miter;stroke-width:2;"/>
   </g>
  </g>
 </g>
 <defs>
  <clipPath id="p3cd1275181">
   <rect height="129.2" width="329.154" x="7.2" y="7.2"/>
  </clipPath>
 </defs>
</svg>
