<?xml version="1.0" encoding="utf-8"?>
<svg xmlns="http://www.w3.org/2000/svg" xmlns:xlink="http://www.w3.org/1999/xlink" width="150" height="100" viewBox="0 0 600 400">
<defs>
  <clipPath id="clip840">
    <rect x="0" y="0" width="600" height="400"/>
  </clipPath>
</defs>
<path clip-path="url(#clip840)" d="
M0 400 L600 400 L600 0 L0 0  Z
  " fill="#ffffff" fill-rule="evenodd" fill-opacity="1"/>
<defs>
  <clipPath id="clip841">
    <rect x="120" y="0" width="421" height="400"/>
  </clipPath>
</defs>
<path clip-path="url(#clip840)" d="
M68.285 160.633 L588.189 160.633 L588.189 11.811 L68.285 11.811  Z
  " fill="#ffffff" fill-rule="evenodd" fill-opacity="1"/>
<defs>
  <clipPath id="clip842">
    <rect x="68" y="11" width="521" height="150"/>
  </clipPath>
</defs>
<polyline clip-path="url(#clip842)" style="stroke:#000000; stroke-width:0.5; stroke-opacity:0.1; fill:none" points="
  82.9993,160.633 82.9993,11.811 
  "/>
<polyline clip-path="url(#clip842)" style="stroke:#000000; stroke-width:0.5; stroke-opacity:0.1; fill:none" points="
  231.582,160.633 231.582,11.811 
  "/>
<polyline clip-path="url(#clip842)" style="stroke:#000000; stroke-width:0.5; stroke-opacity:0.1; fill:none" points="
  380.164,160.633 380.164,11.811 
  "/>
<polyline clip-path="url(#clip842)" style="stroke:#000000; stroke-width:0.5; stroke-opacity:0.1; fill:none" points="
  528.747,160.633 528.747,11.811 
  "/>
<polyline clip-path="url(#clip840)" style="stroke:#000000; stroke-width:1; stroke-opacity:1; fill:none" points="
  68.285,160.633 588.189,160.633 
  "/>
<polyline clip-path="url(#clip840)" style="stroke:#000000; stroke-width:1; stroke-opacity:1; fill:none" points="
  82.9993,160.633 82.9993,158.847 
  "/>
<polyline clip-path="url(#clip840)" style="stroke:#000000; stroke-width:1; stroke-opacity:1; fill:none" points="
  231.582,160.633 231.582,158.847 
  "/>
<polyline clip-path="url(#clip840)" style="stroke:#000000; stroke-width:1; stroke-opacity:1; fill:none" points="
  380.164,160.633 380.164,158.847 
  "/>
<polyline clip-path="url(#clip840)" style="stroke:#000000; stroke-width:1; stroke-opacity:1; fill:none" points="
  528.747,160.633 528.747,158.847 
  "/>
<path clip-path="url(#clip840)" d="M 0 0 M71.6227 180.201 L73.5324 180.201 L73.5324 173.609 L71.4549 174.026 L71.4549 172.961 L73.5209 172.544 L74.6898 172.544 L74.6898 180.201 L76.5996 180.201 L76.5996 181.184 L71.6227 181.184 L71.6227 180.201 Z" fill="#000000" fill-rule="evenodd" fill-opacity="1" /><path clip-path="url(#clip840)" d="M 0 0 M80.3669 173.314 Q79.4641 173.314 79.007 174.205 Q78.5556 175.091 78.5556 176.873 Q78.5556 178.65 79.007 179.541 Q79.4641 180.426 80.3669 180.426 Q81.2755 180.426 81.7268 179.541 Q82.184 178.65 82.184 176.873 Q82.184 175.091 81.7268 174.205 Q81.2755 173.314 80.3669 173.314 M80.3669 172.388 Q81.8194 172.388 82.5833 173.54 Q83.353 174.686 83.353 176.873 Q83.353 179.055 82.5833 180.206 Q81.8194 181.352 80.3669 181.352 Q78.9144 181.352 78.1447 180.206 Q77.3808 179.055 77.3808 176.873 Q77.3808 174.686 78.1447 173.54 Q78.9144 172.388 80.3669 172.388 Z" fill="#000000" fill-rule="evenodd" fill-opacity="1" /><path clip-path="url(#clip840)" d="M 0 0 M83.353 170.914 L89.3809 170.914 L89.3809 171.713 L83.353 171.713 L83.353 170.914 Z" fill="#000000" fill-rule="evenodd" fill-opacity="1" /><path clip-path="url(#clip840)" d="M 0 0 M91.2287 173.533 L94.5436 173.533 L94.5436 174.332 L90.0862 174.332 L90.0862 173.533 Q90.6269 172.973 91.5579 172.033 Q92.4936 171.088 92.7334 170.815 Q93.1895 170.302 93.3681 169.95 Q93.5515 169.592 93.5515 169.249 Q93.5515 168.69 93.1565 168.337 Q92.7663 167.984 92.1362 167.984 Q91.6895 167.984 91.1911 168.139 Q90.6974 168.295 90.1332 168.61 L90.1332 167.65 Q90.7068 167.42 91.2052 167.302 Q91.7036 167.185 92.1174 167.185 Q93.2083 167.185 93.8571 167.73 Q94.506 168.276 94.506 169.188 Q94.506 169.621 94.3414 170.011 Q94.1816 170.396 93.7537 170.923 Q93.6361 171.059 93.0061 171.713 Q92.376 172.362 91.2287 173.533 Z" fill="#000000" fill-rule="evenodd" fill-opacity="1" /><path clip-path="url(#clip840)" d="M 0 0 M220.168 180.201 L222.077 180.201 L222.077 173.609 L220 174.026 L220 172.961 L222.066 172.544 L223.235 172.544 L223.235 180.201 L225.144 180.201 L225.144 181.184 L220.168 181.184 L220.168 180.201 Z" fill="#000000" fill-rule="evenodd" fill-opacity="1" /><path clip-path="url(#clip840)" d="M 0 0 M228.912 173.314 Q228.009 173.314 227.552 174.205 Q227.1 175.091 227.1 176.873 Q227.1 178.65 227.552 179.541 Q228.009 180.426 228.912 180.426 Q229.82 180.426 230.272 179.541 Q230.729 178.65 230.729 176.873 Q230.729 175.091 230.272 174.205 Q229.82 173.314 228.912 173.314 M228.912 172.388 Q230.364 172.388 231.128 173.54 Q231.898 174.686 231.898 176.873 Q231.898 179.055 231.128 180.206 Q230.364 181.352 228.912 181.352 Q227.459 181.352 226.69 180.206 Q225.926 179.055 225.926 176.873 Q225.926 174.686 226.69 173.54 Q227.459 172.388 228.912 172.388 Z" fill="#000000" fill-rule="evenodd" fill-opacity="1" /><path clip-path="url(#clip840)" d="M 0 0 M231.898 170.914 L237.926 170.914 L237.926 171.713 L231.898 171.713 L231.898 170.914 Z" fill="#000000" fill-rule="evenodd" fill-opacity="1" /><path clip-path="url(#clip840)" d="M 0 0 M239.12 173.533 L240.672 173.533 L240.672 168.177 L238.984 168.516 L238.984 167.65 L240.662 167.312 L241.612 167.312 L241.612 173.533 L243.164 173.533 L243.164 174.332 L239.12 174.332 L239.12 173.533 Z" fill="#000000" fill-rule="evenodd" fill-opacity="1" /><path clip-path="url(#clip840)" d="M 0 0 M371.957 180.201 L373.867 180.201 L373.867 173.609 L371.789 174.026 L371.789 172.961 L373.855 172.544 L375.024 172.544 L375.024 180.201 L376.934 180.201 L376.934 181.184 L371.957 181.184 L371.957 180.201 Z" fill="#000000" fill-rule="evenodd" fill-opacity="1" /><path clip-path="url(#clip840)" d="M 0 0 M380.701 173.314 Q379.798 173.314 379.341 174.205 Q378.89 175.091 378.89 176.873 Q378.89 178.65 379.341 179.541 Q379.798 180.426 380.701 180.426 Q381.61 180.426 382.061 179.541 Q382.518 178.65 382.518 176.873 Q382.518 175.091 382.061 174.205 Q381.61 173.314 380.701 173.314 M380.701 172.388 Q382.154 172.388 382.918 173.54 Q383.687 174.686 383.687 176.873 Q383.687 179.055 382.918 180.206 Q382.154 181.352 380.701 181.352 Q379.249 181.352 378.479 180.206 Q377.715 179.055 377.715 176.873 Q377.715 174.686 378.479 173.54 Q379.249 172.388 380.701 172.388 Z" fill="#000000" fill-rule="evenodd" fill-opacity="1" /><path clip-path="url(#clip840)" d="M 0 0 M386.113 167.937 Q385.38 167.937 385.008 168.661 Q384.642 169.381 384.642 170.829 Q384.642 172.272 385.008 172.997 Q385.38 173.716 386.113 173.716 Q386.852 173.716 387.218 172.997 Q387.59 172.272 387.59 170.829 Q387.59 169.381 387.218 168.661 Q386.852 167.937 386.113 167.937 M386.113 167.185 Q387.294 167.185 387.914 168.121 Q388.54 169.052 388.54 170.829 Q388.54 172.602 387.914 173.537 Q387.294 174.468 386.113 174.468 Q384.933 174.468 384.308 173.537 Q383.687 172.602 383.687 170.829 Q383.687 169.052 384.308 168.121 Q384.933 167.185 386.113 167.185 Z" fill="#000000" fill-rule="evenodd" fill-opacity="1" /><path clip-path="url(#clip840)" d="M 0 0 M520.876 180.201 L522.785 180.201 L522.785 173.609 L520.708 174.026 L520.708 172.961 L522.774 172.544 L523.943 172.544 L523.943 180.201 L525.853 180.201 L525.853 181.184 L520.876 181.184 L520.876 180.201 Z" fill="#000000" fill-rule="evenodd" fill-opacity="1" /><path clip-path="url(#clip840)" d="M 0 0 M529.62 173.314 Q528.717 173.314 528.26 174.205 Q527.809 175.091 527.809 176.873 Q527.809 178.65 528.26 179.541 Q528.717 180.426 529.62 180.426 Q530.528 180.426 530.98 179.541 Q531.437 178.65 531.437 176.873 Q531.437 175.091 530.98 174.205 Q530.528 173.314 529.62 173.314 M529.62 172.388 Q531.072 172.388 531.836 173.54 Q532.606 174.686 532.606 176.873 Q532.606 179.055 531.836 180.206 Q531.072 181.352 529.62 181.352 Q528.167 181.352 527.398 180.206 Q526.634 179.055 526.634 176.873 Q526.634 174.686 527.398 173.54 Q528.167 172.388 529.62 172.388 Z" fill="#000000" fill-rule="evenodd" fill-opacity="1" /><path clip-path="url(#clip840)" d="M 0 0 M532.742 173.533 L534.294 173.533 L534.294 168.177 L532.606 168.516 L532.606 167.65 L534.285 167.312 L535.234 167.312 L535.234 173.533 L536.786 173.533 L536.786 174.332 L532.742 174.332 L532.742 173.533 Z" fill="#000000" fill-rule="evenodd" fill-opacity="1" /><polyline clip-path="url(#clip842)" style="stroke:#000000; stroke-width:0.5; stroke-opacity:0.1; fill:none" points="
  68.285,135.166 588.189,135.166 
  "/>
<polyline clip-path="url(#clip842)" style="stroke:#000000; stroke-width:0.5; stroke-opacity:0.1; fill:none" points="
  68.285,108.459 588.189,108.459 
  "/>
<polyline clip-path="url(#clip842)" style="stroke:#000000; stroke-width:0.5; stroke-opacity:0.1; fill:none" points="
  68.285,81.7524 588.189,81.7524 
  "/>
<polyline clip-path="url(#clip842)" style="stroke:#000000; stroke-width:0.5; stroke-opacity:0.1; fill:none" points="
  68.285,55.0458 588.189,55.0458 
  "/>
<polyline clip-path="url(#clip842)" style="stroke:#000000; stroke-width:0.5; stroke-opacity:0.1; fill:none" points="
  68.285,28.3392 588.189,28.3392 
  "/>
<polyline clip-path="url(#clip840)" style="stroke:#000000; stroke-width:1; stroke-opacity:1; fill:none" points="
  68.285,160.633 68.285,11.811 
  "/>
<polyline clip-path="url(#clip840)" style="stroke:#000000; stroke-width:1; stroke-opacity:1; fill:none" points="
  68.285,135.166 74.5238,135.166 
  "/>
<polyline clip-path="url(#clip840)" style="stroke:#000000; stroke-width:1; stroke-opacity:1; fill:none" points="
  68.285,108.459 74.5238,108.459 
  "/>
<polyline clip-path="url(#clip840)" style="stroke:#000000; stroke-width:1; stroke-opacity:1; fill:none" points="
  68.285,81.7524 74.5238,81.7524 
  "/>
<polyline clip-path="url(#clip840)" style="stroke:#000000; stroke-width:1; stroke-opacity:1; fill:none" points="
  68.285,55.0458 74.5238,55.0458 
  "/>
<polyline clip-path="url(#clip840)" style="stroke:#000000; stroke-width:1; stroke-opacity:1; fill:none" points="
  68.285,28.3392 74.5238,28.3392 
  "/>
<path clip-path="url(#clip840)" d="M 0 0 M28.7799 140.114 L30.6896 140.114 L30.6896 133.522 L28.6121 133.939 L28.6121 132.874 L30.678 132.457 L31.847 132.457 L31.847 140.114 L33.7567 140.114 L33.7567 141.097 L28.7799 141.097 L28.7799 140.114 Z" fill="#000000" fill-rule="evenodd" fill-opacity="1" /><path clip-path="url(#clip840)" d="M 0 0 M37.524 133.227 Q36.6213 133.227 36.1641 134.118 Q35.7127 135.004 35.7127 136.786 Q35.7127 138.563 36.1641 139.454 Q36.6213 140.339 37.524 140.339 Q38.4326 140.339 38.884 139.454 Q39.3412 138.563 39.3412 136.786 Q39.3412 135.004 38.884 134.118 Q38.4326 133.227 37.524 133.227 M37.524 132.301 Q38.9766 132.301 39.7405 133.453 Q40.5101 134.599 40.5101 136.786 Q40.5101 138.968 39.7405 140.119 Q38.9766 141.265 37.524 141.265 Q36.0715 141.265 35.3018 140.119 Q34.538 138.968 34.538 136.786 Q34.538 134.599 35.3018 133.453 Q36.0715 132.301 37.524 132.301 Z" fill="#000000" fill-rule="evenodd" fill-opacity="1" /><path clip-path="url(#clip840)" d="M 0 0 M40.5101 130.826 L46.538 130.826 L46.538 131.626 L40.5101 131.626 L40.5101 130.826 Z" fill="#000000" fill-rule="evenodd" fill-opacity="1" /><path clip-path="url(#clip840)" d="M 0 0 M47.7323 133.445 L49.284 133.445 L49.284 128.09 L47.596 128.429 L47.596 127.563 L49.2746 127.225 L50.2244 127.225 L50.2244 133.445 L51.776 133.445 L51.776 134.245 L47.7323 134.245 L47.7323 133.445 Z" fill="#000000" fill-rule="evenodd" fill-opacity="1" /><path clip-path="url(#clip840)" d="M 0 0 M52.8057 133.051 L53.7978 133.051 L53.7978 134.245 L52.8057 134.245 L52.8057 133.051 Z" fill="#000000" fill-rule="evenodd" fill-opacity="1" /><path clip-path="url(#clip840)" d="M 0 0 M56.8588 127.85 Q56.1253 127.85 55.7538 128.574 Q55.3871 129.294 55.3871 130.742 Q55.3871 132.185 55.7538 132.909 Q56.1253 133.629 56.8588 133.629 Q57.597 133.629 57.9638 132.909 Q58.3352 132.185 58.3352 130.742 Q58.3352 129.294 57.9638 128.574 Q57.597 127.85 56.8588 127.85 M56.8588 127.098 Q58.039 127.098 58.6596 128.034 Q59.285 128.965 59.285 130.742 Q59.285 132.514 58.6596 133.45 Q58.039 134.381 56.8588 134.381 Q55.6786 134.381 55.0533 133.45 Q54.4326 132.514 54.4326 130.742 Q54.4326 128.965 55.0533 128.034 Q55.6786 127.098 56.8588 127.098 Z" fill="#000000" fill-rule="evenodd" fill-opacity="1" /><path clip-path="url(#clip840)" d="M 0 0 M28.7329 113.407 L30.6426 113.407 L30.6426 106.816 L28.565 107.232 L28.565 106.167 L30.631 105.751 L31.8 105.751 L31.8 113.407 L33.7097 113.407 L33.7097 114.391 L28.7329 114.391 L28.7329 113.407 Z" fill="#000000" fill-rule="evenodd" fill-opacity="1" /><path clip-path="url(#clip840)" d="M 0 0 M37.477 106.521 Q36.5743 106.521 36.1171 107.412 Q35.6657 108.297 35.6657 110.08 Q35.6657 111.856 36.1171 112.747 Q36.5743 113.633 37.477 113.633 Q38.3856 113.633 38.837 112.747 Q39.2941 111.856 39.2941 110.08 Q39.2941 108.297 38.837 107.412 Q38.3856 106.521 37.477 106.521 M37.477 105.595 Q38.9296 105.595 39.6935 106.746 Q40.4631 107.892 40.4631 110.08 Q40.4631 112.261 39.6935 113.413 Q38.9296 114.559 37.477 114.559 Q36.0245 114.559 35.2548 113.413 Q34.4909 112.261 34.4909 110.08 Q34.4909 107.892 35.2548 106.746 Q36.0245 105.595 37.477 105.595 Z" fill="#000000" fill-rule="evenodd" fill-opacity="1" /><path clip-path="url(#clip840)" d="M 0 0 M40.4631 104.12 L46.491 104.12 L46.491 104.919 L40.4631 104.919 L40.4631 104.12 Z" fill="#000000" fill-rule="evenodd" fill-opacity="1" /><path clip-path="url(#clip840)" d="M 0 0 M49.552 101.144 Q48.8185 101.144 48.447 101.868 Q48.0803 102.587 48.0803 104.035 Q48.0803 105.479 48.447 106.203 Q48.8185 106.922 49.552 106.922 Q50.2902 106.922 50.6569 106.203 Q51.0284 105.479 51.0284 104.035 Q51.0284 102.587 50.6569 101.868 Q50.2902 101.144 49.552 101.144 M49.552 100.391 Q50.7322 100.391 51.3528 101.327 Q51.9782 102.258 51.9782 104.035 Q51.9782 105.808 51.3528 106.744 Q50.7322 107.675 49.552 107.675 Q48.3718 107.675 47.7464 106.744 Q47.1258 105.808 47.1258 104.035 Q47.1258 102.258 47.7464 101.327 Q48.3718 100.391 49.552 100.391 Z" fill="#000000" fill-rule="evenodd" fill-opacity="1" /><path clip-path="url(#clip840)" d="M 0 0 M53.0079 106.344 L54 106.344 L54 107.538 L53.0079 107.538 L53.0079 106.344 Z" fill="#000000" fill-rule="evenodd" fill-opacity="1" /><path clip-path="url(#clip840)" d="M 0 0 M55.0391 100.518 L58.7678 100.518 L58.7678 101.318 L55.909 101.318 L55.909 103.038 Q56.1159 102.968 56.3228 102.935 Q56.5297 102.897 56.7365 102.897 Q57.912 102.897 58.5985 103.542 Q59.285 104.186 59.285 105.286 Q59.285 106.419 58.5797 107.049 Q57.8744 107.675 56.5908 107.675 Q56.1488 107.675 55.688 107.599 Q55.2319 107.524 54.7429 107.374 L54.7429 106.419 Q55.1661 106.65 55.6175 106.762 Q56.0689 106.875 56.572 106.875 Q57.3854 106.875 57.8603 106.447 Q58.3352 106.02 58.3352 105.286 Q58.3352 104.553 57.8603 104.125 Q57.3854 103.697 56.572 103.697 Q56.1911 103.697 55.8103 103.781 Q55.4341 103.866 55.0391 104.045 L55.0391 100.518 Z" fill="#000000" fill-rule="evenodd" fill-opacity="1" /><path clip-path="url(#clip840)" d="M 0 0 M35.1933 86.7005 L37.103 86.7005 L37.103 80.1091 L35.0255 80.5257 L35.0255 79.4609 L37.0915 79.0443 L38.2604 79.0443 L38.2604 86.7005 L40.1702 86.7005 L40.1702 87.6843 L35.1933 87.6843 L35.1933 86.7005 Z" fill="#000000" fill-rule="evenodd" fill-opacity="1" /><path clip-path="url(#clip840)" d="M 0 0 M43.9375 79.8139 Q43.0347 79.8139 42.5776 80.7051 Q42.1262 81.5905 42.1262 83.3729 Q42.1262 85.1496 42.5776 86.0408 Q43.0347 86.9262 43.9375 86.9262 Q44.8461 86.9262 45.2974 86.0408 Q45.7546 85.1496 45.7546 83.3729 Q45.7546 81.5905 45.2974 80.7051 Q44.8461 79.8139 43.9375 79.8139 M43.9375 78.888 Q45.39 78.888 46.1539 80.0396 Q46.9236 81.1855 46.9236 83.3729 Q46.9236 85.5546 46.1539 86.7063 Q45.39 87.8521 43.9375 87.8521 Q42.485 87.8521 41.7153 86.7063 Q40.9514 85.5546 40.9514 83.3729 Q40.9514 81.1855 41.7153 80.0396 Q42.485 78.888 43.9375 78.888 Z" fill="#000000" fill-rule="evenodd" fill-opacity="1" /><path clip-path="url(#clip840)" d="M 0 0 M49.3498 74.437 Q48.6163 74.437 48.2448 75.1611 Q47.8781 75.8805 47.8781 77.3287 Q47.8781 78.7722 48.2448 79.4963 Q48.6163 80.2157 49.3498 80.2157 Q50.088 80.2157 50.4548 79.4963 Q50.8262 78.7722 50.8262 77.3287 Q50.8262 75.8805 50.4548 75.1611 Q50.088 74.437 49.3498 74.437 M49.3498 73.6847 Q50.53 73.6847 51.1506 74.6204 Q51.776 75.5514 51.776 77.3287 Q51.776 79.1013 51.1506 80.037 Q50.53 80.968 49.3498 80.968 Q48.1696 80.968 47.5442 80.037 Q46.9236 79.1013 46.9236 77.3287 Q46.9236 75.5514 47.5442 74.6204 Q48.1696 73.6847 49.3498 73.6847 Z" fill="#000000" fill-rule="evenodd" fill-opacity="1" /><path clip-path="url(#clip840)" d="M 0 0 M52.8057 79.6374 L53.7978 79.6374 L53.7978 80.8317 L52.8057 80.8317 L52.8057 79.6374 Z" fill="#000000" fill-rule="evenodd" fill-opacity="1" /><path clip-path="url(#clip840)" d="M 0 0 M56.8588 74.437 Q56.1253 74.437 55.7538 75.1611 Q55.3871 75.8805 55.3871 77.3287 Q55.3871 78.7722 55.7538 79.4963 Q56.1253 80.2157 56.8588 80.2157 Q57.597 80.2157 57.9638 79.4963 Q58.3352 78.7722 58.3352 77.3287 Q58.3352 75.8805 57.9638 75.1611 Q57.597 74.437 56.8588 74.437 M56.8588 73.6847 Q58.039 73.6847 58.6596 74.6204 Q59.285 75.5514 59.285 77.3287 Q59.285 79.1013 58.6596 80.037 Q58.039 80.968 56.8588 80.968 Q55.6786 80.968 55.0533 80.037 Q54.4326 79.1013 54.4326 77.3287 Q54.4326 75.5514 55.0533 74.6204 Q55.6786 73.6847 56.8588 73.6847 Z" fill="#000000" fill-rule="evenodd" fill-opacity="1" /><path clip-path="url(#clip840)" d="M 0 0 M35.3955 59.9939 L37.3052 59.9939 L37.3052 53.4025 L35.2277 53.8192 L35.2277 52.7544 L37.2937 52.3377 L38.4626 52.3377 L38.4626 59.9939 L40.3723 59.9939 L40.3723 60.9777 L35.3955 60.9777 L35.3955 59.9939 Z" fill="#000000" fill-rule="evenodd" fill-opacity="1" /><path clip-path="url(#clip840)" d="M 0 0 M44.1397 53.1074 Q43.2369 53.1074 42.7797 53.9986 Q42.3283 54.884 42.3283 56.6664 Q42.3283 58.443 42.7797 59.3342 Q43.2369 60.2196 44.1397 60.2196 Q45.0482 60.2196 45.4996 59.3342 Q45.9568 58.443 45.9568 56.6664 Q45.9568 54.884 45.4996 53.9986 Q45.0482 53.1074 44.1397 53.1074 M44.1397 52.1814 Q45.5922 52.1814 46.3561 53.3331 Q47.1258 54.4789 47.1258 56.6664 Q47.1258 58.8481 46.3561 59.9997 Q45.5922 61.1455 44.1397 61.1455 Q42.6871 61.1455 41.9175 59.9997 Q41.1536 58.8481 41.1536 56.6664 Q41.1536 54.4789 41.9175 53.3331 Q42.6871 52.1814 44.1397 52.1814 Z" fill="#000000" fill-rule="evenodd" fill-opacity="1" /><path clip-path="url(#clip840)" d="M 0 0 M49.552 47.7305 Q48.8185 47.7305 48.447 48.4546 Q48.0803 49.1739 48.0803 50.6221 Q48.0803 52.0656 48.447 52.7897 Q48.8185 53.5091 49.552 53.5091 Q50.2902 53.5091 50.6569 52.7897 Q51.0284 52.0656 51.0284 50.6221 Q51.0284 49.1739 50.6569 48.4546 Q50.2902 47.7305 49.552 47.7305 M49.552 46.9781 Q50.7322 46.9781 51.3528 47.9138 Q51.9782 48.8448 51.9782 50.6221 Q51.9782 52.3948 51.3528 53.3305 Q50.7322 54.2614 49.552 54.2614 Q48.3718 54.2614 47.7464 53.3305 Q47.1258 52.3948 47.1258 50.6221 Q47.1258 48.8448 47.7464 47.9138 Q48.3718 46.9781 49.552 46.9781 Z" fill="#000000" fill-rule="evenodd" fill-opacity="1" /><path clip-path="url(#clip840)" d="M 0 0 M53.0079 52.9308 L54 52.9308 L54 54.1251 L53.0079 54.1251 L53.0079 52.9308 Z" fill="#000000" fill-rule="evenodd" fill-opacity="1" /><path clip-path="url(#clip840)" d="M 0 0 M55.0391 47.1051 L58.7678 47.1051 L58.7678 47.9044 L55.909 47.9044 L55.909 49.6253 Q56.1159 49.5548 56.3228 49.5219 Q56.5297 49.4843 56.7365 49.4843 Q57.912 49.4843 58.5985 50.1284 Q59.285 50.7726 59.285 51.8729 Q59.285 53.006 58.5797 53.6361 Q57.8744 54.2614 56.5908 54.2614 Q56.1488 54.2614 55.688 54.1862 Q55.2319 54.111 54.7429 53.9605 L54.7429 53.006 Q55.1661 53.2364 55.6175 53.3493 Q56.0689 53.4621 56.572 53.4621 Q57.3854 53.4621 57.8603 53.0342 Q58.3352 52.6064 58.3352 51.8729 Q58.3352 51.1394 57.8603 50.7115 Q57.3854 50.2836 56.572 50.2836 Q56.1911 50.2836 55.8103 50.3682 Q55.4341 50.4529 55.0391 50.6315 L55.0391 47.1051 Z" fill="#000000" fill-rule="evenodd" fill-opacity="1" /><path clip-path="url(#clip840)" d="M 0 0 M35.8657 33.2873 L37.7754 33.2873 L37.7754 26.6959 L35.6979 27.1126 L35.6979 26.0478 L37.7638 25.6311 L38.9328 25.6311 L38.9328 33.2873 L40.8425 33.2873 L40.8425 34.2711 L35.8657 34.2711 L35.8657 33.2873 Z" fill="#000000" fill-rule="evenodd" fill-opacity="1" /><path clip-path="url(#clip840)" d="M 0 0 M44.6099 26.4008 Q43.7071 26.4008 43.2499 27.292 Q42.7985 28.1774 42.7985 29.9598 Q42.7985 31.7364 43.2499 32.6276 Q43.7071 33.513 44.6099 33.513 Q45.5184 33.513 45.9698 32.6276 Q46.427 31.7364 46.427 29.9598 Q46.427 28.1774 45.9698 27.292 Q45.5184 26.4008 44.6099 26.4008 M44.6099 25.4749 Q46.0624 25.4749 46.8263 26.6265 Q47.596 27.7723 47.596 29.9598 Q47.596 32.1415 46.8263 33.2931 Q46.0624 34.4389 44.6099 34.4389 Q43.1573 34.4389 42.3877 33.2931 Q41.6238 32.1415 41.6238 29.9598 Q41.6238 27.7723 42.3877 26.6265 Q43.1573 25.4749 44.6099 25.4749 Z" fill="#000000" fill-rule="evenodd" fill-opacity="1" /><path clip-path="url(#clip840)" d="M 0 0 M47.7323 26.6192 L49.284 26.6192 L49.284 21.2637 L47.596 21.6022 L47.596 20.7371 L49.2746 20.3985 L50.2244 20.3985 L50.2244 26.6192 L51.776 26.6192 L51.776 27.4185 L47.7323 27.4185 L47.7323 26.6192 Z" fill="#000000" fill-rule="evenodd" fill-opacity="1" /><path clip-path="url(#clip840)" d="M 0 0 M52.8057 26.2242 L53.7978 26.2242 L53.7978 27.4185 L52.8057 27.4185 L52.8057 26.2242 Z" fill="#000000" fill-rule="evenodd" fill-opacity="1" /><path clip-path="url(#clip840)" d="M 0 0 M56.8588 21.0239 Q56.1253 21.0239 55.7538 21.748 Q55.3871 22.4674 55.3871 23.9156 Q55.3871 25.3591 55.7538 26.0832 Q56.1253 26.8026 56.8588 26.8026 Q57.597 26.8026 57.9638 26.0832 Q58.3352 25.3591 58.3352 23.9156 Q58.3352 22.4674 57.9638 21.748 Q57.597 21.0239 56.8588 21.0239 M56.8588 20.2716 Q58.039 20.2716 58.6596 21.2073 Q59.285 22.1382 59.285 23.9156 Q59.285 25.6882 58.6596 26.6239 Q58.039 27.5549 56.8588 27.5549 Q55.6786 27.5549 55.0533 26.6239 Q54.4326 25.6882 54.4326 23.9156 Q54.4326 22.1382 55.0533 21.2073 Q55.6786 20.2716 56.8588 20.2716 Z" fill="#000000" fill-rule="evenodd" fill-opacity="1" /><path clip-path="url(#clip840)" d="M 0 0 M10.431 90.3914 Q10.6061 89.8742 11.179 89.3888 Q11.7519 88.8954 12.7545 88.4021 L16.001 86.7709 L16.001 88.4976 L12.9535 90.0174 Q11.7599 90.6062 11.37 91.1632 Q10.9801 91.7123 10.9801 92.6671 L10.9801 94.4177 L16.001 94.4177 L16.001 96.025 L4.12104 96.025 L4.12104 92.3966 Q4.12104 90.3596 4.97245 89.357 Q5.82387 88.3544 7.54261 88.3544 Q8.66456 88.3544 9.40458 88.8795 Q10.1446 89.3967 10.431 90.3914 M5.44192 94.4177 L9.6592 94.4177 L9.6592 92.3966 Q9.6592 91.2348 9.12608 90.646 Q8.58499 90.0492 7.54261 90.0492 Q6.50022 90.0492 5.97505 90.646 Q5.44192 91.2348 5.44192 92.3966 L5.44192 94.4177 Z" fill="#000000" fill-rule="evenodd" fill-opacity="1" /><path clip-path="url(#clip840)" d="M 0 0 M5.70451 81.8613 L11.6167 84.0416 L11.6167 79.6731 L5.70451 81.8613 M4.12104 82.7684 L4.12104 80.9463 L16.001 76.4187 L16.001 78.0897 L12.9535 79.1718 L12.9535 84.527 L16.001 85.6091 L16.001 87.304 L4.12104 82.7684 Z" fill="#000000" fill-rule="evenodd" fill-opacity="1" /><circle clip-path="url(#clip842)" cx="82.9993" cy="16.0302" r="3" fill="#009af9" fill-rule="evenodd" fill-opacity="1" stroke="#000000" stroke-opacity="1" stroke-width="0.8"/>
<circle clip-path="url(#clip842)" cx="127.727" cy="16.0439" r="3" fill="#009af9" fill-rule="evenodd" fill-opacity="1" stroke="#000000" stroke-opacity="1" stroke-width="0.8"/>
<circle clip-path="url(#clip842)" cx="231.582" cy="16.4849" r="3" fill="#009af9" fill-rule="evenodd" fill-opacity="1" stroke="#000000" stroke-opacity="1" stroke-width="0.8"/>
<circle clip-path="url(#clip842)" cx="302.474" cy="19.8484" r="3" fill="#009af9" fill-rule="evenodd" fill-opacity="1" stroke="#000000" stroke-opacity="1" stroke-width="0.8"/>
<circle clip-path="url(#clip842)" cx="335.437" cy="24.7766" r="3" fill="#009af9" fill-rule="evenodd" fill-opacity="1" stroke="#000000" stroke-opacity="1" stroke-width="0.8"/>
<circle clip-path="url(#clip842)" cx="357.149" cy="29.9479" r="3" fill="#009af9" fill-rule="evenodd" fill-opacity="1" stroke="#000000" stroke-opacity="1" stroke-width="0.8"/>
<circle clip-path="url(#clip842)" cx="380.164" cy="37.2854" r="3" fill="#009af9" fill-rule="evenodd" fill-opacity="1" stroke="#000000" stroke-opacity="1" stroke-width="0.8"/>
<circle clip-path="url(#clip842)" cx="406.328" cy="47.9168" r="3" fill="#009af9" fill-rule="evenodd" fill-opacity="1" stroke="#000000" stroke-opacity="1" stroke-width="0.8"/>
<circle clip-path="url(#clip842)" cx="424.892" cy="56.8948" r="3" fill="#009af9" fill-rule="evenodd" fill-opacity="1" stroke="#000000" stroke-opacity="1" stroke-width="0.8"/>
<circle clip-path="url(#clip842)" cx="439.291" cy="64.8754" r="3" fill="#009af9" fill-rule="evenodd" fill-opacity="1" stroke="#000000" stroke-opacity="1" stroke-width="0.8"/>
<circle clip-path="url(#clip842)" cx="451.056" cy="71.5861" r="3" fill="#009af9" fill-rule="evenodd" fill-opacity="1" stroke="#000000" stroke-opacity="1" stroke-width="0.8"/>
<circle clip-path="url(#clip842)" cx="469.62" cy="83.1877" r="3" fill="#009af9" fill-rule="evenodd" fill-opacity="1" stroke="#000000" stroke-opacity="1" stroke-width="0.8"/>
<circle clip-path="url(#clip842)" cx="514.348" cy="113" r="3" fill="#009af9" fill-rule="evenodd" fill-opacity="1" stroke="#000000" stroke-opacity="1" stroke-width="0.8"/>
<circle clip-path="url(#clip842)" cx="528.747" cy="122.857" r="3" fill="#009af9" fill-rule="evenodd" fill-opacity="1" stroke="#000000" stroke-opacity="1" stroke-width="0.8"/>
<circle clip-path="url(#clip842)" cx="573.475" cy="156.421" r="3" fill="#009af9" fill-rule="evenodd" fill-opacity="1" stroke="#000000" stroke-opacity="1" stroke-width="0.8"/>
<polyline clip-path="url(#clip842)" style="stroke:#e26f46; stroke-width:1; stroke-opacity:1; fill:none" points="
  82.9993,16.023 87.9536,16.0238 92.9079,16.0247 97.8622,16.0258 102.816,16.0271 107.771,16.0287 112.725,16.0304 117.679,16.0325 122.634,16.0349 127.588,16.0377 
  132.542,16.0409 137.497,16.0447 142.451,16.0491 147.405,16.0543 152.359,16.0603 157.314,16.0673 162.268,16.0755 167.222,16.085 172.177,16.0961 177.131,16.109 
  182.085,16.124 187.04,16.1415 191.994,16.1619 196.948,16.1856 201.902,16.2132 206.857,16.2453 211.811,16.2827 216.765,16.3261 221.72,16.3765 226.674,16.4351 
  231.628,16.503 236.582,16.5818 241.537,16.6731 246.491,16.7787 251.445,16.9008 256.4,17.0417 261.354,17.2041 266.308,17.391 271.263,17.6056 276.217,17.8516 
  281.171,18.1327 286.125,18.4531 291.08,18.8173 296.034,19.2297 300.988,19.6951 305.943,20.2183 310.897,20.8039 315.851,21.4564 320.806,22.18 325.76,22.9787 
  330.714,23.8558 335.668,24.8142 340.623,25.8562 345.577,26.9835 350.531,28.1975 355.486,29.4987 360.44,30.8878 365.394,32.3646 370.349,33.9293 375.303,35.5817 
  380.257,37.3218 385.211,39.1494 390.166,41.0647 395.12,43.0677 400.074,45.1585 405.029,47.3372 409.983,49.6036 414.937,51.9573 419.891,54.3975 424.846,56.923 
  429.8,59.5319 434.754,62.222 439.709,64.9903 444.663,67.8334 449.617,70.7474 454.572,73.728 459.526,76.7707 464.48,79.8708 469.434,83.0237 474.389,86.2245 
  479.343,89.4687 484.297,92.752 489.252,96.0702 494.206,99.4195 499.16,102.796 504.115,106.197 509.069,109.62 514.023,113.061 518.977,116.518 523.932,119.99 
  528.886,123.474 533.84,126.968 538.795,130.472 543.749,133.984 548.703,137.503 553.658,141.028 558.612,144.559 563.566,148.093 568.52,151.632 573.475,155.174 
  
  "/>
<path clip-path="url(#clip840)" d="
M68.285 352.724 L588.189 352.724 L588.189 203.903 L68.285 203.903  Z
  " fill="#ffffff" fill-rule="evenodd" fill-opacity="1"/>
<defs>
  <clipPath id="clip843">
    <rect x="68" y="203" width="521" height="150"/>
  </clipPath>
</defs>
<polyline clip-path="url(#clip843)" style="stroke:#000000; stroke-width:0.5; stroke-opacity:0.1; fill:none" points="
  82.9993,352.724 82.9993,203.903 
  "/>
<polyline clip-path="url(#clip843)" style="stroke:#000000; stroke-width:0.5; stroke-opacity:0.1; fill:none" points="
  231.582,352.724 231.582,203.903 
  "/>
<polyline clip-path="url(#clip843)" style="stroke:#000000; stroke-width:0.5; stroke-opacity:0.1; fill:none" points="
  380.164,352.724 380.164,203.903 
  "/>
<polyline clip-path="url(#clip843)" style="stroke:#000000; stroke-width:0.5; stroke-opacity:0.1; fill:none" points="
  528.747,352.724 528.747,203.903 
  "/>
<polyline clip-path="url(#clip840)" style="stroke:#000000; stroke-width:1; stroke-opacity:1; fill:none" points="
  68.285,352.724 588.189,352.724 
  "/>
<polyline clip-path="url(#clip840)" style="stroke:#000000; stroke-width:1; stroke-opacity:1; fill:none" points="
  82.9993,352.724 82.9993,350.938 
  "/>
<polyline clip-path="url(#clip840)" style="stroke:#000000; stroke-width:1; stroke-opacity:1; fill:none" points="
  231.582,352.724 231.582,350.938 
  "/>
<polyline clip-path="url(#clip840)" style="stroke:#000000; stroke-width:1; stroke-opacity:1; fill:none" points="
  380.164,352.724 380.164,350.938 
  "/>
<polyline clip-path="url(#clip840)" style="stroke:#000000; stroke-width:1; stroke-opacity:1; fill:none" points="
  528.747,352.724 528.747,350.938 
  "/>
<path clip-path="url(#clip840)" d="M 0 0 M71.6227 372.292 L73.5324 372.292 L73.5324 365.701 L71.4549 366.117 L71.4549 365.053 L73.5209 364.636 L74.6898 364.636 L74.6898 372.292 L76.5996 372.292 L76.5996 373.276 L71.6227 373.276 L71.6227 372.292 Z" fill="#000000" fill-rule="evenodd" fill-opacity="1" /><path clip-path="url(#clip840)" d="M 0 0 M80.3669 365.406 Q79.4641 365.406 79.007 366.297 Q78.5556 367.182 78.5556 368.965 Q78.5556 370.741 79.007 371.632 Q79.4641 372.518 80.3669 372.518 Q81.2755 372.518 81.7268 371.632 Q82.184 370.741 82.184 368.965 Q82.184 367.182 81.7268 366.297 Q81.2755 365.406 80.3669 365.406 M80.3669 364.48 Q81.8194 364.48 82.5833 365.631 Q83.353 366.777 83.353 368.965 Q83.353 371.146 82.5833 372.298 Q81.8194 373.444 80.3669 373.444 Q78.9144 373.444 78.1447 372.298 Q77.3808 371.146 77.3808 368.965 Q77.3808 366.777 78.1447 365.631 Q78.9144 364.48 80.3669 364.48 Z" fill="#000000" fill-rule="evenodd" fill-opacity="1" /><path clip-path="url(#clip840)" d="M 0 0 M83.353 363.005 L89.3809 363.005 L89.3809 363.804 L83.353 363.804 L83.353 363.005 Z" fill="#000000" fill-rule="evenodd" fill-opacity="1" /><path clip-path="url(#clip840)" d="M 0 0 M91.2287 365.624 L94.5436 365.624 L94.5436 366.423 L90.0862 366.423 L90.0862 365.624 Q90.6269 365.064 91.5579 364.124 Q92.4936 363.179 92.7334 362.906 Q93.1895 362.394 93.3681 362.041 Q93.5515 361.684 93.5515 361.341 Q93.5515 360.781 93.1565 360.428 Q92.7663 360.076 92.1362 360.076 Q91.6895 360.076 91.1911 360.231 Q90.6974 360.386 90.1332 360.701 L90.1332 359.742 Q90.7068 359.512 91.2052 359.394 Q91.7036 359.276 92.1174 359.276 Q93.2083 359.276 93.8571 359.822 Q94.506 360.367 94.506 361.279 Q94.506 361.712 94.3414 362.102 Q94.1816 362.488 93.7537 363.014 Q93.6361 363.151 93.0061 363.804 Q92.376 364.453 91.2287 365.624 Z" fill="#000000" fill-rule="evenodd" fill-opacity="1" /><path clip-path="url(#clip840)" d="M 0 0 M220.168 372.292 L222.077 372.292 L222.077 365.701 L220 366.117 L220 365.053 L222.066 364.636 L223.235 364.636 L223.235 372.292 L225.144 372.292 L225.144 373.276 L220.168 373.276 L220.168 372.292 Z" fill="#000000" fill-rule="evenodd" fill-opacity="1" /><path clip-path="url(#clip840)" d="M 0 0 M228.912 365.406 Q228.009 365.406 227.552 366.297 Q227.1 367.182 227.1 368.965 Q227.1 370.741 227.552 371.632 Q228.009 372.518 228.912 372.518 Q229.82 372.518 230.272 371.632 Q230.729 370.741 230.729 368.965 Q230.729 367.182 230.272 366.297 Q229.82 365.406 228.912 365.406 M228.912 364.48 Q230.364 364.48 231.128 365.631 Q231.898 366.777 231.898 368.965 Q231.898 371.146 231.128 372.298 Q230.364 373.444 228.912 373.444 Q227.459 373.444 226.69 372.298 Q225.926 371.146 225.926 368.965 Q225.926 366.777 226.69 365.631 Q227.459 364.48 228.912 364.48 Z" fill="#000000" fill-rule="evenodd" fill-opacity="1" /><path clip-path="url(#clip840)" d="M 0 0 M231.898 363.005 L237.926 363.005 L237.926 363.804 L231.898 363.804 L231.898 363.005 Z" fill="#000000" fill-rule="evenodd" fill-opacity="1" /><path clip-path="url(#clip840)" d="M 0 0 M239.12 365.624 L240.672 365.624 L240.672 360.269 L238.984 360.607 L238.984 359.742 L240.662 359.403 L241.612 359.403 L241.612 365.624 L243.164 365.624 L243.164 366.423 L239.12 366.423 L239.12 365.624 Z" fill="#000000" fill-rule="evenodd" fill-opacity="1" /><path clip-path="url(#clip840)" d="M 0 0 M371.957 372.292 L373.867 372.292 L373.867 365.701 L371.789 366.117 L371.789 365.053 L373.855 364.636 L375.024 364.636 L375.024 372.292 L376.934 372.292 L376.934 373.276 L371.957 373.276 L371.957 372.292 Z" fill="#000000" fill-rule="evenodd" fill-opacity="1" /><path clip-path="url(#clip840)" d="M 0 0 M380.701 365.406 Q379.798 365.406 379.341 366.297 Q378.89 367.182 378.89 368.965 Q378.89 370.741 379.341 371.632 Q379.798 372.518 380.701 372.518 Q381.61 372.518 382.061 371.632 Q382.518 370.741 382.518 368.965 Q382.518 367.182 382.061 366.297 Q381.61 365.406 380.701 365.406 M380.701 364.48 Q382.154 364.48 382.918 365.631 Q383.687 366.777 383.687 368.965 Q383.687 371.146 382.918 372.298 Q382.154 373.444 380.701 373.444 Q379.249 373.444 378.479 372.298 Q377.715 371.146 377.715 368.965 Q377.715 366.777 378.479 365.631 Q379.249 364.48 380.701 364.48 Z" fill="#000000" fill-rule="evenodd" fill-opacity="1" /><path clip-path="url(#clip840)" d="M 0 0 M386.113 360.029 Q385.38 360.029 385.008 360.753 Q384.642 361.472 384.642 362.92 Q384.642 364.364 385.008 365.088 Q385.38 365.807 386.113 365.807 Q386.852 365.807 387.218 365.088 Q387.59 364.364 387.59 362.92 Q387.59 361.472 387.218 360.753 Q386.852 360.029 386.113 360.029 M386.113 359.276 Q387.294 359.276 387.914 360.212 Q388.54 361.143 388.54 362.92 Q388.54 364.693 387.914 365.629 Q387.294 366.56 386.113 366.56 Q384.933 366.56 384.308 365.629 Q383.687 364.693 383.687 362.92 Q383.687 361.143 384.308 360.212 Q384.933 359.276 386.113 359.276 Z" fill="#000000" fill-rule="evenodd" fill-opacity="1" /><path clip-path="url(#clip840)" d="M 0 0 M520.876 372.292 L522.785 372.292 L522.785 365.701 L520.708 366.117 L520.708 365.053 L522.774 364.636 L523.943 364.636 L523.943 372.292 L525.853 372.292 L525.853 373.276 L520.876 373.276 L520.876 372.292 Z" fill="#000000" fill-rule="evenodd" fill-opacity="1" /><path clip-path="url(#clip840)" d="M 0 0 M529.62 365.406 Q528.717 365.406 528.26 366.297 Q527.809 367.182 527.809 368.965 Q527.809 370.741 528.26 371.632 Q528.717 372.518 529.62 372.518 Q530.528 372.518 530.98 371.632 Q531.437 370.741 531.437 368.965 Q531.437 367.182 530.98 366.297 Q530.528 365.406 529.62 365.406 M529.62 364.48 Q531.072 364.48 531.836 365.631 Q532.606 366.777 532.606 368.965 Q532.606 371.146 531.836 372.298 Q531.072 373.444 529.62 373.444 Q528.167 373.444 527.398 372.298 Q526.634 371.146 526.634 368.965 Q526.634 366.777 527.398 365.631 Q528.167 364.48 529.62 364.48 Z" fill="#000000" fill-rule="evenodd" fill-opacity="1" /><path clip-path="url(#clip840)" d="M 0 0 M532.742 365.624 L534.294 365.624 L534.294 360.269 L532.606 360.607 L532.606 359.742 L534.285 359.403 L535.234 359.403 L535.234 365.624 L536.786 365.624 L536.786 366.423 L532.742 366.423 L532.742 365.624 Z" fill="#000000" fill-rule="evenodd" fill-opacity="1" /><path clip-path="url(#clip840)" d="M 0 0 M325.81 393.777 Q322.508 393.777 322.508 389.051 Q322.508 387.181 323.741 384.634 L325.317 384.634 Q324.179 387.181 324.179 389.09 Q324.179 392.536 325.945 392.536 Q327.561 392.536 327.561 388.255 L328.913 388.255 Q328.913 392.536 330.529 392.536 Q332.295 392.536 332.295 389.09 Q332.295 387.181 331.157 384.634 L332.733 384.634 Q333.966 387.181 333.966 389.051 Q333.966 393.777 330.664 393.777 Q328.5 393.777 328.237 391.398 Q327.911 393.777 325.81 393.777 Z" fill="#000000" fill-rule="evenodd" fill-opacity="1" /><polyline clip-path="url(#clip843)" style="stroke:#000000; stroke-width:0.5; stroke-opacity:0.1; fill:none" points="
  68.285,330.125 588.189,330.125 
  "/>
<polyline clip-path="url(#clip843)" style="stroke:#000000; stroke-width:0.5; stroke-opacity:0.1; fill:none" points="
  68.285,305.577 588.189,305.577 
  "/>
<polyline clip-path="url(#clip843)" style="stroke:#000000; stroke-width:0.5; stroke-opacity:0.1; fill:none" points="
  68.285,281.028 588.189,281.028 
  "/>
<polyline clip-path="url(#clip843)" style="stroke:#000000; stroke-width:0.5; stroke-opacity:0.1; fill:none" points="
  68.285,256.48 588.189,256.48 
  "/>
<polyline clip-path="url(#clip843)" style="stroke:#000000; stroke-width:0.5; stroke-opacity:0.1; fill:none" points="
  68.285,231.931 588.189,231.931 
  "/>
<polyline clip-path="url(#clip843)" style="stroke:#000000; stroke-width:0.5; stroke-opacity:0.1; fill:none" points="
  68.285,207.383 588.189,207.383 
  "/>
<polyline clip-path="url(#clip840)" style="stroke:#000000; stroke-width:1; stroke-opacity:1; fill:none" points="
  68.285,352.724 68.285,203.903 
  "/>
<polyline clip-path="url(#clip840)" style="stroke:#000000; stroke-width:1; stroke-opacity:1; fill:none" points="
  68.285,330.125 74.5238,330.125 
  "/>
<polyline clip-path="url(#clip840)" style="stroke:#000000; stroke-width:1; stroke-opacity:1; fill:none" points="
  68.285,305.577 74.5238,305.577 
  "/>
<polyline clip-path="url(#clip840)" style="stroke:#000000; stroke-width:1; stroke-opacity:1; fill:none" points="
  68.285,281.028 74.5238,281.028 
  "/>
<polyline clip-path="url(#clip840)" style="stroke:#000000; stroke-width:1; stroke-opacity:1; fill:none" points="
  68.285,256.48 74.5238,256.48 
  "/>
<polyline clip-path="url(#clip840)" style="stroke:#000000; stroke-width:1; stroke-opacity:1; fill:none" points="
  68.285,231.931 74.5238,231.931 
  "/>
<polyline clip-path="url(#clip840)" style="stroke:#000000; stroke-width:1; stroke-opacity:1; fill:none" points="
  68.285,207.383 74.5238,207.383 
  "/>
<path clip-path="url(#clip840)" d="M 0 0 M32.2539 330.238 L39.6728 330.238 L39.6728 331.222 L32.2539 331.222 L32.2539 330.238 Z" fill="#000000" fill-rule="evenodd" fill-opacity="1" /><path clip-path="url(#clip840)" d="M 0 0 M41.9471 333.462 L46.027 333.462 L46.027 334.445 L40.5409 334.445 L40.5409 333.462 Q41.2064 332.773 42.3522 331.616 Q43.5038 330.452 43.799 330.117 Q44.3603 329.486 44.5802 329.052 Q44.8059 328.612 44.8059 328.19 Q44.8059 327.501 44.3198 327.067 Q43.8395 326.633 43.064 326.633 Q42.5143 326.633 41.9008 326.824 Q41.2932 327.015 40.5988 327.403 L40.5988 326.222 Q41.3048 325.939 41.9182 325.794 Q42.5316 325.649 43.0409 325.649 Q44.3835 325.649 45.1821 326.32 Q45.9807 326.992 45.9807 328.114 Q45.9807 328.647 45.7781 329.127 Q45.5814 329.602 45.0548 330.25 Q44.9101 330.418 44.1346 331.222 Q43.3592 332.021 41.9471 333.462 Z" fill="#000000" fill-rule="evenodd" fill-opacity="1" /><path clip-path="url(#clip840)" d="M 0 0 M47.3059 325.805 L51.895 325.805 L51.895 326.789 L48.3765 326.789 L48.3765 328.907 Q48.6311 328.82 48.8857 328.78 Q49.1404 328.734 49.395 328.734 Q50.8418 328.734 51.6867 329.526 Q52.5316 330.319 52.5316 331.673 Q52.5316 333.068 51.6635 333.844 Q50.7955 334.613 49.2156 334.613 Q48.6716 334.613 48.1045 334.521 Q47.5432 334.428 46.9413 334.243 L46.9413 333.068 Q47.4621 333.352 48.0177 333.491 Q48.5733 333.629 49.1925 333.629 Q50.1936 333.629 50.7781 333.103 Q51.3626 332.576 51.3626 331.673 Q51.3626 330.771 50.7781 330.244 Q50.1936 329.717 49.1925 329.717 Q48.7237 329.717 48.255 329.822 Q47.792 329.926 47.3059 330.146 L47.3059 325.805 Z" fill="#000000" fill-rule="evenodd" fill-opacity="1" /><path clip-path="url(#clip840)" d="M 0 0 M56.2989 326.575 Q55.3961 326.575 54.939 327.466 Q54.4876 328.352 54.4876 330.134 Q54.4876 331.911 54.939 332.802 Q55.3961 333.687 56.2989 333.687 Q57.2075 333.687 57.6589 332.802 Q58.116 331.911 58.116 330.134 Q58.116 328.352 57.6589 327.466 Q57.2075 326.575 56.2989 326.575 M56.2989 325.649 Q57.7514 325.649 58.5153 326.801 Q59.285 327.947 59.285 330.134 Q59.285 332.316 58.5153 333.467 Q57.7514 334.613 56.2989 334.613 Q54.8464 334.613 54.0767 333.467 Q53.3128 332.316 53.3128 330.134 Q53.3128 327.947 54.0767 326.801 Q54.8464 325.649 56.2989 325.649 Z" fill="#000000" fill-rule="evenodd" fill-opacity="1" /><path clip-path="url(#clip840)" d="M 0 0 M32.0051 305.69 L39.424 305.69 L39.424 306.674 L32.0051 306.674 L32.0051 305.69 Z" fill="#000000" fill-rule="evenodd" fill-opacity="1" /><path clip-path="url(#clip840)" d="M 0 0 M41.6983 308.913 L45.7781 308.913 L45.7781 309.897 L40.292 309.897 L40.292 308.913 Q40.9576 308.224 42.1034 307.067 Q43.255 305.904 43.5501 305.568 Q44.1115 304.937 44.3314 304.503 Q44.5571 304.064 44.5571 303.641 Q44.5571 302.952 44.071 302.518 Q43.5906 302.084 42.8152 302.084 Q42.2654 302.084 41.652 302.275 Q41.0444 302.466 40.3499 302.854 L40.3499 301.674 Q41.0559 301.39 41.6694 301.245 Q42.2828 301.101 42.792 301.101 Q44.1346 301.101 44.9332 301.772 Q45.7318 302.443 45.7318 303.566 Q45.7318 304.098 45.5293 304.579 Q45.3325 305.053 44.8059 305.701 Q44.6612 305.869 43.8858 306.674 Q43.1103 307.472 41.6983 308.913 Z" fill="#000000" fill-rule="evenodd" fill-opacity="1" /><path clip-path="url(#clip840)" d="M 0 0 M49.5455 302.027 Q48.6427 302.027 48.1855 302.918 Q47.7341 303.803 47.7341 305.586 Q47.7341 307.362 48.1855 308.253 Q48.6427 309.139 49.5455 309.139 Q50.454 309.139 50.9054 308.253 Q51.3626 307.362 51.3626 305.586 Q51.3626 303.803 50.9054 302.918 Q50.454 302.027 49.5455 302.027 M49.5455 301.101 Q50.998 301.101 51.7619 302.252 Q52.5316 303.398 52.5316 305.586 Q52.5316 307.767 51.7619 308.919 Q50.998 310.065 49.5455 310.065 Q48.0929 310.065 47.3233 308.919 Q46.5594 307.767 46.5594 305.586 Q46.5594 303.398 47.3233 302.252 Q48.0929 301.101 49.5455 301.101 Z" fill="#000000" fill-rule="evenodd" fill-opacity="1" /><path clip-path="url(#clip840)" d="M 0 0 M56.2989 302.027 Q55.3961 302.027 54.939 302.918 Q54.4876 303.803 54.4876 305.586 Q54.4876 307.362 54.939 308.253 Q55.3961 309.139 56.2989 309.139 Q57.2075 309.139 57.6589 308.253 Q58.116 307.362 58.116 305.586 Q58.116 303.803 57.6589 302.918 Q57.2075 302.027 56.2989 302.027 M56.2989 301.101 Q57.7514 301.101 58.5153 302.252 Q59.285 303.398 59.285 305.586 Q59.285 307.767 58.5153 308.919 Q57.7514 310.065 56.2989 310.065 Q54.8464 310.065 54.0767 308.919 Q53.3128 307.767 53.3128 305.586 Q53.3128 303.398 54.0767 302.252 Q54.8464 301.101 56.2989 301.101 Z" fill="#000000" fill-rule="evenodd" fill-opacity="1" /><path clip-path="url(#clip840)" d="M 0 0 M32.1613 281.141 L39.5802 281.141 L39.5802 282.125 L32.1613 282.125 L32.1613 281.141 Z" fill="#000000" fill-rule="evenodd" fill-opacity="1" /><path clip-path="url(#clip840)" d="M 0 0 M41.0501 284.365 L42.9599 284.365 L42.9599 277.773 L40.8823 278.19 L40.8823 277.125 L42.9483 276.708 L44.1173 276.708 L44.1173 284.365 L46.027 284.365 L46.027 285.348 L41.0501 285.348 L41.0501 284.365 Z" fill="#000000" fill-rule="evenodd" fill-opacity="1" /><path clip-path="url(#clip840)" d="M 0 0 M47.3059 276.708 L51.895 276.708 L51.895 277.692 L48.3765 277.692 L48.3765 279.81 Q48.6311 279.723 48.8857 279.683 Q49.1404 279.637 49.395 279.637 Q50.8418 279.637 51.6867 280.429 Q52.5316 281.222 52.5316 282.576 Q52.5316 283.971 51.6635 284.747 Q50.7955 285.516 49.2156 285.516 Q48.6716 285.516 48.1045 285.424 Q47.5432 285.331 46.9413 285.146 L46.9413 283.971 Q47.4621 284.255 48.0177 284.394 Q48.5733 284.532 49.1925 284.532 Q50.1936 284.532 50.7781 284.006 Q51.3626 283.479 51.3626 282.576 Q51.3626 281.674 50.7781 281.147 Q50.1936 280.62 49.1925 280.62 Q48.7237 280.62 48.255 280.725 Q47.792 280.829 47.3059 281.049 L47.3059 276.708 Z" fill="#000000" fill-rule="evenodd" fill-opacity="1" /><path clip-path="url(#clip840)" d="M 0 0 M56.2989 277.478 Q55.3961 277.478 54.939 278.369 Q54.4876 279.255 54.4876 281.037 Q54.4876 282.814 54.939 283.705 Q55.3961 284.59 56.2989 284.59 Q57.2075 284.59 57.6589 283.705 Q58.116 282.814 58.116 281.037 Q58.116 279.255 57.6589 278.369 Q57.2075 277.478 56.2989 277.478 M56.2989 276.552 Q57.7514 276.552 58.5153 277.704 Q59.285 278.85 59.285 281.037 Q59.285 283.219 58.5153 284.37 Q57.7514 285.516 56.2989 285.516 Q54.8464 285.516 54.0767 284.37 Q53.3128 283.219 53.3128 281.037 Q53.3128 278.85 54.0767 277.704 Q54.8464 276.552 56.2989 276.552 Z" fill="#000000" fill-rule="evenodd" fill-opacity="1" /><path clip-path="url(#clip840)" d="M 0 0 M31.9125 256.593 L39.3314 256.593 L39.3314 257.577 L31.9125 257.577 L31.9125 256.593 Z" fill="#000000" fill-rule="evenodd" fill-opacity="1" /><path clip-path="url(#clip840)" d="M 0 0 M40.8013 259.816 L42.711 259.816 L42.711 253.225 L40.6335 253.641 L40.6335 252.577 L42.6994 252.16 L43.8684 252.16 L43.8684 259.816 L45.7781 259.816 L45.7781 260.8 L40.8013 260.8 L40.8013 259.816 Z" fill="#000000" fill-rule="evenodd" fill-opacity="1" /><path clip-path="url(#clip840)" d="M 0 0 M49.5455 252.93 Q48.6427 252.93 48.1855 253.821 Q47.7341 254.706 47.7341 256.489 Q47.7341 258.265 48.1855 259.156 Q48.6427 260.042 49.5455 260.042 Q50.454 260.042 50.9054 259.156 Q51.3626 258.265 51.3626 256.489 Q51.3626 254.706 50.9054 253.821 Q50.454 252.93 49.5455 252.93 M49.5455 252.004 Q50.998 252.004 51.7619 253.155 Q52.5316 254.301 52.5316 256.489 Q52.5316 258.67 51.7619 259.822 Q50.998 260.968 49.5455 260.968 Q48.0929 260.968 47.3233 259.822 Q46.5594 258.67 46.5594 256.489 Q46.5594 254.301 47.3233 253.155 Q48.0929 252.004 49.5455 252.004 Z" fill="#000000" fill-rule="evenodd" fill-opacity="1" /><path clip-path="url(#clip840)" d="M 0 0 M56.2989 252.93 Q55.3961 252.93 54.939 253.821 Q54.4876 254.706 54.4876 256.489 Q54.4876 258.265 54.939 259.156 Q55.3961 260.042 56.2989 260.042 Q57.2075 260.042 57.6589 259.156 Q58.116 258.265 58.116 256.489 Q58.116 254.706 57.6589 253.821 Q57.2075 252.93 56.2989 252.93 M56.2989 252.004 Q57.7514 252.004 58.5153 253.155 Q59.285 254.301 59.285 256.489 Q59.285 258.67 58.5153 259.822 Q57.7514 260.968 56.2989 260.968 Q54.8464 260.968 54.0767 259.822 Q53.3128 258.67 53.3128 256.489 Q53.3128 254.301 54.0767 253.155 Q54.8464 252.004 56.2989 252.004 Z" fill="#000000" fill-rule="evenodd" fill-opacity="1" /><path clip-path="url(#clip840)" d="M 0 0 M38.608 232.044 L46.027 232.044 L46.027 233.028 L38.608 233.028 L38.608 232.044 Z" fill="#000000" fill-rule="evenodd" fill-opacity="1" /><path clip-path="url(#clip840)" d="M 0 0 M47.3059 227.611 L51.895 227.611 L51.895 228.595 L48.3765 228.595 L48.3765 230.713 Q48.6311 230.626 48.8857 230.586 Q49.1404 230.54 49.395 230.54 Q50.8418 230.54 51.6867 231.332 Q52.5316 232.125 52.5316 233.479 Q52.5316 234.874 51.6635 235.65 Q50.7955 236.419 49.2156 236.419 Q48.6716 236.419 48.1045 236.327 Q47.5432 236.234 46.9413 236.049 L46.9413 234.874 Q47.4621 235.158 48.0177 235.297 Q48.5733 235.435 49.1925 235.435 Q50.1936 235.435 50.7781 234.909 Q51.3626 234.382 51.3626 233.479 Q51.3626 232.577 50.7781 232.05 Q50.1936 231.523 49.1925 231.523 Q48.7237 231.523 48.255 231.628 Q47.792 231.732 47.3059 231.952 L47.3059 227.611 Z" fill="#000000" fill-rule="evenodd" fill-opacity="1" /><path clip-path="url(#clip840)" d="M 0 0 M56.2989 228.381 Q55.3961 228.381 54.939 229.272 Q54.4876 230.158 54.4876 231.94 Q54.4876 233.717 54.939 234.608 Q55.3961 235.493 56.2989 235.493 Q57.2075 235.493 57.6589 234.608 Q58.116 233.717 58.116 231.94 Q58.116 230.158 57.6589 229.272 Q57.2075 228.381 56.2989 228.381 M56.2989 227.455 Q57.7514 227.455 58.5153 228.607 Q59.285 229.753 59.285 231.94 Q59.285 234.122 58.5153 235.273 Q57.7514 236.419 56.2989 236.419 Q54.8464 236.419 54.0767 235.273 Q53.3128 234.122 53.3128 231.94 Q53.3128 229.753 54.0767 228.607 Q54.8464 227.455 56.2989 227.455 Z" fill="#000000" fill-rule="evenodd" fill-opacity="1" /><path clip-path="url(#clip840)" d="M 0 0 M56.2989 203.833 Q55.3961 203.833 54.939 204.724 Q54.4876 205.609 54.4876 207.392 Q54.4876 209.168 54.939 210.059 Q55.3961 210.945 56.2989 210.945 Q57.2075 210.945 57.6589 210.059 Q58.116 209.168 58.116 207.392 Q58.116 205.609 57.6589 204.724 Q57.2075 203.833 56.2989 203.833 M56.2989 202.907 Q57.7514 202.907 58.5153 204.058 Q59.285 205.204 59.285 207.392 Q59.285 209.573 58.5153 210.725 Q57.7514 211.871 56.2989 211.871 Q54.8464 211.871 54.0767 210.725 Q53.3128 209.573 53.3128 207.392 Q53.3128 205.204 54.0767 204.058 Q54.8464 202.907 56.2989 202.907 Z" fill="#000000" fill-rule="evenodd" fill-opacity="1" /><path clip-path="url(#clip840)" d="M 0 0 M11.6221 277.068 Q11.6221 277.585 12.7759 277.585 L18.2345 277.585 Q18.2345 276.829 17.4069 276.073 Q16.6669 275.397 14.8925 275.397 Q13.2374 275.397 12.3462 276.081 Q11.6221 276.638 11.6221 277.068 M10.3728 277.068 Q10.3728 275.954 11.4232 274.943 Q12.5451 273.853 14.8925 273.853 Q17.0488 273.853 18.3299 274.943 Q19.5394 275.97 19.5394 277.585 L22.7382 277.585 L22.7382 279.041 L19.5474 279.041 Q19.5474 280.625 18.3299 281.691 Q17.0886 282.773 14.9004 282.773 Q12.6247 282.773 11.4629 281.691 Q10.5956 280.88 10.3728 279.559 L11.6698 279.559 Q11.8528 280.084 12.4735 280.545 Q13.3886 281.23 14.9004 281.23 Q16.5078 281.23 17.4228 280.545 Q18.2424 279.933 18.2424 279.041 L12.7759 279.041 Q10.3728 279.041 10.3728 277.068 Z" fill="#000000" fill-rule="evenodd" fill-opacity="1" /><circle clip-path="url(#clip843)" cx="82.9993" cy="208.114" r="3" fill="#009af9" fill-rule="evenodd" fill-opacity="1" stroke="#000000" stroke-opacity="1" stroke-width="0.8"/>
<circle clip-path="url(#clip843)" cx="127.727" cy="208.846" r="3" fill="#009af9" fill-rule="evenodd" fill-opacity="1" stroke="#000000" stroke-opacity="1" stroke-width="0.8"/>
<circle clip-path="url(#clip843)" cx="231.582" cy="214.625" r="3" fill="#009af9" fill-rule="evenodd" fill-opacity="1" stroke="#000000" stroke-opacity="1" stroke-width="0.8"/>
<circle clip-path="url(#clip843)" cx="302.474" cy="227.616" r="3" fill="#009af9" fill-rule="evenodd" fill-opacity="1" stroke="#000000" stroke-opacity="1" stroke-width="0.8"/>
<circle clip-path="url(#clip843)" cx="335.437" cy="237.774" r="3" fill="#009af9" fill-rule="evenodd" fill-opacity="1" stroke="#000000" stroke-opacity="1" stroke-width="0.8"/>
<circle clip-path="url(#clip843)" cx="357.149" cy="245.561" r="3" fill="#009af9" fill-rule="evenodd" fill-opacity="1" stroke="#000000" stroke-opacity="1" stroke-width="0.8"/>
<circle clip-path="url(#clip843)" cx="380.164" cy="254.383" r="3" fill="#009af9" fill-rule="evenodd" fill-opacity="1" stroke="#000000" stroke-opacity="1" stroke-width="0.8"/>
<circle clip-path="url(#clip843)" cx="406.328" cy="264.841" r="3" fill="#009af9" fill-rule="evenodd" fill-opacity="1" stroke="#000000" stroke-opacity="1" stroke-width="0.8"/>
<circle clip-path="url(#clip843)" cx="424.892" cy="272.397" r="3" fill="#009af9" fill-rule="evenodd" fill-opacity="1" stroke="#000000" stroke-opacity="1" stroke-width="0.8"/>
<circle clip-path="url(#clip843)" cx="439.291" cy="278.343" r="3" fill="#009af9" fill-rule="evenodd" fill-opacity="1" stroke="#000000" stroke-opacity="1" stroke-width="0.8"/>
<circle clip-path="url(#clip843)" cx="451.056" cy="283.012" r="3" fill="#009af9" fill-rule="evenodd" fill-opacity="1" stroke="#000000" stroke-opacity="1" stroke-width="0.8"/>
<circle clip-path="url(#clip843)" cx="469.62" cy="290.47" r="3" fill="#009af9" fill-rule="evenodd" fill-opacity="1" stroke="#000000" stroke-opacity="1" stroke-width="0.8"/>
<circle clip-path="url(#clip843)" cx="514.348" cy="309.613" r="3" fill="#009af9" fill-rule="evenodd" fill-opacity="1" stroke="#000000" stroke-opacity="1" stroke-width="0.8"/>
<circle clip-path="url(#clip843)" cx="528.747" cy="316.928" r="3" fill="#009af9" fill-rule="evenodd" fill-opacity="1" stroke="#000000" stroke-opacity="1" stroke-width="0.8"/>
<circle clip-path="url(#clip843)" cx="573.475" cy="348.512" r="3" fill="#009af9" fill-rule="evenodd" fill-opacity="1" stroke="#000000" stroke-opacity="1" stroke-width="0.8"/>
<polyline clip-path="url(#clip843)" style="stroke:#e26f46; stroke-width:1; stroke-opacity:1; fill:none" points="
  82.9993,208.115 87.9536,208.173 92.9079,208.236 97.8622,208.304 102.816,208.378 107.771,208.457 112.725,208.543 117.679,208.635 122.634,208.735 127.588,208.843 
  132.542,208.959 137.497,209.085 142.451,209.221 147.405,209.367 152.359,209.525 157.314,209.696 162.268,209.88 167.222,210.078 172.177,210.293 177.131,210.524 
  182.085,210.774 187.04,211.043 191.994,211.333 196.948,211.647 201.902,211.984 206.857,212.348 211.811,212.74 216.765,213.162 221.72,213.617 226.674,214.106 
  231.628,214.632 236.582,215.197 241.537,215.805 246.491,216.457 251.445,217.155 256.4,217.904 261.354,218.704 266.308,219.56 271.263,220.472 276.217,221.443 
  281.171,222.475 286.125,223.569 291.08,224.726 296.034,225.947 300.988,227.232 305.943,228.579 310.897,229.989 315.851,231.457 320.806,232.983 325.76,234.563 
  330.714,236.194 335.668,237.87 340.623,239.59 345.577,241.348 350.531,243.14 355.486,244.964 360.44,246.815 365.394,248.69 370.349,250.588 375.303,252.506 
  380.257,254.443 385.211,256.395 390.166,258.363 395.12,260.344 400.074,262.337 405.029,264.339 409.983,266.35 414.937,268.366 419.891,270.385 424.846,272.405 
  429.8,274.424 434.754,276.439 439.709,278.45 444.663,280.454 449.617,282.453 454.572,284.446 459.526,286.435 464.48,288.422 469.434,290.412 474.389,292.408 
  479.343,294.417 484.297,296.444 489.252,298.497 494.206,300.583 499.16,302.714 504.115,304.897 509.069,307.144 514.023,309.466 518.977,311.875 523.932,314.384 
  528.886,317.007 533.84,319.759 538.795,322.656 543.749,325.713 548.703,328.948 553.658,332.38 558.612,336.03 563.566,339.918 568.52,344.067 573.475,348.501 
  
  "/>
</svg>
