<?xml version="1.0" encoding="utf-8"?>
<svg xmlns="http://www.w3.org/2000/svg" xmlns:xlink="http://www.w3.org/1999/xlink" width="525" height="350" viewBox="0 0 2100 1400">
<defs>
  <clipPath id="clip100">
    <rect x="0" y="0" width="2100" height="1400"/>
  </clipPath>
</defs>
<path clip-path="url(#clip100)" d="
M0 1400 L2100 1400 L2100 0 L0 0  Z
  " fill="#ffffff" fill-rule="evenodd" fill-opacity="1"/>
<defs>
  <clipPath id="clip101">
    <rect x="420" y="0" width="1471" height="1400"/>
  </clipPath>
</defs>
<path clip-path="url(#clip100)" d="
M177.152 1245.28 L2058.66 1245.28 L2058.66 41.3386 L177.152 41.3386  Z
  " fill="#ffffff" fill-rule="evenodd" fill-opacity="1"/>
<defs>
  <clipPath id="clip102">
    <rect x="177" y="41" width="1883" height="1205"/>
  </clipPath>
</defs>
<polyline clip-path="url(#clip102)" style="stroke:#000000; stroke-width:1.75; stroke-opacity:0.1; fill:none" points="
  280.638,1245.28 280.638,41.3386 
  "/>
<polyline clip-path="url(#clip102)" style="stroke:#000000; stroke-width:1.75; stroke-opacity:0.1; fill:none" points="
  838.817,1245.28 838.817,41.3386 
  "/>
<polyline clip-path="url(#clip102)" style="stroke:#000000; stroke-width:1.75; stroke-opacity:0.1; fill:none" points="
  1397,1245.28 1397,41.3386 
  "/>
<polyline clip-path="url(#clip102)" style="stroke:#000000; stroke-width:1.75; stroke-opacity:0.1; fill:none" points="
  1955.18,1245.28 1955.18,41.3386 
  "/>
<polyline clip-path="url(#clip100)" style="stroke:#000000; stroke-width:3.5; stroke-opacity:1; fill:none" points="
  177.152,1245.28 2058.66,1245.28 
  "/>
<polyline clip-path="url(#clip100)" style="stroke:#000000; stroke-width:3.5; stroke-opacity:1; fill:none" points="
  280.638,1245.28 280.638,1230.84 
  "/>
<polyline clip-path="url(#clip100)" style="stroke:#000000; stroke-width:3.5; stroke-opacity:1; fill:none" points="
  838.817,1245.28 838.817,1230.84 
  "/>
<polyline clip-path="url(#clip100)" style="stroke:#000000; stroke-width:3.5; stroke-opacity:1; fill:none" points="
  1397,1245.28 1397,1230.84 
  "/>
<polyline clip-path="url(#clip100)" style="stroke:#000000; stroke-width:3.5; stroke-opacity:1; fill:none" points="
  1955.18,1245.28 1955.18,1230.84 
  "/>
<path clip-path="url(#clip100)" d="M 0 0 M280.638 1270.82 Q277.478 1270.82 275.878 1273.94 Q274.298 1277.04 274.298 1283.28 Q274.298 1289.5 275.878 1292.62 Q277.478 1295.72 280.638 1295.72 Q283.818 1295.72 285.398 1292.62 Q286.998 1289.5 286.998 1283.28 Q286.998 1277.04 285.398 1273.94 Q283.818 1270.82 280.638 1270.82 M280.638 1267.58 Q285.722 1267.58 288.395 1271.61 Q291.089 1275.62 291.089 1283.28 Q291.089 1290.92 288.395 1294.95 Q285.722 1298.96 280.638 1298.96 Q275.554 1298.96 272.86 1294.95 Q270.187 1290.92 270.187 1283.28 Q270.187 1275.62 272.86 1271.61 Q275.554 1267.58 280.638 1267.58 Z" fill="#000000" fill-rule="evenodd" fill-opacity="1" /><path clip-path="url(#clip100)" d="M 0 0 M818.583 1294.93 L825.267 1294.93 L825.267 1271.86 L817.995 1273.32 L817.995 1269.59 L825.226 1268.13 L829.318 1268.13 L829.318 1294.93 L836.002 1294.93 L836.002 1298.37 L818.583 1298.37 L818.583 1294.93 Z" fill="#000000" fill-rule="evenodd" fill-opacity="1" /><path clip-path="url(#clip100)" d="M 0 0 M849.187 1270.82 Q846.028 1270.82 844.427 1273.94 Q842.848 1277.04 842.848 1283.28 Q842.848 1289.5 844.427 1292.62 Q846.028 1295.72 849.187 1295.72 Q852.367 1295.72 853.947 1292.62 Q855.547 1289.5 855.547 1283.28 Q855.547 1277.04 853.947 1273.94 Q852.367 1270.82 849.187 1270.82 M849.187 1267.58 Q854.271 1267.58 856.945 1271.61 Q859.639 1275.62 859.639 1283.28 Q859.639 1290.92 856.945 1294.95 Q854.271 1298.96 849.187 1298.96 Q844.103 1298.96 841.41 1294.95 Q838.736 1290.92 838.736 1283.28 Q838.736 1275.62 841.41 1271.61 Q844.103 1267.58 849.187 1267.58 Z" fill="#000000" fill-rule="evenodd" fill-opacity="1" /><path clip-path="url(#clip100)" d="M 0 0 M1380.5 1294.93 L1394.78 1294.93 L1394.78 1298.37 L1375.58 1298.37 L1375.58 1294.93 Q1377.91 1292.52 1381.92 1288.47 Q1385.95 1284.39 1386.98 1283.22 Q1388.94 1281.01 1389.71 1279.49 Q1390.5 1277.95 1390.5 1276.48 Q1390.5 1274.06 1388.8 1272.55 Q1387.12 1271.03 1384.41 1271.03 Q1382.48 1271.03 1380.34 1271.7 Q1378.21 1272.36 1375.78 1273.72 L1375.78 1269.59 Q1378.25 1268.6 1380.4 1268.09 Q1382.54 1267.58 1384.33 1267.58 Q1389.03 1267.58 1391.82 1269.93 Q1394.62 1272.28 1394.62 1276.21 Q1394.62 1278.08 1393.91 1279.76 Q1393.22 1281.42 1391.38 1283.69 Q1390.87 1284.27 1388.15 1287.09 Q1385.44 1289.88 1380.5 1294.93 Z" fill="#000000" fill-rule="evenodd" fill-opacity="1" /><path clip-path="url(#clip100)" d="M 0 0 M1407.96 1270.82 Q1404.8 1270.82 1403.2 1273.94 Q1401.62 1277.04 1401.62 1283.28 Q1401.62 1289.5 1403.2 1292.62 Q1404.8 1295.72 1407.96 1295.72 Q1411.14 1295.72 1412.72 1292.62 Q1414.32 1289.5 1414.32 1283.28 Q1414.32 1277.04 1412.72 1273.94 Q1411.14 1270.82 1407.96 1270.82 M1407.96 1267.58 Q1413.05 1267.58 1415.72 1271.61 Q1418.42 1275.62 1418.42 1283.28 Q1418.42 1290.92 1415.72 1294.95 Q1413.05 1298.96 1407.96 1298.96 Q1402.88 1298.96 1400.19 1294.95 Q1397.51 1290.92 1397.51 1283.28 Q1397.51 1275.62 1400.19 1271.61 Q1402.88 1267.58 1407.96 1267.58 Z" fill="#000000" fill-rule="evenodd" fill-opacity="1" /><path clip-path="url(#clip100)" d="M 0 0 M1947.07 1282.07 Q1950.01 1282.69 1951.65 1284.68 Q1953.31 1286.66 1953.31 1289.58 Q1953.31 1294.06 1950.23 1296.51 Q1947.15 1298.96 1941.48 1298.96 Q1939.58 1298.96 1937.55 1298.57 Q1935.55 1298.21 1933.4 1297.46 L1933.4 1293.51 Q1935.1 1294.5 1937.13 1295.01 Q1939.15 1295.51 1941.36 1295.51 Q1945.21 1295.51 1947.22 1294 Q1949.24 1292.48 1949.24 1289.58 Q1949.24 1286.91 1947.36 1285.41 Q1945.49 1283.89 1942.15 1283.89 L1938.63 1283.89 L1938.63 1280.53 L1942.31 1280.53 Q1945.33 1280.53 1946.93 1279.33 Q1948.53 1278.12 1948.53 1275.85 Q1948.53 1273.52 1946.87 1272.28 Q1945.23 1271.03 1942.15 1271.03 Q1940.47 1271.03 1938.55 1271.39 Q1936.62 1271.76 1934.31 1272.53 L1934.31 1268.88 Q1936.64 1268.23 1938.67 1267.91 Q1940.71 1267.58 1942.52 1267.58 Q1947.17 1267.58 1949.89 1269.71 Q1952.6 1271.82 1952.6 1275.42 Q1952.6 1277.93 1951.16 1279.68 Q1949.73 1281.4 1947.07 1282.07 Z" fill="#000000" fill-rule="evenodd" fill-opacity="1" /><path clip-path="url(#clip100)" d="M 0 0 M1966.5 1270.82 Q1963.34 1270.82 1961.74 1273.94 Q1960.16 1277.04 1960.16 1283.28 Q1960.16 1289.5 1961.74 1292.62 Q1963.34 1295.72 1966.5 1295.72 Q1969.68 1295.72 1971.26 1292.62 Q1972.86 1289.5 1972.86 1283.28 Q1972.86 1277.04 1971.26 1273.94 Q1969.68 1270.82 1966.5 1270.82 M1966.5 1267.58 Q1971.58 1267.58 1974.25 1271.61 Q1976.95 1275.62 1976.95 1283.28 Q1976.95 1290.92 1974.25 1294.95 Q1971.58 1298.96 1966.5 1298.96 Q1961.41 1298.96 1958.72 1294.95 Q1956.05 1290.92 1956.05 1283.28 Q1956.05 1275.62 1958.72 1271.61 Q1961.41 1267.58 1966.5 1267.58 Z" fill="#000000" fill-rule="evenodd" fill-opacity="1" /><path clip-path="url(#clip100)" d="M 0 0 M1044.24 1331.99 L1044.24 1340.85 L1054.8 1340.85 L1054.8 1344.83 L1044.24 1344.83 L1044.24 1361.76 Q1044.24 1365.58 1045.27 1366.66 Q1046.33 1367.75 1049.53 1367.75 L1054.8 1367.75 L1054.8 1372.04 L1049.53 1372.04 Q1043.6 1372.04 1041.35 1369.84 Q1039.09 1367.61 1039.09 1361.76 L1039.09 1344.83 L1035.33 1344.83 L1035.33 1340.85 L1039.09 1340.85 L1039.09 1331.99 L1044.24 1331.99 Z" fill="#000000" fill-rule="evenodd" fill-opacity="1" /><path clip-path="url(#clip100)" d="M 0 0 M1090.61 1328.76 Q1086.88 1335.17 1085.07 1341.43 Q1083.26 1347.7 1083.26 1354.13 Q1083.26 1360.56 1085.07 1366.89 Q1086.91 1373.18 1090.61 1379.56 L1086.16 1379.56 Q1081.98 1373.01 1079.89 1366.69 Q1077.83 1360.37 1077.83 1354.13 Q1077.83 1347.92 1079.89 1341.63 Q1081.95 1335.33 1086.16 1328.76 L1090.61 1328.76 Z" fill="#000000" fill-rule="evenodd" fill-opacity="1" /><path clip-path="url(#clip100)" d="M 0 0 M1120.27 1346.83 Q1122.2 1343.38 1124.87 1341.74 Q1127.54 1340.09 1131.16 1340.09 Q1136.04 1340.09 1138.68 1343.52 Q1141.33 1346.92 1141.33 1353.21 L1141.33 1372.04 L1136.18 1372.04 L1136.18 1353.38 Q1136.18 1348.9 1134.59 1346.72 Q1133 1344.55 1129.74 1344.55 Q1125.76 1344.55 1123.45 1347.2 Q1121.14 1349.84 1121.14 1354.41 L1121.14 1372.04 L1115.98 1372.04 L1115.98 1353.38 Q1115.98 1348.87 1114.4 1346.72 Q1112.81 1344.55 1109.5 1344.55 Q1105.57 1344.55 1103.26 1347.22 Q1100.95 1349.87 1100.95 1354.41 L1100.95 1372.04 L1095.79 1372.04 L1095.79 1340.85 L1100.95 1340.85 L1100.95 1345.69 Q1102.7 1342.82 1105.15 1341.46 Q1107.6 1340.09 1110.97 1340.09 Q1114.37 1340.09 1116.74 1341.82 Q1119.13 1343.55 1120.27 1346.83 Z" fill="#000000" fill-rule="evenodd" fill-opacity="1" /><path clip-path="url(#clip100)" d="M 0 0 M1146.7 1340.85 L1151.83 1340.85 L1151.83 1372.04 L1146.7 1372.04 L1146.7 1340.85 M1146.7 1328.7 L1151.83 1328.7 L1151.83 1335.19 L1146.7 1335.19 L1146.7 1328.7 Z" fill="#000000" fill-rule="evenodd" fill-opacity="1" /><path clip-path="url(#clip100)" d="M 0 0 M1183.13 1353.21 L1183.13 1372.04 L1178.01 1372.04 L1178.01 1353.38 Q1178.01 1348.95 1176.28 1346.75 Q1174.55 1344.55 1171.1 1344.55 Q1166.95 1344.55 1164.56 1347.2 Q1162.16 1349.84 1162.16 1354.41 L1162.16 1372.04 L1157.01 1372.04 L1157.01 1340.85 L1162.16 1340.85 L1162.16 1345.69 Q1164 1342.88 1166.48 1341.49 Q1168.98 1340.09 1172.24 1340.09 Q1177.62 1340.09 1180.37 1343.44 Q1183.13 1346.75 1183.13 1353.21 Z" fill="#000000" fill-rule="evenodd" fill-opacity="1" /><path clip-path="url(#clip100)" d="M 0 0 M1187.7 1328.76 L1192.15 1328.76 Q1196.33 1335.33 1198.39 1341.63 Q1200.48 1347.92 1200.48 1354.13 Q1200.48 1360.37 1198.39 1366.69 Q1196.33 1373.01 1192.15 1379.56 L1187.7 1379.56 Q1191.4 1373.18 1193.21 1366.89 Q1195.05 1360.56 1195.05 1354.13 Q1195.05 1347.7 1193.21 1341.43 Q1191.4 1335.17 1187.7 1328.76 Z" fill="#000000" fill-rule="evenodd" fill-opacity="1" /><polyline clip-path="url(#clip102)" style="stroke:#000000; stroke-width:1.75; stroke-opacity:0.1; fill:none" points="
  177.152,1211.21 2058.66,1211.21 
  "/>
<polyline clip-path="url(#clip102)" style="stroke:#000000; stroke-width:1.75; stroke-opacity:0.1; fill:none" points="
  177.152,984.049 2058.66,984.049 
  "/>
<polyline clip-path="url(#clip102)" style="stroke:#000000; stroke-width:1.75; stroke-opacity:0.1; fill:none" points="
  177.152,756.89 2058.66,756.89 
  "/>
<polyline clip-path="url(#clip102)" style="stroke:#000000; stroke-width:1.75; stroke-opacity:0.1; fill:none" points="
  177.152,529.731 2058.66,529.731 
  "/>
<polyline clip-path="url(#clip102)" style="stroke:#000000; stroke-width:1.75; stroke-opacity:0.1; fill:none" points="
  177.152,302.572 2058.66,302.572 
  "/>
<polyline clip-path="url(#clip102)" style="stroke:#000000; stroke-width:1.75; stroke-opacity:0.1; fill:none" points="
  177.152,75.4125 2058.66,75.4125 
  "/>
<polyline clip-path="url(#clip100)" style="stroke:#000000; stroke-width:3.5; stroke-opacity:1; fill:none" points="
  177.152,1245.28 177.152,41.3386 
  "/>
<polyline clip-path="url(#clip100)" style="stroke:#000000; stroke-width:3.5; stroke-opacity:1; fill:none" points="
  177.152,1211.21 199.73,1211.21 
  "/>
<polyline clip-path="url(#clip100)" style="stroke:#000000; stroke-width:3.5; stroke-opacity:1; fill:none" points="
  177.152,984.049 199.73,984.049 
  "/>
<polyline clip-path="url(#clip100)" style="stroke:#000000; stroke-width:3.5; stroke-opacity:1; fill:none" points="
  177.152,756.89 199.73,756.89 
  "/>
<polyline clip-path="url(#clip100)" style="stroke:#000000; stroke-width:3.5; stroke-opacity:1; fill:none" points="
  177.152,529.731 199.73,529.731 
  "/>
<polyline clip-path="url(#clip100)" style="stroke:#000000; stroke-width:3.5; stroke-opacity:1; fill:none" points="
  177.152,302.572 199.73,302.572 
  "/>
<polyline clip-path="url(#clip100)" style="stroke:#000000; stroke-width:3.5; stroke-opacity:1; fill:none" points="
  177.152,75.4125 199.73,75.4125 
  "/>
<path clip-path="url(#clip100)" d="M 0 0 M135.2 1198.78 Q132.041 1198.78 130.44 1201.9 Q128.861 1205 128.861 1211.24 Q128.861 1217.46 130.44 1220.58 Q132.041 1223.68 135.2 1223.68 Q138.38 1223.68 139.96 1220.58 Q141.56 1217.46 141.56 1211.24 Q141.56 1205 139.96 1201.9 Q138.38 1198.78 135.2 1198.78 M135.2 1195.54 Q140.284 1195.54 142.958 1199.57 Q145.652 1203.58 145.652 1211.24 Q145.652 1218.87 142.958 1222.91 Q140.284 1226.92 135.2 1226.92 Q130.116 1226.92 127.423 1222.91 Q124.749 1218.87 124.749 1211.24 Q124.749 1203.58 127.423 1199.57 Q130.116 1195.54 135.2 1195.54 Z" fill="#000000" fill-rule="evenodd" fill-opacity="1" /><path clip-path="url(#clip100)" d="M 0 0 M104.596 995.726 L111.28 995.726 L111.28 972.656 L104.008 974.114 L104.008 970.388 L111.239 968.929 L115.331 968.929 L115.331 995.726 L122.015 995.726 L122.015 999.169 L104.596 999.169 L104.596 995.726 Z" fill="#000000" fill-rule="evenodd" fill-opacity="1" /><path clip-path="url(#clip100)" d="M 0 0 M135.2 971.623 Q132.041 971.623 130.44 974.742 Q128.861 977.841 128.861 984.08 Q128.861 990.298 130.44 993.417 Q132.041 996.516 135.2 996.516 Q138.38 996.516 139.96 993.417 Q141.56 990.298 141.56 984.08 Q141.56 977.841 139.96 974.742 Q138.38 971.623 135.2 971.623 M135.2 968.382 Q140.284 968.382 142.958 972.413 Q145.652 976.423 145.652 984.08 Q145.652 991.716 142.958 995.746 Q140.284 999.757 135.2 999.757 Q130.116 999.757 127.423 995.746 Q124.749 991.716 124.749 984.08 Q124.749 976.423 127.423 972.413 Q130.116 968.382 135.2 968.382 Z" fill="#000000" fill-rule="evenodd" fill-opacity="1" /><path clip-path="url(#clip100)" d="M 0 0 M107.735 768.567 L122.015 768.567 L122.015 772.01 L102.813 772.01 L102.813 768.567 Q105.143 766.157 109.153 762.106 Q113.184 758.034 114.217 756.86 Q116.181 754.652 116.951 753.133 Q117.741 751.594 117.741 750.115 Q117.741 747.705 116.039 746.186 Q114.358 744.666 111.644 744.666 Q109.72 744.666 107.573 745.335 Q105.446 746.003 103.016 747.36 L103.016 743.228 Q105.487 742.236 107.634 741.73 Q109.781 741.223 111.563 741.223 Q116.262 741.223 119.057 743.573 Q121.853 745.922 121.853 749.852 Q121.853 751.715 121.144 753.396 Q120.455 755.057 118.612 757.326 Q118.105 757.913 115.391 760.728 Q112.677 763.523 107.735 768.567 Z" fill="#000000" fill-rule="evenodd" fill-opacity="1" /><path clip-path="url(#clip100)" d="M 0 0 M135.2 744.464 Q132.041 744.464 130.44 747.583 Q128.861 750.682 128.861 756.92 Q128.861 763.139 130.44 766.258 Q132.041 769.357 135.2 769.357 Q138.38 769.357 139.96 766.258 Q141.56 763.139 141.56 756.92 Q141.56 750.682 139.96 747.583 Q138.38 744.464 135.2 744.464 M135.2 741.223 Q140.284 741.223 142.958 745.254 Q145.652 749.264 145.652 756.92 Q145.652 764.556 142.958 768.587 Q140.284 772.597 135.2 772.597 Q130.116 772.597 127.423 768.587 Q124.749 764.556 124.749 756.92 Q124.749 749.264 127.423 745.254 Q130.116 741.223 135.2 741.223 Z" fill="#000000" fill-rule="evenodd" fill-opacity="1" /><path clip-path="url(#clip100)" d="M 0 0 M115.776 528.546 Q118.713 529.174 120.354 531.159 Q122.015 533.144 122.015 536.06 Q122.015 540.537 118.936 542.987 Q115.857 545.438 110.186 545.438 Q108.282 545.438 106.257 545.053 Q104.251 544.689 102.104 543.939 L102.104 539.99 Q103.806 540.982 105.831 541.489 Q107.857 541.995 110.064 541.995 Q113.913 541.995 115.918 540.476 Q117.943 538.957 117.943 536.06 Q117.943 533.387 116.06 531.888 Q114.196 530.369 110.854 530.369 L107.33 530.369 L107.33 527.007 L111.016 527.007 Q114.034 527.007 115.634 525.812 Q117.234 524.596 117.234 522.328 Q117.234 519.999 115.574 518.763 Q113.933 517.507 110.854 517.507 Q109.173 517.507 107.249 517.872 Q105.325 518.236 103.016 519.006 L103.016 515.36 Q105.345 514.712 107.371 514.388 Q109.416 514.064 111.219 514.064 Q115.877 514.064 118.592 516.191 Q121.306 518.297 121.306 521.902 Q121.306 524.414 119.868 526.156 Q118.43 527.878 115.776 528.546 Z" fill="#000000" fill-rule="evenodd" fill-opacity="1" /><path clip-path="url(#clip100)" d="M 0 0 M135.2 517.305 Q132.041 517.305 130.44 520.424 Q128.861 523.523 128.861 529.761 Q128.861 535.979 130.44 539.099 Q132.041 542.198 135.2 542.198 Q138.38 542.198 139.96 539.099 Q141.56 535.979 141.56 529.761 Q141.56 523.523 139.96 520.424 Q138.38 517.305 135.2 517.305 M135.2 514.064 Q140.284 514.064 142.958 518.095 Q145.652 522.105 145.652 529.761 Q145.652 537.397 142.958 541.428 Q140.284 545.438 135.2 545.438 Q130.116 545.438 127.423 541.428 Q124.749 537.397 124.749 529.761 Q124.749 522.105 127.423 518.095 Q130.116 514.064 135.2 514.064 Z" fill="#000000" fill-rule="evenodd" fill-opacity="1" /><path clip-path="url(#clip100)" d="M 0 0 M113.629 291.016 L103.299 307.159 L113.629 307.159 L113.629 291.016 M112.556 287.452 L117.7 287.452 L117.7 307.159 L122.015 307.159 L122.015 310.562 L117.7 310.562 L117.7 317.692 L113.629 317.692 L113.629 310.562 L99.9776 310.562 L99.9776 306.612 L112.556 287.452 Z" fill="#000000" fill-rule="evenodd" fill-opacity="1" /><path clip-path="url(#clip100)" d="M 0 0 M135.2 290.146 Q132.041 290.146 130.44 293.265 Q128.861 296.364 128.861 302.602 Q128.861 308.82 130.44 311.939 Q132.041 315.038 135.2 315.038 Q138.38 315.038 139.96 311.939 Q141.56 308.82 141.56 302.602 Q141.56 296.364 139.96 293.265 Q138.38 290.146 135.2 290.146 M135.2 286.905 Q140.284 286.905 142.958 290.935 Q145.652 294.946 145.652 302.602 Q145.652 310.238 142.958 314.269 Q140.284 318.279 135.2 318.279 Q130.116 318.279 127.423 314.269 Q124.749 310.238 124.749 302.602 Q124.749 294.946 127.423 290.935 Q130.116 286.905 135.2 286.905 Z" fill="#000000" fill-rule="evenodd" fill-opacity="1" /><path clip-path="url(#clip100)" d="M 0 0 M103.725 60.2925 L119.787 60.2925 L119.787 63.7357 L107.472 63.7357 L107.472 71.1489 Q108.363 70.8451 109.254 70.7033 Q110.145 70.5413 111.037 70.5413 Q116.1 70.5413 119.057 73.3161 Q122.015 76.091 122.015 80.8305 Q122.015 85.7119 118.976 88.426 Q115.938 91.1198 110.409 91.1198 Q108.505 91.1198 106.52 90.7958 Q104.555 90.4717 102.449 89.8236 L102.449 85.7119 Q104.272 86.7044 106.216 87.1905 Q108.16 87.6766 110.328 87.6766 Q113.832 87.6766 115.877 85.8334 Q117.923 83.9903 117.923 80.8305 Q117.923 77.6708 115.877 75.8277 Q113.832 73.9845 110.328 73.9845 Q108.687 73.9845 107.046 74.3491 Q105.426 74.7137 103.725 75.4834 L103.725 60.2925 Z" fill="#000000" fill-rule="evenodd" fill-opacity="1" /><path clip-path="url(#clip100)" d="M 0 0 M135.2 62.9863 Q132.041 62.9863 130.44 66.1055 Q128.861 69.2045 128.861 75.4428 Q128.861 81.661 130.44 84.7802 Q132.041 87.8791 135.2 87.8791 Q138.38 87.8791 139.96 84.7802 Q141.56 81.661 141.56 75.4428 Q141.56 69.2045 139.96 66.1055 Q138.38 62.9863 135.2 62.9863 M135.2 59.7456 Q140.284 59.7456 142.958 63.7762 Q145.652 67.7866 145.652 75.4428 Q145.652 83.0788 142.958 87.1094 Q140.284 91.1198 135.2 91.1198 Q130.116 91.1198 127.423 87.1094 Q124.749 83.0788 124.749 75.4428 Q124.749 67.7866 127.423 63.7762 Q130.116 59.7456 135.2 59.7456 Z" fill="#000000" fill-rule="evenodd" fill-opacity="1" /><path clip-path="url(#clip100)" d="M 0 0 M36.5087 741.496 Q37.1214 739.685 39.1266 737.986 Q41.1318 736.26 44.6409 734.533 L56.0036 728.824 L56.0036 734.867 L45.3371 740.187 Q41.1596 742.247 39.795 744.197 Q38.4303 746.119 38.4303 749.461 L38.4303 755.588 L56.0036 755.588 L56.0036 761.213 L14.4236 761.213 L14.4236 748.514 Q14.4236 741.384 17.4036 737.875 Q20.3835 734.366 26.3991 734.366 Q30.326 734.366 32.916 736.204 Q35.5061 738.014 36.5087 741.496 M19.0467 755.588 L33.8072 755.588 L33.8072 748.514 Q33.8072 744.448 31.9413 742.387 Q30.0475 740.298 26.3991 740.298 Q22.7508 740.298 20.9127 742.387 Q19.0467 744.448 19.0467 748.514 L19.0467 755.588 Z" fill="#000000" fill-rule="evenodd" fill-opacity="1" /><path clip-path="url(#clip100)" d="M 0 0 M39.1266 699.331 L41.6331 699.331 L41.6331 722.892 Q46.9245 722.558 49.7095 719.717 Q52.4667 716.848 52.4667 711.752 Q52.4667 708.8 51.7426 706.043 Q51.0185 703.258 49.5703 700.528 L54.4162 700.528 Q55.5859 703.285 56.1986 706.182 Q56.8113 709.078 56.8113 712.058 Q56.8113 719.522 52.4667 723.894 Q48.1221 728.239 40.714 728.239 Q33.0553 728.239 28.5714 724.117 Q24.0597 719.968 24.0597 712.949 Q24.0597 706.655 28.1258 703.007 Q32.1641 699.331 39.1266 699.331 M37.6227 704.455 Q33.4173 704.511 30.9108 706.822 Q28.4043 709.106 28.4043 712.894 Q28.4043 717.183 30.8273 719.773 Q33.2502 722.335 37.6505 722.725 L37.6227 704.455 Z" fill="#000000" fill-rule="evenodd" fill-opacity="1" /><path clip-path="url(#clip100)" d="M 0 0 M25.7307 674.071 L30.5766 674.071 Q29.4626 676.243 28.9056 678.582 Q28.3486 680.922 28.3486 683.428 Q28.3486 687.244 29.5183 689.165 Q30.688 691.059 33.0274 691.059 Q34.8098 691.059 35.8403 689.695 Q36.8429 688.33 37.7619 684.208 L38.1518 682.454 Q39.3215 676.995 41.466 674.711 Q43.5826 672.4 47.398 672.4 Q51.7426 672.4 54.2769 675.853 Q56.8113 679.279 56.8113 685.294 Q56.8113 687.801 56.31 690.53 Q55.8365 693.232 54.8618 696.239 L49.5703 696.239 Q51.0463 693.399 51.7983 690.641 Q52.5224 687.884 52.5224 685.183 Q52.5224 681.562 51.297 679.613 Q50.0437 677.663 47.7879 677.663 Q45.6992 677.663 44.5852 679.084 Q43.4712 680.476 42.4407 685.239 L42.023 687.021 Q41.0204 691.783 38.9595 693.9 Q36.8707 696.017 33.2502 696.017 Q28.8499 696.017 26.4548 692.897 Q24.0597 689.778 24.0597 684.041 Q24.0597 681.2 24.4775 678.694 Q24.8952 676.187 25.7307 674.071 Z" fill="#000000" fill-rule="evenodd" fill-opacity="1" /><path clip-path="url(#clip100)" d="M 0 0 M51.3248 662.067 L67.8677 662.067 L67.8677 667.22 L24.8117 667.22 L24.8117 662.067 L29.5462 662.067 Q26.7612 660.452 25.4244 658.001 Q24.0597 655.523 24.0597 652.097 Q24.0597 646.416 28.5714 642.879 Q33.0831 639.314 40.4355 639.314 Q47.7879 639.314 52.2996 642.879 Q56.8113 646.416 56.8113 652.097 Q56.8113 655.523 55.4745 658.001 Q54.1098 660.452 51.3248 662.067 M40.4355 644.633 Q34.782 644.633 31.5792 646.973 Q28.3486 649.284 28.3486 653.35 Q28.3486 657.416 31.5792 659.756 Q34.782 662.067 40.4355 662.067 Q46.089 662.067 49.3196 659.756 Q52.5224 657.416 52.5224 653.35 Q52.5224 649.284 49.3196 646.973 Q46.089 644.633 40.4355 644.633 Z" fill="#000000" fill-rule="evenodd" fill-opacity="1" /><path clip-path="url(#clip100)" d="M 0 0 M12.7248 603.499 Q19.1303 607.231 25.3965 609.041 Q31.6628 610.851 38.0961 610.851 Q44.5295 610.851 50.8514 609.041 Q57.1455 607.203 63.5231 603.499 L63.5231 607.955 Q56.9784 612.132 50.6564 614.221 Q44.3345 616.282 38.0961 616.282 Q31.8856 616.282 25.5915 614.221 Q19.2974 612.16 12.7248 607.955 L12.7248 603.499 Z" fill="#000000" fill-rule="evenodd" fill-opacity="1" /><path clip-path="url(#clip100)" d="M 0 0 M43.694 598.653 L24.8117 598.653 L24.8117 593.529 L43.499 593.529 Q47.9271 593.529 50.1551 591.802 Q52.3553 590.075 52.3553 586.622 Q52.3553 582.472 49.7095 580.077 Q47.0638 577.654 42.4964 577.654 L24.8117 577.654 L24.8117 572.53 L56.0036 572.53 L56.0036 577.654 L51.2134 577.654 Q54.0541 579.52 55.4466 581.999 Q56.8113 584.45 56.8113 587.708 Q56.8113 593.083 53.4693 595.868 Q50.1273 598.653 43.694 598.653 M24.0597 585.759 L24.0597 585.759 Z" fill="#000000" fill-rule="evenodd" fill-opacity="1" /><path clip-path="url(#clip100)" d="M 0 0 M40.3241 552.979 Q40.3241 559.19 41.7445 561.585 Q43.1648 563.98 46.5903 563.98 Q49.3196 563.98 50.9349 562.197 Q52.5224 560.387 52.5224 557.296 Q52.5224 553.035 49.5146 550.473 Q46.4789 547.883 41.466 547.883 L40.3241 547.883 L40.3241 552.979 M38.2075 542.758 L56.0036 542.758 L56.0036 547.883 L51.2691 547.883 Q54.1098 549.637 55.4745 552.255 Q56.8113 554.873 56.8113 558.66 Q56.8113 563.451 54.1377 566.291 Q51.4362 569.104 46.9245 569.104 Q41.6609 569.104 38.9873 565.595 Q36.3137 562.058 36.3137 555.068 L36.3137 547.883 L35.8124 547.883 Q32.2755 547.883 30.3538 550.222 Q28.4043 552.534 28.4043 556.739 Q28.4043 559.412 29.0449 561.947 Q29.6854 564.481 30.9665 566.821 L26.232 566.821 Q25.1459 564.008 24.6167 561.362 Q24.0597 558.716 24.0597 556.21 Q24.0597 549.442 27.5688 546.1 Q31.0779 542.758 38.2075 542.758 Z" fill="#000000" fill-rule="evenodd" fill-opacity="1" /><path clip-path="url(#clip100)" d="M 0 0 M12.7248 538.191 L12.7248 533.735 Q19.2974 529.557 25.5915 527.496 Q31.8856 525.408 38.0961 525.408 Q44.3345 525.408 50.6564 527.496 Q56.9784 529.557 63.5231 533.735 L63.5231 538.191 Q57.1455 534.487 50.8514 532.676 Q44.5295 530.838 38.0961 530.838 Q31.6628 530.838 25.3965 532.676 Q19.1303 534.487 12.7248 538.191 Z" fill="#000000" fill-rule="evenodd" fill-opacity="1" /><circle clip-path="url(#clip102)" cx="280.638" cy="1211.21" r="12" fill="#009af9" fill-rule="evenodd" fill-opacity="1" stroke="#000000" stroke-opacity="1" stroke-width="2.8"/>
<circle clip-path="url(#clip102)" cx="336.456" cy="1211.21" r="12" fill="#009af9" fill-rule="evenodd" fill-opacity="1" stroke="#000000" stroke-opacity="1" stroke-width="2.8"/>
<circle clip-path="url(#clip102)" cx="392.274" cy="1211.21" r="12" fill="#009af9" fill-rule="evenodd" fill-opacity="1" stroke="#000000" stroke-opacity="1" stroke-width="2.8"/>
<circle clip-path="url(#clip102)" cx="448.092" cy="1120.34" r="12" fill="#009af9" fill-rule="evenodd" fill-opacity="1" stroke="#000000" stroke-opacity="1" stroke-width="2.8"/>
<circle clip-path="url(#clip102)" cx="503.91" cy="984.049" r="12" fill="#009af9" fill-rule="evenodd" fill-opacity="1" stroke="#000000" stroke-opacity="1" stroke-width="2.8"/>
<circle clip-path="url(#clip102)" cx="559.727" cy="779.606" r="12" fill="#009af9" fill-rule="evenodd" fill-opacity="1" stroke="#000000" stroke-opacity="1" stroke-width="2.8"/>
<circle clip-path="url(#clip102)" cx="615.545" cy="597.879" r="12" fill="#009af9" fill-rule="evenodd" fill-opacity="1" stroke="#000000" stroke-opacity="1" stroke-width="2.8"/>
<circle clip-path="url(#clip102)" cx="671.363" cy="416.151" r="12" fill="#009af9" fill-rule="evenodd" fill-opacity="1" stroke="#000000" stroke-opacity="1" stroke-width="2.8"/>
<circle clip-path="url(#clip102)" cx="727.181" cy="279.856" r="12" fill="#009af9" fill-rule="evenodd" fill-opacity="1" stroke="#000000" stroke-opacity="1" stroke-width="2.8"/>
<circle clip-path="url(#clip102)" cx="782.999" cy="188.992" r="12" fill="#009af9" fill-rule="evenodd" fill-opacity="1" stroke="#000000" stroke-opacity="1" stroke-width="2.8"/>
<circle clip-path="url(#clip102)" cx="1955.18" cy="75.4125" r="12" fill="#009af9" fill-rule="evenodd" fill-opacity="1" stroke="#000000" stroke-opacity="1" stroke-width="2.8"/>
<polyline clip-path="url(#clip102)" style="stroke:#e26f46; stroke-width:7; stroke-opacity:1; fill:none" points="
  230.402,1211.21 234.735,1211.21 239.069,1211.21 243.403,1211.21 247.736,1211.21 287.807,1211.21 327.877,1211.21 367.948,1211.21 408.018,1211.21 420.058,1211.21 
  432.099,1211.21 435.109,1211.21 438.119,1211.21 441.129,1195.66 444.139,1179.67 450.159,1148.38 456.179,1117.98 480.26,1004.75 504.341,903.808 524.701,827.07 
  545.06,757.44 565.42,694.26 585.78,636.933 607.897,580.661 630.013,530.029 652.13,484.47 674.246,443.477 715.025,378.358 755.804,324.761 799.524,277.784 
  843.243,239.658 893.896,204.374 944.55,176.67 1034.58,141.291 1113.53,120.602 1199.6,105.374 1286.19,95.2284 1381.92,87.9585 1473,83.5339 1567.71,80.5796 
  1647.44,78.9437 1744.77,77.6312 1836.27,76.8459 1982.85,76.1244 2005.41,76.0517 
  "/>
</svg>
