<?xml version="1.0" encoding="utf-8" standalone="no"?>
<!DOCTYPE svg PUBLIC "-//W3C//DTD SVG 1.1//EN"
  "http://www.w3.org/Graphics/SVG/1.1/DTD/svg11.dtd">
<!-- Created with matplotlib (https://matplotlib.org/) -->
<svg height="213.13pt" version="1.1" viewBox="0 0 523.2219 213.13" width="523.2219pt" xmlns="http://www.w3.org/2000/svg" xmlns:xlink="http://www.w3.org/1999/xlink">
 <metadata>
  <rdf:RDF xmlns:cc="http://creativecommons.org/ns#" xmlns:dc="http://purl.org/dc/elements/1.1/" xmlns:rdf="http://www.w3.org/1999/02/22-rdf-syntax-ns#">
   <cc:Work>
    <dc:type rdf:resource="http://purl.org/dc/dcmitype/StillImage"/>
    <dc:date>2021-05-04T12:55:00.232754</dc:date>
    <dc:format>image/svg+xml</dc:format>
    <dc:creator>
     <cc:Agent>
      <dc:title>Matplotlib v3.3.4, https://matplotlib.org/</dc:title>
     </cc:Agent>
    </dc:creator>
   </cc:Work>
  </rdf:RDF>
 </metadata>
 <defs>
  <style type="text/css">*{stroke-linecap:butt;stroke-linejoin:round;}</style>
 </defs>
 <g id="figure_1">
  <g id="patch_1">
   <path d="M 0 213.13 
L 523.2219 213.13 
L 523.2219 0 
L 0 0 
z
" style="fill:#ffffff;"/>
  </g>
  <g id="axes_1">
   <g id="patch_2">
    <path clip-path="url(#p0779c650a8)" d="M 80.5482 156.97 
L 74.4282 159.265 
L 74.4282 156.9853 
L 71.3682 156.9853 
L 71.3682 156.9547 
L 74.4282 156.9547 
L 74.4282 154.675 
z
" style="stroke:#000000;stroke-linejoin:miter;stroke-width:2;"/>
   </g>
   <g id="patch_3">
    <path clip-path="url(#p0779c650a8)" d="M 95.8482 172.27 
C 99.905807 172.27 103.797772 170.657895 106.666934 167.788734 
C 109.536095 164.919572 111.1482 161.027607 111.1482 156.97 
C 111.1482 152.912393 109.536095 149.020428 106.666934 146.151266 
C 103.797772 143.282105 99.905807 141.67 95.8482 141.67 
C 91.790593 141.67 87.898628 143.282105 85.029466 146.151266 
C 82.160305 149.020428 80.5482 152.912393 80.5482 156.97 
C 80.5482 161.027607 82.160305 164.919572 85.029466 167.788734 
C 87.898628 170.657895 91.790593 172.27 95.8482 172.27 
z
" style="fill:none;stroke:#000000;stroke-linejoin:miter;stroke-width:2;"/>
   </g>
   <g id="patch_4">
    <path clip-path="url(#p0779c650a8)" d="M 149.3982 156.97 
L 143.2782 159.265 
L 143.2782 156.9853 
L 140.2182 156.9853 
L 140.2182 156.9547 
L 143.2782 156.9547 
L 143.2782 154.675 
z
" style="stroke:#000000;stroke-linejoin:miter;stroke-width:2;"/>
   </g>
   <g id="patch_5">
    <path clip-path="url(#p0779c650a8)" d="M 225.8982 156.97 
L 219.7782 159.265 
L 219.7782 156.9853 
L 216.7182 156.9853 
L 216.7182 156.9547 
L 219.7782 156.9547 
L 219.7782 154.675 
z
" style="stroke:#000000;stroke-linejoin:miter;stroke-width:2;"/>
   </g>
   <g id="patch_6">
    <path clip-path="url(#p0779c650a8)" d="M 302.3982 156.97 
L 296.2782 159.265 
L 296.2782 156.9853 
L 293.2182 156.9853 
L 293.2182 156.9547 
L 296.2782 156.9547 
L 296.2782 154.675 
z
" style="stroke:#000000;stroke-linejoin:miter;stroke-width:2;"/>
   </g>
   <g id="patch_7">
    <path clip-path="url(#p0779c650a8)" d="M 378.8982 156.97 
L 372.7782 159.265 
L 372.7782 156.9853 
L 369.7182 156.9853 
L 369.7182 156.9547 
L 372.7782 156.9547 
L 372.7782 154.675 
z
" style="stroke:#000000;stroke-linejoin:miter;stroke-width:2;"/>
   </g>
   <g id="patch_8">
    <path clip-path="url(#p0779c650a8)" d="M 394.1982 172.27 
C 398.255807 172.27 402.147772 170.657895 405.016934 167.788734 
C 407.886095 164.919572 409.4982 161.027607 409.4982 156.97 
C 409.4982 152.912393 407.886095 149.020428 405.016934 146.151266 
C 402.147772 143.282105 398.255807 141.67 394.1982 141.67 
C 390.140593 141.67 386.248628 143.282105 383.379466 146.151266 
C 380.510305 149.020428 378.8982 152.912393 378.8982 156.97 
C 378.8982 161.027607 380.510305 164.919572 383.379466 167.788734 
C 386.248628 170.657895 390.140593 172.27 394.1982 172.27 
z
" style="fill:none;stroke:#000000;stroke-linejoin:miter;stroke-width:2;"/>
   </g>
   <g id="patch_9">
    <path clip-path="url(#p0779c650a8)" d="M 394.1982 141.67 
L 391.9032 135.55 
L 394.1829 135.55 
L 394.1829 132.49 
L 394.2135 132.49 
L 394.2135 135.55 
L 396.4932 135.55 
z
" style="stroke:#000000;stroke-linejoin:miter;stroke-width:2;"/>
   </g>
   <g id="patch_10">
    <path clip-path="url(#p0779c650a8)" d="M 394.1982 65.17 
L 391.9032 59.05 
L 394.1829 59.05 
L 394.1829 55.99 
L 394.2135 55.99 
L 394.2135 59.05 
L 396.4932 59.05 
z
" style="stroke:#000000;stroke-linejoin:miter;stroke-width:2;"/>
   </g>
   <g id="patch_11">
    <path clip-path="url(#p0779c650a8)" d="M 485.9982 156.97 
L 479.8782 159.265 
L 479.8782 156.9853 
L 476.8182 156.9853 
L 476.8182 156.9547 
L 479.8782 156.9547 
L 479.8782 154.675 
z
" style="stroke:#000000;stroke-linejoin:miter;stroke-width:2;"/>
   </g>
   <g id="patch_12">
    <path clip-path="url(#p0779c650a8)" d="M 95.8482 172.27 
L 98.1432 178.39 
L 95.8635 178.39 
L 95.8635 181.45 
L 95.8329 181.45 
L 95.8329 178.39 
L 93.5532 178.39 
z
" style="stroke:#000000;stroke-linejoin:miter;stroke-width:2;"/>
   </g>
   <g id="line2d_1">
    <path clip-path="url(#p0779c650a8)" d="M 42.2982 156.97 
L 61.4232 156.97 
L 80.5482 156.97 
" style="fill:none;stroke:#000000;stroke-linecap:round;stroke-width:2;"/>
   </g>
   <g id="line2d_2">
    <path clip-path="url(#p0779c650a8)" d="M 106.666934 146.151266 
L 85.029466 167.788734 
" style="fill:none;stroke:#000000;stroke-linecap:round;stroke-width:2;"/>
   </g>
   <g id="line2d_3">
    <path clip-path="url(#p0779c650a8)" d="M 106.666934 167.788734 
L 85.029466 146.151266 
" style="fill:none;stroke:#000000;stroke-linecap:round;stroke-width:2;"/>
   </g>
   <g id="line2d_4">
    <path clip-path="url(#p0779c650a8)" d="M 111.1482 156.97 
L 130.2732 156.97 
L 149.3982 156.97 
" style="fill:none;stroke:#000000;stroke-linecap:round;stroke-width:2;"/>
   </g>
   <g id="line2d_5">
    <path clip-path="url(#p0779c650a8)" d="M 168.5232 137.845 
L 187.6482 137.845 
L 187.6482 176.095 
L 149.3982 176.095 
L 149.3982 137.845 
L 168.5232 137.845 
" style="fill:none;stroke:#000000;stroke-linecap:round;stroke-width:2;"/>
   </g>
   <g id="line2d_6">
    <path clip-path="url(#p0779c650a8)" d="M 187.6482 156.97 
L 206.7732 156.97 
L 225.8982 156.97 
" style="fill:none;stroke:#000000;stroke-linecap:round;stroke-width:2;"/>
   </g>
   <g id="line2d_7">
    <path clip-path="url(#p0779c650a8)" d="M 245.0232 137.845 
L 264.1482 137.845 
L 264.1482 176.095 
L 225.8982 176.095 
L 225.8982 137.845 
L 245.0232 137.845 
" style="fill:none;stroke:#000000;stroke-linecap:round;stroke-width:2;"/>
   </g>
   <g id="line2d_8">
    <path clip-path="url(#p0779c650a8)" d="M 264.1482 156.97 
L 283.2732 156.97 
L 302.3982 156.97 
" style="fill:none;stroke:#000000;stroke-linecap:round;stroke-width:2;"/>
   </g>
   <g id="line2d_9">
    <path clip-path="url(#p0779c650a8)" d="M 321.5232 137.845 
L 340.6482 137.845 
L 340.6482 176.095 
L 302.3982 176.095 
L 302.3982 137.845 
L 321.5232 137.845 
" style="fill:none;stroke:#000000;stroke-linecap:round;stroke-width:2;"/>
   </g>
   <g id="line2d_10">
    <path clip-path="url(#p0779c650a8)" d="M 340.6482 156.97 
L 359.7732 156.97 
L 378.8982 156.97 
" style="fill:none;stroke:#000000;stroke-linecap:round;stroke-width:2;"/>
   </g>
   <g id="line2d_11">
    <path clip-path="url(#p0779c650a8)" d="M 405.016934 146.151266 
L 383.379466 167.788734 
" style="fill:none;stroke:#000000;stroke-linecap:round;stroke-width:2;"/>
   </g>
   <g id="line2d_12">
    <path clip-path="url(#p0779c650a8)" d="M 405.016934 167.788734 
L 383.379466 146.151266 
" style="fill:none;stroke:#000000;stroke-linecap:round;stroke-width:2;"/>
   </g>
   <g id="line2d_13">
    <path clip-path="url(#p0779c650a8)" d="M 394.1982 141.67 
L 394.1982 122.545 
L 394.1982 103.42 
" style="fill:none;stroke:#000000;stroke-linecap:round;stroke-width:2;"/>
   </g>
   <g id="line2d_14">
    <path clip-path="url(#p0779c650a8)" d="M 394.1982 65.17 
L 413.3232 65.17 
L 413.3232 103.42 
L 375.0732 103.42 
L 375.0732 65.17 
L 394.1982 65.17 
" style="fill:none;stroke:#000000;stroke-linecap:round;stroke-width:2;"/>
   </g>
   <g id="line2d_15">
    <path clip-path="url(#p0779c650a8)" d="M 394.1982 65.17 
L 394.1982 46.045 
L 394.1982 26.92 
" style="fill:none;stroke:#000000;stroke-linecap:round;stroke-width:2;"/>
   </g>
   <g id="line2d_16">
    <path clip-path="url(#p0779c650a8)" d="M 409.4982 156.97 
L 428.6232 156.97 
L 447.7482 156.97 
" style="fill:none;stroke:#000000;stroke-linecap:round;stroke-width:2;"/>
   </g>
   <g id="line2d_17">
    <path clip-path="url(#p0779c650a8)" d="M 447.7482 156.97 
L 466.8732 156.97 
L 485.9982 156.97 
" style="fill:none;stroke:#000000;stroke-linecap:round;stroke-width:2;"/>
   </g>
   <g id="line2d_18">
    <path clip-path="url(#p0779c650a8)" d="M 447.7482 156.97 
L 447.7482 179.92 
L 447.7482 202.87 
" style="fill:none;stroke:#000000;stroke-linecap:round;stroke-width:2;"/>
   </g>
   <g id="line2d_19">
    <path clip-path="url(#p0779c650a8)" d="M 447.7482 202.87 
L 271.7982 202.87 
L 95.8482 202.87 
" style="fill:none;stroke:#000000;stroke-linecap:round;stroke-width:2;"/>
   </g>
   <g id="line2d_20">
    <path clip-path="url(#p0779c650a8)" d="M 95.8482 202.87 
L 95.8482 187.57 
L 95.8482 172.27 
" style="fill:none;stroke:#000000;stroke-linecap:round;stroke-width:2;"/>
   </g>
   <g id="text_1">
    <!-- $H_{sp}(t)$ -->
    <g transform="translate(8.7682 159.445)scale(0.11 -0.11)">
     <defs>
      <path d="M 16.890625 72.90625 
L 26.8125 72.90625 
L 21 43.015625 
L 56.78125 43.015625 
L 62.59375 72.90625 
L 72.515625 72.90625 
L 58.296875 0 
L 48.390625 0 
L 55.171875 34.71875 
L 19.390625 34.71875 
L 12.59375 0 
L 2.6875 0 
z
" id="DejaVuSans-Oblique-72"/>
      <path d="M 50 53.078125 
L 48.296875 44.578125 
Q 44.734375 46.53125 40.765625 47.5 
Q 36.8125 48.484375 32.625 48.484375 
Q 25.53125 48.484375 21.453125 46.0625 
Q 17.390625 43.65625 17.390625 39.5 
Q 17.390625 34.671875 26.859375 32.078125 
Q 27.59375 31.890625 27.9375 31.78125 
L 30.8125 30.90625 
Q 39.796875 28.421875 42.796875 25.6875 
Q 45.796875 22.953125 45.796875 18.21875 
Q 45.796875 9.515625 38.890625 4.046875 
Q 31.984375 -1.421875 20.796875 -1.421875 
Q 16.453125 -1.421875 11.671875 -0.578125 
Q 6.890625 0.25 1.125 2 
L 2.875 11.28125 
Q 7.8125 8.734375 12.59375 7.421875 
Q 17.390625 6.109375 21.78125 6.109375 
Q 28.375 6.109375 32.5 8.9375 
Q 36.625 11.765625 36.625 16.109375 
Q 36.625 20.796875 25.78125 23.6875 
L 24.859375 23.921875 
L 21.78125 24.703125 
Q 14.9375 26.515625 11.765625 29.46875 
Q 8.59375 32.421875 8.59375 37.015625 
Q 8.59375 45.75 15.15625 50.875 
Q 21.734375 56 33.015625 56 
Q 37.453125 56 41.671875 55.265625 
Q 45.90625 54.546875 50 53.078125 
z
" id="DejaVuSans-Oblique-115"/>
      <path d="M 49.609375 33.6875 
Q 49.609375 40.875 46.484375 44.671875 
Q 43.359375 48.484375 37.5 48.484375 
Q 33.5 48.484375 29.859375 46.4375 
Q 26.21875 44.390625 23.390625 40.484375 
Q 20.609375 36.625 18.9375 31.15625 
Q 17.28125 25.6875 17.28125 20.3125 
Q 17.28125 13.484375 20.40625 9.796875 
Q 23.53125 6.109375 29.296875 6.109375 
Q 33.546875 6.109375 37.1875 8.109375 
Q 40.828125 10.109375 43.40625 13.921875 
Q 46.1875 17.921875 47.890625 23.34375 
Q 49.609375 28.765625 49.609375 33.6875 
z
M 21.78125 46.390625 
Q 25.390625 51.125 30.296875 53.5625 
Q 35.203125 56 41.21875 56 
Q 49.609375 56 54.25 50.5 
Q 58.890625 45.015625 58.890625 35.109375 
Q 58.890625 27 56 19.65625 
Q 53.125 12.3125 47.703125 6.5 
Q 44.09375 2.640625 39.546875 0.609375 
Q 35.015625 -1.421875 29.984375 -1.421875 
Q 24.171875 -1.421875 20.21875 1 
Q 16.265625 3.421875 14.3125 8.203125 
L 8.6875 -20.796875 
L -0.296875 -20.796875 
L 14.40625 54.6875 
L 23.390625 54.6875 
z
" id="DejaVuSans-Oblique-112"/>
      <path d="M 31 75.875 
Q 24.46875 64.65625 21.28125 53.65625 
Q 18.109375 42.671875 18.109375 31.390625 
Q 18.109375 20.125 21.3125 9.0625 
Q 24.515625 -2 31 -13.1875 
L 23.1875 -13.1875 
Q 15.875 -1.703125 12.234375 9.375 
Q 8.59375 20.453125 8.59375 31.390625 
Q 8.59375 42.28125 12.203125 53.3125 
Q 15.828125 64.359375 23.1875 75.875 
z
" id="DejaVuSans-40"/>
      <path d="M 42.28125 54.6875 
L 40.921875 47.703125 
L 23 47.703125 
L 17.1875 18.015625 
Q 16.890625 16.359375 16.75 15.234375 
Q 16.609375 14.109375 16.609375 13.484375 
Q 16.609375 10.359375 18.484375 8.9375 
Q 20.359375 7.515625 24.515625 7.515625 
L 33.59375 7.515625 
L 32.078125 0 
L 23.484375 0 
Q 15.484375 0 11.546875 3.125 
Q 7.625 6.25 7.625 12.59375 
Q 7.625 13.71875 7.765625 15.0625 
Q 7.90625 16.40625 8.203125 18.015625 
L 14.015625 47.703125 
L 6.390625 47.703125 
L 7.8125 54.6875 
L 15.28125 54.6875 
L 18.3125 70.21875 
L 27.296875 70.21875 
L 24.3125 54.6875 
z
" id="DejaVuSans-Oblique-116"/>
      <path d="M 8.015625 75.875 
L 15.828125 75.875 
Q 23.140625 64.359375 26.78125 53.3125 
Q 30.421875 42.28125 30.421875 31.390625 
Q 30.421875 20.453125 26.78125 9.375 
Q 23.140625 -1.703125 15.828125 -13.1875 
L 8.015625 -13.1875 
Q 14.5 -2 17.703125 9.0625 
Q 20.90625 20.125 20.90625 31.390625 
Q 20.90625 42.671875 17.703125 53.65625 
Q 14.5 64.65625 8.015625 75.875 
z
" id="DejaVuSans-41"/>
     </defs>
     <use transform="translate(0 0.125)" xlink:href="#DejaVuSans-Oblique-72"/>
     <use transform="translate(75.195312 -16.28125)scale(0.7)" xlink:href="#DejaVuSans-Oblique-115"/>
     <use transform="translate(111.665039 -16.28125)scale(0.7)" xlink:href="#DejaVuSans-Oblique-112"/>
     <use transform="translate(158.833008 0.125)" xlink:href="#DejaVuSans-40"/>
     <use transform="translate(197.84668 0.125)" xlink:href="#DejaVuSans-Oblique-116"/>
     <use transform="translate(237.055664 0.125)" xlink:href="#DejaVuSans-41"/>
    </g>
   </g>
   <g id="text_2">
    <!-- - -->
    <g transform="translate(103.224294 159.729375)scale(0.1 -0.1)">
     <defs>
      <path d="M 4.890625 31.390625 
L 31.203125 31.390625 
L 31.203125 23.390625 
L 4.890625 23.390625 
z
" id="DejaVuSans-45"/>
     </defs>
     <use xlink:href="#DejaVuSans-45"/>
    </g>
   </g>
   <g id="text_3">
    <!-- + -->
    <g transform="translate(82.478356 159.729375)scale(0.1 -0.1)">
     <defs>
      <path d="M 46 62.703125 
L 46 35.5 
L 73.1875 35.5 
L 73.1875 27.203125 
L 46 27.203125 
L 46 0 
L 37.796875 0 
L 37.796875 27.203125 
L 10.59375 27.203125 
L 10.59375 35.5 
L 37.796875 35.5 
L 37.796875 62.703125 
z
" id="DejaVuSans-43"/>
     </defs>
     <use xlink:href="#DejaVuSans-43"/>
    </g>
   </g>
   <g id="text_4">
    <!-- $\epsilon(t)$ -->
    <g transform="translate(120.8132 147.032344)scale(0.11 -0.11)">
     <defs>
      <path d="M 19.734375 29.5 
Q 14.453125 30.671875 12.15625 33.84375 
Q 10.453125 36.078125 10.453125 39.109375 
Q 10.453125 47.40625 18.359375 52.25 
Q 24.609375 56.0625 34.1875 56.0625 
Q 37.890625 56.0625 41.9375 55.46875 
Q 46 54.890625 50.53125 53.71875 
L 48.96875 45.5625 
Q 44.484375 46.96875 40.71875 47.609375 
Q 36.859375 48.25 33.40625 48.25 
Q 27.59375 48.25 23.78125 46 
Q 19.1875 43.3125 19.1875 39.40625 
Q 19.1875 36.8125 21.578125 35.015625 
Q 24.421875 32.859375 30.078125 32.859375 
L 37.640625 32.859375 
L 36.234375 25.4375 
L 29 25.4375 
Q 22.265625 25.4375 18.3125 22.953125 
Q 12.9375 19.578125 12.9375 14.3125 
Q 12.9375 10.984375 15.828125 8.796875 
Q 19.4375 6.0625 26.8125 6.0625 
Q 31.34375 6.0625 35.6875 6.9375 
Q 40.046875 7.859375 43.84375 9.671875 
L 42.1875 1.3125 
Q 37.546875 -0.046875 33.296875 -0.734375 
Q 29.046875 -1.421875 25.140625 -1.421875 
Q 13.53125 -1.421875 8.0625 3.03125 
Q 3.90625 6.453125 3.90625 12.203125 
Q 3.90625 19.96875 9.375 24.75 
Q 13.421875 28.328125 19.734375 29.5 
z
" id="DejaVuSans-Oblique-949"/>
     </defs>
     <use transform="translate(0 0.125)" xlink:href="#DejaVuSans-Oblique-949"/>
     <use transform="translate(54.052734 0.125)" xlink:href="#DejaVuSans-40"/>
     <use transform="translate(93.066406 0.125)" xlink:href="#DejaVuSans-Oblique-116"/>
     <use transform="translate(132.275391 0.125)" xlink:href="#DejaVuSans-41"/>
    </g>
   </g>
   <g id="text_5">
    <!-- -1 -->
    <g transform="translate(163.039528 160.005312)scale(0.11 -0.11)">
     <defs>
      <path d="M 12.40625 8.296875 
L 28.515625 8.296875 
L 28.515625 63.921875 
L 10.984375 60.40625 
L 10.984375 69.390625 
L 28.421875 72.90625 
L 38.28125 72.90625 
L 38.28125 8.296875 
L 54.390625 8.296875 
L 54.390625 0 
L 12.40625 0 
z
" id="DejaVuSans-49"/>
     </defs>
     <use xlink:href="#DejaVuSans-45"/>
     <use x="36.083984" xlink:href="#DejaVuSans-49"/>
    </g>
   </g>
   <g id="text_6">
    <!-- $G_c(s)$ -->
    <g transform="translate(231.3282 160.005312)scale(0.11 -0.11)">
     <defs>
      <path d="M 54.59375 10.890625 
L 58.40625 29.984375 
L 42.1875 29.984375 
L 43.703125 38.09375 
L 69.578125 38.09375 
L 63.28125 6 
Q 56.78125 2.4375 49.109375 0.5 
Q 41.453125 -1.421875 33.6875 -1.421875 
Q 19.96875 -1.421875 12.234375 6.1875 
Q 4.5 13.8125 4.5 27.390625 
Q 4.5 38.671875 9.203125 48.84375 
Q 13.921875 59.03125 22.21875 65.828125 
Q 27.4375 70.0625 33.640625 72.140625 
Q 39.84375 74.21875 47.40625 74.21875 
Q 54.25 74.21875 60.515625 72.484375 
Q 66.796875 70.75 72.515625 67.28125 
L 70.515625 56.78125 
Q 66.109375 61.375 60.203125 63.796875 
Q 54.296875 66.21875 47.609375 66.21875 
Q 39.84375 66.21875 33.9375 63.25 
Q 28.03125 60.296875 23.390625 54.109375 
Q 19.4375 48.828125 17.15625 41.671875 
Q 14.890625 34.515625 14.890625 27.09375 
Q 14.890625 16.890625 20.109375 11.734375 
Q 25.34375 6.59375 35.6875 6.59375 
Q 40.875 6.59375 45.703125 7.6875 
Q 50.53125 8.796875 54.59375 10.890625 
z
" id="DejaVuSans-Oblique-71"/>
      <path d="M 53.609375 52.59375 
L 51.8125 43.703125 
Q 48.578125 46.046875 44.9375 47.21875 
Q 41.3125 48.390625 37.40625 48.390625 
Q 33.109375 48.390625 29.21875 46.875 
Q 25.34375 45.359375 22.703125 42.578125 
Q 18.5 38.328125 16.203125 32.609375 
Q 13.921875 26.90625 13.921875 20.796875 
Q 13.921875 13.421875 17.609375 9.8125 
Q 21.296875 6.203125 28.8125 6.203125 
Q 32.515625 6.203125 36.6875 7.328125 
Q 40.875 8.453125 45.40625 10.6875 
L 43.703125 1.8125 
Q 39.796875 0.203125 35.671875 -0.609375 
Q 31.546875 -1.421875 27.203125 -1.421875 
Q 16.3125 -1.421875 10.453125 4.015625 
Q 4.59375 9.46875 4.59375 19.578125 
Q 4.59375 28.078125 7.640625 35.234375 
Q 10.6875 42.390625 16.703125 48.09375 
Q 20.796875 52 26.3125 54 
Q 31.84375 56 38.375 56 
Q 42.1875 56 45.9375 55.140625 
Q 49.703125 54.296875 53.609375 52.59375 
z
" id="DejaVuSans-Oblique-99"/>
     </defs>
     <use transform="translate(0 0.125)" xlink:href="#DejaVuSans-Oblique-71"/>
     <use transform="translate(77.490234 -16.28125)scale(0.7)" xlink:href="#DejaVuSans-Oblique-99"/>
     <use transform="translate(118.710938 0.125)" xlink:href="#DejaVuSans-40"/>
     <use transform="translate(157.724609 0.125)" xlink:href="#DejaVuSans-Oblique-115"/>
     <use transform="translate(209.824219 0.125)" xlink:href="#DejaVuSans-41"/>
    </g>
   </g>
   <g id="text_7">
    <!-- $Q_2(s)$ -->
    <g transform="translate(269.1382 147.032344)scale(0.11 -0.11)">
     <defs>
      <path d="M 36.078125 -1.3125 
Q 35.546875 -1.375 34.953125 -1.390625 
Q 34.375 -1.421875 33.203125 -1.421875 
Q 19.53125 -1.421875 11.8125 6.421875 
Q 4.109375 14.265625 4.109375 28.078125 
Q 4.109375 36.234375 7.0625 44.4375 
Q 10.015625 52.640625 15.28125 59.1875 
Q 21.390625 66.703125 29.03125 70.453125 
Q 36.671875 74.21875 45.90625 74.21875 
Q 59.28125 74.21875 66.984375 66.328125 
Q 74.703125 58.453125 74.703125 44.828125 
Q 74.703125 30.125 66.640625 17.921875 
Q 58.59375 5.71875 45.609375 0.6875 
L 55.515625 -12.890625 
L 44.484375 -12.890625 
z
M 45.609375 66.21875 
Q 37.5 66.21875 31.296875 62.28125 
Q 25.09375 58.34375 20.515625 50.296875 
Q 17.578125 45.171875 16.03125 39.40625 
Q 14.5 33.640625 14.5 27.78125 
Q 14.5 17.625 19.359375 12.109375 
Q 24.21875 6.59375 33.109375 6.59375 
Q 41.109375 6.59375 47.375 10.5625 
Q 53.65625 14.546875 58.109375 22.40625 
Q 61.078125 27.6875 62.640625 33.46875 
Q 64.203125 39.265625 64.203125 45.015625 
Q 64.203125 55.125 59.3125 60.671875 
Q 54.4375 66.21875 45.609375 66.21875 
z
" id="DejaVuSans-Oblique-81"/>
      <path d="M 19.1875 8.296875 
L 53.609375 8.296875 
L 53.609375 0 
L 7.328125 0 
L 7.328125 8.296875 
Q 12.9375 14.109375 22.625 23.890625 
Q 32.328125 33.6875 34.8125 36.53125 
Q 39.546875 41.84375 41.421875 45.53125 
Q 43.3125 49.21875 43.3125 52.78125 
Q 43.3125 58.59375 39.234375 62.25 
Q 35.15625 65.921875 28.609375 65.921875 
Q 23.96875 65.921875 18.8125 64.3125 
Q 13.671875 62.703125 7.8125 59.421875 
L 7.8125 69.390625 
Q 13.765625 71.78125 18.9375 73 
Q 24.125 74.21875 28.421875 74.21875 
Q 39.75 74.21875 46.484375 68.546875 
Q 53.21875 62.890625 53.21875 53.421875 
Q 53.21875 48.921875 51.53125 44.890625 
Q 49.859375 40.875 45.40625 35.40625 
Q 44.1875 33.984375 37.640625 27.21875 
Q 31.109375 20.453125 19.1875 8.296875 
z
" id="DejaVuSans-50"/>
     </defs>
     <use transform="translate(0 0.125)" xlink:href="#DejaVuSans-Oblique-81"/>
     <use transform="translate(78.710938 -16.28125)scale(0.7)" xlink:href="#DejaVuSans-50"/>
     <use transform="translate(125.981445 0.125)" xlink:href="#DejaVuSans-40"/>
     <use transform="translate(164.995117 0.125)" xlink:href="#DejaVuSans-Oblique-115"/>
     <use transform="translate(217.094727 0.125)" xlink:href="#DejaVuSans-41"/>
    </g>
   </g>
   <g id="text_8">
    <!-- $\frac{1}{As}$ -->
    <g transform="translate(316.1882 159.995)scale(0.11 -0.11)">
     <defs>
      <path d="M 36.8125 72.90625 
L 48 72.90625 
L 61.53125 0 
L 51.21875 0 
L 48.1875 18.703125 
L 15.375 18.703125 
L 5.078125 0 
L -5.328125 0 
z
M 40.375 63.1875 
L 19.921875 26.90625 
L 46.6875 26.90625 
z
" id="DejaVuSans-Oblique-65"/>
     </defs>
     <use transform="translate(20 43.965625)scale(0.7)" xlink:href="#DejaVuSans-49"/>
     <use transform="translate(0 -38.31875)scale(0.7)" xlink:href="#DejaVuSans-Oblique-65"/>
     <use transform="translate(47.885742 -38.31875)scale(0.7)" xlink:href="#DejaVuSans-Oblique-115"/>
     <path d="M 0 18.965625 
L 0 25.215625 
L 84.355469 25.215625 
L 84.355469 18.965625 
L 0 18.965625 
z
"/>
    </g>
   </g>
   <g id="text_9">
    <!-- + -->
    <g transform="translate(390.008356 150.090375)scale(0.1 -0.1)">
     <use xlink:href="#DejaVuSans-43"/>
    </g>
   </g>
   <g id="text_10">
    <!-- - -->
    <g transform="translate(383.214294 159.729375)scale(0.1 -0.1)">
     <use xlink:href="#DejaVuSans-45"/>
    </g>
   </g>
   <g id="text_11">
    <!-- $\frac{1}{As}$ -->
    <g transform="translate(388.8632 87.32)scale(0.11 -0.11)">
     <use transform="translate(20 43.965625)scale(0.7)" xlink:href="#DejaVuSans-49"/>
     <use transform="translate(0 -38.31875)scale(0.7)" xlink:href="#DejaVuSans-Oblique-65"/>
     <use transform="translate(47.885742 -38.31875)scale(0.7)" xlink:href="#DejaVuSans-Oblique-115"/>
     <path d="M 0 18.965625 
L 0 25.215625 
L 84.355469 25.215625 
L 84.355469 18.965625 
L 0 18.965625 
z
"/>
    </g>
   </g>
   <g id="text_12">
    <!-- $Q_1(s)$ -->
    <g transform="translate(380.0632 21.572344)scale(0.11 -0.11)">
     <use transform="translate(0 0.125)" xlink:href="#DejaVuSans-Oblique-81"/>
     <use transform="translate(78.710938 -16.28125)scale(0.7)" xlink:href="#DejaVuSans-49"/>
     <use transform="translate(125.981445 0.125)" xlink:href="#DejaVuSans-40"/>
     <use transform="translate(164.995117 0.125)" xlink:href="#DejaVuSans-Oblique-115"/>
     <use transform="translate(217.094727 0.125)" xlink:href="#DejaVuSans-41"/>
    </g>
   </g>
   <g id="text_13">
    <!-- $H(s)$ -->
    <g transform="translate(489.0582 160.005312)scale(0.11 -0.11)">
     <use transform="translate(0 0.125)" xlink:href="#DejaVuSans-Oblique-72"/>
     <use transform="translate(75.195312 0.125)" xlink:href="#DejaVuSans-40"/>
     <use transform="translate(114.208984 0.125)" xlink:href="#DejaVuSans-Oblique-115"/>
     <use transform="translate(166.308594 0.125)" xlink:href="#DejaVuSans-41"/>
    </g>
   </g>
   <g id="patch_13">
    <path clip-path="url(#p0779c650a8)" d="M 447.7482 156.97 
C 447.7482 156.97 447.7482 156.97 447.7482 156.97 
C 447.7482 156.97 447.7482 156.97 447.7482 156.97 
C 447.7482 156.97 447.7482 156.97 447.7482 156.97 
C 447.7482 156.97 447.7482 156.97 447.7482 156.97 
C 447.7482 156.97 447.7482 156.97 447.7482 156.97 
C 447.7482 156.97 447.7482 156.97 447.7482 156.97 
C 447.7482 156.97 447.7482 156.97 447.7482 156.97 
C 447.7482 156.97 447.7482 156.97 447.7482 156.97 
z
" style="stroke:#000000;stroke-linejoin:miter;stroke-width:2;"/>
   </g>
  </g>
 </g>
 <defs>
  <clipPath id="p0779c650a8">
   <rect height="198.73" width="508.8219" x="7.2" y="7.2"/>
  </clipPath>
 </defs>
</svg>
