<?xml version="1.0" encoding="utf-8"?>
<svg xmlns="http://www.w3.org/2000/svg" xmlns:xlink="http://www.w3.org/1999/xlink" width="600" height="400" viewBox="0 0 2400 1600">
<defs>
  <clipPath id="clip340">
    <rect x="0" y="0" width="2400" height="1600"/>
  </clipPath>
</defs>
<path clip-path="url(#clip340)" d="
M0 1600 L2400 1600 L2400 0 L0 0  Z
  " fill="#ffffff" fill-rule="evenodd" fill-opacity="1"/>
<defs>
  <clipPath id="clip341">
    <rect x="480" y="0" width="1681" height="1600"/>
  </clipPath>
</defs>
<path clip-path="url(#clip340)" d="
M219.866 1423.18 L2352.76 1423.18 L2352.76 47.2441 L219.866 47.2441  Z
  " fill="#ffffff" fill-rule="evenodd" fill-opacity="1"/>
<defs>
  <clipPath id="clip342">
    <rect x="219" y="47" width="2134" height="1377"/>
  </clipPath>
</defs>
<polyline clip-path="url(#clip342)" style="stroke:#000000; stroke-width:2; stroke-opacity:0.1; fill:none" points="
  280.231,1423.18 280.231,47.2441 
  "/>
<polyline clip-path="url(#clip342)" style="stroke:#000000; stroke-width:2; stroke-opacity:0.1; fill:none" points="
  682.663,1423.18 682.663,47.2441 
  "/>
<polyline clip-path="url(#clip342)" style="stroke:#000000; stroke-width:2; stroke-opacity:0.1; fill:none" points="
  1085.1,1423.18 1085.1,47.2441 
  "/>
<polyline clip-path="url(#clip342)" style="stroke:#000000; stroke-width:2; stroke-opacity:0.1; fill:none" points="
  1487.53,1423.18 1487.53,47.2441 
  "/>
<polyline clip-path="url(#clip342)" style="stroke:#000000; stroke-width:2; stroke-opacity:0.1; fill:none" points="
  1889.96,1423.18 1889.96,47.2441 
  "/>
<polyline clip-path="url(#clip342)" style="stroke:#000000; stroke-width:2; stroke-opacity:0.1; fill:none" points="
  2292.39,1423.18 2292.39,47.2441 
  "/>
<polyline clip-path="url(#clip340)" style="stroke:#000000; stroke-width:4; stroke-opacity:1; fill:none" points="
  219.866,1423.18 2352.76,1423.18 
  "/>
<polyline clip-path="url(#clip340)" style="stroke:#000000; stroke-width:4; stroke-opacity:1; fill:none" points="
  280.231,1423.18 280.231,1406.67 
  "/>
<polyline clip-path="url(#clip340)" style="stroke:#000000; stroke-width:4; stroke-opacity:1; fill:none" points="
  682.663,1423.18 682.663,1406.67 
  "/>
<polyline clip-path="url(#clip340)" style="stroke:#000000; stroke-width:4; stroke-opacity:1; fill:none" points="
  1085.1,1423.18 1085.1,1406.67 
  "/>
<polyline clip-path="url(#clip340)" style="stroke:#000000; stroke-width:4; stroke-opacity:1; fill:none" points="
  1487.53,1423.18 1487.53,1406.67 
  "/>
<polyline clip-path="url(#clip340)" style="stroke:#000000; stroke-width:4; stroke-opacity:1; fill:none" points="
  1889.96,1423.18 1889.96,1406.67 
  "/>
<polyline clip-path="url(#clip340)" style="stroke:#000000; stroke-width:4; stroke-opacity:1; fill:none" points="
  2292.39,1423.18 2292.39,1406.67 
  "/>
<path clip-path="url(#clip340)" d="M 0 0 M227.454 1452.37 Q223.842 1452.37 222.014 1455.94 Q220.208 1459.48 220.208 1466.61 Q220.208 1473.71 222.014 1477.28 Q223.842 1480.82 227.454 1480.82 Q231.088 1480.82 232.893 1477.28 Q234.722 1473.71 234.722 1466.61 Q234.722 1459.48 232.893 1455.94 Q231.088 1452.37 227.454 1452.37 M227.454 1448.67 Q233.264 1448.67 236.319 1453.27 Q239.398 1457.86 239.398 1466.61 Q239.398 1475.33 236.319 1479.94 Q233.264 1484.52 227.454 1484.52 Q221.643 1484.52 218.565 1479.94 Q215.509 1475.33 215.509 1466.61 Q215.509 1457.86 218.565 1453.27 Q221.643 1448.67 227.454 1448.67 Z" fill="#000000" fill-rule="evenodd" fill-opacity="1" /><path clip-path="url(#clip340)" d="M 0 0 M247.616 1477.97 L252.5 1477.97 L252.5 1483.85 L247.616 1483.85 L247.616 1477.97 Z" fill="#000000" fill-rule="evenodd" fill-opacity="1" /><path clip-path="url(#clip340)" d="M 0 0 M272.685 1452.37 Q269.074 1452.37 267.245 1455.94 Q265.439 1459.48 265.439 1466.61 Q265.439 1473.71 267.245 1477.28 Q269.074 1480.82 272.685 1480.82 Q276.319 1480.82 278.125 1477.28 Q279.953 1473.71 279.953 1466.61 Q279.953 1459.48 278.125 1455.94 Q276.319 1452.37 272.685 1452.37 M272.685 1448.67 Q278.495 1448.67 281.551 1453.27 Q284.629 1457.86 284.629 1466.61 Q284.629 1475.33 281.551 1479.94 Q278.495 1484.52 272.685 1484.52 Q266.875 1484.52 263.796 1479.94 Q260.74 1475.33 260.74 1466.61 Q260.74 1457.86 263.796 1453.27 Q266.875 1448.67 272.685 1448.67 Z" fill="#000000" fill-rule="evenodd" fill-opacity="1" /><path clip-path="url(#clip340)" d="M 0 0 M302.847 1452.37 Q299.236 1452.37 297.407 1455.94 Q295.601 1459.48 295.601 1466.61 Q295.601 1473.71 297.407 1477.28 Q299.236 1480.82 302.847 1480.82 Q306.481 1480.82 308.286 1477.28 Q310.115 1473.71 310.115 1466.61 Q310.115 1459.48 308.286 1455.94 Q306.481 1452.37 302.847 1452.37 M302.847 1448.67 Q308.657 1448.67 311.712 1453.27 Q314.791 1457.86 314.791 1466.61 Q314.791 1475.33 311.712 1479.94 Q308.657 1484.52 302.847 1484.52 Q297.037 1484.52 293.958 1479.94 Q290.902 1475.33 290.902 1466.61 Q290.902 1457.86 293.958 1453.27 Q297.037 1448.67 302.847 1448.67 Z" fill="#000000" fill-rule="evenodd" fill-opacity="1" /><path clip-path="url(#clip340)" d="M 0 0 M333.009 1452.37 Q329.397 1452.37 327.569 1455.94 Q325.763 1459.48 325.763 1466.61 Q325.763 1473.71 327.569 1477.28 Q329.397 1480.82 333.009 1480.82 Q336.643 1480.82 338.448 1477.28 Q340.277 1473.71 340.277 1466.61 Q340.277 1459.48 338.448 1455.94 Q336.643 1452.37 333.009 1452.37 M333.009 1448.67 Q338.819 1448.67 341.874 1453.27 Q344.953 1457.86 344.953 1466.61 Q344.953 1475.33 341.874 1479.94 Q338.819 1484.52 333.009 1484.52 Q327.198 1484.52 324.12 1479.94 Q321.064 1475.33 321.064 1466.61 Q321.064 1457.86 324.12 1453.27 Q327.198 1448.67 333.009 1448.67 Z" fill="#000000" fill-rule="evenodd" fill-opacity="1" /><path clip-path="url(#clip340)" d="M 0 0 M630.383 1452.37 Q626.772 1452.37 624.943 1455.94 Q623.138 1459.48 623.138 1466.61 Q623.138 1473.71 624.943 1477.28 Q626.772 1480.82 630.383 1480.82 Q634.018 1480.82 635.823 1477.28 Q637.652 1473.71 637.652 1466.61 Q637.652 1459.48 635.823 1455.94 Q634.018 1452.37 630.383 1452.37 M630.383 1448.67 Q636.193 1448.67 639.249 1453.27 Q642.328 1457.86 642.328 1466.61 Q642.328 1475.33 639.249 1479.94 Q636.193 1484.52 630.383 1484.52 Q624.573 1484.52 621.494 1479.94 Q618.439 1475.33 618.439 1466.61 Q618.439 1457.86 621.494 1453.27 Q624.573 1448.67 630.383 1448.67 Z" fill="#000000" fill-rule="evenodd" fill-opacity="1" /><path clip-path="url(#clip340)" d="M 0 0 M650.545 1477.97 L655.429 1477.97 L655.429 1483.85 L650.545 1483.85 L650.545 1477.97 Z" fill="#000000" fill-rule="evenodd" fill-opacity="1" /><path clip-path="url(#clip340)" d="M 0 0 M675.615 1452.37 Q672.003 1452.37 670.175 1455.94 Q668.369 1459.48 668.369 1466.61 Q668.369 1473.71 670.175 1477.28 Q672.003 1480.82 675.615 1480.82 Q679.249 1480.82 681.054 1477.28 Q682.883 1473.71 682.883 1466.61 Q682.883 1459.48 681.054 1455.94 Q679.249 1452.37 675.615 1452.37 M675.615 1448.67 Q681.425 1448.67 684.48 1453.27 Q687.559 1457.86 687.559 1466.61 Q687.559 1475.33 684.48 1479.94 Q681.425 1484.52 675.615 1484.52 Q669.804 1484.52 666.726 1479.94 Q663.67 1475.33 663.67 1466.61 Q663.67 1457.86 666.726 1453.27 Q669.804 1448.67 675.615 1448.67 Z" fill="#000000" fill-rule="evenodd" fill-opacity="1" /><path clip-path="url(#clip340)" d="M 0 0 M705.776 1452.37 Q702.165 1452.37 700.337 1455.94 Q698.531 1459.48 698.531 1466.61 Q698.531 1473.71 700.337 1477.28 Q702.165 1480.82 705.776 1480.82 Q709.411 1480.82 711.216 1477.28 Q713.045 1473.71 713.045 1466.61 Q713.045 1459.48 711.216 1455.94 Q709.411 1452.37 705.776 1452.37 M705.776 1448.67 Q711.587 1448.67 714.642 1453.27 Q717.721 1457.86 717.721 1466.61 Q717.721 1475.33 714.642 1479.94 Q711.587 1484.52 705.776 1484.52 Q699.966 1484.52 696.888 1479.94 Q693.832 1475.33 693.832 1466.61 Q693.832 1457.86 696.888 1453.27 Q699.966 1448.67 705.776 1448.67 Z" fill="#000000" fill-rule="evenodd" fill-opacity="1" /><path clip-path="url(#clip340)" d="M 0 0 M725.985 1449.29 L744.341 1449.29 L744.341 1453.23 L730.267 1453.23 L730.267 1461.7 Q731.285 1461.35 732.304 1461.19 Q733.323 1461 734.341 1461 Q740.128 1461 743.508 1464.18 Q746.887 1467.35 746.887 1472.76 Q746.887 1478.34 743.415 1481.44 Q739.943 1484.52 733.623 1484.52 Q731.448 1484.52 729.179 1484.15 Q726.934 1483.78 724.526 1483.04 L724.526 1478.34 Q726.61 1479.48 728.832 1480.03 Q731.054 1480.59 733.531 1480.59 Q737.535 1480.59 739.873 1478.48 Q742.211 1476.38 742.211 1472.76 Q742.211 1469.15 739.873 1467.05 Q737.535 1464.94 733.531 1464.94 Q731.656 1464.94 729.781 1465.36 Q727.929 1465.77 725.985 1466.65 L725.985 1449.29 Z" fill="#000000" fill-rule="evenodd" fill-opacity="1" /><path clip-path="url(#clip340)" d="M 0 0 M1032.32 1452.37 Q1028.71 1452.37 1026.88 1455.94 Q1025.07 1459.48 1025.07 1466.61 Q1025.07 1473.71 1026.88 1477.28 Q1028.71 1480.82 1032.32 1480.82 Q1035.95 1480.82 1037.76 1477.28 Q1039.59 1473.71 1039.59 1466.61 Q1039.59 1459.48 1037.76 1455.94 Q1035.95 1452.37 1032.32 1452.37 M1032.32 1448.67 Q1038.13 1448.67 1041.18 1453.27 Q1044.26 1457.86 1044.26 1466.61 Q1044.26 1475.33 1041.18 1479.94 Q1038.13 1484.52 1032.32 1484.52 Q1026.51 1484.52 1023.43 1479.94 Q1020.37 1475.33 1020.37 1466.61 Q1020.37 1457.86 1023.43 1453.27 Q1026.51 1448.67 1032.32 1448.67 Z" fill="#000000" fill-rule="evenodd" fill-opacity="1" /><path clip-path="url(#clip340)" d="M 0 0 M1052.48 1477.97 L1057.36 1477.97 L1057.36 1483.85 L1052.48 1483.85 L1052.48 1477.97 Z" fill="#000000" fill-rule="evenodd" fill-opacity="1" /><path clip-path="url(#clip340)" d="M 0 0 M1077.55 1452.37 Q1073.94 1452.37 1072.11 1455.94 Q1070.3 1459.48 1070.3 1466.61 Q1070.3 1473.71 1072.11 1477.28 Q1073.94 1480.82 1077.55 1480.82 Q1081.18 1480.82 1082.99 1477.28 Q1084.82 1473.71 1084.82 1466.61 Q1084.82 1459.48 1082.99 1455.94 Q1081.18 1452.37 1077.55 1452.37 M1077.55 1448.67 Q1083.36 1448.67 1086.41 1453.27 Q1089.49 1457.86 1089.49 1466.61 Q1089.49 1475.33 1086.41 1479.94 Q1083.36 1484.52 1077.55 1484.52 Q1071.74 1484.52 1068.66 1479.94 Q1065.6 1475.33 1065.6 1466.61 Q1065.6 1457.86 1068.66 1453.27 Q1071.74 1448.67 1077.55 1448.67 Z" fill="#000000" fill-rule="evenodd" fill-opacity="1" /><path clip-path="url(#clip340)" d="M 0 0 M1098.52 1479.92 L1106.16 1479.92 L1106.16 1453.55 L1097.85 1455.22 L1097.85 1450.96 L1106.11 1449.29 L1110.79 1449.29 L1110.79 1479.92 L1118.43 1479.92 L1118.43 1483.85 L1098.52 1483.85 L1098.52 1479.92 Z" fill="#000000" fill-rule="evenodd" fill-opacity="1" /><path clip-path="url(#clip340)" d="M 0 0 M1137.87 1452.37 Q1134.26 1452.37 1132.43 1455.94 Q1130.63 1459.48 1130.63 1466.61 Q1130.63 1473.71 1132.43 1477.28 Q1134.26 1480.82 1137.87 1480.82 Q1141.51 1480.82 1143.31 1477.28 Q1145.14 1473.71 1145.14 1466.61 Q1145.14 1459.48 1143.31 1455.94 Q1141.51 1452.37 1137.87 1452.37 M1137.87 1448.67 Q1143.68 1448.67 1146.74 1453.27 Q1149.82 1457.86 1149.82 1466.61 Q1149.82 1475.33 1146.74 1479.94 Q1143.68 1484.52 1137.87 1484.52 Q1132.06 1484.52 1128.98 1479.94 Q1125.93 1475.33 1125.93 1466.61 Q1125.93 1457.86 1128.98 1453.27 Q1132.06 1448.67 1137.87 1448.67 Z" fill="#000000" fill-rule="evenodd" fill-opacity="1" /><path clip-path="url(#clip340)" d="M 0 0 M1435.25 1452.37 Q1431.64 1452.37 1429.81 1455.94 Q1428 1459.48 1428 1466.61 Q1428 1473.71 1429.81 1477.28 Q1431.64 1480.82 1435.25 1480.82 Q1438.88 1480.82 1440.69 1477.28 Q1442.52 1473.71 1442.52 1466.61 Q1442.52 1459.48 1440.69 1455.94 Q1438.88 1452.37 1435.25 1452.37 M1435.25 1448.67 Q1441.06 1448.67 1444.11 1453.27 Q1447.19 1457.86 1447.19 1466.61 Q1447.19 1475.33 1444.11 1479.94 Q1441.06 1484.52 1435.25 1484.52 Q1429.44 1484.52 1426.36 1479.94 Q1423.3 1475.33 1423.3 1466.61 Q1423.3 1457.86 1426.36 1453.27 Q1429.44 1448.67 1435.25 1448.67 Z" fill="#000000" fill-rule="evenodd" fill-opacity="1" /><path clip-path="url(#clip340)" d="M 0 0 M1455.41 1477.97 L1460.29 1477.97 L1460.29 1483.85 L1455.41 1483.85 L1455.41 1477.97 Z" fill="#000000" fill-rule="evenodd" fill-opacity="1" /><path clip-path="url(#clip340)" d="M 0 0 M1480.48 1452.37 Q1476.87 1452.37 1475.04 1455.94 Q1473.23 1459.48 1473.23 1466.61 Q1473.23 1473.71 1475.04 1477.28 Q1476.87 1480.82 1480.48 1480.82 Q1484.11 1480.82 1485.92 1477.28 Q1487.75 1473.71 1487.75 1466.61 Q1487.75 1459.48 1485.92 1455.94 Q1484.11 1452.37 1480.48 1452.37 M1480.48 1448.67 Q1486.29 1448.67 1489.34 1453.27 Q1492.42 1457.86 1492.42 1466.61 Q1492.42 1475.33 1489.34 1479.94 Q1486.29 1484.52 1480.48 1484.52 Q1474.67 1484.52 1471.59 1479.94 Q1468.53 1475.33 1468.53 1466.61 Q1468.53 1457.86 1471.59 1453.27 Q1474.67 1448.67 1480.48 1448.67 Z" fill="#000000" fill-rule="evenodd" fill-opacity="1" /><path clip-path="url(#clip340)" d="M 0 0 M1501.45 1479.92 L1509.09 1479.92 L1509.09 1453.55 L1500.78 1455.22 L1500.78 1450.96 L1509.04 1449.29 L1513.72 1449.29 L1513.72 1479.92 L1521.36 1479.92 L1521.36 1483.85 L1501.45 1483.85 L1501.45 1479.92 Z" fill="#000000" fill-rule="evenodd" fill-opacity="1" /><path clip-path="url(#clip340)" d="M 0 0 M1530.85 1449.29 L1549.2 1449.29 L1549.2 1453.23 L1535.13 1453.23 L1535.13 1461.7 Q1536.15 1461.35 1537.17 1461.19 Q1538.19 1461 1539.21 1461 Q1544.99 1461 1548.37 1464.18 Q1551.75 1467.35 1551.75 1472.76 Q1551.75 1478.34 1548.28 1481.44 Q1544.81 1484.52 1538.49 1484.52 Q1536.31 1484.52 1534.04 1484.15 Q1531.8 1483.78 1529.39 1483.04 L1529.39 1478.34 Q1531.47 1479.48 1533.7 1480.03 Q1535.92 1480.59 1538.39 1480.59 Q1542.4 1480.59 1544.74 1478.48 Q1547.08 1476.38 1547.08 1472.76 Q1547.08 1469.15 1544.74 1467.05 Q1542.4 1464.94 1538.39 1464.94 Q1536.52 1464.94 1534.64 1465.36 Q1532.79 1465.77 1530.85 1466.65 L1530.85 1449.29 Z" fill="#000000" fill-rule="evenodd" fill-opacity="1" /><path clip-path="url(#clip340)" d="M 0 0 M1837.18 1452.37 Q1833.57 1452.37 1831.74 1455.94 Q1829.94 1459.48 1829.94 1466.61 Q1829.94 1473.71 1831.74 1477.28 Q1833.57 1480.82 1837.18 1480.82 Q1840.82 1480.82 1842.62 1477.28 Q1844.45 1473.71 1844.45 1466.61 Q1844.45 1459.48 1842.62 1455.94 Q1840.82 1452.37 1837.18 1452.37 M1837.18 1448.67 Q1842.99 1448.67 1846.05 1453.27 Q1849.13 1457.86 1849.13 1466.61 Q1849.13 1475.33 1846.05 1479.94 Q1842.99 1484.52 1837.18 1484.52 Q1831.37 1484.52 1828.29 1479.94 Q1825.24 1475.33 1825.24 1466.61 Q1825.24 1457.86 1828.29 1453.27 Q1831.37 1448.67 1837.18 1448.67 Z" fill="#000000" fill-rule="evenodd" fill-opacity="1" /><path clip-path="url(#clip340)" d="M 0 0 M1857.34 1477.97 L1862.23 1477.97 L1862.23 1483.85 L1857.34 1483.85 L1857.34 1477.97 Z" fill="#000000" fill-rule="evenodd" fill-opacity="1" /><path clip-path="url(#clip340)" d="M 0 0 M1882.41 1452.37 Q1878.8 1452.37 1876.97 1455.94 Q1875.17 1459.48 1875.17 1466.61 Q1875.17 1473.71 1876.97 1477.28 Q1878.8 1480.82 1882.41 1480.82 Q1886.05 1480.82 1887.85 1477.28 Q1889.68 1473.71 1889.68 1466.61 Q1889.68 1459.48 1887.85 1455.94 Q1886.05 1452.37 1882.41 1452.37 M1882.41 1448.67 Q1888.22 1448.67 1891.28 1453.27 Q1894.36 1457.86 1894.36 1466.61 Q1894.36 1475.33 1891.28 1479.94 Q1888.22 1484.52 1882.41 1484.52 Q1876.6 1484.52 1873.52 1479.94 Q1870.47 1475.33 1870.47 1466.61 Q1870.47 1457.86 1873.52 1453.27 Q1876.6 1448.67 1882.41 1448.67 Z" fill="#000000" fill-rule="evenodd" fill-opacity="1" /><path clip-path="url(#clip340)" d="M 0 0 M1906.6 1479.92 L1922.92 1479.92 L1922.92 1483.85 L1900.98 1483.85 L1900.98 1479.92 Q1903.64 1477.16 1908.22 1472.53 Q1912.83 1467.88 1914.01 1466.54 Q1916.26 1464.01 1917.13 1462.28 Q1918.04 1460.52 1918.04 1458.83 Q1918.04 1456.07 1916.09 1454.34 Q1914.17 1452.6 1911.07 1452.6 Q1908.87 1452.6 1906.42 1453.37 Q1903.99 1454.13 1901.21 1455.68 L1901.21 1450.96 Q1904.03 1449.82 1906.49 1449.25 Q1908.94 1448.67 1910.98 1448.67 Q1916.35 1448.67 1919.54 1451.35 Q1922.74 1454.04 1922.74 1458.53 Q1922.74 1460.66 1921.93 1462.58 Q1921.14 1464.48 1919.03 1467.07 Q1918.45 1467.74 1915.35 1470.96 Q1912.25 1474.15 1906.6 1479.92 Z" fill="#000000" fill-rule="evenodd" fill-opacity="1" /><path clip-path="url(#clip340)" d="M 0 0 M1942.74 1452.37 Q1939.13 1452.37 1937.3 1455.94 Q1935.49 1459.48 1935.49 1466.61 Q1935.49 1473.71 1937.3 1477.28 Q1939.13 1480.82 1942.74 1480.82 Q1946.37 1480.82 1948.18 1477.28 Q1950.01 1473.71 1950.01 1466.61 Q1950.01 1459.48 1948.18 1455.94 Q1946.37 1452.37 1942.74 1452.37 M1942.74 1448.67 Q1948.55 1448.67 1951.6 1453.27 Q1954.68 1457.86 1954.68 1466.61 Q1954.68 1475.33 1951.6 1479.94 Q1948.55 1484.52 1942.74 1484.52 Q1936.93 1484.52 1933.85 1479.94 Q1930.79 1475.33 1930.79 1466.61 Q1930.79 1457.86 1933.85 1453.27 Q1936.93 1448.67 1942.74 1448.67 Z" fill="#000000" fill-rule="evenodd" fill-opacity="1" /><path clip-path="url(#clip340)" d="M 0 0 M2240.11 1452.37 Q2236.5 1452.37 2234.67 1455.94 Q2232.87 1459.48 2232.87 1466.61 Q2232.87 1473.71 2234.67 1477.28 Q2236.5 1480.82 2240.11 1480.82 Q2243.75 1480.82 2245.55 1477.28 Q2247.38 1473.71 2247.38 1466.61 Q2247.38 1459.48 2245.55 1455.94 Q2243.75 1452.37 2240.11 1452.37 M2240.11 1448.67 Q2245.92 1448.67 2248.98 1453.27 Q2252.06 1457.86 2252.06 1466.61 Q2252.06 1475.33 2248.98 1479.94 Q2245.92 1484.52 2240.11 1484.52 Q2234.3 1484.52 2231.22 1479.94 Q2228.17 1475.33 2228.17 1466.61 Q2228.17 1457.86 2231.22 1453.27 Q2234.3 1448.67 2240.11 1448.67 Z" fill="#000000" fill-rule="evenodd" fill-opacity="1" /><path clip-path="url(#clip340)" d="M 0 0 M2260.27 1477.97 L2265.16 1477.97 L2265.16 1483.85 L2260.27 1483.85 L2260.27 1477.97 Z" fill="#000000" fill-rule="evenodd" fill-opacity="1" /><path clip-path="url(#clip340)" d="M 0 0 M2285.34 1452.37 Q2281.73 1452.37 2279.9 1455.94 Q2278.1 1459.48 2278.1 1466.61 Q2278.1 1473.71 2279.9 1477.28 Q2281.73 1480.82 2285.34 1480.82 Q2288.98 1480.82 2290.78 1477.28 Q2292.61 1473.71 2292.61 1466.61 Q2292.61 1459.48 2290.78 1455.94 Q2288.98 1452.37 2285.34 1452.37 M2285.34 1448.67 Q2291.15 1448.67 2294.21 1453.27 Q2297.29 1457.86 2297.29 1466.61 Q2297.29 1475.33 2294.21 1479.94 Q2291.15 1484.52 2285.34 1484.52 Q2279.53 1484.52 2276.45 1479.94 Q2273.4 1475.33 2273.4 1466.61 Q2273.4 1457.86 2276.45 1453.27 Q2279.53 1448.67 2285.34 1448.67 Z" fill="#000000" fill-rule="evenodd" fill-opacity="1" /><path clip-path="url(#clip340)" d="M 0 0 M2309.53 1479.92 L2325.85 1479.92 L2325.85 1483.85 L2303.91 1483.85 L2303.91 1479.92 Q2306.57 1477.16 2311.15 1472.53 Q2315.76 1467.88 2316.94 1466.54 Q2319.18 1464.01 2320.06 1462.28 Q2320.97 1460.52 2320.97 1458.83 Q2320.97 1456.07 2319.02 1454.34 Q2317.1 1452.6 2314 1452.6 Q2311.8 1452.6 2309.35 1453.37 Q2306.92 1454.13 2304.14 1455.68 L2304.14 1450.96 Q2306.96 1449.82 2309.42 1449.25 Q2311.87 1448.67 2313.91 1448.67 Q2319.28 1448.67 2322.47 1451.35 Q2325.67 1454.04 2325.67 1458.53 Q2325.67 1460.66 2324.86 1462.58 Q2324.07 1464.48 2321.96 1467.07 Q2321.38 1467.74 2318.28 1470.96 Q2315.18 1474.15 2309.53 1479.92 Z" fill="#000000" fill-rule="evenodd" fill-opacity="1" /><path clip-path="url(#clip340)" d="M 0 0 M2335.71 1449.29 L2354.07 1449.29 L2354.07 1453.23 L2340 1453.23 L2340 1461.7 Q2341.01 1461.35 2342.03 1461.19 Q2343.05 1461 2344.07 1461 Q2349.86 1461 2353.24 1464.18 Q2356.62 1467.35 2356.62 1472.76 Q2356.62 1478.34 2353.14 1481.44 Q2349.67 1484.52 2343.35 1484.52 Q2341.18 1484.52 2338.91 1484.15 Q2336.66 1483.78 2334.25 1483.04 L2334.25 1478.34 Q2336.34 1479.48 2338.56 1480.03 Q2340.78 1480.59 2343.26 1480.59 Q2347.26 1480.59 2349.6 1478.48 Q2351.94 1476.38 2351.94 1472.76 Q2351.94 1469.15 2349.6 1467.05 Q2347.26 1464.94 2343.26 1464.94 Q2341.38 1464.94 2339.51 1465.36 Q2337.66 1465.77 2335.71 1466.65 L2335.71 1449.29 Z" fill="#000000" fill-rule="evenodd" fill-opacity="1" /><path clip-path="url(#clip340)" d="M 0 0 M1285.37 1522.27 L1285.37 1532.4 L1297.44 1532.4 L1297.44 1536.95 L1285.37 1536.95 L1285.37 1556.3 Q1285.37 1560.66 1286.55 1561.9 Q1287.76 1563.14 1291.42 1563.14 L1297.44 1563.14 L1297.44 1568.04 L1291.42 1568.04 Q1284.64 1568.04 1282.06 1565.53 Q1279.48 1562.98 1279.48 1556.3 L1279.48 1536.95 L1275.19 1536.95 L1275.19 1532.4 L1279.48 1532.4 L1279.48 1522.27 L1285.37 1522.27 Z" fill="#000000" fill-rule="evenodd" fill-opacity="1" /><polyline clip-path="url(#clip342)" style="stroke:#000000; stroke-width:2; stroke-opacity:0.1; fill:none" points="
  219.866,1422.94 2352.76,1422.94 
  "/>
<polyline clip-path="url(#clip342)" style="stroke:#000000; stroke-width:2; stroke-opacity:0.1; fill:none" points="
  219.866,1088.8 2352.76,1088.8 
  "/>
<polyline clip-path="url(#clip342)" style="stroke:#000000; stroke-width:2; stroke-opacity:0.1; fill:none" points="
  219.866,754.649 2352.76,754.649 
  "/>
<polyline clip-path="url(#clip342)" style="stroke:#000000; stroke-width:2; stroke-opacity:0.1; fill:none" points="
  219.866,420.502 2352.76,420.502 
  "/>
<polyline clip-path="url(#clip342)" style="stroke:#000000; stroke-width:2; stroke-opacity:0.1; fill:none" points="
  219.866,86.3552 2352.76,86.3552 
  "/>
<polyline clip-path="url(#clip340)" style="stroke:#000000; stroke-width:4; stroke-opacity:1; fill:none" points="
  219.866,1423.18 219.866,47.2441 
  "/>
<polyline clip-path="url(#clip340)" style="stroke:#000000; stroke-width:4; stroke-opacity:1; fill:none" points="
  219.866,1422.94 245.461,1422.94 
  "/>
<polyline clip-path="url(#clip340)" style="stroke:#000000; stroke-width:4; stroke-opacity:1; fill:none" points="
  219.866,1088.8 245.461,1088.8 
  "/>
<polyline clip-path="url(#clip340)" style="stroke:#000000; stroke-width:4; stroke-opacity:1; fill:none" points="
  219.866,754.649 245.461,754.649 
  "/>
<polyline clip-path="url(#clip340)" style="stroke:#000000; stroke-width:4; stroke-opacity:1; fill:none" points="
  219.866,420.502 245.461,420.502 
  "/>
<polyline clip-path="url(#clip340)" style="stroke:#000000; stroke-width:4; stroke-opacity:1; fill:none" points="
  219.866,86.3552 245.461,86.3552 
  "/>
<path clip-path="url(#clip340)" d="M 0 0 M128.288 1408.74 Q124.677 1408.74 122.848 1412.31 Q121.043 1415.85 121.043 1422.98 Q121.043 1430.08 122.848 1433.65 Q124.677 1437.19 128.288 1437.19 Q131.922 1437.19 133.728 1433.65 Q135.556 1430.08 135.556 1422.98 Q135.556 1415.85 133.728 1412.31 Q131.922 1408.74 128.288 1408.74 M128.288 1405.04 Q134.098 1405.04 137.154 1409.64 Q140.232 1414.23 140.232 1422.98 Q140.232 1431.7 137.154 1436.31 Q134.098 1440.89 128.288 1440.89 Q122.478 1440.89 119.399 1436.31 Q116.343 1431.7 116.343 1422.98 Q116.343 1414.23 119.399 1409.64 Q122.478 1405.04 128.288 1405.04 Z" fill="#000000" fill-rule="evenodd" fill-opacity="1" /><path clip-path="url(#clip340)" d="M 0 0 M148.45 1434.34 L153.334 1434.34 L153.334 1440.22 L148.45 1440.22 L148.45 1434.34 Z" fill="#000000" fill-rule="evenodd" fill-opacity="1" /><path clip-path="url(#clip340)" d="M 0 0 M167.547 1436.29 L183.866 1436.29 L183.866 1440.22 L161.922 1440.22 L161.922 1436.29 Q164.584 1433.53 169.167 1428.9 Q173.774 1424.25 174.954 1422.91 Q177.2 1420.38 178.079 1418.65 Q178.982 1416.89 178.982 1415.2 Q178.982 1412.45 177.038 1410.71 Q175.116 1408.97 172.014 1408.97 Q169.815 1408.97 167.362 1409.74 Q164.931 1410.5 162.153 1412.05 L162.153 1407.33 Q164.977 1406.2 167.431 1405.62 Q169.885 1405.04 171.922 1405.04 Q177.292 1405.04 180.487 1407.72 Q183.681 1410.41 183.681 1414.9 Q183.681 1417.03 182.871 1418.95 Q182.084 1420.85 179.977 1423.44 Q179.399 1424.11 176.297 1427.33 Q173.195 1430.52 167.547 1436.29 Z" fill="#000000" fill-rule="evenodd" fill-opacity="1" /><path clip-path="url(#clip340)" d="M 0 0 M126.205 1074.59 Q122.593 1074.59 120.765 1078.16 Q118.959 1081.7 118.959 1088.83 Q118.959 1095.94 120.765 1099.5 Q122.593 1103.04 126.205 1103.04 Q129.839 1103.04 131.644 1099.5 Q133.473 1095.94 133.473 1088.83 Q133.473 1081.7 131.644 1078.16 Q129.839 1074.59 126.205 1074.59 M126.205 1070.89 Q132.015 1070.89 135.07 1075.5 Q138.149 1080.08 138.149 1088.83 Q138.149 1097.56 135.07 1102.16 Q132.015 1106.75 126.205 1106.75 Q120.394 1106.75 117.316 1102.16 Q114.26 1097.56 114.26 1088.83 Q114.26 1080.08 117.316 1075.5 Q120.394 1070.89 126.205 1070.89 Z" fill="#000000" fill-rule="evenodd" fill-opacity="1" /><path clip-path="url(#clip340)" d="M 0 0 M146.366 1100.2 L151.251 1100.2 L151.251 1106.08 L146.366 1106.08 L146.366 1100.2 Z" fill="#000000" fill-rule="evenodd" fill-opacity="1" /><path clip-path="url(#clip340)" d="M 0 0 M174.283 1075.59 L162.477 1094.04 L174.283 1094.04 L174.283 1075.59 M173.056 1071.52 L178.936 1071.52 L178.936 1094.04 L183.866 1094.04 L183.866 1097.93 L178.936 1097.93 L178.936 1106.08 L174.283 1106.08 L174.283 1097.93 L158.681 1097.93 L158.681 1093.41 L173.056 1071.52 Z" fill="#000000" fill-rule="evenodd" fill-opacity="1" /><path clip-path="url(#clip340)" d="M 0 0 M126.529 740.448 Q122.918 740.448 121.089 744.013 Q119.283 747.554 119.283 754.684 Q119.283 761.79 121.089 765.355 Q122.918 768.897 126.529 768.897 Q130.163 768.897 131.968 765.355 Q133.797 761.79 133.797 754.684 Q133.797 747.554 131.968 744.013 Q130.163 740.448 126.529 740.448 M126.529 736.744 Q132.339 736.744 135.394 741.35 Q138.473 745.934 138.473 754.684 Q138.473 763.411 135.394 768.017 Q132.339 772.6 126.529 772.6 Q120.718 772.6 117.64 768.017 Q114.584 763.411 114.584 754.684 Q114.584 745.934 117.64 741.35 Q120.718 736.744 126.529 736.744 Z" fill="#000000" fill-rule="evenodd" fill-opacity="1" /><path clip-path="url(#clip340)" d="M 0 0 M146.691 766.049 L151.575 766.049 L151.575 771.929 L146.691 771.929 L146.691 766.049 Z" fill="#000000" fill-rule="evenodd" fill-opacity="1" /><path clip-path="url(#clip340)" d="M 0 0 M172.339 752.786 Q169.19 752.786 167.339 754.938 Q165.51 757.091 165.51 760.841 Q165.51 764.568 167.339 766.744 Q169.19 768.897 172.339 768.897 Q175.487 768.897 177.315 766.744 Q179.167 764.568 179.167 760.841 Q179.167 757.091 177.315 754.938 Q175.487 752.786 172.339 752.786 M181.621 738.133 L181.621 742.392 Q179.862 741.559 178.056 741.119 Q176.274 740.679 174.514 740.679 Q169.885 740.679 167.431 743.804 Q165.001 746.929 164.653 753.249 Q166.019 751.235 168.079 750.17 Q170.139 749.082 172.616 749.082 Q177.825 749.082 180.834 752.253 Q183.866 755.401 183.866 760.841 Q183.866 766.165 180.718 769.383 Q177.57 772.6 172.339 772.6 Q166.343 772.6 163.172 768.017 Q160.001 763.411 160.001 754.684 Q160.001 746.489 163.89 741.628 Q167.778 736.744 174.329 736.744 Q176.089 736.744 177.871 737.091 Q179.676 737.438 181.621 738.133 Z" fill="#000000" fill-rule="evenodd" fill-opacity="1" /><path clip-path="url(#clip340)" d="M 0 0 M126.783 406.301 Q123.172 406.301 121.343 409.866 Q119.538 413.407 119.538 420.537 Q119.538 427.643 121.343 431.208 Q123.172 434.75 126.783 434.75 Q130.417 434.75 132.223 431.208 Q134.052 427.643 134.052 420.537 Q134.052 413.407 132.223 409.866 Q130.417 406.301 126.783 406.301 M126.783 402.597 Q132.593 402.597 135.649 407.204 Q138.728 411.787 138.728 420.537 Q138.728 429.264 135.649 433.87 Q132.593 438.453 126.783 438.453 Q120.973 438.453 117.894 433.87 Q114.839 429.264 114.839 420.537 Q114.839 411.787 117.894 407.204 Q120.973 402.597 126.783 402.597 Z" fill="#000000" fill-rule="evenodd" fill-opacity="1" /><path clip-path="url(#clip340)" d="M 0 0 M146.945 431.903 L151.829 431.903 L151.829 437.782 L146.945 437.782 L146.945 431.903 Z" fill="#000000" fill-rule="evenodd" fill-opacity="1" /><path clip-path="url(#clip340)" d="M 0 0 M172.014 421.37 Q168.681 421.37 166.76 423.153 Q164.862 424.935 164.862 428.06 Q164.862 431.185 166.76 432.967 Q168.681 434.75 172.014 434.75 Q175.348 434.75 177.269 432.967 Q179.19 431.162 179.19 428.06 Q179.19 424.935 177.269 423.153 Q175.371 421.37 172.014 421.37 M167.339 419.379 Q164.329 418.639 162.64 416.579 Q160.973 414.518 160.973 411.555 Q160.973 407.412 163.913 405.005 Q166.876 402.597 172.014 402.597 Q177.176 402.597 180.116 405.005 Q183.056 407.412 183.056 411.555 Q183.056 414.518 181.366 416.579 Q179.7 418.639 176.714 419.379 Q180.093 420.166 181.968 422.458 Q183.866 424.75 183.866 428.06 Q183.866 433.083 180.788 435.768 Q177.732 438.453 172.014 438.453 Q166.297 438.453 163.218 435.768 Q160.163 433.083 160.163 428.06 Q160.163 424.75 162.061 422.458 Q163.959 420.166 167.339 419.379 M165.626 411.995 Q165.626 414.68 167.292 416.185 Q168.982 417.69 172.014 417.69 Q175.024 417.69 176.714 416.185 Q178.426 414.68 178.426 411.995 Q178.426 409.31 176.714 407.805 Q175.024 406.301 172.014 406.301 Q168.982 406.301 167.292 407.805 Q165.626 409.31 165.626 411.995 Z" fill="#000000" fill-rule="evenodd" fill-opacity="1" /><path clip-path="url(#clip340)" d="M 0 0 M117.501 99.7001 L125.14 99.7001 L125.14 73.3345 L116.83 75.0011 L116.83 70.7419 L125.093 69.0752 L129.769 69.0752 L129.769 99.7001 L137.408 99.7001 L137.408 103.635 L117.501 103.635 L117.501 99.7001 Z" fill="#000000" fill-rule="evenodd" fill-opacity="1" /><path clip-path="url(#clip340)" d="M 0 0 M146.853 97.7557 L151.737 97.7557 L151.737 103.635 L146.853 103.635 L146.853 97.7557 Z" fill="#000000" fill-rule="evenodd" fill-opacity="1" /><path clip-path="url(#clip340)" d="M 0 0 M171.922 72.1539 Q168.311 72.1539 166.482 75.7187 Q164.677 79.2604 164.677 86.39 Q164.677 93.4964 166.482 97.0612 Q168.311 100.603 171.922 100.603 Q175.556 100.603 177.362 97.0612 Q179.19 93.4964 179.19 86.39 Q179.19 79.2604 177.362 75.7187 Q175.556 72.1539 171.922 72.1539 M171.922 68.4503 Q177.732 68.4503 180.788 73.0567 Q183.866 77.64 183.866 86.39 Q183.866 95.1168 180.788 99.7232 Q177.732 104.307 171.922 104.307 Q166.112 104.307 163.033 99.7232 Q159.978 95.1168 159.978 86.39 Q159.978 77.64 163.033 73.0567 Q166.112 68.4503 171.922 68.4503 Z" fill="#000000" fill-rule="evenodd" fill-opacity="1" /><path clip-path="url(#clip340)" d="M 0 0 M67.3143 769.905 Q73.68 772.388 75.6216 774.743 Q77.5631 777.098 77.5631 781.045 L77.5631 785.724 L72.6615 785.724 L72.6615 782.286 Q72.6615 779.867 71.5157 778.531 Q70.3699 777.194 66.1048 775.571 L63.4312 774.52 L28.3562 788.939 L28.3562 782.732 L56.238 771.592 L28.3562 760.452 L28.3562 754.245 L67.3143 769.905 Z" fill="#000000" fill-rule="evenodd" fill-opacity="1" /><path clip-path="url(#clip340)" d="M 0 0 M14.5426 732.093 Q21.8632 736.358 29.0246 738.427 Q36.186 740.496 43.5384 740.496 Q50.8908 740.496 58.1159 738.427 Q65.3091 736.326 72.5979 732.093 L72.5979 737.185 Q65.1182 741.96 57.8931 744.347 Q50.668 746.702 43.5384 746.702 Q36.4406 746.702 29.2474 744.347 Q22.0542 741.991 14.5426 737.185 L14.5426 732.093 Z" fill="#000000" fill-rule="evenodd" fill-opacity="1" /><path clip-path="url(#clip340)" d="M 0 0 M18.2347 714.937 L28.3562 714.937 L28.3562 702.874 L32.9077 702.874 L32.9077 714.937 L52.2594 714.937 Q56.6199 714.937 57.8613 713.76 Q59.1026 712.55 59.1026 708.89 L59.1026 702.874 L64.0042 702.874 L64.0042 708.89 Q64.0042 715.669 61.4897 718.247 Q58.9434 720.825 52.2594 720.825 L32.9077 720.825 L32.9077 725.122 L28.3562 725.122 L28.3562 720.825 L18.2347 720.825 L18.2347 714.937 Z" fill="#000000" fill-rule="evenodd" fill-opacity="1" /><path clip-path="url(#clip340)" d="M 0 0 M14.5426 696.095 L14.5426 691.002 Q22.0542 686.228 29.2474 683.873 Q36.4406 681.485 43.5384 681.485 Q50.668 681.485 57.8931 683.873 Q65.1182 686.228 72.5979 691.002 L72.5979 696.095 Q65.3091 691.862 58.1159 689.793 Q50.8908 687.692 43.5384 687.692 Q36.186 687.692 29.0246 689.793 Q21.8632 691.862 14.5426 696.095 Z" fill="#000000" fill-rule="evenodd" fill-opacity="1" /><polyline clip-path="url(#clip342)" style="stroke:#009af9; stroke-width:4; stroke-opacity:1; fill:none" points="
  300.556,1384.24 320.881,1094.59 341.206,869.568 361.53,694.761 381.855,558.961 402.18,453.464 422.505,371.508 442.83,307.839 463.155,258.378 483.48,219.954 
  503.804,190.104 524.129,166.915 544.454,148.9 564.779,134.905 585.104,124.033 605.429,115.587 625.753,109.026 646.078,103.929 666.403,99.9692 686.728,96.893 
  707.053,94.5033 727.378,92.6468 747.703,91.2046 768.027,90.0843 788.352,89.2139 808.677,88.5378 829.002,88.0125 849.327,87.6045 869.652,87.2875 889.977,87.0413 
  910.301,86.85 930.626,86.7014 950.951,86.586 971.276,86.4964 991.601,86.4267 1011.93,86.3726 1032.25,86.3306 1052.58,86.298 1072.9,86.2727 1093.23,86.253 
  1113.55,86.2377 1133.87,86.2259 1154.2,86.2167 1174.52,86.2096 1194.85,86.204 1215.17,86.1997 1235.5,86.1964 1255.82,86.1939 1276.15,86.1919 1296.47,86.1903 
  1316.8,86.1892 1337.12,86.1883 1357.45,86.1876 1377.77,86.187 1398.1,86.1866 1418.42,86.1863 1438.75,86.1861 1459.07,86.186 1479.4,86.1858 1499.72,86.1858 
  1520.05,86.1857 1540.37,86.1857 1560.7,86.1857 1581.02,86.1857 1601.35,86.1857 1621.67,86.1857 1642,86.1857 1662.32,86.1858 1682.65,86.1858 1702.97,86.1858 
  1723.3,86.1859 1743.62,86.1859 1763.95,86.186 1784.27,86.186 1804.59,86.186 1824.92,86.1861 1845.24,86.1861 1865.57,86.1862 1885.89,86.1862 1906.22,86.1863 
  1926.54,86.1863 1946.87,86.1864 1967.19,86.1864 1987.52,86.1865 2007.84,86.1865 2028.17,86.1866 2048.49,86.1866 2068.82,86.1866 2089.14,86.1867 2109.47,86.1867 
  2129.79,86.1868 2150.12,86.1868 2170.44,86.1869 2190.77,86.1869 2211.09,86.187 2231.42,86.187 2251.74,86.1871 2272.07,86.1871 2292.39,86.1872 
  "/>
</svg>
