<?xml version="1.0" encoding="utf-8"?>
<svg xmlns="http://www.w3.org/2000/svg" xmlns:xlink="http://www.w3.org/1999/xlink" width="600" height="400" viewBox="0 0 2400 1600">
<defs>
  <clipPath id="clip690">
    <rect x="0" y="0" width="2400" height="1600"/>
  </clipPath>
</defs>
<path clip-path="url(#clip690)" d="
M0 1600 L2400 1600 L2400 0 L0 0  Z
  " fill="#ffffff" fill-rule="evenodd" fill-opacity="1"/>
<defs>
  <clipPath id="clip691">
    <rect x="480" y="0" width="1681" height="1600"/>
  </clipPath>
</defs>
<path clip-path="url(#clip690)" d="
M212.459 1423.18 L2352.76 1423.18 L2352.76 123.472 L212.459 123.472  Z
  " fill="#ffffff" fill-rule="evenodd" fill-opacity="1"/>
<defs>
  <clipPath id="clip692">
    <rect x="212" y="123" width="2141" height="1301"/>
  </clipPath>
</defs>
<polyline clip-path="url(#clip692)" style="stroke:#000000; stroke-width:2; stroke-opacity:0.1; fill:none" points="
  227.914,1423.18 227.914,123.472 
  "/>
<polyline clip-path="url(#clip692)" style="stroke:#000000; stroke-width:2; stroke-opacity:0.1; fill:none" points="
  718.932,1423.18 718.932,123.472 
  "/>
<polyline clip-path="url(#clip692)" style="stroke:#000000; stroke-width:2; stroke-opacity:0.1; fill:none" points="
  1209.95,1423.18 1209.95,123.472 
  "/>
<polyline clip-path="url(#clip692)" style="stroke:#000000; stroke-width:2; stroke-opacity:0.1; fill:none" points="
  1700.97,1423.18 1700.97,123.472 
  "/>
<polyline clip-path="url(#clip692)" style="stroke:#000000; stroke-width:2; stroke-opacity:0.1; fill:none" points="
  2191.99,1423.18 2191.99,123.472 
  "/>
<polyline clip-path="url(#clip690)" style="stroke:#000000; stroke-width:4; stroke-opacity:1; fill:none" points="
  212.459,1423.18 2352.76,1423.18 
  "/>
<polyline clip-path="url(#clip690)" style="stroke:#000000; stroke-width:4; stroke-opacity:1; fill:none" points="
  227.914,1423.18 227.914,1407.58 
  "/>
<polyline clip-path="url(#clip690)" style="stroke:#000000; stroke-width:4; stroke-opacity:1; fill:none" points="
  718.932,1423.18 718.932,1407.58 
  "/>
<polyline clip-path="url(#clip690)" style="stroke:#000000; stroke-width:4; stroke-opacity:1; fill:none" points="
  1209.95,1423.18 1209.95,1407.58 
  "/>
<polyline clip-path="url(#clip690)" style="stroke:#000000; stroke-width:4; stroke-opacity:1; fill:none" points="
  1700.97,1423.18 1700.97,1407.58 
  "/>
<polyline clip-path="url(#clip690)" style="stroke:#000000; stroke-width:4; stroke-opacity:1; fill:none" points="
  2191.99,1423.18 2191.99,1407.58 
  "/>
<path clip-path="url(#clip690)" d="M 0 0 M197.104 1467.02 L226.78 1467.02 L226.78 1470.96 L197.104 1470.96 L197.104 1467.02 Z" fill="#000000" fill-rule="evenodd" fill-opacity="1" /><path clip-path="url(#clip690)" d="M 0 0 M246.873 1467.44 Q243.539 1467.44 241.618 1469.22 Q239.72 1471 239.72 1474.13 Q239.72 1477.25 241.618 1479.04 Q243.539 1480.82 246.873 1480.82 Q250.206 1480.82 252.127 1479.04 Q254.049 1477.23 254.049 1474.13 Q254.049 1471 252.127 1469.22 Q250.229 1467.44 246.873 1467.44 M242.197 1465.45 Q239.187 1464.71 237.498 1462.65 Q235.831 1460.59 235.831 1457.63 Q235.831 1453.48 238.771 1451.07 Q241.734 1448.67 246.873 1448.67 Q252.035 1448.67 254.974 1451.07 Q257.914 1453.48 257.914 1457.63 Q257.914 1460.59 256.224 1462.65 Q254.558 1464.71 251.572 1465.45 Q254.951 1466.24 256.826 1468.53 Q258.724 1470.82 258.724 1474.13 Q258.724 1479.15 255.646 1481.84 Q252.59 1484.52 246.873 1484.52 Q241.155 1484.52 238.076 1481.84 Q235.021 1479.15 235.021 1474.13 Q235.021 1470.82 236.919 1468.53 Q238.817 1466.24 242.197 1465.45 M240.484 1458.06 Q240.484 1460.75 242.15 1462.25 Q243.84 1463.76 246.873 1463.76 Q249.882 1463.76 251.572 1462.25 Q253.285 1460.75 253.285 1458.06 Q253.285 1455.38 251.572 1453.88 Q249.882 1452.37 246.873 1452.37 Q243.84 1452.37 242.15 1453.88 Q240.484 1455.38 240.484 1458.06 Z" fill="#000000" fill-rule="evenodd" fill-opacity="1" /><path clip-path="url(#clip690)" d="M 0 0 M687.995 1467.02 L717.671 1467.02 L717.671 1470.96 L687.995 1470.96 L687.995 1467.02 Z" fill="#000000" fill-rule="evenodd" fill-opacity="1" /><path clip-path="url(#clip690)" d="M 0 0 M738.342 1464.71 Q735.194 1464.71 733.342 1466.86 Q731.513 1469.01 731.513 1472.76 Q731.513 1476.49 733.342 1478.67 Q735.194 1480.82 738.342 1480.82 Q741.49 1480.82 743.319 1478.67 Q745.171 1476.49 745.171 1472.76 Q745.171 1469.01 743.319 1466.86 Q741.49 1464.71 738.342 1464.71 M747.624 1450.06 L747.624 1454.31 Q745.865 1453.48 744.06 1453.04 Q742.277 1452.6 740.518 1452.6 Q735.888 1452.6 733.435 1455.73 Q731.004 1458.85 730.657 1465.17 Q732.023 1463.16 734.083 1462.09 Q736.143 1461 738.62 1461 Q743.828 1461 746.837 1464.18 Q749.87 1467.32 749.87 1472.76 Q749.87 1478.09 746.722 1481.31 Q743.573 1484.52 738.342 1484.52 Q732.347 1484.52 729.175 1479.94 Q726.004 1475.33 726.004 1466.61 Q726.004 1458.41 729.893 1453.55 Q733.782 1448.67 740.333 1448.67 Q742.092 1448.67 743.874 1449.01 Q745.68 1449.36 747.624 1450.06 Z" fill="#000000" fill-rule="evenodd" fill-opacity="1" /><path clip-path="url(#clip690)" d="M 0 0 M1178.85 1467.02 L1208.53 1467.02 L1208.53 1470.96 L1178.85 1470.96 L1178.85 1467.02 Z" fill="#000000" fill-rule="evenodd" fill-opacity="1" /><path clip-path="url(#clip690)" d="M 0 0 M1231.47 1453.37 L1219.66 1471.81 L1231.47 1471.81 L1231.47 1453.37 M1230.24 1449.29 L1236.12 1449.29 L1236.12 1471.81 L1241.05 1471.81 L1241.05 1475.7 L1236.12 1475.7 L1236.12 1483.85 L1231.47 1483.85 L1231.47 1475.7 L1215.86 1475.7 L1215.86 1471.19 L1230.24 1449.29 Z" fill="#000000" fill-rule="evenodd" fill-opacity="1" /><path clip-path="url(#clip690)" d="M 0 0 M1670.91 1467.02 L1700.59 1467.02 L1700.59 1470.96 L1670.91 1470.96 L1670.91 1467.02 Z" fill="#000000" fill-rule="evenodd" fill-opacity="1" /><path clip-path="url(#clip690)" d="M 0 0 M1714.71 1479.92 L1731.03 1479.92 L1731.03 1483.85 L1709.08 1483.85 L1709.08 1479.92 Q1711.74 1477.16 1716.33 1472.53 Q1720.93 1467.88 1722.11 1466.54 Q1724.36 1464.01 1725.24 1462.28 Q1726.14 1460.52 1726.14 1458.83 Q1726.14 1456.07 1724.2 1454.34 Q1722.28 1452.6 1719.17 1452.6 Q1716.98 1452.6 1714.52 1453.37 Q1712.09 1454.13 1709.31 1455.68 L1709.31 1450.96 Q1712.14 1449.82 1714.59 1449.25 Q1717.04 1448.67 1719.08 1448.67 Q1724.45 1448.67 1727.65 1451.35 Q1730.84 1454.04 1730.84 1458.53 Q1730.84 1460.66 1730.03 1462.58 Q1729.24 1464.48 1727.14 1467.07 Q1726.56 1467.74 1723.46 1470.96 Q1720.35 1474.15 1714.71 1479.92 Z" fill="#000000" fill-rule="evenodd" fill-opacity="1" /><path clip-path="url(#clip690)" d="M 0 0 M2191.99 1452.37 Q2188.38 1452.37 2186.55 1455.94 Q2184.74 1459.48 2184.74 1466.61 Q2184.74 1473.71 2186.55 1477.28 Q2188.38 1480.82 2191.99 1480.82 Q2195.62 1480.82 2197.43 1477.28 Q2199.25 1473.71 2199.25 1466.61 Q2199.25 1459.48 2197.43 1455.94 Q2195.62 1452.37 2191.99 1452.37 M2191.99 1448.67 Q2197.8 1448.67 2200.85 1453.27 Q2203.93 1457.86 2203.93 1466.61 Q2203.93 1475.33 2200.85 1479.94 Q2197.8 1484.52 2191.99 1484.52 Q2186.18 1484.52 2183.1 1479.94 Q2180.04 1475.33 2180.04 1466.61 Q2180.04 1457.86 2183.1 1453.27 Q2186.18 1448.67 2191.99 1448.67 Z" fill="#000000" fill-rule="evenodd" fill-opacity="1" /><path clip-path="url(#clip690)" d="M 0 0 M1162.15 1545.76 Q1164.22 1546.46 1166.16 1548.76 Q1168.14 1551.05 1170.11 1555.06 L1176.63 1568.04 L1169.73 1568.04 L1163.65 1555.85 Q1161.29 1551.08 1159.06 1549.52 Q1156.87 1547.96 1153.05 1547.96 L1146.05 1547.96 L1146.05 1568.04 L1139.62 1568.04 L1139.62 1520.52 L1154.13 1520.52 Q1162.28 1520.52 1166.29 1523.93 Q1170.3 1527.34 1170.3 1534.21 Q1170.3 1538.7 1168.2 1541.66 Q1166.13 1544.62 1162.15 1545.76 M1146.05 1525.81 L1146.05 1542.68 L1154.13 1542.68 Q1158.78 1542.68 1161.13 1540.54 Q1163.52 1538.38 1163.52 1534.21 Q1163.52 1530.04 1161.13 1527.94 Q1158.78 1525.81 1154.13 1525.81 L1146.05 1525.81 Z" fill="#000000" fill-rule="evenodd" fill-opacity="1" /><path clip-path="url(#clip690)" d="M 0 0 M1212.22 1548.76 L1212.22 1551.62 L1185.29 1551.62 Q1185.67 1557.67 1188.92 1560.85 Q1192.2 1564 1198.02 1564 Q1201.4 1564 1204.55 1563.17 Q1207.73 1562.35 1210.85 1560.69 L1210.85 1566.23 Q1207.7 1567.57 1204.39 1568.27 Q1201.08 1568.97 1197.67 1568.97 Q1189.14 1568.97 1184.15 1564 Q1179.18 1559.04 1179.18 1550.57 Q1179.18 1541.82 1183.89 1536.69 Q1188.63 1531.54 1196.65 1531.54 Q1203.85 1531.54 1208.02 1536.18 Q1212.22 1540.8 1212.22 1548.76 M1206.36 1547.04 Q1206.3 1542.23 1203.66 1539.37 Q1201.05 1536.5 1196.72 1536.5 Q1191.82 1536.5 1188.86 1539.27 Q1185.93 1542.04 1185.48 1547.07 L1206.36 1547.04 Z" fill="#000000" fill-rule="evenodd" fill-opacity="1" /><path clip-path="url(#clip690)" d="M 0 0 M1235.9 1518.58 Q1231.63 1525.9 1229.57 1533.06 Q1227.5 1540.23 1227.5 1547.58 Q1227.5 1554.93 1229.57 1562.16 Q1231.67 1569.35 1235.9 1576.64 L1230.81 1576.64 Q1226.03 1569.16 1223.65 1561.93 Q1221.29 1554.71 1221.29 1547.58 Q1221.29 1540.48 1223.65 1533.29 Q1226 1526.09 1230.81 1518.58 L1235.9 1518.58 Z" fill="#000000" fill-rule="evenodd" fill-opacity="1" /><path clip-path="url(#clip690)" d="M 0 0 M1267.92 1537.87 Q1266.93 1537.3 1265.75 1537.04 Q1264.61 1536.76 1263.21 1536.76 Q1258.24 1536.76 1255.57 1540 Q1252.93 1543.22 1252.93 1549.27 L1252.93 1568.04 L1247.04 1568.04 L1247.04 1532.4 L1252.93 1532.4 L1252.93 1537.93 Q1254.77 1534.69 1257.73 1533.13 Q1260.69 1531.54 1264.93 1531.54 Q1265.53 1531.54 1266.26 1531.63 Q1267 1531.7 1267.89 1531.85 L1267.92 1537.87 Z" fill="#000000" fill-rule="evenodd" fill-opacity="1" /><path clip-path="url(#clip690)" d="M 0 0 M1286.44 1536.5 Q1281.73 1536.5 1278.99 1540.19 Q1276.26 1543.85 1276.26 1550.25 Q1276.26 1556.65 1278.96 1560.34 Q1281.7 1564 1286.44 1564 Q1291.12 1564 1293.86 1560.31 Q1296.6 1556.62 1296.6 1550.25 Q1296.6 1543.92 1293.86 1540.23 Q1291.12 1536.5 1286.44 1536.5 M1286.44 1531.54 Q1294.08 1531.54 1298.44 1536.5 Q1302.8 1541.47 1302.8 1550.25 Q1302.8 1559 1298.44 1564 Q1294.08 1568.97 1286.44 1568.97 Q1278.77 1568.97 1274.41 1564 Q1270.08 1559 1270.08 1550.25 Q1270.08 1541.47 1274.41 1536.5 Q1278.77 1531.54 1286.44 1531.54 Z" fill="#000000" fill-rule="evenodd" fill-opacity="1" /><path clip-path="url(#clip690)" d="M 0 0 M1326.32 1536.5 Q1321.61 1536.5 1318.88 1540.19 Q1316.14 1543.85 1316.14 1550.25 Q1316.14 1556.65 1318.84 1560.34 Q1321.58 1564 1326.32 1564 Q1331 1564 1333.74 1560.31 Q1336.48 1556.62 1336.48 1550.25 Q1336.48 1543.92 1333.74 1540.23 Q1331 1536.5 1326.32 1536.5 M1326.32 1531.54 Q1333.96 1531.54 1338.32 1536.5 Q1342.68 1541.47 1342.68 1550.25 Q1342.68 1559 1338.32 1564 Q1333.96 1568.97 1326.32 1568.97 Q1318.65 1568.97 1314.29 1564 Q1309.96 1559 1309.96 1550.25 Q1309.96 1541.47 1314.29 1536.5 Q1318.65 1531.54 1326.32 1531.54 Z" fill="#000000" fill-rule="evenodd" fill-opacity="1" /><path clip-path="url(#clip690)" d="M 0 0 M1358.18 1522.27 L1358.18 1532.4 L1370.25 1532.4 L1370.25 1536.95 L1358.18 1536.95 L1358.18 1556.3 Q1358.18 1560.66 1359.36 1561.9 Q1360.57 1563.14 1364.23 1563.14 L1370.25 1563.14 L1370.25 1568.04 L1364.23 1568.04 Q1357.45 1568.04 1354.87 1565.53 Q1352.3 1562.98 1352.3 1556.3 L1352.3 1536.95 L1348 1536.95 L1348 1532.4 L1352.3 1532.4 L1352.3 1522.27 L1358.18 1522.27 Z" fill="#000000" fill-rule="evenodd" fill-opacity="1" /><path clip-path="url(#clip690)" d="M 0 0 M1400.68 1533.45 L1400.68 1538.98 Q1398.19 1537.71 1395.52 1537.07 Q1392.85 1536.44 1389.98 1536.44 Q1385.62 1536.44 1383.42 1537.77 Q1381.26 1539.11 1381.26 1541.79 Q1381.26 1543.82 1382.82 1545 Q1384.38 1546.15 1389.09 1547.2 L1391.09 1547.64 Q1397.33 1548.98 1399.94 1551.43 Q1402.59 1553.85 1402.59 1558.21 Q1402.59 1563.17 1398.64 1566.07 Q1394.72 1568.97 1387.85 1568.97 Q1384.98 1568.97 1381.86 1568.39 Q1378.78 1567.85 1375.34 1566.74 L1375.34 1560.69 Q1378.59 1562.38 1381.74 1563.24 Q1384.89 1564.07 1387.98 1564.07 Q1392.11 1564.07 1394.34 1562.66 Q1396.57 1561.23 1396.57 1558.65 Q1396.57 1556.27 1394.95 1554.99 Q1393.35 1553.72 1387.91 1552.54 L1385.88 1552.07 Q1380.43 1550.92 1378.01 1548.56 Q1375.59 1546.18 1375.59 1542.04 Q1375.59 1537.01 1379.16 1534.27 Q1382.72 1531.54 1389.28 1531.54 Q1392.53 1531.54 1395.39 1532.01 Q1398.26 1532.49 1400.68 1533.45 Z" fill="#000000" fill-rule="evenodd" fill-opacity="1" /><path clip-path="url(#clip690)" d="M 0 0 M1410.99 1518.58 L1416.08 1518.58 Q1420.85 1526.09 1423.21 1533.29 Q1425.6 1540.48 1425.6 1547.58 Q1425.6 1554.71 1423.21 1561.93 Q1420.85 1569.16 1416.08 1576.64 L1410.99 1576.64 Q1415.22 1569.35 1417.29 1562.16 Q1419.39 1554.93 1419.39 1547.58 Q1419.39 1540.23 1417.29 1533.06 Q1415.22 1525.9 1410.99 1518.58 Z" fill="#000000" fill-rule="evenodd" fill-opacity="1" /><polyline clip-path="url(#clip692)" style="stroke:#000000; stroke-width:2; stroke-opacity:0.1; fill:none" points="
  212.459,1318.77 2352.76,1318.77 
  "/>
<polyline clip-path="url(#clip692)" style="stroke:#000000; stroke-width:2; stroke-opacity:0.1; fill:none" points="
  212.459,1046.05 2352.76,1046.05 
  "/>
<polyline clip-path="url(#clip692)" style="stroke:#000000; stroke-width:2; stroke-opacity:0.1; fill:none" points="
  212.459,773.326 2352.76,773.326 
  "/>
<polyline clip-path="url(#clip692)" style="stroke:#000000; stroke-width:2; stroke-opacity:0.1; fill:none" points="
  212.459,500.603 2352.76,500.603 
  "/>
<polyline clip-path="url(#clip692)" style="stroke:#000000; stroke-width:2; stroke-opacity:0.1; fill:none" points="
  212.459,227.88 2352.76,227.88 
  "/>
<polyline clip-path="url(#clip690)" style="stroke:#000000; stroke-width:4; stroke-opacity:1; fill:none" points="
  212.459,1423.18 212.459,123.472 
  "/>
<polyline clip-path="url(#clip690)" style="stroke:#000000; stroke-width:4; stroke-opacity:1; fill:none" points="
  212.459,1318.77 238.142,1318.77 
  "/>
<polyline clip-path="url(#clip690)" style="stroke:#000000; stroke-width:4; stroke-opacity:1; fill:none" points="
  212.459,1046.05 238.142,1046.05 
  "/>
<polyline clip-path="url(#clip690)" style="stroke:#000000; stroke-width:4; stroke-opacity:1; fill:none" points="
  212.459,773.326 238.142,773.326 
  "/>
<polyline clip-path="url(#clip690)" style="stroke:#000000; stroke-width:4; stroke-opacity:1; fill:none" points="
  212.459,500.603 238.142,500.603 
  "/>
<polyline clip-path="url(#clip690)" style="stroke:#000000; stroke-width:4; stroke-opacity:1; fill:none" points="
  212.459,227.88 238.142,227.88 
  "/>
<path clip-path="url(#clip690)" d="M 0 0 M114.26 1319.22 L143.936 1319.22 L143.936 1323.16 L114.26 1323.16 L114.26 1319.22 Z" fill="#000000" fill-rule="evenodd" fill-opacity="1" /><path clip-path="url(#clip690)" d="M 0 0 M166.876 1305.57 L155.07 1324.02 L166.876 1324.02 L166.876 1305.57 M165.649 1301.49 L171.528 1301.49 L171.528 1324.02 L176.459 1324.02 L176.459 1327.9 L171.528 1327.9 L171.528 1336.05 L166.876 1336.05 L166.876 1327.9 L151.274 1327.9 L151.274 1323.39 L165.649 1301.49 Z" fill="#000000" fill-rule="evenodd" fill-opacity="1" /><path clip-path="url(#clip690)" d="M 0 0 M116.343 1046.5 L146.019 1046.5 L146.019 1050.44 L116.343 1050.44 L116.343 1046.5 Z" fill="#000000" fill-rule="evenodd" fill-opacity="1" /><path clip-path="url(#clip690)" d="M 0 0 M160.14 1059.39 L176.459 1059.39 L176.459 1063.33 L154.515 1063.33 L154.515 1059.39 Q157.177 1056.64 161.76 1052.01 Q166.366 1047.36 167.547 1046.01 Q169.792 1043.49 170.672 1041.76 Q171.575 1040 171.575 1038.31 Q171.575 1035.55 169.63 1033.82 Q167.709 1032.08 164.607 1032.08 Q162.408 1032.08 159.954 1032.84 Q157.524 1033.61 154.746 1035.16 L154.746 1030.44 Q157.57 1029.3 160.024 1028.72 Q162.477 1028.14 164.515 1028.14 Q169.885 1028.14 173.079 1030.83 Q176.274 1033.51 176.274 1038.01 Q176.274 1040.13 175.464 1042.06 Q174.677 1043.95 172.57 1046.55 Q171.991 1047.22 168.889 1050.44 Q165.788 1053.63 160.14 1059.39 Z" fill="#000000" fill-rule="evenodd" fill-opacity="1" /><path clip-path="url(#clip690)" d="M 0 0 M164.515 759.125 Q160.903 759.125 159.075 762.689 Q157.269 766.231 157.269 773.361 Q157.269 780.467 159.075 784.032 Q160.903 787.574 164.515 787.574 Q168.149 787.574 169.954 784.032 Q171.783 780.467 171.783 773.361 Q171.783 766.231 169.954 762.689 Q168.149 759.125 164.515 759.125 M164.515 755.421 Q170.325 755.421 173.38 760.027 Q176.459 764.611 176.459 773.361 Q176.459 782.088 173.38 786.694 Q170.325 791.277 164.515 791.277 Q158.704 791.277 155.626 786.694 Q152.57 782.088 152.57 773.361 Q152.57 764.611 155.626 760.027 Q158.704 755.421 164.515 755.421 Z" fill="#000000" fill-rule="evenodd" fill-opacity="1" /><path clip-path="url(#clip690)" d="M 0 0 M160.14 513.948 L176.459 513.948 L176.459 517.883 L154.515 517.883 L154.515 513.948 Q157.177 511.193 161.76 506.563 Q166.366 501.911 167.547 500.568 Q169.792 498.045 170.672 496.309 Q171.575 494.55 171.575 492.86 Q171.575 490.105 169.63 488.369 Q167.709 486.633 164.607 486.633 Q162.408 486.633 159.954 487.397 Q157.524 488.161 154.746 489.712 L154.746 484.989 Q157.57 483.855 160.024 483.277 Q162.477 482.698 164.515 482.698 Q169.885 482.698 173.079 485.383 Q176.274 488.068 176.274 492.559 Q176.274 494.688 175.464 496.61 Q174.677 498.508 172.57 501.1 Q171.991 501.772 168.889 504.989 Q165.788 508.184 160.14 513.948 Z" fill="#000000" fill-rule="evenodd" fill-opacity="1" /><path clip-path="url(#clip690)" d="M 0 0 M166.876 214.674 L155.07 233.123 L166.876 233.123 L166.876 214.674 M165.649 210.6 L171.528 210.6 L171.528 233.123 L176.459 233.123 L176.459 237.012 L171.528 237.012 L171.528 245.16 L166.876 245.16 L166.876 237.012 L151.274 237.012 L151.274 232.498 L165.649 210.6 Z" fill="#000000" fill-rule="evenodd" fill-opacity="1" /><path clip-path="url(#clip690)" d="M 0 0 M16.4842 916.443 L16.4842 910.014 L64.0042 910.014 L64.0042 916.443 L16.4842 916.443 Z" fill="#000000" fill-rule="evenodd" fill-opacity="1" /><path clip-path="url(#clip690)" d="M 0 0 M35.1993 869.719 Q31.2526 867.523 29.3747 864.467 Q27.4968 861.411 27.4968 857.274 Q27.4968 851.704 31.4117 848.68 Q35.2948 845.656 42.4881 845.656 L64.0042 845.656 L64.0042 851.545 L42.679 851.545 Q37.5546 851.545 35.072 853.359 Q32.5894 855.173 32.5894 858.897 Q32.5894 863.448 35.6131 866.09 Q38.6368 868.732 43.8567 868.732 L64.0042 868.732 L64.0042 874.62 L42.679 874.62 Q37.5228 874.62 35.072 876.435 Q32.5894 878.249 32.5894 882.036 Q32.5894 886.524 35.6449 889.166 Q38.6686 891.808 43.8567 891.808 L64.0042 891.808 L64.0042 897.696 L28.3562 897.696 L28.3562 891.808 L33.8944 891.808 Q30.616 889.803 29.0564 887.002 Q27.4968 884.201 27.4968 880.349 Q27.4968 876.466 29.4702 873.761 Q31.4436 871.024 35.1993 869.719 Z" fill="#000000" fill-rule="evenodd" fill-opacity="1" /><path clip-path="url(#clip690)" d="M 0 0 M14.5426 819.907 Q21.8632 824.172 29.0246 826.241 Q36.186 828.31 43.5384 828.31 Q50.8908 828.31 58.1159 826.241 Q65.3091 824.14 72.5979 819.907 L72.5979 825 Q65.1182 829.774 57.8931 832.161 Q50.668 834.516 43.5384 834.516 Q36.4406 834.516 29.2474 832.161 Q22.0542 829.806 14.5426 825 L14.5426 819.907 Z" fill="#000000" fill-rule="evenodd" fill-opacity="1" /><path clip-path="url(#clip690)" d="M 0 0 M33.8307 787.888 Q33.2578 788.874 33.0032 790.052 Q32.7167 791.198 32.7167 792.598 Q32.7167 797.563 35.9632 800.237 Q39.1779 802.879 45.2253 802.879 L64.0042 802.879 L64.0042 808.767 L28.3562 808.767 L28.3562 802.879 L33.8944 802.879 Q30.6479 801.033 29.0883 798.073 Q27.4968 795.113 27.4968 790.879 Q27.4968 790.275 27.5923 789.543 Q27.656 788.811 27.8151 787.919 L33.8307 787.888 Z" fill="#000000" fill-rule="evenodd" fill-opacity="1" /><path clip-path="url(#clip690)" d="M 0 0 M32.4621 769.363 Q32.4621 774.074 36.1542 776.811 Q39.8145 779.548 46.212 779.548 Q52.6095 779.548 56.3017 776.843 Q59.9619 774.106 59.9619 769.363 Q59.9619 764.685 56.2698 761.947 Q52.5777 759.21 46.212 759.21 Q39.8781 759.21 36.186 761.947 Q32.4621 764.685 32.4621 769.363 M27.4968 769.363 Q27.4968 761.724 32.4621 757.364 Q37.4273 753.003 46.212 753.003 Q54.9649 753.003 59.9619 757.364 Q64.9272 761.724 64.9272 769.363 Q64.9272 777.034 59.9619 781.395 Q54.9649 785.723 46.212 785.723 Q37.4273 785.723 32.4621 781.395 Q27.4968 777.034 27.4968 769.363 Z" fill="#000000" fill-rule="evenodd" fill-opacity="1" /><path clip-path="url(#clip690)" d="M 0 0 M32.4621 729.482 Q32.4621 734.193 36.1542 736.93 Q39.8145 739.667 46.212 739.667 Q52.6095 739.667 56.3017 736.962 Q59.9619 734.225 59.9619 729.482 Q59.9619 724.803 56.2698 722.066 Q52.5777 719.329 46.212 719.329 Q39.8781 719.329 36.186 722.066 Q32.4621 724.803 32.4621 729.482 M27.4968 729.482 Q27.4968 721.843 32.4621 717.483 Q37.4273 713.122 46.212 713.122 Q54.9649 713.122 59.9619 717.483 Q64.9272 721.843 64.9272 729.482 Q64.9272 737.153 59.9619 741.513 Q54.9649 745.842 46.212 745.842 Q37.4273 745.842 32.4621 741.513 Q27.4968 737.153 27.4968 729.482 Z" fill="#000000" fill-rule="evenodd" fill-opacity="1" /><path clip-path="url(#clip690)" d="M 0 0 M18.2347 697.622 L28.3562 697.622 L28.3562 685.559 L32.9077 685.559 L32.9077 697.622 L52.2594 697.622 Q56.6199 697.622 57.8613 696.444 Q59.1026 695.235 59.1026 691.574 L59.1026 685.559 L64.0042 685.559 L64.0042 691.574 Q64.0042 698.354 61.4897 700.932 Q58.9434 703.51 52.2594 703.51 L32.9077 703.51 L32.9077 707.807 L28.3562 707.807 L28.3562 703.51 L18.2347 703.51 L18.2347 697.622 Z" fill="#000000" fill-rule="evenodd" fill-opacity="1" /><path clip-path="url(#clip690)" d="M 0 0 M29.4065 655.131 L34.9447 655.131 Q33.6716 657.613 33.035 660.287 Q32.3984 662.961 32.3984 665.825 Q32.3984 670.186 33.7352 672.382 Q35.072 674.546 37.7456 674.546 Q39.7826 674.546 40.9603 672.987 Q42.1061 671.427 43.1565 666.716 L43.6021 664.711 Q44.9389 658.473 47.3897 655.863 Q49.8086 653.221 54.1691 653.221 Q59.1344 653.221 62.0308 657.168 Q64.9272 661.083 64.9272 667.958 Q64.9272 670.822 64.3543 673.941 Q63.8132 677.029 62.6992 680.466 L56.6518 680.466 Q58.3387 677.22 59.198 674.069 Q60.0256 670.918 60.0256 667.83 Q60.0256 663.693 58.6251 661.465 Q57.1929 659.237 54.6147 659.237 Q52.2276 659.237 50.9545 660.86 Q49.6813 662.451 48.5037 667.894 L48.0262 669.931 Q46.8804 675.374 44.5251 677.793 Q42.138 680.212 38.0002 680.212 Q32.9713 680.212 30.2341 676.647 Q27.4968 673.082 27.4968 666.525 Q27.4968 663.279 27.9743 660.414 Q28.4517 657.55 29.4065 655.131 Z" fill="#000000" fill-rule="evenodd" fill-opacity="1" /><path clip-path="url(#clip690)" d="M 0 0 M14.5426 644.818 L14.5426 639.726 Q22.0542 634.951 29.2474 632.596 Q36.4406 630.209 43.5384 630.209 Q50.668 630.209 57.8931 632.596 Q65.1182 634.951 72.5979 639.726 L72.5979 644.818 Q65.3091 640.585 58.1159 638.516 Q50.8908 636.416 43.5384 636.416 Q36.186 636.416 29.0246 638.516 Q21.8632 640.585 14.5426 644.818 Z" fill="#000000" fill-rule="evenodd" fill-opacity="1" /><path clip-path="url(#clip690)" d="M 0 0 M1102.61 44.2197 Q1105.24 45.1109 1107.71 48.0275 Q1110.22 50.9442 1112.73 56.0483 L1121.04 72.576 L1112.25 72.576 L1104.51 57.061 Q1101.51 50.9847 1098.68 48.9997 Q1095.88 47.0148 1091.02 47.0148 L1082.11 47.0148 L1082.11 72.576 L1073.93 72.576 L1073.93 12.096 L1092.4 12.096 Q1102.77 12.096 1107.87 16.4305 Q1112.98 20.7649 1112.98 29.5149 Q1112.98 35.2267 1110.3 38.994 Q1107.67 42.7613 1102.61 44.2197 M1082.11 18.8205 L1082.11 40.2903 L1092.4 40.2903 Q1098.31 40.2903 1101.31 37.5762 Q1104.35 34.8216 1104.35 29.5149 Q1104.35 24.2082 1101.31 21.5346 Q1098.31 18.8205 1092.4 18.8205 L1082.11 18.8205 Z" fill="#000000" fill-rule="evenodd" fill-opacity="1" /><path clip-path="url(#clip690)" d="M 0 0 M1145.1 32.4315 Q1139.1 32.4315 1135.62 37.1306 Q1132.14 41.7891 1132.14 49.9314 Q1132.14 58.0738 1135.58 62.7728 Q1139.06 67.4314 1145.1 67.4314 Q1151.05 67.4314 1154.54 62.7323 Q1158.02 58.0333 1158.02 49.9314 Q1158.02 41.8701 1154.54 37.1711 Q1151.05 32.4315 1145.1 32.4315 M1145.1 26.1121 Q1154.82 26.1121 1160.37 32.4315 Q1165.92 38.7509 1165.92 49.9314 Q1165.92 61.0714 1160.37 67.4314 Q1154.82 73.7508 1145.1 73.7508 Q1135.34 73.7508 1129.79 67.4314 Q1124.28 61.0714 1124.28 49.9314 Q1124.28 38.7509 1129.79 32.4315 Q1135.34 26.1121 1145.1 26.1121 Z" fill="#000000" fill-rule="evenodd" fill-opacity="1" /><path clip-path="url(#clip690)" d="M 0 0 M1195.86 32.4315 Q1189.86 32.4315 1186.38 37.1306 Q1182.89 41.7891 1182.89 49.9314 Q1182.89 58.0738 1186.34 62.7728 Q1189.82 67.4314 1195.86 67.4314 Q1201.81 67.4314 1205.3 62.7323 Q1208.78 58.0333 1208.78 49.9314 Q1208.78 41.8701 1205.3 37.1711 Q1201.81 32.4315 1195.86 32.4315 M1195.86 26.1121 Q1205.58 26.1121 1211.13 32.4315 Q1216.68 38.7509 1216.68 49.9314 Q1216.68 61.0714 1211.13 67.4314 Q1205.58 73.7508 1195.86 73.7508 Q1186.09 73.7508 1180.54 67.4314 Q1175.04 61.0714 1175.04 49.9314 Q1175.04 38.7509 1180.54 32.4315 Q1186.09 26.1121 1195.86 26.1121 Z" fill="#000000" fill-rule="evenodd" fill-opacity="1" /><path clip-path="url(#clip690)" d="M 0 0 M1236.41 14.324 L1236.41 27.2059 L1251.76 27.2059 L1251.76 32.9987 L1236.41 32.9987 L1236.41 57.6282 Q1236.41 63.1779 1237.91 64.7578 Q1239.45 66.3376 1244.1 66.3376 L1251.76 66.3376 L1251.76 72.576 L1244.1 72.576 Q1235.48 72.576 1232.19 69.3758 Q1228.91 66.1351 1228.91 57.6282 L1228.91 32.9987 L1223.44 32.9987 L1223.44 27.2059 L1228.91 27.2059 L1228.91 14.324 L1236.41 14.324 Z" fill="#000000" fill-rule="evenodd" fill-opacity="1" /><path clip-path="url(#clip690)" d="M 0 0 M1287.93 9.54393 L1295.39 9.54393 L1295.39 72.576 L1287.93 72.576 L1287.93 9.54393 Z" fill="#000000" fill-rule="evenodd" fill-opacity="1" /><path clip-path="url(#clip690)" d="M 0 0 M1328.56 32.4315 Q1322.57 32.4315 1319.09 37.1306 Q1315.6 41.7891 1315.6 49.9314 Q1315.6 58.0738 1319.05 62.7728 Q1322.53 67.4314 1328.56 67.4314 Q1334.52 67.4314 1338 62.7323 Q1341.49 58.0333 1341.49 49.9314 Q1341.49 41.8701 1338 37.1711 Q1334.52 32.4315 1328.56 32.4315 M1328.56 26.1121 Q1338.29 26.1121 1343.84 32.4315 Q1349.39 38.7509 1349.39 49.9314 Q1349.39 61.0714 1343.84 67.4314 Q1338.29 73.7508 1328.56 73.7508 Q1318.8 73.7508 1313.25 67.4314 Q1307.74 61.0714 1307.74 49.9314 Q1307.74 38.7509 1313.25 32.4315 Q1318.8 26.1121 1328.56 26.1121 Z" fill="#000000" fill-rule="evenodd" fill-opacity="1" /><path clip-path="url(#clip690)" d="M 0 0 M1394.39 28.9478 L1394.39 35.9153 Q1391.23 34.1734 1388.03 33.3227 Q1384.87 32.4315 1381.63 32.4315 Q1374.38 32.4315 1370.37 37.0496 Q1366.36 41.6271 1366.36 49.9314 Q1366.36 58.2358 1370.37 62.8538 Q1374.38 67.4314 1381.63 67.4314 Q1384.87 67.4314 1388.03 66.5807 Q1391.23 65.6895 1394.39 63.9476 L1394.39 70.8341 Q1391.27 72.2924 1387.91 73.0216 Q1384.59 73.7508 1380.82 73.7508 Q1370.57 73.7508 1364.54 67.3098 Q1358.5 60.8689 1358.5 49.9314 Q1358.5 38.832 1364.58 32.472 Q1370.69 26.1121 1381.31 26.1121 Q1384.75 26.1121 1388.03 26.8413 Q1391.31 27.5299 1394.39 28.9478 Z" fill="#000000" fill-rule="evenodd" fill-opacity="1" /><path clip-path="url(#clip690)" d="M 0 0 M1406.59 54.671 L1406.59 27.2059 L1414.04 27.2059 L1414.04 54.3874 Q1414.04 60.8284 1416.55 64.0691 Q1419.06 67.2693 1424.09 67.2693 Q1430.12 67.2693 1433.6 63.421 Q1437.13 59.5726 1437.13 52.9291 L1437.13 27.2059 L1444.58 27.2059 L1444.58 72.576 L1437.13 72.576 L1437.13 65.6084 Q1434.42 69.7404 1430.81 71.7658 Q1427.24 73.7508 1422.51 73.7508 Q1414.69 73.7508 1410.64 68.8897 Q1406.59 64.0286 1406.59 54.671 M1425.34 26.1121 L1425.34 26.1121 Z" fill="#000000" fill-rule="evenodd" fill-opacity="1" /><path clip-path="url(#clip690)" d="M 0 0 M1488.86 28.5427 L1488.86 35.5912 Q1485.7 33.9709 1482.3 33.1607 Q1478.89 32.3505 1475.25 32.3505 Q1469.7 32.3505 1466.9 34.0519 Q1464.15 35.7533 1464.15 39.156 Q1464.15 41.7486 1466.13 43.2475 Q1468.12 44.7058 1474.11 46.0426 L1476.67 46.6097 Q1484.61 48.3111 1487.93 51.4303 Q1491.29 54.509 1491.29 60.0587 Q1491.29 66.3781 1486.27 70.0644 Q1481.28 73.7508 1472.53 73.7508 Q1468.89 73.7508 1464.92 73.0216 Q1460.99 72.3329 1456.61 70.9151 L1456.61 63.2184 Q1460.75 65.3654 1464.76 66.4591 Q1468.77 67.5124 1472.7 67.5124 Q1477.96 67.5124 1480.8 65.73 Q1483.63 63.9071 1483.63 60.6258 Q1483.63 57.5877 1481.57 55.9673 Q1479.54 54.3469 1472.62 52.8481 L1470.02 52.2405 Q1463.1 50.7821 1460.02 47.7845 Q1456.94 44.7463 1456.94 39.4801 Q1456.94 33.0797 1461.48 29.5959 Q1466.01 26.1121 1474.36 26.1121 Q1478.49 26.1121 1482.13 26.7198 Q1485.78 27.3274 1488.86 28.5427 Z" fill="#000000" fill-rule="evenodd" fill-opacity="1" /><polyline clip-path="url(#clip692)" style="stroke:#009af9; stroke-width:4; stroke-opacity:1; fill:none" points="
  1209.95,773.326 1206.79,773.326 1203.36,773.326 1199.47,773.326 1195.57,773.326 1191.83,773.326 1188.97,773.326 1187.55,773.326 1186.98,773.326 1186.46,773.326 
  1186.19,773.326 1186.13,773.326 1186.03,773.326 1185.96,773.326 1185.81,773.326 1185.64,773.326 1185.39,773.326 1185.06,773.326 1184.62,773.326 1184.06,773.326 
  1183.33,773.326 1182.41,773.326 1181.26,773.326 1179.83,773.326 1178.09,773.326 1175.97,773.326 1173.44,773.326 1170.43,773.326 1166.91,773.326 1162.83,773.326 
  1158.13,773.326 1152.77,773.326 1146.73,773.326 1139.97,773.326 1132.46,773.326 1124.18,773.326 1115.14,773.326 1105.31,773.326 1094.7,773.326 1083.31,773.326 
  1071.14,773.326 1058.2,773.326 1044.49,773.326 1030.03,773.326 1014.81,773.326 998.839,773.326 982.121,773.326 964.652,773.326 946.431,773.326 927.451,773.326 
  907.704,773.326 887.177,773.326 865.856,773.326 843.723,773.326 820.758,773.326 796.939,773.326 772.24,773.326 746.633,773.326 720.089,773.326 692.576,773.326 
  664.061,773.326 634.508,773.326 603.88,773.326 572.138,773.326 539.244,773.326 505.155,773.326 469.828,773.326 433.22,773.326 395.284,773.326 355.973,773.326 
  315.24,773.326 273.033,773.326 
  "/>
<polyline clip-path="url(#clip692)" style="stroke:#e26f46; stroke-width:4; stroke-opacity:1; fill:none" points="
  1700.97,773.326 1710.75,773.326 1722.18,773.326 1736.5,773.326 1752.89,773.326 1771.94,773.326 1791.04,773.326 1804.24,773.326 1811.19,773.326 1819.98,773.326 
  1827.57,773.326 1831.19,773.326 1835.68,769.676 1835.72,768.188 1835.79,765.76 1835.88,763.797 1836.01,761.396 1836.17,758.934 1836.39,756.141 1836.67,753.117 
  1837.03,749.768 1837.49,746.113 1838.07,742.116 1838.78,737.777 1839.66,733.079 1840.71,728.02 1841.98,722.595 1843.48,716.804 1845.24,710.648 1847.28,704.133 
  1849.63,697.266 1852.31,690.056 1855.33,682.515 1858.72,674.655 1862.47,666.489 1866.61,658.032 1871.13,649.295 1876.04,640.293 1881.35,631.035 1887.04,621.533 
  1893.13,611.793 1899.6,601.824 1906.45,591.628 1913.68,581.209 1921.29,570.567 1929.28,559.7 1937.64,548.604 1946.37,537.276 1955.48,525.708 1964.97,513.891 
  1974.85,501.817 1985.11,489.473 1995.77,476.848 2006.84,463.928 2018.32,450.697 2030.23,437.141 2042.58,423.242 2055.38,408.983 2068.65,394.346 2082.41,379.312 
  2096.67,363.861 2111.44,347.974 2126.76,331.629 2142.63,314.805 2159.08,297.48 2176.12,279.633 2193.78,261.24 2212.09,242.278 2231.06,222.724 2250.71,202.552 
  2271.08,181.738 2292.18,160.256 
  "/>
<polyline clip-path="url(#clip692)" style="stroke:#3da44d; stroke-width:4; stroke-opacity:1; fill:none" points="
  1946.48,773.326 1939.85,773.326 1931.86,773.326 1921.44,773.326 1908.93,773.326 1893.63,773.326 1877.38,773.326 1865.61,773.326 1859.22,773.326 1850.95,773.326 
  1843.63,773.326 1840.08,773.326 1835.68,776.976 1835.72,778.464 1835.79,780.892 1835.88,782.855 1836.01,785.256 1836.17,787.718 1836.39,790.511 1836.67,793.535 
  1837.03,796.884 1837.49,800.539 1838.07,804.536 1838.78,808.875 1839.66,813.573 1840.71,818.632 1841.98,824.057 1843.48,829.848 1845.24,836.004 1847.28,842.519 
  1849.63,849.386 1852.31,856.596 1855.33,864.137 1858.72,871.997 1862.47,880.162 1866.61,888.62 1871.13,897.357 1876.04,906.359 1881.35,915.617 1887.04,925.119 
  1893.13,934.859 1899.6,944.828 1906.45,955.024 1913.68,965.443 1921.29,976.085 1929.28,986.952 1937.64,998.048 1946.37,1009.38 1955.48,1020.94 1964.97,1032.76 
  1974.85,1044.84 1985.11,1057.18 1995.77,1069.8 2006.84,1082.72 2018.32,1095.95 2030.23,1109.51 2042.58,1123.41 2055.38,1137.67 2068.65,1152.31 2082.41,1167.34 
  2096.67,1182.79 2111.44,1198.68 2126.76,1215.02 2142.63,1231.85 2159.08,1249.17 2176.12,1267.02 2193.78,1285.41 2212.09,1304.37 2231.06,1323.93 2250.71,1344.1 
  2271.08,1364.91 2292.18,1386.4 
  "/>
<line clip-path="url(#clip692)" x1="1209.95" y1="773.326" x2="1169.95" y2="733.326" style="stroke:#ac8d18; stroke-width:3.2; stroke-opacity:1"/>
<line clip-path="url(#clip692)" x1="1209.95" y1="773.326" x2="1169.95" y2="813.326" style="stroke:#ac8d18; stroke-width:3.2; stroke-opacity:1"/>
<line clip-path="url(#clip692)" x1="1209.95" y1="773.326" x2="1249.95" y2="813.326" style="stroke:#ac8d18; stroke-width:3.2; stroke-opacity:1"/>
<line clip-path="url(#clip692)" x1="1209.95" y1="773.326" x2="1249.95" y2="733.326" style="stroke:#ac8d18; stroke-width:3.2; stroke-opacity:1"/>
<line clip-path="url(#clip692)" x1="1700.97" y1="773.326" x2="1660.97" y2="733.326" style="stroke:#ac8d18; stroke-width:3.2; stroke-opacity:1"/>
<line clip-path="url(#clip692)" x1="1700.97" y1="773.326" x2="1660.97" y2="813.326" style="stroke:#ac8d18; stroke-width:3.2; stroke-opacity:1"/>
<line clip-path="url(#clip692)" x1="1700.97" y1="773.326" x2="1740.97" y2="813.326" style="stroke:#ac8d18; stroke-width:3.2; stroke-opacity:1"/>
<line clip-path="url(#clip692)" x1="1700.97" y1="773.326" x2="1740.97" y2="733.326" style="stroke:#ac8d18; stroke-width:3.2; stroke-opacity:1"/>
<line clip-path="url(#clip692)" x1="1946.48" y1="773.326" x2="1906.48" y2="733.326" style="stroke:#ac8d18; stroke-width:3.2; stroke-opacity:1"/>
<line clip-path="url(#clip692)" x1="1946.48" y1="773.326" x2="1906.48" y2="813.326" style="stroke:#ac8d18; stroke-width:3.2; stroke-opacity:1"/>
<line clip-path="url(#clip692)" x1="1946.48" y1="773.326" x2="1986.48" y2="813.326" style="stroke:#ac8d18; stroke-width:3.2; stroke-opacity:1"/>
<line clip-path="url(#clip692)" x1="1946.48" y1="773.326" x2="1986.48" y2="733.326" style="stroke:#ac8d18; stroke-width:3.2; stroke-opacity:1"/>
<path clip-path="url(#clip690)" d="
M1662.38 348.236 L2281.41 348.236 L2281.41 166.796 L1662.38 166.796  Z
  " fill="#ffffff" fill-rule="evenodd" fill-opacity="1"/>
<polyline clip-path="url(#clip690)" style="stroke:#000000; stroke-width:4; stroke-opacity:1; fill:none" points="
  1662.38,348.236 2281.41,348.236 2281.41,166.796 1662.38,166.796 1662.38,348.236 
  "/>
<path clip-path="url(#clip690)" d="M 0 0 M1853.16 209.996 L1880.31 209.996 L1880.31 213.561 L1858.46 240.621 L1880.84 240.621 L1880.84 244.556 L1852.63 244.556 L1852.63 240.991 L1874.48 213.931 L1853.16 213.931 L1853.16 209.996 Z" fill="#000000" fill-rule="evenodd" fill-opacity="1" /><path clip-path="url(#clip690)" d="M 0 0 M1909.62 230.528 L1909.62 232.611 L1890.03 232.611 Q1890.31 237.009 1892.67 239.324 Q1895.06 241.616 1899.29 241.616 Q1901.75 241.616 1904.04 241.014 Q1906.35 240.412 1908.62 239.209 L1908.62 243.236 Q1906.33 244.208 1903.92 244.718 Q1901.51 245.227 1899.04 245.227 Q1892.83 245.227 1889.2 241.616 Q1885.59 238.005 1885.59 231.847 Q1885.59 225.482 1889.01 221.755 Q1892.46 218.005 1898.3 218.005 Q1903.53 218.005 1906.56 221.385 Q1909.62 224.741 1909.62 230.528 M1905.36 229.278 Q1905.31 225.783 1903.39 223.699 Q1901.49 221.616 1898.34 221.616 Q1894.78 221.616 1892.63 223.63 Q1890.5 225.644 1890.17 229.301 L1905.36 229.278 Z" fill="#000000" fill-rule="evenodd" fill-opacity="1" /><path clip-path="url(#clip690)" d="M 0 0 M1931.63 222.611 Q1930.91 222.195 1930.06 222.01 Q1929.22 221.801 1928.2 221.801 Q1924.59 221.801 1922.65 224.162 Q1920.73 226.5 1920.73 230.898 L1920.73 244.556 L1916.44 244.556 L1916.44 218.63 L1920.73 218.63 L1920.73 222.658 Q1922.07 220.297 1924.22 219.162 Q1926.38 218.005 1929.45 218.005 Q1929.89 218.005 1930.43 218.074 Q1930.96 218.121 1931.61 218.236 L1931.63 222.611 Z" fill="#000000" fill-rule="evenodd" fill-opacity="1" /><path clip-path="url(#clip690)" d="M 0 0 M1945.1 221.616 Q1941.68 221.616 1939.69 224.301 Q1937.69 226.963 1937.69 231.616 Q1937.69 236.269 1939.66 238.954 Q1941.65 241.616 1945.1 241.616 Q1948.5 241.616 1950.5 238.931 Q1952.49 236.246 1952.49 231.616 Q1952.49 227.01 1950.5 224.324 Q1948.5 221.616 1945.1 221.616 M1945.1 218.005 Q1950.66 218.005 1953.83 221.616 Q1957 225.227 1957 231.616 Q1957 237.982 1953.83 241.616 Q1950.66 245.227 1945.1 245.227 Q1939.52 245.227 1936.35 241.616 Q1933.2 237.982 1933.2 231.616 Q1933.2 225.227 1936.35 221.616 Q1939.52 218.005 1945.1 218.005 Z" fill="#000000" fill-rule="evenodd" fill-opacity="1" /><path clip-path="url(#clip690)" d="M 0 0 M1980.59 219.394 L1980.59 223.422 Q1978.78 222.496 1976.84 222.033 Q1974.89 221.57 1972.81 221.57 Q1969.64 221.57 1968.04 222.542 Q1966.47 223.514 1966.47 225.459 Q1966.47 226.94 1967.6 227.797 Q1968.74 228.63 1972.16 229.394 L1973.62 229.718 Q1978.16 230.69 1980.06 232.472 Q1981.98 234.232 1981.98 237.403 Q1981.98 241.014 1979.11 243.121 Q1976.26 245.227 1971.26 245.227 Q1969.18 245.227 1966.91 244.81 Q1964.66 244.417 1962.16 243.607 L1962.16 239.209 Q1964.52 240.435 1966.81 241.06 Q1969.11 241.662 1971.35 241.662 Q1974.36 241.662 1975.98 240.644 Q1977.6 239.602 1977.6 237.727 Q1977.6 235.991 1976.42 235.065 Q1975.26 234.139 1971.31 233.283 L1969.82 232.935 Q1965.87 232.102 1964.11 230.389 Q1962.35 228.653 1962.35 225.644 Q1962.35 221.986 1964.94 219.996 Q1967.53 218.005 1972.3 218.005 Q1974.66 218.005 1976.75 218.352 Q1978.83 218.699 1980.59 219.394 Z" fill="#000000" fill-rule="evenodd" fill-opacity="1" /><line clip-path="url(#clip690)" x1="1757.5" y1="287.756" x2="1731.9" y2="262.156" style="stroke:#ac8d18; stroke-width:3.2; stroke-opacity:1"/>
<line clip-path="url(#clip690)" x1="1757.5" y1="287.756" x2="1731.9" y2="313.356" style="stroke:#ac8d18; stroke-width:3.2; stroke-opacity:1"/>
<line clip-path="url(#clip690)" x1="1757.5" y1="287.756" x2="1783.1" y2="313.356" style="stroke:#ac8d18; stroke-width:3.2; stroke-opacity:1"/>
<line clip-path="url(#clip690)" x1="1757.5" y1="287.756" x2="1783.1" y2="262.156" style="stroke:#ac8d18; stroke-width:3.2; stroke-opacity:1"/>
<path clip-path="url(#clip690)" d="M 0 0 M1868.64 273.647 Q1863.55 273.647 1860.54 277.443 Q1857.56 281.24 1857.56 287.79 Q1857.56 294.318 1860.54 298.114 Q1863.55 301.911 1868.64 301.911 Q1873.74 301.911 1876.7 298.114 Q1879.69 294.318 1879.69 287.79 Q1879.69 281.24 1876.7 277.443 Q1873.74 273.647 1868.64 273.647 M1868.64 269.851 Q1875.91 269.851 1880.26 274.735 Q1884.62 279.596 1884.62 287.79 Q1884.62 295.962 1880.26 300.846 Q1875.91 305.707 1868.64 305.707 Q1861.35 305.707 1856.98 300.846 Q1852.63 295.985 1852.63 287.79 Q1852.63 279.596 1856.98 274.735 Q1861.35 269.851 1868.64 269.851 Z" fill="#000000" fill-rule="evenodd" fill-opacity="1" /><path clip-path="url(#clip690)" d="M 0 0 M1895.87 301.147 L1895.87 314.897 L1891.58 314.897 L1891.58 279.11 L1895.87 279.11 L1895.87 283.045 Q1897.21 280.73 1899.25 279.619 Q1901.31 278.485 1904.15 278.485 Q1908.88 278.485 1911.82 282.235 Q1914.78 285.985 1914.78 292.096 Q1914.78 298.207 1911.82 301.957 Q1908.88 305.707 1904.15 305.707 Q1901.31 305.707 1899.25 304.596 Q1897.21 303.462 1895.87 301.147 M1910.36 292.096 Q1910.36 287.397 1908.41 284.735 Q1906.49 282.05 1903.11 282.05 Q1899.73 282.05 1897.79 284.735 Q1895.87 287.397 1895.87 292.096 Q1895.87 296.795 1897.79 299.48 Q1899.73 302.142 1903.11 302.142 Q1906.49 302.142 1908.41 299.48 Q1910.36 296.795 1910.36 292.096 Z" fill="#000000" fill-rule="evenodd" fill-opacity="1" /><path clip-path="url(#clip690)" d="M 0 0 M1944.01 291.008 L1944.01 293.091 L1924.43 293.091 Q1924.71 297.489 1927.07 299.804 Q1929.45 302.096 1933.69 302.096 Q1936.14 302.096 1938.44 301.494 Q1940.75 300.892 1943.02 299.689 L1943.02 303.716 Q1940.73 304.688 1938.32 305.198 Q1935.91 305.707 1933.44 305.707 Q1927.23 305.707 1923.6 302.096 Q1919.99 298.485 1919.99 292.327 Q1919.99 285.962 1923.41 282.235 Q1926.86 278.485 1932.69 278.485 Q1937.93 278.485 1940.96 281.865 Q1944.01 285.221 1944.01 291.008 M1939.75 289.758 Q1939.71 286.263 1937.79 284.179 Q1935.89 282.096 1932.74 282.096 Q1929.18 282.096 1927.02 284.11 Q1924.89 286.124 1924.57 289.781 L1939.75 289.758 Z" fill="#000000" fill-rule="evenodd" fill-opacity="1" /><path clip-path="url(#clip690)" d="M 0 0 M1972.56 289.388 L1972.56 305.036 L1968.3 305.036 L1968.3 289.527 Q1968.3 285.846 1966.86 284.017 Q1965.43 282.189 1962.56 282.189 Q1959.11 282.189 1957.12 284.388 Q1955.13 286.587 1955.13 290.383 L1955.13 305.036 L1950.84 305.036 L1950.84 279.11 L1955.13 279.11 L1955.13 283.138 Q1956.65 280.8 1958.71 279.642 Q1960.8 278.485 1963.5 278.485 Q1967.97 278.485 1970.26 281.263 Q1972.56 284.017 1972.56 289.388 Z" fill="#000000" fill-rule="evenodd" fill-opacity="1" /><path clip-path="url(#clip690)" d="M 0 0 M1978.9 290.152 L1991.37 290.152 L1991.37 293.948 L1978.9 293.948 L1978.9 290.152 Z" fill="#000000" fill-rule="evenodd" fill-opacity="1" /><path clip-path="url(#clip690)" d="M 0 0 M1998.16 269.017 L2002.42 269.017 L2002.42 305.036 L1998.16 305.036 L1998.16 269.017 Z" fill="#000000" fill-rule="evenodd" fill-opacity="1" /><path clip-path="url(#clip690)" d="M 0 0 M2021.37 282.096 Q2017.95 282.096 2015.96 284.781 Q2013.97 287.443 2013.97 292.096 Q2013.97 296.749 2015.94 299.434 Q2017.93 302.096 2021.37 302.096 Q2024.78 302.096 2026.77 299.411 Q2028.76 296.726 2028.76 292.096 Q2028.76 287.49 2026.77 284.804 Q2024.78 282.096 2021.37 282.096 M2021.37 278.485 Q2026.93 278.485 2030.1 282.096 Q2033.27 285.707 2033.27 292.096 Q2033.27 298.462 2030.1 302.096 Q2026.93 305.707 2021.37 305.707 Q2015.8 305.707 2012.62 302.096 Q2009.48 298.462 2009.48 292.096 Q2009.48 285.707 2012.62 282.096 Q2015.8 278.485 2021.37 278.485 Z" fill="#000000" fill-rule="evenodd" fill-opacity="1" /><path clip-path="url(#clip690)" d="M 0 0 M2050.38 282.096 Q2046.95 282.096 2044.96 284.781 Q2042.97 287.443 2042.97 292.096 Q2042.97 296.749 2044.94 299.434 Q2046.93 302.096 2050.38 302.096 Q2053.78 302.096 2055.77 299.411 Q2057.76 296.726 2057.76 292.096 Q2057.76 287.49 2055.77 284.804 Q2053.78 282.096 2050.38 282.096 M2050.38 278.485 Q2055.93 278.485 2059.11 282.096 Q2062.28 285.707 2062.28 292.096 Q2062.28 298.462 2059.11 302.096 Q2055.93 305.707 2050.38 305.707 Q2044.8 305.707 2041.63 302.096 Q2038.48 298.462 2038.48 292.096 Q2038.48 285.707 2041.63 282.096 Q2044.8 278.485 2050.38 278.485 Z" fill="#000000" fill-rule="evenodd" fill-opacity="1" /><path clip-path="url(#clip690)" d="M 0 0 M2073.46 301.147 L2073.46 314.897 L2069.18 314.897 L2069.18 279.11 L2073.46 279.11 L2073.46 283.045 Q2074.8 280.73 2076.84 279.619 Q2078.9 278.485 2081.74 278.485 Q2086.47 278.485 2089.41 282.235 Q2092.37 285.985 2092.37 292.096 Q2092.37 298.207 2089.41 301.957 Q2086.47 305.707 2081.74 305.707 Q2078.9 305.707 2076.84 304.596 Q2074.8 303.462 2073.46 301.147 M2087.95 292.096 Q2087.95 287.397 2086 284.735 Q2084.08 282.05 2080.7 282.05 Q2077.32 282.05 2075.38 284.735 Q2073.46 287.397 2073.46 292.096 Q2073.46 296.795 2075.38 299.48 Q2077.32 302.142 2080.7 302.142 Q2084.08 302.142 2086 299.48 Q2087.95 296.795 2087.95 292.096 Z" fill="#000000" fill-rule="evenodd" fill-opacity="1" /><path clip-path="url(#clip690)" d="M 0 0 M2118.62 301.147 L2118.62 314.897 L2114.34 314.897 L2114.34 279.11 L2118.62 279.11 L2118.62 283.045 Q2119.96 280.73 2122 279.619 Q2124.06 278.485 2126.91 278.485 Q2131.63 278.485 2134.57 282.235 Q2137.53 285.985 2137.53 292.096 Q2137.53 298.207 2134.57 301.957 Q2131.63 305.707 2126.91 305.707 Q2124.06 305.707 2122 304.596 Q2119.96 303.462 2118.62 301.147 M2133.11 292.096 Q2133.11 287.397 2131.17 284.735 Q2129.24 282.05 2125.86 282.05 Q2122.49 282.05 2120.54 284.735 Q2118.62 287.397 2118.62 292.096 Q2118.62 296.795 2120.54 299.48 Q2122.49 302.142 2125.86 302.142 Q2129.24 302.142 2131.17 299.48 Q2133.11 296.795 2133.11 292.096 Z" fill="#000000" fill-rule="evenodd" fill-opacity="1" /><path clip-path="url(#clip690)" d="M 0 0 M2154.64 282.096 Q2151.21 282.096 2149.22 284.781 Q2147.23 287.443 2147.23 292.096 Q2147.23 296.749 2149.2 299.434 Q2151.19 302.096 2154.64 302.096 Q2158.04 302.096 2160.03 299.411 Q2162.02 296.726 2162.02 292.096 Q2162.02 287.49 2160.03 284.804 Q2158.04 282.096 2154.64 282.096 M2154.64 278.485 Q2160.19 278.485 2163.36 282.096 Q2166.54 285.707 2166.54 292.096 Q2166.54 298.462 2163.36 302.096 Q2160.19 305.707 2154.64 305.707 Q2149.06 305.707 2145.89 302.096 Q2142.74 298.462 2142.74 292.096 Q2142.74 285.707 2145.89 282.096 Q2149.06 278.485 2154.64 278.485 Z" fill="#000000" fill-rule="evenodd" fill-opacity="1" /><path clip-path="url(#clip690)" d="M 0 0 M2173.6 269.017 L2177.86 269.017 L2177.86 305.036 L2173.6 305.036 L2173.6 269.017 Z" fill="#000000" fill-rule="evenodd" fill-opacity="1" /><path clip-path="url(#clip690)" d="M 0 0 M2208.94 291.008 L2208.94 293.091 L2189.36 293.091 Q2189.64 297.489 2192 299.804 Q2194.38 302.096 2198.62 302.096 Q2201.07 302.096 2203.36 301.494 Q2205.68 300.892 2207.95 299.689 L2207.95 303.716 Q2205.66 304.688 2203.25 305.198 Q2200.84 305.707 2198.36 305.707 Q2192.16 305.707 2188.53 302.096 Q2184.92 298.485 2184.92 292.327 Q2184.92 285.962 2188.34 282.235 Q2191.79 278.485 2197.62 278.485 Q2202.86 278.485 2205.89 281.865 Q2208.94 285.221 2208.94 291.008 M2204.68 289.758 Q2204.64 286.263 2202.72 284.179 Q2200.82 282.096 2197.67 282.096 Q2194.11 282.096 2191.95 284.11 Q2189.82 286.124 2189.5 289.781 L2204.68 289.758 Z" fill="#000000" fill-rule="evenodd" fill-opacity="1" /><path clip-path="url(#clip690)" d="M 0 0 M2232.46 279.874 L2232.46 283.902 Q2230.66 282.976 2228.71 282.513 Q2226.77 282.05 2224.68 282.05 Q2221.51 282.05 2219.92 283.022 Q2218.34 283.994 2218.34 285.939 Q2218.34 287.42 2219.48 288.277 Q2220.61 289.11 2224.04 289.874 L2225.49 290.198 Q2230.03 291.17 2231.93 292.952 Q2233.85 294.712 2233.85 297.883 Q2233.85 301.494 2230.98 303.601 Q2228.13 305.707 2223.13 305.707 Q2221.05 305.707 2218.78 305.29 Q2216.54 304.897 2214.04 304.087 L2214.04 299.689 Q2216.4 300.915 2218.69 301.54 Q2220.98 302.142 2223.23 302.142 Q2226.23 302.142 2227.86 301.124 Q2229.48 300.082 2229.48 298.207 Q2229.48 296.471 2228.29 295.545 Q2227.14 294.619 2223.18 293.763 L2221.7 293.415 Q2217.74 292.582 2215.98 290.869 Q2214.22 289.133 2214.22 286.124 Q2214.22 282.466 2216.81 280.476 Q2219.41 278.485 2224.17 278.485 Q2226.54 278.485 2228.62 278.832 Q2230.7 279.179 2232.46 279.874 Z" fill="#000000" fill-rule="evenodd" fill-opacity="1" /></svg>
