<?xml version="1.0" encoding="utf-8"?>
<svg xmlns="http://www.w3.org/2000/svg" xmlns:xlink="http://www.w3.org/1999/xlink" width="525" height="350" viewBox="0 0 2100 1400">
<defs>
  <clipPath id="clip080">
    <rect x="0" y="0" width="2100" height="1400"/>
  </clipPath>
</defs>
<path clip-path="url(#clip080)" d="
M0 1400 L2100 1400 L2100 0 L0 0  Z
  " fill="#ffffff" fill-rule="evenodd" fill-opacity="1"/>
<defs>
  <clipPath id="clip081">
    <rect x="420" y="0" width="1471" height="1400"/>
  </clipPath>
</defs>
<path clip-path="url(#clip080)" d="
M227.282 1234.53 L2058.66 1234.53 L2058.66 41.3386 L227.282 41.3386  Z
  " fill="#ffffff" fill-rule="evenodd" fill-opacity="1"/>
<defs>
  <clipPath id="clip082">
    <rect x="227" y="41" width="1832" height="1194"/>
  </clipPath>
</defs>
<polyline clip-path="url(#clip082)" style="stroke:#000000; stroke-width:1.75; stroke-opacity:0.1; fill:none" points="
  279.113,1234.53 279.113,41.3386 
  "/>
<polyline clip-path="url(#clip082)" style="stroke:#000000; stroke-width:1.75; stroke-opacity:0.1; fill:none" points="
  802.5,1234.53 802.5,41.3386 
  "/>
<polyline clip-path="url(#clip082)" style="stroke:#000000; stroke-width:1.75; stroke-opacity:0.1; fill:none" points="
  1325.89,1234.53 1325.89,41.3386 
  "/>
<polyline clip-path="url(#clip082)" style="stroke:#000000; stroke-width:1.75; stroke-opacity:0.1; fill:none" points="
  1849.27,1234.53 1849.27,41.3386 
  "/>
<polyline clip-path="url(#clip080)" style="stroke:#000000; stroke-width:3.5; stroke-opacity:1; fill:none" points="
  227.282,1234.53 2058.66,1234.53 
  "/>
<polyline clip-path="url(#clip080)" style="stroke:#000000; stroke-width:3.5; stroke-opacity:1; fill:none" points="
  279.113,1234.53 279.113,1220.22 
  "/>
<polyline clip-path="url(#clip080)" style="stroke:#000000; stroke-width:3.5; stroke-opacity:1; fill:none" points="
  802.5,1234.53 802.5,1220.22 
  "/>
<polyline clip-path="url(#clip080)" style="stroke:#000000; stroke-width:3.5; stroke-opacity:1; fill:none" points="
  1325.89,1234.53 1325.89,1220.22 
  "/>
<polyline clip-path="url(#clip080)" style="stroke:#000000; stroke-width:3.5; stroke-opacity:1; fill:none" points="
  1849.27,1234.53 1849.27,1220.22 
  "/>
<path clip-path="url(#clip080)" d="M 0 0 M239.295 1303.02 L245.979 1303.02 L245.979 1279.95 L238.708 1281.41 L238.708 1277.68 L245.939 1276.23 L250.03 1276.23 L250.03 1303.02 L256.714 1303.02 L256.714 1306.47 L239.295 1306.47 L239.295 1303.02 Z" fill="#000000" fill-rule="evenodd" fill-opacity="1" /><path clip-path="url(#clip080)" d="M 0 0 M269.9 1278.92 Q266.74 1278.92 265.14 1282.04 Q263.56 1285.14 263.56 1291.38 Q263.56 1297.59 265.14 1300.71 Q266.74 1303.81 269.9 1303.81 Q273.08 1303.81 274.66 1300.71 Q276.26 1297.59 276.26 1291.38 Q276.26 1285.14 274.66 1282.04 Q273.08 1278.92 269.9 1278.92 M269.9 1275.68 Q274.984 1275.68 277.657 1279.71 Q280.351 1283.72 280.351 1291.38 Q280.351 1299.01 277.657 1303.04 Q274.984 1307.05 269.9 1307.05 Q264.816 1307.05 262.122 1303.04 Q259.448 1299.01 259.448 1291.38 Q259.448 1283.72 262.122 1279.71 Q264.816 1275.68 269.9 1275.68 Z" fill="#000000" fill-rule="evenodd" fill-opacity="1" /><path clip-path="url(#clip080)" d="M 0 0 M280.351 1270.52 L301.449 1270.52 L301.449 1273.32 L280.351 1273.32 L280.351 1270.52 Z" fill="#000000" fill-rule="evenodd" fill-opacity="1" /><path clip-path="url(#clip080)" d="M 0 0 M307.916 1279.68 L319.518 1279.68 L319.518 1282.48 L303.917 1282.48 L303.917 1279.68 Q305.81 1277.73 309.068 1274.43 Q312.343 1271.13 313.182 1270.17 Q314.779 1268.38 315.404 1267.14 Q316.046 1265.89 316.046 1264.69 Q316.046 1262.73 314.664 1261.5 Q313.298 1260.27 311.092 1260.27 Q309.529 1260.27 307.785 1260.81 Q306.057 1261.35 304.082 1262.45 L304.082 1259.1 Q306.09 1258.29 307.834 1257.88 Q309.578 1257.47 311.027 1257.47 Q314.845 1257.47 317.116 1259.38 Q319.387 1261.29 319.387 1264.48 Q319.387 1265.99 318.811 1267.36 Q318.251 1268.71 316.754 1270.55 Q316.342 1271.03 314.137 1273.32 Q311.932 1275.59 307.916 1279.68 Z" fill="#000000" fill-rule="evenodd" fill-opacity="1" /><path clip-path="url(#clip080)" d="M 0 0 M762.551 1303.02 L769.235 1303.02 L769.235 1279.95 L761.963 1281.41 L761.963 1277.68 L769.194 1276.23 L773.286 1276.23 L773.286 1303.02 L779.97 1303.02 L779.97 1306.47 L762.551 1306.47 L762.551 1303.02 Z" fill="#000000" fill-rule="evenodd" fill-opacity="1" /><path clip-path="url(#clip080)" d="M 0 0 M793.155 1278.92 Q789.996 1278.92 788.395 1282.04 Q786.816 1285.14 786.816 1291.38 Q786.816 1297.59 788.395 1300.71 Q789.996 1303.81 793.155 1303.81 Q796.335 1303.81 797.915 1300.71 Q799.515 1297.59 799.515 1291.38 Q799.515 1285.14 797.915 1282.04 Q796.335 1278.92 793.155 1278.92 M793.155 1275.68 Q798.239 1275.68 800.913 1279.71 Q803.607 1283.72 803.607 1291.38 Q803.607 1299.01 800.913 1303.04 Q798.239 1307.05 793.155 1307.05 Q788.071 1307.05 785.378 1303.04 Q782.704 1299.01 782.704 1291.38 Q782.704 1283.72 785.378 1279.71 Q788.071 1275.68 793.155 1275.68 Z" fill="#000000" fill-rule="evenodd" fill-opacity="1" /><path clip-path="url(#clip080)" d="M 0 0 M803.607 1270.52 L824.704 1270.52 L824.704 1273.32 L803.607 1273.32 L803.607 1270.52 Z" fill="#000000" fill-rule="evenodd" fill-opacity="1" /><path clip-path="url(#clip080)" d="M 0 0 M828.884 1279.68 L834.315 1279.68 L834.315 1260.94 L828.407 1262.12 L828.407 1259.1 L834.282 1257.91 L837.606 1257.91 L837.606 1279.68 L843.037 1279.68 L843.037 1282.48 L828.884 1282.48 L828.884 1279.68 Z" fill="#000000" fill-rule="evenodd" fill-opacity="1" /><path clip-path="url(#clip080)" d="M 0 0 M1297.16 1303.02 L1303.85 1303.02 L1303.85 1279.95 L1296.57 1281.41 L1296.57 1277.68 L1303.8 1276.23 L1307.9 1276.23 L1307.9 1303.02 L1314.58 1303.02 L1314.58 1306.47 L1297.16 1306.47 L1297.16 1303.02 Z" fill="#000000" fill-rule="evenodd" fill-opacity="1" /><path clip-path="url(#clip080)" d="M 0 0 M1327.77 1278.92 Q1324.61 1278.92 1323.01 1282.04 Q1321.43 1285.14 1321.43 1291.38 Q1321.43 1297.59 1323.01 1300.71 Q1324.61 1303.81 1327.77 1303.81 Q1330.95 1303.81 1332.53 1300.71 Q1334.13 1297.59 1334.13 1291.38 Q1334.13 1285.14 1332.53 1282.04 Q1330.95 1278.92 1327.77 1278.92 M1327.77 1275.68 Q1332.85 1275.68 1335.52 1279.71 Q1338.22 1283.72 1338.22 1291.38 Q1338.22 1299.01 1335.52 1303.04 Q1332.85 1307.05 1327.77 1307.05 Q1322.68 1307.05 1319.99 1303.04 Q1317.31 1299.01 1317.31 1291.38 Q1317.31 1283.72 1319.99 1279.71 Q1322.68 1275.68 1327.77 1275.68 Z" fill="#000000" fill-rule="evenodd" fill-opacity="1" /><path clip-path="url(#clip080)" d="M 0 0 M1346.71 1260.1 Q1344.14 1260.1 1342.84 1262.63 Q1341.56 1265.15 1341.56 1270.22 Q1341.56 1275.27 1342.84 1277.81 Q1344.14 1280.33 1346.71 1280.33 Q1349.29 1280.33 1350.58 1277.81 Q1351.88 1275.27 1351.88 1270.22 Q1351.88 1265.15 1350.58 1262.63 Q1349.29 1260.1 1346.71 1260.1 M1346.71 1257.47 Q1350.84 1257.47 1353.01 1260.74 Q1355.2 1264 1355.2 1270.22 Q1355.2 1276.43 1353.01 1279.7 Q1350.84 1282.96 1346.71 1282.96 Q1342.58 1282.96 1340.39 1279.7 Q1338.22 1276.43 1338.22 1270.22 Q1338.22 1264 1340.39 1260.74 Q1342.58 1257.47 1346.71 1257.47 Z" fill="#000000" fill-rule="evenodd" fill-opacity="1" /><path clip-path="url(#clip080)" d="M 0 0 M1821.73 1303.02 L1828.41 1303.02 L1828.41 1279.95 L1821.14 1281.41 L1821.14 1277.68 L1828.37 1276.23 L1832.46 1276.23 L1832.46 1303.02 L1839.14 1303.02 L1839.14 1306.47 L1821.73 1306.47 L1821.73 1303.02 Z" fill="#000000" fill-rule="evenodd" fill-opacity="1" /><path clip-path="url(#clip080)" d="M 0 0 M1852.33 1278.92 Q1849.17 1278.92 1847.57 1282.04 Q1845.99 1285.14 1845.99 1291.38 Q1845.99 1297.59 1847.57 1300.71 Q1849.17 1303.81 1852.33 1303.81 Q1855.51 1303.81 1857.09 1300.71 Q1858.69 1297.59 1858.69 1291.38 Q1858.69 1285.14 1857.09 1282.04 Q1855.51 1278.92 1852.33 1278.92 M1852.33 1275.68 Q1857.41 1275.68 1860.09 1279.71 Q1862.78 1283.72 1862.78 1291.38 Q1862.78 1299.01 1860.09 1303.04 Q1857.41 1307.05 1852.33 1307.05 Q1847.25 1307.05 1844.55 1303.04 Q1841.88 1299.01 1841.88 1291.38 Q1841.88 1283.72 1844.55 1279.71 Q1847.25 1275.68 1852.33 1275.68 Z" fill="#000000" fill-rule="evenodd" fill-opacity="1" /><path clip-path="url(#clip080)" d="M 0 0 M1863.26 1279.68 L1868.69 1279.68 L1868.69 1260.94 L1862.78 1262.12 L1862.78 1259.1 L1868.66 1257.91 L1871.98 1257.91 L1871.98 1279.68 L1877.41 1279.68 L1877.41 1282.48 L1863.26 1282.48 L1863.26 1279.68 Z" fill="#000000" fill-rule="evenodd" fill-opacity="1" /><path clip-path="url(#clip080)" d="M 0 0 M1124.49 1378.22 Q1112.94 1378.22 1112.94 1361.68 Q1112.94 1355.13 1117.25 1346.22 L1122.77 1346.22 Q1118.78 1355.13 1118.78 1361.82 Q1118.78 1373.88 1124.97 1373.88 Q1130.62 1373.88 1130.62 1358.89 L1135.35 1358.89 Q1135.35 1373.88 1141.01 1373.88 Q1147.19 1373.88 1147.19 1361.82 Q1147.19 1355.13 1143.21 1346.22 L1148.72 1346.22 Q1153.04 1355.13 1153.04 1361.68 Q1153.04 1378.22 1141.48 1378.22 Q1133.91 1378.22 1132.99 1369.89 Q1131.85 1378.22 1124.49 1378.22 Z" fill="#000000" fill-rule="evenodd" fill-opacity="1" /><path clip-path="url(#clip080)" d="M 0 0 M1167.63 1364.82 Q1170.19 1365.33 1171.59 1366.86 Q1173.01 1368.36 1173.01 1370.64 Q1173.01 1374.1 1170.36 1375.96 Q1167.72 1377.83 1162.79 1377.83 Q1161.2 1377.83 1159.44 1377.52 Q1157.72 1377.25 1155.77 1376.69 L1155.77 1373.32 Q1157.22 1374.07 1158.86 1374.43 Q1160.53 1374.79 1162.4 1374.79 Q1165.43 1374.79 1167.1 1373.71 Q1168.77 1372.59 1168.77 1370.64 Q1168.77 1368.58 1167.21 1367.53 Q1165.68 1366.47 1162.68 1366.47 L1160.28 1366.47 L1160.28 1363.46 L1162.9 1363.46 Q1165.52 1363.46 1166.85 1362.6 Q1168.22 1361.7 1168.22 1360.03 Q1168.22 1358.42 1166.82 1357.58 Q1165.43 1356.72 1162.79 1356.72 Q1161.67 1356.72 1160.25 1356.97 Q1158.83 1357.22 1156.58 1357.86 L1156.58 1354.66 Q1158.61 1354.19 1160.39 1353.93 Q1162.17 1353.68 1163.71 1353.68 Q1167.72 1353.68 1170.06 1355.33 Q1172.42 1356.97 1172.42 1359.73 Q1172.42 1361.65 1171.17 1362.99 Q1169.92 1364.32 1167.63 1364.82 Z" fill="#000000" fill-rule="evenodd" fill-opacity="1" /><polyline clip-path="url(#clip082)" style="stroke:#000000; stroke-width:1.75; stroke-opacity:0.1; fill:none" points="
  227.282,1053.35 2058.66,1053.35 
  "/>
<polyline clip-path="url(#clip082)" style="stroke:#000000; stroke-width:1.75; stroke-opacity:0.1; fill:none" points="
  227.282,856.526 2058.66,856.526 
  "/>
<polyline clip-path="url(#clip082)" style="stroke:#000000; stroke-width:1.75; stroke-opacity:0.1; fill:none" points="
  227.282,659.705 2058.66,659.705 
  "/>
<polyline clip-path="url(#clip082)" style="stroke:#000000; stroke-width:1.75; stroke-opacity:0.1; fill:none" points="
  227.282,462.884 2058.66,462.884 
  "/>
<polyline clip-path="url(#clip082)" style="stroke:#000000; stroke-width:1.75; stroke-opacity:0.1; fill:none" points="
  227.282,266.064 2058.66,266.064 
  "/>
<polyline clip-path="url(#clip082)" style="stroke:#000000; stroke-width:1.75; stroke-opacity:0.1; fill:none" points="
  227.282,69.243 2058.66,69.243 
  "/>
<polyline clip-path="url(#clip080)" style="stroke:#000000; stroke-width:3.5; stroke-opacity:1; fill:none" points="
  227.282,1234.53 227.282,41.3386 
  "/>
<polyline clip-path="url(#clip080)" style="stroke:#000000; stroke-width:3.5; stroke-opacity:1; fill:none" points="
  227.282,1053.35 249.258,1053.35 
  "/>
<polyline clip-path="url(#clip080)" style="stroke:#000000; stroke-width:3.5; stroke-opacity:1; fill:none" points="
  227.282,856.526 249.258,856.526 
  "/>
<polyline clip-path="url(#clip080)" style="stroke:#000000; stroke-width:3.5; stroke-opacity:1; fill:none" points="
  227.282,659.705 249.258,659.705 
  "/>
<polyline clip-path="url(#clip080)" style="stroke:#000000; stroke-width:3.5; stroke-opacity:1; fill:none" points="
  227.282,462.884 249.258,462.884 
  "/>
<polyline clip-path="url(#clip080)" style="stroke:#000000; stroke-width:3.5; stroke-opacity:1; fill:none" points="
  227.282,266.064 249.258,266.064 
  "/>
<polyline clip-path="url(#clip080)" style="stroke:#000000; stroke-width:3.5; stroke-opacity:1; fill:none" points="
  227.282,69.243 249.258,69.243 
  "/>
<path clip-path="url(#clip080)" d="M 0 0 M101.173 1053.74 L127.139 1053.74 L127.139 1057.18 L101.173 1057.18 L101.173 1053.74 Z" fill="#000000" fill-rule="evenodd" fill-opacity="1" /><path clip-path="url(#clip080)" d="M 0 0 M135.099 1065.02 L149.378 1065.02 L149.378 1068.47 L130.177 1068.47 L130.177 1065.02 Q132.506 1062.61 136.517 1058.56 Q140.547 1054.49 141.58 1053.32 Q143.545 1051.11 144.315 1049.59 Q145.105 1048.05 145.105 1046.57 Q145.105 1044.16 143.403 1042.64 Q141.722 1041.12 139.008 1041.12 Q137.084 1041.12 134.937 1041.79 Q132.81 1042.46 130.38 1043.82 L130.38 1039.68 Q132.851 1038.69 134.998 1038.19 Q137.145 1037.68 138.927 1037.68 Q143.626 1037.68 146.421 1040.03 Q149.216 1042.38 149.216 1046.31 Q149.216 1048.17 148.507 1049.85 Q147.819 1051.51 145.976 1053.78 Q145.469 1054.37 142.755 1057.18 Q140.041 1059.98 135.099 1065.02 Z" fill="#000000" fill-rule="evenodd" fill-opacity="1" /><path clip-path="url(#clip080)" d="M 0 0 M153.855 1038.23 L169.916 1038.23 L169.916 1041.67 L157.602 1041.67 L157.602 1049.08 Q158.493 1048.78 159.384 1048.64 Q160.275 1048.47 161.167 1048.47 Q166.23 1048.47 169.187 1051.25 Q172.144 1054.02 172.144 1058.76 Q172.144 1063.65 169.106 1066.36 Q166.068 1069.05 160.539 1069.05 Q158.635 1069.05 156.65 1068.73 Q154.685 1068.41 152.579 1067.76 L152.579 1063.65 Q154.402 1064.64 156.346 1065.12 Q158.29 1065.61 160.458 1065.61 Q163.962 1065.61 166.007 1063.77 Q168.053 1061.92 168.053 1058.76 Q168.053 1055.6 166.007 1053.76 Q163.962 1051.92 160.458 1051.92 Q158.817 1051.92 157.176 1052.28 Q155.556 1052.65 153.855 1053.42 L153.855 1038.23 Z" fill="#000000" fill-rule="evenodd" fill-opacity="1" /><path clip-path="url(#clip080)" d="M 0 0 M185.33 1040.92 Q182.17 1040.92 180.57 1044.04 Q178.991 1047.14 178.991 1053.38 Q178.991 1059.59 180.57 1062.71 Q182.17 1065.81 185.33 1065.81 Q188.51 1065.81 190.09 1062.71 Q191.69 1059.59 191.69 1053.38 Q191.69 1047.14 190.09 1044.04 Q188.51 1040.92 185.33 1040.92 M185.33 1037.68 Q190.414 1037.68 193.088 1041.71 Q195.782 1045.72 195.782 1053.38 Q195.782 1061.01 193.088 1065.04 Q190.414 1069.05 185.33 1069.05 Q180.246 1069.05 177.552 1065.04 Q174.879 1061.01 174.879 1053.38 Q174.879 1045.72 177.552 1041.71 Q180.246 1037.68 185.33 1037.68 Z" fill="#000000" fill-rule="evenodd" fill-opacity="1" /><path clip-path="url(#clip080)" d="M 0 0 M100.302 856.921 L126.268 856.921 L126.268 860.364 L100.302 860.364 L100.302 856.921 Z" fill="#000000" fill-rule="evenodd" fill-opacity="1" /><path clip-path="url(#clip080)" d="M 0 0 M134.228 868.202 L148.507 868.202 L148.507 871.646 L129.306 871.646 L129.306 868.202 Q131.635 865.792 135.646 861.741 Q139.676 857.67 140.709 856.495 Q142.674 854.287 143.444 852.768 Q144.234 851.229 144.234 849.75 Q144.234 847.34 142.532 845.821 Q140.851 844.302 138.137 844.302 Q136.213 844.302 134.066 844.97 Q131.939 845.639 129.509 846.996 L129.509 842.864 Q131.98 841.871 134.127 841.365 Q136.274 840.859 138.056 840.859 Q142.755 840.859 145.55 843.208 Q148.345 845.558 148.345 849.487 Q148.345 851.351 147.637 853.032 Q146.948 854.693 145.105 856.961 Q144.598 857.548 141.884 860.364 Q139.17 863.159 134.228 868.202 Z" fill="#000000" fill-rule="evenodd" fill-opacity="1" /><path clip-path="url(#clip080)" d="M 0 0 M161.693 844.099 Q158.533 844.099 156.933 847.219 Q155.353 850.318 155.353 856.556 Q155.353 862.774 156.933 865.893 Q158.533 868.992 161.693 868.992 Q164.873 868.992 166.453 865.893 Q168.053 862.774 168.053 856.556 Q168.053 850.318 166.453 847.219 Q164.873 844.099 161.693 844.099 M161.693 840.859 Q166.777 840.859 169.451 844.889 Q172.144 848.9 172.144 856.556 Q172.144 864.192 169.451 868.223 Q166.777 872.233 161.693 872.233 Q156.609 872.233 153.915 868.223 Q151.242 864.192 151.242 856.556 Q151.242 848.9 153.915 844.889 Q156.609 840.859 161.693 840.859 Z" fill="#000000" fill-rule="evenodd" fill-opacity="1" /><path clip-path="url(#clip080)" d="M 0 0 M185.33 844.099 Q182.17 844.099 180.57 847.219 Q178.991 850.318 178.991 856.556 Q178.991 862.774 180.57 865.893 Q182.17 868.992 185.33 868.992 Q188.51 868.992 190.09 865.893 Q191.69 862.774 191.69 856.556 Q191.69 850.318 190.09 847.219 Q188.51 844.099 185.33 844.099 M185.33 840.859 Q190.414 840.859 193.088 844.889 Q195.782 848.9 195.782 856.556 Q195.782 864.192 193.088 868.223 Q190.414 872.233 185.33 872.233 Q180.246 872.233 177.552 868.223 Q174.879 864.192 174.879 856.556 Q174.879 848.9 177.552 844.889 Q180.246 840.859 185.33 840.859 Z" fill="#000000" fill-rule="evenodd" fill-opacity="1" /><path clip-path="url(#clip080)" d="M 0 0 M100.849 660.1 L126.815 660.1 L126.815 663.543 L100.849 663.543 L100.849 660.1 Z" fill="#000000" fill-rule="evenodd" fill-opacity="1" /><path clip-path="url(#clip080)" d="M 0 0 M131.96 671.382 L138.644 671.382 L138.644 648.312 L131.372 649.77 L131.372 646.043 L138.603 644.585 L142.694 644.585 L142.694 671.382 L149.378 671.382 L149.378 674.825 L131.96 674.825 L131.96 671.382 Z" fill="#000000" fill-rule="evenodd" fill-opacity="1" /><path clip-path="url(#clip080)" d="M 0 0 M153.855 644.585 L169.916 644.585 L169.916 648.028 L157.602 648.028 L157.602 655.441 Q158.493 655.138 159.384 654.996 Q160.275 654.834 161.167 654.834 Q166.23 654.834 169.187 657.609 Q172.144 660.383 172.144 665.123 Q172.144 670.004 169.106 672.718 Q166.068 675.412 160.539 675.412 Q158.635 675.412 156.65 675.088 Q154.685 674.764 152.579 674.116 L152.579 670.004 Q154.402 670.997 156.346 671.483 Q158.29 671.969 160.458 671.969 Q163.962 671.969 166.007 670.126 Q168.053 668.283 168.053 665.123 Q168.053 661.963 166.007 660.12 Q163.962 658.277 160.458 658.277 Q158.817 658.277 157.176 658.642 Q155.556 659.006 153.855 659.776 L153.855 644.585 Z" fill="#000000" fill-rule="evenodd" fill-opacity="1" /><path clip-path="url(#clip080)" d="M 0 0 M185.33 647.279 Q182.17 647.279 180.57 650.398 Q178.991 653.497 178.991 659.735 Q178.991 665.953 180.57 669.073 Q182.17 672.172 185.33 672.172 Q188.51 672.172 190.09 669.073 Q191.69 665.953 191.69 659.735 Q191.69 653.497 190.09 650.398 Q188.51 647.279 185.33 647.279 M185.33 644.038 Q190.414 644.038 193.088 648.069 Q195.782 652.079 195.782 659.735 Q195.782 667.371 193.088 671.402 Q190.414 675.412 185.33 675.412 Q180.246 675.412 177.552 671.402 Q174.879 667.371 174.879 659.735 Q174.879 652.079 177.552 648.069 Q180.246 644.038 185.33 644.038 Z" fill="#000000" fill-rule="evenodd" fill-opacity="1" /><path clip-path="url(#clip080)" d="M 0 0 M99.9776 463.279 L125.944 463.279 L125.944 466.723 L99.9776 466.723 L99.9776 463.279 Z" fill="#000000" fill-rule="evenodd" fill-opacity="1" /><path clip-path="url(#clip080)" d="M 0 0 M131.089 474.561 L137.773 474.561 L137.773 451.491 L130.501 452.949 L130.501 449.223 L137.732 447.764 L141.823 447.764 L141.823 474.561 L148.507 474.561 L148.507 478.004 L131.089 478.004 L131.089 474.561 Z" fill="#000000" fill-rule="evenodd" fill-opacity="1" /><path clip-path="url(#clip080)" d="M 0 0 M161.693 450.458 Q158.533 450.458 156.933 453.577 Q155.353 456.676 155.353 462.915 Q155.353 469.133 156.933 472.252 Q158.533 475.351 161.693 475.351 Q164.873 475.351 166.453 472.252 Q168.053 469.133 168.053 462.915 Q168.053 456.676 166.453 453.577 Q164.873 450.458 161.693 450.458 M161.693 447.217 Q166.777 447.217 169.451 451.248 Q172.144 455.258 172.144 462.915 Q172.144 470.551 169.451 474.581 Q166.777 478.592 161.693 478.592 Q156.609 478.592 153.915 474.581 Q151.242 470.551 151.242 462.915 Q151.242 455.258 153.915 451.248 Q156.609 447.217 161.693 447.217 Z" fill="#000000" fill-rule="evenodd" fill-opacity="1" /><path clip-path="url(#clip080)" d="M 0 0 M185.33 450.458 Q182.17 450.458 180.57 453.577 Q178.991 456.676 178.991 462.915 Q178.991 469.133 180.57 472.252 Q182.17 475.351 185.33 475.351 Q188.51 475.351 190.09 472.252 Q191.69 469.133 191.69 462.915 Q191.69 456.676 190.09 453.577 Q188.51 450.458 185.33 450.458 M185.33 447.217 Q190.414 447.217 193.088 451.248 Q195.782 455.258 195.782 462.915 Q195.782 470.551 193.088 474.581 Q190.414 478.592 185.33 478.592 Q180.246 478.592 177.552 474.581 Q174.879 470.551 174.879 462.915 Q174.879 455.258 177.552 451.248 Q180.246 447.217 185.33 447.217 Z" fill="#000000" fill-rule="evenodd" fill-opacity="1" /><path clip-path="url(#clip080)" d="M 0 0 M123.412 266.459 L149.378 266.459 L149.378 269.902 L123.412 269.902 L123.412 266.459 Z" fill="#000000" fill-rule="evenodd" fill-opacity="1" /><path clip-path="url(#clip080)" d="M 0 0 M153.855 250.944 L169.916 250.944 L169.916 254.387 L157.602 254.387 L157.602 261.8 Q158.493 261.496 159.384 261.354 Q160.275 261.192 161.167 261.192 Q166.23 261.192 169.187 263.967 Q172.144 266.742 172.144 271.482 Q172.144 276.363 169.106 279.077 Q166.068 281.771 160.539 281.771 Q158.635 281.771 156.65 281.447 Q154.685 281.123 152.579 280.475 L152.579 276.363 Q154.402 277.356 156.346 277.842 Q158.29 278.328 160.458 278.328 Q163.962 278.328 166.007 276.485 Q168.053 274.641 168.053 271.482 Q168.053 268.322 166.007 266.479 Q163.962 264.636 160.458 264.636 Q158.817 264.636 157.176 265 Q155.556 265.365 153.855 266.135 L153.855 250.944 Z" fill="#000000" fill-rule="evenodd" fill-opacity="1" /><path clip-path="url(#clip080)" d="M 0 0 M185.33 253.638 Q182.17 253.638 180.57 256.757 Q178.991 259.856 178.991 266.094 Q178.991 272.312 180.57 275.431 Q182.17 278.53 185.33 278.53 Q188.51 278.53 190.09 275.431 Q191.69 272.312 191.69 266.094 Q191.69 259.856 190.09 256.757 Q188.51 253.638 185.33 253.638 M185.33 250.397 Q190.414 250.397 193.088 254.427 Q195.782 258.438 195.782 266.094 Q195.782 273.73 193.088 277.761 Q190.414 281.771 185.33 281.771 Q180.246 281.771 177.552 277.761 Q174.879 273.73 174.879 266.094 Q174.879 258.438 177.552 254.427 Q180.246 250.397 185.33 250.397 Z" fill="#000000" fill-rule="evenodd" fill-opacity="1" /><path clip-path="url(#clip080)" d="M 0 0 M185.33 56.8169 Q182.17 56.8169 180.57 59.9361 Q178.991 63.035 178.991 69.2734 Q178.991 75.4915 180.57 78.6107 Q182.17 81.7097 185.33 81.7097 Q188.51 81.7097 190.09 78.6107 Q191.69 75.4915 191.69 69.2734 Q191.69 63.035 190.09 59.9361 Q188.51 56.8169 185.33 56.8169 M185.33 53.5762 Q190.414 53.5762 193.088 57.6068 Q195.782 61.6172 195.782 69.2734 Q195.782 76.9094 193.088 80.94 Q190.414 84.9504 185.33 84.9504 Q180.246 84.9504 177.552 80.94 Q174.879 76.9094 174.879 69.2734 Q174.879 61.6172 177.552 57.6068 Q180.246 53.5762 185.33 53.5762 Z" fill="#000000" fill-rule="evenodd" fill-opacity="1" /><path clip-path="url(#clip080)" d="M 0 0 M28.9613 643.562 Q28.9613 645.373 32.9996 645.373 L52.1046 645.373 Q52.1046 642.727 49.2082 640.081 Q46.6182 637.714 40.4077 637.714 Q34.6149 637.714 31.4957 640.109 Q28.9613 642.058 28.9613 643.562 M24.5889 643.562 Q24.5889 639.663 28.2651 636.126 Q32.1919 632.311 40.4077 632.311 Q47.955 632.311 52.4388 636.126 Q56.672 639.719 56.672 645.373 L67.8677 645.373 L67.8677 650.469 L56.6999 650.469 Q56.6999 656.011 52.4388 659.743 Q48.0942 663.531 40.4355 663.531 Q32.4704 663.531 28.4043 659.743 Q25.3687 656.902 24.5889 652.279 L29.1284 652.279 Q29.769 654.117 31.9413 655.733 Q35.144 658.128 40.4355 658.128 Q46.0612 658.128 49.2639 655.733 Q52.1325 653.588 52.1325 650.469 L32.9996 650.469 Q24.5889 650.469 24.5889 643.562 Z" fill="#000000" fill-rule="evenodd" fill-opacity="1" /><path clip-path="url(#clip080)" d="M 0 0 M43.4155 617.717 Q43.9168 615.155 45.4485 613.763 Q46.9524 612.342 49.2361 612.342 Q52.6895 612.342 54.5554 614.988 Q56.4214 617.634 56.4214 622.563 Q56.4214 624.151 56.115 625.905 Q55.8365 627.632 55.2795 629.582 L51.9097 629.582 Q52.6616 628.133 53.0237 626.49 Q53.3857 624.819 53.3857 622.953 Q53.3857 619.918 52.2996 618.247 Q51.1856 616.576 49.2361 616.576 Q47.1752 616.576 46.1169 618.135 Q45.0586 619.667 45.0586 622.675 L45.0586 625.07 L42.0508 625.07 L42.0508 622.452 Q42.0508 619.834 41.1875 618.497 Q40.2963 617.133 38.6253 617.133 Q37.01 617.133 36.1745 618.525 Q35.3111 619.918 35.3111 622.563 Q35.3111 623.677 35.5618 625.098 Q35.8124 626.518 36.453 628.774 L33.2502 628.774 Q32.7768 626.741 32.5261 624.958 Q32.2755 623.176 32.2755 621.644 Q32.2755 617.634 33.9186 615.295 Q35.5618 612.927 38.3189 612.927 Q40.2406 612.927 41.5774 614.181 Q42.9142 615.434 43.4155 617.717 Z" fill="#000000" fill-rule="evenodd" fill-opacity="1" /><circle clip-path="url(#clip082)" cx="279.113" cy="75.1083" r="12" fill="#009af9" fill-rule="evenodd" fill-opacity="1" stroke="#000000" stroke-opacity="1" stroke-width="2.8"/>
<circle clip-path="url(#clip082)" cx="436.668" cy="80.9735" r="12" fill="#009af9" fill-rule="evenodd" fill-opacity="1" stroke="#000000" stroke-opacity="1" stroke-width="2.8"/>
<circle clip-path="url(#clip082)" cx="802.5" cy="127.305" r="12" fill="#009af9" fill-rule="evenodd" fill-opacity="1" stroke="#000000" stroke-opacity="1" stroke-width="2.8"/>
<circle clip-path="url(#clip082)" cx="1052.22" cy="231.463" r="12" fill="#009af9" fill-rule="evenodd" fill-opacity="1" stroke="#000000" stroke-opacity="1" stroke-width="2.8"/>
<circle clip-path="url(#clip082)" cx="1168.33" cy="312.907" r="12" fill="#009af9" fill-rule="evenodd" fill-opacity="1" stroke="#000000" stroke-opacity="1" stroke-width="2.8"/>
<circle clip-path="url(#clip082)" cx="1244.81" cy="375.338" r="12" fill="#009af9" fill-rule="evenodd" fill-opacity="1" stroke="#000000" stroke-opacity="1" stroke-width="2.8"/>
<circle clip-path="url(#clip082)" cx="1325.89" cy="446.076" r="12" fill="#009af9" fill-rule="evenodd" fill-opacity="1" stroke="#000000" stroke-opacity="1" stroke-width="2.8"/>
<circle clip-path="url(#clip082)" cx="1418.05" cy="529.921" r="12" fill="#009af9" fill-rule="evenodd" fill-opacity="1" stroke="#000000" stroke-opacity="1" stroke-width="2.8"/>
<circle clip-path="url(#clip082)" cx="1483.44" cy="590.503" r="12" fill="#009af9" fill-rule="evenodd" fill-opacity="1" stroke="#000000" stroke-opacity="1" stroke-width="2.8"/>
<circle clip-path="url(#clip082)" cx="1534.16" cy="638.173" r="12" fill="#009af9" fill-rule="evenodd" fill-opacity="1" stroke="#000000" stroke-opacity="1" stroke-width="2.8"/>
<circle clip-path="url(#clip082)" cx="1575.61" cy="675.608" r="12" fill="#009af9" fill-rule="evenodd" fill-opacity="1" stroke="#000000" stroke-opacity="1" stroke-width="2.8"/>
<circle clip-path="url(#clip082)" cx="1641" cy="735.402" r="12" fill="#009af9" fill-rule="evenodd" fill-opacity="1" stroke="#000000" stroke-opacity="1" stroke-width="2.8"/>
<circle clip-path="url(#clip082)" cx="1798.55" cy="888.883" r="12" fill="#009af9" fill-rule="evenodd" fill-opacity="1" stroke="#000000" stroke-opacity="1" stroke-width="2.8"/>
<circle clip-path="url(#clip082)" cx="1849.27" cy="947.535" r="12" fill="#009af9" fill-rule="evenodd" fill-opacity="1" stroke="#000000" stroke-opacity="1" stroke-width="2.8"/>
<circle clip-path="url(#clip082)" cx="2006.83" cy="1200.76" r="12" fill="#009af9" fill-rule="evenodd" fill-opacity="1" stroke="#000000" stroke-opacity="1" stroke-width="2.8"/>
</svg>
