<?xml version="1.0" encoding="utf-8"?>
<svg xmlns="http://www.w3.org/2000/svg" xmlns:xlink="http://www.w3.org/1999/xlink" width="525" height="350" viewBox="0 0 2100 1400">
<defs>
  <clipPath id="clip840">
    <rect x="0" y="0" width="2100" height="1400"/>
  </clipPath>
</defs>
<path clip-path="url(#clip840)" d="
M0 1400 L2100 1400 L2100 0 L0 0  Z
  " fill="#ffffff" fill-rule="evenodd" fill-opacity="1"/>
<defs>
  <clipPath id="clip841">
    <rect x="420" y="0" width="1471" height="1400"/>
  </clipPath>
</defs>
<path clip-path="url(#clip840)" d="
M250.919 1234.53 L2058.66 1234.53 L2058.66 41.3386 L250.919 41.3386  Z
  " fill="#ffffff" fill-rule="evenodd" fill-opacity="1"/>
<defs>
  <clipPath id="clip842">
    <rect x="250" y="41" width="1809" height="1194"/>
  </clipPath>
</defs>
<polyline clip-path="url(#clip842)" style="stroke:#000000; stroke-width:1.75; stroke-opacity:0.1; fill:none" points="
  302.081,1234.53 302.081,41.3386 
  "/>
<polyline clip-path="url(#clip842)" style="stroke:#000000; stroke-width:1.75; stroke-opacity:0.1; fill:none" points="
  818.713,1234.53 818.713,41.3386 
  "/>
<polyline clip-path="url(#clip842)" style="stroke:#000000; stroke-width:1.75; stroke-opacity:0.1; fill:none" points="
  1335.35,1234.53 1335.35,41.3386 
  "/>
<polyline clip-path="url(#clip842)" style="stroke:#000000; stroke-width:1.75; stroke-opacity:0.1; fill:none" points="
  1851.98,1234.53 1851.98,41.3386 
  "/>
<polyline clip-path="url(#clip840)" style="stroke:#000000; stroke-width:3.5; stroke-opacity:1; fill:none" points="
  250.919,1234.53 2058.66,1234.53 
  "/>
<polyline clip-path="url(#clip840)" style="stroke:#000000; stroke-width:3.5; stroke-opacity:1; fill:none" points="
  302.081,1234.53 302.081,1220.22 
  "/>
<polyline clip-path="url(#clip840)" style="stroke:#000000; stroke-width:3.5; stroke-opacity:1; fill:none" points="
  818.713,1234.53 818.713,1220.22 
  "/>
<polyline clip-path="url(#clip840)" style="stroke:#000000; stroke-width:3.5; stroke-opacity:1; fill:none" points="
  1335.35,1234.53 1335.35,1220.22 
  "/>
<polyline clip-path="url(#clip840)" style="stroke:#000000; stroke-width:3.5; stroke-opacity:1; fill:none" points="
  1851.98,1234.53 1851.98,1220.22 
  "/>
<path clip-path="url(#clip840)" d="M 0 0 M262.263 1303.02 L268.947 1303.02 L268.947 1279.95 L261.676 1281.41 L261.676 1277.68 L268.907 1276.23 L272.998 1276.23 L272.998 1303.02 L279.682 1303.02 L279.682 1306.47 L262.263 1306.47 L262.263 1303.02 Z" fill="#000000" fill-rule="evenodd" fill-opacity="1" /><path clip-path="url(#clip840)" d="M 0 0 M292.868 1278.92 Q289.708 1278.92 288.108 1282.04 Q286.528 1285.14 286.528 1291.38 Q286.528 1297.59 288.108 1300.71 Q289.708 1303.81 292.868 1303.81 Q296.048 1303.81 297.628 1300.71 Q299.228 1297.59 299.228 1291.38 Q299.228 1285.14 297.628 1282.04 Q296.048 1278.92 292.868 1278.92 M292.868 1275.68 Q297.952 1275.68 300.625 1279.71 Q303.319 1283.72 303.319 1291.38 Q303.319 1299.01 300.625 1303.04 Q297.952 1307.05 292.868 1307.05 Q287.784 1307.05 285.09 1303.04 Q282.416 1299.01 282.416 1291.38 Q282.416 1283.72 285.09 1279.71 Q287.784 1275.68 292.868 1275.68 Z" fill="#000000" fill-rule="evenodd" fill-opacity="1" /><path clip-path="url(#clip840)" d="M 0 0 M303.319 1270.52 L324.417 1270.52 L324.417 1273.32 L303.319 1273.32 L303.319 1270.52 Z" fill="#000000" fill-rule="evenodd" fill-opacity="1" /><path clip-path="url(#clip840)" d="M 0 0 M330.884 1279.68 L342.486 1279.68 L342.486 1282.48 L326.885 1282.48 L326.885 1279.68 Q328.778 1277.73 332.036 1274.43 Q335.311 1271.13 336.15 1270.17 Q337.747 1268.38 338.372 1267.14 Q339.014 1265.89 339.014 1264.69 Q339.014 1262.73 337.632 1261.5 Q336.266 1260.27 334.06 1260.27 Q332.497 1260.27 330.753 1260.81 Q329.025 1261.35 327.05 1262.45 L327.05 1259.1 Q329.058 1258.29 330.802 1257.88 Q332.546 1257.47 333.995 1257.47 Q337.813 1257.47 340.084 1259.38 Q342.355 1261.29 342.355 1264.48 Q342.355 1265.99 341.779 1267.36 Q341.219 1268.71 339.722 1270.55 Q339.31 1271.03 337.105 1273.32 Q334.9 1275.59 330.884 1279.68 Z" fill="#000000" fill-rule="evenodd" fill-opacity="1" /><path clip-path="url(#clip840)" d="M 0 0 M778.764 1303.02 L785.448 1303.02 L785.448 1279.95 L778.176 1281.41 L778.176 1277.68 L785.407 1276.23 L789.498 1276.23 L789.498 1303.02 L796.182 1303.02 L796.182 1306.47 L778.764 1306.47 L778.764 1303.02 Z" fill="#000000" fill-rule="evenodd" fill-opacity="1" /><path clip-path="url(#clip840)" d="M 0 0 M809.368 1278.92 Q806.208 1278.92 804.608 1282.04 Q803.029 1285.14 803.029 1291.38 Q803.029 1297.59 804.608 1300.71 Q806.208 1303.81 809.368 1303.81 Q812.548 1303.81 814.128 1300.71 Q815.728 1297.59 815.728 1291.38 Q815.728 1285.14 814.128 1282.04 Q812.548 1278.92 809.368 1278.92 M809.368 1275.68 Q814.452 1275.68 817.126 1279.71 Q819.82 1283.72 819.82 1291.38 Q819.82 1299.01 817.126 1303.04 Q814.452 1307.05 809.368 1307.05 Q804.284 1307.05 801.59 1303.04 Q798.917 1299.01 798.917 1291.38 Q798.917 1283.72 801.59 1279.71 Q804.284 1275.68 809.368 1275.68 Z" fill="#000000" fill-rule="evenodd" fill-opacity="1" /><path clip-path="url(#clip840)" d="M 0 0 M819.82 1270.52 L840.917 1270.52 L840.917 1273.32 L819.82 1273.32 L819.82 1270.52 Z" fill="#000000" fill-rule="evenodd" fill-opacity="1" /><path clip-path="url(#clip840)" d="M 0 0 M845.097 1279.68 L850.528 1279.68 L850.528 1260.94 L844.62 1262.12 L844.62 1259.1 L850.495 1257.91 L853.819 1257.91 L853.819 1279.68 L859.25 1279.68 L859.25 1282.48 L845.097 1282.48 L845.097 1279.68 Z" fill="#000000" fill-rule="evenodd" fill-opacity="1" /><path clip-path="url(#clip840)" d="M 0 0 M1306.62 1303.02 L1313.3 1303.02 L1313.3 1279.95 L1306.03 1281.41 L1306.03 1277.68 L1313.26 1276.23 L1317.35 1276.23 L1317.35 1303.02 L1324.04 1303.02 L1324.04 1306.47 L1306.62 1306.47 L1306.62 1303.02 Z" fill="#000000" fill-rule="evenodd" fill-opacity="1" /><path clip-path="url(#clip840)" d="M 0 0 M1337.22 1278.92 Q1334.06 1278.92 1332.46 1282.04 Q1330.88 1285.14 1330.88 1291.38 Q1330.88 1297.59 1332.46 1300.71 Q1334.06 1303.81 1337.22 1303.81 Q1340.4 1303.81 1341.98 1300.71 Q1343.58 1297.59 1343.58 1291.38 Q1343.58 1285.14 1341.98 1282.04 Q1340.4 1278.92 1337.22 1278.92 M1337.22 1275.68 Q1342.31 1275.68 1344.98 1279.71 Q1347.68 1283.72 1347.68 1291.38 Q1347.68 1299.01 1344.98 1303.04 Q1342.31 1307.05 1337.22 1307.05 Q1332.14 1307.05 1329.45 1303.04 Q1326.77 1299.01 1326.77 1291.38 Q1326.77 1283.72 1329.45 1279.71 Q1332.14 1275.68 1337.22 1275.68 Z" fill="#000000" fill-rule="evenodd" fill-opacity="1" /><path clip-path="url(#clip840)" d="M 0 0 M1356.17 1260.1 Q1353.6 1260.1 1352.3 1262.63 Q1351.02 1265.15 1351.02 1270.22 Q1351.02 1275.27 1352.3 1277.81 Q1353.6 1280.33 1356.17 1280.33 Q1358.75 1280.33 1360.03 1277.81 Q1361.33 1275.27 1361.33 1270.22 Q1361.33 1265.15 1360.03 1262.63 Q1358.75 1260.1 1356.17 1260.1 M1356.17 1257.47 Q1360.3 1257.47 1362.47 1260.74 Q1364.66 1264 1364.66 1270.22 Q1364.66 1276.43 1362.47 1279.7 Q1360.3 1282.96 1356.17 1282.96 Q1352.04 1282.96 1349.85 1279.7 Q1347.68 1276.43 1347.68 1270.22 Q1347.68 1264 1349.85 1260.74 Q1352.04 1257.47 1356.17 1257.47 Z" fill="#000000" fill-rule="evenodd" fill-opacity="1" /><path clip-path="url(#clip840)" d="M 0 0 M1824.43 1303.02 L1831.11 1303.02 L1831.11 1279.95 L1823.84 1281.41 L1823.84 1277.68 L1831.07 1276.23 L1835.16 1276.23 L1835.16 1303.02 L1841.85 1303.02 L1841.85 1306.47 L1824.43 1306.47 L1824.43 1303.02 Z" fill="#000000" fill-rule="evenodd" fill-opacity="1" /><path clip-path="url(#clip840)" d="M 0 0 M1855.03 1278.92 Q1851.87 1278.92 1850.27 1282.04 Q1848.69 1285.14 1848.69 1291.38 Q1848.69 1297.59 1850.27 1300.71 Q1851.87 1303.81 1855.03 1303.81 Q1858.21 1303.81 1859.79 1300.71 Q1861.39 1297.59 1861.39 1291.38 Q1861.39 1285.14 1859.79 1282.04 Q1858.21 1278.92 1855.03 1278.92 M1855.03 1275.68 Q1860.12 1275.68 1862.79 1279.71 Q1865.48 1283.72 1865.48 1291.38 Q1865.48 1299.01 1862.79 1303.04 Q1860.12 1307.05 1855.03 1307.05 Q1849.95 1307.05 1847.25 1303.04 Q1844.58 1299.01 1844.58 1291.38 Q1844.58 1283.72 1847.25 1279.71 Q1849.95 1275.68 1855.03 1275.68 Z" fill="#000000" fill-rule="evenodd" fill-opacity="1" /><path clip-path="url(#clip840)" d="M 0 0 M1865.96 1279.68 L1871.39 1279.68 L1871.39 1260.94 L1865.48 1262.12 L1865.48 1259.1 L1871.36 1257.91 L1874.68 1257.91 L1874.68 1279.68 L1880.11 1279.68 L1880.11 1282.48 L1865.96 1282.48 L1865.96 1279.68 Z" fill="#000000" fill-rule="evenodd" fill-opacity="1" /><path clip-path="url(#clip840)" d="M 0 0 M1136.42 1378.22 Q1124.87 1378.22 1124.87 1361.68 Q1124.87 1355.13 1129.18 1346.22 L1134.7 1346.22 Q1130.71 1355.13 1130.71 1361.82 Q1130.71 1373.88 1136.9 1373.88 Q1142.55 1373.88 1142.55 1358.89 L1147.28 1358.89 Q1147.28 1373.88 1152.94 1373.88 Q1159.12 1373.88 1159.12 1361.82 Q1159.12 1355.13 1155.14 1346.22 L1160.65 1346.22 Q1164.97 1355.13 1164.97 1361.68 Q1164.97 1378.22 1153.41 1378.22 Q1145.84 1378.22 1144.92 1369.89 Q1143.78 1378.22 1136.42 1378.22 Z" fill="#000000" fill-rule="evenodd" fill-opacity="1" /><path clip-path="url(#clip840)" d="M 0 0 M1169.31 1374.35 L1175 1374.35 L1175 1357.33 L1168.78 1358.47 L1168.78 1355.24 L1175.19 1354.16 L1179.01 1354.16 L1179.01 1374.35 L1184.71 1374.35 L1184.71 1377.41 L1169.31 1377.41 L1169.31 1374.35 Z" fill="#000000" fill-rule="evenodd" fill-opacity="1" /><polyline clip-path="url(#clip842)" style="stroke:#000000; stroke-width:1.75; stroke-opacity:0.1; fill:none" points="
  250.919,1005.8 2058.66,1005.8 
  "/>
<polyline clip-path="url(#clip842)" style="stroke:#000000; stroke-width:1.75; stroke-opacity:0.1; fill:none" points="
  250.919,772.981 2058.66,772.981 
  "/>
<polyline clip-path="url(#clip842)" style="stroke:#000000; stroke-width:1.75; stroke-opacity:0.1; fill:none" points="
  250.919,540.162 2058.66,540.162 
  "/>
<polyline clip-path="url(#clip842)" style="stroke:#000000; stroke-width:1.75; stroke-opacity:0.1; fill:none" points="
  250.919,307.342 2058.66,307.342 
  "/>
<polyline clip-path="url(#clip842)" style="stroke:#000000; stroke-width:1.75; stroke-opacity:0.1; fill:none" points="
  250.919,74.5216 2058.66,74.5216 
  "/>
<polyline clip-path="url(#clip840)" style="stroke:#000000; stroke-width:3.5; stroke-opacity:1; fill:none" points="
  250.919,1234.53 250.919,41.3386 
  "/>
<polyline clip-path="url(#clip840)" style="stroke:#000000; stroke-width:3.5; stroke-opacity:1; fill:none" points="
  250.919,1005.8 272.611,1005.8 
  "/>
<polyline clip-path="url(#clip840)" style="stroke:#000000; stroke-width:3.5; stroke-opacity:1; fill:none" points="
  250.919,772.981 272.611,772.981 
  "/>
<polyline clip-path="url(#clip840)" style="stroke:#000000; stroke-width:3.5; stroke-opacity:1; fill:none" points="
  250.919,540.162 272.611,540.162 
  "/>
<polyline clip-path="url(#clip840)" style="stroke:#000000; stroke-width:3.5; stroke-opacity:1; fill:none" points="
  250.919,307.342 272.611,307.342 
  "/>
<polyline clip-path="url(#clip840)" style="stroke:#000000; stroke-width:3.5; stroke-opacity:1; fill:none" points="
  250.919,74.5216 272.611,74.5216 
  "/>
<path clip-path="url(#clip840)" d="M 0 0 M99.9776 1006.2 L125.944 1006.2 L125.944 1009.64 L99.9776 1009.64 L99.9776 1006.2 Z" fill="#000000" fill-rule="evenodd" fill-opacity="1" /><path clip-path="url(#clip840)" d="M 0 0 M131.089 1017.48 L137.773 1017.48 L137.773 994.408 L130.501 995.867 L130.501 992.14 L137.732 990.681 L141.823 990.681 L141.823 1017.48 L148.507 1017.48 L148.507 1020.92 L131.089 1020.92 L131.089 1017.48 Z" fill="#000000" fill-rule="evenodd" fill-opacity="1" /><path clip-path="url(#clip840)" d="M 0 0 M161.693 993.375 Q158.533 993.375 156.933 996.494 Q155.353 999.593 155.353 1005.83 Q155.353 1012.05 156.933 1015.17 Q158.533 1018.27 161.693 1018.27 Q164.873 1018.27 166.453 1015.17 Q168.053 1012.05 168.053 1005.83 Q168.053 999.593 166.453 996.494 Q164.873 993.375 161.693 993.375 M161.693 990.135 Q166.777 990.135 169.451 994.165 Q172.144 998.176 172.144 1005.83 Q172.144 1013.47 169.451 1017.5 Q166.777 1021.51 161.693 1021.51 Q156.609 1021.51 153.915 1017.5 Q151.242 1013.47 151.242 1005.83 Q151.242 998.176 153.915 994.165 Q156.609 990.135 161.693 990.135 Z" fill="#000000" fill-rule="evenodd" fill-opacity="1" /><path clip-path="url(#clip840)" d="M 0 0 M185.33 993.375 Q182.17 993.375 180.57 996.494 Q178.991 999.593 178.991 1005.83 Q178.991 1012.05 180.57 1015.17 Q182.17 1018.27 185.33 1018.27 Q188.51 1018.27 190.09 1015.17 Q191.69 1012.05 191.69 1005.83 Q191.69 999.593 190.09 996.494 Q188.51 993.375 185.33 993.375 M185.33 990.135 Q190.414 990.135 193.088 994.165 Q195.782 998.176 195.782 1005.83 Q195.782 1013.47 193.088 1017.5 Q190.414 1021.51 185.33 1021.51 Q180.246 1021.51 177.552 1017.5 Q174.879 1013.47 174.879 1005.83 Q174.879 998.176 177.552 994.165 Q180.246 990.135 185.33 990.135 Z" fill="#000000" fill-rule="evenodd" fill-opacity="1" /><path clip-path="url(#clip840)" d="M 0 0 M208.967 993.375 Q205.808 993.375 204.207 996.494 Q202.628 999.593 202.628 1005.83 Q202.628 1012.05 204.207 1015.17 Q205.808 1018.27 208.967 1018.27 Q212.147 1018.27 213.727 1015.17 Q215.327 1012.05 215.327 1005.83 Q215.327 999.593 213.727 996.494 Q212.147 993.375 208.967 993.375 M208.967 990.135 Q214.051 990.135 216.725 994.165 Q219.419 998.176 219.419 1005.83 Q219.419 1013.47 216.725 1017.5 Q214.051 1021.51 208.967 1021.51 Q203.883 1021.51 201.189 1017.5 Q198.516 1013.47 198.516 1005.83 Q198.516 998.176 201.189 994.165 Q203.883 990.135 208.967 990.135 Z" fill="#000000" fill-rule="evenodd" fill-opacity="1" /><path clip-path="url(#clip840)" d="M 0 0 M124.202 773.376 L150.168 773.376 L150.168 776.82 L124.202 776.82 L124.202 773.376 Z" fill="#000000" fill-rule="evenodd" fill-opacity="1" /><path clip-path="url(#clip840)" d="M 0 0 M153.571 757.861 L173.015 757.861 L173.015 759.603 L162.037 788.101 L157.764 788.101 L168.094 761.305 L153.571 761.305 L153.571 757.861 Z" fill="#000000" fill-rule="evenodd" fill-opacity="1" /><path clip-path="url(#clip840)" d="M 0 0 M177.492 757.861 L193.554 757.861 L193.554 761.305 L181.239 761.305 L181.239 768.718 Q182.13 768.414 183.021 768.272 Q183.912 768.11 184.804 768.11 Q189.867 768.11 192.824 770.885 Q195.782 773.66 195.782 778.4 Q195.782 783.281 192.743 785.995 Q189.705 788.689 184.176 788.689 Q182.272 788.689 180.287 788.365 Q178.322 788.041 176.216 787.393 L176.216 783.281 Q178.039 784.273 179.983 784.759 Q181.927 785.246 184.095 785.246 Q187.599 785.246 189.644 783.402 Q191.69 781.559 191.69 778.4 Q191.69 775.24 189.644 773.397 Q187.599 771.554 184.095 771.554 Q182.454 771.554 180.813 771.918 Q179.193 772.283 177.492 773.052 L177.492 757.861 Z" fill="#000000" fill-rule="evenodd" fill-opacity="1" /><path clip-path="url(#clip840)" d="M 0 0 M208.967 760.555 Q205.808 760.555 204.207 763.675 Q202.628 766.773 202.628 773.012 Q202.628 779.23 204.207 782.349 Q205.808 785.448 208.967 785.448 Q212.147 785.448 213.727 782.349 Q215.327 779.23 215.327 773.012 Q215.327 766.773 213.727 763.675 Q212.147 760.555 208.967 760.555 M208.967 757.315 Q214.051 757.315 216.725 761.345 Q219.419 765.356 219.419 773.012 Q219.419 780.648 216.725 784.678 Q214.051 788.689 208.967 788.689 Q203.883 788.689 201.189 784.678 Q198.516 780.648 198.516 773.012 Q198.516 765.356 201.189 761.345 Q203.883 757.315 208.967 757.315 Z" fill="#000000" fill-rule="evenodd" fill-opacity="1" /><path clip-path="url(#clip840)" d="M 0 0 M123.412 540.556 L149.378 540.556 L149.378 544 L123.412 544 L123.412 540.556 Z" fill="#000000" fill-rule="evenodd" fill-opacity="1" /><path clip-path="url(#clip840)" d="M 0 0 M153.855 525.042 L169.916 525.042 L169.916 528.485 L157.602 528.485 L157.602 535.898 Q158.493 535.594 159.384 535.452 Q160.275 535.29 161.167 535.29 Q166.23 535.29 169.187 538.065 Q172.144 540.84 172.144 545.58 Q172.144 550.461 169.106 553.175 Q166.068 555.869 160.539 555.869 Q158.635 555.869 156.65 555.545 Q154.685 555.221 152.579 554.573 L152.579 550.461 Q154.402 551.453 156.346 551.94 Q158.29 552.426 160.458 552.426 Q163.962 552.426 166.007 550.582 Q168.053 548.739 168.053 545.58 Q168.053 542.42 166.007 540.577 Q163.962 538.734 160.458 538.734 Q158.817 538.734 157.176 539.098 Q155.556 539.463 153.855 540.232 L153.855 525.042 Z" fill="#000000" fill-rule="evenodd" fill-opacity="1" /><path clip-path="url(#clip840)" d="M 0 0 M185.33 527.735 Q182.17 527.735 180.57 530.855 Q178.991 533.953 178.991 540.192 Q178.991 546.41 180.57 549.529 Q182.17 552.628 185.33 552.628 Q188.51 552.628 190.09 549.529 Q191.69 546.41 191.69 540.192 Q191.69 533.953 190.09 530.855 Q188.51 527.735 185.33 527.735 M185.33 524.495 Q190.414 524.495 193.088 528.525 Q195.782 532.536 195.782 540.192 Q195.782 547.828 193.088 551.858 Q190.414 555.869 185.33 555.869 Q180.246 555.869 177.552 551.858 Q174.879 547.828 174.879 540.192 Q174.879 532.536 177.552 528.525 Q180.246 524.495 185.33 524.495 Z" fill="#000000" fill-rule="evenodd" fill-opacity="1" /><path clip-path="url(#clip840)" d="M 0 0 M208.967 527.735 Q205.808 527.735 204.207 530.855 Q202.628 533.953 202.628 540.192 Q202.628 546.41 204.207 549.529 Q205.808 552.628 208.967 552.628 Q212.147 552.628 213.727 549.529 Q215.327 546.41 215.327 540.192 Q215.327 533.953 213.727 530.855 Q212.147 527.735 208.967 527.735 M208.967 524.495 Q214.051 524.495 216.725 528.525 Q219.419 532.536 219.419 540.192 Q219.419 547.828 216.725 551.858 Q214.051 555.869 208.967 555.869 Q203.883 555.869 201.189 551.858 Q198.516 547.828 198.516 540.192 Q198.516 532.536 201.189 528.525 Q203.883 524.495 208.967 524.495 Z" fill="#000000" fill-rule="evenodd" fill-opacity="1" /><path clip-path="url(#clip840)" d="M 0 0 M124.81 307.737 L150.776 307.737 L150.776 311.18 L124.81 311.18 L124.81 307.737 Z" fill="#000000" fill-rule="evenodd" fill-opacity="1" /><path clip-path="url(#clip840)" d="M 0 0 M158.736 319.018 L173.015 319.018 L173.015 322.462 L153.814 322.462 L153.814 319.018 Q156.143 316.608 160.154 312.557 Q164.184 308.486 165.217 307.311 Q167.182 305.103 167.952 303.584 Q168.742 302.045 168.742 300.566 Q168.742 298.156 167.04 296.637 Q165.359 295.118 162.645 295.118 Q160.721 295.118 158.574 295.786 Q156.447 296.455 154.017 297.812 L154.017 293.68 Q156.488 292.687 158.635 292.181 Q160.782 291.675 162.564 291.675 Q167.263 291.675 170.058 294.024 Q172.853 296.374 172.853 300.303 Q172.853 302.167 172.144 303.848 Q171.456 305.509 169.613 307.777 Q169.106 308.364 166.392 311.18 Q163.678 313.975 158.736 319.018 Z" fill="#000000" fill-rule="evenodd" fill-opacity="1" /><path clip-path="url(#clip840)" d="M 0 0 M177.492 292.222 L193.554 292.222 L193.554 295.665 L181.239 295.665 L181.239 303.078 Q182.13 302.774 183.021 302.632 Q183.912 302.47 184.804 302.47 Q189.867 302.47 192.824 305.245 Q195.782 308.02 195.782 312.76 Q195.782 317.641 192.743 320.355 Q189.705 323.049 184.176 323.049 Q182.272 323.049 180.287 322.725 Q178.322 322.401 176.216 321.753 L176.216 317.641 Q178.039 318.633 179.983 319.12 Q181.927 319.606 184.095 319.606 Q187.599 319.606 189.644 317.762 Q191.69 315.919 191.69 312.76 Q191.69 309.6 189.644 307.757 Q187.599 305.914 184.095 305.914 Q182.454 305.914 180.813 306.278 Q179.193 306.643 177.492 307.412 L177.492 292.222 Z" fill="#000000" fill-rule="evenodd" fill-opacity="1" /><path clip-path="url(#clip840)" d="M 0 0 M208.967 294.915 Q205.808 294.915 204.207 298.035 Q202.628 301.134 202.628 307.372 Q202.628 313.59 204.207 316.709 Q205.808 319.808 208.967 319.808 Q212.147 319.808 213.727 316.709 Q215.327 313.59 215.327 307.372 Q215.327 301.134 213.727 298.035 Q212.147 294.915 208.967 294.915 M208.967 291.675 Q214.051 291.675 216.725 295.705 Q219.419 299.716 219.419 307.372 Q219.419 315.008 216.725 319.039 Q214.051 323.049 208.967 323.049 Q203.883 323.049 201.189 319.039 Q198.516 315.008 198.516 307.372 Q198.516 299.716 201.189 295.705 Q203.883 291.675 208.967 291.675 Z" fill="#000000" fill-rule="evenodd" fill-opacity="1" /><path clip-path="url(#clip840)" d="M 0 0 M208.967 62.0954 Q205.808 62.0954 204.207 65.2146 Q202.628 68.3136 202.628 74.552 Q202.628 80.7701 204.207 83.8893 Q205.808 86.9882 208.967 86.9882 Q212.147 86.9882 213.727 83.8893 Q215.327 80.7701 215.327 74.552 Q215.327 68.3136 213.727 65.2146 Q212.147 62.0954 208.967 62.0954 M208.967 58.8547 Q214.051 58.8547 216.725 62.8854 Q219.419 66.8957 219.419 74.552 Q219.419 82.1879 216.725 86.2186 Q214.051 90.229 208.967 90.229 Q203.883 90.229 201.189 86.2186 Q198.516 82.1879 198.516 74.552 Q198.516 66.8957 201.189 62.8854 Q203.883 58.8547 208.967 58.8547 Z" fill="#000000" fill-rule="evenodd" fill-opacity="1" /><path clip-path="url(#clip840)" d="M 0 0 M28.9613 643.451 Q28.9613 645.261 32.9996 645.261 L52.1046 645.261 Q52.1046 642.615 49.2082 639.97 Q46.6182 637.602 40.4077 637.602 Q34.6149 637.602 31.4957 639.997 Q28.9613 641.947 28.9613 643.451 M24.5889 643.451 Q24.5889 639.552 28.2651 636.015 Q32.1919 632.199 40.4077 632.199 Q47.955 632.199 52.4388 636.015 Q56.672 639.608 56.672 645.261 L67.8677 645.261 L67.8677 650.358 L56.6999 650.358 Q56.6999 655.9 52.4388 659.632 Q48.0942 663.419 40.4355 663.419 Q32.4704 663.419 28.4043 659.632 Q25.3687 656.791 24.5889 652.168 L29.1284 652.168 Q29.769 654.006 31.9413 655.621 Q35.144 658.016 40.4355 658.016 Q46.0612 658.016 49.2639 655.621 Q52.1325 653.477 52.1325 650.358 L32.9996 650.358 Q24.5889 650.358 24.5889 643.451 Z" fill="#000000" fill-rule="evenodd" fill-opacity="1" /><path clip-path="url(#clip840)" d="M 0 0 M52.9401 627.855 L52.9401 622.173 L35.9238 622.173 L37.0657 628.384 L33.8351 628.384 L32.7489 621.979 L32.7489 618.163 L52.9401 618.163 L52.9401 612.454 L56.0036 612.454 L56.0036 627.855 L52.9401 627.855 Z" fill="#000000" fill-rule="evenodd" fill-opacity="1" /><circle clip-path="url(#clip842)" cx="302.081" cy="75.1083" r="12" fill="#009af9" fill-rule="evenodd" fill-opacity="1" stroke="#000000" stroke-opacity="1" stroke-width="2.8"/>
<circle clip-path="url(#clip842)" cx="663.191" cy="77.4551" r="12" fill="#009af9" fill-rule="evenodd" fill-opacity="1" stroke="#000000" stroke-opacity="1" stroke-width="2.8"/>
<circle clip-path="url(#clip842)" cx="818.713" cy="80.3886" r="12" fill="#009af9" fill-rule="evenodd" fill-opacity="1" stroke="#000000" stroke-opacity="1" stroke-width="2.8"/>
<circle clip-path="url(#clip842)" cx="1335.35" cy="133.202" r="12" fill="#009af9" fill-rule="evenodd" fill-opacity="1" stroke="#000000" stroke-opacity="1" stroke-width="2.8"/>
<circle clip-path="url(#clip842)" cx="1581.84" cy="250.161" r="12" fill="#009af9" fill-rule="evenodd" fill-opacity="1" stroke="#000000" stroke-opacity="1" stroke-width="2.8"/>
<circle clip-path="url(#clip842)" cx="1696.46" cy="366.049" r="12" fill="#009af9" fill-rule="evenodd" fill-opacity="1" stroke="#000000" stroke-opacity="1" stroke-width="2.8"/>
<circle clip-path="url(#clip842)" cx="1771.95" cy="480.615" r="12" fill="#009af9" fill-rule="evenodd" fill-opacity="1" stroke="#000000" stroke-opacity="1" stroke-width="2.8"/>
<circle clip-path="url(#clip842)" cx="1828.34" cy="593.85" r="12" fill="#009af9" fill-rule="evenodd" fill-opacity="1" stroke="#000000" stroke-opacity="1" stroke-width="2.8"/>
<circle clip-path="url(#clip842)" cx="1851.98" cy="650.015" r="12" fill="#009af9" fill-rule="evenodd" fill-opacity="1" stroke="#000000" stroke-opacity="1" stroke-width="2.8"/>
<circle clip-path="url(#clip842)" cx="1892.88" cy="761.564" r="12" fill="#009af9" fill-rule="evenodd" fill-opacity="1" stroke="#000000" stroke-opacity="1" stroke-width="2.8"/>
<circle clip-path="url(#clip842)" cx="1942.95" cy="927.341" r="12" fill="#009af9" fill-rule="evenodd" fill-opacity="1" stroke="#000000" stroke-opacity="1" stroke-width="2.8"/>
<circle clip-path="url(#clip842)" cx="2007.5" cy="1200.76" r="12" fill="#009af9" fill-rule="evenodd" fill-opacity="1" stroke="#000000" stroke-opacity="1" stroke-width="2.8"/>
</svg>
