<?xml version="1.0" encoding="utf-8"?>
<svg xmlns="http://www.w3.org/2000/svg" xmlns:xlink="http://www.w3.org/1999/xlink" width="600" height="400" viewBox="0 0 2400 1600">
<defs>
  <clipPath id="clip270">
    <rect x="0" y="0" width="2400" height="1600"/>
  </clipPath>
</defs>
<path clip-path="url(#clip270)" d="
M0 1600 L2400 1600 L2400 0 L0 0  Z
  " fill="#ffffff" fill-rule="evenodd" fill-opacity="1"/>
<defs>
  <clipPath id="clip271">
    <rect x="480" y="0" width="1681" height="1600"/>
  </clipPath>
</defs>
<path clip-path="url(#clip270)" d="
M205.121 1423.18 L2352.76 1423.18 L2352.76 47.2441 L205.121 47.2441  Z
  " fill="#ffffff" fill-rule="evenodd" fill-opacity="1"/>
<defs>
  <clipPath id="clip272">
    <rect x="205" y="47" width="2149" height="1377"/>
  </clipPath>
</defs>
<polyline clip-path="url(#clip272)" style="stroke:#000000; stroke-width:2; stroke-opacity:0.1; fill:none" points="
  265.903,1423.18 265.903,47.2441 
  "/>
<polyline clip-path="url(#clip272)" style="stroke:#000000; stroke-width:2; stroke-opacity:0.1; fill:none" points="
  941.26,1423.18 941.26,47.2441 
  "/>
<polyline clip-path="url(#clip272)" style="stroke:#000000; stroke-width:2; stroke-opacity:0.1; fill:none" points="
  1616.62,1423.18 1616.62,47.2441 
  "/>
<polyline clip-path="url(#clip272)" style="stroke:#000000; stroke-width:2; stroke-opacity:0.1; fill:none" points="
  2291.97,1423.18 2291.97,47.2441 
  "/>
<polyline clip-path="url(#clip270)" style="stroke:#000000; stroke-width:4; stroke-opacity:1; fill:none" points="
  205.121,1423.18 2352.76,1423.18 
  "/>
<polyline clip-path="url(#clip270)" style="stroke:#000000; stroke-width:4; stroke-opacity:1; fill:none" points="
  265.903,1423.18 265.903,1406.67 
  "/>
<polyline clip-path="url(#clip270)" style="stroke:#000000; stroke-width:4; stroke-opacity:1; fill:none" points="
  941.26,1423.18 941.26,1406.67 
  "/>
<polyline clip-path="url(#clip270)" style="stroke:#000000; stroke-width:4; stroke-opacity:1; fill:none" points="
  1616.62,1423.18 1616.62,1406.67 
  "/>
<polyline clip-path="url(#clip270)" style="stroke:#000000; stroke-width:4; stroke-opacity:1; fill:none" points="
  2291.97,1423.18 2291.97,1406.67 
  "/>
<path clip-path="url(#clip270)" d="M 0 0 M265.903 1452.37 Q262.292 1452.37 260.463 1455.94 Q258.658 1459.48 258.658 1466.61 Q258.658 1473.71 260.463 1477.28 Q262.292 1480.82 265.903 1480.82 Q269.537 1480.82 271.343 1477.28 Q273.172 1473.71 273.172 1466.61 Q273.172 1459.48 271.343 1455.94 Q269.537 1452.37 265.903 1452.37 M265.903 1448.67 Q271.713 1448.67 274.769 1453.27 Q277.847 1457.86 277.847 1466.61 Q277.847 1475.33 274.769 1479.94 Q271.713 1484.52 265.903 1484.52 Q260.093 1484.52 257.014 1479.94 Q253.959 1475.33 253.959 1466.61 Q253.959 1457.86 257.014 1453.27 Q260.093 1448.67 265.903 1448.67 Z" fill="#000000" fill-rule="evenodd" fill-opacity="1" /><path clip-path="url(#clip270)" d="M 0 0 M915.948 1479.92 L923.586 1479.92 L923.586 1453.55 L915.276 1455.22 L915.276 1450.96 L923.54 1449.29 L928.216 1449.29 L928.216 1479.92 L935.855 1479.92 L935.855 1483.85 L915.948 1483.85 L915.948 1479.92 Z" fill="#000000" fill-rule="evenodd" fill-opacity="1" /><path clip-path="url(#clip270)" d="M 0 0 M955.299 1452.37 Q951.688 1452.37 949.859 1455.94 Q948.054 1459.48 948.054 1466.61 Q948.054 1473.71 949.859 1477.28 Q951.688 1480.82 955.299 1480.82 Q958.934 1480.82 960.739 1477.28 Q962.568 1473.71 962.568 1466.61 Q962.568 1459.48 960.739 1455.94 Q958.934 1452.37 955.299 1452.37 M955.299 1448.67 Q961.109 1448.67 964.165 1453.27 Q967.244 1457.86 967.244 1466.61 Q967.244 1475.33 964.165 1479.94 Q961.109 1484.52 955.299 1484.52 Q949.489 1484.52 946.41 1479.94 Q943.355 1475.33 943.355 1466.61 Q943.355 1457.86 946.41 1453.27 Q949.489 1448.67 955.299 1448.67 Z" fill="#000000" fill-rule="evenodd" fill-opacity="1" /><path clip-path="url(#clip270)" d="M 0 0 M1595.39 1479.92 L1611.71 1479.92 L1611.71 1483.85 L1589.77 1483.85 L1589.77 1479.92 Q1592.43 1477.16 1597.01 1472.53 Q1601.62 1467.88 1602.8 1466.54 Q1605.04 1464.01 1605.92 1462.28 Q1606.83 1460.52 1606.83 1458.83 Q1606.83 1456.07 1604.88 1454.34 Q1602.96 1452.6 1599.86 1452.6 Q1597.66 1452.6 1595.2 1453.37 Q1592.77 1454.13 1590 1455.68 L1590 1450.96 Q1592.82 1449.82 1595.27 1449.25 Q1597.73 1448.67 1599.77 1448.67 Q1605.14 1448.67 1608.33 1451.35 Q1611.52 1454.04 1611.52 1458.53 Q1611.52 1460.66 1610.71 1462.58 Q1609.93 1464.48 1607.82 1467.07 Q1607.24 1467.74 1604.14 1470.96 Q1601.04 1474.15 1595.39 1479.92 Z" fill="#000000" fill-rule="evenodd" fill-opacity="1" /><path clip-path="url(#clip270)" d="M 0 0 M1631.52 1452.37 Q1627.91 1452.37 1626.08 1455.94 Q1624.28 1459.48 1624.28 1466.61 Q1624.28 1473.71 1626.08 1477.28 Q1627.91 1480.82 1631.52 1480.82 Q1635.16 1480.82 1636.96 1477.28 Q1638.79 1473.71 1638.79 1466.61 Q1638.79 1459.48 1636.96 1455.94 Q1635.16 1452.37 1631.52 1452.37 M1631.52 1448.67 Q1637.33 1448.67 1640.39 1453.27 Q1643.47 1457.86 1643.47 1466.61 Q1643.47 1475.33 1640.39 1479.94 Q1637.33 1484.52 1631.52 1484.52 Q1625.71 1484.52 1622.64 1479.94 Q1619.58 1475.33 1619.58 1466.61 Q1619.58 1457.86 1622.64 1453.27 Q1625.71 1448.67 1631.52 1448.67 Z" fill="#000000" fill-rule="evenodd" fill-opacity="1" /><path clip-path="url(#clip270)" d="M 0 0 M2280.82 1465.22 Q2284.17 1465.94 2286.05 1468.2 Q2287.95 1470.47 2287.95 1473.81 Q2287.95 1478.92 2284.43 1481.72 Q2280.91 1484.52 2274.43 1484.52 Q2272.25 1484.52 2269.94 1484.08 Q2267.65 1483.67 2265.19 1482.81 L2265.19 1478.3 Q2267.14 1479.43 2269.45 1480.01 Q2271.77 1480.59 2274.29 1480.59 Q2278.69 1480.59 2280.98 1478.85 Q2283.29 1477.12 2283.29 1473.81 Q2283.29 1470.75 2281.14 1469.04 Q2279.01 1467.3 2275.19 1467.3 L2271.16 1467.3 L2271.16 1463.46 L2275.38 1463.46 Q2278.83 1463.46 2280.65 1462.09 Q2282.48 1460.7 2282.48 1458.11 Q2282.48 1455.45 2280.58 1454.04 Q2278.71 1452.6 2275.19 1452.6 Q2273.27 1452.6 2271.07 1453.02 Q2268.87 1453.44 2266.23 1454.31 L2266.23 1450.15 Q2268.9 1449.41 2271.21 1449.04 Q2273.55 1448.67 2275.61 1448.67 Q2280.93 1448.67 2284.03 1451.1 Q2287.14 1453.5 2287.14 1457.63 Q2287.14 1460.5 2285.49 1462.49 Q2283.85 1464.45 2280.82 1465.22 Z" fill="#000000" fill-rule="evenodd" fill-opacity="1" /><path clip-path="url(#clip270)" d="M 0 0 M2306.81 1452.37 Q2303.2 1452.37 2301.37 1455.94 Q2299.57 1459.48 2299.57 1466.61 Q2299.57 1473.71 2301.37 1477.28 Q2303.2 1480.82 2306.81 1480.82 Q2310.45 1480.82 2312.25 1477.28 Q2314.08 1473.71 2314.08 1466.61 Q2314.08 1459.48 2312.25 1455.94 Q2310.45 1452.37 2306.81 1452.37 M2306.81 1448.67 Q2312.62 1448.67 2315.68 1453.27 Q2318.76 1457.86 2318.76 1466.61 Q2318.76 1475.33 2315.68 1479.94 Q2312.62 1484.52 2306.81 1484.52 Q2301 1484.52 2297.92 1479.94 Q2294.87 1475.33 2294.87 1466.61 Q2294.87 1457.86 2297.92 1453.27 Q2301 1448.67 2306.81 1448.67 Z" fill="#000000" fill-rule="evenodd" fill-opacity="1" /><path clip-path="url(#clip270)" d="M 0 0 M1182.77 1522.27 L1182.77 1532.4 L1194.83 1532.4 L1194.83 1536.95 L1182.77 1536.95 L1182.77 1556.3 Q1182.77 1560.66 1183.95 1561.9 Q1185.16 1563.14 1188.82 1563.14 L1194.83 1563.14 L1194.83 1568.04 L1188.82 1568.04 Q1182.04 1568.04 1179.46 1565.53 Q1176.88 1562.98 1176.88 1556.3 L1176.88 1536.95 L1172.58 1536.95 L1172.58 1532.4 L1176.88 1532.4 L1176.88 1522.27 L1182.77 1522.27 Z" fill="#000000" fill-rule="evenodd" fill-opacity="1" /><path clip-path="url(#clip270)" d="M 0 0 M1237.32 1518.58 Q1233.06 1525.9 1230.99 1533.06 Q1228.92 1540.23 1228.92 1547.58 Q1228.92 1554.93 1230.99 1562.16 Q1233.09 1569.35 1237.32 1576.64 L1232.23 1576.64 Q1227.46 1569.16 1225.07 1561.93 Q1222.71 1554.71 1222.71 1547.58 Q1222.71 1540.48 1225.07 1533.29 Q1227.42 1526.09 1232.23 1518.58 L1237.32 1518.58 Z" fill="#000000" fill-rule="evenodd" fill-opacity="1" /><path clip-path="url(#clip270)" d="M 0 0 M1276.44 1539.24 Q1278.64 1535.29 1281.69 1533.41 Q1284.75 1531.54 1288.88 1531.54 Q1294.45 1531.54 1297.48 1535.45 Q1300.5 1539.33 1300.5 1546.53 L1300.5 1568.04 L1294.61 1568.04 L1294.61 1546.72 Q1294.61 1541.59 1292.8 1539.11 Q1290.99 1536.63 1287.26 1536.63 Q1282.71 1536.63 1280.07 1539.65 Q1277.43 1542.68 1277.43 1547.9 L1277.43 1568.04 L1271.54 1568.04 L1271.54 1546.72 Q1271.54 1541.56 1269.72 1539.11 Q1267.91 1536.63 1264.12 1536.63 Q1259.63 1536.63 1256.99 1539.68 Q1254.35 1542.71 1254.35 1547.9 L1254.35 1568.04 L1248.46 1568.04 L1248.46 1532.4 L1254.35 1532.4 L1254.35 1537.93 Q1256.36 1534.66 1259.16 1533.1 Q1261.96 1531.54 1265.81 1531.54 Q1269.69 1531.54 1272.4 1533.51 Q1275.13 1535.48 1276.44 1539.24 Z" fill="#000000" fill-rule="evenodd" fill-opacity="1" /><path clip-path="url(#clip270)" d="M 0 0 M1312.18 1532.4 L1318.04 1532.4 L1318.04 1568.04 L1312.18 1568.04 L1312.18 1532.4 M1312.18 1518.52 L1318.04 1518.52 L1318.04 1525.93 L1312.18 1525.93 L1312.18 1518.52 Z" fill="#000000" fill-rule="evenodd" fill-opacity="1" /><path clip-path="url(#clip270)" d="M 0 0 M1359.93 1546.53 L1359.93 1568.04 L1354.07 1568.04 L1354.07 1546.72 Q1354.07 1541.66 1352.1 1539.14 Q1350.12 1536.63 1346.18 1536.63 Q1341.43 1536.63 1338.7 1539.65 Q1335.96 1542.68 1335.96 1547.9 L1335.96 1568.04 L1330.07 1568.04 L1330.07 1532.4 L1335.96 1532.4 L1335.96 1537.93 Q1338.06 1534.72 1340.89 1533.13 Q1343.76 1531.54 1347.48 1531.54 Q1353.62 1531.54 1356.78 1535.36 Q1359.93 1539.14 1359.93 1546.53 Z" fill="#000000" fill-rule="evenodd" fill-opacity="1" /><path clip-path="url(#clip270)" d="M 0 0 M1370.68 1518.58 L1375.78 1518.58 Q1380.55 1526.09 1382.91 1533.29 Q1385.29 1540.48 1385.29 1547.58 Q1385.29 1554.71 1382.91 1561.93 Q1380.55 1569.16 1375.78 1576.64 L1370.68 1576.64 Q1374.92 1569.35 1376.99 1562.16 Q1379.09 1554.93 1379.09 1547.58 Q1379.09 1540.23 1376.99 1533.06 Q1374.92 1525.9 1370.68 1518.58 Z" fill="#000000" fill-rule="evenodd" fill-opacity="1" /><polyline clip-path="url(#clip272)" style="stroke:#000000; stroke-width:2; stroke-opacity:0.1; fill:none" points="
  205.121,1384.24 2352.76,1384.24 
  "/>
<polyline clip-path="url(#clip272)" style="stroke:#000000; stroke-width:2; stroke-opacity:0.1; fill:none" points="
  205.121,1124.63 2352.76,1124.63 
  "/>
<polyline clip-path="url(#clip272)" style="stroke:#000000; stroke-width:2; stroke-opacity:0.1; fill:none" points="
  205.121,865.017 2352.76,865.017 
  "/>
<polyline clip-path="url(#clip272)" style="stroke:#000000; stroke-width:2; stroke-opacity:0.1; fill:none" points="
  205.121,605.407 2352.76,605.407 
  "/>
<polyline clip-path="url(#clip272)" style="stroke:#000000; stroke-width:2; stroke-opacity:0.1; fill:none" points="
  205.121,345.796 2352.76,345.796 
  "/>
<polyline clip-path="url(#clip272)" style="stroke:#000000; stroke-width:2; stroke-opacity:0.1; fill:none" points="
  205.121,86.1857 2352.76,86.1857 
  "/>
<polyline clip-path="url(#clip270)" style="stroke:#000000; stroke-width:4; stroke-opacity:1; fill:none" points="
  205.121,1423.18 205.121,47.2441 
  "/>
<polyline clip-path="url(#clip270)" style="stroke:#000000; stroke-width:4; stroke-opacity:1; fill:none" points="
  205.121,1384.24 230.893,1384.24 
  "/>
<polyline clip-path="url(#clip270)" style="stroke:#000000; stroke-width:4; stroke-opacity:1; fill:none" points="
  205.121,1124.63 230.893,1124.63 
  "/>
<polyline clip-path="url(#clip270)" style="stroke:#000000; stroke-width:4; stroke-opacity:1; fill:none" points="
  205.121,865.017 230.893,865.017 
  "/>
<polyline clip-path="url(#clip270)" style="stroke:#000000; stroke-width:4; stroke-opacity:1; fill:none" points="
  205.121,605.407 230.893,605.407 
  "/>
<polyline clip-path="url(#clip270)" style="stroke:#000000; stroke-width:4; stroke-opacity:1; fill:none" points="
  205.121,345.796 230.893,345.796 
  "/>
<polyline clip-path="url(#clip270)" style="stroke:#000000; stroke-width:4; stroke-opacity:1; fill:none" points="
  205.121,86.1857 230.893,86.1857 
  "/>
<path clip-path="url(#clip270)" d="M 0 0 M157.177 1370.04 Q153.566 1370.04 151.737 1373.6 Q149.931 1377.14 149.931 1384.27 Q149.931 1391.38 151.737 1394.94 Q153.566 1398.49 157.177 1398.49 Q160.811 1398.49 162.616 1394.94 Q164.445 1391.38 164.445 1384.27 Q164.445 1377.14 162.616 1373.6 Q160.811 1370.04 157.177 1370.04 M157.177 1366.33 Q162.987 1366.33 166.042 1370.94 Q169.121 1375.52 169.121 1384.27 Q169.121 1393 166.042 1397.61 Q162.987 1402.19 157.177 1402.19 Q151.366 1402.19 148.288 1397.61 Q145.232 1393 145.232 1384.27 Q145.232 1375.52 148.288 1370.94 Q151.366 1366.33 157.177 1366.33 Z" fill="#000000" fill-rule="evenodd" fill-opacity="1" /><path clip-path="url(#clip270)" d="M 0 0 M117.825 1137.97 L125.464 1137.97 L125.464 1111.61 L117.154 1113.27 L117.154 1109.01 L125.418 1107.35 L130.093 1107.35 L130.093 1137.97 L137.732 1137.97 L137.732 1141.91 L117.825 1141.91 L117.825 1137.97 Z" fill="#000000" fill-rule="evenodd" fill-opacity="1" /><path clip-path="url(#clip270)" d="M 0 0 M157.177 1110.43 Q153.566 1110.43 151.737 1113.99 Q149.931 1117.53 149.931 1124.66 Q149.931 1131.77 151.737 1135.33 Q153.566 1138.88 157.177 1138.88 Q160.811 1138.88 162.616 1135.33 Q164.445 1131.77 164.445 1124.66 Q164.445 1117.53 162.616 1113.99 Q160.811 1110.43 157.177 1110.43 M157.177 1106.72 Q162.987 1106.72 166.042 1111.33 Q169.121 1115.91 169.121 1124.66 Q169.121 1133.39 166.042 1138 Q162.987 1142.58 157.177 1142.58 Q151.366 1142.58 148.288 1138 Q145.232 1133.39 145.232 1124.66 Q145.232 1115.91 148.288 1111.33 Q151.366 1106.72 157.177 1106.72 Z" fill="#000000" fill-rule="evenodd" fill-opacity="1" /><path clip-path="url(#clip270)" d="M 0 0 M121.043 878.362 L137.362 878.362 L137.362 882.297 L115.418 882.297 L115.418 878.362 Q118.08 875.607 122.663 870.978 Q127.269 866.325 128.45 864.983 Q130.695 862.459 131.575 860.723 Q132.478 858.964 132.478 857.274 Q132.478 854.52 130.533 852.783 Q128.612 851.047 125.51 851.047 Q123.311 851.047 120.857 851.811 Q118.427 852.575 115.649 854.126 L115.649 849.404 Q118.473 848.27 120.927 847.691 Q123.38 847.112 125.418 847.112 Q130.788 847.112 133.982 849.797 Q137.177 852.483 137.177 856.973 Q137.177 859.103 136.367 861.024 Q135.579 862.922 133.473 865.515 Q132.894 866.186 129.792 869.404 Q126.691 872.598 121.043 878.362 Z" fill="#000000" fill-rule="evenodd" fill-opacity="1" /><path clip-path="url(#clip270)" d="M 0 0 M157.177 850.816 Q153.566 850.816 151.737 854.381 Q149.931 857.922 149.931 865.052 Q149.931 872.158 151.737 875.723 Q153.566 879.265 157.177 879.265 Q160.811 879.265 162.616 875.723 Q164.445 872.158 164.445 865.052 Q164.445 857.922 162.616 854.381 Q160.811 850.816 157.177 850.816 M157.177 847.112 Q162.987 847.112 166.042 851.719 Q169.121 856.302 169.121 865.052 Q169.121 873.779 166.042 878.385 Q162.987 882.969 157.177 882.969 Q151.366 882.969 148.288 878.385 Q145.232 873.779 145.232 865.052 Q145.232 856.302 148.288 851.719 Q151.366 847.112 157.177 847.112 Z" fill="#000000" fill-rule="evenodd" fill-opacity="1" /><path clip-path="url(#clip270)" d="M 0 0 M131.181 604.053 Q134.538 604.77 136.413 607.039 Q138.311 609.307 138.311 612.64 Q138.311 617.756 134.792 620.557 Q131.274 623.358 124.793 623.358 Q122.617 623.358 120.302 622.918 Q118.01 622.502 115.556 621.645 L115.556 617.131 Q117.501 618.265 119.816 618.844 Q122.13 619.423 124.654 619.423 Q129.052 619.423 131.343 617.687 Q133.658 615.951 133.658 612.64 Q133.658 609.585 131.505 607.872 Q129.376 606.136 125.556 606.136 L121.529 606.136 L121.529 602.293 L125.742 602.293 Q129.191 602.293 131.019 600.928 Q132.848 599.539 132.848 596.946 Q132.848 594.284 130.95 592.872 Q129.075 591.437 125.556 591.437 Q123.635 591.437 121.436 591.854 Q119.237 592.27 116.598 593.15 L116.598 588.983 Q119.26 588.242 121.575 587.872 Q123.913 587.502 125.973 587.502 Q131.297 587.502 134.399 589.932 Q137.501 592.34 137.501 596.46 Q137.501 599.33 135.857 601.321 Q134.214 603.289 131.181 604.053 Z" fill="#000000" fill-rule="evenodd" fill-opacity="1" /><path clip-path="url(#clip270)" d="M 0 0 M157.177 591.205 Q153.566 591.205 151.737 594.77 Q149.931 598.312 149.931 605.441 Q149.931 612.548 151.737 616.113 Q153.566 619.654 157.177 619.654 Q160.811 619.654 162.616 616.113 Q164.445 612.548 164.445 605.441 Q164.445 598.312 162.616 594.77 Q160.811 591.205 157.177 591.205 M157.177 587.502 Q162.987 587.502 166.042 592.108 Q169.121 596.691 169.121 605.441 Q169.121 614.168 166.042 618.775 Q162.987 623.358 157.177 623.358 Q151.366 623.358 148.288 618.775 Q145.232 614.168 145.232 605.441 Q145.232 596.691 148.288 592.108 Q151.366 587.502 157.177 587.502 Z" fill="#000000" fill-rule="evenodd" fill-opacity="1" /><path clip-path="url(#clip270)" d="M 0 0 M129.862 332.59 L118.056 351.039 L129.862 351.039 L129.862 332.59 M128.635 328.516 L134.515 328.516 L134.515 351.039 L139.445 351.039 L139.445 354.928 L134.515 354.928 L134.515 363.076 L129.862 363.076 L129.862 354.928 L114.26 354.928 L114.26 350.414 L128.635 328.516 Z" fill="#000000" fill-rule="evenodd" fill-opacity="1" /><path clip-path="url(#clip270)" d="M 0 0 M157.177 331.595 Q153.566 331.595 151.737 335.16 Q149.931 338.701 149.931 345.831 Q149.931 352.937 151.737 356.502 Q153.566 360.044 157.177 360.044 Q160.811 360.044 162.616 356.502 Q164.445 352.937 164.445 345.831 Q164.445 338.701 162.616 335.16 Q160.811 331.595 157.177 331.595 M157.177 327.891 Q162.987 327.891 166.042 332.498 Q169.121 337.081 169.121 345.831 Q169.121 354.558 166.042 359.164 Q162.987 363.747 157.177 363.747 Q151.366 363.747 148.288 359.164 Q145.232 354.558 145.232 345.831 Q145.232 337.081 148.288 332.498 Q151.366 327.891 157.177 327.891 Z" fill="#000000" fill-rule="evenodd" fill-opacity="1" /><path clip-path="url(#clip270)" d="M 0 0 M117.061 68.9057 L135.417 68.9057 L135.417 72.8408 L121.343 72.8408 L121.343 81.313 Q122.362 80.9658 123.38 80.8038 Q124.399 80.6186 125.418 80.6186 Q131.205 80.6186 134.584 83.7899 Q137.964 86.9611 137.964 92.3778 Q137.964 97.9564 134.492 101.058 Q131.019 104.137 124.7 104.137 Q122.524 104.137 120.255 103.767 Q118.01 103.396 115.603 102.655 L115.603 97.9564 Q117.686 99.0907 119.908 99.6462 Q122.13 100.202 124.607 100.202 Q128.612 100.202 130.95 98.0953 Q133.288 95.9889 133.288 92.3778 Q133.288 88.7667 130.95 86.6602 Q128.612 84.5537 124.607 84.5537 Q122.732 84.5537 120.857 84.9704 Q119.006 85.3871 117.061 86.2667 L117.061 68.9057 Z" fill="#000000" fill-rule="evenodd" fill-opacity="1" /><path clip-path="url(#clip270)" d="M 0 0 M157.177 71.9844 Q153.566 71.9844 151.737 75.5492 Q149.931 79.0908 149.931 86.2204 Q149.931 93.3268 151.737 96.8916 Q153.566 100.433 157.177 100.433 Q160.811 100.433 162.616 96.8916 Q164.445 93.3268 164.445 86.2204 Q164.445 79.0908 162.616 75.5492 Q160.811 71.9844 157.177 71.9844 M157.177 68.2807 Q162.987 68.2807 166.042 72.8871 Q169.121 77.4704 169.121 86.2204 Q169.121 94.9472 166.042 99.5537 Q162.987 104.137 157.177 104.137 Q151.366 104.137 148.288 99.5537 Q145.232 94.9472 145.232 86.2204 Q145.232 77.4704 148.288 72.8871 Q151.366 68.2807 157.177 68.2807 Z" fill="#000000" fill-rule="evenodd" fill-opacity="1" /><path clip-path="url(#clip270)" d="M 0 0 M41.7242 862.001 Q42.4244 859.932 44.7161 857.991 Q47.0077 856.017 51.0181 854.044 L64.0042 847.519 L64.0042 854.426 L51.8138 860.505 Q47.0395 862.86 45.48 865.088 Q43.9204 867.284 43.9204 871.104 L43.9204 878.106 L64.0042 878.106 L64.0042 884.536 L16.4842 884.536 L16.4842 870.022 Q16.4842 861.874 19.8898 857.863 Q23.2955 853.853 30.1704 853.853 Q34.6582 853.853 37.6183 855.954 Q40.5784 858.022 41.7242 862.001 M21.7677 878.106 L38.6368 878.106 L38.6368 870.022 Q38.6368 865.375 36.5043 863.019 Q34.34 860.632 30.1704 860.632 Q26.0009 860.632 23.9002 863.019 Q21.7677 865.375 21.7677 870.022 L21.7677 878.106 Z" fill="#000000" fill-rule="evenodd" fill-opacity="1" /><path clip-path="url(#clip270)" d="M 0 0 M44.7161 811.935 L47.5806 811.935 L47.5806 838.862 Q53.6281 838.48 56.8109 835.233 Q59.9619 831.955 59.9619 826.13 Q59.9619 822.756 59.1344 819.605 Q58.3069 816.422 56.6518 813.303 L62.1899 813.303 Q63.5267 816.454 64.227 819.764 Q64.9272 823.075 64.9272 826.48 Q64.9272 835.01 59.9619 840.007 Q54.9967 844.973 46.5303 844.973 Q37.7774 844.973 32.6531 840.262 Q27.4968 835.52 27.4968 827.499 Q27.4968 820.306 32.1438 816.136 Q36.7589 811.935 44.7161 811.935 M42.9973 817.791 Q38.1912 817.855 35.3266 820.497 Q32.4621 823.106 32.4621 827.435 Q32.4621 832.337 35.2312 835.297 Q38.0002 838.225 43.0292 838.671 L42.9973 817.791 Z" fill="#000000" fill-rule="evenodd" fill-opacity="1" /><path clip-path="url(#clip270)" d="M 0 0 M29.4065 779.597 L34.9447 779.597 Q33.6716 782.079 33.035 784.753 Q32.3984 787.427 32.3984 790.291 Q32.3984 794.652 33.7352 796.848 Q35.072 799.012 37.7456 799.012 Q39.7826 799.012 40.9603 797.453 Q42.1061 795.893 43.1565 791.182 L43.6021 789.177 Q44.9389 782.939 47.3897 780.329 Q49.8086 777.687 54.1691 777.687 Q59.1344 777.687 62.0308 781.634 Q64.9272 785.549 64.9272 792.424 Q64.9272 795.288 64.3543 798.408 Q63.8132 801.495 62.6992 804.932 L56.6518 804.932 Q58.3387 801.686 59.198 798.535 Q60.0256 795.384 60.0256 792.296 Q60.0256 788.159 58.6251 785.931 Q57.1929 783.703 54.6147 783.703 Q52.2276 783.703 50.9545 785.326 Q49.6813 786.917 48.5037 792.36 L48.0262 794.397 Q46.8804 799.84 44.5251 802.259 Q42.138 804.678 38.0002 804.678 Q32.9713 804.678 30.2341 801.113 Q27.4968 797.548 27.4968 790.991 Q27.4968 787.745 27.9743 784.88 Q28.4517 782.016 29.4065 779.597 Z" fill="#000000" fill-rule="evenodd" fill-opacity="1" /><path clip-path="url(#clip270)" d="M 0 0 M58.657 762.696 L77.5631 762.696 L77.5631 768.584 L28.3562 768.584 L28.3562 762.696 L33.7671 762.696 Q30.5842 760.85 29.0564 758.049 Q27.4968 755.216 27.4968 751.301 Q27.4968 744.808 32.6531 740.766 Q37.8093 736.692 46.212 736.692 Q54.6147 736.692 59.771 740.766 Q64.9272 744.808 64.9272 751.301 Q64.9272 755.216 63.3994 758.049 Q61.8398 760.85 58.657 762.696 M46.212 742.771 Q39.7508 742.771 36.0905 745.445 Q32.3984 748.087 32.3984 752.734 Q32.3984 757.381 36.0905 760.054 Q39.7508 762.696 46.212 762.696 Q52.6732 762.696 56.3653 760.054 Q60.0256 757.381 60.0256 752.734 Q60.0256 748.087 56.3653 745.445 Q52.6732 742.771 46.212 742.771 Z" fill="#000000" fill-rule="evenodd" fill-opacity="1" /><path clip-path="url(#clip270)" d="M 0 0 M14.5426 692.196 Q21.8632 696.461 29.0246 698.53 Q36.186 700.598 43.5384 700.598 Q50.8908 700.598 58.1159 698.53 Q65.3091 696.429 72.5979 692.196 L72.5979 697.288 Q65.1182 702.063 57.8931 704.45 Q50.668 706.805 43.5384 706.805 Q36.4406 706.805 29.2474 704.45 Q22.0542 702.094 14.5426 697.288 L14.5426 692.196 Z" fill="#000000" fill-rule="evenodd" fill-opacity="1" /><path clip-path="url(#clip270)" d="M 0 0 M49.9359 681.438 L28.3562 681.438 L28.3562 675.581 L49.7131 675.581 Q54.7739 675.581 57.3202 673.608 Q59.8346 671.634 59.8346 667.688 Q59.8346 662.945 56.8109 660.208 Q53.7872 657.439 48.5673 657.439 L28.3562 657.439 L28.3562 651.582 L64.0042 651.582 L64.0042 657.439 L58.5296 657.439 Q61.7762 659.571 63.3676 662.404 Q64.9272 665.205 64.9272 668.929 Q64.9272 675.072 61.1078 678.255 Q57.2883 681.438 49.9359 681.438 M27.4968 666.701 L27.4968 666.701 Z" fill="#000000" fill-rule="evenodd" fill-opacity="1" /><path clip-path="url(#clip270)" d="M 0 0 M46.0847 623.319 Q46.0847 630.417 47.7079 633.154 Q49.3312 635.891 53.2461 635.891 Q56.3653 635.891 58.2114 633.854 Q60.0256 631.785 60.0256 628.252 Q60.0256 623.382 56.5881 620.454 Q53.1188 617.494 47.3897 617.494 L46.0847 617.494 L46.0847 623.319 M43.6657 611.638 L64.0042 611.638 L64.0042 617.494 L58.5933 617.494 Q61.8398 619.499 63.3994 622.491 Q64.9272 625.483 64.9272 629.812 Q64.9272 635.286 61.8716 638.533 Q58.7843 641.747 53.6281 641.747 Q47.6125 641.747 44.5569 637.737 Q41.5014 633.695 41.5014 625.706 L41.5014 617.494 L40.9285 617.494 Q36.8862 617.494 34.6901 620.168 Q32.4621 622.81 32.4621 627.616 Q32.4621 630.671 33.1941 633.568 Q33.9262 636.464 35.3903 639.138 L29.9795 639.138 Q28.7381 635.923 28.1334 632.899 Q27.4968 629.875 27.4968 627.011 Q27.4968 619.277 31.5072 615.457 Q35.5176 611.638 43.6657 611.638 Z" fill="#000000" fill-rule="evenodd" fill-opacity="1" /><path clip-path="url(#clip270)" d="M 0 0 M14.5426 600.498 L14.5426 595.405 Q22.0542 590.631 29.2474 588.276 Q36.4406 585.888 43.5384 585.888 Q50.668 585.888 57.8931 588.276 Q65.1182 590.631 72.5979 595.405 L72.5979 600.498 Q65.3091 596.265 58.1159 594.196 Q50.8908 592.095 43.5384 592.095 Q36.186 592.095 29.0246 594.196 Q21.8632 596.265 14.5426 600.498 Z" fill="#000000" fill-rule="evenodd" fill-opacity="1" /><circle clip-path="url(#clip272)" cx="265.903" cy="1384.24" r="14" fill="#009af9" fill-rule="evenodd" fill-opacity="1" stroke="#000000" stroke-opacity="1" stroke-width="3.2"/>
<circle clip-path="url(#clip272)" cx="333.439" cy="1384.24" r="14" fill="#009af9" fill-rule="evenodd" fill-opacity="1" stroke="#000000" stroke-opacity="1" stroke-width="3.2"/>
<circle clip-path="url(#clip272)" cx="400.974" cy="1384.24" r="14" fill="#009af9" fill-rule="evenodd" fill-opacity="1" stroke="#000000" stroke-opacity="1" stroke-width="3.2"/>
<circle clip-path="url(#clip272)" cx="468.51" cy="1280.39" r="14" fill="#009af9" fill-rule="evenodd" fill-opacity="1" stroke="#000000" stroke-opacity="1" stroke-width="3.2"/>
<circle clip-path="url(#clip272)" cx="536.046" cy="1124.63" r="14" fill="#009af9" fill-rule="evenodd" fill-opacity="1" stroke="#000000" stroke-opacity="1" stroke-width="3.2"/>
<circle clip-path="url(#clip272)" cx="603.582" cy="890.978" r="14" fill="#009af9" fill-rule="evenodd" fill-opacity="1" stroke="#000000" stroke-opacity="1" stroke-width="3.2"/>
<circle clip-path="url(#clip272)" cx="671.117" cy="683.29" r="14" fill="#009af9" fill-rule="evenodd" fill-opacity="1" stroke="#000000" stroke-opacity="1" stroke-width="3.2"/>
<circle clip-path="url(#clip272)" cx="738.653" cy="475.601" r="14" fill="#009af9" fill-rule="evenodd" fill-opacity="1" stroke="#000000" stroke-opacity="1" stroke-width="3.2"/>
<circle clip-path="url(#clip272)" cx="806.189" cy="319.835" r="14" fill="#009af9" fill-rule="evenodd" fill-opacity="1" stroke="#000000" stroke-opacity="1" stroke-width="3.2"/>
<circle clip-path="url(#clip272)" cx="873.724" cy="215.991" r="14" fill="#009af9" fill-rule="evenodd" fill-opacity="1" stroke="#000000" stroke-opacity="1" stroke-width="3.2"/>
<circle clip-path="url(#clip272)" cx="2291.97" cy="86.1857" r="14" fill="#009af9" fill-rule="evenodd" fill-opacity="1" stroke="#000000" stroke-opacity="1" stroke-width="3.2"/>
</svg>
