<?xml version="1.0" encoding="utf-8"?>
<svg xmlns="http://www.w3.org/2000/svg" xmlns:xlink="http://www.w3.org/1999/xlink" width="150" height="100" viewBox="0 0 600 400">
<defs>
  <clipPath id="clip760">
    <rect x="0" y="0" width="600" height="400"/>
  </clipPath>
</defs>
<path clip-path="url(#clip760)" d="
M0 400 L600 400 L600 0 L0 0  Z
  " fill="#ffffff" fill-rule="evenodd" fill-opacity="1"/>
<defs>
  <clipPath id="clip761">
    <rect x="120" y="0" width="421" height="400"/>
  </clipPath>
</defs>
<path clip-path="url(#clip760)" d="
M68.285 352.724 L588.189 352.724 L588.189 11.811 L68.285 11.811  Z
  " fill="#ffffff" fill-rule="evenodd" fill-opacity="1"/>
<defs>
  <clipPath id="clip762">
    <rect x="68" y="11" width="521" height="342"/>
  </clipPath>
</defs>
<polyline clip-path="url(#clip762)" style="stroke:#000000; stroke-width:0.5; stroke-opacity:0.1; fill:none" points="
  82.9993,352.724 82.9993,11.811 
  "/>
<polyline clip-path="url(#clip762)" style="stroke:#000000; stroke-width:0.5; stroke-opacity:0.1; fill:none" points="
  231.582,352.724 231.582,11.811 
  "/>
<polyline clip-path="url(#clip762)" style="stroke:#000000; stroke-width:0.5; stroke-opacity:0.1; fill:none" points="
  380.164,352.724 380.164,11.811 
  "/>
<polyline clip-path="url(#clip762)" style="stroke:#000000; stroke-width:0.5; stroke-opacity:0.1; fill:none" points="
  528.747,352.724 528.747,11.811 
  "/>
<polyline clip-path="url(#clip760)" style="stroke:#000000; stroke-width:1; stroke-opacity:1; fill:none" points="
  68.285,352.724 588.189,352.724 
  "/>
<polyline clip-path="url(#clip760)" style="stroke:#000000; stroke-width:1; stroke-opacity:1; fill:none" points="
  82.9993,352.724 82.9993,348.633 
  "/>
<polyline clip-path="url(#clip760)" style="stroke:#000000; stroke-width:1; stroke-opacity:1; fill:none" points="
  231.582,352.724 231.582,348.633 
  "/>
<polyline clip-path="url(#clip760)" style="stroke:#000000; stroke-width:1; stroke-opacity:1; fill:none" points="
  380.164,352.724 380.164,348.633 
  "/>
<polyline clip-path="url(#clip760)" style="stroke:#000000; stroke-width:1; stroke-opacity:1; fill:none" points="
  528.747,352.724 528.747,348.633 
  "/>
<path clip-path="url(#clip760)" d="M 0 0 M71.6227 372.292 L73.5324 372.292 L73.5324 365.701 L71.4549 366.117 L71.4549 365.053 L73.5209 364.636 L74.6898 364.636 L74.6898 372.292 L76.5996 372.292 L76.5996 373.276 L71.6227 373.276 L71.6227 372.292 Z" fill="#000000" fill-rule="evenodd" fill-opacity="1" /><path clip-path="url(#clip760)" d="M 0 0 M80.3669 365.406 Q79.4641 365.406 79.007 366.297 Q78.5556 367.182 78.5556 368.965 Q78.5556 370.741 79.007 371.632 Q79.4641 372.518 80.3669 372.518 Q81.2755 372.518 81.7268 371.632 Q82.184 370.741 82.184 368.965 Q82.184 367.182 81.7268 366.297 Q81.2755 365.406 80.3669 365.406 M80.3669 364.48 Q81.8194 364.48 82.5833 365.631 Q83.353 366.777 83.353 368.965 Q83.353 371.146 82.5833 372.298 Q81.8194 373.444 80.3669 373.444 Q78.9144 373.444 78.1447 372.298 Q77.3808 371.146 77.3808 368.965 Q77.3808 366.777 78.1447 365.631 Q78.9144 364.48 80.3669 364.48 Z" fill="#000000" fill-rule="evenodd" fill-opacity="1" /><path clip-path="url(#clip760)" d="M 0 0 M83.353 363.005 L89.3809 363.005 L89.3809 363.804 L83.353 363.804 L83.353 363.005 Z" fill="#000000" fill-rule="evenodd" fill-opacity="1" /><path clip-path="url(#clip760)" d="M 0 0 M91.2287 365.624 L94.5436 365.624 L94.5436 366.423 L90.0862 366.423 L90.0862 365.624 Q90.6269 365.064 91.5579 364.124 Q92.4936 363.179 92.7334 362.906 Q93.1895 362.394 93.3681 362.041 Q93.5515 361.684 93.5515 361.341 Q93.5515 360.781 93.1565 360.428 Q92.7663 360.076 92.1362 360.076 Q91.6895 360.076 91.1911 360.231 Q90.6974 360.386 90.1332 360.701 L90.1332 359.742 Q90.7068 359.512 91.2052 359.394 Q91.7036 359.276 92.1174 359.276 Q93.2083 359.276 93.8571 359.822 Q94.506 360.367 94.506 361.279 Q94.506 361.712 94.3414 362.102 Q94.1816 362.488 93.7537 363.014 Q93.6361 363.151 93.0061 363.804 Q92.376 364.453 91.2287 365.624 Z" fill="#000000" fill-rule="evenodd" fill-opacity="1" /><path clip-path="url(#clip760)" d="M 0 0 M220.168 372.292 L222.077 372.292 L222.077 365.701 L220 366.117 L220 365.053 L222.066 364.636 L223.235 364.636 L223.235 372.292 L225.144 372.292 L225.144 373.276 L220.168 373.276 L220.168 372.292 Z" fill="#000000" fill-rule="evenodd" fill-opacity="1" /><path clip-path="url(#clip760)" d="M 0 0 M228.912 365.406 Q228.009 365.406 227.552 366.297 Q227.1 367.182 227.1 368.965 Q227.1 370.741 227.552 371.632 Q228.009 372.518 228.912 372.518 Q229.82 372.518 230.272 371.632 Q230.729 370.741 230.729 368.965 Q230.729 367.182 230.272 366.297 Q229.82 365.406 228.912 365.406 M228.912 364.48 Q230.364 364.48 231.128 365.631 Q231.898 366.777 231.898 368.965 Q231.898 371.146 231.128 372.298 Q230.364 373.444 228.912 373.444 Q227.459 373.444 226.69 372.298 Q225.926 371.146 225.926 368.965 Q225.926 366.777 226.69 365.631 Q227.459 364.48 228.912 364.48 Z" fill="#000000" fill-rule="evenodd" fill-opacity="1" /><path clip-path="url(#clip760)" d="M 0 0 M231.898 363.005 L237.926 363.005 L237.926 363.804 L231.898 363.804 L231.898 363.005 Z" fill="#000000" fill-rule="evenodd" fill-opacity="1" /><path clip-path="url(#clip760)" d="M 0 0 M239.12 365.624 L240.672 365.624 L240.672 360.269 L238.984 360.607 L238.984 359.742 L240.662 359.403 L241.612 359.403 L241.612 365.624 L243.164 365.624 L243.164 366.423 L239.12 366.423 L239.12 365.624 Z" fill="#000000" fill-rule="evenodd" fill-opacity="1" /><path clip-path="url(#clip760)" d="M 0 0 M371.957 372.292 L373.867 372.292 L373.867 365.701 L371.789 366.117 L371.789 365.053 L373.855 364.636 L375.024 364.636 L375.024 372.292 L376.934 372.292 L376.934 373.276 L371.957 373.276 L371.957 372.292 Z" fill="#000000" fill-rule="evenodd" fill-opacity="1" /><path clip-path="url(#clip760)" d="M 0 0 M380.701 365.406 Q379.798 365.406 379.341 366.297 Q378.89 367.182 378.89 368.965 Q378.89 370.741 379.341 371.632 Q379.798 372.518 380.701 372.518 Q381.61 372.518 382.061 371.632 Q382.518 370.741 382.518 368.965 Q382.518 367.182 382.061 366.297 Q381.61 365.406 380.701 365.406 M380.701 364.48 Q382.154 364.48 382.918 365.631 Q383.687 366.777 383.687 368.965 Q383.687 371.146 382.918 372.298 Q382.154 373.444 380.701 373.444 Q379.249 373.444 378.479 372.298 Q377.715 371.146 377.715 368.965 Q377.715 366.777 378.479 365.631 Q379.249 364.48 380.701 364.48 Z" fill="#000000" fill-rule="evenodd" fill-opacity="1" /><path clip-path="url(#clip760)" d="M 0 0 M386.113 360.029 Q385.38 360.029 385.008 360.753 Q384.642 361.472 384.642 362.92 Q384.642 364.364 385.008 365.088 Q385.38 365.807 386.113 365.807 Q386.852 365.807 387.218 365.088 Q387.59 364.364 387.59 362.92 Q387.59 361.472 387.218 360.753 Q386.852 360.029 386.113 360.029 M386.113 359.276 Q387.294 359.276 387.914 360.212 Q388.54 361.143 388.54 362.92 Q388.54 364.693 387.914 365.629 Q387.294 366.56 386.113 366.56 Q384.933 366.56 384.308 365.629 Q383.687 364.693 383.687 362.92 Q383.687 361.143 384.308 360.212 Q384.933 359.276 386.113 359.276 Z" fill="#000000" fill-rule="evenodd" fill-opacity="1" /><path clip-path="url(#clip760)" d="M 0 0 M520.876 372.292 L522.785 372.292 L522.785 365.701 L520.708 366.117 L520.708 365.053 L522.774 364.636 L523.943 364.636 L523.943 372.292 L525.853 372.292 L525.853 373.276 L520.876 373.276 L520.876 372.292 Z" fill="#000000" fill-rule="evenodd" fill-opacity="1" /><path clip-path="url(#clip760)" d="M 0 0 M529.62 365.406 Q528.717 365.406 528.26 366.297 Q527.809 367.182 527.809 368.965 Q527.809 370.741 528.26 371.632 Q528.717 372.518 529.62 372.518 Q530.528 372.518 530.98 371.632 Q531.437 370.741 531.437 368.965 Q531.437 367.182 530.98 366.297 Q530.528 365.406 529.62 365.406 M529.62 364.48 Q531.072 364.48 531.836 365.631 Q532.606 366.777 532.606 368.965 Q532.606 371.146 531.836 372.298 Q531.072 373.444 529.62 373.444 Q528.167 373.444 527.398 372.298 Q526.634 371.146 526.634 368.965 Q526.634 366.777 527.398 365.631 Q528.167 364.48 529.62 364.48 Z" fill="#000000" fill-rule="evenodd" fill-opacity="1" /><path clip-path="url(#clip760)" d="M 0 0 M532.742 365.624 L534.294 365.624 L534.294 360.269 L532.606 360.607 L532.606 359.742 L534.285 359.403 L535.234 359.403 L535.234 365.624 L536.786 365.624 L536.786 366.423 L532.742 366.423 L532.742 365.624 Z" fill="#000000" fill-rule="evenodd" fill-opacity="1" /><path clip-path="url(#clip760)" d="M 0 0 M322.957 393.777 Q319.655 393.777 319.655 389.051 Q319.655 387.181 320.889 384.634 L322.464 384.634 Q321.326 387.181 321.326 389.09 Q321.326 392.536 323.093 392.536 Q324.708 392.536 324.708 388.255 L326.061 388.255 Q326.061 392.536 327.676 392.536 Q329.442 392.536 329.442 389.09 Q329.442 387.181 328.305 384.634 L329.88 384.634 Q331.113 387.181 331.113 389.051 Q331.113 393.777 327.811 393.777 Q325.647 393.777 325.384 391.398 Q325.058 393.777 322.957 393.777 Z" fill="#000000" fill-rule="evenodd" fill-opacity="1" /><path clip-path="url(#clip760)" d="M 0 0 M335.283 389.95 Q336.015 390.093 336.413 390.531 Q336.819 390.96 336.819 391.613 Q336.819 392.599 336.063 393.133 Q335.307 393.666 333.898 393.666 Q333.445 393.666 332.944 393.578 Q332.45 393.499 331.893 393.339 L331.893 392.377 Q332.307 392.592 332.777 392.695 Q333.254 392.798 333.787 392.798 Q334.654 392.798 335.132 392.488 Q335.609 392.17 335.609 391.613 Q335.609 391.024 335.164 390.722 Q334.726 390.419 333.867 390.419 L333.182 390.419 L333.182 389.56 L333.93 389.56 Q334.678 389.56 335.06 389.313 Q335.45 389.059 335.45 388.581 Q335.45 388.12 335.052 387.881 Q334.654 387.634 333.898 387.634 Q333.58 387.634 333.174 387.706 Q332.769 387.777 332.124 387.96 L332.124 387.045 Q332.705 386.91 333.214 386.838 Q333.723 386.767 334.161 386.767 Q335.307 386.767 335.975 387.236 Q336.652 387.706 336.652 388.494 Q336.652 389.043 336.294 389.425 Q335.936 389.807 335.283 389.95 Z" fill="#000000" fill-rule="evenodd" fill-opacity="1" /><polyline clip-path="url(#clip762)" style="stroke:#000000; stroke-width:0.5; stroke-opacity:0.1; fill:none" points="
  68.285,294.383 588.189,294.383 
  "/>
<polyline clip-path="url(#clip762)" style="stroke:#000000; stroke-width:0.5; stroke-opacity:0.1; fill:none" points="
  68.285,233.202 588.189,233.202 
  "/>
<polyline clip-path="url(#clip762)" style="stroke:#000000; stroke-width:0.5; stroke-opacity:0.1; fill:none" points="
  68.285,172.02 588.189,172.02 
  "/>
<polyline clip-path="url(#clip762)" style="stroke:#000000; stroke-width:0.5; stroke-opacity:0.1; fill:none" points="
  68.285,110.839 588.189,110.839 
  "/>
<polyline clip-path="url(#clip762)" style="stroke:#000000; stroke-width:0.5; stroke-opacity:0.1; fill:none" points="
  68.285,49.6578 588.189,49.6578 
  "/>
<polyline clip-path="url(#clip760)" style="stroke:#000000; stroke-width:1; stroke-opacity:1; fill:none" points="
  68.285,352.724 68.285,11.811 
  "/>
<polyline clip-path="url(#clip760)" style="stroke:#000000; stroke-width:1; stroke-opacity:1; fill:none" points="
  68.285,294.383 74.5238,294.383 
  "/>
<polyline clip-path="url(#clip760)" style="stroke:#000000; stroke-width:1; stroke-opacity:1; fill:none" points="
  68.285,233.202 74.5238,233.202 
  "/>
<polyline clip-path="url(#clip760)" style="stroke:#000000; stroke-width:1; stroke-opacity:1; fill:none" points="
  68.285,172.02 74.5238,172.02 
  "/>
<polyline clip-path="url(#clip760)" style="stroke:#000000; stroke-width:1; stroke-opacity:1; fill:none" points="
  68.285,110.839 74.5238,110.839 
  "/>
<polyline clip-path="url(#clip760)" style="stroke:#000000; stroke-width:1; stroke-opacity:1; fill:none" points="
  68.285,49.6578 74.5238,49.6578 
  "/>
<path clip-path="url(#clip760)" d="M 0 0 M28.7799 299.331 L30.6896 299.331 L30.6896 292.739 L28.6121 293.156 L28.6121 292.091 L30.678 291.675 L31.847 291.675 L31.847 299.331 L33.7567 299.331 L33.7567 300.315 L28.7799 300.315 L28.7799 299.331 Z" fill="#000000" fill-rule="evenodd" fill-opacity="1" /><path clip-path="url(#clip760)" d="M 0 0 M37.524 292.444 Q36.6213 292.444 36.1641 293.336 Q35.7127 294.221 35.7127 296.003 Q35.7127 297.78 36.1641 298.671 Q36.6213 299.557 37.524 299.557 Q38.4326 299.557 38.884 298.671 Q39.3412 297.78 39.3412 296.003 Q39.3412 294.221 38.884 293.336 Q38.4326 292.444 37.524 292.444 M37.524 291.518 Q38.9766 291.518 39.7405 292.67 Q40.5101 293.816 40.5101 296.003 Q40.5101 298.185 39.7405 299.337 Q38.9766 300.482 37.524 300.482 Q36.0715 300.482 35.3018 299.337 Q34.538 298.185 34.538 296.003 Q34.538 293.816 35.3018 292.67 Q36.0715 291.518 37.524 291.518 Z" fill="#000000" fill-rule="evenodd" fill-opacity="1" /><path clip-path="url(#clip760)" d="M 0 0 M40.5101 290.044 L46.538 290.044 L46.538 290.843 L40.5101 290.843 L40.5101 290.044 Z" fill="#000000" fill-rule="evenodd" fill-opacity="1" /><path clip-path="url(#clip760)" d="M 0 0 M47.7323 292.663 L49.284 292.663 L49.284 287.307 L47.596 287.646 L47.596 286.781 L49.2746 286.442 L50.2244 286.442 L50.2244 292.663 L51.776 292.663 L51.776 293.462 L47.7323 293.462 L47.7323 292.663 Z" fill="#000000" fill-rule="evenodd" fill-opacity="1" /><path clip-path="url(#clip760)" d="M 0 0 M52.8057 292.268 L53.7978 292.268 L53.7978 293.462 L52.8057 293.462 L52.8057 292.268 Z" fill="#000000" fill-rule="evenodd" fill-opacity="1" /><path clip-path="url(#clip760)" d="M 0 0 M56.8588 287.067 Q56.1253 287.067 55.7538 287.792 Q55.3871 288.511 55.3871 289.959 Q55.3871 291.403 55.7538 292.127 Q56.1253 292.846 56.8588 292.846 Q57.597 292.846 57.9638 292.127 Q58.3352 291.403 58.3352 289.959 Q58.3352 288.511 57.9638 287.792 Q57.597 287.067 56.8588 287.067 M56.8588 286.315 Q58.039 286.315 58.6596 287.251 Q59.285 288.182 59.285 289.959 Q59.285 291.732 58.6596 292.667 Q58.039 293.598 56.8588 293.598 Q55.6786 293.598 55.0533 292.667 Q54.4326 291.732 54.4326 289.959 Q54.4326 288.182 55.0533 287.251 Q55.6786 286.315 56.8588 286.315 Z" fill="#000000" fill-rule="evenodd" fill-opacity="1" /><path clip-path="url(#clip760)" d="M 0 0 M28.7329 238.15 L30.6426 238.15 L30.6426 231.558 L28.565 231.975 L28.565 230.91 L30.631 230.493 L31.8 230.493 L31.8 238.15 L33.7097 238.15 L33.7097 239.133 L28.7329 239.133 L28.7329 238.15 Z" fill="#000000" fill-rule="evenodd" fill-opacity="1" /><path clip-path="url(#clip760)" d="M 0 0 M37.477 231.263 Q36.5743 231.263 36.1171 232.154 Q35.6657 233.04 35.6657 234.822 Q35.6657 236.599 36.1171 237.49 Q36.5743 238.375 37.477 238.375 Q38.3856 238.375 38.837 237.49 Q39.2941 236.599 39.2941 234.822 Q39.2941 233.04 38.837 232.154 Q38.3856 231.263 37.477 231.263 M37.477 230.337 Q38.9296 230.337 39.6935 231.489 Q40.4631 232.635 40.4631 234.822 Q40.4631 237.004 39.6935 238.155 Q38.9296 239.301 37.477 239.301 Q36.0245 239.301 35.2548 238.155 Q34.4909 237.004 34.4909 234.822 Q34.4909 232.635 35.2548 231.489 Q36.0245 230.337 37.477 230.337 Z" fill="#000000" fill-rule="evenodd" fill-opacity="1" /><path clip-path="url(#clip760)" d="M 0 0 M40.4631 228.863 L46.491 228.863 L46.491 229.662 L40.4631 229.662 L40.4631 228.863 Z" fill="#000000" fill-rule="evenodd" fill-opacity="1" /><path clip-path="url(#clip760)" d="M 0 0 M49.552 225.886 Q48.8185 225.886 48.447 226.61 Q48.0803 227.33 48.0803 228.778 Q48.0803 230.221 48.447 230.945 Q48.8185 231.665 49.552 231.665 Q50.2902 231.665 50.6569 230.945 Q51.0284 230.221 51.0284 228.778 Q51.0284 227.33 50.6569 226.61 Q50.2902 225.886 49.552 225.886 M49.552 225.134 Q50.7322 225.134 51.3528 226.07 Q51.9782 227.001 51.9782 228.778 Q51.9782 230.551 51.3528 231.486 Q50.7322 232.417 49.552 232.417 Q48.3718 232.417 47.7464 231.486 Q47.1258 230.551 47.1258 228.778 Q47.1258 227.001 47.7464 226.07 Q48.3718 225.134 49.552 225.134 Z" fill="#000000" fill-rule="evenodd" fill-opacity="1" /><path clip-path="url(#clip760)" d="M 0 0 M53.0079 231.087 L54 231.087 L54 232.281 L53.0079 232.281 L53.0079 231.087 Z" fill="#000000" fill-rule="evenodd" fill-opacity="1" /><path clip-path="url(#clip760)" d="M 0 0 M55.0391 225.261 L58.7678 225.261 L58.7678 226.06 L55.909 226.06 L55.909 227.781 Q56.1159 227.711 56.3228 227.678 Q56.5297 227.64 56.7365 227.64 Q57.912 227.64 58.5985 228.284 Q59.285 228.928 59.285 230.029 Q59.285 231.162 58.5797 231.792 Q57.8744 232.417 56.5908 232.417 Q56.1488 232.417 55.688 232.342 Q55.2319 232.267 54.7429 232.116 L54.7429 231.162 Q55.1661 231.392 55.6175 231.505 Q56.0689 231.618 56.572 231.618 Q57.3854 231.618 57.8603 231.19 Q58.3352 230.762 58.3352 230.029 Q58.3352 229.295 57.8603 228.867 Q57.3854 228.439 56.572 228.439 Q56.1911 228.439 55.8103 228.524 Q55.4341 228.609 55.0391 228.787 L55.0391 225.261 Z" fill="#000000" fill-rule="evenodd" fill-opacity="1" /><path clip-path="url(#clip760)" d="M 0 0 M35.1933 176.968 L37.103 176.968 L37.103 170.377 L35.0255 170.794 L35.0255 169.729 L37.0915 169.312 L38.2604 169.312 L38.2604 176.968 L40.1702 176.968 L40.1702 177.952 L35.1933 177.952 L35.1933 176.968 Z" fill="#000000" fill-rule="evenodd" fill-opacity="1" /><path clip-path="url(#clip760)" d="M 0 0 M43.9375 170.082 Q43.0347 170.082 42.5776 170.973 Q42.1262 171.858 42.1262 173.641 Q42.1262 175.417 42.5776 176.309 Q43.0347 177.194 43.9375 177.194 Q44.8461 177.194 45.2974 176.309 Q45.7546 175.417 45.7546 173.641 Q45.7546 171.858 45.2974 170.973 Q44.8461 170.082 43.9375 170.082 M43.9375 169.156 Q45.39 169.156 46.1539 170.308 Q46.9236 171.453 46.9236 173.641 Q46.9236 175.823 46.1539 176.974 Q45.39 178.12 43.9375 178.12 Q42.485 178.12 41.7153 176.974 Q40.9514 175.823 40.9514 173.641 Q40.9514 171.453 41.7153 170.308 Q42.485 169.156 43.9375 169.156 Z" fill="#000000" fill-rule="evenodd" fill-opacity="1" /><path clip-path="url(#clip760)" d="M 0 0 M49.3498 164.705 Q48.6163 164.705 48.2448 165.429 Q47.8781 166.148 47.8781 167.597 Q47.8781 169.04 48.2448 169.764 Q48.6163 170.484 49.3498 170.484 Q50.088 170.484 50.4548 169.764 Q50.8262 169.04 50.8262 167.597 Q50.8262 166.148 50.4548 165.429 Q50.088 164.705 49.3498 164.705 M49.3498 163.953 Q50.53 163.953 51.1506 164.888 Q51.776 165.819 51.776 167.597 Q51.776 169.369 51.1506 170.305 Q50.53 171.236 49.3498 171.236 Q48.1696 171.236 47.5442 170.305 Q46.9236 169.369 46.9236 167.597 Q46.9236 165.819 47.5442 164.888 Q48.1696 163.953 49.3498 163.953 Z" fill="#000000" fill-rule="evenodd" fill-opacity="1" /><path clip-path="url(#clip760)" d="M 0 0 M52.8057 169.905 L53.7978 169.905 L53.7978 171.1 L52.8057 171.1 L52.8057 169.905 Z" fill="#000000" fill-rule="evenodd" fill-opacity="1" /><path clip-path="url(#clip760)" d="M 0 0 M56.8588 164.705 Q56.1253 164.705 55.7538 165.429 Q55.3871 166.148 55.3871 167.597 Q55.3871 169.04 55.7538 169.764 Q56.1253 170.484 56.8588 170.484 Q57.597 170.484 57.9638 169.764 Q58.3352 169.04 58.3352 167.597 Q58.3352 166.148 57.9638 165.429 Q57.597 164.705 56.8588 164.705 M56.8588 163.953 Q58.039 163.953 58.6596 164.888 Q59.285 165.819 59.285 167.597 Q59.285 169.369 58.6596 170.305 Q58.039 171.236 56.8588 171.236 Q55.6786 171.236 55.0533 170.305 Q54.4326 169.369 54.4326 167.597 Q54.4326 165.819 55.0533 164.888 Q55.6786 163.953 56.8588 163.953 Z" fill="#000000" fill-rule="evenodd" fill-opacity="1" /><path clip-path="url(#clip760)" d="M 0 0 M35.3955 115.787 L37.3052 115.787 L37.3052 109.196 L35.2277 109.612 L35.2277 108.548 L37.2937 108.131 L38.4626 108.131 L38.4626 115.787 L40.3723 115.787 L40.3723 116.771 L35.3955 116.771 L35.3955 115.787 Z" fill="#000000" fill-rule="evenodd" fill-opacity="1" /><path clip-path="url(#clip760)" d="M 0 0 M44.1397 108.901 Q43.2369 108.901 42.7797 109.792 Q42.3283 110.677 42.3283 112.46 Q42.3283 114.236 42.7797 115.127 Q43.2369 116.013 44.1397 116.013 Q45.0482 116.013 45.4996 115.127 Q45.9568 114.236 45.9568 112.46 Q45.9568 110.677 45.4996 109.792 Q45.0482 108.901 44.1397 108.901 M44.1397 107.975 Q45.5922 107.975 46.3561 109.126 Q47.1258 110.272 47.1258 112.46 Q47.1258 114.641 46.3561 115.793 Q45.5922 116.939 44.1397 116.939 Q42.6871 116.939 41.9175 115.793 Q41.1536 114.641 41.1536 112.46 Q41.1536 110.272 41.9175 109.126 Q42.6871 107.975 44.1397 107.975 Z" fill="#000000" fill-rule="evenodd" fill-opacity="1" /><path clip-path="url(#clip760)" d="M 0 0 M49.552 103.524 Q48.8185 103.524 48.447 104.248 Q48.0803 104.967 48.0803 106.415 Q48.0803 107.859 48.447 108.583 Q48.8185 109.302 49.552 109.302 Q50.2902 109.302 50.6569 108.583 Q51.0284 107.859 51.0284 106.415 Q51.0284 104.967 50.6569 104.248 Q50.2902 103.524 49.552 103.524 M49.552 102.771 Q50.7322 102.771 51.3528 103.707 Q51.9782 104.638 51.9782 106.415 Q51.9782 108.188 51.3528 109.124 Q50.7322 110.055 49.552 110.055 Q48.3718 110.055 47.7464 109.124 Q47.1258 108.188 47.1258 106.415 Q47.1258 104.638 47.7464 103.707 Q48.3718 102.771 49.552 102.771 Z" fill="#000000" fill-rule="evenodd" fill-opacity="1" /><path clip-path="url(#clip760)" d="M 0 0 M53.0079 108.724 L54 108.724 L54 109.918 L53.0079 109.918 L53.0079 108.724 Z" fill="#000000" fill-rule="evenodd" fill-opacity="1" /><path clip-path="url(#clip760)" d="M 0 0 M55.0391 102.898 L58.7678 102.898 L58.7678 103.698 L55.909 103.698 L55.909 105.419 Q56.1159 105.348 56.3228 105.315 Q56.5297 105.278 56.7365 105.278 Q57.912 105.278 58.5985 105.922 Q59.285 106.566 59.285 107.666 Q59.285 108.799 58.5797 109.429 Q57.8744 110.055 56.5908 110.055 Q56.1488 110.055 55.688 109.979 Q55.2319 109.904 54.7429 109.754 L54.7429 108.799 Q55.1661 109.03 55.6175 109.143 Q56.0689 109.255 56.572 109.255 Q57.3854 109.255 57.8603 108.827 Q58.3352 108.4 58.3352 107.666 Q58.3352 106.933 57.8603 106.505 Q57.3854 106.077 56.572 106.077 Q56.1911 106.077 55.8103 106.161 Q55.4341 106.246 55.0391 106.425 L55.0391 102.898 Z" fill="#000000" fill-rule="evenodd" fill-opacity="1" /><path clip-path="url(#clip760)" d="M 0 0 M35.8657 54.6059 L37.7754 54.6059 L37.7754 48.0145 L35.6979 48.4312 L35.6979 47.3664 L37.7638 46.9497 L38.9328 46.9497 L38.9328 54.6059 L40.8425 54.6059 L40.8425 55.5897 L35.8657 55.5897 L35.8657 54.6059 Z" fill="#000000" fill-rule="evenodd" fill-opacity="1" /><path clip-path="url(#clip760)" d="M 0 0 M44.6099 47.7194 Q43.7071 47.7194 43.2499 48.6106 Q42.7985 49.496 42.7985 51.2784 Q42.7985 53.055 43.2499 53.9462 Q43.7071 54.8316 44.6099 54.8316 Q45.5184 54.8316 45.9698 53.9462 Q46.427 53.055 46.427 51.2784 Q46.427 49.496 45.9698 48.6106 Q45.5184 47.7194 44.6099 47.7194 M44.6099 46.7935 Q46.0624 46.7935 46.8263 47.9451 Q47.596 49.0909 47.596 51.2784 Q47.596 53.4601 46.8263 54.6117 Q46.0624 55.7575 44.6099 55.7575 Q43.1573 55.7575 42.3877 54.6117 Q41.6238 53.4601 41.6238 51.2784 Q41.6238 49.0909 42.3877 47.9451 Q43.1573 46.7935 44.6099 46.7935 Z" fill="#000000" fill-rule="evenodd" fill-opacity="1" /><path clip-path="url(#clip760)" d="M 0 0 M47.7323 47.9378 L49.284 47.9378 L49.284 42.5823 L47.596 42.9208 L47.596 42.0556 L49.2746 41.7171 L50.2244 41.7171 L50.2244 47.9378 L51.776 47.9378 L51.776 48.7371 L47.7323 48.7371 L47.7323 47.9378 Z" fill="#000000" fill-rule="evenodd" fill-opacity="1" /><path clip-path="url(#clip760)" d="M 0 0 M52.8057 47.5428 L53.7978 47.5428 L53.7978 48.7371 L52.8057 48.7371 L52.8057 47.5428 Z" fill="#000000" fill-rule="evenodd" fill-opacity="1" /><path clip-path="url(#clip760)" d="M 0 0 M56.8588 42.3425 Q56.1253 42.3425 55.7538 43.0666 Q55.3871 43.786 55.3871 45.2342 Q55.3871 46.6777 55.7538 47.4018 Q56.1253 48.1212 56.8588 48.1212 Q57.597 48.1212 57.9638 47.4018 Q58.3352 46.6777 58.3352 45.2342 Q58.3352 43.786 57.9638 43.0666 Q57.597 42.3425 56.8588 42.3425 M56.8588 41.5902 Q58.039 41.5902 58.6596 42.5258 Q59.285 43.4568 59.285 45.2342 Q59.285 47.0068 58.6596 47.9425 Q58.039 48.8735 56.8588 48.8735 Q55.6786 48.8735 55.0533 47.9425 Q54.4326 47.0068 54.4326 45.2342 Q54.4326 43.4568 55.0533 42.5258 Q55.6786 41.5902 56.8588 41.5902 Z" fill="#000000" fill-rule="evenodd" fill-opacity="1" /><path clip-path="url(#clip760)" d="M 0 0 M10.431 189.29 Q10.6061 188.773 11.179 188.287 Q11.7519 187.794 12.7545 187.3 L16.001 185.669 L16.001 187.396 L12.9535 188.916 Q11.7599 189.505 11.37 190.062 Q10.9801 190.611 10.9801 191.566 L10.9801 193.316 L16.001 193.316 L16.001 194.923 L4.12104 194.923 L4.12104 191.295 Q4.12104 189.258 4.97245 188.255 Q5.82387 187.253 7.54261 187.253 Q8.66456 187.253 9.40458 187.778 Q10.1446 188.295 10.431 189.29 M5.44192 193.316 L9.6592 193.316 L9.6592 191.295 Q9.6592 190.133 9.12608 189.544 Q8.58499 188.948 7.54261 188.948 Q6.50022 188.948 5.97505 189.544 Q5.44192 190.133 5.44192 191.295 L5.44192 193.316 Z" fill="#000000" fill-rule="evenodd" fill-opacity="1" /><path clip-path="url(#clip760)" d="M 0 0 M5.70451 180.76 L11.6167 182.94 L11.6167 178.572 L5.70451 180.76 M4.12104 181.667 L4.12104 179.845 L16.001 175.317 L16.001 176.988 L12.9535 178.07 L12.9535 183.425 L16.001 184.508 L16.001 186.202 L4.12104 181.667 Z" fill="#000000" fill-rule="evenodd" fill-opacity="1" /><path clip-path="url(#clip760)" d="M 0 0 M12.4044 171.147 Q12.5476 170.415 12.9853 170.018 Q13.415 169.612 14.0675 169.612 Q15.0541 169.612 15.5873 170.368 Q16.1204 171.124 16.1204 172.532 Q16.1204 172.986 16.0329 173.487 Q15.9533 173.98 15.7942 174.537 L14.8313 174.537 Q15.0462 174.123 15.1496 173.654 Q15.2531 173.177 15.2531 172.643 Q15.2531 171.776 14.9427 171.299 Q14.6245 170.821 14.0675 170.821 Q13.4786 170.821 13.1763 171.267 Q12.8739 171.704 12.8739 172.564 L12.8739 173.248 L12.0145 173.248 L12.0145 172.5 Q12.0145 171.752 11.7678 171.37 Q11.5132 170.98 11.0358 170.98 Q10.5743 170.98 10.3356 171.378 Q10.0889 171.776 10.0889 172.532 Q10.0889 172.85 10.1605 173.256 Q10.2321 173.662 10.4151 174.306 L9.50006 174.306 Q9.36479 173.726 9.29318 173.216 Q9.22156 172.707 9.22156 172.269 Q9.22156 171.124 9.69103 170.455 Q10.1605 169.779 10.9483 169.779 Q11.4973 169.779 11.8792 170.137 Q12.2612 170.495 12.4044 171.147 Z" fill="#000000" fill-rule="evenodd" fill-opacity="1" /><circle clip-path="url(#clip762)" cx="82.9993" cy="21.4595" r="3" fill="#009af9" fill-rule="evenodd" fill-opacity="1" stroke="#000000" stroke-opacity="1" stroke-width="0.8"/>
<circle clip-path="url(#clip762)" cx="127.727" cy="21.4908" r="3" fill="#009af9" fill-rule="evenodd" fill-opacity="1" stroke="#000000" stroke-opacity="1" stroke-width="0.8"/>
<circle clip-path="url(#clip762)" cx="231.582" cy="22.5012" r="3" fill="#009af9" fill-rule="evenodd" fill-opacity="1" stroke="#000000" stroke-opacity="1" stroke-width="0.8"/>
<circle clip-path="url(#clip762)" cx="302.474" cy="30.2064" r="3" fill="#009af9" fill-rule="evenodd" fill-opacity="1" stroke="#000000" stroke-opacity="1" stroke-width="0.8"/>
<circle clip-path="url(#clip762)" cx="335.437" cy="41.4964" r="3" fill="#009af9" fill-rule="evenodd" fill-opacity="1" stroke="#000000" stroke-opacity="1" stroke-width="0.8"/>
<circle clip-path="url(#clip762)" cx="357.149" cy="53.3432" r="3" fill="#009af9" fill-rule="evenodd" fill-opacity="1" stroke="#000000" stroke-opacity="1" stroke-width="0.8"/>
<circle clip-path="url(#clip762)" cx="380.164" cy="70.1524" r="3" fill="#009af9" fill-rule="evenodd" fill-opacity="1" stroke="#000000" stroke-opacity="1" stroke-width="0.8"/>
<circle clip-path="url(#clip762)" cx="406.328" cy="94.5075" r="3" fill="#009af9" fill-rule="evenodd" fill-opacity="1" stroke="#000000" stroke-opacity="1" stroke-width="0.8"/>
<circle clip-path="url(#clip762)" cx="424.892" cy="115.075" r="3" fill="#009af9" fill-rule="evenodd" fill-opacity="1" stroke="#000000" stroke-opacity="1" stroke-width="0.8"/>
<circle clip-path="url(#clip762)" cx="439.291" cy="133.357" r="3" fill="#009af9" fill-rule="evenodd" fill-opacity="1" stroke="#000000" stroke-opacity="1" stroke-width="0.8"/>
<circle clip-path="url(#clip762)" cx="451.056" cy="148.731" r="3" fill="#009af9" fill-rule="evenodd" fill-opacity="1" stroke="#000000" stroke-opacity="1" stroke-width="0.8"/>
<circle clip-path="url(#clip762)" cx="469.62" cy="175.308" r="3" fill="#009af9" fill-rule="evenodd" fill-opacity="1" stroke="#000000" stroke-opacity="1" stroke-width="0.8"/>
<circle clip-path="url(#clip762)" cx="514.348" cy="243.606" r="3" fill="#009af9" fill-rule="evenodd" fill-opacity="1" stroke="#000000" stroke-opacity="1" stroke-width="0.8"/>
<circle clip-path="url(#clip762)" cx="528.747" cy="266.184" r="3" fill="#009af9" fill-rule="evenodd" fill-opacity="1" stroke="#000000" stroke-opacity="1" stroke-width="0.8"/>
<circle clip-path="url(#clip762)" cx="573.475" cy="343.076" r="3" fill="#009af9" fill-rule="evenodd" fill-opacity="1" stroke="#000000" stroke-opacity="1" stroke-width="0.8"/>
</svg>
