<?xml version="1.0" encoding="utf-8"?>
<svg xmlns="http://www.w3.org/2000/svg" xmlns:xlink="http://www.w3.org/1999/xlink" width="600" height="400" viewBox="0 0 2400 1600">
<defs>
  <clipPath id="clip530">
    <rect x="0" y="0" width="2400" height="1600"/>
  </clipPath>
</defs>
<path clip-path="url(#clip530)" d="
M0 1600 L2400 1600 L2400 0 L0 0  Z
  " fill="#ffffff" fill-rule="evenodd" fill-opacity="1"/>
<defs>
  <clipPath id="clip531">
    <rect x="480" y="0" width="1681" height="1600"/>
  </clipPath>
</defs>
<path clip-path="url(#clip530)" d="
M205.121 1423.18 L2352.76 1423.18 L2352.76 47.2441 L205.121 47.2441  Z
  " fill="#ffffff" fill-rule="evenodd" fill-opacity="1"/>
<defs>
  <clipPath id="clip532">
    <rect x="205" y="47" width="2149" height="1377"/>
  </clipPath>
</defs>
<polyline clip-path="url(#clip532)" style="stroke:#000000; stroke-width:2; stroke-opacity:0.1; fill:none" points="
  265.903,1423.18 265.903,47.2441 
  "/>
<polyline clip-path="url(#clip532)" style="stroke:#000000; stroke-width:2; stroke-opacity:0.1; fill:none" points="
  941.26,1423.18 941.26,47.2441 
  "/>
<polyline clip-path="url(#clip532)" style="stroke:#000000; stroke-width:2; stroke-opacity:0.1; fill:none" points="
  1616.62,1423.18 1616.62,47.2441 
  "/>
<polyline clip-path="url(#clip532)" style="stroke:#000000; stroke-width:2; stroke-opacity:0.1; fill:none" points="
  2291.97,1423.18 2291.97,47.2441 
  "/>
<polyline clip-path="url(#clip530)" style="stroke:#000000; stroke-width:4; stroke-opacity:1; fill:none" points="
  205.121,1423.18 2352.76,1423.18 
  "/>
<polyline clip-path="url(#clip530)" style="stroke:#000000; stroke-width:4; stroke-opacity:1; fill:none" points="
  265.903,1423.18 265.903,1406.67 
  "/>
<polyline clip-path="url(#clip530)" style="stroke:#000000; stroke-width:4; stroke-opacity:1; fill:none" points="
  941.26,1423.18 941.26,1406.67 
  "/>
<polyline clip-path="url(#clip530)" style="stroke:#000000; stroke-width:4; stroke-opacity:1; fill:none" points="
  1616.62,1423.18 1616.62,1406.67 
  "/>
<polyline clip-path="url(#clip530)" style="stroke:#000000; stroke-width:4; stroke-opacity:1; fill:none" points="
  2291.97,1423.18 2291.97,1406.67 
  "/>
<path clip-path="url(#clip530)" d="M 0 0 M265.903 1452.37 Q262.292 1452.37 260.463 1455.94 Q258.658 1459.48 258.658 1466.61 Q258.658 1473.71 260.463 1477.28 Q262.292 1480.82 265.903 1480.82 Q269.537 1480.82 271.343 1477.28 Q273.172 1473.71 273.172 1466.61 Q273.172 1459.48 271.343 1455.94 Q269.537 1452.37 265.903 1452.37 M265.903 1448.67 Q271.713 1448.67 274.769 1453.27 Q277.847 1457.86 277.847 1466.61 Q277.847 1475.33 274.769 1479.94 Q271.713 1484.52 265.903 1484.52 Q260.093 1484.52 257.014 1479.94 Q253.959 1475.33 253.959 1466.61 Q253.959 1457.86 257.014 1453.27 Q260.093 1448.67 265.903 1448.67 Z" fill="#000000" fill-rule="evenodd" fill-opacity="1" /><path clip-path="url(#clip530)" d="M 0 0 M915.948 1479.92 L923.586 1479.92 L923.586 1453.55 L915.276 1455.22 L915.276 1450.96 L923.54 1449.29 L928.216 1449.29 L928.216 1479.92 L935.855 1479.92 L935.855 1483.85 L915.948 1483.85 L915.948 1479.92 Z" fill="#000000" fill-rule="evenodd" fill-opacity="1" /><path clip-path="url(#clip530)" d="M 0 0 M955.299 1452.37 Q951.688 1452.37 949.859 1455.94 Q948.054 1459.48 948.054 1466.61 Q948.054 1473.71 949.859 1477.28 Q951.688 1480.82 955.299 1480.82 Q958.934 1480.82 960.739 1477.28 Q962.568 1473.71 962.568 1466.61 Q962.568 1459.48 960.739 1455.94 Q958.934 1452.37 955.299 1452.37 M955.299 1448.67 Q961.109 1448.67 964.165 1453.27 Q967.244 1457.86 967.244 1466.61 Q967.244 1475.33 964.165 1479.94 Q961.109 1484.52 955.299 1484.52 Q949.489 1484.52 946.41 1479.94 Q943.355 1475.33 943.355 1466.61 Q943.355 1457.86 946.41 1453.27 Q949.489 1448.67 955.299 1448.67 Z" fill="#000000" fill-rule="evenodd" fill-opacity="1" /><path clip-path="url(#clip530)" d="M 0 0 M1595.39 1479.92 L1611.71 1479.92 L1611.71 1483.85 L1589.77 1483.85 L1589.77 1479.92 Q1592.43 1477.16 1597.01 1472.53 Q1601.62 1467.88 1602.8 1466.54 Q1605.04 1464.01 1605.92 1462.28 Q1606.83 1460.52 1606.83 1458.83 Q1606.83 1456.07 1604.88 1454.34 Q1602.96 1452.6 1599.86 1452.6 Q1597.66 1452.6 1595.2 1453.37 Q1592.77 1454.13 1590 1455.68 L1590 1450.96 Q1592.82 1449.82 1595.27 1449.25 Q1597.73 1448.67 1599.77 1448.67 Q1605.14 1448.67 1608.33 1451.35 Q1611.52 1454.04 1611.52 1458.53 Q1611.52 1460.66 1610.71 1462.58 Q1609.93 1464.48 1607.82 1467.07 Q1607.24 1467.74 1604.14 1470.96 Q1601.04 1474.15 1595.39 1479.92 Z" fill="#000000" fill-rule="evenodd" fill-opacity="1" /><path clip-path="url(#clip530)" d="M 0 0 M1631.52 1452.37 Q1627.91 1452.37 1626.08 1455.94 Q1624.28 1459.48 1624.28 1466.61 Q1624.28 1473.71 1626.08 1477.28 Q1627.91 1480.82 1631.52 1480.82 Q1635.16 1480.82 1636.96 1477.28 Q1638.79 1473.71 1638.79 1466.61 Q1638.79 1459.48 1636.96 1455.94 Q1635.16 1452.37 1631.52 1452.37 M1631.52 1448.67 Q1637.33 1448.67 1640.39 1453.27 Q1643.47 1457.86 1643.47 1466.61 Q1643.47 1475.33 1640.39 1479.94 Q1637.33 1484.52 1631.52 1484.52 Q1625.71 1484.52 1622.64 1479.94 Q1619.58 1475.33 1619.58 1466.61 Q1619.58 1457.86 1622.64 1453.27 Q1625.71 1448.67 1631.52 1448.67 Z" fill="#000000" fill-rule="evenodd" fill-opacity="1" /><path clip-path="url(#clip530)" d="M 0 0 M2280.82 1465.22 Q2284.17 1465.94 2286.05 1468.2 Q2287.95 1470.47 2287.95 1473.81 Q2287.95 1478.92 2284.43 1481.72 Q2280.91 1484.52 2274.43 1484.52 Q2272.25 1484.52 2269.94 1484.08 Q2267.65 1483.67 2265.19 1482.81 L2265.19 1478.3 Q2267.14 1479.43 2269.45 1480.01 Q2271.77 1480.59 2274.29 1480.59 Q2278.69 1480.59 2280.98 1478.85 Q2283.29 1477.12 2283.29 1473.81 Q2283.29 1470.75 2281.14 1469.04 Q2279.01 1467.3 2275.19 1467.3 L2271.16 1467.3 L2271.16 1463.46 L2275.38 1463.46 Q2278.83 1463.46 2280.65 1462.09 Q2282.48 1460.7 2282.48 1458.11 Q2282.48 1455.45 2280.58 1454.04 Q2278.71 1452.6 2275.19 1452.6 Q2273.27 1452.6 2271.07 1453.02 Q2268.87 1453.44 2266.23 1454.31 L2266.23 1450.15 Q2268.9 1449.41 2271.21 1449.04 Q2273.55 1448.67 2275.61 1448.67 Q2280.93 1448.67 2284.03 1451.1 Q2287.14 1453.5 2287.14 1457.63 Q2287.14 1460.5 2285.49 1462.49 Q2283.85 1464.45 2280.82 1465.22 Z" fill="#000000" fill-rule="evenodd" fill-opacity="1" /><path clip-path="url(#clip530)" d="M 0 0 M2306.81 1452.37 Q2303.2 1452.37 2301.37 1455.94 Q2299.57 1459.48 2299.57 1466.61 Q2299.57 1473.71 2301.37 1477.28 Q2303.2 1480.82 2306.81 1480.82 Q2310.45 1480.82 2312.25 1477.28 Q2314.08 1473.71 2314.08 1466.61 Q2314.08 1459.48 2312.25 1455.94 Q2310.45 1452.37 2306.81 1452.37 M2306.81 1448.67 Q2312.62 1448.67 2315.68 1453.27 Q2318.76 1457.86 2318.76 1466.61 Q2318.76 1475.33 2315.68 1479.94 Q2312.62 1484.52 2306.81 1484.52 Q2301 1484.52 2297.92 1479.94 Q2294.87 1475.33 2294.87 1466.61 Q2294.87 1457.86 2297.92 1453.27 Q2301 1448.67 2306.81 1448.67 Z" fill="#000000" fill-rule="evenodd" fill-opacity="1" /><path clip-path="url(#clip530)" d="M 0 0 M1182.77 1522.27 L1182.77 1532.4 L1194.83 1532.4 L1194.83 1536.95 L1182.77 1536.95 L1182.77 1556.3 Q1182.77 1560.66 1183.95 1561.9 Q1185.16 1563.14 1188.82 1563.14 L1194.83 1563.14 L1194.83 1568.04 L1188.82 1568.04 Q1182.04 1568.04 1179.46 1565.53 Q1176.88 1562.98 1176.88 1556.3 L1176.88 1536.95 L1172.58 1536.95 L1172.58 1532.4 L1176.88 1532.4 L1176.88 1522.27 L1182.77 1522.27 Z" fill="#000000" fill-rule="evenodd" fill-opacity="1" /><path clip-path="url(#clip530)" d="M 0 0 M1237.32 1518.58 Q1233.06 1525.9 1230.99 1533.06 Q1228.92 1540.23 1228.92 1547.58 Q1228.92 1554.93 1230.99 1562.16 Q1233.09 1569.35 1237.32 1576.64 L1232.23 1576.64 Q1227.46 1569.16 1225.07 1561.93 Q1222.71 1554.71 1222.71 1547.58 Q1222.71 1540.48 1225.07 1533.29 Q1227.42 1526.09 1232.23 1518.58 L1237.32 1518.58 Z" fill="#000000" fill-rule="evenodd" fill-opacity="1" /><path clip-path="url(#clip530)" d="M 0 0 M1276.44 1539.24 Q1278.64 1535.29 1281.69 1533.41 Q1284.75 1531.54 1288.88 1531.54 Q1294.45 1531.54 1297.48 1535.45 Q1300.5 1539.33 1300.5 1546.53 L1300.5 1568.04 L1294.61 1568.04 L1294.61 1546.72 Q1294.61 1541.59 1292.8 1539.11 Q1290.99 1536.63 1287.26 1536.63 Q1282.71 1536.63 1280.07 1539.65 Q1277.43 1542.68 1277.43 1547.9 L1277.43 1568.04 L1271.54 1568.04 L1271.54 1546.72 Q1271.54 1541.56 1269.72 1539.11 Q1267.91 1536.63 1264.12 1536.63 Q1259.63 1536.63 1256.99 1539.68 Q1254.35 1542.71 1254.35 1547.9 L1254.35 1568.04 L1248.46 1568.04 L1248.46 1532.4 L1254.35 1532.4 L1254.35 1537.93 Q1256.36 1534.66 1259.16 1533.1 Q1261.96 1531.54 1265.81 1531.54 Q1269.69 1531.54 1272.4 1533.51 Q1275.13 1535.48 1276.44 1539.24 Z" fill="#000000" fill-rule="evenodd" fill-opacity="1" /><path clip-path="url(#clip530)" d="M 0 0 M1312.18 1532.4 L1318.04 1532.4 L1318.04 1568.04 L1312.18 1568.04 L1312.18 1532.4 M1312.18 1518.52 L1318.04 1518.52 L1318.04 1525.93 L1312.18 1525.93 L1312.18 1518.52 Z" fill="#000000" fill-rule="evenodd" fill-opacity="1" /><path clip-path="url(#clip530)" d="M 0 0 M1359.93 1546.53 L1359.93 1568.04 L1354.07 1568.04 L1354.07 1546.72 Q1354.07 1541.66 1352.1 1539.14 Q1350.12 1536.63 1346.18 1536.63 Q1341.43 1536.63 1338.7 1539.65 Q1335.96 1542.68 1335.96 1547.9 L1335.96 1568.04 L1330.07 1568.04 L1330.07 1532.4 L1335.96 1532.4 L1335.96 1537.93 Q1338.06 1534.72 1340.89 1533.13 Q1343.76 1531.54 1347.48 1531.54 Q1353.62 1531.54 1356.78 1535.36 Q1359.93 1539.14 1359.93 1546.53 Z" fill="#000000" fill-rule="evenodd" fill-opacity="1" /><path clip-path="url(#clip530)" d="M 0 0 M1370.68 1518.58 L1375.78 1518.58 Q1380.55 1526.09 1382.91 1533.29 Q1385.29 1540.48 1385.29 1547.58 Q1385.29 1554.71 1382.91 1561.93 Q1380.55 1569.16 1375.78 1576.64 L1370.68 1576.64 Q1374.92 1569.35 1376.99 1562.16 Q1379.09 1554.93 1379.09 1547.58 Q1379.09 1540.23 1376.99 1533.06 Q1374.92 1525.9 1370.68 1518.58 Z" fill="#000000" fill-rule="evenodd" fill-opacity="1" /><polyline clip-path="url(#clip532)" style="stroke:#000000; stroke-width:2; stroke-opacity:0.1; fill:none" points="
  205.121,1224.83 2352.76,1224.83 
  "/>
<polyline clip-path="url(#clip532)" style="stroke:#000000; stroke-width:2; stroke-opacity:0.1; fill:none" points="
  205.121,997.1 2352.76,997.1 
  "/>
<polyline clip-path="url(#clip532)" style="stroke:#000000; stroke-width:2; stroke-opacity:0.1; fill:none" points="
  205.121,769.371 2352.76,769.371 
  "/>
<polyline clip-path="url(#clip532)" style="stroke:#000000; stroke-width:2; stroke-opacity:0.1; fill:none" points="
  205.121,541.643 2352.76,541.643 
  "/>
<polyline clip-path="url(#clip532)" style="stroke:#000000; stroke-width:2; stroke-opacity:0.1; fill:none" points="
  205.121,313.914 2352.76,313.914 
  "/>
<polyline clip-path="url(#clip532)" style="stroke:#000000; stroke-width:2; stroke-opacity:0.1; fill:none" points="
  205.121,86.1857 2352.76,86.1857 
  "/>
<polyline clip-path="url(#clip530)" style="stroke:#000000; stroke-width:4; stroke-opacity:1; fill:none" points="
  205.121,1423.18 205.121,47.2441 
  "/>
<polyline clip-path="url(#clip530)" style="stroke:#000000; stroke-width:4; stroke-opacity:1; fill:none" points="
  205.121,1224.83 230.893,1224.83 
  "/>
<polyline clip-path="url(#clip530)" style="stroke:#000000; stroke-width:4; stroke-opacity:1; fill:none" points="
  205.121,997.1 230.893,997.1 
  "/>
<polyline clip-path="url(#clip530)" style="stroke:#000000; stroke-width:4; stroke-opacity:1; fill:none" points="
  205.121,769.371 230.893,769.371 
  "/>
<polyline clip-path="url(#clip530)" style="stroke:#000000; stroke-width:4; stroke-opacity:1; fill:none" points="
  205.121,541.643 230.893,541.643 
  "/>
<polyline clip-path="url(#clip530)" style="stroke:#000000; stroke-width:4; stroke-opacity:1; fill:none" points="
  205.121,313.914 230.893,313.914 
  "/>
<polyline clip-path="url(#clip530)" style="stroke:#000000; stroke-width:4; stroke-opacity:1; fill:none" points="
  205.121,86.1857 230.893,86.1857 
  "/>
<path clip-path="url(#clip530)" d="M 0 0 M157.177 1210.63 Q153.566 1210.63 151.737 1214.19 Q149.931 1217.73 149.931 1224.86 Q149.931 1231.97 151.737 1235.53 Q153.566 1239.08 157.177 1239.08 Q160.811 1239.08 162.616 1235.53 Q164.445 1231.97 164.445 1224.86 Q164.445 1217.73 162.616 1214.19 Q160.811 1210.63 157.177 1210.63 M157.177 1206.92 Q162.987 1206.92 166.042 1211.53 Q169.121 1216.11 169.121 1224.86 Q169.121 1233.59 166.042 1238.2 Q162.987 1242.78 157.177 1242.78 Q151.366 1242.78 148.288 1238.2 Q145.232 1233.59 145.232 1224.86 Q145.232 1216.11 148.288 1211.53 Q151.366 1206.92 157.177 1206.92 Z" fill="#000000" fill-rule="evenodd" fill-opacity="1" /><path clip-path="url(#clip530)" d="M 0 0 M117.825 1010.44 L125.464 1010.44 L125.464 984.079 L117.154 985.746 L117.154 981.486 L125.418 979.82 L130.093 979.82 L130.093 1010.44 L137.732 1010.44 L137.732 1014.38 L117.825 1014.38 L117.825 1010.44 Z" fill="#000000" fill-rule="evenodd" fill-opacity="1" /><path clip-path="url(#clip530)" d="M 0 0 M157.177 982.898 Q153.566 982.898 151.737 986.463 Q149.931 990.005 149.931 997.134 Q149.931 1004.24 151.737 1007.81 Q153.566 1011.35 157.177 1011.35 Q160.811 1011.35 162.616 1007.81 Q164.445 1004.24 164.445 997.134 Q164.445 990.005 162.616 986.463 Q160.811 982.898 157.177 982.898 M157.177 979.195 Q162.987 979.195 166.042 983.801 Q169.121 988.385 169.121 997.134 Q169.121 1005.86 166.042 1010.47 Q162.987 1015.05 157.177 1015.05 Q151.366 1015.05 148.288 1010.47 Q145.232 1005.86 145.232 997.134 Q145.232 988.385 148.288 983.801 Q151.366 979.195 157.177 979.195 Z" fill="#000000" fill-rule="evenodd" fill-opacity="1" /><path clip-path="url(#clip530)" d="M 0 0 M121.043 782.716 L137.362 782.716 L137.362 786.651 L115.418 786.651 L115.418 782.716 Q118.08 779.961 122.663 775.332 Q127.269 770.679 128.45 769.337 Q130.695 766.813 131.575 765.077 Q132.478 763.318 132.478 761.628 Q132.478 758.874 130.533 757.138 Q128.612 755.401 125.51 755.401 Q123.311 755.401 120.857 756.165 Q118.427 756.929 115.649 758.48 L115.649 753.758 Q118.473 752.624 120.927 752.045 Q123.38 751.466 125.418 751.466 Q130.788 751.466 133.982 754.151 Q137.177 756.837 137.177 761.327 Q137.177 763.457 136.367 765.378 Q135.579 767.276 133.473 769.869 Q132.894 770.54 129.792 773.758 Q126.691 776.952 121.043 782.716 Z" fill="#000000" fill-rule="evenodd" fill-opacity="1" /><path clip-path="url(#clip530)" d="M 0 0 M157.177 755.17 Q153.566 755.17 151.737 758.735 Q149.931 762.276 149.931 769.406 Q149.931 776.512 151.737 780.077 Q153.566 783.619 157.177 783.619 Q160.811 783.619 162.616 780.077 Q164.445 776.512 164.445 769.406 Q164.445 762.276 162.616 758.735 Q160.811 755.17 157.177 755.17 M157.177 751.466 Q162.987 751.466 166.042 756.073 Q169.121 760.656 169.121 769.406 Q169.121 778.133 166.042 782.739 Q162.987 787.323 157.177 787.323 Q151.366 787.323 148.288 782.739 Q145.232 778.133 145.232 769.406 Q145.232 760.656 148.288 756.073 Q151.366 751.466 157.177 751.466 Z" fill="#000000" fill-rule="evenodd" fill-opacity="1" /><path clip-path="url(#clip530)" d="M 0 0 M131.181 540.289 Q134.538 541.006 136.413 543.275 Q138.311 545.543 138.311 548.876 Q138.311 553.992 134.792 556.793 Q131.274 559.594 124.793 559.594 Q122.617 559.594 120.302 559.154 Q118.01 558.738 115.556 557.881 L115.556 553.367 Q117.501 554.501 119.816 555.08 Q122.13 555.659 124.654 555.659 Q129.052 555.659 131.343 553.923 Q133.658 552.187 133.658 548.876 Q133.658 545.821 131.505 544.108 Q129.376 542.372 125.556 542.372 L121.529 542.372 L121.529 538.529 L125.742 538.529 Q129.191 538.529 131.019 537.164 Q132.848 535.775 132.848 533.182 Q132.848 530.52 130.95 529.108 Q129.075 527.673 125.556 527.673 Q123.635 527.673 121.436 528.09 Q119.237 528.506 116.598 529.386 L116.598 525.219 Q119.26 524.478 121.575 524.108 Q123.913 523.738 125.973 523.738 Q131.297 523.738 134.399 526.168 Q137.501 528.576 137.501 532.696 Q137.501 535.566 135.857 537.557 Q134.214 539.525 131.181 540.289 Z" fill="#000000" fill-rule="evenodd" fill-opacity="1" /><path clip-path="url(#clip530)" d="M 0 0 M157.177 527.441 Q153.566 527.441 151.737 531.006 Q149.931 534.548 149.931 541.677 Q149.931 548.784 151.737 552.349 Q153.566 555.89 157.177 555.89 Q160.811 555.89 162.616 552.349 Q164.445 548.784 164.445 541.677 Q164.445 534.548 162.616 531.006 Q160.811 527.441 157.177 527.441 M157.177 523.738 Q162.987 523.738 166.042 528.344 Q169.121 532.927 169.121 541.677 Q169.121 550.404 166.042 555.011 Q162.987 559.594 157.177 559.594 Q151.366 559.594 148.288 555.011 Q145.232 550.404 145.232 541.677 Q145.232 532.927 148.288 528.344 Q151.366 523.738 157.177 523.738 Z" fill="#000000" fill-rule="evenodd" fill-opacity="1" /><path clip-path="url(#clip530)" d="M 0 0 M129.862 300.708 L118.056 319.157 L129.862 319.157 L129.862 300.708 M128.635 296.634 L134.515 296.634 L134.515 319.157 L139.445 319.157 L139.445 323.046 L134.515 323.046 L134.515 331.194 L129.862 331.194 L129.862 323.046 L114.26 323.046 L114.26 318.532 L128.635 296.634 Z" fill="#000000" fill-rule="evenodd" fill-opacity="1" /><path clip-path="url(#clip530)" d="M 0 0 M157.177 299.713 Q153.566 299.713 151.737 303.278 Q149.931 306.819 149.931 313.949 Q149.931 321.055 151.737 324.62 Q153.566 328.162 157.177 328.162 Q160.811 328.162 162.616 324.62 Q164.445 321.055 164.445 313.949 Q164.445 306.819 162.616 303.278 Q160.811 299.713 157.177 299.713 M157.177 296.009 Q162.987 296.009 166.042 300.616 Q169.121 305.199 169.121 313.949 Q169.121 322.676 166.042 327.282 Q162.987 331.865 157.177 331.865 Q151.366 331.865 148.288 327.282 Q145.232 322.676 145.232 313.949 Q145.232 305.199 148.288 300.616 Q151.366 296.009 157.177 296.009 Z" fill="#000000" fill-rule="evenodd" fill-opacity="1" /><path clip-path="url(#clip530)" d="M 0 0 M117.061 68.9057 L135.417 68.9057 L135.417 72.8408 L121.343 72.8408 L121.343 81.313 Q122.362 80.9658 123.38 80.8038 Q124.399 80.6186 125.418 80.6186 Q131.205 80.6186 134.584 83.7899 Q137.964 86.9611 137.964 92.3778 Q137.964 97.9564 134.492 101.058 Q131.019 104.137 124.7 104.137 Q122.524 104.137 120.255 103.767 Q118.01 103.396 115.603 102.655 L115.603 97.9564 Q117.686 99.0907 119.908 99.6462 Q122.13 100.202 124.607 100.202 Q128.612 100.202 130.95 98.0953 Q133.288 95.9889 133.288 92.3778 Q133.288 88.7667 130.95 86.6602 Q128.612 84.5537 124.607 84.5537 Q122.732 84.5537 120.857 84.9704 Q119.006 85.3871 117.061 86.2667 L117.061 68.9057 Z" fill="#000000" fill-rule="evenodd" fill-opacity="1" /><path clip-path="url(#clip530)" d="M 0 0 M157.177 71.9844 Q153.566 71.9844 151.737 75.5492 Q149.931 79.0908 149.931 86.2204 Q149.931 93.3268 151.737 96.8916 Q153.566 100.433 157.177 100.433 Q160.811 100.433 162.616 96.8916 Q164.445 93.3268 164.445 86.2204 Q164.445 79.0908 162.616 75.5492 Q160.811 71.9844 157.177 71.9844 M157.177 68.2807 Q162.987 68.2807 166.042 72.8871 Q169.121 77.4704 169.121 86.2204 Q169.121 94.9472 166.042 99.5537 Q162.987 104.137 157.177 104.137 Q151.366 104.137 148.288 99.5537 Q145.232 94.9472 145.232 86.2204 Q145.232 77.4704 148.288 72.8871 Q151.366 68.2807 157.177 68.2807 Z" fill="#000000" fill-rule="evenodd" fill-opacity="1" /><path clip-path="url(#clip530)" d="M 0 0 M41.7242 862.001 Q42.4244 859.932 44.7161 857.991 Q47.0077 856.017 51.0181 854.044 L64.0042 847.519 L64.0042 854.426 L51.8138 860.505 Q47.0395 862.86 45.48 865.088 Q43.9204 867.284 43.9204 871.104 L43.9204 878.106 L64.0042 878.106 L64.0042 884.536 L16.4842 884.536 L16.4842 870.022 Q16.4842 861.874 19.8898 857.863 Q23.2955 853.853 30.1704 853.853 Q34.6582 853.853 37.6183 855.954 Q40.5784 858.022 41.7242 862.001 M21.7677 878.106 L38.6368 878.106 L38.6368 870.022 Q38.6368 865.375 36.5043 863.019 Q34.34 860.632 30.1704 860.632 Q26.0009 860.632 23.9002 863.019 Q21.7677 865.375 21.7677 870.022 L21.7677 878.106 Z" fill="#000000" fill-rule="evenodd" fill-opacity="1" /><path clip-path="url(#clip530)" d="M 0 0 M44.7161 811.935 L47.5806 811.935 L47.5806 838.862 Q53.6281 838.48 56.8109 835.233 Q59.9619 831.955 59.9619 826.13 Q59.9619 822.756 59.1344 819.605 Q58.3069 816.422 56.6518 813.303 L62.1899 813.303 Q63.5267 816.454 64.227 819.764 Q64.9272 823.075 64.9272 826.48 Q64.9272 835.01 59.9619 840.007 Q54.9967 844.973 46.5303 844.973 Q37.7774 844.973 32.6531 840.262 Q27.4968 835.52 27.4968 827.499 Q27.4968 820.306 32.1438 816.136 Q36.7589 811.935 44.7161 811.935 M42.9973 817.791 Q38.1912 817.855 35.3266 820.497 Q32.4621 823.106 32.4621 827.435 Q32.4621 832.337 35.2312 835.297 Q38.0002 838.225 43.0292 838.671 L42.9973 817.791 Z" fill="#000000" fill-rule="evenodd" fill-opacity="1" /><path clip-path="url(#clip530)" d="M 0 0 M29.4065 779.597 L34.9447 779.597 Q33.6716 782.079 33.035 784.753 Q32.3984 787.427 32.3984 790.291 Q32.3984 794.652 33.7352 796.848 Q35.072 799.012 37.7456 799.012 Q39.7826 799.012 40.9603 797.453 Q42.1061 795.893 43.1565 791.182 L43.6021 789.177 Q44.9389 782.939 47.3897 780.329 Q49.8086 777.687 54.1691 777.687 Q59.1344 777.687 62.0308 781.634 Q64.9272 785.549 64.9272 792.424 Q64.9272 795.288 64.3543 798.408 Q63.8132 801.495 62.6992 804.932 L56.6518 804.932 Q58.3387 801.686 59.198 798.535 Q60.0256 795.384 60.0256 792.296 Q60.0256 788.159 58.6251 785.931 Q57.1929 783.703 54.6147 783.703 Q52.2276 783.703 50.9545 785.326 Q49.6813 786.917 48.5037 792.36 L48.0262 794.397 Q46.8804 799.84 44.5251 802.259 Q42.138 804.678 38.0002 804.678 Q32.9713 804.678 30.2341 801.113 Q27.4968 797.548 27.4968 790.991 Q27.4968 787.745 27.9743 784.88 Q28.4517 782.016 29.4065 779.597 Z" fill="#000000" fill-rule="evenodd" fill-opacity="1" /><path clip-path="url(#clip530)" d="M 0 0 M58.657 762.696 L77.5631 762.696 L77.5631 768.584 L28.3562 768.584 L28.3562 762.696 L33.7671 762.696 Q30.5842 760.85 29.0564 758.049 Q27.4968 755.216 27.4968 751.301 Q27.4968 744.808 32.6531 740.766 Q37.8093 736.692 46.212 736.692 Q54.6147 736.692 59.771 740.766 Q64.9272 744.808 64.9272 751.301 Q64.9272 755.216 63.3994 758.049 Q61.8398 760.85 58.657 762.696 M46.212 742.771 Q39.7508 742.771 36.0905 745.445 Q32.3984 748.087 32.3984 752.734 Q32.3984 757.381 36.0905 760.054 Q39.7508 762.696 46.212 762.696 Q52.6732 762.696 56.3653 760.054 Q60.0256 757.381 60.0256 752.734 Q60.0256 748.087 56.3653 745.445 Q52.6732 742.771 46.212 742.771 Z" fill="#000000" fill-rule="evenodd" fill-opacity="1" /><path clip-path="url(#clip530)" d="M 0 0 M14.5426 692.196 Q21.8632 696.461 29.0246 698.53 Q36.186 700.598 43.5384 700.598 Q50.8908 700.598 58.1159 698.53 Q65.3091 696.429 72.5979 692.196 L72.5979 697.288 Q65.1182 702.063 57.8931 704.45 Q50.668 706.805 43.5384 706.805 Q36.4406 706.805 29.2474 704.45 Q22.0542 702.094 14.5426 697.288 L14.5426 692.196 Z" fill="#000000" fill-rule="evenodd" fill-opacity="1" /><path clip-path="url(#clip530)" d="M 0 0 M49.9359 681.438 L28.3562 681.438 L28.3562 675.581 L49.7131 675.581 Q54.7739 675.581 57.3202 673.608 Q59.8346 671.634 59.8346 667.688 Q59.8346 662.945 56.8109 660.208 Q53.7872 657.439 48.5673 657.439 L28.3562 657.439 L28.3562 651.582 L64.0042 651.582 L64.0042 657.439 L58.5296 657.439 Q61.7762 659.571 63.3676 662.404 Q64.9272 665.205 64.9272 668.929 Q64.9272 675.072 61.1078 678.255 Q57.2883 681.438 49.9359 681.438 M27.4968 666.701 L27.4968 666.701 Z" fill="#000000" fill-rule="evenodd" fill-opacity="1" /><path clip-path="url(#clip530)" d="M 0 0 M46.0847 623.319 Q46.0847 630.417 47.7079 633.154 Q49.3312 635.891 53.2461 635.891 Q56.3653 635.891 58.2114 633.854 Q60.0256 631.785 60.0256 628.252 Q60.0256 623.382 56.5881 620.454 Q53.1188 617.494 47.3897 617.494 L46.0847 617.494 L46.0847 623.319 M43.6657 611.638 L64.0042 611.638 L64.0042 617.494 L58.5933 617.494 Q61.8398 619.499 63.3994 622.491 Q64.9272 625.483 64.9272 629.812 Q64.9272 635.286 61.8716 638.533 Q58.7843 641.747 53.6281 641.747 Q47.6125 641.747 44.5569 637.737 Q41.5014 633.695 41.5014 625.706 L41.5014 617.494 L40.9285 617.494 Q36.8862 617.494 34.6901 620.168 Q32.4621 622.81 32.4621 627.616 Q32.4621 630.671 33.1941 633.568 Q33.9262 636.464 35.3903 639.138 L29.9795 639.138 Q28.7381 635.923 28.1334 632.899 Q27.4968 629.875 27.4968 627.011 Q27.4968 619.277 31.5072 615.457 Q35.5176 611.638 43.6657 611.638 Z" fill="#000000" fill-rule="evenodd" fill-opacity="1" /><path clip-path="url(#clip530)" d="M 0 0 M14.5426 600.498 L14.5426 595.405 Q22.0542 590.631 29.2474 588.276 Q36.4406 585.888 43.5384 585.888 Q50.668 585.888 57.8931 588.276 Q65.1182 590.631 72.5979 595.405 L72.5979 600.498 Q65.3091 596.265 58.1159 594.196 Q50.8908 592.095 43.5384 592.095 Q36.186 592.095 29.0246 594.196 Q21.8632 596.265 14.5426 600.498 Z" fill="#000000" fill-rule="evenodd" fill-opacity="1" /><circle clip-path="url(#clip532)" cx="265.903" cy="1224.83" r="14" fill="#009af9" fill-rule="evenodd" fill-opacity="1" stroke="#000000" stroke-opacity="1" stroke-width="3.2"/>
<circle clip-path="url(#clip532)" cx="333.439" cy="1224.83" r="14" fill="#009af9" fill-rule="evenodd" fill-opacity="1" stroke="#000000" stroke-opacity="1" stroke-width="3.2"/>
<circle clip-path="url(#clip532)" cx="400.974" cy="1224.83" r="14" fill="#009af9" fill-rule="evenodd" fill-opacity="1" stroke="#000000" stroke-opacity="1" stroke-width="3.2"/>
<circle clip-path="url(#clip532)" cx="468.51" cy="1133.74" r="14" fill="#009af9" fill-rule="evenodd" fill-opacity="1" stroke="#000000" stroke-opacity="1" stroke-width="3.2"/>
<circle clip-path="url(#clip532)" cx="536.046" cy="997.1" r="14" fill="#009af9" fill-rule="evenodd" fill-opacity="1" stroke="#000000" stroke-opacity="1" stroke-width="3.2"/>
<circle clip-path="url(#clip532)" cx="603.582" cy="792.144" r="14" fill="#009af9" fill-rule="evenodd" fill-opacity="1" stroke="#000000" stroke-opacity="1" stroke-width="3.2"/>
<circle clip-path="url(#clip532)" cx="671.117" cy="609.961" r="14" fill="#009af9" fill-rule="evenodd" fill-opacity="1" stroke="#000000" stroke-opacity="1" stroke-width="3.2"/>
<circle clip-path="url(#clip532)" cx="738.653" cy="427.778" r="14" fill="#009af9" fill-rule="evenodd" fill-opacity="1" stroke="#000000" stroke-opacity="1" stroke-width="3.2"/>
<circle clip-path="url(#clip532)" cx="806.189" cy="291.141" r="14" fill="#009af9" fill-rule="evenodd" fill-opacity="1" stroke="#000000" stroke-opacity="1" stroke-width="3.2"/>
<circle clip-path="url(#clip532)" cx="873.724" cy="200.05" r="14" fill="#009af9" fill-rule="evenodd" fill-opacity="1" stroke="#000000" stroke-opacity="1" stroke-width="3.2"/>
<circle clip-path="url(#clip532)" cx="2291.97" cy="86.1857" r="14" fill="#009af9" fill-rule="evenodd" fill-opacity="1" stroke="#000000" stroke-opacity="1" stroke-width="3.2"/>
<polyline clip-path="url(#clip532)" style="stroke:#e26f46; stroke-width:4; stroke-opacity:1; fill:none" points="
  400.974,1384.24 404.272,1374.79 434.764,1287.39 453.089,1234.87 468.582,1190.46 485.412,1142.23 500.927,1097.76 517.562,1050.08 536.834,994.84 553.961,945.751 
  568.98,902.703 585.355,855.771 601.827,808.559 620.039,756.36 637.367,706.694 655.385,655.053 670.552,611.583 689.068,558.51 706.475,508.62 734.361,428.693 
  738.653,416.392 
  "/>
</svg>
