<?xml version="1.0" encoding="utf-8"?>
<svg xmlns="http://www.w3.org/2000/svg" xmlns:xlink="http://www.w3.org/1999/xlink" width="150" height="100" viewBox="0 0 600 400">
<defs>
  <clipPath id="clip720">
    <rect x="0" y="0" width="600" height="400"/>
  </clipPath>
</defs>
<path clip-path="url(#clip720)" d="
M0 400 L600 400 L600 0 L0 0  Z
  " fill="#ffffff" fill-rule="evenodd" fill-opacity="1"/>
<defs>
  <clipPath id="clip721">
    <rect x="120" y="0" width="421" height="400"/>
  </clipPath>
</defs>
<path clip-path="url(#clip720)" d="
M68.285 160.633 L588.189 160.633 L588.189 11.811 L68.285 11.811  Z
  " fill="#ffffff" fill-rule="evenodd" fill-opacity="1"/>
<defs>
  <clipPath id="clip722">
    <rect x="68" y="11" width="521" height="150"/>
  </clipPath>
</defs>
<polyline clip-path="url(#clip722)" style="stroke:#000000; stroke-width:0.5; stroke-opacity:0.1; fill:none" points="
  82.9993,160.633 82.9993,11.811 
  "/>
<polyline clip-path="url(#clip722)" style="stroke:#000000; stroke-width:0.5; stroke-opacity:0.1; fill:none" points="
  173.863,160.633 173.863,11.811 
  "/>
<polyline clip-path="url(#clip722)" style="stroke:#000000; stroke-width:0.5; stroke-opacity:0.1; fill:none" points="
  264.726,160.633 264.726,11.811 
  "/>
<polyline clip-path="url(#clip722)" style="stroke:#000000; stroke-width:0.5; stroke-opacity:0.1; fill:none" points="
  355.59,160.633 355.59,11.811 
  "/>
<polyline clip-path="url(#clip722)" style="stroke:#000000; stroke-width:0.5; stroke-opacity:0.1; fill:none" points="
  446.453,160.633 446.453,11.811 
  "/>
<polyline clip-path="url(#clip722)" style="stroke:#000000; stroke-width:0.5; stroke-opacity:0.1; fill:none" points="
  537.317,160.633 537.317,11.811 
  "/>
<polyline clip-path="url(#clip720)" style="stroke:#000000; stroke-width:1; stroke-opacity:1; fill:none" points="
  68.285,160.633 588.189,160.633 
  "/>
<polyline clip-path="url(#clip720)" style="stroke:#000000; stroke-width:1; stroke-opacity:1; fill:none" points="
  82.9993,160.633 82.9993,158.847 
  "/>
<polyline clip-path="url(#clip720)" style="stroke:#000000; stroke-width:1; stroke-opacity:1; fill:none" points="
  173.863,160.633 173.863,158.847 
  "/>
<polyline clip-path="url(#clip720)" style="stroke:#000000; stroke-width:1; stroke-opacity:1; fill:none" points="
  264.726,160.633 264.726,158.847 
  "/>
<polyline clip-path="url(#clip720)" style="stroke:#000000; stroke-width:1; stroke-opacity:1; fill:none" points="
  355.59,160.633 355.59,158.847 
  "/>
<polyline clip-path="url(#clip720)" style="stroke:#000000; stroke-width:1; stroke-opacity:1; fill:none" points="
  446.453,160.633 446.453,158.847 
  "/>
<polyline clip-path="url(#clip720)" style="stroke:#000000; stroke-width:1; stroke-opacity:1; fill:none" points="
  537.317,160.633 537.317,158.847 
  "/>
<path clip-path="url(#clip720)" d="M 0 0 M67.8682 180.201 L69.7779 180.201 L69.7779 173.609 L67.7004 174.026 L67.7004 172.961 L69.7664 172.544 L70.9353 172.544 L70.9353 180.201 L72.8451 180.201 L72.8451 181.184 L67.8682 181.184 L67.8682 180.201 Z" fill="#000000" fill-rule="evenodd" fill-opacity="1" /><path clip-path="url(#clip720)" d="M 0 0 M76.6124 173.314 Q75.7096 173.314 75.2525 174.205 Q74.8011 175.091 74.8011 176.873 Q74.8011 178.65 75.2525 179.541 Q75.7096 180.426 76.6124 180.426 Q77.521 180.426 77.9723 179.541 Q78.4295 178.65 78.4295 176.873 Q78.4295 175.091 77.9723 174.205 Q77.521 173.314 76.6124 173.314 M76.6124 172.388 Q78.0649 172.388 78.8288 173.54 Q79.5985 174.686 79.5985 176.873 Q79.5985 179.055 78.8288 180.206 Q78.0649 181.352 76.6124 181.352 Q75.1599 181.352 74.3902 180.206 Q73.6263 179.055 73.6263 176.873 Q73.6263 174.686 74.3902 173.54 Q75.1599 172.388 76.6124 172.388 Z" fill="#000000" fill-rule="evenodd" fill-opacity="1" /><path clip-path="url(#clip720)" d="M 0 0 M79.5985 170.914 L85.6264 170.914 L85.6264 171.713 L79.5985 171.713 L79.5985 170.914 Z" fill="#000000" fill-rule="evenodd" fill-opacity="1" /><path clip-path="url(#clip720)" d="M 0 0 M87.4742 173.533 L90.7891 173.533 L90.7891 174.332 L86.3317 174.332 L86.3317 173.533 Q86.8724 172.973 87.8034 172.033 Q88.7391 171.088 88.9789 170.815 Q89.435 170.302 89.6136 169.95 Q89.797 169.592 89.797 169.249 Q89.797 168.69 89.402 168.337 Q89.0118 167.984 88.3817 167.984 Q87.935 167.984 87.4366 168.139 Q86.9429 168.295 86.3787 168.61 L86.3787 167.65 Q86.9523 167.42 87.4507 167.302 Q87.9491 167.185 88.3629 167.185 Q89.4538 167.185 90.1026 167.73 Q90.7515 168.276 90.7515 169.188 Q90.7515 169.621 90.5869 170.011 Q90.4271 170.396 89.9992 170.923 Q89.8816 171.059 89.2516 171.713 Q88.6215 172.362 87.4742 173.533 Z" fill="#000000" fill-rule="evenodd" fill-opacity="1" /><path clip-path="url(#clip720)" d="M 0 0 M91.8188 173.138 L92.811 173.138 L92.811 174.332 L91.8188 174.332 L91.8188 173.138 Z" fill="#000000" fill-rule="evenodd" fill-opacity="1" /><path clip-path="url(#clip720)" d="M 0 0 M95.8719 167.937 Q95.1384 167.937 94.767 168.661 Q94.4002 169.381 94.4002 170.829 Q94.4002 172.272 94.767 172.997 Q95.1384 173.716 95.8719 173.716 Q96.6101 173.716 96.9769 172.997 Q97.3483 172.272 97.3483 170.829 Q97.3483 169.381 96.9769 168.661 Q96.6101 167.937 95.8719 167.937 M95.8719 167.185 Q97.0521 167.185 97.6728 168.121 Q98.2981 169.052 98.2981 170.829 Q98.2981 172.602 97.6728 173.537 Q97.0521 174.468 95.8719 174.468 Q94.6917 174.468 94.0664 173.537 Q93.4457 172.602 93.4457 170.829 Q93.4457 169.052 94.0664 168.121 Q94.6917 167.185 95.8719 167.185 Z" fill="#000000" fill-rule="evenodd" fill-opacity="1" /><path clip-path="url(#clip720)" d="M 0 0 M158.795 180.201 L160.705 180.201 L160.705 173.609 L158.627 174.026 L158.627 172.961 L160.693 172.544 L161.862 172.544 L161.862 180.201 L163.772 180.201 L163.772 181.184 L158.795 181.184 L158.795 180.201 Z" fill="#000000" fill-rule="evenodd" fill-opacity="1" /><path clip-path="url(#clip720)" d="M 0 0 M167.539 173.314 Q166.637 173.314 166.179 174.205 Q165.728 175.091 165.728 176.873 Q165.728 178.65 166.179 179.541 Q166.637 180.426 167.539 180.426 Q168.448 180.426 168.899 179.541 Q169.356 178.65 169.356 176.873 Q169.356 175.091 168.899 174.205 Q168.448 173.314 167.539 173.314 M167.539 172.388 Q168.992 172.388 169.756 173.54 Q170.525 174.686 170.525 176.873 Q170.525 179.055 169.756 180.206 Q168.992 181.352 167.539 181.352 Q166.087 181.352 165.317 180.206 Q164.553 179.055 164.553 176.873 Q164.553 174.686 165.317 173.54 Q166.087 172.388 167.539 172.388 Z" fill="#000000" fill-rule="evenodd" fill-opacity="1" /><path clip-path="url(#clip720)" d="M 0 0 M170.525 170.914 L176.553 170.914 L176.553 171.713 L170.525 171.713 L170.525 170.914 Z" fill="#000000" fill-rule="evenodd" fill-opacity="1" /><path clip-path="url(#clip720)" d="M 0 0 M177.748 173.533 L179.299 173.533 L179.299 168.177 L177.611 168.516 L177.611 167.65 L179.29 167.312 L180.24 167.312 L180.24 173.533 L181.791 173.533 L181.791 174.332 L177.748 174.332 L177.748 173.533 Z" fill="#000000" fill-rule="evenodd" fill-opacity="1" /><path clip-path="url(#clip720)" d="M 0 0 M182.821 173.138 L183.813 173.138 L183.813 174.332 L182.821 174.332 L182.821 173.138 Z" fill="#000000" fill-rule="evenodd" fill-opacity="1" /><path clip-path="url(#clip720)" d="M 0 0 M184.852 167.312 L188.581 167.312 L188.581 168.111 L185.722 168.111 L185.722 169.832 Q185.929 169.762 186.136 169.729 Q186.343 169.691 186.55 169.691 Q187.725 169.691 188.412 170.335 Q189.098 170.979 189.098 172.08 Q189.098 173.213 188.393 173.843 Q187.688 174.468 186.404 174.468 Q185.962 174.468 185.501 174.393 Q185.045 174.318 184.556 174.167 L184.556 173.213 Q184.979 173.443 185.431 173.556 Q185.882 173.669 186.385 173.669 Q187.199 173.669 187.673 173.241 Q188.148 172.813 188.148 172.08 Q188.148 171.346 187.673 170.918 Q187.199 170.49 186.385 170.49 Q186.004 170.49 185.623 170.575 Q185.247 170.66 184.852 170.838 L184.852 167.312 Z" fill="#000000" fill-rule="evenodd" fill-opacity="1" /><path clip-path="url(#clip720)" d="M 0 0 M249.558 180.201 L251.467 180.201 L251.467 173.609 L249.39 174.026 L249.39 172.961 L251.456 172.544 L252.625 172.544 L252.625 180.201 L254.534 180.201 L254.534 181.184 L249.558 181.184 L249.558 180.201 Z" fill="#000000" fill-rule="evenodd" fill-opacity="1" /><path clip-path="url(#clip720)" d="M 0 0 M258.302 173.314 Q257.399 173.314 256.942 174.205 Q256.49 175.091 256.49 176.873 Q256.49 178.65 256.942 179.541 Q257.399 180.426 258.302 180.426 Q259.21 180.426 259.662 179.541 Q260.119 178.65 260.119 176.873 Q260.119 175.091 259.662 174.205 Q259.21 173.314 258.302 173.314 M258.302 172.388 Q259.754 172.388 260.518 173.54 Q261.288 174.686 261.288 176.873 Q261.288 179.055 260.518 180.206 Q259.754 181.352 258.302 181.352 Q256.849 181.352 256.079 180.206 Q255.316 179.055 255.316 176.873 Q255.316 174.686 256.079 173.54 Q256.849 172.388 258.302 172.388 Z" fill="#000000" fill-rule="evenodd" fill-opacity="1" /><path clip-path="url(#clip720)" d="M 0 0 M261.288 170.914 L267.316 170.914 L267.316 171.713 L261.288 171.713 L261.288 170.914 Z" fill="#000000" fill-rule="evenodd" fill-opacity="1" /><path clip-path="url(#clip720)" d="M 0 0 M268.51 173.533 L270.062 173.533 L270.062 168.177 L268.374 168.516 L268.374 167.65 L270.052 167.312 L271.002 167.312 L271.002 173.533 L272.554 173.533 L272.554 174.332 L268.51 174.332 L268.51 173.533 Z" fill="#000000" fill-rule="evenodd" fill-opacity="1" /><path clip-path="url(#clip720)" d="M 0 0 M273.583 173.138 L274.575 173.138 L274.575 174.332 L273.583 174.332 L273.583 173.138 Z" fill="#000000" fill-rule="evenodd" fill-opacity="1" /><path clip-path="url(#clip720)" d="M 0 0 M277.636 167.937 Q276.903 167.937 276.531 168.661 Q276.165 169.381 276.165 170.829 Q276.165 172.272 276.531 172.997 Q276.903 173.716 277.636 173.716 Q278.375 173.716 278.741 172.997 Q279.113 172.272 279.113 170.829 Q279.113 169.381 278.741 168.661 Q278.375 167.937 277.636 167.937 M277.636 167.185 Q278.817 167.185 279.437 168.121 Q280.063 169.052 280.063 170.829 Q280.063 172.602 279.437 173.537 Q278.817 174.468 277.636 174.468 Q276.456 174.468 275.831 173.537 Q275.21 172.602 275.21 170.829 Q275.21 169.052 275.831 168.121 Q276.456 167.185 277.636 167.185 Z" fill="#000000" fill-rule="evenodd" fill-opacity="1" /><path clip-path="url(#clip720)" d="M 0 0 M340.397 180.201 L342.307 180.201 L342.307 173.609 L340.23 174.026 L340.23 172.961 L342.296 172.544 L343.465 172.544 L343.465 180.201 L345.374 180.201 L345.374 181.184 L340.397 181.184 L340.397 180.201 Z" fill="#000000" fill-rule="evenodd" fill-opacity="1" /><path clip-path="url(#clip720)" d="M 0 0 M349.142 173.314 Q348.239 173.314 347.782 174.205 Q347.33 175.091 347.33 176.873 Q347.33 178.65 347.782 179.541 Q348.239 180.426 349.142 180.426 Q350.05 180.426 350.502 179.541 Q350.959 178.65 350.959 176.873 Q350.959 175.091 350.502 174.205 Q350.05 173.314 349.142 173.314 M349.142 172.388 Q350.594 172.388 351.358 173.54 Q352.128 174.686 352.128 176.873 Q352.128 179.055 351.358 180.206 Q350.594 181.352 349.142 181.352 Q347.689 181.352 346.919 180.206 Q346.156 179.055 346.156 176.873 Q346.156 174.686 346.919 173.54 Q347.689 172.388 349.142 172.388 Z" fill="#000000" fill-rule="evenodd" fill-opacity="1" /><path clip-path="url(#clip720)" d="M 0 0 M352.128 170.914 L358.156 170.914 L358.156 171.713 L352.128 171.713 L352.128 170.914 Z" fill="#000000" fill-rule="evenodd" fill-opacity="1" /><path clip-path="url(#clip720)" d="M 0 0 M361.217 167.937 Q360.483 167.937 360.112 168.661 Q359.745 169.381 359.745 170.829 Q359.745 172.272 360.112 172.997 Q360.483 173.716 361.217 173.716 Q361.955 173.716 362.322 172.997 Q362.693 172.272 362.693 170.829 Q362.693 169.381 362.322 168.661 Q361.955 167.937 361.217 167.937 M361.217 167.185 Q362.397 167.185 363.017 168.121 Q363.643 169.052 363.643 170.829 Q363.643 172.602 363.017 173.537 Q362.397 174.468 361.217 174.468 Q360.036 174.468 359.411 173.537 Q358.79 172.602 358.79 170.829 Q358.79 169.052 359.411 168.121 Q360.036 167.185 361.217 167.185 Z" fill="#000000" fill-rule="evenodd" fill-opacity="1" /><path clip-path="url(#clip720)" d="M 0 0 M364.672 173.138 L365.665 173.138 L365.665 174.332 L364.672 174.332 L364.672 173.138 Z" fill="#000000" fill-rule="evenodd" fill-opacity="1" /><path clip-path="url(#clip720)" d="M 0 0 M366.704 167.312 L370.432 167.312 L370.432 168.111 L367.574 168.111 L367.574 169.832 Q367.78 169.762 367.987 169.729 Q368.194 169.691 368.401 169.691 Q369.577 169.691 370.263 170.335 Q370.95 170.979 370.95 172.08 Q370.95 173.213 370.244 173.843 Q369.539 174.468 368.255 174.468 Q367.813 174.468 367.353 174.393 Q366.897 174.318 366.408 174.167 L366.408 173.213 Q366.831 173.443 367.282 173.556 Q367.733 173.669 368.237 173.669 Q369.05 173.669 369.525 173.241 Q370 172.813 370 172.08 Q370 171.346 369.525 170.918 Q369.05 170.49 368.237 170.49 Q367.856 170.49 367.475 170.575 Q367.099 170.66 366.704 170.838 L366.704 167.312 Z" fill="#000000" fill-rule="evenodd" fill-opacity="1" /><path clip-path="url(#clip720)" d="M 0 0 M434.491 180.201 L436.401 180.201 L436.401 173.609 L434.323 174.026 L434.323 172.961 L436.389 172.544 L437.558 172.544 L437.558 180.201 L439.468 180.201 L439.468 181.184 L434.491 181.184 L434.491 180.201 Z" fill="#000000" fill-rule="evenodd" fill-opacity="1" /><path clip-path="url(#clip720)" d="M 0 0 M443.235 173.314 Q442.333 173.314 441.875 174.205 Q441.424 175.091 441.424 176.873 Q441.424 178.65 441.875 179.541 Q442.333 180.426 443.235 180.426 Q444.144 180.426 444.595 179.541 Q445.052 178.65 445.052 176.873 Q445.052 175.091 444.595 174.205 Q444.144 173.314 443.235 173.314 M443.235 172.388 Q444.688 172.388 445.452 173.54 Q446.221 174.686 446.221 176.873 Q446.221 179.055 445.452 180.206 Q444.688 181.352 443.235 181.352 Q441.783 181.352 441.013 180.206 Q440.249 179.055 440.249 176.873 Q440.249 174.686 441.013 173.54 Q441.783 172.388 443.235 172.388 Z" fill="#000000" fill-rule="evenodd" fill-opacity="1" /><path clip-path="url(#clip720)" d="M 0 0 M448.648 167.937 Q447.914 167.937 447.543 168.661 Q447.176 169.381 447.176 170.829 Q447.176 172.272 447.543 172.997 Q447.914 173.716 448.648 173.716 Q449.386 173.716 449.753 172.997 Q450.124 172.272 450.124 170.829 Q450.124 169.381 449.753 168.661 Q449.386 167.937 448.648 167.937 M448.648 167.185 Q449.828 167.185 450.448 168.121 Q451.074 169.052 451.074 170.829 Q451.074 172.602 450.448 173.537 Q449.828 174.468 448.648 174.468 Q447.467 174.468 446.842 173.537 Q446.221 172.602 446.221 170.829 Q446.221 169.052 446.842 168.121 Q447.467 167.185 448.648 167.185 Z" fill="#000000" fill-rule="evenodd" fill-opacity="1" /><path clip-path="url(#clip720)" d="M 0 0 M452.104 173.138 L453.096 173.138 L453.096 174.332 L452.104 174.332 L452.104 173.138 Z" fill="#000000" fill-rule="evenodd" fill-opacity="1" /><path clip-path="url(#clip720)" d="M 0 0 M456.157 167.937 Q455.423 167.937 455.052 168.661 Q454.685 169.381 454.685 170.829 Q454.685 172.272 455.052 172.997 Q455.423 173.716 456.157 173.716 Q456.895 173.716 457.262 172.997 Q457.633 172.272 457.633 170.829 Q457.633 169.381 457.262 168.661 Q456.895 167.937 456.157 167.937 M456.157 167.185 Q457.337 167.185 457.957 168.121 Q458.583 169.052 458.583 170.829 Q458.583 172.602 457.957 173.537 Q457.337 174.468 456.157 174.468 Q454.976 174.468 454.351 173.537 Q453.73 172.602 453.73 170.829 Q453.73 169.052 454.351 168.121 Q454.976 167.185 456.157 167.185 Z" fill="#000000" fill-rule="evenodd" fill-opacity="1" /><path clip-path="url(#clip720)" d="M 0 0 M525.456 180.201 L527.365 180.201 L527.365 173.609 L525.288 174.026 L525.288 172.961 L527.354 172.544 L528.523 172.544 L528.523 180.201 L530.433 180.201 L530.433 181.184 L525.456 181.184 L525.456 180.201 Z" fill="#000000" fill-rule="evenodd" fill-opacity="1" /><path clip-path="url(#clip720)" d="M 0 0 M534.2 173.314 Q533.297 173.314 532.84 174.205 Q532.389 175.091 532.389 176.873 Q532.389 178.65 532.84 179.541 Q533.297 180.426 534.2 180.426 Q535.108 180.426 535.56 179.541 Q536.017 178.65 536.017 176.873 Q536.017 175.091 535.56 174.205 Q535.108 173.314 534.2 173.314 M534.2 172.388 Q535.652 172.388 536.416 173.54 Q537.186 174.686 537.186 176.873 Q537.186 179.055 536.416 180.206 Q535.652 181.352 534.2 181.352 Q532.747 181.352 531.978 180.206 Q531.214 179.055 531.214 176.873 Q531.214 174.686 531.978 173.54 Q532.747 172.388 534.2 172.388 Z" fill="#000000" fill-rule="evenodd" fill-opacity="1" /><path clip-path="url(#clip720)" d="M 0 0 M539.612 167.937 Q538.879 167.937 538.507 168.661 Q538.14 169.381 538.14 170.829 Q538.14 172.272 538.507 172.997 Q538.879 173.716 539.612 173.716 Q540.35 173.716 540.717 172.997 Q541.089 172.272 541.089 170.829 Q541.089 169.381 540.717 168.661 Q540.35 167.937 539.612 167.937 M539.612 167.185 Q540.792 167.185 541.413 168.121 Q542.038 169.052 542.038 170.829 Q542.038 172.602 541.413 173.537 Q540.792 174.468 539.612 174.468 Q538.432 174.468 537.807 173.537 Q537.186 172.602 537.186 170.829 Q537.186 169.052 537.807 168.121 Q538.432 167.185 539.612 167.185 Z" fill="#000000" fill-rule="evenodd" fill-opacity="1" /><path clip-path="url(#clip720)" d="M 0 0 M543.068 173.138 L544.06 173.138 L544.06 174.332 L543.068 174.332 L543.068 173.138 Z" fill="#000000" fill-rule="evenodd" fill-opacity="1" /><path clip-path="url(#clip720)" d="M 0 0 M545.099 167.312 L548.828 167.312 L548.828 168.111 L545.969 168.111 L545.969 169.832 Q546.176 169.762 546.383 169.729 Q546.59 169.691 546.797 169.691 Q547.972 169.691 548.659 170.335 Q549.345 170.979 549.345 172.08 Q549.345 173.213 548.64 173.843 Q547.935 174.468 546.651 174.468 Q546.209 174.468 545.748 174.393 Q545.292 174.318 544.803 174.167 L544.803 173.213 Q545.226 173.443 545.678 173.556 Q546.129 173.669 546.632 173.669 Q547.446 173.669 547.92 173.241 Q548.395 172.813 548.395 172.08 Q548.395 171.346 547.92 170.918 Q547.446 170.49 546.632 170.49 Q546.251 170.49 545.87 170.575 Q545.494 170.66 545.099 170.838 L545.099 167.312 Z" fill="#000000" fill-rule="evenodd" fill-opacity="1" /><polyline clip-path="url(#clip722)" style="stroke:#000000; stroke-width:0.5; stroke-opacity:0.1; fill:none" points="
  68.285,140.761 588.189,140.761 
  "/>
<polyline clip-path="url(#clip722)" style="stroke:#000000; stroke-width:0.5; stroke-opacity:0.1; fill:none" points="
  68.285,114.752 588.189,114.752 
  "/>
<polyline clip-path="url(#clip722)" style="stroke:#000000; stroke-width:0.5; stroke-opacity:0.1; fill:none" points="
  68.285,88.7424 588.189,88.7424 
  "/>
<polyline clip-path="url(#clip722)" style="stroke:#000000; stroke-width:0.5; stroke-opacity:0.1; fill:none" points="
  68.285,62.7329 588.189,62.7329 
  "/>
<polyline clip-path="url(#clip722)" style="stroke:#000000; stroke-width:0.5; stroke-opacity:0.1; fill:none" points="
  68.285,36.7234 588.189,36.7234 
  "/>
<polyline clip-path="url(#clip720)" style="stroke:#000000; stroke-width:1; stroke-opacity:1; fill:none" points="
  68.285,160.633 68.285,11.811 
  "/>
<polyline clip-path="url(#clip720)" style="stroke:#000000; stroke-width:1; stroke-opacity:1; fill:none" points="
  68.285,140.761 74.5238,140.761 
  "/>
<polyline clip-path="url(#clip720)" style="stroke:#000000; stroke-width:1; stroke-opacity:1; fill:none" points="
  68.285,114.752 74.5238,114.752 
  "/>
<polyline clip-path="url(#clip720)" style="stroke:#000000; stroke-width:1; stroke-opacity:1; fill:none" points="
  68.285,88.7424 74.5238,88.7424 
  "/>
<polyline clip-path="url(#clip720)" style="stroke:#000000; stroke-width:1; stroke-opacity:1; fill:none" points="
  68.285,62.7329 74.5238,62.7329 
  "/>
<polyline clip-path="url(#clip720)" style="stroke:#000000; stroke-width:1; stroke-opacity:1; fill:none" points="
  68.285,36.7234 74.5238,36.7234 
  "/>
<path clip-path="url(#clip720)" d="M 0 0 M28.7799 145.71 L30.6896 145.71 L30.6896 139.118 L28.6121 139.535 L28.6121 138.47 L30.678 138.053 L31.847 138.053 L31.847 145.71 L33.7567 145.71 L33.7567 146.693 L28.7799 146.693 L28.7799 145.71 Z" fill="#000000" fill-rule="evenodd" fill-opacity="1" /><path clip-path="url(#clip720)" d="M 0 0 M37.524 138.823 Q36.6213 138.823 36.1641 139.714 Q35.7127 140.6 35.7127 142.382 Q35.7127 144.159 36.1641 145.05 Q36.6213 145.935 37.524 145.935 Q38.4326 145.935 38.884 145.05 Q39.3412 144.159 39.3412 142.382 Q39.3412 140.6 38.884 139.714 Q38.4326 138.823 37.524 138.823 M37.524 137.897 Q38.9766 137.897 39.7405 139.049 Q40.5101 140.195 40.5101 142.382 Q40.5101 144.564 39.7405 145.715 Q38.9766 146.861 37.524 146.861 Q36.0715 146.861 35.3018 145.715 Q34.538 144.564 34.538 142.382 Q34.538 140.195 35.3018 139.049 Q36.0715 137.897 37.524 137.897 Z" fill="#000000" fill-rule="evenodd" fill-opacity="1" /><path clip-path="url(#clip720)" d="M 0 0 M40.5101 136.422 L46.538 136.422 L46.538 137.222 L40.5101 137.222 L40.5101 136.422 Z" fill="#000000" fill-rule="evenodd" fill-opacity="1" /><path clip-path="url(#clip720)" d="M 0 0 M47.7323 139.041 L49.284 139.041 L49.284 133.686 L47.596 134.024 L47.596 133.159 L49.2746 132.821 L50.2244 132.821 L50.2244 139.041 L51.776 139.041 L51.776 139.841 L47.7323 139.841 L47.7323 139.041 Z" fill="#000000" fill-rule="evenodd" fill-opacity="1" /><path clip-path="url(#clip720)" d="M 0 0 M52.8057 138.646 L53.7978 138.646 L53.7978 139.841 L52.8057 139.841 L52.8057 138.646 Z" fill="#000000" fill-rule="evenodd" fill-opacity="1" /><path clip-path="url(#clip720)" d="M 0 0 M56.8588 133.446 Q56.1253 133.446 55.7538 134.17 Q55.3871 134.89 55.3871 136.338 Q55.3871 137.781 55.7538 138.505 Q56.1253 139.225 56.8588 139.225 Q57.597 139.225 57.9638 138.505 Q58.3352 137.781 58.3352 136.338 Q58.3352 134.89 57.9638 134.17 Q57.597 133.446 56.8588 133.446 M56.8588 132.694 Q58.039 132.694 58.6596 133.629 Q59.285 134.56 59.285 136.338 Q59.285 138.11 58.6596 139.046 Q58.039 139.977 56.8588 139.977 Q55.6786 139.977 55.0533 139.046 Q54.4326 138.11 54.4326 136.338 Q54.4326 134.56 55.0533 133.629 Q55.6786 132.694 56.8588 132.694 Z" fill="#000000" fill-rule="evenodd" fill-opacity="1" /><path clip-path="url(#clip720)" d="M 0 0 M28.7329 119.7 L30.6426 119.7 L30.6426 113.109 L28.565 113.525 L28.565 112.461 L30.631 112.044 L31.8 112.044 L31.8 119.7 L33.7097 119.7 L33.7097 120.684 L28.7329 120.684 L28.7329 119.7 Z" fill="#000000" fill-rule="evenodd" fill-opacity="1" /><path clip-path="url(#clip720)" d="M 0 0 M37.477 112.814 Q36.5743 112.814 36.1171 113.705 Q35.6657 114.59 35.6657 116.373 Q35.6657 118.149 36.1171 119.04 Q36.5743 119.926 37.477 119.926 Q38.3856 119.926 38.837 119.04 Q39.2941 118.149 39.2941 116.373 Q39.2941 114.59 38.837 113.705 Q38.3856 112.814 37.477 112.814 M37.477 111.888 Q38.9296 111.888 39.6935 113.039 Q40.4631 114.185 40.4631 116.373 Q40.4631 118.554 39.6935 119.706 Q38.9296 120.852 37.477 120.852 Q36.0245 120.852 35.2548 119.706 Q34.4909 118.554 34.4909 116.373 Q34.4909 114.185 35.2548 113.039 Q36.0245 111.888 37.477 111.888 Z" fill="#000000" fill-rule="evenodd" fill-opacity="1" /><path clip-path="url(#clip720)" d="M 0 0 M40.4631 110.413 L46.491 110.413 L46.491 111.212 L40.4631 111.212 L40.4631 110.413 Z" fill="#000000" fill-rule="evenodd" fill-opacity="1" /><path clip-path="url(#clip720)" d="M 0 0 M49.552 107.437 Q48.8185 107.437 48.447 108.161 Q48.0803 108.88 48.0803 110.328 Q48.0803 111.772 48.447 112.496 Q48.8185 113.215 49.552 113.215 Q50.2902 113.215 50.6569 112.496 Q51.0284 111.772 51.0284 110.328 Q51.0284 108.88 50.6569 108.161 Q50.2902 107.437 49.552 107.437 M49.552 106.684 Q50.7322 106.684 51.3528 107.62 Q51.9782 108.551 51.9782 110.328 Q51.9782 112.101 51.3528 113.037 Q50.7322 113.968 49.552 113.968 Q48.3718 113.968 47.7464 113.037 Q47.1258 112.101 47.1258 110.328 Q47.1258 108.551 47.7464 107.62 Q48.3718 106.684 49.552 106.684 Z" fill="#000000" fill-rule="evenodd" fill-opacity="1" /><path clip-path="url(#clip720)" d="M 0 0 M53.0079 112.637 L54 112.637 L54 113.831 L53.0079 113.831 L53.0079 112.637 Z" fill="#000000" fill-rule="evenodd" fill-opacity="1" /><path clip-path="url(#clip720)" d="M 0 0 M55.0391 106.811 L58.7678 106.811 L58.7678 107.611 L55.909 107.611 L55.909 109.331 Q56.1159 109.261 56.3228 109.228 Q56.5297 109.19 56.7365 109.19 Q57.912 109.19 58.5985 109.835 Q59.285 110.479 59.285 111.579 Q59.285 112.712 58.5797 113.342 Q57.8744 113.968 56.5908 113.968 Q56.1488 113.968 55.688 113.892 Q55.2319 113.817 54.7429 113.667 L54.7429 112.712 Q55.1661 112.943 55.6175 113.055 Q56.0689 113.168 56.572 113.168 Q57.3854 113.168 57.8603 112.74 Q58.3352 112.313 58.3352 111.579 Q58.3352 110.846 57.8603 110.418 Q57.3854 109.99 56.572 109.99 Q56.1911 109.99 55.8103 110.074 Q55.4341 110.159 55.0391 110.338 L55.0391 106.811 Z" fill="#000000" fill-rule="evenodd" fill-opacity="1" /><path clip-path="url(#clip720)" d="M 0 0 M35.1933 93.6905 L37.103 93.6905 L37.103 87.0991 L35.0255 87.5158 L35.0255 86.451 L37.0915 86.0343 L38.2604 86.0343 L38.2604 93.6905 L40.1702 93.6905 L40.1702 94.6743 L35.1933 94.6743 L35.1933 93.6905 Z" fill="#000000" fill-rule="evenodd" fill-opacity="1" /><path clip-path="url(#clip720)" d="M 0 0 M43.9375 86.804 Q43.0347 86.804 42.5776 87.6952 Q42.1262 88.5806 42.1262 90.363 Q42.1262 92.1396 42.5776 93.0308 Q43.0347 93.9162 43.9375 93.9162 Q44.8461 93.9162 45.2974 93.0308 Q45.7546 92.1396 45.7546 90.363 Q45.7546 88.5806 45.2974 87.6952 Q44.8461 86.804 43.9375 86.804 M43.9375 85.8781 Q45.39 85.8781 46.1539 87.0297 Q46.9236 88.1755 46.9236 90.363 Q46.9236 92.5447 46.1539 93.6963 Q45.39 94.8421 43.9375 94.8421 Q42.485 94.8421 41.7153 93.6963 Q40.9514 92.5447 40.9514 90.363 Q40.9514 88.1755 41.7153 87.0297 Q42.485 85.8781 43.9375 85.8781 Z" fill="#000000" fill-rule="evenodd" fill-opacity="1" /><path clip-path="url(#clip720)" d="M 0 0 M49.3498 81.4271 Q48.6163 81.4271 48.2448 82.1512 Q47.8781 82.8706 47.8781 84.3188 Q47.8781 85.7623 48.2448 86.4864 Q48.6163 87.2058 49.3498 87.2058 Q50.088 87.2058 50.4548 86.4864 Q50.8262 85.7623 50.8262 84.3188 Q50.8262 82.8706 50.4548 82.1512 Q50.088 81.4271 49.3498 81.4271 M49.3498 80.6748 Q50.53 80.6748 51.1506 81.6105 Q51.776 82.5414 51.776 84.3188 Q51.776 86.0914 51.1506 87.0271 Q50.53 87.9581 49.3498 87.9581 Q48.1696 87.9581 47.5442 87.0271 Q46.9236 86.0914 46.9236 84.3188 Q46.9236 82.5414 47.5442 81.6105 Q48.1696 80.6748 49.3498 80.6748 Z" fill="#000000" fill-rule="evenodd" fill-opacity="1" /><path clip-path="url(#clip720)" d="M 0 0 M52.8057 86.6274 L53.7978 86.6274 L53.7978 87.8217 L52.8057 87.8217 L52.8057 86.6274 Z" fill="#000000" fill-rule="evenodd" fill-opacity="1" /><path clip-path="url(#clip720)" d="M 0 0 M56.8588 81.4271 Q56.1253 81.4271 55.7538 82.1512 Q55.3871 82.8706 55.3871 84.3188 Q55.3871 85.7623 55.7538 86.4864 Q56.1253 87.2058 56.8588 87.2058 Q57.597 87.2058 57.9638 86.4864 Q58.3352 85.7623 58.3352 84.3188 Q58.3352 82.8706 57.9638 82.1512 Q57.597 81.4271 56.8588 81.4271 M56.8588 80.6748 Q58.039 80.6748 58.6596 81.6105 Q59.285 82.5414 59.285 84.3188 Q59.285 86.0914 58.6596 87.0271 Q58.039 87.9581 56.8588 87.9581 Q55.6786 87.9581 55.0533 87.0271 Q54.4326 86.0914 54.4326 84.3188 Q54.4326 82.5414 55.0533 81.6105 Q55.6786 80.6748 56.8588 80.6748 Z" fill="#000000" fill-rule="evenodd" fill-opacity="1" /><path clip-path="url(#clip720)" d="M 0 0 M35.3955 67.681 L37.3052 67.681 L37.3052 61.0896 L35.2277 61.5063 L35.2277 60.4415 L37.2937 60.0248 L38.4626 60.0248 L38.4626 67.681 L40.3723 67.681 L40.3723 68.6648 L35.3955 68.6648 L35.3955 67.681 Z" fill="#000000" fill-rule="evenodd" fill-opacity="1" /><path clip-path="url(#clip720)" d="M 0 0 M44.1397 60.7945 Q43.2369 60.7945 42.7797 61.6857 Q42.3283 62.5711 42.3283 64.3535 Q42.3283 66.1301 42.7797 67.0213 Q43.2369 67.9067 44.1397 67.9067 Q45.0482 67.9067 45.4996 67.0213 Q45.9568 66.1301 45.9568 64.3535 Q45.9568 62.5711 45.4996 61.6857 Q45.0482 60.7945 44.1397 60.7945 M44.1397 59.8686 Q45.5922 59.8686 46.3561 61.0202 Q47.1258 62.166 47.1258 64.3535 Q47.1258 66.5352 46.3561 67.6868 Q45.5922 68.8326 44.1397 68.8326 Q42.6871 68.8326 41.9175 67.6868 Q41.1536 66.5352 41.1536 64.3535 Q41.1536 62.166 41.9175 61.0202 Q42.6871 59.8686 44.1397 59.8686 Z" fill="#000000" fill-rule="evenodd" fill-opacity="1" /><path clip-path="url(#clip720)" d="M 0 0 M49.552 55.4176 Q48.8185 55.4176 48.447 56.1417 Q48.0803 56.8611 48.0803 58.3093 Q48.0803 59.7528 48.447 60.4769 Q48.8185 61.1963 49.552 61.1963 Q50.2902 61.1963 50.6569 60.4769 Q51.0284 59.7528 51.0284 58.3093 Q51.0284 56.8611 50.6569 56.1417 Q50.2902 55.4176 49.552 55.4176 M49.552 54.6653 Q50.7322 54.6653 51.3528 55.601 Q51.9782 56.5319 51.9782 58.3093 Q51.9782 60.0819 51.3528 61.0176 Q50.7322 61.9486 49.552 61.9486 Q48.3718 61.9486 47.7464 61.0176 Q47.1258 60.0819 47.1258 58.3093 Q47.1258 56.5319 47.7464 55.601 Q48.3718 54.6653 49.552 54.6653 Z" fill="#000000" fill-rule="evenodd" fill-opacity="1" /><path clip-path="url(#clip720)" d="M 0 0 M53.0079 60.6179 L54 60.6179 L54 61.8122 L53.0079 61.8122 L53.0079 60.6179 Z" fill="#000000" fill-rule="evenodd" fill-opacity="1" /><path clip-path="url(#clip720)" d="M 0 0 M55.0391 54.7922 L58.7678 54.7922 L58.7678 55.5915 L55.909 55.5915 L55.909 57.3125 Q56.1159 57.2419 56.3228 57.209 Q56.5297 57.1714 56.7365 57.1714 Q57.912 57.1714 58.5985 57.8156 Q59.285 58.4597 59.285 59.56 Q59.285 60.6932 58.5797 61.3232 Q57.8744 61.9486 56.5908 61.9486 Q56.1488 61.9486 55.688 61.8733 Q55.2319 61.7981 54.7429 61.6476 L54.7429 60.6932 Q55.1661 60.9235 55.6175 61.0364 Q56.0689 61.1492 56.572 61.1492 Q57.3854 61.1492 57.8603 60.7214 Q58.3352 60.2935 58.3352 59.56 Q58.3352 58.8265 57.8603 58.3986 Q57.3854 57.9707 56.572 57.9707 Q56.1911 57.9707 55.8103 58.0554 Q55.4341 58.14 55.0391 58.3187 L55.0391 54.7922 Z" fill="#000000" fill-rule="evenodd" fill-opacity="1" /><path clip-path="url(#clip720)" d="M 0 0 M35.8657 41.6715 L37.7754 41.6715 L37.7754 35.0801 L35.6979 35.4968 L35.6979 34.432 L37.7638 34.0153 L38.9328 34.0153 L38.9328 41.6715 L40.8425 41.6715 L40.8425 42.6553 L35.8657 42.6553 L35.8657 41.6715 Z" fill="#000000" fill-rule="evenodd" fill-opacity="1" /><path clip-path="url(#clip720)" d="M 0 0 M44.6099 34.785 Q43.7071 34.785 43.2499 35.6762 Q42.7985 36.5616 42.7985 38.344 Q42.7985 40.1206 43.2499 41.0118 Q43.7071 41.8972 44.6099 41.8972 Q45.5184 41.8972 45.9698 41.0118 Q46.427 40.1206 46.427 38.344 Q46.427 36.5616 45.9698 35.6762 Q45.5184 34.785 44.6099 34.785 M44.6099 33.8591 Q46.0624 33.8591 46.8263 35.0107 Q47.596 36.1565 47.596 38.344 Q47.596 40.5257 46.8263 41.6773 Q46.0624 42.8231 44.6099 42.8231 Q43.1573 42.8231 42.3877 41.6773 Q41.6238 40.5257 41.6238 38.344 Q41.6238 36.1565 42.3877 35.0107 Q43.1573 33.8591 44.6099 33.8591 Z" fill="#000000" fill-rule="evenodd" fill-opacity="1" /><path clip-path="url(#clip720)" d="M 0 0 M47.7323 35.0034 L49.284 35.0034 L49.284 29.6479 L47.596 29.9864 L47.596 29.1212 L49.2746 28.7827 L50.2244 28.7827 L50.2244 35.0034 L51.776 35.0034 L51.776 35.8027 L47.7323 35.8027 L47.7323 35.0034 Z" fill="#000000" fill-rule="evenodd" fill-opacity="1" /><path clip-path="url(#clip720)" d="M 0 0 M52.8057 34.6084 L53.7978 34.6084 L53.7978 35.8027 L52.8057 35.8027 L52.8057 34.6084 Z" fill="#000000" fill-rule="evenodd" fill-opacity="1" /><path clip-path="url(#clip720)" d="M 0 0 M56.8588 29.4081 Q56.1253 29.4081 55.7538 30.1322 Q55.3871 30.8516 55.3871 32.2998 Q55.3871 33.7433 55.7538 34.4674 Q56.1253 35.1868 56.8588 35.1868 Q57.597 35.1868 57.9638 34.4674 Q58.3352 33.7433 58.3352 32.2998 Q58.3352 30.8516 57.9638 30.1322 Q57.597 29.4081 56.8588 29.4081 M56.8588 28.6558 Q58.039 28.6558 58.6596 29.5914 Q59.285 30.5224 59.285 32.2998 Q59.285 34.0724 58.6596 35.0081 Q58.039 35.9391 56.8588 35.9391 Q55.6786 35.9391 55.0533 35.0081 Q54.4326 34.0724 54.4326 32.2998 Q54.4326 30.5224 55.0533 29.5914 Q55.6786 28.6558 56.8588 28.6558 Z" fill="#000000" fill-rule="evenodd" fill-opacity="1" /><path clip-path="url(#clip720)" d="M 0 0 M10.431 90.3914 Q10.6061 89.8742 11.179 89.3888 Q11.7519 88.8954 12.7545 88.4021 L16.001 86.7709 L16.001 88.4976 L12.9535 90.0174 Q11.7599 90.6062 11.37 91.1632 Q10.9801 91.7123 10.9801 92.6671 L10.9801 94.4177 L16.001 94.4177 L16.001 96.025 L4.12104 96.025 L4.12104 92.3966 Q4.12104 90.3596 4.97245 89.357 Q5.82387 88.3544 7.54261 88.3544 Q8.66456 88.3544 9.40458 88.8795 Q10.1446 89.3967 10.431 90.3914 M5.44192 94.4177 L9.6592 94.4177 L9.6592 92.3966 Q9.6592 91.2348 9.12608 90.646 Q8.58499 90.0492 7.54261 90.0492 Q6.50022 90.0492 5.97505 90.646 Q5.44192 91.2348 5.44192 92.3966 L5.44192 94.4177 Z" fill="#000000" fill-rule="evenodd" fill-opacity="1" /><path clip-path="url(#clip720)" d="M 0 0 M5.70451 81.8613 L11.6167 84.0416 L11.6167 79.6731 L5.70451 81.8613 M4.12104 82.7684 L4.12104 80.9463 L16.001 76.4187 L16.001 78.0897 L12.9535 79.1718 L12.9535 84.527 L16.001 85.6091 L16.001 87.304 L4.12104 82.7684 Z" fill="#000000" fill-rule="evenodd" fill-opacity="1" /><circle clip-path="url(#clip722)" cx="82.9993" cy="52.3827" r="3" fill="#009af9" fill-rule="evenodd" fill-opacity="1" stroke="#000000" stroke-opacity="1" stroke-width="0.8"/>
<circle clip-path="url(#clip722)" cx="210.021" cy="52.1579" r="3" fill="#009af9" fill-rule="evenodd" fill-opacity="1" stroke="#000000" stroke-opacity="1" stroke-width="0.8"/>
<circle clip-path="url(#clip722)" cx="264.726" cy="51.4966" r="3" fill="#009af9" fill-rule="evenodd" fill-opacity="1" stroke="#000000" stroke-opacity="1" stroke-width="0.8"/>
<circle clip-path="url(#clip722)" cx="319.431" cy="48.5289" r="3" fill="#009af9" fill-rule="evenodd" fill-opacity="1" stroke="#000000" stroke-opacity="1" stroke-width="0.8"/>
<circle clip-path="url(#clip722)" cx="351.432" cy="42.6868" r="3" fill="#009af9" fill-rule="evenodd" fill-opacity="1" stroke="#000000" stroke-opacity="1" stroke-width="0.8"/>
<circle clip-path="url(#clip722)" cx="374.137" cy="31.3414" r="3" fill="#009af9" fill-rule="evenodd" fill-opacity="1" stroke="#000000" stroke-opacity="1" stroke-width="0.8"/>
<circle clip-path="url(#clip722)" cx="391.748" cy="16.023" r="3" fill="#009af9" fill-rule="evenodd" fill-opacity="1" stroke="#000000" stroke-opacity="1" stroke-width="0.8"/>
<circle clip-path="url(#clip722)" cx="406.137" cy="36.7686" r="3" fill="#009af9" fill-rule="evenodd" fill-opacity="1" stroke="#000000" stroke-opacity="1" stroke-width="0.8"/>
<circle clip-path="url(#clip722)" cx="418.303" cy="52.3827" r="3" fill="#009af9" fill-rule="evenodd" fill-opacity="1" stroke="#000000" stroke-opacity="1" stroke-width="0.8"/>
<circle clip-path="url(#clip722)" cx="428.842" cy="62.1148" r="3" fill="#009af9" fill-rule="evenodd" fill-opacity="1" stroke="#000000" stroke-opacity="1" stroke-width="0.8"/>
<circle clip-path="url(#clip722)" cx="438.138" cy="70.9299" r="3" fill="#009af9" fill-rule="evenodd" fill-opacity="1" stroke="#000000" stroke-opacity="1" stroke-width="0.8"/>
<circle clip-path="url(#clip722)" cx="453.975" cy="82.9897" r="3" fill="#009af9" fill-rule="evenodd" fill-opacity="1" stroke="#000000" stroke-opacity="1" stroke-width="0.8"/>
<circle clip-path="url(#clip722)" cx="478.454" cy="99.542" r="3" fill="#009af9" fill-rule="evenodd" fill-opacity="1" stroke="#000000" stroke-opacity="1" stroke-width="0.8"/>
<circle clip-path="url(#clip722)" cx="501.158" cy="113.789" r="3" fill="#009af9" fill-rule="evenodd" fill-opacity="1" stroke="#000000" stroke-opacity="1" stroke-width="0.8"/>
<circle clip-path="url(#clip722)" cx="573.475" cy="156.421" r="3" fill="#009af9" fill-rule="evenodd" fill-opacity="1" stroke="#000000" stroke-opacity="1" stroke-width="0.8"/>
<polyline clip-path="url(#clip722)" style="stroke:#e26f46; stroke-width:1; stroke-opacity:1; fill:none" points="
  82.9993,52.3543 87.9536,52.3531 92.9079,52.3517 97.8622,52.3502 102.816,52.3485 107.771,52.3465 112.725,52.3443 117.679,52.3418 122.634,52.3389 127.588,52.3357 
  132.542,52.332 137.497,52.3279 142.451,52.3232 147.405,52.3178 152.359,52.3117 157.314,52.3049 162.268,52.2971 167.222,52.2882 172.177,52.2782 177.131,52.2668 
  182.085,52.2539 187.04,52.2392 191.994,52.2226 196.948,52.2037 201.902,52.1823 206.857,52.158 211.811,52.1304 216.765,52.0991 221.72,52.0636 226.674,52.0233 
  231.628,51.9774 236.582,51.9253 241.537,51.8662 246.491,51.7989 251.445,51.7224 256.4,51.6353 261.354,51.5362 266.308,51.4234 271.263,51.2948 276.217,51.1482 
  281.171,50.9808 286.125,50.7896 291.08,50.571 296.034,50.3206 300.988,50.0336 305.943,49.7038 310.897,49.3244 315.851,48.8869 320.806,48.3809 325.76,47.794 
  330.714,47.111 335.668,46.3125 340.623,45.3743 345.577,44.2655 350.531,42.9453 355.486,41.3595 360.44,39.4343 365.394,37.0672 370.349,34.1141 375.303,30.379 
  380.257,25.6521 385.211,20.0833 390.166,16.0273 395.12,18.8578 400.074,26.8347 405.029,35.0303 409.983,42.226 414.937,48.4964 419.891,54.0596 424.846,59.0933 
  429.8,63.7251 434.754,68.0464 439.709,72.1231 444.663,76.004 449.617,79.726 454.572,83.3177 459.526,86.8012 464.48,90.1943 469.434,93.5112 474.389,96.7635 
  479.343,99.9608 484.297,103.111 489.252,106.221 494.206,109.296 499.16,112.341 504.115,115.359 509.069,118.355 514.023,121.332 518.977,124.291 523.932,127.235 
  528.886,130.166 533.84,133.085 538.795,135.995 543.749,138.895 548.703,141.788 553.658,144.674 558.612,147.555 563.566,150.43 568.52,153.3 573.475,156.166 
  
  "/>
<path clip-path="url(#clip720)" d="
M68.285 352.724 L588.189 352.724 L588.189 203.903 L68.285 203.903  Z
  " fill="#ffffff" fill-rule="evenodd" fill-opacity="1"/>
<defs>
  <clipPath id="clip723">
    <rect x="68" y="203" width="521" height="150"/>
  </clipPath>
</defs>
<polyline clip-path="url(#clip723)" style="stroke:#000000; stroke-width:0.5; stroke-opacity:0.1; fill:none" points="
  82.9993,352.724 82.9993,203.903 
  "/>
<polyline clip-path="url(#clip723)" style="stroke:#000000; stroke-width:0.5; stroke-opacity:0.1; fill:none" points="
  173.863,352.724 173.863,203.903 
  "/>
<polyline clip-path="url(#clip723)" style="stroke:#000000; stroke-width:0.5; stroke-opacity:0.1; fill:none" points="
  264.726,352.724 264.726,203.903 
  "/>
<polyline clip-path="url(#clip723)" style="stroke:#000000; stroke-width:0.5; stroke-opacity:0.1; fill:none" points="
  355.59,352.724 355.59,203.903 
  "/>
<polyline clip-path="url(#clip723)" style="stroke:#000000; stroke-width:0.5; stroke-opacity:0.1; fill:none" points="
  446.453,352.724 446.453,203.903 
  "/>
<polyline clip-path="url(#clip723)" style="stroke:#000000; stroke-width:0.5; stroke-opacity:0.1; fill:none" points="
  537.317,352.724 537.317,203.903 
  "/>
<polyline clip-path="url(#clip720)" style="stroke:#000000; stroke-width:1; stroke-opacity:1; fill:none" points="
  68.285,352.724 588.189,352.724 
  "/>
<polyline clip-path="url(#clip720)" style="stroke:#000000; stroke-width:1; stroke-opacity:1; fill:none" points="
  82.9993,352.724 82.9993,350.938 
  "/>
<polyline clip-path="url(#clip720)" style="stroke:#000000; stroke-width:1; stroke-opacity:1; fill:none" points="
  173.863,352.724 173.863,350.938 
  "/>
<polyline clip-path="url(#clip720)" style="stroke:#000000; stroke-width:1; stroke-opacity:1; fill:none" points="
  264.726,352.724 264.726,350.938 
  "/>
<polyline clip-path="url(#clip720)" style="stroke:#000000; stroke-width:1; stroke-opacity:1; fill:none" points="
  355.59,352.724 355.59,350.938 
  "/>
<polyline clip-path="url(#clip720)" style="stroke:#000000; stroke-width:1; stroke-opacity:1; fill:none" points="
  446.453,352.724 446.453,350.938 
  "/>
<polyline clip-path="url(#clip720)" style="stroke:#000000; stroke-width:1; stroke-opacity:1; fill:none" points="
  537.317,352.724 537.317,350.938 
  "/>
<path clip-path="url(#clip720)" d="M 0 0 M67.8682 372.292 L69.7779 372.292 L69.7779 365.701 L67.7004 366.117 L67.7004 365.053 L69.7664 364.636 L70.9353 364.636 L70.9353 372.292 L72.8451 372.292 L72.8451 373.276 L67.8682 373.276 L67.8682 372.292 Z" fill="#000000" fill-rule="evenodd" fill-opacity="1" /><path clip-path="url(#clip720)" d="M 0 0 M76.6124 365.406 Q75.7096 365.406 75.2525 366.297 Q74.8011 367.182 74.8011 368.965 Q74.8011 370.741 75.2525 371.632 Q75.7096 372.518 76.6124 372.518 Q77.521 372.518 77.9723 371.632 Q78.4295 370.741 78.4295 368.965 Q78.4295 367.182 77.9723 366.297 Q77.521 365.406 76.6124 365.406 M76.6124 364.48 Q78.0649 364.48 78.8288 365.631 Q79.5985 366.777 79.5985 368.965 Q79.5985 371.146 78.8288 372.298 Q78.0649 373.444 76.6124 373.444 Q75.1599 373.444 74.3902 372.298 Q73.6263 371.146 73.6263 368.965 Q73.6263 366.777 74.3902 365.631 Q75.1599 364.48 76.6124 364.48 Z" fill="#000000" fill-rule="evenodd" fill-opacity="1" /><path clip-path="url(#clip720)" d="M 0 0 M79.5985 363.005 L85.6264 363.005 L85.6264 363.804 L79.5985 363.804 L79.5985 363.005 Z" fill="#000000" fill-rule="evenodd" fill-opacity="1" /><path clip-path="url(#clip720)" d="M 0 0 M87.4742 365.624 L90.7891 365.624 L90.7891 366.423 L86.3317 366.423 L86.3317 365.624 Q86.8724 365.064 87.8034 364.124 Q88.7391 363.179 88.9789 362.906 Q89.435 362.394 89.6136 362.041 Q89.797 361.684 89.797 361.341 Q89.797 360.781 89.402 360.428 Q89.0118 360.076 88.3817 360.076 Q87.935 360.076 87.4366 360.231 Q86.9429 360.386 86.3787 360.701 L86.3787 359.742 Q86.9523 359.512 87.4507 359.394 Q87.9491 359.276 88.3629 359.276 Q89.4538 359.276 90.1026 359.822 Q90.7515 360.367 90.7515 361.279 Q90.7515 361.712 90.5869 362.102 Q90.4271 362.488 89.9992 363.014 Q89.8816 363.151 89.2516 363.804 Q88.6215 364.453 87.4742 365.624 Z" fill="#000000" fill-rule="evenodd" fill-opacity="1" /><path clip-path="url(#clip720)" d="M 0 0 M91.8188 365.229 L92.811 365.229 L92.811 366.423 L91.8188 366.423 L91.8188 365.229 Z" fill="#000000" fill-rule="evenodd" fill-opacity="1" /><path clip-path="url(#clip720)" d="M 0 0 M95.8719 360.029 Q95.1384 360.029 94.767 360.753 Q94.4002 361.472 94.4002 362.92 Q94.4002 364.364 94.767 365.088 Q95.1384 365.807 95.8719 365.807 Q96.6101 365.807 96.9769 365.088 Q97.3483 364.364 97.3483 362.92 Q97.3483 361.472 96.9769 360.753 Q96.6101 360.029 95.8719 360.029 M95.8719 359.276 Q97.0521 359.276 97.6728 360.212 Q98.2981 361.143 98.2981 362.92 Q98.2981 364.693 97.6728 365.629 Q97.0521 366.56 95.8719 366.56 Q94.6917 366.56 94.0664 365.629 Q93.4457 364.693 93.4457 362.92 Q93.4457 361.143 94.0664 360.212 Q94.6917 359.276 95.8719 359.276 Z" fill="#000000" fill-rule="evenodd" fill-opacity="1" /><path clip-path="url(#clip720)" d="M 0 0 M158.795 372.292 L160.705 372.292 L160.705 365.701 L158.627 366.117 L158.627 365.053 L160.693 364.636 L161.862 364.636 L161.862 372.292 L163.772 372.292 L163.772 373.276 L158.795 373.276 L158.795 372.292 Z" fill="#000000" fill-rule="evenodd" fill-opacity="1" /><path clip-path="url(#clip720)" d="M 0 0 M167.539 365.406 Q166.637 365.406 166.179 366.297 Q165.728 367.182 165.728 368.965 Q165.728 370.741 166.179 371.632 Q166.637 372.518 167.539 372.518 Q168.448 372.518 168.899 371.632 Q169.356 370.741 169.356 368.965 Q169.356 367.182 168.899 366.297 Q168.448 365.406 167.539 365.406 M167.539 364.48 Q168.992 364.48 169.756 365.631 Q170.525 366.777 170.525 368.965 Q170.525 371.146 169.756 372.298 Q168.992 373.444 167.539 373.444 Q166.087 373.444 165.317 372.298 Q164.553 371.146 164.553 368.965 Q164.553 366.777 165.317 365.631 Q166.087 364.48 167.539 364.48 Z" fill="#000000" fill-rule="evenodd" fill-opacity="1" /><path clip-path="url(#clip720)" d="M 0 0 M170.525 363.005 L176.553 363.005 L176.553 363.804 L170.525 363.804 L170.525 363.005 Z" fill="#000000" fill-rule="evenodd" fill-opacity="1" /><path clip-path="url(#clip720)" d="M 0 0 M177.748 365.624 L179.299 365.624 L179.299 360.269 L177.611 360.607 L177.611 359.742 L179.29 359.403 L180.24 359.403 L180.24 365.624 L181.791 365.624 L181.791 366.423 L177.748 366.423 L177.748 365.624 Z" fill="#000000" fill-rule="evenodd" fill-opacity="1" /><path clip-path="url(#clip720)" d="M 0 0 M182.821 365.229 L183.813 365.229 L183.813 366.423 L182.821 366.423 L182.821 365.229 Z" fill="#000000" fill-rule="evenodd" fill-opacity="1" /><path clip-path="url(#clip720)" d="M 0 0 M184.852 359.403 L188.581 359.403 L188.581 360.203 L185.722 360.203 L185.722 361.924 Q185.929 361.853 186.136 361.82 Q186.343 361.783 186.55 361.783 Q187.725 361.783 188.412 362.427 Q189.098 363.071 189.098 364.171 Q189.098 365.304 188.393 365.934 Q187.688 366.56 186.404 366.56 Q185.962 366.56 185.501 366.484 Q185.045 366.409 184.556 366.259 L184.556 365.304 Q184.979 365.535 185.431 365.648 Q185.882 365.76 186.385 365.76 Q187.199 365.76 187.673 365.333 Q188.148 364.905 188.148 364.171 Q188.148 363.438 187.673 363.01 Q187.199 362.582 186.385 362.582 Q186.004 362.582 185.623 362.667 Q185.247 362.751 184.852 362.93 L184.852 359.403 Z" fill="#000000" fill-rule="evenodd" fill-opacity="1" /><path clip-path="url(#clip720)" d="M 0 0 M249.558 372.292 L251.467 372.292 L251.467 365.701 L249.39 366.117 L249.39 365.053 L251.456 364.636 L252.625 364.636 L252.625 372.292 L254.534 372.292 L254.534 373.276 L249.558 373.276 L249.558 372.292 Z" fill="#000000" fill-rule="evenodd" fill-opacity="1" /><path clip-path="url(#clip720)" d="M 0 0 M258.302 365.406 Q257.399 365.406 256.942 366.297 Q256.49 367.182 256.49 368.965 Q256.49 370.741 256.942 371.632 Q257.399 372.518 258.302 372.518 Q259.21 372.518 259.662 371.632 Q260.119 370.741 260.119 368.965 Q260.119 367.182 259.662 366.297 Q259.21 365.406 258.302 365.406 M258.302 364.48 Q259.754 364.48 260.518 365.631 Q261.288 366.777 261.288 368.965 Q261.288 371.146 260.518 372.298 Q259.754 373.444 258.302 373.444 Q256.849 373.444 256.079 372.298 Q255.316 371.146 255.316 368.965 Q255.316 366.777 256.079 365.631 Q256.849 364.48 258.302 364.48 Z" fill="#000000" fill-rule="evenodd" fill-opacity="1" /><path clip-path="url(#clip720)" d="M 0 0 M261.288 363.005 L267.316 363.005 L267.316 363.804 L261.288 363.804 L261.288 363.005 Z" fill="#000000" fill-rule="evenodd" fill-opacity="1" /><path clip-path="url(#clip720)" d="M 0 0 M268.51 365.624 L270.062 365.624 L270.062 360.269 L268.374 360.607 L268.374 359.742 L270.052 359.403 L271.002 359.403 L271.002 365.624 L272.554 365.624 L272.554 366.423 L268.51 366.423 L268.51 365.624 Z" fill="#000000" fill-rule="evenodd" fill-opacity="1" /><path clip-path="url(#clip720)" d="M 0 0 M273.583 365.229 L274.575 365.229 L274.575 366.423 L273.583 366.423 L273.583 365.229 Z" fill="#000000" fill-rule="evenodd" fill-opacity="1" /><path clip-path="url(#clip720)" d="M 0 0 M277.636 360.029 Q276.903 360.029 276.531 360.753 Q276.165 361.472 276.165 362.92 Q276.165 364.364 276.531 365.088 Q276.903 365.807 277.636 365.807 Q278.375 365.807 278.741 365.088 Q279.113 364.364 279.113 362.92 Q279.113 361.472 278.741 360.753 Q278.375 360.029 277.636 360.029 M277.636 359.276 Q278.817 359.276 279.437 360.212 Q280.063 361.143 280.063 362.92 Q280.063 364.693 279.437 365.629 Q278.817 366.56 277.636 366.56 Q276.456 366.56 275.831 365.629 Q275.21 364.693 275.21 362.92 Q275.21 361.143 275.831 360.212 Q276.456 359.276 277.636 359.276 Z" fill="#000000" fill-rule="evenodd" fill-opacity="1" /><path clip-path="url(#clip720)" d="M 0 0 M340.397 372.292 L342.307 372.292 L342.307 365.701 L340.23 366.117 L340.23 365.053 L342.296 364.636 L343.465 364.636 L343.465 372.292 L345.374 372.292 L345.374 373.276 L340.397 373.276 L340.397 372.292 Z" fill="#000000" fill-rule="evenodd" fill-opacity="1" /><path clip-path="url(#clip720)" d="M 0 0 M349.142 365.406 Q348.239 365.406 347.782 366.297 Q347.33 367.182 347.33 368.965 Q347.33 370.741 347.782 371.632 Q348.239 372.518 349.142 372.518 Q350.05 372.518 350.502 371.632 Q350.959 370.741 350.959 368.965 Q350.959 367.182 350.502 366.297 Q350.05 365.406 349.142 365.406 M349.142 364.48 Q350.594 364.48 351.358 365.631 Q352.128 366.777 352.128 368.965 Q352.128 371.146 351.358 372.298 Q350.594 373.444 349.142 373.444 Q347.689 373.444 346.919 372.298 Q346.156 371.146 346.156 368.965 Q346.156 366.777 346.919 365.631 Q347.689 364.48 349.142 364.48 Z" fill="#000000" fill-rule="evenodd" fill-opacity="1" /><path clip-path="url(#clip720)" d="M 0 0 M352.128 363.005 L358.156 363.005 L358.156 363.804 L352.128 363.804 L352.128 363.005 Z" fill="#000000" fill-rule="evenodd" fill-opacity="1" /><path clip-path="url(#clip720)" d="M 0 0 M361.217 360.029 Q360.483 360.029 360.112 360.753 Q359.745 361.472 359.745 362.92 Q359.745 364.364 360.112 365.088 Q360.483 365.807 361.217 365.807 Q361.955 365.807 362.322 365.088 Q362.693 364.364 362.693 362.92 Q362.693 361.472 362.322 360.753 Q361.955 360.029 361.217 360.029 M361.217 359.276 Q362.397 359.276 363.017 360.212 Q363.643 361.143 363.643 362.92 Q363.643 364.693 363.017 365.629 Q362.397 366.56 361.217 366.56 Q360.036 366.56 359.411 365.629 Q358.79 364.693 358.79 362.92 Q358.79 361.143 359.411 360.212 Q360.036 359.276 361.217 359.276 Z" fill="#000000" fill-rule="evenodd" fill-opacity="1" /><path clip-path="url(#clip720)" d="M 0 0 M364.672 365.229 L365.665 365.229 L365.665 366.423 L364.672 366.423 L364.672 365.229 Z" fill="#000000" fill-rule="evenodd" fill-opacity="1" /><path clip-path="url(#clip720)" d="M 0 0 M366.704 359.403 L370.432 359.403 L370.432 360.203 L367.574 360.203 L367.574 361.924 Q367.78 361.853 367.987 361.82 Q368.194 361.783 368.401 361.783 Q369.577 361.783 370.263 362.427 Q370.95 363.071 370.95 364.171 Q370.95 365.304 370.244 365.934 Q369.539 366.56 368.255 366.56 Q367.813 366.56 367.353 366.484 Q366.897 366.409 366.408 366.259 L366.408 365.304 Q366.831 365.535 367.282 365.648 Q367.733 365.76 368.237 365.76 Q369.05 365.76 369.525 365.333 Q370 364.905 370 364.171 Q370 363.438 369.525 363.01 Q369.05 362.582 368.237 362.582 Q367.856 362.582 367.475 362.667 Q367.099 362.751 366.704 362.93 L366.704 359.403 Z" fill="#000000" fill-rule="evenodd" fill-opacity="1" /><path clip-path="url(#clip720)" d="M 0 0 M434.491 372.292 L436.401 372.292 L436.401 365.701 L434.323 366.117 L434.323 365.053 L436.389 364.636 L437.558 364.636 L437.558 372.292 L439.468 372.292 L439.468 373.276 L434.491 373.276 L434.491 372.292 Z" fill="#000000" fill-rule="evenodd" fill-opacity="1" /><path clip-path="url(#clip720)" d="M 0 0 M443.235 365.406 Q442.333 365.406 441.875 366.297 Q441.424 367.182 441.424 368.965 Q441.424 370.741 441.875 371.632 Q442.333 372.518 443.235 372.518 Q444.144 372.518 444.595 371.632 Q445.052 370.741 445.052 368.965 Q445.052 367.182 444.595 366.297 Q444.144 365.406 443.235 365.406 M443.235 364.48 Q444.688 364.48 445.452 365.631 Q446.221 366.777 446.221 368.965 Q446.221 371.146 445.452 372.298 Q444.688 373.444 443.235 373.444 Q441.783 373.444 441.013 372.298 Q440.249 371.146 440.249 368.965 Q440.249 366.777 441.013 365.631 Q441.783 364.48 443.235 364.48 Z" fill="#000000" fill-rule="evenodd" fill-opacity="1" /><path clip-path="url(#clip720)" d="M 0 0 M448.648 360.029 Q447.914 360.029 447.543 360.753 Q447.176 361.472 447.176 362.92 Q447.176 364.364 447.543 365.088 Q447.914 365.807 448.648 365.807 Q449.386 365.807 449.753 365.088 Q450.124 364.364 450.124 362.92 Q450.124 361.472 449.753 360.753 Q449.386 360.029 448.648 360.029 M448.648 359.276 Q449.828 359.276 450.448 360.212 Q451.074 361.143 451.074 362.92 Q451.074 364.693 450.448 365.629 Q449.828 366.56 448.648 366.56 Q447.467 366.56 446.842 365.629 Q446.221 364.693 446.221 362.92 Q446.221 361.143 446.842 360.212 Q447.467 359.276 448.648 359.276 Z" fill="#000000" fill-rule="evenodd" fill-opacity="1" /><path clip-path="url(#clip720)" d="M 0 0 M452.104 365.229 L453.096 365.229 L453.096 366.423 L452.104 366.423 L452.104 365.229 Z" fill="#000000" fill-rule="evenodd" fill-opacity="1" /><path clip-path="url(#clip720)" d="M 0 0 M456.157 360.029 Q455.423 360.029 455.052 360.753 Q454.685 361.472 454.685 362.92 Q454.685 364.364 455.052 365.088 Q455.423 365.807 456.157 365.807 Q456.895 365.807 457.262 365.088 Q457.633 364.364 457.633 362.92 Q457.633 361.472 457.262 360.753 Q456.895 360.029 456.157 360.029 M456.157 359.276 Q457.337 359.276 457.957 360.212 Q458.583 361.143 458.583 362.92 Q458.583 364.693 457.957 365.629 Q457.337 366.56 456.157 366.56 Q454.976 366.56 454.351 365.629 Q453.73 364.693 453.73 362.92 Q453.73 361.143 454.351 360.212 Q454.976 359.276 456.157 359.276 Z" fill="#000000" fill-rule="evenodd" fill-opacity="1" /><path clip-path="url(#clip720)" d="M 0 0 M525.456 372.292 L527.365 372.292 L527.365 365.701 L525.288 366.117 L525.288 365.053 L527.354 364.636 L528.523 364.636 L528.523 372.292 L530.433 372.292 L530.433 373.276 L525.456 373.276 L525.456 372.292 Z" fill="#000000" fill-rule="evenodd" fill-opacity="1" /><path clip-path="url(#clip720)" d="M 0 0 M534.2 365.406 Q533.297 365.406 532.84 366.297 Q532.389 367.182 532.389 368.965 Q532.389 370.741 532.84 371.632 Q533.297 372.518 534.2 372.518 Q535.108 372.518 535.56 371.632 Q536.017 370.741 536.017 368.965 Q536.017 367.182 535.56 366.297 Q535.108 365.406 534.2 365.406 M534.2 364.48 Q535.652 364.48 536.416 365.631 Q537.186 366.777 537.186 368.965 Q537.186 371.146 536.416 372.298 Q535.652 373.444 534.2 373.444 Q532.747 373.444 531.978 372.298 Q531.214 371.146 531.214 368.965 Q531.214 366.777 531.978 365.631 Q532.747 364.48 534.2 364.48 Z" fill="#000000" fill-rule="evenodd" fill-opacity="1" /><path clip-path="url(#clip720)" d="M 0 0 M539.612 360.029 Q538.879 360.029 538.507 360.753 Q538.14 361.472 538.14 362.92 Q538.14 364.364 538.507 365.088 Q538.879 365.807 539.612 365.807 Q540.35 365.807 540.717 365.088 Q541.089 364.364 541.089 362.92 Q541.089 361.472 540.717 360.753 Q540.35 360.029 539.612 360.029 M539.612 359.276 Q540.792 359.276 541.413 360.212 Q542.038 361.143 542.038 362.92 Q542.038 364.693 541.413 365.629 Q540.792 366.56 539.612 366.56 Q538.432 366.56 537.807 365.629 Q537.186 364.693 537.186 362.92 Q537.186 361.143 537.807 360.212 Q538.432 359.276 539.612 359.276 Z" fill="#000000" fill-rule="evenodd" fill-opacity="1" /><path clip-path="url(#clip720)" d="M 0 0 M543.068 365.229 L544.06 365.229 L544.06 366.423 L543.068 366.423 L543.068 365.229 Z" fill="#000000" fill-rule="evenodd" fill-opacity="1" /><path clip-path="url(#clip720)" d="M 0 0 M545.099 359.403 L548.828 359.403 L548.828 360.203 L545.969 360.203 L545.969 361.924 Q546.176 361.853 546.383 361.82 Q546.59 361.783 546.797 361.783 Q547.972 361.783 548.659 362.427 Q549.345 363.071 549.345 364.171 Q549.345 365.304 548.64 365.934 Q547.935 366.56 546.651 366.56 Q546.209 366.56 545.748 366.484 Q545.292 366.409 544.803 366.259 L544.803 365.304 Q545.226 365.535 545.678 365.648 Q546.129 365.76 546.632 365.76 Q547.446 365.76 547.92 365.333 Q548.395 364.905 548.395 364.171 Q548.395 363.438 547.92 363.01 Q547.446 362.582 546.632 362.582 Q546.251 362.582 545.87 362.667 Q545.494 362.751 545.099 362.93 L545.099 359.403 Z" fill="#000000" fill-rule="evenodd" fill-opacity="1" /><path clip-path="url(#clip720)" d="M 0 0 M325.81 393.777 Q322.508 393.777 322.508 389.051 Q322.508 387.181 323.741 384.634 L325.317 384.634 Q324.179 387.181 324.179 389.09 Q324.179 392.536 325.945 392.536 Q327.561 392.536 327.561 388.255 L328.913 388.255 Q328.913 392.536 330.529 392.536 Q332.295 392.536 332.295 389.09 Q332.295 387.181 331.157 384.634 L332.733 384.634 Q333.966 387.181 333.966 389.051 Q333.966 393.777 330.664 393.777 Q328.5 393.777 328.237 391.398 Q327.911 393.777 325.81 393.777 Z" fill="#000000" fill-rule="evenodd" fill-opacity="1" /><polyline clip-path="url(#clip723)" style="stroke:#000000; stroke-width:0.5; stroke-opacity:0.1; fill:none" points="
  68.285,325.842 588.189,325.842 
  "/>
<polyline clip-path="url(#clip723)" style="stroke:#000000; stroke-width:0.5; stroke-opacity:0.1; fill:none" points="
  68.285,286.539 588.189,286.539 
  "/>
<polyline clip-path="url(#clip723)" style="stroke:#000000; stroke-width:0.5; stroke-opacity:0.1; fill:none" points="
  68.285,247.237 588.189,247.237 
  "/>
<polyline clip-path="url(#clip723)" style="stroke:#000000; stroke-width:0.5; stroke-opacity:0.1; fill:none" points="
  68.285,207.934 588.189,207.934 
  "/>
<polyline clip-path="url(#clip720)" style="stroke:#000000; stroke-width:1; stroke-opacity:1; fill:none" points="
  68.285,352.724 68.285,203.903 
  "/>
<polyline clip-path="url(#clip720)" style="stroke:#000000; stroke-width:1; stroke-opacity:1; fill:none" points="
  68.285,325.842 74.5238,325.842 
  "/>
<polyline clip-path="url(#clip720)" style="stroke:#000000; stroke-width:1; stroke-opacity:1; fill:none" points="
  68.285,286.539 74.5238,286.539 
  "/>
<polyline clip-path="url(#clip720)" style="stroke:#000000; stroke-width:1; stroke-opacity:1; fill:none" points="
  68.285,247.237 74.5238,247.237 
  "/>
<polyline clip-path="url(#clip720)" style="stroke:#000000; stroke-width:1; stroke-opacity:1; fill:none" points="
  68.285,207.934 74.5238,207.934 
  "/>
<path clip-path="url(#clip720)" d="M 0 0 M32.1613 325.955 L39.5802 325.955 L39.5802 326.938 L32.1613 326.938 L32.1613 325.955 Z" fill="#000000" fill-rule="evenodd" fill-opacity="1" /><path clip-path="url(#clip720)" d="M 0 0 M41.0501 329.178 L42.9599 329.178 L42.9599 322.587 L40.8823 323.003 L40.8823 321.938 L42.9483 321.522 L44.1173 321.522 L44.1173 329.178 L46.027 329.178 L46.027 330.162 L41.0501 330.162 L41.0501 329.178 Z" fill="#000000" fill-rule="evenodd" fill-opacity="1" /><path clip-path="url(#clip720)" d="M 0 0 M47.3059 321.522 L51.895 321.522 L51.895 322.506 L48.3765 322.506 L48.3765 324.624 Q48.6311 324.537 48.8857 324.496 Q49.1404 324.45 49.395 324.45 Q50.8418 324.45 51.6867 325.243 Q52.5316 326.036 52.5316 327.39 Q52.5316 328.784 51.6635 329.56 Q50.7955 330.33 49.2156 330.33 Q48.6716 330.33 48.1045 330.237 Q47.5432 330.144 46.9413 329.959 L46.9413 328.784 Q47.4621 329.068 48.0177 329.207 Q48.5733 329.346 49.1925 329.346 Q50.1936 329.346 50.7781 328.819 Q51.3626 328.293 51.3626 327.39 Q51.3626 326.487 50.7781 325.96 Q50.1936 325.434 49.1925 325.434 Q48.7237 325.434 48.255 325.538 Q47.792 325.642 47.3059 325.862 L47.3059 321.522 Z" fill="#000000" fill-rule="evenodd" fill-opacity="1" /><path clip-path="url(#clip720)" d="M 0 0 M56.2989 322.291 Q55.3961 322.291 54.939 323.183 Q54.4876 324.068 54.4876 325.85 Q54.4876 327.627 54.939 328.518 Q55.3961 329.404 56.2989 329.404 Q57.2075 329.404 57.6589 328.518 Q58.116 327.627 58.116 325.85 Q58.116 324.068 57.6589 323.183 Q57.2075 322.291 56.2989 322.291 M56.2989 321.366 Q57.7514 321.366 58.5153 322.517 Q59.285 323.663 59.285 325.85 Q59.285 328.032 58.5153 329.184 Q57.7514 330.33 56.2989 330.33 Q54.8464 330.33 54.0767 329.184 Q53.3128 328.032 53.3128 325.85 Q53.3128 323.663 54.0767 322.517 Q54.8464 321.366 56.2989 321.366 Z" fill="#000000" fill-rule="evenodd" fill-opacity="1" /><path clip-path="url(#clip720)" d="M 0 0 M31.9125 286.652 L39.3314 286.652 L39.3314 287.636 L31.9125 287.636 L31.9125 286.652 Z" fill="#000000" fill-rule="evenodd" fill-opacity="1" /><path clip-path="url(#clip720)" d="M 0 0 M40.8013 289.875 L42.711 289.875 L42.711 283.284 L40.6335 283.701 L40.6335 282.636 L42.6994 282.219 L43.8684 282.219 L43.8684 289.875 L45.7781 289.875 L45.7781 290.859 L40.8013 290.859 L40.8013 289.875 Z" fill="#000000" fill-rule="evenodd" fill-opacity="1" /><path clip-path="url(#clip720)" d="M 0 0 M49.5455 282.989 Q48.6427 282.989 48.1855 283.88 Q47.7341 284.765 47.7341 286.548 Q47.7341 288.324 48.1855 289.216 Q48.6427 290.101 49.5455 290.101 Q50.454 290.101 50.9054 289.216 Q51.3626 288.324 51.3626 286.548 Q51.3626 284.765 50.9054 283.88 Q50.454 282.989 49.5455 282.989 M49.5455 282.063 Q50.998 282.063 51.7619 283.215 Q52.5316 284.36 52.5316 286.548 Q52.5316 288.73 51.7619 289.881 Q50.998 291.027 49.5455 291.027 Q48.0929 291.027 47.3233 289.881 Q46.5594 288.73 46.5594 286.548 Q46.5594 284.36 47.3233 283.215 Q48.0929 282.063 49.5455 282.063 Z" fill="#000000" fill-rule="evenodd" fill-opacity="1" /><path clip-path="url(#clip720)" d="M 0 0 M56.2989 282.989 Q55.3961 282.989 54.939 283.88 Q54.4876 284.765 54.4876 286.548 Q54.4876 288.324 54.939 289.216 Q55.3961 290.101 56.2989 290.101 Q57.2075 290.101 57.6589 289.216 Q58.116 288.324 58.116 286.548 Q58.116 284.765 57.6589 283.88 Q57.2075 282.989 56.2989 282.989 M56.2989 282.063 Q57.7514 282.063 58.5153 283.215 Q59.285 284.36 59.285 286.548 Q59.285 288.73 58.5153 289.881 Q57.7514 291.027 56.2989 291.027 Q54.8464 291.027 54.0767 289.881 Q53.3128 288.73 53.3128 286.548 Q53.3128 284.36 54.0767 283.215 Q54.8464 282.063 56.2989 282.063 Z" fill="#000000" fill-rule="evenodd" fill-opacity="1" /><path clip-path="url(#clip720)" d="M 0 0 M38.608 247.349 L46.027 247.349 L46.027 248.333 L38.608 248.333 L38.608 247.349 Z" fill="#000000" fill-rule="evenodd" fill-opacity="1" /><path clip-path="url(#clip720)" d="M 0 0 M47.3059 242.917 L51.895 242.917 L51.895 243.9 L48.3765 243.9 L48.3765 246.018 Q48.6311 245.932 48.8857 245.891 Q49.1404 245.845 49.395 245.845 Q50.8418 245.845 51.6867 246.638 Q52.5316 247.43 52.5316 248.785 Q52.5316 250.179 51.6635 250.955 Q50.7955 251.724 49.2156 251.724 Q48.6716 251.724 48.1045 251.632 Q47.5432 251.539 46.9413 251.354 L46.9413 250.179 Q47.4621 250.463 48.0177 250.602 Q48.5733 250.741 49.1925 250.741 Q50.1936 250.741 50.7781 250.214 Q51.3626 249.687 51.3626 248.785 Q51.3626 247.882 50.7781 247.355 Q50.1936 246.829 49.1925 246.829 Q48.7237 246.829 48.255 246.933 Q47.792 247.037 47.3059 247.257 L47.3059 242.917 Z" fill="#000000" fill-rule="evenodd" fill-opacity="1" /><path clip-path="url(#clip720)" d="M 0 0 M56.2989 243.686 Q55.3961 243.686 54.939 244.578 Q54.4876 245.463 54.4876 247.245 Q54.4876 249.022 54.939 249.913 Q55.3961 250.799 56.2989 250.799 Q57.2075 250.799 57.6589 249.913 Q58.116 249.022 58.116 247.245 Q58.116 245.463 57.6589 244.578 Q57.2075 243.686 56.2989 243.686 M56.2989 242.76 Q57.7514 242.76 58.5153 243.912 Q59.285 245.058 59.285 247.245 Q59.285 249.427 58.5153 250.579 Q57.7514 251.724 56.2989 251.724 Q54.8464 251.724 54.0767 250.579 Q53.3128 249.427 53.3128 247.245 Q53.3128 245.058 54.0767 243.912 Q54.8464 242.76 56.2989 242.76 Z" fill="#000000" fill-rule="evenodd" fill-opacity="1" /><path clip-path="url(#clip720)" d="M 0 0 M56.2989 204.384 Q55.3961 204.384 54.939 205.275 Q54.4876 206.16 54.4876 207.943 Q54.4876 209.719 54.939 210.611 Q55.3961 211.496 56.2989 211.496 Q57.2075 211.496 57.6589 210.611 Q58.116 209.719 58.116 207.943 Q58.116 206.16 57.6589 205.275 Q57.2075 204.384 56.2989 204.384 M56.2989 203.458 Q57.7514 203.458 58.5153 204.609 Q59.285 205.755 59.285 207.943 Q59.285 210.124 58.5153 211.276 Q57.7514 212.422 56.2989 212.422 Q54.8464 212.422 54.0767 211.276 Q53.3128 210.124 53.3128 207.943 Q53.3128 205.755 54.0767 204.609 Q54.8464 203.458 56.2989 203.458 Z" fill="#000000" fill-rule="evenodd" fill-opacity="1" /><path clip-path="url(#clip720)" d="M 0 0 M11.6221 277.068 Q11.6221 277.585 12.7759 277.585 L18.2345 277.585 Q18.2345 276.829 17.4069 276.073 Q16.6669 275.397 14.8925 275.397 Q13.2374 275.397 12.3462 276.081 Q11.6221 276.638 11.6221 277.068 M10.3728 277.068 Q10.3728 275.954 11.4232 274.943 Q12.5451 273.853 14.8925 273.853 Q17.0488 273.853 18.3299 274.943 Q19.5394 275.97 19.5394 277.585 L22.7382 277.585 L22.7382 279.041 L19.5474 279.041 Q19.5474 280.625 18.3299 281.691 Q17.0886 282.773 14.9004 282.773 Q12.6247 282.773 11.4629 281.691 Q10.5956 280.88 10.3728 279.559 L11.6698 279.559 Q11.8528 280.084 12.4735 280.545 Q13.3886 281.23 14.9004 281.23 Q16.5078 281.23 17.4228 280.545 Q18.2424 279.933 18.2424 279.041 L12.7759 279.041 Q10.3728 279.041 10.3728 277.068 Z" fill="#000000" fill-rule="evenodd" fill-opacity="1" /><circle clip-path="url(#clip723)" cx="82.9993" cy="208.115" r="3" fill="#009af9" fill-rule="evenodd" fill-opacity="1" stroke="#000000" stroke-opacity="1" stroke-width="0.8"/>
<circle clip-path="url(#clip723)" cx="210.021" cy="208.822" r="3" fill="#009af9" fill-rule="evenodd" fill-opacity="1" stroke="#000000" stroke-opacity="1" stroke-width="0.8"/>
<circle clip-path="url(#clip723)" cx="264.726" cy="209.813" r="3" fill="#009af9" fill-rule="evenodd" fill-opacity="1" stroke="#000000" stroke-opacity="1" stroke-width="0.8"/>
<circle clip-path="url(#clip723)" cx="319.431" cy="212.21" r="3" fill="#009af9" fill-rule="evenodd" fill-opacity="1" stroke="#000000" stroke-opacity="1" stroke-width="0.8"/>
<circle clip-path="url(#clip723)" cx="351.432" cy="217.068" r="3" fill="#009af9" fill-rule="evenodd" fill-opacity="1" stroke="#000000" stroke-opacity="1" stroke-width="0.8"/>
<circle clip-path="url(#clip723)" cx="374.137" cy="226.768" r="3" fill="#009af9" fill-rule="evenodd" fill-opacity="1" stroke="#000000" stroke-opacity="1" stroke-width="0.8"/>
<circle clip-path="url(#clip723)" cx="391.748" cy="278.679" r="3" fill="#009af9" fill-rule="evenodd" fill-opacity="1" stroke="#000000" stroke-opacity="1" stroke-width="0.8"/>
<circle clip-path="url(#clip723)" cx="406.137" cy="326.934" r="3" fill="#009af9" fill-rule="evenodd" fill-opacity="1" stroke="#000000" stroke-opacity="1" stroke-width="0.8"/>
<circle clip-path="url(#clip723)" cx="418.303" cy="336.642" r="3" fill="#009af9" fill-rule="evenodd" fill-opacity="1" stroke="#000000" stroke-opacity="1" stroke-width="0.8"/>
<circle clip-path="url(#clip723)" cx="428.842" cy="340.069" r="3" fill="#009af9" fill-rule="evenodd" fill-opacity="1" stroke="#000000" stroke-opacity="1" stroke-width="0.8"/>
<circle clip-path="url(#clip723)" cx="438.138" cy="342.247" r="3" fill="#009af9" fill-rule="evenodd" fill-opacity="1" stroke="#000000" stroke-opacity="1" stroke-width="0.8"/>
<circle clip-path="url(#clip723)" cx="453.975" cy="344.283" r="3" fill="#009af9" fill-rule="evenodd" fill-opacity="1" stroke="#000000" stroke-opacity="1" stroke-width="0.8"/>
<circle clip-path="url(#clip723)" cx="478.454" cy="346.051" r="3" fill="#009af9" fill-rule="evenodd" fill-opacity="1" stroke="#000000" stroke-opacity="1" stroke-width="0.8"/>
<circle clip-path="url(#clip723)" cx="501.158" cy="347.026" r="3" fill="#009af9" fill-rule="evenodd" fill-opacity="1" stroke="#000000" stroke-opacity="1" stroke-width="0.8"/>
<circle clip-path="url(#clip723)" cx="573.475" cy="348.511" r="3" fill="#009af9" fill-rule="evenodd" fill-opacity="1" stroke="#000000" stroke-opacity="1" stroke-width="0.8"/>
<polyline clip-path="url(#clip723)" style="stroke:#e26f46; stroke-width:1; stroke-opacity:1; fill:none" points="
  82.9993,208.114 87.9536,208.126 92.9079,208.139 97.8622,208.152 102.816,208.166 107.771,208.181 112.725,208.197 117.679,208.214 122.634,208.232 127.588,208.252 
  132.542,208.272 137.497,208.294 142.451,208.318 147.405,208.343 152.359,208.369 157.314,208.398 162.268,208.428 167.222,208.46 172.177,208.494 177.131,208.531 
  182.085,208.57 187.04,208.612 191.994,208.656 196.948,208.703 201.902,208.754 206.857,208.808 211.811,208.866 216.765,208.928 221.72,208.994 226.674,209.064 
  231.628,209.14 236.582,209.221 241.537,209.308 246.491,209.402 251.445,209.502 256.4,209.61 261.354,209.727 266.308,209.852 271.263,209.988 276.217,210.136 
  281.171,210.296 286.125,210.471 291.08,210.662 296.034,210.871 300.988,211.102 305.943,211.357 310.897,211.641 315.851,211.959 320.806,212.318 325.76,212.726 
  330.714,213.195 335.668,213.741 340.623,214.383 345.577,215.153 350.531,216.093 355.486,217.269 360.44,218.785 365.394,220.816 370.349,223.671 375.303,227.957 
  380.257,234.95 385.211,247.453 390.166,269.658 395.12,296.745 400.074,315.212 405.029,325.311 409.983,331.133 414.937,334.816 419.891,337.332 424.846,339.154 
  429.8,340.535 434.754,341.619 439.709,342.493 444.663,343.213 449.617,343.819 454.572,344.335 459.526,344.781 464.48,345.171 469.434,345.515 474.389,345.82 
  479.343,346.094 484.297,346.34 489.252,346.563 494.206,346.765 499.16,346.95 504.115,347.119 509.069,347.275 514.023,347.418 518.977,347.55 523.932,347.673 
  528.886,347.786 533.84,347.891 538.795,347.989 543.749,348.08 548.703,348.165 553.658,348.245 558.612,348.318 563.566,348.387 568.52,348.452 573.475,348.512 
  
  "/>
</svg>
