<?xml version="1.0" encoding="utf-8"?>
<svg xmlns="http://www.w3.org/2000/svg" xmlns:xlink="http://www.w3.org/1999/xlink" width="600" height="400" viewBox="0 0 2400 1600">
<defs>
  <clipPath id="clip340">
    <rect x="0" y="0" width="2400" height="1600"/>
  </clipPath>
</defs>
<path clip-path="url(#clip340)" d="
M0 1600 L2400 1600 L2400 0 L0 0  Z
  " fill="#ffffff" fill-rule="evenodd" fill-opacity="1"/>
<defs>
  <clipPath id="clip341">
    <rect x="480" y="0" width="1681" height="1600"/>
  </clipPath>
</defs>
<path clip-path="url(#clip340)" d="
M219.38 1423.18 L2352.76 1423.18 L2352.76 47.2441 L219.38 47.2441  Z
  " fill="#ffffff" fill-rule="evenodd" fill-opacity="1"/>
<defs>
  <clipPath id="clip342">
    <rect x="219" y="47" width="2134" height="1377"/>
  </clipPath>
</defs>
<polyline clip-path="url(#clip342)" style="stroke:#000000; stroke-width:2; stroke-opacity:0.1; fill:none" points="
  279.759,1423.18 279.759,47.2441 
  "/>
<polyline clip-path="url(#clip342)" style="stroke:#000000; stroke-width:2; stroke-opacity:0.1; fill:none" points="
  782.913,1423.18 782.913,47.2441 
  "/>
<polyline clip-path="url(#clip342)" style="stroke:#000000; stroke-width:2; stroke-opacity:0.1; fill:none" points="
  1286.07,1423.18 1286.07,47.2441 
  "/>
<polyline clip-path="url(#clip342)" style="stroke:#000000; stroke-width:2; stroke-opacity:0.1; fill:none" points="
  1789.22,1423.18 1789.22,47.2441 
  "/>
<polyline clip-path="url(#clip342)" style="stroke:#000000; stroke-width:2; stroke-opacity:0.1; fill:none" points="
  2292.38,1423.18 2292.38,47.2441 
  "/>
<polyline clip-path="url(#clip340)" style="stroke:#000000; stroke-width:4; stroke-opacity:1; fill:none" points="
  219.38,1423.18 2352.76,1423.18 
  "/>
<polyline clip-path="url(#clip340)" style="stroke:#000000; stroke-width:4; stroke-opacity:1; fill:none" points="
  279.759,1423.18 279.759,1406.67 
  "/>
<polyline clip-path="url(#clip340)" style="stroke:#000000; stroke-width:4; stroke-opacity:1; fill:none" points="
  782.913,1423.18 782.913,1406.67 
  "/>
<polyline clip-path="url(#clip340)" style="stroke:#000000; stroke-width:4; stroke-opacity:1; fill:none" points="
  1286.07,1423.18 1286.07,1406.67 
  "/>
<polyline clip-path="url(#clip340)" style="stroke:#000000; stroke-width:4; stroke-opacity:1; fill:none" points="
  1789.22,1423.18 1789.22,1406.67 
  "/>
<polyline clip-path="url(#clip340)" style="stroke:#000000; stroke-width:4; stroke-opacity:1; fill:none" points="
  2292.38,1423.18 2292.38,1406.67 
  "/>
<path clip-path="url(#clip340)" d="M 0 0 M257.143 1452.37 Q253.532 1452.37 251.703 1455.94 Q249.898 1459.48 249.898 1466.61 Q249.898 1473.71 251.703 1477.28 Q253.532 1480.82 257.143 1480.82 Q260.777 1480.82 262.583 1477.28 Q264.412 1473.71 264.412 1466.61 Q264.412 1459.48 262.583 1455.94 Q260.777 1452.37 257.143 1452.37 M257.143 1448.67 Q262.953 1448.67 266.009 1453.27 Q269.087 1457.86 269.087 1466.61 Q269.087 1475.33 266.009 1479.94 Q262.953 1484.52 257.143 1484.52 Q251.333 1484.52 248.254 1479.94 Q245.199 1475.33 245.199 1466.61 Q245.199 1457.86 248.254 1453.27 Q251.333 1448.67 257.143 1448.67 Z" fill="#000000" fill-rule="evenodd" fill-opacity="1" /><path clip-path="url(#clip340)" d="M 0 0 M277.305 1477.97 L282.189 1477.97 L282.189 1483.85 L277.305 1483.85 L277.305 1477.97 Z" fill="#000000" fill-rule="evenodd" fill-opacity="1" /><path clip-path="url(#clip340)" d="M 0 0 M302.374 1452.37 Q298.763 1452.37 296.935 1455.94 Q295.129 1459.48 295.129 1466.61 Q295.129 1473.71 296.935 1477.28 Q298.763 1480.82 302.374 1480.82 Q306.009 1480.82 307.814 1477.28 Q309.643 1473.71 309.643 1466.61 Q309.643 1459.48 307.814 1455.94 Q306.009 1452.37 302.374 1452.37 M302.374 1448.67 Q308.184 1448.67 311.24 1453.27 Q314.319 1457.86 314.319 1466.61 Q314.319 1475.33 311.24 1479.94 Q308.184 1484.52 302.374 1484.52 Q296.564 1484.52 293.485 1479.94 Q290.43 1475.33 290.43 1466.61 Q290.43 1457.86 293.485 1453.27 Q296.564 1448.67 302.374 1448.67 Z" fill="#000000" fill-rule="evenodd" fill-opacity="1" /><path clip-path="url(#clip340)" d="M 0 0 M760.795 1452.37 Q757.184 1452.37 755.356 1455.94 Q753.55 1459.48 753.55 1466.61 Q753.55 1473.71 755.356 1477.28 Q757.184 1480.82 760.795 1480.82 Q764.43 1480.82 766.235 1477.28 Q768.064 1473.71 768.064 1466.61 Q768.064 1459.48 766.235 1455.94 Q764.43 1452.37 760.795 1452.37 M760.795 1448.67 Q766.606 1448.67 769.661 1453.27 Q772.74 1457.86 772.74 1466.61 Q772.74 1475.33 769.661 1479.94 Q766.606 1484.52 760.795 1484.52 Q754.985 1484.52 751.907 1479.94 Q748.851 1475.33 748.851 1466.61 Q748.851 1457.86 751.907 1453.27 Q754.985 1448.67 760.795 1448.67 Z" fill="#000000" fill-rule="evenodd" fill-opacity="1" /><path clip-path="url(#clip340)" d="M 0 0 M780.957 1477.97 L785.842 1477.97 L785.842 1483.85 L780.957 1483.85 L780.957 1477.97 Z" fill="#000000" fill-rule="evenodd" fill-opacity="1" /><path clip-path="url(#clip340)" d="M 0 0 M796.073 1449.29 L814.429 1449.29 L814.429 1453.23 L800.355 1453.23 L800.355 1461.7 Q801.374 1461.35 802.392 1461.19 Q803.411 1461 804.429 1461 Q810.216 1461 813.596 1464.18 Q816.976 1467.35 816.976 1472.76 Q816.976 1478.34 813.503 1481.44 Q810.031 1484.52 803.712 1484.52 Q801.536 1484.52 799.267 1484.15 Q797.022 1483.78 794.615 1483.04 L794.615 1478.34 Q796.698 1479.48 798.92 1480.03 Q801.142 1480.59 803.619 1480.59 Q807.624 1480.59 809.962 1478.48 Q812.3 1476.38 812.3 1472.76 Q812.3 1469.15 809.962 1467.05 Q807.624 1464.94 803.619 1464.94 Q801.744 1464.94 799.869 1465.36 Q798.017 1465.77 796.073 1466.65 L796.073 1449.29 Z" fill="#000000" fill-rule="evenodd" fill-opacity="1" /><path clip-path="url(#clip340)" d="M 0 0 M1253.22 1479.92 L1260.86 1479.92 L1260.86 1453.55 L1252.55 1455.22 L1252.55 1450.96 L1260.81 1449.29 L1265.49 1449.29 L1265.49 1479.92 L1273.13 1479.92 L1273.13 1483.85 L1253.22 1483.85 L1253.22 1479.92 Z" fill="#000000" fill-rule="evenodd" fill-opacity="1" /><path clip-path="url(#clip340)" d="M 0 0 M1282.57 1477.97 L1287.46 1477.97 L1287.46 1483.85 L1282.57 1483.85 L1282.57 1477.97 Z" fill="#000000" fill-rule="evenodd" fill-opacity="1" /><path clip-path="url(#clip340)" d="M 0 0 M1307.64 1452.37 Q1304.03 1452.37 1302.2 1455.94 Q1300.4 1459.48 1300.4 1466.61 Q1300.4 1473.71 1302.2 1477.28 Q1304.03 1480.82 1307.64 1480.82 Q1311.28 1480.82 1313.08 1477.28 Q1314.91 1473.71 1314.91 1466.61 Q1314.91 1459.48 1313.08 1455.94 Q1311.28 1452.37 1307.64 1452.37 M1307.64 1448.67 Q1313.45 1448.67 1316.51 1453.27 Q1319.59 1457.86 1319.59 1466.61 Q1319.59 1475.33 1316.51 1479.94 Q1313.45 1484.52 1307.64 1484.52 Q1301.83 1484.52 1298.75 1479.94 Q1295.7 1475.33 1295.7 1466.61 Q1295.7 1457.86 1298.75 1453.27 Q1301.83 1448.67 1307.64 1448.67 Z" fill="#000000" fill-rule="evenodd" fill-opacity="1" /><path clip-path="url(#clip340)" d="M 0 0 M1756.87 1479.92 L1764.51 1479.92 L1764.51 1453.55 L1756.2 1455.22 L1756.2 1450.96 L1764.47 1449.29 L1769.14 1449.29 L1769.14 1479.92 L1776.78 1479.92 L1776.78 1483.85 L1756.87 1483.85 L1756.87 1479.92 Z" fill="#000000" fill-rule="evenodd" fill-opacity="1" /><path clip-path="url(#clip340)" d="M 0 0 M1786.23 1477.97 L1791.11 1477.97 L1791.11 1483.85 L1786.23 1483.85 L1786.23 1477.97 Z" fill="#000000" fill-rule="evenodd" fill-opacity="1" /><path clip-path="url(#clip340)" d="M 0 0 M1801.34 1449.29 L1819.7 1449.29 L1819.7 1453.23 L1805.62 1453.23 L1805.62 1461.7 Q1806.64 1461.35 1807.66 1461.19 Q1808.68 1461 1809.7 1461 Q1815.48 1461 1818.86 1464.18 Q1822.24 1467.35 1822.24 1472.76 Q1822.24 1478.34 1818.77 1481.44 Q1815.3 1484.52 1808.98 1484.52 Q1806.8 1484.52 1804.54 1484.15 Q1802.29 1483.78 1799.88 1483.04 L1799.88 1478.34 Q1801.97 1479.48 1804.19 1480.03 Q1806.41 1480.59 1808.89 1480.59 Q1812.89 1480.59 1815.23 1478.48 Q1817.57 1476.38 1817.57 1472.76 Q1817.57 1469.15 1815.23 1467.05 Q1812.89 1464.94 1808.89 1464.94 Q1807.01 1464.94 1805.14 1465.36 Q1803.29 1465.77 1801.34 1466.65 L1801.34 1449.29 Z" fill="#000000" fill-rule="evenodd" fill-opacity="1" /><path clip-path="url(#clip340)" d="M 0 0 M2263.62 1479.92 L2279.94 1479.92 L2279.94 1483.85 L2257.99 1483.85 L2257.99 1479.92 Q2260.65 1477.16 2265.24 1472.53 Q2269.84 1467.88 2271.02 1466.54 Q2273.27 1464.01 2274.15 1462.28 Q2275.05 1460.52 2275.05 1458.83 Q2275.05 1456.07 2273.11 1454.34 Q2271.19 1452.6 2268.08 1452.6 Q2265.88 1452.6 2263.43 1453.37 Q2261 1454.13 2258.22 1455.68 L2258.22 1450.96 Q2261.05 1449.82 2263.5 1449.25 Q2265.95 1448.67 2267.99 1448.67 Q2273.36 1448.67 2276.56 1451.35 Q2279.75 1454.04 2279.75 1458.53 Q2279.75 1460.66 2278.94 1462.58 Q2278.15 1464.48 2276.05 1467.07 Q2275.47 1467.74 2272.37 1470.96 Q2269.26 1474.15 2263.62 1479.92 Z" fill="#000000" fill-rule="evenodd" fill-opacity="1" /><path clip-path="url(#clip340)" d="M 0 0 M2289.75 1477.97 L2294.63 1477.97 L2294.63 1483.85 L2289.75 1483.85 L2289.75 1477.97 Z" fill="#000000" fill-rule="evenodd" fill-opacity="1" /><path clip-path="url(#clip340)" d="M 0 0 M2314.82 1452.37 Q2311.21 1452.37 2309.38 1455.94 Q2307.57 1459.48 2307.57 1466.61 Q2307.57 1473.71 2309.38 1477.28 Q2311.21 1480.82 2314.82 1480.82 Q2318.45 1480.82 2320.26 1477.28 Q2322.09 1473.71 2322.09 1466.61 Q2322.09 1459.48 2320.26 1455.94 Q2318.45 1452.37 2314.82 1452.37 M2314.82 1448.67 Q2320.63 1448.67 2323.69 1453.27 Q2326.76 1457.86 2326.76 1466.61 Q2326.76 1475.33 2323.69 1479.94 Q2320.63 1484.52 2314.82 1484.52 Q2309.01 1484.52 2305.93 1479.94 Q2302.87 1475.33 2302.87 1466.61 Q2302.87 1457.86 2305.93 1453.27 Q2309.01 1448.67 2314.82 1448.67 Z" fill="#000000" fill-rule="evenodd" fill-opacity="1" /><path clip-path="url(#clip340)" d="M 0 0 M1285.13 1522.27 L1285.13 1532.4 L1297.19 1532.4 L1297.19 1536.95 L1285.13 1536.95 L1285.13 1556.3 Q1285.13 1560.66 1286.31 1561.9 Q1287.52 1563.14 1291.18 1563.14 L1297.19 1563.14 L1297.19 1568.04 L1291.18 1568.04 Q1284.4 1568.04 1281.82 1565.53 Q1279.24 1562.98 1279.24 1556.3 L1279.24 1536.95 L1274.94 1536.95 L1274.94 1532.4 L1279.24 1532.4 L1279.24 1522.27 L1285.13 1522.27 Z" fill="#000000" fill-rule="evenodd" fill-opacity="1" /><polyline clip-path="url(#clip342)" style="stroke:#000000; stroke-width:2; stroke-opacity:0.1; fill:none" points="
  219.38,1385.4 2352.76,1385.4 
  "/>
<polyline clip-path="url(#clip342)" style="stroke:#000000; stroke-width:2; stroke-opacity:0.1; fill:none" points="
  219.38,1029.8 2352.76,1029.8 
  "/>
<polyline clip-path="url(#clip342)" style="stroke:#000000; stroke-width:2; stroke-opacity:0.1; fill:none" points="
  219.38,674.203 2352.76,674.203 
  "/>
<polyline clip-path="url(#clip342)" style="stroke:#000000; stroke-width:2; stroke-opacity:0.1; fill:none" points="
  219.38,318.605 2352.76,318.605 
  "/>
<polyline clip-path="url(#clip340)" style="stroke:#000000; stroke-width:4; stroke-opacity:1; fill:none" points="
  219.38,1423.18 219.38,47.2441 
  "/>
<polyline clip-path="url(#clip340)" style="stroke:#000000; stroke-width:4; stroke-opacity:1; fill:none" points="
  219.38,1385.4 244.981,1385.4 
  "/>
<polyline clip-path="url(#clip340)" style="stroke:#000000; stroke-width:4; stroke-opacity:1; fill:none" points="
  219.38,1029.8 244.981,1029.8 
  "/>
<polyline clip-path="url(#clip340)" style="stroke:#000000; stroke-width:4; stroke-opacity:1; fill:none" points="
  219.38,674.203 244.981,674.203 
  "/>
<polyline clip-path="url(#clip340)" style="stroke:#000000; stroke-width:4; stroke-opacity:1; fill:none" points="
  219.38,318.605 244.981,318.605 
  "/>
<path clip-path="url(#clip340)" d="M 0 0 M126.205 1371.2 Q122.593 1371.2 120.765 1374.76 Q118.959 1378.31 118.959 1385.44 Q118.959 1392.54 120.765 1396.11 Q122.593 1399.65 126.205 1399.65 Q129.839 1399.65 131.644 1396.11 Q133.473 1392.54 133.473 1385.44 Q133.473 1378.31 131.644 1374.76 Q129.839 1371.2 126.205 1371.2 M126.205 1367.5 Q132.015 1367.5 135.07 1372.1 Q138.149 1376.69 138.149 1385.44 Q138.149 1394.16 135.07 1398.77 Q132.015 1403.35 126.205 1403.35 Q120.394 1403.35 117.316 1398.77 Q114.26 1394.16 114.26 1385.44 Q114.26 1376.69 117.316 1372.1 Q120.394 1367.5 126.205 1367.5 Z" fill="#000000" fill-rule="evenodd" fill-opacity="1" /><path clip-path="url(#clip340)" d="M 0 0 M146.366 1396.8 L151.251 1396.8 L151.251 1402.68 L146.366 1402.68 L146.366 1396.8 Z" fill="#000000" fill-rule="evenodd" fill-opacity="1" /><path clip-path="url(#clip340)" d="M 0 0 M171.436 1371.2 Q167.825 1371.2 165.996 1374.76 Q164.19 1378.31 164.19 1385.44 Q164.19 1392.54 165.996 1396.11 Q167.825 1399.65 171.436 1399.65 Q175.07 1399.65 176.876 1396.11 Q178.704 1392.54 178.704 1385.44 Q178.704 1378.31 176.876 1374.76 Q175.07 1371.2 171.436 1371.2 M171.436 1367.5 Q177.246 1367.5 180.301 1372.1 Q183.38 1376.69 183.38 1385.44 Q183.38 1394.16 180.301 1398.77 Q177.246 1403.35 171.436 1403.35 Q165.626 1403.35 162.547 1398.77 Q159.491 1394.16 159.491 1385.44 Q159.491 1376.69 162.547 1372.1 Q165.626 1367.5 171.436 1367.5 Z" fill="#000000" fill-rule="evenodd" fill-opacity="1" /><path clip-path="url(#clip340)" d="M 0 0 M127.2 1015.6 Q123.589 1015.6 121.76 1019.17 Q119.955 1022.71 119.955 1029.84 Q119.955 1036.94 121.76 1040.51 Q123.589 1044.05 127.2 1044.05 Q130.834 1044.05 132.64 1040.51 Q134.468 1036.94 134.468 1029.84 Q134.468 1022.71 132.64 1019.17 Q130.834 1015.6 127.2 1015.6 M127.2 1011.9 Q133.01 1011.9 136.066 1016.5 Q139.144 1021.09 139.144 1029.84 Q139.144 1038.56 136.066 1043.17 Q133.01 1047.75 127.2 1047.75 Q121.39 1047.75 118.311 1043.17 Q115.256 1038.56 115.256 1029.84 Q115.256 1021.09 118.311 1016.5 Q121.39 1011.9 127.2 1011.9 Z" fill="#000000" fill-rule="evenodd" fill-opacity="1" /><path clip-path="url(#clip340)" d="M 0 0 M147.362 1041.2 L152.246 1041.2 L152.246 1047.08 L147.362 1047.08 L147.362 1041.2 Z" fill="#000000" fill-rule="evenodd" fill-opacity="1" /><path clip-path="url(#clip340)" d="M 0 0 M162.477 1012.52 L180.834 1012.52 L180.834 1016.46 L166.76 1016.46 L166.76 1024.93 Q167.778 1024.58 168.797 1024.42 Q169.815 1024.24 170.834 1024.24 Q176.621 1024.24 180.001 1027.41 Q183.38 1030.58 183.38 1035.99 Q183.38 1041.57 179.908 1044.67 Q176.436 1047.75 170.116 1047.75 Q167.94 1047.75 165.672 1047.38 Q163.427 1047.01 161.019 1046.27 L161.019 1041.57 Q163.102 1042.71 165.325 1043.26 Q167.547 1043.82 170.024 1043.82 Q174.028 1043.82 176.366 1041.71 Q178.704 1039.61 178.704 1035.99 Q178.704 1032.38 176.366 1030.28 Q174.028 1028.17 170.024 1028.17 Q168.149 1028.17 166.274 1028.59 Q164.422 1029 162.477 1029.88 L162.477 1012.52 Z" fill="#000000" fill-rule="evenodd" fill-opacity="1" /><path clip-path="url(#clip340)" d="M 0 0 M117.015 687.548 L124.654 687.548 L124.654 661.183 L116.343 662.849 L116.343 658.59 L124.607 656.923 L129.283 656.923 L129.283 687.548 L136.922 687.548 L136.922 691.483 L117.015 691.483 L117.015 687.548 Z" fill="#000000" fill-rule="evenodd" fill-opacity="1" /><path clip-path="url(#clip340)" d="M 0 0 M146.366 685.604 L151.251 685.604 L151.251 691.483 L146.366 691.483 L146.366 685.604 Z" fill="#000000" fill-rule="evenodd" fill-opacity="1" /><path clip-path="url(#clip340)" d="M 0 0 M171.436 660.002 Q167.825 660.002 165.996 663.567 Q164.19 667.109 164.19 674.238 Q164.19 681.345 165.996 684.909 Q167.825 688.451 171.436 688.451 Q175.07 688.451 176.876 684.909 Q178.704 681.345 178.704 674.238 Q178.704 667.109 176.876 663.567 Q175.07 660.002 171.436 660.002 M171.436 656.298 Q177.246 656.298 180.301 660.905 Q183.38 665.488 183.38 674.238 Q183.38 682.965 180.301 687.571 Q177.246 692.155 171.436 692.155 Q165.626 692.155 162.547 687.571 Q159.491 682.965 159.491 674.238 Q159.491 665.488 162.547 660.905 Q165.626 656.298 171.436 656.298 Z" fill="#000000" fill-rule="evenodd" fill-opacity="1" /><path clip-path="url(#clip340)" d="M 0 0 M118.01 331.95 L125.649 331.95 L125.649 305.584 L117.339 307.251 L117.339 302.991 L125.603 301.325 L130.279 301.325 L130.279 331.95 L137.917 331.95 L137.917 335.885 L118.01 335.885 L118.01 331.95 Z" fill="#000000" fill-rule="evenodd" fill-opacity="1" /><path clip-path="url(#clip340)" d="M 0 0 M147.362 330.005 L152.246 330.005 L152.246 335.885 L147.362 335.885 L147.362 330.005 Z" fill="#000000" fill-rule="evenodd" fill-opacity="1" /><path clip-path="url(#clip340)" d="M 0 0 M162.477 301.325 L180.834 301.325 L180.834 305.26 L166.76 305.26 L166.76 313.732 Q167.778 313.385 168.797 313.223 Q169.815 313.038 170.834 313.038 Q176.621 313.038 180.001 316.209 Q183.38 319.38 183.38 324.797 Q183.38 330.376 179.908 333.477 Q176.436 336.556 170.116 336.556 Q167.94 336.556 165.672 336.186 Q163.427 335.815 161.019 335.075 L161.019 330.376 Q163.102 331.51 165.325 332.065 Q167.547 332.621 170.024 332.621 Q174.028 332.621 176.366 330.514 Q178.704 328.408 178.704 324.797 Q178.704 321.186 176.366 319.079 Q174.028 316.973 170.024 316.973 Q168.149 316.973 166.274 317.389 Q164.422 317.806 162.477 318.686 L162.477 301.325 Z" fill="#000000" fill-rule="evenodd" fill-opacity="1" /><path clip-path="url(#clip340)" d="M 0 0 M67.3143 769.905 Q73.68 772.388 75.6216 774.743 Q77.5631 777.098 77.5631 781.045 L77.5631 785.724 L72.6615 785.724 L72.6615 782.286 Q72.6615 779.867 71.5157 778.531 Q70.3699 777.194 66.1048 775.571 L63.4312 774.52 L28.3562 788.939 L28.3562 782.732 L56.238 771.592 L28.3562 760.452 L28.3562 754.245 L67.3143 769.905 Z" fill="#000000" fill-rule="evenodd" fill-opacity="1" /><path clip-path="url(#clip340)" d="M 0 0 M14.5426 732.093 Q21.8632 736.358 29.0246 738.427 Q36.186 740.496 43.5384 740.496 Q50.8908 740.496 58.1159 738.427 Q65.3091 736.326 72.5979 732.093 L72.5979 737.185 Q65.1182 741.96 57.8931 744.347 Q50.668 746.702 43.5384 746.702 Q36.4406 746.702 29.2474 744.347 Q22.0542 741.991 14.5426 737.185 L14.5426 732.093 Z" fill="#000000" fill-rule="evenodd" fill-opacity="1" /><path clip-path="url(#clip340)" d="M 0 0 M18.2347 714.937 L28.3562 714.937 L28.3562 702.874 L32.9077 702.874 L32.9077 714.937 L52.2594 714.937 Q56.6199 714.937 57.8613 713.76 Q59.1026 712.55 59.1026 708.89 L59.1026 702.874 L64.0042 702.874 L64.0042 708.89 Q64.0042 715.669 61.4897 718.247 Q58.9434 720.825 52.2594 720.825 L32.9077 720.825 L32.9077 725.122 L28.3562 725.122 L28.3562 720.825 L18.2347 720.825 L18.2347 714.937 Z" fill="#000000" fill-rule="evenodd" fill-opacity="1" /><path clip-path="url(#clip340)" d="M 0 0 M14.5426 696.095 L14.5426 691.002 Q22.0542 686.228 29.2474 683.873 Q36.4406 681.485 43.5384 681.485 Q50.668 681.485 57.8931 683.873 Q65.1182 686.228 72.5979 691.002 L72.5979 696.095 Q65.3091 691.862 58.1159 689.793 Q50.8908 687.692 43.5384 687.692 Q36.186 687.692 29.0246 689.793 Q21.8632 691.862 14.5426 696.095 Z" fill="#000000" fill-rule="evenodd" fill-opacity="1" /><polyline clip-path="url(#clip342)" style="stroke:#009af9; stroke-width:8; stroke-opacity:1; fill:none" points="
  289.872,1368.72 299.986,1320 310.1,1242.32 320.213,1140.04 330.327,1018.56 340.441,884.044 350.554,743.104 360.668,602.512 370.782,468.84 380.895,348.154 
  391.009,245.837 401.123,166.153 411.236,112.304 421.35,86.1857 431.464,88.3352 441.577,117.913 451.691,172.869 461.805,250.053 471.918,345.264 482.032,453.467 
  492.146,569.497 502.259,687.67 512.373,802.286 522.487,908.114 532.6,1000.46 542.714,1075.27 552.828,1129.51 562.941,1161.28 573.055,1169.6 583.169,1154.38 
  593.282,1117.19 603.396,1060.28 613.51,986.783 623.623,900.52 633.737,805.917 643.851,707.666 653.964,610.204 664.078,518.498 674.192,436.176 684.305,366.962 
  694.419,314.462 704.532,279.699 714.646,264.684 724.76,269.297 734.873,292.768 744.987,333.481 755.101,388.877 765.214,457.103 775.328,533.489 785.442,614.725 
  795.555,697.013 805.669,775.744 815.783,848.362 825.896,910.557 836.01,960.763 846.124,996.262 856.237,1015.95 866.351,1019.55 876.465,1005.82 886.578,978.121 
  896.692,936.426 906.806,883.841 916.919,822.918 927.033,756.248 937.147,687.658 947.26,620.233 957.374,557.991 967.488,501.08 977.601,454.87 987.715,419.829 
  997.829,398.013 1007.94,389.851 1018.06,394.933 1028.17,413.039 1038.28,443.106 1048.4,484.114 1058.51,532.212 1068.62,586.204 1078.74,642.848 1088.85,699.147 
  1098.97,753.077 1109.08,804.021 1119.19,846.332 1129.31,879.134 1139.42,902.997 1149.53,914.416 1159.65,914.289 1169.76,904.541 1179.87,882.81 1189.99,853.573 
  1200.1,814.996 1210.22,772.329 1220.33,723.446 1230.44,676.514 1240.56,629.677 1250.67,587.684 1260.78,548.926 1270.9,518.264 1281.01,495.08 1291.12,481.563 
  1301.24,477.95 1311.35,482.781 1321.47,496.729 1331.58,518.031 1341.69,547.619 1351.81,581.86 1361.92,620.967 1372.03,658.443 1382.15,699.816 1392.26,735.875 
  1402.38,769.86 1412.49,798.505 1422.6,822.027 1432.72,836.04 1442.83,842.923 1452.94,843.215 1463.06,832.141 1473.17,816.594 1483.28,795.804 1493.4,768.799 
  1503.51,737.941 1513.63,705.243 1523.74,671.113 1533.85,640.435 1543.97,610.72 1554.08,585.372 1564.19,563.15 1574.31,548.961 1584.42,538.644 1594.53,538.163 
  1604.65,543.593 1614.76,553.333 1624.88,569.418 1634.99,592.524 1645.1,615.55 1655.22,640.972 1665.33,669.608 1675.44,696.92 1685.56,721.929 1695.67,745.332 
  1705.78,764.252 1715.9,779.645 1726.01,789.256 1736.13,793.926 1746.24,791.085 1756.35,785.164 1766.47,773.8 1776.58,757.393 1786.69,737.279 1796.81,716.515 
  1806.92,692.415 1817.04,671.997 1827.15,650.342 1837.26,629.338 1847.38,611.704 1857.49,597.968 1867.6,587.977 1877.72,582.382 1887.83,579.502 1897.94,583.811 
  1908.06,593.662 1918.17,602.776 1928.29,619.183 1938.4,638.323 1948.51,656.216 1958.63,676.24 1968.74,694.826 1978.85,711.542 1988.97,729.84 1999.08,742.149 
  2009.19,747.839 2019.31,756.719 2029.42,757.657 2039.54,756.262 2049.65,749.205 2059.76,744.362 2069.88,731.931 2079.99,717.757 2090.1,703.384 2100.22,688.703 
  2110.33,671.405 2120.45,655.467 2130.56,641.499 2140.67,631.349 2150.79,624.392 2160.9,610.627 2171.01,608.869 2181.13,609.285 2191.24,613.822 2201.35,617.534 
  2211.47,629.313 2221.58,639.591 2231.7,650.52 2241.81,663.204 2251.92,678.573 2262.04,691.225 2272.15,701.6 2282.26,713.58 2292.38,722.376 
  "/>
<polyline clip-path="url(#clip342)" style="stroke:#e26f46; stroke-width:8; stroke-opacity:1; fill:none" points="
  289.872,1384.24 299.986,1380.79 310.1,1375.13 320.213,1367.33 330.327,1357.47 340.441,1345.63 350.554,1331.9 360.668,1316.38 370.782,1299.16 380.895,1280.34 
  391.009,1260.02 401.123,1238.31 411.236,1215.32 421.35,1191.16 431.464,1165.93 441.577,1139.75 451.691,1112.72 461.805,1084.97 471.918,1056.6 482.032,1027.71 
  492.146,998.437 502.259,968.87 512.373,939.116 522.487,909.279 532.6,879.467 542.714,849.773 552.828,820.299 562.941,791.144 573.055,762.398 583.169,734.122 
  593.282,706.425 603.396,679.376 613.51,653.053 623.623,627.523 633.737,602.859 643.851,579.122 653.964,556.353 664.078,534.634 674.192,513.977 684.305,494.423 
  694.419,476.072 704.532,458.874 714.646,442.919 724.76,428.208 734.873,414.756 744.987,402.568 755.101,391.638 765.214,382.055 775.328,373.729 785.442,366.698 
  795.555,360.959 805.669,356.445 815.783,353.217 825.896,351.173 836.01,350.375 846.124,350.753 856.237,352.279 866.351,354.94 876.465,358.592 886.578,363.368 
  896.692,369.093 906.806,375.802 916.919,383.416 927.033,391.859 937.147,401.126 947.26,411.154 957.374,421.946 967.488,433.255 977.601,445.245 987.715,457.752 
  997.829,470.779 1007.94,484.232 1018.06,498.049 1028.17,512.162 1038.28,526.559 1048.4,541.221 1058.51,555.97 1068.62,570.837 1078.74,585.74 1088.85,600.584 
  1098.97,615.403 1109.08,630.28 1119.19,644.898 1129.31,659.273 1139.42,673.521 1149.53,687.377 1159.65,700.909 1169.76,714.235 1179.87,727.017 1189.99,739.505 
  1200.1,751.387 1210.22,762.912 1220.33,773.672 1230.44,784.175 1240.56,794.027 1250.67,803.437 1260.78,812.079 1270.9,820.215 1281.01,827.664 1291.12,834.551 
  1301.24,840.834 1311.35,846.374 1321.47,851.302 1331.58,855.481 1341.69,859.192 1351.81,862.169 1361.92,864.63 1372.03,866.156 1382.15,867.462 1392.26,867.834 
  1402.38,867.769 1412.49,867.109 1422.6,866.058 1432.72,864.189 1442.83,861.92 1452.94,859.239 1463.06,855.745 1473.17,852.062 1483.28,848.015 1493.4,843.465 
  1503.51,838.492 1513.63,833.16 1523.74,827.437 1533.85,821.648 1543.97,815.444 1554.08,809.022 1564.19,802.216 1574.31,795.399 1584.42,788.197 1594.53,781.224 
  1604.65,774.032 1614.76,766.542 1624.88,759.132 1634.99,751.898 1645.1,744.301 1655.22,736.733 1665.33,729.415 1675.44,722.108 1685.56,714.814 1695.67,707.721 
  1705.78,700.749 1715.9,693.968 1726.01,687.355 1736.13,680.941 1746.24,674.566 1756.35,668.677 1766.47,662.907 1776.58,657.294 1786.69,651.913 1796.81,647.07 
  1806.92,642.226 1817.04,638.156 1827.15,634.106 1837.26,630.197 1847.38,626.698 1857.49,623.578 1867.6,620.685 1877.72,618.187 1887.83,615.673 1897.94,613.886 
  1908.06,612.617 1918.17,610.948 1928.29,610.234 1938.4,609.862 1948.51,609.444 1958.63,609.527 1968.74,609.769 1978.85,610.203 1988.97,611.352 1999.08,612.343 
  2009.19,613.145 2019.31,615.165 2029.42,616.736 2039.54,618.816 2049.65,620.858 2059.76,623.83 2069.88,626.337 2079.99,629.034 2090.1,632.086 2100.22,635.343 
  2110.33,638.334 2120.45,641.606 2130.56,645.023 2140.67,648.686 2150.79,652.676 2160.9,655.197 2171.01,659.169 2181.13,662.858 2191.24,666.804 2201.35,670.282 
  2211.47,674.47 2221.58,678.072 2231.7,681.497 2241.81,685.122 2251.92,688.978 2262.04,692.39 2272.15,695.5 2282.26,699.03 2292.38,702.328 
  "/>
<polyline clip-path="url(#clip342)" style="stroke:#3da44d; stroke-width:4; stroke-opacity:1; fill:none" points="
  -1914,674.203 4486.13,674.203 
  "/>
<path clip-path="url(#clip340)" d="
M1832.36 335.029 L2281.64 335.029 L2281.64 93.1086 L1832.36 93.1086  Z
  " fill="#ffffff" fill-rule="evenodd" fill-opacity="1"/>
<polyline clip-path="url(#clip340)" style="stroke:#000000; stroke-width:4; stroke-opacity:1; fill:none" points="
  1832.36,335.029 2281.64,335.029 2281.64,93.1086 1832.36,93.1086 1832.36,335.029 
  "/>
<polyline clip-path="url(#clip340)" style="stroke:#009af9; stroke-width:4; stroke-opacity:1; fill:none" points="
  1856.06,153.589 1998.29,153.589 
  "/>
<path clip-path="url(#clip340)" d="M 0 0 M2042.34 149.92 Q2043.94 147.049 2046.16 145.684 Q2048.38 144.318 2051.39 144.318 Q2055.44 144.318 2057.64 147.165 Q2059.84 149.989 2059.84 155.221 L2059.84 170.869 L2055.56 170.869 L2055.56 155.359 Q2055.56 151.633 2054.24 149.827 Q2052.92 148.022 2050.21 148.022 Q2046.9 148.022 2044.98 150.221 Q2043.06 152.42 2043.06 156.216 L2043.06 170.869 L2038.77 170.869 L2038.77 155.359 Q2038.77 151.609 2037.45 149.827 Q2036.13 148.022 2033.38 148.022 Q2030.12 148.022 2028.19 150.244 Q2026.27 152.443 2026.27 156.216 L2026.27 170.869 L2021.99 170.869 L2021.99 144.943 L2026.27 144.943 L2026.27 148.971 Q2027.73 146.586 2029.77 145.452 Q2031.81 144.318 2034.61 144.318 Q2037.43 144.318 2039.4 145.753 Q2041.39 147.188 2042.34 149.92 Z" fill="#000000" fill-rule="evenodd" fill-opacity="1" /><path clip-path="url(#clip340)" d="M 0 0 M2068.33 144.943 L2072.59 144.943 L2072.59 170.869 L2068.33 170.869 L2068.33 144.943 M2068.33 134.85 L2072.59 134.85 L2072.59 140.244 L2068.33 140.244 L2068.33 134.85 Z" fill="#000000" fill-rule="evenodd" fill-opacity="1" /><path clip-path="url(#clip340)" d="M 0 0 M2103.06 155.221 L2103.06 170.869 L2098.8 170.869 L2098.8 155.359 Q2098.8 151.679 2097.36 149.85 Q2095.93 148.022 2093.06 148.022 Q2089.61 148.022 2087.62 150.221 Q2085.62 152.42 2085.62 156.216 L2085.62 170.869 L2081.34 170.869 L2081.34 144.943 L2085.62 144.943 L2085.62 148.971 Q2087.15 146.633 2089.21 145.475 Q2091.3 144.318 2094 144.318 Q2098.47 144.318 2100.76 147.096 Q2103.06 149.85 2103.06 155.221 Z" fill="#000000" fill-rule="evenodd" fill-opacity="1" /><path clip-path="url(#clip340)" d="M 0 0 M2121.78 134.897 Q2118.68 140.221 2117.18 145.429 Q2115.67 150.637 2115.67 155.984 Q2115.67 161.332 2117.18 166.586 Q2118.7 171.818 2121.78 177.119 L2118.08 177.119 Q2114.61 171.679 2112.87 166.424 Q2111.16 161.17 2111.16 155.984 Q2111.16 150.822 2112.87 145.591 Q2114.58 140.36 2118.08 134.897 L2121.78 134.897 Z" fill="#000000" fill-rule="evenodd" fill-opacity="1" /><path clip-path="url(#clip340)" d="M 0 0 M2130.23 136.309 L2134.91 136.309 L2134.91 170.869 L2130.23 170.869 L2130.23 136.309 Z" fill="#000000" fill-rule="evenodd" fill-opacity="1" /><path clip-path="url(#clip340)" d="M 0 0 M2164.93 137.443 L2164.93 142.003 Q2162.27 140.73 2159.91 140.105 Q2157.55 139.48 2155.35 139.48 Q2151.53 139.48 2149.44 140.961 Q2147.38 142.443 2147.38 145.174 Q2147.38 147.466 2148.75 148.647 Q2150.14 149.804 2153.98 150.522 L2156.8 151.1 Q2162.04 152.096 2164.51 154.619 Q2167.01 157.119 2167.01 161.332 Q2167.01 166.355 2163.63 168.947 Q2160.28 171.54 2153.77 171.54 Q2151.32 171.54 2148.54 170.984 Q2145.79 170.429 2142.82 169.341 L2142.82 164.526 Q2145.67 166.123 2148.4 166.933 Q2151.13 167.744 2153.77 167.744 Q2157.78 167.744 2159.95 166.17 Q2162.13 164.596 2162.13 161.679 Q2162.13 159.133 2160.55 157.697 Q2159 156.262 2155.44 155.545 L2152.59 154.989 Q2147.36 153.947 2145.02 151.725 Q2142.68 149.503 2142.68 145.545 Q2142.68 140.961 2145.9 138.322 Q2149.14 135.684 2154.81 135.684 Q2157.24 135.684 2159.77 136.123 Q2162.29 136.563 2164.93 137.443 Z" fill="#000000" fill-rule="evenodd" fill-opacity="1" /><path clip-path="url(#clip340)" d="M 0 0 M2174.3 136.309 L2196.16 136.309 L2196.16 140.244 L2178.98 140.244 L2178.98 150.475 L2195.44 150.475 L2195.44 154.41 L2178.98 154.41 L2178.98 166.933 L2196.57 166.933 L2196.57 170.869 L2174.3 170.869 L2174.3 136.309 Z" fill="#000000" fill-rule="evenodd" fill-opacity="1" /><path clip-path="url(#clip340)" d="M 0 0 M2203.4 134.897 L2207.11 134.897 Q2210.58 140.36 2212.29 145.591 Q2214.03 150.822 2214.03 155.984 Q2214.03 161.17 2212.29 166.424 Q2210.58 171.679 2207.11 177.119 L2203.4 177.119 Q2206.48 171.818 2207.99 166.586 Q2209.51 161.332 2209.51 155.984 Q2209.51 150.637 2207.99 145.429 Q2206.48 140.221 2203.4 134.897 Z" fill="#000000" fill-rule="evenodd" fill-opacity="1" /><polyline clip-path="url(#clip340)" style="stroke:#e26f46; stroke-width:4; stroke-opacity:1; fill:none" points="
  1856.06,214.069 1998.29,214.069 
  "/>
<path clip-path="url(#clip340)" d="M 0 0 M2038.38 215.145 Q2039.88 215.654 2041.3 217.321 Q2042.73 218.988 2044.17 221.904 L2048.91 231.349 L2043.89 231.349 L2039.47 222.483 Q2037.75 219.011 2036.13 217.876 Q2034.54 216.742 2031.76 216.742 L2026.67 216.742 L2026.67 231.349 L2021.99 231.349 L2021.99 196.789 L2032.55 196.789 Q2038.47 196.789 2041.39 199.265 Q2044.31 201.742 2044.31 206.742 Q2044.31 210.006 2042.78 212.159 Q2041.27 214.312 2038.38 215.145 M2026.67 200.631 L2026.67 212.9 L2032.55 212.9 Q2035.93 212.9 2037.64 211.349 Q2039.37 209.775 2039.37 206.742 Q2039.37 203.71 2037.64 202.182 Q2035.93 200.631 2032.55 200.631 L2026.67 200.631 Z" fill="#000000" fill-rule="evenodd" fill-opacity="1" /><path clip-path="url(#clip340)" d="M 0 0 M2059.61 200.631 L2059.61 227.506 L2065.25 227.506 Q2072.41 227.506 2075.72 224.265 Q2079.05 221.025 2079.05 214.034 Q2079.05 207.089 2075.72 203.872 Q2072.41 200.631 2065.25 200.631 L2059.61 200.631 M2054.93 196.789 L2064.54 196.789 Q2074.58 196.789 2079.28 200.978 Q2083.98 205.145 2083.98 214.034 Q2083.98 222.969 2079.26 227.159 Q2074.54 231.349 2064.54 231.349 L2054.93 231.349 L2054.93 196.789 Z" fill="#000000" fill-rule="evenodd" fill-opacity="1" /><path clip-path="url(#clip340)" d="M 0 0 M2091.81 209.821 L2121.48 209.821 L2121.48 213.71 L2091.81 213.71 L2091.81 209.821 M2091.81 219.265 L2121.48 219.265 L2121.48 223.201 L2091.81 223.201 L2091.81 219.265 Z" fill="#000000" fill-rule="evenodd" fill-opacity="1" /><path clip-path="url(#clip340)" d="M 0 0 M2132.38 227.413 L2140.02 227.413 L2140.02 201.048 L2131.71 202.715 L2131.71 198.455 L2139.98 196.789 L2144.65 196.789 L2144.65 227.413 L2152.29 227.413 L2152.29 231.349 L2132.38 231.349 L2132.38 227.413 Z" fill="#000000" fill-rule="evenodd" fill-opacity="1" /><path clip-path="url(#clip340)" d="M 0 0 M2168.7 196.789 L2172.64 196.789 L2160.6 235.747 L2156.67 235.747 L2168.7 196.789 Z" fill="#000000" fill-rule="evenodd" fill-opacity="1" /><path clip-path="url(#clip340)" d="M 0 0 M2190.55 200.863 L2178.75 219.312 L2190.55 219.312 L2190.55 200.863 M2189.33 196.789 L2195.21 196.789 L2195.21 219.312 L2200.14 219.312 L2200.14 223.201 L2195.21 223.201 L2195.21 231.349 L2190.55 231.349 L2190.55 223.201 L2174.95 223.201 L2174.95 218.687 L2189.33 196.789 Z" fill="#000000" fill-rule="evenodd" fill-opacity="1" /><polyline clip-path="url(#clip340)" style="stroke:#3da44d; stroke-width:4; stroke-opacity:1; fill:none" points="
  1856.06,274.549 1998.29,274.549 
  "/>
<path clip-path="url(#clip340)" d="M 0 0 M2049.86 259.931 L2049.86 264.861 Q2047.5 262.662 2044.81 261.574 Q2042.15 260.486 2039.14 260.486 Q2033.22 260.486 2030.07 264.12 Q2026.92 267.732 2026.92 274.583 Q2026.92 281.412 2030.07 285.046 Q2033.22 288.657 2039.14 288.657 Q2042.15 288.657 2044.81 287.569 Q2047.5 286.481 2049.86 284.282 L2049.86 289.167 Q2047.41 290.833 2044.65 291.667 Q2041.92 292.5 2038.87 292.5 Q2031.02 292.5 2026.5 287.708 Q2021.99 282.893 2021.99 274.583 Q2021.99 266.25 2026.5 261.458 Q2031.02 256.644 2038.87 256.644 Q2041.97 256.644 2044.7 257.477 Q2047.45 258.287 2049.86 259.931 Z" fill="#000000" fill-rule="evenodd" fill-opacity="1" /><path clip-path="url(#clip340)" d="M 0 0 M2066.94 268.889 Q2063.52 268.889 2061.53 271.574 Q2059.54 274.236 2059.54 278.889 Q2059.54 283.542 2061.5 286.227 Q2063.5 288.889 2066.94 288.889 Q2070.35 288.889 2072.34 286.204 Q2074.33 283.518 2074.33 278.889 Q2074.33 274.282 2072.34 271.597 Q2070.35 268.889 2066.94 268.889 M2066.94 265.278 Q2072.5 265.278 2075.67 268.889 Q2078.84 272.5 2078.84 278.889 Q2078.84 285.255 2075.67 288.889 Q2072.5 292.5 2066.94 292.5 Q2061.37 292.5 2058.19 288.889 Q2055.05 285.255 2055.05 278.889 Q2055.05 272.5 2058.19 268.889 Q2061.37 265.278 2066.94 265.278 Z" fill="#000000" fill-rule="evenodd" fill-opacity="1" /><path clip-path="url(#clip340)" d="M 0 0 M2107.45 276.181 L2107.45 291.829 L2103.19 291.829 L2103.19 276.319 Q2103.19 272.639 2101.76 270.81 Q2100.32 268.982 2097.45 268.982 Q2094 268.982 2092.01 271.181 Q2090.02 273.38 2090.02 277.176 L2090.02 291.829 L2085.74 291.829 L2085.74 265.903 L2090.02 265.903 L2090.02 269.931 Q2091.55 267.593 2093.61 266.435 Q2095.69 265.278 2098.4 265.278 Q2102.87 265.278 2105.16 268.056 Q2107.45 270.81 2107.45 276.181 Z" fill="#000000" fill-rule="evenodd" fill-opacity="1" /><path clip-path="url(#clip340)" d="M 0 0 M2132.48 266.667 L2132.48 270.694 Q2130.67 269.769 2128.73 269.306 Q2126.78 268.843 2124.7 268.843 Q2121.53 268.843 2119.93 269.815 Q2118.36 270.787 2118.36 272.731 Q2118.36 274.213 2119.49 275.069 Q2120.62 275.903 2124.05 276.667 L2125.51 276.991 Q2130.05 277.963 2131.94 279.745 Q2133.87 281.505 2133.87 284.676 Q2133.87 288.287 2130.99 290.393 Q2128.15 292.5 2123.15 292.5 Q2121.06 292.5 2118.8 292.083 Q2116.55 291.69 2114.05 290.88 L2114.05 286.481 Q2116.41 287.708 2118.7 288.333 Q2120.99 288.935 2123.24 288.935 Q2126.25 288.935 2127.87 287.917 Q2129.49 286.875 2129.49 285 Q2129.49 283.264 2128.31 282.338 Q2127.15 281.412 2123.19 280.556 L2121.71 280.208 Q2117.75 279.375 2115.99 277.662 Q2114.24 275.926 2114.24 272.917 Q2114.24 269.259 2116.83 267.269 Q2119.42 265.278 2124.19 265.278 Q2126.55 265.278 2128.63 265.625 Q2130.72 265.972 2132.48 266.667 Z" fill="#000000" fill-rule="evenodd" fill-opacity="1" /><path clip-path="url(#clip340)" d="M 0 0 M2140.65 265.903 L2144.91 265.903 L2144.91 291.829 L2140.65 291.829 L2140.65 265.903 M2140.65 255.81 L2144.91 255.81 L2144.91 261.204 L2140.65 261.204 L2140.65 255.81 Z" fill="#000000" fill-rule="evenodd" fill-opacity="1" /><path clip-path="url(#clip340)" d="M 0 0 M2170.88 278.565 Q2170.88 273.935 2168.96 271.389 Q2167.06 268.843 2163.61 268.843 Q2160.18 268.843 2158.26 271.389 Q2156.37 273.935 2156.37 278.565 Q2156.37 283.171 2158.26 285.718 Q2160.18 288.264 2163.61 288.264 Q2167.06 288.264 2168.96 285.718 Q2170.88 283.171 2170.88 278.565 M2175.14 288.611 Q2175.14 295.231 2172.2 298.449 Q2169.26 301.69 2163.19 301.69 Q2160.95 301.69 2158.96 301.342 Q2156.97 301.018 2155.09 300.324 L2155.09 296.18 Q2156.97 297.199 2158.8 297.685 Q2160.62 298.171 2162.52 298.171 Q2166.71 298.171 2168.8 295.972 Q2170.88 293.796 2170.88 289.375 L2170.88 287.268 Q2169.56 289.56 2167.5 290.694 Q2165.44 291.829 2162.57 291.829 Q2157.8 291.829 2154.88 288.194 Q2151.97 284.56 2151.97 278.565 Q2151.97 272.546 2154.88 268.912 Q2157.8 265.278 2162.57 265.278 Q2165.44 265.278 2167.5 266.412 Q2169.56 267.546 2170.88 269.838 L2170.88 265.903 L2175.14 265.903 L2175.14 288.611 Z" fill="#000000" fill-rule="evenodd" fill-opacity="1" /><path clip-path="url(#clip340)" d="M 0 0 M2205.46 276.181 L2205.46 291.829 L2201.2 291.829 L2201.2 276.319 Q2201.2 272.639 2199.77 270.81 Q2198.33 268.982 2195.46 268.982 Q2192.01 268.982 2190.02 271.181 Q2188.03 273.38 2188.03 277.176 L2188.03 291.829 L2183.75 291.829 L2183.75 265.903 L2188.03 265.903 L2188.03 269.931 Q2189.56 267.593 2191.62 266.435 Q2193.7 265.278 2196.41 265.278 Q2200.88 265.278 2203.17 268.056 Q2205.46 270.81 2205.46 276.181 Z" fill="#000000" fill-rule="evenodd" fill-opacity="1" /><path clip-path="url(#clip340)" d="M 0 0 M2225.74 278.796 Q2220.58 278.796 2218.59 279.977 Q2216.6 281.157 2216.6 284.005 Q2216.6 286.273 2218.08 287.616 Q2219.58 288.935 2222.15 288.935 Q2225.69 288.935 2227.82 286.435 Q2229.98 283.912 2229.98 279.745 L2229.98 278.796 L2225.74 278.796 M2234.24 277.037 L2234.24 291.829 L2229.98 291.829 L2229.98 287.893 Q2228.52 290.255 2226.34 291.389 Q2224.17 292.5 2221.02 292.5 Q2217.04 292.5 2214.67 290.278 Q2212.34 288.032 2212.34 284.282 Q2212.34 279.907 2215.25 277.685 Q2218.19 275.463 2224 275.463 L2229.98 275.463 L2229.98 275.046 Q2229.98 272.107 2228.03 270.509 Q2226.11 268.889 2222.61 268.889 Q2220.39 268.889 2218.29 269.421 Q2216.18 269.954 2214.24 271.019 L2214.24 267.083 Q2216.57 266.181 2218.77 265.741 Q2220.97 265.278 2223.05 265.278 Q2228.68 265.278 2231.46 268.194 Q2234.24 271.111 2234.24 277.037 Z" fill="#000000" fill-rule="evenodd" fill-opacity="1" /></svg>
