<?xml version="1.0" encoding="utf-8"?>
<svg xmlns="http://www.w3.org/2000/svg" xmlns:xlink="http://www.w3.org/1999/xlink" width="525" height="350" viewBox="0 0 2100 1400">
<defs>
  <clipPath id="clip000">
    <rect x="0" y="0" width="2100" height="1400"/>
  </clipPath>
</defs>
<path clip-path="url(#clip000)" d="
M0 1400 L2100 1400 L2100 0 L0 0  Z
  " fill="#ffffff" fill-rule="evenodd" fill-opacity="1"/>
<defs>
  <clipPath id="clip001">
    <rect x="420" y="0" width="1471" height="1400"/>
  </clipPath>
</defs>
<path clip-path="url(#clip000)" d="
M238.997 562.214 L2058.66 562.214 L2058.66 41.3386 L238.997 41.3386  Z
  " fill="#ffffff" fill-rule="evenodd" fill-opacity="1"/>
<defs>
  <clipPath id="clip002">
    <rect x="238" y="41" width="1821" height="522"/>
  </clipPath>
</defs>
<polyline clip-path="url(#clip002)" style="stroke:#000000; stroke-width:1.75; stroke-opacity:0.1; fill:none" points="
  290.497,562.214 290.497,41.3386 
  "/>
<polyline clip-path="url(#clip002)" style="stroke:#000000; stroke-width:1.75; stroke-opacity:0.1; fill:none" points="
  608.519,562.214 608.519,41.3386 
  "/>
<polyline clip-path="url(#clip002)" style="stroke:#000000; stroke-width:1.75; stroke-opacity:0.1; fill:none" points="
  926.542,562.214 926.542,41.3386 
  "/>
<polyline clip-path="url(#clip002)" style="stroke:#000000; stroke-width:1.75; stroke-opacity:0.1; fill:none" points="
  1244.56,562.214 1244.56,41.3386 
  "/>
<polyline clip-path="url(#clip002)" style="stroke:#000000; stroke-width:1.75; stroke-opacity:0.1; fill:none" points="
  1562.59,562.214 1562.59,41.3386 
  "/>
<polyline clip-path="url(#clip002)" style="stroke:#000000; stroke-width:1.75; stroke-opacity:0.1; fill:none" points="
  1880.61,562.214 1880.61,41.3386 
  "/>
<polyline clip-path="url(#clip000)" style="stroke:#000000; stroke-width:3.5; stroke-opacity:1; fill:none" points="
  238.997,562.214 2058.66,562.214 
  "/>
<polyline clip-path="url(#clip000)" style="stroke:#000000; stroke-width:3.5; stroke-opacity:1; fill:none" points="
  290.497,562.214 290.497,555.964 
  "/>
<polyline clip-path="url(#clip000)" style="stroke:#000000; stroke-width:3.5; stroke-opacity:1; fill:none" points="
  608.519,562.214 608.519,555.964 
  "/>
<polyline clip-path="url(#clip000)" style="stroke:#000000; stroke-width:3.5; stroke-opacity:1; fill:none" points="
  926.542,562.214 926.542,555.964 
  "/>
<polyline clip-path="url(#clip000)" style="stroke:#000000; stroke-width:3.5; stroke-opacity:1; fill:none" points="
  1244.56,562.214 1244.56,555.964 
  "/>
<polyline clip-path="url(#clip000)" style="stroke:#000000; stroke-width:3.5; stroke-opacity:1; fill:none" points="
  1562.59,562.214 1562.59,555.964 
  "/>
<polyline clip-path="url(#clip000)" style="stroke:#000000; stroke-width:3.5; stroke-opacity:1; fill:none" points="
  1880.61,562.214 1880.61,555.964 
  "/>
<path clip-path="url(#clip000)" d="M 0 0 M237.539 630.702 L244.223 630.702 L244.223 607.632 L236.951 609.091 L236.951 605.364 L244.182 603.906 L248.274 603.906 L248.274 630.702 L254.958 630.702 L254.958 634.146 L237.539 634.146 L237.539 630.702 Z" fill="#000000" fill-rule="evenodd" fill-opacity="1" /><path clip-path="url(#clip000)" d="M 0 0 M268.143 606.599 Q264.984 606.599 263.384 609.719 Q261.804 612.818 261.804 619.056 Q261.804 625.274 263.384 628.393 Q264.984 631.492 268.143 631.492 Q271.323 631.492 272.903 628.393 Q274.503 625.274 274.503 619.056 Q274.503 612.818 272.903 609.719 Q271.323 606.599 268.143 606.599 M268.143 603.359 Q273.227 603.359 275.901 607.389 Q278.595 611.4 278.595 619.056 Q278.595 626.692 275.901 630.723 Q273.227 634.733 268.143 634.733 Q263.06 634.733 260.366 630.723 Q257.692 626.692 257.692 619.056 Q257.692 611.4 260.366 607.389 Q263.06 603.359 268.143 603.359 Z" fill="#000000" fill-rule="evenodd" fill-opacity="1" /><path clip-path="url(#clip000)" d="M 0 0 M278.595 598.197 L299.692 598.197 L299.692 600.995 L278.595 600.995 L278.595 598.197 Z" fill="#000000" fill-rule="evenodd" fill-opacity="1" /><path clip-path="url(#clip000)" d="M 0 0 M306.16 607.364 L317.762 607.364 L317.762 610.162 L302.161 610.162 L302.161 607.364 Q304.053 605.406 307.312 602.114 Q310.587 598.806 311.426 597.852 Q313.022 596.058 313.648 594.824 Q314.29 593.573 314.29 592.372 Q314.29 590.413 312.907 589.179 Q311.541 587.945 309.336 587.945 Q307.773 587.945 306.028 588.488 Q304.3 589.031 302.325 590.134 L302.325 586.776 Q304.333 585.97 306.078 585.559 Q307.822 585.147 309.27 585.147 Q313.088 585.147 315.359 587.056 Q317.63 588.965 317.63 592.158 Q317.63 593.672 317.054 595.038 Q316.495 596.387 314.997 598.23 Q314.586 598.708 312.381 600.995 Q310.175 603.266 306.16 607.364 Z" fill="#000000" fill-rule="evenodd" fill-opacity="1" /><path clip-path="url(#clip000)" d="M 0 0 M321.366 605.981 L324.838 605.981 L324.838 610.162 L321.366 610.162 L321.366 605.981 Z" fill="#000000" fill-rule="evenodd" fill-opacity="1" /><path clip-path="url(#clip000)" d="M 0 0 M335.552 587.78 Q332.984 587.78 331.684 590.315 Q330.401 592.833 330.401 597.901 Q330.401 602.953 331.684 605.488 Q332.984 608.006 335.552 608.006 Q338.135 608.006 339.419 605.488 Q340.719 602.953 340.719 597.901 Q340.719 592.833 339.419 590.315 Q338.135 587.78 335.552 587.78 M335.552 585.147 Q339.682 585.147 341.855 588.422 Q344.043 591.681 344.043 597.901 Q344.043 604.105 341.855 607.38 Q339.682 610.639 335.552 610.639 Q331.421 610.639 329.232 607.38 Q327.06 604.105 327.06 597.901 Q327.06 591.681 329.232 588.422 Q331.421 585.147 335.552 585.147 Z" fill="#000000" fill-rule="evenodd" fill-opacity="1" /><path clip-path="url(#clip000)" d="M 0 0 M555.783 630.702 L562.467 630.702 L562.467 607.632 L555.196 609.091 L555.196 605.364 L562.427 603.906 L566.518 603.906 L566.518 630.702 L573.202 630.702 L573.202 634.146 L555.783 634.146 L555.783 630.702 Z" fill="#000000" fill-rule="evenodd" fill-opacity="1" /><path clip-path="url(#clip000)" d="M 0 0 M586.388 606.599 Q583.228 606.599 581.628 609.719 Q580.048 612.818 580.048 619.056 Q580.048 625.274 581.628 628.393 Q583.228 631.492 586.388 631.492 Q589.568 631.492 591.147 628.393 Q592.748 625.274 592.748 619.056 Q592.748 612.818 591.147 609.719 Q589.568 606.599 586.388 606.599 M586.388 603.359 Q591.472 603.359 594.145 607.389 Q596.839 611.4 596.839 619.056 Q596.839 626.692 594.145 630.723 Q591.472 634.733 586.388 634.733 Q581.304 634.733 578.61 630.723 Q575.936 626.692 575.936 619.056 Q575.936 611.4 578.61 607.389 Q581.304 603.359 586.388 603.359 Z" fill="#000000" fill-rule="evenodd" fill-opacity="1" /><path clip-path="url(#clip000)" d="M 0 0 M596.839 598.197 L617.937 598.197 L617.937 600.995 L596.839 600.995 L596.839 598.197 Z" fill="#000000" fill-rule="evenodd" fill-opacity="1" /><path clip-path="url(#clip000)" d="M 0 0 M622.117 607.364 L627.547 607.364 L627.547 588.62 L621.639 589.804 L621.639 586.776 L627.514 585.592 L630.839 585.592 L630.839 607.364 L636.269 607.364 L636.269 610.162 L622.117 610.162 L622.117 607.364 Z" fill="#000000" fill-rule="evenodd" fill-opacity="1" /><path clip-path="url(#clip000)" d="M 0 0 M639.873 605.981 L643.346 605.981 L643.346 610.162 L639.873 610.162 L639.873 605.981 Z" fill="#000000" fill-rule="evenodd" fill-opacity="1" /><path clip-path="url(#clip000)" d="M 0 0 M646.983 585.592 L660.033 585.592 L660.033 588.389 L650.027 588.389 L650.027 594.412 Q650.751 594.166 651.476 594.05 Q652.2 593.919 652.924 593.919 Q657.038 593.919 659.441 596.173 Q661.843 598.428 661.843 602.279 Q661.843 606.245 659.375 608.45 Q656.906 610.639 652.414 610.639 Q650.867 610.639 649.254 610.375 Q647.658 610.112 645.946 609.586 L645.946 606.245 Q647.427 607.051 649.007 607.446 Q650.587 607.841 652.348 607.841 Q655.195 607.841 656.857 606.344 Q658.519 604.846 658.519 602.279 Q658.519 599.711 656.857 598.214 Q655.195 596.716 652.348 596.716 Q651.015 596.716 649.682 597.013 Q648.365 597.309 646.983 597.934 L646.983 585.592 Z" fill="#000000" fill-rule="evenodd" fill-opacity="1" /><path clip-path="url(#clip000)" d="M 0 0 M873.451 630.702 L880.135 630.702 L880.135 607.632 L872.864 609.091 L872.864 605.364 L880.095 603.906 L884.186 603.906 L884.186 630.702 L890.87 630.702 L890.87 634.146 L873.451 634.146 L873.451 630.702 Z" fill="#000000" fill-rule="evenodd" fill-opacity="1" /><path clip-path="url(#clip000)" d="M 0 0 M904.056 606.599 Q900.896 606.599 899.296 609.719 Q897.716 612.818 897.716 619.056 Q897.716 625.274 899.296 628.393 Q900.896 631.492 904.056 631.492 Q907.236 631.492 908.816 628.393 Q910.416 625.274 910.416 619.056 Q910.416 612.818 908.816 609.719 Q907.236 606.599 904.056 606.599 M904.056 603.359 Q909.14 603.359 911.813 607.389 Q914.507 611.4 914.507 619.056 Q914.507 626.692 911.813 630.723 Q909.14 634.733 904.056 634.733 Q898.972 634.733 896.278 630.723 Q893.605 626.692 893.605 619.056 Q893.605 611.4 896.278 607.389 Q898.972 603.359 904.056 603.359 Z" fill="#000000" fill-rule="evenodd" fill-opacity="1" /><path clip-path="url(#clip000)" d="M 0 0 M914.507 598.197 L935.605 598.197 L935.605 600.995 L914.507 600.995 L914.507 598.197 Z" fill="#000000" fill-rule="evenodd" fill-opacity="1" /><path clip-path="url(#clip000)" d="M 0 0 M939.785 607.364 L945.216 607.364 L945.216 588.62 L939.308 589.804 L939.308 586.776 L945.183 585.592 L948.507 585.592 L948.507 607.364 L953.938 607.364 L953.938 610.162 L939.785 610.162 L939.785 607.364 Z" fill="#000000" fill-rule="evenodd" fill-opacity="1" /><path clip-path="url(#clip000)" d="M 0 0 M957.542 605.981 L961.014 605.981 L961.014 610.162 L957.542 610.162 L957.542 605.981 Z" fill="#000000" fill-rule="evenodd" fill-opacity="1" /><path clip-path="url(#clip000)" d="M 0 0 M971.728 587.78 Q969.16 587.78 967.86 590.315 Q966.577 592.833 966.577 597.901 Q966.577 602.953 967.86 605.488 Q969.16 608.006 971.728 608.006 Q974.311 608.006 975.595 605.488 Q976.895 602.953 976.895 597.901 Q976.895 592.833 975.595 590.315 Q974.311 587.78 971.728 587.78 M971.728 585.147 Q975.858 585.147 978.03 588.422 Q980.219 591.681 980.219 597.901 Q980.219 604.105 978.03 607.38 Q975.858 610.639 971.728 610.639 Q967.597 610.639 965.408 607.38 Q963.236 604.105 963.236 597.901 Q963.236 591.681 965.408 588.422 Q967.597 585.147 971.728 585.147 Z" fill="#000000" fill-rule="evenodd" fill-opacity="1" /><path clip-path="url(#clip000)" d="M 0 0 M1191.39 630.702 L1198.08 630.702 L1198.08 607.632 L1190.8 609.091 L1190.8 605.364 L1198.03 603.906 L1202.13 603.906 L1202.13 630.702 L1208.81 630.702 L1208.81 634.146 L1191.39 634.146 L1191.39 630.702 Z" fill="#000000" fill-rule="evenodd" fill-opacity="1" /><path clip-path="url(#clip000)" d="M 0 0 M1222 606.599 Q1218.84 606.599 1217.24 609.719 Q1215.66 612.818 1215.66 619.056 Q1215.66 625.274 1217.24 628.393 Q1218.84 631.492 1222 631.492 Q1225.18 631.492 1226.76 628.393 Q1228.36 625.274 1228.36 619.056 Q1228.36 612.818 1226.76 609.719 Q1225.18 606.599 1222 606.599 M1222 603.359 Q1227.08 603.359 1229.75 607.389 Q1232.45 611.4 1232.45 619.056 Q1232.45 626.692 1229.75 630.723 Q1227.08 634.733 1222 634.733 Q1216.91 634.733 1214.22 630.723 Q1211.54 626.692 1211.54 619.056 Q1211.54 611.4 1214.22 607.389 Q1216.91 603.359 1222 603.359 Z" fill="#000000" fill-rule="evenodd" fill-opacity="1" /><path clip-path="url(#clip000)" d="M 0 0 M1232.45 598.197 L1253.54 598.197 L1253.54 600.995 L1232.45 600.995 L1232.45 598.197 Z" fill="#000000" fill-rule="evenodd" fill-opacity="1" /><path clip-path="url(#clip000)" d="M 0 0 M1264.26 587.78 Q1261.69 587.78 1260.39 590.315 Q1259.11 592.833 1259.11 597.901 Q1259.11 602.953 1260.39 605.488 Q1261.69 608.006 1264.26 608.006 Q1266.84 608.006 1268.13 605.488 Q1269.43 602.953 1269.43 597.901 Q1269.43 592.833 1268.13 590.315 Q1266.84 587.78 1264.26 587.78 M1264.26 585.147 Q1268.39 585.147 1270.56 588.422 Q1272.75 591.681 1272.75 597.901 Q1272.75 604.105 1270.56 607.38 Q1268.39 610.639 1264.26 610.639 Q1260.13 610.639 1257.94 607.38 Q1255.77 604.105 1255.77 597.901 Q1255.77 591.681 1257.94 588.422 Q1260.13 585.147 1264.26 585.147 Z" fill="#000000" fill-rule="evenodd" fill-opacity="1" /><path clip-path="url(#clip000)" d="M 0 0 M1276.35 605.981 L1279.83 605.981 L1279.83 610.162 L1276.35 610.162 L1276.35 605.981 Z" fill="#000000" fill-rule="evenodd" fill-opacity="1" /><path clip-path="url(#clip000)" d="M 0 0 M1283.46 585.592 L1296.51 585.592 L1296.51 588.389 L1286.51 588.389 L1286.51 594.412 Q1287.23 594.166 1287.96 594.05 Q1288.68 593.919 1289.4 593.919 Q1293.52 593.919 1295.92 596.173 Q1298.32 598.428 1298.32 602.279 Q1298.32 606.245 1295.86 608.45 Q1293.39 610.639 1288.89 610.639 Q1287.35 610.639 1285.73 610.375 Q1284.14 610.112 1282.43 609.586 L1282.43 606.245 Q1283.91 607.051 1285.49 607.446 Q1287.07 607.841 1288.83 607.841 Q1291.68 607.841 1293.34 606.344 Q1295 604.846 1295 602.279 Q1295 599.711 1293.34 598.214 Q1291.68 596.716 1288.83 596.716 Q1287.49 596.716 1286.16 597.013 Q1284.85 597.309 1283.46 597.934 L1283.46 585.592 Z" fill="#000000" fill-rule="evenodd" fill-opacity="1" /><path clip-path="url(#clip000)" d="M 0 0 M1520.72 630.702 L1527.4 630.702 L1527.4 607.632 L1520.13 609.091 L1520.13 605.364 L1527.36 603.906 L1531.45 603.906 L1531.45 630.702 L1538.14 630.702 L1538.14 634.146 L1520.72 634.146 L1520.72 630.702 Z" fill="#000000" fill-rule="evenodd" fill-opacity="1" /><path clip-path="url(#clip000)" d="M 0 0 M1551.32 606.599 Q1548.16 606.599 1546.56 609.719 Q1544.98 612.818 1544.98 619.056 Q1544.98 625.274 1546.56 628.393 Q1548.16 631.492 1551.32 631.492 Q1554.5 631.492 1556.08 628.393 Q1557.68 625.274 1557.68 619.056 Q1557.68 612.818 1556.08 609.719 Q1554.5 606.599 1551.32 606.599 M1551.32 603.359 Q1556.41 603.359 1559.08 607.389 Q1561.77 611.4 1561.77 619.056 Q1561.77 626.692 1559.08 630.723 Q1556.41 634.733 1551.32 634.733 Q1546.24 634.733 1543.55 630.723 Q1540.87 626.692 1540.87 619.056 Q1540.87 611.4 1543.55 607.389 Q1546.24 603.359 1551.32 603.359 Z" fill="#000000" fill-rule="evenodd" fill-opacity="1" /><path clip-path="url(#clip000)" d="M 0 0 M1570.27 587.78 Q1567.7 587.78 1566.4 590.315 Q1565.12 592.833 1565.12 597.901 Q1565.12 602.953 1566.4 605.488 Q1567.7 608.006 1570.27 608.006 Q1572.85 608.006 1574.13 605.488 Q1575.43 602.953 1575.43 597.901 Q1575.43 592.833 1574.13 590.315 Q1572.85 587.78 1570.27 587.78 M1570.27 585.147 Q1574.4 585.147 1576.57 588.422 Q1578.76 591.681 1578.76 597.901 Q1578.76 604.105 1576.57 607.38 Q1574.4 610.639 1570.27 610.639 Q1566.14 610.639 1563.95 607.38 Q1561.77 604.105 1561.77 597.901 Q1561.77 591.681 1563.95 588.422 Q1566.14 585.147 1570.27 585.147 Z" fill="#000000" fill-rule="evenodd" fill-opacity="1" /><path clip-path="url(#clip000)" d="M 0 0 M1582.36 605.981 L1585.83 605.981 L1585.83 610.162 L1582.36 610.162 L1582.36 605.981 Z" fill="#000000" fill-rule="evenodd" fill-opacity="1" /><path clip-path="url(#clip000)" d="M 0 0 M1596.55 587.78 Q1593.98 587.78 1592.68 590.315 Q1591.4 592.833 1591.4 597.901 Q1591.4 602.953 1592.68 605.488 Q1593.98 608.006 1596.55 608.006 Q1599.13 608.006 1600.42 605.488 Q1601.72 602.953 1601.72 597.901 Q1601.72 592.833 1600.42 590.315 Q1599.13 587.78 1596.55 587.78 M1596.55 585.147 Q1600.68 585.147 1602.85 588.422 Q1605.04 591.681 1605.04 597.901 Q1605.04 604.105 1602.85 607.38 Q1600.68 610.639 1596.55 610.639 Q1592.42 610.639 1590.23 607.38 Q1588.06 604.105 1588.06 597.901 Q1588.06 591.681 1590.23 588.422 Q1592.42 585.147 1596.55 585.147 Z" fill="#000000" fill-rule="evenodd" fill-opacity="1" /><path clip-path="url(#clip000)" d="M 0 0 M1839.09 630.702 L1845.78 630.702 L1845.78 607.632 L1838.51 609.091 L1838.51 605.364 L1845.74 603.906 L1849.83 603.906 L1849.83 630.702 L1856.51 630.702 L1856.51 634.146 L1839.09 634.146 L1839.09 630.702 Z" fill="#000000" fill-rule="evenodd" fill-opacity="1" /><path clip-path="url(#clip000)" d="M 0 0 M1869.7 606.599 Q1866.54 606.599 1864.94 609.719 Q1863.36 612.818 1863.36 619.056 Q1863.36 625.274 1864.94 628.393 Q1866.54 631.492 1869.7 631.492 Q1872.88 631.492 1874.46 628.393 Q1876.06 625.274 1876.06 619.056 Q1876.06 612.818 1874.46 609.719 Q1872.88 606.599 1869.7 606.599 M1869.7 603.359 Q1874.78 603.359 1877.46 607.389 Q1880.15 611.4 1880.15 619.056 Q1880.15 626.692 1877.46 630.723 Q1874.78 634.733 1869.7 634.733 Q1864.62 634.733 1861.92 630.723 Q1859.25 626.692 1859.25 619.056 Q1859.25 611.4 1861.92 607.389 Q1864.62 603.359 1869.7 603.359 Z" fill="#000000" fill-rule="evenodd" fill-opacity="1" /><path clip-path="url(#clip000)" d="M 0 0 M1888.64 587.78 Q1886.08 587.78 1884.78 590.315 Q1883.49 592.833 1883.49 597.901 Q1883.49 602.953 1884.78 605.488 Q1886.08 608.006 1888.64 608.006 Q1891.23 608.006 1892.51 605.488 Q1893.81 602.953 1893.81 597.901 Q1893.81 592.833 1892.51 590.315 Q1891.23 587.78 1888.64 587.78 M1888.64 585.147 Q1892.77 585.147 1894.95 588.422 Q1897.13 591.681 1897.13 597.901 Q1897.13 604.105 1894.95 607.38 Q1892.77 610.639 1888.64 610.639 Q1884.51 610.639 1882.32 607.38 Q1880.15 604.105 1880.15 597.901 Q1880.15 591.681 1882.32 588.422 Q1884.51 585.147 1888.64 585.147 Z" fill="#000000" fill-rule="evenodd" fill-opacity="1" /><path clip-path="url(#clip000)" d="M 0 0 M1900.74 605.981 L1904.21 605.981 L1904.21 610.162 L1900.74 610.162 L1900.74 605.981 Z" fill="#000000" fill-rule="evenodd" fill-opacity="1" /><path clip-path="url(#clip000)" d="M 0 0 M1907.85 585.592 L1920.9 585.592 L1920.9 588.389 L1910.89 588.389 L1910.89 594.412 Q1911.62 594.166 1912.34 594.05 Q1913.06 593.919 1913.79 593.919 Q1917.9 593.919 1920.31 596.173 Q1922.71 598.428 1922.71 602.279 Q1922.71 606.245 1920.24 608.45 Q1917.77 610.639 1913.28 610.639 Q1911.73 610.639 1910.12 610.375 Q1908.52 610.112 1906.81 609.586 L1906.81 606.245 Q1908.29 607.051 1909.87 607.446 Q1911.45 607.841 1913.21 607.841 Q1916.06 607.841 1917.72 606.344 Q1919.38 604.846 1919.38 602.279 Q1919.38 599.711 1917.72 598.214 Q1916.06 596.716 1913.21 596.716 Q1911.88 596.716 1910.55 597.013 Q1909.23 597.309 1907.85 597.934 L1907.85 585.592 Z" fill="#000000" fill-rule="evenodd" fill-opacity="1" /><polyline clip-path="url(#clip002)" style="stroke:#000000; stroke-width:1.75; stroke-opacity:0.1; fill:none" points="
  238.997,492.665 2058.66,492.665 
  "/>
<polyline clip-path="url(#clip002)" style="stroke:#000000; stroke-width:1.75; stroke-opacity:0.1; fill:none" points="
  238.997,401.632 2058.66,401.632 
  "/>
<polyline clip-path="url(#clip002)" style="stroke:#000000; stroke-width:1.75; stroke-opacity:0.1; fill:none" points="
  238.997,310.598 2058.66,310.598 
  "/>
<polyline clip-path="url(#clip002)" style="stroke:#000000; stroke-width:1.75; stroke-opacity:0.1; fill:none" points="
  238.997,219.565 2058.66,219.565 
  "/>
<polyline clip-path="url(#clip002)" style="stroke:#000000; stroke-width:1.75; stroke-opacity:0.1; fill:none" points="
  238.997,128.532 2058.66,128.532 
  "/>
<polyline clip-path="url(#clip000)" style="stroke:#000000; stroke-width:3.5; stroke-opacity:1; fill:none" points="
  238.997,562.214 238.997,41.3386 
  "/>
<polyline clip-path="url(#clip000)" style="stroke:#000000; stroke-width:3.5; stroke-opacity:1; fill:none" points="
  238.997,492.665 260.833,492.665 
  "/>
<polyline clip-path="url(#clip000)" style="stroke:#000000; stroke-width:3.5; stroke-opacity:1; fill:none" points="
  238.997,401.632 260.833,401.632 
  "/>
<polyline clip-path="url(#clip000)" style="stroke:#000000; stroke-width:3.5; stroke-opacity:1; fill:none" points="
  238.997,310.598 260.833,310.598 
  "/>
<polyline clip-path="url(#clip000)" style="stroke:#000000; stroke-width:3.5; stroke-opacity:1; fill:none" points="
  238.997,219.565 260.833,219.565 
  "/>
<polyline clip-path="url(#clip000)" style="stroke:#000000; stroke-width:3.5; stroke-opacity:1; fill:none" points="
  238.997,128.532 260.833,128.532 
  "/>
<path clip-path="url(#clip000)" d="M 0 0 M100.73 509.983 L107.414 509.983 L107.414 486.914 L100.142 488.372 L100.142 484.645 L107.373 483.187 L111.464 483.187 L111.464 509.983 L118.148 509.983 L118.148 513.427 L100.73 513.427 L100.73 509.983 Z" fill="#000000" fill-rule="evenodd" fill-opacity="1" /><path clip-path="url(#clip000)" d="M 0 0 M131.334 485.881 Q128.174 485.881 126.574 489 Q124.995 492.099 124.995 498.337 Q124.995 504.555 126.574 507.674 Q128.174 510.773 131.334 510.773 Q134.514 510.773 136.094 507.674 Q137.694 504.555 137.694 498.337 Q137.694 492.099 136.094 489 Q134.514 485.881 131.334 485.881 M131.334 482.64 Q136.418 482.64 139.092 486.67 Q141.786 490.681 141.786 498.337 Q141.786 505.973 139.092 510.004 Q136.418 514.014 131.334 514.014 Q126.25 514.014 123.556 510.004 Q120.883 505.973 120.883 498.337 Q120.883 490.681 123.556 486.67 Q126.25 482.64 131.334 482.64 Z" fill="#000000" fill-rule="evenodd" fill-opacity="1" /><path clip-path="url(#clip000)" d="M 0 0 M141.786 477.479 L162.883 477.479 L162.883 480.276 L141.786 480.276 L141.786 477.479 Z" fill="#000000" fill-rule="evenodd" fill-opacity="1" /><path clip-path="url(#clip000)" d="M 0 0 M167.063 486.645 L172.494 486.645 L172.494 467.901 L166.586 469.086 L166.586 466.058 L172.461 464.873 L175.785 464.873 L175.785 486.645 L181.216 486.645 L181.216 489.443 L167.063 489.443 L167.063 486.645 Z" fill="#000000" fill-rule="evenodd" fill-opacity="1" /><path clip-path="url(#clip000)" d="M 0 0 M184.82 485.263 L188.292 485.263 L188.292 489.443 L184.82 489.443 L184.82 485.263 Z" fill="#000000" fill-rule="evenodd" fill-opacity="1" /><path clip-path="url(#clip000)" d="M 0 0 M199.006 467.061 Q196.439 467.061 195.138 469.596 Q193.855 472.114 193.855 477.182 Q193.855 482.235 195.138 484.769 Q196.439 487.287 199.006 487.287 Q201.59 487.287 202.873 484.769 Q204.173 482.235 204.173 477.182 Q204.173 472.114 202.873 469.596 Q201.59 467.061 199.006 467.061 M199.006 464.428 Q203.136 464.428 205.309 467.703 Q207.497 470.962 207.497 477.182 Q207.497 483.387 205.309 486.661 Q203.136 489.92 199.006 489.92 Q194.875 489.92 192.686 486.661 Q190.514 483.387 190.514 477.182 Q190.514 470.962 192.686 467.703 Q194.875 464.428 199.006 464.428 Z" fill="#000000" fill-rule="evenodd" fill-opacity="1" /><path clip-path="url(#clip000)" d="M 0 0 M100.565 418.95 L107.249 418.95 L107.249 395.88 L99.9776 397.339 L99.9776 393.612 L107.209 392.153 L111.3 392.153 L111.3 418.95 L117.984 418.95 L117.984 422.393 L100.565 422.393 L100.565 418.95 Z" fill="#000000" fill-rule="evenodd" fill-opacity="1" /><path clip-path="url(#clip000)" d="M 0 0 M131.17 394.847 Q128.01 394.847 126.41 397.966 Q124.83 401.065 124.83 407.304 Q124.83 413.522 126.41 416.641 Q128.01 419.74 131.17 419.74 Q134.35 419.74 135.929 416.641 Q137.53 413.522 137.53 407.304 Q137.53 401.065 135.929 397.966 Q134.35 394.847 131.17 394.847 M131.17 391.607 Q136.253 391.607 138.927 395.637 Q141.621 399.648 141.621 407.304 Q141.621 414.94 138.927 418.97 Q136.253 422.981 131.17 422.981 Q126.086 422.981 123.392 418.97 Q120.718 414.94 120.718 407.304 Q120.718 399.648 123.392 395.637 Q126.086 391.607 131.17 391.607 Z" fill="#000000" fill-rule="evenodd" fill-opacity="1" /><path clip-path="url(#clip000)" d="M 0 0 M141.621 386.445 L162.719 386.445 L162.719 389.243 L141.621 389.243 L141.621 386.445 Z" fill="#000000" fill-rule="evenodd" fill-opacity="1" /><path clip-path="url(#clip000)" d="M 0 0 M173.432 376.028 Q170.865 376.028 169.565 378.562 Q168.281 381.08 168.281 386.149 Q168.281 391.201 169.565 393.736 Q170.865 396.253 173.432 396.253 Q176.016 396.253 177.299 393.736 Q178.599 391.201 178.599 386.149 Q178.599 381.08 177.299 378.562 Q176.016 376.028 173.432 376.028 M173.432 373.395 Q177.563 373.395 179.735 376.67 Q181.924 379.928 181.924 386.149 Q181.924 392.353 179.735 395.628 Q177.563 398.887 173.432 398.887 Q169.301 398.887 167.113 395.628 Q164.94 392.353 164.94 386.149 Q164.94 379.928 167.113 376.67 Q169.301 373.395 173.432 373.395 Z" fill="#000000" fill-rule="evenodd" fill-opacity="1" /><path clip-path="url(#clip000)" d="M 0 0 M185.528 394.229 L189 394.229 L189 398.409 L185.528 398.409 L185.528 394.229 Z" fill="#000000" fill-rule="evenodd" fill-opacity="1" /><path clip-path="url(#clip000)" d="M 0 0 M192.637 373.839 L205.687 373.839 L205.687 376.637 L195.682 376.637 L195.682 382.66 Q196.406 382.413 197.13 382.298 Q197.854 382.166 198.578 382.166 Q202.692 382.166 205.095 384.421 Q207.497 386.676 207.497 390.527 Q207.497 394.493 205.029 396.698 Q202.56 398.887 198.068 398.887 Q196.521 398.887 194.908 398.623 Q193.312 398.36 191.6 397.833 L191.6 394.493 Q193.081 395.299 194.661 395.694 Q196.241 396.089 198.002 396.089 Q200.849 396.089 202.511 394.591 Q204.173 393.094 204.173 390.527 Q204.173 387.959 202.511 386.462 Q200.849 384.964 198.002 384.964 Q196.669 384.964 195.336 385.26 Q194.019 385.557 192.637 386.182 L192.637 373.839 Z" fill="#000000" fill-rule="evenodd" fill-opacity="1" /><path clip-path="url(#clip000)" d="M 0 0 M123.177 327.917 L129.861 327.917 L129.861 304.847 L122.589 306.305 L122.589 302.578 L129.82 301.12 L133.912 301.12 L133.912 327.917 L140.596 327.917 L140.596 331.36 L123.177 331.36 L123.177 327.917 Z" fill="#000000" fill-rule="evenodd" fill-opacity="1" /><path clip-path="url(#clip000)" d="M 0 0 M153.781 303.814 Q150.622 303.814 149.021 306.933 Q147.442 310.032 147.442 316.271 Q147.442 322.489 149.021 325.608 Q150.622 328.707 153.781 328.707 Q156.961 328.707 158.541 325.608 Q160.141 322.489 160.141 316.271 Q160.141 310.032 158.541 306.933 Q156.961 303.814 153.781 303.814 M153.781 300.573 Q158.865 300.573 161.539 304.604 Q164.233 308.614 164.233 316.271 Q164.233 323.906 161.539 327.937 Q158.865 331.948 153.781 331.948 Q148.697 331.948 146.004 327.937 Q143.33 323.906 143.33 316.271 Q143.33 308.614 146.004 304.604 Q148.697 300.573 153.781 300.573 Z" fill="#000000" fill-rule="evenodd" fill-opacity="1" /><path clip-path="url(#clip000)" d="M 0 0 M172.724 284.995 Q170.157 284.995 168.857 287.529 Q167.573 290.047 167.573 295.116 Q167.573 300.168 168.857 302.702 Q170.157 305.22 172.724 305.22 Q175.308 305.22 176.592 302.702 Q177.892 300.168 177.892 295.116 Q177.892 290.047 176.592 287.529 Q175.308 284.995 172.724 284.995 M172.724 282.362 Q176.855 282.362 179.027 285.637 Q181.216 288.895 181.216 295.116 Q181.216 301.32 179.027 304.595 Q176.855 307.853 172.724 307.853 Q168.594 307.853 166.405 304.595 Q164.233 301.32 164.233 295.116 Q164.233 288.895 166.405 285.637 Q168.594 282.362 172.724 282.362 Z" fill="#000000" fill-rule="evenodd" fill-opacity="1" /><path clip-path="url(#clip000)" d="M 0 0 M184.82 303.196 L188.292 303.196 L188.292 307.376 L184.82 307.376 L184.82 303.196 Z" fill="#000000" fill-rule="evenodd" fill-opacity="1" /><path clip-path="url(#clip000)" d="M 0 0 M199.006 284.995 Q196.439 284.995 195.138 287.529 Q193.855 290.047 193.855 295.116 Q193.855 300.168 195.138 302.702 Q196.439 305.22 199.006 305.22 Q201.59 305.22 202.873 302.702 Q204.173 300.168 204.173 295.116 Q204.173 290.047 202.873 287.529 Q201.59 284.995 199.006 284.995 M199.006 282.362 Q203.136 282.362 205.309 285.637 Q207.497 288.895 207.497 295.116 Q207.497 301.32 205.309 304.595 Q203.136 307.853 199.006 307.853 Q194.875 307.853 192.686 304.595 Q190.514 301.32 190.514 295.116 Q190.514 288.895 192.686 285.637 Q194.875 282.362 199.006 282.362 Z" fill="#000000" fill-rule="evenodd" fill-opacity="1" /><path clip-path="url(#clip000)" d="M 0 0 M123.884 236.884 L130.568 236.884 L130.568 213.814 L123.297 215.272 L123.297 211.545 L130.528 210.087 L134.619 210.087 L134.619 236.884 L141.303 236.884 L141.303 240.327 L123.884 240.327 L123.884 236.884 Z" fill="#000000" fill-rule="evenodd" fill-opacity="1" /><path clip-path="url(#clip000)" d="M 0 0 M154.489 212.781 Q151.329 212.781 149.729 215.9 Q148.149 218.999 148.149 225.237 Q148.149 231.455 149.729 234.575 Q151.329 237.674 154.489 237.674 Q157.669 237.674 159.249 234.575 Q160.849 231.455 160.849 225.237 Q160.849 218.999 159.249 215.9 Q157.669 212.781 154.489 212.781 M154.489 209.54 Q159.573 209.54 162.246 213.571 Q164.94 217.581 164.94 225.237 Q164.94 232.873 162.246 236.904 Q159.573 240.914 154.489 240.914 Q149.405 240.914 146.711 236.904 Q144.038 232.873 144.038 225.237 Q144.038 217.581 146.711 213.571 Q149.405 209.54 154.489 209.54 Z" fill="#000000" fill-rule="evenodd" fill-opacity="1" /><path clip-path="url(#clip000)" d="M 0 0 M173.432 193.962 Q170.865 193.962 169.565 196.496 Q168.281 199.014 168.281 204.082 Q168.281 209.135 169.565 211.669 Q170.865 214.187 173.432 214.187 Q176.016 214.187 177.299 211.669 Q178.599 209.135 178.599 204.082 Q178.599 199.014 177.299 196.496 Q176.016 193.962 173.432 193.962 M173.432 191.328 Q177.563 191.328 179.735 194.603 Q181.924 197.862 181.924 204.082 Q181.924 210.287 179.735 213.562 Q177.563 216.82 173.432 216.82 Q169.301 216.82 167.113 213.562 Q164.94 210.287 164.94 204.082 Q164.94 197.862 167.113 194.603 Q169.301 191.328 173.432 191.328 Z" fill="#000000" fill-rule="evenodd" fill-opacity="1" /><path clip-path="url(#clip000)" d="M 0 0 M185.528 212.163 L189 212.163 L189 216.343 L185.528 216.343 L185.528 212.163 Z" fill="#000000" fill-rule="evenodd" fill-opacity="1" /><path clip-path="url(#clip000)" d="M 0 0 M192.637 191.773 L205.687 191.773 L205.687 194.57 L195.682 194.57 L195.682 200.594 Q196.406 200.347 197.13 200.232 Q197.854 200.1 198.578 200.1 Q202.692 200.1 205.095 202.354 Q207.497 204.609 207.497 208.46 Q207.497 212.426 205.029 214.631 Q202.56 216.82 198.068 216.82 Q196.521 216.82 194.908 216.557 Q193.312 216.293 191.6 215.767 L191.6 212.426 Q193.081 213.232 194.661 213.627 Q196.241 214.022 198.002 214.022 Q200.849 214.022 202.511 212.525 Q204.173 211.027 204.173 208.46 Q204.173 205.893 202.511 204.395 Q200.849 202.898 198.002 202.898 Q196.669 202.898 195.336 203.194 Q194.019 203.49 192.637 204.115 L192.637 191.773 Z" fill="#000000" fill-rule="evenodd" fill-opacity="1" /><path clip-path="url(#clip000)" d="M 0 0 M125.53 145.85 L132.214 145.85 L132.214 122.78 L124.943 124.239 L124.943 120.512 L132.173 119.054 L136.265 119.054 L136.265 145.85 L142.949 145.85 L142.949 149.294 L125.53 149.294 L125.53 145.85 Z" fill="#000000" fill-rule="evenodd" fill-opacity="1" /><path clip-path="url(#clip000)" d="M 0 0 M156.135 121.747 Q152.975 121.747 151.375 124.867 Q149.795 127.966 149.795 134.204 Q149.795 140.422 151.375 143.541 Q152.975 146.64 156.135 146.64 Q159.315 146.64 160.894 143.541 Q162.494 140.422 162.494 134.204 Q162.494 127.966 160.894 124.867 Q159.315 121.747 156.135 121.747 M156.135 118.507 Q161.218 118.507 163.892 122.537 Q166.586 126.548 166.586 134.204 Q166.586 141.84 163.892 145.871 Q161.218 149.881 156.135 149.881 Q151.051 149.881 148.357 145.871 Q145.683 141.84 145.683 134.204 Q145.683 126.548 148.357 122.537 Q151.051 118.507 156.135 118.507 Z" fill="#000000" fill-rule="evenodd" fill-opacity="1" /><path clip-path="url(#clip000)" d="M 0 0 M167.063 122.512 L172.494 122.512 L172.494 103.768 L166.586 104.952 L166.586 101.924 L172.461 100.739 L175.785 100.739 L175.785 122.512 L181.216 122.512 L181.216 125.309 L167.063 125.309 L167.063 122.512 Z" fill="#000000" fill-rule="evenodd" fill-opacity="1" /><path clip-path="url(#clip000)" d="M 0 0 M184.82 121.129 L188.292 121.129 L188.292 125.309 L184.82 125.309 L184.82 121.129 Z" fill="#000000" fill-rule="evenodd" fill-opacity="1" /><path clip-path="url(#clip000)" d="M 0 0 M199.006 102.928 Q196.439 102.928 195.138 105.463 Q193.855 107.98 193.855 113.049 Q193.855 118.101 195.138 120.636 Q196.439 123.154 199.006 123.154 Q201.59 123.154 202.873 120.636 Q204.173 118.101 204.173 113.049 Q204.173 107.98 202.873 105.463 Q201.59 102.928 199.006 102.928 M199.006 100.295 Q203.136 100.295 205.309 103.57 Q207.497 106.828 207.497 113.049 Q207.497 119.253 205.309 122.528 Q203.136 125.787 199.006 125.787 Q194.875 125.787 192.686 122.528 Q190.514 119.253 190.514 113.049 Q190.514 106.828 192.686 103.57 Q194.875 100.295 199.006 100.295 Z" fill="#000000" fill-rule="evenodd" fill-opacity="1" /><path clip-path="url(#clip000)" d="M 0 0 M36.5087 316.37 Q37.1214 314.56 39.1266 312.861 Q41.1318 311.134 44.6409 309.407 L56.0036 303.698 L56.0036 309.742 L45.3371 315.061 Q41.1596 317.122 39.795 319.071 Q38.4303 320.993 38.4303 324.335 L38.4303 330.462 L56.0036 330.462 L56.0036 336.088 L14.4236 336.088 L14.4236 323.388 Q14.4236 316.258 17.4036 312.749 Q20.3835 309.24 26.3991 309.24 Q30.326 309.24 32.916 311.078 Q35.5061 312.889 36.5087 316.37 M19.0467 330.462 L33.8072 330.462 L33.8072 323.388 Q33.8072 319.322 31.9413 317.261 Q30.0475 315.172 26.3991 315.172 Q22.7508 315.172 20.9127 317.261 Q19.0467 319.322 19.0467 323.388 L19.0467 330.462 Z" fill="#000000" fill-rule="evenodd" fill-opacity="1" /><path clip-path="url(#clip000)" d="M 0 0 M19.9658 286.515 L40.6583 294.146 L40.6583 278.856 L19.9658 286.515 M14.4236 289.69 L14.4236 283.312 L56.0036 267.465 L56.0036 273.314 L45.3371 277.101 L45.3371 295.844 L56.0036 299.632 L56.0036 305.564 L14.4236 289.69 Z" fill="#000000" fill-rule="evenodd" fill-opacity="1" /><circle clip-path="url(#clip002)" cx="290.497" cy="183.339" r="12" fill="#009af9" fill-rule="evenodd" fill-opacity="1" stroke="#000000" stroke-opacity="1" stroke-width="2.8"/>
<circle clip-path="url(#clip002)" cx="735.073" cy="182.553" r="12" fill="#009af9" fill-rule="evenodd" fill-opacity="1" stroke="#000000" stroke-opacity="1" stroke-width="2.8"/>
<circle clip-path="url(#clip002)" cx="926.542" cy="180.238" r="12" fill="#009af9" fill-rule="evenodd" fill-opacity="1" stroke="#000000" stroke-opacity="1" stroke-width="2.8"/>
<circle clip-path="url(#clip002)" cx="1118.01" cy="169.851" r="12" fill="#009af9" fill-rule="evenodd" fill-opacity="1" stroke="#000000" stroke-opacity="1" stroke-width="2.8"/>
<circle clip-path="url(#clip002)" cx="1230.01" cy="149.404" r="12" fill="#009af9" fill-rule="evenodd" fill-opacity="1" stroke="#000000" stroke-opacity="1" stroke-width="2.8"/>
<circle clip-path="url(#clip002)" cx="1309.48" cy="109.695" r="12" fill="#009af9" fill-rule="evenodd" fill-opacity="1" stroke="#000000" stroke-opacity="1" stroke-width="2.8"/>
<circle clip-path="url(#clip002)" cx="1371.12" cy="56.0803" r="12" fill="#009af9" fill-rule="evenodd" fill-opacity="1" stroke="#000000" stroke-opacity="1" stroke-width="2.8"/>
<circle clip-path="url(#clip002)" cx="1421.48" cy="128.69" r="12" fill="#009af9" fill-rule="evenodd" fill-opacity="1" stroke="#000000" stroke-opacity="1" stroke-width="2.8"/>
<circle clip-path="url(#clip002)" cx="1464.06" cy="183.339" r="12" fill="#009af9" fill-rule="evenodd" fill-opacity="1" stroke="#000000" stroke-opacity="1" stroke-width="2.8"/>
<circle clip-path="url(#clip002)" cx="1500.95" cy="217.402" r="12" fill="#009af9" fill-rule="evenodd" fill-opacity="1" stroke="#000000" stroke-opacity="1" stroke-width="2.8"/>
<circle clip-path="url(#clip002)" cx="1533.48" cy="248.255" r="12" fill="#009af9" fill-rule="evenodd" fill-opacity="1" stroke="#000000" stroke-opacity="1" stroke-width="2.8"/>
<circle clip-path="url(#clip002)" cx="1588.91" cy="290.464" r="12" fill="#009af9" fill-rule="evenodd" fill-opacity="1" stroke="#000000" stroke-opacity="1" stroke-width="2.8"/>
<circle clip-path="url(#clip002)" cx="1674.59" cy="348.397" r="12" fill="#009af9" fill-rule="evenodd" fill-opacity="1" stroke="#000000" stroke-opacity="1" stroke-width="2.8"/>
<circle clip-path="url(#clip002)" cx="1754.05" cy="398.261" r="12" fill="#009af9" fill-rule="evenodd" fill-opacity="1" stroke="#000000" stroke-opacity="1" stroke-width="2.8"/>
<circle clip-path="url(#clip002)" cx="2007.16" cy="547.473" r="12" fill="#009af9" fill-rule="evenodd" fill-opacity="1" stroke="#000000" stroke-opacity="1" stroke-width="2.8"/>
<polyline clip-path="url(#clip002)" style="stroke:#e26f46; stroke-width:3.5; stroke-opacity:1; fill:none" points="
  290.497,183.24 307.837,183.236 325.178,183.231 342.518,183.226 359.858,183.22 377.198,183.213 394.538,183.205 411.878,183.196 429.218,183.186 446.558,183.175 
  463.898,183.162 481.238,183.148 498.578,183.131 515.918,183.112 533.258,183.091 550.598,183.067 567.938,183.04 585.278,183.009 602.618,182.974 619.958,182.934 
  637.298,182.889 654.638,182.837 671.978,182.779 689.318,182.713 706.658,182.638 723.998,182.553 741.338,182.457 758.679,182.347 776.019,182.223 793.359,182.081 
  810.699,181.921 828.039,181.739 845.379,181.532 862.719,181.296 880.059,181.028 897.399,180.724 914.739,180.377 932.079,179.982 949.419,179.532 966.759,179.019 
  984.099,178.433 1001.44,177.764 1018.78,176.998 1036.12,176.122 1053.46,175.117 1070.8,173.963 1088.14,172.636 1105.48,171.104 1122.82,169.333 1140.16,167.279 
  1157.5,164.888 1174.84,162.094 1192.18,158.81 1209.52,154.929 1226.86,150.308 1244.2,144.758 1261.54,138.02 1278.88,129.735 1296.22,119.399 1313.56,106.327 
  1330.9,89.7822 1348.24,70.2914 1365.58,56.0955 1382.92,66.0022 1400.26,93.9215 1417.6,122.606 1434.94,147.791 1452.28,169.737 1469.62,189.209 1486.96,206.826 
  1504.3,223.038 1521.64,238.162 1538.98,252.431 1556.32,266.014 1573.66,279.041 1591,291.612 1608.34,303.804 1625.68,315.68 1643.02,327.289 1660.36,338.672 
  1677.7,349.863 1695.04,360.889 1712.38,371.773 1729.72,382.535 1747.06,393.192 1764.4,403.758 1781.74,414.244 1799.08,424.661 1816.42,435.018 1833.76,445.322 
  1851.1,455.581 1868.44,465.799 1885.78,475.982 1903.12,486.134 1920.46,496.259 1937.8,506.361 1955.14,516.441 1972.48,526.503 1989.82,536.549 2007.16,546.581 
  
  "/>
<path clip-path="url(#clip000)" d="
M238.997 1234.53 L2058.66 1234.53 L2058.66 713.659 L238.997 713.659  Z
  " fill="#ffffff" fill-rule="evenodd" fill-opacity="1"/>
<defs>
  <clipPath id="clip003">
    <rect x="238" y="713" width="1821" height="522"/>
  </clipPath>
</defs>
<polyline clip-path="url(#clip003)" style="stroke:#000000; stroke-width:1.75; stroke-opacity:0.1; fill:none" points="
  290.497,1234.53 290.497,713.659 
  "/>
<polyline clip-path="url(#clip003)" style="stroke:#000000; stroke-width:1.75; stroke-opacity:0.1; fill:none" points="
  608.519,1234.53 608.519,713.659 
  "/>
<polyline clip-path="url(#clip003)" style="stroke:#000000; stroke-width:1.75; stroke-opacity:0.1; fill:none" points="
  926.542,1234.53 926.542,713.659 
  "/>
<polyline clip-path="url(#clip003)" style="stroke:#000000; stroke-width:1.75; stroke-opacity:0.1; fill:none" points="
  1244.56,1234.53 1244.56,713.659 
  "/>
<polyline clip-path="url(#clip003)" style="stroke:#000000; stroke-width:1.75; stroke-opacity:0.1; fill:none" points="
  1562.59,1234.53 1562.59,713.659 
  "/>
<polyline clip-path="url(#clip003)" style="stroke:#000000; stroke-width:1.75; stroke-opacity:0.1; fill:none" points="
  1880.61,1234.53 1880.61,713.659 
  "/>
<polyline clip-path="url(#clip000)" style="stroke:#000000; stroke-width:3.5; stroke-opacity:1; fill:none" points="
  238.997,1234.53 2058.66,1234.53 
  "/>
<polyline clip-path="url(#clip000)" style="stroke:#000000; stroke-width:3.5; stroke-opacity:1; fill:none" points="
  290.497,1234.53 290.497,1228.28 
  "/>
<polyline clip-path="url(#clip000)" style="stroke:#000000; stroke-width:3.5; stroke-opacity:1; fill:none" points="
  608.519,1234.53 608.519,1228.28 
  "/>
<polyline clip-path="url(#clip000)" style="stroke:#000000; stroke-width:3.5; stroke-opacity:1; fill:none" points="
  926.542,1234.53 926.542,1228.28 
  "/>
<polyline clip-path="url(#clip000)" style="stroke:#000000; stroke-width:3.5; stroke-opacity:1; fill:none" points="
  1244.56,1234.53 1244.56,1228.28 
  "/>
<polyline clip-path="url(#clip000)" style="stroke:#000000; stroke-width:3.5; stroke-opacity:1; fill:none" points="
  1562.59,1234.53 1562.59,1228.28 
  "/>
<polyline clip-path="url(#clip000)" style="stroke:#000000; stroke-width:3.5; stroke-opacity:1; fill:none" points="
  1880.61,1234.53 1880.61,1228.28 
  "/>
<path clip-path="url(#clip000)" d="M 0 0 M237.539 1303.02 L244.223 1303.02 L244.223 1279.95 L236.951 1281.41 L236.951 1277.68 L244.182 1276.23 L248.274 1276.23 L248.274 1303.02 L254.958 1303.02 L254.958 1306.47 L237.539 1306.47 L237.539 1303.02 Z" fill="#000000" fill-rule="evenodd" fill-opacity="1" /><path clip-path="url(#clip000)" d="M 0 0 M268.143 1278.92 Q264.984 1278.92 263.384 1282.04 Q261.804 1285.14 261.804 1291.38 Q261.804 1297.59 263.384 1300.71 Q264.984 1303.81 268.143 1303.81 Q271.323 1303.81 272.903 1300.71 Q274.503 1297.59 274.503 1291.38 Q274.503 1285.14 272.903 1282.04 Q271.323 1278.92 268.143 1278.92 M268.143 1275.68 Q273.227 1275.68 275.901 1279.71 Q278.595 1283.72 278.595 1291.38 Q278.595 1299.01 275.901 1303.04 Q273.227 1307.05 268.143 1307.05 Q263.06 1307.05 260.366 1303.04 Q257.692 1299.01 257.692 1291.38 Q257.692 1283.72 260.366 1279.71 Q263.06 1275.68 268.143 1275.68 Z" fill="#000000" fill-rule="evenodd" fill-opacity="1" /><path clip-path="url(#clip000)" d="M 0 0 M278.595 1270.52 L299.692 1270.52 L299.692 1273.32 L278.595 1273.32 L278.595 1270.52 Z" fill="#000000" fill-rule="evenodd" fill-opacity="1" /><path clip-path="url(#clip000)" d="M 0 0 M306.16 1279.68 L317.762 1279.68 L317.762 1282.48 L302.161 1282.48 L302.161 1279.68 Q304.053 1277.73 307.312 1274.43 Q310.587 1271.13 311.426 1270.17 Q313.022 1268.38 313.648 1267.14 Q314.29 1265.89 314.29 1264.69 Q314.29 1262.73 312.907 1261.5 Q311.541 1260.27 309.336 1260.27 Q307.773 1260.27 306.028 1260.81 Q304.3 1261.35 302.325 1262.45 L302.325 1259.1 Q304.333 1258.29 306.078 1257.88 Q307.822 1257.47 309.27 1257.47 Q313.088 1257.47 315.359 1259.38 Q317.63 1261.29 317.63 1264.48 Q317.63 1265.99 317.054 1267.36 Q316.495 1268.71 314.997 1270.55 Q314.586 1271.03 312.381 1273.32 Q310.175 1275.59 306.16 1279.68 Z" fill="#000000" fill-rule="evenodd" fill-opacity="1" /><path clip-path="url(#clip000)" d="M 0 0 M321.366 1278.3 L324.838 1278.3 L324.838 1282.48 L321.366 1282.48 L321.366 1278.3 Z" fill="#000000" fill-rule="evenodd" fill-opacity="1" /><path clip-path="url(#clip000)" d="M 0 0 M335.552 1260.1 Q332.984 1260.1 331.684 1262.63 Q330.401 1265.15 330.401 1270.22 Q330.401 1275.27 331.684 1277.81 Q332.984 1280.33 335.552 1280.33 Q338.135 1280.33 339.419 1277.81 Q340.719 1275.27 340.719 1270.22 Q340.719 1265.15 339.419 1262.63 Q338.135 1260.1 335.552 1260.1 M335.552 1257.47 Q339.682 1257.47 341.855 1260.74 Q344.043 1264 344.043 1270.22 Q344.043 1276.43 341.855 1279.7 Q339.682 1282.96 335.552 1282.96 Q331.421 1282.96 329.232 1279.7 Q327.06 1276.43 327.06 1270.22 Q327.06 1264 329.232 1260.74 Q331.421 1257.47 335.552 1257.47 Z" fill="#000000" fill-rule="evenodd" fill-opacity="1" /><path clip-path="url(#clip000)" d="M 0 0 M555.783 1303.02 L562.467 1303.02 L562.467 1279.95 L555.196 1281.41 L555.196 1277.68 L562.427 1276.23 L566.518 1276.23 L566.518 1303.02 L573.202 1303.02 L573.202 1306.47 L555.783 1306.47 L555.783 1303.02 Z" fill="#000000" fill-rule="evenodd" fill-opacity="1" /><path clip-path="url(#clip000)" d="M 0 0 M586.388 1278.92 Q583.228 1278.92 581.628 1282.04 Q580.048 1285.14 580.048 1291.38 Q580.048 1297.59 581.628 1300.71 Q583.228 1303.81 586.388 1303.81 Q589.568 1303.81 591.147 1300.71 Q592.748 1297.59 592.748 1291.38 Q592.748 1285.14 591.147 1282.04 Q589.568 1278.92 586.388 1278.92 M586.388 1275.68 Q591.472 1275.68 594.145 1279.71 Q596.839 1283.72 596.839 1291.38 Q596.839 1299.01 594.145 1303.04 Q591.472 1307.05 586.388 1307.05 Q581.304 1307.05 578.61 1303.04 Q575.936 1299.01 575.936 1291.38 Q575.936 1283.72 578.61 1279.71 Q581.304 1275.68 586.388 1275.68 Z" fill="#000000" fill-rule="evenodd" fill-opacity="1" /><path clip-path="url(#clip000)" d="M 0 0 M596.839 1270.52 L617.937 1270.52 L617.937 1273.32 L596.839 1273.32 L596.839 1270.52 Z" fill="#000000" fill-rule="evenodd" fill-opacity="1" /><path clip-path="url(#clip000)" d="M 0 0 M622.117 1279.68 L627.547 1279.68 L627.547 1260.94 L621.639 1262.12 L621.639 1259.1 L627.514 1257.91 L630.839 1257.91 L630.839 1279.68 L636.269 1279.68 L636.269 1282.48 L622.117 1282.48 L622.117 1279.68 Z" fill="#000000" fill-rule="evenodd" fill-opacity="1" /><path clip-path="url(#clip000)" d="M 0 0 M639.873 1278.3 L643.346 1278.3 L643.346 1282.48 L639.873 1282.48 L639.873 1278.3 Z" fill="#000000" fill-rule="evenodd" fill-opacity="1" /><path clip-path="url(#clip000)" d="M 0 0 M646.983 1257.91 L660.033 1257.91 L660.033 1260.71 L650.027 1260.71 L650.027 1266.73 Q650.751 1266.49 651.476 1266.37 Q652.2 1266.24 652.924 1266.24 Q657.038 1266.24 659.441 1268.49 Q661.843 1270.75 661.843 1274.6 Q661.843 1278.57 659.375 1280.77 Q656.906 1282.96 652.414 1282.96 Q650.867 1282.96 649.254 1282.7 Q647.658 1282.43 645.946 1281.91 L645.946 1278.57 Q647.427 1279.37 649.007 1279.77 Q650.587 1280.16 652.348 1280.16 Q655.195 1280.16 656.857 1278.66 Q658.519 1277.17 658.519 1274.6 Q658.519 1272.03 656.857 1270.53 Q655.195 1269.04 652.348 1269.04 Q651.015 1269.04 649.682 1269.33 Q648.365 1269.63 646.983 1270.25 L646.983 1257.91 Z" fill="#000000" fill-rule="evenodd" fill-opacity="1" /><path clip-path="url(#clip000)" d="M 0 0 M873.451 1303.02 L880.135 1303.02 L880.135 1279.95 L872.864 1281.41 L872.864 1277.68 L880.095 1276.23 L884.186 1276.23 L884.186 1303.02 L890.87 1303.02 L890.87 1306.47 L873.451 1306.47 L873.451 1303.02 Z" fill="#000000" fill-rule="evenodd" fill-opacity="1" /><path clip-path="url(#clip000)" d="M 0 0 M904.056 1278.92 Q900.896 1278.92 899.296 1282.04 Q897.716 1285.14 897.716 1291.38 Q897.716 1297.59 899.296 1300.71 Q900.896 1303.81 904.056 1303.81 Q907.236 1303.81 908.816 1300.71 Q910.416 1297.59 910.416 1291.38 Q910.416 1285.14 908.816 1282.04 Q907.236 1278.92 904.056 1278.92 M904.056 1275.68 Q909.14 1275.68 911.813 1279.71 Q914.507 1283.72 914.507 1291.38 Q914.507 1299.01 911.813 1303.04 Q909.14 1307.05 904.056 1307.05 Q898.972 1307.05 896.278 1303.04 Q893.605 1299.01 893.605 1291.38 Q893.605 1283.72 896.278 1279.71 Q898.972 1275.68 904.056 1275.68 Z" fill="#000000" fill-rule="evenodd" fill-opacity="1" /><path clip-path="url(#clip000)" d="M 0 0 M914.507 1270.52 L935.605 1270.52 L935.605 1273.32 L914.507 1273.32 L914.507 1270.52 Z" fill="#000000" fill-rule="evenodd" fill-opacity="1" /><path clip-path="url(#clip000)" d="M 0 0 M939.785 1279.68 L945.216 1279.68 L945.216 1260.94 L939.308 1262.12 L939.308 1259.1 L945.183 1257.91 L948.507 1257.91 L948.507 1279.68 L953.938 1279.68 L953.938 1282.48 L939.785 1282.48 L939.785 1279.68 Z" fill="#000000" fill-rule="evenodd" fill-opacity="1" /><path clip-path="url(#clip000)" d="M 0 0 M957.542 1278.3 L961.014 1278.3 L961.014 1282.48 L957.542 1282.48 L957.542 1278.3 Z" fill="#000000" fill-rule="evenodd" fill-opacity="1" /><path clip-path="url(#clip000)" d="M 0 0 M971.728 1260.1 Q969.16 1260.1 967.86 1262.63 Q966.577 1265.15 966.577 1270.22 Q966.577 1275.27 967.86 1277.81 Q969.16 1280.33 971.728 1280.33 Q974.311 1280.33 975.595 1277.81 Q976.895 1275.27 976.895 1270.22 Q976.895 1265.15 975.595 1262.63 Q974.311 1260.1 971.728 1260.1 M971.728 1257.47 Q975.858 1257.47 978.03 1260.74 Q980.219 1264 980.219 1270.22 Q980.219 1276.43 978.03 1279.7 Q975.858 1282.96 971.728 1282.96 Q967.597 1282.96 965.408 1279.7 Q963.236 1276.43 963.236 1270.22 Q963.236 1264 965.408 1260.74 Q967.597 1257.47 971.728 1257.47 Z" fill="#000000" fill-rule="evenodd" fill-opacity="1" /><path clip-path="url(#clip000)" d="M 0 0 M1191.39 1303.02 L1198.08 1303.02 L1198.08 1279.95 L1190.8 1281.41 L1190.8 1277.68 L1198.03 1276.23 L1202.13 1276.23 L1202.13 1303.02 L1208.81 1303.02 L1208.81 1306.47 L1191.39 1306.47 L1191.39 1303.02 Z" fill="#000000" fill-rule="evenodd" fill-opacity="1" /><path clip-path="url(#clip000)" d="M 0 0 M1222 1278.92 Q1218.84 1278.92 1217.24 1282.04 Q1215.66 1285.14 1215.66 1291.38 Q1215.66 1297.59 1217.24 1300.71 Q1218.84 1303.81 1222 1303.81 Q1225.18 1303.81 1226.76 1300.71 Q1228.36 1297.59 1228.36 1291.38 Q1228.36 1285.14 1226.76 1282.04 Q1225.18 1278.92 1222 1278.92 M1222 1275.68 Q1227.08 1275.68 1229.75 1279.71 Q1232.45 1283.72 1232.45 1291.38 Q1232.45 1299.01 1229.75 1303.04 Q1227.08 1307.05 1222 1307.05 Q1216.91 1307.05 1214.22 1303.04 Q1211.54 1299.01 1211.54 1291.38 Q1211.54 1283.72 1214.22 1279.71 Q1216.91 1275.68 1222 1275.68 Z" fill="#000000" fill-rule="evenodd" fill-opacity="1" /><path clip-path="url(#clip000)" d="M 0 0 M1232.45 1270.52 L1253.54 1270.52 L1253.54 1273.32 L1232.45 1273.32 L1232.45 1270.52 Z" fill="#000000" fill-rule="evenodd" fill-opacity="1" /><path clip-path="url(#clip000)" d="M 0 0 M1264.26 1260.1 Q1261.69 1260.1 1260.39 1262.63 Q1259.11 1265.15 1259.11 1270.22 Q1259.11 1275.27 1260.39 1277.81 Q1261.69 1280.33 1264.26 1280.33 Q1266.84 1280.33 1268.13 1277.81 Q1269.43 1275.27 1269.43 1270.22 Q1269.43 1265.15 1268.13 1262.63 Q1266.84 1260.1 1264.26 1260.1 M1264.26 1257.47 Q1268.39 1257.47 1270.56 1260.74 Q1272.75 1264 1272.75 1270.22 Q1272.75 1276.43 1270.56 1279.7 Q1268.39 1282.96 1264.26 1282.96 Q1260.13 1282.96 1257.94 1279.7 Q1255.77 1276.43 1255.77 1270.22 Q1255.77 1264 1257.94 1260.74 Q1260.13 1257.47 1264.26 1257.47 Z" fill="#000000" fill-rule="evenodd" fill-opacity="1" /><path clip-path="url(#clip000)" d="M 0 0 M1276.35 1278.3 L1279.83 1278.3 L1279.83 1282.48 L1276.35 1282.48 L1276.35 1278.3 Z" fill="#000000" fill-rule="evenodd" fill-opacity="1" /><path clip-path="url(#clip000)" d="M 0 0 M1283.46 1257.91 L1296.51 1257.91 L1296.51 1260.71 L1286.51 1260.71 L1286.51 1266.73 Q1287.23 1266.49 1287.96 1266.37 Q1288.68 1266.24 1289.4 1266.24 Q1293.52 1266.24 1295.92 1268.49 Q1298.32 1270.75 1298.32 1274.6 Q1298.32 1278.57 1295.86 1280.77 Q1293.39 1282.96 1288.89 1282.96 Q1287.35 1282.96 1285.73 1282.7 Q1284.14 1282.43 1282.43 1281.91 L1282.43 1278.57 Q1283.91 1279.37 1285.49 1279.77 Q1287.07 1280.16 1288.83 1280.16 Q1291.68 1280.16 1293.34 1278.66 Q1295 1277.17 1295 1274.6 Q1295 1272.03 1293.34 1270.53 Q1291.68 1269.04 1288.83 1269.04 Q1287.49 1269.04 1286.16 1269.33 Q1284.85 1269.63 1283.46 1270.25 L1283.46 1257.91 Z" fill="#000000" fill-rule="evenodd" fill-opacity="1" /><path clip-path="url(#clip000)" d="M 0 0 M1520.72 1303.02 L1527.4 1303.02 L1527.4 1279.95 L1520.13 1281.41 L1520.13 1277.68 L1527.36 1276.23 L1531.45 1276.23 L1531.45 1303.02 L1538.14 1303.02 L1538.14 1306.47 L1520.72 1306.47 L1520.72 1303.02 Z" fill="#000000" fill-rule="evenodd" fill-opacity="1" /><path clip-path="url(#clip000)" d="M 0 0 M1551.32 1278.92 Q1548.16 1278.92 1546.56 1282.04 Q1544.98 1285.14 1544.98 1291.38 Q1544.98 1297.59 1546.56 1300.71 Q1548.16 1303.81 1551.32 1303.81 Q1554.5 1303.81 1556.08 1300.71 Q1557.68 1297.59 1557.68 1291.38 Q1557.68 1285.14 1556.08 1282.04 Q1554.5 1278.92 1551.32 1278.92 M1551.32 1275.68 Q1556.41 1275.68 1559.08 1279.71 Q1561.77 1283.72 1561.77 1291.38 Q1561.77 1299.01 1559.08 1303.04 Q1556.41 1307.05 1551.32 1307.05 Q1546.24 1307.05 1543.55 1303.04 Q1540.87 1299.01 1540.87 1291.38 Q1540.87 1283.72 1543.55 1279.71 Q1546.24 1275.68 1551.32 1275.68 Z" fill="#000000" fill-rule="evenodd" fill-opacity="1" /><path clip-path="url(#clip000)" d="M 0 0 M1570.27 1260.1 Q1567.7 1260.1 1566.4 1262.63 Q1565.12 1265.15 1565.12 1270.22 Q1565.12 1275.27 1566.4 1277.81 Q1567.7 1280.33 1570.27 1280.33 Q1572.85 1280.33 1574.13 1277.81 Q1575.43 1275.27 1575.43 1270.22 Q1575.43 1265.15 1574.13 1262.63 Q1572.85 1260.1 1570.27 1260.1 M1570.27 1257.47 Q1574.4 1257.47 1576.57 1260.74 Q1578.76 1264 1578.76 1270.22 Q1578.76 1276.43 1576.57 1279.7 Q1574.4 1282.96 1570.27 1282.96 Q1566.14 1282.96 1563.95 1279.7 Q1561.77 1276.43 1561.77 1270.22 Q1561.77 1264 1563.95 1260.74 Q1566.14 1257.47 1570.27 1257.47 Z" fill="#000000" fill-rule="evenodd" fill-opacity="1" /><path clip-path="url(#clip000)" d="M 0 0 M1582.36 1278.3 L1585.83 1278.3 L1585.83 1282.48 L1582.36 1282.48 L1582.36 1278.3 Z" fill="#000000" fill-rule="evenodd" fill-opacity="1" /><path clip-path="url(#clip000)" d="M 0 0 M1596.55 1260.1 Q1593.98 1260.1 1592.68 1262.63 Q1591.4 1265.15 1591.4 1270.22 Q1591.4 1275.27 1592.68 1277.81 Q1593.98 1280.33 1596.55 1280.33 Q1599.13 1280.33 1600.42 1277.81 Q1601.72 1275.27 1601.72 1270.22 Q1601.72 1265.15 1600.42 1262.63 Q1599.13 1260.1 1596.55 1260.1 M1596.55 1257.47 Q1600.68 1257.47 1602.85 1260.74 Q1605.04 1264 1605.04 1270.22 Q1605.04 1276.43 1602.85 1279.7 Q1600.68 1282.96 1596.55 1282.96 Q1592.42 1282.96 1590.23 1279.7 Q1588.06 1276.43 1588.06 1270.22 Q1588.06 1264 1590.23 1260.74 Q1592.42 1257.47 1596.55 1257.47 Z" fill="#000000" fill-rule="evenodd" fill-opacity="1" /><path clip-path="url(#clip000)" d="M 0 0 M1839.09 1303.02 L1845.78 1303.02 L1845.78 1279.95 L1838.51 1281.41 L1838.51 1277.68 L1845.74 1276.23 L1849.83 1276.23 L1849.83 1303.02 L1856.51 1303.02 L1856.51 1306.47 L1839.09 1306.47 L1839.09 1303.02 Z" fill="#000000" fill-rule="evenodd" fill-opacity="1" /><path clip-path="url(#clip000)" d="M 0 0 M1869.7 1278.92 Q1866.54 1278.92 1864.94 1282.04 Q1863.36 1285.14 1863.36 1291.38 Q1863.36 1297.59 1864.94 1300.71 Q1866.54 1303.81 1869.7 1303.81 Q1872.88 1303.81 1874.46 1300.71 Q1876.06 1297.59 1876.06 1291.38 Q1876.06 1285.14 1874.46 1282.04 Q1872.88 1278.92 1869.7 1278.92 M1869.7 1275.68 Q1874.78 1275.68 1877.46 1279.71 Q1880.15 1283.72 1880.15 1291.38 Q1880.15 1299.01 1877.46 1303.04 Q1874.78 1307.05 1869.7 1307.05 Q1864.62 1307.05 1861.92 1303.04 Q1859.25 1299.01 1859.25 1291.38 Q1859.25 1283.72 1861.92 1279.71 Q1864.62 1275.68 1869.7 1275.68 Z" fill="#000000" fill-rule="evenodd" fill-opacity="1" /><path clip-path="url(#clip000)" d="M 0 0 M1888.64 1260.1 Q1886.08 1260.1 1884.78 1262.63 Q1883.49 1265.15 1883.49 1270.22 Q1883.49 1275.27 1884.78 1277.81 Q1886.08 1280.33 1888.64 1280.33 Q1891.23 1280.33 1892.51 1277.81 Q1893.81 1275.27 1893.81 1270.22 Q1893.81 1265.15 1892.51 1262.63 Q1891.23 1260.1 1888.64 1260.1 M1888.64 1257.47 Q1892.77 1257.47 1894.95 1260.74 Q1897.13 1264 1897.13 1270.22 Q1897.13 1276.43 1894.95 1279.7 Q1892.77 1282.96 1888.64 1282.96 Q1884.51 1282.96 1882.32 1279.7 Q1880.15 1276.43 1880.15 1270.22 Q1880.15 1264 1882.32 1260.74 Q1884.51 1257.47 1888.64 1257.47 Z" fill="#000000" fill-rule="evenodd" fill-opacity="1" /><path clip-path="url(#clip000)" d="M 0 0 M1900.74 1278.3 L1904.21 1278.3 L1904.21 1282.48 L1900.74 1282.48 L1900.74 1278.3 Z" fill="#000000" fill-rule="evenodd" fill-opacity="1" /><path clip-path="url(#clip000)" d="M 0 0 M1907.85 1257.91 L1920.9 1257.91 L1920.9 1260.71 L1910.89 1260.71 L1910.89 1266.73 Q1911.62 1266.49 1912.34 1266.37 Q1913.06 1266.24 1913.79 1266.24 Q1917.9 1266.24 1920.31 1268.49 Q1922.71 1270.75 1922.71 1274.6 Q1922.71 1278.57 1920.24 1280.77 Q1917.77 1282.96 1913.28 1282.96 Q1911.73 1282.96 1910.12 1282.7 Q1908.52 1282.43 1906.81 1281.91 L1906.81 1278.57 Q1908.29 1279.37 1909.87 1279.77 Q1911.45 1280.16 1913.21 1280.16 Q1916.06 1280.16 1917.72 1278.66 Q1919.38 1277.17 1919.38 1274.6 Q1919.38 1272.03 1917.72 1270.53 Q1916.06 1269.04 1913.21 1269.04 Q1911.88 1269.04 1910.55 1269.33 Q1909.23 1269.63 1907.85 1270.25 L1907.85 1257.91 Z" fill="#000000" fill-rule="evenodd" fill-opacity="1" /><path clip-path="url(#clip000)" d="M 0 0 M1140.34 1378.22 Q1128.78 1378.22 1128.78 1361.68 Q1128.78 1355.13 1133.09 1346.22 L1138.61 1346.22 Q1134.63 1355.13 1134.63 1361.82 Q1134.63 1373.88 1140.81 1373.88 Q1146.46 1373.88 1146.46 1358.89 L1151.2 1358.89 Q1151.2 1373.88 1156.85 1373.88 Q1163.03 1373.88 1163.03 1361.82 Q1163.03 1355.13 1159.05 1346.22 L1164.56 1346.22 Q1168.88 1355.13 1168.88 1361.68 Q1168.88 1378.22 1157.32 1378.22 Q1149.75 1378.22 1148.83 1369.89 Q1147.69 1378.22 1140.34 1378.22 Z" fill="#000000" fill-rule="evenodd" fill-opacity="1" /><polyline clip-path="url(#clip003)" style="stroke:#000000; stroke-width:1.75; stroke-opacity:0.1; fill:none" points="
  238.997,1140.45 2058.66,1140.45 
  "/>
<polyline clip-path="url(#clip003)" style="stroke:#000000; stroke-width:1.75; stroke-opacity:0.1; fill:none" points="
  238.997,1002.89 2058.66,1002.89 
  "/>
<polyline clip-path="url(#clip003)" style="stroke:#000000; stroke-width:1.75; stroke-opacity:0.1; fill:none" points="
  238.997,865.328 2058.66,865.328 
  "/>
<polyline clip-path="url(#clip003)" style="stroke:#000000; stroke-width:1.75; stroke-opacity:0.1; fill:none" points="
  238.997,727.769 2058.66,727.769 
  "/>
<polyline clip-path="url(#clip000)" style="stroke:#000000; stroke-width:3.5; stroke-opacity:1; fill:none" points="
  238.997,1234.53 238.997,713.659 
  "/>
<polyline clip-path="url(#clip000)" style="stroke:#000000; stroke-width:3.5; stroke-opacity:1; fill:none" points="
  238.997,1140.45 260.833,1140.45 
  "/>
<polyline clip-path="url(#clip000)" style="stroke:#000000; stroke-width:3.5; stroke-opacity:1; fill:none" points="
  238.997,1002.89 260.833,1002.89 
  "/>
<polyline clip-path="url(#clip000)" style="stroke:#000000; stroke-width:3.5; stroke-opacity:1; fill:none" points="
  238.997,865.328 260.833,865.328 
  "/>
<polyline clip-path="url(#clip000)" style="stroke:#000000; stroke-width:3.5; stroke-opacity:1; fill:none" points="
  238.997,727.769 260.833,727.769 
  "/>
<path clip-path="url(#clip000)" d="M 0 0 M112.565 1140.84 L138.531 1140.84 L138.531 1144.28 L112.565 1144.28 L112.565 1140.84 Z" fill="#000000" fill-rule="evenodd" fill-opacity="1" /><path clip-path="url(#clip000)" d="M 0 0 M143.676 1152.12 L150.359 1152.12 L150.359 1129.05 L143.088 1130.51 L143.088 1126.78 L150.319 1125.33 L154.41 1125.33 L154.41 1152.12 L161.094 1152.12 L161.094 1155.57 L143.676 1155.57 L143.676 1152.12 Z" fill="#000000" fill-rule="evenodd" fill-opacity="1" /><path clip-path="url(#clip000)" d="M 0 0 M165.571 1125.33 L181.632 1125.33 L181.632 1128.77 L169.318 1128.77 L169.318 1136.18 Q170.209 1135.88 171.1 1135.74 Q171.991 1135.57 172.883 1135.57 Q177.946 1135.57 180.903 1138.35 Q183.86 1141.12 183.86 1145.86 Q183.86 1150.75 180.822 1153.46 Q177.784 1156.15 172.255 1156.15 Q170.351 1156.15 168.366 1155.83 Q166.401 1155.51 164.295 1154.86 L164.295 1150.75 Q166.118 1151.74 168.062 1152.22 Q170.006 1152.71 172.174 1152.71 Q175.678 1152.71 177.723 1150.87 Q179.769 1149.02 179.769 1145.86 Q179.769 1142.7 177.723 1140.86 Q175.678 1139.02 172.174 1139.02 Q170.533 1139.02 168.892 1139.38 Q167.272 1139.75 165.571 1140.52 L165.571 1125.33 Z" fill="#000000" fill-rule="evenodd" fill-opacity="1" /><path clip-path="url(#clip000)" d="M 0 0 M197.046 1128.02 Q193.886 1128.02 192.286 1131.14 Q190.706 1134.24 190.706 1140.48 Q190.706 1146.69 192.286 1149.81 Q193.886 1152.91 197.046 1152.91 Q200.226 1152.91 201.806 1149.81 Q203.406 1146.69 203.406 1140.48 Q203.406 1134.24 201.806 1131.14 Q200.226 1128.02 197.046 1128.02 M197.046 1124.78 Q202.13 1124.78 204.804 1128.81 Q207.497 1132.82 207.497 1140.48 Q207.497 1148.11 204.804 1152.14 Q202.13 1156.15 197.046 1156.15 Q191.962 1156.15 189.268 1152.14 Q186.595 1148.11 186.595 1140.48 Q186.595 1132.82 189.268 1128.81 Q191.962 1124.78 197.046 1124.78 Z" fill="#000000" fill-rule="evenodd" fill-opacity="1" /><path clip-path="url(#clip000)" d="M 0 0 M111.694 1003.28 L137.66 1003.28 L137.66 1006.73 L111.694 1006.73 L111.694 1003.28 Z" fill="#000000" fill-rule="evenodd" fill-opacity="1" /><path clip-path="url(#clip000)" d="M 0 0 M142.805 1014.56 L149.489 1014.56 L149.489 991.494 L142.217 992.952 L142.217 989.225 L149.448 987.767 L153.539 987.767 L153.539 1014.56 L160.223 1014.56 L160.223 1018.01 L142.805 1018.01 L142.805 1014.56 Z" fill="#000000" fill-rule="evenodd" fill-opacity="1" /><path clip-path="url(#clip000)" d="M 0 0 M173.409 990.461 Q170.249 990.461 168.649 993.58 Q167.069 996.679 167.069 1002.92 Q167.069 1009.14 168.649 1012.25 Q170.249 1015.35 173.409 1015.35 Q176.589 1015.35 178.169 1012.25 Q179.769 1009.14 179.769 1002.92 Q179.769 996.679 178.169 993.58 Q176.589 990.461 173.409 990.461 M173.409 987.22 Q178.493 987.22 181.167 991.251 Q183.86 995.261 183.86 1002.92 Q183.86 1010.55 181.167 1014.58 Q178.493 1018.59 173.409 1018.59 Q168.325 1018.59 165.631 1014.58 Q162.958 1010.55 162.958 1002.92 Q162.958 995.261 165.631 991.251 Q168.325 987.22 173.409 987.22 Z" fill="#000000" fill-rule="evenodd" fill-opacity="1" /><path clip-path="url(#clip000)" d="M 0 0 M197.046 990.461 Q193.886 990.461 192.286 993.58 Q190.706 996.679 190.706 1002.92 Q190.706 1009.14 192.286 1012.25 Q193.886 1015.35 197.046 1015.35 Q200.226 1015.35 201.806 1012.25 Q203.406 1009.14 203.406 1002.92 Q203.406 996.679 201.806 993.58 Q200.226 990.461 197.046 990.461 M197.046 987.22 Q202.13 987.22 204.804 991.251 Q207.497 995.261 207.497 1002.92 Q207.497 1010.55 204.804 1014.58 Q202.13 1018.59 197.046 1018.59 Q191.962 1018.59 189.268 1014.58 Q186.595 1010.55 186.595 1002.92 Q186.595 995.261 189.268 991.251 Q191.962 987.22 197.046 987.22 Z" fill="#000000" fill-rule="evenodd" fill-opacity="1" /><path clip-path="url(#clip000)" d="M 0 0 M135.128 865.723 L161.094 865.723 L161.094 869.166 L135.128 869.166 L135.128 865.723 Z" fill="#000000" fill-rule="evenodd" fill-opacity="1" /><path clip-path="url(#clip000)" d="M 0 0 M165.571 850.208 L181.632 850.208 L181.632 853.651 L169.318 853.651 L169.318 861.065 Q170.209 860.761 171.1 860.619 Q171.991 860.457 172.883 860.457 Q177.946 860.457 180.903 863.232 Q183.86 866.007 183.86 870.746 Q183.86 875.628 180.822 878.342 Q177.784 881.036 172.255 881.036 Q170.351 881.036 168.366 880.712 Q166.401 880.387 164.295 879.739 L164.295 875.628 Q166.118 876.62 168.062 877.106 Q170.006 877.592 172.174 877.592 Q175.678 877.592 177.723 875.749 Q179.769 873.906 179.769 870.746 Q179.769 867.587 177.723 865.743 Q175.678 863.9 172.174 863.9 Q170.533 863.9 168.892 864.265 Q167.272 864.629 165.571 865.399 L165.571 850.208 Z" fill="#000000" fill-rule="evenodd" fill-opacity="1" /><path clip-path="url(#clip000)" d="M 0 0 M197.046 852.902 Q193.886 852.902 192.286 856.021 Q190.706 859.12 190.706 865.359 Q190.706 871.577 192.286 874.696 Q193.886 877.795 197.046 877.795 Q200.226 877.795 201.806 874.696 Q203.406 871.577 203.406 865.359 Q203.406 859.12 201.806 856.021 Q200.226 852.902 197.046 852.902 M197.046 849.661 Q202.13 849.661 204.804 853.692 Q207.497 857.702 207.497 865.359 Q207.497 872.995 204.804 877.025 Q202.13 881.036 197.046 881.036 Q191.962 881.036 189.268 877.025 Q186.595 872.995 186.595 865.359 Q186.595 857.702 189.268 853.692 Q191.962 849.661 197.046 849.661 Z" fill="#000000" fill-rule="evenodd" fill-opacity="1" /><path clip-path="url(#clip000)" d="M 0 0 M197.046 715.343 Q193.886 715.343 192.286 718.462 Q190.706 721.561 190.706 727.8 Q190.706 734.018 192.286 737.137 Q193.886 740.236 197.046 740.236 Q200.226 740.236 201.806 737.137 Q203.406 734.018 203.406 727.8 Q203.406 721.561 201.806 718.462 Q200.226 715.343 197.046 715.343 M197.046 712.102 Q202.13 712.102 204.804 716.133 Q207.497 720.143 207.497 727.8 Q207.497 735.436 204.804 739.466 Q202.13 743.477 197.046 743.477 Q191.962 743.477 189.268 739.466 Q186.595 735.436 186.595 727.8 Q186.595 720.143 189.268 716.133 Q191.962 712.102 197.046 712.102 Z" fill="#000000" fill-rule="evenodd" fill-opacity="1" /><path clip-path="url(#clip000)" d="M 0 0 M40.6773 969.738 Q40.6773 971.548 44.7155 971.548 L63.8206 971.548 Q63.8206 968.903 60.9242 966.257 Q58.3342 963.89 52.1236 963.89 Q46.3308 963.89 43.2116 966.285 Q40.6773 968.234 40.6773 969.738 M36.3049 969.738 Q36.3049 965.839 39.981 962.302 Q43.9079 958.487 52.1236 958.487 Q59.671 958.487 64.1548 962.302 Q68.388 965.895 68.388 971.548 L79.5837 971.548 L79.5837 976.645 L68.4159 976.645 Q68.4159 982.187 64.1548 985.919 Q59.8102 989.707 52.1515 989.707 Q44.1864 989.707 40.1203 985.919 Q37.0846 983.078 36.3049 978.455 L40.8444 978.455 Q41.4849 980.293 43.6572 981.909 Q46.86 984.304 52.1515 984.304 Q57.7772 984.304 60.9799 981.909 Q63.8485 979.764 63.8485 976.645 L44.7155 976.645 Q36.3049 976.645 36.3049 969.738 Z" fill="#000000" fill-rule="evenodd" fill-opacity="1" /><circle clip-path="url(#clip003)" cx="290.497" cy="728.402" r="12" fill="#009af9" fill-rule="evenodd" fill-opacity="1" stroke="#000000" stroke-opacity="1" stroke-width="2.8"/>
<circle clip-path="url(#clip003)" cx="735.073" cy="730.878" r="12" fill="#009af9" fill-rule="evenodd" fill-opacity="1" stroke="#000000" stroke-opacity="1" stroke-width="2.8"/>
<circle clip-path="url(#clip003)" cx="926.542" cy="734.345" r="12" fill="#009af9" fill-rule="evenodd" fill-opacity="1" stroke="#000000" stroke-opacity="1" stroke-width="2.8"/>
<circle clip-path="url(#clip003)" cx="1118.01" cy="742.736" r="12" fill="#009af9" fill-rule="evenodd" fill-opacity="1" stroke="#000000" stroke-opacity="1" stroke-width="2.8"/>
<circle clip-path="url(#clip003)" cx="1230.01" cy="759.738" r="12" fill="#009af9" fill-rule="evenodd" fill-opacity="1" stroke="#000000" stroke-opacity="1" stroke-width="2.8"/>
<circle clip-path="url(#clip003)" cx="1309.48" cy="793.687" r="12" fill="#009af9" fill-rule="evenodd" fill-opacity="1" stroke="#000000" stroke-opacity="1" stroke-width="2.8"/>
<circle clip-path="url(#clip003)" cx="1371.12" cy="975.375" r="12" fill="#009af9" fill-rule="evenodd" fill-opacity="1" stroke="#000000" stroke-opacity="1" stroke-width="2.8"/>
<circle clip-path="url(#clip003)" cx="1421.48" cy="1144.27" r="12" fill="#009af9" fill-rule="evenodd" fill-opacity="1" stroke="#000000" stroke-opacity="1" stroke-width="2.8"/>
<circle clip-path="url(#clip003)" cx="1464.06" cy="1178.25" r="12" fill="#009af9" fill-rule="evenodd" fill-opacity="1" stroke="#000000" stroke-opacity="1" stroke-width="2.8"/>
<circle clip-path="url(#clip003)" cx="1500.95" cy="1190.24" r="12" fill="#009af9" fill-rule="evenodd" fill-opacity="1" stroke="#000000" stroke-opacity="1" stroke-width="2.8"/>
<circle clip-path="url(#clip003)" cx="1533.48" cy="1197.86" r="12" fill="#009af9" fill-rule="evenodd" fill-opacity="1" stroke="#000000" stroke-opacity="1" stroke-width="2.8"/>
<circle clip-path="url(#clip003)" cx="1588.91" cy="1204.99" r="12" fill="#009af9" fill-rule="evenodd" fill-opacity="1" stroke="#000000" stroke-opacity="1" stroke-width="2.8"/>
<circle clip-path="url(#clip003)" cx="1674.59" cy="1211.18" r="12" fill="#009af9" fill-rule="evenodd" fill-opacity="1" stroke="#000000" stroke-opacity="1" stroke-width="2.8"/>
<circle clip-path="url(#clip003)" cx="1754.05" cy="1214.59" r="12" fill="#009af9" fill-rule="evenodd" fill-opacity="1" stroke="#000000" stroke-opacity="1" stroke-width="2.8"/>
<circle clip-path="url(#clip003)" cx="2007.16" cy="1219.79" r="12" fill="#009af9" fill-rule="evenodd" fill-opacity="1" stroke="#000000" stroke-opacity="1" stroke-width="2.8"/>
<polyline clip-path="url(#clip003)" style="stroke:#e26f46; stroke-width:3.5; stroke-opacity:1; fill:none" points="
  290.497,728.401 307.837,728.442 325.178,728.485 342.518,728.532 359.858,728.581 377.198,728.634 394.538,728.69 411.878,728.75 429.218,728.813 446.558,728.881 
  463.898,728.953 481.238,729.03 498.578,729.112 515.918,729.199 533.258,729.292 550.598,729.392 567.938,729.497 585.278,729.61 602.618,729.73 619.958,729.858 
  637.298,729.995 654.638,730.141 671.978,730.296 689.318,730.462 706.658,730.639 723.998,730.829 741.338,731.031 758.679,731.247 776.019,731.478 793.359,731.725 
  810.699,731.99 828.039,732.274 845.379,732.579 862.719,732.906 880.059,733.257 897.399,733.636 914.739,734.043 932.079,734.484 949.419,734.96 966.759,735.476 
  984.099,736.037 1001.44,736.648 1018.78,737.315 1036.12,738.048 1053.46,738.855 1070.8,739.749 1088.14,740.743 1105.48,741.857 1122.82,743.113 1140.16,744.542 
  1157.5,746.184 1174.84,748.093 1192.18,750.341 1209.52,753.035 1226.86,756.325 1244.2,760.441 1261.54,765.748 1278.88,772.854 1296.22,782.85 1313.56,797.849 
  1330.9,822.325 1348.24,866.086 1365.58,943.804 1382.92,1038.61 1400.26,1103.24 1417.6,1138.59 1434.94,1158.97 1452.28,1171.85 1469.62,1180.66 1486.96,1187.04 
  1504.3,1191.87 1521.64,1195.67 1538.98,1198.72 1556.32,1201.25 1573.66,1203.37 1591,1205.17 1608.34,1206.73 1625.68,1208.1 1643.02,1209.3 1660.36,1210.37 
  1677.7,1211.33 1695.04,1212.19 1712.38,1212.97 1729.72,1213.68 1747.06,1214.32 1764.4,1214.92 1781.74,1215.46 1799.08,1215.96 1816.42,1216.43 1833.76,1216.85 
  1851.1,1217.25 1868.44,1217.62 1885.78,1217.96 1903.12,1218.28 1920.46,1218.58 1937.8,1218.86 1955.14,1219.11 1972.48,1219.36 1989.82,1219.58 2007.16,1219.79 
  
  "/>
</svg>
