<?xml version="1.0" encoding="utf-8"?>
<svg xmlns="http://www.w3.org/2000/svg" xmlns:xlink="http://www.w3.org/1999/xlink" width="525" height="350" viewBox="0 0 2100 1400">
<defs>
  <clipPath id="clip120">
    <rect x="0" y="0" width="2100" height="1400"/>
  </clipPath>
</defs>
<path clip-path="url(#clip120)" d="
M0 1400 L2100 1400 L2100 0 L0 0  Z
  " fill="#ffffff" fill-rule="evenodd" fill-opacity="1"/>
<defs>
  <clipPath id="clip121">
    <rect x="420" y="0" width="1471" height="1400"/>
  </clipPath>
</defs>
<path clip-path="url(#clip120)" d="
M238.997 562.214 L2058.66 562.214 L2058.66 41.3386 L238.997 41.3386  Z
  " fill="#ffffff" fill-rule="evenodd" fill-opacity="1"/>
<defs>
  <clipPath id="clip122">
    <rect x="238" y="41" width="1821" height="522"/>
  </clipPath>
</defs>
<polyline clip-path="url(#clip122)" style="stroke:#000000; stroke-width:1.75; stroke-opacity:0.1; fill:none" points="
  290.497,562.214 290.497,41.3386 
  "/>
<polyline clip-path="url(#clip122)" style="stroke:#000000; stroke-width:1.75; stroke-opacity:0.1; fill:none" points="
  810.536,562.214 810.536,41.3386 
  "/>
<polyline clip-path="url(#clip122)" style="stroke:#000000; stroke-width:1.75; stroke-opacity:0.1; fill:none" points="
  1330.58,562.214 1330.58,41.3386 
  "/>
<polyline clip-path="url(#clip122)" style="stroke:#000000; stroke-width:1.75; stroke-opacity:0.1; fill:none" points="
  1850.61,562.214 1850.61,41.3386 
  "/>
<polyline clip-path="url(#clip120)" style="stroke:#000000; stroke-width:3.5; stroke-opacity:1; fill:none" points="
  238.997,562.214 2058.66,562.214 
  "/>
<polyline clip-path="url(#clip120)" style="stroke:#000000; stroke-width:3.5; stroke-opacity:1; fill:none" points="
  290.497,562.214 290.497,555.964 
  "/>
<polyline clip-path="url(#clip120)" style="stroke:#000000; stroke-width:3.5; stroke-opacity:1; fill:none" points="
  810.536,562.214 810.536,555.964 
  "/>
<polyline clip-path="url(#clip120)" style="stroke:#000000; stroke-width:3.5; stroke-opacity:1; fill:none" points="
  1330.58,562.214 1330.58,555.964 
  "/>
<polyline clip-path="url(#clip120)" style="stroke:#000000; stroke-width:3.5; stroke-opacity:1; fill:none" points="
  1850.61,562.214 1850.61,555.964 
  "/>
<path clip-path="url(#clip120)" d="M 0 0 M250.68 630.702 L257.364 630.702 L257.364 607.632 L250.092 609.091 L250.092 605.364 L257.323 603.906 L261.414 603.906 L261.414 630.702 L268.098 630.702 L268.098 634.146 L250.68 634.146 L250.68 630.702 Z" fill="#000000" fill-rule="evenodd" fill-opacity="1" /><path clip-path="url(#clip120)" d="M 0 0 M281.284 606.599 Q278.124 606.599 276.524 609.719 Q274.944 612.818 274.944 619.056 Q274.944 625.274 276.524 628.393 Q278.124 631.492 281.284 631.492 Q284.464 631.492 286.044 628.393 Q287.644 625.274 287.644 619.056 Q287.644 612.818 286.044 609.719 Q284.464 606.599 281.284 606.599 M281.284 603.359 Q286.368 603.359 289.042 607.389 Q291.735 611.4 291.735 619.056 Q291.735 626.692 289.042 630.723 Q286.368 634.733 281.284 634.733 Q276.2 634.733 273.506 630.723 Q270.833 626.692 270.833 619.056 Q270.833 611.4 273.506 607.389 Q276.2 603.359 281.284 603.359 Z" fill="#000000" fill-rule="evenodd" fill-opacity="1" /><path clip-path="url(#clip120)" d="M 0 0 M291.735 598.197 L312.833 598.197 L312.833 600.995 L291.735 600.995 L291.735 598.197 Z" fill="#000000" fill-rule="evenodd" fill-opacity="1" /><path clip-path="url(#clip120)" d="M 0 0 M319.301 607.364 L330.903 607.364 L330.903 610.162 L315.302 610.162 L315.302 607.364 Q317.194 605.406 320.453 602.114 Q323.727 598.806 324.567 597.852 Q326.163 596.058 326.788 594.824 Q327.43 593.573 327.43 592.372 Q327.43 590.413 326.048 589.179 Q324.682 587.945 322.477 587.945 Q320.913 587.945 319.169 588.488 Q317.441 589.031 315.466 590.134 L315.466 586.776 Q317.474 585.97 319.218 585.559 Q320.963 585.147 322.411 585.147 Q326.229 585.147 328.5 587.056 Q330.771 588.965 330.771 592.158 Q330.771 593.672 330.195 595.038 Q329.635 596.387 328.138 598.23 Q327.726 598.708 325.521 600.995 Q323.316 603.266 319.301 607.364 Z" fill="#000000" fill-rule="evenodd" fill-opacity="1" /><path clip-path="url(#clip120)" d="M 0 0 M770.587 630.702 L777.271 630.702 L777.271 607.632 L769.999 609.091 L769.999 605.364 L777.23 603.906 L781.322 603.906 L781.322 630.702 L788.006 630.702 L788.006 634.146 L770.587 634.146 L770.587 630.702 Z" fill="#000000" fill-rule="evenodd" fill-opacity="1" /><path clip-path="url(#clip120)" d="M 0 0 M801.191 606.599 Q798.032 606.599 796.432 609.719 Q794.852 612.818 794.852 619.056 Q794.852 625.274 796.432 628.393 Q798.032 631.492 801.191 631.492 Q804.371 631.492 805.951 628.393 Q807.551 625.274 807.551 619.056 Q807.551 612.818 805.951 609.719 Q804.371 606.599 801.191 606.599 M801.191 603.359 Q806.275 603.359 808.949 607.389 Q811.643 611.4 811.643 619.056 Q811.643 626.692 808.949 630.723 Q806.275 634.733 801.191 634.733 Q796.108 634.733 793.414 630.723 Q790.74 626.692 790.74 619.056 Q790.74 611.4 793.414 607.389 Q796.108 603.359 801.191 603.359 Z" fill="#000000" fill-rule="evenodd" fill-opacity="1" /><path clip-path="url(#clip120)" d="M 0 0 M811.643 598.197 L832.74 598.197 L832.74 600.995 L811.643 600.995 L811.643 598.197 Z" fill="#000000" fill-rule="evenodd" fill-opacity="1" /><path clip-path="url(#clip120)" d="M 0 0 M836.92 607.364 L842.351 607.364 L842.351 588.62 L836.443 589.804 L836.443 586.776 L842.318 585.592 L845.642 585.592 L845.642 607.364 L851.073 607.364 L851.073 610.162 L836.92 610.162 L836.92 607.364 Z" fill="#000000" fill-rule="evenodd" fill-opacity="1" /><path clip-path="url(#clip120)" d="M 0 0 M1301.85 630.702 L1308.53 630.702 L1308.53 607.632 L1301.26 609.091 L1301.26 605.364 L1308.49 603.906 L1312.58 603.906 L1312.58 630.702 L1319.27 630.702 L1319.27 634.146 L1301.85 634.146 L1301.85 630.702 Z" fill="#000000" fill-rule="evenodd" fill-opacity="1" /><path clip-path="url(#clip120)" d="M 0 0 M1332.45 606.599 Q1329.29 606.599 1327.69 609.719 Q1326.11 612.818 1326.11 619.056 Q1326.11 625.274 1327.69 628.393 Q1329.29 631.492 1332.45 631.492 Q1335.63 631.492 1337.21 628.393 Q1338.81 625.274 1338.81 619.056 Q1338.81 612.818 1337.21 609.719 Q1335.63 606.599 1332.45 606.599 M1332.45 603.359 Q1337.54 603.359 1340.21 607.389 Q1342.91 611.4 1342.91 619.056 Q1342.91 626.692 1340.21 630.723 Q1337.54 634.733 1332.45 634.733 Q1327.37 634.733 1324.68 630.723 Q1322 626.692 1322 619.056 Q1322 611.4 1324.68 607.389 Q1327.37 603.359 1332.45 603.359 Z" fill="#000000" fill-rule="evenodd" fill-opacity="1" /><path clip-path="url(#clip120)" d="M 0 0 M1351.4 587.78 Q1348.83 587.78 1347.53 590.315 Q1346.25 592.833 1346.25 597.901 Q1346.25 602.953 1347.53 605.488 Q1348.83 608.006 1351.4 608.006 Q1353.98 608.006 1355.26 605.488 Q1356.56 602.953 1356.56 597.901 Q1356.56 592.833 1355.26 590.315 Q1353.98 587.78 1351.4 587.78 M1351.4 585.147 Q1355.53 585.147 1357.7 588.422 Q1359.89 591.681 1359.89 597.901 Q1359.89 604.105 1357.7 607.38 Q1355.53 610.639 1351.4 610.639 Q1347.27 610.639 1345.08 607.38 Q1342.91 604.105 1342.91 597.901 Q1342.91 591.681 1345.08 588.422 Q1347.27 585.147 1351.4 585.147 Z" fill="#000000" fill-rule="evenodd" fill-opacity="1" /><path clip-path="url(#clip120)" d="M 0 0 M1823.06 630.702 L1829.75 630.702 L1829.75 607.632 L1822.48 609.091 L1822.48 605.364 L1829.71 603.906 L1833.8 603.906 L1833.8 630.702 L1840.48 630.702 L1840.48 634.146 L1823.06 634.146 L1823.06 630.702 Z" fill="#000000" fill-rule="evenodd" fill-opacity="1" /><path clip-path="url(#clip120)" d="M 0 0 M1853.67 606.599 Q1850.51 606.599 1848.91 609.719 Q1847.33 612.818 1847.33 619.056 Q1847.33 625.274 1848.91 628.393 Q1850.51 631.492 1853.67 631.492 Q1856.85 631.492 1858.43 628.393 Q1860.03 625.274 1860.03 619.056 Q1860.03 612.818 1858.43 609.719 Q1856.85 606.599 1853.67 606.599 M1853.67 603.359 Q1858.75 603.359 1861.43 607.389 Q1864.12 611.4 1864.12 619.056 Q1864.12 626.692 1861.43 630.723 Q1858.75 634.733 1853.67 634.733 Q1848.59 634.733 1845.89 630.723 Q1843.22 626.692 1843.22 619.056 Q1843.22 611.4 1845.89 607.389 Q1848.59 603.359 1853.67 603.359 Z" fill="#000000" fill-rule="evenodd" fill-opacity="1" /><path clip-path="url(#clip120)" d="M 0 0 M1864.6 607.364 L1870.03 607.364 L1870.03 588.62 L1864.12 589.804 L1864.12 586.776 L1870 585.592 L1873.32 585.592 L1873.32 607.364 L1878.75 607.364 L1878.75 610.162 L1864.6 610.162 L1864.6 607.364 Z" fill="#000000" fill-rule="evenodd" fill-opacity="1" /><polyline clip-path="url(#clip122)" style="stroke:#000000; stroke-width:1.75; stroke-opacity:0.1; fill:none" points="
  238.997,473.079 2058.66,473.079 
  "/>
<polyline clip-path="url(#clip122)" style="stroke:#000000; stroke-width:1.75; stroke-opacity:0.1; fill:none" points="
  238.997,379.606 2058.66,379.606 
  "/>
<polyline clip-path="url(#clip122)" style="stroke:#000000; stroke-width:1.75; stroke-opacity:0.1; fill:none" points="
  238.997,286.133 2058.66,286.133 
  "/>
<polyline clip-path="url(#clip122)" style="stroke:#000000; stroke-width:1.75; stroke-opacity:0.1; fill:none" points="
  238.997,192.66 2058.66,192.66 
  "/>
<polyline clip-path="url(#clip122)" style="stroke:#000000; stroke-width:1.75; stroke-opacity:0.1; fill:none" points="
  238.997,99.1873 2058.66,99.1873 
  "/>
<polyline clip-path="url(#clip120)" style="stroke:#000000; stroke-width:3.5; stroke-opacity:1; fill:none" points="
  238.997,562.214 238.997,41.3386 
  "/>
<polyline clip-path="url(#clip120)" style="stroke:#000000; stroke-width:3.5; stroke-opacity:1; fill:none" points="
  238.997,473.079 260.833,473.079 
  "/>
<polyline clip-path="url(#clip120)" style="stroke:#000000; stroke-width:3.5; stroke-opacity:1; fill:none" points="
  238.997,379.606 260.833,379.606 
  "/>
<polyline clip-path="url(#clip120)" style="stroke:#000000; stroke-width:3.5; stroke-opacity:1; fill:none" points="
  238.997,286.133 260.833,286.133 
  "/>
<polyline clip-path="url(#clip120)" style="stroke:#000000; stroke-width:3.5; stroke-opacity:1; fill:none" points="
  238.997,192.66 260.833,192.66 
  "/>
<polyline clip-path="url(#clip120)" style="stroke:#000000; stroke-width:3.5; stroke-opacity:1; fill:none" points="
  238.997,99.1873 260.833,99.1873 
  "/>
<path clip-path="url(#clip120)" d="M 0 0 M100.73 490.398 L107.414 490.398 L107.414 467.328 L100.142 468.786 L100.142 465.059 L107.373 463.601 L111.464 463.601 L111.464 490.398 L118.148 490.398 L118.148 493.841 L100.73 493.841 L100.73 490.398 Z" fill="#000000" fill-rule="evenodd" fill-opacity="1" /><path clip-path="url(#clip120)" d="M 0 0 M131.334 466.295 Q128.174 466.295 126.574 469.414 Q124.995 472.513 124.995 478.751 Q124.995 484.969 126.574 488.089 Q128.174 491.188 131.334 491.188 Q134.514 491.188 136.094 488.089 Q137.694 484.969 137.694 478.751 Q137.694 472.513 136.094 469.414 Q134.514 466.295 131.334 466.295 M131.334 463.054 Q136.418 463.054 139.092 467.085 Q141.786 471.095 141.786 478.751 Q141.786 486.387 139.092 490.418 Q136.418 494.428 131.334 494.428 Q126.25 494.428 123.556 490.418 Q120.883 486.387 120.883 478.751 Q120.883 471.095 123.556 467.085 Q126.25 463.054 131.334 463.054 Z" fill="#000000" fill-rule="evenodd" fill-opacity="1" /><path clip-path="url(#clip120)" d="M 0 0 M141.786 457.893 L162.883 457.893 L162.883 460.69 L141.786 460.69 L141.786 457.893 Z" fill="#000000" fill-rule="evenodd" fill-opacity="1" /><path clip-path="url(#clip120)" d="M 0 0 M167.063 467.059 L172.494 467.059 L172.494 448.315 L166.586 449.5 L166.586 446.472 L172.461 445.287 L175.785 445.287 L175.785 467.059 L181.216 467.059 L181.216 469.857 L167.063 469.857 L167.063 467.059 Z" fill="#000000" fill-rule="evenodd" fill-opacity="1" /><path clip-path="url(#clip120)" d="M 0 0 M184.82 465.677 L188.292 465.677 L188.292 469.857 L184.82 469.857 L184.82 465.677 Z" fill="#000000" fill-rule="evenodd" fill-opacity="1" /><path clip-path="url(#clip120)" d="M 0 0 M199.006 447.476 Q196.439 447.476 195.138 450.01 Q193.855 452.528 193.855 457.597 Q193.855 462.649 195.138 465.183 Q196.439 467.701 199.006 467.701 Q201.59 467.701 202.873 465.183 Q204.173 462.649 204.173 457.597 Q204.173 452.528 202.873 450.01 Q201.59 447.476 199.006 447.476 M199.006 444.842 Q203.136 444.842 205.309 448.117 Q207.497 451.376 207.497 457.597 Q207.497 463.801 205.309 467.076 Q203.136 470.334 199.006 470.334 Q194.875 470.334 192.686 467.076 Q190.514 463.801 190.514 457.597 Q190.514 451.376 192.686 448.117 Q194.875 444.842 199.006 444.842 Z" fill="#000000" fill-rule="evenodd" fill-opacity="1" /><path clip-path="url(#clip120)" d="M 0 0 M100.565 396.925 L107.249 396.925 L107.249 373.855 L99.9776 375.313 L99.9776 371.586 L107.209 370.128 L111.3 370.128 L111.3 396.925 L117.984 396.925 L117.984 400.368 L100.565 400.368 L100.565 396.925 Z" fill="#000000" fill-rule="evenodd" fill-opacity="1" /><path clip-path="url(#clip120)" d="M 0 0 M131.17 372.822 Q128.01 372.822 126.41 375.941 Q124.83 379.04 124.83 385.278 Q124.83 391.496 126.41 394.616 Q128.01 397.715 131.17 397.715 Q134.35 397.715 135.929 394.616 Q137.53 391.496 137.53 385.278 Q137.53 379.04 135.929 375.941 Q134.35 372.822 131.17 372.822 M131.17 369.581 Q136.253 369.581 138.927 373.612 Q141.621 377.622 141.621 385.278 Q141.621 392.914 138.927 396.945 Q136.253 400.955 131.17 400.955 Q126.086 400.955 123.392 396.945 Q120.718 392.914 120.718 385.278 Q120.718 377.622 123.392 373.612 Q126.086 369.581 131.17 369.581 Z" fill="#000000" fill-rule="evenodd" fill-opacity="1" /><path clip-path="url(#clip120)" d="M 0 0 M141.621 364.42 L162.719 364.42 L162.719 367.217 L141.621 367.217 L141.621 364.42 Z" fill="#000000" fill-rule="evenodd" fill-opacity="1" /><path clip-path="url(#clip120)" d="M 0 0 M173.432 354.003 Q170.865 354.003 169.565 356.537 Q168.281 359.055 168.281 364.124 Q168.281 369.176 169.565 371.71 Q170.865 374.228 173.432 374.228 Q176.016 374.228 177.299 371.71 Q178.599 369.176 178.599 364.124 Q178.599 359.055 177.299 356.537 Q176.016 354.003 173.432 354.003 M173.432 351.369 Q177.563 351.369 179.735 354.644 Q181.924 357.903 181.924 364.124 Q181.924 370.328 179.735 373.603 Q177.563 376.861 173.432 376.861 Q169.301 376.861 167.113 373.603 Q164.94 370.328 164.94 364.124 Q164.94 357.903 167.113 354.644 Q169.301 351.369 173.432 351.369 Z" fill="#000000" fill-rule="evenodd" fill-opacity="1" /><path clip-path="url(#clip120)" d="M 0 0 M185.528 372.204 L189 372.204 L189 376.384 L185.528 376.384 L185.528 372.204 Z" fill="#000000" fill-rule="evenodd" fill-opacity="1" /><path clip-path="url(#clip120)" d="M 0 0 M192.637 351.814 L205.687 351.814 L205.687 354.611 L195.682 354.611 L195.682 360.635 Q196.406 360.388 197.13 360.273 Q197.854 360.141 198.578 360.141 Q202.692 360.141 205.095 362.396 Q207.497 364.65 207.497 368.501 Q207.497 372.467 205.029 374.672 Q202.56 376.861 198.068 376.861 Q196.521 376.861 194.908 376.598 Q193.312 376.334 191.6 375.808 L191.6 372.467 Q193.081 373.273 194.661 373.668 Q196.241 374.063 198.002 374.063 Q200.849 374.063 202.511 372.566 Q204.173 371.068 204.173 368.501 Q204.173 365.934 202.511 364.436 Q200.849 362.939 198.002 362.939 Q196.669 362.939 195.336 363.235 Q194.019 363.531 192.637 364.156 L192.637 351.814 Z" fill="#000000" fill-rule="evenodd" fill-opacity="1" /><path clip-path="url(#clip120)" d="M 0 0 M123.177 303.452 L129.861 303.452 L129.861 280.382 L122.589 281.84 L122.589 278.113 L129.82 276.655 L133.912 276.655 L133.912 303.452 L140.596 303.452 L140.596 306.895 L123.177 306.895 L123.177 303.452 Z" fill="#000000" fill-rule="evenodd" fill-opacity="1" /><path clip-path="url(#clip120)" d="M 0 0 M153.781 279.349 Q150.622 279.349 149.021 282.468 Q147.442 285.567 147.442 291.805 Q147.442 298.023 149.021 301.143 Q150.622 304.242 153.781 304.242 Q156.961 304.242 158.541 301.143 Q160.141 298.023 160.141 291.805 Q160.141 285.567 158.541 282.468 Q156.961 279.349 153.781 279.349 M153.781 276.108 Q158.865 276.108 161.539 280.139 Q164.233 284.149 164.233 291.805 Q164.233 299.441 161.539 303.472 Q158.865 307.482 153.781 307.482 Q148.697 307.482 146.004 303.472 Q143.33 299.441 143.33 291.805 Q143.33 284.149 146.004 280.139 Q148.697 276.108 153.781 276.108 Z" fill="#000000" fill-rule="evenodd" fill-opacity="1" /><path clip-path="url(#clip120)" d="M 0 0 M172.724 260.53 Q170.157 260.53 168.857 263.064 Q167.573 265.582 167.573 270.651 Q167.573 275.703 168.857 278.237 Q170.157 280.755 172.724 280.755 Q175.308 280.755 176.592 278.237 Q177.892 275.703 177.892 270.651 Q177.892 265.582 176.592 263.064 Q175.308 260.53 172.724 260.53 M172.724 257.896 Q176.855 257.896 179.027 261.171 Q181.216 264.43 181.216 270.651 Q181.216 276.855 179.027 280.13 Q176.855 283.388 172.724 283.388 Q168.594 283.388 166.405 280.13 Q164.233 276.855 164.233 270.651 Q164.233 264.43 166.405 261.171 Q168.594 257.896 172.724 257.896 Z" fill="#000000" fill-rule="evenodd" fill-opacity="1" /><path clip-path="url(#clip120)" d="M 0 0 M184.82 278.731 L188.292 278.731 L188.292 282.911 L184.82 282.911 L184.82 278.731 Z" fill="#000000" fill-rule="evenodd" fill-opacity="1" /><path clip-path="url(#clip120)" d="M 0 0 M199.006 260.53 Q196.439 260.53 195.138 263.064 Q193.855 265.582 193.855 270.651 Q193.855 275.703 195.138 278.237 Q196.439 280.755 199.006 280.755 Q201.59 280.755 202.873 278.237 Q204.173 275.703 204.173 270.651 Q204.173 265.582 202.873 263.064 Q201.59 260.53 199.006 260.53 M199.006 257.896 Q203.136 257.896 205.309 261.171 Q207.497 264.43 207.497 270.651 Q207.497 276.855 205.309 280.13 Q203.136 283.388 199.006 283.388 Q194.875 283.388 192.686 280.13 Q190.514 276.855 190.514 270.651 Q190.514 264.43 192.686 261.171 Q194.875 257.896 199.006 257.896 Z" fill="#000000" fill-rule="evenodd" fill-opacity="1" /><path clip-path="url(#clip120)" d="M 0 0 M123.884 209.979 L130.568 209.979 L130.568 186.909 L123.297 188.367 L123.297 184.64 L130.528 183.182 L134.619 183.182 L134.619 209.979 L141.303 209.979 L141.303 213.422 L123.884 213.422 L123.884 209.979 Z" fill="#000000" fill-rule="evenodd" fill-opacity="1" /><path clip-path="url(#clip120)" d="M 0 0 M154.489 185.876 Q151.329 185.876 149.729 188.995 Q148.149 192.094 148.149 198.332 Q148.149 204.55 149.729 207.67 Q151.329 210.769 154.489 210.769 Q157.669 210.769 159.249 207.67 Q160.849 204.55 160.849 198.332 Q160.849 192.094 159.249 188.995 Q157.669 185.876 154.489 185.876 M154.489 182.635 Q159.573 182.635 162.246 186.666 Q164.94 190.676 164.94 198.332 Q164.94 205.968 162.246 209.999 Q159.573 214.009 154.489 214.009 Q149.405 214.009 146.711 209.999 Q144.038 205.968 144.038 198.332 Q144.038 190.676 146.711 186.666 Q149.405 182.635 154.489 182.635 Z" fill="#000000" fill-rule="evenodd" fill-opacity="1" /><path clip-path="url(#clip120)" d="M 0 0 M173.432 167.057 Q170.865 167.057 169.565 169.591 Q168.281 172.109 168.281 177.178 Q168.281 182.23 169.565 184.764 Q170.865 187.282 173.432 187.282 Q176.016 187.282 177.299 184.764 Q178.599 182.23 178.599 177.178 Q178.599 172.109 177.299 169.591 Q176.016 167.057 173.432 167.057 M173.432 164.423 Q177.563 164.423 179.735 167.698 Q181.924 170.957 181.924 177.178 Q181.924 183.382 179.735 186.657 Q177.563 189.915 173.432 189.915 Q169.301 189.915 167.113 186.657 Q164.94 183.382 164.94 177.178 Q164.94 170.957 167.113 167.698 Q169.301 164.423 173.432 164.423 Z" fill="#000000" fill-rule="evenodd" fill-opacity="1" /><path clip-path="url(#clip120)" d="M 0 0 M185.528 185.258 L189 185.258 L189 189.438 L185.528 189.438 L185.528 185.258 Z" fill="#000000" fill-rule="evenodd" fill-opacity="1" /><path clip-path="url(#clip120)" d="M 0 0 M192.637 164.868 L205.687 164.868 L205.687 167.665 L195.682 167.665 L195.682 173.689 Q196.406 173.442 197.13 173.327 Q197.854 173.195 198.578 173.195 Q202.692 173.195 205.095 175.45 Q207.497 177.704 207.497 181.555 Q207.497 185.521 205.029 187.726 Q202.56 189.915 198.068 189.915 Q196.521 189.915 194.908 189.652 Q193.312 189.388 191.6 188.862 L191.6 185.521 Q193.081 186.327 194.661 186.722 Q196.241 187.117 198.002 187.117 Q200.849 187.117 202.511 185.62 Q204.173 184.122 204.173 181.555 Q204.173 178.988 202.511 177.49 Q200.849 175.993 198.002 175.993 Q196.669 175.993 195.336 176.289 Q194.019 176.585 192.637 177.21 L192.637 164.868 Z" fill="#000000" fill-rule="evenodd" fill-opacity="1" /><path clip-path="url(#clip120)" d="M 0 0 M125.53 116.506 L132.214 116.506 L132.214 93.4358 L124.943 94.8941 L124.943 91.1673 L132.173 89.7089 L136.265 89.7089 L136.265 116.506 L142.949 116.506 L142.949 119.949 L125.53 119.949 L125.53 116.506 Z" fill="#000000" fill-rule="evenodd" fill-opacity="1" /><path clip-path="url(#clip120)" d="M 0 0 M156.135 92.4028 Q152.975 92.4028 151.375 95.522 Q149.795 98.6209 149.795 104.859 Q149.795 111.077 151.375 114.197 Q152.975 117.296 156.135 117.296 Q159.315 117.296 160.894 114.197 Q162.494 111.077 162.494 104.859 Q162.494 98.6209 160.894 95.522 Q159.315 92.4028 156.135 92.4028 M156.135 89.1621 Q161.218 89.1621 163.892 93.1927 Q166.586 97.2031 166.586 104.859 Q166.586 112.495 163.892 116.526 Q161.218 120.536 156.135 120.536 Q151.051 120.536 148.357 116.526 Q145.683 112.495 145.683 104.859 Q145.683 97.2031 148.357 93.1927 Q151.051 89.1621 156.135 89.1621 Z" fill="#000000" fill-rule="evenodd" fill-opacity="1" /><path clip-path="url(#clip120)" d="M 0 0 M167.063 93.1672 L172.494 93.1672 L172.494 74.4229 L166.586 75.6078 L166.586 72.5797 L172.461 71.3948 L175.785 71.3948 L175.785 93.1672 L181.216 93.1672 L181.216 95.9648 L167.063 95.9648 L167.063 93.1672 Z" fill="#000000" fill-rule="evenodd" fill-opacity="1" /><path clip-path="url(#clip120)" d="M 0 0 M184.82 91.7848 L188.292 91.7848 L188.292 95.9648 L184.82 95.9648 L184.82 91.7848 Z" fill="#000000" fill-rule="evenodd" fill-opacity="1" /><path clip-path="url(#clip120)" d="M 0 0 M199.006 73.5836 Q196.439 73.5836 195.138 76.1179 Q193.855 78.6358 193.855 83.7045 Q193.855 88.7567 195.138 91.2911 Q196.439 93.809 199.006 93.809 Q201.59 93.809 202.873 91.2911 Q204.173 88.7567 204.173 83.7045 Q204.173 78.6358 202.873 76.1179 Q201.59 73.5836 199.006 73.5836 M199.006 70.9505 Q203.136 70.9505 205.309 74.2254 Q207.497 77.4838 207.497 83.7045 Q207.497 89.9087 205.309 93.1836 Q203.136 96.4421 199.006 96.4421 Q194.875 96.4421 192.686 93.1836 Q190.514 89.9087 190.514 83.7045 Q190.514 77.4838 192.686 74.2254 Q194.875 70.9505 199.006 70.9505 Z" fill="#000000" fill-rule="evenodd" fill-opacity="1" /><path clip-path="url(#clip120)" d="M 0 0 M36.5087 316.37 Q37.1214 314.56 39.1266 312.861 Q41.1318 311.134 44.6409 309.407 L56.0036 303.698 L56.0036 309.742 L45.3371 315.061 Q41.1596 317.122 39.795 319.071 Q38.4303 320.993 38.4303 324.335 L38.4303 330.462 L56.0036 330.462 L56.0036 336.088 L14.4236 336.088 L14.4236 323.388 Q14.4236 316.258 17.4036 312.749 Q20.3835 309.24 26.3991 309.24 Q30.326 309.24 32.916 311.078 Q35.5061 312.889 36.5087 316.37 M19.0467 330.462 L33.8072 330.462 L33.8072 323.388 Q33.8072 319.322 31.9413 317.261 Q30.0475 315.172 26.3991 315.172 Q22.7508 315.172 20.9127 317.261 Q19.0467 319.322 19.0467 323.388 L19.0467 330.462 Z" fill="#000000" fill-rule="evenodd" fill-opacity="1" /><path clip-path="url(#clip120)" d="M 0 0 M19.9658 286.515 L40.6583 294.146 L40.6583 278.856 L19.9658 286.515 M14.4236 289.69 L14.4236 283.312 L56.0036 267.465 L56.0036 273.314 L45.3371 277.101 L45.3371 295.844 L56.0036 299.632 L56.0036 305.564 L14.4236 289.69 Z" fill="#000000" fill-rule="evenodd" fill-opacity="1" /><circle clip-path="url(#clip122)" cx="290.497" cy="56.1058" r="12" fill="#009af9" fill-rule="evenodd" fill-opacity="1" stroke="#000000" stroke-opacity="1" stroke-width="2.8"/>
<circle clip-path="url(#clip122)" cx="447.045" cy="56.1535" r="12" fill="#009af9" fill-rule="evenodd" fill-opacity="1" stroke="#000000" stroke-opacity="1" stroke-width="2.8"/>
<circle clip-path="url(#clip122)" cx="810.536" cy="57.6973" r="12" fill="#009af9" fill-rule="evenodd" fill-opacity="1" stroke="#000000" stroke-opacity="1" stroke-width="2.8"/>
<circle clip-path="url(#clip122)" cx="1058.66" cy="69.4694" r="12" fill="#009af9" fill-rule="evenodd" fill-opacity="1" stroke="#000000" stroke-opacity="1" stroke-width="2.8"/>
<circle clip-path="url(#clip122)" cx="1174.03" cy="86.7182" r="12" fill="#009af9" fill-rule="evenodd" fill-opacity="1" stroke="#000000" stroke-opacity="1" stroke-width="2.8"/>
<circle clip-path="url(#clip122)" cx="1250.02" cy="104.818" r="12" fill="#009af9" fill-rule="evenodd" fill-opacity="1" stroke="#000000" stroke-opacity="1" stroke-width="2.8"/>
<circle clip-path="url(#clip122)" cx="1330.58" cy="130.499" r="12" fill="#009af9" fill-rule="evenodd" fill-opacity="1" stroke="#000000" stroke-opacity="1" stroke-width="2.8"/>
<circle clip-path="url(#clip122)" cx="1422.15" cy="167.709" r="12" fill="#009af9" fill-rule="evenodd" fill-opacity="1" stroke="#000000" stroke-opacity="1" stroke-width="2.8"/>
<circle clip-path="url(#clip122)" cx="1487.12" cy="199.132" r="12" fill="#009af9" fill-rule="evenodd" fill-opacity="1" stroke="#000000" stroke-opacity="1" stroke-width="2.8"/>
<circle clip-path="url(#clip122)" cx="1537.52" cy="227.064" r="12" fill="#009af9" fill-rule="evenodd" fill-opacity="1" stroke="#000000" stroke-opacity="1" stroke-width="2.8"/>
<circle clip-path="url(#clip122)" cx="1578.7" cy="250.552" r="12" fill="#009af9" fill-rule="evenodd" fill-opacity="1" stroke="#000000" stroke-opacity="1" stroke-width="2.8"/>
<circle clip-path="url(#clip122)" cx="1643.67" cy="291.157" r="12" fill="#009af9" fill-rule="evenodd" fill-opacity="1" stroke="#000000" stroke-opacity="1" stroke-width="2.8"/>
<circle clip-path="url(#clip122)" cx="1800.22" cy="395.502" r="12" fill="#009af9" fill-rule="evenodd" fill-opacity="1" stroke="#000000" stroke-opacity="1" stroke-width="2.8"/>
<circle clip-path="url(#clip122)" cx="1850.61" cy="429.998" r="12" fill="#009af9" fill-rule="evenodd" fill-opacity="1" stroke="#000000" stroke-opacity="1" stroke-width="2.8"/>
<circle clip-path="url(#clip122)" cx="2007.16" cy="547.473" r="12" fill="#009af9" fill-rule="evenodd" fill-opacity="1" stroke="#000000" stroke-opacity="1" stroke-width="2.8"/>
<polyline clip-path="url(#clip122)" style="stroke:#e26f46; stroke-width:3.5; stroke-opacity:1; fill:none" points="
  290.497,56.0803 307.837,56.0832 325.178,56.0866 342.518,56.0904 359.858,56.095 377.198,56.1003 394.538,56.1065 411.878,56.1136 429.218,56.122 446.558,56.1318 
  463.898,56.1432 481.238,56.1565 498.578,56.172 515.918,56.19 533.258,56.2111 550.598,56.2356 567.938,56.2641 585.278,56.2974 602.618,56.3362 619.958,56.3814 
  637.298,56.434 654.638,56.4952 671.978,56.5666 689.318,56.6496 706.658,56.7462 723.998,56.8586 741.338,56.9893 758.679,57.1413 776.019,57.3178 793.359,57.5227 
  810.699,57.7605 828.039,58.0363 845.379,58.3557 862.719,58.7254 880.059,59.1527 897.399,59.6459 914.739,60.2144 932.079,60.8686 949.419,61.6198 966.759,62.4805 
  984.099,63.4644 1001.44,64.5859 1018.78,65.8604 1036.12,67.304 1053.46,68.933 1070.8,70.764 1088.14,72.8135 1105.48,75.0972 1122.82,77.63 1140.16,80.4254 
  1157.5,83.4953 1174.84,86.8496 1192.18,90.4966 1209.52,94.4424 1226.86,98.6911 1244.2,103.246 1261.54,108.107 1278.88,113.276 1296.22,118.753 1313.56,124.536 
  1330.9,130.626 1348.24,137.023 1365.58,143.726 1382.92,150.737 1400.26,158.055 1417.6,165.68 1434.94,173.613 1452.28,181.851 1469.62,190.391 1486.96,199.23 
  1504.3,208.362 1521.64,217.777 1538.98,227.466 1556.32,237.417 1573.66,247.616 1591,258.048 1608.34,268.697 1625.68,279.548 1643.02,290.583 1660.36,301.786 
  1677.7,313.141 1695.04,324.632 1712.38,336.246 1729.72,347.968 1747.06,359.787 1764.4,371.691 1781.74,383.669 1799.08,395.712 1816.42,407.813 1833.76,419.964 
  1851.1,432.158 1868.44,444.389 1885.78,456.653 1903.12,468.945 1920.46,481.262 1937.8,493.599 1955.14,505.955 1972.48,518.326 1989.82,530.711 2007.16,543.107 
  
  "/>
<path clip-path="url(#clip120)" d="
M238.997 1234.53 L2058.66 1234.53 L2058.66 713.659 L238.997 713.659  Z
  " fill="#ffffff" fill-rule="evenodd" fill-opacity="1"/>
<defs>
  <clipPath id="clip123">
    <rect x="238" y="713" width="1821" height="522"/>
  </clipPath>
</defs>
<polyline clip-path="url(#clip123)" style="stroke:#000000; stroke-width:1.75; stroke-opacity:0.1; fill:none" points="
  290.497,1234.53 290.497,713.659 
  "/>
<polyline clip-path="url(#clip123)" style="stroke:#000000; stroke-width:1.75; stroke-opacity:0.1; fill:none" points="
  810.536,1234.53 810.536,713.659 
  "/>
<polyline clip-path="url(#clip123)" style="stroke:#000000; stroke-width:1.75; stroke-opacity:0.1; fill:none" points="
  1330.58,1234.53 1330.58,713.659 
  "/>
<polyline clip-path="url(#clip123)" style="stroke:#000000; stroke-width:1.75; stroke-opacity:0.1; fill:none" points="
  1850.61,1234.53 1850.61,713.659 
  "/>
<polyline clip-path="url(#clip120)" style="stroke:#000000; stroke-width:3.5; stroke-opacity:1; fill:none" points="
  238.997,1234.53 2058.66,1234.53 
  "/>
<polyline clip-path="url(#clip120)" style="stroke:#000000; stroke-width:3.5; stroke-opacity:1; fill:none" points="
  290.497,1234.53 290.497,1228.28 
  "/>
<polyline clip-path="url(#clip120)" style="stroke:#000000; stroke-width:3.5; stroke-opacity:1; fill:none" points="
  810.536,1234.53 810.536,1228.28 
  "/>
<polyline clip-path="url(#clip120)" style="stroke:#000000; stroke-width:3.5; stroke-opacity:1; fill:none" points="
  1330.58,1234.53 1330.58,1228.28 
  "/>
<polyline clip-path="url(#clip120)" style="stroke:#000000; stroke-width:3.5; stroke-opacity:1; fill:none" points="
  1850.61,1234.53 1850.61,1228.28 
  "/>
<path clip-path="url(#clip120)" d="M 0 0 M250.68 1303.02 L257.364 1303.02 L257.364 1279.95 L250.092 1281.41 L250.092 1277.68 L257.323 1276.23 L261.414 1276.23 L261.414 1303.02 L268.098 1303.02 L268.098 1306.47 L250.68 1306.47 L250.68 1303.02 Z" fill="#000000" fill-rule="evenodd" fill-opacity="1" /><path clip-path="url(#clip120)" d="M 0 0 M281.284 1278.92 Q278.124 1278.92 276.524 1282.04 Q274.944 1285.14 274.944 1291.38 Q274.944 1297.59 276.524 1300.71 Q278.124 1303.81 281.284 1303.81 Q284.464 1303.81 286.044 1300.71 Q287.644 1297.59 287.644 1291.38 Q287.644 1285.14 286.044 1282.04 Q284.464 1278.92 281.284 1278.92 M281.284 1275.68 Q286.368 1275.68 289.042 1279.71 Q291.735 1283.72 291.735 1291.38 Q291.735 1299.01 289.042 1303.04 Q286.368 1307.05 281.284 1307.05 Q276.2 1307.05 273.506 1303.04 Q270.833 1299.01 270.833 1291.38 Q270.833 1283.72 273.506 1279.71 Q276.2 1275.68 281.284 1275.68 Z" fill="#000000" fill-rule="evenodd" fill-opacity="1" /><path clip-path="url(#clip120)" d="M 0 0 M291.735 1270.52 L312.833 1270.52 L312.833 1273.32 L291.735 1273.32 L291.735 1270.52 Z" fill="#000000" fill-rule="evenodd" fill-opacity="1" /><path clip-path="url(#clip120)" d="M 0 0 M319.301 1279.68 L330.903 1279.68 L330.903 1282.48 L315.302 1282.48 L315.302 1279.68 Q317.194 1277.73 320.453 1274.43 Q323.727 1271.13 324.567 1270.17 Q326.163 1268.38 326.788 1267.14 Q327.43 1265.89 327.43 1264.69 Q327.43 1262.73 326.048 1261.5 Q324.682 1260.27 322.477 1260.27 Q320.913 1260.27 319.169 1260.81 Q317.441 1261.35 315.466 1262.45 L315.466 1259.1 Q317.474 1258.29 319.218 1257.88 Q320.963 1257.47 322.411 1257.47 Q326.229 1257.47 328.5 1259.38 Q330.771 1261.29 330.771 1264.48 Q330.771 1265.99 330.195 1267.36 Q329.635 1268.71 328.138 1270.55 Q327.726 1271.03 325.521 1273.32 Q323.316 1275.59 319.301 1279.68 Z" fill="#000000" fill-rule="evenodd" fill-opacity="1" /><path clip-path="url(#clip120)" d="M 0 0 M770.587 1303.02 L777.271 1303.02 L777.271 1279.95 L769.999 1281.41 L769.999 1277.68 L777.23 1276.23 L781.322 1276.23 L781.322 1303.02 L788.006 1303.02 L788.006 1306.47 L770.587 1306.47 L770.587 1303.02 Z" fill="#000000" fill-rule="evenodd" fill-opacity="1" /><path clip-path="url(#clip120)" d="M 0 0 M801.191 1278.92 Q798.032 1278.92 796.432 1282.04 Q794.852 1285.14 794.852 1291.38 Q794.852 1297.59 796.432 1300.71 Q798.032 1303.81 801.191 1303.81 Q804.371 1303.81 805.951 1300.71 Q807.551 1297.59 807.551 1291.38 Q807.551 1285.14 805.951 1282.04 Q804.371 1278.92 801.191 1278.92 M801.191 1275.68 Q806.275 1275.68 808.949 1279.71 Q811.643 1283.72 811.643 1291.38 Q811.643 1299.01 808.949 1303.04 Q806.275 1307.05 801.191 1307.05 Q796.108 1307.05 793.414 1303.04 Q790.74 1299.01 790.74 1291.38 Q790.74 1283.72 793.414 1279.71 Q796.108 1275.68 801.191 1275.68 Z" fill="#000000" fill-rule="evenodd" fill-opacity="1" /><path clip-path="url(#clip120)" d="M 0 0 M811.643 1270.52 L832.74 1270.52 L832.74 1273.32 L811.643 1273.32 L811.643 1270.52 Z" fill="#000000" fill-rule="evenodd" fill-opacity="1" /><path clip-path="url(#clip120)" d="M 0 0 M836.92 1279.68 L842.351 1279.68 L842.351 1260.94 L836.443 1262.12 L836.443 1259.1 L842.318 1257.91 L845.642 1257.91 L845.642 1279.68 L851.073 1279.68 L851.073 1282.48 L836.92 1282.48 L836.92 1279.68 Z" fill="#000000" fill-rule="evenodd" fill-opacity="1" /><path clip-path="url(#clip120)" d="M 0 0 M1301.85 1303.02 L1308.53 1303.02 L1308.53 1279.95 L1301.26 1281.41 L1301.26 1277.68 L1308.49 1276.23 L1312.58 1276.23 L1312.58 1303.02 L1319.27 1303.02 L1319.27 1306.47 L1301.85 1306.47 L1301.85 1303.02 Z" fill="#000000" fill-rule="evenodd" fill-opacity="1" /><path clip-path="url(#clip120)" d="M 0 0 M1332.45 1278.92 Q1329.29 1278.92 1327.69 1282.04 Q1326.11 1285.14 1326.11 1291.38 Q1326.11 1297.59 1327.69 1300.71 Q1329.29 1303.81 1332.45 1303.81 Q1335.63 1303.81 1337.21 1300.71 Q1338.81 1297.59 1338.81 1291.38 Q1338.81 1285.14 1337.21 1282.04 Q1335.63 1278.92 1332.45 1278.92 M1332.45 1275.68 Q1337.54 1275.68 1340.21 1279.71 Q1342.91 1283.72 1342.91 1291.38 Q1342.91 1299.01 1340.21 1303.04 Q1337.54 1307.05 1332.45 1307.05 Q1327.37 1307.05 1324.68 1303.04 Q1322 1299.01 1322 1291.38 Q1322 1283.72 1324.68 1279.71 Q1327.37 1275.68 1332.45 1275.68 Z" fill="#000000" fill-rule="evenodd" fill-opacity="1" /><path clip-path="url(#clip120)" d="M 0 0 M1351.4 1260.1 Q1348.83 1260.1 1347.53 1262.63 Q1346.25 1265.15 1346.25 1270.22 Q1346.25 1275.27 1347.53 1277.81 Q1348.83 1280.33 1351.4 1280.33 Q1353.98 1280.33 1355.26 1277.81 Q1356.56 1275.27 1356.56 1270.22 Q1356.56 1265.15 1355.26 1262.63 Q1353.98 1260.1 1351.4 1260.1 M1351.4 1257.47 Q1355.53 1257.47 1357.7 1260.74 Q1359.89 1264 1359.89 1270.22 Q1359.89 1276.43 1357.7 1279.7 Q1355.53 1282.96 1351.4 1282.96 Q1347.27 1282.96 1345.08 1279.7 Q1342.91 1276.43 1342.91 1270.22 Q1342.91 1264 1345.08 1260.74 Q1347.27 1257.47 1351.4 1257.47 Z" fill="#000000" fill-rule="evenodd" fill-opacity="1" /><path clip-path="url(#clip120)" d="M 0 0 M1823.06 1303.02 L1829.75 1303.02 L1829.75 1279.95 L1822.48 1281.41 L1822.48 1277.68 L1829.71 1276.23 L1833.8 1276.23 L1833.8 1303.02 L1840.48 1303.02 L1840.48 1306.47 L1823.06 1306.47 L1823.06 1303.02 Z" fill="#000000" fill-rule="evenodd" fill-opacity="1" /><path clip-path="url(#clip120)" d="M 0 0 M1853.67 1278.92 Q1850.51 1278.92 1848.91 1282.04 Q1847.33 1285.14 1847.33 1291.38 Q1847.33 1297.59 1848.91 1300.71 Q1850.51 1303.81 1853.67 1303.81 Q1856.85 1303.81 1858.43 1300.71 Q1860.03 1297.59 1860.03 1291.38 Q1860.03 1285.14 1858.43 1282.04 Q1856.85 1278.92 1853.67 1278.92 M1853.67 1275.68 Q1858.75 1275.68 1861.43 1279.71 Q1864.12 1283.72 1864.12 1291.38 Q1864.12 1299.01 1861.43 1303.04 Q1858.75 1307.05 1853.67 1307.05 Q1848.59 1307.05 1845.89 1303.04 Q1843.22 1299.01 1843.22 1291.38 Q1843.22 1283.72 1845.89 1279.71 Q1848.59 1275.68 1853.67 1275.68 Z" fill="#000000" fill-rule="evenodd" fill-opacity="1" /><path clip-path="url(#clip120)" d="M 0 0 M1864.6 1279.68 L1870.03 1279.68 L1870.03 1260.94 L1864.12 1262.12 L1864.12 1259.1 L1870 1257.91 L1873.32 1257.91 L1873.32 1279.68 L1878.75 1279.68 L1878.75 1282.48 L1864.6 1282.48 L1864.6 1279.68 Z" fill="#000000" fill-rule="evenodd" fill-opacity="1" /><path clip-path="url(#clip120)" d="M 0 0 M1140.34 1378.22 Q1128.78 1378.22 1128.78 1361.68 Q1128.78 1355.13 1133.09 1346.22 L1138.61 1346.22 Q1134.63 1355.13 1134.63 1361.82 Q1134.63 1373.88 1140.81 1373.88 Q1146.46 1373.88 1146.46 1358.89 L1151.2 1358.89 Q1151.2 1373.88 1156.85 1373.88 Q1163.03 1373.88 1163.03 1361.82 Q1163.03 1355.13 1159.05 1346.22 L1164.56 1346.22 Q1168.88 1355.13 1168.88 1361.68 Q1168.88 1378.22 1157.32 1378.22 Q1149.75 1378.22 1148.83 1369.89 Q1147.69 1378.22 1140.34 1378.22 Z" fill="#000000" fill-rule="evenodd" fill-opacity="1" /><polyline clip-path="url(#clip123)" style="stroke:#000000; stroke-width:1.75; stroke-opacity:0.1; fill:none" points="
  238.997,1155.44 2058.66,1155.44 
  "/>
<polyline clip-path="url(#clip123)" style="stroke:#000000; stroke-width:1.75; stroke-opacity:0.1; fill:none" points="
  238.997,1069.52 2058.66,1069.52 
  "/>
<polyline clip-path="url(#clip123)" style="stroke:#000000; stroke-width:1.75; stroke-opacity:0.1; fill:none" points="
  238.997,983.599 2058.66,983.599 
  "/>
<polyline clip-path="url(#clip123)" style="stroke:#000000; stroke-width:1.75; stroke-opacity:0.1; fill:none" points="
  238.997,897.68 2058.66,897.68 
  "/>
<polyline clip-path="url(#clip123)" style="stroke:#000000; stroke-width:1.75; stroke-opacity:0.1; fill:none" points="
  238.997,811.76 2058.66,811.76 
  "/>
<polyline clip-path="url(#clip123)" style="stroke:#000000; stroke-width:1.75; stroke-opacity:0.1; fill:none" points="
  238.997,725.84 2058.66,725.84 
  "/>
<polyline clip-path="url(#clip120)" style="stroke:#000000; stroke-width:3.5; stroke-opacity:1; fill:none" points="
  238.997,1234.53 238.997,713.659 
  "/>
<polyline clip-path="url(#clip120)" style="stroke:#000000; stroke-width:3.5; stroke-opacity:1; fill:none" points="
  238.997,1155.44 260.833,1155.44 
  "/>
<polyline clip-path="url(#clip120)" style="stroke:#000000; stroke-width:3.5; stroke-opacity:1; fill:none" points="
  238.997,1069.52 260.833,1069.52 
  "/>
<polyline clip-path="url(#clip120)" style="stroke:#000000; stroke-width:3.5; stroke-opacity:1; fill:none" points="
  238.997,983.599 260.833,983.599 
  "/>
<polyline clip-path="url(#clip120)" style="stroke:#000000; stroke-width:3.5; stroke-opacity:1; fill:none" points="
  238.997,897.68 260.833,897.68 
  "/>
<polyline clip-path="url(#clip120)" style="stroke:#000000; stroke-width:3.5; stroke-opacity:1; fill:none" points="
  238.997,811.76 260.833,811.76 
  "/>
<polyline clip-path="url(#clip120)" style="stroke:#000000; stroke-width:3.5; stroke-opacity:1; fill:none" points="
  238.997,725.84 260.833,725.84 
  "/>
<path clip-path="url(#clip120)" d="M 0 0 M112.889 1155.83 L138.855 1155.83 L138.855 1159.28 L112.889 1159.28 L112.889 1155.83 Z" fill="#000000" fill-rule="evenodd" fill-opacity="1" /><path clip-path="url(#clip120)" d="M 0 0 M146.815 1167.12 L161.094 1167.12 L161.094 1170.56 L141.893 1170.56 L141.893 1167.12 Q144.222 1164.71 148.233 1160.65 Q152.263 1156.58 153.296 1155.41 Q155.261 1153.2 156.031 1151.68 Q156.821 1150.14 156.821 1148.66 Q156.821 1146.25 155.119 1144.73 Q153.438 1143.22 150.724 1143.22 Q148.8 1143.22 146.653 1143.88 Q144.526 1144.55 142.096 1145.91 L142.096 1141.78 Q144.567 1140.78 146.714 1140.28 Q148.861 1139.77 150.643 1139.77 Q155.342 1139.77 158.137 1142.12 Q160.932 1144.47 160.932 1148.4 Q160.932 1150.26 160.223 1151.95 Q159.535 1153.61 157.692 1155.87 Q157.185 1156.46 154.471 1159.28 Q151.757 1162.07 146.815 1167.12 Z" fill="#000000" fill-rule="evenodd" fill-opacity="1" /><path clip-path="url(#clip120)" d="M 0 0 M165.571 1140.32 L181.632 1140.32 L181.632 1143.76 L169.318 1143.76 L169.318 1151.18 Q170.209 1150.87 171.1 1150.73 Q171.991 1150.57 172.883 1150.57 Q177.946 1150.57 180.903 1153.34 Q183.86 1156.12 183.86 1160.86 Q183.86 1165.74 180.822 1168.45 Q177.784 1171.15 172.255 1171.15 Q170.351 1171.15 168.366 1170.82 Q166.401 1170.5 164.295 1169.85 L164.295 1165.74 Q166.118 1166.73 168.062 1167.22 Q170.006 1167.7 172.174 1167.7 Q175.678 1167.7 177.723 1165.86 Q179.769 1164.02 179.769 1160.86 Q179.769 1157.7 177.723 1155.85 Q175.678 1154.01 172.174 1154.01 Q170.533 1154.01 168.892 1154.38 Q167.272 1154.74 165.571 1155.51 L165.571 1140.32 Z" fill="#000000" fill-rule="evenodd" fill-opacity="1" /><path clip-path="url(#clip120)" d="M 0 0 M197.046 1143.01 Q193.886 1143.01 192.286 1146.13 Q190.706 1149.23 190.706 1155.47 Q190.706 1161.69 192.286 1164.81 Q193.886 1167.91 197.046 1167.91 Q200.226 1167.91 201.806 1164.81 Q203.406 1161.69 203.406 1155.47 Q203.406 1149.23 201.806 1146.13 Q200.226 1143.01 197.046 1143.01 M197.046 1139.77 Q202.13 1139.77 204.804 1143.8 Q207.497 1147.81 207.497 1155.47 Q207.497 1163.11 204.804 1167.14 Q202.13 1171.15 197.046 1171.15 Q191.962 1171.15 189.268 1167.14 Q186.595 1163.11 186.595 1155.47 Q186.595 1147.81 189.268 1143.8 Q191.962 1139.77 197.046 1139.77 Z" fill="#000000" fill-rule="evenodd" fill-opacity="1" /><path clip-path="url(#clip120)" d="M 0 0 M112.018 1069.91 L137.984 1069.91 L137.984 1073.36 L112.018 1073.36 L112.018 1069.91 Z" fill="#000000" fill-rule="evenodd" fill-opacity="1" /><path clip-path="url(#clip120)" d="M 0 0 M145.944 1081.2 L160.223 1081.2 L160.223 1084.64 L141.022 1084.64 L141.022 1081.2 Q143.351 1078.79 147.362 1074.73 Q151.392 1070.66 152.425 1069.49 Q154.39 1067.28 155.16 1065.76 Q155.95 1064.22 155.95 1062.74 Q155.95 1060.33 154.248 1058.81 Q152.567 1057.3 149.853 1057.3 Q147.929 1057.3 145.782 1057.96 Q143.655 1058.63 141.225 1059.99 L141.225 1055.86 Q143.696 1054.87 145.843 1054.36 Q147.99 1053.85 149.772 1053.85 Q154.471 1053.85 157.266 1056.2 Q160.061 1058.55 160.061 1062.48 Q160.061 1064.34 159.353 1066.03 Q158.664 1067.69 156.821 1069.95 Q156.314 1070.54 153.6 1073.36 Q150.886 1076.15 145.944 1081.2 Z" fill="#000000" fill-rule="evenodd" fill-opacity="1" /><path clip-path="url(#clip120)" d="M 0 0 M173.409 1057.09 Q170.249 1057.09 168.649 1060.21 Q167.069 1063.31 167.069 1069.55 Q167.069 1075.77 168.649 1078.89 Q170.249 1081.99 173.409 1081.99 Q176.589 1081.99 178.169 1078.89 Q179.769 1075.77 179.769 1069.55 Q179.769 1063.31 178.169 1060.21 Q176.589 1057.09 173.409 1057.09 M173.409 1053.85 Q178.493 1053.85 181.167 1057.88 Q183.86 1061.89 183.86 1069.55 Q183.86 1077.19 181.167 1081.22 Q178.493 1085.23 173.409 1085.23 Q168.325 1085.23 165.631 1081.22 Q162.958 1077.19 162.958 1069.55 Q162.958 1061.89 165.631 1057.88 Q168.325 1053.85 173.409 1053.85 Z" fill="#000000" fill-rule="evenodd" fill-opacity="1" /><path clip-path="url(#clip120)" d="M 0 0 M197.046 1057.09 Q193.886 1057.09 192.286 1060.21 Q190.706 1063.31 190.706 1069.55 Q190.706 1075.77 192.286 1078.89 Q193.886 1081.99 197.046 1081.99 Q200.226 1081.99 201.806 1078.89 Q203.406 1075.77 203.406 1069.55 Q203.406 1063.31 201.806 1060.21 Q200.226 1057.09 197.046 1057.09 M197.046 1053.85 Q202.13 1053.85 204.804 1057.88 Q207.497 1061.89 207.497 1069.55 Q207.497 1077.19 204.804 1081.22 Q202.13 1085.23 197.046 1085.23 Q191.962 1085.23 189.268 1081.22 Q186.595 1077.19 186.595 1069.55 Q186.595 1061.89 189.268 1057.88 Q191.962 1053.85 197.046 1053.85 Z" fill="#000000" fill-rule="evenodd" fill-opacity="1" /><path clip-path="url(#clip120)" d="M 0 0 M112.565 983.994 L138.531 983.994 L138.531 987.438 L112.565 987.438 L112.565 983.994 Z" fill="#000000" fill-rule="evenodd" fill-opacity="1" /><path clip-path="url(#clip120)" d="M 0 0 M143.676 995.276 L150.359 995.276 L150.359 972.206 L143.088 973.665 L143.088 969.938 L150.319 968.479 L154.41 968.479 L154.41 995.276 L161.094 995.276 L161.094 998.719 L143.676 998.719 L143.676 995.276 Z" fill="#000000" fill-rule="evenodd" fill-opacity="1" /><path clip-path="url(#clip120)" d="M 0 0 M165.571 968.479 L181.632 968.479 L181.632 971.923 L169.318 971.923 L169.318 979.336 Q170.209 979.032 171.1 978.89 Q171.991 978.728 172.883 978.728 Q177.946 978.728 180.903 981.503 Q183.86 984.278 183.86 989.017 Q183.86 993.899 180.822 996.613 Q177.784 999.307 172.255 999.307 Q170.351 999.307 168.366 998.983 Q166.401 998.659 164.295 998.011 L164.295 993.899 Q166.118 994.891 168.062 995.377 Q170.006 995.864 172.174 995.864 Q175.678 995.864 177.723 994.02 Q179.769 992.177 179.769 989.017 Q179.769 985.858 177.723 984.015 Q175.678 982.171 172.174 982.171 Q170.533 982.171 168.892 982.536 Q167.272 982.901 165.571 983.67 L165.571 968.479 Z" fill="#000000" fill-rule="evenodd" fill-opacity="1" /><path clip-path="url(#clip120)" d="M 0 0 M197.046 971.173 Q193.886 971.173 192.286 974.292 Q190.706 977.391 190.706 983.63 Q190.706 989.848 192.286 992.967 Q193.886 996.066 197.046 996.066 Q200.226 996.066 201.806 992.967 Q203.406 989.848 203.406 983.63 Q203.406 977.391 201.806 974.292 Q200.226 971.173 197.046 971.173 M197.046 967.933 Q202.13 967.933 204.804 971.963 Q207.497 975.974 207.497 983.63 Q207.497 991.266 204.804 995.296 Q202.13 999.307 197.046 999.307 Q191.962 999.307 189.268 995.296 Q186.595 991.266 186.595 983.63 Q186.595 975.974 189.268 971.963 Q191.962 967.933 197.046 967.933 Z" fill="#000000" fill-rule="evenodd" fill-opacity="1" /><path clip-path="url(#clip120)" d="M 0 0 M111.694 898.075 L137.66 898.075 L137.66 901.518 L111.694 901.518 L111.694 898.075 Z" fill="#000000" fill-rule="evenodd" fill-opacity="1" /><path clip-path="url(#clip120)" d="M 0 0 M142.805 909.356 L149.489 909.356 L149.489 886.287 L142.217 887.745 L142.217 884.018 L149.448 882.56 L153.539 882.56 L153.539 909.356 L160.223 909.356 L160.223 912.8 L142.805 912.8 L142.805 909.356 Z" fill="#000000" fill-rule="evenodd" fill-opacity="1" /><path clip-path="url(#clip120)" d="M 0 0 M173.409 885.254 Q170.249 885.254 168.649 888.373 Q167.069 891.472 167.069 897.71 Q167.069 903.928 168.649 907.047 Q170.249 910.146 173.409 910.146 Q176.589 910.146 178.169 907.047 Q179.769 903.928 179.769 897.71 Q179.769 891.472 178.169 888.373 Q176.589 885.254 173.409 885.254 M173.409 882.013 Q178.493 882.013 181.167 886.043 Q183.86 890.054 183.86 897.71 Q183.86 905.346 181.167 909.377 Q178.493 913.387 173.409 913.387 Q168.325 913.387 165.631 909.377 Q162.958 905.346 162.958 897.71 Q162.958 890.054 165.631 886.043 Q168.325 882.013 173.409 882.013 Z" fill="#000000" fill-rule="evenodd" fill-opacity="1" /><path clip-path="url(#clip120)" d="M 0 0 M197.046 885.254 Q193.886 885.254 192.286 888.373 Q190.706 891.472 190.706 897.71 Q190.706 903.928 192.286 907.047 Q193.886 910.146 197.046 910.146 Q200.226 910.146 201.806 907.047 Q203.406 903.928 203.406 897.71 Q203.406 891.472 201.806 888.373 Q200.226 885.254 197.046 885.254 M197.046 882.013 Q202.13 882.013 204.804 886.043 Q207.497 890.054 207.497 897.71 Q207.497 905.346 204.804 909.377 Q202.13 913.387 197.046 913.387 Q191.962 913.387 189.268 909.377 Q186.595 905.346 186.595 897.71 Q186.595 890.054 189.268 886.043 Q191.962 882.013 197.046 882.013 Z" fill="#000000" fill-rule="evenodd" fill-opacity="1" /><path clip-path="url(#clip120)" d="M 0 0 M135.128 812.155 L161.094 812.155 L161.094 815.598 L135.128 815.598 L135.128 812.155 Z" fill="#000000" fill-rule="evenodd" fill-opacity="1" /><path clip-path="url(#clip120)" d="M 0 0 M165.571 796.64 L181.632 796.64 L181.632 800.083 L169.318 800.083 L169.318 807.496 Q170.209 807.193 171.1 807.051 Q171.991 806.889 172.883 806.889 Q177.946 806.889 180.903 809.664 Q183.86 812.438 183.86 817.178 Q183.86 822.059 180.822 824.773 Q177.784 827.467 172.255 827.467 Q170.351 827.467 168.366 827.143 Q166.401 826.819 164.295 826.171 L164.295 822.059 Q166.118 823.052 168.062 823.538 Q170.006 824.024 172.174 824.024 Q175.678 824.024 177.723 822.181 Q179.769 820.338 179.769 817.178 Q179.769 814.018 177.723 812.175 Q175.678 810.332 172.174 810.332 Q170.533 810.332 168.892 810.697 Q167.272 811.061 165.571 811.831 L165.571 796.64 Z" fill="#000000" fill-rule="evenodd" fill-opacity="1" /><path clip-path="url(#clip120)" d="M 0 0 M197.046 799.334 Q193.886 799.334 192.286 802.453 Q190.706 805.552 190.706 811.79 Q190.706 818.008 192.286 821.128 Q193.886 824.227 197.046 824.227 Q200.226 824.227 201.806 821.128 Q203.406 818.008 203.406 811.79 Q203.406 805.552 201.806 802.453 Q200.226 799.334 197.046 799.334 M197.046 796.093 Q202.13 796.093 204.804 800.124 Q207.497 804.134 207.497 811.79 Q207.497 819.426 204.804 823.457 Q202.13 827.467 197.046 827.467 Q191.962 827.467 189.268 823.457 Q186.595 819.426 186.595 811.79 Q186.595 804.134 189.268 800.124 Q191.962 796.093 197.046 796.093 Z" fill="#000000" fill-rule="evenodd" fill-opacity="1" /><path clip-path="url(#clip120)" d="M 0 0 M197.046 713.414 Q193.886 713.414 192.286 716.533 Q190.706 719.632 190.706 725.871 Q190.706 732.089 192.286 735.208 Q193.886 738.307 197.046 738.307 Q200.226 738.307 201.806 735.208 Q203.406 732.089 203.406 725.871 Q203.406 719.632 201.806 716.533 Q200.226 713.414 197.046 713.414 M197.046 710.173 Q202.13 710.173 204.804 714.204 Q207.497 718.214 207.497 725.871 Q207.497 733.507 204.804 737.537 Q202.13 741.548 197.046 741.548 Q191.962 741.548 189.268 737.537 Q186.595 733.507 186.595 725.871 Q186.595 718.214 189.268 714.204 Q191.962 710.173 197.046 710.173 Z" fill="#000000" fill-rule="evenodd" fill-opacity="1" /><path clip-path="url(#clip120)" d="M 0 0 M40.6773 969.738 Q40.6773 971.548 44.7155 971.548 L63.8206 971.548 Q63.8206 968.903 60.9242 966.257 Q58.3342 963.89 52.1236 963.89 Q46.3308 963.89 43.2116 966.285 Q40.6773 968.234 40.6773 969.738 M36.3049 969.738 Q36.3049 965.839 39.981 962.302 Q43.9079 958.487 52.1236 958.487 Q59.671 958.487 64.1548 962.302 Q68.388 965.895 68.388 971.548 L79.5837 971.548 L79.5837 976.645 L68.4159 976.645 Q68.4159 982.187 64.1548 985.919 Q59.8102 989.707 52.1515 989.707 Q44.1864 989.707 40.1203 985.919 Q37.0846 983.078 36.3049 978.455 L40.8444 978.455 Q41.4849 980.293 43.6572 981.909 Q46.86 984.304 52.1515 984.304 Q57.7772 984.304 60.9799 981.909 Q63.8485 979.764 63.8485 976.645 L44.7155 976.645 Q36.3049 976.645 36.3049 969.738 Z" fill="#000000" fill-rule="evenodd" fill-opacity="1" /><circle clip-path="url(#clip123)" cx="290.497" cy="728.401" r="12" fill="#009af9" fill-rule="evenodd" fill-opacity="1" stroke="#000000" stroke-opacity="1" stroke-width="2.8"/>
<circle clip-path="url(#clip123)" cx="447.045" cy="730.961" r="12" fill="#009af9" fill-rule="evenodd" fill-opacity="1" stroke="#000000" stroke-opacity="1" stroke-width="2.8"/>
<circle clip-path="url(#clip123)" cx="810.536" cy="751.187" r="12" fill="#009af9" fill-rule="evenodd" fill-opacity="1" stroke="#000000" stroke-opacity="1" stroke-width="2.8"/>
<circle clip-path="url(#clip123)" cx="1058.66" cy="796.655" r="12" fill="#009af9" fill-rule="evenodd" fill-opacity="1" stroke="#000000" stroke-opacity="1" stroke-width="2.8"/>
<circle clip-path="url(#clip123)" cx="1174.03" cy="832.209" r="12" fill="#009af9" fill-rule="evenodd" fill-opacity="1" stroke="#000000" stroke-opacity="1" stroke-width="2.8"/>
<circle clip-path="url(#clip123)" cx="1250.02" cy="859.463" r="12" fill="#009af9" fill-rule="evenodd" fill-opacity="1" stroke="#000000" stroke-opacity="1" stroke-width="2.8"/>
<circle clip-path="url(#clip123)" cx="1330.58" cy="890.342" r="12" fill="#009af9" fill-rule="evenodd" fill-opacity="1" stroke="#000000" stroke-opacity="1" stroke-width="2.8"/>
<circle clip-path="url(#clip123)" cx="1422.15" cy="926.944" r="12" fill="#009af9" fill-rule="evenodd" fill-opacity="1" stroke="#000000" stroke-opacity="1" stroke-width="2.8"/>
<circle clip-path="url(#clip123)" cx="1487.12" cy="953.39" r="12" fill="#009af9" fill-rule="evenodd" fill-opacity="1" stroke="#000000" stroke-opacity="1" stroke-width="2.8"/>
<circle clip-path="url(#clip123)" cx="1537.52" cy="974.2" r="12" fill="#009af9" fill-rule="evenodd" fill-opacity="1" stroke="#000000" stroke-opacity="1" stroke-width="2.8"/>
<circle clip-path="url(#clip123)" cx="1578.7" cy="990.542" r="12" fill="#009af9" fill-rule="evenodd" fill-opacity="1" stroke="#000000" stroke-opacity="1" stroke-width="2.8"/>
<circle clip-path="url(#clip123)" cx="1643.67" cy="1016.64" r="12" fill="#009af9" fill-rule="evenodd" fill-opacity="1" stroke="#000000" stroke-opacity="1" stroke-width="2.8"/>
<circle clip-path="url(#clip123)" cx="1800.22" cy="1083.64" r="12" fill="#009af9" fill-rule="evenodd" fill-opacity="1" stroke="#000000" stroke-opacity="1" stroke-width="2.8"/>
<circle clip-path="url(#clip123)" cx="1850.61" cy="1109.25" r="12" fill="#009af9" fill-rule="evenodd" fill-opacity="1" stroke="#000000" stroke-opacity="1" stroke-width="2.8"/>
<circle clip-path="url(#clip123)" cx="2007.16" cy="1219.79" r="12" fill="#009af9" fill-rule="evenodd" fill-opacity="1" stroke="#000000" stroke-opacity="1" stroke-width="2.8"/>
<polyline clip-path="url(#clip123)" style="stroke:#e26f46; stroke-width:3.5; stroke-opacity:1; fill:none" points="
  290.497,728.401 307.837,728.606 325.178,728.826 342.518,729.065 359.858,729.322 377.198,729.599 394.538,729.899 411.878,730.223 429.218,730.573 446.558,730.95 
  463.898,731.357 481.238,731.797 498.578,732.272 515.918,732.784 533.258,733.338 550.598,733.935 567.938,734.579 585.278,735.275 602.618,736.025 619.958,736.835 
  637.298,737.709 654.638,738.651 671.978,739.667 689.318,740.763 706.658,741.945 723.998,743.218 741.338,744.59 758.679,746.068 776.019,747.659 793.359,749.371 
  810.699,751.212 828.039,753.191 845.379,755.317 862.719,757.598 880.059,760.044 897.399,762.663 914.739,765.465 932.079,768.458 949.419,771.651 966.759,775.05 
  984.099,778.661 1001.44,782.49 1018.78,786.541 1036.12,790.814 1053.46,795.311 1070.8,800.027 1088.14,804.96 1105.48,810.101 1122.82,815.442 1140.16,820.971 
  1157.5,826.677 1174.84,832.546 1192.18,838.564 1209.52,844.717 1226.86,850.99 1244.2,857.373 1261.54,863.851 1278.88,870.417 1296.22,877.06 1313.56,883.773 
  1330.9,890.549 1348.24,897.384 1365.58,904.271 1382.92,911.205 1400.26,918.179 1417.6,925.188 1434.94,932.224 1452.28,939.28 1469.62,946.347 1486.96,953.418 
  1504.3,960.483 1521.64,967.537 1538.98,974.573 1556.32,981.589 1573.66,988.584 1591,995.56 1608.34,1002.52 1625.68,1009.48 1643.02,1016.44 1660.36,1023.43 
  1677.7,1030.46 1695.04,1037.55 1712.38,1044.74 1729.72,1052.04 1747.06,1059.5 1764.4,1067.14 1781.74,1075 1799.08,1083.13 1816.42,1091.56 1833.76,1100.34 
  1851.1,1109.53 1868.44,1119.16 1885.78,1129.29 1903.12,1139.99 1920.46,1151.32 1937.8,1163.33 1955.14,1176.1 1972.48,1189.71 1989.82,1204.23 2007.16,1219.75 
  
  "/>
</svg>
