<?xml version="1.0" encoding="utf-8"?>
<svg xmlns="http://www.w3.org/2000/svg" xmlns:xlink="http://www.w3.org/1999/xlink" width="600" height="400" viewBox="0 0 2400 1600">
<defs>
  <clipPath id="clip430">
    <rect x="0" y="0" width="2400" height="1600"/>
  </clipPath>
</defs>
<path clip-path="url(#clip430)" d="
M0 1600 L2400 1600 L2400 0 L0 0  Z
  " fill="#ffffff" fill-rule="evenodd" fill-opacity="1"/>
<defs>
  <clipPath id="clip431">
    <rect x="480" y="0" width="1681" height="1600"/>
  </clipPath>
</defs>
<path clip-path="url(#clip430)" d="
M219.38 1423.18 L2352.76 1423.18 L2352.76 47.2441 L219.38 47.2441  Z
  " fill="#ffffff" fill-rule="evenodd" fill-opacity="1"/>
<defs>
  <clipPath id="clip432">
    <rect x="219" y="47" width="2134" height="1377"/>
  </clipPath>
</defs>
<polyline clip-path="url(#clip432)" style="stroke:#000000; stroke-width:2; stroke-opacity:0.1; fill:none" points="
  279.759,1423.18 279.759,47.2441 
  "/>
<polyline clip-path="url(#clip432)" style="stroke:#000000; stroke-width:2; stroke-opacity:0.1; fill:none" points="
  682.282,1423.18 682.282,47.2441 
  "/>
<polyline clip-path="url(#clip432)" style="stroke:#000000; stroke-width:2; stroke-opacity:0.1; fill:none" points="
  1084.81,1423.18 1084.81,47.2441 
  "/>
<polyline clip-path="url(#clip432)" style="stroke:#000000; stroke-width:2; stroke-opacity:0.1; fill:none" points="
  1487.33,1423.18 1487.33,47.2441 
  "/>
<polyline clip-path="url(#clip432)" style="stroke:#000000; stroke-width:2; stroke-opacity:0.1; fill:none" points="
  1889.85,1423.18 1889.85,47.2441 
  "/>
<polyline clip-path="url(#clip432)" style="stroke:#000000; stroke-width:2; stroke-opacity:0.1; fill:none" points="
  2292.38,1423.18 2292.38,47.2441 
  "/>
<polyline clip-path="url(#clip430)" style="stroke:#000000; stroke-width:4; stroke-opacity:1; fill:none" points="
  219.38,1423.18 2352.76,1423.18 
  "/>
<polyline clip-path="url(#clip430)" style="stroke:#000000; stroke-width:4; stroke-opacity:1; fill:none" points="
  279.759,1423.18 279.759,1406.67 
  "/>
<polyline clip-path="url(#clip430)" style="stroke:#000000; stroke-width:4; stroke-opacity:1; fill:none" points="
  682.282,1423.18 682.282,1406.67 
  "/>
<polyline clip-path="url(#clip430)" style="stroke:#000000; stroke-width:4; stroke-opacity:1; fill:none" points="
  1084.81,1423.18 1084.81,1406.67 
  "/>
<polyline clip-path="url(#clip430)" style="stroke:#000000; stroke-width:4; stroke-opacity:1; fill:none" points="
  1487.33,1423.18 1487.33,1406.67 
  "/>
<polyline clip-path="url(#clip430)" style="stroke:#000000; stroke-width:4; stroke-opacity:1; fill:none" points="
  1889.85,1423.18 1889.85,1406.67 
  "/>
<polyline clip-path="url(#clip430)" style="stroke:#000000; stroke-width:4; stroke-opacity:1; fill:none" points="
  2292.38,1423.18 2292.38,1406.67 
  "/>
<path clip-path="url(#clip430)" d="M 0 0 M279.759 1452.37 Q276.148 1452.37 274.319 1455.94 Q272.513 1459.48 272.513 1466.61 Q272.513 1473.71 274.319 1477.28 Q276.148 1480.82 279.759 1480.82 Q283.393 1480.82 285.199 1477.28 Q287.027 1473.71 287.027 1466.61 Q287.027 1459.48 285.199 1455.94 Q283.393 1452.37 279.759 1452.37 M279.759 1448.67 Q285.569 1448.67 288.624 1453.27 Q291.703 1457.86 291.703 1466.61 Q291.703 1475.33 288.624 1479.94 Q285.569 1484.52 279.759 1484.52 Q273.949 1484.52 270.87 1479.94 Q267.814 1475.33 267.814 1466.61 Q267.814 1457.86 270.87 1453.27 Q273.949 1448.67 279.759 1448.67 Z" fill="#000000" fill-rule="evenodd" fill-opacity="1" /><path clip-path="url(#clip430)" d="M 0 0 M672.56 1449.29 L690.917 1449.29 L690.917 1453.23 L676.843 1453.23 L676.843 1461.7 Q677.861 1461.35 678.88 1461.19 Q679.898 1461 680.917 1461 Q686.704 1461 690.083 1464.18 Q693.463 1467.35 693.463 1472.76 Q693.463 1478.34 689.991 1481.44 Q686.519 1484.52 680.199 1484.52 Q678.023 1484.52 675.755 1484.15 Q673.509 1483.78 671.102 1483.04 L671.102 1478.34 Q673.185 1479.48 675.407 1480.03 Q677.63 1480.59 680.107 1480.59 Q684.111 1480.59 686.449 1478.48 Q688.787 1476.38 688.787 1472.76 Q688.787 1469.15 686.449 1467.05 Q684.111 1464.94 680.107 1464.94 Q678.232 1464.94 676.357 1465.36 Q674.505 1465.77 672.56 1466.65 L672.56 1449.29 Z" fill="#000000" fill-rule="evenodd" fill-opacity="1" /><path clip-path="url(#clip430)" d="M 0 0 M1059.49 1479.92 L1067.13 1479.92 L1067.13 1453.55 L1058.82 1455.22 L1058.82 1450.96 L1067.09 1449.29 L1071.76 1449.29 L1071.76 1479.92 L1079.4 1479.92 L1079.4 1483.85 L1059.49 1483.85 L1059.49 1479.92 Z" fill="#000000" fill-rule="evenodd" fill-opacity="1" /><path clip-path="url(#clip430)" d="M 0 0 M1098.85 1452.37 Q1095.23 1452.37 1093.41 1455.94 Q1091.6 1459.48 1091.6 1466.61 Q1091.6 1473.71 1093.41 1477.28 Q1095.23 1480.82 1098.85 1480.82 Q1102.48 1480.82 1104.29 1477.28 Q1106.11 1473.71 1106.11 1466.61 Q1106.11 1459.48 1104.29 1455.94 Q1102.48 1452.37 1098.85 1452.37 M1098.85 1448.67 Q1104.66 1448.67 1107.71 1453.27 Q1110.79 1457.86 1110.79 1466.61 Q1110.79 1475.33 1107.71 1479.94 Q1104.66 1484.52 1098.85 1484.52 Q1093.04 1484.52 1089.96 1479.94 Q1086.9 1475.33 1086.9 1466.61 Q1086.9 1457.86 1089.96 1453.27 Q1093.04 1448.67 1098.85 1448.67 Z" fill="#000000" fill-rule="evenodd" fill-opacity="1" /><path clip-path="url(#clip430)" d="M 0 0 M1462.52 1479.92 L1470.15 1479.92 L1470.15 1453.55 L1461.84 1455.22 L1461.84 1450.96 L1470.11 1449.29 L1474.78 1449.29 L1474.78 1479.92 L1482.42 1479.92 L1482.42 1483.85 L1462.52 1483.85 L1462.52 1479.92 Z" fill="#000000" fill-rule="evenodd" fill-opacity="1" /><path clip-path="url(#clip430)" d="M 0 0 M1491.91 1449.29 L1510.27 1449.29 L1510.27 1453.23 L1496.2 1453.23 L1496.2 1461.7 Q1497.21 1461.35 1498.23 1461.19 Q1499.25 1461 1500.27 1461 Q1506.06 1461 1509.44 1464.18 Q1512.82 1467.35 1512.82 1472.76 Q1512.82 1478.34 1509.34 1481.44 Q1505.87 1484.52 1499.55 1484.52 Q1497.38 1484.52 1495.11 1484.15 Q1492.86 1483.78 1490.45 1483.04 L1490.45 1478.34 Q1492.54 1479.48 1494.76 1480.03 Q1496.98 1480.59 1499.46 1480.59 Q1503.46 1480.59 1505.8 1478.48 Q1508.14 1476.38 1508.14 1472.76 Q1508.14 1469.15 1505.8 1467.05 Q1503.46 1464.94 1499.46 1464.94 Q1497.58 1464.94 1495.71 1465.36 Q1493.86 1465.77 1491.91 1466.65 L1491.91 1449.29 Z" fill="#000000" fill-rule="evenodd" fill-opacity="1" /><path clip-path="url(#clip430)" d="M 0 0 M1868.63 1479.92 L1884.95 1479.92 L1884.95 1483.85 L1863 1483.85 L1863 1479.92 Q1865.66 1477.16 1870.25 1472.53 Q1874.85 1467.88 1876.03 1466.54 Q1878.28 1464.01 1879.16 1462.28 Q1880.06 1460.52 1880.06 1458.83 Q1880.06 1456.07 1878.12 1454.34 Q1876.2 1452.6 1873.09 1452.6 Q1870.9 1452.6 1868.44 1453.37 Q1866.01 1454.13 1863.23 1455.68 L1863.23 1450.96 Q1866.06 1449.82 1868.51 1449.25 Q1870.96 1448.67 1873 1448.67 Q1878.37 1448.67 1881.57 1451.35 Q1884.76 1454.04 1884.76 1458.53 Q1884.76 1460.66 1883.95 1462.58 Q1883.16 1464.48 1881.06 1467.07 Q1880.48 1467.74 1877.38 1470.96 Q1874.28 1474.15 1868.63 1479.92 Z" fill="#000000" fill-rule="evenodd" fill-opacity="1" /><path clip-path="url(#clip430)" d="M 0 0 M1904.76 1452.37 Q1901.15 1452.37 1899.32 1455.94 Q1897.52 1459.48 1897.52 1466.61 Q1897.52 1473.71 1899.32 1477.28 Q1901.15 1480.82 1904.76 1480.82 Q1908.4 1480.82 1910.2 1477.28 Q1912.03 1473.71 1912.03 1466.61 Q1912.03 1459.48 1910.2 1455.94 Q1908.4 1452.37 1904.76 1452.37 M1904.76 1448.67 Q1910.57 1448.67 1913.63 1453.27 Q1916.71 1457.86 1916.71 1466.61 Q1916.71 1475.33 1913.63 1479.94 Q1910.57 1484.52 1904.76 1484.52 Q1898.95 1484.52 1895.87 1479.94 Q1892.82 1475.33 1892.82 1466.61 Q1892.82 1457.86 1895.87 1453.27 Q1898.95 1448.67 1904.76 1448.67 Z" fill="#000000" fill-rule="evenodd" fill-opacity="1" /><path clip-path="url(#clip430)" d="M 0 0 M2271.65 1479.92 L2287.97 1479.92 L2287.97 1483.85 L2266.02 1483.85 L2266.02 1479.92 Q2268.69 1477.16 2273.27 1472.53 Q2277.88 1467.88 2279.06 1466.54 Q2281.3 1464.01 2282.18 1462.28 Q2283.08 1460.52 2283.08 1458.83 Q2283.08 1456.07 2281.14 1454.34 Q2279.22 1452.6 2276.12 1452.6 Q2273.92 1452.6 2271.46 1453.37 Q2269.03 1454.13 2266.25 1455.68 L2266.25 1450.96 Q2269.08 1449.82 2271.53 1449.25 Q2273.99 1448.67 2276.02 1448.67 Q2281.39 1448.67 2284.59 1451.35 Q2287.78 1454.04 2287.78 1458.53 Q2287.78 1460.66 2286.97 1462.58 Q2286.19 1464.48 2284.08 1467.07 Q2283.5 1467.74 2280.4 1470.96 Q2277.3 1474.15 2271.65 1479.92 Z" fill="#000000" fill-rule="evenodd" fill-opacity="1" /><path clip-path="url(#clip430)" d="M 0 0 M2297.83 1449.29 L2316.19 1449.29 L2316.19 1453.23 L2302.11 1453.23 L2302.11 1461.7 Q2303.13 1461.35 2304.15 1461.19 Q2305.17 1461 2306.19 1461 Q2311.97 1461 2315.35 1464.18 Q2318.73 1467.35 2318.73 1472.76 Q2318.73 1478.34 2315.26 1481.44 Q2311.79 1484.52 2305.47 1484.52 Q2303.29 1484.52 2301.02 1484.15 Q2298.78 1483.78 2296.37 1483.04 L2296.37 1478.34 Q2298.45 1479.48 2300.68 1480.03 Q2302.9 1480.59 2305.37 1480.59 Q2309.38 1480.59 2311.72 1478.48 Q2314.06 1476.38 2314.06 1472.76 Q2314.06 1469.15 2311.72 1467.05 Q2309.38 1464.94 2305.37 1464.94 Q2303.5 1464.94 2301.62 1465.36 Q2299.77 1465.77 2297.83 1466.65 L2297.83 1449.29 Z" fill="#000000" fill-rule="evenodd" fill-opacity="1" /><path clip-path="url(#clip430)" d="M 0 0 M1285.13 1522.27 L1285.13 1532.4 L1297.19 1532.4 L1297.19 1536.95 L1285.13 1536.95 L1285.13 1556.3 Q1285.13 1560.66 1286.31 1561.9 Q1287.52 1563.14 1291.18 1563.14 L1297.19 1563.14 L1297.19 1568.04 L1291.18 1568.04 Q1284.4 1568.04 1281.82 1565.53 Q1279.24 1562.98 1279.24 1556.3 L1279.24 1536.95 L1274.94 1536.95 L1274.94 1532.4 L1279.24 1532.4 L1279.24 1522.27 L1285.13 1522.27 Z" fill="#000000" fill-rule="evenodd" fill-opacity="1" /><polyline clip-path="url(#clip432)" style="stroke:#000000; stroke-width:2; stroke-opacity:0.1; fill:none" points="
  219.38,1338.51 2352.76,1338.51 
  "/>
<polyline clip-path="url(#clip432)" style="stroke:#000000; stroke-width:2; stroke-opacity:0.1; fill:none" points="
  219.38,915.001 2352.76,915.001 
  "/>
<polyline clip-path="url(#clip432)" style="stroke:#000000; stroke-width:2; stroke-opacity:0.1; fill:none" points="
  219.38,491.488 2352.76,491.488 
  "/>
<polyline clip-path="url(#clip432)" style="stroke:#000000; stroke-width:2; stroke-opacity:0.1; fill:none" points="
  219.38,67.9743 2352.76,67.9743 
  "/>
<polyline clip-path="url(#clip430)" style="stroke:#000000; stroke-width:4; stroke-opacity:1; fill:none" points="
  219.38,1423.18 219.38,47.2441 
  "/>
<polyline clip-path="url(#clip430)" style="stroke:#000000; stroke-width:4; stroke-opacity:1; fill:none" points="
  219.38,1338.51 244.981,1338.51 
  "/>
<polyline clip-path="url(#clip430)" style="stroke:#000000; stroke-width:4; stroke-opacity:1; fill:none" points="
  219.38,915.001 244.981,915.001 
  "/>
<polyline clip-path="url(#clip430)" style="stroke:#000000; stroke-width:4; stroke-opacity:1; fill:none" points="
  219.38,491.488 244.981,491.488 
  "/>
<polyline clip-path="url(#clip430)" style="stroke:#000000; stroke-width:4; stroke-opacity:1; fill:none" points="
  219.38,67.9743 244.981,67.9743 
  "/>
<path clip-path="url(#clip430)" d="M 0 0 M126.205 1324.31 Q122.593 1324.31 120.765 1327.88 Q118.959 1331.42 118.959 1338.55 Q118.959 1345.66 120.765 1349.22 Q122.593 1352.76 126.205 1352.76 Q129.839 1352.76 131.644 1349.22 Q133.473 1345.66 133.473 1338.55 Q133.473 1331.42 131.644 1327.88 Q129.839 1324.31 126.205 1324.31 M126.205 1320.61 Q132.015 1320.61 135.07 1325.22 Q138.149 1329.8 138.149 1338.55 Q138.149 1347.28 135.07 1351.88 Q132.015 1356.47 126.205 1356.47 Q120.394 1356.47 117.316 1351.88 Q114.26 1347.28 114.26 1338.55 Q114.26 1329.8 117.316 1325.22 Q120.394 1320.61 126.205 1320.61 Z" fill="#000000" fill-rule="evenodd" fill-opacity="1" /><path clip-path="url(#clip430)" d="M 0 0 M146.366 1349.91 L151.251 1349.91 L151.251 1355.79 L146.366 1355.79 L146.366 1349.91 Z" fill="#000000" fill-rule="evenodd" fill-opacity="1" /><path clip-path="url(#clip430)" d="M 0 0 M171.436 1324.31 Q167.825 1324.31 165.996 1327.88 Q164.19 1331.42 164.19 1338.55 Q164.19 1345.66 165.996 1349.22 Q167.825 1352.76 171.436 1352.76 Q175.07 1352.76 176.876 1349.22 Q178.704 1345.66 178.704 1338.55 Q178.704 1331.42 176.876 1327.88 Q175.07 1324.31 171.436 1324.31 M171.436 1320.61 Q177.246 1320.61 180.301 1325.22 Q183.38 1329.8 183.38 1338.55 Q183.38 1347.28 180.301 1351.88 Q177.246 1356.47 171.436 1356.47 Q165.626 1356.47 162.547 1351.88 Q159.491 1347.28 159.491 1338.55 Q159.491 1329.8 162.547 1325.22 Q165.626 1320.61 171.436 1320.61 Z" fill="#000000" fill-rule="evenodd" fill-opacity="1" /><path clip-path="url(#clip430)" d="M 0 0 M127.2 900.799 Q123.589 900.799 121.76 904.364 Q119.955 907.906 119.955 915.035 Q119.955 922.142 121.76 925.707 Q123.589 929.248 127.2 929.248 Q130.834 929.248 132.64 925.707 Q134.468 922.142 134.468 915.035 Q134.468 907.906 132.64 904.364 Q130.834 900.799 127.2 900.799 M127.2 897.096 Q133.01 897.096 136.066 901.702 Q139.144 906.286 139.144 915.035 Q139.144 923.762 136.066 928.369 Q133.01 932.952 127.2 932.952 Q121.39 932.952 118.311 928.369 Q115.256 923.762 115.256 915.035 Q115.256 906.286 118.311 901.702 Q121.39 897.096 127.2 897.096 Z" fill="#000000" fill-rule="evenodd" fill-opacity="1" /><path clip-path="url(#clip430)" d="M 0 0 M147.362 926.401 L152.246 926.401 L152.246 932.281 L147.362 932.281 L147.362 926.401 Z" fill="#000000" fill-rule="evenodd" fill-opacity="1" /><path clip-path="url(#clip430)" d="M 0 0 M162.477 897.721 L180.834 897.721 L180.834 901.656 L166.76 901.656 L166.76 910.128 Q167.778 909.781 168.797 909.619 Q169.815 909.434 170.834 909.434 Q176.621 909.434 180.001 912.605 Q183.38 915.776 183.38 921.193 Q183.38 926.772 179.908 929.873 Q176.436 932.952 170.116 932.952 Q167.94 932.952 165.672 932.582 Q163.427 932.211 161.019 931.471 L161.019 926.772 Q163.102 927.906 165.325 928.461 Q167.547 929.017 170.024 929.017 Q174.028 929.017 176.366 926.91 Q178.704 924.804 178.704 921.193 Q178.704 917.582 176.366 915.475 Q174.028 913.369 170.024 913.369 Q168.149 913.369 166.274 913.786 Q164.422 914.202 162.477 915.082 L162.477 897.721 Z" fill="#000000" fill-rule="evenodd" fill-opacity="1" /><path clip-path="url(#clip430)" d="M 0 0 M117.015 504.832 L124.654 504.832 L124.654 478.467 L116.343 480.133 L116.343 475.874 L124.607 474.208 L129.283 474.208 L129.283 504.832 L136.922 504.832 L136.922 508.768 L117.015 508.768 L117.015 504.832 Z" fill="#000000" fill-rule="evenodd" fill-opacity="1" /><path clip-path="url(#clip430)" d="M 0 0 M146.366 502.888 L151.251 502.888 L151.251 508.768 L146.366 508.768 L146.366 502.888 Z" fill="#000000" fill-rule="evenodd" fill-opacity="1" /><path clip-path="url(#clip430)" d="M 0 0 M171.436 477.286 Q167.825 477.286 165.996 480.851 Q164.19 484.393 164.19 491.522 Q164.19 498.629 165.996 502.193 Q167.825 505.735 171.436 505.735 Q175.07 505.735 176.876 502.193 Q178.704 498.629 178.704 491.522 Q178.704 484.393 176.876 480.851 Q175.07 477.286 171.436 477.286 M171.436 473.583 Q177.246 473.583 180.301 478.189 Q183.38 482.772 183.38 491.522 Q183.38 500.249 180.301 504.855 Q177.246 509.439 171.436 509.439 Q165.626 509.439 162.547 504.855 Q159.491 500.249 159.491 491.522 Q159.491 482.772 162.547 478.189 Q165.626 473.583 171.436 473.583 Z" fill="#000000" fill-rule="evenodd" fill-opacity="1" /><path clip-path="url(#clip430)" d="M 0 0 M118.01 81.3191 L125.649 81.3191 L125.649 54.9535 L117.339 56.6201 L117.339 52.3609 L125.603 50.6943 L130.279 50.6943 L130.279 81.3191 L137.917 81.3191 L137.917 85.2543 L118.01 85.2543 L118.01 81.3191 Z" fill="#000000" fill-rule="evenodd" fill-opacity="1" /><path clip-path="url(#clip430)" d="M 0 0 M147.362 79.3747 L152.246 79.3747 L152.246 85.2543 L147.362 85.2543 L147.362 79.3747 Z" fill="#000000" fill-rule="evenodd" fill-opacity="1" /><path clip-path="url(#clip430)" d="M 0 0 M162.477 50.6943 L180.834 50.6943 L180.834 54.6294 L166.76 54.6294 L166.76 63.1016 Q167.778 62.7544 168.797 62.5923 Q169.815 62.4072 170.834 62.4072 Q176.621 62.4072 180.001 65.5784 Q183.38 68.7497 183.38 74.1663 Q183.38 79.745 179.908 82.8469 Q176.436 85.9255 170.116 85.9255 Q167.94 85.9255 165.672 85.5552 Q163.427 85.1848 161.019 84.4441 L161.019 79.745 Q163.102 80.8793 165.325 81.4348 Q167.547 81.9904 170.024 81.9904 Q174.028 81.9904 176.366 79.8839 Q178.704 77.7774 178.704 74.1663 Q178.704 70.5553 176.366 68.4488 Q174.028 66.3423 170.024 66.3423 Q168.149 66.3423 166.274 66.759 Q164.422 67.1756 162.477 68.0553 L162.477 50.6943 Z" fill="#000000" fill-rule="evenodd" fill-opacity="1" /><path clip-path="url(#clip430)" d="M 0 0 M41.7242 767.534 Q42.4244 765.465 44.7161 763.523 Q47.0077 761.55 51.0181 759.577 L64.0042 753.052 L64.0042 759.959 L51.8138 766.038 Q47.0395 768.393 45.48 770.621 Q43.9204 772.817 43.9204 776.637 L43.9204 783.639 L64.0042 783.639 L64.0042 790.068 L16.4842 790.068 L16.4842 775.555 Q16.4842 767.407 19.8898 763.396 Q23.2955 759.386 30.1704 759.386 Q34.6582 759.386 37.6183 761.486 Q40.5784 763.555 41.7242 767.534 M21.7677 783.639 L38.6368 783.639 L38.6368 775.555 Q38.6368 770.908 36.5043 768.552 Q34.34 766.165 30.1704 766.165 Q26.0009 766.165 23.9002 768.552 Q21.7677 770.908 21.7677 775.555 L21.7677 783.639 Z" fill="#000000" fill-rule="evenodd" fill-opacity="1" /><path clip-path="url(#clip430)" d="M 0 0 M14.5426 730.963 Q21.8632 735.228 29.0246 737.297 Q36.186 739.366 43.5384 739.366 Q50.8908 739.366 58.1159 737.297 Q65.3091 735.196 72.5979 730.963 L72.5979 736.055 Q65.1182 740.83 57.8931 743.217 Q50.668 745.572 43.5384 745.572 Q36.4406 745.572 29.2474 743.217 Q22.0542 740.862 14.5426 736.055 L14.5426 730.963 Z" fill="#000000" fill-rule="evenodd" fill-opacity="1" /><path clip-path="url(#clip430)" d="M 0 0 M18.2347 713.807 L28.3562 713.807 L28.3562 701.744 L32.9077 701.744 L32.9077 713.807 L52.2594 713.807 Q56.6199 713.807 57.8613 712.63 Q59.1026 711.42 59.1026 707.76 L59.1026 701.744 L64.0042 701.744 L64.0042 707.76 Q64.0042 714.539 61.4897 717.117 Q58.9434 719.696 52.2594 719.696 L32.9077 719.696 L32.9077 723.992 L28.3562 723.992 L28.3562 719.696 L18.2347 719.696 L18.2347 713.807 Z" fill="#000000" fill-rule="evenodd" fill-opacity="1" /><path clip-path="url(#clip430)" d="M 0 0 M14.5426 694.965 L14.5426 689.872 Q22.0542 685.098 29.2474 682.743 Q36.4406 680.355 43.5384 680.355 Q50.668 680.355 57.8931 682.743 Q65.1182 685.098 72.5979 689.872 L72.5979 694.965 Q65.3091 690.732 58.1159 688.663 Q50.8908 686.562 43.5384 686.562 Q36.186 686.562 29.0246 688.663 Q21.8632 690.732 14.5426 694.965 Z" fill="#000000" fill-rule="evenodd" fill-opacity="1" /><polyline clip-path="url(#clip432)" style="stroke:#009af9; stroke-width:8; stroke-opacity:1; fill:none" points="
  408.566,1354.96 416.617,1323.95 424.667,1331.38 432.718,1350.58 440.768,1368.26 448.819,1315.86 456.869,1318.28 464.92,1342.69 472.97,1371.45 481.021,1383.88 
  489.071,1347.27 497.122,1240.84 505.172,1137.78 513.222,1030.95 521.273,929.514 529.323,842.631 537.374,775.83 545.424,729.654 553.475,700.462 561.525,682.809 
  569.576,665.285 577.626,627.306 585.677,587.299 593.727,556.807 601.778,530.237 609.828,504.443 617.879,476.526 625.929,444.785 633.98,408.721 642.03,368.709 
  650.081,325.812 658.131,281.604 666.181,237.987 674.232,196.984 682.282,160.528 690.333,130.273 698.383,107.439 706.434,92.7101 714.484,86.1857 722.535,87.4083 
  730.585,95.4454 738.636,109.006 746.686,126.528 754.737,146.186 762.787,165.885 770.838,183.649 778.888,198.697 786.939,212.255 794.989,226.571 803.04,241.448 
  811.09,248.345 819.141,255.861 827.191,274.152 835.241,296.123 843.292,319.287 851.342,343.063 859.393,367.21 867.443,391.546 875.494,415.907 883.544,440.136 
  891.595,464.078 899.645,487.585 907.696,510.516 915.746,532.739 923.797,554.126 931.847,574.563 939.898,593.942 947.948,612.168 955.999,629.154 964.049,644.827 
  972.1,659.121 980.15,671.985 988.2,683.377 996.251,693.265 1004.3,701.631 1012.35,708.464 1020.4,713.766 1028.45,717.548 1036.5,719.831 1044.55,720.645 
  1052.6,720.028 1060.65,718.028 1068.71,714.699 1076.76,710.102 1084.81,704.305 1092.86,697.383 1100.91,689.413 1108.96,680.479 1117.01,670.668 1125.06,660.07 
  1133.11,648.776 1141.16,636.882 1149.21,624.481 1157.26,611.669 1165.31,598.542 1173.36,585.192 1181.41,571.714 1189.46,558.197 1197.51,544.73 1205.56,531.398 
  1213.61,518.282 1221.66,505.46 1229.71,493.004 1237.77,480.985 1245.82,469.464 1253.87,458.501 1261.92,448.148 1269.97,438.452 1278.02,429.456 1286.07,421.195 
  1294.12,413.698 1302.17,406.99 1310.22,401.089 1318.27,396.006 1326.32,391.748 1334.37,388.317 1342.42,385.708 1350.47,383.91 1358.52,382.91 1366.57,382.688 
  1374.62,383.22 1382.67,384.478 1390.72,386.431 1398.77,389.043 1406.83,392.275 1414.88,396.086 1422.93,400.433 1430.98,405.269 1439.03,410.547 1447.08,416.218 
  1455.13,422.232 1463.18,428.538 1471.23,435.085 1479.28,441.822 1487.33,448.699 1495.38,455.666 1503.43,462.674 1511.48,469.675 1519.53,476.623 1527.58,483.475 
  1535.63,490.187 1543.68,496.72 1551.73,503.037 1559.78,509.102 1567.83,514.883 1575.89,520.352 1583.94,525.481 1591.99,530.248 1600.04,534.632 1608.09,538.616 
  1616.14,542.187 1624.19,545.333 1632.24,548.048 1640.29,550.326 1648.34,552.166 1656.39,553.569 1664.44,554.541 1672.49,555.086 1680.54,555.216 1688.59,554.941 
  1696.64,554.277 1704.69,553.239 1712.74,551.845 1720.79,550.115 1728.84,548.072 1736.89,545.737 1744.95,543.136 1753,540.292 1761.05,537.233 1769.1,533.984 
  1777.15,530.572 1785.2,527.024 1793.25,523.369 1801.3,519.631 1809.35,515.839 1817.4,512.019 1825.45,508.196 1833.5,504.394 1841.55,500.639 1849.6,496.952 
  1857.65,493.355 1865.7,489.87 1873.75,486.514 1881.8,483.305 1889.85,480.261 1897.9,477.394 1905.95,474.718 1914.01,472.245 1922.06,469.983 1930.11,467.941 
  1938.16,466.126 1946.21,464.541 1954.26,463.189 1962.31,462.072 1970.36,461.19 1978.41,460.541 1986.46,460.121 1994.51,459.927 2002.56,459.951 2010.61,460.187 
  2018.66,460.626 2026.71,461.26 2034.76,462.077 2042.81,463.067 2050.86,464.217 2058.91,465.514 2066.96,466.947 2075.01,468.5 2083.07,470.159 2091.12,471.912 
  2099.17,473.742 2107.22,475.636 2115.27,477.579 2123.32,479.557 2131.37,481.556 2139.42,483.562 2147.47,485.562 2155.52,487.542 2163.57,489.491 2171.62,491.397 
  2179.67,493.247 2187.72,495.033 2195.77,496.744 2203.82,498.371 2211.87,499.906 2219.92,501.34 2227.97,502.668 2236.02,503.884 2244.07,504.982 2252.12,505.958 
  2260.18,506.809 2268.23,507.533 2276.28,508.128 2284.33,508.595 2292.38,508.933 
  "/>
<polyline clip-path="url(#clip432)" style="stroke:#e26f46; stroke-width:8; stroke-opacity:1; fill:none" points="
  408.566,1355.42 416.617,1323.44 424.667,1331.51 432.718,1350.88 440.768,1368.69 448.819,1315.23 456.869,1318.44 464.92,1343.35 472.97,1372.09 481.021,1384.24 
  489.071,1345.01 497.122,1238.61 505.172,1137.61 513.222,1034.24 521.273,938.023 529.323,858.04 537.374,799.431 545.424,762.181 553.475,742.153 561.525,733.587 
  569.576,723.402 577.626,691.113 585.677,659.627 593.727,637.465 601.778,618.56 609.828,599.698 617.879,578.122 625.929,552.352 633.98,522.072 642.03,487.825 
  650.081,450.813 658.131,412.711 666.181,375.463 674.232,341.065 682.282,311.352 690.333,287.812 698.383,271.448 706.434,262.683 714.484,261.352 722.535,266.742 
  730.585,277.709 738.636,292.789 746.686,310.26 754.737,328.107 762.787,344.105 770.838,356.57 778.888,365.615 786.939,373.274 794.989,381.314 803.04,385.927 
  811.09,382.833 819.141,387.885 827.191,398.945 835.241,411.42 843.292,424.192 851.342,436.955 859.393,449.565 867.443,461.913 875.494,473.905 883.544,485.456 
  891.595,496.488 899.645,506.932 907.696,516.726 915.746,525.814 923.797,534.151 931.847,541.701 939.898,548.433 947.948,554.327 955.999,559.371 964.049,563.56 
  972.1,566.895 980.15,569.387 988.2,571.051 996.251,571.91 1004.3,571.992 1012.35,571.33 1020.4,569.961 1028.45,567.928 1036.5,565.276 1044.55,562.052 
  1052.6,558.31 1060.65,554.1 1068.71,549.477 1076.76,544.497 1084.81,539.216 1092.86,533.687 1100.91,527.968 1108.96,522.111 1117.01,516.169 1125.06,510.194 
  1133.11,504.234 1141.16,498.336 1149.21,492.545 1157.26,486.901 1165.31,481.443 1173.36,476.205 1181.41,471.22 1189.46,466.515 1197.51,462.116 1205.56,458.044 
  1213.61,454.315 1221.66,450.946 1229.71,447.945 1237.77,445.321 1245.82,443.077 1253.87,441.215 1261.92,439.732 1269.97,438.623 1278.02,437.881 1286.07,437.494 
  1294.12,437.452 1302.17,437.738 1310.22,438.337 1318.27,439.23 1326.32,440.397 1334.37,441.818 1342.42,443.471 1350.47,445.332 1358.52,447.38 1366.57,449.59 
  1374.62,451.938 1382.67,454.401 1390.72,456.955 1398.77,459.577 1406.83,462.244 1414.88,464.936 1422.93,467.63 1430.98,470.307 1439.03,472.948 1447.08,475.535 
  1455.13,478.052 1463.18,480.484 1471.23,482.816 1479.28,485.037 1487.33,487.136 1495.38,489.104 1503.43,490.932 1511.48,492.614 1519.53,494.145 1527.58,495.522 
  1535.63,496.743 1543.68,497.807 1551.73,498.713 1559.78,499.465 1567.83,500.064 1575.89,500.515 1583.94,500.822 1591.99,500.992 1600.04,501.03 1608.09,500.944 
  1616.14,500.742 1624.19,500.432 1632.24,500.023 1640.29,499.524 1648.34,498.945 1656.39,498.294 1664.44,497.583 1672.49,496.821 1680.54,496.016 1688.59,495.179 
  1696.64,494.319 1704.69,493.445 1712.74,492.565 1720.79,491.688 1728.84,490.821 1736.89,489.972 1744.95,489.148 1753,488.354 1761.05,487.597 1769.1,486.882 
  1777.15,486.212 1785.2,485.593 1793.25,485.028 1801.3,484.518 1809.35,484.067 1817.4,483.675 1825.45,483.344 1833.5,483.074 1841.55,482.865 1849.6,482.717 
  1857.65,482.628 1865.7,482.596 1873.75,482.621 1881.8,482.699 1889.85,482.828 1897.9,483.005 1905.95,483.227 1914.01,483.491 1922.06,483.792 1930.11,484.128 
  1938.16,484.494 1946.21,484.886 1954.26,485.301 1962.31,485.734 1970.36,486.182 1978.41,486.641 1986.46,487.107 1994.51,487.576 2002.56,488.045 2010.61,488.51 
  2018.66,488.969 2026.71,489.417 2034.76,489.854 2042.81,490.275 2050.86,490.679 2058.91,491.064 2066.96,491.427 2075.01,491.768 2083.07,492.084 2091.12,492.375 
  2099.17,492.64 2107.22,492.879 2115.27,493.09 2123.32,493.275 2131.37,493.432 2139.42,493.562 2147.47,493.666 2155.52,493.744 2163.57,493.796 2171.62,493.824 
  2179.67,493.829 2187.72,493.811 2195.77,493.773 2203.82,493.714 2211.87,493.636 2219.92,493.542 2227.97,493.432 2236.02,493.308 2244.07,493.172 2252.12,493.026 
  2260.18,492.872 2268.23,492.712 2276.28,492.549 2284.33,492.385 2292.38,492.223 
  "/>
<path clip-path="url(#clip430)" d="
M1696.62 274.549 L2281.64 274.549 L2281.64 93.1086 L1696.62 93.1086  Z
  " fill="#ffffff" fill-rule="evenodd" fill-opacity="1"/>
<polyline clip-path="url(#clip430)" style="stroke:#000000; stroke-width:4; stroke-opacity:1; fill:none" points="
  1696.62,274.549 2281.64,274.549 2281.64,93.1086 1696.62,93.1086 1696.62,274.549 
  "/>
<polyline clip-path="url(#clip430)" style="stroke:#009af9; stroke-width:4; stroke-opacity:1; fill:none" points="
  1720.32,153.589 1862.55,153.589 
  "/>
<path clip-path="url(#clip430)" d="M 0 0 M1914.12 138.971 L1914.12 143.901 Q1911.76 141.702 1909.07 140.614 Q1906.41 139.526 1903.4 139.526 Q1897.48 139.526 1894.33 143.16 Q1891.18 146.772 1891.18 153.623 Q1891.18 160.452 1894.33 164.086 Q1897.48 167.697 1903.4 167.697 Q1906.41 167.697 1909.07 166.609 Q1911.76 165.521 1914.12 163.322 L1914.12 168.207 Q1911.67 169.873 1908.91 170.707 Q1906.18 171.54 1903.13 171.54 Q1895.28 171.54 1890.76 166.748 Q1886.25 161.933 1886.25 153.623 Q1886.25 145.29 1890.76 140.498 Q1895.28 135.684 1903.13 135.684 Q1906.23 135.684 1908.96 136.517 Q1911.71 137.327 1914.12 138.971 Z" fill="#000000" fill-rule="evenodd" fill-opacity="1" /><path clip-path="url(#clip430)" d="M 0 0 M1942.71 155.221 L1942.71 170.869 L1938.45 170.869 L1938.45 155.359 Q1938.45 151.679 1937.01 149.85 Q1935.58 148.022 1932.71 148.022 Q1929.26 148.022 1927.27 150.221 Q1925.28 152.42 1925.28 156.216 L1925.28 170.869 L1921 170.869 L1921 134.85 L1925.28 134.85 L1925.28 148.971 Q1926.81 146.633 1928.87 145.475 Q1930.95 144.318 1933.66 144.318 Q1938.13 144.318 1940.42 147.096 Q1942.71 149.85 1942.71 155.221 Z" fill="#000000" fill-rule="evenodd" fill-opacity="1" /><path clip-path="url(#clip430)" d="M 0 0 M1961.25 147.929 Q1957.82 147.929 1955.83 150.614 Q1953.84 153.276 1953.84 157.929 Q1953.84 162.582 1955.81 165.267 Q1957.8 167.929 1961.25 167.929 Q1964.65 167.929 1966.64 165.244 Q1968.63 162.558 1968.63 157.929 Q1968.63 153.322 1966.64 150.637 Q1964.65 147.929 1961.25 147.929 M1961.25 144.318 Q1966.81 144.318 1969.98 147.929 Q1973.15 151.54 1973.15 157.929 Q1973.15 164.295 1969.98 167.929 Q1966.81 171.54 1961.25 171.54 Q1955.67 171.54 1952.5 167.929 Q1949.35 164.295 1949.35 157.929 Q1949.35 151.54 1952.5 147.929 Q1955.67 144.318 1961.25 144.318 Z" fill="#000000" fill-rule="evenodd" fill-opacity="1" /><path clip-path="url(#clip430)" d="M 0 0 M2002.38 156.841 L2002.38 158.924 L1982.8 158.924 Q1983.08 163.322 1985.44 165.637 Q1987.82 167.929 1992.06 167.929 Q1994.51 167.929 1996.81 167.327 Q1999.12 166.725 2001.39 165.521 L2001.39 169.549 Q1999.1 170.521 1996.69 171.031 Q1994.28 171.54 1991.81 171.54 Q1985.6 171.54 1981.97 167.929 Q1978.36 164.318 1978.36 158.16 Q1978.36 151.795 1981.78 148.068 Q1985.23 144.318 1991.07 144.318 Q1996.3 144.318 1999.33 147.697 Q2002.38 151.054 2002.38 156.841 M1998.13 155.591 Q1998.08 152.096 1996.16 150.012 Q1994.26 147.929 1991.11 147.929 Q1987.55 147.929 1985.39 149.943 Q1983.26 151.957 1982.94 155.614 L1998.13 155.591 Z" fill="#000000" fill-rule="evenodd" fill-opacity="1" /><path clip-path="url(#clip430)" d="M 0 0 M2030.93 155.221 L2030.93 170.869 L2026.67 170.869 L2026.67 155.359 Q2026.67 151.679 2025.23 149.85 Q2023.8 148.022 2020.93 148.022 Q2017.48 148.022 2015.49 150.221 Q2013.5 152.42 2013.5 156.216 L2013.5 170.869 L2009.21 170.869 L2009.21 144.943 L2013.5 144.943 L2013.5 148.971 Q2015.02 146.633 2017.08 145.475 Q2019.17 144.318 2021.88 144.318 Q2026.34 144.318 2028.63 147.096 Q2030.93 149.85 2030.93 155.221 Z" fill="#000000" fill-rule="evenodd" fill-opacity="1" /><path clip-path="url(#clip430)" d="M 0 0 M2037.27 155.984 L2049.75 155.984 L2049.75 159.781 L2037.27 159.781 L2037.27 155.984 Z" fill="#000000" fill-rule="evenodd" fill-opacity="1" /><path clip-path="url(#clip430)" d="M 0 0 M2082.59 138.971 L2082.59 143.901 Q2080.23 141.702 2077.55 140.614 Q2074.88 139.526 2071.87 139.526 Q2065.95 139.526 2062.8 143.16 Q2059.65 146.772 2059.65 153.623 Q2059.65 160.452 2062.8 164.086 Q2065.95 167.697 2071.87 167.697 Q2074.88 167.697 2077.55 166.609 Q2080.23 165.521 2082.59 163.322 L2082.59 168.207 Q2080.14 169.873 2077.38 170.707 Q2074.65 171.54 2071.6 171.54 Q2063.75 171.54 2059.24 166.748 Q2054.72 161.933 2054.72 153.623 Q2054.72 145.29 2059.24 140.498 Q2063.75 135.684 2071.6 135.684 Q2074.7 135.684 2077.43 136.517 Q2080.18 137.327 2082.59 138.971 Z" fill="#000000" fill-rule="evenodd" fill-opacity="1" /><path clip-path="url(#clip430)" d="M 0 0 M2099.68 147.929 Q2096.25 147.929 2094.26 150.614 Q2092.27 153.276 2092.27 157.929 Q2092.27 162.582 2094.24 165.267 Q2096.23 167.929 2099.68 167.929 Q2103.08 167.929 2105.07 165.244 Q2107.06 162.558 2107.06 157.929 Q2107.06 153.322 2105.07 150.637 Q2103.08 147.929 2099.68 147.929 M2099.68 144.318 Q2105.23 144.318 2108.4 147.929 Q2111.57 151.54 2111.57 157.929 Q2111.57 164.295 2108.4 167.929 Q2105.23 171.54 2099.68 171.54 Q2094.1 171.54 2090.93 167.929 Q2087.78 164.295 2087.78 157.929 Q2087.78 151.54 2090.93 147.929 Q2094.1 144.318 2099.68 144.318 Z" fill="#000000" fill-rule="evenodd" fill-opacity="1" /><path clip-path="url(#clip430)" d="M 0 0 M2128.68 147.929 Q2125.25 147.929 2123.26 150.614 Q2121.27 153.276 2121.27 157.929 Q2121.27 162.582 2123.24 165.267 Q2125.23 167.929 2128.68 167.929 Q2132.08 167.929 2134.07 165.244 Q2136.06 162.558 2136.06 157.929 Q2136.06 153.322 2134.07 150.637 Q2132.08 147.929 2128.68 147.929 M2128.68 144.318 Q2134.24 144.318 2137.41 147.929 Q2140.58 151.54 2140.58 157.929 Q2140.58 164.295 2137.41 167.929 Q2134.24 171.54 2128.68 171.54 Q2123.1 171.54 2119.93 167.929 Q2116.78 164.295 2116.78 157.929 Q2116.78 151.54 2119.93 147.929 Q2123.1 144.318 2128.68 144.318 Z" fill="#000000" fill-rule="evenodd" fill-opacity="1" /><path clip-path="url(#clip430)" d="M 0 0 M2169.19 155.221 L2169.19 170.869 L2164.93 170.869 L2164.93 155.359 Q2164.93 151.679 2163.49 149.85 Q2162.06 148.022 2159.19 148.022 Q2155.74 148.022 2153.75 150.221 Q2151.76 152.42 2151.76 156.216 L2151.76 170.869 L2147.48 170.869 L2147.48 144.943 L2151.76 144.943 L2151.76 148.971 Q2153.29 146.633 2155.35 145.475 Q2157.43 144.318 2160.14 144.318 Q2164.61 144.318 2166.9 147.096 Q2169.19 149.85 2169.19 155.221 Z" fill="#000000" fill-rule="evenodd" fill-opacity="1" /><polyline clip-path="url(#clip430)" style="stroke:#e26f46; stroke-width:4; stroke-opacity:1; fill:none" points="
  1720.32,214.069 1862.55,214.069 
  "/>
<path clip-path="url(#clip430)" d="M 0 0 M1886.78 196.789 L1913.94 196.789 L1913.94 200.353 L1892.08 227.413 L1914.47 227.413 L1914.47 231.349 L1886.25 231.349 L1886.25 227.784 L1908.1 200.724 L1886.78 200.724 L1886.78 196.789 Z" fill="#000000" fill-rule="evenodd" fill-opacity="1" /><path clip-path="url(#clip430)" d="M 0 0 M1921.07 205.423 L1925.32 205.423 L1925.32 231.349 L1921.07 231.349 L1921.07 205.423 M1921.07 195.33 L1925.32 195.33 L1925.32 200.724 L1921.07 200.724 L1921.07 195.33 Z" fill="#000000" fill-rule="evenodd" fill-opacity="1" /><path clip-path="url(#clip430)" d="M 0 0 M1956.41 217.321 L1956.41 219.404 L1936.83 219.404 Q1937.11 223.802 1939.47 226.117 Q1941.85 228.409 1946.09 228.409 Q1948.54 228.409 1950.83 227.807 Q1953.15 227.205 1955.42 226.001 L1955.42 230.029 Q1953.13 231.001 1950.72 231.511 Q1948.31 232.02 1945.83 232.02 Q1939.63 232.02 1936 228.409 Q1932.38 224.798 1932.38 218.64 Q1932.38 212.275 1935.81 208.548 Q1939.26 204.798 1945.09 204.798 Q1950.32 204.798 1953.36 208.177 Q1956.41 211.534 1956.41 217.321 M1952.15 216.071 Q1952.11 212.576 1950.19 210.492 Q1948.29 208.409 1945.14 208.409 Q1941.57 208.409 1939.42 210.423 Q1937.29 212.437 1936.97 216.094 L1952.15 216.071 Z" fill="#000000" fill-rule="evenodd" fill-opacity="1" /><path clip-path="url(#clip430)" d="M 0 0 M1980.46 218.085 Q1980.46 213.455 1978.54 210.909 Q1976.64 208.363 1973.19 208.363 Q1969.77 208.363 1967.85 210.909 Q1965.95 213.455 1965.95 218.085 Q1965.95 222.691 1967.85 225.238 Q1969.77 227.784 1973.19 227.784 Q1976.64 227.784 1978.54 225.238 Q1980.46 222.691 1980.46 218.085 M1984.72 228.131 Q1984.72 234.751 1981.78 237.969 Q1978.84 241.21 1972.78 241.21 Q1970.53 241.21 1968.54 240.862 Q1966.55 240.538 1964.68 239.844 L1964.68 235.7 Q1966.55 236.719 1968.38 237.205 Q1970.21 237.691 1972.11 237.691 Q1976.3 237.691 1978.38 235.492 Q1980.46 233.316 1980.46 228.895 L1980.46 226.788 Q1979.14 229.08 1977.08 230.214 Q1975.02 231.349 1972.15 231.349 Q1967.38 231.349 1964.47 227.714 Q1961.55 224.08 1961.55 218.085 Q1961.55 212.066 1964.47 208.432 Q1967.38 204.798 1972.15 204.798 Q1975.02 204.798 1977.08 205.932 Q1979.14 207.066 1980.46 209.358 L1980.46 205.423 L1984.72 205.423 L1984.72 228.131 Z" fill="#000000" fill-rule="evenodd" fill-opacity="1" /><path clip-path="url(#clip430)" d="M 0 0 M1993.5 195.33 L1997.75 195.33 L1997.75 231.349 L1993.5 231.349 L1993.5 195.33 Z" fill="#000000" fill-rule="evenodd" fill-opacity="1" /><path clip-path="url(#clip430)" d="M 0 0 M2028.84 217.321 L2028.84 219.404 L2009.26 219.404 Q2009.54 223.802 2011.9 226.117 Q2014.28 228.409 2018.52 228.409 Q2020.97 228.409 2023.26 227.807 Q2025.58 227.205 2027.85 226.001 L2027.85 230.029 Q2025.56 231.001 2023.15 231.511 Q2020.74 232.02 2018.26 232.02 Q2012.06 232.02 2008.43 228.409 Q2004.81 224.798 2004.81 218.64 Q2004.81 212.275 2008.24 208.548 Q2011.69 204.798 2017.52 204.798 Q2022.75 204.798 2025.79 208.177 Q2028.84 211.534 2028.84 217.321 M2024.58 216.071 Q2024.54 212.576 2022.62 210.492 Q2020.72 208.409 2017.57 208.409 Q2014 208.409 2011.85 210.423 Q2009.72 212.437 2009.4 216.094 L2024.58 216.071 Z" fill="#000000" fill-rule="evenodd" fill-opacity="1" /><path clip-path="url(#clip430)" d="M 0 0 M2050.86 209.404 Q2050.14 208.988 2049.28 208.802 Q2048.45 208.594 2047.43 208.594 Q2043.82 208.594 2041.87 210.955 Q2039.95 213.293 2039.95 217.691 L2039.95 231.349 L2035.67 231.349 L2035.67 205.423 L2039.95 205.423 L2039.95 209.451 Q2041.3 207.089 2043.45 205.955 Q2045.6 204.798 2048.68 204.798 Q2049.12 204.798 2049.65 204.867 Q2050.19 204.914 2050.83 205.029 L2050.86 209.404 Z" fill="#000000" fill-rule="evenodd" fill-opacity="1" /><path clip-path="url(#clip430)" d="M 0 0 M2050.14 216.464 L2062.62 216.464 L2062.62 220.261 L2050.14 220.261 L2050.14 216.464 Z" fill="#000000" fill-rule="evenodd" fill-opacity="1" /><path clip-path="url(#clip430)" d="M 0 0 M2069.58 196.789 L2075.88 196.789 L2091.2 225.701 L2091.2 196.789 L2095.74 196.789 L2095.74 231.349 L2089.44 231.349 L2074.12 202.437 L2074.12 231.349 L2069.58 231.349 L2069.58 196.789 Z" fill="#000000" fill-rule="evenodd" fill-opacity="1" /><path clip-path="url(#clip430)" d="M 0 0 M2104.86 205.423 L2109.12 205.423 L2109.12 231.349 L2104.86 231.349 L2104.86 205.423 M2104.86 195.33 L2109.12 195.33 L2109.12 200.724 L2104.86 200.724 L2104.86 195.33 Z" fill="#000000" fill-rule="evenodd" fill-opacity="1" /><path clip-path="url(#clip430)" d="M 0 0 M2136.69 206.418 L2136.69 210.4 Q2134.88 209.404 2133.06 208.918 Q2131.25 208.409 2129.4 208.409 Q2125.25 208.409 2122.96 211.048 Q2120.67 213.664 2120.67 218.409 Q2120.67 223.154 2122.96 225.793 Q2125.25 228.409 2129.4 228.409 Q2131.25 228.409 2133.06 227.923 Q2134.88 227.413 2136.69 226.418 L2136.69 230.353 Q2134.91 231.187 2132.99 231.603 Q2131.09 232.02 2128.93 232.02 Q2123.08 232.02 2119.63 228.339 Q2116.18 224.659 2116.18 218.409 Q2116.18 212.066 2119.65 208.432 Q2123.15 204.798 2129.21 204.798 Q2131.18 204.798 2133.06 205.215 Q2134.93 205.608 2136.69 206.418 Z" fill="#000000" fill-rule="evenodd" fill-opacity="1" /><path clip-path="url(#clip430)" d="M 0 0 M2165.65 215.701 L2165.65 231.349 L2161.39 231.349 L2161.39 215.839 Q2161.39 212.159 2159.95 210.33 Q2158.52 208.502 2155.65 208.502 Q2152.2 208.502 2150.21 210.701 Q2148.22 212.9 2148.22 216.696 L2148.22 231.349 L2143.93 231.349 L2143.93 195.33 L2148.22 195.33 L2148.22 209.451 Q2149.74 207.113 2151.8 205.955 Q2153.89 204.798 2156.6 204.798 Q2161.06 204.798 2163.36 207.576 Q2165.65 210.33 2165.65 215.701 Z" fill="#000000" fill-rule="evenodd" fill-opacity="1" /><path clip-path="url(#clip430)" d="M 0 0 M2184.19 208.409 Q2180.76 208.409 2178.77 211.094 Q2176.78 213.756 2176.78 218.409 Q2176.78 223.062 2178.75 225.747 Q2180.74 228.409 2184.19 228.409 Q2187.59 228.409 2189.58 225.724 Q2191.57 223.038 2191.57 218.409 Q2191.57 213.802 2189.58 211.117 Q2187.59 208.409 2184.19 208.409 M2184.19 204.798 Q2189.74 204.798 2192.92 208.409 Q2196.09 212.02 2196.09 218.409 Q2196.09 224.775 2192.92 228.409 Q2189.74 232.02 2184.19 232.02 Q2178.61 232.02 2175.44 228.409 Q2172.29 224.775 2172.29 218.409 Q2172.29 212.02 2175.44 208.409 Q2178.61 204.798 2184.19 204.798 Z" fill="#000000" fill-rule="evenodd" fill-opacity="1" /><path clip-path="url(#clip430)" d="M 0 0 M2203.15 195.33 L2207.41 195.33 L2207.41 231.349 L2203.15 231.349 L2203.15 195.33 Z" fill="#000000" fill-rule="evenodd" fill-opacity="1" /><path clip-path="url(#clip430)" d="M 0 0 M2232.85 206.187 L2232.85 210.214 Q2231.04 209.289 2229.1 208.826 Q2227.15 208.363 2225.07 208.363 Q2221.9 208.363 2220.3 209.335 Q2218.73 210.307 2218.73 212.251 Q2218.73 213.733 2219.86 214.589 Q2220.99 215.423 2224.42 216.187 L2225.88 216.511 Q2230.42 217.483 2232.31 219.265 Q2234.24 221.025 2234.24 224.196 Q2234.24 227.807 2231.36 229.913 Q2228.52 232.02 2223.52 232.02 Q2221.43 232.02 2219.17 231.603 Q2216.92 231.21 2214.42 230.4 L2214.42 226.001 Q2216.78 227.228 2219.07 227.853 Q2221.36 228.455 2223.61 228.455 Q2226.62 228.455 2228.24 227.437 Q2229.86 226.395 2229.86 224.52 Q2229.86 222.784 2228.68 221.858 Q2227.52 220.932 2223.56 220.076 L2222.08 219.728 Q2218.12 218.895 2216.36 217.182 Q2214.61 215.446 2214.61 212.437 Q2214.61 208.779 2217.2 206.789 Q2219.79 204.798 2224.56 204.798 Q2226.92 204.798 2229 205.145 Q2231.09 205.492 2232.85 206.187 Z" fill="#000000" fill-rule="evenodd" fill-opacity="1" /></svg>
