<?xml version="1.0" encoding="utf-8"?>
<svg xmlns="http://www.w3.org/2000/svg" xmlns:xlink="http://www.w3.org/1999/xlink" width="525" height="350" viewBox="0 0 2100 1400">
<defs>
  <clipPath id="clip180">
    <rect x="0" y="0" width="2100" height="1400"/>
  </clipPath>
</defs>
<path clip-path="url(#clip180)" d="
M0 1400 L2100 1400 L2100 0 L0 0  Z
  " fill="#ffffff" fill-rule="evenodd" fill-opacity="1"/>
<defs>
  <clipPath id="clip181">
    <rect x="420" y="0" width="1471" height="1400"/>
  </clipPath>
</defs>
<path clip-path="url(#clip180)" d="
M184.727 1245.28 L2058.66 1245.28 L2058.66 41.3386 L184.727 41.3386  Z
  " fill="#ffffff" fill-rule="evenodd" fill-opacity="1"/>
<defs>
  <clipPath id="clip182">
    <rect x="184" y="41" width="1875" height="1205"/>
  </clipPath>
</defs>
<polyline clip-path="url(#clip182)" style="stroke:#000000; stroke-width:1.75; stroke-opacity:0.1; fill:none" points="
  237.763,1245.28 237.763,41.3386 
  "/>
<polyline clip-path="url(#clip182)" style="stroke:#000000; stroke-width:1.75; stroke-opacity:0.1; fill:none" points="
  591.335,1245.28 591.335,41.3386 
  "/>
<polyline clip-path="url(#clip182)" style="stroke:#000000; stroke-width:1.75; stroke-opacity:0.1; fill:none" points="
  944.908,1245.28 944.908,41.3386 
  "/>
<polyline clip-path="url(#clip182)" style="stroke:#000000; stroke-width:1.75; stroke-opacity:0.1; fill:none" points="
  1298.48,1245.28 1298.48,41.3386 
  "/>
<polyline clip-path="url(#clip182)" style="stroke:#000000; stroke-width:1.75; stroke-opacity:0.1; fill:none" points="
  1652.05,1245.28 1652.05,41.3386 
  "/>
<polyline clip-path="url(#clip182)" style="stroke:#000000; stroke-width:1.75; stroke-opacity:0.1; fill:none" points="
  2005.63,1245.28 2005.63,41.3386 
  "/>
<polyline clip-path="url(#clip180)" style="stroke:#000000; stroke-width:3.5; stroke-opacity:1; fill:none" points="
  184.727,1245.28 2058.66,1245.28 
  "/>
<polyline clip-path="url(#clip180)" style="stroke:#000000; stroke-width:3.5; stroke-opacity:1; fill:none" points="
  237.763,1245.28 237.763,1230.84 
  "/>
<polyline clip-path="url(#clip180)" style="stroke:#000000; stroke-width:3.5; stroke-opacity:1; fill:none" points="
  591.335,1245.28 591.335,1230.84 
  "/>
<polyline clip-path="url(#clip180)" style="stroke:#000000; stroke-width:3.5; stroke-opacity:1; fill:none" points="
  944.908,1245.28 944.908,1230.84 
  "/>
<polyline clip-path="url(#clip180)" style="stroke:#000000; stroke-width:3.5; stroke-opacity:1; fill:none" points="
  1298.48,1245.28 1298.48,1230.84 
  "/>
<polyline clip-path="url(#clip180)" style="stroke:#000000; stroke-width:3.5; stroke-opacity:1; fill:none" points="
  1652.05,1245.28 1652.05,1230.84 
  "/>
<polyline clip-path="url(#clip180)" style="stroke:#000000; stroke-width:3.5; stroke-opacity:1; fill:none" points="
  2005.63,1245.28 2005.63,1230.84 
  "/>
<path clip-path="url(#clip180)" d="M 0 0 M237.763 1270.82 Q234.603 1270.82 233.003 1273.94 Q231.423 1277.04 231.423 1283.28 Q231.423 1289.5 233.003 1292.62 Q234.603 1295.72 237.763 1295.72 Q240.943 1295.72 242.522 1292.62 Q244.123 1289.5 244.123 1283.28 Q244.123 1277.04 242.522 1273.94 Q240.943 1270.82 237.763 1270.82 M237.763 1267.58 Q242.847 1267.58 245.52 1271.61 Q248.214 1275.62 248.214 1283.28 Q248.214 1290.92 245.52 1294.95 Q242.847 1298.96 237.763 1298.96 Q232.679 1298.96 229.985 1294.95 Q227.311 1290.92 227.311 1283.28 Q227.311 1275.62 229.985 1271.61 Q232.679 1267.58 237.763 1267.58 Z" fill="#000000" fill-rule="evenodd" fill-opacity="1" /><path clip-path="url(#clip180)" d="M 0 0 M582.828 1268.13 L598.89 1268.13 L598.89 1271.57 L586.575 1271.57 L586.575 1278.99 Q587.467 1278.68 588.358 1278.54 Q589.249 1278.38 590.14 1278.38 Q595.204 1278.38 598.161 1281.15 Q601.118 1283.93 601.118 1288.67 Q601.118 1293.55 598.08 1296.26 Q595.042 1298.96 589.512 1298.96 Q587.608 1298.96 585.623 1298.63 Q583.659 1298.31 581.552 1297.66 L581.552 1293.55 Q583.375 1294.54 585.32 1295.03 Q587.264 1295.51 589.431 1295.51 Q592.935 1295.51 594.981 1293.67 Q597.027 1291.83 597.027 1288.67 Q597.027 1285.51 594.981 1283.67 Q592.935 1281.82 589.431 1281.82 Q587.791 1281.82 586.15 1282.19 Q584.53 1282.55 582.828 1283.32 L582.828 1268.13 Z" fill="#000000" fill-rule="evenodd" fill-opacity="1" /><path clip-path="url(#clip180)" d="M 0 0 M924.674 1294.93 L931.358 1294.93 L931.358 1271.86 L924.086 1273.32 L924.086 1269.59 L931.317 1268.13 L935.408 1268.13 L935.408 1294.93 L942.092 1294.93 L942.092 1298.37 L924.674 1298.37 L924.674 1294.93 Z" fill="#000000" fill-rule="evenodd" fill-opacity="1" /><path clip-path="url(#clip180)" d="M 0 0 M955.278 1270.82 Q952.118 1270.82 950.518 1273.94 Q948.938 1277.04 948.938 1283.28 Q948.938 1289.5 950.518 1292.62 Q952.118 1295.72 955.278 1295.72 Q958.458 1295.72 960.038 1292.62 Q961.638 1289.5 961.638 1283.28 Q961.638 1277.04 960.038 1273.94 Q958.458 1270.82 955.278 1270.82 M955.278 1267.58 Q960.362 1267.58 963.036 1271.61 Q965.729 1275.62 965.729 1283.28 Q965.729 1290.92 963.036 1294.95 Q960.362 1298.96 955.278 1298.96 Q950.194 1298.96 947.5 1294.95 Q944.827 1290.92 944.827 1283.28 Q944.827 1275.62 947.5 1271.61 Q950.194 1267.58 955.278 1267.58 Z" fill="#000000" fill-rule="evenodd" fill-opacity="1" /><path clip-path="url(#clip180)" d="M 0 0 M1278.68 1294.93 L1285.37 1294.93 L1285.37 1271.86 L1278.09 1273.32 L1278.09 1269.59 L1285.33 1268.13 L1289.42 1268.13 L1289.42 1294.93 L1296.1 1294.93 L1296.1 1298.37 L1278.68 1298.37 L1278.68 1294.93 Z" fill="#000000" fill-rule="evenodd" fill-opacity="1" /><path clip-path="url(#clip180)" d="M 0 0 M1300.58 1268.13 L1316.64 1268.13 L1316.64 1271.57 L1304.32 1271.57 L1304.32 1278.99 Q1305.22 1278.68 1306.11 1278.54 Q1307 1278.38 1307.89 1278.38 Q1312.95 1278.38 1315.91 1281.15 Q1318.87 1283.93 1318.87 1288.67 Q1318.87 1293.55 1315.83 1296.26 Q1312.79 1298.96 1307.26 1298.96 Q1305.36 1298.96 1303.37 1298.63 Q1301.41 1298.31 1299.3 1297.66 L1299.3 1293.55 Q1301.12 1294.54 1303.07 1295.03 Q1305.01 1295.51 1307.18 1295.51 Q1310.68 1295.51 1312.73 1293.67 Q1314.78 1291.83 1314.78 1288.67 Q1314.78 1285.51 1312.73 1283.67 Q1310.68 1281.82 1307.18 1281.82 Q1305.54 1281.82 1303.9 1282.19 Q1302.28 1282.55 1300.58 1283.32 L1300.58 1268.13 Z" fill="#000000" fill-rule="evenodd" fill-opacity="1" /><path clip-path="url(#clip180)" d="M 0 0 M1635.56 1294.93 L1649.84 1294.93 L1649.84 1298.37 L1630.63 1298.37 L1630.63 1294.93 Q1632.96 1292.52 1636.97 1288.47 Q1641 1284.39 1642.04 1283.22 Q1644 1281.01 1644.77 1279.49 Q1645.56 1277.95 1645.56 1276.48 Q1645.56 1274.06 1643.86 1272.55 Q1642.18 1271.03 1639.46 1271.03 Q1637.54 1271.03 1635.39 1271.7 Q1633.27 1272.36 1630.84 1273.72 L1630.84 1269.59 Q1633.31 1268.6 1635.45 1268.09 Q1637.6 1267.58 1639.38 1267.58 Q1644.08 1267.58 1646.88 1269.93 Q1649.67 1272.28 1649.67 1276.21 Q1649.67 1278.08 1648.96 1279.76 Q1648.28 1281.42 1646.43 1283.69 Q1645.93 1284.27 1643.21 1287.09 Q1640.5 1289.88 1635.56 1294.93 Z" fill="#000000" fill-rule="evenodd" fill-opacity="1" /><path clip-path="url(#clip180)" d="M 0 0 M1663.02 1270.82 Q1659.86 1270.82 1658.26 1273.94 Q1656.68 1277.04 1656.68 1283.28 Q1656.68 1289.5 1658.26 1292.62 Q1659.86 1295.72 1663.02 1295.72 Q1666.2 1295.72 1667.78 1292.62 Q1669.38 1289.5 1669.38 1283.28 Q1669.38 1277.04 1667.78 1273.94 Q1666.2 1270.82 1663.02 1270.82 M1663.02 1267.58 Q1668.1 1267.58 1670.78 1271.61 Q1673.47 1275.62 1673.47 1283.28 Q1673.47 1290.92 1670.78 1294.95 Q1668.1 1298.96 1663.02 1298.96 Q1657.94 1298.96 1655.24 1294.95 Q1652.57 1290.92 1652.57 1283.28 Q1652.57 1275.62 1655.24 1271.61 Q1657.94 1267.58 1663.02 1267.58 Z" fill="#000000" fill-rule="evenodd" fill-opacity="1" /><path clip-path="url(#clip180)" d="M 0 0 M1989.56 1294.93 L2003.84 1294.93 L2003.84 1298.37 L1984.64 1298.37 L1984.64 1294.93 Q1986.97 1292.52 1990.98 1288.47 Q1995.01 1284.39 1996.05 1283.22 Q1998.01 1281.01 1998.78 1279.49 Q1999.57 1277.95 1999.57 1276.48 Q1999.57 1274.06 1997.87 1272.55 Q1996.19 1271.03 1993.47 1271.03 Q1991.55 1271.03 1989.4 1271.7 Q1987.27 1272.36 1984.84 1273.72 L1984.84 1269.59 Q1987.32 1268.6 1989.46 1268.09 Q1991.61 1267.58 1993.39 1267.58 Q1998.09 1267.58 2000.89 1269.93 Q2003.68 1272.28 2003.68 1276.21 Q2003.68 1278.08 2002.97 1279.76 Q2002.28 1281.42 2000.44 1283.69 Q1999.93 1284.27 1997.22 1287.09 Q1994.51 1289.88 1989.56 1294.93 Z" fill="#000000" fill-rule="evenodd" fill-opacity="1" /><path clip-path="url(#clip180)" d="M 0 0 M2008.32 1268.13 L2024.38 1268.13 L2024.38 1271.57 L2012.07 1271.57 L2012.07 1278.99 Q2012.96 1278.68 2013.85 1278.54 Q2014.74 1278.38 2015.63 1278.38 Q2020.69 1278.38 2023.65 1281.15 Q2026.61 1283.93 2026.61 1288.67 Q2026.61 1293.55 2023.57 1296.26 Q2020.53 1298.96 2015 1298.96 Q2013.1 1298.96 2011.11 1298.63 Q2009.15 1298.31 2007.04 1297.66 L2007.04 1293.55 Q2008.87 1294.54 2010.81 1295.03 Q2012.76 1295.51 2014.92 1295.51 Q2018.43 1295.51 2020.47 1293.67 Q2022.52 1291.83 2022.52 1288.67 Q2022.52 1285.51 2020.47 1283.67 Q2018.43 1281.82 2014.92 1281.82 Q2013.28 1281.82 2011.64 1282.19 Q2010.02 1282.55 2008.32 1283.32 L2008.32 1268.13 Z" fill="#000000" fill-rule="evenodd" fill-opacity="1" /><path clip-path="url(#clip180)" d="M 0 0 M1120.87 1331.99 L1120.87 1340.85 L1131.43 1340.85 L1131.43 1344.83 L1120.87 1344.83 L1120.87 1361.76 Q1120.87 1365.58 1121.9 1366.66 Q1122.96 1367.75 1126.16 1367.75 L1131.43 1367.75 L1131.43 1372.04 L1126.16 1372.04 Q1120.23 1372.04 1117.98 1369.84 Q1115.72 1367.61 1115.72 1361.76 L1115.72 1344.83 L1111.96 1344.83 L1111.96 1340.85 L1115.72 1340.85 L1115.72 1331.99 L1120.87 1331.99 Z" fill="#000000" fill-rule="evenodd" fill-opacity="1" /><polyline clip-path="url(#clip182)" style="stroke:#000000; stroke-width:1.75; stroke-opacity:0.1; fill:none" points="
  184.727,1171.2 2058.66,1171.2 
  "/>
<polyline clip-path="url(#clip182)" style="stroke:#000000; stroke-width:1.75; stroke-opacity:0.1; fill:none" points="
  184.727,800.626 2058.66,800.626 
  "/>
<polyline clip-path="url(#clip182)" style="stroke:#000000; stroke-width:1.75; stroke-opacity:0.1; fill:none" points="
  184.727,430.052 2058.66,430.052 
  "/>
<polyline clip-path="url(#clip182)" style="stroke:#000000; stroke-width:1.75; stroke-opacity:0.1; fill:none" points="
  184.727,59.4775 2058.66,59.4775 
  "/>
<polyline clip-path="url(#clip180)" style="stroke:#000000; stroke-width:3.5; stroke-opacity:1; fill:none" points="
  184.727,1245.28 184.727,41.3386 
  "/>
<polyline clip-path="url(#clip180)" style="stroke:#000000; stroke-width:3.5; stroke-opacity:1; fill:none" points="
  184.727,1171.2 207.214,1171.2 
  "/>
<polyline clip-path="url(#clip180)" style="stroke:#000000; stroke-width:3.5; stroke-opacity:1; fill:none" points="
  184.727,800.626 207.214,800.626 
  "/>
<polyline clip-path="url(#clip180)" style="stroke:#000000; stroke-width:3.5; stroke-opacity:1; fill:none" points="
  184.727,430.052 207.214,430.052 
  "/>
<polyline clip-path="url(#clip180)" style="stroke:#000000; stroke-width:3.5; stroke-opacity:1; fill:none" points="
  184.727,59.4775 207.214,59.4775 
  "/>
<path clip-path="url(#clip180)" d="M 0 0 M110.429 1158.77 Q107.269 1158.77 105.669 1161.89 Q104.089 1164.99 104.089 1171.23 Q104.089 1177.45 105.669 1180.57 Q107.269 1183.67 110.429 1183.67 Q113.609 1183.67 115.189 1180.57 Q116.789 1177.45 116.789 1171.23 Q116.789 1164.99 115.189 1161.89 Q113.609 1158.77 110.429 1158.77 M110.429 1155.53 Q115.513 1155.53 118.186 1159.56 Q120.88 1163.57 120.88 1171.23 Q120.88 1178.87 118.186 1182.9 Q115.513 1186.91 110.429 1186.91 Q105.345 1186.91 102.651 1182.9 Q99.9776 1178.87 99.9776 1171.23 Q99.9776 1163.57 102.651 1159.56 Q105.345 1155.53 110.429 1155.53 Z" fill="#000000" fill-rule="evenodd" fill-opacity="1" /><path clip-path="url(#clip180)" d="M 0 0 M125.316 1181.18 L129.59 1181.18 L129.59 1186.32 L125.316 1186.32 L125.316 1181.18 Z" fill="#000000" fill-rule="evenodd" fill-opacity="1" /><path clip-path="url(#clip180)" d="M 0 0 M142.775 1158.77 Q139.616 1158.77 138.016 1161.89 Q136.436 1164.99 136.436 1171.23 Q136.436 1177.45 138.016 1180.57 Q139.616 1183.67 142.775 1183.67 Q145.955 1183.67 147.535 1180.57 Q149.135 1177.45 149.135 1171.23 Q149.135 1164.99 147.535 1161.89 Q145.955 1158.77 142.775 1158.77 M142.775 1155.53 Q147.859 1155.53 150.533 1159.56 Q153.227 1163.57 153.227 1171.23 Q153.227 1178.87 150.533 1182.9 Q147.859 1186.91 142.775 1186.91 Q137.692 1186.91 134.998 1182.9 Q132.324 1178.87 132.324 1171.23 Q132.324 1163.57 134.998 1159.56 Q137.692 1155.53 142.775 1155.53 Z" fill="#000000" fill-rule="evenodd" fill-opacity="1" /><path clip-path="url(#clip180)" d="M 0 0 M111.3 788.2 Q108.14 788.2 106.54 791.319 Q104.96 794.418 104.96 800.656 Q104.96 806.874 106.54 809.993 Q108.14 813.092 111.3 813.092 Q114.48 813.092 116.06 809.993 Q117.66 806.874 117.66 800.656 Q117.66 794.418 116.06 791.319 Q114.48 788.2 111.3 788.2 M111.3 784.959 Q116.384 784.959 119.057 788.989 Q121.751 793 121.751 800.656 Q121.751 808.292 119.057 812.323 Q116.384 816.333 111.3 816.333 Q106.216 816.333 103.522 812.323 Q100.849 808.292 100.849 800.656 Q100.849 793 103.522 788.989 Q106.216 784.959 111.3 784.959 Z" fill="#000000" fill-rule="evenodd" fill-opacity="1" /><path clip-path="url(#clip180)" d="M 0 0 M126.187 810.601 L130.461 810.601 L130.461 815.746 L126.187 815.746 L126.187 810.601 Z" fill="#000000" fill-rule="evenodd" fill-opacity="1" /><path clip-path="url(#clip180)" d="M 0 0 M134.937 785.506 L150.999 785.506 L150.999 788.949 L138.684 788.949 L138.684 796.362 Q139.575 796.058 140.466 795.917 Q141.358 795.754 142.249 795.754 Q147.312 795.754 150.27 798.529 Q153.227 801.304 153.227 806.044 Q153.227 810.925 150.189 813.639 Q147.15 816.333 141.621 816.333 Q139.717 816.333 137.732 816.009 Q135.767 815.685 133.661 815.037 L133.661 810.925 Q135.484 811.918 137.428 812.404 Q139.373 812.89 141.54 812.89 Q145.044 812.89 147.09 811.047 Q149.135 809.203 149.135 806.044 Q149.135 802.884 147.09 801.041 Q145.044 799.198 141.54 799.198 Q139.899 799.198 138.259 799.562 Q136.638 799.927 134.937 800.697 L134.937 785.506 Z" fill="#000000" fill-rule="evenodd" fill-opacity="1" /><path clip-path="url(#clip180)" d="M 0 0 M103.461 441.728 L110.145 441.728 L110.145 418.658 L102.874 420.117 L102.874 416.39 L110.105 414.932 L114.196 414.932 L114.196 441.728 L120.88 441.728 L120.88 445.172 L103.461 445.172 L103.461 441.728 Z" fill="#000000" fill-rule="evenodd" fill-opacity="1" /><path clip-path="url(#clip180)" d="M 0 0 M125.316 440.027 L129.59 440.027 L129.59 445.172 L125.316 445.172 L125.316 440.027 Z" fill="#000000" fill-rule="evenodd" fill-opacity="1" /><path clip-path="url(#clip180)" d="M 0 0 M142.775 417.625 Q139.616 417.625 138.016 420.745 Q136.436 423.844 136.436 430.082 Q136.436 436.3 138.016 439.419 Q139.616 442.518 142.775 442.518 Q145.955 442.518 147.535 439.419 Q149.135 436.3 149.135 430.082 Q149.135 423.844 147.535 420.745 Q145.955 417.625 142.775 417.625 M142.775 414.385 Q147.859 414.385 150.533 418.415 Q153.227 422.426 153.227 430.082 Q153.227 437.718 150.533 441.749 Q147.859 445.759 142.775 445.759 Q137.692 445.759 134.998 441.749 Q132.324 437.718 132.324 430.082 Q132.324 422.426 134.998 418.415 Q137.692 414.385 142.775 414.385 Z" fill="#000000" fill-rule="evenodd" fill-opacity="1" /><path clip-path="url(#clip180)" d="M 0 0 M104.332 71.1542 L111.016 71.1542 L111.016 48.0843 L103.745 49.5426 L103.745 45.8158 L110.976 44.3575 L115.067 44.3575 L115.067 71.1542 L121.751 71.1542 L121.751 74.5975 L104.332 74.5975 L104.332 71.1542 Z" fill="#000000" fill-rule="evenodd" fill-opacity="1" /><path clip-path="url(#clip180)" d="M 0 0 M126.187 69.4528 L130.461 69.4528 L130.461 74.5975 L126.187 74.5975 L126.187 69.4528 Z" fill="#000000" fill-rule="evenodd" fill-opacity="1" /><path clip-path="url(#clip180)" d="M 0 0 M134.937 44.3575 L150.999 44.3575 L150.999 47.8007 L138.684 47.8007 L138.684 55.2139 Q139.575 54.9101 140.466 54.7683 Q141.358 54.6063 142.249 54.6063 Q147.312 54.6063 150.27 57.3811 Q153.227 60.156 153.227 64.8956 Q153.227 69.7769 150.189 72.491 Q147.15 75.1849 141.621 75.1849 Q139.717 75.1849 137.732 74.8608 Q135.767 74.5367 133.661 73.8886 L133.661 69.7769 Q135.484 70.7694 137.428 71.2555 Q139.373 71.7416 141.54 71.7416 Q145.044 71.7416 147.09 69.8984 Q149.135 68.0553 149.135 64.8956 Q149.135 61.7358 147.09 59.8927 Q145.044 58.0495 141.54 58.0495 Q139.899 58.0495 138.259 58.4141 Q136.638 58.7787 134.937 59.5484 L134.937 44.3575 Z" fill="#000000" fill-rule="evenodd" fill-opacity="1" /><path clip-path="url(#clip180)" d="M 0 0 M36.5087 667.805 Q37.1214 665.994 39.1266 664.295 Q41.1318 662.569 44.6409 660.842 L56.0036 655.133 L56.0036 661.176 L45.3371 666.496 Q41.1596 668.556 39.795 670.506 Q38.4303 672.428 38.4303 675.77 L38.4303 681.897 L56.0036 681.897 L56.0036 687.522 L14.4236 687.522 L14.4236 674.823 Q14.4236 667.693 17.4036 664.184 Q20.3835 660.675 26.3991 660.675 Q30.326 660.675 32.916 662.513 Q35.5061 664.323 36.5087 667.805 M19.0467 681.897 L33.8072 681.897 L33.8072 674.823 Q33.8072 670.757 31.9413 668.696 Q30.0475 666.607 26.3991 666.607 Q22.7508 666.607 20.9127 668.696 Q19.0467 670.757 19.0467 674.823 L19.0467 681.897 Z" fill="#000000" fill-rule="evenodd" fill-opacity="1" /><path clip-path="url(#clip180)" d="M 0 0 M12.7248 637.448 Q19.1303 641.18 25.3965 642.99 Q31.6628 644.8 38.0961 644.8 Q44.5295 644.8 50.8514 642.99 Q57.1455 641.152 63.5231 637.448 L63.5231 641.904 Q56.9784 646.082 50.6564 648.17 Q44.3345 650.231 38.0961 650.231 Q31.8856 650.231 25.5915 648.17 Q19.2974 646.109 12.7248 641.904 L12.7248 637.448 Z" fill="#000000" fill-rule="evenodd" fill-opacity="1" /><path clip-path="url(#clip180)" d="M 0 0 M15.9554 627.004 L24.8117 627.004 L24.8117 616.449 L28.7942 616.449 L28.7942 627.004 L45.727 627.004 Q49.5424 627.004 50.6286 625.974 Q51.7147 624.916 51.7147 621.713 L51.7147 616.449 L56.0036 616.449 L56.0036 621.713 Q56.0036 627.645 53.8035 629.901 Q51.5755 632.157 45.727 632.157 L28.7942 632.157 L28.7942 635.916 L24.8117 635.916 L24.8117 632.157 L15.9554 632.157 L15.9554 627.004 Z" fill="#000000" fill-rule="evenodd" fill-opacity="1" /><path clip-path="url(#clip180)" d="M 0 0 M12.7248 611.882 L12.7248 607.426 Q19.2974 603.248 25.5915 601.187 Q31.8856 599.099 38.0961 599.099 Q44.3345 599.099 50.6564 601.187 Q56.9784 603.248 63.5231 607.426 L63.5231 611.882 Q57.1455 608.178 50.8514 606.367 Q44.5295 604.529 38.0961 604.529 Q31.6628 604.529 25.3965 606.367 Q19.1303 608.178 12.7248 611.882 Z" fill="#000000" fill-rule="evenodd" fill-opacity="1" /><polyline clip-path="url(#clip182)" style="stroke:#009af9; stroke-width:7; stroke-opacity:1; fill:none" points="
  350.906,1185.59 357.977,1158.46 365.049,1164.96 372.12,1181.76 379.192,1197.23 386.263,1151.38 393.335,1153.5 400.406,1174.86 407.477,1200.02 414.549,1210.9 
  421.62,1178.86 428.692,1085.74 435.763,995.559 442.835,902.085 449.906,813.325 456.978,737.303 464.049,678.851 471.121,638.448 478.192,612.905 485.263,597.458 
  492.335,582.124 499.406,548.893 506.478,513.887 513.549,487.206 520.621,463.957 527.692,441.388 534.764,416.96 541.835,389.187 548.907,357.631 555.978,322.621 
  563.049,285.085 570.121,246.403 577.192,208.239 584.264,172.361 591.335,140.462 598.407,113.989 605.478,94.0095 612.55,81.1214 619.621,75.4125 626.692,76.4822 
  633.764,83.5147 640.835,95.38 647.907,110.712 654.978,127.913 662.05,145.149 669.121,160.693 676.193,173.86 683.264,185.723 690.336,198.25 697.407,211.267 
  704.478,217.302 711.55,223.878 718.621,239.883 725.693,259.108 732.764,279.376 739.836,300.181 746.907,321.308 753.979,342.603 761.05,363.919 768.122,385.119 
  775.193,406.068 782.264,426.637 789.336,446.702 796.407,466.146 803.479,484.86 810.55,502.742 817.622,519.699 824.693,535.647 831.765,550.51 838.836,564.224 
  845.907,576.731 852.979,587.987 860.05,597.955 867.122,606.607 874.193,613.927 881.265,619.906 888.336,624.545 895.408,627.854 902.479,629.852 909.551,630.564 
  916.622,630.025 923.693,628.274 930.765,625.361 937.836,621.339 944.908,616.267 951.979,610.21 959.051,603.237 966.122,595.42 973.194,586.835 980.265,577.561 
  987.337,567.679 994.408,557.271 1001.48,546.421 1008.55,535.21 1015.62,523.724 1022.69,512.043 1029.77,500.25 1036.84,488.423 1043.91,476.639 1050.98,464.973 
  1058.05,453.497 1065.12,442.277 1072.19,431.379 1079.27,420.862 1086.34,410.781 1093.41,401.188 1100.48,392.129 1107.55,383.646 1114.62,375.774 1121.69,368.545 
  1128.77,361.986 1135.84,356.116 1142.91,350.953 1149.98,346.505 1157.05,342.78 1164.12,339.777 1171.19,337.494 1178.27,335.921 1185.34,335.046 1192.41,334.852 
  1199.48,335.317 1206.55,336.418 1213.62,338.127 1220.69,340.412 1227.77,343.24 1234.84,346.575 1241.91,350.379 1248.98,354.611 1256.05,359.229 1263.12,364.191 
  1270.19,369.453 1277.27,374.971 1284.34,380.699 1291.41,386.594 1298.48,392.612 1305.55,398.708 1312.62,404.839 1319.69,410.965 1326.77,417.045 1333.84,423.04 
  1340.91,428.913 1347.98,434.63 1355.05,440.157 1362.12,445.464 1369.19,450.523 1376.27,455.308 1383.34,459.796 1390.41,463.967 1397.48,467.803 1404.55,471.289 
  1411.62,474.413 1418.7,477.167 1425.77,479.542 1432.84,481.535 1439.91,483.145 1446.98,484.373 1454.05,485.223 1461.12,485.7 1468.2,485.814 1475.27,485.574 
  1482.34,484.992 1489.41,484.084 1496.48,482.864 1503.55,481.351 1510.62,479.563 1517.7,477.52 1524.77,475.244 1531.84,472.756 1538.91,470.079 1545.98,467.236 
  1553.05,464.25 1560.12,461.146 1567.2,457.947 1574.27,454.677 1581.34,451.359 1588.41,448.017 1595.48,444.671 1602.55,441.345 1609.62,438.059 1616.7,434.833 
  1623.77,431.686 1630.84,428.636 1637.91,425.7 1644.98,422.892 1652.05,420.228 1659.12,417.72 1666.2,415.378 1673.27,413.214 1680.34,411.235 1687.41,409.449 
  1694.48,407.86 1701.55,406.473 1708.62,405.29 1715.7,404.313 1722.77,403.541 1729.84,402.973 1736.91,402.606 1743.98,402.436 1751.05,402.457 1758.12,402.663 
  1765.2,403.048 1772.27,403.602 1779.34,404.317 1786.41,405.183 1793.48,406.189 1800.55,407.325 1807.62,408.578 1814.7,409.937 1821.77,411.389 1828.84,412.923 
  1835.91,414.524 1842.98,416.182 1850.05,417.882 1857.13,419.613 1864.2,421.362 1871.27,423.117 1878.34,424.866 1885.41,426.599 1892.48,428.305 1899.55,429.972 
  1906.63,431.592 1913.7,433.154 1920.77,434.651 1927.84,436.075 1934.91,437.417 1941.98,438.673 1949.05,439.835 1956.13,440.898 1963.2,441.859 1970.27,442.713 
  1977.34,443.458 1984.41,444.091 1991.48,444.612 1998.55,445.02 2005.63,445.316 
  "/>
<polyline clip-path="url(#clip182)" style="stroke:#e26f46; stroke-width:7; stroke-opacity:1; fill:none" points="
  350.906,1185.99 357.977,1158.01 365.049,1165.07 372.12,1182.02 379.192,1197.6 386.263,1150.83 393.335,1153.64 400.406,1175.43 407.477,1200.57 414.549,1211.21 
  421.62,1176.88 428.692,1083.78 435.763,995.412 442.835,904.962 449.906,820.77 456.978,750.785 464.049,699.502 471.121,666.908 478.192,649.384 485.263,641.888 
  492.335,632.976 499.406,604.724 506.478,577.174 513.549,557.782 520.621,541.24 527.692,524.736 534.764,505.857 541.835,483.308 548.907,456.813 555.978,426.847 
  563.049,394.461 570.121,361.122 577.192,328.53 584.264,298.432 591.335,272.433 598.407,251.836 605.478,237.517 612.55,229.848 619.621,228.683 626.692,233.399 
  633.764,242.995 640.835,256.19 647.907,271.478 654.978,287.093 662.05,301.092 669.121,311.999 676.193,319.913 683.264,326.615 690.336,333.65 697.407,337.686 
  704.478,334.979 711.55,339.399 718.621,349.077 725.693,359.993 732.764,371.168 739.836,382.336 746.907,393.369 753.979,404.174 761.05,414.667 768.122,424.774 
  775.193,434.427 782.264,443.566 789.336,452.135 796.407,460.087 803.479,467.382 810.55,473.988 817.622,479.879 824.693,485.037 831.765,489.45 838.836,493.115 
  845.907,496.033 852.979,498.214 860.05,499.67 867.122,500.422 874.193,500.493 881.265,499.914 888.336,498.716 895.408,496.937 902.479,494.616 909.551,491.796 
  916.622,488.521 923.693,484.837 930.765,480.793 937.836,476.435 944.908,471.814 951.979,466.976 959.051,461.972 966.122,456.847 973.194,451.648 980.265,446.42 
  987.337,441.205 994.408,436.044 1001.48,430.977 1008.55,426.038 1015.62,421.262 1022.69,416.68 1029.77,412.318 1036.84,408.201 1043.91,404.352 1050.98,400.788 
  1058.05,397.526 1065.12,394.577 1072.19,391.952 1079.27,389.656 1086.34,387.693 1093.41,386.063 1100.48,384.765 1107.55,383.795 1114.62,383.146 1121.69,382.808 
  1128.77,382.77 1135.84,383.021 1142.91,383.545 1149.98,384.326 1157.05,385.347 1164.12,386.591 1171.19,388.037 1178.27,389.666 1185.34,391.457 1192.41,393.391 
  1199.48,395.446 1206.55,397.601 1213.62,399.835 1220.69,402.13 1227.77,404.464 1234.84,406.819 1241.91,409.176 1248.98,411.519 1256.05,413.83 1263.12,416.094 
  1270.19,418.296 1277.27,420.423 1284.34,422.464 1291.41,424.408 1298.48,426.244 1305.55,427.966 1312.62,429.565 1319.69,431.037 1326.77,432.377 1333.84,433.582 
  1340.91,434.65 1347.98,435.581 1355.05,436.374 1362.12,437.032 1369.19,437.556 1376.27,437.951 1383.34,438.22 1390.41,438.368 1397.48,438.401 1404.55,438.326 
  1411.62,438.149 1418.7,437.878 1425.77,437.52 1432.84,437.083 1439.91,436.576 1446.98,436.008 1454.05,435.385 1461.12,434.718 1468.2,434.014 1475.27,433.282 
  1482.34,432.529 1489.41,431.764 1496.48,430.994 1503.55,430.227 1510.62,429.468 1517.7,428.725 1524.77,428.004 1531.84,427.31 1538.91,426.647 1545.98,426.021 
  1553.05,425.436 1560.12,424.894 1567.2,424.399 1574.27,423.953 1581.34,423.558 1588.41,423.216 1595.48,422.926 1602.55,422.69 1609.62,422.507 1616.7,422.377 
  1623.77,422.299 1630.84,422.272 1637.91,422.293 1644.98,422.362 1652.05,422.475 1659.12,422.63 1666.2,422.824 1673.27,423.055 1680.34,423.318 1687.41,423.612 
  1694.48,423.932 1701.55,424.275 1708.62,424.638 1715.7,425.018 1722.77,425.41 1729.84,425.811 1736.91,426.218 1743.98,426.629 1751.05,427.039 1758.12,427.446 
  1765.2,427.848 1772.27,428.24 1779.34,428.622 1786.41,428.991 1793.48,429.344 1800.55,429.681 1807.62,429.999 1814.7,430.297 1821.77,430.573 1828.84,430.828 
  1835.91,431.06 1842.98,431.269 1850.05,431.454 1857.13,431.615 1864.2,431.753 1871.27,431.867 1878.34,431.958 1885.41,432.026 1892.48,432.072 1899.55,432.096 
  1906.63,432.1 1913.7,432.085 1920.77,432.051 1927.84,431.999 1934.91,431.932 1941.98,431.849 1949.05,431.753 1956.13,431.644 1963.2,431.525 1970.27,431.398 
  1977.34,431.263 1984.41,431.123 1991.48,430.981 1998.55,430.837 2005.63,430.695 
  "/>
<path clip-path="url(#clip180)" d="
M1523.56 240.23 L1996.2 240.23 L1996.2 81.47 L1523.56 81.47  Z
  " fill="#ffffff" fill-rule="evenodd" fill-opacity="1"/>
<polyline clip-path="url(#clip180)" style="stroke:#000000; stroke-width:3.5; stroke-opacity:1; fill:none" points="
  1523.56,240.23 1996.2,240.23 1996.2,81.47 1523.56,81.47 1523.56,240.23 
  "/>
<polyline clip-path="url(#clip180)" style="stroke:#009af9; stroke-width:3.5; stroke-opacity:1; fill:none" points="
  1544.38,134.39 1669.31,134.39 
  "/>
<path clip-path="url(#clip180)" d="M 0 0 M1714.52 121.599 L1714.52 125.914 Q1712.45 123.989 1710.1 123.037 Q1707.77 122.085 1705.14 122.085 Q1699.95 122.085 1697.2 125.265 Q1694.45 128.425 1694.45 134.42 Q1694.45 140.396 1697.2 143.575 Q1699.95 146.735 1705.14 146.735 Q1707.77 146.735 1710.1 145.783 Q1712.45 144.831 1714.52 142.907 L1714.52 147.181 Q1712.37 148.639 1709.96 149.368 Q1707.57 150.097 1704.9 150.097 Q1698.03 150.097 1694.08 145.905 Q1690.13 141.692 1690.13 134.42 Q1690.13 127.129 1694.08 122.936 Q1698.03 118.723 1704.9 118.723 Q1707.61 118.723 1710 119.452 Q1712.41 120.161 1714.52 121.599 Z" fill="#000000" fill-rule="evenodd" fill-opacity="1" /><path clip-path="url(#clip180)" d="M 0 0 M1727.22 129.438 Q1724.22 129.438 1722.48 131.787 Q1720.74 134.117 1720.74 138.188 Q1720.74 142.259 1722.46 144.608 Q1724.2 146.938 1727.22 146.938 Q1730.19 146.938 1731.94 144.588 Q1733.68 142.239 1733.68 138.188 Q1733.68 134.157 1731.94 131.808 Q1730.19 129.438 1727.22 129.438 M1727.22 126.278 Q1732.08 126.278 1734.85 129.438 Q1737.63 132.598 1737.63 138.188 Q1737.63 143.758 1734.85 146.938 Q1732.08 150.097 1727.22 150.097 Q1722.34 150.097 1719.56 146.938 Q1716.81 143.758 1716.81 138.188 Q1716.81 132.598 1719.56 129.438 Q1722.34 126.278 1727.22 126.278 Z" fill="#000000" fill-rule="evenodd" fill-opacity="1" /><path clip-path="url(#clip180)" d="M 0 0 M1760.39 135.818 L1760.39 149.51 L1756.67 149.51 L1756.67 135.94 Q1756.67 132.719 1755.41 131.119 Q1754.16 129.519 1751.64 129.519 Q1748.63 129.519 1746.88 131.443 Q1745.14 133.367 1745.14 136.689 L1745.14 149.51 L1741.4 149.51 L1741.4 117.994 L1745.14 117.994 L1745.14 130.349 Q1746.48 128.304 1748.28 127.291 Q1750.1 126.278 1752.47 126.278 Q1756.38 126.278 1758.39 128.709 Q1760.39 131.119 1760.39 135.818 Z" fill="#000000" fill-rule="evenodd" fill-opacity="1" /><path clip-path="url(#clip180)" d="M 0 0 M1783.71 137.236 L1783.71 139.059 L1766.57 139.059 Q1766.81 142.907 1768.88 144.933 Q1770.97 146.938 1774.67 146.938 Q1776.82 146.938 1778.83 146.411 Q1780.85 145.884 1782.84 144.831 L1782.84 148.356 Q1780.83 149.206 1778.72 149.652 Q1776.62 150.097 1774.45 150.097 Q1769.02 150.097 1765.84 146.938 Q1762.68 143.778 1762.68 138.39 Q1762.68 132.82 1765.68 129.559 Q1768.7 126.278 1773.8 126.278 Q1778.38 126.278 1781.03 129.235 Q1783.71 132.172 1783.71 137.236 M1779.98 136.142 Q1779.94 133.084 1778.26 131.261 Q1776.6 129.438 1773.84 129.438 Q1770.72 129.438 1768.84 131.2 Q1766.98 132.962 1766.69 136.162 L1779.98 136.142 Z" fill="#000000" fill-rule="evenodd" fill-opacity="1" /><path clip-path="url(#clip180)" d="M 0 0 M1806.47 135.818 L1806.47 149.51 L1802.75 149.51 L1802.75 135.94 Q1802.75 132.719 1801.49 131.119 Q1800.23 129.519 1797.72 129.519 Q1794.71 129.519 1792.96 131.443 Q1791.22 133.367 1791.22 136.689 L1791.22 149.51 L1787.47 149.51 L1787.47 126.825 L1791.22 126.825 L1791.22 130.349 Q1792.56 128.304 1794.36 127.291 Q1796.18 126.278 1798.55 126.278 Q1802.46 126.278 1804.47 128.709 Q1806.47 131.119 1806.47 135.818 Z" fill="#000000" fill-rule="evenodd" fill-opacity="1" /><path clip-path="url(#clip180)" d="M 0 0 M1808.5 136.486 L1819.42 136.486 L1819.42 139.808 L1808.5 139.808 L1808.5 136.486 Z" fill="#000000" fill-rule="evenodd" fill-opacity="1" /><path clip-path="url(#clip180)" d="M 0 0 M1846.13 121.599 L1846.13 125.914 Q1844.07 123.989 1841.72 123.037 Q1839.39 122.085 1836.75 122.085 Q1831.57 122.085 1828.81 125.265 Q1826.06 128.425 1826.06 134.42 Q1826.06 140.396 1828.81 143.575 Q1831.57 146.735 1836.75 146.735 Q1839.39 146.735 1841.72 145.783 Q1844.07 144.831 1846.13 142.907 L1846.13 147.181 Q1843.98 148.639 1841.57 149.368 Q1839.18 150.097 1836.51 150.097 Q1829.64 150.097 1825.69 145.905 Q1821.75 141.692 1821.75 134.42 Q1821.75 127.129 1825.69 122.936 Q1829.64 118.723 1836.51 118.723 Q1839.22 118.723 1841.61 119.452 Q1844.03 120.161 1846.13 121.599 Z" fill="#000000" fill-rule="evenodd" fill-opacity="1" /><path clip-path="url(#clip180)" d="M 0 0 M1858.83 129.438 Q1855.83 129.438 1854.09 131.787 Q1852.35 134.117 1852.35 138.188 Q1852.35 142.259 1854.07 144.608 Q1855.81 146.938 1858.83 146.938 Q1861.81 146.938 1863.55 144.588 Q1865.29 142.239 1865.29 138.188 Q1865.29 134.157 1863.55 131.808 Q1861.81 129.438 1858.83 129.438 M1858.83 126.278 Q1863.69 126.278 1866.47 129.438 Q1869.24 132.598 1869.24 138.188 Q1869.24 143.758 1866.47 146.938 Q1863.69 150.097 1858.83 150.097 Q1853.95 150.097 1851.17 146.938 Q1848.42 143.758 1848.42 138.188 Q1848.42 132.598 1851.17 129.438 Q1853.95 126.278 1858.83 126.278 Z" fill="#000000" fill-rule="evenodd" fill-opacity="1" /><path clip-path="url(#clip180)" d="M 0 0 M1881.94 129.438 Q1878.94 129.438 1877.2 131.787 Q1875.46 134.117 1875.46 138.188 Q1875.46 142.259 1877.18 144.608 Q1878.92 146.938 1881.94 146.938 Q1884.92 146.938 1886.66 144.588 Q1888.4 142.239 1888.4 138.188 Q1888.4 134.157 1886.66 131.808 Q1884.92 129.438 1881.94 129.438 M1881.94 126.278 Q1886.8 126.278 1889.58 129.438 Q1892.35 132.598 1892.35 138.188 Q1892.35 143.758 1889.58 146.938 Q1886.8 150.097 1881.94 150.097 Q1877.06 150.097 1874.29 146.938 Q1871.53 143.758 1871.53 138.188 Q1871.53 132.598 1874.29 129.438 Q1877.06 126.278 1881.94 126.278 Z" fill="#000000" fill-rule="evenodd" fill-opacity="1" /><path clip-path="url(#clip180)" d="M 0 0 M1915.12 135.818 L1915.12 149.51 L1911.39 149.51 L1911.39 135.94 Q1911.39 132.719 1910.14 131.119 Q1908.88 129.519 1906.37 129.519 Q1903.35 129.519 1901.61 131.443 Q1899.87 133.367 1899.87 136.689 L1899.87 149.51 L1896.12 149.51 L1896.12 126.825 L1899.87 126.825 L1899.87 130.349 Q1901.2 128.304 1903.01 127.291 Q1904.83 126.278 1907.2 126.278 Q1911.11 126.278 1913.11 128.709 Q1915.12 131.119 1915.12 135.818 Z" fill="#000000" fill-rule="evenodd" fill-opacity="1" /><polyline clip-path="url(#clip180)" style="stroke:#e26f46; stroke-width:3.5; stroke-opacity:1; fill:none" points="
  1544.38,187.31 1669.31,187.31 
  "/>
<path clip-path="url(#clip180)" d="M 0 0 M1690.6 172.19 L1714.36 172.19 L1714.36 175.309 L1695.24 198.987 L1714.82 198.987 L1714.82 202.43 L1690.13 202.43 L1690.13 199.311 L1709.25 175.633 L1690.6 175.633 L1690.6 172.19 Z" fill="#000000" fill-rule="evenodd" fill-opacity="1" /><path clip-path="url(#clip180)" d="M 0 0 M1718.73 179.745 L1722.46 179.745 L1722.46 202.43 L1718.73 202.43 L1718.73 179.745 M1718.73 170.914 L1722.46 170.914 L1722.46 175.633 L1718.73 175.633 L1718.73 170.914 Z" fill="#000000" fill-rule="evenodd" fill-opacity="1" /><path clip-path="url(#clip180)" d="M 0 0 M1745.77 190.156 L1745.77 191.979 L1728.64 191.979 Q1728.88 195.827 1730.94 197.853 Q1733.03 199.858 1736.74 199.858 Q1738.88 199.858 1740.89 199.331 Q1742.91 198.804 1744.9 197.751 L1744.9 201.276 Q1742.89 202.126 1740.79 202.572 Q1738.68 203.017 1736.51 203.017 Q1731.09 203.017 1727.91 199.858 Q1724.75 196.698 1724.75 191.31 Q1724.75 185.74 1727.74 182.479 Q1730.76 179.198 1735.87 179.198 Q1740.44 179.198 1743.1 182.155 Q1745.77 185.092 1745.77 190.156 M1742.04 189.062 Q1742 186.004 1740.32 184.181 Q1738.66 182.358 1735.91 182.358 Q1732.79 182.358 1730.9 184.12 Q1729.04 185.882 1728.76 189.082 L1742.04 189.062 Z" fill="#000000" fill-rule="evenodd" fill-opacity="1" /><path clip-path="url(#clip180)" d="M 0 0 M1764.61 190.824 Q1764.61 186.773 1762.93 184.545 Q1761.27 182.317 1758.25 182.317 Q1755.25 182.317 1753.57 184.545 Q1751.91 186.773 1751.91 190.824 Q1751.91 194.855 1753.57 197.083 Q1755.25 199.311 1758.25 199.311 Q1761.27 199.311 1762.93 197.083 Q1764.61 194.855 1764.61 190.824 M1768.33 199.615 Q1768.33 205.407 1765.76 208.223 Q1763.19 211.058 1757.88 211.058 Q1755.92 211.058 1754.18 210.755 Q1752.43 210.471 1750.79 209.863 L1750.79 206.238 Q1752.43 207.129 1754.03 207.554 Q1755.63 207.98 1757.3 207.98 Q1760.96 207.98 1762.78 206.056 Q1764.61 204.152 1764.61 200.283 L1764.61 198.44 Q1763.45 200.445 1761.65 201.438 Q1759.85 202.43 1757.34 202.43 Q1753.16 202.43 1750.61 199.25 Q1748.06 196.07 1748.06 190.824 Q1748.06 185.558 1750.61 182.378 Q1753.16 179.198 1757.34 179.198 Q1759.85 179.198 1761.65 180.191 Q1763.45 181.183 1764.61 183.188 L1764.61 179.745 L1768.33 179.745 L1768.33 199.615 Z" fill="#000000" fill-rule="evenodd" fill-opacity="1" /><path clip-path="url(#clip180)" d="M 0 0 M1772.24 170.914 L1775.97 170.914 L1775.97 202.43 L1772.24 202.43 L1772.24 170.914 Z" fill="#000000" fill-rule="evenodd" fill-opacity="1" /><path clip-path="url(#clip180)" d="M 0 0 M1799.28 190.156 L1799.28 191.979 L1782.15 191.979 Q1782.39 195.827 1784.46 197.853 Q1786.54 199.858 1790.25 199.858 Q1792.4 199.858 1794.4 199.331 Q1796.43 198.804 1798.41 197.751 L1798.41 201.276 Q1796.41 202.126 1794.3 202.572 Q1792.19 203.017 1790.03 203.017 Q1784.6 203.017 1781.42 199.858 Q1778.26 196.698 1778.26 191.31 Q1778.26 185.74 1781.26 182.479 Q1784.27 179.198 1789.38 179.198 Q1793.96 179.198 1796.61 182.155 Q1799.28 185.092 1799.28 190.156 M1795.56 189.062 Q1795.52 186.004 1793.83 184.181 Q1792.17 182.358 1789.42 182.358 Q1786.3 182.358 1784.42 184.12 Q1782.55 185.882 1782.27 189.082 L1795.56 189.062 Z" fill="#000000" fill-rule="evenodd" fill-opacity="1" /><path clip-path="url(#clip180)" d="M 0 0 M1816.34 183.229 Q1815.71 182.864 1814.96 182.702 Q1814.23 182.52 1813.34 182.52 Q1810.18 182.52 1808.48 184.586 Q1806.8 186.632 1806.8 190.48 L1806.8 202.43 L1803.05 202.43 L1803.05 179.745 L1806.8 179.745 L1806.8 183.269 Q1807.97 181.203 1809.86 180.211 Q1811.74 179.198 1814.43 179.198 Q1814.82 179.198 1815.28 179.259 Q1815.75 179.299 1816.32 179.401 L1816.34 183.229 Z" fill="#000000" fill-rule="evenodd" fill-opacity="1" /><path clip-path="url(#clip180)" d="M 0 0 M1815.71 189.406 L1826.63 189.406 L1826.63 192.728 L1815.71 192.728 L1815.71 189.406 Z" fill="#000000" fill-rule="evenodd" fill-opacity="1" /><path clip-path="url(#clip180)" d="M 0 0 M1830.7 172.19 L1836.21 172.19 L1849.62 197.488 L1849.62 172.19 L1853.59 172.19 L1853.59 202.43 L1848.08 202.43 L1834.67 177.132 L1834.67 202.43 L1830.7 202.43 L1830.7 172.19 Z" fill="#000000" fill-rule="evenodd" fill-opacity="1" /><path clip-path="url(#clip180)" d="M 0 0 M1857.49 179.745 L1861.22 179.745 L1861.22 202.43 L1857.49 202.43 L1857.49 179.745 M1857.49 170.914 L1861.22 170.914 L1861.22 175.633 L1857.49 175.633 L1857.49 170.914 Z" fill="#000000" fill-rule="evenodd" fill-opacity="1" /><path clip-path="url(#clip180)" d="M 0 0 M1881.46 180.616 L1881.46 184.1 Q1879.88 183.229 1878.28 182.803 Q1876.7 182.358 1875.08 182.358 Q1871.45 182.358 1869.44 184.667 Q1867.44 186.956 1867.44 191.108 Q1867.44 195.26 1869.44 197.569 Q1871.45 199.858 1875.08 199.858 Q1876.7 199.858 1878.28 199.432 Q1879.88 198.987 1881.46 198.116 L1881.46 201.559 Q1879.9 202.288 1878.21 202.653 Q1876.55 203.017 1874.67 203.017 Q1869.55 203.017 1866.53 199.797 Q1863.51 196.576 1863.51 191.108 Q1863.51 185.558 1866.55 182.378 Q1869.61 179.198 1874.91 179.198 Q1876.63 179.198 1878.28 179.563 Q1879.92 179.907 1881.46 180.616 Z" fill="#000000" fill-rule="evenodd" fill-opacity="1" /><path clip-path="url(#clip180)" d="M 0 0 M1904.22 188.738 L1904.22 202.43 L1900.49 202.43 L1900.49 188.86 Q1900.49 185.639 1899.24 184.039 Q1897.98 182.439 1895.47 182.439 Q1892.45 182.439 1890.71 184.363 Q1888.97 186.287 1888.97 189.609 L1888.97 202.43 L1885.22 202.43 L1885.22 170.914 L1888.97 170.914 L1888.97 183.269 Q1890.31 181.224 1892.11 180.211 Q1893.93 179.198 1896.3 179.198 Q1900.21 179.198 1902.22 181.629 Q1904.22 184.039 1904.22 188.738 Z" fill="#000000" fill-rule="evenodd" fill-opacity="1" /><path clip-path="url(#clip180)" d="M 0 0 M1916.92 182.358 Q1913.92 182.358 1912.18 184.707 Q1910.44 187.037 1910.44 191.108 Q1910.44 195.179 1912.16 197.528 Q1913.9 199.858 1916.92 199.858 Q1919.9 199.858 1921.64 197.508 Q1923.38 195.159 1923.38 191.108 Q1923.38 187.077 1921.64 184.728 Q1919.9 182.358 1916.92 182.358 M1916.92 179.198 Q1921.78 179.198 1924.56 182.358 Q1927.33 185.518 1927.33 191.108 Q1927.33 196.678 1924.56 199.858 Q1921.78 203.017 1916.92 203.017 Q1912.04 203.017 1909.26 199.858 Q1906.51 196.678 1906.51 191.108 Q1906.51 185.518 1909.26 182.358 Q1912.04 179.198 1916.92 179.198 Z" fill="#000000" fill-rule="evenodd" fill-opacity="1" /><path clip-path="url(#clip180)" d="M 0 0 M1931.24 170.914 L1934.97 170.914 L1934.97 202.43 L1931.24 202.43 L1931.24 170.914 Z" fill="#000000" fill-rule="evenodd" fill-opacity="1" /><path clip-path="url(#clip180)" d="M 0 0 M1953.34 180.413 L1953.34 183.938 Q1951.76 183.127 1950.06 182.722 Q1948.36 182.317 1946.53 182.317 Q1943.76 182.317 1942.36 183.168 Q1940.98 184.019 1940.98 185.72 Q1940.98 187.016 1941.98 187.766 Q1942.97 188.495 1945.97 189.163 L1947.24 189.447 Q1951.21 190.298 1952.87 191.857 Q1954.55 193.397 1954.55 196.171 Q1954.55 199.331 1952.04 201.174 Q1949.55 203.017 1945.18 203.017 Q1943.35 203.017 1941.37 202.653 Q1939.4 202.309 1937.22 201.6 L1937.22 197.751 Q1939.28 198.825 1941.29 199.372 Q1943.29 199.898 1945.26 199.898 Q1947.89 199.898 1949.31 199.007 Q1950.73 198.096 1950.73 196.455 Q1950.73 194.936 1949.69 194.126 Q1948.68 193.316 1945.22 192.566 L1943.92 192.262 Q1940.46 191.533 1938.92 190.034 Q1937.38 188.515 1937.38 185.882 Q1937.38 182.682 1939.65 180.94 Q1941.92 179.198 1946.09 179.198 Q1948.15 179.198 1949.98 179.502 Q1951.8 179.806 1953.34 180.413 Z" fill="#000000" fill-rule="evenodd" fill-opacity="1" /></svg>
