<?xml version="1.0" encoding="utf-8"?>
<svg xmlns="http://www.w3.org/2000/svg" xmlns:xlink="http://www.w3.org/1999/xlink" width="600" height="400" viewBox="0 0 2400 1600">
<defs>
  <clipPath id="clip530">
    <rect x="0" y="0" width="2400" height="1600"/>
  </clipPath>
</defs>
<path clip-path="url(#clip530)" d="
M0 1600 L2400 1600 L2400 0 L0 0  Z
  " fill="#ffffff" fill-rule="evenodd" fill-opacity="1"/>
<defs>
  <clipPath id="clip531">
    <rect x="480" y="0" width="1681" height="1600"/>
  </clipPath>
</defs>
<path clip-path="url(#clip530)" d="
M253.516 638.677 L2352.76 638.677 L2352.76 47.2441 L253.516 47.2441  Z
  " fill="#ffffff" fill-rule="evenodd" fill-opacity="1"/>
<defs>
  <clipPath id="clip532">
    <rect x="253" y="47" width="2100" height="592"/>
  </clipPath>
</defs>
<polyline clip-path="url(#clip532)" style="stroke:#000000; stroke-width:2; stroke-opacity:0.1; fill:none" points="
  312.929,638.677 312.929,47.2441 
  "/>
<polyline clip-path="url(#clip532)" style="stroke:#000000; stroke-width:2; stroke-opacity:0.1; fill:none" points="
  808.032,638.677 808.032,47.2441 
  "/>
<polyline clip-path="url(#clip532)" style="stroke:#000000; stroke-width:2; stroke-opacity:0.1; fill:none" points="
  1303.14,638.677 1303.14,47.2441 
  "/>
<polyline clip-path="url(#clip532)" style="stroke:#000000; stroke-width:2; stroke-opacity:0.1; fill:none" points="
  1798.24,638.677 1798.24,47.2441 
  "/>
<polyline clip-path="url(#clip532)" style="stroke:#000000; stroke-width:2; stroke-opacity:0.1; fill:none" points="
  2293.34,638.677 2293.34,47.2441 
  "/>
<polyline clip-path="url(#clip530)" style="stroke:#000000; stroke-width:4; stroke-opacity:1; fill:none" points="
  253.516,638.677 2352.76,638.677 
  "/>
<polyline clip-path="url(#clip530)" style="stroke:#000000; stroke-width:4; stroke-opacity:1; fill:none" points="
  312.929,638.677 312.929,631.58 
  "/>
<polyline clip-path="url(#clip530)" style="stroke:#000000; stroke-width:4; stroke-opacity:1; fill:none" points="
  808.032,638.677 808.032,631.58 
  "/>
<polyline clip-path="url(#clip530)" style="stroke:#000000; stroke-width:4; stroke-opacity:1; fill:none" points="
  1303.14,638.677 1303.14,631.58 
  "/>
<polyline clip-path="url(#clip530)" style="stroke:#000000; stroke-width:4; stroke-opacity:1; fill:none" points="
  1798.24,638.677 1798.24,631.58 
  "/>
<polyline clip-path="url(#clip530)" style="stroke:#000000; stroke-width:4; stroke-opacity:1; fill:none" points="
  2293.34,638.677 2293.34,631.58 
  "/>
<polyline clip-path="url(#clip530)" style="stroke:#000000; stroke-width:4; stroke-opacity:1; fill:none" points="
  467.481,638.677 467.481,635.128 
  "/>
<polyline clip-path="url(#clip530)" style="stroke:#000000; stroke-width:4; stroke-opacity:1; fill:none" points="
  580.936,638.677 580.936,635.128 
  "/>
<polyline clip-path="url(#clip530)" style="stroke:#000000; stroke-width:4; stroke-opacity:1; fill:none" points="
  670.622,638.677 670.622,635.128 
  "/>
<polyline clip-path="url(#clip530)" style="stroke:#000000; stroke-width:4; stroke-opacity:1; fill:none" points="
  744.792,638.677 744.792,635.128 
  "/>
<polyline clip-path="url(#clip530)" style="stroke:#000000; stroke-width:4; stroke-opacity:1; fill:none" points="
  962.585,638.677 962.585,635.128 
  "/>
<polyline clip-path="url(#clip530)" style="stroke:#000000; stroke-width:4; stroke-opacity:1; fill:none" points="
  1076.04,638.677 1076.04,635.128 
  "/>
<polyline clip-path="url(#clip530)" style="stroke:#000000; stroke-width:4; stroke-opacity:1; fill:none" points="
  1165.73,638.677 1165.73,635.128 
  "/>
<polyline clip-path="url(#clip530)" style="stroke:#000000; stroke-width:4; stroke-opacity:1; fill:none" points="
  1239.9,638.677 1239.9,635.128 
  "/>
<polyline clip-path="url(#clip530)" style="stroke:#000000; stroke-width:4; stroke-opacity:1; fill:none" points="
  1457.69,638.677 1457.69,635.128 
  "/>
<polyline clip-path="url(#clip530)" style="stroke:#000000; stroke-width:4; stroke-opacity:1; fill:none" points="
  1571.14,638.677 1571.14,635.128 
  "/>
<polyline clip-path="url(#clip530)" style="stroke:#000000; stroke-width:4; stroke-opacity:1; fill:none" points="
  1660.83,638.677 1660.83,635.128 
  "/>
<polyline clip-path="url(#clip530)" style="stroke:#000000; stroke-width:4; stroke-opacity:1; fill:none" points="
  1735,638.677 1735,635.128 
  "/>
<polyline clip-path="url(#clip530)" style="stroke:#000000; stroke-width:4; stroke-opacity:1; fill:none" points="
  1952.79,638.677 1952.79,635.128 
  "/>
<polyline clip-path="url(#clip530)" style="stroke:#000000; stroke-width:4; stroke-opacity:1; fill:none" points="
  2066.25,638.677 2066.25,635.128 
  "/>
<polyline clip-path="url(#clip530)" style="stroke:#000000; stroke-width:4; stroke-opacity:1; fill:none" points="
  2155.93,638.677 2155.93,635.128 
  "/>
<polyline clip-path="url(#clip530)" style="stroke:#000000; stroke-width:4; stroke-opacity:1; fill:none" points="
  2230.1,638.677 2230.1,635.128 
  "/>
<path clip-path="url(#clip530)" d="M 0 0 M244.17 716.949 L251.809 716.949 L251.809 690.583 L243.499 692.25 L243.499 687.991 L251.763 686.324 L256.439 686.324 L256.439 716.949 L264.078 716.949 L264.078 720.884 L244.17 720.884 L244.17 716.949 Z" fill="#000000" fill-rule="evenodd" fill-opacity="1" /><path clip-path="url(#clip530)" d="M 0 0 M283.522 689.403 Q279.911 689.403 278.082 692.968 Q276.277 696.509 276.277 703.639 Q276.277 710.745 278.082 714.31 Q279.911 717.852 283.522 717.852 Q287.156 717.852 288.962 714.31 Q290.79 710.745 290.79 703.639 Q290.79 696.509 288.962 692.968 Q287.156 689.403 283.522 689.403 M283.522 685.699 Q289.332 685.699 292.388 690.306 Q295.466 694.889 295.466 703.639 Q295.466 712.366 292.388 716.972 Q289.332 721.556 283.522 721.556 Q277.712 721.556 274.633 716.972 Q271.578 712.366 271.578 703.639 Q271.578 694.889 274.633 690.306 Q277.712 685.699 283.522 685.699 Z" fill="#000000" fill-rule="evenodd" fill-opacity="1" /><path clip-path="url(#clip530)" d="M 0 0 M295.466 679.801 L319.578 679.801 L319.578 682.998 L295.466 682.998 L295.466 679.801 Z" fill="#000000" fill-rule="evenodd" fill-opacity="1" /><path clip-path="url(#clip530)" d="M 0 0 M328.436 690.277 L334.643 690.277 L334.643 668.854 L327.891 670.209 L327.891 666.748 L334.605 665.394 L338.404 665.394 L338.404 690.277 L344.611 690.277 L344.611 693.474 L328.436 693.474 L328.436 690.277 Z" fill="#000000" fill-rule="evenodd" fill-opacity="1" /><path clip-path="url(#clip530)" d="M 0 0 M352.285 688.697 L356.253 688.697 L356.253 693.474 L352.285 693.474 L352.285 688.697 Z" fill="#000000" fill-rule="evenodd" fill-opacity="1" /><path clip-path="url(#clip530)" d="M 0 0 M372.653 667.895 Q369.719 667.895 368.234 670.792 Q366.767 673.669 366.767 679.462 Q366.767 685.236 368.234 688.132 Q369.719 691.01 372.653 691.01 Q375.606 691.01 377.073 688.132 Q378.559 685.236 378.559 679.462 Q378.559 673.669 377.073 670.792 Q375.606 667.895 372.653 667.895 M372.653 664.886 Q377.374 664.886 379.857 668.629 Q382.358 672.353 382.358 679.462 Q382.358 686.553 379.857 690.295 Q377.374 694.019 372.653 694.019 Q367.933 694.019 365.431 690.295 Q362.949 686.553 362.949 679.462 Q362.949 672.353 365.431 668.629 Q367.933 664.886 372.653 664.886 Z" fill="#000000" fill-rule="evenodd" fill-opacity="1" /><path clip-path="url(#clip530)" d="M 0 0 M739.678 716.949 L747.317 716.949 L747.317 690.583 L739.007 692.25 L739.007 687.991 L747.271 686.324 L751.947 686.324 L751.947 716.949 L759.586 716.949 L759.586 720.884 L739.678 720.884 L739.678 716.949 Z" fill="#000000" fill-rule="evenodd" fill-opacity="1" /><path clip-path="url(#clip530)" d="M 0 0 M779.03 689.403 Q775.419 689.403 773.59 692.968 Q771.785 696.509 771.785 703.639 Q771.785 710.745 773.59 714.31 Q775.419 717.852 779.03 717.852 Q782.664 717.852 784.47 714.31 Q786.298 710.745 786.298 703.639 Q786.298 696.509 784.47 692.968 Q782.664 689.403 779.03 689.403 M779.03 685.699 Q784.84 685.699 787.896 690.306 Q790.974 694.889 790.974 703.639 Q790.974 712.366 787.896 716.972 Q784.84 721.556 779.03 721.556 Q773.22 721.556 770.141 716.972 Q767.086 712.366 767.086 703.639 Q767.086 694.889 770.141 690.306 Q773.22 685.699 779.03 685.699 Z" fill="#000000" fill-rule="evenodd" fill-opacity="1" /><path clip-path="url(#clip530)" d="M 0 0 M790.974 679.801 L815.086 679.801 L815.086 682.998 L790.974 682.998 L790.974 679.801 Z" fill="#000000" fill-rule="evenodd" fill-opacity="1" /><path clip-path="url(#clip530)" d="M 0 0 M831.411 667.895 Q828.477 667.895 826.991 670.792 Q825.524 673.669 825.524 679.462 Q825.524 685.236 826.991 688.132 Q828.477 691.01 831.411 691.01 Q834.364 691.01 835.831 688.132 Q837.317 685.236 837.317 679.462 Q837.317 673.669 835.831 670.792 Q834.364 667.895 831.411 667.895 M831.411 664.886 Q836.132 664.886 838.614 668.629 Q841.116 672.353 841.116 679.462 Q841.116 686.553 838.614 690.295 Q836.132 694.019 831.411 694.019 Q826.69 694.019 824.189 690.295 Q821.706 686.553 821.706 679.462 Q821.706 672.353 824.189 668.629 Q826.69 664.886 831.411 664.886 Z" fill="#000000" fill-rule="evenodd" fill-opacity="1" /><path clip-path="url(#clip530)" d="M 0 0 M847.793 688.697 L851.761 688.697 L851.761 693.474 L847.793 693.474 L847.793 688.697 Z" fill="#000000" fill-rule="evenodd" fill-opacity="1" /><path clip-path="url(#clip530)" d="M 0 0 M860.074 665.394 L874.989 665.394 L874.989 668.591 L863.554 668.591 L863.554 675.475 Q864.381 675.193 865.209 675.061 Q866.036 674.911 866.864 674.911 Q871.566 674.911 874.312 677.487 Q877.058 680.064 877.058 684.465 Q877.058 688.998 874.236 691.518 Q871.415 694.019 866.281 694.019 Q864.513 694.019 862.67 693.718 Q860.845 693.417 858.889 692.816 L858.889 688.998 Q860.582 689.919 862.387 690.371 Q864.193 690.822 866.205 690.822 Q869.459 690.822 871.359 689.11 Q873.258 687.399 873.258 684.465 Q873.258 681.531 871.359 679.819 Q869.459 678.108 866.205 678.108 Q864.682 678.108 863.159 678.446 Q861.654 678.785 860.074 679.5 L860.074 665.394 Z" fill="#000000" fill-rule="evenodd" fill-opacity="1" /><path clip-path="url(#clip530)" d="M 0 0 M1249.74 716.949 L1257.38 716.949 L1257.38 690.583 L1249.07 692.25 L1249.07 687.991 L1257.34 686.324 L1262.01 686.324 L1262.01 716.949 L1269.65 716.949 L1269.65 720.884 L1249.74 720.884 L1249.74 716.949 Z" fill="#000000" fill-rule="evenodd" fill-opacity="1" /><path clip-path="url(#clip530)" d="M 0 0 M1289.1 689.403 Q1285.48 689.403 1283.66 692.968 Q1281.85 696.509 1281.85 703.639 Q1281.85 710.745 1283.66 714.31 Q1285.48 717.852 1289.1 717.852 Q1292.73 717.852 1294.54 714.31 Q1296.36 710.745 1296.36 703.639 Q1296.36 696.509 1294.54 692.968 Q1292.73 689.403 1289.1 689.403 M1289.1 685.699 Q1294.91 685.699 1297.96 690.306 Q1301.04 694.889 1301.04 703.639 Q1301.04 712.366 1297.96 716.972 Q1294.91 721.556 1289.1 721.556 Q1283.29 721.556 1280.21 716.972 Q1277.15 712.366 1277.15 703.639 Q1277.15 694.889 1280.21 690.306 Q1283.29 685.699 1289.1 685.699 Z" fill="#000000" fill-rule="evenodd" fill-opacity="1" /><path clip-path="url(#clip530)" d="M 0 0 M1310.74 667.895 Q1307.81 667.895 1306.32 670.792 Q1304.86 673.669 1304.86 679.462 Q1304.86 685.236 1306.32 688.132 Q1307.81 691.01 1310.74 691.01 Q1313.7 691.01 1315.16 688.132 Q1316.65 685.236 1316.65 679.462 Q1316.65 673.669 1315.16 670.792 Q1313.7 667.895 1310.74 667.895 M1310.74 664.886 Q1315.47 664.886 1317.95 668.629 Q1320.45 672.353 1320.45 679.462 Q1320.45 686.553 1317.95 690.295 Q1315.47 694.019 1310.74 694.019 Q1306.02 694.019 1303.52 690.295 Q1301.04 686.553 1301.04 679.462 Q1301.04 672.353 1303.52 668.629 Q1306.02 664.886 1310.74 664.886 Z" fill="#000000" fill-rule="evenodd" fill-opacity="1" /><path clip-path="url(#clip530)" d="M 0 0 M1327.13 688.697 L1331.09 688.697 L1331.09 693.474 L1327.13 693.474 L1327.13 688.697 Z" fill="#000000" fill-rule="evenodd" fill-opacity="1" /><path clip-path="url(#clip530)" d="M 0 0 M1347.49 667.895 Q1344.56 667.895 1343.08 670.792 Q1341.61 673.669 1341.61 679.462 Q1341.61 685.236 1343.08 688.132 Q1344.56 691.01 1347.49 691.01 Q1350.45 691.01 1351.91 688.132 Q1353.4 685.236 1353.4 679.462 Q1353.4 673.669 1351.91 670.792 Q1350.45 667.895 1347.49 667.895 M1347.49 664.886 Q1352.22 664.886 1354.7 668.629 Q1357.2 672.353 1357.2 679.462 Q1357.2 686.553 1354.7 690.295 Q1352.22 694.019 1347.49 694.019 Q1342.77 694.019 1340.27 690.295 Q1337.79 686.553 1337.79 679.462 Q1337.79 672.353 1340.27 668.629 Q1342.77 664.886 1347.49 664.886 Z" fill="#000000" fill-rule="evenodd" fill-opacity="1" /><path clip-path="url(#clip530)" d="M 0 0 M1745.25 716.949 L1752.89 716.949 L1752.89 690.583 L1744.58 692.25 L1744.58 687.991 L1752.84 686.324 L1757.52 686.324 L1757.52 716.949 L1765.16 716.949 L1765.16 720.884 L1745.25 720.884 L1745.25 716.949 Z" fill="#000000" fill-rule="evenodd" fill-opacity="1" /><path clip-path="url(#clip530)" d="M 0 0 M1784.6 689.403 Q1780.99 689.403 1779.16 692.968 Q1777.36 696.509 1777.36 703.639 Q1777.36 710.745 1779.16 714.31 Q1780.99 717.852 1784.6 717.852 Q1788.24 717.852 1790.04 714.31 Q1791.87 710.745 1791.87 703.639 Q1791.87 696.509 1790.04 692.968 Q1788.24 689.403 1784.6 689.403 M1784.6 685.699 Q1790.41 685.699 1793.47 690.306 Q1796.55 694.889 1796.55 703.639 Q1796.55 712.366 1793.47 716.972 Q1790.41 721.556 1784.6 721.556 Q1778.79 721.556 1775.71 716.972 Q1772.66 712.366 1772.66 703.639 Q1772.66 694.889 1775.71 690.306 Q1778.79 685.699 1784.6 685.699 Z" fill="#000000" fill-rule="evenodd" fill-opacity="1" /><path clip-path="url(#clip530)" d="M 0 0 M1806.25 667.895 Q1803.32 667.895 1801.83 670.792 Q1800.37 673.669 1800.37 679.462 Q1800.37 685.236 1801.83 688.132 Q1803.32 691.01 1806.25 691.01 Q1809.21 691.01 1810.67 688.132 Q1812.16 685.236 1812.16 679.462 Q1812.16 673.669 1810.67 670.792 Q1809.21 667.895 1806.25 667.895 M1806.25 664.886 Q1810.97 664.886 1813.46 668.629 Q1815.96 672.353 1815.96 679.462 Q1815.96 686.553 1813.46 690.295 Q1810.97 694.019 1806.25 694.019 Q1801.53 694.019 1799.03 690.295 Q1796.55 686.553 1796.55 679.462 Q1796.55 672.353 1799.03 668.629 Q1801.53 664.886 1806.25 664.886 Z" fill="#000000" fill-rule="evenodd" fill-opacity="1" /><path clip-path="url(#clip530)" d="M 0 0 M1822.63 688.697 L1826.6 688.697 L1826.6 693.474 L1822.63 693.474 L1822.63 688.697 Z" fill="#000000" fill-rule="evenodd" fill-opacity="1" /><path clip-path="url(#clip530)" d="M 0 0 M1834.92 665.394 L1849.83 665.394 L1849.83 668.591 L1838.4 668.591 L1838.4 675.475 Q1839.22 675.193 1840.05 675.061 Q1840.88 674.911 1841.71 674.911 Q1846.41 674.911 1849.15 677.487 Q1851.9 680.064 1851.9 684.465 Q1851.9 688.998 1849.08 691.518 Q1846.26 694.019 1841.12 694.019 Q1839.35 694.019 1837.51 693.718 Q1835.69 693.417 1833.73 692.816 L1833.73 688.998 Q1835.42 689.919 1837.23 690.371 Q1839.03 690.822 1841.05 690.822 Q1844.3 690.822 1846.2 689.11 Q1848.1 687.399 1848.1 684.465 Q1848.1 681.531 1846.2 679.819 Q1844.3 678.108 1841.05 678.108 Q1839.52 678.108 1838 678.446 Q1836.5 678.785 1834.92 679.5 L1834.92 665.394 Z" fill="#000000" fill-rule="evenodd" fill-opacity="1" /><path clip-path="url(#clip530)" d="M 0 0 M2240.8 716.949 L2248.44 716.949 L2248.44 690.583 L2240.13 692.25 L2240.13 687.991 L2248.39 686.324 L2253.07 686.324 L2253.07 716.949 L2260.7 716.949 L2260.7 720.884 L2240.8 720.884 L2240.8 716.949 Z" fill="#000000" fill-rule="evenodd" fill-opacity="1" /><path clip-path="url(#clip530)" d="M 0 0 M2280.15 689.403 Q2276.54 689.403 2274.71 692.968 Q2272.9 696.509 2272.9 703.639 Q2272.9 710.745 2274.71 714.31 Q2276.54 717.852 2280.15 717.852 Q2283.78 717.852 2285.59 714.31 Q2287.42 710.745 2287.42 703.639 Q2287.42 696.509 2285.59 692.968 Q2283.78 689.403 2280.15 689.403 M2280.15 685.699 Q2285.96 685.699 2289.01 690.306 Q2292.09 694.889 2292.09 703.639 Q2292.09 712.366 2289.01 716.972 Q2285.96 721.556 2280.15 721.556 Q2274.34 721.556 2271.26 716.972 Q2268.2 712.366 2268.2 703.639 Q2268.2 694.889 2271.26 690.306 Q2274.34 685.699 2280.15 685.699 Z" fill="#000000" fill-rule="evenodd" fill-opacity="1" /><path clip-path="url(#clip530)" d="M 0 0 M2292.64 690.277 L2298.85 690.277 L2298.85 668.854 L2292.09 670.209 L2292.09 666.748 L2298.81 665.394 L2302.61 665.394 L2302.61 690.277 L2308.81 690.277 L2308.81 693.474 L2292.64 693.474 L2292.64 690.277 Z" fill="#000000" fill-rule="evenodd" fill-opacity="1" /><path clip-path="url(#clip530)" d="M 0 0 M2316.49 688.697 L2320.46 688.697 L2320.46 693.474 L2316.49 693.474 L2316.49 688.697 Z" fill="#000000" fill-rule="evenodd" fill-opacity="1" /><path clip-path="url(#clip530)" d="M 0 0 M2336.86 667.895 Q2333.92 667.895 2332.44 670.792 Q2330.97 673.669 2330.97 679.462 Q2330.97 685.236 2332.44 688.132 Q2333.92 691.01 2336.86 691.01 Q2339.81 691.01 2341.28 688.132 Q2342.76 685.236 2342.76 679.462 Q2342.76 673.669 2341.28 670.792 Q2339.81 667.895 2336.86 667.895 M2336.86 664.886 Q2341.58 664.886 2344.06 668.629 Q2346.56 672.353 2346.56 679.462 Q2346.56 686.553 2344.06 690.295 Q2341.58 694.019 2336.86 694.019 Q2332.14 694.019 2329.63 690.295 Q2327.15 686.553 2327.15 679.462 Q2327.15 672.353 2329.63 668.629 Q2332.14 664.886 2336.86 664.886 Z" fill="#000000" fill-rule="evenodd" fill-opacity="1" /><path clip-path="url(#clip530)" d="M 0 0 M1321.8 746.315 Q1321.8 749.31 1320.29 755.107 Q1319.68 757.619 1318.84 759.906 Q1318.03 762.16 1316.84 764.35 Q1315.65 766.54 1314.27 768.118 Q1312.88 769.664 1311.08 770.63 Q1309.27 771.597 1307.28 771.597 Q1304.12 771.597 1302.25 769.729 Q1300.42 767.829 1299.84 764.576 Q1295.52 771.597 1289.76 771.597 Q1286.18 771.597 1284.51 769.052 Q1282.83 766.476 1282.83 762.16 Q1282.83 758.521 1283.8 754.753 Q1285.63 747.603 1289.21 742.611 Q1289.69 742.032 1290.4 742.032 Q1290.82 742.032 1291.01 742.16 Q1291.59 742.515 1291.59 743.094 Q1291.59 743.513 1291.27 743.932 Q1289.02 747.056 1287.53 749.729 Q1286.05 752.402 1285.38 755.107 Q1284.86 757.426 1284.86 759.391 Q1284.86 762.708 1286.28 764.769 Q1287.73 766.83 1290.59 766.83 Q1293.24 766.83 1295.55 765.188 Q1297.87 763.513 1299.58 760.711 Q1299.68 757.652 1300.42 754.753 Q1301.09 751.661 1302.67 751.661 Q1303.93 751.661 1303.93 753.368 Q1303.93 753.948 1303.67 755.107 Q1302.96 758.167 1301.67 760.904 Q1302.12 763.577 1303.8 765.22 Q1305.47 766.83 1308.15 766.83 Q1310.63 766.83 1312.82 765.027 Q1315.04 763.223 1316.46 760.582 Q1317.9 757.909 1318.71 754.753 Q1318.97 753.69 1318.97 752.338 Q1318.97 748.73 1316.46 746.508 Q1315.75 745.8 1315.75 744.866 Q1315.75 743.771 1316.65 742.772 Q1317.71 741.71 1318.97 741.71 Q1319.9 741.71 1320.48 742.289 Q1321.8 743.449 1321.8 746.315 Z" fill="#000000" fill-rule="evenodd" fill-opacity="1" /><polyline clip-path="url(#clip532)" style="stroke:#000000; stroke-width:2; stroke-opacity:0.1; fill:none" points="
  253.516,609.823 2352.76,609.823 
  "/>
<polyline clip-path="url(#clip532)" style="stroke:#000000; stroke-width:2; stroke-opacity:0.1; fill:none" points="
  253.516,473.043 2352.76,473.043 
  "/>
<polyline clip-path="url(#clip532)" style="stroke:#000000; stroke-width:2; stroke-opacity:0.1; fill:none" points="
  253.516,336.262 2352.76,336.262 
  "/>
<polyline clip-path="url(#clip532)" style="stroke:#000000; stroke-width:2; stroke-opacity:0.1; fill:none" points="
  253.516,199.481 2352.76,199.481 
  "/>
<polyline clip-path="url(#clip532)" style="stroke:#000000; stroke-width:2; stroke-opacity:0.1; fill:none" points="
  253.516,62.7005 2352.76,62.7005 
  "/>
<polyline clip-path="url(#clip530)" style="stroke:#000000; stroke-width:4; stroke-opacity:1; fill:none" points="
  253.516,638.677 253.516,47.2441 
  "/>
<polyline clip-path="url(#clip530)" style="stroke:#000000; stroke-width:4; stroke-opacity:1; fill:none" points="
  253.516,609.823 278.707,609.823 
  "/>
<polyline clip-path="url(#clip530)" style="stroke:#000000; stroke-width:4; stroke-opacity:1; fill:none" points="
  253.516,473.043 278.707,473.043 
  "/>
<polyline clip-path="url(#clip530)" style="stroke:#000000; stroke-width:4; stroke-opacity:1; fill:none" points="
  253.516,336.262 278.707,336.262 
  "/>
<polyline clip-path="url(#clip530)" style="stroke:#000000; stroke-width:4; stroke-opacity:1; fill:none" points="
  253.516,199.481 278.707,199.481 
  "/>
<polyline clip-path="url(#clip530)" style="stroke:#000000; stroke-width:4; stroke-opacity:1; fill:none" points="
  253.516,62.7005 278.707,62.7005 
  "/>
<polyline clip-path="url(#clip530)" style="stroke:#000000; stroke-width:4; stroke-opacity:1; fill:none" points="
  253.516,636.334 266.112,636.334 
  "/>
<polyline clip-path="url(#clip530)" style="stroke:#000000; stroke-width:4; stroke-opacity:1; fill:none" points="
  253.516,621.612 266.112,621.612 
  "/>
<polyline clip-path="url(#clip530)" style="stroke:#000000; stroke-width:4; stroke-opacity:1; fill:none" points="
  253.516,548.661 266.112,548.661 
  "/>
<polyline clip-path="url(#clip530)" style="stroke:#000000; stroke-width:4; stroke-opacity:1; fill:none" points="
  253.516,519.171 266.112,519.171 
  "/>
<polyline clip-path="url(#clip530)" style="stroke:#000000; stroke-width:4; stroke-opacity:1; fill:none" points="
  253.516,499.554 266.112,499.554 
  "/>
<polyline clip-path="url(#clip530)" style="stroke:#000000; stroke-width:4; stroke-opacity:1; fill:none" points="
  253.516,484.831 266.112,484.831 
  "/>
<polyline clip-path="url(#clip530)" style="stroke:#000000; stroke-width:4; stroke-opacity:1; fill:none" points="
  253.516,411.88 266.112,411.88 
  "/>
<polyline clip-path="url(#clip530)" style="stroke:#000000; stroke-width:4; stroke-opacity:1; fill:none" points="
  253.516,382.39 266.112,382.39 
  "/>
<polyline clip-path="url(#clip530)" style="stroke:#000000; stroke-width:4; stroke-opacity:1; fill:none" points="
  253.516,362.773 266.112,362.773 
  "/>
<polyline clip-path="url(#clip530)" style="stroke:#000000; stroke-width:4; stroke-opacity:1; fill:none" points="
  253.516,348.051 266.112,348.051 
  "/>
<polyline clip-path="url(#clip530)" style="stroke:#000000; stroke-width:4; stroke-opacity:1; fill:none" points="
  253.516,275.099 266.112,275.099 
  "/>
<polyline clip-path="url(#clip530)" style="stroke:#000000; stroke-width:4; stroke-opacity:1; fill:none" points="
  253.516,245.609 266.112,245.609 
  "/>
<polyline clip-path="url(#clip530)" style="stroke:#000000; stroke-width:4; stroke-opacity:1; fill:none" points="
  253.516,225.992 266.112,225.992 
  "/>
<polyline clip-path="url(#clip530)" style="stroke:#000000; stroke-width:4; stroke-opacity:1; fill:none" points="
  253.516,211.27 266.112,211.27 
  "/>
<polyline clip-path="url(#clip530)" style="stroke:#000000; stroke-width:4; stroke-opacity:1; fill:none" points="
  253.516,138.319 266.112,138.319 
  "/>
<polyline clip-path="url(#clip530)" style="stroke:#000000; stroke-width:4; stroke-opacity:1; fill:none" points="
  253.516,108.829 266.112,108.829 
  "/>
<polyline clip-path="url(#clip530)" style="stroke:#000000; stroke-width:4; stroke-opacity:1; fill:none" points="
  253.516,89.2114 266.112,89.2114 
  "/>
<polyline clip-path="url(#clip530)" style="stroke:#000000; stroke-width:4; stroke-opacity:1; fill:none" points="
  253.516,74.4891 266.112,74.4891 
  "/>
<path clip-path="url(#clip530)" d="M 0 0 M116.605 629.616 L124.244 629.616 L124.244 603.25 L115.934 604.917 L115.934 600.658 L124.198 598.991 L128.874 598.991 L128.874 629.616 L136.513 629.616 L136.513 633.551 L116.605 633.551 L116.605 629.616 Z" fill="#000000" fill-rule="evenodd" fill-opacity="1" /><path clip-path="url(#clip530)" d="M 0 0 M155.957 602.07 Q152.346 602.07 150.517 605.635 Q148.712 609.176 148.712 616.306 Q148.712 623.412 150.517 626.977 Q152.346 630.519 155.957 630.519 Q159.591 630.519 161.397 626.977 Q163.225 623.412 163.225 616.306 Q163.225 609.176 161.397 605.635 Q159.591 602.07 155.957 602.07 M155.957 598.366 Q161.767 598.366 164.823 602.973 Q167.901 607.556 167.901 616.306 Q167.901 625.033 164.823 629.639 Q161.767 634.222 155.957 634.222 Q150.147 634.222 147.068 629.639 Q144.012 625.033 144.012 616.306 Q144.012 607.556 147.068 602.973 Q150.147 598.366 155.957 598.366 Z" fill="#000000" fill-rule="evenodd" fill-opacity="1" /><path clip-path="url(#clip530)" d="M 0 0 M167.901 592.467 L192.013 592.467 L192.013 595.665 L167.901 595.665 L167.901 592.467 Z" fill="#000000" fill-rule="evenodd" fill-opacity="1" /><path clip-path="url(#clip530)" d="M 0 0 M211.723 591 Q214.45 591.583 215.974 593.427 Q217.516 595.27 217.516 597.978 Q217.516 602.135 214.657 604.41 Q211.799 606.686 206.532 606.686 Q204.764 606.686 202.884 606.329 Q201.022 605.99 199.028 605.294 L199.028 601.627 Q200.608 602.548 202.489 603.019 Q204.369 603.489 206.42 603.489 Q209.993 603.489 211.855 602.078 Q213.736 600.668 213.736 597.978 Q213.736 595.495 211.987 594.104 Q210.256 592.693 207.153 592.693 L203.88 592.693 L203.88 589.571 L207.304 589.571 Q210.106 589.571 211.592 588.461 Q213.077 587.333 213.077 585.226 Q213.077 583.064 211.535 581.916 Q210.012 580.75 207.153 580.75 Q205.592 580.75 203.805 581.089 Q202.019 581.427 199.874 582.142 L199.874 578.757 Q202.037 578.155 203.918 577.854 Q205.818 577.553 207.492 577.553 Q211.817 577.553 214.338 579.528 Q216.858 581.484 216.858 584.831 Q216.858 587.164 215.523 588.781 Q214.187 590.38 211.723 591 Z" fill="#000000" fill-rule="evenodd" fill-opacity="1" /><path clip-path="url(#clip530)" d="M 0 0 M117.376 492.835 L125.015 492.835 L125.015 466.47 L116.705 468.136 L116.705 463.877 L124.969 462.21 L129.645 462.21 L129.645 492.835 L137.284 492.835 L137.284 496.77 L117.376 496.77 L117.376 492.835 Z" fill="#000000" fill-rule="evenodd" fill-opacity="1" /><path clip-path="url(#clip530)" d="M 0 0 M156.728 465.289 Q153.117 465.289 151.288 468.854 Q149.483 472.395 149.483 479.525 Q149.483 486.631 151.288 490.196 Q153.117 493.738 156.728 493.738 Q160.362 493.738 162.168 490.196 Q163.996 486.631 163.996 479.525 Q163.996 472.395 162.168 468.854 Q160.362 465.289 156.728 465.289 M156.728 461.585 Q162.538 461.585 165.594 466.192 Q168.672 470.775 168.672 479.525 Q168.672 488.252 165.594 492.858 Q162.538 497.442 156.728 497.442 Q150.918 497.442 147.839 492.858 Q144.784 488.252 144.784 479.525 Q144.784 470.775 147.839 466.192 Q150.918 461.585 156.728 461.585 Z" fill="#000000" fill-rule="evenodd" fill-opacity="1" /><path clip-path="url(#clip530)" d="M 0 0 M168.672 455.687 L192.784 455.687 L192.784 458.884 L168.672 458.884 L168.672 455.687 Z" fill="#000000" fill-rule="evenodd" fill-opacity="1" /><path clip-path="url(#clip530)" d="M 0 0 M204.257 466.163 L217.516 466.163 L217.516 469.36 L199.686 469.36 L199.686 466.163 Q201.849 463.924 205.573 460.163 Q209.316 456.383 210.275 455.292 Q212.099 453.242 212.814 451.831 Q213.548 450.402 213.548 449.029 Q213.548 446.791 211.968 445.38 Q210.407 443.969 207.887 443.969 Q206.1 443.969 204.106 444.59 Q202.131 445.211 199.874 446.471 L199.874 442.634 Q202.169 441.713 204.163 441.242 Q206.156 440.772 207.811 440.772 Q212.175 440.772 214.77 442.954 Q217.366 445.136 217.366 448.784 Q217.366 450.515 216.707 452.076 Q216.068 453.618 214.356 455.724 Q213.886 456.27 211.366 458.884 Q208.846 461.479 204.257 466.163 Z" fill="#000000" fill-rule="evenodd" fill-opacity="1" /><path clip-path="url(#clip530)" d="M 0 0 M117.075 356.054 L124.714 356.054 L124.714 329.689 L116.404 331.355 L116.404 327.096 L124.668 325.43 L129.344 325.43 L129.344 356.054 L136.983 356.054 L136.983 359.99 L117.075 359.99 L117.075 356.054 Z" fill="#000000" fill-rule="evenodd" fill-opacity="1" /><path clip-path="url(#clip530)" d="M 0 0 M156.427 328.508 Q152.816 328.508 150.987 332.073 Q149.182 335.615 149.182 342.744 Q149.182 349.851 150.987 353.416 Q152.816 356.957 156.427 356.957 Q160.061 356.957 161.867 353.416 Q163.696 349.851 163.696 342.744 Q163.696 335.615 161.867 332.073 Q160.061 328.508 156.427 328.508 M156.427 324.805 Q162.237 324.805 165.293 329.411 Q168.371 333.994 168.371 342.744 Q168.371 351.471 165.293 356.078 Q162.237 360.661 156.427 360.661 Q150.617 360.661 147.538 356.078 Q144.483 351.471 144.483 342.744 Q144.483 333.994 147.538 329.411 Q150.617 324.805 156.427 324.805 Z" fill="#000000" fill-rule="evenodd" fill-opacity="1" /><path clip-path="url(#clip530)" d="M 0 0 M168.371 318.906 L192.483 318.906 L192.483 322.103 L168.371 322.103 L168.371 318.906 Z" fill="#000000" fill-rule="evenodd" fill-opacity="1" /><path clip-path="url(#clip530)" d="M 0 0 M201.341 329.382 L207.548 329.382 L207.548 307.96 L200.796 309.314 L200.796 305.853 L207.51 304.499 L211.31 304.499 L211.31 329.382 L217.516 329.382 L217.516 332.579 L201.341 332.579 L201.341 329.382 Z" fill="#000000" fill-rule="evenodd" fill-opacity="1" /><path clip-path="url(#clip530)" d="M 0 0 M146.81 219.274 L154.449 219.274 L154.449 192.908 L146.139 194.575 L146.139 190.316 L154.403 188.649 L159.079 188.649 L159.079 219.274 L166.718 219.274 L166.718 223.209 L146.81 223.209 L146.81 219.274 Z" fill="#000000" fill-rule="evenodd" fill-opacity="1" /><path clip-path="url(#clip530)" d="M 0 0 M186.162 191.728 Q182.551 191.728 180.722 195.292 Q178.917 198.834 178.917 205.964 Q178.917 213.07 180.722 216.635 Q182.551 220.176 186.162 220.176 Q189.796 220.176 191.602 216.635 Q193.431 213.07 193.431 205.964 Q193.431 198.834 191.602 195.292 Q189.796 191.728 186.162 191.728 M186.162 188.024 Q191.972 188.024 195.028 192.63 Q198.107 197.214 198.107 205.964 Q198.107 214.69 195.028 219.297 Q191.972 223.88 186.162 223.88 Q180.352 223.88 177.273 219.297 Q174.218 214.69 174.218 205.964 Q174.218 197.214 177.273 192.63 Q180.352 188.024 186.162 188.024 Z" fill="#000000" fill-rule="evenodd" fill-opacity="1" /><path clip-path="url(#clip530)" d="M 0 0 M207.811 170.22 Q204.877 170.22 203.391 173.116 Q201.924 175.994 201.924 181.787 Q201.924 187.561 203.391 190.457 Q204.877 193.335 207.811 193.335 Q210.764 193.335 212.231 190.457 Q213.717 187.561 213.717 181.787 Q213.717 175.994 212.231 173.116 Q210.764 170.22 207.811 170.22 M207.811 167.211 Q212.532 167.211 215.015 170.953 Q217.516 174.677 217.516 181.787 Q217.516 188.877 215.015 192.62 Q212.532 196.344 207.811 196.344 Q203.091 196.344 200.589 192.62 Q198.107 188.877 198.107 181.787 Q198.107 174.677 200.589 170.953 Q203.091 167.211 207.811 167.211 Z" fill="#000000" fill-rule="evenodd" fill-opacity="1" /><path clip-path="url(#clip530)" d="M 0 0 M149.5 82.4929 L157.139 82.4929 L157.139 56.1273 L148.829 57.794 L148.829 53.5348 L157.093 51.8681 L161.768 51.8681 L161.768 82.4929 L169.407 82.4929 L169.407 86.4281 L149.5 86.4281 L149.5 82.4929 Z" fill="#000000" fill-rule="evenodd" fill-opacity="1" /><path clip-path="url(#clip530)" d="M 0 0 M188.852 54.9468 Q185.241 54.9468 183.412 58.5116 Q181.606 62.0532 181.606 69.1828 Q181.606 76.2893 183.412 79.8541 Q185.241 83.3957 188.852 83.3957 Q192.486 83.3957 194.291 79.8541 Q196.12 76.2893 196.12 69.1828 Q196.12 62.0532 194.291 58.5116 Q192.486 54.9468 188.852 54.9468 M188.852 51.2431 Q194.662 51.2431 197.717 55.8496 Q200.796 60.4329 200.796 69.1828 Q200.796 77.9096 197.717 82.5161 Q194.662 87.0994 188.852 87.0994 Q183.041 87.0994 179.963 82.5161 Q176.907 77.9096 176.907 69.1828 Q176.907 60.4329 179.963 55.8496 Q183.041 51.2431 188.852 51.2431 Z" fill="#000000" fill-rule="evenodd" fill-opacity="1" /><path clip-path="url(#clip530)" d="M 0 0 M201.341 55.8204 L207.548 55.8204 L207.548 34.3983 L200.796 35.7525 L200.796 32.2919 L207.51 30.9377 L211.31 30.9377 L211.31 55.8204 L217.516 55.8204 L217.516 59.0177 L201.341 59.0177 L201.341 55.8204 Z" fill="#000000" fill-rule="evenodd" fill-opacity="1" /><path clip-path="url(#clip530)" d="M 0 0 M43.3979 360.578 Q44.0982 358.509 46.3898 356.567 Q48.6815 354.594 52.6919 352.621 L65.6779 346.096 L65.6779 353.002 L53.4876 359.082 Q48.7133 361.437 47.1537 363.665 Q45.5941 365.861 45.5941 369.681 L45.5941 376.683 L65.6779 376.683 L65.6779 383.112 L18.1579 383.112 L18.1579 368.598 Q18.1579 360.45 21.5636 356.44 Q24.9692 352.43 31.8442 352.43 Q36.332 352.43 39.2921 354.53 Q42.2521 356.599 43.3979 360.578 M23.4415 376.683 L40.3106 376.683 L40.3106 368.598 Q40.3106 363.951 38.1781 361.596 Q36.0137 359.209 31.8442 359.209 Q27.6746 359.209 25.574 361.596 Q23.4415 363.951 23.4415 368.598 L23.4415 376.683 Z" fill="#000000" fill-rule="evenodd" fill-opacity="1" /><path clip-path="url(#clip530)" d="M 0 0 M24.4918 324.58 L48.1404 333.301 L48.1404 315.827 L24.4918 324.58 M18.1579 328.208 L18.1579 320.919 L65.6779 302.809 L65.6779 309.493 L53.4876 313.822 L53.4876 335.242 L65.6779 339.571 L65.6779 346.35 L18.1579 328.208 Z" fill="#000000" fill-rule="evenodd" fill-opacity="1" /><polyline clip-path="url(#clip532)" style="stroke:#009af9; stroke-width:8; stroke-opacity:1; fill:none" points="
  312.929,63.9828 332.269,66.7696 511.099,93.1103 618.568,109.629 709.432,124.128 808.135,140.462 899.131,155.941 996.688,172.612 1109.72,191.1 1210.17,205.65 
  1298.25,216.564 1346.27,222.495 1394.28,229.965 1442.59,241.275 1490.89,258.033 1597.7,308.432 1699.32,359.34 1804.99,409.746 1893.94,450.283 2002.54,498.164 
  2104.63,542.132 2268.17,611.367 2293.34,621.938 
  "/>
<path clip-path="url(#clip530)" d="
M253.516 1438.68 L2352.76 1438.68 L2352.76 847.244 L253.516 847.244  Z
  " fill="#ffffff" fill-rule="evenodd" fill-opacity="1"/>
<defs>
  <clipPath id="clip533">
    <rect x="253" y="847" width="2100" height="592"/>
  </clipPath>
</defs>
<polyline clip-path="url(#clip533)" style="stroke:#000000; stroke-width:2; stroke-opacity:0.1; fill:none" points="
  312.929,1438.68 312.929,847.244 
  "/>
<polyline clip-path="url(#clip533)" style="stroke:#000000; stroke-width:2; stroke-opacity:0.1; fill:none" points="
  808.032,1438.68 808.032,847.244 
  "/>
<polyline clip-path="url(#clip533)" style="stroke:#000000; stroke-width:2; stroke-opacity:0.1; fill:none" points="
  1303.14,1438.68 1303.14,847.244 
  "/>
<polyline clip-path="url(#clip533)" style="stroke:#000000; stroke-width:2; stroke-opacity:0.1; fill:none" points="
  1798.24,1438.68 1798.24,847.244 
  "/>
<polyline clip-path="url(#clip533)" style="stroke:#000000; stroke-width:2; stroke-opacity:0.1; fill:none" points="
  2293.34,1438.68 2293.34,847.244 
  "/>
<polyline clip-path="url(#clip530)" style="stroke:#000000; stroke-width:4; stroke-opacity:1; fill:none" points="
  253.516,1438.68 2352.76,1438.68 
  "/>
<polyline clip-path="url(#clip530)" style="stroke:#000000; stroke-width:4; stroke-opacity:1; fill:none" points="
  312.929,1438.68 312.929,1431.58 
  "/>
<polyline clip-path="url(#clip530)" style="stroke:#000000; stroke-width:4; stroke-opacity:1; fill:none" points="
  808.032,1438.68 808.032,1431.58 
  "/>
<polyline clip-path="url(#clip530)" style="stroke:#000000; stroke-width:4; stroke-opacity:1; fill:none" points="
  1303.14,1438.68 1303.14,1431.58 
  "/>
<polyline clip-path="url(#clip530)" style="stroke:#000000; stroke-width:4; stroke-opacity:1; fill:none" points="
  1798.24,1438.68 1798.24,1431.58 
  "/>
<polyline clip-path="url(#clip530)" style="stroke:#000000; stroke-width:4; stroke-opacity:1; fill:none" points="
  2293.34,1438.68 2293.34,1431.58 
  "/>
<polyline clip-path="url(#clip530)" style="stroke:#000000; stroke-width:4; stroke-opacity:1; fill:none" points="
  467.481,1438.68 467.481,1435.13 
  "/>
<polyline clip-path="url(#clip530)" style="stroke:#000000; stroke-width:4; stroke-opacity:1; fill:none" points="
  580.936,1438.68 580.936,1435.13 
  "/>
<polyline clip-path="url(#clip530)" style="stroke:#000000; stroke-width:4; stroke-opacity:1; fill:none" points="
  670.622,1438.68 670.622,1435.13 
  "/>
<polyline clip-path="url(#clip530)" style="stroke:#000000; stroke-width:4; stroke-opacity:1; fill:none" points="
  744.792,1438.68 744.792,1435.13 
  "/>
<polyline clip-path="url(#clip530)" style="stroke:#000000; stroke-width:4; stroke-opacity:1; fill:none" points="
  962.585,1438.68 962.585,1435.13 
  "/>
<polyline clip-path="url(#clip530)" style="stroke:#000000; stroke-width:4; stroke-opacity:1; fill:none" points="
  1076.04,1438.68 1076.04,1435.13 
  "/>
<polyline clip-path="url(#clip530)" style="stroke:#000000; stroke-width:4; stroke-opacity:1; fill:none" points="
  1165.73,1438.68 1165.73,1435.13 
  "/>
<polyline clip-path="url(#clip530)" style="stroke:#000000; stroke-width:4; stroke-opacity:1; fill:none" points="
  1239.9,1438.68 1239.9,1435.13 
  "/>
<polyline clip-path="url(#clip530)" style="stroke:#000000; stroke-width:4; stroke-opacity:1; fill:none" points="
  1457.69,1438.68 1457.69,1435.13 
  "/>
<polyline clip-path="url(#clip530)" style="stroke:#000000; stroke-width:4; stroke-opacity:1; fill:none" points="
  1571.14,1438.68 1571.14,1435.13 
  "/>
<polyline clip-path="url(#clip530)" style="stroke:#000000; stroke-width:4; stroke-opacity:1; fill:none" points="
  1660.83,1438.68 1660.83,1435.13 
  "/>
<polyline clip-path="url(#clip530)" style="stroke:#000000; stroke-width:4; stroke-opacity:1; fill:none" points="
  1735,1438.68 1735,1435.13 
  "/>
<polyline clip-path="url(#clip530)" style="stroke:#000000; stroke-width:4; stroke-opacity:1; fill:none" points="
  1952.79,1438.68 1952.79,1435.13 
  "/>
<polyline clip-path="url(#clip530)" style="stroke:#000000; stroke-width:4; stroke-opacity:1; fill:none" points="
  2066.25,1438.68 2066.25,1435.13 
  "/>
<polyline clip-path="url(#clip530)" style="stroke:#000000; stroke-width:4; stroke-opacity:1; fill:none" points="
  2155.93,1438.68 2155.93,1435.13 
  "/>
<polyline clip-path="url(#clip530)" style="stroke:#000000; stroke-width:4; stroke-opacity:1; fill:none" points="
  2230.1,1438.68 2230.1,1435.13 
  "/>
<path clip-path="url(#clip530)" d="M 0 0 M244.17 1516.95 L251.809 1516.95 L251.809 1490.58 L243.499 1492.25 L243.499 1487.99 L251.763 1486.32 L256.439 1486.32 L256.439 1516.95 L264.078 1516.95 L264.078 1520.88 L244.17 1520.88 L244.17 1516.95 Z" fill="#000000" fill-rule="evenodd" fill-opacity="1" /><path clip-path="url(#clip530)" d="M 0 0 M283.522 1489.4 Q279.911 1489.4 278.082 1492.97 Q276.277 1496.51 276.277 1503.64 Q276.277 1510.75 278.082 1514.31 Q279.911 1517.85 283.522 1517.85 Q287.156 1517.85 288.962 1514.31 Q290.79 1510.75 290.79 1503.64 Q290.79 1496.51 288.962 1492.97 Q287.156 1489.4 283.522 1489.4 M283.522 1485.7 Q289.332 1485.7 292.388 1490.31 Q295.466 1494.89 295.466 1503.64 Q295.466 1512.37 292.388 1516.97 Q289.332 1521.56 283.522 1521.56 Q277.712 1521.56 274.633 1516.97 Q271.578 1512.37 271.578 1503.64 Q271.578 1494.89 274.633 1490.31 Q277.712 1485.7 283.522 1485.7 Z" fill="#000000" fill-rule="evenodd" fill-opacity="1" /><path clip-path="url(#clip530)" d="M 0 0 M295.466 1479.8 L319.578 1479.8 L319.578 1483 L295.466 1483 L295.466 1479.8 Z" fill="#000000" fill-rule="evenodd" fill-opacity="1" /><path clip-path="url(#clip530)" d="M 0 0 M328.436 1490.28 L334.643 1490.28 L334.643 1468.85 L327.891 1470.21 L327.891 1466.75 L334.605 1465.39 L338.404 1465.39 L338.404 1490.28 L344.611 1490.28 L344.611 1493.47 L328.436 1493.47 L328.436 1490.28 Z" fill="#000000" fill-rule="evenodd" fill-opacity="1" /><path clip-path="url(#clip530)" d="M 0 0 M352.285 1488.7 L356.253 1488.7 L356.253 1493.47 L352.285 1493.47 L352.285 1488.7 Z" fill="#000000" fill-rule="evenodd" fill-opacity="1" /><path clip-path="url(#clip530)" d="M 0 0 M372.653 1467.9 Q369.719 1467.9 368.234 1470.79 Q366.767 1473.67 366.767 1479.46 Q366.767 1485.24 368.234 1488.13 Q369.719 1491.01 372.653 1491.01 Q375.606 1491.01 377.073 1488.13 Q378.559 1485.24 378.559 1479.46 Q378.559 1473.67 377.073 1470.79 Q375.606 1467.9 372.653 1467.9 M372.653 1464.89 Q377.374 1464.89 379.857 1468.63 Q382.358 1472.35 382.358 1479.46 Q382.358 1486.55 379.857 1490.3 Q377.374 1494.02 372.653 1494.02 Q367.933 1494.02 365.431 1490.3 Q362.949 1486.55 362.949 1479.46 Q362.949 1472.35 365.431 1468.63 Q367.933 1464.89 372.653 1464.89 Z" fill="#000000" fill-rule="evenodd" fill-opacity="1" /><path clip-path="url(#clip530)" d="M 0 0 M739.678 1516.95 L747.317 1516.95 L747.317 1490.58 L739.007 1492.25 L739.007 1487.99 L747.271 1486.32 L751.947 1486.32 L751.947 1516.95 L759.586 1516.95 L759.586 1520.88 L739.678 1520.88 L739.678 1516.95 Z" fill="#000000" fill-rule="evenodd" fill-opacity="1" /><path clip-path="url(#clip530)" d="M 0 0 M779.03 1489.4 Q775.419 1489.4 773.59 1492.97 Q771.785 1496.51 771.785 1503.64 Q771.785 1510.75 773.59 1514.31 Q775.419 1517.85 779.03 1517.85 Q782.664 1517.85 784.47 1514.31 Q786.298 1510.75 786.298 1503.64 Q786.298 1496.51 784.47 1492.97 Q782.664 1489.4 779.03 1489.4 M779.03 1485.7 Q784.84 1485.7 787.896 1490.31 Q790.974 1494.89 790.974 1503.64 Q790.974 1512.37 787.896 1516.97 Q784.84 1521.56 779.03 1521.56 Q773.22 1521.56 770.141 1516.97 Q767.086 1512.37 767.086 1503.64 Q767.086 1494.89 770.141 1490.31 Q773.22 1485.7 779.03 1485.7 Z" fill="#000000" fill-rule="evenodd" fill-opacity="1" /><path clip-path="url(#clip530)" d="M 0 0 M790.974 1479.8 L815.086 1479.8 L815.086 1483 L790.974 1483 L790.974 1479.8 Z" fill="#000000" fill-rule="evenodd" fill-opacity="1" /><path clip-path="url(#clip530)" d="M 0 0 M831.411 1467.9 Q828.477 1467.9 826.991 1470.79 Q825.524 1473.67 825.524 1479.46 Q825.524 1485.24 826.991 1488.13 Q828.477 1491.01 831.411 1491.01 Q834.364 1491.01 835.831 1488.13 Q837.317 1485.24 837.317 1479.46 Q837.317 1473.67 835.831 1470.79 Q834.364 1467.9 831.411 1467.9 M831.411 1464.89 Q836.132 1464.89 838.614 1468.63 Q841.116 1472.35 841.116 1479.46 Q841.116 1486.55 838.614 1490.3 Q836.132 1494.02 831.411 1494.02 Q826.69 1494.02 824.189 1490.3 Q821.706 1486.55 821.706 1479.46 Q821.706 1472.35 824.189 1468.63 Q826.69 1464.89 831.411 1464.89 Z" fill="#000000" fill-rule="evenodd" fill-opacity="1" /><path clip-path="url(#clip530)" d="M 0 0 M847.793 1488.7 L851.761 1488.7 L851.761 1493.47 L847.793 1493.47 L847.793 1488.7 Z" fill="#000000" fill-rule="evenodd" fill-opacity="1" /><path clip-path="url(#clip530)" d="M 0 0 M860.074 1465.39 L874.989 1465.39 L874.989 1468.59 L863.554 1468.59 L863.554 1475.47 Q864.381 1475.19 865.209 1475.06 Q866.036 1474.91 866.864 1474.91 Q871.566 1474.91 874.312 1477.49 Q877.058 1480.06 877.058 1484.46 Q877.058 1489 874.236 1491.52 Q871.415 1494.02 866.281 1494.02 Q864.513 1494.02 862.67 1493.72 Q860.845 1493.42 858.889 1492.82 L858.889 1489 Q860.582 1489.92 862.387 1490.37 Q864.193 1490.82 866.205 1490.82 Q869.459 1490.82 871.359 1489.11 Q873.258 1487.4 873.258 1484.46 Q873.258 1481.53 871.359 1479.82 Q869.459 1478.11 866.205 1478.11 Q864.682 1478.11 863.159 1478.45 Q861.654 1478.78 860.074 1479.5 L860.074 1465.39 Z" fill="#000000" fill-rule="evenodd" fill-opacity="1" /><path clip-path="url(#clip530)" d="M 0 0 M1249.74 1516.95 L1257.38 1516.95 L1257.38 1490.58 L1249.07 1492.25 L1249.07 1487.99 L1257.34 1486.32 L1262.01 1486.32 L1262.01 1516.95 L1269.65 1516.95 L1269.65 1520.88 L1249.74 1520.88 L1249.74 1516.95 Z" fill="#000000" fill-rule="evenodd" fill-opacity="1" /><path clip-path="url(#clip530)" d="M 0 0 M1289.1 1489.4 Q1285.48 1489.4 1283.66 1492.97 Q1281.85 1496.51 1281.85 1503.64 Q1281.85 1510.75 1283.66 1514.31 Q1285.48 1517.85 1289.1 1517.85 Q1292.73 1517.85 1294.54 1514.31 Q1296.36 1510.75 1296.36 1503.64 Q1296.36 1496.51 1294.54 1492.97 Q1292.73 1489.4 1289.1 1489.4 M1289.1 1485.7 Q1294.91 1485.7 1297.96 1490.31 Q1301.04 1494.89 1301.04 1503.64 Q1301.04 1512.37 1297.96 1516.97 Q1294.91 1521.56 1289.1 1521.56 Q1283.29 1521.56 1280.21 1516.97 Q1277.15 1512.37 1277.15 1503.64 Q1277.15 1494.89 1280.21 1490.31 Q1283.29 1485.7 1289.1 1485.7 Z" fill="#000000" fill-rule="evenodd" fill-opacity="1" /><path clip-path="url(#clip530)" d="M 0 0 M1310.74 1467.9 Q1307.81 1467.9 1306.32 1470.79 Q1304.86 1473.67 1304.86 1479.46 Q1304.86 1485.24 1306.32 1488.13 Q1307.81 1491.01 1310.74 1491.01 Q1313.7 1491.01 1315.16 1488.13 Q1316.65 1485.24 1316.65 1479.46 Q1316.65 1473.67 1315.16 1470.79 Q1313.7 1467.9 1310.74 1467.9 M1310.74 1464.89 Q1315.47 1464.89 1317.95 1468.63 Q1320.45 1472.35 1320.45 1479.46 Q1320.45 1486.55 1317.95 1490.3 Q1315.47 1494.02 1310.74 1494.02 Q1306.02 1494.02 1303.52 1490.3 Q1301.04 1486.55 1301.04 1479.46 Q1301.04 1472.35 1303.52 1468.63 Q1306.02 1464.89 1310.74 1464.89 Z" fill="#000000" fill-rule="evenodd" fill-opacity="1" /><path clip-path="url(#clip530)" d="M 0 0 M1327.13 1488.7 L1331.09 1488.7 L1331.09 1493.47 L1327.13 1493.47 L1327.13 1488.7 Z" fill="#000000" fill-rule="evenodd" fill-opacity="1" /><path clip-path="url(#clip530)" d="M 0 0 M1347.49 1467.9 Q1344.56 1467.9 1343.08 1470.79 Q1341.61 1473.67 1341.61 1479.46 Q1341.61 1485.24 1343.08 1488.13 Q1344.56 1491.01 1347.49 1491.01 Q1350.45 1491.01 1351.91 1488.13 Q1353.4 1485.24 1353.4 1479.46 Q1353.4 1473.67 1351.91 1470.79 Q1350.45 1467.9 1347.49 1467.9 M1347.49 1464.89 Q1352.22 1464.89 1354.7 1468.63 Q1357.2 1472.35 1357.2 1479.46 Q1357.2 1486.55 1354.7 1490.3 Q1352.22 1494.02 1347.49 1494.02 Q1342.77 1494.02 1340.27 1490.3 Q1337.79 1486.55 1337.79 1479.46 Q1337.79 1472.35 1340.27 1468.63 Q1342.77 1464.89 1347.49 1464.89 Z" fill="#000000" fill-rule="evenodd" fill-opacity="1" /><path clip-path="url(#clip530)" d="M 0 0 M1745.25 1516.95 L1752.89 1516.95 L1752.89 1490.58 L1744.58 1492.25 L1744.58 1487.99 L1752.84 1486.32 L1757.52 1486.32 L1757.52 1516.95 L1765.16 1516.95 L1765.16 1520.88 L1745.25 1520.88 L1745.25 1516.95 Z" fill="#000000" fill-rule="evenodd" fill-opacity="1" /><path clip-path="url(#clip530)" d="M 0 0 M1784.6 1489.4 Q1780.99 1489.4 1779.16 1492.97 Q1777.36 1496.51 1777.36 1503.64 Q1777.36 1510.75 1779.16 1514.31 Q1780.99 1517.85 1784.6 1517.85 Q1788.24 1517.85 1790.04 1514.31 Q1791.87 1510.75 1791.87 1503.64 Q1791.87 1496.51 1790.04 1492.97 Q1788.24 1489.4 1784.6 1489.4 M1784.6 1485.7 Q1790.41 1485.7 1793.47 1490.31 Q1796.55 1494.89 1796.55 1503.64 Q1796.55 1512.37 1793.47 1516.97 Q1790.41 1521.56 1784.6 1521.56 Q1778.79 1521.56 1775.71 1516.97 Q1772.66 1512.37 1772.66 1503.64 Q1772.66 1494.89 1775.71 1490.31 Q1778.79 1485.7 1784.6 1485.7 Z" fill="#000000" fill-rule="evenodd" fill-opacity="1" /><path clip-path="url(#clip530)" d="M 0 0 M1806.25 1467.9 Q1803.32 1467.9 1801.83 1470.79 Q1800.37 1473.67 1800.37 1479.46 Q1800.37 1485.24 1801.83 1488.13 Q1803.32 1491.01 1806.25 1491.01 Q1809.21 1491.01 1810.67 1488.13 Q1812.16 1485.24 1812.16 1479.46 Q1812.16 1473.67 1810.67 1470.79 Q1809.21 1467.9 1806.25 1467.9 M1806.25 1464.89 Q1810.97 1464.89 1813.46 1468.63 Q1815.96 1472.35 1815.96 1479.46 Q1815.96 1486.55 1813.46 1490.3 Q1810.97 1494.02 1806.25 1494.02 Q1801.53 1494.02 1799.03 1490.3 Q1796.55 1486.55 1796.55 1479.46 Q1796.55 1472.35 1799.03 1468.63 Q1801.53 1464.89 1806.25 1464.89 Z" fill="#000000" fill-rule="evenodd" fill-opacity="1" /><path clip-path="url(#clip530)" d="M 0 0 M1822.63 1488.7 L1826.6 1488.7 L1826.6 1493.47 L1822.63 1493.47 L1822.63 1488.7 Z" fill="#000000" fill-rule="evenodd" fill-opacity="1" /><path clip-path="url(#clip530)" d="M 0 0 M1834.92 1465.39 L1849.83 1465.39 L1849.83 1468.59 L1838.4 1468.59 L1838.4 1475.47 Q1839.22 1475.19 1840.05 1475.06 Q1840.88 1474.91 1841.71 1474.91 Q1846.41 1474.91 1849.15 1477.49 Q1851.9 1480.06 1851.9 1484.46 Q1851.9 1489 1849.08 1491.52 Q1846.26 1494.02 1841.12 1494.02 Q1839.35 1494.02 1837.51 1493.72 Q1835.69 1493.42 1833.73 1492.82 L1833.73 1489 Q1835.42 1489.92 1837.23 1490.37 Q1839.03 1490.82 1841.05 1490.82 Q1844.3 1490.82 1846.2 1489.11 Q1848.1 1487.4 1848.1 1484.46 Q1848.1 1481.53 1846.2 1479.82 Q1844.3 1478.11 1841.05 1478.11 Q1839.52 1478.11 1838 1478.45 Q1836.5 1478.78 1834.92 1479.5 L1834.92 1465.39 Z" fill="#000000" fill-rule="evenodd" fill-opacity="1" /><path clip-path="url(#clip530)" d="M 0 0 M2240.8 1516.95 L2248.44 1516.95 L2248.44 1490.58 L2240.13 1492.25 L2240.13 1487.99 L2248.39 1486.32 L2253.07 1486.32 L2253.07 1516.95 L2260.7 1516.95 L2260.7 1520.88 L2240.8 1520.88 L2240.8 1516.95 Z" fill="#000000" fill-rule="evenodd" fill-opacity="1" /><path clip-path="url(#clip530)" d="M 0 0 M2280.15 1489.4 Q2276.54 1489.4 2274.71 1492.97 Q2272.9 1496.51 2272.9 1503.64 Q2272.9 1510.75 2274.71 1514.31 Q2276.54 1517.85 2280.15 1517.85 Q2283.78 1517.85 2285.59 1514.31 Q2287.42 1510.75 2287.42 1503.64 Q2287.42 1496.51 2285.59 1492.97 Q2283.78 1489.4 2280.15 1489.4 M2280.15 1485.7 Q2285.96 1485.7 2289.01 1490.31 Q2292.09 1494.89 2292.09 1503.64 Q2292.09 1512.37 2289.01 1516.97 Q2285.96 1521.56 2280.15 1521.56 Q2274.34 1521.56 2271.26 1516.97 Q2268.2 1512.37 2268.2 1503.64 Q2268.2 1494.89 2271.26 1490.31 Q2274.34 1485.7 2280.15 1485.7 Z" fill="#000000" fill-rule="evenodd" fill-opacity="1" /><path clip-path="url(#clip530)" d="M 0 0 M2292.64 1490.28 L2298.85 1490.28 L2298.85 1468.85 L2292.09 1470.21 L2292.09 1466.75 L2298.81 1465.39 L2302.61 1465.39 L2302.61 1490.28 L2308.81 1490.28 L2308.81 1493.47 L2292.64 1493.47 L2292.64 1490.28 Z" fill="#000000" fill-rule="evenodd" fill-opacity="1" /><path clip-path="url(#clip530)" d="M 0 0 M2316.49 1488.7 L2320.46 1488.7 L2320.46 1493.47 L2316.49 1493.47 L2316.49 1488.7 Z" fill="#000000" fill-rule="evenodd" fill-opacity="1" /><path clip-path="url(#clip530)" d="M 0 0 M2336.86 1467.9 Q2333.92 1467.9 2332.44 1470.79 Q2330.97 1473.67 2330.97 1479.46 Q2330.97 1485.24 2332.44 1488.13 Q2333.92 1491.01 2336.86 1491.01 Q2339.81 1491.01 2341.28 1488.13 Q2342.76 1485.24 2342.76 1479.46 Q2342.76 1473.67 2341.28 1470.79 Q2339.81 1467.9 2336.86 1467.9 M2336.86 1464.89 Q2341.58 1464.89 2344.06 1468.63 Q2346.56 1472.35 2346.56 1479.46 Q2346.56 1486.55 2344.06 1490.3 Q2341.58 1494.02 2336.86 1494.02 Q2332.14 1494.02 2329.63 1490.3 Q2327.15 1486.55 2327.15 1479.46 Q2327.15 1472.35 2329.63 1468.63 Q2332.14 1464.89 2336.86 1464.89 Z" fill="#000000" fill-rule="evenodd" fill-opacity="1" /><path clip-path="url(#clip530)" d="M 0 0 M1321.8 1546.32 Q1321.8 1549.31 1320.29 1555.11 Q1319.68 1557.62 1318.84 1559.91 Q1318.03 1562.16 1316.84 1564.35 Q1315.65 1566.54 1314.27 1568.12 Q1312.88 1569.66 1311.08 1570.63 Q1309.27 1571.6 1307.28 1571.6 Q1304.12 1571.6 1302.25 1569.73 Q1300.42 1567.83 1299.84 1564.58 Q1295.52 1571.6 1289.76 1571.6 Q1286.18 1571.6 1284.51 1569.05 Q1282.83 1566.48 1282.83 1562.16 Q1282.83 1558.52 1283.8 1554.75 Q1285.63 1547.6 1289.21 1542.61 Q1289.69 1542.03 1290.4 1542.03 Q1290.82 1542.03 1291.01 1542.16 Q1291.59 1542.51 1291.59 1543.09 Q1291.59 1543.51 1291.27 1543.93 Q1289.02 1547.06 1287.53 1549.73 Q1286.05 1552.4 1285.38 1555.11 Q1284.86 1557.43 1284.86 1559.39 Q1284.86 1562.71 1286.28 1564.77 Q1287.73 1566.83 1290.59 1566.83 Q1293.24 1566.83 1295.55 1565.19 Q1297.87 1563.51 1299.58 1560.71 Q1299.68 1557.65 1300.42 1554.75 Q1301.09 1551.66 1302.67 1551.66 Q1303.93 1551.66 1303.93 1553.37 Q1303.93 1553.95 1303.67 1555.11 Q1302.96 1558.17 1301.67 1560.9 Q1302.12 1563.58 1303.8 1565.22 Q1305.47 1566.83 1308.15 1566.83 Q1310.63 1566.83 1312.82 1565.03 Q1315.04 1563.22 1316.46 1560.58 Q1317.9 1557.91 1318.71 1554.75 Q1318.97 1553.69 1318.97 1552.34 Q1318.97 1548.73 1316.46 1546.51 Q1315.75 1545.8 1315.75 1544.87 Q1315.75 1543.77 1316.65 1542.77 Q1317.71 1541.71 1318.97 1541.71 Q1319.9 1541.71 1320.48 1542.29 Q1321.8 1543.45 1321.8 1546.32 Z" fill="#000000" fill-rule="evenodd" fill-opacity="1" /><polyline clip-path="url(#clip533)" style="stroke:#000000; stroke-width:2; stroke-opacity:0.1; fill:none" points="
  253.516,1375.62 2352.76,1375.62 
  "/>
<polyline clip-path="url(#clip533)" style="stroke:#000000; stroke-width:2; stroke-opacity:0.1; fill:none" points="
  253.516,1298.09 2352.76,1298.09 
  "/>
<polyline clip-path="url(#clip533)" style="stroke:#000000; stroke-width:2; stroke-opacity:0.1; fill:none" points="
  253.516,1220.57 2352.76,1220.57 
  "/>
<polyline clip-path="url(#clip533)" style="stroke:#000000; stroke-width:2; stroke-opacity:0.1; fill:none" points="
  253.516,1143.04 2352.76,1143.04 
  "/>
<polyline clip-path="url(#clip533)" style="stroke:#000000; stroke-width:2; stroke-opacity:0.1; fill:none" points="
  253.516,1065.52 2352.76,1065.52 
  "/>
<polyline clip-path="url(#clip533)" style="stroke:#000000; stroke-width:2; stroke-opacity:0.1; fill:none" points="
  253.516,987.997 2352.76,987.997 
  "/>
<polyline clip-path="url(#clip533)" style="stroke:#000000; stroke-width:2; stroke-opacity:0.1; fill:none" points="
  253.516,910.473 2352.76,910.473 
  "/>
<polyline clip-path="url(#clip530)" style="stroke:#000000; stroke-width:4; stroke-opacity:1; fill:none" points="
  253.516,1438.68 253.516,847.244 
  "/>
<polyline clip-path="url(#clip530)" style="stroke:#000000; stroke-width:4; stroke-opacity:1; fill:none" points="
  253.516,1375.62 278.707,1375.62 
  "/>
<polyline clip-path="url(#clip530)" style="stroke:#000000; stroke-width:4; stroke-opacity:1; fill:none" points="
  253.516,1298.09 278.707,1298.09 
  "/>
<polyline clip-path="url(#clip530)" style="stroke:#000000; stroke-width:4; stroke-opacity:1; fill:none" points="
  253.516,1220.57 278.707,1220.57 
  "/>
<polyline clip-path="url(#clip530)" style="stroke:#000000; stroke-width:4; stroke-opacity:1; fill:none" points="
  253.516,1143.04 278.707,1143.04 
  "/>
<polyline clip-path="url(#clip530)" style="stroke:#000000; stroke-width:4; stroke-opacity:1; fill:none" points="
  253.516,1065.52 278.707,1065.52 
  "/>
<polyline clip-path="url(#clip530)" style="stroke:#000000; stroke-width:4; stroke-opacity:1; fill:none" points="
  253.516,987.997 278.707,987.997 
  "/>
<polyline clip-path="url(#clip530)" style="stroke:#000000; stroke-width:4; stroke-opacity:1; fill:none" points="
  253.516,910.473 278.707,910.473 
  "/>
<polyline clip-path="url(#clip530)" style="stroke:#000000; stroke-width:4; stroke-opacity:1; fill:none" points="
  253.516,1437.64 266.112,1437.64 
  "/>
<polyline clip-path="url(#clip530)" style="stroke:#000000; stroke-width:4; stroke-opacity:1; fill:none" points="
  253.516,1422.13 266.112,1422.13 
  "/>
<polyline clip-path="url(#clip530)" style="stroke:#000000; stroke-width:4; stroke-opacity:1; fill:none" points="
  253.516,1406.63 266.112,1406.63 
  "/>
<polyline clip-path="url(#clip530)" style="stroke:#000000; stroke-width:4; stroke-opacity:1; fill:none" points="
  253.516,1391.12 266.112,1391.12 
  "/>
<polyline clip-path="url(#clip530)" style="stroke:#000000; stroke-width:4; stroke-opacity:1; fill:none" points="
  253.516,1360.11 266.112,1360.11 
  "/>
<polyline clip-path="url(#clip530)" style="stroke:#000000; stroke-width:4; stroke-opacity:1; fill:none" points="
  253.516,1344.61 266.112,1344.61 
  "/>
<polyline clip-path="url(#clip530)" style="stroke:#000000; stroke-width:4; stroke-opacity:1; fill:none" points="
  253.516,1329.1 266.112,1329.1 
  "/>
<polyline clip-path="url(#clip530)" style="stroke:#000000; stroke-width:4; stroke-opacity:1; fill:none" points="
  253.516,1313.6 266.112,1313.6 
  "/>
<polyline clip-path="url(#clip530)" style="stroke:#000000; stroke-width:4; stroke-opacity:1; fill:none" points="
  253.516,1282.59 266.112,1282.59 
  "/>
<polyline clip-path="url(#clip530)" style="stroke:#000000; stroke-width:4; stroke-opacity:1; fill:none" points="
  253.516,1267.08 266.112,1267.08 
  "/>
<polyline clip-path="url(#clip530)" style="stroke:#000000; stroke-width:4; stroke-opacity:1; fill:none" points="
  253.516,1251.58 266.112,1251.58 
  "/>
<polyline clip-path="url(#clip530)" style="stroke:#000000; stroke-width:4; stroke-opacity:1; fill:none" points="
  253.516,1236.07 266.112,1236.07 
  "/>
<polyline clip-path="url(#clip530)" style="stroke:#000000; stroke-width:4; stroke-opacity:1; fill:none" points="
  253.516,1205.06 266.112,1205.06 
  "/>
<polyline clip-path="url(#clip530)" style="stroke:#000000; stroke-width:4; stroke-opacity:1; fill:none" points="
  253.516,1189.56 266.112,1189.56 
  "/>
<polyline clip-path="url(#clip530)" style="stroke:#000000; stroke-width:4; stroke-opacity:1; fill:none" points="
  253.516,1174.05 266.112,1174.05 
  "/>
<polyline clip-path="url(#clip530)" style="stroke:#000000; stroke-width:4; stroke-opacity:1; fill:none" points="
  253.516,1158.55 266.112,1158.55 
  "/>
<polyline clip-path="url(#clip530)" style="stroke:#000000; stroke-width:4; stroke-opacity:1; fill:none" points="
  253.516,1127.54 266.112,1127.54 
  "/>
<polyline clip-path="url(#clip530)" style="stroke:#000000; stroke-width:4; stroke-opacity:1; fill:none" points="
  253.516,1112.04 266.112,1112.04 
  "/>
<polyline clip-path="url(#clip530)" style="stroke:#000000; stroke-width:4; stroke-opacity:1; fill:none" points="
  253.516,1096.53 266.112,1096.53 
  "/>
<polyline clip-path="url(#clip530)" style="stroke:#000000; stroke-width:4; stroke-opacity:1; fill:none" points="
  253.516,1081.03 266.112,1081.03 
  "/>
<polyline clip-path="url(#clip530)" style="stroke:#000000; stroke-width:4; stroke-opacity:1; fill:none" points="
  253.516,1050.02 266.112,1050.02 
  "/>
<polyline clip-path="url(#clip530)" style="stroke:#000000; stroke-width:4; stroke-opacity:1; fill:none" points="
  253.516,1034.51 266.112,1034.51 
  "/>
<polyline clip-path="url(#clip530)" style="stroke:#000000; stroke-width:4; stroke-opacity:1; fill:none" points="
  253.516,1019.01 266.112,1019.01 
  "/>
<polyline clip-path="url(#clip530)" style="stroke:#000000; stroke-width:4; stroke-opacity:1; fill:none" points="
  253.516,1003.5 266.112,1003.5 
  "/>
<polyline clip-path="url(#clip530)" style="stroke:#000000; stroke-width:4; stroke-opacity:1; fill:none" points="
  253.516,972.492 266.112,972.492 
  "/>
<polyline clip-path="url(#clip530)" style="stroke:#000000; stroke-width:4; stroke-opacity:1; fill:none" points="
  253.516,956.987 266.112,956.987 
  "/>
<polyline clip-path="url(#clip530)" style="stroke:#000000; stroke-width:4; stroke-opacity:1; fill:none" points="
  253.516,941.482 266.112,941.482 
  "/>
<polyline clip-path="url(#clip530)" style="stroke:#000000; stroke-width:4; stroke-opacity:1; fill:none" points="
  253.516,925.977 266.112,925.977 
  "/>
<polyline clip-path="url(#clip530)" style="stroke:#000000; stroke-width:4; stroke-opacity:1; fill:none" points="
  253.516,894.968 266.112,894.968 
  "/>
<polyline clip-path="url(#clip530)" style="stroke:#000000; stroke-width:4; stroke-opacity:1; fill:none" points="
  253.516,879.463 266.112,879.463 
  "/>
<polyline clip-path="url(#clip530)" style="stroke:#000000; stroke-width:4; stroke-opacity:1; fill:none" points="
  253.516,863.958 266.112,863.958 
  "/>
<polyline clip-path="url(#clip530)" style="stroke:#000000; stroke-width:4; stroke-opacity:1; fill:none" points="
  253.516,848.453 266.112,848.453 
  "/>
<path clip-path="url(#clip530)" d="M 0 0 M95.4797 1376.07 L125.156 1376.07 L125.156 1380 L95.4797 1380 L95.4797 1376.07 Z" fill="#000000" fill-rule="evenodd" fill-opacity="1" /><path clip-path="url(#clip530)" d="M 0 0 M136.058 1388.96 L143.697 1388.96 L143.697 1362.6 L135.387 1364.26 L135.387 1360 L143.651 1358.34 L148.327 1358.34 L148.327 1388.96 L155.966 1388.96 L155.966 1392.9 L136.058 1392.9 L136.058 1388.96 Z" fill="#000000" fill-rule="evenodd" fill-opacity="1" /><path clip-path="url(#clip530)" d="M 0 0 M165.456 1358.34 L183.813 1358.34 L183.813 1362.27 L169.739 1362.27 L169.739 1370.74 Q170.757 1370.4 171.776 1370.24 Q172.794 1370.05 173.813 1370.05 Q179.6 1370.05 182.979 1373.22 Q186.359 1376.39 186.359 1381.81 Q186.359 1387.39 182.887 1390.49 Q179.414 1393.57 173.095 1393.57 Q170.919 1393.57 168.651 1393.2 Q166.405 1392.83 163.998 1392.09 L163.998 1387.39 Q166.081 1388.52 168.303 1389.08 Q170.526 1389.63 173.002 1389.63 Q177.007 1389.63 179.345 1387.53 Q181.683 1385.42 181.683 1381.81 Q181.683 1378.2 179.345 1376.09 Q177.007 1373.99 173.002 1373.99 Q171.127 1373.99 169.252 1374.4 Q167.401 1374.82 165.456 1375.7 L165.456 1358.34 Z" fill="#000000" fill-rule="evenodd" fill-opacity="1" /><path clip-path="url(#clip530)" d="M 0 0 M205.572 1361.42 Q201.961 1361.42 200.132 1364.98 Q198.326 1368.52 198.326 1375.65 Q198.326 1382.76 200.132 1386.32 Q201.961 1389.86 205.572 1389.86 Q209.206 1389.86 211.012 1386.32 Q212.84 1382.76 212.84 1375.65 Q212.84 1368.52 211.012 1364.98 Q209.206 1361.42 205.572 1361.42 M205.572 1357.71 Q211.382 1357.71 214.437 1362.32 Q217.516 1366.9 217.516 1375.65 Q217.516 1384.38 214.437 1388.99 Q211.382 1393.57 205.572 1393.57 Q199.762 1393.57 196.683 1388.99 Q193.627 1384.38 193.627 1375.65 Q193.627 1366.9 196.683 1362.32 Q199.762 1357.71 205.572 1357.71 Z" fill="#000000" fill-rule="evenodd" fill-opacity="1" /><path clip-path="url(#clip530)" d="M 0 0 M95.4797 1298.54 L125.156 1298.54 L125.156 1302.48 L95.4797 1302.48 L95.4797 1298.54 Z" fill="#000000" fill-rule="evenodd" fill-opacity="1" /><path clip-path="url(#clip530)" d="M 0 0 M136.058 1311.44 L143.697 1311.44 L143.697 1285.07 L135.387 1286.74 L135.387 1282.48 L143.651 1280.81 L148.327 1280.81 L148.327 1311.44 L155.966 1311.44 L155.966 1315.37 L136.058 1315.37 L136.058 1311.44 Z" fill="#000000" fill-rule="evenodd" fill-opacity="1" /><path clip-path="url(#clip530)" d="M 0 0 M175.41 1283.89 Q171.799 1283.89 169.97 1287.46 Q168.165 1291 168.165 1298.13 Q168.165 1305.23 169.97 1308.8 Q171.799 1312.34 175.41 1312.34 Q179.044 1312.34 180.85 1308.8 Q182.678 1305.23 182.678 1298.13 Q182.678 1291 180.85 1287.46 Q179.044 1283.89 175.41 1283.89 M175.41 1280.19 Q181.22 1280.19 184.276 1284.79 Q187.354 1289.38 187.354 1298.13 Q187.354 1306.85 184.276 1311.46 Q181.22 1316.04 175.41 1316.04 Q169.6 1316.04 166.521 1311.46 Q163.465 1306.85 163.465 1298.13 Q163.465 1289.38 166.521 1284.79 Q169.6 1280.19 175.41 1280.19 Z" fill="#000000" fill-rule="evenodd" fill-opacity="1" /><path clip-path="url(#clip530)" d="M 0 0 M205.572 1283.89 Q201.961 1283.89 200.132 1287.46 Q198.326 1291 198.326 1298.13 Q198.326 1305.23 200.132 1308.8 Q201.961 1312.34 205.572 1312.34 Q209.206 1312.34 211.012 1308.8 Q212.84 1305.23 212.84 1298.13 Q212.84 1291 211.012 1287.46 Q209.206 1283.89 205.572 1283.89 M205.572 1280.19 Q211.382 1280.19 214.437 1284.79 Q217.516 1289.38 217.516 1298.13 Q217.516 1306.85 214.437 1311.46 Q211.382 1316.04 205.572 1316.04 Q199.762 1316.04 196.683 1311.46 Q193.627 1306.85 193.627 1298.13 Q193.627 1289.38 196.683 1284.79 Q199.762 1280.19 205.572 1280.19 Z" fill="#000000" fill-rule="evenodd" fill-opacity="1" /><path clip-path="url(#clip530)" d="M 0 0 M125.642 1221.02 L155.317 1221.02 L155.317 1224.96 L125.642 1224.96 L125.642 1221.02 Z" fill="#000000" fill-rule="evenodd" fill-opacity="1" /><path clip-path="url(#clip530)" d="M 0 0 M165.456 1203.29 L183.813 1203.29 L183.813 1207.22 L169.739 1207.22 L169.739 1215.7 Q170.757 1215.35 171.776 1215.19 Q172.794 1215 173.813 1215 Q179.6 1215 182.979 1218.17 Q186.359 1221.34 186.359 1226.76 Q186.359 1232.34 182.887 1235.44 Q179.414 1238.52 173.095 1238.52 Q170.919 1238.52 168.651 1238.15 Q166.405 1237.78 163.998 1237.04 L163.998 1232.34 Q166.081 1233.47 168.303 1234.03 Q170.526 1234.59 173.002 1234.59 Q177.007 1234.59 179.345 1232.48 Q181.683 1230.37 181.683 1226.76 Q181.683 1223.15 179.345 1221.04 Q177.007 1218.94 173.002 1218.94 Q171.127 1218.94 169.252 1219.35 Q167.401 1219.77 165.456 1220.65 L165.456 1203.29 Z" fill="#000000" fill-rule="evenodd" fill-opacity="1" /><path clip-path="url(#clip530)" d="M 0 0 M205.572 1206.37 Q201.961 1206.37 200.132 1209.93 Q198.326 1213.47 198.326 1220.6 Q198.326 1227.71 200.132 1231.27 Q201.961 1234.82 205.572 1234.82 Q209.206 1234.82 211.012 1231.27 Q212.84 1227.71 212.84 1220.6 Q212.84 1213.47 211.012 1209.93 Q209.206 1206.37 205.572 1206.37 M205.572 1202.66 Q211.382 1202.66 214.437 1207.27 Q217.516 1211.85 217.516 1220.6 Q217.516 1229.33 214.437 1233.94 Q211.382 1238.52 205.572 1238.52 Q199.762 1238.52 196.683 1233.94 Q193.627 1229.33 193.627 1220.6 Q193.627 1211.85 196.683 1207.27 Q199.762 1202.66 205.572 1202.66 Z" fill="#000000" fill-rule="evenodd" fill-opacity="1" /><path clip-path="url(#clip530)" d="M 0 0 M205.572 1128.84 Q201.961 1128.84 200.132 1132.41 Q198.326 1135.95 198.326 1143.08 Q198.326 1150.19 200.132 1153.75 Q201.961 1157.29 205.572 1157.29 Q209.206 1157.29 211.012 1153.75 Q212.84 1150.19 212.84 1143.08 Q212.84 1135.95 211.012 1132.41 Q209.206 1128.84 205.572 1128.84 M205.572 1125.14 Q211.382 1125.14 214.437 1129.75 Q217.516 1134.33 217.516 1143.08 Q217.516 1151.81 214.437 1156.41 Q211.382 1161 205.572 1161 Q199.762 1161 196.683 1156.41 Q193.627 1151.81 193.627 1143.08 Q193.627 1134.33 196.683 1129.75 Q199.762 1125.14 205.572 1125.14 Z" fill="#000000" fill-rule="evenodd" fill-opacity="1" /><path clip-path="url(#clip530)" d="M 0 0 M165.456 1048.24 L183.813 1048.24 L183.813 1052.18 L169.739 1052.18 L169.739 1060.65 Q170.757 1060.3 171.776 1060.14 Q172.794 1059.95 173.813 1059.95 Q179.6 1059.95 182.979 1063.12 Q186.359 1066.3 186.359 1071.71 Q186.359 1077.29 182.887 1080.39 Q179.414 1083.47 173.095 1083.47 Q170.919 1083.47 168.651 1083.1 Q166.405 1082.73 163.998 1081.99 L163.998 1077.29 Q166.081 1078.43 168.303 1078.98 Q170.526 1079.54 173.002 1079.54 Q177.007 1079.54 179.345 1077.43 Q181.683 1075.32 181.683 1071.71 Q181.683 1068.1 179.345 1066 Q177.007 1063.89 173.002 1063.89 Q171.127 1063.89 169.252 1064.31 Q167.401 1064.72 165.456 1065.6 L165.456 1048.24 Z" fill="#000000" fill-rule="evenodd" fill-opacity="1" /><path clip-path="url(#clip530)" d="M 0 0 M205.572 1051.32 Q201.961 1051.32 200.132 1054.88 Q198.326 1058.43 198.326 1065.56 Q198.326 1072.66 200.132 1076.23 Q201.961 1079.77 205.572 1079.77 Q209.206 1079.77 211.012 1076.23 Q212.84 1072.66 212.84 1065.56 Q212.84 1058.43 211.012 1054.88 Q209.206 1051.32 205.572 1051.32 M205.572 1047.62 Q211.382 1047.62 214.437 1052.22 Q217.516 1056.81 217.516 1065.56 Q217.516 1074.28 214.437 1078.89 Q211.382 1083.47 205.572 1083.47 Q199.762 1083.47 196.683 1078.89 Q193.627 1074.28 193.627 1065.56 Q193.627 1056.81 196.683 1052.22 Q199.762 1047.62 205.572 1047.62 Z" fill="#000000" fill-rule="evenodd" fill-opacity="1" /><path clip-path="url(#clip530)" d="M 0 0 M136.058 1001.34 L143.697 1001.34 L143.697 974.976 L135.387 976.643 L135.387 972.383 L143.651 970.717 L148.327 970.717 L148.327 1001.34 L155.966 1001.34 L155.966 1005.28 L136.058 1005.28 L136.058 1001.34 Z" fill="#000000" fill-rule="evenodd" fill-opacity="1" /><path clip-path="url(#clip530)" d="M 0 0 M175.41 973.795 Q171.799 973.795 169.97 977.36 Q168.165 980.902 168.165 988.031 Q168.165 995.138 169.97 998.703 Q171.799 1002.24 175.41 1002.24 Q179.044 1002.24 180.85 998.703 Q182.678 995.138 182.678 988.031 Q182.678 980.902 180.85 977.36 Q179.044 973.795 175.41 973.795 M175.41 970.092 Q181.22 970.092 184.276 974.698 Q187.354 979.281 187.354 988.031 Q187.354 996.758 184.276 1001.36 Q181.22 1005.95 175.41 1005.95 Q169.6 1005.95 166.521 1001.36 Q163.465 996.758 163.465 988.031 Q163.465 979.281 166.521 974.698 Q169.6 970.092 175.41 970.092 Z" fill="#000000" fill-rule="evenodd" fill-opacity="1" /><path clip-path="url(#clip530)" d="M 0 0 M205.572 973.795 Q201.961 973.795 200.132 977.36 Q198.326 980.902 198.326 988.031 Q198.326 995.138 200.132 998.703 Q201.961 1002.24 205.572 1002.24 Q209.206 1002.24 211.012 998.703 Q212.84 995.138 212.84 988.031 Q212.84 980.902 211.012 977.36 Q209.206 973.795 205.572 973.795 M205.572 970.092 Q211.382 970.092 214.437 974.698 Q217.516 979.281 217.516 988.031 Q217.516 996.758 214.437 1001.36 Q211.382 1005.95 205.572 1005.95 Q199.762 1005.95 196.683 1001.36 Q193.627 996.758 193.627 988.031 Q193.627 979.281 196.683 974.698 Q199.762 970.092 205.572 970.092 Z" fill="#000000" fill-rule="evenodd" fill-opacity="1" /><path clip-path="url(#clip530)" d="M 0 0 M136.058 923.817 L143.697 923.817 L143.697 897.452 L135.387 899.118 L135.387 894.859 L143.651 893.193 L148.327 893.193 L148.327 923.817 L155.966 923.817 L155.966 927.753 L136.058 927.753 L136.058 923.817 Z" fill="#000000" fill-rule="evenodd" fill-opacity="1" /><path clip-path="url(#clip530)" d="M 0 0 M165.456 893.193 L183.813 893.193 L183.813 897.128 L169.739 897.128 L169.739 905.6 Q170.757 905.253 171.776 905.091 Q172.794 904.905 173.813 904.905 Q179.6 904.905 182.979 908.077 Q186.359 911.248 186.359 916.665 Q186.359 922.243 182.887 925.345 Q179.414 928.424 173.095 928.424 Q170.919 928.424 168.651 928.053 Q166.405 927.683 163.998 926.942 L163.998 922.243 Q166.081 923.378 168.303 923.933 Q170.526 924.489 173.002 924.489 Q177.007 924.489 179.345 922.382 Q181.683 920.276 181.683 916.665 Q181.683 913.054 179.345 910.947 Q177.007 908.841 173.002 908.841 Q171.127 908.841 169.252 909.257 Q167.401 909.674 165.456 910.554 L165.456 893.193 Z" fill="#000000" fill-rule="evenodd" fill-opacity="1" /><path clip-path="url(#clip530)" d="M 0 0 M205.572 896.271 Q201.961 896.271 200.132 899.836 Q198.326 903.378 198.326 910.507 Q198.326 917.614 200.132 921.178 Q201.961 924.72 205.572 924.72 Q209.206 924.72 211.012 921.178 Q212.84 917.614 212.84 910.507 Q212.84 903.378 211.012 899.836 Q209.206 896.271 205.572 896.271 M205.572 892.568 Q211.382 892.568 214.437 897.174 Q217.516 901.757 217.516 910.507 Q217.516 919.234 214.437 923.84 Q211.382 928.424 205.572 928.424 Q199.762 928.424 196.683 923.84 Q193.627 919.234 193.627 910.507 Q193.627 901.757 196.683 897.174 Q199.762 892.568 205.572 892.568 Z" fill="#000000" fill-rule="evenodd" fill-opacity="1" /><path clip-path="url(#clip530)" d="M 0 0 M29.4921 1126.76 Q33.3245 1126.76 37.1248 1128.54 Q40.9251 1130.31 43.8237 1133.21 Q46.69 1136.07 48.4935 1140 Q50.297 1143.9 50.297 1147.89 Q50.297 1148.6 50.136 1150.05 Q62.02 1152.3 62.2132 1152.37 Q62.8895 1152.66 63.3082 1153.24 Q63.7269 1153.79 63.8235 1154.17 Q63.9201 1154.56 63.9201 1154.82 Q63.9201 1155.46 63.4692 1156.1 Q63.0506 1156.72 62.0844 1156.72 Q61.8589 1156.72 60.7639 1156.39 L49.6851 1152.88 Q48.4613 1158.2 45.0797 1161.26 Q41.6659 1164.32 37.0282 1164.32 Q34.0653 1164.32 30.2006 1162.96 Q26.3359 1161.61 23.7272 1159.97 Q21.1185 1158.33 21.1185 1157.39 Q21.1185 1156.59 21.7949 1156.59 Q22.0525 1156.59 22.6322 1157.1 Q25.6273 1159.71 29.9429 1161.16 Q34.2263 1162.58 36.2875 1162.58 Q39.8945 1162.58 42.5032 1159.81 Q45.0797 1157.01 46.0459 1151.76 Q35.9332 1148.63 31.6821 1146.76 Q23.2441 1143 21.1829 1138.1 Q20.41 1136.3 20.41 1134.3 Q20.41 1130.69 22.9543 1128.73 Q25.4663 1126.76 29.4921 1126.76 M30.9413 1128.63 Q29.2344 1128.63 27.7851 1129.24 Q26.3359 1129.82 25.3053 1131.31 Q24.2425 1132.79 24.2425 1134.94 Q24.2425 1139.26 28.3971 1142.87 Q32.5516 1146.47 38.9928 1148.02 L46.1425 1149.34 Q46.4001 1149.34 46.4001 1148.47 Q46.4645 1147.96 46.4645 1147.28 Q46.4645 1143.61 45.0797 1140.13 Q43.6948 1136.62 41.5048 1134.14 Q39.3148 1131.66 36.5129 1130.15 Q33.711 1128.63 30.9413 1128.63 Z" fill="#000000" fill-rule="evenodd" fill-opacity="1" /><polyline clip-path="url(#clip533)" style="stroke:#009af9; stroke-width:8; stroke-opacity:1; fill:none" points="
  312.929,1307.06 332.269,1308.15 511.099,1320.53 618.568,1330.23 709.432,1339.9 808.135,1351.95 899.131,1364.53 947.91,1371.92 996.688,1379.84 1053.2,1389.85 
  1109.72,1401.09 1134.83,1406.6 1159.94,1412.53 1166.22,1414.08 1172.5,1415.67 1178.78,1417.29 1185.05,1418.95 1188.19,1419.79 1191.33,1420.64 1192.9,1421.07 
  1194.47,1421.5 1195.26,1421.72 1196.04,1421.94 1196.82,863.983 1197.61,864.201 1198.39,864.421 1199.18,864.641 1199.96,864.861 1200.75,865.083 1202.32,865.527 
  1203.89,865.974 1207.03,866.877 1210.17,867.79 1221.18,871.082 1232.19,874.524 1243.2,878.128 1254.21,881.907 1276.23,890.051 1298.25,899.085 1346.27,922.535 
  1394.28,952.02 1442.59,987.254 1490.89,1024.6 1544.29,1063.3 1597.7,1097.41 1648.51,1126.76 1699.32,1154.82 1804.99,1214.87 1893.94,1272.22 1948.24,1312.06 
  2002.54,1356.53 2015.3,1367.74 2028.06,1379.27 2040.82,1391.11 2053.58,1403.29 2056.77,1406.38 2059.96,1409.5 2063.15,1412.65 2066.34,1415.81 2067.94,1417.4 
  2069.53,1418.99 2070.33,1419.79 2071.13,1420.6 2071.93,1421.4 2072.72,864.029 2073.52,864.834 2074.32,865.641 2075.12,866.45 2075.91,867.26 2077.51,868.883 
  2079.1,870.513 2085.48,877.09 2091.87,883.76 2098.25,890.525 2104.63,897.387 2145.51,943.763 2186.4,994.609 2227.29,1050.4 2268.17,1111.64 2274.47,1121.58 
  2280.76,1131.67 2287.05,1141.9 2293.34,1152.29 
  "/>
</svg>
