<?xml version="1.0" encoding="utf-8"?>
<svg xmlns="http://www.w3.org/2000/svg" xmlns:xlink="http://www.w3.org/1999/xlink" width="600" height="400" viewBox="0 0 2400 1600">
<defs>
  <clipPath id="clip390">
    <rect x="0" y="0" width="2400" height="1600"/>
  </clipPath>
</defs>
<path clip-path="url(#clip390)" d="
M0 1600 L2400 1600 L2400 0 L0 0  Z
  " fill="#ffffff" fill-rule="evenodd" fill-opacity="1"/>
<defs>
  <clipPath id="clip391">
    <rect x="480" y="0" width="1681" height="1600"/>
  </clipPath>
</defs>
<path clip-path="url(#clip390)" d="
M272.297 642.531 L2352.76 642.531 L2352.76 47.2441 L272.297 47.2441  Z
  " fill="#ffffff" fill-rule="evenodd" fill-opacity="1"/>
<defs>
  <clipPath id="clip392">
    <rect x="272" y="47" width="2081" height="596"/>
  </clipPath>
</defs>
<polyline clip-path="url(#clip392)" style="stroke:#000000; stroke-width:2; stroke-opacity:0.1; fill:none" points="
  331.177,642.531 331.177,47.2441 
  "/>
<polyline clip-path="url(#clip392)" style="stroke:#000000; stroke-width:2; stroke-opacity:0.1; fill:none" points="
  821.852,642.531 821.852,47.2441 
  "/>
<polyline clip-path="url(#clip392)" style="stroke:#000000; stroke-width:2; stroke-opacity:0.1; fill:none" points="
  1312.53,642.531 1312.53,47.2441 
  "/>
<polyline clip-path="url(#clip392)" style="stroke:#000000; stroke-width:2; stroke-opacity:0.1; fill:none" points="
  1803.2,642.531 1803.2,47.2441 
  "/>
<polyline clip-path="url(#clip392)" style="stroke:#000000; stroke-width:2; stroke-opacity:0.1; fill:none" points="
  2293.87,642.531 2293.87,47.2441 
  "/>
<polyline clip-path="url(#clip390)" style="stroke:#000000; stroke-width:4; stroke-opacity:1; fill:none" points="
  272.297,642.531 2352.76,642.531 
  "/>
<polyline clip-path="url(#clip390)" style="stroke:#000000; stroke-width:4; stroke-opacity:1; fill:none" points="
  331.177,642.531 331.177,635.387 
  "/>
<polyline clip-path="url(#clip390)" style="stroke:#000000; stroke-width:4; stroke-opacity:1; fill:none" points="
  821.852,642.531 821.852,635.387 
  "/>
<polyline clip-path="url(#clip390)" style="stroke:#000000; stroke-width:4; stroke-opacity:1; fill:none" points="
  1312.53,642.531 1312.53,635.387 
  "/>
<polyline clip-path="url(#clip390)" style="stroke:#000000; stroke-width:4; stroke-opacity:1; fill:none" points="
  1803.2,642.531 1803.2,635.387 
  "/>
<polyline clip-path="url(#clip390)" style="stroke:#000000; stroke-width:4; stroke-opacity:1; fill:none" points="
  2293.87,642.531 2293.87,635.387 
  "/>
<polyline clip-path="url(#clip390)" style="stroke:#000000; stroke-width:4; stroke-opacity:1; fill:none" points="
  454.491,642.531 454.491,638.959 
  "/>
<polyline clip-path="url(#clip390)" style="stroke:#000000; stroke-width:4; stroke-opacity:1; fill:none" points="
  562.199,642.531 562.199,638.959 
  "/>
<polyline clip-path="url(#clip390)" style="stroke:#000000; stroke-width:4; stroke-opacity:1; fill:none" points="
  657.811,642.531 657.811,638.959 
  "/>
<polyline clip-path="url(#clip390)" style="stroke:#000000; stroke-width:4; stroke-opacity:1; fill:none" points="
  743.771,642.531 743.771,638.959 
  "/>
<polyline clip-path="url(#clip390)" style="stroke:#000000; stroke-width:4; stroke-opacity:1; fill:none" points="
  945.165,642.531 945.165,638.959 
  "/>
<polyline clip-path="url(#clip390)" style="stroke:#000000; stroke-width:4; stroke-opacity:1; fill:none" points="
  1052.87,642.531 1052.87,638.959 
  "/>
<polyline clip-path="url(#clip390)" style="stroke:#000000; stroke-width:4; stroke-opacity:1; fill:none" points="
  1148.49,642.531 1148.49,638.959 
  "/>
<polyline clip-path="url(#clip390)" style="stroke:#000000; stroke-width:4; stroke-opacity:1; fill:none" points="
  1234.45,642.531 1234.45,638.959 
  "/>
<polyline clip-path="url(#clip390)" style="stroke:#000000; stroke-width:4; stroke-opacity:1; fill:none" points="
  1435.84,642.531 1435.84,638.959 
  "/>
<polyline clip-path="url(#clip390)" style="stroke:#000000; stroke-width:4; stroke-opacity:1; fill:none" points="
  1543.55,642.531 1543.55,638.959 
  "/>
<polyline clip-path="url(#clip390)" style="stroke:#000000; stroke-width:4; stroke-opacity:1; fill:none" points="
  1639.16,642.531 1639.16,638.959 
  "/>
<polyline clip-path="url(#clip390)" style="stroke:#000000; stroke-width:4; stroke-opacity:1; fill:none" points="
  1725.12,642.531 1725.12,638.959 
  "/>
<polyline clip-path="url(#clip390)" style="stroke:#000000; stroke-width:4; stroke-opacity:1; fill:none" points="
  1926.51,642.531 1926.51,638.959 
  "/>
<polyline clip-path="url(#clip390)" style="stroke:#000000; stroke-width:4; stroke-opacity:1; fill:none" points="
  2034.22,642.531 2034.22,638.959 
  "/>
<polyline clip-path="url(#clip390)" style="stroke:#000000; stroke-width:4; stroke-opacity:1; fill:none" points="
  2129.83,642.531 2129.83,638.959 
  "/>
<polyline clip-path="url(#clip390)" style="stroke:#000000; stroke-width:4; stroke-opacity:1; fill:none" points="
  2215.79,642.531 2215.79,638.959 
  "/>
<path clip-path="url(#clip390)" d="M 0 0 M250.166 720.803 L257.805 720.803 L257.805 694.437 L249.495 696.104 L249.495 691.845 L257.758 690.178 L262.434 690.178 L262.434 720.803 L270.073 720.803 L270.073 724.738 L250.166 724.738 L250.166 720.803 Z" fill="#000000" fill-rule="evenodd" fill-opacity="1" /><path clip-path="url(#clip390)" d="M 0 0 M289.518 693.257 Q285.906 693.257 284.078 696.821 Q282.272 700.363 282.272 707.493 Q282.272 714.599 284.078 718.164 Q285.906 721.705 289.518 721.705 Q293.152 721.705 294.957 718.164 Q296.786 714.599 296.786 707.493 Q296.786 700.363 294.957 696.821 Q293.152 693.257 289.518 693.257 M289.518 689.553 Q295.328 689.553 298.383 694.159 Q301.462 698.743 301.462 707.493 Q301.462 716.219 298.383 720.826 Q295.328 725.409 289.518 725.409 Q283.707 725.409 280.629 720.826 Q277.573 716.219 277.573 707.493 Q277.573 698.743 280.629 694.159 Q283.707 689.553 289.518 689.553 Z" fill="#000000" fill-rule="evenodd" fill-opacity="1" /><path clip-path="url(#clip390)" d="M 0 0 M301.462 683.654 L325.573 683.654 L325.573 686.852 L301.462 686.852 L301.462 683.654 Z" fill="#000000" fill-rule="evenodd" fill-opacity="1" /><path clip-path="url(#clip390)" d="M 0 0 M334.432 694.13 L340.638 694.13 L340.638 672.708 L333.887 674.062 L333.887 670.602 L340.601 669.247 L344.4 669.247 L344.4 694.13 L350.607 694.13 L350.607 697.327 L334.432 697.327 L334.432 694.13 Z" fill="#000000" fill-rule="evenodd" fill-opacity="1" /><path clip-path="url(#clip390)" d="M 0 0 M358.28 692.55 L362.249 692.55 L362.249 697.327 L358.28 697.327 L358.28 692.55 Z" fill="#000000" fill-rule="evenodd" fill-opacity="1" /><path clip-path="url(#clip390)" d="M 0 0 M378.649 671.749 Q375.715 671.749 374.229 674.645 Q372.762 677.523 372.762 683.316 Q372.762 689.09 374.229 691.986 Q375.715 694.864 378.649 694.864 Q381.602 694.864 383.069 691.986 Q384.555 689.09 384.555 683.316 Q384.555 677.523 383.069 674.645 Q381.602 671.749 378.649 671.749 M378.649 668.74 Q383.37 668.74 385.852 672.482 Q388.354 676.206 388.354 683.316 Q388.354 690.406 385.852 694.149 Q383.37 697.873 378.649 697.873 Q373.928 697.873 371.427 694.149 Q368.944 690.406 368.944 683.316 Q368.944 676.206 371.427 672.482 Q373.928 668.74 378.649 668.74 Z" fill="#000000" fill-rule="evenodd" fill-opacity="1" /><path clip-path="url(#clip390)" d="M 0 0 M403.156 671.749 Q400.222 671.749 398.736 674.645 Q397.269 677.523 397.269 683.316 Q397.269 689.09 398.736 691.986 Q400.222 694.864 403.156 694.864 Q406.108 694.864 407.575 691.986 Q409.061 689.09 409.061 683.316 Q409.061 677.523 407.575 674.645 Q406.108 671.749 403.156 671.749 M403.156 668.74 Q407.876 668.74 410.359 672.482 Q412.86 676.206 412.86 683.316 Q412.86 690.406 410.359 694.149 Q407.876 697.873 403.156 697.873 Q398.435 697.873 395.933 694.149 Q393.451 690.406 393.451 683.316 Q393.451 676.206 395.933 672.482 Q398.435 668.74 403.156 668.74 Z" fill="#000000" fill-rule="evenodd" fill-opacity="1" /><path clip-path="url(#clip390)" d="M 0 0 M741.245 720.803 L748.883 720.803 L748.883 694.437 L740.573 696.104 L740.573 691.845 L748.837 690.178 L753.513 690.178 L753.513 720.803 L761.152 720.803 L761.152 724.738 L741.245 724.738 L741.245 720.803 Z" fill="#000000" fill-rule="evenodd" fill-opacity="1" /><path clip-path="url(#clip390)" d="M 0 0 M780.596 693.257 Q776.985 693.257 775.156 696.821 Q773.351 700.363 773.351 707.493 Q773.351 714.599 775.156 718.164 Q776.985 721.705 780.596 721.705 Q784.231 721.705 786.036 718.164 Q787.865 714.599 787.865 707.493 Q787.865 700.363 786.036 696.821 Q784.231 693.257 780.596 693.257 M780.596 689.553 Q786.406 689.553 789.462 694.159 Q792.541 698.743 792.541 707.493 Q792.541 716.219 789.462 720.826 Q786.406 725.409 780.596 725.409 Q774.786 725.409 771.707 720.826 Q768.652 716.219 768.652 707.493 Q768.652 698.743 771.707 694.159 Q774.786 689.553 780.596 689.553 Z" fill="#000000" fill-rule="evenodd" fill-opacity="1" /><path clip-path="url(#clip390)" d="M 0 0 M792.541 683.654 L816.652 683.654 L816.652 686.852 L792.541 686.852 L792.541 683.654 Z" fill="#000000" fill-rule="evenodd" fill-opacity="1" /><path clip-path="url(#clip390)" d="M 0 0 M832.977 671.749 Q830.043 671.749 828.558 674.645 Q827.091 677.523 827.091 683.316 Q827.091 689.09 828.558 691.986 Q830.043 694.864 832.977 694.864 Q835.93 694.864 837.397 691.986 Q838.883 689.09 838.883 683.316 Q838.883 677.523 837.397 674.645 Q835.93 671.749 832.977 671.749 M832.977 668.74 Q837.698 668.74 840.181 672.482 Q842.682 676.206 842.682 683.316 Q842.682 690.406 840.181 694.149 Q837.698 697.873 832.977 697.873 Q828.257 697.873 825.755 694.149 Q823.273 690.406 823.273 683.316 Q823.273 676.206 825.755 672.482 Q828.257 668.74 832.977 668.74 Z" fill="#000000" fill-rule="evenodd" fill-opacity="1" /><path clip-path="url(#clip390)" d="M 0 0 M849.359 692.55 L853.327 692.55 L853.327 697.327 L849.359 697.327 L849.359 692.55 Z" fill="#000000" fill-rule="evenodd" fill-opacity="1" /><path clip-path="url(#clip390)" d="M 0 0 M860.644 669.247 L878.699 669.247 L878.699 670.865 L868.505 697.327 L864.537 697.327 L874.129 672.445 L860.644 672.445 L860.644 669.247 Z" fill="#000000" fill-rule="evenodd" fill-opacity="1" /><path clip-path="url(#clip390)" d="M 0 0 M886.147 669.247 L901.061 669.247 L901.061 672.445 L889.626 672.445 L889.626 679.328 Q890.454 679.046 891.281 678.915 Q892.109 678.764 892.937 678.764 Q897.638 678.764 900.384 681.341 Q903.13 683.918 903.13 688.319 Q903.13 692.851 900.309 695.371 Q897.488 697.873 892.353 697.873 Q890.586 697.873 888.742 697.572 Q886.918 697.271 884.962 696.669 L884.962 692.851 Q886.655 693.773 888.46 694.224 Q890.266 694.676 892.278 694.676 Q895.532 694.676 897.432 692.964 Q899.331 691.253 899.331 688.319 Q899.331 685.385 897.432 683.673 Q895.532 681.962 892.278 681.962 Q890.755 681.962 889.231 682.3 Q887.727 682.639 886.147 683.353 L886.147 669.247 Z" fill="#000000" fill-rule="evenodd" fill-opacity="1" /><path clip-path="url(#clip390)" d="M 0 0 M1231.51 720.803 L1239.15 720.803 L1239.15 694.437 L1230.84 696.104 L1230.84 691.845 L1239.11 690.178 L1243.78 690.178 L1243.78 720.803 L1251.42 720.803 L1251.42 724.738 L1231.51 724.738 L1231.51 720.803 Z" fill="#000000" fill-rule="evenodd" fill-opacity="1" /><path clip-path="url(#clip390)" d="M 0 0 M1270.87 693.257 Q1267.26 693.257 1265.43 696.821 Q1263.62 700.363 1263.62 707.493 Q1263.62 714.599 1265.43 718.164 Q1267.26 721.705 1270.87 721.705 Q1274.5 721.705 1276.31 718.164 Q1278.13 714.599 1278.13 707.493 Q1278.13 700.363 1276.31 696.821 Q1274.5 693.257 1270.87 693.257 M1270.87 689.553 Q1276.68 689.553 1279.73 694.159 Q1282.81 698.743 1282.81 707.493 Q1282.81 716.219 1279.73 720.826 Q1276.68 725.409 1270.87 725.409 Q1265.06 725.409 1261.98 720.826 Q1258.92 716.219 1258.92 707.493 Q1258.92 698.743 1261.98 694.159 Q1265.06 689.553 1270.87 689.553 Z" fill="#000000" fill-rule="evenodd" fill-opacity="1" /><path clip-path="url(#clip390)" d="M 0 0 M1282.81 683.654 L1306.92 683.654 L1306.92 686.852 L1282.81 686.852 L1282.81 683.654 Z" fill="#000000" fill-rule="evenodd" fill-opacity="1" /><path clip-path="url(#clip390)" d="M 0 0 M1323.25 671.749 Q1320.31 671.749 1318.83 674.645 Q1317.36 677.523 1317.36 683.316 Q1317.36 689.09 1318.83 691.986 Q1320.31 694.864 1323.25 694.864 Q1326.2 694.864 1327.67 691.986 Q1329.15 689.09 1329.15 683.316 Q1329.15 677.523 1327.67 674.645 Q1326.2 671.749 1323.25 671.749 M1323.25 668.74 Q1327.97 668.74 1330.45 672.482 Q1332.95 676.206 1332.95 683.316 Q1332.95 690.406 1330.45 694.149 Q1327.97 697.873 1323.25 697.873 Q1318.53 697.873 1316.03 694.149 Q1313.54 690.406 1313.54 683.316 Q1313.54 676.206 1316.03 672.482 Q1318.53 668.74 1323.25 668.74 Z" fill="#000000" fill-rule="evenodd" fill-opacity="1" /><path clip-path="url(#clip390)" d="M 0 0 M1339.63 692.55 L1343.6 692.55 L1343.6 697.327 L1339.63 697.327 L1339.63 692.55 Z" fill="#000000" fill-rule="evenodd" fill-opacity="1" /><path clip-path="url(#clip390)" d="M 0 0 M1351.91 669.247 L1366.82 669.247 L1366.82 672.445 L1355.39 672.445 L1355.39 679.328 Q1356.22 679.046 1357.04 678.915 Q1357.87 678.764 1358.7 678.764 Q1363.4 678.764 1366.15 681.341 Q1368.89 683.918 1368.89 688.319 Q1368.89 692.851 1366.07 695.371 Q1363.25 697.873 1358.12 697.873 Q1356.35 697.873 1354.51 697.572 Q1352.68 697.271 1350.73 696.669 L1350.73 692.851 Q1352.42 693.773 1354.22 694.224 Q1356.03 694.676 1358.04 694.676 Q1361.3 694.676 1363.2 692.964 Q1365.09 691.253 1365.09 688.319 Q1365.09 685.385 1363.2 683.673 Q1361.3 681.962 1358.04 681.962 Q1356.52 681.962 1354.99 682.3 Q1353.49 682.639 1351.91 683.353 L1351.91 669.247 Z" fill="#000000" fill-rule="evenodd" fill-opacity="1" /><path clip-path="url(#clip390)" d="M 0 0 M1384.5 671.749 Q1381.57 671.749 1380.08 674.645 Q1378.62 677.523 1378.62 683.316 Q1378.62 689.09 1380.08 691.986 Q1381.57 694.864 1384.5 694.864 Q1387.46 694.864 1388.92 691.986 Q1390.41 689.09 1390.41 683.316 Q1390.41 677.523 1388.92 674.645 Q1387.46 671.749 1384.5 671.749 M1384.5 668.74 Q1389.23 668.74 1391.71 672.482 Q1394.21 676.206 1394.21 683.316 Q1394.21 690.406 1391.71 694.149 Q1389.23 697.873 1384.5 697.873 Q1379.78 697.873 1377.28 694.149 Q1374.8 690.406 1374.8 683.316 Q1374.8 676.206 1377.28 672.482 Q1379.78 668.74 1384.5 668.74 Z" fill="#000000" fill-rule="evenodd" fill-opacity="1" /><path clip-path="url(#clip390)" d="M 0 0 M1722.59 720.803 L1730.23 720.803 L1730.23 694.437 L1721.92 696.104 L1721.92 691.845 L1730.19 690.178 L1734.86 690.178 L1734.86 720.803 L1742.5 720.803 L1742.5 724.738 L1722.59 724.738 L1722.59 720.803 Z" fill="#000000" fill-rule="evenodd" fill-opacity="1" /><path clip-path="url(#clip390)" d="M 0 0 M1761.95 693.257 Q1758.33 693.257 1756.51 696.821 Q1754.7 700.363 1754.7 707.493 Q1754.7 714.599 1756.51 718.164 Q1758.33 721.705 1761.95 721.705 Q1765.58 721.705 1767.38 718.164 Q1769.21 714.599 1769.21 707.493 Q1769.21 700.363 1767.38 696.821 Q1765.58 693.257 1761.95 693.257 M1761.95 689.553 Q1767.76 689.553 1770.81 694.159 Q1773.89 698.743 1773.89 707.493 Q1773.89 716.219 1770.81 720.826 Q1767.76 725.409 1761.95 725.409 Q1756.13 725.409 1753.06 720.826 Q1750 716.219 1750 707.493 Q1750 698.743 1753.06 694.159 Q1756.13 689.553 1761.95 689.553 Z" fill="#000000" fill-rule="evenodd" fill-opacity="1" /><path clip-path="url(#clip390)" d="M 0 0 M1773.89 683.654 L1798 683.654 L1798 686.852 L1773.89 686.852 L1773.89 683.654 Z" fill="#000000" fill-rule="evenodd" fill-opacity="1" /><path clip-path="url(#clip390)" d="M 0 0 M1814.33 671.749 Q1811.39 671.749 1809.91 674.645 Q1808.44 677.523 1808.44 683.316 Q1808.44 689.09 1809.91 691.986 Q1811.39 694.864 1814.33 694.864 Q1817.28 694.864 1818.75 691.986 Q1820.23 689.09 1820.23 683.316 Q1820.23 677.523 1818.75 674.645 Q1817.28 671.749 1814.33 671.749 M1814.33 668.74 Q1819.05 668.74 1821.53 672.482 Q1824.03 676.206 1824.03 683.316 Q1824.03 690.406 1821.53 694.149 Q1819.05 697.873 1814.33 697.873 Q1809.61 697.873 1807.1 694.149 Q1804.62 690.406 1804.62 683.316 Q1804.62 676.206 1807.1 672.482 Q1809.61 668.74 1814.33 668.74 Z" fill="#000000" fill-rule="evenodd" fill-opacity="1" /><path clip-path="url(#clip390)" d="M 0 0 M1830.71 692.55 L1834.68 692.55 L1834.68 697.327 L1830.71 697.327 L1830.71 692.55 Z" fill="#000000" fill-rule="evenodd" fill-opacity="1" /><path clip-path="url(#clip390)" d="M 0 0 M1846.22 694.13 L1859.48 694.13 L1859.48 697.327 L1841.65 697.327 L1841.65 694.13 Q1843.82 691.892 1847.54 688.13 Q1851.28 684.35 1852.24 683.259 Q1854.07 681.209 1854.78 679.799 Q1855.52 678.369 1855.52 676.996 Q1855.52 674.758 1853.94 673.348 Q1852.37 671.937 1849.85 671.937 Q1848.07 671.937 1846.07 672.558 Q1844.1 673.178 1841.84 674.438 L1841.84 670.602 Q1844.14 669.68 1846.13 669.21 Q1848.12 668.74 1849.78 668.74 Q1854.14 668.74 1856.74 670.921 Q1859.33 673.103 1859.33 676.752 Q1859.33 678.482 1858.67 680.043 Q1858.04 681.585 1856.32 683.692 Q1855.85 684.237 1853.33 686.852 Q1850.81 689.447 1846.22 694.13 Z" fill="#000000" fill-rule="evenodd" fill-opacity="1" /><path clip-path="url(#clip390)" d="M 0 0 M1867.5 669.247 L1882.41 669.247 L1882.41 672.445 L1870.98 672.445 L1870.98 679.328 Q1871.8 679.046 1872.63 678.915 Q1873.46 678.764 1874.29 678.764 Q1878.99 678.764 1881.73 681.341 Q1884.48 683.918 1884.48 688.319 Q1884.48 692.851 1881.66 695.371 Q1878.84 697.873 1873.7 697.873 Q1871.93 697.873 1870.09 697.572 Q1868.27 697.271 1866.31 696.669 L1866.31 692.851 Q1868 693.773 1869.81 694.224 Q1871.61 694.676 1873.63 694.676 Q1876.88 694.676 1878.78 692.964 Q1880.68 691.253 1880.68 688.319 Q1880.68 685.385 1878.78 683.673 Q1876.88 681.962 1873.63 681.962 Q1872.1 681.962 1870.58 682.3 Q1869.08 682.639 1867.5 683.353 L1867.5 669.247 Z" fill="#000000" fill-rule="evenodd" fill-opacity="1" /><path clip-path="url(#clip390)" d="M 0 0 M2228.23 720.803 L2235.87 720.803 L2235.87 694.437 L2227.56 696.104 L2227.56 691.845 L2235.82 690.178 L2240.5 690.178 L2240.5 720.803 L2248.14 720.803 L2248.14 724.738 L2228.23 724.738 L2228.23 720.803 Z" fill="#000000" fill-rule="evenodd" fill-opacity="1" /><path clip-path="url(#clip390)" d="M 0 0 M2267.58 693.257 Q2263.97 693.257 2262.14 696.821 Q2260.34 700.363 2260.34 707.493 Q2260.34 714.599 2262.14 718.164 Q2263.97 721.705 2267.58 721.705 Q2271.22 721.705 2273.02 718.164 Q2274.85 714.599 2274.85 707.493 Q2274.85 700.363 2273.02 696.821 Q2271.22 693.257 2267.58 693.257 M2267.58 689.553 Q2273.39 689.553 2276.45 694.159 Q2279.53 698.743 2279.53 707.493 Q2279.53 716.219 2276.45 720.826 Q2273.39 725.409 2267.58 725.409 Q2261.77 725.409 2258.69 720.826 Q2255.64 716.219 2255.64 707.493 Q2255.64 698.743 2258.69 694.159 Q2261.77 689.553 2267.58 689.553 Z" fill="#000000" fill-rule="evenodd" fill-opacity="1" /><path clip-path="url(#clip390)" d="M 0 0 M2289.23 671.749 Q2286.3 671.749 2284.81 674.645 Q2283.34 677.523 2283.34 683.316 Q2283.34 689.09 2284.81 691.986 Q2286.3 694.864 2289.23 694.864 Q2292.18 694.864 2293.65 691.986 Q2295.14 689.09 2295.14 683.316 Q2295.14 677.523 2293.65 674.645 Q2292.18 671.749 2289.23 671.749 M2289.23 668.74 Q2293.95 668.74 2296.43 672.482 Q2298.93 676.206 2298.93 683.316 Q2298.93 690.406 2296.43 694.149 Q2293.95 697.873 2289.23 697.873 Q2284.51 697.873 2282.01 694.149 Q2279.53 690.406 2279.53 683.316 Q2279.53 676.206 2282.01 672.482 Q2284.51 668.74 2289.23 668.74 Z" fill="#000000" fill-rule="evenodd" fill-opacity="1" /><path clip-path="url(#clip390)" d="M 0 0 M2305.61 692.55 L2309.58 692.55 L2309.58 697.327 L2305.61 697.327 L2305.61 692.55 Z" fill="#000000" fill-rule="evenodd" fill-opacity="1" /><path clip-path="url(#clip390)" d="M 0 0 M2325.98 671.749 Q2323.05 671.749 2321.56 674.645 Q2320.09 677.523 2320.09 683.316 Q2320.09 689.09 2321.56 691.986 Q2323.05 694.864 2325.98 694.864 Q2328.93 694.864 2330.4 691.986 Q2331.89 689.09 2331.89 683.316 Q2331.89 677.523 2330.4 674.645 Q2328.93 671.749 2325.98 671.749 M2325.98 668.74 Q2330.7 668.74 2333.18 672.482 Q2335.69 676.206 2335.69 683.316 Q2335.69 690.406 2333.18 694.149 Q2330.7 697.873 2325.98 697.873 Q2321.26 697.873 2318.76 694.149 Q2316.28 690.406 2316.28 683.316 Q2316.28 676.206 2318.76 672.482 Q2321.26 668.74 2325.98 668.74 Z" fill="#000000" fill-rule="evenodd" fill-opacity="1" /><path clip-path="url(#clip390)" d="M 0 0 M2350.49 671.749 Q2347.55 671.749 2346.07 674.645 Q2344.6 677.523 2344.6 683.316 Q2344.6 689.09 2346.07 691.986 Q2347.55 694.864 2350.49 694.864 Q2353.44 694.864 2354.91 691.986 Q2356.39 689.09 2356.39 683.316 Q2356.39 677.523 2354.91 674.645 Q2353.44 671.749 2350.49 671.749 M2350.49 668.74 Q2355.21 668.74 2357.69 672.482 Q2360.19 676.206 2360.19 683.316 Q2360.19 690.406 2357.69 694.149 Q2355.21 697.873 2350.49 697.873 Q2345.77 697.873 2343.26 694.149 Q2340.78 690.406 2340.78 683.316 Q2340.78 676.206 2343.26 672.482 Q2345.77 668.74 2350.49 668.74 Z" fill="#000000" fill-rule="evenodd" fill-opacity="1" /><polyline clip-path="url(#clip392)" style="stroke:#000000; stroke-width:2; stroke-opacity:0.1; fill:none" points="
  272.297,618.839 2352.76,618.839 
  "/>
<polyline clip-path="url(#clip392)" style="stroke:#000000; stroke-width:2; stroke-opacity:0.1; fill:none" points="
  272.297,521.578 2352.76,521.578 
  "/>
<polyline clip-path="url(#clip392)" style="stroke:#000000; stroke-width:2; stroke-opacity:0.1; fill:none" points="
  272.297,424.316 2352.76,424.316 
  "/>
<polyline clip-path="url(#clip392)" style="stroke:#000000; stroke-width:2; stroke-opacity:0.1; fill:none" points="
  272.297,327.055 2352.76,327.055 
  "/>
<polyline clip-path="url(#clip392)" style="stroke:#000000; stroke-width:2; stroke-opacity:0.1; fill:none" points="
  272.297,229.793 2352.76,229.793 
  "/>
<polyline clip-path="url(#clip392)" style="stroke:#000000; stroke-width:2; stroke-opacity:0.1; fill:none" points="
  272.297,132.532 2352.76,132.532 
  "/>
<polyline clip-path="url(#clip390)" style="stroke:#000000; stroke-width:4; stroke-opacity:1; fill:none" points="
  272.297,642.531 272.297,47.2441 
  "/>
<polyline clip-path="url(#clip390)" style="stroke:#000000; stroke-width:4; stroke-opacity:1; fill:none" points="
  272.297,618.839 297.262,618.839 
  "/>
<polyline clip-path="url(#clip390)" style="stroke:#000000; stroke-width:4; stroke-opacity:1; fill:none" points="
  272.297,521.578 297.262,521.578 
  "/>
<polyline clip-path="url(#clip390)" style="stroke:#000000; stroke-width:4; stroke-opacity:1; fill:none" points="
  272.297,424.316 297.262,424.316 
  "/>
<polyline clip-path="url(#clip390)" style="stroke:#000000; stroke-width:4; stroke-opacity:1; fill:none" points="
  272.297,327.055 297.262,327.055 
  "/>
<polyline clip-path="url(#clip390)" style="stroke:#000000; stroke-width:4; stroke-opacity:1; fill:none" points="
  272.297,229.793 297.262,229.793 
  "/>
<polyline clip-path="url(#clip390)" style="stroke:#000000; stroke-width:4; stroke-opacity:1; fill:none" points="
  272.297,132.532 297.262,132.532 
  "/>
<polyline clip-path="url(#clip390)" style="stroke:#000000; stroke-width:4; stroke-opacity:1; fill:none" points="
  272.297,636.582 284.779,636.582 
  "/>
<polyline clip-path="url(#clip390)" style="stroke:#000000; stroke-width:4; stroke-opacity:1; fill:none" points="
  272.297,597.513 284.779,597.513 
  "/>
<polyline clip-path="url(#clip390)" style="stroke:#000000; stroke-width:4; stroke-opacity:1; fill:none" points="
  272.297,577.211 284.779,577.211 
  "/>
<polyline clip-path="url(#clip390)" style="stroke:#000000; stroke-width:4; stroke-opacity:1; fill:none" points="
  272.297,557.841 284.779,557.841 
  "/>
<polyline clip-path="url(#clip390)" style="stroke:#000000; stroke-width:4; stroke-opacity:1; fill:none" points="
  272.297,539.32 284.779,539.32 
  "/>
<polyline clip-path="url(#clip390)" style="stroke:#000000; stroke-width:4; stroke-opacity:1; fill:none" points="
  272.297,500.251 284.779,500.251 
  "/>
<polyline clip-path="url(#clip390)" style="stroke:#000000; stroke-width:4; stroke-opacity:1; fill:none" points="
  272.297,479.95 284.779,479.95 
  "/>
<polyline clip-path="url(#clip390)" style="stroke:#000000; stroke-width:4; stroke-opacity:1; fill:none" points="
  272.297,460.58 284.779,460.58 
  "/>
<polyline clip-path="url(#clip390)" style="stroke:#000000; stroke-width:4; stroke-opacity:1; fill:none" points="
  272.297,442.059 284.779,442.059 
  "/>
<polyline clip-path="url(#clip390)" style="stroke:#000000; stroke-width:4; stroke-opacity:1; fill:none" points="
  272.297,402.99 284.779,402.99 
  "/>
<polyline clip-path="url(#clip390)" style="stroke:#000000; stroke-width:4; stroke-opacity:1; fill:none" points="
  272.297,382.688 284.779,382.688 
  "/>
<polyline clip-path="url(#clip390)" style="stroke:#000000; stroke-width:4; stroke-opacity:1; fill:none" points="
  272.297,363.318 284.779,363.318 
  "/>
<polyline clip-path="url(#clip390)" style="stroke:#000000; stroke-width:4; stroke-opacity:1; fill:none" points="
  272.297,344.797 284.779,344.797 
  "/>
<polyline clip-path="url(#clip390)" style="stroke:#000000; stroke-width:4; stroke-opacity:1; fill:none" points="
  272.297,305.728 284.779,305.728 
  "/>
<polyline clip-path="url(#clip390)" style="stroke:#000000; stroke-width:4; stroke-opacity:1; fill:none" points="
  272.297,285.427 284.779,285.427 
  "/>
<polyline clip-path="url(#clip390)" style="stroke:#000000; stroke-width:4; stroke-opacity:1; fill:none" points="
  272.297,266.057 284.779,266.057 
  "/>
<polyline clip-path="url(#clip390)" style="stroke:#000000; stroke-width:4; stroke-opacity:1; fill:none" points="
  272.297,247.536 284.779,247.536 
  "/>
<polyline clip-path="url(#clip390)" style="stroke:#000000; stroke-width:4; stroke-opacity:1; fill:none" points="
  272.297,208.467 284.779,208.467 
  "/>
<polyline clip-path="url(#clip390)" style="stroke:#000000; stroke-width:4; stroke-opacity:1; fill:none" points="
  272.297,188.165 284.779,188.165 
  "/>
<polyline clip-path="url(#clip390)" style="stroke:#000000; stroke-width:4; stroke-opacity:1; fill:none" points="
  272.297,168.795 284.779,168.795 
  "/>
<polyline clip-path="url(#clip390)" style="stroke:#000000; stroke-width:4; stroke-opacity:1; fill:none" points="
  272.297,150.274 284.779,150.274 
  "/>
<polyline clip-path="url(#clip390)" style="stroke:#000000; stroke-width:4; stroke-opacity:1; fill:none" points="
  272.297,111.205 284.779,111.205 
  "/>
<polyline clip-path="url(#clip390)" style="stroke:#000000; stroke-width:4; stroke-opacity:1; fill:none" points="
  272.297,90.9038 284.779,90.9038 
  "/>
<polyline clip-path="url(#clip390)" style="stroke:#000000; stroke-width:4; stroke-opacity:1; fill:none" points="
  272.297,71.5336 284.779,71.5336 
  "/>
<polyline clip-path="url(#clip390)" style="stroke:#000000; stroke-width:4; stroke-opacity:1; fill:none" points="
  272.297,53.0128 284.779,53.0128 
  "/>
<path clip-path="url(#clip390)" d="M 0 0 M131.53 638.632 L139.169 638.632 L139.169 612.266 L130.859 613.933 L130.859 609.673 L139.123 608.007 L143.798 608.007 L143.798 638.632 L151.437 638.632 L151.437 642.567 L131.53 642.567 L131.53 638.632 Z" fill="#000000" fill-rule="evenodd" fill-opacity="1" /><path clip-path="url(#clip390)" d="M 0 0 M170.882 611.085 Q167.271 611.085 165.442 614.65 Q163.636 618.192 163.636 625.321 Q163.636 632.428 165.442 635.993 Q167.271 639.534 170.882 639.534 Q174.516 639.534 176.321 635.993 Q178.15 632.428 178.15 625.321 Q178.15 618.192 176.321 614.65 Q174.516 611.085 170.882 611.085 M170.882 607.382 Q176.692 607.382 179.747 611.988 Q182.826 616.571 182.826 625.321 Q182.826 634.048 179.747 638.655 Q176.692 643.238 170.882 643.238 Q165.072 643.238 161.993 638.655 Q158.937 634.048 158.937 625.321 Q158.937 616.571 161.993 611.988 Q165.072 607.382 170.882 607.382 Z" fill="#000000" fill-rule="evenodd" fill-opacity="1" /><path clip-path="url(#clip390)" d="M 0 0 M183.371 611.959 L189.578 611.959 L189.578 590.537 L182.826 591.891 L182.826 588.43 L189.54 587.076 L193.34 587.076 L193.34 611.959 L199.546 611.959 L199.546 615.156 L183.371 615.156 L183.371 611.959 Z" fill="#000000" fill-rule="evenodd" fill-opacity="1" /><path clip-path="url(#clip390)" d="M 0 0 M207.22 610.379 L211.188 610.379 L211.188 615.156 L207.22 615.156 L207.22 610.379 Z" fill="#000000" fill-rule="evenodd" fill-opacity="1" /><path clip-path="url(#clip390)" d="M 0 0 M220.122 611.959 L226.328 611.959 L226.328 590.537 L219.576 591.891 L219.576 588.43 L226.291 587.076 L230.09 587.076 L230.09 611.959 L236.297 611.959 L236.297 615.156 L220.122 615.156 L220.122 611.959 Z" fill="#000000" fill-rule="evenodd" fill-opacity="1" /><path clip-path="url(#clip390)" d="M 0 0 M131.831 541.37 L139.47 541.37 L139.47 515.004 L131.16 516.671 L131.16 512.412 L139.424 510.745 L144.099 510.745 L144.099 541.37 L151.738 541.37 L151.738 545.305 L131.831 545.305 L131.831 541.37 Z" fill="#000000" fill-rule="evenodd" fill-opacity="1" /><path clip-path="url(#clip390)" d="M 0 0 M171.183 513.824 Q167.572 513.824 165.743 517.389 Q163.937 520.93 163.937 528.06 Q163.937 535.166 165.743 538.731 Q167.572 542.273 171.183 542.273 Q174.817 542.273 176.622 538.731 Q178.451 535.166 178.451 528.06 Q178.451 520.93 176.622 517.389 Q174.817 513.824 171.183 513.824 M171.183 510.12 Q176.993 510.12 180.048 514.727 Q183.127 519.31 183.127 528.06 Q183.127 536.787 180.048 541.393 Q176.993 545.977 171.183 545.977 Q165.372 545.977 162.294 541.393 Q159.238 536.787 159.238 528.06 Q159.238 519.31 162.294 514.727 Q165.372 510.12 171.183 510.12 Z" fill="#000000" fill-rule="evenodd" fill-opacity="1" /><path clip-path="url(#clip390)" d="M 0 0 M183.672 514.697 L189.879 514.697 L189.879 493.275 L183.127 494.63 L183.127 491.169 L189.841 489.815 L193.641 489.815 L193.641 514.697 L199.847 514.697 L199.847 517.895 L183.672 517.895 L183.672 514.697 Z" fill="#000000" fill-rule="evenodd" fill-opacity="1" /><path clip-path="url(#clip390)" d="M 0 0 M207.521 513.118 L211.489 513.118 L211.489 517.895 L207.521 517.895 L207.521 513.118 Z" fill="#000000" fill-rule="evenodd" fill-opacity="1" /><path clip-path="url(#clip390)" d="M 0 0 M223.037 514.697 L236.297 514.697 L236.297 517.895 L218.467 517.895 L218.467 514.697 Q220.63 512.459 224.354 508.698 Q228.096 504.917 229.056 503.827 Q230.88 501.777 231.595 500.366 Q232.328 498.937 232.328 497.564 Q232.328 495.325 230.748 493.915 Q229.187 492.504 226.667 492.504 Q224.88 492.504 222.887 493.125 Q220.912 493.746 218.655 495.006 L218.655 491.169 Q220.949 490.247 222.943 489.777 Q224.937 489.307 226.592 489.307 Q230.955 489.307 233.551 491.489 Q236.146 493.67 236.146 497.319 Q236.146 499.049 235.488 500.61 Q234.848 502.153 233.137 504.259 Q232.667 504.805 230.146 507.419 Q227.626 510.014 223.037 514.697 Z" fill="#000000" fill-rule="evenodd" fill-opacity="1" /><path clip-path="url(#clip390)" d="M 0 0 M131.06 444.109 L138.699 444.109 L138.699 417.743 L130.389 419.41 L130.389 415.15 L138.652 413.484 L143.328 413.484 L143.328 444.109 L150.967 444.109 L150.967 448.044 L131.06 448.044 L131.06 444.109 Z" fill="#000000" fill-rule="evenodd" fill-opacity="1" /><path clip-path="url(#clip390)" d="M 0 0 M170.411 416.562 Q166.8 416.562 164.972 420.127 Q163.166 423.669 163.166 430.798 Q163.166 437.905 164.972 441.47 Q166.8 445.011 170.411 445.011 Q174.046 445.011 175.851 441.47 Q177.68 437.905 177.68 430.798 Q177.68 423.669 175.851 420.127 Q174.046 416.562 170.411 416.562 M170.411 412.859 Q176.222 412.859 179.277 417.465 Q182.356 422.048 182.356 430.798 Q182.356 439.525 179.277 444.132 Q176.222 448.715 170.411 448.715 Q164.601 448.715 161.523 444.132 Q158.467 439.525 158.467 430.798 Q158.467 422.048 161.523 417.465 Q164.601 412.859 170.411 412.859 Z" fill="#000000" fill-rule="evenodd" fill-opacity="1" /><path clip-path="url(#clip390)" d="M 0 0 M182.901 417.436 L189.108 417.436 L189.108 396.014 L182.356 397.368 L182.356 393.907 L189.07 392.553 L192.869 392.553 L192.869 417.436 L199.076 417.436 L199.076 420.633 L182.901 420.633 L182.901 417.436 Z" fill="#000000" fill-rule="evenodd" fill-opacity="1" /><path clip-path="url(#clip390)" d="M 0 0 M206.75 415.856 L210.718 415.856 L210.718 420.633 L206.75 420.633 L206.75 415.856 Z" fill="#000000" fill-rule="evenodd" fill-opacity="1" /><path clip-path="url(#clip390)" d="M 0 0 M230.504 405.493 Q233.231 406.076 234.754 407.919 Q236.297 409.762 236.297 412.471 Q236.297 416.627 233.438 418.903 Q230.579 421.179 225.313 421.179 Q223.545 421.179 221.664 420.821 Q219.802 420.483 217.809 419.787 L217.809 416.119 Q219.388 417.041 221.269 417.511 Q223.15 417.981 225.2 417.981 Q228.773 417.981 230.635 416.571 Q232.516 415.16 232.516 412.471 Q232.516 409.988 230.767 408.596 Q229.037 407.186 225.933 407.186 L222.661 407.186 L222.661 404.064 L226.084 404.064 Q228.886 404.064 230.372 402.954 Q231.858 401.826 231.858 399.719 Q231.858 397.556 230.316 396.409 Q228.792 395.243 225.933 395.243 Q224.372 395.243 222.586 395.581 Q220.799 395.92 218.655 396.635 L218.655 393.249 Q220.818 392.647 222.699 392.346 Q224.598 392.046 226.272 392.046 Q230.598 392.046 233.118 394.02 Q235.638 395.976 235.638 399.324 Q235.638 401.656 234.303 403.274 Q232.968 404.872 230.504 405.493 Z" fill="#000000" fill-rule="evenodd" fill-opacity="1" /><path clip-path="url(#clip390)" d="M 0 0 M130.138 346.847 L137.777 346.847 L137.777 320.481 L129.467 322.148 L129.467 317.889 L137.731 316.222 L142.407 316.222 L142.407 346.847 L150.046 346.847 L150.046 350.782 L130.138 350.782 L130.138 346.847 Z" fill="#000000" fill-rule="evenodd" fill-opacity="1" /><path clip-path="url(#clip390)" d="M 0 0 M169.49 319.301 Q165.879 319.301 164.05 322.866 Q162.245 326.407 162.245 333.537 Q162.245 340.643 164.05 344.208 Q165.879 347.75 169.49 347.75 Q173.124 347.75 174.93 344.208 Q176.758 340.643 176.758 333.537 Q176.758 326.407 174.93 322.866 Q173.124 319.301 169.49 319.301 M169.49 315.597 Q175.3 315.597 178.356 320.204 Q181.434 324.787 181.434 333.537 Q181.434 342.264 178.356 346.87 Q175.3 351.454 169.49 351.454 Q163.68 351.454 160.601 346.87 Q157.546 342.264 157.546 333.537 Q157.546 324.787 160.601 320.204 Q163.68 315.597 169.49 315.597 Z" fill="#000000" fill-rule="evenodd" fill-opacity="1" /><path clip-path="url(#clip390)" d="M 0 0 M181.98 320.175 L188.186 320.175 L188.186 298.752 L181.434 300.107 L181.434 296.646 L188.149 295.292 L191.948 295.292 L191.948 320.175 L198.154 320.175 L198.154 323.372 L181.98 323.372 L181.98 320.175 Z" fill="#000000" fill-rule="evenodd" fill-opacity="1" /><path clip-path="url(#clip390)" d="M 0 0 M205.828 318.595 L209.796 318.595 L209.796 323.372 L205.828 323.372 L205.828 318.595 Z" fill="#000000" fill-rule="evenodd" fill-opacity="1" /><path clip-path="url(#clip390)" d="M 0 0 M228.51 298.602 L218.918 313.592 L228.51 313.592 L228.51 298.602 M227.513 295.292 L232.29 295.292 L232.29 313.592 L236.297 313.592 L236.297 316.751 L232.29 316.751 L232.29 323.372 L228.51 323.372 L228.51 316.751 L215.834 316.751 L215.834 313.084 L227.513 295.292 Z" fill="#000000" fill-rule="evenodd" fill-opacity="1" /><path clip-path="url(#clip390)" d="M 0 0 M131.342 249.586 L138.981 249.586 L138.981 223.22 L130.671 224.887 L130.671 220.627 L138.935 218.961 L143.61 218.961 L143.61 249.586 L151.249 249.586 L151.249 253.521 L131.342 253.521 L131.342 249.586 Z" fill="#000000" fill-rule="evenodd" fill-opacity="1" /><path clip-path="url(#clip390)" d="M 0 0 M170.694 222.039 Q167.083 222.039 165.254 225.604 Q163.448 229.146 163.448 236.275 Q163.448 243.382 165.254 246.947 Q167.083 250.488 170.694 250.488 Q174.328 250.488 176.133 246.947 Q177.962 243.382 177.962 236.275 Q177.962 229.146 176.133 225.604 Q174.328 222.039 170.694 222.039 M170.694 218.336 Q176.504 218.336 179.559 222.942 Q182.638 227.525 182.638 236.275 Q182.638 245.002 179.559 249.609 Q176.504 254.192 170.694 254.192 Q164.883 254.192 161.805 249.609 Q158.749 245.002 158.749 236.275 Q158.749 227.525 161.805 222.942 Q164.883 218.336 170.694 218.336 Z" fill="#000000" fill-rule="evenodd" fill-opacity="1" /><path clip-path="url(#clip390)" d="M 0 0 M183.183 222.913 L189.39 222.913 L189.39 201.491 L182.638 202.845 L182.638 199.384 L189.352 198.03 L193.152 198.03 L193.152 222.913 L199.358 222.913 L199.358 226.11 L183.183 226.11 L183.183 222.913 Z" fill="#000000" fill-rule="evenodd" fill-opacity="1" /><path clip-path="url(#clip390)" d="M 0 0 M207.032 221.333 L211 221.333 L211 226.11 L207.032 226.11 L207.032 221.333 Z" fill="#000000" fill-rule="evenodd" fill-opacity="1" /><path clip-path="url(#clip390)" d="M 0 0 M219.313 198.03 L234.228 198.03 L234.228 201.228 L222.793 201.228 L222.793 208.111 Q223.62 207.829 224.448 207.698 Q225.275 207.547 226.103 207.547 Q230.805 207.547 233.551 210.124 Q236.297 212.7 236.297 217.101 Q236.297 221.634 233.475 224.154 Q230.654 226.656 225.52 226.656 Q223.752 226.656 221.909 226.355 Q220.084 226.054 218.128 225.452 L218.128 221.634 Q219.821 222.556 221.626 223.007 Q223.432 223.458 225.444 223.458 Q228.698 223.458 230.598 221.747 Q232.497 220.035 232.497 217.101 Q232.497 214.167 230.598 212.456 Q228.698 210.744 225.444 210.744 Q223.921 210.744 222.398 211.083 Q220.893 211.421 219.313 212.136 L219.313 198.03 Z" fill="#000000" fill-rule="evenodd" fill-opacity="1" /><path clip-path="url(#clip390)" d="M 0 0 M130.402 152.324 L138.04 152.324 L138.04 125.958 L129.73 127.625 L129.73 123.366 L137.994 121.699 L142.67 121.699 L142.67 152.324 L150.309 152.324 L150.309 156.259 L130.402 156.259 L130.402 152.324 Z" fill="#000000" fill-rule="evenodd" fill-opacity="1" /><path clip-path="url(#clip390)" d="M 0 0 M169.753 124.778 Q166.142 124.778 164.313 128.343 Q162.508 131.884 162.508 139.014 Q162.508 146.12 164.313 149.685 Q166.142 153.227 169.753 153.227 Q173.387 153.227 175.193 149.685 Q177.022 146.12 177.022 139.014 Q177.022 131.884 175.193 128.343 Q173.387 124.778 169.753 124.778 M169.753 121.074 Q175.563 121.074 178.619 125.681 Q181.698 130.264 181.698 139.014 Q181.698 147.741 178.619 152.347 Q175.563 156.931 169.753 156.931 Q163.943 156.931 160.864 152.347 Q157.809 147.741 157.809 139.014 Q157.809 130.264 160.864 125.681 Q163.943 121.074 169.753 121.074 Z" fill="#000000" fill-rule="evenodd" fill-opacity="1" /><path clip-path="url(#clip390)" d="M 0 0 M182.243 125.652 L188.45 125.652 L188.45 104.229 L181.698 105.584 L181.698 102.123 L188.412 100.769 L192.211 100.769 L192.211 125.652 L198.418 125.652 L198.418 128.849 L182.243 128.849 L182.243 125.652 Z" fill="#000000" fill-rule="evenodd" fill-opacity="1" /><path clip-path="url(#clip390)" d="M 0 0 M206.091 124.072 L210.06 124.072 L210.06 128.849 L206.091 128.849 L206.091 124.072 Z" fill="#000000" fill-rule="evenodd" fill-opacity="1" /><path clip-path="url(#clip390)" d="M 0 0 M226.93 113.295 Q224.372 113.295 222.868 115.044 Q221.382 116.793 221.382 119.84 Q221.382 122.868 222.868 124.636 Q224.372 126.385 226.93 126.385 Q229.488 126.385 230.974 124.636 Q232.479 122.868 232.479 119.84 Q232.479 116.793 230.974 115.044 Q229.488 113.295 226.93 113.295 M234.472 101.389 L234.472 104.85 Q233.043 104.173 231.576 103.816 Q230.128 103.458 228.698 103.458 Q224.937 103.458 222.943 105.997 Q220.968 108.536 220.686 113.671 Q221.796 112.035 223.47 111.17 Q225.144 110.286 227.156 110.286 Q231.388 110.286 233.833 112.862 Q236.297 115.42 236.297 119.84 Q236.297 124.166 233.739 126.78 Q231.181 129.394 226.93 129.394 Q222.059 129.394 219.482 125.67 Q216.906 121.928 216.906 114.837 Q216.906 108.179 220.065 104.229 Q223.225 100.261 228.548 100.261 Q229.977 100.261 231.425 100.543 Q232.892 100.825 234.472 101.389 Z" fill="#000000" fill-rule="evenodd" fill-opacity="1" /><path clip-path="url(#clip390)" d="M 0 0 M56.931 362.504 Q57.6312 360.436 59.9229 358.494 Q62.2145 356.521 66.2249 354.547 L79.211 348.022 L79.211 354.929 L67.0206 361.009 Q62.2464 363.364 60.6868 365.592 Q59.1272 367.788 59.1272 371.607 L59.1272 378.61 L79.211 378.61 L79.211 385.039 L31.691 385.039 L31.691 370.525 Q31.691 362.377 35.0966 358.367 Q38.5023 354.356 45.3772 354.356 Q49.8651 354.356 52.8251 356.457 Q55.7852 358.526 56.931 362.504 M36.9745 378.61 L53.8436 378.61 L53.8436 370.525 Q53.8436 365.878 51.7111 363.523 Q49.5468 361.136 45.3772 361.136 Q41.2077 361.136 39.107 363.523 Q36.9745 365.878 36.9745 370.525 L36.9745 378.61 Z" fill="#000000" fill-rule="evenodd" fill-opacity="1" /><path clip-path="url(#clip390)" d="M 0 0 M38.0248 326.506 L61.6734 335.227 L61.6734 317.754 L38.0248 326.506 M31.691 330.135 L31.691 322.846 L79.211 304.736 L79.211 311.42 L67.0206 315.748 L67.0206 337.169 L79.211 341.498 L79.211 348.277 L31.691 330.135 Z" fill="#000000" fill-rule="evenodd" fill-opacity="1" /><polyline clip-path="url(#clip392)" style="stroke:#009af9; stroke-width:8; stroke-opacity:1; fill:none" points="
  331.177,64.0918 350.345,65.2874 527.575,78.8238 634.082,89.4911 724.133,100.279 821.954,114.065 912.136,128.869 1008.82,147.145 1120.84,171.603 1220.39,196.381 
  1307.68,220.467 1402.86,249.177 1498.6,280.516 1604.45,317.829 1705.17,355.682 1809.89,397.186 1898.05,433.601 2005.67,479.628 2106.85,524.222 2268.93,597.807 
  2293.87,609.326 
  "/>
<polyline clip-path="url(#clip392)" style="stroke:#ff0000; stroke-width:4; stroke-opacity:1; fill:none" points="
  331.177,466.042 1974.28,466.042 1974.28,625.683 
  "/>
<path clip-path="url(#clip390)" d="M 0 0 M2013.99 458.906 Q2013.99 461.161 2012.76 466.138 Q2011.53 471.115 2010.03 474.511 Q2006.84 481.889 2001.34 481.889 Q2000.66 481.889 1999.99 481.831 Q1999.35 481.772 1998.38 481.509 Q1997.41 481.245 1996.62 480.835 Q1995.83 480.396 1995.04 479.577 Q1994.28 478.757 1993.84 477.673 Q1991.41 481.889 1987.61 481.889 Q1983.92 481.889 1981.49 480.016 Q1979.09 478.142 1979.09 474.306 Q1979.09 472.579 1979.79 470.032 Q1980.49 467.485 1982.45 462.215 Q1983.54 459.492 1983.54 457.999 Q1983.54 457.325 1983.39 456.886 Q1983.24 456.447 1982.95 456.3 Q1982.69 456.125 1982.51 456.096 Q1982.34 456.037 1982.04 456.037 Q1980.29 456.037 1978.71 457.823 Q1977.12 459.58 1975.98 463.474 Q1975.75 464.206 1975.6 464.381 Q1975.46 464.557 1975.02 464.557 Q1974.28 464.528 1974.28 463.942 Q1974.28 463.708 1974.55 462.8 Q1974.81 461.863 1975.43 460.487 Q1976.07 459.082 1976.95 457.823 Q1977.83 456.535 1979.2 455.627 Q1980.61 454.719 1982.22 454.719 Q1984.39 454.719 1985.76 456.154 Q1987.14 457.589 1987.14 459.638 Q1987.14 460.224 1986.99 460.868 Q1986.85 461.483 1986.7 461.893 Q1986.58 462.273 1986.11 463.474 Q1984.18 468.539 1983.57 470.969 Q1982.98 473.399 1982.98 475.097 Q1982.98 475.653 1983.01 476.092 Q1983.04 476.532 1983.27 477.439 Q1983.54 478.347 1984.01 478.962 Q1984.47 479.547 1985.44 480.045 Q1986.44 480.543 1987.78 480.543 Q1991.15 480.543 1993.32 475.507 Q1993.26 475.214 1993.26 474.453 Q1993.26 472.755 1993.78 470.471 Q1993.93 469.944 1994.78 466.577 Q1995.63 463.181 1996.36 460.224 Q1997.12 457.237 1997.21 457.062 Q1997.5 456.242 1998.15 455.803 Q1998.79 455.364 1999.43 455.364 Q2000.17 455.364 2000.66 455.803 Q2001.16 456.242 2001.16 457.003 Q2001.16 457.15 2000.99 457.823 Q2000.84 458.467 2000.61 459.433 Q2000.37 460.399 2000.25 460.897 L1997.74 470.969 Q1997.09 473.311 1997.09 475.331 Q1997.09 477.878 1998.23 479.225 Q1999.38 480.543 2001.51 480.543 Q2005.52 480.543 2008.1 475.273 Q2009.27 472.989 2010.33 469.417 Q2011.41 465.845 2011.41 464.293 Q2011.41 461.366 2009.24 459.199 Q2008.77 458.789 2008.57 458.467 Q2008.36 458.116 2008.36 457.589 Q2008.36 456.593 2009.3 455.656 Q2010.24 454.719 2011.35 454.719 Q2012.35 454.719 2013.17 455.715 Q2013.99 456.681 2013.99 458.906 Z" fill="#000000" fill-rule="evenodd" fill-opacity="1" /><path clip-path="url(#clip390)" d="M 0 0 M2036.17 488.056 Q2036.33 488.24 2036.33 488.425 Q2036.33 488.609 2035.92 489.142 Q2035.53 489.675 2034.69 490.392 Q2033.85 491.109 2032.77 491.786 Q2031.68 492.462 2030.08 492.913 Q2028.48 493.384 2026.8 493.384 Q2023.67 493.384 2021.82 491.314 Q2020 489.244 2020 486.273 Q2020 483.383 2021.62 480.616 Q2023.24 477.829 2025.86 476.107 Q2028.48 474.365 2031.25 474.365 Q2033.44 474.365 2034.82 475.39 Q2036.19 476.415 2036.19 477.972 Q2036.19 479.182 2035.49 479.919 Q2034.79 480.657 2033.85 480.657 Q2033.2 480.657 2032.75 480.288 Q2032.29 479.899 2032.29 479.182 Q2032.29 478.259 2033.05 477.542 Q2033.34 477.255 2033.67 477.132 Q2034.02 476.989 2034.22 476.989 Q2034.43 476.968 2034.9 476.968 Q2034.47 476.169 2033.44 475.738 Q2032.44 475.288 2031.29 475.288 Q2029.59 475.288 2027.97 476.476 Q2026.35 477.644 2025.37 479.489 Q2024.38 481.293 2023.75 483.854 Q2023.11 486.396 2023.11 487.871 Q2023.11 489.9 2024.06 491.171 Q2025 492.442 2026.88 492.442 Q2027.25 492.442 2027.64 492.421 Q2028.05 492.401 2029.08 492.175 Q2030.12 491.95 2031.04 491.56 Q2031.97 491.171 2033.13 490.331 Q2034.32 489.47 2035.27 488.302 Q2035.59 487.871 2035.82 487.871 Q2036 487.871 2036.17 488.056 Z" fill="#000000" fill-rule="evenodd" fill-opacity="1" /><path clip-path="url(#clip390)" d="M 0 0 M2055.96 481.456 Q2055.96 483.69 2054.97 485.904 Q2053.99 488.097 2052.41 489.736 Q2050.85 491.355 2048.8 492.38 Q2046.75 493.384 2044.71 493.384 Q2041.77 493.384 2039.87 491.396 Q2037.98 489.388 2037.98 486.273 Q2037.98 483.362 2039.6 480.596 Q2041.24 477.808 2043.86 476.087 Q2046.49 474.365 2049.23 474.365 Q2052.12 474.365 2054.03 476.312 Q2055.96 478.259 2055.96 481.456 M2052.88 479.817 Q2052.88 477.829 2051.92 476.558 Q2050.96 475.288 2049.19 475.288 Q2048.68 475.288 2048.09 475.452 Q2047.49 475.595 2046.71 475.984 Q2045.96 476.374 2045.09 477.194 Q2044.25 477.993 2043.52 479.141 Q2042.55 480.657 2041.82 483.444 Q2041.1 486.211 2041.1 487.871 Q2041.1 490.167 2042.16 491.314 Q2043.23 492.442 2044.75 492.442 Q2046.22 492.442 2047.78 491.417 Q2049.36 490.372 2050.44 488.589 Q2051.53 486.744 2052.21 484.039 Q2052.88 481.313 2052.88 479.817 Z" fill="#000000" fill-rule="evenodd" fill-opacity="1" /><path clip-path="url(#clip390)" d="M 0 0 M2065.39 480.25 Q2064.54 479.284 2064.54 478.025 Q2064.54 476.766 2065.36 475.829 Q2066.21 474.863 2067.73 474.863 Q2069.52 474.863 2070.54 476.59 Q2071.57 478.288 2071.57 481.158 Q2071.57 484.261 2070.31 487.13 Q2069.05 490.029 2067.82 491.405 Q2066.59 492.781 2066.09 492.781 Q2065.51 492.781 2065.51 492.137 Q2065.51 491.903 2065.92 491.463 Q2070.22 486.837 2070.25 481.158 Q2070.25 480.25 2070.13 480.25 L2069.99 480.367 Q2068.96 481.216 2067.73 481.216 Q2066.24 481.216 2065.39 480.25 Z" fill="#000000" fill-rule="evenodd" fill-opacity="1" /><path clip-path="url(#clip390)" d="M 0 0 M2126.77 448.044 Q2126.77 447.078 2126.5 446.287 Q2126.27 445.468 2125.89 444.911 Q2125.54 444.326 2124.86 443.887 Q2124.19 443.418 2123.63 443.125 Q2123.08 442.833 2122.14 442.657 Q2121.2 442.452 2120.59 442.364 Q2119.97 442.247 2118.92 442.188 Q2117.87 442.13 2117.34 442.13 Q2116.84 442.13 2115.85 442.13 Q2112.71 442.13 2112.19 442.188 Q2111.39 442.306 2111.1 442.774 Q2110.81 443.213 2110.52 444.414 L2106.62 460.048 L2113.33 460.048 Q2116.99 460.048 2119.5 459.023 Q2122.02 457.999 2123.46 456.564 Q2125.04 454.983 2125.89 452.436 Q2126.77 449.889 2126.77 448.044 M2133.29 475.653 Q2133.29 475.975 2133.03 476.707 Q2132.8 477.439 2132.21 478.464 Q2131.63 479.459 2130.84 480.367 Q2130.04 481.275 2128.79 481.889 Q2127.53 482.534 2126.09 482.534 Q2125.74 482.534 2125.39 482.504 Q2125.04 482.504 2124.16 482.358 Q2123.31 482.241 2122.61 482.007 Q2121.91 481.802 2121.03 481.304 Q2120.15 480.835 2119.53 480.191 Q2118.95 479.518 2118.54 478.464 Q2118.13 477.381 2118.13 476.063 Q2118.13 474.892 2119.09 470.969 Q2119.94 467.631 2119.94 466.811 Q2119.94 465.904 2119.65 465.055 Q2119.39 464.206 2118.71 463.327 Q2118.07 462.449 2116.69 461.922 Q2115.32 461.366 2113.39 461.366 L2106.27 461.366 L2102.29 477.264 Q2102.29 477.293 2102.2 477.703 Q2102.11 478.083 2102.11 478.288 Q2102.11 478.669 2102.35 478.903 Q2102.61 479.137 2103.26 479.254 Q2103.9 479.342 2104.4 479.372 Q2104.92 479.372 2106.01 479.372 Q2107.35 479.372 2107.59 479.606 Q2107.71 479.752 2107.71 480.016 Q2107.71 480.426 2107.59 480.718 Q2107.5 480.982 2107.27 481.07 Q2107.06 481.158 2106.92 481.187 Q2106.77 481.216 2106.51 481.216 L2098.89 481.04 L2091.34 481.216 Q2090.49 481.216 2090.49 480.543 Q2090.49 479.957 2090.7 479.723 Q2090.9 479.459 2091.16 479.43 Q2091.43 479.372 2092.1 479.372 Q2093.56 479.372 2094.44 479.284 Q2095.32 479.196 2095.88 479.079 Q2096.46 478.932 2096.76 478.523 Q2097.08 478.113 2097.22 477.761 Q2097.37 477.381 2097.58 476.532 L2105.6 444.326 Q2105.83 443.36 2105.83 443.213 Q2105.83 442.657 2105.48 442.511 Q2105.16 442.335 2104.22 442.247 L2101.94 442.13 Q2101.24 442.13 2100.94 442.101 Q2100.68 442.071 2100.47 441.925 Q2100.27 441.779 2100.27 441.456 Q2100.27 440.637 2100.62 440.461 Q2100.97 440.256 2102 440.256 L2119.09 440.256 Q2124.92 440.256 2128.61 442.803 Q2132.33 445.35 2132.33 449.244 Q2132.33 451.001 2131.54 452.641 Q2130.75 454.28 2129.43 455.569 Q2128.14 456.857 2126.41 457.94 Q2124.69 458.994 2122.84 459.726 Q2121.03 460.429 2119.15 460.839 Q2119.97 461.131 2120.73 461.571 Q2121.53 462.01 2122.52 462.829 Q2123.55 463.649 2124.16 464.967 Q2124.77 466.284 2124.77 467.895 Q2124.77 469.036 2124.54 470.735 Q2123.96 475.565 2123.96 477.556 Q2123.96 479.459 2124.45 480.338 Q2124.95 481.216 2126.36 481.216 Q2127.73 481.216 2129.25 479.986 Q2130.81 478.727 2131.8 475.77 Q2132.04 474.921 2132.59 474.921 Q2132.62 474.921 2132.65 474.921 Q2132.71 474.921 2132.83 474.98 Q2132.94 475.009 2133.03 475.097 Q2133.15 475.156 2133.21 475.302 Q2133.29 475.448 2133.29 475.653 Z" fill="#000000" fill-rule="evenodd" fill-opacity="1" /><path clip-path="url(#clip390)" d="M 0 0 M2176.69 480.016 Q2176.69 480.572 2176.46 480.865 Q2176.25 481.128 2176.05 481.187 Q2175.87 481.216 2175.61 481.216 Q2174.85 481.216 2172.21 481.128 Q2169.58 481.04 2168.82 481.04 Q2167.59 481.04 2165.07 481.128 Q2162.55 481.216 2161.32 481.216 Q2160.5 481.216 2160.5 480.543 Q2160.5 480.104 2160.59 479.869 Q2160.68 479.606 2160.91 479.518 Q2161.17 479.401 2161.32 479.401 Q2161.5 479.372 2161.93 479.372 Q2162.52 479.372 2163.14 479.313 Q2163.75 479.225 2164.51 479.05 Q2165.27 478.874 2165.74 478.435 Q2166.24 477.996 2166.24 477.381 Q2166.24 477.117 2166.03 474.951 Q2165.83 472.784 2165.57 470.266 Q2165.3 467.719 2165.27 467.368 L2150.22 467.368 Q2148.85 469.739 2147.88 471.379 Q2146.92 473.018 2146.56 473.575 Q2146.21 474.131 2146.01 474.482 Q2145.8 474.833 2145.69 475.038 Q2144.84 476.59 2144.84 477.264 Q2144.84 479.137 2147.65 479.372 Q2148.61 479.372 2148.61 480.074 Q2148.61 480.601 2148.38 480.894 Q2148.14 481.158 2147.94 481.187 Q2147.76 481.216 2147.47 481.216 Q2146.51 481.216 2144.49 481.128 Q2142.46 481.04 2141.47 481.04 Q2140.62 481.04 2138.86 481.128 Q2137.11 481.216 2136.32 481.216 Q2135.97 481.216 2135.76 481.011 Q2135.56 480.806 2135.56 480.543 Q2135.56 480.133 2135.61 479.899 Q2135.7 479.664 2135.94 479.547 Q2136.17 479.43 2136.29 479.43 Q2136.4 479.401 2136.81 479.372 Q2139.04 479.225 2140.77 478.171 Q2142.52 477.088 2144.19 474.306 L2165.04 439.29 Q2165.24 438.939 2165.39 438.763 Q2165.54 438.587 2165.83 438.441 Q2166.15 438.294 2166.62 438.294 Q2167.35 438.294 2167.5 438.529 Q2167.64 438.734 2167.73 439.729 L2171.39 477.205 Q2171.48 477.996 2171.54 478.318 Q2171.63 478.61 2172.01 478.932 Q2172.42 479.225 2173.15 479.313 Q2173.91 479.372 2175.31 479.372 Q2175.84 479.372 2176.05 479.401 Q2176.25 479.401 2176.46 479.547 Q2176.69 479.694 2176.69 480.016 M2165.1 465.494 L2163.19 445.731 L2151.37 465.494 L2165.1 465.494 Z" fill="#000000" fill-rule="evenodd" fill-opacity="1" /><path clip-path="url(#clip390)" d="M 0 0 M2198.86 487.384 Q2199.02 487.568 2199.02 487.753 Q2199.02 487.937 2198.61 488.47 Q2198.22 489.003 2197.38 489.72 Q2196.54 490.438 2195.46 491.114 Q2194.37 491.79 2192.77 492.241 Q2191.17 492.712 2189.49 492.712 Q2186.36 492.712 2184.51 490.643 Q2182.69 488.573 2182.69 485.601 Q2182.69 482.711 2184.31 479.944 Q2185.93 477.157 2188.55 475.435 Q2191.17 473.693 2193.94 473.693 Q2196.13 473.693 2197.51 474.718 Q2198.88 475.743 2198.88 477.301 Q2198.88 478.51 2198.18 479.247 Q2197.49 479.985 2196.54 479.985 Q2195.89 479.985 2195.44 479.616 Q2194.99 479.227 2194.99 478.51 Q2194.99 477.587 2195.74 476.87 Q2196.03 476.583 2196.36 476.46 Q2196.71 476.317 2196.91 476.317 Q2197.12 476.296 2197.59 476.296 Q2197.16 475.497 2196.13 475.067 Q2195.13 474.616 2193.98 474.616 Q2192.28 474.616 2190.66 475.804 Q2189.04 476.973 2188.06 478.817 Q2187.08 480.621 2186.44 483.182 Q2185.8 485.724 2185.8 487.199 Q2185.8 489.228 2186.75 490.499 Q2187.69 491.77 2189.58 491.77 Q2189.94 491.77 2190.33 491.749 Q2190.74 491.729 2191.77 491.503 Q2192.81 491.278 2193.74 490.888 Q2194.66 490.499 2195.83 489.659 Q2197.02 488.798 2197.96 487.63 Q2198.29 487.199 2198.51 487.199 Q2198.7 487.199 2198.86 487.384 Z" fill="#000000" fill-rule="evenodd" fill-opacity="1" /><path clip-path="url(#clip390)" d="M 0 0 M2218.65 480.785 Q2218.65 483.019 2217.67 485.232 Q2216.68 487.425 2215.1 489.064 Q2213.55 490.684 2211.5 491.708 Q2209.45 492.712 2207.4 492.712 Q2204.47 492.712 2202.56 490.724 Q2200.68 488.716 2200.68 485.601 Q2200.68 482.691 2202.29 479.924 Q2203.93 477.137 2206.56 475.415 Q2209.18 473.693 2211.93 473.693 Q2214.82 473.693 2216.72 475.64 Q2218.65 477.587 2218.65 480.785 M2215.57 479.145 Q2215.57 477.157 2214.61 475.886 Q2213.65 474.616 2211.89 474.616 Q2211.37 474.616 2210.78 474.78 Q2210.18 474.923 2209.41 475.313 Q2208.65 475.702 2207.79 476.522 Q2206.95 477.321 2206.21 478.469 Q2205.25 479.985 2204.51 482.773 Q2203.79 485.539 2203.79 487.199 Q2203.79 489.495 2204.86 490.643 Q2205.92 491.77 2207.44 491.77 Q2208.91 491.77 2210.47 490.745 Q2212.05 489.7 2213.14 487.917 Q2214.22 486.072 2214.9 483.367 Q2215.57 480.641 2215.57 479.145 Z" fill="#000000" fill-rule="evenodd" fill-opacity="1" /><path clip-path="url(#clip390)" d="
M272.297 1410.9 L2352.76 1410.9 L2352.76 815.61 L272.297 815.61  Z
  " fill="#ffffff" fill-rule="evenodd" fill-opacity="1"/>
<defs>
  <clipPath id="clip393">
    <rect x="272" y="815" width="2081" height="596"/>
  </clipPath>
</defs>
<polyline clip-path="url(#clip393)" style="stroke:#000000; stroke-width:2; stroke-opacity:0.1; fill:none" points="
  331.177,1410.9 331.177,815.61 
  "/>
<polyline clip-path="url(#clip393)" style="stroke:#000000; stroke-width:2; stroke-opacity:0.1; fill:none" points="
  821.852,1410.9 821.852,815.61 
  "/>
<polyline clip-path="url(#clip393)" style="stroke:#000000; stroke-width:2; stroke-opacity:0.1; fill:none" points="
  1312.53,1410.9 1312.53,815.61 
  "/>
<polyline clip-path="url(#clip393)" style="stroke:#000000; stroke-width:2; stroke-opacity:0.1; fill:none" points="
  1803.2,1410.9 1803.2,815.61 
  "/>
<polyline clip-path="url(#clip393)" style="stroke:#000000; stroke-width:2; stroke-opacity:0.1; fill:none" points="
  2293.87,1410.9 2293.87,815.61 
  "/>
<polyline clip-path="url(#clip390)" style="stroke:#000000; stroke-width:4; stroke-opacity:1; fill:none" points="
  272.297,1410.9 2352.76,1410.9 
  "/>
<polyline clip-path="url(#clip390)" style="stroke:#000000; stroke-width:4; stroke-opacity:1; fill:none" points="
  331.177,1410.9 331.177,1403.75 
  "/>
<polyline clip-path="url(#clip390)" style="stroke:#000000; stroke-width:4; stroke-opacity:1; fill:none" points="
  821.852,1410.9 821.852,1403.75 
  "/>
<polyline clip-path="url(#clip390)" style="stroke:#000000; stroke-width:4; stroke-opacity:1; fill:none" points="
  1312.53,1410.9 1312.53,1403.75 
  "/>
<polyline clip-path="url(#clip390)" style="stroke:#000000; stroke-width:4; stroke-opacity:1; fill:none" points="
  1803.2,1410.9 1803.2,1403.75 
  "/>
<polyline clip-path="url(#clip390)" style="stroke:#000000; stroke-width:4; stroke-opacity:1; fill:none" points="
  2293.87,1410.9 2293.87,1403.75 
  "/>
<polyline clip-path="url(#clip390)" style="stroke:#000000; stroke-width:4; stroke-opacity:1; fill:none" points="
  454.491,1410.9 454.491,1407.32 
  "/>
<polyline clip-path="url(#clip390)" style="stroke:#000000; stroke-width:4; stroke-opacity:1; fill:none" points="
  562.199,1410.9 562.199,1407.32 
  "/>
<polyline clip-path="url(#clip390)" style="stroke:#000000; stroke-width:4; stroke-opacity:1; fill:none" points="
  657.811,1410.9 657.811,1407.32 
  "/>
<polyline clip-path="url(#clip390)" style="stroke:#000000; stroke-width:4; stroke-opacity:1; fill:none" points="
  743.771,1410.9 743.771,1407.32 
  "/>
<polyline clip-path="url(#clip390)" style="stroke:#000000; stroke-width:4; stroke-opacity:1; fill:none" points="
  945.165,1410.9 945.165,1407.32 
  "/>
<polyline clip-path="url(#clip390)" style="stroke:#000000; stroke-width:4; stroke-opacity:1; fill:none" points="
  1052.87,1410.9 1052.87,1407.32 
  "/>
<polyline clip-path="url(#clip390)" style="stroke:#000000; stroke-width:4; stroke-opacity:1; fill:none" points="
  1148.49,1410.9 1148.49,1407.32 
  "/>
<polyline clip-path="url(#clip390)" style="stroke:#000000; stroke-width:4; stroke-opacity:1; fill:none" points="
  1234.45,1410.9 1234.45,1407.32 
  "/>
<polyline clip-path="url(#clip390)" style="stroke:#000000; stroke-width:4; stroke-opacity:1; fill:none" points="
  1435.84,1410.9 1435.84,1407.32 
  "/>
<polyline clip-path="url(#clip390)" style="stroke:#000000; stroke-width:4; stroke-opacity:1; fill:none" points="
  1543.55,1410.9 1543.55,1407.32 
  "/>
<polyline clip-path="url(#clip390)" style="stroke:#000000; stroke-width:4; stroke-opacity:1; fill:none" points="
  1639.16,1410.9 1639.16,1407.32 
  "/>
<polyline clip-path="url(#clip390)" style="stroke:#000000; stroke-width:4; stroke-opacity:1; fill:none" points="
  1725.12,1410.9 1725.12,1407.32 
  "/>
<polyline clip-path="url(#clip390)" style="stroke:#000000; stroke-width:4; stroke-opacity:1; fill:none" points="
  1926.51,1410.9 1926.51,1407.32 
  "/>
<polyline clip-path="url(#clip390)" style="stroke:#000000; stroke-width:4; stroke-opacity:1; fill:none" points="
  2034.22,1410.9 2034.22,1407.32 
  "/>
<polyline clip-path="url(#clip390)" style="stroke:#000000; stroke-width:4; stroke-opacity:1; fill:none" points="
  2129.83,1410.9 2129.83,1407.32 
  "/>
<polyline clip-path="url(#clip390)" style="stroke:#000000; stroke-width:4; stroke-opacity:1; fill:none" points="
  2215.79,1410.9 2215.79,1407.32 
  "/>
<path clip-path="url(#clip390)" d="M 0 0 M250.166 1489.17 L257.805 1489.17 L257.805 1462.8 L249.495 1464.47 L249.495 1460.21 L257.758 1458.54 L262.434 1458.54 L262.434 1489.17 L270.073 1489.17 L270.073 1493.1 L250.166 1493.1 L250.166 1489.17 Z" fill="#000000" fill-rule="evenodd" fill-opacity="1" /><path clip-path="url(#clip390)" d="M 0 0 M289.518 1461.62 Q285.906 1461.62 284.078 1465.19 Q282.272 1468.73 282.272 1475.86 Q282.272 1482.97 284.078 1486.53 Q285.906 1490.07 289.518 1490.07 Q293.152 1490.07 294.957 1486.53 Q296.786 1482.97 296.786 1475.86 Q296.786 1468.73 294.957 1465.19 Q293.152 1461.62 289.518 1461.62 M289.518 1457.92 Q295.328 1457.92 298.383 1462.53 Q301.462 1467.11 301.462 1475.86 Q301.462 1484.59 298.383 1489.19 Q295.328 1493.78 289.518 1493.78 Q283.707 1493.78 280.629 1489.19 Q277.573 1484.59 277.573 1475.86 Q277.573 1467.11 280.629 1462.53 Q283.707 1457.92 289.518 1457.92 Z" fill="#000000" fill-rule="evenodd" fill-opacity="1" /><path clip-path="url(#clip390)" d="M 0 0 M301.462 1452.02 L325.573 1452.02 L325.573 1455.22 L301.462 1455.22 L301.462 1452.02 Z" fill="#000000" fill-rule="evenodd" fill-opacity="1" /><path clip-path="url(#clip390)" d="M 0 0 M334.432 1462.5 L340.638 1462.5 L340.638 1441.07 L333.887 1442.43 L333.887 1438.97 L340.601 1437.61 L344.4 1437.61 L344.4 1462.5 L350.607 1462.5 L350.607 1465.69 L334.432 1465.69 L334.432 1462.5 Z" fill="#000000" fill-rule="evenodd" fill-opacity="1" /><path clip-path="url(#clip390)" d="M 0 0 M358.28 1460.92 L362.249 1460.92 L362.249 1465.69 L358.28 1465.69 L358.28 1460.92 Z" fill="#000000" fill-rule="evenodd" fill-opacity="1" /><path clip-path="url(#clip390)" d="M 0 0 M378.649 1440.11 Q375.715 1440.11 374.229 1443.01 Q372.762 1445.89 372.762 1451.68 Q372.762 1457.46 374.229 1460.35 Q375.715 1463.23 378.649 1463.23 Q381.602 1463.23 383.069 1460.35 Q384.555 1457.46 384.555 1451.68 Q384.555 1445.89 383.069 1443.01 Q381.602 1440.11 378.649 1440.11 M378.649 1437.11 Q383.37 1437.11 385.852 1440.85 Q388.354 1444.57 388.354 1451.68 Q388.354 1458.77 385.852 1462.51 Q383.37 1466.24 378.649 1466.24 Q373.928 1466.24 371.427 1462.51 Q368.944 1458.77 368.944 1451.68 Q368.944 1444.57 371.427 1440.85 Q373.928 1437.11 378.649 1437.11 Z" fill="#000000" fill-rule="evenodd" fill-opacity="1" /><path clip-path="url(#clip390)" d="M 0 0 M403.156 1440.11 Q400.222 1440.11 398.736 1443.01 Q397.269 1445.89 397.269 1451.68 Q397.269 1457.46 398.736 1460.35 Q400.222 1463.23 403.156 1463.23 Q406.108 1463.23 407.575 1460.35 Q409.061 1457.46 409.061 1451.68 Q409.061 1445.89 407.575 1443.01 Q406.108 1440.11 403.156 1440.11 M403.156 1437.11 Q407.876 1437.11 410.359 1440.85 Q412.86 1444.57 412.86 1451.68 Q412.86 1458.77 410.359 1462.51 Q407.876 1466.24 403.156 1466.24 Q398.435 1466.24 395.933 1462.51 Q393.451 1458.77 393.451 1451.68 Q393.451 1444.57 395.933 1440.85 Q398.435 1437.11 403.156 1437.11 Z" fill="#000000" fill-rule="evenodd" fill-opacity="1" /><path clip-path="url(#clip390)" d="M 0 0 M741.245 1489.17 L748.883 1489.17 L748.883 1462.8 L740.573 1464.47 L740.573 1460.21 L748.837 1458.54 L753.513 1458.54 L753.513 1489.17 L761.152 1489.17 L761.152 1493.1 L741.245 1493.1 L741.245 1489.17 Z" fill="#000000" fill-rule="evenodd" fill-opacity="1" /><path clip-path="url(#clip390)" d="M 0 0 M780.596 1461.62 Q776.985 1461.62 775.156 1465.19 Q773.351 1468.73 773.351 1475.86 Q773.351 1482.97 775.156 1486.53 Q776.985 1490.07 780.596 1490.07 Q784.231 1490.07 786.036 1486.53 Q787.865 1482.97 787.865 1475.86 Q787.865 1468.73 786.036 1465.19 Q784.231 1461.62 780.596 1461.62 M780.596 1457.92 Q786.406 1457.92 789.462 1462.53 Q792.541 1467.11 792.541 1475.86 Q792.541 1484.59 789.462 1489.19 Q786.406 1493.78 780.596 1493.78 Q774.786 1493.78 771.707 1489.19 Q768.652 1484.59 768.652 1475.86 Q768.652 1467.11 771.707 1462.53 Q774.786 1457.92 780.596 1457.92 Z" fill="#000000" fill-rule="evenodd" fill-opacity="1" /><path clip-path="url(#clip390)" d="M 0 0 M792.541 1452.02 L816.652 1452.02 L816.652 1455.22 L792.541 1455.22 L792.541 1452.02 Z" fill="#000000" fill-rule="evenodd" fill-opacity="1" /><path clip-path="url(#clip390)" d="M 0 0 M832.977 1440.11 Q830.043 1440.11 828.558 1443.01 Q827.091 1445.89 827.091 1451.68 Q827.091 1457.46 828.558 1460.35 Q830.043 1463.23 832.977 1463.23 Q835.93 1463.23 837.397 1460.35 Q838.883 1457.46 838.883 1451.68 Q838.883 1445.89 837.397 1443.01 Q835.93 1440.11 832.977 1440.11 M832.977 1437.11 Q837.698 1437.11 840.181 1440.85 Q842.682 1444.57 842.682 1451.68 Q842.682 1458.77 840.181 1462.51 Q837.698 1466.24 832.977 1466.24 Q828.257 1466.24 825.755 1462.51 Q823.273 1458.77 823.273 1451.68 Q823.273 1444.57 825.755 1440.85 Q828.257 1437.11 832.977 1437.11 Z" fill="#000000" fill-rule="evenodd" fill-opacity="1" /><path clip-path="url(#clip390)" d="M 0 0 M849.359 1460.92 L853.327 1460.92 L853.327 1465.69 L849.359 1465.69 L849.359 1460.92 Z" fill="#000000" fill-rule="evenodd" fill-opacity="1" /><path clip-path="url(#clip390)" d="M 0 0 M860.644 1437.61 L878.699 1437.61 L878.699 1439.23 L868.505 1465.69 L864.537 1465.69 L874.129 1440.81 L860.644 1440.81 L860.644 1437.61 Z" fill="#000000" fill-rule="evenodd" fill-opacity="1" /><path clip-path="url(#clip390)" d="M 0 0 M886.147 1437.61 L901.061 1437.61 L901.061 1440.81 L889.626 1440.81 L889.626 1447.69 Q890.454 1447.41 891.281 1447.28 Q892.109 1447.13 892.937 1447.13 Q897.638 1447.13 900.384 1449.71 Q903.13 1452.28 903.13 1456.68 Q903.13 1461.22 900.309 1463.74 Q897.488 1466.24 892.353 1466.24 Q890.586 1466.24 888.742 1465.94 Q886.918 1465.64 884.962 1465.04 L884.962 1461.22 Q886.655 1462.14 888.46 1462.59 Q890.266 1463.04 892.278 1463.04 Q895.532 1463.04 897.432 1461.33 Q899.331 1459.62 899.331 1456.68 Q899.331 1453.75 897.432 1452.04 Q895.532 1450.33 892.278 1450.33 Q890.755 1450.33 889.231 1450.67 Q887.727 1451 886.147 1451.72 L886.147 1437.61 Z" fill="#000000" fill-rule="evenodd" fill-opacity="1" /><path clip-path="url(#clip390)" d="M 0 0 M1231.51 1489.17 L1239.15 1489.17 L1239.15 1462.8 L1230.84 1464.47 L1230.84 1460.21 L1239.11 1458.54 L1243.78 1458.54 L1243.78 1489.17 L1251.42 1489.17 L1251.42 1493.1 L1231.51 1493.1 L1231.51 1489.17 Z" fill="#000000" fill-rule="evenodd" fill-opacity="1" /><path clip-path="url(#clip390)" d="M 0 0 M1270.87 1461.62 Q1267.26 1461.62 1265.43 1465.19 Q1263.62 1468.73 1263.62 1475.86 Q1263.62 1482.97 1265.43 1486.53 Q1267.26 1490.07 1270.87 1490.07 Q1274.5 1490.07 1276.31 1486.53 Q1278.13 1482.97 1278.13 1475.86 Q1278.13 1468.73 1276.31 1465.19 Q1274.5 1461.62 1270.87 1461.62 M1270.87 1457.92 Q1276.68 1457.92 1279.73 1462.53 Q1282.81 1467.11 1282.81 1475.86 Q1282.81 1484.59 1279.73 1489.19 Q1276.68 1493.78 1270.87 1493.78 Q1265.06 1493.78 1261.98 1489.19 Q1258.92 1484.59 1258.92 1475.86 Q1258.92 1467.11 1261.98 1462.53 Q1265.06 1457.92 1270.87 1457.92 Z" fill="#000000" fill-rule="evenodd" fill-opacity="1" /><path clip-path="url(#clip390)" d="M 0 0 M1282.81 1452.02 L1306.92 1452.02 L1306.92 1455.22 L1282.81 1455.22 L1282.81 1452.02 Z" fill="#000000" fill-rule="evenodd" fill-opacity="1" /><path clip-path="url(#clip390)" d="M 0 0 M1323.25 1440.11 Q1320.31 1440.11 1318.83 1443.01 Q1317.36 1445.89 1317.36 1451.68 Q1317.36 1457.46 1318.83 1460.35 Q1320.31 1463.23 1323.25 1463.23 Q1326.2 1463.23 1327.67 1460.35 Q1329.15 1457.46 1329.15 1451.68 Q1329.15 1445.89 1327.67 1443.01 Q1326.2 1440.11 1323.25 1440.11 M1323.25 1437.11 Q1327.97 1437.11 1330.45 1440.85 Q1332.95 1444.57 1332.95 1451.68 Q1332.95 1458.77 1330.45 1462.51 Q1327.97 1466.24 1323.25 1466.24 Q1318.53 1466.24 1316.03 1462.51 Q1313.54 1458.77 1313.54 1451.68 Q1313.54 1444.57 1316.03 1440.85 Q1318.53 1437.11 1323.25 1437.11 Z" fill="#000000" fill-rule="evenodd" fill-opacity="1" /><path clip-path="url(#clip390)" d="M 0 0 M1339.63 1460.92 L1343.6 1460.92 L1343.6 1465.69 L1339.63 1465.69 L1339.63 1460.92 Z" fill="#000000" fill-rule="evenodd" fill-opacity="1" /><path clip-path="url(#clip390)" d="M 0 0 M1351.91 1437.61 L1366.82 1437.61 L1366.82 1440.81 L1355.39 1440.81 L1355.39 1447.69 Q1356.22 1447.41 1357.04 1447.28 Q1357.87 1447.13 1358.7 1447.13 Q1363.4 1447.13 1366.15 1449.71 Q1368.89 1452.28 1368.89 1456.68 Q1368.89 1461.22 1366.07 1463.74 Q1363.25 1466.24 1358.12 1466.24 Q1356.35 1466.24 1354.51 1465.94 Q1352.68 1465.64 1350.73 1465.04 L1350.73 1461.22 Q1352.42 1462.14 1354.22 1462.59 Q1356.03 1463.04 1358.04 1463.04 Q1361.3 1463.04 1363.2 1461.33 Q1365.09 1459.62 1365.09 1456.68 Q1365.09 1453.75 1363.2 1452.04 Q1361.3 1450.33 1358.04 1450.33 Q1356.52 1450.33 1354.99 1450.67 Q1353.49 1451 1351.91 1451.72 L1351.91 1437.61 Z" fill="#000000" fill-rule="evenodd" fill-opacity="1" /><path clip-path="url(#clip390)" d="M 0 0 M1384.5 1440.11 Q1381.57 1440.11 1380.08 1443.01 Q1378.62 1445.89 1378.62 1451.68 Q1378.62 1457.46 1380.08 1460.35 Q1381.57 1463.23 1384.5 1463.23 Q1387.46 1463.23 1388.92 1460.35 Q1390.41 1457.46 1390.41 1451.68 Q1390.41 1445.89 1388.92 1443.01 Q1387.46 1440.11 1384.5 1440.11 M1384.5 1437.11 Q1389.23 1437.11 1391.71 1440.85 Q1394.21 1444.57 1394.21 1451.68 Q1394.21 1458.77 1391.71 1462.51 Q1389.23 1466.24 1384.5 1466.24 Q1379.78 1466.24 1377.28 1462.51 Q1374.8 1458.77 1374.8 1451.68 Q1374.8 1444.57 1377.28 1440.85 Q1379.78 1437.11 1384.5 1437.11 Z" fill="#000000" fill-rule="evenodd" fill-opacity="1" /><path clip-path="url(#clip390)" d="M 0 0 M1722.59 1489.17 L1730.23 1489.17 L1730.23 1462.8 L1721.92 1464.47 L1721.92 1460.21 L1730.19 1458.54 L1734.86 1458.54 L1734.86 1489.17 L1742.5 1489.17 L1742.5 1493.1 L1722.59 1493.1 L1722.59 1489.17 Z" fill="#000000" fill-rule="evenodd" fill-opacity="1" /><path clip-path="url(#clip390)" d="M 0 0 M1761.95 1461.62 Q1758.33 1461.62 1756.51 1465.19 Q1754.7 1468.73 1754.7 1475.86 Q1754.7 1482.97 1756.51 1486.53 Q1758.33 1490.07 1761.95 1490.07 Q1765.58 1490.07 1767.38 1486.53 Q1769.21 1482.97 1769.21 1475.86 Q1769.21 1468.73 1767.38 1465.19 Q1765.58 1461.62 1761.95 1461.62 M1761.95 1457.92 Q1767.76 1457.92 1770.81 1462.53 Q1773.89 1467.11 1773.89 1475.86 Q1773.89 1484.59 1770.81 1489.19 Q1767.76 1493.78 1761.95 1493.78 Q1756.13 1493.78 1753.06 1489.19 Q1750 1484.59 1750 1475.86 Q1750 1467.11 1753.06 1462.53 Q1756.13 1457.92 1761.95 1457.92 Z" fill="#000000" fill-rule="evenodd" fill-opacity="1" /><path clip-path="url(#clip390)" d="M 0 0 M1773.89 1452.02 L1798 1452.02 L1798 1455.22 L1773.89 1455.22 L1773.89 1452.02 Z" fill="#000000" fill-rule="evenodd" fill-opacity="1" /><path clip-path="url(#clip390)" d="M 0 0 M1814.33 1440.11 Q1811.39 1440.11 1809.91 1443.01 Q1808.44 1445.89 1808.44 1451.68 Q1808.44 1457.46 1809.91 1460.35 Q1811.39 1463.23 1814.33 1463.23 Q1817.28 1463.23 1818.75 1460.35 Q1820.23 1457.46 1820.23 1451.68 Q1820.23 1445.89 1818.75 1443.01 Q1817.28 1440.11 1814.33 1440.11 M1814.33 1437.11 Q1819.05 1437.11 1821.53 1440.85 Q1824.03 1444.57 1824.03 1451.68 Q1824.03 1458.77 1821.53 1462.51 Q1819.05 1466.24 1814.33 1466.24 Q1809.61 1466.24 1807.1 1462.51 Q1804.62 1458.77 1804.62 1451.68 Q1804.62 1444.57 1807.1 1440.85 Q1809.61 1437.11 1814.33 1437.11 Z" fill="#000000" fill-rule="evenodd" fill-opacity="1" /><path clip-path="url(#clip390)" d="M 0 0 M1830.71 1460.92 L1834.68 1460.92 L1834.68 1465.69 L1830.71 1465.69 L1830.71 1460.92 Z" fill="#000000" fill-rule="evenodd" fill-opacity="1" /><path clip-path="url(#clip390)" d="M 0 0 M1846.22 1462.5 L1859.48 1462.5 L1859.48 1465.69 L1841.65 1465.69 L1841.65 1462.5 Q1843.82 1460.26 1847.54 1456.5 Q1851.28 1452.72 1852.24 1451.63 Q1854.07 1449.58 1854.78 1448.16 Q1855.52 1446.74 1855.52 1445.36 Q1855.52 1443.12 1853.94 1441.71 Q1852.37 1440.3 1849.85 1440.3 Q1848.07 1440.3 1846.07 1440.92 Q1844.1 1441.54 1841.84 1442.8 L1841.84 1438.97 Q1844.14 1438.05 1846.13 1437.58 Q1848.12 1437.11 1849.78 1437.11 Q1854.14 1437.11 1856.74 1439.29 Q1859.33 1441.47 1859.33 1445.12 Q1859.33 1446.85 1858.67 1448.41 Q1858.04 1449.95 1856.32 1452.06 Q1855.85 1452.6 1853.33 1455.22 Q1850.81 1457.81 1846.22 1462.5 Z" fill="#000000" fill-rule="evenodd" fill-opacity="1" /><path clip-path="url(#clip390)" d="M 0 0 M1867.5 1437.61 L1882.41 1437.61 L1882.41 1440.81 L1870.98 1440.81 L1870.98 1447.69 Q1871.8 1447.41 1872.63 1447.28 Q1873.46 1447.13 1874.29 1447.13 Q1878.99 1447.13 1881.73 1449.71 Q1884.48 1452.28 1884.48 1456.68 Q1884.48 1461.22 1881.66 1463.74 Q1878.84 1466.24 1873.7 1466.24 Q1871.93 1466.24 1870.09 1465.94 Q1868.27 1465.64 1866.31 1465.04 L1866.31 1461.22 Q1868 1462.14 1869.81 1462.59 Q1871.61 1463.04 1873.63 1463.04 Q1876.88 1463.04 1878.78 1461.33 Q1880.68 1459.62 1880.68 1456.68 Q1880.68 1453.75 1878.78 1452.04 Q1876.88 1450.33 1873.63 1450.33 Q1872.1 1450.33 1870.58 1450.67 Q1869.08 1451 1867.5 1451.72 L1867.5 1437.61 Z" fill="#000000" fill-rule="evenodd" fill-opacity="1" /><path clip-path="url(#clip390)" d="M 0 0 M2228.23 1489.17 L2235.87 1489.17 L2235.87 1462.8 L2227.56 1464.47 L2227.56 1460.21 L2235.82 1458.54 L2240.5 1458.54 L2240.5 1489.17 L2248.14 1489.17 L2248.14 1493.1 L2228.23 1493.1 L2228.23 1489.17 Z" fill="#000000" fill-rule="evenodd" fill-opacity="1" /><path clip-path="url(#clip390)" d="M 0 0 M2267.58 1461.62 Q2263.97 1461.62 2262.14 1465.19 Q2260.34 1468.73 2260.34 1475.86 Q2260.34 1482.97 2262.14 1486.53 Q2263.97 1490.07 2267.58 1490.07 Q2271.22 1490.07 2273.02 1486.53 Q2274.85 1482.97 2274.85 1475.86 Q2274.85 1468.73 2273.02 1465.19 Q2271.22 1461.62 2267.58 1461.62 M2267.58 1457.92 Q2273.39 1457.92 2276.45 1462.53 Q2279.53 1467.11 2279.53 1475.86 Q2279.53 1484.59 2276.45 1489.19 Q2273.39 1493.78 2267.58 1493.78 Q2261.77 1493.78 2258.69 1489.19 Q2255.64 1484.59 2255.64 1475.86 Q2255.64 1467.11 2258.69 1462.53 Q2261.77 1457.92 2267.58 1457.92 Z" fill="#000000" fill-rule="evenodd" fill-opacity="1" /><path clip-path="url(#clip390)" d="M 0 0 M2289.23 1440.11 Q2286.3 1440.11 2284.81 1443.01 Q2283.34 1445.89 2283.34 1451.68 Q2283.34 1457.46 2284.81 1460.35 Q2286.3 1463.23 2289.23 1463.23 Q2292.18 1463.23 2293.65 1460.35 Q2295.14 1457.46 2295.14 1451.68 Q2295.14 1445.89 2293.65 1443.01 Q2292.18 1440.11 2289.23 1440.11 M2289.23 1437.11 Q2293.95 1437.11 2296.43 1440.85 Q2298.93 1444.57 2298.93 1451.68 Q2298.93 1458.77 2296.43 1462.51 Q2293.95 1466.24 2289.23 1466.24 Q2284.51 1466.24 2282.01 1462.51 Q2279.53 1458.77 2279.53 1451.68 Q2279.53 1444.57 2282.01 1440.85 Q2284.51 1437.11 2289.23 1437.11 Z" fill="#000000" fill-rule="evenodd" fill-opacity="1" /><path clip-path="url(#clip390)" d="M 0 0 M2305.61 1460.92 L2309.58 1460.92 L2309.58 1465.69 L2305.61 1465.69 L2305.61 1460.92 Z" fill="#000000" fill-rule="evenodd" fill-opacity="1" /><path clip-path="url(#clip390)" d="M 0 0 M2325.98 1440.11 Q2323.05 1440.11 2321.56 1443.01 Q2320.09 1445.89 2320.09 1451.68 Q2320.09 1457.46 2321.56 1460.35 Q2323.05 1463.23 2325.98 1463.23 Q2328.93 1463.23 2330.4 1460.35 Q2331.89 1457.46 2331.89 1451.68 Q2331.89 1445.89 2330.4 1443.01 Q2328.93 1440.11 2325.98 1440.11 M2325.98 1437.11 Q2330.7 1437.11 2333.18 1440.85 Q2335.69 1444.57 2335.69 1451.68 Q2335.69 1458.77 2333.18 1462.51 Q2330.7 1466.24 2325.98 1466.24 Q2321.26 1466.24 2318.76 1462.51 Q2316.28 1458.77 2316.28 1451.68 Q2316.28 1444.57 2318.76 1440.85 Q2321.26 1437.11 2325.98 1437.11 Z" fill="#000000" fill-rule="evenodd" fill-opacity="1" /><path clip-path="url(#clip390)" d="M 0 0 M2350.49 1440.11 Q2347.55 1440.11 2346.07 1443.01 Q2344.6 1445.89 2344.6 1451.68 Q2344.6 1457.46 2346.07 1460.35 Q2347.55 1463.23 2350.49 1463.23 Q2353.44 1463.23 2354.91 1460.35 Q2356.39 1457.46 2356.39 1451.68 Q2356.39 1445.89 2354.91 1443.01 Q2353.44 1440.11 2350.49 1440.11 M2350.49 1437.11 Q2355.21 1437.11 2357.69 1440.85 Q2360.19 1444.57 2360.19 1451.68 Q2360.19 1458.77 2357.69 1462.51 Q2355.21 1466.24 2350.49 1466.24 Q2345.77 1466.24 2343.26 1462.51 Q2340.78 1458.77 2340.78 1451.68 Q2340.78 1444.57 2343.26 1440.85 Q2345.77 1437.11 2350.49 1437.11 Z" fill="#000000" fill-rule="evenodd" fill-opacity="1" /><path clip-path="url(#clip390)" d="M 0 0 M1302.82 1575.11 Q1289.61 1575.11 1289.61 1556.2 Q1289.61 1548.72 1294.54 1538.54 L1300.85 1538.54 Q1296.29 1548.72 1296.29 1556.36 Q1296.29 1570.14 1303.36 1570.14 Q1309.82 1570.14 1309.82 1553.02 L1315.23 1553.02 Q1315.23 1570.14 1321.69 1570.14 Q1328.76 1570.14 1328.76 1556.36 Q1328.76 1548.72 1324.21 1538.54 L1330.51 1538.54 Q1335.44 1548.72 1335.44 1556.2 Q1335.44 1575.11 1322.23 1575.11 Q1313.58 1575.11 1312.53 1565.59 Q1311.22 1575.11 1302.82 1575.11 Z" fill="#000000" fill-rule="evenodd" fill-opacity="1" /><polyline clip-path="url(#clip393)" style="stroke:#000000; stroke-width:2; stroke-opacity:0.1; fill:none" points="
  272.297,1277.28 2352.76,1277.28 
  "/>
<polyline clip-path="url(#clip393)" style="stroke:#000000; stroke-width:2; stroke-opacity:0.1; fill:none" points="
  272.297,1141.04 2352.76,1141.04 
  "/>
<polyline clip-path="url(#clip393)" style="stroke:#000000; stroke-width:2; stroke-opacity:0.1; fill:none" points="
  272.297,1004.81 2352.76,1004.81 
  "/>
<polyline clip-path="url(#clip393)" style="stroke:#000000; stroke-width:2; stroke-opacity:0.1; fill:none" points="
  272.297,868.574 2352.76,868.574 
  "/>
<polyline clip-path="url(#clip390)" style="stroke:#000000; stroke-width:4; stroke-opacity:1; fill:none" points="
  272.297,1410.9 272.297,815.61 
  "/>
<polyline clip-path="url(#clip390)" style="stroke:#000000; stroke-width:4; stroke-opacity:1; fill:none" points="
  272.297,1277.28 297.262,1277.28 
  "/>
<polyline clip-path="url(#clip390)" style="stroke:#000000; stroke-width:4; stroke-opacity:1; fill:none" points="
  272.297,1141.04 297.262,1141.04 
  "/>
<polyline clip-path="url(#clip390)" style="stroke:#000000; stroke-width:4; stroke-opacity:1; fill:none" points="
  272.297,1004.81 297.262,1004.81 
  "/>
<polyline clip-path="url(#clip390)" style="stroke:#000000; stroke-width:4; stroke-opacity:1; fill:none" points="
  272.297,868.574 297.262,868.574 
  "/>
<polyline clip-path="url(#clip390)" style="stroke:#000000; stroke-width:4; stroke-opacity:1; fill:none" points="
  272.297,1386.27 284.779,1386.27 
  "/>
<polyline clip-path="url(#clip390)" style="stroke:#000000; stroke-width:4; stroke-opacity:1; fill:none" points="
  272.297,1359.02 284.779,1359.02 
  "/>
<polyline clip-path="url(#clip390)" style="stroke:#000000; stroke-width:4; stroke-opacity:1; fill:none" points="
  272.297,1331.77 284.779,1331.77 
  "/>
<polyline clip-path="url(#clip390)" style="stroke:#000000; stroke-width:4; stroke-opacity:1; fill:none" points="
  272.297,1304.52 284.779,1304.52 
  "/>
<polyline clip-path="url(#clip390)" style="stroke:#000000; stroke-width:4; stroke-opacity:1; fill:none" points="
  272.297,1250.03 284.779,1250.03 
  "/>
<polyline clip-path="url(#clip390)" style="stroke:#000000; stroke-width:4; stroke-opacity:1; fill:none" points="
  272.297,1222.78 284.779,1222.78 
  "/>
<polyline clip-path="url(#clip390)" style="stroke:#000000; stroke-width:4; stroke-opacity:1; fill:none" points="
  272.297,1195.54 284.779,1195.54 
  "/>
<polyline clip-path="url(#clip390)" style="stroke:#000000; stroke-width:4; stroke-opacity:1; fill:none" points="
  272.297,1168.29 284.779,1168.29 
  "/>
<polyline clip-path="url(#clip390)" style="stroke:#000000; stroke-width:4; stroke-opacity:1; fill:none" points="
  272.297,1113.8 284.779,1113.8 
  "/>
<polyline clip-path="url(#clip390)" style="stroke:#000000; stroke-width:4; stroke-opacity:1; fill:none" points="
  272.297,1086.55 284.779,1086.55 
  "/>
<polyline clip-path="url(#clip390)" style="stroke:#000000; stroke-width:4; stroke-opacity:1; fill:none" points="
  272.297,1059.3 284.779,1059.3 
  "/>
<polyline clip-path="url(#clip390)" style="stroke:#000000; stroke-width:4; stroke-opacity:1; fill:none" points="
  272.297,1032.06 284.779,1032.06 
  "/>
<polyline clip-path="url(#clip390)" style="stroke:#000000; stroke-width:4; stroke-opacity:1; fill:none" points="
  272.297,977.562 284.779,977.562 
  "/>
<polyline clip-path="url(#clip390)" style="stroke:#000000; stroke-width:4; stroke-opacity:1; fill:none" points="
  272.297,950.315 284.779,950.315 
  "/>
<polyline clip-path="url(#clip390)" style="stroke:#000000; stroke-width:4; stroke-opacity:1; fill:none" points="
  272.297,923.068 284.779,923.068 
  "/>
<polyline clip-path="url(#clip390)" style="stroke:#000000; stroke-width:4; stroke-opacity:1; fill:none" points="
  272.297,895.821 284.779,895.821 
  "/>
<polyline clip-path="url(#clip390)" style="stroke:#000000; stroke-width:4; stroke-opacity:1; fill:none" points="
  272.297,841.327 284.779,841.327 
  "/>
<path clip-path="url(#clip390)" d="M 0 0 M114.26 1277.73 L143.936 1277.73 L143.936 1281.66 L114.26 1281.66 L114.26 1277.73 Z" fill="#000000" fill-rule="evenodd" fill-opacity="1" /><path clip-path="url(#clip390)" d="M 0 0 M158.056 1290.62 L174.376 1290.62 L174.376 1294.56 L152.431 1294.56 L152.431 1290.62 Q155.093 1287.87 159.677 1283.24 Q164.283 1278.59 165.464 1277.24 Q167.709 1274.72 168.589 1272.98 Q169.491 1271.22 169.491 1269.53 Q169.491 1266.78 167.547 1265.04 Q165.626 1263.31 162.524 1263.31 Q160.325 1263.31 157.871 1264.07 Q155.44 1264.84 152.663 1266.39 L152.663 1261.66 Q155.487 1260.53 157.94 1259.95 Q160.394 1259.37 162.431 1259.37 Q167.802 1259.37 170.996 1262.06 Q174.19 1264.74 174.19 1269.23 Q174.19 1271.36 173.38 1273.28 Q172.593 1275.18 170.487 1277.78 Q169.908 1278.45 166.806 1281.66 Q163.704 1284.86 158.056 1290.62 Z" fill="#000000" fill-rule="evenodd" fill-opacity="1" /><path clip-path="url(#clip390)" d="M 0 0 M194.19 1263.08 Q190.579 1263.08 188.75 1266.64 Q186.945 1270.18 186.945 1277.31 Q186.945 1284.42 188.75 1287.98 Q190.579 1291.53 194.19 1291.53 Q197.825 1291.53 199.63 1287.98 Q201.459 1284.42 201.459 1277.31 Q201.459 1270.18 199.63 1266.64 Q197.825 1263.08 194.19 1263.08 M194.19 1259.37 Q200 1259.37 203.056 1263.98 Q206.135 1268.56 206.135 1277.31 Q206.135 1286.04 203.056 1290.65 Q200 1295.23 194.19 1295.23 Q188.38 1295.23 185.301 1290.65 Q182.246 1286.04 182.246 1277.31 Q182.246 1268.56 185.301 1263.98 Q188.38 1259.37 194.19 1259.37 Z" fill="#000000" fill-rule="evenodd" fill-opacity="1" /><path clip-path="url(#clip390)" d="M 0 0 M224.352 1263.08 Q220.741 1263.08 218.912 1266.64 Q217.107 1270.18 217.107 1277.31 Q217.107 1284.42 218.912 1287.98 Q220.741 1291.53 224.352 1291.53 Q227.986 1291.53 229.792 1287.98 Q231.621 1284.42 231.621 1277.31 Q231.621 1270.18 229.792 1266.64 Q227.986 1263.08 224.352 1263.08 M224.352 1259.37 Q230.162 1259.37 233.218 1263.98 Q236.297 1268.56 236.297 1277.31 Q236.297 1286.04 233.218 1290.65 Q230.162 1295.23 224.352 1295.23 Q218.542 1295.23 215.463 1290.65 Q212.408 1286.04 212.408 1277.31 Q212.408 1268.56 215.463 1263.98 Q218.542 1259.37 224.352 1259.37 Z" fill="#000000" fill-rule="evenodd" fill-opacity="1" /><path clip-path="url(#clip390)" d="M 0 0 M114.26 1141.49 L143.936 1141.49 L143.936 1145.43 L114.26 1145.43 L114.26 1141.49 Z" fill="#000000" fill-rule="evenodd" fill-opacity="1" /><path clip-path="url(#clip390)" d="M 0 0 M154.839 1154.39 L162.477 1154.39 L162.477 1128.02 L154.167 1129.69 L154.167 1125.43 L162.431 1123.76 L167.107 1123.76 L167.107 1154.39 L174.746 1154.39 L174.746 1158.32 L154.839 1158.32 L154.839 1154.39 Z" fill="#000000" fill-rule="evenodd" fill-opacity="1" /><path clip-path="url(#clip390)" d="M 0 0 M184.237 1123.76 L202.593 1123.76 L202.593 1127.7 L188.519 1127.7 L188.519 1136.17 Q189.538 1135.82 190.556 1135.66 Q191.575 1135.48 192.593 1135.48 Q198.38 1135.48 201.76 1138.65 Q205.139 1141.82 205.139 1147.24 Q205.139 1152.81 201.667 1155.92 Q198.195 1158.99 191.875 1158.99 Q189.7 1158.99 187.431 1158.62 Q185.186 1158.25 182.778 1157.51 L182.778 1152.81 Q184.862 1153.95 187.084 1154.5 Q189.306 1155.06 191.783 1155.06 Q195.787 1155.06 198.125 1152.95 Q200.463 1150.85 200.463 1147.24 Q200.463 1143.62 198.125 1141.52 Q195.787 1139.41 191.783 1139.41 Q189.908 1139.41 188.033 1139.83 Q186.181 1140.24 184.237 1141.12 L184.237 1123.76 Z" fill="#000000" fill-rule="evenodd" fill-opacity="1" /><path clip-path="url(#clip390)" d="M 0 0 M224.352 1126.84 Q220.741 1126.84 218.912 1130.41 Q217.107 1133.95 217.107 1141.08 Q217.107 1148.18 218.912 1151.75 Q220.741 1155.29 224.352 1155.29 Q227.986 1155.29 229.792 1151.75 Q231.621 1148.18 231.621 1141.08 Q231.621 1133.95 229.792 1130.41 Q227.986 1126.84 224.352 1126.84 M224.352 1123.14 Q230.162 1123.14 233.218 1127.74 Q236.297 1132.33 236.297 1141.08 Q236.297 1149.8 233.218 1154.41 Q230.162 1158.99 224.352 1158.99 Q218.542 1158.99 215.463 1154.41 Q212.408 1149.8 212.408 1141.08 Q212.408 1132.33 215.463 1127.74 Q218.542 1123.14 224.352 1123.14 Z" fill="#000000" fill-rule="evenodd" fill-opacity="1" /><path clip-path="url(#clip390)" d="M 0 0 M114.26 1005.26 L143.936 1005.26 L143.936 1009.2 L114.26 1009.2 L114.26 1005.26 Z" fill="#000000" fill-rule="evenodd" fill-opacity="1" /><path clip-path="url(#clip390)" d="M 0 0 M154.839 1018.15 L162.477 1018.15 L162.477 991.788 L154.167 993.455 L154.167 989.195 L162.431 987.529 L167.107 987.529 L167.107 1018.15 L174.746 1018.15 L174.746 1022.09 L154.839 1022.09 L154.839 1018.15 Z" fill="#000000" fill-rule="evenodd" fill-opacity="1" /><path clip-path="url(#clip390)" d="M 0 0 M194.19 990.607 Q190.579 990.607 188.75 994.172 Q186.945 997.714 186.945 1004.84 Q186.945 1011.95 188.75 1015.51 Q190.579 1019.06 194.19 1019.06 Q197.825 1019.06 199.63 1015.51 Q201.459 1011.95 201.459 1004.84 Q201.459 997.714 199.63 994.172 Q197.825 990.607 194.19 990.607 M194.19 986.904 Q200 986.904 203.056 991.51 Q206.135 996.093 206.135 1004.84 Q206.135 1013.57 203.056 1018.18 Q200 1022.76 194.19 1022.76 Q188.38 1022.76 185.301 1018.18 Q182.246 1013.57 182.246 1004.84 Q182.246 996.093 185.301 991.51 Q188.38 986.904 194.19 986.904 Z" fill="#000000" fill-rule="evenodd" fill-opacity="1" /><path clip-path="url(#clip390)" d="M 0 0 M224.352 990.607 Q220.741 990.607 218.912 994.172 Q217.107 997.714 217.107 1004.84 Q217.107 1011.95 218.912 1015.51 Q220.741 1019.06 224.352 1019.06 Q227.986 1019.06 229.792 1015.51 Q231.621 1011.95 231.621 1004.84 Q231.621 997.714 229.792 994.172 Q227.986 990.607 224.352 990.607 M224.352 986.904 Q230.162 986.904 233.218 991.51 Q236.297 996.093 236.297 1004.84 Q236.297 1013.57 233.218 1018.18 Q230.162 1022.76 224.352 1022.76 Q218.542 1022.76 215.463 1018.18 Q212.408 1013.57 212.408 1004.84 Q212.408 996.093 215.463 991.51 Q218.542 986.904 224.352 986.904 Z" fill="#000000" fill-rule="evenodd" fill-opacity="1" /><path clip-path="url(#clip390)" d="M 0 0 M144.422 869.025 L174.098 869.025 L174.098 872.961 L144.422 872.961 L144.422 869.025 Z" fill="#000000" fill-rule="evenodd" fill-opacity="1" /><path clip-path="url(#clip390)" d="M 0 0 M184.237 851.294 L202.593 851.294 L202.593 855.229 L188.519 855.229 L188.519 863.701 Q189.538 863.354 190.556 863.192 Q191.575 863.007 192.593 863.007 Q198.38 863.007 201.76 866.178 Q205.139 869.349 205.139 874.766 Q205.139 880.345 201.667 883.447 Q198.195 886.525 191.875 886.525 Q189.7 886.525 187.431 886.155 Q185.186 885.785 182.778 885.044 L182.778 880.345 Q184.862 881.479 187.084 882.035 Q189.306 882.59 191.783 882.59 Q195.787 882.59 198.125 880.484 Q200.463 878.377 200.463 874.766 Q200.463 871.155 198.125 869.049 Q195.787 866.942 191.783 866.942 Q189.908 866.942 188.033 867.359 Q186.181 867.775 184.237 868.655 L184.237 851.294 Z" fill="#000000" fill-rule="evenodd" fill-opacity="1" /><path clip-path="url(#clip390)" d="M 0 0 M224.352 854.373 Q220.741 854.373 218.912 857.938 Q217.107 861.479 217.107 868.609 Q217.107 875.715 218.912 879.28 Q220.741 882.822 224.352 882.822 Q227.986 882.822 229.792 879.28 Q231.621 875.715 231.621 868.609 Q231.621 861.479 229.792 857.938 Q227.986 854.373 224.352 854.373 M224.352 850.669 Q230.162 850.669 233.218 855.275 Q236.297 859.859 236.297 868.609 Q236.297 877.336 233.218 881.942 Q230.162 886.525 224.352 886.525 Q218.542 886.525 215.463 881.942 Q212.408 877.336 212.408 868.609 Q212.408 859.859 215.463 855.275 Q218.542 850.669 224.352 850.669 Z" fill="#000000" fill-rule="evenodd" fill-opacity="1" /><path clip-path="url(#clip390)" d="M 0 0 M33.0987 1108.27 Q33.0987 1110.34 37.7138 1110.34 L59.5482 1110.34 Q59.5482 1107.32 56.238 1104.29 Q53.2779 1101.59 46.1802 1101.59 Q39.5598 1101.59 35.995 1104.33 Q33.0987 1106.55 33.0987 1108.27 M28.1016 1108.27 Q28.1016 1103.82 32.3029 1099.77 Q36.7908 1095.41 46.1802 1095.41 Q54.8057 1095.41 59.9301 1099.77 Q64.768 1103.88 64.768 1110.34 L77.5631 1110.34 L77.5631 1116.17 L64.7999 1116.17 Q64.7999 1122.5 59.9301 1126.76 Q54.9649 1131.09 46.212 1131.09 Q37.109 1131.09 32.4621 1126.76 Q28.9928 1123.52 28.1016 1118.23 L33.2896 1118.23 Q34.0217 1120.34 36.5043 1122.18 Q40.1646 1124.92 46.212 1124.92 Q52.6414 1124.92 56.3017 1122.18 Q59.58 1119.73 59.58 1116.17 L37.7138 1116.17 Q28.1016 1116.17 28.1016 1108.27 Z" fill="#000000" fill-rule="evenodd" fill-opacity="1" /><polyline clip-path="url(#clip393)" style="stroke:#009af9; stroke-width:8; stroke-opacity:1; fill:none" points="
  331.177,832.458 351.003,834.7 370.828,836.987 390.653,839.321 410.478,841.701 430.304,844.128 450.129,846.603 469.954,849.127 489.779,851.7 509.605,854.322 
  529.43,856.995 549.255,859.718 569.08,862.493 588.905,865.32 608.731,868.199 628.556,871.131 648.381,874.116 668.206,877.156 688.032,880.249 707.857,883.397 
  727.682,886.601 747.507,889.86 767.332,893.175 787.158,896.546 806.983,899.974 826.808,903.459 846.633,907.002 866.459,910.602 886.284,914.261 906.109,917.978 
  925.934,921.753 945.76,925.588 965.585,929.483 985.41,933.437 1005.24,937.451 1025.06,941.525 1044.89,945.66 1064.71,949.856 1084.54,954.113 1104.36,958.432 
  1124.19,962.814 1144.01,967.258 1163.84,971.764 1183.66,976.335 1203.49,980.969 1223.31,985.668 1243.14,990.432 1262.96,995.262 1282.79,1000.16 1302.61,1005.12 
  1322.44,1010.15 1342.26,1015.25 1362.09,1020.42 1381.91,1025.66 1401.74,1030.97 1421.56,1036.36 1441.39,1041.82 1461.22,1047.35 1481.04,1052.96 1500.87,1058.65 
  1520.69,1064.42 1540.52,1070.27 1560.34,1076.2 1580.17,1082.22 1599.99,1088.32 1619.82,1094.51 1639.64,1100.79 1659.47,1107.16 1679.29,1113.63 1699.12,1120.19 
  1718.94,1126.86 1738.77,1133.62 1758.59,1140.49 1778.42,1147.47 1798.24,1154.56 1818.07,1161.75 1837.89,1169.07 1857.72,1176.5 1877.55,1184.06 1897.37,1191.74 
  1917.2,1199.55 1937.02,1207.49 1956.85,1215.57 1976.67,1223.78 1996.5,1232.14 2016.32,1240.65 2036.15,1249.31 2055.97,1258.12 2075.8,1267.1 2095.62,1276.24 
  2115.45,1285.54 2135.27,1295.02 2155.1,1304.68 2174.92,1314.52 2194.75,1324.55 2214.57,1334.77 2234.4,1345.19 2254.22,1355.81 2274.05,1366.65 2293.87,1377.69 
  
  "/>
<polyline clip-path="url(#clip393)" style="stroke:#ff0000; stroke-width:4; stroke-opacity:1; fill:none" points="
  331.177,1222.78 1974.28,1222.78 1974.28,1394.05 
  "/>
<path clip-path="url(#clip390)" d="M 0 0 M2013.99 1214.67 Q2013.99 1216.93 2012.76 1221.9 Q2011.53 1226.88 2010.03 1230.28 Q2006.84 1237.66 2001.34 1237.66 Q2000.66 1237.66 1999.99 1237.6 Q1999.35 1237.54 1998.38 1237.27 Q1997.41 1237.01 1996.62 1236.6 Q1995.83 1236.16 1995.04 1235.34 Q1994.28 1234.52 1993.84 1233.44 Q1991.41 1237.66 1987.61 1237.66 Q1983.92 1237.66 1981.49 1235.78 Q1979.09 1233.91 1979.09 1230.07 Q1979.09 1228.34 1979.79 1225.8 Q1980.49 1223.25 1982.45 1217.98 Q1983.54 1215.26 1983.54 1213.76 Q1983.54 1213.09 1983.39 1212.65 Q1983.24 1212.21 1982.95 1212.07 Q1982.69 1211.89 1982.51 1211.86 Q1982.34 1211.8 1982.04 1211.8 Q1980.29 1211.8 1978.71 1213.59 Q1977.12 1215.35 1975.98 1219.24 Q1975.75 1219.97 1975.6 1220.15 Q1975.46 1220.32 1975.02 1220.32 Q1974.28 1220.29 1974.28 1219.71 Q1974.28 1219.47 1974.55 1218.57 Q1974.81 1217.63 1975.43 1216.25 Q1976.07 1214.85 1976.95 1213.59 Q1977.83 1212.3 1979.2 1211.39 Q1980.61 1210.49 1982.22 1210.49 Q1984.39 1210.49 1985.76 1211.92 Q1987.14 1213.35 1987.14 1215.4 Q1987.14 1215.99 1986.99 1216.63 Q1986.85 1217.25 1986.7 1217.66 Q1986.58 1218.04 1986.11 1219.24 Q1984.18 1224.3 1983.57 1226.73 Q1982.98 1229.16 1982.98 1230.86 Q1982.98 1231.42 1983.01 1231.86 Q1983.04 1232.3 1983.27 1233.2 Q1983.54 1234.11 1984.01 1234.73 Q1984.47 1235.31 1985.44 1235.81 Q1986.44 1236.31 1987.78 1236.31 Q1991.15 1236.31 1993.32 1231.27 Q1993.26 1230.98 1993.26 1230.22 Q1993.26 1228.52 1993.78 1226.24 Q1993.93 1225.71 1994.78 1222.34 Q1995.63 1218.95 1996.36 1215.99 Q1997.12 1213 1997.21 1212.83 Q1997.5 1212.01 1998.15 1211.57 Q1998.79 1211.13 1999.43 1211.13 Q2000.17 1211.13 2000.66 1211.57 Q2001.16 1212.01 2001.16 1212.77 Q2001.16 1212.92 2000.99 1213.59 Q2000.84 1214.23 2000.61 1215.2 Q2000.37 1216.16 2000.25 1216.66 L1997.74 1226.73 Q1997.09 1229.08 1997.09 1231.1 Q1997.09 1233.64 1998.23 1234.99 Q1999.38 1236.31 2001.51 1236.31 Q2005.52 1236.31 2008.1 1231.04 Q2009.27 1228.75 2010.33 1225.18 Q2011.41 1221.61 2011.41 1220.06 Q2011.41 1217.13 2009.24 1214.96 Q2008.77 1214.55 2008.57 1214.23 Q2008.36 1213.88 2008.36 1213.35 Q2008.36 1212.36 2009.3 1211.42 Q2010.24 1210.49 2011.35 1210.49 Q2012.35 1210.49 2013.17 1211.48 Q2013.99 1212.45 2013.99 1214.67 Z" fill="#000000" fill-rule="evenodd" fill-opacity="1" /><path clip-path="url(#clip390)" d="M 0 0 M2036.17 1243.82 Q2036.33 1244.01 2036.33 1244.19 Q2036.33 1244.37 2035.92 1244.91 Q2035.53 1245.44 2034.69 1246.16 Q2033.85 1246.87 2032.77 1247.55 Q2031.68 1248.23 2030.08 1248.68 Q2028.48 1249.15 2026.8 1249.15 Q2023.67 1249.15 2021.82 1247.08 Q2020 1245.01 2020 1242.04 Q2020 1239.15 2021.62 1236.38 Q2023.24 1233.59 2025.86 1231.87 Q2028.48 1230.13 2031.25 1230.13 Q2033.44 1230.13 2034.82 1231.16 Q2036.19 1232.18 2036.19 1233.74 Q2036.19 1234.95 2035.49 1235.68 Q2034.79 1236.42 2033.85 1236.42 Q2033.2 1236.42 2032.75 1236.05 Q2032.29 1235.66 2032.29 1234.95 Q2032.29 1234.02 2033.05 1233.31 Q2033.34 1233.02 2033.67 1232.9 Q2034.02 1232.75 2034.22 1232.75 Q2034.43 1232.73 2034.9 1232.73 Q2034.47 1231.93 2033.44 1231.5 Q2032.44 1231.05 2031.29 1231.05 Q2029.59 1231.05 2027.97 1232.24 Q2026.35 1233.41 2025.37 1235.25 Q2024.38 1237.06 2023.75 1239.62 Q2023.11 1242.16 2023.11 1243.64 Q2023.11 1245.67 2024.06 1246.94 Q2025 1248.21 2026.88 1248.21 Q2027.25 1248.21 2027.64 1248.19 Q2028.05 1248.17 2029.08 1247.94 Q2030.12 1247.72 2031.04 1247.33 Q2031.97 1246.94 2033.13 1246.1 Q2034.32 1245.24 2035.27 1244.07 Q2035.59 1243.64 2035.82 1243.64 Q2036 1243.64 2036.17 1243.82 Z" fill="#000000" fill-rule="evenodd" fill-opacity="1" /><path clip-path="url(#clip390)" d="M 0 0 M2055.96 1237.22 Q2055.96 1239.46 2054.97 1241.67 Q2053.99 1243.86 2052.41 1245.5 Q2050.85 1247.12 2048.8 1248.15 Q2046.75 1249.15 2044.71 1249.15 Q2041.77 1249.15 2039.87 1247.16 Q2037.98 1245.15 2037.98 1242.04 Q2037.98 1239.13 2039.6 1236.36 Q2041.24 1233.57 2043.86 1231.85 Q2046.49 1230.13 2049.23 1230.13 Q2052.12 1230.13 2054.03 1232.08 Q2055.96 1234.02 2055.96 1237.22 M2052.88 1235.58 Q2052.88 1233.59 2051.92 1232.32 Q2050.96 1231.05 2049.19 1231.05 Q2048.68 1231.05 2048.09 1231.22 Q2047.49 1231.36 2046.71 1231.75 Q2045.96 1232.14 2045.09 1232.96 Q2044.25 1233.76 2043.52 1234.91 Q2042.55 1236.42 2041.82 1239.21 Q2041.1 1241.98 2041.1 1243.64 Q2041.1 1245.93 2042.16 1247.08 Q2043.23 1248.21 2044.75 1248.21 Q2046.22 1248.21 2047.78 1247.18 Q2049.36 1246.14 2050.44 1244.35 Q2051.53 1242.51 2052.21 1239.8 Q2052.88 1237.08 2052.88 1235.58 Z" fill="#000000" fill-rule="evenodd" fill-opacity="1" /><path clip-path="url(#clip390)" d="M 0 0 M2065.39 1236.02 Q2064.54 1235.05 2064.54 1233.79 Q2064.54 1232.53 2065.36 1231.59 Q2066.21 1230.63 2067.73 1230.63 Q2069.52 1230.63 2070.54 1232.36 Q2071.57 1234.05 2071.57 1236.92 Q2071.57 1240.03 2070.31 1242.9 Q2069.05 1245.79 2067.82 1247.17 Q2066.59 1248.55 2066.09 1248.55 Q2065.51 1248.55 2065.51 1247.9 Q2065.51 1247.67 2065.92 1247.23 Q2070.22 1242.6 2070.25 1236.92 Q2070.25 1236.02 2070.13 1236.02 L2069.99 1236.13 Q2068.96 1236.98 2067.73 1236.98 Q2066.24 1236.98 2065.39 1236.02 Z" fill="#000000" fill-rule="evenodd" fill-opacity="1" /><path clip-path="url(#clip390)" d="M 0 0 M2146.71 1221.14 Q2147.06 1221.49 2147.06 1221.99 Q2147.06 1222.49 2146.71 1222.84 Q2146.36 1223.19 2145.86 1223.19 L2108.33 1223.19 Q2107.83 1223.19 2107.48 1222.84 Q2107.13 1222.49 2107.13 1221.99 Q2107.13 1221.49 2107.48 1221.14 Q2107.83 1220.79 2108.33 1220.79 L2145.86 1220.79 Q2146.36 1220.79 2146.71 1221.14 Z" fill="#000000" fill-rule="evenodd" fill-opacity="1" /><path clip-path="url(#clip390)" d="M 0 0 M2169.96 1202.76 L2169.96 1200.88 Q2177.16 1200.88 2180.88 1197.05 Q2181.91 1197.05 2182.08 1197.28 Q2182.26 1197.51 2182.26 1198.6 L2182.26 1232.24 Q2182.26 1234.02 2183.14 1234.58 Q2184.02 1235.14 2187.85 1235.14 L2189.75 1235.14 L2189.75 1236.98 Q2187.65 1236.81 2180.03 1236.81 Q2172.42 1236.81 2170.34 1236.98 L2170.34 1235.14 L2172.25 1235.14 Q2176.02 1235.14 2176.93 1234.61 Q2177.84 1234.05 2177.84 1232.24 L2177.84 1201.17 Q2174.71 1202.76 2169.96 1202.76 Z" fill="#000000" fill-rule="evenodd" fill-opacity="1" /><path clip-path="url(#clip390)" d="M 0 0 M2195.28 1227.93 Q2195.28 1221.23 2203.92 1216.9 Q2200.2 1214.38 2199.53 1213.65 Q2196.89 1210.72 2196.89 1207.06 Q2196.89 1202.87 2200.06 1199.97 Q2203.25 1197.05 2207.76 1197.05 Q2212.06 1197.05 2215.31 1199.54 Q2218.56 1202.02 2218.56 1205.98 Q2218.56 1211.54 2211.3 1215.29 Q2216.1 1218.27 2217.24 1219.53 Q2220.17 1222.78 2220.17 1226.91 Q2220.17 1231.71 2216.48 1235.02 Q2212.79 1238.3 2207.7 1238.3 Q2202.72 1238.3 2199 1235.4 Q2195.28 1232.5 2195.28 1227.93 M2198.27 1227.93 Q2198.27 1231.65 2201.05 1234.14 Q2203.86 1236.63 2207.76 1236.63 Q2211.53 1236.63 2214.34 1234.46 Q2217.18 1232.3 2217.18 1229.08 Q2217.18 1227.82 2216.74 1226.73 Q2216.33 1225.65 2215.48 1224.8 Q2214.66 1223.92 2214.14 1223.54 Q2213.64 1223.13 2212.67 1222.46 L2205.3 1217.8 Q2198.27 1221.7 2198.27 1227.93 M2199.53 1204.72 Q2199.53 1207.59 2202.54 1209.58 L2209.98 1214.38 Q2215.92 1210.89 2215.92 1205.98 Q2215.92 1202.78 2213.49 1200.68 Q2211.06 1198.54 2207.7 1198.54 Q2204.39 1198.54 2201.96 1200.3 Q2199.53 1202.02 2199.53 1204.72 Z" fill="#000000" fill-rule="evenodd" fill-opacity="1" /><path clip-path="url(#clip390)" d="M 0 0 M2224.98 1217.8 Q2224.98 1208.99 2227.2 1204.19 Q2230.31 1197.05 2237.63 1197.05 Q2239.18 1197.05 2240.79 1197.49 Q2242.43 1197.9 2244.48 1199.51 Q2246.56 1201.12 2247.82 1203.75 Q2250.22 1208.85 2250.22 1217.8 Q2250.22 1226.56 2247.99 1231.33 Q2244.74 1238.3 2237.57 1238.3 Q2234.87 1238.3 2232.12 1236.92 Q2229.4 1235.55 2227.67 1232.24 Q2224.98 1227.29 2224.98 1217.8 M2229.96 1217.07 Q2229.96 1226.12 2230.6 1229.72 Q2231.33 1233.61 2233.32 1235.31 Q2235.34 1236.98 2237.57 1236.98 Q2239.97 1236.98 2241.96 1235.2 Q2243.98 1233.38 2244.59 1229.49 Q2245.27 1225.65 2245.24 1217.07 Q2245.24 1208.73 2244.65 1205.39 Q2243.86 1201.5 2241.75 1199.94 Q2239.68 1198.36 2237.57 1198.36 Q2236.78 1198.36 2235.93 1198.6 Q2235.11 1198.83 2233.91 1199.51 Q2232.71 1200.18 2231.77 1201.85 Q2230.86 1203.52 2230.42 1206.03 Q2229.96 1209.28 2229.96 1217.07 Z" fill="#000000" fill-rule="evenodd" fill-opacity="1" /><path clip-path="url(#clip390)" d="M 0 0 M2254.67 1202.7 Q2254.67 1199.94 2256.61 1197.98 Q2258.57 1196.02 2261.32 1196.02 Q2264.13 1196.02 2266.03 1198.01 Q2267.97 1199.97 2267.97 1202.61 Q2267.97 1205.36 2265.97 1207.32 Q2264.01 1209.28 2261.32 1209.28 Q2258.51 1209.28 2256.58 1207.32 Q2254.67 1205.33 2254.67 1202.7 M2258.33 1199.65 Q2257.07 1200.88 2257.07 1202.7 Q2257.07 1204.48 2258.33 1205.68 Q2259.59 1206.88 2261.32 1206.88 Q2263.05 1206.88 2264.28 1205.68 Q2265.51 1204.48 2265.51 1202.7 Q2265.51 1200.88 2264.25 1199.65 Q2262.99 1198.42 2261.32 1198.42 Q2259.59 1198.42 2258.33 1199.65 Z" fill="#000000" fill-rule="evenodd" fill-opacity="1" /></svg>
