<?xml version="1.0" encoding="utf-8"?>
<svg xmlns="http://www.w3.org/2000/svg" xmlns:xlink="http://www.w3.org/1999/xlink" width="600" height="400" viewBox="0 0 2400 1600">
<defs>
  <clipPath id="clip570">
    <rect x="0" y="0" width="2400" height="1600"/>
  </clipPath>
</defs>
<path clip-path="url(#clip570)" d="
M0 1600 L2400 1600 L2400 0 L0 0  Z
  " fill="#ffffff" fill-rule="evenodd" fill-opacity="1"/>
<defs>
  <clipPath id="clip571">
    <rect x="480" y="0" width="1681" height="1600"/>
  </clipPath>
</defs>
<path clip-path="url(#clip570)" d="
M169.121 1486.45 L2352.76 1486.45 L2352.76 47.2441 L169.121 47.2441  Z
  " fill="#ffffff" fill-rule="evenodd" fill-opacity="1"/>
<defs>
  <clipPath id="clip572">
    <rect x="169" y="47" width="2185" height="1440"/>
  </clipPath>
</defs>
<polyline clip-path="url(#clip572)" style="stroke:#000000; stroke-width:2; stroke-opacity:0.1; fill:none" points="
  230.922,1486.45 230.922,47.2441 
  "/>
<polyline clip-path="url(#clip572)" style="stroke:#000000; stroke-width:2; stroke-opacity:0.1; fill:none" points="
  660.096,1486.45 660.096,47.2441 
  "/>
<polyline clip-path="url(#clip572)" style="stroke:#000000; stroke-width:2; stroke-opacity:0.1; fill:none" points="
  1089.27,1486.45 1089.27,47.2441 
  "/>
<polyline clip-path="url(#clip572)" style="stroke:#000000; stroke-width:2; stroke-opacity:0.1; fill:none" points="
  1518.44,1486.45 1518.44,47.2441 
  "/>
<polyline clip-path="url(#clip572)" style="stroke:#000000; stroke-width:2; stroke-opacity:0.1; fill:none" points="
  1947.62,1486.45 1947.62,47.2441 
  "/>
<polyline clip-path="url(#clip570)" style="stroke:#000000; stroke-width:4; stroke-opacity:1; fill:none" points="
  169.121,1486.45 2352.76,1486.45 
  "/>
<polyline clip-path="url(#clip570)" style="stroke:#000000; stroke-width:4; stroke-opacity:1; fill:none" points="
  230.922,1486.45 230.922,1469.18 
  "/>
<polyline clip-path="url(#clip570)" style="stroke:#000000; stroke-width:4; stroke-opacity:1; fill:none" points="
  660.096,1486.45 660.096,1469.18 
  "/>
<polyline clip-path="url(#clip570)" style="stroke:#000000; stroke-width:4; stroke-opacity:1; fill:none" points="
  1089.27,1486.45 1089.27,1469.18 
  "/>
<polyline clip-path="url(#clip570)" style="stroke:#000000; stroke-width:4; stroke-opacity:1; fill:none" points="
  1518.44,1486.45 1518.44,1469.18 
  "/>
<polyline clip-path="url(#clip570)" style="stroke:#000000; stroke-width:4; stroke-opacity:1; fill:none" points="
  1947.62,1486.45 1947.62,1469.18 
  "/>
<path clip-path="url(#clip570)" d="M 0 0 M208.307 1515.64 Q204.696 1515.64 202.867 1519.2 Q201.061 1522.75 201.061 1529.87 Q201.061 1536.98 202.867 1540.55 Q204.696 1544.09 208.307 1544.09 Q211.941 1544.09 213.746 1540.55 Q215.575 1536.98 215.575 1529.87 Q215.575 1522.75 213.746 1519.2 Q211.941 1515.64 208.307 1515.64 M208.307 1511.93 Q214.117 1511.93 217.172 1516.54 Q220.251 1521.12 220.251 1529.87 Q220.251 1538.6 217.172 1543.21 Q214.117 1547.79 208.307 1547.79 Q202.497 1547.79 199.418 1543.21 Q196.362 1538.6 196.362 1529.87 Q196.362 1521.12 199.418 1516.54 Q202.497 1511.93 208.307 1511.93 Z" fill="#000000" fill-rule="evenodd" fill-opacity="1" /><path clip-path="url(#clip570)" d="M 0 0 M228.469 1541.24 L233.353 1541.24 L233.353 1547.12 L228.469 1547.12 L228.469 1541.24 Z" fill="#000000" fill-rule="evenodd" fill-opacity="1" /><path clip-path="url(#clip570)" d="M 0 0 M253.538 1515.64 Q249.927 1515.64 248.098 1519.2 Q246.293 1522.75 246.293 1529.87 Q246.293 1536.98 248.098 1540.55 Q249.927 1544.09 253.538 1544.09 Q257.172 1544.09 258.978 1540.55 Q260.806 1536.98 260.806 1529.87 Q260.806 1522.75 258.978 1519.2 Q257.172 1515.64 253.538 1515.64 M253.538 1511.93 Q259.348 1511.93 262.404 1516.54 Q265.482 1521.12 265.482 1529.87 Q265.482 1538.6 262.404 1543.21 Q259.348 1547.79 253.538 1547.79 Q247.728 1547.79 244.649 1543.21 Q241.594 1538.6 241.594 1529.87 Q241.594 1521.12 244.649 1516.54 Q247.728 1511.93 253.538 1511.93 Z" fill="#000000" fill-rule="evenodd" fill-opacity="1" /><path clip-path="url(#clip570)" d="M 0 0 M637.978 1515.64 Q634.367 1515.64 632.538 1519.2 Q630.732 1522.75 630.732 1529.87 Q630.732 1536.98 632.538 1540.55 Q634.367 1544.09 637.978 1544.09 Q641.612 1544.09 643.418 1540.55 Q645.246 1536.98 645.246 1529.87 Q645.246 1522.75 643.418 1519.2 Q641.612 1515.64 637.978 1515.64 M637.978 1511.93 Q643.788 1511.93 646.844 1516.54 Q649.922 1521.12 649.922 1529.87 Q649.922 1538.6 646.844 1543.21 Q643.788 1547.79 637.978 1547.79 Q632.168 1547.79 629.089 1543.21 Q626.033 1538.6 626.033 1529.87 Q626.033 1521.12 629.089 1516.54 Q632.168 1511.93 637.978 1511.93 Z" fill="#000000" fill-rule="evenodd" fill-opacity="1" /><path clip-path="url(#clip570)" d="M 0 0 M658.14 1541.24 L663.024 1541.24 L663.024 1547.12 L658.14 1547.12 L658.14 1541.24 Z" fill="#000000" fill-rule="evenodd" fill-opacity="1" /><path clip-path="url(#clip570)" d="M 0 0 M673.255 1512.56 L691.612 1512.56 L691.612 1516.5 L677.538 1516.5 L677.538 1524.97 Q678.556 1524.62 679.575 1524.46 Q680.593 1524.27 681.612 1524.27 Q687.399 1524.27 690.778 1527.44 Q694.158 1530.62 694.158 1536.03 Q694.158 1541.61 690.686 1544.71 Q687.214 1547.79 680.894 1547.79 Q678.718 1547.79 676.45 1547.42 Q674.204 1547.05 671.797 1546.31 L671.797 1541.61 Q673.88 1542.74 676.103 1543.3 Q678.325 1543.86 680.802 1543.86 Q684.806 1543.86 687.144 1541.75 Q689.482 1539.64 689.482 1536.03 Q689.482 1532.42 687.144 1530.31 Q684.806 1528.21 680.802 1528.21 Q678.927 1528.21 677.052 1528.62 Q675.2 1529.04 673.255 1529.92 L673.255 1512.56 Z" fill="#000000" fill-rule="evenodd" fill-opacity="1" /><path clip-path="url(#clip570)" d="M 0 0 M1056.42 1543.18 L1064.06 1543.18 L1064.06 1516.82 L1055.75 1518.49 L1055.75 1514.23 L1064.01 1512.56 L1068.69 1512.56 L1068.69 1543.18 L1076.33 1543.18 L1076.33 1547.12 L1056.42 1547.12 L1056.42 1543.18 Z" fill="#000000" fill-rule="evenodd" fill-opacity="1" /><path clip-path="url(#clip570)" d="M 0 0 M1085.77 1541.24 L1090.66 1541.24 L1090.66 1547.12 L1085.77 1547.12 L1085.77 1541.24 Z" fill="#000000" fill-rule="evenodd" fill-opacity="1" /><path clip-path="url(#clip570)" d="M 0 0 M1110.84 1515.64 Q1107.23 1515.64 1105.4 1519.2 Q1103.6 1522.75 1103.6 1529.87 Q1103.6 1536.98 1105.4 1540.55 Q1107.23 1544.09 1110.84 1544.09 Q1114.48 1544.09 1116.28 1540.55 Q1118.11 1536.98 1118.11 1529.87 Q1118.11 1522.75 1116.28 1519.2 Q1114.48 1515.64 1110.84 1515.64 M1110.84 1511.93 Q1116.65 1511.93 1119.71 1516.54 Q1122.79 1521.12 1122.79 1529.87 Q1122.79 1538.6 1119.71 1543.21 Q1116.65 1547.79 1110.84 1547.79 Q1105.03 1547.79 1101.95 1543.21 Q1098.9 1538.6 1098.9 1529.87 Q1098.9 1521.12 1101.95 1516.54 Q1105.03 1511.93 1110.84 1511.93 Z" fill="#000000" fill-rule="evenodd" fill-opacity="1" /><path clip-path="url(#clip570)" d="M 0 0 M1486.09 1543.18 L1493.73 1543.18 L1493.73 1516.82 L1485.42 1518.49 L1485.42 1514.23 L1493.69 1512.56 L1498.36 1512.56 L1498.36 1543.18 L1506 1543.18 L1506 1547.12 L1486.09 1547.12 L1486.09 1543.18 Z" fill="#000000" fill-rule="evenodd" fill-opacity="1" /><path clip-path="url(#clip570)" d="M 0 0 M1515.45 1541.24 L1520.33 1541.24 L1520.33 1547.12 L1515.45 1547.12 L1515.45 1541.24 Z" fill="#000000" fill-rule="evenodd" fill-opacity="1" /><path clip-path="url(#clip570)" d="M 0 0 M1530.56 1512.56 L1548.92 1512.56 L1548.92 1516.5 L1534.84 1516.5 L1534.84 1524.97 Q1535.86 1524.62 1536.88 1524.46 Q1537.9 1524.27 1538.92 1524.27 Q1544.7 1524.27 1548.08 1527.44 Q1551.46 1530.62 1551.46 1536.03 Q1551.46 1541.61 1547.99 1544.71 Q1544.52 1547.79 1538.2 1547.79 Q1536.02 1547.79 1533.76 1547.42 Q1531.51 1547.05 1529.1 1546.31 L1529.1 1541.61 Q1531.19 1542.74 1533.41 1543.3 Q1535.63 1543.86 1538.11 1543.86 Q1542.11 1543.86 1544.45 1541.75 Q1546.79 1539.64 1546.79 1536.03 Q1546.79 1532.42 1544.45 1530.31 Q1542.11 1528.21 1538.11 1528.21 Q1536.23 1528.21 1534.36 1528.62 Q1532.51 1529.04 1530.56 1529.92 L1530.56 1512.56 Z" fill="#000000" fill-rule="evenodd" fill-opacity="1" /><path clip-path="url(#clip570)" d="M 0 0 M1918.85 1543.18 L1935.17 1543.18 L1935.17 1547.12 L1913.23 1547.12 L1913.23 1543.18 Q1915.89 1540.43 1920.48 1535.8 Q1925.08 1531.15 1926.26 1529.81 Q1928.51 1527.28 1929.39 1525.55 Q1930.29 1523.79 1930.29 1522.1 Q1930.29 1519.34 1928.35 1517.61 Q1926.42 1515.87 1923.32 1515.87 Q1921.12 1515.87 1918.67 1516.63 Q1916.24 1517.4 1913.46 1518.95 L1913.46 1514.23 Q1916.29 1513.09 1918.74 1512.51 Q1921.19 1511.93 1923.23 1511.93 Q1928.6 1511.93 1931.79 1514.62 Q1934.99 1517.31 1934.99 1521.8 Q1934.99 1523.93 1934.18 1525.85 Q1933.39 1527.74 1931.29 1530.34 Q1930.71 1531.01 1927.6 1534.23 Q1924.5 1537.42 1918.85 1543.18 Z" fill="#000000" fill-rule="evenodd" fill-opacity="1" /><path clip-path="url(#clip570)" d="M 0 0 M1944.99 1541.24 L1949.87 1541.24 L1949.87 1547.12 L1944.99 1547.12 L1944.99 1541.24 Z" fill="#000000" fill-rule="evenodd" fill-opacity="1" /><path clip-path="url(#clip570)" d="M 0 0 M1970.06 1515.64 Q1966.45 1515.64 1964.62 1519.2 Q1962.81 1522.75 1962.81 1529.87 Q1962.81 1536.98 1964.62 1540.55 Q1966.45 1544.09 1970.06 1544.09 Q1973.69 1544.09 1975.5 1540.55 Q1977.33 1536.98 1977.33 1529.87 Q1977.33 1522.75 1975.5 1519.2 Q1973.69 1515.64 1970.06 1515.64 M1970.06 1511.93 Q1975.87 1511.93 1978.92 1516.54 Q1982 1521.12 1982 1529.87 Q1982 1538.6 1978.92 1543.21 Q1975.87 1547.79 1970.06 1547.79 Q1964.25 1547.79 1961.17 1543.21 Q1958.11 1538.6 1958.11 1529.87 Q1958.11 1521.12 1961.17 1516.54 Q1964.25 1511.93 1970.06 1511.93 Z" fill="#000000" fill-rule="evenodd" fill-opacity="1" /><polyline clip-path="url(#clip572)" style="stroke:#000000; stroke-width:2; stroke-opacity:0.1; fill:none" points="
  169.121,1445.72 2352.76,1445.72 
  "/>
<polyline clip-path="url(#clip572)" style="stroke:#000000; stroke-width:2; stroke-opacity:0.1; fill:none" points="
  169.121,1008.11 2352.76,1008.11 
  "/>
<polyline clip-path="url(#clip572)" style="stroke:#000000; stroke-width:2; stroke-opacity:0.1; fill:none" points="
  169.121,570.508 2352.76,570.508 
  "/>
<polyline clip-path="url(#clip572)" style="stroke:#000000; stroke-width:2; stroke-opacity:0.1; fill:none" points="
  169.121,132.904 2352.76,132.904 
  "/>
<polyline clip-path="url(#clip570)" style="stroke:#000000; stroke-width:4; stroke-opacity:1; fill:none" points="
  169.121,1486.45 169.121,47.2441 
  "/>
<polyline clip-path="url(#clip570)" style="stroke:#000000; stroke-width:4; stroke-opacity:1; fill:none" points="
  169.121,1445.72 195.325,1445.72 
  "/>
<polyline clip-path="url(#clip570)" style="stroke:#000000; stroke-width:4; stroke-opacity:1; fill:none" points="
  169.121,1008.11 195.325,1008.11 
  "/>
<polyline clip-path="url(#clip570)" style="stroke:#000000; stroke-width:4; stroke-opacity:1; fill:none" points="
  169.121,570.508 195.325,570.508 
  "/>
<polyline clip-path="url(#clip570)" style="stroke:#000000; stroke-width:4; stroke-opacity:1; fill:none" points="
  169.121,132.904 195.325,132.904 
  "/>
<path clip-path="url(#clip570)" d="M 0 0 M121.177 1431.51 Q117.566 1431.51 115.737 1435.08 Q113.932 1438.62 113.932 1445.75 Q113.932 1452.86 115.737 1456.42 Q117.566 1459.96 121.177 1459.96 Q124.811 1459.96 126.617 1456.42 Q128.445 1452.86 128.445 1445.75 Q128.445 1438.62 126.617 1435.08 Q124.811 1431.51 121.177 1431.51 M121.177 1427.81 Q126.987 1427.81 130.043 1432.42 Q133.121 1437 133.121 1445.75 Q133.121 1454.48 130.043 1459.08 Q126.987 1463.67 121.177 1463.67 Q115.367 1463.67 112.288 1459.08 Q109.233 1454.48 109.233 1445.75 Q109.233 1437 112.288 1432.42 Q115.367 1427.81 121.177 1427.81 Z" fill="#000000" fill-rule="evenodd" fill-opacity="1" /><path clip-path="url(#clip570)" d="M 0 0 M81.0614 990.832 L99.4178 990.832 L99.4178 994.767 L85.3438 994.767 L85.3438 1003.24 Q86.3623 1002.89 87.3808 1002.73 Q88.3993 1002.54 89.4178 1002.54 Q95.2049 1002.54 98.5845 1005.72 Q101.964 1008.89 101.964 1014.3 Q101.964 1019.88 98.4919 1022.98 Q95.0197 1026.06 88.7003 1026.06 Q86.5243 1026.06 84.2558 1025.69 Q82.0105 1025.32 79.6031 1024.58 L79.6031 1019.88 Q81.6864 1021.02 83.9086 1021.57 Q86.1308 1022.13 88.6077 1022.13 Q92.6123 1022.13 94.9502 1020.02 Q97.2882 1017.91 97.2882 1014.3 Q97.2882 1010.69 94.9502 1008.59 Q92.6123 1006.48 88.6077 1006.48 Q86.7327 1006.48 84.8577 1006.9 Q83.0058 1007.31 81.0614 1008.19 L81.0614 990.832 Z" fill="#000000" fill-rule="evenodd" fill-opacity="1" /><path clip-path="url(#clip570)" d="M 0 0 M121.177 993.91 Q117.566 993.91 115.737 997.475 Q113.932 1001.02 113.932 1008.15 Q113.932 1015.25 115.737 1018.82 Q117.566 1022.36 121.177 1022.36 Q124.811 1022.36 126.617 1018.82 Q128.445 1015.25 128.445 1008.15 Q128.445 1001.02 126.617 997.475 Q124.811 993.91 121.177 993.91 M121.177 990.207 Q126.987 990.207 130.043 994.813 Q133.121 999.397 133.121 1008.15 Q133.121 1016.87 130.043 1021.48 Q126.987 1026.06 121.177 1026.06 Q115.367 1026.06 112.288 1021.48 Q109.233 1016.87 109.233 1008.15 Q109.233 999.397 112.288 994.813 Q115.367 990.207 121.177 990.207 Z" fill="#000000" fill-rule="evenodd" fill-opacity="1" /><path clip-path="url(#clip570)" d="M 0 0 M51.6634 583.853 L59.3023 583.853 L59.3023 557.487 L50.9921 559.154 L50.9921 554.894 L59.256 553.228 L63.9319 553.228 L63.9319 583.853 L71.5707 583.853 L71.5707 587.788 L51.6634 587.788 L51.6634 583.853 Z" fill="#000000" fill-rule="evenodd" fill-opacity="1" /><path clip-path="url(#clip570)" d="M 0 0 M91.0151 556.306 Q87.404 556.306 85.5753 559.871 Q83.7697 563.413 83.7697 570.543 Q83.7697 577.649 85.5753 581.214 Q87.404 584.755 91.0151 584.755 Q94.6493 584.755 96.4548 581.214 Q98.2835 577.649 98.2835 570.543 Q98.2835 563.413 96.4548 559.871 Q94.6493 556.306 91.0151 556.306 M91.0151 552.603 Q96.8252 552.603 99.8808 557.209 Q102.959 561.793 102.959 570.543 Q102.959 579.269 99.8808 583.876 Q96.8252 588.459 91.0151 588.459 Q85.2049 588.459 82.1262 583.876 Q79.0707 579.269 79.0707 570.543 Q79.0707 561.793 82.1262 557.209 Q85.2049 552.603 91.0151 552.603 Z" fill="#000000" fill-rule="evenodd" fill-opacity="1" /><path clip-path="url(#clip570)" d="M 0 0 M121.177 556.306 Q117.566 556.306 115.737 559.871 Q113.932 563.413 113.932 570.543 Q113.932 577.649 115.737 581.214 Q117.566 584.755 121.177 584.755 Q124.811 584.755 126.617 581.214 Q128.445 577.649 128.445 570.543 Q128.445 563.413 126.617 559.871 Q124.811 556.306 121.177 556.306 M121.177 552.603 Q126.987 552.603 130.043 557.209 Q133.121 561.793 133.121 570.543 Q133.121 579.269 130.043 583.876 Q126.987 588.459 121.177 588.459 Q115.367 588.459 112.288 583.876 Q109.233 579.269 109.233 570.543 Q109.233 561.793 112.288 557.209 Q115.367 552.603 121.177 552.603 Z" fill="#000000" fill-rule="evenodd" fill-opacity="1" /><path clip-path="url(#clip570)" d="M 0 0 M51.6634 146.249 L59.3023 146.249 L59.3023 119.883 L50.9921 121.55 L50.9921 117.291 L59.256 115.624 L63.9319 115.624 L63.9319 146.249 L71.5707 146.249 L71.5707 150.184 L51.6634 150.184 L51.6634 146.249 Z" fill="#000000" fill-rule="evenodd" fill-opacity="1" /><path clip-path="url(#clip570)" d="M 0 0 M81.0614 115.624 L99.4178 115.624 L99.4178 119.559 L85.3438 119.559 L85.3438 128.031 Q86.3623 127.684 87.3808 127.522 Q88.3993 127.337 89.4178 127.337 Q95.2049 127.337 98.5845 130.508 Q101.964 133.679 101.964 139.096 Q101.964 144.675 98.4919 147.776 Q95.0197 150.855 88.7003 150.855 Q86.5243 150.855 84.2558 150.485 Q82.0105 150.114 79.6031 149.374 L79.6031 144.675 Q81.6864 145.809 83.9086 146.364 Q86.1308 146.92 88.6077 146.92 Q92.6123 146.92 94.9502 144.814 Q97.2882 142.707 97.2882 139.096 Q97.2882 135.485 94.9502 133.378 Q92.6123 131.272 88.6077 131.272 Q86.7327 131.272 84.8577 131.689 Q83.0058 132.105 81.0614 132.985 L81.0614 115.624 Z" fill="#000000" fill-rule="evenodd" fill-opacity="1" /><path clip-path="url(#clip570)" d="M 0 0 M121.177 118.703 Q117.566 118.703 115.737 122.267 Q113.932 125.809 113.932 132.939 Q113.932 140.045 115.737 143.61 Q117.566 147.151 121.177 147.151 Q124.811 147.151 126.617 143.61 Q128.445 140.045 128.445 132.939 Q128.445 125.809 126.617 122.267 Q124.811 118.703 121.177 118.703 M121.177 114.999 Q126.987 114.999 130.043 119.605 Q133.121 124.189 133.121 132.939 Q133.121 141.665 130.043 146.272 Q126.987 150.855 121.177 150.855 Q115.367 150.855 112.288 146.272 Q109.233 141.665 109.233 132.939 Q109.233 124.189 112.288 119.605 Q115.367 114.999 121.177 114.999 Z" fill="#000000" fill-rule="evenodd" fill-opacity="1" /><circle clip-path="url(#clip572)" cx="230.922" cy="1444.84" r="14" fill="#009af9" fill-rule="evenodd" fill-opacity="1" stroke="#000000" stroke-opacity="1" stroke-width="3.2"/>
<circle clip-path="url(#clip572)" cx="402.592" cy="1436.09" r="14" fill="#009af9" fill-rule="evenodd" fill-opacity="1" stroke="#000000" stroke-opacity="1" stroke-width="3.2"/>
<circle clip-path="url(#clip572)" cx="574.261" cy="1410.71" r="14" fill="#009af9" fill-rule="evenodd" fill-opacity="1" stroke="#000000" stroke-opacity="1" stroke-width="3.2"/>
<circle clip-path="url(#clip572)" cx="745.93" cy="1209.41" r="14" fill="#009af9" fill-rule="evenodd" fill-opacity="1" stroke="#000000" stroke-opacity="1" stroke-width="3.2"/>
<circle clip-path="url(#clip572)" cx="917.6" cy="999.36" r="14" fill="#009af9" fill-rule="evenodd" fill-opacity="1" stroke="#000000" stroke-opacity="1" stroke-width="3.2"/>
<circle clip-path="url(#clip572)" cx="1089.27" cy="745.549" r="14" fill="#009af9" fill-rule="evenodd" fill-opacity="1" stroke="#000000" stroke-opacity="1" stroke-width="3.2"/>
<circle clip-path="url(#clip572)" cx="1260.94" cy="548.628" r="14" fill="#009af9" fill-rule="evenodd" fill-opacity="1" stroke="#000000" stroke-opacity="1" stroke-width="3.2"/>
<circle clip-path="url(#clip572)" cx="1432.61" cy="412.97" r="14" fill="#009af9" fill-rule="evenodd" fill-opacity="1" stroke="#000000" stroke-opacity="1" stroke-width="3.2"/>
<circle clip-path="url(#clip572)" cx="1604.28" cy="312.321" r="14" fill="#009af9" fill-rule="evenodd" fill-opacity="1" stroke="#000000" stroke-opacity="1" stroke-width="3.2"/>
<circle clip-path="url(#clip572)" cx="1775.95" cy="255.433" r="14" fill="#009af9" fill-rule="evenodd" fill-opacity="1" stroke="#000000" stroke-opacity="1" stroke-width="3.2"/>
<circle clip-path="url(#clip572)" cx="1947.62" cy="229.177" r="14" fill="#009af9" fill-rule="evenodd" fill-opacity="1" stroke="#000000" stroke-opacity="1" stroke-width="3.2"/>
<circle clip-path="url(#clip572)" cx="2119.29" cy="216.049" r="14" fill="#009af9" fill-rule="evenodd" fill-opacity="1" stroke="#000000" stroke-opacity="1" stroke-width="3.2"/>
<circle clip-path="url(#clip572)" cx="2290.95" cy="211.673" r="14" fill="#009af9" fill-rule="evenodd" fill-opacity="1" stroke="#000000" stroke-opacity="1" stroke-width="3.2"/>
<polyline clip-path="url(#clip572)" style="stroke:#e26f46; stroke-width:8; stroke-opacity:1; fill:none" points="
  230.922,1445.72 239.506,1445.72 248.089,1445.72 256.673,1445.72 265.256,1445.72 273.84,1445.72 282.423,1445.72 291.007,1445.72 299.59,1445.72 308.174,1445.72 
  316.757,1445.72 325.34,1445.72 333.924,1445.72 342.507,1445.72 351.091,1445.72 359.674,1445.72 368.258,1445.72 376.841,1445.72 385.425,1445.72 394.008,1445.72 
  402.592,1445.72 411.175,1445.72 419.759,1445.72 428.342,1445.72 436.926,1445.72 445.509,1445.72 454.092,1445.72 462.676,1445.72 471.259,1445.72 479.843,1445.72 
  488.426,1445.72 497.01,1445.72 505.593,1445.72 514.177,1445.72 522.76,1445.72 531.344,1445.72 539.927,1445.72 548.511,1445.72 557.094,1445.72 565.678,1445.72 
  574.261,1445.72 582.845,1445.72 591.428,1445.72 600.011,1445.72 608.595,1445.72 617.178,1445.72 625.762,1426.32 634.345,1407.22 642.929,1388.43 651.512,1369.93 
  660.096,1351.73 668.679,1333.8 677.263,1316.17 685.846,1298.8 694.43,1281.71 703.013,1264.89 711.597,1248.34 720.18,1232.04 728.764,1216 737.347,1200.22 
  745.93,1184.68 754.514,1169.38 763.097,1154.33 771.681,1139.51 780.264,1124.92 788.848,1110.57 797.431,1096.44 806.015,1082.53 814.598,1068.84 823.182,1055.37 
  831.765,1042.11 840.349,1029.05 848.932,1016.2 857.516,1003.56 866.099,991.108 874.682,978.856 883.266,966.796 891.849,954.926 900.433,943.243 909.016,931.743 
  917.6,920.424 926.183,909.283 934.767,898.317 943.35,887.523 951.934,876.899 960.517,866.443 969.101,856.15 977.684,846.019 986.268,836.048 994.851,826.233 
  1003.43,816.573 1012.02,807.064 1020.6,797.705 1029.18,788.493 1037.77,779.426 1046.35,770.501 1054.94,761.716 1063.52,753.07 1072.1,744.56 1080.69,736.183 
  1089.27,727.938 1097.85,719.823 1106.44,711.835 1115.02,703.973 1123.6,696.234 1132.19,688.617 1140.77,681.12 1149.35,673.741 1157.94,666.477 1166.52,659.328 
  1175.1,652.291 1183.69,645.365 1192.27,638.548 1200.85,631.837 1209.44,625.233 1218.02,618.732 1226.6,612.333 1235.19,606.035 1243.77,599.836 1252.36,593.734 
  1260.94,587.728 1269.52,581.817 1278.11,575.999 1286.69,570.272 1295.27,564.635 1303.86,559.086 1312.44,553.625 1321.02,548.25 1329.61,542.959 1338.19,537.752 
  1346.77,532.626 1355.36,527.581 1363.94,522.615 1372.52,517.727 1381.11,512.916 1389.69,508.181 1398.27,503.52 1406.86,498.932 1415.44,494.417 1424.02,489.972 
  1432.61,485.598 1441.19,481.292 1449.77,477.053 1458.36,472.882 1466.94,468.776 1475.53,464.734 1484.11,460.756 1492.69,456.841 1501.28,452.987 1509.86,449.194 
  1518.44,445.46 1527.03,441.785 1535.61,438.168 1544.19,434.607 1552.78,431.103 1561.36,427.654 1569.94,424.259 1578.53,420.917 1587.11,417.628 1595.69,414.39 
  1604.28,411.204 1612.86,408.067 1621.44,404.98 1630.03,401.941 1638.61,398.951 1647.19,396.007 1655.78,393.109 1664.36,390.257 1672.95,387.45 1681.53,384.687 
  1690.11,381.967 1698.7,379.29 1707.28,376.655 1715.86,374.062 1724.45,371.509 1733.03,368.997 1741.61,366.524 1750.2,364.089 1758.78,361.694 1767.36,359.335 
  1775.95,357.014 1784.53,354.73 1793.11,352.481 1801.7,350.267 1810.28,348.089 1818.86,345.944 1827.45,343.834 1836.03,341.756 1844.61,339.711 1853.2,337.699 
  1861.78,335.718 1870.36,333.768 1878.95,331.849 1887.53,329.959 1896.12,328.1 1904.7,326.27 1913.28,324.469 1921.87,322.695 1930.45,320.95 1939.03,319.232 
  1947.62,317.542 1956.2,315.877 1964.78,314.239 1973.37,312.627 1981.95,311.04 1990.53,309.478 1999.12,307.941 2007.7,306.428 2016.28,304.938 2024.87,303.472 
  2033.45,302.029 2042.03,300.609 2050.62,299.211 2059.2,297.835 2067.78,296.48 2076.37,295.147 2084.95,293.835 2093.54,292.543 2102.12,291.272 2110.7,290.021 
  2119.29,288.789 2127.87,287.577 2136.45,286.384 2145.04,285.209 2153.62,284.054 2162.2,282.916 2170.79,281.796 2179.37,280.694 2187.95,279.609 2196.54,278.541 
  2205.12,277.49 2213.7,276.455 2222.29,275.437 2230.87,274.434 2239.45,273.448 2248.04,272.477 2256.62,271.521 2265.2,270.58 2273.79,269.654 2282.37,268.743 
  2290.95,267.846 
  "/>
<polyline clip-path="url(#clip572)" style="stroke:#3da44d; stroke-width:8; stroke-opacity:1; fill:none" points="
  230.922,1445.72 239.506,1445.72 248.089,1445.72 256.673,1445.72 265.256,1445.72 273.84,1445.72 282.423,1445.72 291.007,1445.72 299.59,1445.72 308.174,1445.72 
  316.757,1445.72 325.34,1445.72 333.924,1445.72 342.507,1445.72 351.091,1445.72 359.674,1445.72 368.258,1445.72 376.841,1445.72 385.425,1436.38 394.008,1426.65 
  402.592,1416.98 411.175,1407.34 419.759,1397.75 428.342,1388.21 436.926,1378.71 445.509,1369.25 454.092,1359.84 462.676,1350.47 471.259,1341.15 479.843,1331.87 
  488.426,1322.63 497.01,1313.43 505.593,1304.28 514.177,1295.17 522.76,1286.1 531.344,1277.08 539.927,1268.09 548.511,1259.15 557.094,1250.25 565.678,1241.39 
  574.261,1232.58 582.845,1223.8 591.428,1215.06 600.011,1206.37 608.595,1197.71 617.178,1189.1 625.762,1180.52 634.345,1171.99 642.929,1163.49 651.512,1155.04 
  660.096,1146.62 668.679,1138.25 677.263,1129.91 685.846,1121.61 694.43,1113.35 703.013,1105.12 711.597,1096.94 720.18,1088.79 728.764,1080.69 737.347,1072.61 
  745.93,1064.58 754.514,1056.59 763.097,1048.63 771.681,1040.7 780.264,1032.82 788.848,1024.97 797.431,1017.16 806.015,1009.38 814.598,1001.64 823.182,993.941 
  831.765,986.274 840.349,978.642 848.932,971.045 857.516,963.484 866.099,955.958 874.682,948.467 883.266,941.011 891.849,933.589 900.433,926.202 909.016,918.849 
  917.6,911.531 926.183,904.246 934.767,896.995 943.35,889.778 951.934,882.595 960.517,875.445 969.101,868.328 977.684,861.244 986.268,854.193 994.851,847.175 
  1003.43,840.19 1012.02,833.237 1020.6,826.316 1029.18,819.427 1037.77,812.571 1046.35,805.746 1054.94,798.953 1063.52,792.192 1072.1,785.462 1080.69,778.763 
  1089.27,772.096 1097.85,765.459 1106.44,758.853 1115.02,752.278 1123.6,745.734 1132.19,739.22 1140.77,732.736 1149.35,726.282 1157.94,719.859 1166.52,713.465 
  1175.1,707.101 1183.69,700.767 1192.27,694.461 1200.85,688.186 1209.44,681.939 1218.02,675.722 1226.6,669.533 1235.19,663.373 1243.77,657.242 1252.36,651.139 
  1260.94,645.065 1269.52,639.019 1278.11,633.001 1286.69,627.01 1295.27,621.048 1303.86,615.114 1312.44,609.207 1321.02,603.327 1329.61,597.475 1338.19,591.65 
  1346.77,585.852 1355.36,580.081 1363.94,574.337 1372.52,568.62 1381.11,562.929 1389.69,557.264 1398.27,551.626 1406.86,546.014 1415.44,540.428 1424.02,534.869 
  1432.61,529.335 1441.19,523.826 1449.77,518.344 1458.36,512.886 1466.94,507.455 1475.53,502.048 1484.11,496.666 1492.69,491.31 1501.28,485.978 1509.86,480.672 
  1518.44,475.389 1527.03,470.132 1535.61,464.899 1544.19,459.69 1552.78,454.505 1561.36,449.345 1569.94,444.208 1578.53,439.096 1587.11,434.007 1595.69,428.941 
  1604.28,423.9 1612.86,418.882 1621.44,413.887 1630.03,408.915 1638.61,403.966 1647.19,399.041 1655.78,394.138 1664.36,389.258 1672.95,384.401 1681.53,379.566 
  1690.11,374.754 1698.7,369.964 1707.28,365.196 1715.86,360.451 1724.45,355.727 1733.03,351.026 1741.61,346.346 1750.2,341.689 1758.78,337.052 1767.36,332.438 
  1775.95,327.845 1784.53,323.273 1793.11,318.722 1801.7,314.193 1810.28,309.684 1818.86,305.197 1827.45,300.73 1836.03,296.284 1844.61,291.859 1853.2,287.455 
  1861.78,283.07 1870.36,278.707 1878.95,274.363 1887.53,270.04 1896.12,265.737 1904.7,261.454 1913.28,257.19 1921.87,252.947 1930.45,248.723 1939.03,244.519 
  1947.62,240.334 1956.2,236.169 1964.78,232.023 1973.37,227.897 1981.95,223.79 1990.53,219.701 1999.12,215.632 2007.7,211.582 2016.28,207.55 2024.87,203.538 
  2033.45,199.543 2042.03,195.568 2050.62,191.611 2059.2,187.672 2067.78,183.752 2076.37,179.85 2084.95,175.966 2093.54,172.1 2102.12,168.252 2110.7,164.421 
  2119.29,160.609 2127.87,156.815 2136.45,153.038 2145.04,149.278 2153.62,145.536 2162.2,141.812 2170.79,138.104 2179.37,134.414 2187.95,130.742 2196.54,127.086 
  2205.12,123.447 2213.7,119.825 2222.29,116.22 2230.87,112.632 2239.45,109.06 2248.04,105.505 2256.62,101.967 2265.2,98.4445 2273.79,94.9388 2282.37,91.4495 
  2290.95,87.9763 
  "/>
<path clip-path="url(#clip570)" d="
M1947 1438.47 L2279.97 1438.47 L2279.97 1196.55 L1947 1196.55  Z
  " fill="#ffffff" fill-rule="evenodd" fill-opacity="1"/>
<polyline clip-path="url(#clip570)" style="stroke:#000000; stroke-width:4; stroke-opacity:1; fill:none" points="
  1947,1438.47 2279.97,1438.47 2279.97,1196.55 1947,1196.55 1947,1438.47 
  "/>
<circle clip-path="url(#clip570)" cx="2044.05" cy="1257.03" r="23" fill="#009af9" fill-rule="evenodd" fill-opacity="1" stroke="#000000" stroke-opacity="1" stroke-width="5.12"/>
<path clip-path="url(#clip570)" d="M 0 0 M2141.1 1239.75 L2162.95 1239.75 L2162.95 1243.69 L2145.77 1243.69 L2145.77 1253.92 L2162.23 1253.92 L2162.23 1257.86 L2145.77 1257.86 L2145.77 1270.38 L2163.36 1270.38 L2163.36 1274.31 L2141.1 1274.31 L2141.1 1239.75 Z" fill="#000000" fill-rule="evenodd" fill-opacity="1" /><path clip-path="url(#clip570)" d="M 0 0 M2192.42 1248.39 L2183.04 1261 L2192.9 1274.31 L2187.88 1274.31 L2180.33 1264.13 L2172.79 1274.31 L2167.76 1274.31 L2177.83 1260.75 L2168.62 1248.39 L2173.64 1248.39 L2180.52 1257.62 L2187.39 1248.39 L2192.42 1248.39 Z" fill="#000000" fill-rule="evenodd" fill-opacity="1" /><path clip-path="url(#clip570)" d="M 0 0 M2203.04 1270.43 L2203.04 1284.18 L2198.76 1284.18 L2198.76 1248.39 L2203.04 1248.39 L2203.04 1252.32 Q2204.38 1250.01 2206.42 1248.9 Q2208.48 1247.76 2211.33 1247.76 Q2216.05 1247.76 2218.99 1251.51 Q2221.95 1255.26 2221.95 1261.37 Q2221.95 1267.49 2218.99 1271.24 Q2216.05 1274.99 2211.33 1274.99 Q2208.48 1274.99 2206.42 1273.87 Q2204.38 1272.74 2203.04 1270.43 M2217.53 1261.37 Q2217.53 1256.68 2215.59 1254.01 Q2213.67 1251.33 2210.29 1251.33 Q2206.91 1251.33 2204.96 1254.01 Q2203.04 1256.68 2203.04 1261.37 Q2203.04 1266.07 2204.96 1268.76 Q2206.91 1271.42 2210.29 1271.42 Q2213.67 1271.42 2215.59 1268.76 Q2217.53 1266.07 2217.53 1261.37 Z" fill="#000000" fill-rule="evenodd" fill-opacity="1" /><polyline clip-path="url(#clip570)" style="stroke:#e26f46; stroke-width:4; stroke-opacity:1; fill:none" points="
  1971.26,1317.51 2116.83,1317.51 
  "/>
<path clip-path="url(#clip570)" d="M 0 0 M2168.97 1302.9 L2168.97 1307.83 Q2166.61 1305.63 2163.92 1304.54 Q2161.26 1303.45 2158.25 1303.45 Q2152.32 1303.45 2149.17 1307.09 Q2146.03 1310.7 2146.03 1317.55 Q2146.03 1324.38 2149.17 1328.01 Q2152.32 1331.62 2158.25 1331.62 Q2161.26 1331.62 2163.92 1330.54 Q2166.61 1329.45 2168.97 1327.25 L2168.97 1332.13 Q2166.51 1333.8 2163.76 1334.63 Q2161.03 1335.47 2157.97 1335.47 Q2150.12 1335.47 2145.61 1330.67 Q2141.1 1325.86 2141.1 1317.55 Q2141.1 1309.22 2145.61 1304.42 Q2150.12 1299.61 2157.97 1299.61 Q2161.07 1299.61 2163.8 1300.44 Q2166.56 1301.25 2168.97 1302.9 Z" fill="#000000" fill-rule="evenodd" fill-opacity="1" /><path clip-path="url(#clip570)" d="M 0 0 M2192.58 1318.59 Q2194.08 1319.1 2195.49 1320.77 Q2196.93 1322.43 2198.36 1325.35 L2203.11 1334.79 L2198.09 1334.79 L2193.67 1325.93 Q2191.95 1322.46 2190.33 1321.32 Q2188.73 1320.19 2185.96 1320.19 L2180.86 1320.19 L2180.86 1334.79 L2176.19 1334.79 L2176.19 1300.23 L2186.74 1300.23 Q2192.67 1300.23 2195.59 1302.71 Q2198.5 1305.19 2198.5 1310.19 Q2198.5 1313.45 2196.98 1315.6 Q2195.47 1317.76 2192.58 1318.59 M2180.86 1304.08 L2180.86 1316.35 L2186.74 1316.35 Q2190.12 1316.35 2191.84 1314.79 Q2193.57 1313.22 2193.57 1310.19 Q2193.57 1307.16 2191.84 1305.63 Q2190.12 1304.08 2186.74 1304.08 L2180.86 1304.08 Z" fill="#000000" fill-rule="evenodd" fill-opacity="1" /><path clip-path="url(#clip570)" d="M 0 0 M2213.8 1304.08 L2213.8 1317.06 L2219.68 1317.06 Q2222.95 1317.06 2224.73 1315.37 Q2226.51 1313.68 2226.51 1310.56 Q2226.51 1307.46 2224.73 1305.77 Q2222.95 1304.08 2219.68 1304.08 L2213.8 1304.08 M2209.13 1300.23 L2219.68 1300.23 Q2225.49 1300.23 2228.46 1302.87 Q2231.44 1305.49 2231.44 1310.56 Q2231.44 1315.67 2228.46 1318.29 Q2225.49 1320.91 2219.68 1320.91 L2213.8 1320.91 L2213.8 1334.79 L2209.13 1334.79 L2209.13 1300.23 Z" fill="#000000" fill-rule="evenodd" fill-opacity="1" /><polyline clip-path="url(#clip570)" style="stroke:#3da44d; stroke-width:4; stroke-opacity:1; fill:none" points="
  1971.26,1377.99 2116.83,1377.99 
  "/>
<path clip-path="url(#clip570)" d="M 0 0 M2141.1 1360.71 L2145.77 1360.71 L2145.77 1391.34 L2162.6 1391.34 L2162.6 1395.27 L2141.1 1395.27 L2141.1 1360.71 Z" fill="#000000" fill-rule="evenodd" fill-opacity="1" /><path clip-path="url(#clip570)" d="M 0 0 M2188.23 1361.85 L2188.23 1366.41 Q2185.56 1365.14 2183.2 1364.51 Q2180.84 1363.89 2178.64 1363.89 Q2174.82 1363.89 2172.74 1365.37 Q2170.68 1366.85 2170.68 1369.58 Q2170.68 1371.87 2172.05 1373.05 Q2173.43 1374.21 2177.28 1374.93 L2180.1 1375.51 Q2185.33 1376.5 2187.81 1379.02 Q2190.31 1381.52 2190.31 1385.74 Q2190.31 1390.76 2186.93 1393.35 Q2183.57 1395.95 2177.07 1395.95 Q2174.61 1395.95 2171.84 1395.39 Q2169.08 1394.83 2166.12 1393.75 L2166.12 1388.93 Q2168.97 1390.53 2171.7 1391.34 Q2174.43 1392.15 2177.07 1392.15 Q2181.07 1392.15 2183.25 1390.58 Q2185.42 1389 2185.42 1386.08 Q2185.42 1383.54 2183.85 1382.1 Q2182.3 1380.67 2178.73 1379.95 L2175.89 1379.39 Q2170.66 1378.35 2168.32 1376.13 Q2165.98 1373.91 2165.98 1369.95 Q2165.98 1365.37 2169.2 1362.73 Q2172.44 1360.09 2178.11 1360.09 Q2180.54 1360.09 2183.06 1360.53 Q2185.59 1360.97 2188.23 1361.85 Z" fill="#000000" fill-rule="evenodd" fill-opacity="1" /><path clip-path="url(#clip570)" d="M 0 0 M2211.63 1363.89 Q2206.54 1363.89 2203.53 1367.68 Q2200.54 1371.48 2200.54 1378.03 Q2200.54 1384.56 2203.53 1388.35 Q2206.54 1392.15 2211.63 1392.15 Q2216.72 1392.15 2219.68 1388.35 Q2222.67 1384.56 2222.67 1378.03 Q2222.67 1371.48 2219.68 1367.68 Q2216.72 1363.89 2211.63 1363.89 M2218.18 1394.65 L2224.34 1401.39 L2218.69 1401.39 L2213.57 1395.85 Q2212.81 1395.9 2212.39 1395.92 Q2212 1395.95 2211.63 1395.95 Q2204.34 1395.95 2199.96 1391.08 Q2195.61 1386.2 2195.61 1378.03 Q2195.61 1369.83 2199.96 1364.97 Q2204.34 1360.09 2211.63 1360.09 Q2218.9 1360.09 2223.25 1364.97 Q2227.6 1369.83 2227.6 1378.03 Q2227.6 1384.05 2225.17 1388.33 Q2222.76 1392.61 2218.18 1394.65 Z" fill="#000000" fill-rule="evenodd" fill-opacity="1" /></svg>
