<?xml version="1.0" encoding="utf-8"?>
<svg xmlns="http://www.w3.org/2000/svg" xmlns:xlink="http://www.w3.org/1999/xlink" width="525" height="350" viewBox="0 0 2100 1400">
<defs>
  <clipPath id="clip880">
    <rect x="0" y="0" width="2100" height="1400"/>
  </clipPath>
</defs>
<path clip-path="url(#clip880)" d="
M0 1400 L2100 1400 L2100 0 L0 0  Z
  " fill="#ffffff" fill-rule="evenodd" fill-opacity="1"/>
<defs>
  <clipPath id="clip881">
    <rect x="420" y="0" width="1471" height="1400"/>
  </clipPath>
</defs>
<path clip-path="url(#clip880)" d="
M250.919 562.214 L2058.66 562.214 L2058.66 41.3386 L250.919 41.3386  Z
  " fill="#ffffff" fill-rule="evenodd" fill-opacity="1"/>
<defs>
  <clipPath id="clip882">
    <rect x="250" y="41" width="1809" height="522"/>
  </clipPath>
</defs>
<polyline clip-path="url(#clip882)" style="stroke:#000000; stroke-width:1.75; stroke-opacity:0.1; fill:none" points="
  302.081,562.214 302.081,41.3386 
  "/>
<polyline clip-path="url(#clip882)" style="stroke:#000000; stroke-width:1.75; stroke-opacity:0.1; fill:none" points="
  818.713,562.214 818.713,41.3386 
  "/>
<polyline clip-path="url(#clip882)" style="stroke:#000000; stroke-width:1.75; stroke-opacity:0.1; fill:none" points="
  1335.35,562.214 1335.35,41.3386 
  "/>
<polyline clip-path="url(#clip882)" style="stroke:#000000; stroke-width:1.75; stroke-opacity:0.1; fill:none" points="
  1851.98,562.214 1851.98,41.3386 
  "/>
<polyline clip-path="url(#clip880)" style="stroke:#000000; stroke-width:3.5; stroke-opacity:1; fill:none" points="
  250.919,562.214 2058.66,562.214 
  "/>
<polyline clip-path="url(#clip880)" style="stroke:#000000; stroke-width:3.5; stroke-opacity:1; fill:none" points="
  302.081,562.214 302.081,555.964 
  "/>
<polyline clip-path="url(#clip880)" style="stroke:#000000; stroke-width:3.5; stroke-opacity:1; fill:none" points="
  818.713,562.214 818.713,555.964 
  "/>
<polyline clip-path="url(#clip880)" style="stroke:#000000; stroke-width:3.5; stroke-opacity:1; fill:none" points="
  1335.35,562.214 1335.35,555.964 
  "/>
<polyline clip-path="url(#clip880)" style="stroke:#000000; stroke-width:3.5; stroke-opacity:1; fill:none" points="
  1851.98,562.214 1851.98,555.964 
  "/>
<path clip-path="url(#clip880)" d="M 0 0 M262.263 630.702 L268.947 630.702 L268.947 607.632 L261.676 609.091 L261.676 605.364 L268.907 603.906 L272.998 603.906 L272.998 630.702 L279.682 630.702 L279.682 634.146 L262.263 634.146 L262.263 630.702 Z" fill="#000000" fill-rule="evenodd" fill-opacity="1" /><path clip-path="url(#clip880)" d="M 0 0 M292.868 606.599 Q289.708 606.599 288.108 609.719 Q286.528 612.818 286.528 619.056 Q286.528 625.274 288.108 628.393 Q289.708 631.492 292.868 631.492 Q296.048 631.492 297.628 628.393 Q299.228 625.274 299.228 619.056 Q299.228 612.818 297.628 609.719 Q296.048 606.599 292.868 606.599 M292.868 603.359 Q297.952 603.359 300.625 607.389 Q303.319 611.4 303.319 619.056 Q303.319 626.692 300.625 630.723 Q297.952 634.733 292.868 634.733 Q287.784 634.733 285.09 630.723 Q282.416 626.692 282.416 619.056 Q282.416 611.4 285.09 607.389 Q287.784 603.359 292.868 603.359 Z" fill="#000000" fill-rule="evenodd" fill-opacity="1" /><path clip-path="url(#clip880)" d="M 0 0 M303.319 598.197 L324.417 598.197 L324.417 600.995 L303.319 600.995 L303.319 598.197 Z" fill="#000000" fill-rule="evenodd" fill-opacity="1" /><path clip-path="url(#clip880)" d="M 0 0 M330.884 607.364 L342.486 607.364 L342.486 610.162 L326.885 610.162 L326.885 607.364 Q328.778 605.406 332.036 602.114 Q335.311 598.806 336.15 597.852 Q337.747 596.058 338.372 594.824 Q339.014 593.573 339.014 592.372 Q339.014 590.413 337.632 589.179 Q336.266 587.945 334.06 587.945 Q332.497 587.945 330.753 588.488 Q329.025 589.031 327.05 590.134 L327.05 586.776 Q329.058 585.97 330.802 585.559 Q332.546 585.147 333.995 585.147 Q337.813 585.147 340.084 587.056 Q342.355 588.965 342.355 592.158 Q342.355 593.672 341.779 595.038 Q341.219 596.387 339.722 598.23 Q339.31 598.708 337.105 600.995 Q334.9 603.266 330.884 607.364 Z" fill="#000000" fill-rule="evenodd" fill-opacity="1" /><path clip-path="url(#clip880)" d="M 0 0 M778.764 630.702 L785.448 630.702 L785.448 607.632 L778.176 609.091 L778.176 605.364 L785.407 603.906 L789.498 603.906 L789.498 630.702 L796.182 630.702 L796.182 634.146 L778.764 634.146 L778.764 630.702 Z" fill="#000000" fill-rule="evenodd" fill-opacity="1" /><path clip-path="url(#clip880)" d="M 0 0 M809.368 606.599 Q806.208 606.599 804.608 609.719 Q803.029 612.818 803.029 619.056 Q803.029 625.274 804.608 628.393 Q806.208 631.492 809.368 631.492 Q812.548 631.492 814.128 628.393 Q815.728 625.274 815.728 619.056 Q815.728 612.818 814.128 609.719 Q812.548 606.599 809.368 606.599 M809.368 603.359 Q814.452 603.359 817.126 607.389 Q819.82 611.4 819.82 619.056 Q819.82 626.692 817.126 630.723 Q814.452 634.733 809.368 634.733 Q804.284 634.733 801.59 630.723 Q798.917 626.692 798.917 619.056 Q798.917 611.4 801.59 607.389 Q804.284 603.359 809.368 603.359 Z" fill="#000000" fill-rule="evenodd" fill-opacity="1" /><path clip-path="url(#clip880)" d="M 0 0 M819.82 598.197 L840.917 598.197 L840.917 600.995 L819.82 600.995 L819.82 598.197 Z" fill="#000000" fill-rule="evenodd" fill-opacity="1" /><path clip-path="url(#clip880)" d="M 0 0 M845.097 607.364 L850.528 607.364 L850.528 588.62 L844.62 589.804 L844.62 586.776 L850.495 585.592 L853.819 585.592 L853.819 607.364 L859.25 607.364 L859.25 610.162 L845.097 610.162 L845.097 607.364 Z" fill="#000000" fill-rule="evenodd" fill-opacity="1" /><path clip-path="url(#clip880)" d="M 0 0 M1306.62 630.702 L1313.3 630.702 L1313.3 607.632 L1306.03 609.091 L1306.03 605.364 L1313.26 603.906 L1317.35 603.906 L1317.35 630.702 L1324.04 630.702 L1324.04 634.146 L1306.62 634.146 L1306.62 630.702 Z" fill="#000000" fill-rule="evenodd" fill-opacity="1" /><path clip-path="url(#clip880)" d="M 0 0 M1337.22 606.599 Q1334.06 606.599 1332.46 609.719 Q1330.88 612.818 1330.88 619.056 Q1330.88 625.274 1332.46 628.393 Q1334.06 631.492 1337.22 631.492 Q1340.4 631.492 1341.98 628.393 Q1343.58 625.274 1343.58 619.056 Q1343.58 612.818 1341.98 609.719 Q1340.4 606.599 1337.22 606.599 M1337.22 603.359 Q1342.31 603.359 1344.98 607.389 Q1347.68 611.4 1347.68 619.056 Q1347.68 626.692 1344.98 630.723 Q1342.31 634.733 1337.22 634.733 Q1332.14 634.733 1329.45 630.723 Q1326.77 626.692 1326.77 619.056 Q1326.77 611.4 1329.45 607.389 Q1332.14 603.359 1337.22 603.359 Z" fill="#000000" fill-rule="evenodd" fill-opacity="1" /><path clip-path="url(#clip880)" d="M 0 0 M1356.17 587.78 Q1353.6 587.78 1352.3 590.315 Q1351.02 592.833 1351.02 597.901 Q1351.02 602.953 1352.3 605.488 Q1353.6 608.006 1356.17 608.006 Q1358.75 608.006 1360.03 605.488 Q1361.33 602.953 1361.33 597.901 Q1361.33 592.833 1360.03 590.315 Q1358.75 587.78 1356.17 587.78 M1356.17 585.147 Q1360.3 585.147 1362.47 588.422 Q1364.66 591.681 1364.66 597.901 Q1364.66 604.105 1362.47 607.38 Q1360.3 610.639 1356.17 610.639 Q1352.04 610.639 1349.85 607.38 Q1347.68 604.105 1347.68 597.901 Q1347.68 591.681 1349.85 588.422 Q1352.04 585.147 1356.17 585.147 Z" fill="#000000" fill-rule="evenodd" fill-opacity="1" /><path clip-path="url(#clip880)" d="M 0 0 M1824.43 630.702 L1831.11 630.702 L1831.11 607.632 L1823.84 609.091 L1823.84 605.364 L1831.07 603.906 L1835.16 603.906 L1835.16 630.702 L1841.85 630.702 L1841.85 634.146 L1824.43 634.146 L1824.43 630.702 Z" fill="#000000" fill-rule="evenodd" fill-opacity="1" /><path clip-path="url(#clip880)" d="M 0 0 M1855.03 606.599 Q1851.87 606.599 1850.27 609.719 Q1848.69 612.818 1848.69 619.056 Q1848.69 625.274 1850.27 628.393 Q1851.87 631.492 1855.03 631.492 Q1858.21 631.492 1859.79 628.393 Q1861.39 625.274 1861.39 619.056 Q1861.39 612.818 1859.79 609.719 Q1858.21 606.599 1855.03 606.599 M1855.03 603.359 Q1860.12 603.359 1862.79 607.389 Q1865.48 611.4 1865.48 619.056 Q1865.48 626.692 1862.79 630.723 Q1860.12 634.733 1855.03 634.733 Q1849.95 634.733 1847.25 630.723 Q1844.58 626.692 1844.58 619.056 Q1844.58 611.4 1847.25 607.389 Q1849.95 603.359 1855.03 603.359 Z" fill="#000000" fill-rule="evenodd" fill-opacity="1" /><path clip-path="url(#clip880)" d="M 0 0 M1865.96 607.364 L1871.39 607.364 L1871.39 588.62 L1865.48 589.804 L1865.48 586.776 L1871.36 585.592 L1874.68 585.592 L1874.68 607.364 L1880.11 607.364 L1880.11 610.162 L1865.96 610.162 L1865.96 607.364 Z" fill="#000000" fill-rule="evenodd" fill-opacity="1" /><polyline clip-path="url(#clip882)" style="stroke:#000000; stroke-width:1.75; stroke-opacity:0.1; fill:none" points="
  250.919,477.644 2058.66,477.644 
  "/>
<polyline clip-path="url(#clip882)" style="stroke:#000000; stroke-width:1.75; stroke-opacity:0.1; fill:none" points="
  250.919,337.123 2058.66,337.123 
  "/>
<polyline clip-path="url(#clip882)" style="stroke:#000000; stroke-width:1.75; stroke-opacity:0.1; fill:none" points="
  250.919,196.602 2058.66,196.602 
  "/>
<polyline clip-path="url(#clip882)" style="stroke:#000000; stroke-width:1.75; stroke-opacity:0.1; fill:none" points="
  250.919,56.0803 2058.66,56.0803 
  "/>
<polyline clip-path="url(#clip880)" style="stroke:#000000; stroke-width:3.5; stroke-opacity:1; fill:none" points="
  250.919,562.214 250.919,41.3386 
  "/>
<polyline clip-path="url(#clip880)" style="stroke:#000000; stroke-width:3.5; stroke-opacity:1; fill:none" points="
  250.919,477.644 272.611,477.644 
  "/>
<polyline clip-path="url(#clip880)" style="stroke:#000000; stroke-width:3.5; stroke-opacity:1; fill:none" points="
  250.919,337.123 272.611,337.123 
  "/>
<polyline clip-path="url(#clip880)" style="stroke:#000000; stroke-width:3.5; stroke-opacity:1; fill:none" points="
  250.919,196.602 272.611,196.602 
  "/>
<polyline clip-path="url(#clip880)" style="stroke:#000000; stroke-width:3.5; stroke-opacity:1; fill:none" points="
  250.919,56.0803 272.611,56.0803 
  "/>
<path clip-path="url(#clip880)" d="M 0 0 M135.74 494.962 L142.424 494.962 L142.424 471.893 L135.152 473.351 L135.152 469.624 L142.383 468.166 L146.474 468.166 L146.474 494.962 L153.158 494.962 L153.158 498.406 L135.74 498.406 L135.74 494.962 Z" fill="#000000" fill-rule="evenodd" fill-opacity="1" /><path clip-path="url(#clip880)" d="M 0 0 M166.344 470.86 Q163.184 470.86 161.584 473.979 Q160.004 477.078 160.004 483.316 Q160.004 489.534 161.584 492.653 Q163.184 495.752 166.344 495.752 Q169.524 495.752 171.104 492.653 Q172.704 489.534 172.704 483.316 Q172.704 477.078 171.104 473.979 Q169.524 470.86 166.344 470.86 M166.344 467.619 Q171.428 467.619 174.102 471.65 Q176.795 475.66 176.795 483.316 Q176.795 490.952 174.102 494.983 Q171.428 498.993 166.344 498.993 Q161.26 498.993 158.566 494.983 Q155.893 490.952 155.893 483.316 Q155.893 475.66 158.566 471.65 Q161.26 467.619 166.344 467.619 Z" fill="#000000" fill-rule="evenodd" fill-opacity="1" /><path clip-path="url(#clip880)" d="M 0 0 M185.287 452.04 Q182.72 452.04 181.42 454.575 Q180.136 457.093 180.136 462.161 Q180.136 467.214 181.42 469.748 Q182.72 472.266 185.287 472.266 Q187.871 472.266 189.154 469.748 Q190.455 467.214 190.455 462.161 Q190.455 457.093 189.154 454.575 Q187.871 452.04 185.287 452.04 M185.287 449.407 Q189.418 449.407 191.59 452.682 Q193.779 455.941 193.779 462.161 Q193.779 468.366 191.59 471.64 Q189.418 474.899 185.287 474.899 Q181.156 474.899 178.968 471.64 Q176.795 468.366 176.795 462.161 Q176.795 455.941 178.968 452.682 Q181.156 449.407 185.287 449.407 Z" fill="#000000" fill-rule="evenodd" fill-opacity="1" /><path clip-path="url(#clip880)" d="M 0 0 M197.383 470.242 L200.855 470.242 L200.855 474.422 L197.383 474.422 L197.383 470.242 Z" fill="#000000" fill-rule="evenodd" fill-opacity="1" /><path clip-path="url(#clip880)" d="M 0 0 M203.62 449.852 L219.419 449.852 L219.419 451.267 L210.499 474.422 L207.027 474.422 L215.42 452.649 L203.62 452.649 L203.62 449.852 Z" fill="#000000" fill-rule="evenodd" fill-opacity="1" /><path clip-path="url(#clip880)" d="M 0 0 M135.164 354.441 L141.848 354.441 L141.848 331.371 L134.576 332.83 L134.576 329.103 L141.807 327.644 L145.898 327.644 L145.898 354.441 L152.582 354.441 L152.582 357.884 L135.164 357.884 L135.164 354.441 Z" fill="#000000" fill-rule="evenodd" fill-opacity="1" /><path clip-path="url(#clip880)" d="M 0 0 M165.768 330.338 Q162.608 330.338 161.008 333.458 Q159.428 336.556 159.428 342.795 Q159.428 349.013 161.008 352.132 Q162.608 355.231 165.768 355.231 Q168.948 355.231 170.528 352.132 Q172.128 349.013 172.128 342.795 Q172.128 336.556 170.528 333.458 Q168.948 330.338 165.768 330.338 M165.768 327.098 Q170.852 327.098 173.526 331.128 Q176.219 335.139 176.219 342.795 Q176.219 350.431 173.526 354.461 Q170.852 358.472 165.768 358.472 Q160.684 358.472 157.99 354.461 Q155.317 350.431 155.317 342.795 Q155.317 335.139 157.99 331.128 Q160.684 327.098 165.768 327.098 Z" fill="#000000" fill-rule="evenodd" fill-opacity="1" /><path clip-path="url(#clip880)" d="M 0 0 M184.711 311.519 Q182.144 311.519 180.844 314.053 Q179.56 316.571 179.56 321.64 Q179.56 326.692 180.844 329.227 Q182.144 331.745 184.711 331.745 Q187.295 331.745 188.579 329.227 Q189.879 326.692 189.879 321.64 Q189.879 316.571 188.579 314.053 Q187.295 311.519 184.711 311.519 M184.711 308.886 Q188.842 308.886 191.014 312.161 Q193.203 315.419 193.203 321.64 Q193.203 327.844 191.014 331.119 Q188.842 334.378 184.711 334.378 Q180.581 334.378 178.392 331.119 Q176.219 327.844 176.219 321.64 Q176.219 315.419 178.392 312.161 Q180.581 308.886 184.711 308.886 Z" fill="#000000" fill-rule="evenodd" fill-opacity="1" /><path clip-path="url(#clip880)" d="M 0 0 M196.807 329.72 L200.279 329.72 L200.279 333.9 L196.807 333.9 L196.807 329.72 Z" fill="#000000" fill-rule="evenodd" fill-opacity="1" /><path clip-path="url(#clip880)" d="M 0 0 M210.993 322.233 Q208.623 322.233 207.257 323.5 Q205.908 324.767 205.908 326.989 Q205.908 329.21 207.257 330.477 Q208.623 331.745 210.993 331.745 Q213.362 331.745 214.728 330.477 Q216.094 329.194 216.094 326.989 Q216.094 324.767 214.728 323.5 Q213.379 322.233 210.993 322.233 M207.668 320.817 Q205.529 320.291 204.328 318.826 Q203.143 317.361 203.143 315.255 Q203.143 312.309 205.233 310.598 Q207.339 308.886 210.993 308.886 Q214.663 308.886 216.753 310.598 Q218.843 312.309 218.843 315.255 Q218.843 317.361 217.641 318.826 Q216.456 320.291 214.333 320.817 Q216.736 321.377 218.069 323.006 Q219.419 324.635 219.419 326.989 Q219.419 330.56 217.23 332.469 Q215.057 334.378 210.993 334.378 Q206.928 334.378 204.739 332.469 Q202.567 330.56 202.567 326.989 Q202.567 324.635 203.916 323.006 Q205.266 321.377 207.668 320.817 M206.451 315.568 Q206.451 317.476 207.635 318.546 Q208.837 319.616 210.993 319.616 Q213.132 319.616 214.333 318.546 Q215.551 317.476 215.551 315.568 Q215.551 313.659 214.333 312.589 Q213.132 311.519 210.993 311.519 Q208.837 311.519 207.635 312.589 Q206.451 313.659 206.451 315.568 Z" fill="#000000" fill-rule="evenodd" fill-opacity="1" /><path clip-path="url(#clip880)" d="M 0 0 M135.229 213.92 L141.913 213.92 L141.913 190.85 L134.642 192.308 L134.642 188.582 L141.873 187.123 L145.964 187.123 L145.964 213.92 L152.648 213.92 L152.648 217.363 L135.229 217.363 L135.229 213.92 Z" fill="#000000" fill-rule="evenodd" fill-opacity="1" /><path clip-path="url(#clip880)" d="M 0 0 M165.834 189.817 Q162.674 189.817 161.074 192.936 Q159.494 196.035 159.494 202.274 Q159.494 208.492 161.074 211.611 Q162.674 214.71 165.834 214.71 Q169.014 214.71 170.594 211.611 Q172.194 208.492 172.194 202.274 Q172.194 196.035 170.594 192.936 Q169.014 189.817 165.834 189.817 M165.834 186.576 Q170.918 186.576 173.591 190.607 Q176.285 194.617 176.285 202.274 Q176.285 209.91 173.591 213.94 Q170.918 217.951 165.834 217.951 Q160.75 217.951 158.056 213.94 Q155.383 209.91 155.383 202.274 Q155.383 194.617 158.056 190.607 Q160.75 186.576 165.834 186.576 Z" fill="#000000" fill-rule="evenodd" fill-opacity="1" /><path clip-path="url(#clip880)" d="M 0 0 M184.777 170.998 Q182.21 170.998 180.91 173.532 Q179.626 176.05 179.626 181.119 Q179.626 186.171 180.91 188.705 Q182.21 191.223 184.777 191.223 Q187.361 191.223 188.644 188.705 Q189.944 186.171 189.944 181.119 Q189.944 176.05 188.644 173.532 Q187.361 170.998 184.777 170.998 M184.777 168.365 Q188.908 168.365 191.08 171.64 Q193.269 174.898 193.269 181.119 Q193.269 187.323 191.08 190.598 Q188.908 193.856 184.777 193.856 Q180.646 193.856 178.458 190.598 Q176.285 187.323 176.285 181.119 Q176.285 174.898 178.458 171.64 Q180.646 168.365 184.777 168.365 Z" fill="#000000" fill-rule="evenodd" fill-opacity="1" /><path clip-path="url(#clip880)" d="M 0 0 M196.873 189.199 L200.345 189.199 L200.345 193.379 L196.873 193.379 L196.873 189.199 Z" fill="#000000" fill-rule="evenodd" fill-opacity="1" /><path clip-path="url(#clip880)" d="M 0 0 M204.048 192.869 L204.048 189.841 Q205.299 190.433 206.582 190.746 Q207.866 191.059 209.1 191.059 Q212.391 191.059 214.119 188.854 Q215.864 186.632 216.111 182.123 Q215.156 183.538 213.692 184.295 Q212.227 185.052 210.45 185.052 Q206.763 185.052 204.607 182.83 Q202.468 180.592 202.468 176.725 Q202.468 172.94 204.706 170.652 Q206.944 168.365 210.664 168.365 Q214.926 168.365 217.164 171.64 Q219.419 174.898 219.419 181.119 Q219.419 186.928 216.654 190.4 Q213.906 193.856 209.248 193.856 Q207.998 193.856 206.714 193.61 Q205.43 193.363 204.048 192.869 M210.664 182.452 Q212.902 182.452 214.202 180.921 Q215.518 179.391 215.518 176.725 Q215.518 174.075 214.202 172.545 Q212.902 170.998 210.664 170.998 Q208.425 170.998 207.109 172.545 Q205.809 174.075 205.809 176.725 Q205.809 179.391 207.109 180.921 Q208.425 182.452 210.664 182.452 Z" fill="#000000" fill-rule="evenodd" fill-opacity="1" /><path clip-path="url(#clip880)" d="M 0 0 M137.451 73.3987 L144.135 73.3987 L144.135 50.3288 L136.864 51.7872 L136.864 48.0603 L144.095 46.602 L148.186 46.602 L148.186 73.3987 L154.87 73.3987 L154.87 76.842 L137.451 76.842 L137.451 73.3987 Z" fill="#000000" fill-rule="evenodd" fill-opacity="1" /><path clip-path="url(#clip880)" d="M 0 0 M168.056 49.2959 Q164.896 49.2959 163.296 52.415 Q161.716 55.514 161.716 61.7524 Q161.716 67.9705 163.296 71.0897 Q164.896 74.1887 168.056 74.1887 Q171.236 74.1887 172.815 71.0897 Q174.416 67.9705 174.416 61.7524 Q174.416 55.514 172.815 52.415 Q171.236 49.2959 168.056 49.2959 M168.056 46.0551 Q173.139 46.0551 175.813 50.0858 Q178.507 54.0962 178.507 61.7524 Q178.507 69.3883 175.813 73.419 Q173.139 77.4294 168.056 77.4294 Q162.972 77.4294 160.278 73.419 Q157.604 69.3883 157.604 61.7524 Q157.604 54.0962 160.278 50.0858 Q162.972 46.0551 168.056 46.0551 Z" fill="#000000" fill-rule="evenodd" fill-opacity="1" /><path clip-path="url(#clip880)" d="M 0 0 M178.984 50.0602 L184.415 50.0602 L184.415 31.3159 L178.507 32.5008 L178.507 29.4728 L184.382 28.2879 L187.706 28.2879 L187.706 50.0602 L193.137 50.0602 L193.137 52.8579 L178.984 52.8579 L178.984 50.0602 Z" fill="#000000" fill-rule="evenodd" fill-opacity="1" /><path clip-path="url(#clip880)" d="M 0 0 M196.741 48.6779 L200.213 48.6779 L200.213 52.8579 L196.741 52.8579 L196.741 48.6779 Z" fill="#000000" fill-rule="evenodd" fill-opacity="1" /><path clip-path="url(#clip880)" d="M 0 0 M210.927 30.4767 Q208.36 30.4767 207.059 33.011 Q205.776 35.5289 205.776 40.5976 Q205.776 45.6498 207.059 48.1842 Q208.36 50.7021 210.927 50.7021 Q213.511 50.7021 214.794 48.1842 Q216.094 45.6498 216.094 40.5976 Q216.094 35.5289 214.794 33.011 Q213.511 30.4767 210.927 30.4767 M210.927 27.8436 Q215.057 27.8436 217.23 31.1185 Q219.419 34.3769 219.419 40.5976 Q219.419 46.8018 217.23 50.0767 Q215.057 53.3351 210.927 53.3351 Q206.796 53.3351 204.607 50.0767 Q202.435 46.8018 202.435 40.5976 Q202.435 34.3769 204.607 31.1185 Q206.796 27.8436 210.927 27.8436 Z" fill="#000000" fill-rule="evenodd" fill-opacity="1" /><path clip-path="url(#clip880)" d="M 0 0 M71.1072 316.37 Q71.7199 314.56 73.7251 312.861 Q75.7303 311.134 79.2394 309.407 L90.6022 303.698 L90.6022 309.742 L79.9356 315.061 Q75.7581 317.122 74.3935 319.071 Q73.0288 320.993 73.0288 324.335 L73.0288 330.462 L90.6022 330.462 L90.6022 336.088 L49.0222 336.088 L49.0222 323.388 Q49.0222 316.258 52.0021 312.749 Q54.9821 309.24 60.9976 309.24 Q64.9245 309.24 67.5145 311.078 Q70.1046 312.889 71.1072 316.37 M53.6453 330.462 L68.4057 330.462 L68.4057 323.388 Q68.4057 319.322 66.5398 317.261 Q64.646 315.172 60.9976 315.172 Q57.3493 315.172 55.5112 317.261 Q53.6453 319.322 53.6453 323.388 L53.6453 330.462 Z" fill="#000000" fill-rule="evenodd" fill-opacity="1" /><path clip-path="url(#clip880)" d="M 0 0 M54.5643 286.515 L75.2568 294.146 L75.2568 278.856 L54.5643 286.515 M49.0222 289.69 L49.0222 283.312 L90.6022 267.465 L90.6022 273.314 L79.9356 277.101 L79.9356 295.844 L90.6022 299.632 L90.6022 305.564 L49.0222 289.69 Z" fill="#000000" fill-rule="evenodd" fill-opacity="1" /><circle clip-path="url(#clip882)" cx="302.081" cy="56.0803" r="12" fill="#009af9" fill-rule="evenodd" fill-opacity="1" stroke="#000000" stroke-opacity="1" stroke-width="2.8"/>
<circle clip-path="url(#clip882)" cx="663.191" cy="56.6909" r="12" fill="#009af9" fill-rule="evenodd" fill-opacity="1" stroke="#000000" stroke-opacity="1" stroke-width="2.8"/>
<circle clip-path="url(#clip882)" cx="818.713" cy="56.6909" r="12" fill="#009af9" fill-rule="evenodd" fill-opacity="1" stroke="#000000" stroke-opacity="1" stroke-width="2.8"/>
<circle clip-path="url(#clip882)" cx="1335.35" cy="59.1394" r="12" fill="#009af9" fill-rule="evenodd" fill-opacity="1" stroke="#000000" stroke-opacity="1" stroke-width="2.8"/>
<circle clip-path="url(#clip882)" cx="1581.84" cy="82.2658" r="12" fill="#009af9" fill-rule="evenodd" fill-opacity="1" stroke="#000000" stroke-opacity="1" stroke-width="2.8"/>
<circle clip-path="url(#clip882)" cx="1696.46" cy="124.461" r="12" fill="#009af9" fill-rule="evenodd" fill-opacity="1" stroke="#000000" stroke-opacity="1" stroke-width="2.8"/>
<circle clip-path="url(#clip882)" cx="1771.95" cy="177.935" r="12" fill="#009af9" fill-rule="evenodd" fill-opacity="1" stroke="#000000" stroke-opacity="1" stroke-width="2.8"/>
<circle clip-path="url(#clip882)" cx="1828.34" cy="237.368" r="12" fill="#009af9" fill-rule="evenodd" fill-opacity="1" stroke="#000000" stroke-opacity="1" stroke-width="2.8"/>
<circle clip-path="url(#clip882)" cx="1851.98" cy="270.273" r="12" fill="#009af9" fill-rule="evenodd" fill-opacity="1" stroke="#000000" stroke-opacity="1" stroke-width="2.8"/>
<circle clip-path="url(#clip882)" cx="1892.88" cy="328.439" r="12" fill="#009af9" fill-rule="evenodd" fill-opacity="1" stroke="#000000" stroke-opacity="1" stroke-width="2.8"/>
<circle clip-path="url(#clip882)" cx="1942.95" cy="415.403" r="12" fill="#009af9" fill-rule="evenodd" fill-opacity="1" stroke="#000000" stroke-opacity="1" stroke-width="2.8"/>
<circle clip-path="url(#clip882)" cx="2007.5" cy="547.473" r="12" fill="#009af9" fill-rule="evenodd" fill-opacity="1" stroke="#000000" stroke-opacity="1" stroke-width="2.8"/>
<polyline clip-path="url(#clip882)" style="stroke:#e26f46; stroke-width:3.5; stroke-opacity:1; fill:none" points="
  302.081,56.0807 319.308,56.0807 336.534,56.0808 353.76,56.0808 370.987,56.0809 388.213,56.081 405.44,56.0811 422.666,56.0812 439.893,56.0814 457.119,56.0816 
  474.346,56.0818 491.572,56.082 508.798,56.0823 526.025,56.0826 543.251,56.083 560.478,56.0834 577.704,56.0839 594.931,56.0845 612.157,56.0852 629.383,56.086 
  646.61,56.0869 663.836,56.088 681.063,56.0893 698.289,56.0908 715.516,56.0925 732.742,56.0945 749.969,56.0969 767.195,56.0996 784.421,56.1028 801.648,56.1066 
  818.874,56.1109 836.101,56.116 853.327,56.1219 870.554,56.1288 887.78,56.1368 905.007,56.1462 922.233,56.1571 939.459,56.1699 956.686,56.1847 973.912,56.202 
  991.139,56.2222 1008.37,56.2458 1025.59,56.2732 1042.82,56.3052 1060.04,56.3425 1077.27,56.386 1094.5,56.4367 1111.72,56.4958 1128.95,56.5647 1146.18,56.645 
  1163.4,56.7386 1180.63,56.8477 1197.86,56.9749 1215.08,57.1231 1232.31,57.2958 1249.54,57.4971 1266.76,57.7316 1283.99,58.0048 1301.21,58.3231 1318.44,58.6937 
  1335.67,59.1253 1352.89,59.6277 1370.12,60.2125 1387.35,60.8929 1404.57,61.6844 1421.8,62.6046 1439.03,63.6741 1456.25,64.9163 1473.48,66.3584 1490.71,68.0312 
  1507.93,69.9702 1525.16,72.2155 1542.38,74.8128 1559.61,77.8136 1576.84,81.2755 1594.06,85.263 1611.29,89.8474 1628.52,95.1072 1645.74,101.128 1662.97,108 
  1680.2,115.823 1697.42,124.698 1714.65,134.73 1731.88,146.025 1749.1,158.688 1766.33,172.818 1783.56,188.507 1800.78,205.837 1818.01,224.873 1835.23,245.665 
  1852.46,268.244 1869.69,292.621 1886.91,318.783 1904.14,346.699 1921.37,376.319 1938.59,407.575 1955.82,440.385 1973.05,474.657 1990.27,510.29 2007.5,547.181 
  
  "/>
<path clip-path="url(#clip880)" d="
M250.919 1234.53 L2058.66 1234.53 L2058.66 713.659 L250.919 713.659  Z
  " fill="#ffffff" fill-rule="evenodd" fill-opacity="1"/>
<defs>
  <clipPath id="clip883">
    <rect x="250" y="713" width="1809" height="522"/>
  </clipPath>
</defs>
<polyline clip-path="url(#clip883)" style="stroke:#000000; stroke-width:1.75; stroke-opacity:0.1; fill:none" points="
  302.081,1234.53 302.081,713.659 
  "/>
<polyline clip-path="url(#clip883)" style="stroke:#000000; stroke-width:1.75; stroke-opacity:0.1; fill:none" points="
  818.713,1234.53 818.713,713.659 
  "/>
<polyline clip-path="url(#clip883)" style="stroke:#000000; stroke-width:1.75; stroke-opacity:0.1; fill:none" points="
  1335.35,1234.53 1335.35,713.659 
  "/>
<polyline clip-path="url(#clip883)" style="stroke:#000000; stroke-width:1.75; stroke-opacity:0.1; fill:none" points="
  1851.98,1234.53 1851.98,713.659 
  "/>
<polyline clip-path="url(#clip880)" style="stroke:#000000; stroke-width:3.5; stroke-opacity:1; fill:none" points="
  250.919,1234.53 2058.66,1234.53 
  "/>
<polyline clip-path="url(#clip880)" style="stroke:#000000; stroke-width:3.5; stroke-opacity:1; fill:none" points="
  302.081,1234.53 302.081,1228.28 
  "/>
<polyline clip-path="url(#clip880)" style="stroke:#000000; stroke-width:3.5; stroke-opacity:1; fill:none" points="
  818.713,1234.53 818.713,1228.28 
  "/>
<polyline clip-path="url(#clip880)" style="stroke:#000000; stroke-width:3.5; stroke-opacity:1; fill:none" points="
  1335.35,1234.53 1335.35,1228.28 
  "/>
<polyline clip-path="url(#clip880)" style="stroke:#000000; stroke-width:3.5; stroke-opacity:1; fill:none" points="
  1851.98,1234.53 1851.98,1228.28 
  "/>
<path clip-path="url(#clip880)" d="M 0 0 M262.263 1303.02 L268.947 1303.02 L268.947 1279.95 L261.676 1281.41 L261.676 1277.68 L268.907 1276.23 L272.998 1276.23 L272.998 1303.02 L279.682 1303.02 L279.682 1306.47 L262.263 1306.47 L262.263 1303.02 Z" fill="#000000" fill-rule="evenodd" fill-opacity="1" /><path clip-path="url(#clip880)" d="M 0 0 M292.868 1278.92 Q289.708 1278.92 288.108 1282.04 Q286.528 1285.14 286.528 1291.38 Q286.528 1297.59 288.108 1300.71 Q289.708 1303.81 292.868 1303.81 Q296.048 1303.81 297.628 1300.71 Q299.228 1297.59 299.228 1291.38 Q299.228 1285.14 297.628 1282.04 Q296.048 1278.92 292.868 1278.92 M292.868 1275.68 Q297.952 1275.68 300.625 1279.71 Q303.319 1283.72 303.319 1291.38 Q303.319 1299.01 300.625 1303.04 Q297.952 1307.05 292.868 1307.05 Q287.784 1307.05 285.09 1303.04 Q282.416 1299.01 282.416 1291.38 Q282.416 1283.72 285.09 1279.71 Q287.784 1275.68 292.868 1275.68 Z" fill="#000000" fill-rule="evenodd" fill-opacity="1" /><path clip-path="url(#clip880)" d="M 0 0 M303.319 1270.52 L324.417 1270.52 L324.417 1273.32 L303.319 1273.32 L303.319 1270.52 Z" fill="#000000" fill-rule="evenodd" fill-opacity="1" /><path clip-path="url(#clip880)" d="M 0 0 M330.884 1279.68 L342.486 1279.68 L342.486 1282.48 L326.885 1282.48 L326.885 1279.68 Q328.778 1277.73 332.036 1274.43 Q335.311 1271.13 336.15 1270.17 Q337.747 1268.38 338.372 1267.14 Q339.014 1265.89 339.014 1264.69 Q339.014 1262.73 337.632 1261.5 Q336.266 1260.27 334.06 1260.27 Q332.497 1260.27 330.753 1260.81 Q329.025 1261.35 327.05 1262.45 L327.05 1259.1 Q329.058 1258.29 330.802 1257.88 Q332.546 1257.47 333.995 1257.47 Q337.813 1257.47 340.084 1259.38 Q342.355 1261.29 342.355 1264.48 Q342.355 1265.99 341.779 1267.36 Q341.219 1268.71 339.722 1270.55 Q339.31 1271.03 337.105 1273.32 Q334.9 1275.59 330.884 1279.68 Z" fill="#000000" fill-rule="evenodd" fill-opacity="1" /><path clip-path="url(#clip880)" d="M 0 0 M778.764 1303.02 L785.448 1303.02 L785.448 1279.95 L778.176 1281.41 L778.176 1277.68 L785.407 1276.23 L789.498 1276.23 L789.498 1303.02 L796.182 1303.02 L796.182 1306.47 L778.764 1306.47 L778.764 1303.02 Z" fill="#000000" fill-rule="evenodd" fill-opacity="1" /><path clip-path="url(#clip880)" d="M 0 0 M809.368 1278.92 Q806.208 1278.92 804.608 1282.04 Q803.029 1285.14 803.029 1291.38 Q803.029 1297.59 804.608 1300.71 Q806.208 1303.81 809.368 1303.81 Q812.548 1303.81 814.128 1300.71 Q815.728 1297.59 815.728 1291.38 Q815.728 1285.14 814.128 1282.04 Q812.548 1278.92 809.368 1278.92 M809.368 1275.68 Q814.452 1275.68 817.126 1279.71 Q819.82 1283.72 819.82 1291.38 Q819.82 1299.01 817.126 1303.04 Q814.452 1307.05 809.368 1307.05 Q804.284 1307.05 801.59 1303.04 Q798.917 1299.01 798.917 1291.38 Q798.917 1283.72 801.59 1279.71 Q804.284 1275.68 809.368 1275.68 Z" fill="#000000" fill-rule="evenodd" fill-opacity="1" /><path clip-path="url(#clip880)" d="M 0 0 M819.82 1270.52 L840.917 1270.52 L840.917 1273.32 L819.82 1273.32 L819.82 1270.52 Z" fill="#000000" fill-rule="evenodd" fill-opacity="1" /><path clip-path="url(#clip880)" d="M 0 0 M845.097 1279.68 L850.528 1279.68 L850.528 1260.94 L844.62 1262.12 L844.62 1259.1 L850.495 1257.91 L853.819 1257.91 L853.819 1279.68 L859.25 1279.68 L859.25 1282.48 L845.097 1282.48 L845.097 1279.68 Z" fill="#000000" fill-rule="evenodd" fill-opacity="1" /><path clip-path="url(#clip880)" d="M 0 0 M1306.62 1303.02 L1313.3 1303.02 L1313.3 1279.95 L1306.03 1281.41 L1306.03 1277.68 L1313.26 1276.23 L1317.35 1276.23 L1317.35 1303.02 L1324.04 1303.02 L1324.04 1306.47 L1306.62 1306.47 L1306.62 1303.02 Z" fill="#000000" fill-rule="evenodd" fill-opacity="1" /><path clip-path="url(#clip880)" d="M 0 0 M1337.22 1278.92 Q1334.06 1278.92 1332.46 1282.04 Q1330.88 1285.14 1330.88 1291.38 Q1330.88 1297.59 1332.46 1300.71 Q1334.06 1303.81 1337.22 1303.81 Q1340.4 1303.81 1341.98 1300.71 Q1343.58 1297.59 1343.58 1291.38 Q1343.58 1285.14 1341.98 1282.04 Q1340.4 1278.92 1337.22 1278.92 M1337.22 1275.68 Q1342.31 1275.68 1344.98 1279.71 Q1347.68 1283.72 1347.68 1291.38 Q1347.68 1299.01 1344.98 1303.04 Q1342.31 1307.05 1337.22 1307.05 Q1332.14 1307.05 1329.45 1303.04 Q1326.77 1299.01 1326.77 1291.38 Q1326.77 1283.72 1329.45 1279.71 Q1332.14 1275.68 1337.22 1275.68 Z" fill="#000000" fill-rule="evenodd" fill-opacity="1" /><path clip-path="url(#clip880)" d="M 0 0 M1356.17 1260.1 Q1353.6 1260.1 1352.3 1262.63 Q1351.02 1265.15 1351.02 1270.22 Q1351.02 1275.27 1352.3 1277.81 Q1353.6 1280.33 1356.17 1280.33 Q1358.75 1280.33 1360.03 1277.81 Q1361.33 1275.27 1361.33 1270.22 Q1361.33 1265.15 1360.03 1262.63 Q1358.75 1260.1 1356.17 1260.1 M1356.17 1257.47 Q1360.3 1257.47 1362.47 1260.74 Q1364.66 1264 1364.66 1270.22 Q1364.66 1276.43 1362.47 1279.7 Q1360.3 1282.96 1356.17 1282.96 Q1352.04 1282.96 1349.85 1279.7 Q1347.68 1276.43 1347.68 1270.22 Q1347.68 1264 1349.85 1260.74 Q1352.04 1257.47 1356.17 1257.47 Z" fill="#000000" fill-rule="evenodd" fill-opacity="1" /><path clip-path="url(#clip880)" d="M 0 0 M1824.43 1303.02 L1831.11 1303.02 L1831.11 1279.95 L1823.84 1281.41 L1823.84 1277.68 L1831.07 1276.23 L1835.16 1276.23 L1835.16 1303.02 L1841.85 1303.02 L1841.85 1306.47 L1824.43 1306.47 L1824.43 1303.02 Z" fill="#000000" fill-rule="evenodd" fill-opacity="1" /><path clip-path="url(#clip880)" d="M 0 0 M1855.03 1278.92 Q1851.87 1278.92 1850.27 1282.04 Q1848.69 1285.14 1848.69 1291.38 Q1848.69 1297.59 1850.27 1300.71 Q1851.87 1303.81 1855.03 1303.81 Q1858.21 1303.81 1859.79 1300.71 Q1861.39 1297.59 1861.39 1291.38 Q1861.39 1285.14 1859.79 1282.04 Q1858.21 1278.92 1855.03 1278.92 M1855.03 1275.68 Q1860.12 1275.68 1862.79 1279.71 Q1865.48 1283.72 1865.48 1291.38 Q1865.48 1299.01 1862.79 1303.04 Q1860.12 1307.05 1855.03 1307.05 Q1849.95 1307.05 1847.25 1303.04 Q1844.58 1299.01 1844.58 1291.38 Q1844.58 1283.72 1847.25 1279.71 Q1849.95 1275.68 1855.03 1275.68 Z" fill="#000000" fill-rule="evenodd" fill-opacity="1" /><path clip-path="url(#clip880)" d="M 0 0 M1865.96 1279.68 L1871.39 1279.68 L1871.39 1260.94 L1865.48 1262.12 L1865.48 1259.1 L1871.36 1257.91 L1874.68 1257.91 L1874.68 1279.68 L1880.11 1279.68 L1880.11 1282.48 L1865.96 1282.48 L1865.96 1279.68 Z" fill="#000000" fill-rule="evenodd" fill-opacity="1" /><path clip-path="url(#clip880)" d="M 0 0 M1146.3 1378.22 Q1134.74 1378.22 1134.74 1361.68 Q1134.74 1355.13 1139.05 1346.22 L1144.57 1346.22 Q1140.59 1355.13 1140.59 1361.82 Q1140.59 1373.88 1146.77 1373.88 Q1152.42 1373.88 1152.42 1358.89 L1157.16 1358.89 Q1157.16 1373.88 1162.81 1373.88 Q1168.99 1373.88 1168.99 1361.82 Q1168.99 1355.13 1165.01 1346.22 L1170.53 1346.22 Q1174.84 1355.13 1174.84 1361.68 Q1174.84 1378.22 1163.28 1378.22 Q1155.71 1378.22 1154.79 1369.89 Q1153.65 1378.22 1146.3 1378.22 Z" fill="#000000" fill-rule="evenodd" fill-opacity="1" /><polyline clip-path="url(#clip883)" style="stroke:#000000; stroke-width:1.75; stroke-opacity:0.1; fill:none" points="
  250.919,1134.68 2058.66,1134.68 
  "/>
<polyline clip-path="url(#clip883)" style="stroke:#000000; stroke-width:1.75; stroke-opacity:0.1; fill:none" points="
  250.919,1033.05 2058.66,1033.05 
  "/>
<polyline clip-path="url(#clip883)" style="stroke:#000000; stroke-width:1.75; stroke-opacity:0.1; fill:none" points="
  250.919,931.414 2058.66,931.414 
  "/>
<polyline clip-path="url(#clip883)" style="stroke:#000000; stroke-width:1.75; stroke-opacity:0.1; fill:none" points="
  250.919,829.779 2058.66,829.779 
  "/>
<polyline clip-path="url(#clip883)" style="stroke:#000000; stroke-width:1.75; stroke-opacity:0.1; fill:none" points="
  250.919,728.144 2058.66,728.144 
  "/>
<polyline clip-path="url(#clip880)" style="stroke:#000000; stroke-width:3.5; stroke-opacity:1; fill:none" points="
  250.919,1234.53 250.919,713.659 
  "/>
<polyline clip-path="url(#clip880)" style="stroke:#000000; stroke-width:3.5; stroke-opacity:1; fill:none" points="
  250.919,1134.68 272.611,1134.68 
  "/>
<polyline clip-path="url(#clip880)" style="stroke:#000000; stroke-width:3.5; stroke-opacity:1; fill:none" points="
  250.919,1033.05 272.611,1033.05 
  "/>
<polyline clip-path="url(#clip880)" style="stroke:#000000; stroke-width:3.5; stroke-opacity:1; fill:none" points="
  250.919,931.414 272.611,931.414 
  "/>
<polyline clip-path="url(#clip880)" style="stroke:#000000; stroke-width:3.5; stroke-opacity:1; fill:none" points="
  250.919,829.779 272.611,829.779 
  "/>
<polyline clip-path="url(#clip880)" style="stroke:#000000; stroke-width:3.5; stroke-opacity:1; fill:none" points="
  250.919,728.144 272.611,728.144 
  "/>
<path clip-path="url(#clip880)" d="M 0 0 M99.9776 1135.08 L125.944 1135.08 L125.944 1138.52 L99.9776 1138.52 L99.9776 1135.08 Z" fill="#000000" fill-rule="evenodd" fill-opacity="1" /><path clip-path="url(#clip880)" d="M 0 0 M131.089 1146.36 L137.773 1146.36 L137.773 1123.29 L130.501 1124.75 L130.501 1121.02 L137.732 1119.56 L141.823 1119.56 L141.823 1146.36 L148.507 1146.36 L148.507 1149.8 L131.089 1149.8 L131.089 1146.36 Z" fill="#000000" fill-rule="evenodd" fill-opacity="1" /><path clip-path="url(#clip880)" d="M 0 0 M161.693 1122.26 Q158.533 1122.26 156.933 1125.38 Q155.353 1128.48 155.353 1134.71 Q155.353 1140.93 156.933 1144.05 Q158.533 1147.15 161.693 1147.15 Q164.873 1147.15 166.453 1144.05 Q168.053 1140.93 168.053 1134.71 Q168.053 1128.48 166.453 1125.38 Q164.873 1122.26 161.693 1122.26 M161.693 1119.02 Q166.777 1119.02 169.451 1123.05 Q172.144 1127.06 172.144 1134.71 Q172.144 1142.35 169.451 1146.38 Q166.777 1150.39 161.693 1150.39 Q156.609 1150.39 153.915 1146.38 Q151.242 1142.35 151.242 1134.71 Q151.242 1127.06 153.915 1123.05 Q156.609 1119.02 161.693 1119.02 Z" fill="#000000" fill-rule="evenodd" fill-opacity="1" /><path clip-path="url(#clip880)" d="M 0 0 M185.33 1122.26 Q182.17 1122.26 180.57 1125.38 Q178.991 1128.48 178.991 1134.71 Q178.991 1140.93 180.57 1144.05 Q182.17 1147.15 185.33 1147.15 Q188.51 1147.15 190.09 1144.05 Q191.69 1140.93 191.69 1134.71 Q191.69 1128.48 190.09 1125.38 Q188.51 1122.26 185.33 1122.26 M185.33 1119.02 Q190.414 1119.02 193.088 1123.05 Q195.782 1127.06 195.782 1134.71 Q195.782 1142.35 193.088 1146.38 Q190.414 1150.39 185.33 1150.39 Q180.246 1150.39 177.552 1146.38 Q174.879 1142.35 174.879 1134.71 Q174.879 1127.06 177.552 1123.05 Q180.246 1119.02 185.33 1119.02 Z" fill="#000000" fill-rule="evenodd" fill-opacity="1" /><path clip-path="url(#clip880)" d="M 0 0 M208.967 1122.26 Q205.808 1122.26 204.207 1125.38 Q202.628 1128.48 202.628 1134.71 Q202.628 1140.93 204.207 1144.05 Q205.808 1147.15 208.967 1147.15 Q212.147 1147.15 213.727 1144.05 Q215.327 1140.93 215.327 1134.71 Q215.327 1128.48 213.727 1125.38 Q212.147 1122.26 208.967 1122.26 M208.967 1119.02 Q214.051 1119.02 216.725 1123.05 Q219.419 1127.06 219.419 1134.71 Q219.419 1142.35 216.725 1146.38 Q214.051 1150.39 208.967 1150.39 Q203.883 1150.39 201.189 1146.38 Q198.516 1142.35 198.516 1134.71 Q198.516 1127.06 201.189 1123.05 Q203.883 1119.02 208.967 1119.02 Z" fill="#000000" fill-rule="evenodd" fill-opacity="1" /><path clip-path="url(#clip880)" d="M 0 0 M124.202 1033.44 L150.168 1033.44 L150.168 1036.89 L124.202 1036.89 L124.202 1033.44 Z" fill="#000000" fill-rule="evenodd" fill-opacity="1" /><path clip-path="url(#clip880)" d="M 0 0 M153.571 1017.93 L173.015 1017.93 L173.015 1019.67 L162.037 1048.17 L157.764 1048.17 L168.094 1021.37 L153.571 1021.37 L153.571 1017.93 Z" fill="#000000" fill-rule="evenodd" fill-opacity="1" /><path clip-path="url(#clip880)" d="M 0 0 M177.492 1017.93 L193.554 1017.93 L193.554 1021.37 L181.239 1021.37 L181.239 1028.79 Q182.13 1028.48 183.021 1028.34 Q183.912 1028.18 184.804 1028.18 Q189.867 1028.18 192.824 1030.95 Q195.782 1033.73 195.782 1038.47 Q195.782 1043.35 192.743 1046.06 Q189.705 1048.76 184.176 1048.76 Q182.272 1048.76 180.287 1048.43 Q178.322 1048.11 176.216 1047.46 L176.216 1043.35 Q178.039 1044.34 179.983 1044.83 Q181.927 1045.31 184.095 1045.31 Q187.599 1045.31 189.644 1043.47 Q191.69 1041.63 191.69 1038.47 Q191.69 1035.31 189.644 1033.46 Q187.599 1031.62 184.095 1031.62 Q182.454 1031.62 180.813 1031.99 Q179.193 1032.35 177.492 1033.12 L177.492 1017.93 Z" fill="#000000" fill-rule="evenodd" fill-opacity="1" /><path clip-path="url(#clip880)" d="M 0 0 M208.967 1020.62 Q205.808 1020.62 204.207 1023.74 Q202.628 1026.84 202.628 1033.08 Q202.628 1039.3 204.207 1042.42 Q205.808 1045.52 208.967 1045.52 Q212.147 1045.52 213.727 1042.42 Q215.327 1039.3 215.327 1033.08 Q215.327 1026.84 213.727 1023.74 Q212.147 1020.62 208.967 1020.62 M208.967 1017.38 Q214.051 1017.38 216.725 1021.41 Q219.419 1025.42 219.419 1033.08 Q219.419 1040.72 216.725 1044.75 Q214.051 1048.76 208.967 1048.76 Q203.883 1048.76 201.189 1044.75 Q198.516 1040.72 198.516 1033.08 Q198.516 1025.42 201.189 1021.41 Q203.883 1017.38 208.967 1017.38 Z" fill="#000000" fill-rule="evenodd" fill-opacity="1" /><path clip-path="url(#clip880)" d="M 0 0 M123.412 931.809 L149.378 931.809 L149.378 935.252 L123.412 935.252 L123.412 931.809 Z" fill="#000000" fill-rule="evenodd" fill-opacity="1" /><path clip-path="url(#clip880)" d="M 0 0 M153.855 916.294 L169.916 916.294 L169.916 919.737 L157.602 919.737 L157.602 927.15 Q158.493 926.847 159.384 926.705 Q160.275 926.543 161.167 926.543 Q166.23 926.543 169.187 929.318 Q172.144 932.093 172.144 936.832 Q172.144 941.713 169.106 944.428 Q166.068 947.121 160.539 947.121 Q158.635 947.121 156.65 946.797 Q154.685 946.473 152.579 945.825 L152.579 941.713 Q154.402 942.706 156.346 943.192 Q158.29 943.678 160.458 943.678 Q163.962 943.678 166.007 941.835 Q168.053 939.992 168.053 936.832 Q168.053 933.672 166.007 931.829 Q163.962 929.986 160.458 929.986 Q158.817 929.986 157.176 930.351 Q155.556 930.715 153.855 931.485 L153.855 916.294 Z" fill="#000000" fill-rule="evenodd" fill-opacity="1" /><path clip-path="url(#clip880)" d="M 0 0 M185.33 918.988 Q182.17 918.988 180.57 922.107 Q178.991 925.206 178.991 931.444 Q178.991 937.663 180.57 940.782 Q182.17 943.881 185.33 943.881 Q188.51 943.881 190.09 940.782 Q191.69 937.663 191.69 931.444 Q191.69 925.206 190.09 922.107 Q188.51 918.988 185.33 918.988 M185.33 915.747 Q190.414 915.747 193.088 919.778 Q195.782 923.788 195.782 931.444 Q195.782 939.08 193.088 943.111 Q190.414 947.121 185.33 947.121 Q180.246 947.121 177.552 943.111 Q174.879 939.08 174.879 931.444 Q174.879 923.788 177.552 919.778 Q180.246 915.747 185.33 915.747 Z" fill="#000000" fill-rule="evenodd" fill-opacity="1" /><path clip-path="url(#clip880)" d="M 0 0 M208.967 918.988 Q205.808 918.988 204.207 922.107 Q202.628 925.206 202.628 931.444 Q202.628 937.663 204.207 940.782 Q205.808 943.881 208.967 943.881 Q212.147 943.881 213.727 940.782 Q215.327 937.663 215.327 931.444 Q215.327 925.206 213.727 922.107 Q212.147 918.988 208.967 918.988 M208.967 915.747 Q214.051 915.747 216.725 919.778 Q219.419 923.788 219.419 931.444 Q219.419 939.08 216.725 943.111 Q214.051 947.121 208.967 947.121 Q203.883 947.121 201.189 943.111 Q198.516 939.08 198.516 931.444 Q198.516 923.788 201.189 919.778 Q203.883 915.747 208.967 915.747 Z" fill="#000000" fill-rule="evenodd" fill-opacity="1" /><path clip-path="url(#clip880)" d="M 0 0 M124.81 830.174 L150.776 830.174 L150.776 833.617 L124.81 833.617 L124.81 830.174 Z" fill="#000000" fill-rule="evenodd" fill-opacity="1" /><path clip-path="url(#clip880)" d="M 0 0 M158.736 841.456 L173.015 841.456 L173.015 844.899 L153.814 844.899 L153.814 841.456 Q156.143 839.046 160.154 834.995 Q164.184 830.924 165.217 829.749 Q167.182 827.541 167.952 826.022 Q168.742 824.483 168.742 823.004 Q168.742 820.594 167.04 819.075 Q165.359 817.556 162.645 817.556 Q160.721 817.556 158.574 818.224 Q156.447 818.892 154.017 820.249 L154.017 816.118 Q156.488 815.125 158.635 814.619 Q160.782 814.112 162.564 814.112 Q167.263 814.112 170.058 816.462 Q172.853 818.811 172.853 822.741 Q172.853 824.604 172.144 826.285 Q171.456 827.946 169.613 830.215 Q169.106 830.802 166.392 833.617 Q163.678 836.413 158.736 841.456 Z" fill="#000000" fill-rule="evenodd" fill-opacity="1" /><path clip-path="url(#clip880)" d="M 0 0 M177.492 814.659 L193.554 814.659 L193.554 818.103 L181.239 818.103 L181.239 825.516 Q182.13 825.212 183.021 825.07 Q183.912 824.908 184.804 824.908 Q189.867 824.908 192.824 827.683 Q195.782 830.458 195.782 835.197 Q195.782 840.079 192.743 842.793 Q189.705 845.487 184.176 845.487 Q182.272 845.487 180.287 845.163 Q178.322 844.838 176.216 844.19 L176.216 840.079 Q178.039 841.071 179.983 841.557 Q181.927 842.043 184.095 842.043 Q187.599 842.043 189.644 840.2 Q191.69 838.357 191.69 835.197 Q191.69 832.038 189.644 830.194 Q187.599 828.351 184.095 828.351 Q182.454 828.351 180.813 828.716 Q179.193 829.08 177.492 829.85 L177.492 814.659 Z" fill="#000000" fill-rule="evenodd" fill-opacity="1" /><path clip-path="url(#clip880)" d="M 0 0 M208.967 817.353 Q205.808 817.353 204.207 820.472 Q202.628 823.571 202.628 829.81 Q202.628 836.028 204.207 839.147 Q205.808 842.246 208.967 842.246 Q212.147 842.246 213.727 839.147 Q215.327 836.028 215.327 829.81 Q215.327 823.571 213.727 820.472 Q212.147 817.353 208.967 817.353 M208.967 814.112 Q214.051 814.112 216.725 818.143 Q219.419 822.153 219.419 829.81 Q219.419 837.446 216.725 841.476 Q214.051 845.487 208.967 845.487 Q203.883 845.487 201.189 841.476 Q198.516 837.446 198.516 829.81 Q198.516 822.153 201.189 818.143 Q203.883 814.112 208.967 814.112 Z" fill="#000000" fill-rule="evenodd" fill-opacity="1" /><path clip-path="url(#clip880)" d="M 0 0 M208.967 715.718 Q205.808 715.718 204.207 718.838 Q202.628 721.936 202.628 728.175 Q202.628 734.393 204.207 737.512 Q205.808 740.611 208.967 740.611 Q212.147 740.611 213.727 737.512 Q215.327 734.393 215.327 728.175 Q215.327 721.936 213.727 718.838 Q212.147 715.718 208.967 715.718 M208.967 712.478 Q214.051 712.478 216.725 716.508 Q219.419 720.519 219.419 728.175 Q219.419 735.811 216.725 739.841 Q214.051 743.852 208.967 743.852 Q203.883 743.852 201.189 739.841 Q198.516 735.811 198.516 728.175 Q198.516 720.519 201.189 716.508 Q203.883 712.478 208.967 712.478 Z" fill="#000000" fill-rule="evenodd" fill-opacity="1" /><path clip-path="url(#clip880)" d="M 0 0 M28.9613 969.738 Q28.9613 971.548 32.9996 971.548 L52.1046 971.548 Q52.1046 968.903 49.2082 966.257 Q46.6182 963.89 40.4077 963.89 Q34.6149 963.89 31.4957 966.285 Q28.9613 968.234 28.9613 969.738 M24.5889 969.738 Q24.5889 965.839 28.2651 962.302 Q32.1919 958.487 40.4077 958.487 Q47.955 958.487 52.4388 962.302 Q56.672 965.895 56.672 971.548 L67.8677 971.548 L67.8677 976.645 L56.6999 976.645 Q56.6999 982.187 52.4388 985.919 Q48.0942 989.707 40.4355 989.707 Q32.4704 989.707 28.4043 985.919 Q25.3687 983.078 24.5889 978.455 L29.1284 978.455 Q29.769 980.293 31.9413 981.909 Q35.144 984.304 40.4355 984.304 Q46.0612 984.304 49.2639 981.909 Q52.1325 979.764 52.1325 976.645 L32.9996 976.645 Q24.5889 976.645 24.5889 969.738 Z" fill="#000000" fill-rule="evenodd" fill-opacity="1" /><circle clip-path="url(#clip883)" cx="302.081" cy="728.401" r="12" fill="#009af9" fill-rule="evenodd" fill-opacity="1" stroke="#000000" stroke-opacity="1" stroke-width="2.8"/>
<circle clip-path="url(#clip883)" cx="663.191" cy="729.425" r="12" fill="#009af9" fill-rule="evenodd" fill-opacity="1" stroke="#000000" stroke-opacity="1" stroke-width="2.8"/>
<circle clip-path="url(#clip883)" cx="818.713" cy="730.706" r="12" fill="#009af9" fill-rule="evenodd" fill-opacity="1" stroke="#000000" stroke-opacity="1" stroke-width="2.8"/>
<circle clip-path="url(#clip883)" cx="1335.35" cy="753.76" r="12" fill="#009af9" fill-rule="evenodd" fill-opacity="1" stroke="#000000" stroke-opacity="1" stroke-width="2.8"/>
<circle clip-path="url(#clip883)" cx="1581.84" cy="804.818" r="12" fill="#009af9" fill-rule="evenodd" fill-opacity="1" stroke="#000000" stroke-opacity="1" stroke-width="2.8"/>
<circle clip-path="url(#clip883)" cx="1696.46" cy="855.407" r="12" fill="#009af9" fill-rule="evenodd" fill-opacity="1" stroke="#000000" stroke-opacity="1" stroke-width="2.8"/>
<circle clip-path="url(#clip883)" cx="1771.95" cy="905.42" r="12" fill="#009af9" fill-rule="evenodd" fill-opacity="1" stroke="#000000" stroke-opacity="1" stroke-width="2.8"/>
<circle clip-path="url(#clip883)" cx="1828.34" cy="954.851" r="12" fill="#009af9" fill-rule="evenodd" fill-opacity="1" stroke="#000000" stroke-opacity="1" stroke-width="2.8"/>
<circle clip-path="url(#clip883)" cx="1851.98" cy="979.369" r="12" fill="#009af9" fill-rule="evenodd" fill-opacity="1" stroke="#000000" stroke-opacity="1" stroke-width="2.8"/>
<circle clip-path="url(#clip883)" cx="1892.88" cy="1028.06" r="12" fill="#009af9" fill-rule="evenodd" fill-opacity="1" stroke="#000000" stroke-opacity="1" stroke-width="2.8"/>
<circle clip-path="url(#clip883)" cx="1942.95" cy="1100.43" r="12" fill="#009af9" fill-rule="evenodd" fill-opacity="1" stroke="#000000" stroke-opacity="1" stroke-width="2.8"/>
<circle clip-path="url(#clip883)" cx="2007.5" cy="1219.79" r="12" fill="#009af9" fill-rule="evenodd" fill-opacity="1" stroke="#000000" stroke-opacity="1" stroke-width="2.8"/>
<polyline clip-path="url(#clip883)" style="stroke:#e26f46; stroke-width:3.5; stroke-opacity:1; fill:none" points="
  302.081,728.401 319.308,728.421 336.534,728.443 353.76,728.467 370.987,728.493 388.213,728.521 405.44,728.551 422.666,728.583 439.893,728.618 457.119,728.656 
  474.346,728.697 491.572,728.741 508.798,728.788 526.025,728.84 543.251,728.895 560.478,728.955 577.704,729.02 594.931,729.09 612.157,729.165 629.383,729.246 
  646.61,729.334 663.836,729.429 681.063,729.532 698.289,729.643 715.516,729.762 732.742,729.891 749.969,730.031 767.195,730.181 784.421,730.344 801.648,730.519 
  818.874,730.709 836.101,730.913 853.327,731.134 870.554,731.373 887.78,731.63 905.007,731.908 922.233,732.209 939.459,732.533 956.686,732.883 973.912,733.261 
  991.139,733.67 1008.37,734.111 1025.59,734.587 1042.82,735.101 1060.04,735.656 1077.27,736.255 1094.5,736.903 1111.72,737.602 1128.95,738.356 1146.18,739.171 
  1163.4,740.051 1180.63,741.001 1197.86,742.027 1215.08,743.134 1232.31,744.33 1249.54,745.621 1266.76,747.016 1283.99,748.521 1301.21,750.146 1318.44,751.901 
  1335.67,753.796 1352.89,755.841 1370.12,758.05 1387.35,760.434 1404.57,763.008 1421.8,765.787 1439.03,768.787 1456.25,772.025 1473.48,775.52 1490.71,779.292 
  1507.93,783.363 1525.16,787.756 1542.38,792.497 1559.61,797.612 1576.84,803.13 1594.06,809.082 1611.29,815.502 1628.52,822.425 1645.74,829.889 1662.97,837.935 
  1680.2,846.608 1697.42,855.953 1714.65,866.02 1731.88,876.864 1749.1,888.541 1766.33,901.114 1783.56,914.647 1800.78,929.213 1818.01,944.887 1835.23,961.752 
  1852.46,979.896 1869.69,999.418 1886.91,1020.42 1904.14,1043.02 1921.37,1067.33 1938.59,1093.5 1955.82,1121.66 1973.05,1151.99 1990.27,1184.63 2007.5,1219.79 
  
  "/>
</svg>
