<?xml version="1.0" encoding="utf-8"?>
<svg xmlns="http://www.w3.org/2000/svg" xmlns:xlink="http://www.w3.org/1999/xlink" width="600" height="400" viewBox="0 0 2400 1600">
<defs>
  <clipPath id="clip450">
    <rect x="0" y="0" width="2400" height="1600"/>
  </clipPath>
</defs>
<path clip-path="url(#clip450)" d="
M0 1600 L2400 1600 L2400 0 L0 0  Z
  " fill="#ffffff" fill-rule="evenodd" fill-opacity="1"/>
<defs>
  <clipPath id="clip451">
    <rect x="480" y="0" width="1681" height="1600"/>
  </clipPath>
</defs>
<path clip-path="url(#clip450)" d="
M170.857 1442.95 L2352.76 1442.95 L2352.76 47.2441 L170.857 47.2441  Z
  " fill="#ffffff" fill-rule="evenodd" fill-opacity="1"/>
<defs>
  <clipPath id="clip452">
    <rect x="170" y="47" width="2183" height="1397"/>
  </clipPath>
</defs>
<polyline clip-path="url(#clip452)" style="stroke:#000000; stroke-width:2; stroke-opacity:0.1; fill:none" points="
  232.609,1442.95 232.609,47.2441 
  "/>
<polyline clip-path="url(#clip452)" style="stroke:#000000; stroke-width:2; stroke-opacity:0.1; fill:none" points="
  700.426,1442.95 700.426,47.2441 
  "/>
<polyline clip-path="url(#clip452)" style="stroke:#000000; stroke-width:2; stroke-opacity:0.1; fill:none" points="
  1168.24,1442.95 1168.24,47.2441 
  "/>
<polyline clip-path="url(#clip452)" style="stroke:#000000; stroke-width:2; stroke-opacity:0.1; fill:none" points="
  1636.06,1442.95 1636.06,47.2441 
  "/>
<polyline clip-path="url(#clip452)" style="stroke:#000000; stroke-width:2; stroke-opacity:0.1; fill:none" points="
  2103.88,1442.95 2103.88,47.2441 
  "/>
<polyline clip-path="url(#clip450)" style="stroke:#000000; stroke-width:4; stroke-opacity:1; fill:none" points="
  170.857,1442.95 2352.76,1442.95 
  "/>
<polyline clip-path="url(#clip450)" style="stroke:#000000; stroke-width:4; stroke-opacity:1; fill:none" points="
  232.609,1442.95 232.609,1426.2 
  "/>
<polyline clip-path="url(#clip450)" style="stroke:#000000; stroke-width:4; stroke-opacity:1; fill:none" points="
  700.426,1442.95 700.426,1426.2 
  "/>
<polyline clip-path="url(#clip450)" style="stroke:#000000; stroke-width:4; stroke-opacity:1; fill:none" points="
  1168.24,1442.95 1168.24,1426.2 
  "/>
<polyline clip-path="url(#clip450)" style="stroke:#000000; stroke-width:4; stroke-opacity:1; fill:none" points="
  1636.06,1442.95 1636.06,1426.2 
  "/>
<polyline clip-path="url(#clip450)" style="stroke:#000000; stroke-width:4; stroke-opacity:1; fill:none" points="
  2103.88,1442.95 2103.88,1426.2 
  "/>
<path clip-path="url(#clip450)" d="M 0 0 M202.552 1486.79 L232.227 1486.79 L232.227 1490.73 L202.552 1490.73 L202.552 1486.79 Z" fill="#000000" fill-rule="evenodd" fill-opacity="1" /><path clip-path="url(#clip450)" d="M 0 0 M246.348 1499.69 L262.667 1499.69 L262.667 1503.62 L240.723 1503.62 L240.723 1499.69 Q243.385 1496.93 247.968 1492.3 Q252.574 1487.65 253.755 1486.31 Q256 1483.78 256.88 1482.05 Q257.783 1480.29 257.783 1478.6 Q257.783 1475.84 255.838 1474.11 Q253.917 1472.37 250.815 1472.37 Q248.616 1472.37 246.162 1473.14 Q243.732 1473.9 240.954 1475.45 L240.954 1470.73 Q243.778 1469.59 246.232 1469.02 Q248.686 1468.44 250.723 1468.44 Q256.093 1468.44 259.287 1471.12 Q262.482 1473.81 262.482 1478.3 Q262.482 1480.43 261.672 1482.35 Q260.885 1484.25 258.778 1486.84 Q258.199 1487.51 255.098 1490.73 Q251.996 1493.92 246.348 1499.69 Z" fill="#000000" fill-rule="evenodd" fill-opacity="1" /><path clip-path="url(#clip450)" d="M 0 0 M670.183 1486.79 L699.859 1486.79 L699.859 1490.73 L670.183 1490.73 L670.183 1486.79 Z" fill="#000000" fill-rule="evenodd" fill-opacity="1" /><path clip-path="url(#clip450)" d="M 0 0 M710.762 1499.69 L718.401 1499.69 L718.401 1473.32 L710.091 1474.99 L710.091 1470.73 L718.354 1469.06 L723.03 1469.06 L723.03 1499.69 L730.669 1499.69 L730.669 1503.62 L710.762 1503.62 L710.762 1499.69 Z" fill="#000000" fill-rule="evenodd" fill-opacity="1" /><path clip-path="url(#clip450)" d="M 0 0 M1168.24 1472.14 Q1164.63 1472.14 1162.8 1475.71 Q1161 1479.25 1161 1486.38 Q1161 1493.48 1162.8 1497.05 Q1164.63 1500.59 1168.24 1500.59 Q1171.88 1500.59 1173.68 1497.05 Q1175.51 1493.48 1175.51 1486.38 Q1175.51 1479.25 1173.68 1475.71 Q1171.88 1472.14 1168.24 1472.14 M1168.24 1468.44 Q1174.05 1468.44 1177.11 1473.04 Q1180.19 1477.63 1180.19 1486.38 Q1180.19 1495.1 1177.11 1499.71 Q1174.05 1504.29 1168.24 1504.29 Q1162.43 1504.29 1159.35 1499.71 Q1156.3 1495.1 1156.3 1486.38 Q1156.3 1477.63 1159.35 1473.04 Q1162.43 1468.44 1168.24 1468.44 Z" fill="#000000" fill-rule="evenodd" fill-opacity="1" /><path clip-path="url(#clip450)" d="M 0 0 M1626.44 1499.69 L1634.08 1499.69 L1634.08 1473.32 L1625.77 1474.99 L1625.77 1470.73 L1634.03 1469.06 L1638.71 1469.06 L1638.71 1499.69 L1646.35 1499.69 L1646.35 1503.62 L1626.44 1503.62 L1626.44 1499.69 Z" fill="#000000" fill-rule="evenodd" fill-opacity="1" /><path clip-path="url(#clip450)" d="M 0 0 M2098.53 1499.69 L2114.85 1499.69 L2114.85 1503.62 L2092.91 1503.62 L2092.91 1499.69 Q2095.57 1496.93 2100.15 1492.3 Q2104.76 1487.65 2105.94 1486.31 Q2108.18 1483.78 2109.06 1482.05 Q2109.97 1480.29 2109.97 1478.6 Q2109.97 1475.84 2108.02 1474.11 Q2106.1 1472.37 2103 1472.37 Q2100.8 1472.37 2098.34 1473.14 Q2095.91 1473.9 2093.14 1475.45 L2093.14 1470.73 Q2095.96 1469.59 2098.41 1469.02 Q2100.87 1468.44 2102.91 1468.44 Q2108.28 1468.44 2111.47 1471.12 Q2114.66 1473.81 2114.66 1478.3 Q2114.66 1480.43 2113.85 1482.35 Q2113.07 1484.25 2110.96 1486.84 Q2110.38 1487.51 2107.28 1490.73 Q2104.18 1493.92 2098.53 1499.69 Z" fill="#000000" fill-rule="evenodd" fill-opacity="1" /><path clip-path="url(#clip450)" d="M 0 0 M1270.28 1539.82 Q1270.28 1540.72 1269.86 1540.95 Q1269.44 1541.14 1268.28 1541.14 L1262.1 1541.14 L1257.2 1560.59 Q1256.82 1562.3 1256.82 1563.75 Q1256.82 1565.36 1257.3 1566.07 Q1257.81 1566.78 1258.88 1566.78 Q1260.97 1566.78 1263.22 1564.88 Q1265.51 1562.98 1267.44 1558.34 Q1267.7 1557.73 1267.83 1557.6 Q1267.99 1557.44 1268.41 1557.44 Q1269.21 1557.44 1269.21 1558.08 Q1269.21 1558.31 1268.76 1559.34 Q1268.35 1560.37 1267.41 1561.88 Q1266.51 1563.4 1265.32 1564.81 Q1264.16 1566.23 1262.39 1567.26 Q1260.62 1568.26 1258.72 1568.26 Q1256.04 1568.26 1254.34 1566.55 Q1252.66 1564.84 1252.66 1562.17 Q1252.66 1561.3 1253.34 1558.53 Q1254.01 1555.73 1257.69 1541.14 L1251.86 1541.14 Q1251.05 1541.14 1250.73 1541.11 Q1250.44 1541.08 1250.21 1540.92 Q1250.02 1540.72 1250.02 1540.34 Q1250.02 1539.72 1250.28 1539.47 Q1250.54 1539.18 1250.86 1539.14 Q1251.21 1539.08 1252.02 1539.08 L1258.2 1539.08 L1260.78 1528.61 Q1261.03 1527.58 1261.68 1527 Q1262.36 1526.39 1262.74 1526.33 Q1263.13 1526.23 1263.42 1526.23 Q1264.29 1526.23 1264.8 1526.71 Q1265.32 1527.16 1265.32 1528 Q1265.32 1528.45 1262.61 1539.08 L1268.41 1539.08 Q1269.15 1539.08 1269.44 1539.11 Q1269.76 1539.14 1270.02 1539.31 Q1270.28 1539.47 1270.28 1539.82 Z" fill="#000000" fill-rule="evenodd" fill-opacity="1" /><polyline clip-path="url(#clip452)" style="stroke:#000000; stroke-width:2; stroke-opacity:0.1; fill:none" points="
  170.857,1403.45 2352.76,1403.45 
  "/>
<polyline clip-path="url(#clip452)" style="stroke:#000000; stroke-width:2; stroke-opacity:0.1; fill:none" points="
  170.857,1130.27 2352.76,1130.27 
  "/>
<polyline clip-path="url(#clip452)" style="stroke:#000000; stroke-width:2; stroke-opacity:0.1; fill:none" points="
  170.857,857.099 2352.76,857.099 
  "/>
<polyline clip-path="url(#clip452)" style="stroke:#000000; stroke-width:2; stroke-opacity:0.1; fill:none" points="
  170.857,583.924 2352.76,583.924 
  "/>
<polyline clip-path="url(#clip452)" style="stroke:#000000; stroke-width:2; stroke-opacity:0.1; fill:none" points="
  170.857,310.749 2352.76,310.749 
  "/>
<polyline clip-path="url(#clip450)" style="stroke:#000000; stroke-width:4; stroke-opacity:1; fill:none" points="
  170.857,1442.95 170.857,47.2441 
  "/>
<polyline clip-path="url(#clip450)" style="stroke:#000000; stroke-width:4; stroke-opacity:1; fill:none" points="
  170.857,1403.45 197.04,1403.45 
  "/>
<polyline clip-path="url(#clip450)" style="stroke:#000000; stroke-width:4; stroke-opacity:1; fill:none" points="
  170.857,1130.27 197.04,1130.27 
  "/>
<polyline clip-path="url(#clip450)" style="stroke:#000000; stroke-width:4; stroke-opacity:1; fill:none" points="
  170.857,857.099 197.04,857.099 
  "/>
<polyline clip-path="url(#clip450)" style="stroke:#000000; stroke-width:4; stroke-opacity:1; fill:none" points="
  170.857,583.924 197.04,583.924 
  "/>
<polyline clip-path="url(#clip450)" style="stroke:#000000; stroke-width:4; stroke-opacity:1; fill:none" points="
  170.857,310.749 197.04,310.749 
  "/>
<path clip-path="url(#clip450)" d="M 0 0 M53.3995 1416.79 L61.0384 1416.79 L61.0384 1390.43 L52.7282 1392.09 L52.7282 1387.84 L60.9921 1386.17 L65.668 1386.17 L65.668 1416.79 L73.3068 1416.79 L73.3068 1420.73 L53.3995 1420.73 L53.3995 1416.79 Z" fill="#000000" fill-rule="evenodd" fill-opacity="1" /><path clip-path="url(#clip450)" d="M 0 0 M92.7512 1389.25 Q89.1401 1389.25 87.3114 1392.81 Q85.5058 1396.35 85.5058 1403.48 Q85.5058 1410.59 87.3114 1414.15 Q89.1401 1417.7 92.7512 1417.7 Q96.3854 1417.7 98.1909 1414.15 Q100.02 1410.59 100.02 1403.48 Q100.02 1396.35 98.1909 1392.81 Q96.3854 1389.25 92.7512 1389.25 M92.7512 1385.54 Q98.5613 1385.54 101.617 1390.15 Q104.696 1394.73 104.696 1403.48 Q104.696 1412.21 101.617 1416.82 Q98.5613 1421.4 92.7512 1421.4 Q86.941 1421.4 83.8623 1416.82 Q80.8068 1412.21 80.8068 1403.48 Q80.8068 1394.73 83.8623 1390.15 Q86.941 1385.54 92.7512 1385.54 Z" fill="#000000" fill-rule="evenodd" fill-opacity="1" /><path clip-path="url(#clip450)" d="M 0 0 M122.913 1389.25 Q119.302 1389.25 117.473 1392.81 Q115.668 1396.35 115.668 1403.48 Q115.668 1410.59 117.473 1414.15 Q119.302 1417.7 122.913 1417.7 Q126.547 1417.7 128.353 1414.15 Q130.182 1410.59 130.182 1403.48 Q130.182 1396.35 128.353 1392.81 Q126.547 1389.25 122.913 1389.25 M122.913 1385.54 Q128.723 1385.54 131.779 1390.15 Q134.857 1394.73 134.857 1403.48 Q134.857 1412.21 131.779 1416.82 Q128.723 1421.4 122.913 1421.4 Q117.103 1421.4 114.024 1416.82 Q110.969 1412.21 110.969 1403.48 Q110.969 1394.73 114.024 1390.15 Q117.103 1385.54 122.913 1385.54 Z" fill="#000000" fill-rule="evenodd" fill-opacity="1" /><path clip-path="url(#clip450)" d="M 0 0 M53.3995 1143.62 L61.0384 1143.62 L61.0384 1117.25 L52.7282 1118.92 L52.7282 1114.66 L60.9921 1112.99 L65.668 1112.99 L65.668 1143.62 L73.3068 1143.62 L73.3068 1147.55 L53.3995 1147.55 L53.3995 1143.62 Z" fill="#000000" fill-rule="evenodd" fill-opacity="1" /><path clip-path="url(#clip450)" d="M 0 0 M82.7975 1112.99 L101.154 1112.99 L101.154 1116.93 L87.0799 1116.93 L87.0799 1125.4 Q88.0984 1125.05 89.1169 1124.89 Q90.1354 1124.71 91.1539 1124.71 Q96.941 1124.71 100.321 1127.88 Q103.7 1131.05 103.7 1136.47 Q103.7 1142.04 100.228 1145.15 Q96.7558 1148.23 90.4364 1148.23 Q88.2604 1148.23 85.9919 1147.85 Q83.7466 1147.48 81.3392 1146.74 L81.3392 1142.04 Q83.4225 1143.18 85.6447 1143.73 Q87.8669 1144.29 90.3438 1144.29 Q94.3484 1144.29 96.6863 1142.18 Q99.0243 1140.08 99.0243 1136.47 Q99.0243 1132.85 96.6863 1130.75 Q94.3484 1128.64 90.3438 1128.64 Q88.4688 1128.64 86.5938 1129.06 Q84.7419 1129.48 82.7975 1130.35 L82.7975 1112.99 Z" fill="#000000" fill-rule="evenodd" fill-opacity="1" /><path clip-path="url(#clip450)" d="M 0 0 M122.913 1116.07 Q119.302 1116.07 117.473 1119.64 Q115.668 1123.18 115.668 1130.31 Q115.668 1137.41 117.473 1140.98 Q119.302 1144.52 122.913 1144.52 Q126.547 1144.52 128.353 1140.98 Q130.182 1137.41 130.182 1130.31 Q130.182 1123.18 128.353 1119.64 Q126.547 1116.07 122.913 1116.07 M122.913 1112.37 Q128.723 1112.37 131.779 1116.98 Q134.857 1121.56 134.857 1130.31 Q134.857 1139.04 131.779 1143.64 Q128.723 1148.23 122.913 1148.23 Q117.103 1148.23 114.024 1143.64 Q110.969 1139.04 110.969 1130.31 Q110.969 1121.56 114.024 1116.98 Q117.103 1112.37 122.913 1112.37 Z" fill="#000000" fill-rule="evenodd" fill-opacity="1" /><path clip-path="url(#clip450)" d="M 0 0 M56.6171 870.444 L72.9365 870.444 L72.9365 874.379 L50.9921 874.379 L50.9921 870.444 Q53.6541 867.689 58.2375 863.059 Q62.8439 858.407 64.0245 857.064 Q66.2698 854.541 67.1494 852.805 Q68.0522 851.046 68.0522 849.356 Q68.0522 846.601 66.1078 844.865 Q64.1865 843.129 61.0847 843.129 Q58.8856 843.129 56.4319 843.893 Q54.0014 844.657 51.2236 846.208 L51.2236 841.485 Q54.0477 840.351 56.5014 839.772 Q58.955 839.194 60.9921 839.194 Q66.3624 839.194 69.5568 841.879 Q72.7513 844.564 72.7513 849.055 Q72.7513 851.184 71.9411 853.106 Q71.1541 855.004 69.0476 857.596 Q68.4689 858.268 65.367 861.485 Q62.2652 864.68 56.6171 870.444 Z" fill="#000000" fill-rule="evenodd" fill-opacity="1" /><path clip-path="url(#clip450)" d="M 0 0 M92.7512 842.897 Q89.1401 842.897 87.3114 846.462 Q85.5058 850.004 85.5058 857.133 Q85.5058 864.24 87.3114 867.805 Q89.1401 871.346 92.7512 871.346 Q96.3854 871.346 98.1909 867.805 Q100.02 864.24 100.02 857.133 Q100.02 850.004 98.1909 846.462 Q96.3854 842.897 92.7512 842.897 M92.7512 839.194 Q98.5613 839.194 101.617 843.8 Q104.696 848.383 104.696 857.133 Q104.696 865.86 101.617 870.467 Q98.5613 875.05 92.7512 875.05 Q86.941 875.05 83.8623 870.467 Q80.8068 865.86 80.8068 857.133 Q80.8068 848.383 83.8623 843.8 Q86.941 839.194 92.7512 839.194 Z" fill="#000000" fill-rule="evenodd" fill-opacity="1" /><path clip-path="url(#clip450)" d="M 0 0 M122.913 842.897 Q119.302 842.897 117.473 846.462 Q115.668 850.004 115.668 857.133 Q115.668 864.24 117.473 867.805 Q119.302 871.346 122.913 871.346 Q126.547 871.346 128.353 867.805 Q130.182 864.24 130.182 857.133 Q130.182 850.004 128.353 846.462 Q126.547 842.897 122.913 842.897 M122.913 839.194 Q128.723 839.194 131.779 843.8 Q134.857 848.383 134.857 857.133 Q134.857 865.86 131.779 870.467 Q128.723 875.05 122.913 875.05 Q117.103 875.05 114.024 870.467 Q110.969 865.86 110.969 857.133 Q110.969 848.383 114.024 843.8 Q117.103 839.194 122.913 839.194 Z" fill="#000000" fill-rule="evenodd" fill-opacity="1" /><path clip-path="url(#clip450)" d="M 0 0 M56.6171 597.269 L72.9365 597.269 L72.9365 601.204 L50.9921 601.204 L50.9921 597.269 Q53.6541 594.514 58.2375 589.884 Q62.8439 585.232 64.0245 583.889 Q66.2698 581.366 67.1494 579.63 Q68.0522 577.871 68.0522 576.181 Q68.0522 573.426 66.1078 571.69 Q64.1865 569.954 61.0847 569.954 Q58.8856 569.954 56.4319 570.718 Q54.0014 571.482 51.2236 573.033 L51.2236 568.31 Q54.0477 567.176 56.5014 566.597 Q58.955 566.019 60.9921 566.019 Q66.3624 566.019 69.5568 568.704 Q72.7513 571.389 72.7513 575.88 Q72.7513 578.009 71.9411 579.931 Q71.1541 581.829 69.0476 584.421 Q68.4689 585.093 65.367 588.31 Q62.2652 591.505 56.6171 597.269 Z" fill="#000000" fill-rule="evenodd" fill-opacity="1" /><path clip-path="url(#clip450)" d="M 0 0 M82.7975 566.644 L101.154 566.644 L101.154 570.579 L87.0799 570.579 L87.0799 579.051 Q88.0984 578.704 89.1169 578.542 Q90.1354 578.357 91.1539 578.357 Q96.941 578.357 100.321 581.528 Q103.7 584.699 103.7 590.116 Q103.7 595.694 100.228 598.796 Q96.7558 601.875 90.4364 601.875 Q88.2604 601.875 85.9919 601.505 Q83.7466 601.134 81.3392 600.394 L81.3392 595.694 Q83.4225 596.829 85.6447 597.384 Q87.8669 597.94 90.3438 597.94 Q94.3484 597.94 96.6863 595.833 Q99.0243 593.727 99.0243 590.116 Q99.0243 586.505 96.6863 584.398 Q94.3484 582.292 90.3438 582.292 Q88.4688 582.292 86.5938 582.708 Q84.7419 583.125 82.7975 584.005 L82.7975 566.644 Z" fill="#000000" fill-rule="evenodd" fill-opacity="1" /><path clip-path="url(#clip450)" d="M 0 0 M122.913 569.722 Q119.302 569.722 117.473 573.287 Q115.668 576.829 115.668 583.958 Q115.668 591.065 117.473 594.63 Q119.302 598.171 122.913 598.171 Q126.547 598.171 128.353 594.63 Q130.182 591.065 130.182 583.958 Q130.182 576.829 128.353 573.287 Q126.547 569.722 122.913 569.722 M122.913 566.019 Q128.723 566.019 131.779 570.625 Q134.857 575.208 134.857 583.958 Q134.857 592.685 131.779 597.292 Q128.723 601.875 122.913 601.875 Q117.103 601.875 114.024 597.292 Q110.969 592.685 110.969 583.958 Q110.969 575.208 114.024 570.625 Q117.103 566.019 122.913 566.019 Z" fill="#000000" fill-rule="evenodd" fill-opacity="1" /><path clip-path="url(#clip450)" d="M 0 0 M66.7559 309.395 Q70.1124 310.112 71.9874 312.381 Q73.8855 314.649 73.8855 317.982 Q73.8855 323.098 70.367 325.899 Q66.8485 328.7 60.3671 328.7 Q58.1912 328.7 55.8764 328.26 Q53.5847 327.844 51.131 326.987 L51.131 322.473 Q53.0754 323.607 55.3903 324.186 Q57.7051 324.765 60.2282 324.765 Q64.6263 324.765 66.918 323.029 Q69.2328 321.293 69.2328 317.982 Q69.2328 314.927 67.08 313.214 Q64.9504 311.478 61.131 311.478 L57.1032 311.478 L57.1032 307.635 L61.3161 307.635 Q64.7652 307.635 66.5939 306.27 Q68.4226 304.881 68.4226 302.288 Q68.4226 299.626 66.5245 298.214 Q64.6495 296.779 61.131 296.779 Q59.2097 296.779 57.0106 297.196 Q54.8115 297.612 52.1727 298.492 L52.1727 294.325 Q54.8347 293.584 57.1495 293.214 Q59.4875 292.844 61.5476 292.844 Q66.8717 292.844 69.9735 295.274 Q73.0753 297.682 73.0753 301.802 Q73.0753 304.672 71.4318 306.663 Q69.7883 308.631 66.7559 309.395 Z" fill="#000000" fill-rule="evenodd" fill-opacity="1" /><path clip-path="url(#clip450)" d="M 0 0 M92.7512 296.547 Q89.1401 296.547 87.3114 300.112 Q85.5058 303.654 85.5058 310.783 Q85.5058 317.89 87.3114 321.455 Q89.1401 324.996 92.7512 324.996 Q96.3854 324.996 98.1909 321.455 Q100.02 317.89 100.02 310.783 Q100.02 303.654 98.1909 300.112 Q96.3854 296.547 92.7512 296.547 M92.7512 292.844 Q98.5613 292.844 101.617 297.45 Q104.696 302.033 104.696 310.783 Q104.696 319.51 101.617 324.117 Q98.5613 328.7 92.7512 328.7 Q86.941 328.7 83.8623 324.117 Q80.8068 319.51 80.8068 310.783 Q80.8068 302.033 83.8623 297.45 Q86.941 292.844 92.7512 292.844 Z" fill="#000000" fill-rule="evenodd" fill-opacity="1" /><path clip-path="url(#clip450)" d="M 0 0 M122.913 296.547 Q119.302 296.547 117.473 300.112 Q115.668 303.654 115.668 310.783 Q115.668 317.89 117.473 321.455 Q119.302 324.996 122.913 324.996 Q126.547 324.996 128.353 321.455 Q130.182 317.89 130.182 310.783 Q130.182 303.654 128.353 300.112 Q126.547 296.547 122.913 296.547 M122.913 292.844 Q128.723 292.844 131.779 297.45 Q134.857 302.033 134.857 310.783 Q134.857 319.51 131.779 324.117 Q128.723 328.7 122.913 328.7 Q117.103 328.7 114.024 324.117 Q110.969 319.51 110.969 310.783 Q110.969 302.033 114.024 297.45 Q117.103 292.844 122.913 292.844 Z" fill="#000000" fill-rule="evenodd" fill-opacity="1" /><circle clip-path="url(#clip452)" cx="232.609" cy="1403.45" r="14" fill="#009af9" fill-rule="evenodd" fill-opacity="1" stroke="#000000" stroke-opacity="1" stroke-width="3.2"/>
<circle clip-path="url(#clip452)" cx="700.426" cy="1403.45" r="14" fill="#009af9" fill-rule="evenodd" fill-opacity="1" stroke="#000000" stroke-opacity="1" stroke-width="3.2"/>
<circle clip-path="url(#clip452)" cx="1168.24" cy="1130.27" r="14" fill="#009af9" fill-rule="evenodd" fill-opacity="1" stroke="#000000" stroke-opacity="1" stroke-width="3.2"/>
<circle clip-path="url(#clip452)" cx="1261.81" cy="1130.27" r="14" fill="#009af9" fill-rule="evenodd" fill-opacity="1" stroke="#000000" stroke-opacity="1" stroke-width="3.2"/>
<circle clip-path="url(#clip452)" cx="1355.37" cy="1130.27" r="14" fill="#009af9" fill-rule="evenodd" fill-opacity="1" stroke="#000000" stroke-opacity="1" stroke-width="3.2"/>
<circle clip-path="url(#clip452)" cx="1448.93" cy="1130.27" r="14" fill="#009af9" fill-rule="evenodd" fill-opacity="1" stroke="#000000" stroke-opacity="1" stroke-width="3.2"/>
<circle clip-path="url(#clip452)" cx="1542.5" cy="1130.27" r="14" fill="#009af9" fill-rule="evenodd" fill-opacity="1" stroke="#000000" stroke-opacity="1" stroke-width="3.2"/>
<circle clip-path="url(#clip452)" cx="1636.06" cy="1130.27" r="14" fill="#009af9" fill-rule="evenodd" fill-opacity="1" stroke="#000000" stroke-opacity="1" stroke-width="3.2"/>
<circle clip-path="url(#clip452)" cx="1729.62" cy="1130.27" r="14" fill="#009af9" fill-rule="evenodd" fill-opacity="1" stroke="#000000" stroke-opacity="1" stroke-width="3.2"/>
<circle clip-path="url(#clip452)" cx="1823.19" cy="1130.27" r="14" fill="#009af9" fill-rule="evenodd" fill-opacity="1" stroke="#000000" stroke-opacity="1" stroke-width="3.2"/>
<circle clip-path="url(#clip452)" cx="1916.75" cy="1130.27" r="14" fill="#009af9" fill-rule="evenodd" fill-opacity="1" stroke="#000000" stroke-opacity="1" stroke-width="3.2"/>
<circle clip-path="url(#clip452)" cx="2010.31" cy="1130.27" r="14" fill="#009af9" fill-rule="evenodd" fill-opacity="1" stroke="#000000" stroke-opacity="1" stroke-width="3.2"/>
<circle clip-path="url(#clip452)" cx="2103.88" cy="1130.27" r="14" fill="#009af9" fill-rule="evenodd" fill-opacity="1" stroke="#000000" stroke-opacity="1" stroke-width="3.2"/>
<circle clip-path="url(#clip452)" cx="2197.44" cy="1130.27" r="14" fill="#009af9" fill-rule="evenodd" fill-opacity="1" stroke="#000000" stroke-opacity="1" stroke-width="3.2"/>
<circle clip-path="url(#clip452)" cx="2291" cy="1130.27" r="14" fill="#009af9" fill-rule="evenodd" fill-opacity="1" stroke="#000000" stroke-opacity="1" stroke-width="3.2"/>
<circle clip-path="url(#clip452)" cx="232.609" cy="857.099" r="14" fill="#e26f46" fill-rule="evenodd" fill-opacity="1" stroke="#000000" stroke-opacity="1" stroke-width="3.2"/>
<circle clip-path="url(#clip452)" cx="700.426" cy="857.099" r="14" fill="#e26f46" fill-rule="evenodd" fill-opacity="1" stroke="#000000" stroke-opacity="1" stroke-width="3.2"/>
<circle clip-path="url(#clip452)" cx="1168.24" cy="856.552" r="14" fill="#e26f46" fill-rule="evenodd" fill-opacity="1" stroke="#000000" stroke-opacity="1" stroke-width="3.2"/>
<circle clip-path="url(#clip452)" cx="1261.81" cy="851.089" r="14" fill="#e26f46" fill-rule="evenodd" fill-opacity="1" stroke="#000000" stroke-opacity="1" stroke-width="3.2"/>
<circle clip-path="url(#clip452)" cx="1355.37" cy="835.245" r="14" fill="#e26f46" fill-rule="evenodd" fill-opacity="1" stroke="#000000" stroke-opacity="1" stroke-width="3.2"/>
<circle clip-path="url(#clip452)" cx="1448.93" cy="709.584" r="14" fill="#e26f46" fill-rule="evenodd" fill-opacity="1" stroke="#000000" stroke-opacity="1" stroke-width="3.2"/>
<circle clip-path="url(#clip452)" cx="1542.5" cy="578.46" r="14" fill="#e26f46" fill-rule="evenodd" fill-opacity="1" stroke="#000000" stroke-opacity="1" stroke-width="3.2"/>
<circle clip-path="url(#clip452)" cx="1636.06" cy="420.019" r="14" fill="#e26f46" fill-rule="evenodd" fill-opacity="1" stroke="#000000" stroke-opacity="1" stroke-width="3.2"/>
<circle clip-path="url(#clip452)" cx="1729.62" cy="297.09" r="14" fill="#e26f46" fill-rule="evenodd" fill-opacity="1" stroke="#000000" stroke-opacity="1" stroke-width="3.2"/>
<circle clip-path="url(#clip452)" cx="1823.19" cy="212.406" r="14" fill="#e26f46" fill-rule="evenodd" fill-opacity="1" stroke="#000000" stroke-opacity="1" stroke-width="3.2"/>
<circle clip-path="url(#clip452)" cx="1916.75" cy="149.575" r="14" fill="#e26f46" fill-rule="evenodd" fill-opacity="1" stroke="#000000" stroke-opacity="1" stroke-width="3.2"/>
<circle clip-path="url(#clip452)" cx="2010.31" cy="114.063" r="14" fill="#e26f46" fill-rule="evenodd" fill-opacity="1" stroke="#000000" stroke-opacity="1" stroke-width="3.2"/>
<circle clip-path="url(#clip452)" cx="2103.88" cy="97.6722" r="14" fill="#e26f46" fill-rule="evenodd" fill-opacity="1" stroke="#000000" stroke-opacity="1" stroke-width="3.2"/>
<circle clip-path="url(#clip452)" cx="2197.44" cy="89.477" r="14" fill="#e26f46" fill-rule="evenodd" fill-opacity="1" stroke="#000000" stroke-opacity="1" stroke-width="3.2"/>
<circle clip-path="url(#clip452)" cx="2291" cy="86.7452" r="14" fill="#e26f46" fill-rule="evenodd" fill-opacity="1" stroke="#000000" stroke-opacity="1" stroke-width="3.2"/>
<path clip-path="url(#clip450)" d="
M243.587 275.208 L599.372 275.208 L599.372 93.7676 L243.587 93.7676  Z
  " fill="#ffffff" fill-rule="evenodd" fill-opacity="1"/>
<polyline clip-path="url(#clip450)" style="stroke:#000000; stroke-width:4; stroke-opacity:1; fill:none" points="
  243.587,275.208 599.372,275.208 599.372,93.7676 243.587,93.7676 243.587,275.208 
  "/>
<circle clip-path="url(#clip450)" cx="340.561" cy="154.248" r="23" fill="#009af9" fill-rule="evenodd" fill-opacity="1" stroke="#000000" stroke-opacity="1" stroke-width="5.12"/>
<path clip-path="url(#clip450)" d="M 0 0 M456.014 160.572 Q456.202 160.782 456.202 160.993 Q456.202 161.204 455.733 161.813 Q455.288 162.422 454.328 163.242 Q453.367 164.061 452.126 164.834 Q450.885 165.607 449.058 166.123 Q447.231 166.661 445.31 166.661 Q441.727 166.661 439.618 164.296 Q437.534 161.93 437.534 158.534 Q437.534 155.231 439.384 152.069 Q441.235 148.884 444.233 146.916 Q447.231 144.925 450.393 144.925 Q452.899 144.925 454.468 146.096 Q456.038 147.268 456.038 149.048 Q456.038 150.43 455.241 151.273 Q454.445 152.116 453.367 152.116 Q452.618 152.116 452.103 151.694 Q451.587 151.249 451.587 150.43 Q451.587 149.376 452.454 148.556 Q452.782 148.228 453.157 148.087 Q453.555 147.923 453.789 147.923 Q454.023 147.9 454.562 147.9 Q454.07 146.986 452.899 146.495 Q451.751 145.979 450.44 145.979 Q448.496 145.979 446.645 147.338 Q444.795 148.673 443.671 150.781 Q442.546 152.842 441.82 155.77 Q441.094 158.674 441.094 160.361 Q441.094 162.68 442.172 164.132 Q443.249 165.584 445.404 165.584 Q445.825 165.584 446.27 165.56 Q446.739 165.537 447.91 165.279 Q449.105 165.022 450.159 164.577 Q451.213 164.132 452.548 163.171 Q453.906 162.188 454.984 160.853 Q455.358 160.361 455.616 160.361 Q455.827 160.361 456.014 160.572 Z" fill="#000000" fill-rule="evenodd" fill-opacity="1" /><path clip-path="url(#clip450)" d="M 0 0 M458.083 154.13 Q458.083 146.026 461.105 139.491 Q462.393 136.751 464.196 134.455 Q466 132.16 467.195 131.153 Q468.389 130.146 468.717 130.146 Q469.185 130.146 469.209 130.614 Q469.209 130.848 468.576 131.434 Q460.847 139.304 460.87 154.13 Q460.87 169.004 468.389 176.569 Q469.209 177.389 469.209 177.646 Q469.209 178.115 468.717 178.115 Q468.389 178.115 467.241 177.155 Q466.094 176.194 464.314 173.993 Q462.533 171.791 461.245 169.097 Q458.083 162.562 458.083 154.13 Z" fill="#000000" fill-rule="evenodd" fill-opacity="1" /><path clip-path="url(#clip450)" d="M 0 0 M491.231 145.979 Q491.231 146.635 490.927 146.799 Q490.622 146.94 489.779 146.94 L485.282 146.94 L481.722 161.087 Q481.441 162.328 481.441 163.382 Q481.441 164.553 481.792 165.069 Q482.167 165.584 482.94 165.584 Q484.462 165.584 486.102 164.202 Q487.765 162.82 489.17 159.447 Q489.358 159.002 489.451 158.909 Q489.568 158.791 489.873 158.791 Q490.459 158.791 490.459 159.26 Q490.459 159.424 490.131 160.173 Q489.826 160.923 489.147 162.024 Q488.491 163.125 487.624 164.155 Q486.781 165.186 485.493 165.935 Q484.205 166.661 482.823 166.661 Q480.879 166.661 479.637 165.42 Q478.419 164.179 478.419 162.234 Q478.419 161.602 478.911 159.588 Q479.403 157.55 482.073 146.94 L477.834 146.94 Q477.248 146.94 477.014 146.916 Q476.803 146.893 476.639 146.776 Q476.499 146.635 476.499 146.354 Q476.499 145.909 476.686 145.722 Q476.874 145.511 477.108 145.487 Q477.365 145.441 477.951 145.441 L482.448 145.441 L484.322 137.828 Q484.509 137.079 484.978 136.657 Q485.47 136.212 485.751 136.165 Q486.032 136.095 486.242 136.095 Q486.875 136.095 487.25 136.446 Q487.624 136.774 487.624 137.383 Q487.624 137.711 485.657 145.441 L489.873 145.441 Q490.412 145.441 490.622 145.464 Q490.857 145.487 491.044 145.605 Q491.231 145.722 491.231 145.979 Z" fill="#000000" fill-rule="evenodd" fill-opacity="1" /><path clip-path="url(#clip450)" d="M 0 0 M493.639 177.646 Q493.639 177.412 494.248 176.827 Q501.977 168.957 501.977 154.13 Q501.977 139.257 494.552 131.738 Q493.639 130.872 493.639 130.614 Q493.639 130.146 494.107 130.146 Q494.435 130.146 495.583 131.106 Q496.754 132.066 498.511 134.268 Q500.291 136.47 501.602 139.163 Q504.764 145.698 504.764 154.13 Q504.764 162.234 501.743 168.769 Q500.455 171.51 498.651 173.805 Q496.848 176.101 495.653 177.108 Q494.458 178.115 494.107 178.115 Q493.639 178.115 493.639 177.646 Z" fill="#000000" fill-rule="evenodd" fill-opacity="1" /><circle clip-path="url(#clip450)" cx="340.561" cy="214.728" r="23" fill="#e26f46" fill-rule="evenodd" fill-opacity="1" stroke="#000000" stroke-opacity="1" stroke-width="5.12"/>
<path clip-path="url(#clip450)" d="M 0 0 M459.668 203.71 Q459.668 204.038 459.457 204.811 L454.867 223.127 Q453.859 227.203 450.58 230.06 Q447.324 232.918 443.624 232.918 Q441.399 232.918 439.97 231.723 Q438.541 230.552 438.541 228.749 Q438.541 227.156 439.384 226.383 Q440.227 225.633 441.235 225.633 Q441.563 225.633 441.914 225.727 Q442.265 225.821 442.64 226.219 Q443.015 226.617 443.015 227.296 Q443.015 228.397 442.054 229.264 Q441.586 229.662 441.141 229.756 Q440.719 229.849 439.993 229.849 Q440.274 230.505 440.79 230.95 Q441.305 231.395 441.89 231.559 Q442.476 231.747 442.851 231.793 Q443.249 231.864 443.624 231.864 Q446.622 231.864 448.917 228.842 Q449.596 227.929 450.088 227.015 Q450.604 226.125 450.978 225.024 Q451.353 223.947 451.517 223.361 Q451.704 222.776 452.032 221.441 Q449.854 223.619 447.184 223.619 Q446.06 223.619 445.053 223.315 Q444.069 223.01 443.202 222.378 Q442.336 221.722 441.82 220.574 Q441.328 219.426 441.328 217.904 Q441.328 216.288 441.961 214.086 Q442.593 211.884 444.116 207.832 Q444.935 205.56 444.935 204.459 Q444.935 203.921 444.818 203.593 Q444.701 203.241 444.467 203.124 Q444.233 202.984 444.092 202.96 Q443.975 202.937 443.741 202.937 Q442.359 202.937 441.071 204.342 Q439.782 205.748 438.892 208.886 Q438.705 209.472 438.588 209.612 Q438.471 209.753 438.119 209.753 Q437.534 209.729 437.534 209.261 Q437.534 209.074 437.745 208.348 Q437.956 207.598 438.447 206.497 Q438.963 205.373 439.665 204.366 Q440.368 203.335 441.469 202.609 Q442.593 201.883 443.881 201.883 Q445.638 201.883 446.715 203.031 Q447.816 204.155 447.816 205.818 Q447.816 206.497 447.629 207.106 Q447.465 207.692 446.856 209.261 Q444.397 215.585 444.397 218.677 Q444.397 219.426 444.514 220.059 Q444.654 220.668 444.959 221.277 Q445.263 221.862 445.872 222.214 Q446.505 222.542 447.371 222.542 Q448.472 222.542 449.503 222.026 Q450.557 221.488 451.213 220.761 Q451.892 220.035 452.29 219.426 Q452.712 218.794 452.805 218.466 L454.96 209.847 L455.921 206.005 Q456.366 203.921 456.576 203.405 Q456.857 202.914 457.349 202.656 Q457.841 202.398 458.263 202.398 Q458.848 202.398 459.247 202.75 Q459.668 203.101 459.668 203.71 Z" fill="#000000" fill-rule="evenodd" fill-opacity="1" /><path clip-path="url(#clip450)" d="M 0 0 M492.072 236.824 Q492.072 236.955 491.925 237.464 Q491.777 237.972 491.416 238.759 Q491.072 239.546 490.58 240.267 Q490.105 240.972 489.318 241.497 Q488.547 242.005 487.662 242.005 Q486.481 242.005 485.694 241.218 Q484.907 240.431 484.907 239.251 Q484.907 238.611 485.35 237.398 Q487.432 231.856 487.432 229.872 Q487.432 227.528 485.612 227.528 Q484.579 227.528 483.645 227.954 Q482.71 228.38 482.104 228.971 Q481.497 229.561 481.021 230.233 Q480.546 230.905 480.333 231.348 Q480.136 231.791 480.087 231.987 L478.07 240.087 Q477.906 240.776 477.791 241.103 Q477.677 241.431 477.365 241.71 Q477.054 242.005 476.562 242.005 Q476.152 242.005 475.857 241.759 Q475.578 241.513 475.578 241.087 Q475.578 241.021 475.66 240.677 Q475.742 240.333 475.857 239.857 Q475.972 239.382 476.021 239.103 Q476.611 236.873 476.693 236.562 L477.628 232.66 Q478.136 230.725 478.136 229.872 Q478.136 227.528 476.316 227.528 Q475.414 227.528 474.562 227.872 Q473.725 228.2 473.152 228.659 Q472.578 229.118 472.053 229.758 Q471.545 230.381 471.282 230.807 Q471.036 231.217 470.84 231.627 L470.413 233.299 Q470.315 233.758 469.84 235.545 L469.102 238.578 Q468.577 240.841 468.462 241.054 Q468.298 241.513 467.938 241.759 Q467.577 242.005 467.216 242.005 Q466.806 242.005 466.528 241.759 Q466.249 241.513 466.249 241.087 Q466.249 241.021 466.298 240.776 Q466.347 240.53 466.429 240.185 Q466.511 239.841 466.544 239.644 L468.495 231.889 Q468.856 230.479 468.938 230.036 Q469.036 229.577 469.036 229.069 Q469.036 227.528 467.987 227.528 Q467.134 227.528 466.577 228.544 Q466.019 229.561 465.544 231.528 Q465.396 232.069 465.298 232.184 Q465.216 232.299 464.97 232.299 Q464.56 232.283 464.56 231.955 Q464.56 231.873 464.691 231.348 Q464.822 230.823 465.068 230.036 Q465.331 229.233 465.609 228.708 Q465.773 228.364 465.921 228.134 Q466.069 227.905 466.364 227.544 Q466.659 227.183 467.101 226.987 Q467.544 226.79 468.085 226.79 Q469.282 226.79 470.167 227.561 Q471.069 228.331 471.184 229.708 Q473.365 226.79 476.414 226.79 Q478.136 226.79 479.169 227.659 Q480.136 228.495 480.251 230.036 Q482.513 226.79 485.727 226.79 Q487.58 226.79 488.58 227.757 Q489.58 228.708 489.58 230.381 Q489.58 231.25 489.137 232.906 Q488.695 234.545 488.4 235.365 Q488.104 236.185 487.531 237.759 Q486.924 239.267 486.924 240.152 Q486.924 240.726 487.121 240.989 Q487.317 241.251 487.744 241.251 Q488.4 241.251 488.973 240.874 Q489.547 240.48 489.957 239.841 Q490.383 239.185 490.662 238.529 Q490.941 237.857 491.154 237.103 Q491.285 236.693 491.351 236.595 Q491.433 236.496 491.662 236.496 Q492.072 236.496 492.072 236.824 Z" fill="#000000" fill-rule="evenodd" fill-opacity="1" /><path clip-path="url(#clip450)" d="M 0 0 M496.915 211.088 Q496.915 202.984 499.936 196.449 Q501.224 193.709 503.028 191.413 Q504.831 189.118 506.026 188.111 Q507.22 187.103 507.548 187.103 Q508.017 187.103 508.04 187.572 Q508.04 187.806 507.408 188.392 Q499.678 196.262 499.702 211.088 Q499.702 225.961 507.22 233.527 Q508.04 234.346 508.04 234.604 Q508.04 235.073 507.548 235.073 Q507.22 235.073 506.073 234.112 Q504.925 233.152 503.145 230.95 Q501.365 228.749 500.077 226.055 Q496.915 219.52 496.915 211.088 Z" fill="#000000" fill-rule="evenodd" fill-opacity="1" /><path clip-path="url(#clip450)" d="M 0 0 M530.063 202.937 Q530.063 203.593 529.758 203.757 Q529.454 203.897 528.611 203.897 L524.113 203.897 L520.553 218.044 Q520.272 219.286 520.272 220.34 Q520.272 221.511 520.624 222.026 Q520.998 222.542 521.771 222.542 Q523.294 222.542 524.933 221.16 Q526.596 219.778 528.002 216.405 Q528.189 215.96 528.283 215.866 Q528.4 215.749 528.704 215.749 Q529.29 215.749 529.29 216.217 Q529.29 216.381 528.962 217.131 Q528.657 217.88 527.978 218.981 Q527.322 220.082 526.456 221.113 Q525.613 222.143 524.324 222.893 Q523.036 223.619 521.654 223.619 Q519.71 223.619 518.469 222.378 Q517.251 221.136 517.251 219.192 Q517.251 218.56 517.743 216.545 Q518.234 214.508 520.905 203.897 L516.665 203.897 Q516.08 203.897 515.845 203.874 Q515.635 203.85 515.471 203.733 Q515.33 203.593 515.33 203.312 Q515.33 202.867 515.517 202.679 Q515.705 202.469 515.939 202.445 Q516.197 202.398 516.782 202.398 L521.279 202.398 L523.153 194.786 Q523.341 194.036 523.809 193.615 Q524.301 193.17 524.582 193.123 Q524.863 193.053 525.074 193.053 Q525.706 193.053 526.081 193.404 Q526.456 193.732 526.456 194.341 Q526.456 194.669 524.488 202.398 L528.704 202.398 Q529.243 202.398 529.454 202.422 Q529.688 202.445 529.875 202.562 Q530.063 202.679 530.063 202.937 Z" fill="#000000" fill-rule="evenodd" fill-opacity="1" /><path clip-path="url(#clip450)" d="M 0 0 M532.47 234.604 Q532.47 234.37 533.079 233.784 Q540.808 225.914 540.808 211.088 Q540.808 196.215 533.383 188.696 Q532.47 187.829 532.47 187.572 Q532.47 187.103 532.938 187.103 Q533.266 187.103 534.414 188.064 Q535.585 189.024 537.342 191.226 Q539.122 193.427 540.434 196.121 Q543.596 202.656 543.596 211.088 Q543.596 219.192 540.574 225.727 Q539.286 228.467 537.482 230.763 Q535.679 233.058 534.484 234.065 Q533.29 235.073 532.938 235.073 Q532.47 235.073 532.47 234.604 Z" fill="#000000" fill-rule="evenodd" fill-opacity="1" /></svg>
