<?xml version="1.0" encoding="utf-8"?>
<svg xmlns="http://www.w3.org/2000/svg" xmlns:xlink="http://www.w3.org/1999/xlink" width="525" height="350" viewBox="0 0 2100 1400">
<defs>
  <clipPath id="clip060">
    <rect x="0" y="0" width="2100" height="1400"/>
  </clipPath>
</defs>
<path clip-path="url(#clip060)" d="
M0 1400 L2100 1400 L2100 0 L0 0  Z
  " fill="#ffffff" fill-rule="evenodd" fill-opacity="1"/>
<defs>
  <clipPath id="clip061">
    <rect x="420" y="0" width="1471" height="1400"/>
  </clipPath>
</defs>
<path clip-path="url(#clip060)" d="
M177.152 1245.28 L2058.66 1245.28 L2058.66 41.3386 L177.152 41.3386  Z
  " fill="#ffffff" fill-rule="evenodd" fill-opacity="1"/>
<defs>
  <clipPath id="clip062">
    <rect x="177" y="41" width="1883" height="1205"/>
  </clipPath>
</defs>
<polyline clip-path="url(#clip062)" style="stroke:#000000; stroke-width:1.75; stroke-opacity:0.1; fill:none" points="
  230.402,1245.28 230.402,41.3386 
  "/>
<polyline clip-path="url(#clip062)" style="stroke:#000000; stroke-width:1.75; stroke-opacity:0.1; fill:none" points="
  822.072,1245.28 822.072,41.3386 
  "/>
<polyline clip-path="url(#clip062)" style="stroke:#000000; stroke-width:1.75; stroke-opacity:0.1; fill:none" points="
  1413.74,1245.28 1413.74,41.3386 
  "/>
<polyline clip-path="url(#clip062)" style="stroke:#000000; stroke-width:1.75; stroke-opacity:0.1; fill:none" points="
  2005.41,1245.28 2005.41,41.3386 
  "/>
<polyline clip-path="url(#clip060)" style="stroke:#000000; stroke-width:3.5; stroke-opacity:1; fill:none" points="
  177.152,1245.28 2058.66,1245.28 
  "/>
<polyline clip-path="url(#clip060)" style="stroke:#000000; stroke-width:3.5; stroke-opacity:1; fill:none" points="
  230.402,1245.28 230.402,1230.84 
  "/>
<polyline clip-path="url(#clip060)" style="stroke:#000000; stroke-width:3.5; stroke-opacity:1; fill:none" points="
  822.072,1245.28 822.072,1230.84 
  "/>
<polyline clip-path="url(#clip060)" style="stroke:#000000; stroke-width:3.5; stroke-opacity:1; fill:none" points="
  1413.74,1245.28 1413.74,1230.84 
  "/>
<polyline clip-path="url(#clip060)" style="stroke:#000000; stroke-width:3.5; stroke-opacity:1; fill:none" points="
  2005.41,1245.28 2005.41,1230.84 
  "/>
<path clip-path="url(#clip060)" d="M 0 0 M230.402 1270.82 Q227.242 1270.82 225.642 1273.94 Q224.062 1277.04 224.062 1283.28 Q224.062 1289.5 225.642 1292.62 Q227.242 1295.72 230.402 1295.72 Q233.582 1295.72 235.162 1292.62 Q236.762 1289.5 236.762 1283.28 Q236.762 1277.04 235.162 1273.94 Q233.582 1270.82 230.402 1270.82 M230.402 1267.58 Q235.486 1267.58 238.159 1271.61 Q240.853 1275.62 240.853 1283.28 Q240.853 1290.92 238.159 1294.95 Q235.486 1298.96 230.402 1298.96 Q225.318 1298.96 222.624 1294.95 Q219.951 1290.92 219.951 1283.28 Q219.951 1275.62 222.624 1271.61 Q225.318 1267.58 230.402 1267.58 Z" fill="#000000" fill-rule="evenodd" fill-opacity="1" /><path clip-path="url(#clip060)" d="M 0 0 M801.837 1294.93 L808.521 1294.93 L808.521 1271.86 L801.25 1273.32 L801.25 1269.59 L808.481 1268.13 L812.572 1268.13 L812.572 1294.93 L819.256 1294.93 L819.256 1298.37 L801.837 1298.37 L801.837 1294.93 Z" fill="#000000" fill-rule="evenodd" fill-opacity="1" /><path clip-path="url(#clip060)" d="M 0 0 M832.442 1270.82 Q829.282 1270.82 827.682 1273.94 Q826.102 1277.04 826.102 1283.28 Q826.102 1289.5 827.682 1292.62 Q829.282 1295.72 832.442 1295.72 Q835.622 1295.72 837.202 1292.62 Q838.802 1289.5 838.802 1283.28 Q838.802 1277.04 837.202 1273.94 Q835.622 1270.82 832.442 1270.82 M832.442 1267.58 Q837.526 1267.58 840.199 1271.61 Q842.893 1275.62 842.893 1283.28 Q842.893 1290.92 840.199 1294.95 Q837.526 1298.96 832.442 1298.96 Q827.358 1298.96 824.664 1294.95 Q821.991 1290.92 821.991 1283.28 Q821.991 1275.62 824.664 1271.61 Q827.358 1267.58 832.442 1267.58 Z" fill="#000000" fill-rule="evenodd" fill-opacity="1" /><path clip-path="url(#clip060)" d="M 0 0 M1397.24 1294.93 L1411.52 1294.93 L1411.52 1298.37 L1392.32 1298.37 L1392.32 1294.93 Q1394.65 1292.52 1398.66 1288.47 Q1402.69 1284.39 1403.73 1283.22 Q1405.69 1281.01 1406.46 1279.49 Q1407.25 1277.95 1407.25 1276.48 Q1407.25 1274.06 1405.55 1272.55 Q1403.87 1271.03 1401.15 1271.03 Q1399.23 1271.03 1397.08 1271.7 Q1394.96 1272.36 1392.52 1273.72 L1392.52 1269.59 Q1395 1268.6 1397.14 1268.09 Q1399.29 1267.58 1401.07 1267.58 Q1405.77 1267.58 1408.57 1269.93 Q1411.36 1272.28 1411.36 1276.21 Q1411.36 1278.08 1410.65 1279.76 Q1409.96 1281.42 1408.12 1283.69 Q1407.61 1284.27 1404.9 1287.09 Q1402.19 1289.88 1397.24 1294.93 Z" fill="#000000" fill-rule="evenodd" fill-opacity="1" /><path clip-path="url(#clip060)" d="M 0 0 M1424.71 1270.82 Q1421.55 1270.82 1419.95 1273.94 Q1418.37 1277.04 1418.37 1283.28 Q1418.37 1289.5 1419.95 1292.62 Q1421.55 1295.72 1424.71 1295.72 Q1427.89 1295.72 1429.47 1292.62 Q1431.07 1289.5 1431.07 1283.28 Q1431.07 1277.04 1429.47 1273.94 Q1427.89 1270.82 1424.71 1270.82 M1424.71 1267.58 Q1429.79 1267.58 1432.47 1271.61 Q1435.16 1275.62 1435.16 1283.28 Q1435.16 1290.92 1432.47 1294.95 Q1429.79 1298.96 1424.71 1298.96 Q1419.63 1298.96 1416.93 1294.95 Q1414.26 1290.92 1414.26 1283.28 Q1414.26 1275.62 1416.93 1271.61 Q1419.63 1267.58 1424.71 1267.58 Z" fill="#000000" fill-rule="evenodd" fill-opacity="1" /><path clip-path="url(#clip060)" d="M 0 0 M1997.31 1282.07 Q2000.25 1282.69 2001.89 1284.68 Q2003.55 1286.66 2003.55 1289.58 Q2003.55 1294.06 2000.47 1296.51 Q1997.39 1298.96 1991.72 1298.96 Q1989.82 1298.96 1987.79 1298.57 Q1985.78 1298.21 1983.64 1297.46 L1983.64 1293.51 Q1985.34 1294.5 1987.36 1295.01 Q1989.39 1295.51 1991.6 1295.51 Q1995.45 1295.51 1997.45 1294 Q1999.48 1292.48 1999.48 1289.58 Q1999.48 1286.91 1997.59 1285.41 Q1995.73 1283.89 1992.39 1283.89 L1988.86 1283.89 L1988.86 1280.53 L1992.55 1280.53 Q1995.57 1280.53 1997.17 1279.33 Q1998.77 1278.12 1998.77 1275.85 Q1998.77 1273.52 1997.11 1272.28 Q1995.47 1271.03 1992.39 1271.03 Q1990.71 1271.03 1988.78 1271.39 Q1986.86 1271.76 1984.55 1272.53 L1984.55 1268.88 Q1986.88 1268.23 1988.9 1267.91 Q1990.95 1267.58 1992.75 1267.58 Q1997.41 1267.58 2000.12 1269.71 Q2002.84 1271.82 2002.84 1275.42 Q2002.84 1277.93 2001.4 1279.68 Q1999.96 1281.4 1997.31 1282.07 Z" fill="#000000" fill-rule="evenodd" fill-opacity="1" /><path clip-path="url(#clip060)" d="M 0 0 M2016.73 1270.82 Q2013.57 1270.82 2011.97 1273.94 Q2010.39 1277.04 2010.39 1283.28 Q2010.39 1289.5 2011.97 1292.62 Q2013.57 1295.72 2016.73 1295.72 Q2019.91 1295.72 2021.49 1292.62 Q2023.09 1289.5 2023.09 1283.28 Q2023.09 1277.04 2021.49 1273.94 Q2019.91 1270.82 2016.73 1270.82 M2016.73 1267.58 Q2021.82 1267.58 2024.49 1271.61 Q2027.18 1275.62 2027.18 1283.28 Q2027.18 1290.92 2024.49 1294.95 Q2021.82 1298.96 2016.73 1298.96 Q2011.65 1298.96 2008.96 1294.95 Q2006.28 1290.92 2006.28 1283.28 Q2006.28 1275.62 2008.96 1271.61 Q2011.65 1267.58 2016.73 1267.58 Z" fill="#000000" fill-rule="evenodd" fill-opacity="1" /><path clip-path="url(#clip060)" d="M 0 0 M1044.24 1331.99 L1044.24 1340.85 L1054.8 1340.85 L1054.8 1344.83 L1044.24 1344.83 L1044.24 1361.76 Q1044.24 1365.58 1045.27 1366.66 Q1046.33 1367.75 1049.53 1367.75 L1054.8 1367.75 L1054.8 1372.04 L1049.53 1372.04 Q1043.6 1372.04 1041.35 1369.84 Q1039.09 1367.61 1039.09 1361.76 L1039.09 1344.83 L1035.33 1344.83 L1035.33 1340.85 L1039.09 1340.85 L1039.09 1331.99 L1044.24 1331.99 Z" fill="#000000" fill-rule="evenodd" fill-opacity="1" /><path clip-path="url(#clip060)" d="M 0 0 M1090.61 1328.76 Q1086.88 1335.17 1085.07 1341.43 Q1083.26 1347.7 1083.26 1354.13 Q1083.26 1360.56 1085.07 1366.89 Q1086.91 1373.18 1090.61 1379.56 L1086.16 1379.56 Q1081.98 1373.01 1079.89 1366.69 Q1077.83 1360.37 1077.83 1354.13 Q1077.83 1347.92 1079.89 1341.63 Q1081.95 1335.33 1086.16 1328.76 L1090.61 1328.76 Z" fill="#000000" fill-rule="evenodd" fill-opacity="1" /><path clip-path="url(#clip060)" d="M 0 0 M1120.27 1346.83 Q1122.2 1343.38 1124.87 1341.74 Q1127.54 1340.09 1131.16 1340.09 Q1136.04 1340.09 1138.68 1343.52 Q1141.33 1346.92 1141.33 1353.21 L1141.33 1372.04 L1136.18 1372.04 L1136.18 1353.38 Q1136.18 1348.9 1134.59 1346.72 Q1133 1344.55 1129.74 1344.55 Q1125.76 1344.55 1123.45 1347.2 Q1121.14 1349.84 1121.14 1354.41 L1121.14 1372.04 L1115.98 1372.04 L1115.98 1353.38 Q1115.98 1348.87 1114.4 1346.72 Q1112.81 1344.55 1109.5 1344.55 Q1105.57 1344.55 1103.26 1347.22 Q1100.95 1349.87 1100.95 1354.41 L1100.95 1372.04 L1095.79 1372.04 L1095.79 1340.85 L1100.95 1340.85 L1100.95 1345.69 Q1102.7 1342.82 1105.15 1341.46 Q1107.6 1340.09 1110.97 1340.09 Q1114.37 1340.09 1116.74 1341.82 Q1119.13 1343.55 1120.27 1346.83 Z" fill="#000000" fill-rule="evenodd" fill-opacity="1" /><path clip-path="url(#clip060)" d="M 0 0 M1146.7 1340.85 L1151.83 1340.85 L1151.83 1372.04 L1146.7 1372.04 L1146.7 1340.85 M1146.7 1328.7 L1151.83 1328.7 L1151.83 1335.19 L1146.7 1335.19 L1146.7 1328.7 Z" fill="#000000" fill-rule="evenodd" fill-opacity="1" /><path clip-path="url(#clip060)" d="M 0 0 M1183.13 1353.21 L1183.13 1372.04 L1178.01 1372.04 L1178.01 1353.38 Q1178.01 1348.95 1176.28 1346.75 Q1174.55 1344.55 1171.1 1344.55 Q1166.95 1344.55 1164.56 1347.2 Q1162.16 1349.84 1162.16 1354.41 L1162.16 1372.04 L1157.01 1372.04 L1157.01 1340.85 L1162.16 1340.85 L1162.16 1345.69 Q1164 1342.88 1166.48 1341.49 Q1168.98 1340.09 1172.24 1340.09 Q1177.62 1340.09 1180.37 1343.44 Q1183.13 1346.75 1183.13 1353.21 Z" fill="#000000" fill-rule="evenodd" fill-opacity="1" /><path clip-path="url(#clip060)" d="M 0 0 M1187.7 1328.76 L1192.15 1328.76 Q1196.33 1335.33 1198.39 1341.63 Q1200.48 1347.92 1200.48 1354.13 Q1200.48 1360.37 1198.39 1366.69 Q1196.33 1373.01 1192.15 1379.56 L1187.7 1379.56 Q1191.4 1373.18 1193.21 1366.89 Q1195.05 1360.56 1195.05 1354.13 Q1195.05 1347.7 1193.21 1341.43 Q1191.4 1335.17 1187.7 1328.76 Z" fill="#000000" fill-rule="evenodd" fill-opacity="1" /><polyline clip-path="url(#clip062)" style="stroke:#000000; stroke-width:1.75; stroke-opacity:0.1; fill:none" points="
  177.152,1071.72 2058.66,1071.72 
  "/>
<polyline clip-path="url(#clip062)" style="stroke:#000000; stroke-width:1.75; stroke-opacity:0.1; fill:none" points="
  177.152,872.462 2058.66,872.462 
  "/>
<polyline clip-path="url(#clip062)" style="stroke:#000000; stroke-width:1.75; stroke-opacity:0.1; fill:none" points="
  177.152,673.2 2058.66,673.2 
  "/>
<polyline clip-path="url(#clip062)" style="stroke:#000000; stroke-width:1.75; stroke-opacity:0.1; fill:none" points="
  177.152,473.937 2058.66,473.937 
  "/>
<polyline clip-path="url(#clip062)" style="stroke:#000000; stroke-width:1.75; stroke-opacity:0.1; fill:none" points="
  177.152,274.675 2058.66,274.675 
  "/>
<polyline clip-path="url(#clip062)" style="stroke:#000000; stroke-width:1.75; stroke-opacity:0.1; fill:none" points="
  177.152,75.4125 2058.66,75.4125 
  "/>
<polyline clip-path="url(#clip060)" style="stroke:#000000; stroke-width:3.5; stroke-opacity:1; fill:none" points="
  177.152,1245.28 177.152,41.3386 
  "/>
<polyline clip-path="url(#clip060)" style="stroke:#000000; stroke-width:3.5; stroke-opacity:1; fill:none" points="
  177.152,1071.72 199.73,1071.72 
  "/>
<polyline clip-path="url(#clip060)" style="stroke:#000000; stroke-width:3.5; stroke-opacity:1; fill:none" points="
  177.152,872.462 199.73,872.462 
  "/>
<polyline clip-path="url(#clip060)" style="stroke:#000000; stroke-width:3.5; stroke-opacity:1; fill:none" points="
  177.152,673.2 199.73,673.2 
  "/>
<polyline clip-path="url(#clip060)" style="stroke:#000000; stroke-width:3.5; stroke-opacity:1; fill:none" points="
  177.152,473.937 199.73,473.937 
  "/>
<polyline clip-path="url(#clip060)" style="stroke:#000000; stroke-width:3.5; stroke-opacity:1; fill:none" points="
  177.152,274.675 199.73,274.675 
  "/>
<polyline clip-path="url(#clip060)" style="stroke:#000000; stroke-width:3.5; stroke-opacity:1; fill:none" points="
  177.152,75.4125 199.73,75.4125 
  "/>
<path clip-path="url(#clip060)" d="M 0 0 M135.2 1059.3 Q132.041 1059.3 130.44 1062.42 Q128.861 1065.52 128.861 1071.76 Q128.861 1077.97 130.44 1081.09 Q132.041 1084.19 135.2 1084.19 Q138.38 1084.19 139.96 1081.09 Q141.56 1077.97 141.56 1071.76 Q141.56 1065.52 139.96 1062.42 Q138.38 1059.3 135.2 1059.3 M135.2 1056.06 Q140.284 1056.06 142.958 1060.09 Q145.652 1064.1 145.652 1071.76 Q145.652 1079.39 142.958 1083.42 Q140.284 1087.43 135.2 1087.43 Q130.116 1087.43 127.423 1083.42 Q124.749 1079.39 124.749 1071.76 Q124.749 1064.1 127.423 1060.09 Q130.116 1056.06 135.2 1056.06 Z" fill="#000000" fill-rule="evenodd" fill-opacity="1" /><path clip-path="url(#clip060)" d="M 0 0 M104.596 884.139 L111.28 884.139 L111.28 861.069 L104.008 862.527 L104.008 858.801 L111.239 857.342 L115.331 857.342 L115.331 884.139 L122.015 884.139 L122.015 887.582 L104.596 887.582 L104.596 884.139 Z" fill="#000000" fill-rule="evenodd" fill-opacity="1" /><path clip-path="url(#clip060)" d="M 0 0 M135.2 860.036 Q132.041 860.036 130.44 863.155 Q128.861 866.254 128.861 872.493 Q128.861 878.711 130.44 881.83 Q132.041 884.929 135.2 884.929 Q138.38 884.929 139.96 881.83 Q141.56 878.711 141.56 872.493 Q141.56 866.254 139.96 863.155 Q138.38 860.036 135.2 860.036 M135.2 856.795 Q140.284 856.795 142.958 860.826 Q145.652 864.836 145.652 872.493 Q145.652 880.129 142.958 884.159 Q140.284 888.17 135.2 888.17 Q130.116 888.17 127.423 884.159 Q124.749 880.129 124.749 872.493 Q124.749 864.836 127.423 860.826 Q130.116 856.795 135.2 856.795 Z" fill="#000000" fill-rule="evenodd" fill-opacity="1" /><path clip-path="url(#clip060)" d="M 0 0 M107.735 684.877 L122.015 684.877 L122.015 688.32 L102.813 688.32 L102.813 684.877 Q105.143 682.466 109.153 678.415 Q113.184 674.344 114.217 673.169 Q116.181 670.962 116.951 669.443 Q117.741 667.903 117.741 666.425 Q117.741 664.014 116.039 662.495 Q114.358 660.976 111.644 660.976 Q109.72 660.976 107.573 661.645 Q105.446 662.313 103.016 663.67 L103.016 659.538 Q105.487 658.546 107.634 658.039 Q109.781 657.533 111.563 657.533 Q116.262 657.533 119.057 659.882 Q121.853 662.232 121.853 666.161 Q121.853 668.025 121.144 669.706 Q120.455 671.367 118.612 673.635 Q118.105 674.223 115.391 677.038 Q112.677 679.833 107.735 684.877 Z" fill="#000000" fill-rule="evenodd" fill-opacity="1" /><path clip-path="url(#clip060)" d="M 0 0 M135.2 660.774 Q132.041 660.774 130.44 663.893 Q128.861 666.992 128.861 673.23 Q128.861 679.448 130.44 682.568 Q132.041 685.666 135.2 685.666 Q138.38 685.666 139.96 682.568 Q141.56 679.448 141.56 673.23 Q141.56 666.992 139.96 663.893 Q138.38 660.774 135.2 660.774 M135.2 657.533 Q140.284 657.533 142.958 661.564 Q145.652 665.574 145.652 673.23 Q145.652 680.866 142.958 684.897 Q140.284 688.907 135.2 688.907 Q130.116 688.907 127.423 684.897 Q124.749 680.866 124.749 673.23 Q124.749 665.574 127.423 661.564 Q130.116 657.533 135.2 657.533 Z" fill="#000000" fill-rule="evenodd" fill-opacity="1" /><path clip-path="url(#clip060)" d="M 0 0 M115.776 472.752 Q118.713 473.38 120.354 475.365 Q122.015 477.35 122.015 480.267 Q122.015 484.743 118.936 487.194 Q115.857 489.645 110.186 489.645 Q108.282 489.645 106.257 489.26 Q104.251 488.895 102.104 488.146 L102.104 484.196 Q103.806 485.189 105.831 485.695 Q107.857 486.201 110.064 486.201 Q113.913 486.201 115.918 484.682 Q117.943 483.163 117.943 480.267 Q117.943 477.593 116.06 476.094 Q114.196 474.575 110.854 474.575 L107.33 474.575 L107.33 471.213 L111.016 471.213 Q114.034 471.213 115.634 470.018 Q117.234 468.803 117.234 466.534 Q117.234 464.205 115.574 462.97 Q113.933 461.714 110.854 461.714 Q109.173 461.714 107.249 462.078 Q105.325 462.443 103.016 463.213 L103.016 459.567 Q105.345 458.919 107.371 458.595 Q109.416 458.271 111.219 458.271 Q115.877 458.271 118.592 460.397 Q121.306 462.504 121.306 466.109 Q121.306 468.621 119.868 470.362 Q118.43 472.084 115.776 472.752 Z" fill="#000000" fill-rule="evenodd" fill-opacity="1" /><path clip-path="url(#clip060)" d="M 0 0 M135.2 461.511 Q132.041 461.511 130.44 464.63 Q128.861 467.729 128.861 473.968 Q128.861 480.186 130.44 483.305 Q132.041 486.404 135.2 486.404 Q138.38 486.404 139.96 483.305 Q141.56 480.186 141.56 473.968 Q141.56 467.729 139.96 464.63 Q138.38 461.511 135.2 461.511 M135.2 458.271 Q140.284 458.271 142.958 462.301 Q145.652 466.312 145.652 473.968 Q145.652 481.604 142.958 485.634 Q140.284 489.645 135.2 489.645 Q130.116 489.645 127.423 485.634 Q124.749 481.604 124.749 473.968 Q124.749 466.312 127.423 462.301 Q130.116 458.271 135.2 458.271 Z" fill="#000000" fill-rule="evenodd" fill-opacity="1" /><path clip-path="url(#clip060)" d="M 0 0 M113.629 263.12 L103.299 279.263 L113.629 279.263 L113.629 263.12 M112.556 259.555 L117.7 259.555 L117.7 279.263 L122.015 279.263 L122.015 282.665 L117.7 282.665 L117.7 289.795 L113.629 289.795 L113.629 282.665 L99.9776 282.665 L99.9776 278.716 L112.556 259.555 Z" fill="#000000" fill-rule="evenodd" fill-opacity="1" /><path clip-path="url(#clip060)" d="M 0 0 M135.2 262.249 Q132.041 262.249 130.44 265.368 Q128.861 268.467 128.861 274.705 Q128.861 280.923 130.44 284.043 Q132.041 287.142 135.2 287.142 Q138.38 287.142 139.96 284.043 Q141.56 280.923 141.56 274.705 Q141.56 268.467 139.96 265.368 Q138.38 262.249 135.2 262.249 M135.2 259.008 Q140.284 259.008 142.958 263.039 Q145.652 267.049 145.652 274.705 Q145.652 282.341 142.958 286.372 Q140.284 290.382 135.2 290.382 Q130.116 290.382 127.423 286.372 Q124.749 282.341 124.749 274.705 Q124.749 267.049 127.423 263.039 Q130.116 259.008 135.2 259.008 Z" fill="#000000" fill-rule="evenodd" fill-opacity="1" /><path clip-path="url(#clip060)" d="M 0 0 M103.725 60.2925 L119.787 60.2925 L119.787 63.7357 L107.472 63.7357 L107.472 71.1489 Q108.363 70.8451 109.254 70.7033 Q110.145 70.5413 111.037 70.5413 Q116.1 70.5413 119.057 73.3161 Q122.015 76.091 122.015 80.8305 Q122.015 85.7119 118.976 88.426 Q115.938 91.1198 110.409 91.1198 Q108.505 91.1198 106.52 90.7958 Q104.555 90.4717 102.449 89.8236 L102.449 85.7119 Q104.272 86.7044 106.216 87.1905 Q108.16 87.6766 110.328 87.6766 Q113.832 87.6766 115.877 85.8334 Q117.923 83.9903 117.923 80.8305 Q117.923 77.6708 115.877 75.8277 Q113.832 73.9845 110.328 73.9845 Q108.687 73.9845 107.046 74.3491 Q105.426 74.7137 103.725 75.4834 L103.725 60.2925 Z" fill="#000000" fill-rule="evenodd" fill-opacity="1" /><path clip-path="url(#clip060)" d="M 0 0 M135.2 62.9863 Q132.041 62.9863 130.44 66.1055 Q128.861 69.2045 128.861 75.4428 Q128.861 81.661 130.44 84.7802 Q132.041 87.8791 135.2 87.8791 Q138.38 87.8791 139.96 84.7802 Q141.56 81.661 141.56 75.4428 Q141.56 69.2045 139.96 66.1055 Q138.38 62.9863 135.2 62.9863 M135.2 59.7456 Q140.284 59.7456 142.958 63.7762 Q145.652 67.7866 145.652 75.4428 Q145.652 83.0788 142.958 87.1094 Q140.284 91.1198 135.2 91.1198 Q130.116 91.1198 127.423 87.1094 Q124.749 83.0788 124.749 75.4428 Q124.749 67.7866 127.423 63.7762 Q130.116 59.7456 135.2 59.7456 Z" fill="#000000" fill-rule="evenodd" fill-opacity="1" /><path clip-path="url(#clip060)" d="M 0 0 M36.5087 741.496 Q37.1214 739.685 39.1266 737.986 Q41.1318 736.26 44.6409 734.533 L56.0036 728.824 L56.0036 734.867 L45.3371 740.187 Q41.1596 742.247 39.795 744.197 Q38.4303 746.119 38.4303 749.461 L38.4303 755.588 L56.0036 755.588 L56.0036 761.213 L14.4236 761.213 L14.4236 748.514 Q14.4236 741.384 17.4036 737.875 Q20.3835 734.366 26.3991 734.366 Q30.326 734.366 32.916 736.204 Q35.5061 738.014 36.5087 741.496 M19.0467 755.588 L33.8072 755.588 L33.8072 748.514 Q33.8072 744.448 31.9413 742.387 Q30.0475 740.298 26.3991 740.298 Q22.7508 740.298 20.9127 742.387 Q19.0467 744.448 19.0467 748.514 L19.0467 755.588 Z" fill="#000000" fill-rule="evenodd" fill-opacity="1" /><path clip-path="url(#clip060)" d="M 0 0 M39.1266 699.331 L41.6331 699.331 L41.6331 722.892 Q46.9245 722.558 49.7095 719.717 Q52.4667 716.848 52.4667 711.752 Q52.4667 708.8 51.7426 706.043 Q51.0185 703.258 49.5703 700.528 L54.4162 700.528 Q55.5859 703.285 56.1986 706.182 Q56.8113 709.078 56.8113 712.058 Q56.8113 719.522 52.4667 723.894 Q48.1221 728.239 40.714 728.239 Q33.0553 728.239 28.5714 724.117 Q24.0597 719.968 24.0597 712.949 Q24.0597 706.655 28.1258 703.007 Q32.1641 699.331 39.1266 699.331 M37.6227 704.455 Q33.4173 704.511 30.9108 706.822 Q28.4043 709.106 28.4043 712.894 Q28.4043 717.183 30.8273 719.773 Q33.2502 722.335 37.6505 722.725 L37.6227 704.455 Z" fill="#000000" fill-rule="evenodd" fill-opacity="1" /><path clip-path="url(#clip060)" d="M 0 0 M25.7307 674.071 L30.5766 674.071 Q29.4626 676.243 28.9056 678.582 Q28.3486 680.922 28.3486 683.428 Q28.3486 687.244 29.5183 689.165 Q30.688 691.059 33.0274 691.059 Q34.8098 691.059 35.8403 689.695 Q36.8429 688.33 37.7619 684.208 L38.1518 682.454 Q39.3215 676.995 41.466 674.711 Q43.5826 672.4 47.398 672.4 Q51.7426 672.4 54.2769 675.853 Q56.8113 679.279 56.8113 685.294 Q56.8113 687.801 56.31 690.53 Q55.8365 693.232 54.8618 696.239 L49.5703 696.239 Q51.0463 693.399 51.7983 690.641 Q52.5224 687.884 52.5224 685.183 Q52.5224 681.562 51.297 679.613 Q50.0437 677.663 47.7879 677.663 Q45.6992 677.663 44.5852 679.084 Q43.4712 680.476 42.4407 685.239 L42.023 687.021 Q41.0204 691.783 38.9595 693.9 Q36.8707 696.017 33.2502 696.017 Q28.8499 696.017 26.4548 692.897 Q24.0597 689.778 24.0597 684.041 Q24.0597 681.2 24.4775 678.694 Q24.8952 676.187 25.7307 674.071 Z" fill="#000000" fill-rule="evenodd" fill-opacity="1" /><path clip-path="url(#clip060)" d="M 0 0 M51.3248 662.067 L67.8677 662.067 L67.8677 667.22 L24.8117 667.22 L24.8117 662.067 L29.5462 662.067 Q26.7612 660.452 25.4244 658.001 Q24.0597 655.523 24.0597 652.097 Q24.0597 646.416 28.5714 642.879 Q33.0831 639.314 40.4355 639.314 Q47.7879 639.314 52.2996 642.879 Q56.8113 646.416 56.8113 652.097 Q56.8113 655.523 55.4745 658.001 Q54.1098 660.452 51.3248 662.067 M40.4355 644.633 Q34.782 644.633 31.5792 646.973 Q28.3486 649.284 28.3486 653.35 Q28.3486 657.416 31.5792 659.756 Q34.782 662.067 40.4355 662.067 Q46.089 662.067 49.3196 659.756 Q52.5224 657.416 52.5224 653.35 Q52.5224 649.284 49.3196 646.973 Q46.089 644.633 40.4355 644.633 Z" fill="#000000" fill-rule="evenodd" fill-opacity="1" /><path clip-path="url(#clip060)" d="M 0 0 M12.7248 603.499 Q19.1303 607.231 25.3965 609.041 Q31.6628 610.851 38.0961 610.851 Q44.5295 610.851 50.8514 609.041 Q57.1455 607.203 63.5231 603.499 L63.5231 607.955 Q56.9784 612.132 50.6564 614.221 Q44.3345 616.282 38.0961 616.282 Q31.8856 616.282 25.5915 614.221 Q19.2974 612.16 12.7248 607.955 L12.7248 603.499 Z" fill="#000000" fill-rule="evenodd" fill-opacity="1" /><path clip-path="url(#clip060)" d="M 0 0 M43.694 598.653 L24.8117 598.653 L24.8117 593.529 L43.499 593.529 Q47.9271 593.529 50.1551 591.802 Q52.3553 590.075 52.3553 586.622 Q52.3553 582.472 49.7095 580.077 Q47.0638 577.654 42.4964 577.654 L24.8117 577.654 L24.8117 572.53 L56.0036 572.53 L56.0036 577.654 L51.2134 577.654 Q54.0541 579.52 55.4466 581.999 Q56.8113 584.45 56.8113 587.708 Q56.8113 593.083 53.4693 595.868 Q50.1273 598.653 43.694 598.653 M24.0597 585.759 L24.0597 585.759 Z" fill="#000000" fill-rule="evenodd" fill-opacity="1" /><path clip-path="url(#clip060)" d="M 0 0 M40.3241 552.979 Q40.3241 559.19 41.7445 561.585 Q43.1648 563.98 46.5903 563.98 Q49.3196 563.98 50.9349 562.197 Q52.5224 560.387 52.5224 557.296 Q52.5224 553.035 49.5146 550.473 Q46.4789 547.883 41.466 547.883 L40.3241 547.883 L40.3241 552.979 M38.2075 542.758 L56.0036 542.758 L56.0036 547.883 L51.2691 547.883 Q54.1098 549.637 55.4745 552.255 Q56.8113 554.873 56.8113 558.66 Q56.8113 563.451 54.1377 566.291 Q51.4362 569.104 46.9245 569.104 Q41.6609 569.104 38.9873 565.595 Q36.3137 562.058 36.3137 555.068 L36.3137 547.883 L35.8124 547.883 Q32.2755 547.883 30.3538 550.222 Q28.4043 552.534 28.4043 556.739 Q28.4043 559.412 29.0449 561.947 Q29.6854 564.481 30.9665 566.821 L26.232 566.821 Q25.1459 564.008 24.6167 561.362 Q24.0597 558.716 24.0597 556.21 Q24.0597 549.442 27.5688 546.1 Q31.0779 542.758 38.2075 542.758 Z" fill="#000000" fill-rule="evenodd" fill-opacity="1" /><path clip-path="url(#clip060)" d="M 0 0 M12.7248 538.191 L12.7248 533.735 Q19.2974 529.557 25.5915 527.496 Q31.8856 525.408 38.0961 525.408 Q44.3345 525.408 50.6564 527.496 Q56.9784 529.557 63.5231 533.735 L63.5231 538.191 Q57.1455 534.487 50.8514 532.676 Q44.5295 530.838 38.0961 530.838 Q31.6628 530.838 25.3965 532.676 Q19.1303 534.487 12.7248 538.191 Z" fill="#000000" fill-rule="evenodd" fill-opacity="1" /><circle clip-path="url(#clip062)" cx="230.402" cy="1071.72" r="12" fill="#009af9" fill-rule="evenodd" fill-opacity="1" stroke="#000000" stroke-opacity="1" stroke-width="2.8"/>
<circle clip-path="url(#clip062)" cx="289.569" cy="1071.72" r="12" fill="#009af9" fill-rule="evenodd" fill-opacity="1" stroke="#000000" stroke-opacity="1" stroke-width="2.8"/>
<circle clip-path="url(#clip062)" cx="348.736" cy="1071.72" r="12" fill="#009af9" fill-rule="evenodd" fill-opacity="1" stroke="#000000" stroke-opacity="1" stroke-width="2.8"/>
<circle clip-path="url(#clip062)" cx="407.903" cy="992.02" r="12" fill="#009af9" fill-rule="evenodd" fill-opacity="1" stroke="#000000" stroke-opacity="1" stroke-width="2.8"/>
<circle clip-path="url(#clip062)" cx="467.07" cy="872.462" r="12" fill="#009af9" fill-rule="evenodd" fill-opacity="1" stroke="#000000" stroke-opacity="1" stroke-width="2.8"/>
<circle clip-path="url(#clip062)" cx="526.237" cy="693.126" r="12" fill="#009af9" fill-rule="evenodd" fill-opacity="1" stroke="#000000" stroke-opacity="1" stroke-width="2.8"/>
<circle clip-path="url(#clip062)" cx="585.404" cy="533.716" r="12" fill="#009af9" fill-rule="evenodd" fill-opacity="1" stroke="#000000" stroke-opacity="1" stroke-width="2.8"/>
<circle clip-path="url(#clip062)" cx="644.571" cy="374.306" r="12" fill="#009af9" fill-rule="evenodd" fill-opacity="1" stroke="#000000" stroke-opacity="1" stroke-width="2.8"/>
<circle clip-path="url(#clip062)" cx="703.738" cy="254.749" r="12" fill="#009af9" fill-rule="evenodd" fill-opacity="1" stroke="#000000" stroke-opacity="1" stroke-width="2.8"/>
<circle clip-path="url(#clip062)" cx="762.905" cy="175.044" r="12" fill="#009af9" fill-rule="evenodd" fill-opacity="1" stroke="#000000" stroke-opacity="1" stroke-width="2.8"/>
<circle clip-path="url(#clip062)" cx="2005.41" cy="75.4125" r="12" fill="#009af9" fill-rule="evenodd" fill-opacity="1" stroke="#000000" stroke-opacity="1" stroke-width="2.8"/>
<polyline clip-path="url(#clip062)" style="stroke:#e26f46; stroke-width:3.5; stroke-opacity:1; fill:none" points="
  348.736,1211.21 351.625,1202.94 378.339,1126.47 394.392,1080.51 407.966,1041.66 422.71,999.448 436.303,960.536 450.876,918.819 467.76,870.485 482.765,827.532 
  495.923,789.866 510.269,748.799 524.7,707.489 540.655,661.815 555.836,618.357 571.621,573.172 584.908,535.135 601.13,488.696 616.38,445.043 640.811,375.106 
  644.571,364.343 
  "/>
</svg>
