<?xml version="1.0" encoding="utf-8"?>
<svg xmlns="http://www.w3.org/2000/svg" xmlns:xlink="http://www.w3.org/1999/xlink" width="600" height="400" viewBox="0 0 2400 1600">
<defs>
  <clipPath id="clip140">
    <rect x="0" y="0" width="2400" height="1600"/>
  </clipPath>
</defs>
<path clip-path="url(#clip140)" d="
M0 1600 L2400 1600 L2400 0 L0 0  Z
  " fill="#ffffff" fill-rule="evenodd" fill-opacity="1"/>
<defs>
  <clipPath id="clip141">
    <rect x="480" y="0" width="1681" height="1600"/>
  </clipPath>
</defs>
<path clip-path="url(#clip140)" d="
M289.119 642.531 L2352.76 642.531 L2352.76 47.2441 L289.119 47.2441  Z
  " fill="#ffffff" fill-rule="evenodd" fill-opacity="1"/>
<defs>
  <clipPath id="clip142">
    <rect x="289" y="47" width="2065" height="596"/>
  </clipPath>
</defs>
<polyline clip-path="url(#clip142)" style="stroke:#000000; stroke-width:2; stroke-opacity:0.1; fill:none" points="
  347.524,642.531 347.524,47.2441 
  "/>
<polyline clip-path="url(#clip142)" style="stroke:#000000; stroke-width:2; stroke-opacity:0.1; fill:none" points="
  836.75,642.531 836.75,47.2441 
  "/>
<polyline clip-path="url(#clip142)" style="stroke:#000000; stroke-width:2; stroke-opacity:0.1; fill:none" points="
  1325.98,642.531 1325.98,47.2441 
  "/>
<polyline clip-path="url(#clip142)" style="stroke:#000000; stroke-width:2; stroke-opacity:0.1; fill:none" points="
  1815.2,642.531 1815.2,47.2441 
  "/>
<polyline clip-path="url(#clip142)" style="stroke:#000000; stroke-width:2; stroke-opacity:0.1; fill:none" points="
  2304.43,642.531 2304.43,47.2441 
  "/>
<polyline clip-path="url(#clip140)" style="stroke:#000000; stroke-width:4; stroke-opacity:1; fill:none" points="
  289.119,642.531 2352.76,642.531 
  "/>
<polyline clip-path="url(#clip140)" style="stroke:#000000; stroke-width:4; stroke-opacity:1; fill:none" points="
  347.524,642.531 347.524,635.387 
  "/>
<polyline clip-path="url(#clip140)" style="stroke:#000000; stroke-width:4; stroke-opacity:1; fill:none" points="
  836.75,642.531 836.75,635.387 
  "/>
<polyline clip-path="url(#clip140)" style="stroke:#000000; stroke-width:4; stroke-opacity:1; fill:none" points="
  1325.98,642.531 1325.98,635.387 
  "/>
<polyline clip-path="url(#clip140)" style="stroke:#000000; stroke-width:4; stroke-opacity:1; fill:none" points="
  1815.2,642.531 1815.2,635.387 
  "/>
<polyline clip-path="url(#clip140)" style="stroke:#000000; stroke-width:4; stroke-opacity:1; fill:none" points="
  2304.43,642.531 2304.43,635.387 
  "/>
<polyline clip-path="url(#clip140)" style="stroke:#000000; stroke-width:4; stroke-opacity:1; fill:none" points="
  454.797,642.531 454.797,638.959 
  "/>
<polyline clip-path="url(#clip140)" style="stroke:#000000; stroke-width:4; stroke-opacity:1; fill:none" points="
  556.913,642.531 556.913,638.959 
  "/>
<polyline clip-path="url(#clip140)" style="stroke:#000000; stroke-width:4; stroke-opacity:1; fill:none" points="
  654.345,642.531 654.345,638.959 
  "/>
<polyline clip-path="url(#clip140)" style="stroke:#000000; stroke-width:4; stroke-opacity:1; fill:none" points="
  747.505,642.531 747.505,638.959 
  "/>
<polyline clip-path="url(#clip140)" style="stroke:#000000; stroke-width:4; stroke-opacity:1; fill:none" points="
  944.023,642.531 944.023,638.959 
  "/>
<polyline clip-path="url(#clip140)" style="stroke:#000000; stroke-width:4; stroke-opacity:1; fill:none" points="
  1046.14,642.531 1046.14,638.959 
  "/>
<polyline clip-path="url(#clip140)" style="stroke:#000000; stroke-width:4; stroke-opacity:1; fill:none" points="
  1143.57,642.531 1143.57,638.959 
  "/>
<polyline clip-path="url(#clip140)" style="stroke:#000000; stroke-width:4; stroke-opacity:1; fill:none" points="
  1236.73,642.531 1236.73,638.959 
  "/>
<polyline clip-path="url(#clip140)" style="stroke:#000000; stroke-width:4; stroke-opacity:1; fill:none" points="
  1433.25,642.531 1433.25,638.959 
  "/>
<polyline clip-path="url(#clip140)" style="stroke:#000000; stroke-width:4; stroke-opacity:1; fill:none" points="
  1535.37,642.531 1535.37,638.959 
  "/>
<polyline clip-path="url(#clip140)" style="stroke:#000000; stroke-width:4; stroke-opacity:1; fill:none" points="
  1632.8,642.531 1632.8,638.959 
  "/>
<polyline clip-path="url(#clip140)" style="stroke:#000000; stroke-width:4; stroke-opacity:1; fill:none" points="
  1725.96,642.531 1725.96,638.959 
  "/>
<polyline clip-path="url(#clip140)" style="stroke:#000000; stroke-width:4; stroke-opacity:1; fill:none" points="
  1922.48,642.531 1922.48,638.959 
  "/>
<polyline clip-path="url(#clip140)" style="stroke:#000000; stroke-width:4; stroke-opacity:1; fill:none" points="
  2024.59,642.531 2024.59,638.959 
  "/>
<polyline clip-path="url(#clip140)" style="stroke:#000000; stroke-width:4; stroke-opacity:1; fill:none" points="
  2122.02,642.531 2122.02,638.959 
  "/>
<polyline clip-path="url(#clip140)" style="stroke:#000000; stroke-width:4; stroke-opacity:1; fill:none" points="
  2215.18,642.531 2215.18,638.959 
  "/>
<path clip-path="url(#clip140)" d="M 0 0 M294.273 720.803 L301.912 720.803 L301.912 694.437 L293.602 696.104 L293.602 691.845 L301.865 690.178 L306.541 690.178 L306.541 720.803 L314.18 720.803 L314.18 724.738 L294.273 724.738 L294.273 720.803 Z" fill="#000000" fill-rule="evenodd" fill-opacity="1" /><path clip-path="url(#clip140)" d="M 0 0 M333.625 693.257 Q330.013 693.257 328.185 696.821 Q326.379 700.363 326.379 707.493 Q326.379 714.599 328.185 718.164 Q330.013 721.705 333.625 721.705 Q337.259 721.705 339.064 718.164 Q340.893 714.599 340.893 707.493 Q340.893 700.363 339.064 696.821 Q337.259 693.257 333.625 693.257 M333.625 689.553 Q339.435 689.553 342.49 694.159 Q345.569 698.743 345.569 707.493 Q345.569 716.219 342.49 720.826 Q339.435 725.409 333.625 725.409 Q327.814 725.409 324.736 720.826 Q321.68 716.219 321.68 707.493 Q321.68 698.743 324.736 694.159 Q327.814 689.553 333.625 689.553 Z" fill="#000000" fill-rule="evenodd" fill-opacity="1" /><path clip-path="url(#clip140)" d="M 0 0 M350.139 694.13 L363.399 694.13 L363.399 697.327 L345.569 697.327 L345.569 694.13 Q347.732 691.892 351.456 688.13 Q355.198 684.35 356.158 683.259 Q357.982 681.209 358.697 679.799 Q359.43 678.369 359.43 676.996 Q359.43 674.758 357.85 673.348 Q356.289 671.937 353.769 671.937 Q351.982 671.937 349.989 672.558 Q348.014 673.178 345.757 674.438 L345.757 670.602 Q348.052 669.68 350.045 669.21 Q352.039 668.74 353.694 668.74 Q358.057 668.74 360.653 670.921 Q363.248 673.103 363.248 676.752 Q363.248 678.482 362.59 680.043 Q361.95 681.585 360.239 683.692 Q359.769 684.237 357.249 686.852 Q354.728 689.447 350.139 694.13 Z" fill="#000000" fill-rule="evenodd" fill-opacity="1" /><path clip-path="url(#clip140)" d="M 0 0 M371.373 692.55 L375.342 692.55 L375.342 697.327 L371.373 697.327 L371.373 692.55 Z" fill="#000000" fill-rule="evenodd" fill-opacity="1" /><path clip-path="url(#clip140)" d="M 0 0 M391.742 671.749 Q388.808 671.749 387.322 674.645 Q385.855 677.523 385.855 683.316 Q385.855 689.09 387.322 691.986 Q388.808 694.864 391.742 694.864 Q394.695 694.864 396.162 691.986 Q397.648 689.09 397.648 683.316 Q397.648 677.523 396.162 674.645 Q394.695 671.749 391.742 671.749 M391.742 668.74 Q396.463 668.74 398.945 672.482 Q401.447 676.206 401.447 683.316 Q401.447 690.406 398.945 694.149 Q396.463 697.873 391.742 697.873 Q387.021 697.873 384.52 694.149 Q382.037 690.406 382.037 683.316 Q382.037 676.206 384.52 672.482 Q387.021 668.74 391.742 668.74 Z" fill="#000000" fill-rule="evenodd" fill-opacity="1" /><path clip-path="url(#clip140)" d="M 0 0 M783.998 720.803 L791.636 720.803 L791.636 694.437 L783.326 696.104 L783.326 691.845 L791.59 690.178 L796.266 690.178 L796.266 720.803 L803.905 720.803 L803.905 724.738 L783.998 724.738 L783.998 720.803 Z" fill="#000000" fill-rule="evenodd" fill-opacity="1" /><path clip-path="url(#clip140)" d="M 0 0 M823.349 693.257 Q819.738 693.257 817.909 696.821 Q816.104 700.363 816.104 707.493 Q816.104 714.599 817.909 718.164 Q819.738 721.705 823.349 721.705 Q826.983 721.705 828.789 718.164 Q830.618 714.599 830.618 707.493 Q830.618 700.363 828.789 696.821 Q826.983 693.257 823.349 693.257 M823.349 689.553 Q829.159 689.553 832.215 694.159 Q835.294 698.743 835.294 707.493 Q835.294 716.219 832.215 720.826 Q829.159 725.409 823.349 725.409 Q817.539 725.409 814.46 720.826 Q811.405 716.219 811.405 707.493 Q811.405 698.743 814.46 694.159 Q817.539 689.553 823.349 689.553 Z" fill="#000000" fill-rule="evenodd" fill-opacity="1" /><path clip-path="url(#clip140)" d="M 0 0 M839.864 694.13 L853.123 694.13 L853.123 697.327 L835.294 697.327 L835.294 694.13 Q837.456 691.892 841.18 688.13 Q844.923 684.35 845.882 683.259 Q847.707 681.209 848.421 679.799 Q849.155 678.369 849.155 676.996 Q849.155 674.758 847.575 673.348 Q846.014 671.937 843.494 671.937 Q841.707 671.937 839.713 672.558 Q837.739 673.178 835.482 674.438 L835.482 670.602 Q837.776 669.68 839.77 669.21 Q841.763 668.74 843.418 668.74 Q847.782 668.74 850.377 670.921 Q852.973 673.103 852.973 676.752 Q852.973 678.482 852.315 680.043 Q851.675 681.585 849.964 683.692 Q849.493 684.237 846.973 686.852 Q844.453 689.447 839.864 694.13 Z" fill="#000000" fill-rule="evenodd" fill-opacity="1" /><path clip-path="url(#clip140)" d="M 0 0 M861.098 692.55 L865.066 692.55 L865.066 697.327 L861.098 697.327 L861.098 692.55 Z" fill="#000000" fill-rule="evenodd" fill-opacity="1" /><path clip-path="url(#clip140)" d="M 0 0 M874 694.13 L880.206 694.13 L880.206 672.708 L873.454 674.062 L873.454 670.602 L880.169 669.247 L883.968 669.247 L883.968 694.13 L890.175 694.13 L890.175 697.327 L874 697.327 L874 694.13 Z" fill="#000000" fill-rule="evenodd" fill-opacity="1" /><path clip-path="url(#clip140)" d="M 0 0 M1273.37 720.803 L1281.01 720.803 L1281.01 694.437 L1272.7 696.104 L1272.7 691.845 L1280.97 690.178 L1285.64 690.178 L1285.64 720.803 L1293.28 720.803 L1293.28 724.738 L1273.37 724.738 L1273.37 720.803 Z" fill="#000000" fill-rule="evenodd" fill-opacity="1" /><path clip-path="url(#clip140)" d="M 0 0 M1312.73 693.257 Q1309.11 693.257 1307.29 696.821 Q1305.48 700.363 1305.48 707.493 Q1305.48 714.599 1307.29 718.164 Q1309.11 721.705 1312.73 721.705 Q1316.36 721.705 1318.17 718.164 Q1319.99 714.599 1319.99 707.493 Q1319.99 700.363 1318.17 696.821 Q1316.36 693.257 1312.73 693.257 M1312.73 689.553 Q1318.54 689.553 1321.59 694.159 Q1324.67 698.743 1324.67 707.493 Q1324.67 716.219 1321.59 720.826 Q1318.54 725.409 1312.73 725.409 Q1306.92 725.409 1303.84 720.826 Q1300.78 716.219 1300.78 707.493 Q1300.78 698.743 1303.84 694.159 Q1306.92 689.553 1312.73 689.553 Z" fill="#000000" fill-rule="evenodd" fill-opacity="1" /><path clip-path="url(#clip140)" d="M 0 0 M1329.24 694.13 L1342.5 694.13 L1342.5 697.327 L1324.67 697.327 L1324.67 694.13 Q1326.83 691.892 1330.56 688.13 Q1334.3 684.35 1335.26 683.259 Q1337.08 681.209 1337.8 679.799 Q1338.53 678.369 1338.53 676.996 Q1338.53 674.758 1336.95 673.348 Q1335.39 671.937 1332.87 671.937 Q1331.08 671.937 1329.09 672.558 Q1327.12 673.178 1324.86 674.438 L1324.86 670.602 Q1327.15 669.68 1329.15 669.21 Q1331.14 668.74 1332.8 668.74 Q1337.16 668.74 1339.75 670.921 Q1342.35 673.103 1342.35 676.752 Q1342.35 678.482 1341.69 680.043 Q1341.05 681.585 1339.34 683.692 Q1338.87 684.237 1336.35 686.852 Q1333.83 689.447 1329.24 694.13 Z" fill="#000000" fill-rule="evenodd" fill-opacity="1" /><path clip-path="url(#clip140)" d="M 0 0 M1350.47 692.55 L1354.44 692.55 L1354.44 697.327 L1350.47 697.327 L1350.47 692.55 Z" fill="#000000" fill-rule="evenodd" fill-opacity="1" /><path clip-path="url(#clip140)" d="M 0 0 M1365.99 694.13 L1379.25 694.13 L1379.25 697.327 L1361.42 697.327 L1361.42 694.13 Q1363.58 691.892 1367.31 688.13 Q1371.05 684.35 1372.01 683.259 Q1373.83 681.209 1374.55 679.799 Q1375.28 678.369 1375.28 676.996 Q1375.28 674.758 1373.7 673.348 Q1372.14 671.937 1369.62 671.937 Q1367.83 671.937 1365.84 672.558 Q1363.87 673.178 1361.61 674.438 L1361.61 670.602 Q1363.9 669.68 1365.9 669.21 Q1367.89 668.74 1369.55 668.74 Q1373.91 668.74 1376.5 670.921 Q1379.1 673.103 1379.1 676.752 Q1379.1 678.482 1378.44 680.043 Q1377.8 681.585 1376.09 683.692 Q1375.62 684.237 1373.1 686.852 Q1370.58 689.447 1365.99 694.13 Z" fill="#000000" fill-rule="evenodd" fill-opacity="1" /><path clip-path="url(#clip140)" d="M 0 0 M1762.21 720.803 L1769.85 720.803 L1769.85 694.437 L1761.54 696.104 L1761.54 691.845 L1769.81 690.178 L1774.48 690.178 L1774.48 720.803 L1782.12 720.803 L1782.12 724.738 L1762.21 724.738 L1762.21 720.803 Z" fill="#000000" fill-rule="evenodd" fill-opacity="1" /><path clip-path="url(#clip140)" d="M 0 0 M1801.57 693.257 Q1797.96 693.257 1796.13 696.821 Q1794.32 700.363 1794.32 707.493 Q1794.32 714.599 1796.13 718.164 Q1797.96 721.705 1801.57 721.705 Q1805.2 721.705 1807.01 718.164 Q1808.84 714.599 1808.84 707.493 Q1808.84 700.363 1807.01 696.821 Q1805.2 693.257 1801.57 693.257 M1801.57 689.553 Q1807.38 689.553 1810.43 694.159 Q1813.51 698.743 1813.51 707.493 Q1813.51 716.219 1810.43 720.826 Q1807.38 725.409 1801.57 725.409 Q1795.76 725.409 1792.68 720.826 Q1789.62 716.219 1789.62 707.493 Q1789.62 698.743 1792.68 694.159 Q1795.76 689.553 1801.57 689.553 Z" fill="#000000" fill-rule="evenodd" fill-opacity="1" /><path clip-path="url(#clip140)" d="M 0 0 M1818.08 694.13 L1831.34 694.13 L1831.34 697.327 L1813.51 697.327 L1813.51 694.13 Q1815.67 691.892 1819.4 688.13 Q1823.14 684.35 1824.1 683.259 Q1825.92 681.209 1826.64 679.799 Q1827.37 678.369 1827.37 676.996 Q1827.37 674.758 1825.79 673.348 Q1824.23 671.937 1821.71 671.937 Q1819.92 671.937 1817.93 672.558 Q1815.96 673.178 1813.7 674.438 L1813.7 670.602 Q1815.99 669.68 1817.99 669.21 Q1819.98 668.74 1821.64 668.74 Q1826 668.74 1828.59 670.921 Q1831.19 673.103 1831.19 676.752 Q1831.19 678.482 1830.53 680.043 Q1829.89 681.585 1828.18 683.692 Q1827.71 684.237 1825.19 686.852 Q1822.67 689.447 1818.08 694.13 Z" fill="#000000" fill-rule="evenodd" fill-opacity="1" /><path clip-path="url(#clip140)" d="M 0 0 M1839.32 692.55 L1843.28 692.55 L1843.28 697.327 L1839.32 697.327 L1839.32 692.55 Z" fill="#000000" fill-rule="evenodd" fill-opacity="1" /><path clip-path="url(#clip140)" d="M 0 0 M1863.07 682.187 Q1865.8 682.77 1867.32 684.613 Q1868.86 686.457 1868.86 689.165 Q1868.86 693.321 1866 695.597 Q1863.14 697.873 1857.88 697.873 Q1856.11 697.873 1854.23 697.516 Q1852.37 697.177 1850.37 696.481 L1850.37 692.814 Q1851.95 693.735 1853.83 694.205 Q1855.72 694.676 1857.77 694.676 Q1861.34 694.676 1863.2 693.265 Q1865.08 691.854 1865.08 689.165 Q1865.08 686.682 1863.33 685.29 Q1861.6 683.88 1858.5 683.88 L1855.23 683.88 L1855.23 680.758 L1858.65 680.758 Q1861.45 680.758 1862.94 679.648 Q1864.42 678.52 1864.42 676.413 Q1864.42 674.25 1862.88 673.103 Q1861.36 671.937 1858.5 671.937 Q1856.94 671.937 1855.15 672.276 Q1853.36 672.614 1851.22 673.329 L1851.22 669.943 Q1853.38 669.341 1855.26 669.041 Q1857.16 668.74 1858.84 668.74 Q1863.16 668.74 1865.68 670.714 Q1868.2 672.67 1868.2 676.018 Q1868.2 678.35 1866.87 679.968 Q1865.53 681.567 1863.07 682.187 Z" fill="#000000" fill-rule="evenodd" fill-opacity="1" /><path clip-path="url(#clip140)" d="M 0 0 M2250.98 720.803 L2258.62 720.803 L2258.62 694.437 L2250.31 696.104 L2250.31 691.845 L2258.57 690.178 L2263.25 690.178 L2263.25 720.803 L2270.89 720.803 L2270.89 724.738 L2250.98 724.738 L2250.98 720.803 Z" fill="#000000" fill-rule="evenodd" fill-opacity="1" /><path clip-path="url(#clip140)" d="M 0 0 M2290.33 693.257 Q2286.72 693.257 2284.89 696.821 Q2283.09 700.363 2283.09 707.493 Q2283.09 714.599 2284.89 718.164 Q2286.72 721.705 2290.33 721.705 Q2293.97 721.705 2295.77 718.164 Q2297.6 714.599 2297.6 707.493 Q2297.6 700.363 2295.77 696.821 Q2293.97 693.257 2290.33 693.257 M2290.33 689.553 Q2296.14 689.553 2299.2 694.159 Q2302.28 698.743 2302.28 707.493 Q2302.28 716.219 2299.2 720.826 Q2296.14 725.409 2290.33 725.409 Q2284.52 725.409 2281.44 720.826 Q2278.39 716.219 2278.39 707.493 Q2278.39 698.743 2281.44 694.159 Q2284.52 689.553 2290.33 689.553 Z" fill="#000000" fill-rule="evenodd" fill-opacity="1" /><path clip-path="url(#clip140)" d="M 0 0 M2306.85 694.13 L2320.11 694.13 L2320.11 697.327 L2302.28 697.327 L2302.28 694.13 Q2304.44 691.892 2308.16 688.13 Q2311.91 684.35 2312.87 683.259 Q2314.69 681.209 2315.4 679.799 Q2316.14 678.369 2316.14 676.996 Q2316.14 674.758 2314.56 673.348 Q2313 671.937 2310.48 671.937 Q2308.69 671.937 2306.7 672.558 Q2304.72 673.178 2302.46 674.438 L2302.46 670.602 Q2304.76 669.68 2306.75 669.21 Q2308.75 668.74 2310.4 668.74 Q2314.76 668.74 2317.36 670.921 Q2319.96 673.103 2319.96 676.752 Q2319.96 678.482 2319.3 680.043 Q2318.66 681.585 2316.95 683.692 Q2316.48 684.237 2313.96 686.852 Q2311.44 689.447 2306.85 694.13 Z" fill="#000000" fill-rule="evenodd" fill-opacity="1" /><path clip-path="url(#clip140)" d="M 0 0 M2328.08 692.55 L2332.05 692.55 L2332.05 697.327 L2328.08 697.327 L2328.08 692.55 Z" fill="#000000" fill-rule="evenodd" fill-opacity="1" /><path clip-path="url(#clip140)" d="M 0 0 M2350.76 672.558 L2341.17 687.547 L2350.76 687.547 L2350.76 672.558 M2349.77 669.247 L2354.54 669.247 L2354.54 687.547 L2358.55 687.547 L2358.55 690.707 L2354.54 690.707 L2354.54 697.327 L2350.76 697.327 L2350.76 690.707 L2338.09 690.707 L2338.09 687.04 L2349.77 669.247 Z" fill="#000000" fill-rule="evenodd" fill-opacity="1" /><polyline clip-path="url(#clip142)" style="stroke:#000000; stroke-width:2; stroke-opacity:0.1; fill:none" points="
  289.119,613.541 2352.76,613.541 
  "/>
<polyline clip-path="url(#clip142)" style="stroke:#000000; stroke-width:2; stroke-opacity:0.1; fill:none" points="
  289.119,476.502 2352.76,476.502 
  "/>
<polyline clip-path="url(#clip142)" style="stroke:#000000; stroke-width:2; stroke-opacity:0.1; fill:none" points="
  289.119,339.463 2352.76,339.463 
  "/>
<polyline clip-path="url(#clip142)" style="stroke:#000000; stroke-width:2; stroke-opacity:0.1; fill:none" points="
  289.119,202.424 2352.76,202.424 
  "/>
<polyline clip-path="url(#clip142)" style="stroke:#000000; stroke-width:2; stroke-opacity:0.1; fill:none" points="
  289.119,65.3843 2352.76,65.3843 
  "/>
<polyline clip-path="url(#clip140)" style="stroke:#000000; stroke-width:4; stroke-opacity:1; fill:none" points="
  289.119,642.531 289.119,47.2441 
  "/>
<polyline clip-path="url(#clip140)" style="stroke:#000000; stroke-width:4; stroke-opacity:1; fill:none" points="
  289.119,613.541 313.883,613.541 
  "/>
<polyline clip-path="url(#clip140)" style="stroke:#000000; stroke-width:4; stroke-opacity:1; fill:none" points="
  289.119,476.502 313.883,476.502 
  "/>
<polyline clip-path="url(#clip140)" style="stroke:#000000; stroke-width:4; stroke-opacity:1; fill:none" points="
  289.119,339.463 313.883,339.463 
  "/>
<polyline clip-path="url(#clip140)" style="stroke:#000000; stroke-width:4; stroke-opacity:1; fill:none" points="
  289.119,202.424 313.883,202.424 
  "/>
<polyline clip-path="url(#clip140)" style="stroke:#000000; stroke-width:4; stroke-opacity:1; fill:none" points="
  289.119,65.3843 313.883,65.3843 
  "/>
<polyline clip-path="url(#clip140)" style="stroke:#000000; stroke-width:4; stroke-opacity:1; fill:none" points="
  289.119,638.54 301.501,638.54 
  "/>
<polyline clip-path="url(#clip140)" style="stroke:#000000; stroke-width:4; stroke-opacity:1; fill:none" points="
  289.119,583.493 301.501,583.493 
  "/>
<polyline clip-path="url(#clip140)" style="stroke:#000000; stroke-width:4; stroke-opacity:1; fill:none" points="
  289.119,554.889 301.501,554.889 
  "/>
<polyline clip-path="url(#clip140)" style="stroke:#000000; stroke-width:4; stroke-opacity:1; fill:none" points="
  289.119,527.596 301.501,527.596 
  "/>
<polyline clip-path="url(#clip140)" style="stroke:#000000; stroke-width:4; stroke-opacity:1; fill:none" points="
  289.119,501.501 301.501,501.501 
  "/>
<polyline clip-path="url(#clip140)" style="stroke:#000000; stroke-width:4; stroke-opacity:1; fill:none" points="
  289.119,446.453 301.501,446.453 
  "/>
<polyline clip-path="url(#clip140)" style="stroke:#000000; stroke-width:4; stroke-opacity:1; fill:none" points="
  289.119,417.849 301.501,417.849 
  "/>
<polyline clip-path="url(#clip140)" style="stroke:#000000; stroke-width:4; stroke-opacity:1; fill:none" points="
  289.119,390.557 301.501,390.557 
  "/>
<polyline clip-path="url(#clip140)" style="stroke:#000000; stroke-width:4; stroke-opacity:1; fill:none" points="
  289.119,364.462 301.501,364.462 
  "/>
<polyline clip-path="url(#clip140)" style="stroke:#000000; stroke-width:4; stroke-opacity:1; fill:none" points="
  289.119,309.414 301.501,309.414 
  "/>
<polyline clip-path="url(#clip140)" style="stroke:#000000; stroke-width:4; stroke-opacity:1; fill:none" points="
  289.119,280.81 301.501,280.81 
  "/>
<polyline clip-path="url(#clip140)" style="stroke:#000000; stroke-width:4; stroke-opacity:1; fill:none" points="
  289.119,253.518 301.501,253.518 
  "/>
<polyline clip-path="url(#clip140)" style="stroke:#000000; stroke-width:4; stroke-opacity:1; fill:none" points="
  289.119,227.423 301.501,227.423 
  "/>
<polyline clip-path="url(#clip140)" style="stroke:#000000; stroke-width:4; stroke-opacity:1; fill:none" points="
  289.119,172.375 301.501,172.375 
  "/>
<polyline clip-path="url(#clip140)" style="stroke:#000000; stroke-width:4; stroke-opacity:1; fill:none" points="
  289.119,143.771 301.501,143.771 
  "/>
<polyline clip-path="url(#clip140)" style="stroke:#000000; stroke-width:4; stroke-opacity:1; fill:none" points="
  289.119,116.479 301.501,116.479 
  "/>
<polyline clip-path="url(#clip140)" style="stroke:#000000; stroke-width:4; stroke-opacity:1; fill:none" points="
  289.119,90.3833 301.501,90.3833 
  "/>
<path clip-path="url(#clip140)" d="M 0 0 M115.928 633.334 L123.567 633.334 L123.567 606.968 L115.257 608.635 L115.257 604.376 L123.521 602.709 L128.197 602.709 L128.197 633.334 L135.836 633.334 L135.836 637.269 L115.928 637.269 L115.928 633.334 Z" fill="#000000" fill-rule="evenodd" fill-opacity="1" /><path clip-path="url(#clip140)" d="M 0 0 M155.28 605.788 Q151.669 605.788 149.84 609.352 Q148.035 612.894 148.035 620.024 Q148.035 627.13 149.84 630.695 Q151.669 634.237 155.28 634.237 Q158.914 634.237 160.72 630.695 Q162.548 627.13 162.548 620.024 Q162.548 612.894 160.72 609.352 Q158.914 605.788 155.28 605.788 M155.28 602.084 Q161.09 602.084 164.146 606.69 Q167.224 611.274 167.224 620.024 Q167.224 628.75 164.146 633.357 Q161.09 637.94 155.28 637.94 Q149.47 637.94 146.391 633.357 Q143.336 628.75 143.336 620.024 Q143.336 611.274 146.391 606.69 Q149.47 602.084 155.28 602.084 Z" fill="#000000" fill-rule="evenodd" fill-opacity="1" /><path clip-path="url(#clip140)" d="M 0 0 M167.224 596.185 L191.336 596.185 L191.336 599.383 L167.224 599.383 L167.224 596.185 Z" fill="#000000" fill-rule="evenodd" fill-opacity="1" /><path clip-path="url(#clip140)" d="M 0 0 M202.809 606.661 L216.068 606.661 L216.068 609.859 L198.238 609.859 L198.238 606.661 Q200.401 604.423 204.125 600.662 Q207.868 596.881 208.827 595.79 Q210.651 593.74 211.366 592.33 Q212.1 590.9 212.1 589.527 Q212.1 587.289 210.52 585.879 Q208.959 584.468 206.438 584.468 Q204.652 584.468 202.658 585.089 Q200.683 585.709 198.426 586.969 L198.426 583.133 Q200.721 582.211 202.715 581.741 Q204.708 581.271 206.363 581.271 Q210.727 581.271 213.322 583.452 Q215.918 585.634 215.918 589.283 Q215.918 591.013 215.259 592.574 Q214.62 594.116 212.908 596.223 Q212.438 596.768 209.918 599.383 Q207.398 601.978 202.809 606.661 Z" fill="#000000" fill-rule="evenodd" fill-opacity="1" /><path clip-path="url(#clip140)" d="M 0 0 M224.043 605.081 L228.011 605.081 L228.011 609.859 L224.043 609.859 L224.043 605.081 Z" fill="#000000" fill-rule="evenodd" fill-opacity="1" /><path clip-path="url(#clip140)" d="M 0 0 M236.945 606.661 L243.151 606.661 L243.151 585.239 L236.399 586.593 L236.399 583.133 L243.114 581.779 L246.913 581.779 L246.913 606.661 L253.119 606.661 L253.119 609.859 L236.945 609.859 L236.945 606.661 Z" fill="#000000" fill-rule="evenodd" fill-opacity="1" /><path clip-path="url(#clip140)" d="M 0 0 M114.931 496.295 L122.57 496.295 L122.57 469.929 L114.26 471.596 L114.26 467.336 L122.524 465.67 L127.2 465.67 L127.2 496.295 L134.839 496.295 L134.839 500.23 L114.931 500.23 L114.931 496.295 Z" fill="#000000" fill-rule="evenodd" fill-opacity="1" /><path clip-path="url(#clip140)" d="M 0 0 M154.283 468.748 Q150.672 468.748 148.843 472.313 Q147.038 475.855 147.038 482.984 Q147.038 490.091 148.843 493.656 Q150.672 497.197 154.283 497.197 Q157.917 497.197 159.723 493.656 Q161.552 490.091 161.552 482.984 Q161.552 475.855 159.723 472.313 Q157.917 468.748 154.283 468.748 M154.283 465.045 Q160.093 465.045 163.149 469.651 Q166.227 474.234 166.227 482.984 Q166.227 491.711 163.149 496.318 Q160.093 500.901 154.283 500.901 Q148.473 500.901 145.394 496.318 Q142.339 491.711 142.339 482.984 Q142.339 474.234 145.394 469.651 Q148.473 465.045 154.283 465.045 Z" fill="#000000" fill-rule="evenodd" fill-opacity="1" /><path clip-path="url(#clip140)" d="M 0 0 M166.227 459.146 L190.339 459.146 L190.339 462.343 L166.227 462.343 L166.227 459.146 Z" fill="#000000" fill-rule="evenodd" fill-opacity="1" /><path clip-path="url(#clip140)" d="M 0 0 M201.812 469.622 L215.071 469.622 L215.071 472.819 L197.241 472.819 L197.241 469.622 Q199.404 467.384 203.128 463.622 Q206.871 459.842 207.83 458.751 Q209.655 456.701 210.369 455.29 Q211.103 453.861 211.103 452.488 Q211.103 450.25 209.523 448.839 Q207.962 447.429 205.442 447.429 Q203.655 447.429 201.661 448.049 Q199.686 448.67 197.43 449.93 L197.43 446.093 Q199.724 445.172 201.718 444.702 Q203.711 444.231 205.366 444.231 Q209.73 444.231 212.325 446.413 Q214.921 448.595 214.921 452.244 Q214.921 453.974 214.263 455.535 Q213.623 457.077 211.912 459.184 Q211.441 459.729 208.921 462.343 Q206.401 464.939 201.812 469.622 Z" fill="#000000" fill-rule="evenodd" fill-opacity="1" /><path clip-path="url(#clip140)" d="M 0 0 M223.046 468.042 L227.014 468.042 L227.014 472.819 L223.046 472.819 L223.046 468.042 Z" fill="#000000" fill-rule="evenodd" fill-opacity="1" /><path clip-path="url(#clip140)" d="M 0 0 M243.415 447.241 Q240.481 447.241 238.995 450.137 Q237.528 453.015 237.528 458.808 Q237.528 464.581 238.995 467.478 Q240.481 470.355 243.415 470.355 Q246.367 470.355 247.834 467.478 Q249.32 464.581 249.32 458.808 Q249.32 453.015 247.834 450.137 Q246.367 447.241 243.415 447.241 M243.415 444.231 Q248.135 444.231 250.618 447.974 Q253.119 451.698 253.119 458.808 Q253.119 465.898 250.618 469.641 Q248.135 473.365 243.415 473.365 Q238.694 473.365 236.192 469.641 Q233.71 465.898 233.71 458.808 Q233.71 451.698 236.192 447.974 Q238.694 444.231 243.415 444.231 Z" fill="#000000" fill-rule="evenodd" fill-opacity="1" /><path clip-path="url(#clip140)" d="M 0 0 M115.082 359.255 L122.721 359.255 L122.721 332.89 L114.411 334.556 L114.411 330.297 L122.674 328.63 L127.35 328.63 L127.35 359.255 L134.989 359.255 L134.989 363.19 L115.082 363.19 L115.082 359.255 Z" fill="#000000" fill-rule="evenodd" fill-opacity="1" /><path clip-path="url(#clip140)" d="M 0 0 M154.434 331.709 Q150.822 331.709 148.994 335.274 Q147.188 338.816 147.188 345.945 Q147.188 353.052 148.994 356.616 Q150.822 360.158 154.434 360.158 Q158.068 360.158 159.873 356.616 Q161.702 353.052 161.702 345.945 Q161.702 338.816 159.873 335.274 Q158.068 331.709 154.434 331.709 M154.434 328.005 Q160.244 328.005 163.299 332.612 Q166.378 337.195 166.378 345.945 Q166.378 354.672 163.299 359.278 Q160.244 363.862 154.434 363.862 Q148.623 363.862 145.545 359.278 Q142.489 354.672 142.489 345.945 Q142.489 337.195 145.545 332.612 Q148.623 328.005 154.434 328.005 Z" fill="#000000" fill-rule="evenodd" fill-opacity="1" /><path clip-path="url(#clip140)" d="M 0 0 M166.378 322.107 L190.489 322.107 L190.489 325.304 L166.378 325.304 L166.378 322.107 Z" fill="#000000" fill-rule="evenodd" fill-opacity="1" /><path clip-path="url(#clip140)" d="M 0 0 M199.348 332.583 L205.555 332.583 L205.555 311.161 L198.803 312.515 L198.803 309.054 L205.517 307.7 L209.316 307.7 L209.316 332.583 L215.523 332.583 L215.523 335.78 L199.348 335.78 L199.348 332.583 Z" fill="#000000" fill-rule="evenodd" fill-opacity="1" /><path clip-path="url(#clip140)" d="M 0 0 M223.196 331.003 L227.165 331.003 L227.165 335.78 L223.196 335.78 L223.196 331.003 Z" fill="#000000" fill-rule="evenodd" fill-opacity="1" /><path clip-path="url(#clip140)" d="M 0 0 M235.553 335.197 L235.553 331.736 Q236.982 332.413 238.449 332.771 Q239.916 333.128 241.327 333.128 Q245.088 333.128 247.063 330.608 Q249.057 328.069 249.339 322.916 Q248.248 324.533 246.574 325.398 Q244.9 326.263 242.869 326.263 Q238.656 326.263 236.192 323.724 Q233.747 321.166 233.747 316.747 Q233.747 312.421 236.305 309.807 Q238.863 307.192 243.114 307.192 Q247.985 307.192 250.543 310.935 Q253.119 314.659 253.119 321.768 Q253.119 328.407 249.96 332.376 Q246.819 336.325 241.496 336.325 Q240.067 336.325 238.6 336.043 Q237.133 335.761 235.553 335.197 M243.114 323.292 Q245.671 323.292 247.157 321.543 Q248.662 319.793 248.662 316.747 Q248.662 313.719 247.157 311.969 Q245.671 310.201 243.114 310.201 Q240.556 310.201 239.051 311.969 Q237.565 313.719 237.565 316.747 Q237.565 319.793 239.051 321.543 Q240.556 323.292 243.114 323.292 Z" fill="#000000" fill-rule="evenodd" fill-opacity="1" /><path clip-path="url(#clip140)" d="M 0 0 M115.007 222.216 L122.646 222.216 L122.646 195.85 L114.335 197.517 L114.335 193.258 L122.599 191.591 L127.275 191.591 L127.275 222.216 L134.914 222.216 L134.914 226.151 L115.007 226.151 L115.007 222.216 Z" fill="#000000" fill-rule="evenodd" fill-opacity="1" /><path clip-path="url(#clip140)" d="M 0 0 M154.358 194.67 Q150.747 194.67 148.919 198.235 Q147.113 201.776 147.113 208.906 Q147.113 216.012 148.919 219.577 Q150.747 223.119 154.358 223.119 Q157.993 223.119 159.798 219.577 Q161.627 216.012 161.627 208.906 Q161.627 201.776 159.798 198.235 Q157.993 194.67 154.358 194.67 M154.358 190.966 Q160.168 190.966 163.224 195.573 Q166.303 200.156 166.303 208.906 Q166.303 217.633 163.224 222.239 Q160.168 226.822 154.358 226.822 Q148.548 226.822 145.469 222.239 Q142.414 217.633 142.414 208.906 Q142.414 200.156 145.469 195.573 Q148.548 190.966 154.358 190.966 Z" fill="#000000" fill-rule="evenodd" fill-opacity="1" /><path clip-path="url(#clip140)" d="M 0 0 M166.303 185.068 L190.414 185.068 L190.414 188.265 L166.303 188.265 L166.303 185.068 Z" fill="#000000" fill-rule="evenodd" fill-opacity="1" /><path clip-path="url(#clip140)" d="M 0 0 M199.273 195.543 L205.479 195.543 L205.479 174.121 L198.727 175.476 L198.727 172.015 L205.442 170.661 L209.241 170.661 L209.241 195.543 L215.447 195.543 L215.447 198.741 L199.273 198.741 L199.273 195.543 Z" fill="#000000" fill-rule="evenodd" fill-opacity="1" /><path clip-path="url(#clip140)" d="M 0 0 M223.121 193.964 L227.089 193.964 L227.089 198.741 L223.121 198.741 L223.121 193.964 Z" fill="#000000" fill-rule="evenodd" fill-opacity="1" /><path clip-path="url(#clip140)" d="M 0 0 M243.49 185.406 Q240.781 185.406 239.22 186.854 Q237.678 188.302 237.678 190.842 Q237.678 193.381 239.22 194.829 Q240.781 196.277 243.49 196.277 Q246.198 196.277 247.759 194.829 Q249.32 193.362 249.32 190.842 Q249.32 188.302 247.759 186.854 Q246.217 185.406 243.49 185.406 M239.691 183.789 Q237.246 183.187 235.873 181.513 Q234.518 179.839 234.518 177.432 Q234.518 174.065 236.907 172.109 Q239.314 170.153 243.49 170.153 Q247.684 170.153 250.073 172.109 Q252.461 174.065 252.461 177.432 Q252.461 179.839 251.088 181.513 Q249.734 183.187 247.308 183.789 Q250.054 184.428 251.577 186.29 Q253.119 188.152 253.119 190.842 Q253.119 194.923 250.618 197.105 Q248.135 199.286 243.49 199.286 Q238.844 199.286 236.343 197.105 Q233.86 194.923 233.86 190.842 Q233.86 188.152 235.402 186.29 Q236.945 184.428 239.691 183.789 M238.299 177.789 Q238.299 179.971 239.653 181.193 Q241.026 182.416 243.49 182.416 Q245.935 182.416 247.308 181.193 Q248.7 179.971 248.7 177.789 Q248.7 175.607 247.308 174.385 Q245.935 173.162 243.49 173.162 Q241.026 173.162 239.653 174.385 Q238.299 175.607 238.299 177.789 Z" fill="#000000" fill-rule="evenodd" fill-opacity="1" /><path clip-path="url(#clip140)" d="M 0 0 M115.665 85.1768 L123.304 85.1768 L123.304 58.8112 L114.994 60.4778 L114.994 56.2186 L123.258 54.5519 L127.933 54.5519 L127.933 85.1768 L135.572 85.1768 L135.572 89.1119 L115.665 89.1119 L115.665 85.1768 Z" fill="#000000" fill-rule="evenodd" fill-opacity="1" /><path clip-path="url(#clip140)" d="M 0 0 M155.017 57.6306 Q151.406 57.6306 149.577 61.1954 Q147.771 64.737 147.771 71.8666 Q147.771 78.9731 149.577 82.5379 Q151.406 86.0795 155.017 86.0795 Q158.651 86.0795 160.456 82.5379 Q162.285 78.9731 162.285 71.8666 Q162.285 64.737 160.456 61.1954 Q158.651 57.6306 155.017 57.6306 M155.017 53.9269 Q160.827 53.9269 163.882 58.5334 Q166.961 63.1167 166.961 71.8666 Q166.961 80.5934 163.882 85.1999 Q160.827 89.7832 155.017 89.7832 Q149.206 89.7832 146.128 85.1999 Q143.072 80.5934 143.072 71.8666 Q143.072 63.1167 146.128 58.5334 Q149.206 53.9269 155.017 53.9269 Z" fill="#000000" fill-rule="evenodd" fill-opacity="1" /><path clip-path="url(#clip140)" d="M 0 0 M166.961 48.0283 L191.073 48.0283 L191.073 51.2256 L166.961 51.2256 L166.961 48.0283 Z" fill="#000000" fill-rule="evenodd" fill-opacity="1" /><path clip-path="url(#clip140)" d="M 0 0 M199.931 58.5042 L206.138 58.5042 L206.138 37.0821 L199.386 38.4363 L199.386 34.9757 L206.1 33.6215 L209.899 33.6215 L209.899 58.5042 L216.106 58.5042 L216.106 61.7015 L199.931 61.7015 L199.931 58.5042 Z" fill="#000000" fill-rule="evenodd" fill-opacity="1" /><path clip-path="url(#clip140)" d="M 0 0 M223.779 56.9243 L227.748 56.9243 L227.748 61.7015 L223.779 61.7015 L223.779 56.9243 Z" fill="#000000" fill-rule="evenodd" fill-opacity="1" /><path clip-path="url(#clip140)" d="M 0 0 M235.064 33.6215 L253.119 33.6215 L253.119 35.239 L242.926 61.7015 L238.957 61.7015 L248.549 36.8188 L235.064 36.8188 L235.064 33.6215 Z" fill="#000000" fill-rule="evenodd" fill-opacity="1" /><path clip-path="url(#clip140)" d="M 0 0 M41.7242 362.504 Q42.4244 360.436 44.7161 358.494 Q47.0077 356.521 51.0181 354.547 L64.0042 348.022 L64.0042 354.929 L51.8138 361.009 Q47.0395 363.364 45.48 365.592 Q43.9204 367.788 43.9204 371.607 L43.9204 378.61 L64.0042 378.61 L64.0042 385.039 L16.4842 385.039 L16.4842 370.525 Q16.4842 362.377 19.8898 358.367 Q23.2955 354.356 30.1704 354.356 Q34.6582 354.356 37.6183 356.457 Q40.5784 358.526 41.7242 362.504 M21.7677 378.61 L38.6368 378.61 L38.6368 370.525 Q38.6368 365.878 36.5043 363.523 Q34.34 361.136 30.1704 361.136 Q26.0009 361.136 23.9002 363.523 Q21.7677 365.878 21.7677 370.525 L21.7677 378.61 Z" fill="#000000" fill-rule="evenodd" fill-opacity="1" /><path clip-path="url(#clip140)" d="M 0 0 M22.818 326.506 L46.4666 335.227 L46.4666 317.754 L22.818 326.506 M16.4842 330.135 L16.4842 322.846 L64.0042 304.736 L64.0042 311.42 L51.8138 315.748 L51.8138 337.169 L64.0042 341.498 L64.0042 348.277 L16.4842 330.135 Z" fill="#000000" fill-rule="evenodd" fill-opacity="1" /><polyline clip-path="url(#clip142)" style="stroke:#009af9; stroke-width:8; stroke-opacity:1; fill:none" points="
  347.524,64.0918 366.537,69.4154 542.333,118.641 647.98,148.224 737.303,173.238 834.332,200.41 923.785,225.461 1019.69,252.319 1130.8,283.437 1229.54,311.091 
  1316.13,335.342 1410.54,361.782 1505.51,388.38 1610.5,417.788 1710.41,445.769 1814.28,474.863 1901.72,499.354 2008.48,529.255 2108.83,557.364 2269.61,602.396 
  2294.35,609.326 
  "/>
<polyline clip-path="url(#clip142)" style="stroke:#ff0000; stroke-width:4; stroke-opacity:1; fill:none" points="
  347.524,337.548 1324.01,337.548 1324.01,625.683 
  "/>
<path clip-path="url(#clip140)" d="M 0 0 M1363.71 330.412 Q1363.71 332.667 1362.48 337.644 Q1361.25 342.621 1359.76 346.017 Q1356.57 353.395 1351.06 353.395 Q1350.39 353.395 1349.72 353.337 Q1349.07 353.278 1348.11 353.015 Q1347.14 352.751 1346.35 352.341 Q1345.56 351.902 1344.77 351.083 Q1344.01 350.263 1343.57 349.179 Q1341.14 353.395 1337.33 353.395 Q1333.64 353.395 1331.21 351.522 Q1328.81 349.648 1328.81 345.812 Q1328.81 344.085 1329.51 341.538 Q1330.22 338.991 1332.18 333.721 Q1333.26 330.998 1333.26 329.505 Q1333.26 328.831 1333.12 328.392 Q1332.97 327.953 1332.68 327.806 Q1332.41 327.631 1332.24 327.602 Q1332.06 327.543 1331.77 327.543 Q1330.01 327.543 1328.43 329.329 Q1326.85 331.086 1325.71 334.98 Q1325.47 335.712 1325.33 335.887 Q1325.18 336.063 1324.74 336.063 Q1324.01 336.034 1324.01 335.448 Q1324.01 335.214 1324.27 334.306 Q1324.54 333.369 1325.15 331.993 Q1325.8 330.588 1326.67 329.329 Q1327.55 328.041 1328.93 327.133 Q1330.33 326.225 1331.94 326.225 Q1334.11 326.225 1335.49 327.66 Q1336.86 329.095 1336.86 331.144 Q1336.86 331.73 1336.72 332.374 Q1336.57 332.989 1336.42 333.399 Q1336.31 333.779 1335.84 334.98 Q1333.91 340.045 1333.29 342.475 Q1332.71 344.905 1332.71 346.603 Q1332.71 347.159 1332.73 347.598 Q1332.76 348.038 1333 348.945 Q1333.26 349.853 1333.73 350.468 Q1334.2 351.053 1335.16 351.551 Q1336.16 352.049 1337.51 352.049 Q1340.87 352.049 1343.04 347.013 Q1342.98 346.72 1342.98 345.959 Q1342.98 344.261 1343.51 341.977 Q1343.66 341.45 1344.5 338.083 Q1345.35 334.687 1346.09 331.73 Q1346.85 328.743 1346.93 328.568 Q1347.23 327.748 1347.87 327.309 Q1348.52 326.87 1349.16 326.87 Q1349.89 326.87 1350.39 327.309 Q1350.89 327.748 1350.89 328.509 Q1350.89 328.656 1350.71 329.329 Q1350.57 329.973 1350.33 330.939 Q1350.1 331.905 1349.98 332.403 L1347.46 342.475 Q1346.82 344.817 1346.82 346.837 Q1346.82 349.384 1347.96 350.731 Q1349.1 352.049 1351.24 352.049 Q1355.25 352.049 1357.83 346.779 Q1359 344.495 1360.05 340.923 Q1361.13 337.351 1361.13 335.799 Q1361.13 332.872 1358.97 330.705 Q1358.5 330.295 1358.29 329.973 Q1358.09 329.622 1358.09 329.095 Q1358.09 328.099 1359.03 327.162 Q1359.96 326.225 1361.08 326.225 Q1362.07 326.225 1362.89 327.221 Q1363.71 328.187 1363.71 330.412 Z" fill="#000000" fill-rule="evenodd" fill-opacity="1" /><path clip-path="url(#clip140)" d="M 0 0 M1385.89 359.562 Q1386.06 359.746 1386.06 359.931 Q1386.06 360.115 1385.65 360.648 Q1385.26 361.181 1384.42 361.898 Q1383.58 362.615 1382.49 363.292 Q1381.4 363.968 1379.81 364.419 Q1378.21 364.89 1376.53 364.89 Q1373.39 364.89 1371.55 362.82 Q1369.72 360.75 1369.72 357.779 Q1369.72 354.889 1371.34 352.122 Q1372.96 349.335 1375.58 347.613 Q1378.21 345.871 1380.97 345.871 Q1383.17 345.871 1384.54 346.896 Q1385.91 347.921 1385.91 349.478 Q1385.91 350.688 1385.22 351.425 Q1384.52 352.163 1383.58 352.163 Q1382.92 352.163 1382.47 351.794 Q1382.02 351.405 1382.02 350.688 Q1382.02 349.765 1382.78 349.048 Q1383.06 348.761 1383.39 348.638 Q1383.74 348.495 1383.95 348.495 Q1384.15 348.474 1384.62 348.474 Q1384.19 347.675 1383.17 347.244 Q1382.16 346.794 1381.01 346.794 Q1379.31 346.794 1377.69 347.982 Q1376.08 349.15 1375.09 350.995 Q1374.11 352.799 1373.47 355.36 Q1372.84 357.902 1372.84 359.377 Q1372.84 361.406 1373.78 362.677 Q1374.72 363.948 1376.61 363.948 Q1376.98 363.948 1377.37 363.927 Q1377.78 363.907 1378.8 363.681 Q1379.85 363.456 1380.77 363.066 Q1381.69 362.677 1382.86 361.837 Q1384.05 360.976 1384.99 359.808 Q1385.32 359.377 1385.54 359.377 Q1385.73 359.377 1385.89 359.562 Z" fill="#000000" fill-rule="evenodd" fill-opacity="1" /><path clip-path="url(#clip140)" d="M 0 0 M1405.68 352.962 Q1405.68 355.196 1404.7 357.41 Q1403.71 359.603 1402.14 361.242 Q1400.58 362.861 1398.53 363.886 Q1396.48 364.89 1394.43 364.89 Q1391.5 364.89 1389.59 362.902 Q1387.71 360.894 1387.71 357.779 Q1387.71 354.868 1389.33 352.102 Q1390.97 349.314 1393.59 347.593 Q1396.21 345.871 1398.96 345.871 Q1401.85 345.871 1403.76 347.818 Q1405.68 349.765 1405.68 352.962 M1402.61 351.323 Q1402.61 349.335 1401.64 348.064 Q1400.68 346.794 1398.92 346.794 Q1398.41 346.794 1397.81 346.958 Q1397.22 347.101 1396.44 347.49 Q1395.68 347.88 1394.82 348.7 Q1393.98 349.499 1393.24 350.647 Q1392.28 352.163 1391.54 354.95 Q1390.82 357.717 1390.82 359.377 Q1390.82 361.673 1391.89 362.82 Q1392.95 363.948 1394.47 363.948 Q1395.95 363.948 1397.5 362.923 Q1399.08 361.878 1400.17 360.095 Q1401.25 358.25 1401.93 355.545 Q1402.61 352.819 1402.61 351.323 Z" fill="#000000" fill-rule="evenodd" fill-opacity="1" /><path clip-path="url(#clip140)" d="M 0 0 M1415.11 351.756 Q1414.27 350.79 1414.27 349.531 Q1414.27 348.272 1415.08 347.335 Q1415.93 346.369 1417.46 346.369 Q1419.24 346.369 1420.27 348.096 Q1421.29 349.794 1421.29 352.664 Q1421.29 355.767 1420.03 358.636 Q1418.77 361.535 1417.54 362.911 Q1416.31 364.287 1415.82 364.287 Q1415.23 364.287 1415.23 363.643 Q1415.23 363.409 1415.64 362.969 Q1419.95 358.343 1419.97 352.664 Q1419.97 351.756 1419.86 351.756 L1419.71 351.873 Q1418.69 352.722 1417.46 352.722 Q1415.96 352.722 1415.11 351.756 Z" fill="#000000" fill-rule="evenodd" fill-opacity="1" /><path clip-path="url(#clip140)" d="M 0 0 M1476.49 319.55 Q1476.49 318.584 1476.23 317.793 Q1475.99 316.974 1475.61 316.417 Q1475.26 315.832 1474.59 315.393 Q1473.91 314.924 1473.36 314.631 Q1472.8 314.339 1471.86 314.163 Q1470.93 313.958 1470.31 313.87 Q1469.7 313.753 1468.64 313.694 Q1467.59 313.636 1467.06 313.636 Q1466.57 313.636 1465.57 313.636 Q1462.44 313.636 1461.91 313.694 Q1461.12 313.812 1460.83 314.28 Q1460.53 314.719 1460.24 315.92 L1456.35 331.554 L1463.05 331.554 Q1466.71 331.554 1469.23 330.529 Q1471.75 329.505 1473.18 328.07 Q1474.76 326.489 1475.61 323.942 Q1476.49 321.395 1476.49 319.55 M1483.02 347.159 Q1483.02 347.481 1482.76 348.213 Q1482.52 348.945 1481.94 349.97 Q1481.35 350.965 1480.56 351.873 Q1479.77 352.781 1478.51 353.395 Q1477.25 354.04 1475.82 354.04 Q1475.47 354.04 1475.11 354.01 Q1474.76 354.01 1473.89 353.864 Q1473.04 353.747 1472.33 353.513 Q1471.63 353.308 1470.75 352.81 Q1469.87 352.341 1469.26 351.697 Q1468.67 351.024 1468.26 349.97 Q1467.85 348.887 1467.85 347.569 Q1467.85 346.398 1468.82 342.475 Q1469.67 339.137 1469.67 338.317 Q1469.67 337.41 1469.38 336.561 Q1469.11 335.712 1468.44 334.833 Q1467.8 333.955 1466.42 333.428 Q1465.04 332.872 1463.11 332.872 L1456 332.872 L1452.01 348.77 Q1452.01 348.799 1451.93 349.209 Q1451.84 349.589 1451.84 349.794 Q1451.84 350.175 1452.07 350.409 Q1452.34 350.643 1452.98 350.76 Q1453.62 350.848 1454.12 350.878 Q1454.65 350.878 1455.73 350.878 Q1457.08 350.878 1457.31 351.112 Q1457.43 351.258 1457.43 351.522 Q1457.43 351.932 1457.31 352.224 Q1457.23 352.488 1456.99 352.576 Q1456.79 352.664 1456.64 352.693 Q1456.49 352.722 1456.23 352.722 L1448.62 352.546 L1441.06 352.722 Q1440.22 352.722 1440.22 352.049 Q1440.22 351.463 1440.42 351.229 Q1440.63 350.965 1440.89 350.936 Q1441.15 350.878 1441.83 350.878 Q1443.29 350.878 1444.17 350.79 Q1445.05 350.702 1445.6 350.585 Q1446.19 350.438 1446.48 350.029 Q1446.8 349.619 1446.95 349.267 Q1447.1 348.887 1447.3 348.038 L1455.32 315.832 Q1455.56 314.866 1455.56 314.719 Q1455.56 314.163 1455.21 314.017 Q1454.88 313.841 1453.95 313.753 L1451.66 313.636 Q1450.96 313.636 1450.67 313.607 Q1450.4 313.577 1450.2 313.431 Q1449.99 313.285 1449.99 312.962 Q1449.99 312.143 1450.35 311.967 Q1450.7 311.762 1451.72 311.762 L1468.82 311.762 Q1474.65 311.762 1478.34 314.309 Q1482.05 316.856 1482.05 320.75 Q1482.05 322.507 1481.26 324.147 Q1480.47 325.786 1479.16 327.075 Q1477.87 328.363 1476.14 329.446 Q1474.41 330.5 1472.57 331.232 Q1470.75 331.935 1468.88 332.345 Q1469.7 332.637 1470.46 333.077 Q1471.25 333.516 1472.25 334.335 Q1473.27 335.155 1473.89 336.473 Q1474.5 337.79 1474.5 339.401 Q1474.5 340.542 1474.27 342.241 Q1473.68 347.071 1473.68 349.062 Q1473.68 350.965 1474.18 351.844 Q1474.68 352.722 1476.08 352.722 Q1477.46 352.722 1478.98 351.492 Q1480.53 350.233 1481.53 347.276 Q1481.76 346.427 1482.32 346.427 Q1482.35 346.427 1482.38 346.427 Q1482.43 346.427 1482.55 346.486 Q1482.67 346.515 1482.76 346.603 Q1482.87 346.662 1482.93 346.808 Q1483.02 346.954 1483.02 347.159 Z" fill="#000000" fill-rule="evenodd" fill-opacity="1" /><path clip-path="url(#clip140)" d="M 0 0 M1526.42 351.522 Q1526.42 352.078 1526.18 352.371 Q1525.98 352.634 1525.77 352.693 Q1525.6 352.722 1525.33 352.722 Q1524.57 352.722 1521.94 352.634 Q1519.3 352.546 1518.54 352.546 Q1517.31 352.546 1514.79 352.634 Q1512.27 352.722 1511.04 352.722 Q1510.23 352.722 1510.23 352.049 Q1510.23 351.61 1510.31 351.375 Q1510.4 351.112 1510.64 351.024 Q1510.9 350.907 1511.04 350.907 Q1511.22 350.878 1511.66 350.878 Q1512.25 350.878 1512.86 350.819 Q1513.47 350.731 1514.24 350.556 Q1515 350.38 1515.47 349.941 Q1515.96 349.502 1515.96 348.887 Q1515.96 348.623 1515.76 346.457 Q1515.55 344.29 1515.29 341.772 Q1515.03 339.225 1515 338.874 L1499.95 338.874 Q1498.57 341.245 1497.61 342.885 Q1496.64 344.524 1496.29 345.081 Q1495.94 345.637 1495.73 345.988 Q1495.53 346.339 1495.41 346.544 Q1494.56 348.096 1494.56 348.77 Q1494.56 350.643 1497.37 350.878 Q1498.34 350.878 1498.34 351.58 Q1498.34 352.107 1498.1 352.4 Q1497.87 352.664 1497.66 352.693 Q1497.49 352.722 1497.2 352.722 Q1496.23 352.722 1494.21 352.634 Q1492.19 352.546 1491.19 352.546 Q1490.35 352.546 1488.59 352.634 Q1486.83 352.722 1486.04 352.722 Q1485.69 352.722 1485.49 352.517 Q1485.28 352.312 1485.28 352.049 Q1485.28 351.639 1485.34 351.405 Q1485.43 351.17 1485.66 351.053 Q1485.9 350.936 1486.01 350.936 Q1486.13 350.907 1486.54 350.878 Q1488.76 350.731 1490.49 349.677 Q1492.25 348.594 1493.92 345.812 L1514.76 310.796 Q1514.97 310.445 1515.11 310.269 Q1515.26 310.093 1515.55 309.947 Q1515.88 309.8 1516.34 309.8 Q1517.08 309.8 1517.22 310.035 Q1517.37 310.24 1517.46 311.235 L1521.12 348.711 Q1521.2 349.502 1521.26 349.824 Q1521.35 350.116 1521.73 350.438 Q1522.14 350.731 1522.87 350.819 Q1523.63 350.878 1525.04 350.878 Q1525.57 350.878 1525.77 350.907 Q1525.98 350.907 1526.18 351.053 Q1526.42 351.2 1526.42 351.522 M1514.82 337 L1512.92 317.237 L1501.09 337 L1514.82 337 Z" fill="#000000" fill-rule="evenodd" fill-opacity="1" /><path clip-path="url(#clip140)" d="M 0 0 M1548.58 358.89 Q1548.75 359.074 1548.75 359.259 Q1548.75 359.443 1548.34 359.976 Q1547.95 360.509 1547.11 361.226 Q1546.27 361.944 1545.18 362.62 Q1544.1 363.296 1542.5 363.747 Q1540.9 364.218 1539.22 364.218 Q1536.08 364.218 1534.24 362.149 Q1532.41 360.079 1532.41 357.107 Q1532.41 354.217 1534.03 351.45 Q1535.65 348.663 1538.28 346.941 Q1540.9 345.199 1543.67 345.199 Q1545.86 345.199 1547.23 346.224 Q1548.61 347.249 1548.61 348.807 Q1548.61 350.016 1547.91 350.753 Q1547.21 351.491 1546.27 351.491 Q1545.61 351.491 1545.16 351.122 Q1544.71 350.733 1544.71 350.016 Q1544.71 349.093 1545.47 348.376 Q1545.76 348.089 1546.08 347.966 Q1546.43 347.823 1546.64 347.823 Q1546.84 347.802 1547.31 347.802 Q1546.88 347.003 1545.86 346.573 Q1544.85 346.122 1543.71 346.122 Q1542.01 346.122 1540.39 347.31 Q1538.77 348.479 1537.78 350.323 Q1536.8 352.127 1536.17 354.688 Q1535.53 357.23 1535.53 358.705 Q1535.53 360.734 1536.47 362.005 Q1537.42 363.276 1539.3 363.276 Q1539.67 363.276 1540.06 363.255 Q1540.47 363.235 1541.49 363.009 Q1542.54 362.784 1543.46 362.394 Q1544.38 362.005 1545.55 361.165 Q1546.74 360.304 1547.68 359.136 Q1548.01 358.705 1548.24 358.705 Q1548.42 358.705 1548.58 358.89 Z" fill="#000000" fill-rule="evenodd" fill-opacity="1" /><path clip-path="url(#clip140)" d="M 0 0 M1568.37 352.291 Q1568.37 354.525 1567.39 356.738 Q1566.41 358.931 1564.83 360.57 Q1563.27 362.19 1561.22 363.214 Q1559.17 364.218 1557.12 364.218 Q1554.19 364.218 1552.29 362.23 Q1550.4 360.222 1550.4 357.107 Q1550.4 354.197 1552.02 351.43 Q1553.66 348.643 1556.28 346.921 Q1558.91 345.199 1561.65 345.199 Q1564.54 345.199 1566.45 347.146 Q1568.37 349.093 1568.37 352.291 M1565.3 350.651 Q1565.3 348.663 1564.34 347.392 Q1563.37 346.122 1561.61 346.122 Q1561.1 346.122 1560.5 346.286 Q1559.91 346.429 1559.13 346.819 Q1558.37 347.208 1557.51 348.028 Q1556.67 348.827 1555.93 349.975 Q1554.97 351.491 1554.23 354.279 Q1553.52 357.045 1553.52 358.705 Q1553.52 361.001 1554.58 362.149 Q1555.65 363.276 1557.16 363.276 Q1558.64 363.276 1560.2 362.251 Q1561.77 361.206 1562.86 359.423 Q1563.95 357.578 1564.62 354.873 Q1565.3 352.147 1565.3 350.651 Z" fill="#000000" fill-rule="evenodd" fill-opacity="1" /><path clip-path="url(#clip140)" d="
M289.119 1410.9 L2352.76 1410.9 L2352.76 815.61 L289.119 815.61  Z
  " fill="#ffffff" fill-rule="evenodd" fill-opacity="1"/>
<defs>
  <clipPath id="clip143">
    <rect x="289" y="815" width="2065" height="596"/>
  </clipPath>
</defs>
<polyline clip-path="url(#clip143)" style="stroke:#000000; stroke-width:2; stroke-opacity:0.1; fill:none" points="
  347.524,1410.9 347.524,815.61 
  "/>
<polyline clip-path="url(#clip143)" style="stroke:#000000; stroke-width:2; stroke-opacity:0.1; fill:none" points="
  836.75,1410.9 836.75,815.61 
  "/>
<polyline clip-path="url(#clip143)" style="stroke:#000000; stroke-width:2; stroke-opacity:0.1; fill:none" points="
  1325.98,1410.9 1325.98,815.61 
  "/>
<polyline clip-path="url(#clip143)" style="stroke:#000000; stroke-width:2; stroke-opacity:0.1; fill:none" points="
  1815.2,1410.9 1815.2,815.61 
  "/>
<polyline clip-path="url(#clip143)" style="stroke:#000000; stroke-width:2; stroke-opacity:0.1; fill:none" points="
  2304.43,1410.9 2304.43,815.61 
  "/>
<polyline clip-path="url(#clip140)" style="stroke:#000000; stroke-width:4; stroke-opacity:1; fill:none" points="
  289.119,1410.9 2352.76,1410.9 
  "/>
<polyline clip-path="url(#clip140)" style="stroke:#000000; stroke-width:4; stroke-opacity:1; fill:none" points="
  347.524,1410.9 347.524,1403.75 
  "/>
<polyline clip-path="url(#clip140)" style="stroke:#000000; stroke-width:4; stroke-opacity:1; fill:none" points="
  836.75,1410.9 836.75,1403.75 
  "/>
<polyline clip-path="url(#clip140)" style="stroke:#000000; stroke-width:4; stroke-opacity:1; fill:none" points="
  1325.98,1410.9 1325.98,1403.75 
  "/>
<polyline clip-path="url(#clip140)" style="stroke:#000000; stroke-width:4; stroke-opacity:1; fill:none" points="
  1815.2,1410.9 1815.2,1403.75 
  "/>
<polyline clip-path="url(#clip140)" style="stroke:#000000; stroke-width:4; stroke-opacity:1; fill:none" points="
  2304.43,1410.9 2304.43,1403.75 
  "/>
<polyline clip-path="url(#clip140)" style="stroke:#000000; stroke-width:4; stroke-opacity:1; fill:none" points="
  454.797,1410.9 454.797,1407.32 
  "/>
<polyline clip-path="url(#clip140)" style="stroke:#000000; stroke-width:4; stroke-opacity:1; fill:none" points="
  556.913,1410.9 556.913,1407.32 
  "/>
<polyline clip-path="url(#clip140)" style="stroke:#000000; stroke-width:4; stroke-opacity:1; fill:none" points="
  654.345,1410.9 654.345,1407.32 
  "/>
<polyline clip-path="url(#clip140)" style="stroke:#000000; stroke-width:4; stroke-opacity:1; fill:none" points="
  747.505,1410.9 747.505,1407.32 
  "/>
<polyline clip-path="url(#clip140)" style="stroke:#000000; stroke-width:4; stroke-opacity:1; fill:none" points="
  944.023,1410.9 944.023,1407.32 
  "/>
<polyline clip-path="url(#clip140)" style="stroke:#000000; stroke-width:4; stroke-opacity:1; fill:none" points="
  1046.14,1410.9 1046.14,1407.32 
  "/>
<polyline clip-path="url(#clip140)" style="stroke:#000000; stroke-width:4; stroke-opacity:1; fill:none" points="
  1143.57,1410.9 1143.57,1407.32 
  "/>
<polyline clip-path="url(#clip140)" style="stroke:#000000; stroke-width:4; stroke-opacity:1; fill:none" points="
  1236.73,1410.9 1236.73,1407.32 
  "/>
<polyline clip-path="url(#clip140)" style="stroke:#000000; stroke-width:4; stroke-opacity:1; fill:none" points="
  1433.25,1410.9 1433.25,1407.32 
  "/>
<polyline clip-path="url(#clip140)" style="stroke:#000000; stroke-width:4; stroke-opacity:1; fill:none" points="
  1535.37,1410.9 1535.37,1407.32 
  "/>
<polyline clip-path="url(#clip140)" style="stroke:#000000; stroke-width:4; stroke-opacity:1; fill:none" points="
  1632.8,1410.9 1632.8,1407.32 
  "/>
<polyline clip-path="url(#clip140)" style="stroke:#000000; stroke-width:4; stroke-opacity:1; fill:none" points="
  1725.96,1410.9 1725.96,1407.32 
  "/>
<polyline clip-path="url(#clip140)" style="stroke:#000000; stroke-width:4; stroke-opacity:1; fill:none" points="
  1922.48,1410.9 1922.48,1407.32 
  "/>
<polyline clip-path="url(#clip140)" style="stroke:#000000; stroke-width:4; stroke-opacity:1; fill:none" points="
  2024.59,1410.9 2024.59,1407.32 
  "/>
<polyline clip-path="url(#clip140)" style="stroke:#000000; stroke-width:4; stroke-opacity:1; fill:none" points="
  2122.02,1410.9 2122.02,1407.32 
  "/>
<polyline clip-path="url(#clip140)" style="stroke:#000000; stroke-width:4; stroke-opacity:1; fill:none" points="
  2215.18,1410.9 2215.18,1407.32 
  "/>
<path clip-path="url(#clip140)" d="M 0 0 M294.273 1489.17 L301.912 1489.17 L301.912 1462.8 L293.602 1464.47 L293.602 1460.21 L301.865 1458.54 L306.541 1458.54 L306.541 1489.17 L314.18 1489.17 L314.18 1493.1 L294.273 1493.1 L294.273 1489.17 Z" fill="#000000" fill-rule="evenodd" fill-opacity="1" /><path clip-path="url(#clip140)" d="M 0 0 M333.625 1461.62 Q330.013 1461.62 328.185 1465.19 Q326.379 1468.73 326.379 1475.86 Q326.379 1482.97 328.185 1486.53 Q330.013 1490.07 333.625 1490.07 Q337.259 1490.07 339.064 1486.53 Q340.893 1482.97 340.893 1475.86 Q340.893 1468.73 339.064 1465.19 Q337.259 1461.62 333.625 1461.62 M333.625 1457.92 Q339.435 1457.92 342.49 1462.53 Q345.569 1467.11 345.569 1475.86 Q345.569 1484.59 342.49 1489.19 Q339.435 1493.78 333.625 1493.78 Q327.814 1493.78 324.736 1489.19 Q321.68 1484.59 321.68 1475.86 Q321.68 1467.11 324.736 1462.53 Q327.814 1457.92 333.625 1457.92 Z" fill="#000000" fill-rule="evenodd" fill-opacity="1" /><path clip-path="url(#clip140)" d="M 0 0 M350.139 1462.5 L363.399 1462.5 L363.399 1465.69 L345.569 1465.69 L345.569 1462.5 Q347.732 1460.26 351.456 1456.5 Q355.198 1452.72 356.158 1451.63 Q357.982 1449.58 358.697 1448.16 Q359.43 1446.74 359.43 1445.36 Q359.43 1443.12 357.85 1441.71 Q356.289 1440.3 353.769 1440.3 Q351.982 1440.3 349.989 1440.92 Q348.014 1441.54 345.757 1442.8 L345.757 1438.97 Q348.052 1438.05 350.045 1437.58 Q352.039 1437.11 353.694 1437.11 Q358.057 1437.11 360.653 1439.29 Q363.248 1441.47 363.248 1445.12 Q363.248 1446.85 362.59 1448.41 Q361.95 1449.95 360.239 1452.06 Q359.769 1452.6 357.249 1455.22 Q354.728 1457.81 350.139 1462.5 Z" fill="#000000" fill-rule="evenodd" fill-opacity="1" /><path clip-path="url(#clip140)" d="M 0 0 M371.373 1460.92 L375.342 1460.92 L375.342 1465.69 L371.373 1465.69 L371.373 1460.92 Z" fill="#000000" fill-rule="evenodd" fill-opacity="1" /><path clip-path="url(#clip140)" d="M 0 0 M391.742 1440.11 Q388.808 1440.11 387.322 1443.01 Q385.855 1445.89 385.855 1451.68 Q385.855 1457.46 387.322 1460.35 Q388.808 1463.23 391.742 1463.23 Q394.695 1463.23 396.162 1460.35 Q397.648 1457.46 397.648 1451.68 Q397.648 1445.89 396.162 1443.01 Q394.695 1440.11 391.742 1440.11 M391.742 1437.11 Q396.463 1437.11 398.945 1440.85 Q401.447 1444.57 401.447 1451.68 Q401.447 1458.77 398.945 1462.51 Q396.463 1466.24 391.742 1466.24 Q387.021 1466.24 384.52 1462.51 Q382.037 1458.77 382.037 1451.68 Q382.037 1444.57 384.52 1440.85 Q387.021 1437.11 391.742 1437.11 Z" fill="#000000" fill-rule="evenodd" fill-opacity="1" /><path clip-path="url(#clip140)" d="M 0 0 M783.998 1489.17 L791.636 1489.17 L791.636 1462.8 L783.326 1464.47 L783.326 1460.21 L791.59 1458.54 L796.266 1458.54 L796.266 1489.17 L803.905 1489.17 L803.905 1493.1 L783.998 1493.1 L783.998 1489.17 Z" fill="#000000" fill-rule="evenodd" fill-opacity="1" /><path clip-path="url(#clip140)" d="M 0 0 M823.349 1461.62 Q819.738 1461.62 817.909 1465.19 Q816.104 1468.73 816.104 1475.86 Q816.104 1482.97 817.909 1486.53 Q819.738 1490.07 823.349 1490.07 Q826.983 1490.07 828.789 1486.53 Q830.618 1482.97 830.618 1475.86 Q830.618 1468.73 828.789 1465.19 Q826.983 1461.62 823.349 1461.62 M823.349 1457.92 Q829.159 1457.92 832.215 1462.53 Q835.294 1467.11 835.294 1475.86 Q835.294 1484.59 832.215 1489.19 Q829.159 1493.78 823.349 1493.78 Q817.539 1493.78 814.46 1489.19 Q811.405 1484.59 811.405 1475.86 Q811.405 1467.11 814.46 1462.53 Q817.539 1457.92 823.349 1457.92 Z" fill="#000000" fill-rule="evenodd" fill-opacity="1" /><path clip-path="url(#clip140)" d="M 0 0 M839.864 1462.5 L853.123 1462.5 L853.123 1465.69 L835.294 1465.69 L835.294 1462.5 Q837.456 1460.26 841.18 1456.5 Q844.923 1452.72 845.882 1451.63 Q847.707 1449.58 848.421 1448.16 Q849.155 1446.74 849.155 1445.36 Q849.155 1443.12 847.575 1441.71 Q846.014 1440.3 843.494 1440.3 Q841.707 1440.3 839.713 1440.92 Q837.739 1441.54 835.482 1442.8 L835.482 1438.97 Q837.776 1438.05 839.77 1437.58 Q841.763 1437.11 843.418 1437.11 Q847.782 1437.11 850.377 1439.29 Q852.973 1441.47 852.973 1445.12 Q852.973 1446.85 852.315 1448.41 Q851.675 1449.95 849.964 1452.06 Q849.493 1452.6 846.973 1455.22 Q844.453 1457.81 839.864 1462.5 Z" fill="#000000" fill-rule="evenodd" fill-opacity="1" /><path clip-path="url(#clip140)" d="M 0 0 M861.098 1460.92 L865.066 1460.92 L865.066 1465.69 L861.098 1465.69 L861.098 1460.92 Z" fill="#000000" fill-rule="evenodd" fill-opacity="1" /><path clip-path="url(#clip140)" d="M 0 0 M874 1462.5 L880.206 1462.5 L880.206 1441.07 L873.454 1442.43 L873.454 1438.97 L880.169 1437.61 L883.968 1437.61 L883.968 1462.5 L890.175 1462.5 L890.175 1465.69 L874 1465.69 L874 1462.5 Z" fill="#000000" fill-rule="evenodd" fill-opacity="1" /><path clip-path="url(#clip140)" d="M 0 0 M1273.37 1489.17 L1281.01 1489.17 L1281.01 1462.8 L1272.7 1464.47 L1272.7 1460.21 L1280.97 1458.54 L1285.64 1458.54 L1285.64 1489.17 L1293.28 1489.17 L1293.28 1493.1 L1273.37 1493.1 L1273.37 1489.17 Z" fill="#000000" fill-rule="evenodd" fill-opacity="1" /><path clip-path="url(#clip140)" d="M 0 0 M1312.73 1461.62 Q1309.11 1461.62 1307.29 1465.19 Q1305.48 1468.73 1305.48 1475.86 Q1305.48 1482.97 1307.29 1486.53 Q1309.11 1490.07 1312.73 1490.07 Q1316.36 1490.07 1318.17 1486.53 Q1319.99 1482.97 1319.99 1475.86 Q1319.99 1468.73 1318.17 1465.19 Q1316.36 1461.62 1312.73 1461.62 M1312.73 1457.92 Q1318.54 1457.92 1321.59 1462.53 Q1324.67 1467.11 1324.67 1475.86 Q1324.67 1484.59 1321.59 1489.19 Q1318.54 1493.78 1312.73 1493.78 Q1306.92 1493.78 1303.84 1489.19 Q1300.78 1484.59 1300.78 1475.86 Q1300.78 1467.11 1303.84 1462.53 Q1306.92 1457.92 1312.73 1457.92 Z" fill="#000000" fill-rule="evenodd" fill-opacity="1" /><path clip-path="url(#clip140)" d="M 0 0 M1329.24 1462.5 L1342.5 1462.5 L1342.5 1465.69 L1324.67 1465.69 L1324.67 1462.5 Q1326.83 1460.26 1330.56 1456.5 Q1334.3 1452.72 1335.26 1451.63 Q1337.08 1449.58 1337.8 1448.16 Q1338.53 1446.74 1338.53 1445.36 Q1338.53 1443.12 1336.95 1441.71 Q1335.39 1440.3 1332.87 1440.3 Q1331.08 1440.3 1329.09 1440.92 Q1327.12 1441.54 1324.86 1442.8 L1324.86 1438.97 Q1327.15 1438.05 1329.15 1437.58 Q1331.14 1437.11 1332.8 1437.11 Q1337.16 1437.11 1339.75 1439.29 Q1342.35 1441.47 1342.35 1445.12 Q1342.35 1446.85 1341.69 1448.41 Q1341.05 1449.95 1339.34 1452.06 Q1338.87 1452.6 1336.35 1455.22 Q1333.83 1457.81 1329.24 1462.5 Z" fill="#000000" fill-rule="evenodd" fill-opacity="1" /><path clip-path="url(#clip140)" d="M 0 0 M1350.47 1460.92 L1354.44 1460.92 L1354.44 1465.69 L1350.47 1465.69 L1350.47 1460.92 Z" fill="#000000" fill-rule="evenodd" fill-opacity="1" /><path clip-path="url(#clip140)" d="M 0 0 M1365.99 1462.5 L1379.25 1462.5 L1379.25 1465.69 L1361.42 1465.69 L1361.42 1462.5 Q1363.58 1460.26 1367.31 1456.5 Q1371.05 1452.72 1372.01 1451.63 Q1373.83 1449.58 1374.55 1448.16 Q1375.28 1446.74 1375.28 1445.36 Q1375.28 1443.12 1373.7 1441.71 Q1372.14 1440.3 1369.62 1440.3 Q1367.83 1440.3 1365.84 1440.92 Q1363.87 1441.54 1361.61 1442.8 L1361.61 1438.97 Q1363.9 1438.05 1365.9 1437.58 Q1367.89 1437.11 1369.55 1437.11 Q1373.91 1437.11 1376.5 1439.29 Q1379.1 1441.47 1379.1 1445.12 Q1379.1 1446.85 1378.44 1448.41 Q1377.8 1449.95 1376.09 1452.06 Q1375.62 1452.6 1373.1 1455.22 Q1370.58 1457.81 1365.99 1462.5 Z" fill="#000000" fill-rule="evenodd" fill-opacity="1" /><path clip-path="url(#clip140)" d="M 0 0 M1762.21 1489.17 L1769.85 1489.17 L1769.85 1462.8 L1761.54 1464.47 L1761.54 1460.21 L1769.81 1458.54 L1774.48 1458.54 L1774.48 1489.17 L1782.12 1489.17 L1782.12 1493.1 L1762.21 1493.1 L1762.21 1489.17 Z" fill="#000000" fill-rule="evenodd" fill-opacity="1" /><path clip-path="url(#clip140)" d="M 0 0 M1801.57 1461.62 Q1797.96 1461.62 1796.13 1465.19 Q1794.32 1468.73 1794.32 1475.86 Q1794.32 1482.97 1796.13 1486.53 Q1797.96 1490.07 1801.57 1490.07 Q1805.2 1490.07 1807.01 1486.53 Q1808.84 1482.97 1808.84 1475.86 Q1808.84 1468.73 1807.01 1465.19 Q1805.2 1461.62 1801.57 1461.62 M1801.57 1457.92 Q1807.38 1457.92 1810.43 1462.53 Q1813.51 1467.11 1813.51 1475.86 Q1813.51 1484.59 1810.43 1489.19 Q1807.38 1493.78 1801.57 1493.78 Q1795.76 1493.78 1792.68 1489.19 Q1789.62 1484.59 1789.62 1475.86 Q1789.62 1467.11 1792.68 1462.53 Q1795.76 1457.92 1801.57 1457.92 Z" fill="#000000" fill-rule="evenodd" fill-opacity="1" /><path clip-path="url(#clip140)" d="M 0 0 M1818.08 1462.5 L1831.34 1462.5 L1831.34 1465.69 L1813.51 1465.69 L1813.51 1462.5 Q1815.67 1460.26 1819.4 1456.5 Q1823.14 1452.72 1824.1 1451.63 Q1825.92 1449.58 1826.64 1448.16 Q1827.37 1446.74 1827.37 1445.36 Q1827.37 1443.12 1825.79 1441.71 Q1824.23 1440.3 1821.71 1440.3 Q1819.92 1440.3 1817.93 1440.92 Q1815.96 1441.54 1813.7 1442.8 L1813.7 1438.97 Q1815.99 1438.05 1817.99 1437.58 Q1819.98 1437.11 1821.64 1437.11 Q1826 1437.11 1828.59 1439.29 Q1831.19 1441.47 1831.19 1445.12 Q1831.19 1446.85 1830.53 1448.41 Q1829.89 1449.95 1828.18 1452.06 Q1827.71 1452.6 1825.19 1455.22 Q1822.67 1457.81 1818.08 1462.5 Z" fill="#000000" fill-rule="evenodd" fill-opacity="1" /><path clip-path="url(#clip140)" d="M 0 0 M1839.32 1460.92 L1843.28 1460.92 L1843.28 1465.69 L1839.32 1465.69 L1839.32 1460.92 Z" fill="#000000" fill-rule="evenodd" fill-opacity="1" /><path clip-path="url(#clip140)" d="M 0 0 M1863.07 1450.55 Q1865.8 1451.14 1867.32 1452.98 Q1868.86 1454.82 1868.86 1457.53 Q1868.86 1461.69 1866 1463.96 Q1863.14 1466.24 1857.88 1466.24 Q1856.11 1466.24 1854.23 1465.88 Q1852.37 1465.54 1850.37 1464.85 L1850.37 1461.18 Q1851.95 1462.1 1853.83 1462.57 Q1855.72 1463.04 1857.77 1463.04 Q1861.34 1463.04 1863.2 1461.63 Q1865.08 1460.22 1865.08 1457.53 Q1865.08 1455.05 1863.33 1453.66 Q1861.6 1452.25 1858.5 1452.25 L1855.23 1452.25 L1855.23 1449.12 L1858.65 1449.12 Q1861.45 1449.12 1862.94 1448.01 Q1864.42 1446.89 1864.42 1444.78 Q1864.42 1442.62 1862.88 1441.47 Q1861.36 1440.3 1858.5 1440.3 Q1856.94 1440.3 1855.15 1440.64 Q1853.36 1440.98 1851.22 1441.69 L1851.22 1438.31 Q1853.38 1437.71 1855.26 1437.41 Q1857.16 1437.11 1858.84 1437.11 Q1863.16 1437.11 1865.68 1439.08 Q1868.2 1441.04 1868.2 1444.38 Q1868.2 1446.72 1866.87 1448.33 Q1865.53 1449.93 1863.07 1450.55 Z" fill="#000000" fill-rule="evenodd" fill-opacity="1" /><path clip-path="url(#clip140)" d="M 0 0 M2250.98 1489.17 L2258.62 1489.17 L2258.62 1462.8 L2250.31 1464.47 L2250.31 1460.21 L2258.57 1458.54 L2263.25 1458.54 L2263.25 1489.17 L2270.89 1489.17 L2270.89 1493.1 L2250.98 1493.1 L2250.98 1489.17 Z" fill="#000000" fill-rule="evenodd" fill-opacity="1" /><path clip-path="url(#clip140)" d="M 0 0 M2290.33 1461.62 Q2286.72 1461.62 2284.89 1465.19 Q2283.09 1468.73 2283.09 1475.86 Q2283.09 1482.97 2284.89 1486.53 Q2286.72 1490.07 2290.33 1490.07 Q2293.97 1490.07 2295.77 1486.53 Q2297.6 1482.97 2297.6 1475.86 Q2297.6 1468.73 2295.77 1465.19 Q2293.97 1461.62 2290.33 1461.62 M2290.33 1457.92 Q2296.14 1457.92 2299.2 1462.53 Q2302.28 1467.11 2302.28 1475.86 Q2302.28 1484.59 2299.2 1489.19 Q2296.14 1493.78 2290.33 1493.78 Q2284.52 1493.78 2281.44 1489.19 Q2278.39 1484.59 2278.39 1475.86 Q2278.39 1467.11 2281.44 1462.53 Q2284.52 1457.92 2290.33 1457.92 Z" fill="#000000" fill-rule="evenodd" fill-opacity="1" /><path clip-path="url(#clip140)" d="M 0 0 M2306.85 1462.5 L2320.11 1462.5 L2320.11 1465.69 L2302.28 1465.69 L2302.28 1462.5 Q2304.44 1460.26 2308.16 1456.5 Q2311.91 1452.72 2312.87 1451.63 Q2314.69 1449.58 2315.4 1448.16 Q2316.14 1446.74 2316.14 1445.36 Q2316.14 1443.12 2314.56 1441.71 Q2313 1440.3 2310.48 1440.3 Q2308.69 1440.3 2306.7 1440.92 Q2304.72 1441.54 2302.46 1442.8 L2302.46 1438.97 Q2304.76 1438.05 2306.75 1437.58 Q2308.75 1437.11 2310.4 1437.11 Q2314.76 1437.11 2317.36 1439.29 Q2319.96 1441.47 2319.96 1445.12 Q2319.96 1446.85 2319.3 1448.41 Q2318.66 1449.95 2316.95 1452.06 Q2316.48 1452.6 2313.96 1455.22 Q2311.44 1457.81 2306.85 1462.5 Z" fill="#000000" fill-rule="evenodd" fill-opacity="1" /><path clip-path="url(#clip140)" d="M 0 0 M2328.08 1460.92 L2332.05 1460.92 L2332.05 1465.69 L2328.08 1465.69 L2328.08 1460.92 Z" fill="#000000" fill-rule="evenodd" fill-opacity="1" /><path clip-path="url(#clip140)" d="M 0 0 M2350.76 1440.92 L2341.17 1455.91 L2350.76 1455.91 L2350.76 1440.92 M2349.77 1437.61 L2354.54 1437.61 L2354.54 1455.91 L2358.55 1455.91 L2358.55 1459.07 L2354.54 1459.07 L2354.54 1465.69 L2350.76 1465.69 L2350.76 1459.07 L2338.09 1459.07 L2338.09 1455.41 L2349.77 1437.61 Z" fill="#000000" fill-rule="evenodd" fill-opacity="1" /><path clip-path="url(#clip140)" d="M 0 0 M1311.23 1575.11 Q1298.02 1575.11 1298.02 1556.2 Q1298.02 1548.72 1302.95 1538.54 L1309.26 1538.54 Q1304.71 1548.72 1304.71 1556.36 Q1304.71 1570.14 1311.77 1570.14 Q1318.23 1570.14 1318.23 1553.02 L1323.64 1553.02 Q1323.64 1570.14 1330.1 1570.14 Q1337.17 1570.14 1337.17 1556.36 Q1337.17 1548.72 1332.62 1538.54 L1338.92 1538.54 Q1343.85 1548.72 1343.85 1556.2 Q1343.85 1575.11 1330.65 1575.11 Q1321.99 1575.11 1320.94 1565.59 Q1319.63 1575.11 1311.23 1575.11 Z" fill="#000000" fill-rule="evenodd" fill-opacity="1" /><polyline clip-path="url(#clip143)" style="stroke:#000000; stroke-width:2; stroke-opacity:0.1; fill:none" points="
  289.119,1297.25 2352.76,1297.25 
  "/>
<polyline clip-path="url(#clip143)" style="stroke:#000000; stroke-width:2; stroke-opacity:0.1; fill:none" points="
  289.119,1171.38 2352.76,1171.38 
  "/>
<polyline clip-path="url(#clip143)" style="stroke:#000000; stroke-width:2; stroke-opacity:0.1; fill:none" points="
  289.119,1045.5 2352.76,1045.5 
  "/>
<polyline clip-path="url(#clip143)" style="stroke:#000000; stroke-width:2; stroke-opacity:0.1; fill:none" points="
  289.119,919.626 2352.76,919.626 
  "/>
<polyline clip-path="url(#clip140)" style="stroke:#000000; stroke-width:4; stroke-opacity:1; fill:none" points="
  289.119,1410.9 289.119,815.61 
  "/>
<polyline clip-path="url(#clip140)" style="stroke:#000000; stroke-width:4; stroke-opacity:1; fill:none" points="
  289.119,1297.25 313.883,1297.25 
  "/>
<polyline clip-path="url(#clip140)" style="stroke:#000000; stroke-width:4; stroke-opacity:1; fill:none" points="
  289.119,1171.38 313.883,1171.38 
  "/>
<polyline clip-path="url(#clip140)" style="stroke:#000000; stroke-width:4; stroke-opacity:1; fill:none" points="
  289.119,1045.5 313.883,1045.5 
  "/>
<polyline clip-path="url(#clip140)" style="stroke:#000000; stroke-width:4; stroke-opacity:1; fill:none" points="
  289.119,919.626 313.883,919.626 
  "/>
<polyline clip-path="url(#clip140)" style="stroke:#000000; stroke-width:4; stroke-opacity:1; fill:none" points="
  289.119,1397.95 301.501,1397.95 
  "/>
<polyline clip-path="url(#clip140)" style="stroke:#000000; stroke-width:4; stroke-opacity:1; fill:none" points="
  289.119,1372.78 301.501,1372.78 
  "/>
<polyline clip-path="url(#clip140)" style="stroke:#000000; stroke-width:4; stroke-opacity:1; fill:none" points="
  289.119,1347.6 301.501,1347.6 
  "/>
<polyline clip-path="url(#clip140)" style="stroke:#000000; stroke-width:4; stroke-opacity:1; fill:none" points="
  289.119,1322.43 301.501,1322.43 
  "/>
<polyline clip-path="url(#clip140)" style="stroke:#000000; stroke-width:4; stroke-opacity:1; fill:none" points="
  289.119,1272.08 301.501,1272.08 
  "/>
<polyline clip-path="url(#clip140)" style="stroke:#000000; stroke-width:4; stroke-opacity:1; fill:none" points="
  289.119,1246.9 301.501,1246.9 
  "/>
<polyline clip-path="url(#clip140)" style="stroke:#000000; stroke-width:4; stroke-opacity:1; fill:none" points="
  289.119,1221.73 301.501,1221.73 
  "/>
<polyline clip-path="url(#clip140)" style="stroke:#000000; stroke-width:4; stroke-opacity:1; fill:none" points="
  289.119,1196.55 301.501,1196.55 
  "/>
<polyline clip-path="url(#clip140)" style="stroke:#000000; stroke-width:4; stroke-opacity:1; fill:none" points="
  289.119,1146.2 301.501,1146.2 
  "/>
<polyline clip-path="url(#clip140)" style="stroke:#000000; stroke-width:4; stroke-opacity:1; fill:none" points="
  289.119,1121.03 301.501,1121.03 
  "/>
<polyline clip-path="url(#clip140)" style="stroke:#000000; stroke-width:4; stroke-opacity:1; fill:none" points="
  289.119,1095.85 301.501,1095.85 
  "/>
<polyline clip-path="url(#clip140)" style="stroke:#000000; stroke-width:4; stroke-opacity:1; fill:none" points="
  289.119,1070.68 301.501,1070.68 
  "/>
<polyline clip-path="url(#clip140)" style="stroke:#000000; stroke-width:4; stroke-opacity:1; fill:none" points="
  289.119,1020.33 301.501,1020.33 
  "/>
<polyline clip-path="url(#clip140)" style="stroke:#000000; stroke-width:4; stroke-opacity:1; fill:none" points="
  289.119,995.151 301.501,995.151 
  "/>
<polyline clip-path="url(#clip140)" style="stroke:#000000; stroke-width:4; stroke-opacity:1; fill:none" points="
  289.119,969.976 301.501,969.976 
  "/>
<polyline clip-path="url(#clip140)" style="stroke:#000000; stroke-width:4; stroke-opacity:1; fill:none" points="
  289.119,944.801 301.501,944.801 
  "/>
<polyline clip-path="url(#clip140)" style="stroke:#000000; stroke-width:4; stroke-opacity:1; fill:none" points="
  289.119,894.451 301.501,894.451 
  "/>
<polyline clip-path="url(#clip140)" style="stroke:#000000; stroke-width:4; stroke-opacity:1; fill:none" points="
  289.119,869.276 301.501,869.276 
  "/>
<polyline clip-path="url(#clip140)" style="stroke:#000000; stroke-width:4; stroke-opacity:1; fill:none" points="
  289.119,844.101 301.501,844.101 
  "/>
<polyline clip-path="url(#clip140)" style="stroke:#000000; stroke-width:4; stroke-opacity:1; fill:none" points="
  289.119,818.926 301.501,818.926 
  "/>
<path clip-path="url(#clip140)" d="M 0 0 M131.083 1297.7 L160.759 1297.7 L160.759 1301.64 L131.083 1301.64 L131.083 1297.7 Z" fill="#000000" fill-rule="evenodd" fill-opacity="1" /><path clip-path="url(#clip140)" d="M 0 0 M174.879 1310.6 L191.198 1310.6 L191.198 1314.53 L169.254 1314.53 L169.254 1310.6 Q171.916 1307.84 176.499 1303.21 Q181.106 1298.56 182.286 1297.22 Q184.532 1294.69 185.411 1292.96 Q186.314 1291.2 186.314 1289.51 Q186.314 1286.75 184.37 1285.02 Q182.448 1283.28 179.347 1283.28 Q177.148 1283.28 174.694 1284.04 Q172.263 1284.81 169.486 1286.36 L169.486 1281.64 Q172.31 1280.5 174.763 1279.92 Q177.217 1279.35 179.254 1279.35 Q184.624 1279.35 187.819 1282.03 Q191.013 1284.72 191.013 1289.21 Q191.013 1291.34 190.203 1293.26 Q189.416 1295.16 187.31 1297.75 Q186.731 1298.42 183.629 1301.64 Q180.527 1304.83 174.879 1310.6 Z" fill="#000000" fill-rule="evenodd" fill-opacity="1" /><path clip-path="url(#clip140)" d="M 0 0 M205.041 1310.6 L221.36 1310.6 L221.36 1314.53 L199.416 1314.53 L199.416 1310.6 Q202.078 1307.84 206.661 1303.21 Q211.268 1298.56 212.448 1297.22 Q214.694 1294.69 215.573 1292.96 Q216.476 1291.2 216.476 1289.51 Q216.476 1286.75 214.532 1285.02 Q212.61 1283.28 209.508 1283.28 Q207.309 1283.28 204.856 1284.04 Q202.425 1284.81 199.647 1286.36 L199.647 1281.64 Q202.471 1280.5 204.925 1279.92 Q207.379 1279.35 209.416 1279.35 Q214.786 1279.35 217.981 1282.03 Q221.175 1284.72 221.175 1289.21 Q221.175 1291.34 220.365 1293.26 Q219.578 1295.16 217.471 1297.75 Q216.893 1298.42 213.791 1301.64 Q210.689 1304.83 205.041 1310.6 Z" fill="#000000" fill-rule="evenodd" fill-opacity="1" /><path clip-path="url(#clip140)" d="M 0 0 M241.175 1283.05 Q237.564 1283.05 235.735 1286.61 Q233.93 1290.16 233.93 1297.29 Q233.93 1304.39 235.735 1307.96 Q237.564 1311.5 241.175 1311.5 Q244.809 1311.5 246.615 1307.96 Q248.443 1304.39 248.443 1297.29 Q248.443 1290.16 246.615 1286.61 Q244.809 1283.05 241.175 1283.05 M241.175 1279.35 Q246.985 1279.35 250.041 1283.95 Q253.119 1288.54 253.119 1297.29 Q253.119 1306.01 250.041 1310.62 Q246.985 1315.2 241.175 1315.2 Q235.365 1315.2 232.286 1310.62 Q229.231 1306.01 229.231 1297.29 Q229.231 1288.54 232.286 1283.95 Q235.365 1279.35 241.175 1279.35 Z" fill="#000000" fill-rule="evenodd" fill-opacity="1" /><path clip-path="url(#clip140)" d="M 0 0 M131.083 1171.83 L160.759 1171.83 L160.759 1175.76 L131.083 1175.76 L131.083 1171.83 Z" fill="#000000" fill-rule="evenodd" fill-opacity="1" /><path clip-path="url(#clip140)" d="M 0 0 M174.879 1184.72 L191.198 1184.72 L191.198 1188.66 L169.254 1188.66 L169.254 1184.72 Q171.916 1181.97 176.499 1177.34 Q181.106 1172.68 182.286 1171.34 Q184.532 1168.82 185.411 1167.08 Q186.314 1165.32 186.314 1163.63 Q186.314 1160.88 184.37 1159.14 Q182.448 1157.41 179.347 1157.41 Q177.148 1157.41 174.694 1158.17 Q172.263 1158.93 169.486 1160.48 L169.486 1155.76 Q172.31 1154.63 174.763 1154.05 Q177.217 1153.47 179.254 1153.47 Q184.624 1153.47 187.819 1156.16 Q191.013 1158.84 191.013 1163.33 Q191.013 1165.46 190.203 1167.38 Q189.416 1169.28 187.31 1171.87 Q186.731 1172.54 183.629 1175.76 Q180.527 1178.96 174.879 1184.72 Z" fill="#000000" fill-rule="evenodd" fill-opacity="1" /><path clip-path="url(#clip140)" d="M 0 0 M211.013 1157.17 Q207.402 1157.17 205.573 1160.74 Q203.768 1164.28 203.768 1171.41 Q203.768 1178.52 205.573 1182.08 Q207.402 1185.62 211.013 1185.62 Q214.647 1185.62 216.453 1182.08 Q218.282 1178.52 218.282 1171.41 Q218.282 1164.28 216.453 1160.74 Q214.647 1157.17 211.013 1157.17 M211.013 1153.47 Q216.823 1153.47 219.879 1158.08 Q222.957 1162.66 222.957 1171.41 Q222.957 1180.14 219.879 1184.74 Q216.823 1189.33 211.013 1189.33 Q205.203 1189.33 202.124 1184.74 Q199.069 1180.14 199.069 1171.41 Q199.069 1162.66 202.124 1158.08 Q205.203 1153.47 211.013 1153.47 Z" fill="#000000" fill-rule="evenodd" fill-opacity="1" /><path clip-path="url(#clip140)" d="M 0 0 M241.175 1157.17 Q237.564 1157.17 235.735 1160.74 Q233.93 1164.28 233.93 1171.41 Q233.93 1178.52 235.735 1182.08 Q237.564 1185.62 241.175 1185.62 Q244.809 1185.62 246.615 1182.08 Q248.443 1178.52 248.443 1171.41 Q248.443 1164.28 246.615 1160.74 Q244.809 1157.17 241.175 1157.17 M241.175 1153.47 Q246.985 1153.47 250.041 1158.08 Q253.119 1162.66 253.119 1171.41 Q253.119 1180.14 250.041 1184.74 Q246.985 1189.33 241.175 1189.33 Q235.365 1189.33 232.286 1184.74 Q229.231 1180.14 229.231 1171.41 Q229.231 1162.66 232.286 1158.08 Q235.365 1153.47 241.175 1153.47 Z" fill="#000000" fill-rule="evenodd" fill-opacity="1" /><path clip-path="url(#clip140)" d="M 0 0 M131.083 1045.95 L160.759 1045.95 L160.759 1049.89 L131.083 1049.89 L131.083 1045.95 Z" fill="#000000" fill-rule="evenodd" fill-opacity="1" /><path clip-path="url(#clip140)" d="M 0 0 M171.661 1058.85 L179.3 1058.85 L179.3 1032.48 L170.99 1034.15 L170.99 1029.89 L179.254 1028.22 L183.93 1028.22 L183.93 1058.85 L191.569 1058.85 L191.569 1062.78 L171.661 1062.78 L171.661 1058.85 Z" fill="#000000" fill-rule="evenodd" fill-opacity="1" /><path clip-path="url(#clip140)" d="M 0 0 M211.013 1046.37 Q207.68 1046.37 205.759 1048.15 Q203.86 1049.93 203.86 1053.06 Q203.86 1056.18 205.759 1057.97 Q207.68 1059.75 211.013 1059.75 Q214.346 1059.75 216.268 1057.97 Q218.189 1056.16 218.189 1053.06 Q218.189 1049.93 216.268 1048.15 Q214.37 1046.37 211.013 1046.37 M206.337 1044.38 Q203.328 1043.64 201.638 1041.58 Q199.972 1039.52 199.972 1036.55 Q199.972 1032.41 202.911 1030 Q205.874 1027.6 211.013 1027.6 Q216.175 1027.6 219.115 1030 Q222.055 1032.41 222.055 1036.55 Q222.055 1039.52 220.365 1041.58 Q218.698 1043.64 215.712 1044.38 Q219.092 1045.17 220.967 1047.46 Q222.865 1049.75 222.865 1053.06 Q222.865 1058.08 219.786 1060.77 Q216.731 1063.45 211.013 1063.45 Q205.296 1063.45 202.217 1060.77 Q199.161 1058.08 199.161 1053.06 Q199.161 1049.75 201.059 1047.46 Q202.958 1045.17 206.337 1044.38 M204.624 1036.99 Q204.624 1039.68 206.291 1041.18 Q207.981 1042.69 211.013 1042.69 Q214.022 1042.69 215.712 1041.18 Q217.425 1039.68 217.425 1036.99 Q217.425 1034.31 215.712 1032.8 Q214.022 1031.3 211.013 1031.3 Q207.981 1031.3 206.291 1032.8 Q204.624 1034.31 204.624 1036.99 Z" fill="#000000" fill-rule="evenodd" fill-opacity="1" /><path clip-path="url(#clip140)" d="M 0 0 M241.175 1031.3 Q237.564 1031.3 235.735 1034.86 Q233.93 1038.41 233.93 1045.54 Q233.93 1052.64 235.735 1056.21 Q237.564 1059.75 241.175 1059.75 Q244.809 1059.75 246.615 1056.21 Q248.443 1052.64 248.443 1045.54 Q248.443 1038.41 246.615 1034.86 Q244.809 1031.3 241.175 1031.3 M241.175 1027.6 Q246.985 1027.6 250.041 1032.2 Q253.119 1036.79 253.119 1045.54 Q253.119 1054.26 250.041 1058.87 Q246.985 1063.45 241.175 1063.45 Q235.365 1063.45 232.286 1058.87 Q229.231 1054.26 229.231 1045.54 Q229.231 1036.79 232.286 1032.2 Q235.365 1027.6 241.175 1027.6 Z" fill="#000000" fill-rule="evenodd" fill-opacity="1" /><path clip-path="url(#clip140)" d="M 0 0 M131.083 920.077 L160.759 920.077 L160.759 924.013 L131.083 924.013 L131.083 920.077 Z" fill="#000000" fill-rule="evenodd" fill-opacity="1" /><path clip-path="url(#clip140)" d="M 0 0 M171.661 932.971 L179.3 932.971 L179.3 906.605 L170.99 908.272 L170.99 904.013 L179.254 902.346 L183.93 902.346 L183.93 932.971 L191.569 932.971 L191.569 936.906 L171.661 936.906 L171.661 932.971 Z" fill="#000000" fill-rule="evenodd" fill-opacity="1" /><path clip-path="url(#clip140)" d="M 0 0 M211.592 917.763 Q208.444 917.763 206.592 919.915 Q204.763 922.068 204.763 925.818 Q204.763 929.545 206.592 931.721 Q208.444 933.874 211.592 933.874 Q214.74 933.874 216.569 931.721 Q218.42 929.545 218.42 925.818 Q218.42 922.068 216.569 919.915 Q214.74 917.763 211.592 917.763 M220.874 903.11 L220.874 907.369 Q219.115 906.536 217.309 906.096 Q215.527 905.656 213.768 905.656 Q209.138 905.656 206.684 908.781 Q204.254 911.906 203.907 918.226 Q205.272 916.212 207.333 915.147 Q209.393 914.059 211.87 914.059 Q217.078 914.059 220.087 917.23 Q223.12 920.378 223.12 925.818 Q223.12 931.142 219.971 934.36 Q216.823 937.577 211.592 937.577 Q205.596 937.577 202.425 932.994 Q199.254 928.388 199.254 919.661 Q199.254 911.466 203.143 906.605 Q207.032 901.721 213.583 901.721 Q215.342 901.721 217.124 902.068 Q218.93 902.416 220.874 903.11 Z" fill="#000000" fill-rule="evenodd" fill-opacity="1" /><path clip-path="url(#clip140)" d="M 0 0 M241.175 905.425 Q237.564 905.425 235.735 908.99 Q233.93 912.531 233.93 919.661 Q233.93 926.767 235.735 930.332 Q237.564 933.874 241.175 933.874 Q244.809 933.874 246.615 930.332 Q248.443 926.767 248.443 919.661 Q248.443 912.531 246.615 908.99 Q244.809 905.425 241.175 905.425 M241.175 901.721 Q246.985 901.721 250.041 906.328 Q253.119 910.911 253.119 919.661 Q253.119 928.388 250.041 932.994 Q246.985 937.577 241.175 937.577 Q235.365 937.577 232.286 932.994 Q229.231 928.388 229.231 919.661 Q229.231 910.911 232.286 906.328 Q235.365 901.721 241.175 901.721 Z" fill="#000000" fill-rule="evenodd" fill-opacity="1" /><path clip-path="url(#clip140)" d="M 0 0 M49.9215 1108.27 Q49.9215 1110.34 54.5366 1110.34 L76.371 1110.34 Q76.371 1107.32 73.0608 1104.29 Q70.1008 1101.59 63.003 1101.59 Q56.3827 1101.59 52.8179 1104.33 Q49.9215 1106.55 49.9215 1108.27 M44.9244 1108.27 Q44.9244 1103.82 49.1258 1099.77 Q53.6136 1095.41 63.003 1095.41 Q71.6285 1095.41 76.7529 1099.77 Q81.5909 1103.88 81.5909 1110.34 L94.3859 1110.34 L94.3859 1116.17 L81.6227 1116.17 Q81.6227 1122.5 76.7529 1126.76 Q71.7877 1131.09 63.0348 1131.09 Q53.9319 1131.09 49.2849 1126.76 Q45.8156 1123.52 44.9244 1118.23 L50.1124 1118.23 Q50.8445 1120.34 53.3271 1122.18 Q56.9874 1124.92 63.0348 1124.92 Q69.4642 1124.92 73.1245 1122.18 Q76.4028 1119.73 76.4028 1116.17 L54.5366 1116.17 Q44.9244 1116.17 44.9244 1108.27 Z" fill="#000000" fill-rule="evenodd" fill-opacity="1" /><polyline clip-path="url(#clip143)" style="stroke:#009af9; stroke-width:8; stroke-opacity:1; fill:none" points="
  347.524,832.458 367.189,835.877 386.854,839.327 406.519,842.808 426.184,846.32 445.849,849.864 465.514,853.439 485.179,857.046 504.844,860.686 524.508,864.359 
  544.173,868.064 563.838,871.803 583.503,875.575 603.168,879.382 622.833,883.222 642.498,887.098 662.163,891.008 681.828,894.953 701.493,898.935 721.158,902.952 
  740.823,907.005 760.487,911.095 780.152,915.222 799.817,919.387 819.482,923.589 839.147,927.829 858.812,932.108 878.477,936.426 898.142,940.782 917.807,945.179 
  937.472,949.615 957.137,954.091 976.802,958.608 996.466,963.167 1016.13,967.766 1035.8,972.408 1055.46,977.092 1075.13,981.819 1094.79,986.588 1114.46,991.401 
  1134.12,996.258 1153.79,1001.16 1173.45,1006.11 1193.12,1011.1 1212.78,1016.13 1232.45,1021.22 1252.11,1026.35 1271.78,1031.52 1291.44,1036.74 1311.11,1042.02 
  1330.77,1047.34 1350.44,1052.7 1370.1,1058.12 1389.76,1063.59 1409.43,1069.1 1429.09,1074.67 1448.76,1080.29 1468.42,1085.96 1488.09,1091.68 1507.75,1097.46 
  1527.42,1103.28 1547.08,1109.16 1566.75,1115.1 1586.41,1121.09 1606.08,1127.13 1625.74,1133.23 1645.41,1139.39 1665.07,1145.6 1684.74,1151.87 1704.4,1158.2 
  1724.07,1164.58 1743.73,1171.03 1763.4,1177.53 1783.06,1184.09 1802.73,1190.72 1822.39,1197.4 1842.06,1204.15 1861.72,1210.96 1881.39,1217.83 1901.05,1224.76 
  1920.72,1231.76 1940.38,1238.82 1960.05,1245.95 1979.71,1253.14 1999.38,1260.4 2019.04,1267.73 2038.71,1275.12 2058.37,1282.59 2078.04,1290.12 2097.7,1297.72 
  2117.37,1305.39 2137.03,1313.13 2156.7,1320.94 2176.36,1328.83 2196.03,1336.79 2215.69,1344.82 2235.36,1352.92 2255.02,1361.1 2274.69,1369.36 2294.35,1377.69 
  
  "/>
<polyline clip-path="url(#clip143)" style="stroke:#ff0000; stroke-width:4; stroke-opacity:1; fill:none" points="
  347.524,1045.5 1324.01,1045.5 1324.01,1394.05 
  "/>
<path clip-path="url(#clip140)" d="M 0 0 M1363.71 1037.39 Q1363.71 1039.64 1362.48 1044.62 Q1361.25 1049.6 1359.76 1052.99 Q1356.57 1060.37 1351.06 1060.37 Q1350.39 1060.37 1349.72 1060.31 Q1349.07 1060.25 1348.11 1059.99 Q1347.14 1059.73 1346.35 1059.32 Q1345.56 1058.88 1344.77 1058.06 Q1344.01 1057.24 1343.57 1056.16 Q1341.14 1060.37 1337.33 1060.37 Q1333.64 1060.37 1331.21 1058.5 Q1328.81 1056.62 1328.81 1052.79 Q1328.81 1051.06 1329.51 1048.51 Q1330.22 1045.97 1332.18 1040.7 Q1333.26 1037.97 1333.26 1036.48 Q1333.26 1035.81 1333.12 1035.37 Q1332.97 1034.93 1332.68 1034.78 Q1332.41 1034.61 1332.24 1034.58 Q1332.06 1034.52 1331.77 1034.52 Q1330.01 1034.52 1328.43 1036.31 Q1326.85 1038.06 1325.71 1041.96 Q1325.47 1042.69 1325.33 1042.86 Q1325.18 1043.04 1324.74 1043.04 Q1324.01 1043.01 1324.01 1042.42 Q1324.01 1042.19 1324.27 1041.28 Q1324.54 1040.35 1325.15 1038.97 Q1325.8 1037.56 1326.67 1036.31 Q1327.55 1035.02 1328.93 1034.11 Q1330.33 1033.2 1331.94 1033.2 Q1334.11 1033.2 1335.49 1034.64 Q1336.86 1036.07 1336.86 1038.12 Q1336.86 1038.71 1336.72 1039.35 Q1336.57 1039.97 1336.42 1040.38 Q1336.31 1040.76 1335.84 1041.96 Q1333.91 1047.02 1333.29 1049.45 Q1332.71 1051.88 1332.71 1053.58 Q1332.71 1054.14 1332.73 1054.58 Q1332.76 1055.01 1333 1055.92 Q1333.26 1056.83 1333.73 1057.44 Q1334.2 1058.03 1335.16 1058.53 Q1336.16 1059.03 1337.51 1059.03 Q1340.87 1059.03 1343.04 1053.99 Q1342.98 1053.7 1342.98 1052.94 Q1342.98 1051.24 1343.51 1048.95 Q1343.66 1048.43 1344.5 1045.06 Q1345.35 1041.66 1346.09 1038.71 Q1346.85 1035.72 1346.93 1035.54 Q1347.23 1034.72 1347.87 1034.29 Q1348.52 1033.85 1349.16 1033.85 Q1349.89 1033.85 1350.39 1034.29 Q1350.89 1034.72 1350.89 1035.49 Q1350.89 1035.63 1350.71 1036.31 Q1350.57 1036.95 1350.33 1037.92 Q1350.1 1038.88 1349.98 1039.38 L1347.46 1049.45 Q1346.82 1051.79 1346.82 1053.81 Q1346.82 1056.36 1347.96 1057.71 Q1349.1 1059.03 1351.24 1059.03 Q1355.25 1059.03 1357.83 1053.76 Q1359 1051.47 1360.05 1047.9 Q1361.13 1044.33 1361.13 1042.78 Q1361.13 1039.85 1358.97 1037.68 Q1358.5 1037.27 1358.29 1036.95 Q1358.09 1036.6 1358.09 1036.07 Q1358.09 1035.08 1359.03 1034.14 Q1359.96 1033.2 1361.08 1033.2 Q1362.07 1033.2 1362.89 1034.2 Q1363.71 1035.16 1363.71 1037.39 Z" fill="#000000" fill-rule="evenodd" fill-opacity="1" /><path clip-path="url(#clip140)" d="M 0 0 M1385.89 1066.54 Q1386.06 1066.72 1386.06 1066.91 Q1386.06 1067.09 1385.65 1067.62 Q1385.26 1068.16 1384.42 1068.87 Q1383.58 1069.59 1382.49 1070.27 Q1381.4 1070.94 1379.81 1071.4 Q1378.21 1071.87 1376.53 1071.87 Q1373.39 1071.87 1371.55 1069.8 Q1369.72 1067.73 1369.72 1064.76 Q1369.72 1061.87 1371.34 1059.1 Q1372.96 1056.31 1375.58 1054.59 Q1378.21 1052.85 1380.97 1052.85 Q1383.17 1052.85 1384.54 1053.87 Q1385.91 1054.9 1385.91 1056.45 Q1385.91 1057.66 1385.22 1058.4 Q1384.52 1059.14 1383.58 1059.14 Q1382.92 1059.14 1382.47 1058.77 Q1382.02 1058.38 1382.02 1057.66 Q1382.02 1056.74 1382.78 1056.02 Q1383.06 1055.74 1383.39 1055.61 Q1383.74 1055.47 1383.95 1055.47 Q1384.15 1055.45 1384.62 1055.45 Q1384.19 1054.65 1383.17 1054.22 Q1382.16 1053.77 1381.01 1053.77 Q1379.31 1053.77 1377.69 1054.96 Q1376.08 1056.13 1375.09 1057.97 Q1374.11 1059.78 1373.47 1062.34 Q1372.84 1064.88 1372.84 1066.35 Q1372.84 1068.38 1373.78 1069.65 Q1374.72 1070.92 1376.61 1070.92 Q1376.98 1070.92 1377.37 1070.9 Q1377.78 1070.88 1378.8 1070.66 Q1379.85 1070.43 1380.77 1070.04 Q1381.69 1069.65 1382.86 1068.81 Q1384.05 1067.95 1384.99 1066.78 Q1385.32 1066.35 1385.54 1066.35 Q1385.73 1066.35 1385.89 1066.54 Z" fill="#000000" fill-rule="evenodd" fill-opacity="1" /><path clip-path="url(#clip140)" d="M 0 0 M1405.68 1059.94 Q1405.68 1062.17 1404.7 1064.39 Q1403.71 1066.58 1402.14 1068.22 Q1400.58 1069.84 1398.53 1070.86 Q1396.48 1071.87 1394.43 1071.87 Q1391.5 1071.87 1389.59 1069.88 Q1387.71 1067.87 1387.71 1064.76 Q1387.71 1061.85 1389.33 1059.08 Q1390.97 1056.29 1393.59 1054.57 Q1396.21 1052.85 1398.96 1052.85 Q1401.85 1052.85 1403.76 1054.79 Q1405.68 1056.74 1405.68 1059.94 M1402.61 1058.3 Q1402.61 1056.31 1401.64 1055.04 Q1400.68 1053.77 1398.92 1053.77 Q1398.41 1053.77 1397.81 1053.93 Q1397.22 1054.08 1396.44 1054.47 Q1395.68 1054.86 1394.82 1055.68 Q1393.98 1056.48 1393.24 1057.62 Q1392.28 1059.14 1391.54 1061.93 Q1390.82 1064.69 1390.82 1066.35 Q1390.82 1068.65 1391.89 1069.8 Q1392.95 1070.92 1394.47 1070.92 Q1395.95 1070.92 1397.5 1069.9 Q1399.08 1068.85 1400.17 1067.07 Q1401.25 1065.23 1401.93 1062.52 Q1402.61 1059.8 1402.61 1058.3 Z" fill="#000000" fill-rule="evenodd" fill-opacity="1" /><path clip-path="url(#clip140)" d="M 0 0 M1415.11 1058.73 Q1414.27 1057.77 1414.27 1056.51 Q1414.27 1055.25 1415.08 1054.31 Q1415.93 1053.35 1417.46 1053.35 Q1419.24 1053.35 1420.27 1055.07 Q1421.29 1056.77 1421.29 1059.64 Q1421.29 1062.74 1420.03 1065.61 Q1418.77 1068.51 1417.54 1069.89 Q1416.31 1071.26 1415.82 1071.26 Q1415.23 1071.26 1415.23 1070.62 Q1415.23 1070.39 1415.64 1069.95 Q1419.95 1065.32 1419.97 1059.64 Q1419.97 1058.73 1419.86 1058.73 L1419.71 1058.85 Q1418.69 1059.7 1417.46 1059.7 Q1415.96 1059.7 1415.11 1058.73 Z" fill="#000000" fill-rule="evenodd" fill-opacity="1" /><path clip-path="url(#clip140)" d="M 0 0 M1496.44 1043.86 Q1496.79 1044.21 1496.79 1044.71 Q1496.79 1045.21 1496.44 1045.56 Q1496.09 1045.91 1495.59 1045.91 L1458.05 1045.91 Q1457.56 1045.91 1457.2 1045.56 Q1456.85 1045.21 1456.85 1044.71 Q1456.85 1044.21 1457.2 1043.86 Q1457.56 1043.51 1458.05 1043.51 L1495.59 1043.51 Q1496.09 1043.51 1496.44 1043.86 Z" fill="#000000" fill-rule="evenodd" fill-opacity="1" /><path clip-path="url(#clip140)" d="M 0 0 M1519.69 1025.47 L1519.69 1023.6 Q1526.89 1023.6 1530.61 1019.76 Q1531.63 1019.76 1531.81 1020 Q1531.98 1020.23 1531.98 1021.32 L1531.98 1054.96 Q1531.98 1056.74 1532.86 1057.3 Q1533.74 1057.85 1537.58 1057.85 L1539.48 1057.85 L1539.48 1059.7 Q1537.37 1059.52 1529.76 1059.52 Q1522.15 1059.52 1520.07 1059.7 L1520.07 1057.85 L1521.97 1057.85 Q1525.75 1057.85 1526.66 1057.33 Q1527.56 1056.77 1527.56 1054.96 L1527.56 1023.89 Q1524.43 1025.47 1519.69 1025.47 Z" fill="#000000" fill-rule="evenodd" fill-opacity="1" /><path clip-path="url(#clip140)" d="M 0 0 M1545.01 1050.65 Q1545.01 1043.95 1553.64 1039.61 Q1549.93 1037.1 1549.25 1036.36 Q1546.62 1033.44 1546.62 1029.78 Q1546.62 1025.59 1549.78 1022.69 Q1552.97 1019.76 1557.48 1019.76 Q1561.78 1019.76 1565.03 1022.25 Q1568.28 1024.74 1568.28 1028.69 Q1568.28 1034.26 1561.02 1038 Q1565.82 1040.99 1566.97 1042.25 Q1569.89 1045.5 1569.89 1049.63 Q1569.89 1054.43 1566.21 1057.74 Q1562.52 1061.02 1557.42 1061.02 Q1552.44 1061.02 1548.73 1058.12 Q1545.01 1055.22 1545.01 1050.65 M1547.99 1050.65 Q1547.99 1054.37 1550.78 1056.86 Q1553.59 1059.35 1557.48 1059.35 Q1561.26 1059.35 1564.07 1057.18 Q1566.91 1055.01 1566.91 1051.79 Q1566.91 1050.53 1566.47 1049.45 Q1566.06 1048.37 1565.21 1047.52 Q1564.39 1046.64 1563.86 1046.26 Q1563.37 1045.85 1562.4 1045.18 L1555.02 1040.52 Q1547.99 1044.42 1547.99 1050.65 M1549.25 1027.43 Q1549.25 1030.3 1552.27 1032.29 L1559.71 1037.1 Q1565.65 1033.61 1565.65 1028.69 Q1565.65 1025.5 1563.22 1023.39 Q1560.79 1021.26 1557.42 1021.26 Q1554.11 1021.26 1551.68 1023.01 Q1549.25 1024.74 1549.25 1027.43 Z" fill="#000000" fill-rule="evenodd" fill-opacity="1" /><path clip-path="url(#clip140)" d="M 0 0 M1574.7 1040.52 Q1574.7 1031.71 1576.93 1026.91 Q1580.03 1019.76 1587.35 1019.76 Q1588.9 1019.76 1590.51 1020.2 Q1592.15 1020.61 1594.2 1022.22 Q1596.28 1023.83 1597.54 1026.47 Q1599.94 1031.56 1599.94 1040.52 Q1599.94 1049.28 1597.72 1054.05 Q1594.47 1061.02 1587.29 1061.02 Q1584.6 1061.02 1581.85 1059.64 Q1579.12 1058.26 1577.4 1054.96 Q1574.7 1050.01 1574.7 1040.52 M1579.68 1039.79 Q1579.68 1048.84 1580.32 1052.44 Q1581.06 1056.33 1583.05 1058.03 Q1585.07 1059.7 1587.29 1059.7 Q1589.69 1059.7 1591.68 1057.91 Q1593.7 1056.1 1594.32 1052.2 Q1594.99 1048.37 1594.96 1039.79 Q1594.96 1031.45 1594.38 1028.11 Q1593.59 1024.21 1591.48 1022.66 Q1589.4 1021.08 1587.29 1021.08 Q1586.5 1021.08 1585.65 1021.32 Q1584.83 1021.55 1583.63 1022.22 Q1582.43 1022.9 1581.5 1024.57 Q1580.59 1026.23 1580.15 1028.75 Q1579.68 1032 1579.68 1039.79 Z" fill="#000000" fill-rule="evenodd" fill-opacity="1" /><path clip-path="url(#clip140)" d="M 0 0 M1604.4 1025.41 Q1604.4 1022.66 1606.33 1020.7 Q1608.29 1018.74 1611.04 1018.74 Q1613.86 1018.74 1615.76 1020.73 Q1617.69 1022.69 1617.69 1025.33 Q1617.69 1028.08 1615.7 1030.04 Q1613.74 1032 1611.04 1032 Q1608.23 1032 1606.3 1030.04 Q1604.4 1028.05 1604.4 1025.41 M1608.06 1022.37 Q1606.8 1023.6 1606.8 1025.41 Q1606.8 1027.2 1608.06 1028.4 Q1609.32 1029.6 1611.04 1029.6 Q1612.77 1029.6 1614 1028.4 Q1615.23 1027.2 1615.23 1025.41 Q1615.23 1023.6 1613.97 1022.37 Q1612.71 1021.14 1611.04 1021.14 Q1609.32 1021.14 1608.06 1022.37 Z" fill="#000000" fill-rule="evenodd" fill-opacity="1" /></svg>
