<?xml version="1.0" encoding="utf-8"?>
<svg xmlns="http://www.w3.org/2000/svg" xmlns:xlink="http://www.w3.org/1999/xlink" width="600" height="400" viewBox="0 0 2400 1600">
<defs>
  <clipPath id="clip010">
    <rect x="0" y="0" width="2400" height="1600"/>
  </clipPath>
</defs>
<path clip-path="url(#clip010)" d="
M0 1600 L2400 1600 L2400 0 L0 0  Z
  " fill="#ffffff" fill-rule="evenodd" fill-opacity="1"/>
<defs>
  <clipPath id="clip011">
    <rect x="480" y="0" width="1681" height="1600"/>
  </clipPath>
</defs>
<path clip-path="url(#clip010)" d="
M289.119 642.531 L2352.76 642.531 L2352.76 47.2441 L289.119 47.2441  Z
  " fill="#ffffff" fill-rule="evenodd" fill-opacity="1"/>
<defs>
  <clipPath id="clip012">
    <rect x="289" y="47" width="2065" height="596"/>
  </clipPath>
</defs>
<polyline clip-path="url(#clip012)" style="stroke:#000000; stroke-width:2; stroke-opacity:0.1; fill:none" points="
  347.524,642.531 347.524,47.2441 
  "/>
<polyline clip-path="url(#clip012)" style="stroke:#000000; stroke-width:2; stroke-opacity:0.1; fill:none" points="
  834.231,642.531 834.231,47.2441 
  "/>
<polyline clip-path="url(#clip012)" style="stroke:#000000; stroke-width:2; stroke-opacity:0.1; fill:none" points="
  1320.94,642.531 1320.94,47.2441 
  "/>
<polyline clip-path="url(#clip012)" style="stroke:#000000; stroke-width:2; stroke-opacity:0.1; fill:none" points="
  1807.64,642.531 1807.64,47.2441 
  "/>
<polyline clip-path="url(#clip012)" style="stroke:#000000; stroke-width:2; stroke-opacity:0.1; fill:none" points="
  2294.35,642.531 2294.35,47.2441 
  "/>
<polyline clip-path="url(#clip010)" style="stroke:#000000; stroke-width:4; stroke-opacity:1; fill:none" points="
  289.119,642.531 2352.76,642.531 
  "/>
<polyline clip-path="url(#clip010)" style="stroke:#000000; stroke-width:4; stroke-opacity:1; fill:none" points="
  347.524,642.531 347.524,635.387 
  "/>
<polyline clip-path="url(#clip010)" style="stroke:#000000; stroke-width:4; stroke-opacity:1; fill:none" points="
  834.231,642.531 834.231,635.387 
  "/>
<polyline clip-path="url(#clip010)" style="stroke:#000000; stroke-width:4; stroke-opacity:1; fill:none" points="
  1320.94,642.531 1320.94,635.387 
  "/>
<polyline clip-path="url(#clip010)" style="stroke:#000000; stroke-width:4; stroke-opacity:1; fill:none" points="
  1807.64,642.531 1807.64,635.387 
  "/>
<polyline clip-path="url(#clip010)" style="stroke:#000000; stroke-width:4; stroke-opacity:1; fill:none" points="
  2294.35,642.531 2294.35,635.387 
  "/>
<polyline clip-path="url(#clip010)" style="stroke:#000000; stroke-width:4; stroke-opacity:1; fill:none" points="
  305.577,642.531 305.577,638.959 
  "/>
<polyline clip-path="url(#clip010)" style="stroke:#000000; stroke-width:4; stroke-opacity:1; fill:none" points="
  565.159,642.531 565.159,638.959 
  "/>
<polyline clip-path="url(#clip010)" style="stroke:#000000; stroke-width:4; stroke-opacity:1; fill:none" points="
  670.093,642.531 670.093,638.959 
  "/>
<polyline clip-path="url(#clip010)" style="stroke:#000000; stroke-width:4; stroke-opacity:1; fill:none" points="
  739.897,642.531 739.897,638.959 
  "/>
<polyline clip-path="url(#clip010)" style="stroke:#000000; stroke-width:4; stroke-opacity:1; fill:none" points="
  792.284,642.531 792.284,638.959 
  "/>
<polyline clip-path="url(#clip010)" style="stroke:#000000; stroke-width:4; stroke-opacity:1; fill:none" points="
  1051.87,642.531 1051.87,638.959 
  "/>
<polyline clip-path="url(#clip010)" style="stroke:#000000; stroke-width:4; stroke-opacity:1; fill:none" points="
  1156.8,642.531 1156.8,638.959 
  "/>
<polyline clip-path="url(#clip010)" style="stroke:#000000; stroke-width:4; stroke-opacity:1; fill:none" points="
  1226.6,642.531 1226.6,638.959 
  "/>
<polyline clip-path="url(#clip010)" style="stroke:#000000; stroke-width:4; stroke-opacity:1; fill:none" points="
  1278.99,642.531 1278.99,638.959 
  "/>
<polyline clip-path="url(#clip010)" style="stroke:#000000; stroke-width:4; stroke-opacity:1; fill:none" points="
  1538.57,642.531 1538.57,638.959 
  "/>
<polyline clip-path="url(#clip010)" style="stroke:#000000; stroke-width:4; stroke-opacity:1; fill:none" points="
  1643.51,642.531 1643.51,638.959 
  "/>
<polyline clip-path="url(#clip010)" style="stroke:#000000; stroke-width:4; stroke-opacity:1; fill:none" points="
  1713.31,642.531 1713.31,638.959 
  "/>
<polyline clip-path="url(#clip010)" style="stroke:#000000; stroke-width:4; stroke-opacity:1; fill:none" points="
  1765.7,642.531 1765.7,638.959 
  "/>
<polyline clip-path="url(#clip010)" style="stroke:#000000; stroke-width:4; stroke-opacity:1; fill:none" points="
  2025.28,642.531 2025.28,638.959 
  "/>
<polyline clip-path="url(#clip010)" style="stroke:#000000; stroke-width:4; stroke-opacity:1; fill:none" points="
  2130.21,642.531 2130.21,638.959 
  "/>
<polyline clip-path="url(#clip010)" style="stroke:#000000; stroke-width:4; stroke-opacity:1; fill:none" points="
  2200.02,642.531 2200.02,638.959 
  "/>
<polyline clip-path="url(#clip010)" style="stroke:#000000; stroke-width:4; stroke-opacity:1; fill:none" points="
  2252.4,642.531 2252.4,638.959 
  "/>
<path clip-path="url(#clip010)" d="M 0 0 M297.79 720.803 L305.429 720.803 L305.429 694.437 L297.119 696.104 L297.119 691.845 L305.382 690.178 L310.058 690.178 L310.058 720.803 L317.697 720.803 L317.697 724.738 L297.79 724.738 L297.79 720.803 Z" fill="#000000" fill-rule="evenodd" fill-opacity="1" /><path clip-path="url(#clip010)" d="M 0 0 M337.142 693.257 Q333.53 693.257 331.702 696.821 Q329.896 700.363 329.896 707.493 Q329.896 714.599 331.702 718.164 Q333.53 721.705 337.142 721.705 Q340.776 721.705 342.581 718.164 Q344.41 714.599 344.41 707.493 Q344.41 700.363 342.581 696.821 Q340.776 693.257 337.142 693.257 M337.142 689.553 Q342.952 689.553 346.007 694.159 Q349.086 698.743 349.086 707.493 Q349.086 716.219 346.007 720.826 Q342.952 725.409 337.142 725.409 Q331.331 725.409 328.253 720.826 Q325.197 716.219 325.197 707.493 Q325.197 698.743 328.253 694.159 Q331.331 689.553 337.142 689.553 Z" fill="#000000" fill-rule="evenodd" fill-opacity="1" /><path clip-path="url(#clip010)" d="M 0 0 M349.086 683.654 L373.198 683.654 L373.198 686.852 L349.086 686.852 L349.086 683.654 Z" fill="#000000" fill-rule="evenodd" fill-opacity="1" /><path clip-path="url(#clip010)" d="M 0 0 M384.67 694.13 L397.93 694.13 L397.93 697.327 L380.1 697.327 L380.1 694.13 Q382.263 691.892 385.987 688.13 Q389.73 684.35 390.689 683.259 Q392.513 681.209 393.228 679.799 Q393.961 678.369 393.961 676.996 Q393.961 674.758 392.381 673.348 Q390.82 671.937 388.3 671.937 Q386.513 671.937 384.52 672.558 Q382.545 673.178 380.288 674.438 L380.288 670.602 Q382.583 669.68 384.576 669.21 Q386.57 668.74 388.225 668.74 Q392.588 668.74 395.184 670.921 Q397.779 673.103 397.779 676.752 Q397.779 678.482 397.121 680.043 Q396.482 681.585 394.77 683.692 Q394.3 684.237 391.78 686.852 Q389.259 689.447 384.67 694.13 Z" fill="#000000" fill-rule="evenodd" fill-opacity="1" /><path clip-path="url(#clip010)" d="M 0 0 M784.346 720.803 L791.985 720.803 L791.985 694.437 L783.675 696.104 L783.675 691.845 L791.939 690.178 L796.615 690.178 L796.615 720.803 L804.253 720.803 L804.253 724.738 L784.346 724.738 L784.346 720.803 Z" fill="#000000" fill-rule="evenodd" fill-opacity="1" /><path clip-path="url(#clip010)" d="M 0 0 M823.698 693.257 Q820.087 693.257 818.258 696.821 Q816.452 700.363 816.452 707.493 Q816.452 714.599 818.258 718.164 Q820.087 721.705 823.698 721.705 Q827.332 721.705 829.138 718.164 Q830.966 714.599 830.966 707.493 Q830.966 700.363 829.138 696.821 Q827.332 693.257 823.698 693.257 M823.698 689.553 Q829.508 689.553 832.564 694.159 Q835.642 698.743 835.642 707.493 Q835.642 716.219 832.564 720.826 Q829.508 725.409 823.698 725.409 Q817.888 725.409 814.809 720.826 Q811.753 716.219 811.753 707.493 Q811.753 698.743 814.809 694.159 Q817.888 689.553 823.698 689.553 Z" fill="#000000" fill-rule="evenodd" fill-opacity="1" /><path clip-path="url(#clip010)" d="M 0 0 M835.642 683.654 L859.754 683.654 L859.754 686.852 L835.642 686.852 L835.642 683.654 Z" fill="#000000" fill-rule="evenodd" fill-opacity="1" /><path clip-path="url(#clip010)" d="M 0 0 M868.612 694.13 L874.819 694.13 L874.819 672.708 L868.067 674.062 L868.067 670.602 L874.781 669.247 L878.58 669.247 L878.58 694.13 L884.787 694.13 L884.787 697.327 L868.612 697.327 L868.612 694.13 Z" fill="#000000" fill-rule="evenodd" fill-opacity="1" /><path clip-path="url(#clip010)" d="M 0 0 M1285.92 720.803 L1293.56 720.803 L1293.56 694.437 L1285.25 696.104 L1285.25 691.845 L1293.51 690.178 L1298.19 690.178 L1298.19 720.803 L1305.83 720.803 L1305.83 724.738 L1285.92 724.738 L1285.92 720.803 Z" fill="#000000" fill-rule="evenodd" fill-opacity="1" /><path clip-path="url(#clip010)" d="M 0 0 M1325.27 693.257 Q1321.66 693.257 1319.83 696.821 Q1318.03 700.363 1318.03 707.493 Q1318.03 714.599 1319.83 718.164 Q1321.66 721.705 1325.27 721.705 Q1328.91 721.705 1330.71 718.164 Q1332.54 714.599 1332.54 707.493 Q1332.54 700.363 1330.71 696.821 Q1328.91 693.257 1325.27 693.257 M1325.27 689.553 Q1331.08 689.553 1334.14 694.159 Q1337.22 698.743 1337.22 707.493 Q1337.22 716.219 1334.14 720.826 Q1331.08 725.409 1325.27 725.409 Q1319.46 725.409 1316.38 720.826 Q1313.33 716.219 1313.33 707.493 Q1313.33 698.743 1316.38 694.159 Q1319.46 689.553 1325.27 689.553 Z" fill="#000000" fill-rule="evenodd" fill-opacity="1" /><path clip-path="url(#clip010)" d="M 0 0 M1346.92 671.749 Q1343.99 671.749 1342.5 674.645 Q1341.03 677.523 1341.03 683.316 Q1341.03 689.09 1342.5 691.986 Q1343.99 694.864 1346.92 694.864 Q1349.87 694.864 1351.34 691.986 Q1352.83 689.09 1352.83 683.316 Q1352.83 677.523 1351.34 674.645 Q1349.87 671.749 1346.92 671.749 M1346.92 668.74 Q1351.64 668.74 1354.12 672.482 Q1356.63 676.206 1356.63 683.316 Q1356.63 690.406 1354.12 694.149 Q1351.64 697.873 1346.92 697.873 Q1342.2 697.873 1339.7 694.149 Q1337.22 690.406 1337.22 683.316 Q1337.22 676.206 1339.7 672.482 Q1342.2 668.74 1346.92 668.74 Z" fill="#000000" fill-rule="evenodd" fill-opacity="1" /><path clip-path="url(#clip010)" d="M 0 0 M1773.97 720.803 L1781.61 720.803 L1781.61 694.437 L1773.3 696.104 L1773.3 691.845 L1781.56 690.178 L1786.24 690.178 L1786.24 720.803 L1793.88 720.803 L1793.88 724.738 L1773.97 724.738 L1773.97 720.803 Z" fill="#000000" fill-rule="evenodd" fill-opacity="1" /><path clip-path="url(#clip010)" d="M 0 0 M1813.32 693.257 Q1809.71 693.257 1807.88 696.821 Q1806.08 700.363 1806.08 707.493 Q1806.08 714.599 1807.88 718.164 Q1809.71 721.705 1813.32 721.705 Q1816.96 721.705 1818.76 718.164 Q1820.59 714.599 1820.59 707.493 Q1820.59 700.363 1818.76 696.821 Q1816.96 693.257 1813.32 693.257 M1813.32 689.553 Q1819.13 689.553 1822.19 694.159 Q1825.27 698.743 1825.27 707.493 Q1825.27 716.219 1822.19 720.826 Q1819.13 725.409 1813.32 725.409 Q1807.51 725.409 1804.43 720.826 Q1801.38 716.219 1801.38 707.493 Q1801.38 698.743 1804.43 694.159 Q1807.51 689.553 1813.32 689.553 Z" fill="#000000" fill-rule="evenodd" fill-opacity="1" /><path clip-path="url(#clip010)" d="M 0 0 M1825.81 694.13 L1832.02 694.13 L1832.02 672.708 L1825.27 674.062 L1825.27 670.602 L1831.98 669.247 L1835.78 669.247 L1835.78 694.13 L1841.99 694.13 L1841.99 697.327 L1825.81 697.327 L1825.81 694.13 Z" fill="#000000" fill-rule="evenodd" fill-opacity="1" /><path clip-path="url(#clip010)" d="M 0 0 M2260.12 720.803 L2267.76 720.803 L2267.76 694.437 L2259.45 696.104 L2259.45 691.845 L2267.72 690.178 L2272.39 690.178 L2272.39 720.803 L2280.03 720.803 L2280.03 724.738 L2260.12 724.738 L2260.12 720.803 Z" fill="#000000" fill-rule="evenodd" fill-opacity="1" /><path clip-path="url(#clip010)" d="M 0 0 M2299.48 693.257 Q2295.86 693.257 2294.04 696.821 Q2292.23 700.363 2292.23 707.493 Q2292.23 714.599 2294.04 718.164 Q2295.86 721.705 2299.48 721.705 Q2303.11 721.705 2304.92 718.164 Q2306.74 714.599 2306.74 707.493 Q2306.74 700.363 2304.92 696.821 Q2303.11 693.257 2299.48 693.257 M2299.48 689.553 Q2305.29 689.553 2308.34 694.159 Q2311.42 698.743 2311.42 707.493 Q2311.42 716.219 2308.34 720.826 Q2305.29 725.409 2299.48 725.409 Q2293.67 725.409 2290.59 720.826 Q2287.53 716.219 2287.53 707.493 Q2287.53 698.743 2290.59 694.159 Q2293.67 689.553 2299.48 689.553 Z" fill="#000000" fill-rule="evenodd" fill-opacity="1" /><path clip-path="url(#clip010)" d="M 0 0 M2315.99 694.13 L2329.25 694.13 L2329.25 697.327 L2311.42 697.327 L2311.42 694.13 Q2313.58 691.892 2317.31 688.13 Q2321.05 684.35 2322.01 683.259 Q2323.83 681.209 2324.55 679.799 Q2325.28 678.369 2325.28 676.996 Q2325.28 674.758 2323.7 673.348 Q2322.14 671.937 2319.62 671.937 Q2317.83 671.937 2315.84 672.558 Q2313.86 673.178 2311.61 674.438 L2311.61 670.602 Q2313.9 669.68 2315.9 669.21 Q2317.89 668.74 2319.54 668.74 Q2323.91 668.74 2326.5 670.921 Q2329.1 673.103 2329.1 676.752 Q2329.1 678.482 2328.44 680.043 Q2327.8 681.585 2326.09 683.692 Q2325.62 684.237 2323.1 686.852 Q2320.58 689.447 2315.99 694.13 Z" fill="#000000" fill-rule="evenodd" fill-opacity="1" /><polyline clip-path="url(#clip012)" style="stroke:#000000; stroke-width:2; stroke-opacity:0.1; fill:none" points="
  289.119,537.992 2352.76,537.992 
  "/>
<polyline clip-path="url(#clip012)" style="stroke:#000000; stroke-width:2; stroke-opacity:0.1; fill:none" points="
  289.119,419.512 2352.76,419.512 
  "/>
<polyline clip-path="url(#clip012)" style="stroke:#000000; stroke-width:2; stroke-opacity:0.1; fill:none" points="
  289.119,301.032 2352.76,301.032 
  "/>
<polyline clip-path="url(#clip012)" style="stroke:#000000; stroke-width:2; stroke-opacity:0.1; fill:none" points="
  289.119,182.552 2352.76,182.552 
  "/>
<polyline clip-path="url(#clip012)" style="stroke:#000000; stroke-width:2; stroke-opacity:0.1; fill:none" points="
  289.119,64.0712 2352.76,64.0712 
  "/>
<polyline clip-path="url(#clip010)" style="stroke:#000000; stroke-width:4; stroke-opacity:1; fill:none" points="
  289.119,642.531 289.119,47.2441 
  "/>
<polyline clip-path="url(#clip010)" style="stroke:#000000; stroke-width:4; stroke-opacity:1; fill:none" points="
  289.119,537.992 313.883,537.992 
  "/>
<polyline clip-path="url(#clip010)" style="stroke:#000000; stroke-width:4; stroke-opacity:1; fill:none" points="
  289.119,419.512 313.883,419.512 
  "/>
<polyline clip-path="url(#clip010)" style="stroke:#000000; stroke-width:4; stroke-opacity:1; fill:none" points="
  289.119,301.032 313.883,301.032 
  "/>
<polyline clip-path="url(#clip010)" style="stroke:#000000; stroke-width:4; stroke-opacity:1; fill:none" points="
  289.119,182.552 313.883,182.552 
  "/>
<polyline clip-path="url(#clip010)" style="stroke:#000000; stroke-width:4; stroke-opacity:1; fill:none" points="
  289.119,64.0712 313.883,64.0712 
  "/>
<polyline clip-path="url(#clip010)" style="stroke:#000000; stroke-width:4; stroke-opacity:1; fill:none" points="
  289.119,619.488 301.501,619.488 
  "/>
<polyline clip-path="url(#clip010)" style="stroke:#000000; stroke-width:4; stroke-opacity:1; fill:none" points="
  289.119,592.337 301.501,592.337 
  "/>
<polyline clip-path="url(#clip010)" style="stroke:#000000; stroke-width:4; stroke-opacity:1; fill:none" points="
  289.119,570.875 301.501,570.875 
  "/>
<polyline clip-path="url(#clip010)" style="stroke:#000000; stroke-width:4; stroke-opacity:1; fill:none" points="
  289.119,553.126 301.501,553.126 
  "/>
<polyline clip-path="url(#clip010)" style="stroke:#000000; stroke-width:4; stroke-opacity:1; fill:none" points="
  289.119,501.007 301.501,501.007 
  "/>
<polyline clip-path="url(#clip010)" style="stroke:#000000; stroke-width:4; stroke-opacity:1; fill:none" points="
  289.119,473.857 301.501,473.857 
  "/>
<polyline clip-path="url(#clip010)" style="stroke:#000000; stroke-width:4; stroke-opacity:1; fill:none" points="
  289.119,452.395 301.501,452.395 
  "/>
<polyline clip-path="url(#clip010)" style="stroke:#000000; stroke-width:4; stroke-opacity:1; fill:none" points="
  289.119,434.646 301.501,434.646 
  "/>
<polyline clip-path="url(#clip010)" style="stroke:#000000; stroke-width:4; stroke-opacity:1; fill:none" points="
  289.119,382.527 301.501,382.527 
  "/>
<polyline clip-path="url(#clip010)" style="stroke:#000000; stroke-width:4; stroke-opacity:1; fill:none" points="
  289.119,355.377 301.501,355.377 
  "/>
<polyline clip-path="url(#clip010)" style="stroke:#000000; stroke-width:4; stroke-opacity:1; fill:none" points="
  289.119,333.915 301.501,333.915 
  "/>
<polyline clip-path="url(#clip010)" style="stroke:#000000; stroke-width:4; stroke-opacity:1; fill:none" points="
  289.119,316.165 301.501,316.165 
  "/>
<polyline clip-path="url(#clip010)" style="stroke:#000000; stroke-width:4; stroke-opacity:1; fill:none" points="
  289.119,264.047 301.501,264.047 
  "/>
<polyline clip-path="url(#clip010)" style="stroke:#000000; stroke-width:4; stroke-opacity:1; fill:none" points="
  289.119,236.897 301.501,236.897 
  "/>
<polyline clip-path="url(#clip010)" style="stroke:#000000; stroke-width:4; stroke-opacity:1; fill:none" points="
  289.119,215.434 301.501,215.434 
  "/>
<polyline clip-path="url(#clip010)" style="stroke:#000000; stroke-width:4; stroke-opacity:1; fill:none" points="
  289.119,197.685 301.501,197.685 
  "/>
<polyline clip-path="url(#clip010)" style="stroke:#000000; stroke-width:4; stroke-opacity:1; fill:none" points="
  289.119,145.566 301.501,145.566 
  "/>
<polyline clip-path="url(#clip010)" style="stroke:#000000; stroke-width:4; stroke-opacity:1; fill:none" points="
  289.119,118.416 301.501,118.416 
  "/>
<polyline clip-path="url(#clip010)" style="stroke:#000000; stroke-width:4; stroke-opacity:1; fill:none" points="
  289.119,96.9542 301.501,96.9542 
  "/>
<polyline clip-path="url(#clip010)" style="stroke:#000000; stroke-width:4; stroke-opacity:1; fill:none" points="
  289.119,79.2049 301.501,79.2049 
  "/>
<path clip-path="url(#clip010)" d="M 0 0 M114.931 557.785 L122.57 557.785 L122.57 531.419 L114.26 533.086 L114.26 528.827 L122.524 527.16 L127.2 527.16 L127.2 557.785 L134.839 557.785 L134.839 561.72 L114.931 561.72 L114.931 557.785 Z" fill="#000000" fill-rule="evenodd" fill-opacity="1" /><path clip-path="url(#clip010)" d="M 0 0 M154.283 530.239 Q150.672 530.239 148.843 533.803 Q147.038 537.345 147.038 544.475 Q147.038 551.581 148.843 555.146 Q150.672 558.688 154.283 558.688 Q157.917 558.688 159.723 555.146 Q161.552 551.581 161.552 544.475 Q161.552 537.345 159.723 533.803 Q157.917 530.239 154.283 530.239 M154.283 526.535 Q160.093 526.535 163.149 531.141 Q166.227 535.725 166.227 544.475 Q166.227 553.202 163.149 557.808 Q160.093 562.391 154.283 562.391 Q148.473 562.391 145.394 557.808 Q142.339 553.202 142.339 544.475 Q142.339 535.725 145.394 531.141 Q148.473 526.535 154.283 526.535 Z" fill="#000000" fill-rule="evenodd" fill-opacity="1" /><path clip-path="url(#clip010)" d="M 0 0 M166.227 520.636 L190.339 520.636 L190.339 523.834 L166.227 523.834 L166.227 520.636 Z" fill="#000000" fill-rule="evenodd" fill-opacity="1" /><path clip-path="url(#clip010)" d="M 0 0 M199.197 531.112 L205.404 531.112 L205.404 509.69 L198.652 511.044 L198.652 507.584 L205.366 506.23 L209.166 506.23 L209.166 531.112 L215.372 531.112 L215.372 534.31 L199.197 534.31 L199.197 531.112 Z" fill="#000000" fill-rule="evenodd" fill-opacity="1" /><path clip-path="url(#clip010)" d="M 0 0 M223.046 529.532 L227.014 529.532 L227.014 534.31 L223.046 534.31 L223.046 529.532 Z" fill="#000000" fill-rule="evenodd" fill-opacity="1" /><path clip-path="url(#clip010)" d="M 0 0 M243.415 508.731 Q240.481 508.731 238.995 511.627 Q237.528 514.505 237.528 520.298 Q237.528 526.072 238.995 528.968 Q240.481 531.846 243.415 531.846 Q246.367 531.846 247.834 528.968 Q249.32 526.072 249.32 520.298 Q249.32 514.505 247.834 511.627 Q246.367 508.731 243.415 508.731 M243.415 505.722 Q248.135 505.722 250.618 509.465 Q253.119 513.188 253.119 520.298 Q253.119 527.388 250.618 531.131 Q248.135 534.855 243.415 534.855 Q238.694 534.855 236.192 531.131 Q233.71 527.388 233.71 520.298 Q233.71 513.188 236.192 509.465 Q238.694 505.722 243.415 505.722 Z" fill="#000000" fill-rule="evenodd" fill-opacity="1" /><path clip-path="url(#clip010)" d="M 0 0 M115.74 439.305 L123.379 439.305 L123.379 412.939 L115.069 414.606 L115.069 410.346 L123.333 408.68 L128.009 408.68 L128.009 439.305 L135.647 439.305 L135.647 443.24 L115.74 443.24 L115.74 439.305 Z" fill="#000000" fill-rule="evenodd" fill-opacity="1" /><path clip-path="url(#clip010)" d="M 0 0 M155.092 411.758 Q151.481 411.758 149.652 415.323 Q147.846 418.865 147.846 425.994 Q147.846 433.101 149.652 436.666 Q151.481 440.207 155.092 440.207 Q158.726 440.207 160.532 436.666 Q162.36 433.101 162.36 425.994 Q162.36 418.865 160.532 415.323 Q158.726 411.758 155.092 411.758 M155.092 408.055 Q160.902 408.055 163.958 412.661 Q167.036 417.244 167.036 425.994 Q167.036 434.721 163.958 439.328 Q160.902 443.911 155.092 443.911 Q149.282 443.911 146.203 439.328 Q143.147 434.721 143.147 425.994 Q143.147 417.244 146.203 412.661 Q149.282 408.055 155.092 408.055 Z" fill="#000000" fill-rule="evenodd" fill-opacity="1" /><path clip-path="url(#clip010)" d="M 0 0 M167.036 402.156 L191.148 402.156 L191.148 405.353 L167.036 405.353 L167.036 402.156 Z" fill="#000000" fill-rule="evenodd" fill-opacity="1" /><path clip-path="url(#clip010)" d="M 0 0 M207.473 390.251 Q204.539 390.251 203.053 393.147 Q201.586 396.025 201.586 401.818 Q201.586 407.591 203.053 410.488 Q204.539 413.365 207.473 413.365 Q210.426 413.365 211.893 410.488 Q213.379 407.591 213.379 401.818 Q213.379 396.025 211.893 393.147 Q210.426 390.251 207.473 390.251 M207.473 387.241 Q212.194 387.241 214.676 390.984 Q217.178 394.708 217.178 401.818 Q217.178 408.908 214.676 412.651 Q212.194 416.375 207.473 416.375 Q202.752 416.375 200.251 412.651 Q197.768 408.908 197.768 401.818 Q197.768 394.708 200.251 390.984 Q202.752 387.241 207.473 387.241 Z" fill="#000000" fill-rule="evenodd" fill-opacity="1" /><path clip-path="url(#clip010)" d="M 0 0 M223.854 411.052 L227.823 411.052 L227.823 415.829 L223.854 415.829 L223.854 411.052 Z" fill="#000000" fill-rule="evenodd" fill-opacity="1" /><path clip-path="url(#clip010)" d="M 0 0 M236.136 387.749 L251.051 387.749 L251.051 390.947 L239.615 390.947 L239.615 397.83 Q240.443 397.548 241.27 397.416 Q242.098 397.266 242.926 397.266 Q247.627 397.266 250.373 399.843 Q253.119 402.419 253.119 406.82 Q253.119 411.353 250.298 413.873 Q247.477 416.375 242.343 416.375 Q240.575 416.375 238.731 416.074 Q236.907 415.773 234.951 415.171 L234.951 411.353 Q236.644 412.275 238.449 412.726 Q240.255 413.177 242.267 413.177 Q245.521 413.177 247.421 411.466 Q249.32 409.754 249.32 406.82 Q249.32 403.886 247.421 402.175 Q245.521 400.463 242.267 400.463 Q240.744 400.463 239.22 400.802 Q237.716 401.14 236.136 401.855 L236.136 387.749 Z" fill="#000000" fill-rule="evenodd" fill-opacity="1" /><path clip-path="url(#clip010)" d="M 0 0 M145.663 320.824 L153.302 320.824 L153.302 294.459 L144.992 296.125 L144.992 291.866 L153.256 290.199 L157.932 290.199 L157.932 320.824 L165.571 320.824 L165.571 324.759 L145.663 324.759 L145.663 320.824 Z" fill="#000000" fill-rule="evenodd" fill-opacity="1" /><path clip-path="url(#clip010)" d="M 0 0 M185.015 293.278 Q181.404 293.278 179.575 296.843 Q177.77 300.385 177.77 307.514 Q177.77 314.621 179.575 318.185 Q181.404 321.727 185.015 321.727 Q188.649 321.727 190.455 318.185 Q192.283 314.621 192.283 307.514 Q192.283 300.385 190.455 296.843 Q188.649 293.278 185.015 293.278 M185.015 289.574 Q190.825 289.574 193.881 294.181 Q196.959 298.764 196.959 307.514 Q196.959 316.241 193.881 320.847 Q190.825 325.431 185.015 325.431 Q179.205 325.431 176.126 320.847 Q173.071 316.241 173.071 307.514 Q173.071 298.764 176.126 294.181 Q179.205 289.574 185.015 289.574 Z" fill="#000000" fill-rule="evenodd" fill-opacity="1" /><path clip-path="url(#clip010)" d="M 0 0 M206.664 271.77 Q203.73 271.77 202.244 274.667 Q200.777 277.544 200.777 283.337 Q200.777 289.111 202.244 292.008 Q203.73 294.885 206.664 294.885 Q209.617 294.885 211.084 292.008 Q212.57 289.111 212.57 283.337 Q212.57 277.544 211.084 274.667 Q209.617 271.77 206.664 271.77 M206.664 268.761 Q211.385 268.761 213.868 272.504 Q216.369 276.228 216.369 283.337 Q216.369 290.428 213.868 294.171 Q211.385 297.894 206.664 297.894 Q201.943 297.894 199.442 294.171 Q196.959 290.428 196.959 283.337 Q196.959 276.228 199.442 272.504 Q201.943 268.761 206.664 268.761 Z" fill="#000000" fill-rule="evenodd" fill-opacity="1" /><path clip-path="url(#clip010)" d="M 0 0 M223.046 292.572 L227.014 292.572 L227.014 297.349 L223.046 297.349 L223.046 292.572 Z" fill="#000000" fill-rule="evenodd" fill-opacity="1" /><path clip-path="url(#clip010)" d="M 0 0 M243.415 271.77 Q240.481 271.77 238.995 274.667 Q237.528 277.544 237.528 283.337 Q237.528 289.111 238.995 292.008 Q240.481 294.885 243.415 294.885 Q246.367 294.885 247.834 292.008 Q249.32 289.111 249.32 283.337 Q249.32 277.544 247.834 274.667 Q246.367 271.77 243.415 271.77 M243.415 268.761 Q248.135 268.761 250.618 272.504 Q253.119 276.228 253.119 283.337 Q253.119 290.428 250.618 294.171 Q248.135 297.894 243.415 297.894 Q238.694 297.894 236.192 294.171 Q233.71 290.428 233.71 283.337 Q233.71 276.228 236.192 272.504 Q238.694 268.761 243.415 268.761 Z" fill="#000000" fill-rule="evenodd" fill-opacity="1" /><path clip-path="url(#clip010)" d="M 0 0 M146.472 202.344 L154.111 202.344 L154.111 175.978 L145.801 177.645 L145.801 173.386 L154.065 171.719 L158.741 171.719 L158.741 202.344 L166.379 202.344 L166.379 206.279 L146.472 206.279 L146.472 202.344 Z" fill="#000000" fill-rule="evenodd" fill-opacity="1" /><path clip-path="url(#clip010)" d="M 0 0 M185.824 174.798 Q182.213 174.798 180.384 178.363 Q178.578 181.904 178.578 189.034 Q178.578 196.14 180.384 199.705 Q182.213 203.247 185.824 203.247 Q189.458 203.247 191.264 199.705 Q193.092 196.14 193.092 189.034 Q193.092 181.904 191.264 178.363 Q189.458 174.798 185.824 174.798 M185.824 171.094 Q191.634 171.094 194.689 175.701 Q197.768 180.284 197.768 189.034 Q197.768 197.761 194.689 202.367 Q191.634 206.95 185.824 206.95 Q180.014 206.95 176.935 202.367 Q173.879 197.761 173.879 189.034 Q173.879 180.284 176.935 175.701 Q180.014 171.094 185.824 171.094 Z" fill="#000000" fill-rule="evenodd" fill-opacity="1" /><path clip-path="url(#clip010)" d="M 0 0 M207.473 153.29 Q204.539 153.29 203.053 156.187 Q201.586 159.064 201.586 164.857 Q201.586 170.631 203.053 173.527 Q204.539 176.405 207.473 176.405 Q210.426 176.405 211.893 173.527 Q213.379 170.631 213.379 164.857 Q213.379 159.064 211.893 156.187 Q210.426 153.29 207.473 153.29 M207.473 150.281 Q212.194 150.281 214.676 154.024 Q217.178 157.748 217.178 164.857 Q217.178 171.947 214.676 175.69 Q212.194 179.414 207.473 179.414 Q202.752 179.414 200.251 175.69 Q197.768 171.947 197.768 164.857 Q197.768 157.748 200.251 154.024 Q202.752 150.281 207.473 150.281 Z" fill="#000000" fill-rule="evenodd" fill-opacity="1" /><path clip-path="url(#clip010)" d="M 0 0 M223.854 174.092 L227.823 174.092 L227.823 178.869 L223.854 178.869 L223.854 174.092 Z" fill="#000000" fill-rule="evenodd" fill-opacity="1" /><path clip-path="url(#clip010)" d="M 0 0 M236.136 150.789 L251.051 150.789 L251.051 153.986 L239.615 153.986 L239.615 160.87 Q240.443 160.588 241.27 160.456 Q242.098 160.305 242.926 160.305 Q247.627 160.305 250.373 162.882 Q253.119 165.459 253.119 169.86 Q253.119 174.392 250.298 176.913 Q247.477 179.414 242.343 179.414 Q240.575 179.414 238.731 179.113 Q236.907 178.812 234.951 178.21 L234.951 174.392 Q236.644 175.314 238.449 175.765 Q240.255 176.217 242.267 176.217 Q245.521 176.217 247.421 174.505 Q249.32 172.794 249.32 169.86 Q249.32 166.926 247.421 165.214 Q245.521 163.503 242.267 163.503 Q240.744 163.503 239.22 163.841 Q237.716 164.18 236.136 164.895 L236.136 150.789 Z" fill="#000000" fill-rule="evenodd" fill-opacity="1" /><path clip-path="url(#clip010)" d="M 0 0 M147.356 83.8637 L154.995 83.8637 L154.995 57.4981 L146.685 59.1647 L146.685 54.9055 L154.949 53.2388 L159.624 53.2388 L159.624 83.8637 L167.263 83.8637 L167.263 87.7988 L147.356 87.7988 L147.356 83.8637 Z" fill="#000000" fill-rule="evenodd" fill-opacity="1" /><path clip-path="url(#clip010)" d="M 0 0 M186.708 56.3175 Q183.097 56.3175 181.268 59.8823 Q179.462 63.424 179.462 70.5536 Q179.462 77.66 181.268 81.2248 Q183.097 84.7665 186.708 84.7665 Q190.342 84.7665 192.147 81.2248 Q193.976 77.66 193.976 70.5536 Q193.976 63.424 192.147 59.8823 Q190.342 56.3175 186.708 56.3175 M186.708 52.6139 Q192.518 52.6139 195.573 57.2203 Q198.652 61.8036 198.652 70.5536 Q198.652 79.2804 195.573 83.8868 Q192.518 88.4701 186.708 88.4701 Q180.898 88.4701 177.819 83.8868 Q174.763 79.2804 174.763 70.5536 Q174.763 61.8036 177.819 57.2203 Q180.898 52.6139 186.708 52.6139 Z" fill="#000000" fill-rule="evenodd" fill-opacity="1" /><path clip-path="url(#clip010)" d="M 0 0 M199.197 57.1911 L205.404 57.1911 L205.404 35.7691 L198.652 37.1232 L198.652 33.6626 L205.366 32.3084 L209.166 32.3084 L209.166 57.1911 L215.372 57.1911 L215.372 60.3884 L199.197 60.3884 L199.197 57.1911 Z" fill="#000000" fill-rule="evenodd" fill-opacity="1" /><path clip-path="url(#clip010)" d="M 0 0 M223.046 55.6113 L227.014 55.6113 L227.014 60.3884 L223.046 60.3884 L223.046 55.6113 Z" fill="#000000" fill-rule="evenodd" fill-opacity="1" /><path clip-path="url(#clip010)" d="M 0 0 M243.415 34.8099 Q240.481 34.8099 238.995 37.7063 Q237.528 40.5839 237.528 46.3767 Q237.528 52.1506 238.995 55.047 Q240.481 57.9246 243.415 57.9246 Q246.367 57.9246 247.834 55.047 Q249.32 52.1506 249.32 46.3767 Q249.32 40.5839 247.834 37.7063 Q246.367 34.8099 243.415 34.8099 M243.415 31.8006 Q248.135 31.8006 250.618 35.5434 Q253.119 39.2673 253.119 46.3767 Q253.119 53.4672 250.618 57.2099 Q248.135 60.9339 243.415 60.9339 Q238.694 60.9339 236.192 57.2099 Q233.71 53.4672 233.71 46.3767 Q233.71 39.2673 236.192 35.5434 Q238.694 31.8006 243.415 31.8006 Z" fill="#000000" fill-rule="evenodd" fill-opacity="1" /><path clip-path="url(#clip010)" d="M 0 0 M41.7242 362.504 Q42.4244 360.436 44.7161 358.494 Q47.0077 356.521 51.0181 354.547 L64.0042 348.022 L64.0042 354.929 L51.8138 361.009 Q47.0395 363.364 45.48 365.592 Q43.9204 367.788 43.9204 371.607 L43.9204 378.61 L64.0042 378.61 L64.0042 385.039 L16.4842 385.039 L16.4842 370.525 Q16.4842 362.377 19.8898 358.367 Q23.2955 354.356 30.1704 354.356 Q34.6582 354.356 37.6183 356.457 Q40.5784 358.526 41.7242 362.504 M21.7677 378.61 L38.6368 378.61 L38.6368 370.525 Q38.6368 365.878 36.5043 363.523 Q34.34 361.136 30.1704 361.136 Q26.0009 361.136 23.9002 363.523 Q21.7677 365.878 21.7677 370.525 L21.7677 378.61 Z" fill="#000000" fill-rule="evenodd" fill-opacity="1" /><path clip-path="url(#clip010)" d="M 0 0 M22.818 326.506 L46.4666 335.227 L46.4666 317.754 L22.818 326.506 M16.4842 330.135 L16.4842 322.846 L64.0042 304.736 L64.0042 311.42 L51.8138 315.748 L51.8138 337.169 L64.0042 341.498 L64.0042 348.277 L16.4842 330.135 Z" fill="#000000" fill-rule="evenodd" fill-opacity="1" /><polyline clip-path="url(#clip012)" style="stroke:#009af9; stroke-width:8; stroke-opacity:1; fill:none" points="
  347.524,64.0918 366.537,64.0959 542.333,64.2011 647.98,64.4233 737.303,64.8873 834.332,66.0913 923.785,68.6629 971.736,71.1251 1019.69,74.777 1075.24,81.0615 
  1130.8,90.206 1180.17,101.156 1229.54,114.885 1272.84,129.081 1316.13,145.023 1410.54,184.262 1505.51,227.459 1610.5,277.207 1710.41,325.344 1814.28,375.717 
  1901.72,418.221 2008.48,470.163 2108.83,519.01 2269.61,597.28 2294.35,609.326 
  "/>
<polyline clip-path="url(#clip012)" style="stroke:#ff0000; stroke-width:4; stroke-opacity:1; fill:none" points="
  347.524,420.915 1907.26,420.915 1907.26,625.683 
  "/>
<path clip-path="url(#clip010)" d="M 0 0 M1946.96 413.779 Q1946.96 416.033 1945.73 421.011 Q1944.5 425.988 1943.01 429.384 Q1939.82 436.762 1934.31 436.762 Q1933.64 436.762 1932.97 436.704 Q1932.32 436.645 1931.36 436.382 Q1930.39 436.118 1929.6 435.708 Q1928.81 435.269 1928.02 434.449 Q1927.26 433.629 1926.82 432.546 Q1924.39 436.762 1920.58 436.762 Q1916.89 436.762 1914.46 434.888 Q1912.06 433.015 1912.06 429.179 Q1912.06 427.452 1912.77 424.905 Q1913.47 422.357 1915.43 417.087 Q1916.51 414.364 1916.51 412.871 Q1916.51 412.198 1916.37 411.759 Q1916.22 411.32 1915.93 411.173 Q1915.66 410.997 1915.49 410.968 Q1915.31 410.91 1915.02 410.91 Q1913.26 410.91 1911.68 412.696 Q1910.1 414.452 1908.96 418.346 Q1908.73 419.078 1908.58 419.254 Q1908.43 419.43 1907.99 419.43 Q1907.26 419.4 1907.26 418.815 Q1907.26 418.58 1907.53 417.673 Q1907.79 416.736 1908.4 415.36 Q1909.05 413.955 1909.93 412.696 Q1910.8 411.407 1912.18 410.5 Q1913.59 409.592 1915.2 409.592 Q1917.36 409.592 1918.74 411.027 Q1920.12 412.461 1920.12 414.511 Q1920.12 415.096 1919.97 415.74 Q1919.82 416.355 1919.68 416.765 Q1919.56 417.146 1919.09 418.346 Q1917.16 423.411 1916.54 425.841 Q1915.96 428.272 1915.96 429.97 Q1915.96 430.526 1915.99 430.965 Q1916.02 431.404 1916.25 432.312 Q1916.51 433.219 1916.98 433.834 Q1917.45 434.42 1918.42 434.918 Q1919.41 435.415 1920.76 435.415 Q1924.13 435.415 1926.29 430.38 Q1926.23 430.087 1926.23 429.326 Q1926.23 427.627 1926.76 425.344 Q1926.91 424.817 1927.76 421.45 Q1928.61 418.053 1929.34 415.096 Q1930.1 412.11 1930.19 411.934 Q1930.48 411.115 1931.12 410.675 Q1931.77 410.236 1932.41 410.236 Q1933.14 410.236 1933.64 410.675 Q1934.14 411.115 1934.14 411.876 Q1934.14 412.022 1933.96 412.696 Q1933.82 413.34 1933.58 414.306 Q1933.35 415.272 1933.23 415.77 L1930.71 425.841 Q1930.07 428.184 1930.07 430.204 Q1930.07 432.751 1931.21 434.098 Q1932.35 435.415 1934.49 435.415 Q1938.5 435.415 1941.08 430.145 Q1942.25 427.862 1943.3 424.29 Q1944.39 420.718 1944.39 419.166 Q1944.39 416.238 1942.22 414.072 Q1941.75 413.662 1941.55 413.34 Q1941.34 412.988 1941.34 412.461 Q1941.34 411.466 1942.28 410.529 Q1943.22 409.592 1944.33 409.592 Q1945.32 409.592 1946.14 410.588 Q1946.96 411.554 1946.96 413.779 Z" fill="#000000" fill-rule="evenodd" fill-opacity="1" /><path clip-path="url(#clip010)" d="M 0 0 M1969.14 442.928 Q1969.31 443.113 1969.31 443.297 Q1969.31 443.482 1968.9 444.015 Q1968.51 444.547 1967.67 445.265 Q1966.83 445.982 1965.74 446.658 Q1964.66 447.335 1963.06 447.786 Q1961.46 448.257 1959.78 448.257 Q1956.64 448.257 1954.8 446.187 Q1952.97 444.117 1952.97 441.145 Q1952.97 438.256 1954.59 435.489 Q1956.21 432.702 1958.84 430.98 Q1961.46 429.238 1964.23 429.238 Q1966.42 429.238 1967.79 430.263 Q1969.17 431.287 1969.17 432.845 Q1969.17 434.054 1968.47 434.792 Q1967.77 435.53 1966.83 435.53 Q1966.17 435.53 1965.72 435.161 Q1965.27 434.772 1965.27 434.054 Q1965.27 433.132 1966.03 432.415 Q1966.32 432.128 1966.64 432.005 Q1966.99 431.861 1967.2 431.861 Q1967.4 431.841 1967.87 431.841 Q1967.44 431.041 1966.42 430.611 Q1965.41 430.16 1964.27 430.16 Q1962.57 430.16 1960.95 431.349 Q1959.33 432.517 1958.34 434.362 Q1957.36 436.165 1956.73 438.727 Q1956.09 441.268 1956.09 442.744 Q1956.09 444.773 1957.03 446.044 Q1957.98 447.314 1959.86 447.314 Q1960.23 447.314 1960.62 447.294 Q1961.03 447.273 1962.05 447.048 Q1963.1 446.822 1964.02 446.433 Q1964.94 446.044 1966.11 445.203 Q1967.3 444.343 1968.24 443.174 Q1968.57 442.744 1968.8 442.744 Q1968.98 442.744 1969.14 442.928 Z" fill="#000000" fill-rule="evenodd" fill-opacity="1" /><path clip-path="url(#clip010)" d="M 0 0 M1988.93 436.329 Q1988.93 438.563 1987.95 440.776 Q1986.97 442.969 1985.39 444.609 Q1983.83 446.228 1981.78 447.253 Q1979.73 448.257 1977.68 448.257 Q1974.75 448.257 1972.85 446.269 Q1970.96 444.261 1970.96 441.145 Q1970.96 438.235 1972.58 435.468 Q1974.22 432.681 1976.84 430.96 Q1979.47 429.238 1982.21 429.238 Q1985.1 429.238 1987.01 431.185 Q1988.93 433.132 1988.93 436.329 M1985.86 434.69 Q1985.86 432.702 1984.9 431.431 Q1983.93 430.16 1982.17 430.16 Q1981.66 430.16 1981.06 430.324 Q1980.47 430.468 1979.69 430.857 Q1978.93 431.246 1978.07 432.066 Q1977.23 432.866 1976.49 434.013 Q1975.53 435.53 1974.79 438.317 Q1974.08 441.084 1974.08 442.744 Q1974.08 445.039 1975.14 446.187 Q1976.21 447.314 1977.72 447.314 Q1979.2 447.314 1980.76 446.29 Q1982.33 445.244 1983.42 443.461 Q1984.51 441.617 1985.18 438.911 Q1985.86 436.186 1985.86 434.69 Z" fill="#000000" fill-rule="evenodd" fill-opacity="1" /><path clip-path="url(#clip010)" d="M 0 0 M1998.37 435.123 Q1997.52 434.156 1997.52 432.897 Q1997.52 431.638 1998.34 430.702 Q1999.19 429.735 2000.71 429.735 Q2002.49 429.735 2003.52 431.463 Q2004.54 433.161 2004.54 436.03 Q2004.54 439.134 2003.29 442.003 Q2002.03 444.901 2000.8 446.278 Q1999.57 447.654 1999.07 447.654 Q1998.48 447.654 1998.48 447.009 Q1998.48 446.775 1998.89 446.336 Q2003.2 441.71 2003.23 436.03 Q2003.23 435.123 2003.11 435.123 L2002.96 435.24 Q2001.94 436.089 2000.71 436.089 Q1999.22 436.089 1998.37 435.123 Z" fill="#000000" fill-rule="evenodd" fill-opacity="1" /><path clip-path="url(#clip010)" d="M 0 0 M2059.74 402.917 Q2059.74 401.951 2059.48 401.16 Q2059.25 400.34 2058.86 399.784 Q2058.51 399.198 2057.84 398.759 Q2057.17 398.291 2056.61 397.998 Q2056.05 397.705 2055.12 397.53 Q2054.18 397.325 2053.57 397.237 Q2052.95 397.12 2051.9 397.061 Q2050.84 397.003 2050.32 397.003 Q2049.82 397.003 2048.82 397.003 Q2045.69 397.003 2045.16 397.061 Q2044.37 397.178 2044.08 397.647 Q2043.79 398.086 2043.49 399.286 L2039.6 414.921 L2046.3 414.921 Q2049.96 414.921 2052.48 413.896 Q2055 412.871 2056.43 411.437 Q2058.02 409.856 2058.86 407.308 Q2059.74 404.761 2059.74 402.917 M2066.27 430.526 Q2066.27 430.848 2066.01 431.58 Q2065.77 432.312 2065.19 433.337 Q2064.6 434.332 2063.81 435.24 Q2063.02 436.147 2061.76 436.762 Q2060.5 437.406 2059.07 437.406 Q2058.72 437.406 2058.37 437.377 Q2058.02 437.377 2057.14 437.231 Q2056.29 437.113 2055.59 436.879 Q2054.88 436.674 2054 436.177 Q2053.13 435.708 2052.51 435.064 Q2051.93 434.391 2051.52 433.337 Q2051.11 432.253 2051.11 430.936 Q2051.11 429.765 2052.07 425.841 Q2052.92 422.504 2052.92 421.684 Q2052.92 420.776 2052.63 419.927 Q2052.36 419.078 2051.69 418.2 Q2051.05 417.322 2049.67 416.795 Q2048.3 416.238 2046.36 416.238 L2039.25 416.238 L2035.27 432.136 Q2035.27 432.165 2035.18 432.575 Q2035.09 432.956 2035.09 433.161 Q2035.09 433.542 2035.33 433.776 Q2035.59 434.01 2036.23 434.127 Q2036.88 434.215 2037.37 434.244 Q2037.9 434.244 2038.98 434.244 Q2040.33 434.244 2040.57 434.478 Q2040.68 434.625 2040.68 434.888 Q2040.68 435.298 2040.57 435.591 Q2040.48 435.855 2040.24 435.942 Q2040.04 436.03 2039.89 436.059 Q2039.75 436.089 2039.48 436.089 L2031.87 435.913 L2024.32 436.089 Q2023.47 436.089 2023.47 435.415 Q2023.47 434.83 2023.67 434.596 Q2023.88 434.332 2024.14 434.303 Q2024.4 434.244 2025.08 434.244 Q2026.54 434.244 2027.42 434.156 Q2028.3 434.069 2028.85 433.951 Q2029.44 433.805 2029.73 433.395 Q2030.06 432.985 2030.2 432.634 Q2030.35 432.253 2030.55 431.404 L2038.57 399.198 Q2038.81 398.232 2038.81 398.086 Q2038.81 397.53 2038.46 397.383 Q2038.14 397.207 2037.2 397.12 L2034.92 397.003 Q2034.21 397.003 2033.92 396.973 Q2033.66 396.944 2033.45 396.798 Q2033.25 396.651 2033.25 396.329 Q2033.25 395.509 2033.6 395.334 Q2033.95 395.129 2034.97 395.129 L2052.07 395.129 Q2057.9 395.129 2061.59 397.676 Q2065.31 400.223 2065.31 404.117 Q2065.31 405.874 2064.52 407.513 Q2063.72 409.153 2062.41 410.441 Q2061.12 411.729 2059.39 412.813 Q2057.66 413.867 2055.82 414.599 Q2054 415.301 2052.13 415.711 Q2052.95 416.004 2053.71 416.443 Q2054.5 416.882 2055.5 417.702 Q2056.52 418.522 2057.14 419.839 Q2057.75 421.157 2057.75 422.767 Q2057.75 423.909 2057.52 425.607 Q2056.93 430.438 2056.93 432.429 Q2056.93 434.332 2057.43 435.21 Q2057.93 436.089 2059.33 436.089 Q2060.71 436.089 2062.23 434.859 Q2063.78 433.6 2064.78 430.643 Q2065.01 429.794 2065.57 429.794 Q2065.6 429.794 2065.63 429.794 Q2065.69 429.794 2065.8 429.853 Q2065.92 429.882 2066.01 429.97 Q2066.13 430.028 2066.18 430.175 Q2066.27 430.321 2066.27 430.526 Z" fill="#000000" fill-rule="evenodd" fill-opacity="1" /><path clip-path="url(#clip010)" d="M 0 0 M2109.67 434.888 Q2109.67 435.445 2109.43 435.737 Q2109.23 436.001 2109.02 436.059 Q2108.85 436.089 2108.58 436.089 Q2107.82 436.089 2105.19 436.001 Q2102.55 435.913 2101.79 435.913 Q2100.56 435.913 2098.04 436.001 Q2095.53 436.089 2094.3 436.089 Q2093.48 436.089 2093.48 435.415 Q2093.48 434.976 2093.57 434.742 Q2093.65 434.478 2093.89 434.391 Q2094.15 434.274 2094.3 434.274 Q2094.47 434.244 2094.91 434.244 Q2095.5 434.244 2096.11 434.186 Q2096.73 434.098 2097.49 433.922 Q2098.25 433.746 2098.72 433.307 Q2099.22 432.868 2099.22 432.253 Q2099.22 431.99 2099.01 429.823 Q2098.81 427.657 2098.54 425.139 Q2098.28 422.592 2098.25 422.24 L2083.2 422.24 Q2081.82 424.612 2080.86 426.251 Q2079.89 427.891 2079.54 428.447 Q2079.19 429.003 2078.98 429.355 Q2078.78 429.706 2078.66 429.911 Q2077.81 431.463 2077.81 432.136 Q2077.81 434.01 2080.62 434.244 Q2081.59 434.244 2081.59 434.947 Q2081.59 435.474 2081.36 435.767 Q2081.12 436.03 2080.92 436.059 Q2080.74 436.089 2080.45 436.089 Q2079.48 436.089 2077.46 436.001 Q2075.44 435.913 2074.45 435.913 Q2073.6 435.913 2071.84 436.001 Q2070.08 436.089 2069.29 436.089 Q2068.94 436.089 2068.74 435.884 Q2068.53 435.679 2068.53 435.415 Q2068.53 435.005 2068.59 434.771 Q2068.68 434.537 2068.91 434.42 Q2069.15 434.303 2069.26 434.303 Q2069.38 434.274 2069.79 434.244 Q2072.02 434.098 2073.74 433.044 Q2075.5 431.961 2077.17 429.179 L2098.02 394.163 Q2098.22 393.811 2098.37 393.636 Q2098.51 393.46 2098.81 393.314 Q2099.13 393.167 2099.6 393.167 Q2100.33 393.167 2100.47 393.401 Q2100.62 393.606 2100.71 394.602 L2104.37 432.078 Q2104.46 432.868 2104.52 433.19 Q2104.6 433.483 2104.98 433.805 Q2105.39 434.098 2106.13 434.186 Q2106.89 434.244 2108.29 434.244 Q2108.82 434.244 2109.02 434.274 Q2109.23 434.274 2109.43 434.42 Q2109.67 434.566 2109.67 434.888 M2098.07 420.366 L2096.17 400.604 L2084.34 420.366 L2098.07 420.366 Z" fill="#000000" fill-rule="evenodd" fill-opacity="1" /><path clip-path="url(#clip010)" d="M 0 0 M2131.84 442.257 Q2132 442.441 2132 442.625 Q2132 442.81 2131.59 443.343 Q2131.2 443.876 2130.36 444.593 Q2129.52 445.31 2128.43 445.987 Q2127.35 446.663 2125.75 447.114 Q2124.15 447.585 2122.47 447.585 Q2119.34 447.585 2117.49 445.515 Q2115.67 443.445 2115.67 440.473 Q2115.67 437.584 2117.29 434.817 Q2118.9 432.03 2121.53 430.308 Q2124.15 428.566 2126.92 428.566 Q2129.11 428.566 2130.48 429.591 Q2131.86 430.616 2131.86 432.173 Q2131.86 433.382 2131.16 434.12 Q2130.46 434.858 2129.52 434.858 Q2128.87 434.858 2128.41 434.489 Q2127.96 434.1 2127.96 433.382 Q2127.96 432.46 2128.72 431.743 Q2129.01 431.456 2129.34 431.333 Q2129.69 431.189 2129.89 431.189 Q2130.1 431.169 2130.57 431.169 Q2130.14 430.37 2129.11 429.939 Q2128.11 429.488 2126.96 429.488 Q2125.26 429.488 2123.64 430.677 Q2122.02 431.845 2121.04 433.69 Q2120.05 435.493 2119.42 438.055 Q2118.78 440.596 2118.78 442.072 Q2118.78 444.101 2119.72 445.372 Q2120.67 446.642 2122.55 446.642 Q2122.92 446.642 2123.31 446.622 Q2123.72 446.601 2124.75 446.376 Q2125.79 446.15 2126.71 445.761 Q2127.64 445.372 2128.8 444.531 Q2129.99 443.671 2130.94 442.502 Q2131.26 442.072 2131.49 442.072 Q2131.67 442.072 2131.84 442.257 Z" fill="#000000" fill-rule="evenodd" fill-opacity="1" /><path clip-path="url(#clip010)" d="M 0 0 M2151.63 435.657 Q2151.63 437.891 2150.64 440.105 Q2149.66 442.298 2148.08 443.937 Q2146.52 445.556 2144.47 446.581 Q2142.42 447.585 2140.37 447.585 Q2137.44 447.585 2135.54 445.597 Q2133.65 443.589 2133.65 440.473 Q2133.65 437.563 2135.27 434.796 Q2136.91 432.009 2139.53 430.288 Q2142.16 428.566 2144.9 428.566 Q2147.79 428.566 2149.7 430.513 Q2151.63 432.46 2151.63 435.657 M2148.55 434.018 Q2148.55 432.03 2147.59 430.759 Q2146.63 429.488 2144.86 429.488 Q2144.35 429.488 2143.76 429.652 Q2143.16 429.796 2142.38 430.185 Q2141.62 430.575 2140.76 431.394 Q2139.92 432.194 2139.19 433.341 Q2138.22 434.858 2137.48 437.645 Q2136.77 440.412 2136.77 442.072 Q2136.77 444.367 2137.83 445.515 Q2138.9 446.642 2140.42 446.642 Q2141.89 446.642 2143.45 445.618 Q2145.03 444.572 2146.11 442.789 Q2147.2 440.945 2147.88 438.24 Q2148.55 435.514 2148.55 434.018 Z" fill="#000000" fill-rule="evenodd" fill-opacity="1" /><path clip-path="url(#clip010)" d="
M289.119 1410.9 L2352.76 1410.9 L2352.76 815.61 L289.119 815.61  Z
  " fill="#ffffff" fill-rule="evenodd" fill-opacity="1"/>
<defs>
  <clipPath id="clip013">
    <rect x="289" y="815" width="2065" height="596"/>
  </clipPath>
</defs>
<polyline clip-path="url(#clip013)" style="stroke:#000000; stroke-width:2; stroke-opacity:0.1; fill:none" points="
  347.524,1410.9 347.524,815.61 
  "/>
<polyline clip-path="url(#clip013)" style="stroke:#000000; stroke-width:2; stroke-opacity:0.1; fill:none" points="
  834.231,1410.9 834.231,815.61 
  "/>
<polyline clip-path="url(#clip013)" style="stroke:#000000; stroke-width:2; stroke-opacity:0.1; fill:none" points="
  1320.94,1410.9 1320.94,815.61 
  "/>
<polyline clip-path="url(#clip013)" style="stroke:#000000; stroke-width:2; stroke-opacity:0.1; fill:none" points="
  1807.64,1410.9 1807.64,815.61 
  "/>
<polyline clip-path="url(#clip013)" style="stroke:#000000; stroke-width:2; stroke-opacity:0.1; fill:none" points="
  2294.35,1410.9 2294.35,815.61 
  "/>
<polyline clip-path="url(#clip010)" style="stroke:#000000; stroke-width:4; stroke-opacity:1; fill:none" points="
  289.119,1410.9 2352.76,1410.9 
  "/>
<polyline clip-path="url(#clip010)" style="stroke:#000000; stroke-width:4; stroke-opacity:1; fill:none" points="
  347.524,1410.9 347.524,1403.75 
  "/>
<polyline clip-path="url(#clip010)" style="stroke:#000000; stroke-width:4; stroke-opacity:1; fill:none" points="
  834.231,1410.9 834.231,1403.75 
  "/>
<polyline clip-path="url(#clip010)" style="stroke:#000000; stroke-width:4; stroke-opacity:1; fill:none" points="
  1320.94,1410.9 1320.94,1403.75 
  "/>
<polyline clip-path="url(#clip010)" style="stroke:#000000; stroke-width:4; stroke-opacity:1; fill:none" points="
  1807.64,1410.9 1807.64,1403.75 
  "/>
<polyline clip-path="url(#clip010)" style="stroke:#000000; stroke-width:4; stroke-opacity:1; fill:none" points="
  2294.35,1410.9 2294.35,1403.75 
  "/>
<polyline clip-path="url(#clip010)" style="stroke:#000000; stroke-width:4; stroke-opacity:1; fill:none" points="
  305.577,1410.9 305.577,1407.32 
  "/>
<polyline clip-path="url(#clip010)" style="stroke:#000000; stroke-width:4; stroke-opacity:1; fill:none" points="
  565.159,1410.9 565.159,1407.32 
  "/>
<polyline clip-path="url(#clip010)" style="stroke:#000000; stroke-width:4; stroke-opacity:1; fill:none" points="
  670.093,1410.9 670.093,1407.32 
  "/>
<polyline clip-path="url(#clip010)" style="stroke:#000000; stroke-width:4; stroke-opacity:1; fill:none" points="
  739.897,1410.9 739.897,1407.32 
  "/>
<polyline clip-path="url(#clip010)" style="stroke:#000000; stroke-width:4; stroke-opacity:1; fill:none" points="
  792.284,1410.9 792.284,1407.32 
  "/>
<polyline clip-path="url(#clip010)" style="stroke:#000000; stroke-width:4; stroke-opacity:1; fill:none" points="
  1051.87,1410.9 1051.87,1407.32 
  "/>
<polyline clip-path="url(#clip010)" style="stroke:#000000; stroke-width:4; stroke-opacity:1; fill:none" points="
  1156.8,1410.9 1156.8,1407.32 
  "/>
<polyline clip-path="url(#clip010)" style="stroke:#000000; stroke-width:4; stroke-opacity:1; fill:none" points="
  1226.6,1410.9 1226.6,1407.32 
  "/>
<polyline clip-path="url(#clip010)" style="stroke:#000000; stroke-width:4; stroke-opacity:1; fill:none" points="
  1278.99,1410.9 1278.99,1407.32 
  "/>
<polyline clip-path="url(#clip010)" style="stroke:#000000; stroke-width:4; stroke-opacity:1; fill:none" points="
  1538.57,1410.9 1538.57,1407.32 
  "/>
<polyline clip-path="url(#clip010)" style="stroke:#000000; stroke-width:4; stroke-opacity:1; fill:none" points="
  1643.51,1410.9 1643.51,1407.32 
  "/>
<polyline clip-path="url(#clip010)" style="stroke:#000000; stroke-width:4; stroke-opacity:1; fill:none" points="
  1713.31,1410.9 1713.31,1407.32 
  "/>
<polyline clip-path="url(#clip010)" style="stroke:#000000; stroke-width:4; stroke-opacity:1; fill:none" points="
  1765.7,1410.9 1765.7,1407.32 
  "/>
<polyline clip-path="url(#clip010)" style="stroke:#000000; stroke-width:4; stroke-opacity:1; fill:none" points="
  2025.28,1410.9 2025.28,1407.32 
  "/>
<polyline clip-path="url(#clip010)" style="stroke:#000000; stroke-width:4; stroke-opacity:1; fill:none" points="
  2130.21,1410.9 2130.21,1407.32 
  "/>
<polyline clip-path="url(#clip010)" style="stroke:#000000; stroke-width:4; stroke-opacity:1; fill:none" points="
  2200.02,1410.9 2200.02,1407.32 
  "/>
<polyline clip-path="url(#clip010)" style="stroke:#000000; stroke-width:4; stroke-opacity:1; fill:none" points="
  2252.4,1410.9 2252.4,1407.32 
  "/>
<path clip-path="url(#clip010)" d="M 0 0 M297.79 1489.17 L305.429 1489.17 L305.429 1462.8 L297.119 1464.47 L297.119 1460.21 L305.382 1458.54 L310.058 1458.54 L310.058 1489.17 L317.697 1489.17 L317.697 1493.1 L297.79 1493.1 L297.79 1489.17 Z" fill="#000000" fill-rule="evenodd" fill-opacity="1" /><path clip-path="url(#clip010)" d="M 0 0 M337.142 1461.62 Q333.53 1461.62 331.702 1465.19 Q329.896 1468.73 329.896 1475.86 Q329.896 1482.97 331.702 1486.53 Q333.53 1490.07 337.142 1490.07 Q340.776 1490.07 342.581 1486.53 Q344.41 1482.97 344.41 1475.86 Q344.41 1468.73 342.581 1465.19 Q340.776 1461.62 337.142 1461.62 M337.142 1457.92 Q342.952 1457.92 346.007 1462.53 Q349.086 1467.11 349.086 1475.86 Q349.086 1484.59 346.007 1489.19 Q342.952 1493.78 337.142 1493.78 Q331.331 1493.78 328.253 1489.19 Q325.197 1484.59 325.197 1475.86 Q325.197 1467.11 328.253 1462.53 Q331.331 1457.92 337.142 1457.92 Z" fill="#000000" fill-rule="evenodd" fill-opacity="1" /><path clip-path="url(#clip010)" d="M 0 0 M349.086 1452.02 L373.198 1452.02 L373.198 1455.22 L349.086 1455.22 L349.086 1452.02 Z" fill="#000000" fill-rule="evenodd" fill-opacity="1" /><path clip-path="url(#clip010)" d="M 0 0 M384.67 1462.5 L397.93 1462.5 L397.93 1465.69 L380.1 1465.69 L380.1 1462.5 Q382.263 1460.26 385.987 1456.5 Q389.73 1452.72 390.689 1451.63 Q392.513 1449.58 393.228 1448.16 Q393.961 1446.74 393.961 1445.36 Q393.961 1443.12 392.381 1441.71 Q390.82 1440.3 388.3 1440.3 Q386.513 1440.3 384.52 1440.92 Q382.545 1441.54 380.288 1442.8 L380.288 1438.97 Q382.583 1438.05 384.576 1437.58 Q386.57 1437.11 388.225 1437.11 Q392.588 1437.11 395.184 1439.29 Q397.779 1441.47 397.779 1445.12 Q397.779 1446.85 397.121 1448.41 Q396.482 1449.95 394.77 1452.06 Q394.3 1452.6 391.78 1455.22 Q389.259 1457.81 384.67 1462.5 Z" fill="#000000" fill-rule="evenodd" fill-opacity="1" /><path clip-path="url(#clip010)" d="M 0 0 M784.346 1489.17 L791.985 1489.17 L791.985 1462.8 L783.675 1464.47 L783.675 1460.21 L791.939 1458.54 L796.615 1458.54 L796.615 1489.17 L804.253 1489.17 L804.253 1493.1 L784.346 1493.1 L784.346 1489.17 Z" fill="#000000" fill-rule="evenodd" fill-opacity="1" /><path clip-path="url(#clip010)" d="M 0 0 M823.698 1461.62 Q820.087 1461.62 818.258 1465.19 Q816.452 1468.73 816.452 1475.86 Q816.452 1482.97 818.258 1486.53 Q820.087 1490.07 823.698 1490.07 Q827.332 1490.07 829.138 1486.53 Q830.966 1482.97 830.966 1475.86 Q830.966 1468.73 829.138 1465.19 Q827.332 1461.62 823.698 1461.62 M823.698 1457.92 Q829.508 1457.92 832.564 1462.53 Q835.642 1467.11 835.642 1475.86 Q835.642 1484.59 832.564 1489.19 Q829.508 1493.78 823.698 1493.78 Q817.888 1493.78 814.809 1489.19 Q811.753 1484.59 811.753 1475.86 Q811.753 1467.11 814.809 1462.53 Q817.888 1457.92 823.698 1457.92 Z" fill="#000000" fill-rule="evenodd" fill-opacity="1" /><path clip-path="url(#clip010)" d="M 0 0 M835.642 1452.02 L859.754 1452.02 L859.754 1455.22 L835.642 1455.22 L835.642 1452.02 Z" fill="#000000" fill-rule="evenodd" fill-opacity="1" /><path clip-path="url(#clip010)" d="M 0 0 M868.612 1462.5 L874.819 1462.5 L874.819 1441.07 L868.067 1442.43 L868.067 1438.97 L874.781 1437.61 L878.58 1437.61 L878.58 1462.5 L884.787 1462.5 L884.787 1465.69 L868.612 1465.69 L868.612 1462.5 Z" fill="#000000" fill-rule="evenodd" fill-opacity="1" /><path clip-path="url(#clip010)" d="M 0 0 M1285.92 1489.17 L1293.56 1489.17 L1293.56 1462.8 L1285.25 1464.47 L1285.25 1460.21 L1293.51 1458.54 L1298.19 1458.54 L1298.19 1489.17 L1305.83 1489.17 L1305.83 1493.1 L1285.92 1493.1 L1285.92 1489.17 Z" fill="#000000" fill-rule="evenodd" fill-opacity="1" /><path clip-path="url(#clip010)" d="M 0 0 M1325.27 1461.62 Q1321.66 1461.62 1319.83 1465.19 Q1318.03 1468.73 1318.03 1475.86 Q1318.03 1482.97 1319.83 1486.53 Q1321.66 1490.07 1325.27 1490.07 Q1328.91 1490.07 1330.71 1486.53 Q1332.54 1482.97 1332.54 1475.86 Q1332.54 1468.73 1330.71 1465.19 Q1328.91 1461.62 1325.27 1461.62 M1325.27 1457.92 Q1331.08 1457.92 1334.14 1462.53 Q1337.22 1467.11 1337.22 1475.86 Q1337.22 1484.59 1334.14 1489.19 Q1331.08 1493.78 1325.27 1493.78 Q1319.46 1493.78 1316.38 1489.19 Q1313.33 1484.59 1313.33 1475.86 Q1313.33 1467.11 1316.38 1462.53 Q1319.46 1457.92 1325.27 1457.92 Z" fill="#000000" fill-rule="evenodd" fill-opacity="1" /><path clip-path="url(#clip010)" d="M 0 0 M1346.92 1440.11 Q1343.99 1440.11 1342.5 1443.01 Q1341.03 1445.89 1341.03 1451.68 Q1341.03 1457.46 1342.5 1460.35 Q1343.99 1463.23 1346.92 1463.23 Q1349.87 1463.23 1351.34 1460.35 Q1352.83 1457.46 1352.83 1451.68 Q1352.83 1445.89 1351.34 1443.01 Q1349.87 1440.11 1346.92 1440.11 M1346.92 1437.11 Q1351.64 1437.11 1354.12 1440.85 Q1356.63 1444.57 1356.63 1451.68 Q1356.63 1458.77 1354.12 1462.51 Q1351.64 1466.24 1346.92 1466.24 Q1342.2 1466.24 1339.7 1462.51 Q1337.22 1458.77 1337.22 1451.68 Q1337.22 1444.57 1339.7 1440.85 Q1342.2 1437.11 1346.92 1437.11 Z" fill="#000000" fill-rule="evenodd" fill-opacity="1" /><path clip-path="url(#clip010)" d="M 0 0 M1773.97 1489.17 L1781.61 1489.17 L1781.61 1462.8 L1773.3 1464.47 L1773.3 1460.21 L1781.56 1458.54 L1786.24 1458.54 L1786.24 1489.17 L1793.88 1489.17 L1793.88 1493.1 L1773.97 1493.1 L1773.97 1489.17 Z" fill="#000000" fill-rule="evenodd" fill-opacity="1" /><path clip-path="url(#clip010)" d="M 0 0 M1813.32 1461.62 Q1809.71 1461.62 1807.88 1465.19 Q1806.08 1468.73 1806.08 1475.86 Q1806.08 1482.97 1807.88 1486.53 Q1809.71 1490.07 1813.32 1490.07 Q1816.96 1490.07 1818.76 1486.53 Q1820.59 1482.97 1820.59 1475.86 Q1820.59 1468.73 1818.76 1465.19 Q1816.96 1461.62 1813.32 1461.62 M1813.32 1457.92 Q1819.13 1457.92 1822.19 1462.53 Q1825.27 1467.11 1825.27 1475.86 Q1825.27 1484.59 1822.19 1489.19 Q1819.13 1493.78 1813.32 1493.78 Q1807.51 1493.78 1804.43 1489.19 Q1801.38 1484.59 1801.38 1475.86 Q1801.38 1467.11 1804.43 1462.53 Q1807.51 1457.92 1813.32 1457.92 Z" fill="#000000" fill-rule="evenodd" fill-opacity="1" /><path clip-path="url(#clip010)" d="M 0 0 M1825.81 1462.5 L1832.02 1462.5 L1832.02 1441.07 L1825.27 1442.43 L1825.27 1438.97 L1831.98 1437.61 L1835.78 1437.61 L1835.78 1462.5 L1841.99 1462.5 L1841.99 1465.69 L1825.81 1465.69 L1825.81 1462.5 Z" fill="#000000" fill-rule="evenodd" fill-opacity="1" /><path clip-path="url(#clip010)" d="M 0 0 M2260.12 1489.17 L2267.76 1489.17 L2267.76 1462.8 L2259.45 1464.47 L2259.45 1460.21 L2267.72 1458.54 L2272.39 1458.54 L2272.39 1489.17 L2280.03 1489.17 L2280.03 1493.1 L2260.12 1493.1 L2260.12 1489.17 Z" fill="#000000" fill-rule="evenodd" fill-opacity="1" /><path clip-path="url(#clip010)" d="M 0 0 M2299.48 1461.62 Q2295.86 1461.62 2294.04 1465.19 Q2292.23 1468.73 2292.23 1475.86 Q2292.23 1482.97 2294.04 1486.53 Q2295.86 1490.07 2299.48 1490.07 Q2303.11 1490.07 2304.92 1486.53 Q2306.74 1482.97 2306.74 1475.86 Q2306.74 1468.73 2304.92 1465.19 Q2303.11 1461.62 2299.48 1461.62 M2299.48 1457.92 Q2305.29 1457.92 2308.34 1462.53 Q2311.42 1467.11 2311.42 1475.86 Q2311.42 1484.59 2308.34 1489.19 Q2305.29 1493.78 2299.48 1493.78 Q2293.67 1493.78 2290.59 1489.19 Q2287.53 1484.59 2287.53 1475.86 Q2287.53 1467.11 2290.59 1462.53 Q2293.67 1457.92 2299.48 1457.92 Z" fill="#000000" fill-rule="evenodd" fill-opacity="1" /><path clip-path="url(#clip010)" d="M 0 0 M2315.99 1462.5 L2329.25 1462.5 L2329.25 1465.69 L2311.42 1465.69 L2311.42 1462.5 Q2313.58 1460.26 2317.31 1456.5 Q2321.05 1452.72 2322.01 1451.63 Q2323.83 1449.58 2324.55 1448.16 Q2325.28 1446.74 2325.28 1445.36 Q2325.28 1443.12 2323.7 1441.71 Q2322.14 1440.3 2319.62 1440.3 Q2317.83 1440.3 2315.84 1440.92 Q2313.86 1441.54 2311.61 1442.8 L2311.61 1438.97 Q2313.9 1438.05 2315.9 1437.58 Q2317.89 1437.11 2319.54 1437.11 Q2323.91 1437.11 2326.5 1439.29 Q2329.1 1441.47 2329.1 1445.12 Q2329.1 1446.85 2328.44 1448.41 Q2327.8 1449.95 2326.09 1452.06 Q2325.62 1452.6 2323.1 1455.22 Q2320.58 1457.81 2315.99 1462.5 Z" fill="#000000" fill-rule="evenodd" fill-opacity="1" /><path clip-path="url(#clip010)" d="M 0 0 M1311.23 1575.11 Q1298.02 1575.11 1298.02 1556.2 Q1298.02 1548.72 1302.95 1538.54 L1309.26 1538.54 Q1304.71 1548.72 1304.71 1556.36 Q1304.71 1570.14 1311.77 1570.14 Q1318.23 1570.14 1318.23 1553.02 L1323.64 1553.02 Q1323.64 1570.14 1330.1 1570.14 Q1337.17 1570.14 1337.17 1556.36 Q1337.17 1548.72 1332.62 1538.54 L1338.92 1538.54 Q1343.85 1548.72 1343.85 1556.2 Q1343.85 1575.11 1330.65 1575.11 Q1321.99 1575.11 1320.94 1565.59 Q1319.63 1575.11 1311.23 1575.11 Z" fill="#000000" fill-rule="evenodd" fill-opacity="1" /><polyline clip-path="url(#clip013)" style="stroke:#000000; stroke-width:2; stroke-opacity:0.1; fill:none" points="
  289.119,1326.03 2352.76,1326.03 
  "/>
<polyline clip-path="url(#clip013)" style="stroke:#000000; stroke-width:2; stroke-opacity:0.1; fill:none" points="
  289.119,1161.18 2352.76,1161.18 
  "/>
<polyline clip-path="url(#clip013)" style="stroke:#000000; stroke-width:2; stroke-opacity:0.1; fill:none" points="
  289.119,996.322 2352.76,996.322 
  "/>
<polyline clip-path="url(#clip013)" style="stroke:#000000; stroke-width:2; stroke-opacity:0.1; fill:none" points="
  289.119,831.466 2352.76,831.466 
  "/>
<polyline clip-path="url(#clip010)" style="stroke:#000000; stroke-width:4; stroke-opacity:1; fill:none" points="
  289.119,1410.9 289.119,815.61 
  "/>
<polyline clip-path="url(#clip010)" style="stroke:#000000; stroke-width:4; stroke-opacity:1; fill:none" points="
  289.119,1326.03 313.883,1326.03 
  "/>
<polyline clip-path="url(#clip010)" style="stroke:#000000; stroke-width:4; stroke-opacity:1; fill:none" points="
  289.119,1161.18 313.883,1161.18 
  "/>
<polyline clip-path="url(#clip010)" style="stroke:#000000; stroke-width:4; stroke-opacity:1; fill:none" points="
  289.119,996.322 313.883,996.322 
  "/>
<polyline clip-path="url(#clip010)" style="stroke:#000000; stroke-width:4; stroke-opacity:1; fill:none" points="
  289.119,831.466 313.883,831.466 
  "/>
<polyline clip-path="url(#clip010)" style="stroke:#000000; stroke-width:4; stroke-opacity:1; fill:none" points="
  289.119,1391.98 301.501,1391.98 
  "/>
<polyline clip-path="url(#clip010)" style="stroke:#000000; stroke-width:4; stroke-opacity:1; fill:none" points="
  289.119,1359 301.501,1359 
  "/>
<polyline clip-path="url(#clip010)" style="stroke:#000000; stroke-width:4; stroke-opacity:1; fill:none" points="
  289.119,1293.06 301.501,1293.06 
  "/>
<polyline clip-path="url(#clip010)" style="stroke:#000000; stroke-width:4; stroke-opacity:1; fill:none" points="
  289.119,1260.09 301.501,1260.09 
  "/>
<polyline clip-path="url(#clip010)" style="stroke:#000000; stroke-width:4; stroke-opacity:1; fill:none" points="
  289.119,1227.12 301.501,1227.12 
  "/>
<polyline clip-path="url(#clip010)" style="stroke:#000000; stroke-width:4; stroke-opacity:1; fill:none" points="
  289.119,1194.15 301.501,1194.15 
  "/>
<polyline clip-path="url(#clip010)" style="stroke:#000000; stroke-width:4; stroke-opacity:1; fill:none" points="
  289.119,1128.21 301.501,1128.21 
  "/>
<polyline clip-path="url(#clip010)" style="stroke:#000000; stroke-width:4; stroke-opacity:1; fill:none" points="
  289.119,1095.24 301.501,1095.24 
  "/>
<polyline clip-path="url(#clip010)" style="stroke:#000000; stroke-width:4; stroke-opacity:1; fill:none" points="
  289.119,1062.26 301.501,1062.26 
  "/>
<polyline clip-path="url(#clip010)" style="stroke:#000000; stroke-width:4; stroke-opacity:1; fill:none" points="
  289.119,1029.29 301.501,1029.29 
  "/>
<polyline clip-path="url(#clip010)" style="stroke:#000000; stroke-width:4; stroke-opacity:1; fill:none" points="
  289.119,963.351 301.501,963.351 
  "/>
<polyline clip-path="url(#clip010)" style="stroke:#000000; stroke-width:4; stroke-opacity:1; fill:none" points="
  289.119,930.38 301.501,930.38 
  "/>
<polyline clip-path="url(#clip010)" style="stroke:#000000; stroke-width:4; stroke-opacity:1; fill:none" points="
  289.119,897.408 301.501,897.408 
  "/>
<polyline clip-path="url(#clip010)" style="stroke:#000000; stroke-width:4; stroke-opacity:1; fill:none" points="
  289.119,864.437 301.501,864.437 
  "/>
<path clip-path="url(#clip010)" d="M 0 0 M131.083 1326.48 L160.759 1326.48 L160.759 1330.42 L131.083 1330.42 L131.083 1326.48 Z" fill="#000000" fill-rule="evenodd" fill-opacity="1" /><path clip-path="url(#clip010)" d="M 0 0 M181.43 1324.17 Q178.282 1324.17 176.43 1326.32 Q174.601 1328.48 174.601 1332.23 Q174.601 1335.95 176.43 1338.13 Q178.282 1340.28 181.43 1340.28 Q184.578 1340.28 186.407 1338.13 Q188.259 1335.95 188.259 1332.23 Q188.259 1328.48 186.407 1326.32 Q184.578 1324.17 181.43 1324.17 M190.712 1309.52 L190.712 1313.78 Q188.953 1312.94 187.147 1312.5 Q185.365 1312.06 183.606 1312.06 Q178.976 1312.06 176.523 1315.19 Q174.092 1318.31 173.745 1324.63 Q175.111 1322.62 177.171 1321.55 Q179.231 1320.47 181.708 1320.47 Q186.916 1320.47 189.925 1323.64 Q192.958 1326.79 192.958 1332.23 Q192.958 1337.55 189.81 1340.77 Q186.661 1343.98 181.43 1343.98 Q175.435 1343.98 172.263 1339.4 Q169.092 1334.79 169.092 1326.07 Q169.092 1317.87 172.981 1313.01 Q176.87 1308.13 183.421 1308.13 Q185.18 1308.13 186.962 1308.48 Q188.768 1308.82 190.712 1309.52 Z" fill="#000000" fill-rule="evenodd" fill-opacity="1" /><path clip-path="url(#clip010)" d="M 0 0 M211.013 1311.83 Q207.402 1311.83 205.573 1315.4 Q203.768 1318.94 203.768 1326.07 Q203.768 1333.17 205.573 1336.74 Q207.402 1340.28 211.013 1340.28 Q214.647 1340.28 216.453 1336.74 Q218.282 1333.17 218.282 1326.07 Q218.282 1318.94 216.453 1315.4 Q214.647 1311.83 211.013 1311.83 M211.013 1308.13 Q216.823 1308.13 219.879 1312.73 Q222.957 1317.32 222.957 1326.07 Q222.957 1334.79 219.879 1339.4 Q216.823 1343.98 211.013 1343.98 Q205.203 1343.98 202.124 1339.4 Q199.069 1334.79 199.069 1326.07 Q199.069 1317.32 202.124 1312.73 Q205.203 1308.13 211.013 1308.13 Z" fill="#000000" fill-rule="evenodd" fill-opacity="1" /><path clip-path="url(#clip010)" d="M 0 0 M241.175 1311.83 Q237.564 1311.83 235.735 1315.4 Q233.93 1318.94 233.93 1326.07 Q233.93 1333.17 235.735 1336.74 Q237.564 1340.28 241.175 1340.28 Q244.809 1340.28 246.615 1336.74 Q248.443 1333.17 248.443 1326.07 Q248.443 1318.94 246.615 1315.4 Q244.809 1311.83 241.175 1311.83 M241.175 1308.13 Q246.985 1308.13 250.041 1312.73 Q253.119 1317.32 253.119 1326.07 Q253.119 1334.79 250.041 1339.4 Q246.985 1343.98 241.175 1343.98 Q235.365 1343.98 232.286 1339.4 Q229.231 1334.79 229.231 1326.07 Q229.231 1317.32 232.286 1312.73 Q235.365 1308.13 241.175 1308.13 Z" fill="#000000" fill-rule="evenodd" fill-opacity="1" /><path clip-path="url(#clip010)" d="M 0 0 M131.083 1161.63 L160.759 1161.63 L160.759 1165.56 L131.083 1165.56 L131.083 1161.63 Z" fill="#000000" fill-rule="evenodd" fill-opacity="1" /><path clip-path="url(#clip010)" d="M 0 0 M183.698 1147.97 L171.893 1166.42 L183.698 1166.42 L183.698 1147.97 M182.472 1143.9 L188.351 1143.9 L188.351 1166.42 L193.282 1166.42 L193.282 1170.31 L188.351 1170.31 L188.351 1178.46 L183.698 1178.46 L183.698 1170.31 L168.097 1170.31 L168.097 1165.8 L182.472 1143.9 Z" fill="#000000" fill-rule="evenodd" fill-opacity="1" /><path clip-path="url(#clip010)" d="M 0 0 M211.013 1146.98 Q207.402 1146.98 205.573 1150.54 Q203.768 1154.08 203.768 1161.21 Q203.768 1168.32 205.573 1171.88 Q207.402 1175.43 211.013 1175.43 Q214.647 1175.43 216.453 1171.88 Q218.282 1168.32 218.282 1161.21 Q218.282 1154.08 216.453 1150.54 Q214.647 1146.98 211.013 1146.98 M211.013 1143.27 Q216.823 1143.27 219.879 1147.88 Q222.957 1152.46 222.957 1161.21 Q222.957 1169.94 219.879 1174.55 Q216.823 1179.13 211.013 1179.13 Q205.203 1179.13 202.124 1174.55 Q199.069 1169.94 199.069 1161.21 Q199.069 1152.46 202.124 1147.88 Q205.203 1143.27 211.013 1143.27 Z" fill="#000000" fill-rule="evenodd" fill-opacity="1" /><path clip-path="url(#clip010)" d="M 0 0 M241.175 1146.98 Q237.564 1146.98 235.735 1150.54 Q233.93 1154.08 233.93 1161.21 Q233.93 1168.32 235.735 1171.88 Q237.564 1175.43 241.175 1175.43 Q244.809 1175.43 246.615 1171.88 Q248.443 1168.32 248.443 1161.21 Q248.443 1154.08 246.615 1150.54 Q244.809 1146.98 241.175 1146.98 M241.175 1143.27 Q246.985 1143.27 250.041 1147.88 Q253.119 1152.46 253.119 1161.21 Q253.119 1169.94 250.041 1174.55 Q246.985 1179.13 241.175 1179.13 Q235.365 1179.13 232.286 1174.55 Q229.231 1169.94 229.231 1161.21 Q229.231 1152.46 232.286 1147.88 Q235.365 1143.27 241.175 1143.27 Z" fill="#000000" fill-rule="evenodd" fill-opacity="1" /><path clip-path="url(#clip010)" d="M 0 0 M131.083 996.773 L160.759 996.773 L160.759 1000.71 L131.083 1000.71 L131.083 996.773 Z" fill="#000000" fill-rule="evenodd" fill-opacity="1" /><path clip-path="url(#clip010)" d="M 0 0 M174.879 1009.67 L191.198 1009.67 L191.198 1013.6 L169.254 1013.6 L169.254 1009.67 Q171.916 1006.91 176.499 1002.28 Q181.106 997.63 182.286 996.287 Q184.532 993.764 185.411 992.028 Q186.314 990.269 186.314 988.579 Q186.314 985.824 184.37 984.088 Q182.448 982.352 179.347 982.352 Q177.148 982.352 174.694 983.116 Q172.263 983.88 169.486 985.431 L169.486 980.709 Q172.31 979.574 174.763 978.996 Q177.217 978.417 179.254 978.417 Q184.624 978.417 187.819 981.102 Q191.013 983.787 191.013 988.278 Q191.013 990.408 190.203 992.329 Q189.416 994.227 187.31 996.82 Q186.731 997.491 183.629 1000.71 Q180.527 1003.9 174.879 1009.67 Z" fill="#000000" fill-rule="evenodd" fill-opacity="1" /><path clip-path="url(#clip010)" d="M 0 0 M211.013 982.121 Q207.402 982.121 205.573 985.685 Q203.768 989.227 203.768 996.357 Q203.768 1003.46 205.573 1007.03 Q207.402 1010.57 211.013 1010.57 Q214.647 1010.57 216.453 1007.03 Q218.282 1003.46 218.282 996.357 Q218.282 989.227 216.453 985.685 Q214.647 982.121 211.013 982.121 M211.013 978.417 Q216.823 978.417 219.879 983.023 Q222.957 987.607 222.957 996.357 Q222.957 1005.08 219.879 1009.69 Q216.823 1014.27 211.013 1014.27 Q205.203 1014.27 202.124 1009.69 Q199.069 1005.08 199.069 996.357 Q199.069 987.607 202.124 983.023 Q205.203 978.417 211.013 978.417 Z" fill="#000000" fill-rule="evenodd" fill-opacity="1" /><path clip-path="url(#clip010)" d="M 0 0 M241.175 982.121 Q237.564 982.121 235.735 985.685 Q233.93 989.227 233.93 996.357 Q233.93 1003.46 235.735 1007.03 Q237.564 1010.57 241.175 1010.57 Q244.809 1010.57 246.615 1007.03 Q248.443 1003.46 248.443 996.357 Q248.443 989.227 246.615 985.685 Q244.809 982.121 241.175 982.121 M241.175 978.417 Q246.985 978.417 250.041 983.023 Q253.119 987.607 253.119 996.357 Q253.119 1005.08 250.041 1009.69 Q246.985 1014.27 241.175 1014.27 Q235.365 1014.27 232.286 1009.69 Q229.231 1005.08 229.231 996.357 Q229.231 987.607 232.286 983.023 Q235.365 978.417 241.175 978.417 Z" fill="#000000" fill-rule="evenodd" fill-opacity="1" /><path clip-path="url(#clip010)" d="M 0 0 M241.175 817.265 Q237.564 817.265 235.735 820.83 Q233.93 824.371 233.93 831.501 Q233.93 838.607 235.735 842.172 Q237.564 845.714 241.175 845.714 Q244.809 845.714 246.615 842.172 Q248.443 838.607 248.443 831.501 Q248.443 824.371 246.615 820.83 Q244.809 817.265 241.175 817.265 M241.175 813.561 Q246.985 813.561 250.041 818.168 Q253.119 822.751 253.119 831.501 Q253.119 840.228 250.041 844.834 Q246.985 849.417 241.175 849.417 Q235.365 849.417 232.286 844.834 Q229.231 840.228 229.231 831.501 Q229.231 822.751 232.286 818.168 Q235.365 813.561 241.175 813.561 Z" fill="#000000" fill-rule="evenodd" fill-opacity="1" /><path clip-path="url(#clip010)" d="M 0 0 M49.9215 1108.27 Q49.9215 1110.34 54.5366 1110.34 L76.371 1110.34 Q76.371 1107.32 73.0608 1104.29 Q70.1008 1101.59 63.003 1101.59 Q56.3827 1101.59 52.8179 1104.33 Q49.9215 1106.55 49.9215 1108.27 M44.9244 1108.27 Q44.9244 1103.82 49.1258 1099.77 Q53.6136 1095.41 63.003 1095.41 Q71.6285 1095.41 76.7529 1099.77 Q81.5909 1103.88 81.5909 1110.34 L94.3859 1110.34 L94.3859 1116.17 L81.6227 1116.17 Q81.6227 1122.5 76.7529 1126.76 Q71.7877 1131.09 63.0348 1131.09 Q53.9319 1131.09 49.2849 1126.76 Q45.8156 1123.52 44.9244 1118.23 L50.1124 1118.23 Q50.8445 1120.34 53.3271 1122.18 Q56.9874 1124.92 63.0348 1124.92 Q69.4642 1124.92 73.1245 1122.18 Q76.4028 1119.73 76.4028 1116.17 L54.5366 1116.17 Q44.9244 1116.17 44.9244 1108.27 Z" fill="#000000" fill-rule="evenodd" fill-opacity="1" /><polyline clip-path="url(#clip013)" style="stroke:#009af9; stroke-width:8; stroke-opacity:1; fill:none" points="
  347.524,832.458 367.189,832.554 386.854,832.661 406.519,832.777 426.184,832.905 445.849,833.045 465.514,833.199 485.179,833.367 504.844,833.553 524.508,833.756 
  544.173,833.979 563.838,834.223 583.503,834.491 603.168,834.785 622.833,835.108 642.498,835.462 662.163,835.849 681.828,836.274 701.493,836.74 721.158,837.25 
  740.823,837.808 760.487,838.419 780.152,839.088 799.817,839.818 819.482,840.615 839.147,841.486 858.812,842.434 878.477,843.466 898.142,844.586 917.807,845.802 
  937.472,847.117 957.137,848.536 976.802,850.062 996.466,851.698 1016.13,853.445 1035.8,855.301 1055.46,857.264 1075.13,859.329 1094.79,861.486 1114.46,863.725 
  1134.12,866.035 1153.79,868.398 1173.45,870.8 1193.12,873.224 1212.78,875.652 1232.45,878.068 1252.11,880.459 1271.78,882.812 1291.44,885.118 1311.11,887.371 
  1330.77,889.568 1350.44,891.708 1370.1,893.793 1389.76,895.828 1409.43,897.82 1429.09,899.776 1448.76,901.706 1468.42,903.622 1488.09,905.535 1507.75,907.459 
  1527.42,909.408 1547.08,911.396 1566.75,913.439 1586.41,915.553 1606.08,917.757 1625.74,920.067 1645.41,922.504 1665.07,925.089 1684.74,927.843 1704.4,930.79 
  1724.07,933.955 1743.73,937.366 1763.4,941.052 1783.06,945.044 1802.73,949.378 1822.39,954.091 1842.06,959.224 1861.72,964.821 1881.39,970.93 1901.05,977.605 
  1920.72,984.903 1940.38,992.887 1960.05,1001.63 1979.71,1011.2 1999.38,1021.68 2019.04,1033.18 2038.71,1045.77 2058.37,1059.58 2078.04,1074.72 2097.7,1091.33 
  2117.37,1109.54 2137.03,1129.52 2156.7,1151.44 2176.36,1175.49 2196.03,1201.88 2215.69,1230.83 2235.36,1262.6 2255.02,1297.46 2274.69,1335.71 2294.35,1377.69 
  
  "/>
<polyline clip-path="url(#clip013)" style="stroke:#ff0000; stroke-width:4; stroke-opacity:1; fill:none" points="
  347.524,979.836 1907.26,979.836 1907.26,1394.05 
  "/>
<path clip-path="url(#clip010)" d="M 0 0 M1946.96 971.724 Q1946.96 973.978 1945.73 978.956 Q1944.5 983.933 1943.01 987.329 Q1939.82 994.707 1934.31 994.707 Q1933.64 994.707 1932.97 994.649 Q1932.32 994.59 1931.36 994.327 Q1930.39 994.063 1929.6 993.653 Q1928.81 993.214 1928.02 992.394 Q1927.26 991.575 1926.82 990.491 Q1924.39 994.707 1920.58 994.707 Q1916.89 994.707 1914.46 992.834 Q1912.06 990.96 1912.06 987.124 Q1912.06 985.397 1912.77 982.85 Q1913.47 980.303 1915.43 975.032 Q1916.51 972.31 1916.51 970.816 Q1916.51 970.143 1916.37 969.704 Q1916.22 969.265 1915.93 969.118 Q1915.66 968.943 1915.49 968.913 Q1915.31 968.855 1915.02 968.855 Q1913.26 968.855 1911.68 970.641 Q1910.1 972.397 1908.96 976.291 Q1908.73 977.023 1908.58 977.199 Q1908.43 977.375 1907.99 977.375 Q1907.26 977.345 1907.26 976.76 Q1907.26 976.526 1907.53 975.618 Q1907.79 974.681 1908.4 973.305 Q1909.05 971.9 1909.93 970.641 Q1910.8 969.353 1912.18 968.445 Q1913.59 967.537 1915.2 967.537 Q1917.36 967.537 1918.74 968.972 Q1920.12 970.407 1920.12 972.456 Q1920.12 973.042 1919.97 973.686 Q1919.82 974.301 1919.68 974.71 Q1919.56 975.091 1919.09 976.291 Q1917.16 981.357 1916.54 983.787 Q1915.96 986.217 1915.96 987.915 Q1915.96 988.471 1915.99 988.91 Q1916.02 989.349 1916.25 990.257 Q1916.51 991.165 1916.98 991.78 Q1917.45 992.365 1918.42 992.863 Q1919.41 993.361 1920.76 993.361 Q1924.13 993.361 1926.29 988.325 Q1926.23 988.032 1926.23 987.271 Q1926.23 985.573 1926.76 983.289 Q1926.91 982.762 1927.76 979.395 Q1928.61 975.999 1929.34 973.042 Q1930.1 970.055 1930.19 969.88 Q1930.48 969.06 1931.12 968.621 Q1931.77 968.181 1932.41 968.181 Q1933.14 968.181 1933.64 968.621 Q1934.14 969.06 1934.14 969.821 Q1934.14 969.967 1933.96 970.641 Q1933.82 971.285 1933.58 972.251 Q1933.35 973.217 1933.23 973.715 L1930.71 983.787 Q1930.07 986.129 1930.07 988.149 Q1930.07 990.696 1931.21 992.043 Q1932.35 993.361 1934.49 993.361 Q1938.5 993.361 1941.08 988.091 Q1942.25 985.807 1943.3 982.235 Q1944.39 978.663 1944.39 977.111 Q1944.39 974.183 1942.22 972.017 Q1941.75 971.607 1941.55 971.285 Q1941.34 970.934 1941.34 970.407 Q1941.34 969.411 1942.28 968.474 Q1943.22 967.537 1944.33 967.537 Q1945.32 967.537 1946.14 968.533 Q1946.96 969.499 1946.96 971.724 Z" fill="#000000" fill-rule="evenodd" fill-opacity="1" /><path clip-path="url(#clip010)" d="M 0 0 M1969.14 1000.87 Q1969.31 1001.06 1969.31 1001.24 Q1969.31 1001.43 1968.9 1001.96 Q1968.51 1002.49 1967.67 1003.21 Q1966.83 1003.93 1965.74 1004.6 Q1964.66 1005.28 1963.06 1005.73 Q1961.46 1006.2 1959.78 1006.2 Q1956.64 1006.2 1954.8 1004.13 Q1952.97 1002.06 1952.97 999.091 Q1952.97 996.201 1954.59 993.434 Q1956.21 990.647 1958.84 988.925 Q1961.46 987.183 1964.23 987.183 Q1966.42 987.183 1967.79 988.208 Q1969.17 989.233 1969.17 990.79 Q1969.17 991.999 1968.47 992.737 Q1967.77 993.475 1966.83 993.475 Q1966.17 993.475 1965.72 993.106 Q1965.27 992.717 1965.27 991.999 Q1965.27 991.077 1966.03 990.36 Q1966.32 990.073 1966.64 989.95 Q1966.99 989.806 1967.2 989.806 Q1967.4 989.786 1967.87 989.786 Q1967.44 988.987 1966.42 988.556 Q1965.41 988.105 1964.27 988.105 Q1962.57 988.105 1960.95 989.294 Q1959.33 990.462 1958.34 992.307 Q1957.36 994.11 1956.73 996.672 Q1956.09 999.214 1956.09 1000.69 Q1956.09 1002.72 1957.03 1003.99 Q1957.98 1005.26 1959.86 1005.26 Q1960.23 1005.26 1960.62 1005.24 Q1961.03 1005.22 1962.05 1004.99 Q1963.1 1004.77 1964.02 1004.38 Q1964.94 1003.99 1966.11 1003.15 Q1967.3 1002.29 1968.24 1001.12 Q1968.57 1000.69 1968.8 1000.69 Q1968.98 1000.69 1969.14 1000.87 Z" fill="#000000" fill-rule="evenodd" fill-opacity="1" /><path clip-path="url(#clip010)" d="M 0 0 M1988.93 994.274 Q1988.93 996.508 1987.95 998.722 Q1986.97 1000.91 1985.39 1002.55 Q1983.83 1004.17 1981.78 1005.2 Q1979.73 1006.2 1977.68 1006.2 Q1974.75 1006.2 1972.85 1004.21 Q1970.96 1002.21 1970.96 999.091 Q1970.96 996.18 1972.58 993.414 Q1974.22 990.626 1976.84 988.905 Q1979.47 987.183 1982.21 987.183 Q1985.1 987.183 1987.01 989.13 Q1988.93 991.077 1988.93 994.274 M1985.86 992.635 Q1985.86 990.647 1984.9 989.376 Q1983.93 988.105 1982.17 988.105 Q1981.66 988.105 1981.06 988.269 Q1980.47 988.413 1979.69 988.802 Q1978.93 989.192 1978.07 990.011 Q1977.23 990.811 1976.49 991.958 Q1975.53 993.475 1974.79 996.262 Q1974.08 999.029 1974.08 1000.69 Q1974.08 1002.98 1975.14 1004.13 Q1976.21 1005.26 1977.72 1005.26 Q1979.2 1005.26 1980.76 1004.23 Q1982.33 1003.19 1983.42 1001.41 Q1984.51 999.562 1985.18 996.857 Q1985.86 994.131 1985.86 992.635 Z" fill="#000000" fill-rule="evenodd" fill-opacity="1" /><path clip-path="url(#clip010)" d="M 0 0 M1998.37 993.068 Q1997.52 992.102 1997.52 990.843 Q1997.52 989.584 1998.34 988.647 Q1999.19 987.681 2000.71 987.681 Q2002.49 987.681 2003.52 989.408 Q2004.54 991.106 2004.54 993.975 Q2004.54 997.079 2003.29 999.948 Q2002.03 1002.85 2000.8 1004.22 Q1999.57 1005.6 1999.07 1005.6 Q1998.48 1005.6 1998.48 1004.95 Q1998.48 1004.72 1998.89 1004.28 Q2003.2 999.655 2003.23 993.975 Q2003.23 993.068 2003.11 993.068 L2002.96 993.185 Q2001.94 994.034 2000.71 994.034 Q1999.22 994.034 1998.37 993.068 Z" fill="#000000" fill-rule="evenodd" fill-opacity="1" /><path clip-path="url(#clip010)" d="M 0 0 M2079.69 978.195 Q2080.04 978.546 2080.04 979.044 Q2080.04 979.541 2079.69 979.893 Q2079.34 980.244 2078.84 980.244 L2041.31 980.244 Q2040.81 980.244 2040.46 979.893 Q2040.11 979.541 2040.11 979.044 Q2040.11 978.546 2040.46 978.195 Q2040.81 977.843 2041.31 977.843 L2078.84 977.843 Q2079.34 977.843 2079.69 978.195 Z" fill="#000000" fill-rule="evenodd" fill-opacity="1" /><path clip-path="url(#clip010)" d="M 0 0 M2102.94 959.808 L2102.94 957.934 Q2110.14 957.934 2113.86 954.099 Q2114.89 954.099 2115.06 954.333 Q2115.24 954.567 2115.24 955.65 L2115.24 989.291 Q2115.24 991.077 2116.11 991.633 Q2116.99 992.189 2120.83 992.189 L2122.73 992.189 L2122.73 994.034 Q2120.62 993.858 2113.01 993.858 Q2105.4 993.858 2103.32 994.034 L2103.32 992.189 L2105.22 992.189 Q2109 992.189 2109.91 991.662 Q2110.82 991.106 2110.82 989.291 L2110.82 958.227 Q2107.68 959.808 2102.94 959.808 Z" fill="#000000" fill-rule="evenodd" fill-opacity="1" /><path clip-path="url(#clip010)" d="M 0 0 M2128.26 984.987 Q2128.26 978.282 2136.9 973.949 Q2133.18 971.431 2132.51 970.699 Q2129.87 967.772 2129.87 964.112 Q2129.87 959.925 2133.03 957.026 Q2136.22 954.099 2140.73 954.099 Q2145.04 954.099 2148.29 956.587 Q2151.54 959.076 2151.54 963.028 Q2151.54 968.591 2144.28 972.339 Q2149.08 975.325 2150.22 976.584 Q2153.15 979.834 2153.15 983.962 Q2153.15 988.764 2149.46 992.072 Q2145.77 995.351 2140.67 995.351 Q2135.7 995.351 2131.98 992.453 Q2128.26 989.554 2128.26 984.987 M2131.25 984.987 Q2131.25 988.705 2134.03 991.194 Q2136.84 993.683 2140.73 993.683 Q2144.51 993.683 2147.32 991.516 Q2150.16 989.349 2150.16 986.129 Q2150.16 984.87 2149.72 983.787 Q2149.31 982.703 2148.46 981.854 Q2147.64 980.976 2147.12 980.595 Q2146.62 980.185 2145.65 979.512 L2138.27 974.857 Q2131.25 978.751 2131.25 984.987 M2132.51 961.77 Q2132.51 964.639 2135.52 966.63 L2142.96 971.431 Q2148.9 967.947 2148.9 963.028 Q2148.9 959.837 2146.47 957.729 Q2144.04 955.592 2140.67 955.592 Q2137.37 955.592 2134.94 957.349 Q2132.51 959.076 2132.51 961.77 Z" fill="#000000" fill-rule="evenodd" fill-opacity="1" /><path clip-path="url(#clip010)" d="M 0 0 M2157.96 974.857 Q2157.96 966.044 2160.18 961.243 Q2163.28 954.099 2170.6 954.099 Q2172.16 954.099 2173.77 954.538 Q2175.41 954.948 2177.45 956.558 Q2179.53 958.168 2180.79 960.803 Q2183.19 965.898 2183.19 974.857 Q2183.19 983.611 2180.97 988.383 Q2177.72 995.351 2170.54 995.351 Q2167.85 995.351 2165.1 993.975 Q2162.38 992.599 2160.65 989.291 Q2157.96 984.343 2157.96 974.857 M2162.93 974.125 Q2162.93 983.172 2163.58 986.773 Q2164.31 990.667 2166.3 992.365 Q2168.32 994.034 2170.54 994.034 Q2172.95 994.034 2174.94 992.248 Q2176.96 990.433 2177.57 986.539 Q2178.25 982.703 2178.22 974.125 Q2178.22 965.781 2177.63 962.443 Q2176.84 958.549 2174.73 956.997 Q2172.65 955.416 2170.54 955.416 Q2169.75 955.416 2168.91 955.65 Q2168.09 955.885 2166.89 956.558 Q2165.68 957.231 2164.75 958.9 Q2163.84 960.569 2163.4 963.087 Q2162.93 966.337 2162.93 974.125 Z" fill="#000000" fill-rule="evenodd" fill-opacity="1" /><path clip-path="url(#clip010)" d="M 0 0 M2187.65 959.749 Q2187.65 956.997 2189.58 955.036 Q2191.54 953.074 2194.3 953.074 Q2197.11 953.074 2199.01 955.065 Q2200.94 957.026 2200.94 959.662 Q2200.94 962.414 2198.95 964.375 Q2196.99 966.337 2194.3 966.337 Q2191.49 966.337 2189.55 964.375 Q2187.65 962.384 2187.65 959.749 M2191.31 956.704 Q2190.05 957.934 2190.05 959.749 Q2190.05 961.535 2191.31 962.736 Q2192.57 963.936 2194.3 963.936 Q2196.02 963.936 2197.25 962.736 Q2198.48 961.535 2198.48 959.749 Q2198.48 957.934 2197.22 956.704 Q2195.97 955.475 2194.3 955.475 Q2192.57 955.475 2191.31 956.704 Z" fill="#000000" fill-rule="evenodd" fill-opacity="1" /></svg>
