<?xml version="1.0" encoding="utf-8"?>
<svg xmlns="http://www.w3.org/2000/svg" xmlns:xlink="http://www.w3.org/1999/xlink" width="600" height="400" viewBox="0 0 2400 1600">
<defs>
  <clipPath id="clip530">
    <rect x="0" y="0" width="2400" height="1600"/>
  </clipPath>
</defs>
<path clip-path="url(#clip530)" d="
M0 1600 L2400 1600 L2400 0 L0 0  Z
  " fill="#ffffff" fill-rule="evenodd" fill-opacity="1"/>
<defs>
  <clipPath id="clip531">
    <rect x="480" y="0" width="1681" height="1600"/>
  </clipPath>
</defs>
<path clip-path="url(#clip530)" d="
M169.121 1486.45 L2352.76 1486.45 L2352.76 47.2441 L169.121 47.2441  Z
  " fill="#ffffff" fill-rule="evenodd" fill-opacity="1"/>
<defs>
  <clipPath id="clip532">
    <rect x="169" y="47" width="2185" height="1440"/>
  </clipPath>
</defs>
<polyline clip-path="url(#clip532)" style="stroke:#000000; stroke-width:2; stroke-opacity:0.1; fill:none" points="
  230.922,1486.45 230.922,47.2441 
  "/>
<polyline clip-path="url(#clip532)" style="stroke:#000000; stroke-width:2; stroke-opacity:0.1; fill:none" points="
  660.096,1486.45 660.096,47.2441 
  "/>
<polyline clip-path="url(#clip532)" style="stroke:#000000; stroke-width:2; stroke-opacity:0.1; fill:none" points="
  1089.27,1486.45 1089.27,47.2441 
  "/>
<polyline clip-path="url(#clip532)" style="stroke:#000000; stroke-width:2; stroke-opacity:0.1; fill:none" points="
  1518.44,1486.45 1518.44,47.2441 
  "/>
<polyline clip-path="url(#clip532)" style="stroke:#000000; stroke-width:2; stroke-opacity:0.1; fill:none" points="
  1947.62,1486.45 1947.62,47.2441 
  "/>
<polyline clip-path="url(#clip530)" style="stroke:#000000; stroke-width:4; stroke-opacity:1; fill:none" points="
  169.121,1486.45 2352.76,1486.45 
  "/>
<polyline clip-path="url(#clip530)" style="stroke:#000000; stroke-width:4; stroke-opacity:1; fill:none" points="
  230.922,1486.45 230.922,1469.18 
  "/>
<polyline clip-path="url(#clip530)" style="stroke:#000000; stroke-width:4; stroke-opacity:1; fill:none" points="
  660.096,1486.45 660.096,1469.18 
  "/>
<polyline clip-path="url(#clip530)" style="stroke:#000000; stroke-width:4; stroke-opacity:1; fill:none" points="
  1089.27,1486.45 1089.27,1469.18 
  "/>
<polyline clip-path="url(#clip530)" style="stroke:#000000; stroke-width:4; stroke-opacity:1; fill:none" points="
  1518.44,1486.45 1518.44,1469.18 
  "/>
<polyline clip-path="url(#clip530)" style="stroke:#000000; stroke-width:4; stroke-opacity:1; fill:none" points="
  1947.62,1486.45 1947.62,1469.18 
  "/>
<path clip-path="url(#clip530)" d="M 0 0 M208.307 1515.64 Q204.696 1515.64 202.867 1519.2 Q201.061 1522.75 201.061 1529.87 Q201.061 1536.98 202.867 1540.55 Q204.696 1544.09 208.307 1544.09 Q211.941 1544.09 213.746 1540.55 Q215.575 1536.98 215.575 1529.87 Q215.575 1522.75 213.746 1519.2 Q211.941 1515.64 208.307 1515.64 M208.307 1511.93 Q214.117 1511.93 217.172 1516.54 Q220.251 1521.12 220.251 1529.87 Q220.251 1538.6 217.172 1543.21 Q214.117 1547.79 208.307 1547.79 Q202.497 1547.79 199.418 1543.21 Q196.362 1538.6 196.362 1529.87 Q196.362 1521.12 199.418 1516.54 Q202.497 1511.93 208.307 1511.93 Z" fill="#000000" fill-rule="evenodd" fill-opacity="1" /><path clip-path="url(#clip530)" d="M 0 0 M228.469 1541.24 L233.353 1541.24 L233.353 1547.12 L228.469 1547.12 L228.469 1541.24 Z" fill="#000000" fill-rule="evenodd" fill-opacity="1" /><path clip-path="url(#clip530)" d="M 0 0 M253.538 1515.64 Q249.927 1515.64 248.098 1519.2 Q246.293 1522.75 246.293 1529.87 Q246.293 1536.98 248.098 1540.55 Q249.927 1544.09 253.538 1544.09 Q257.172 1544.09 258.978 1540.55 Q260.806 1536.98 260.806 1529.87 Q260.806 1522.75 258.978 1519.2 Q257.172 1515.64 253.538 1515.64 M253.538 1511.93 Q259.348 1511.93 262.404 1516.54 Q265.482 1521.12 265.482 1529.87 Q265.482 1538.6 262.404 1543.21 Q259.348 1547.79 253.538 1547.79 Q247.728 1547.79 244.649 1543.21 Q241.594 1538.6 241.594 1529.87 Q241.594 1521.12 244.649 1516.54 Q247.728 1511.93 253.538 1511.93 Z" fill="#000000" fill-rule="evenodd" fill-opacity="1" /><path clip-path="url(#clip530)" d="M 0 0 M637.978 1515.64 Q634.367 1515.64 632.538 1519.2 Q630.732 1522.75 630.732 1529.87 Q630.732 1536.98 632.538 1540.55 Q634.367 1544.09 637.978 1544.09 Q641.612 1544.09 643.418 1540.55 Q645.246 1536.98 645.246 1529.87 Q645.246 1522.75 643.418 1519.2 Q641.612 1515.64 637.978 1515.64 M637.978 1511.93 Q643.788 1511.93 646.844 1516.54 Q649.922 1521.12 649.922 1529.87 Q649.922 1538.6 646.844 1543.21 Q643.788 1547.79 637.978 1547.79 Q632.168 1547.79 629.089 1543.21 Q626.033 1538.6 626.033 1529.87 Q626.033 1521.12 629.089 1516.54 Q632.168 1511.93 637.978 1511.93 Z" fill="#000000" fill-rule="evenodd" fill-opacity="1" /><path clip-path="url(#clip530)" d="M 0 0 M658.14 1541.24 L663.024 1541.24 L663.024 1547.12 L658.14 1547.12 L658.14 1541.24 Z" fill="#000000" fill-rule="evenodd" fill-opacity="1" /><path clip-path="url(#clip530)" d="M 0 0 M673.255 1512.56 L691.612 1512.56 L691.612 1516.5 L677.538 1516.5 L677.538 1524.97 Q678.556 1524.62 679.575 1524.46 Q680.593 1524.27 681.612 1524.27 Q687.399 1524.27 690.778 1527.44 Q694.158 1530.62 694.158 1536.03 Q694.158 1541.61 690.686 1544.71 Q687.214 1547.79 680.894 1547.79 Q678.718 1547.79 676.45 1547.42 Q674.204 1547.05 671.797 1546.31 L671.797 1541.61 Q673.88 1542.74 676.103 1543.3 Q678.325 1543.86 680.802 1543.86 Q684.806 1543.86 687.144 1541.75 Q689.482 1539.64 689.482 1536.03 Q689.482 1532.42 687.144 1530.31 Q684.806 1528.21 680.802 1528.21 Q678.927 1528.21 677.052 1528.62 Q675.2 1529.04 673.255 1529.92 L673.255 1512.56 Z" fill="#000000" fill-rule="evenodd" fill-opacity="1" /><path clip-path="url(#clip530)" d="M 0 0 M1056.42 1543.18 L1064.06 1543.18 L1064.06 1516.82 L1055.75 1518.49 L1055.75 1514.23 L1064.01 1512.56 L1068.69 1512.56 L1068.69 1543.18 L1076.33 1543.18 L1076.33 1547.12 L1056.42 1547.12 L1056.42 1543.18 Z" fill="#000000" fill-rule="evenodd" fill-opacity="1" /><path clip-path="url(#clip530)" d="M 0 0 M1085.77 1541.24 L1090.66 1541.24 L1090.66 1547.12 L1085.77 1547.12 L1085.77 1541.24 Z" fill="#000000" fill-rule="evenodd" fill-opacity="1" /><path clip-path="url(#clip530)" d="M 0 0 M1110.84 1515.64 Q1107.23 1515.64 1105.4 1519.2 Q1103.6 1522.75 1103.6 1529.87 Q1103.6 1536.98 1105.4 1540.55 Q1107.23 1544.09 1110.84 1544.09 Q1114.48 1544.09 1116.28 1540.55 Q1118.11 1536.98 1118.11 1529.87 Q1118.11 1522.75 1116.28 1519.2 Q1114.48 1515.64 1110.84 1515.64 M1110.84 1511.93 Q1116.65 1511.93 1119.71 1516.54 Q1122.79 1521.12 1122.79 1529.87 Q1122.79 1538.6 1119.71 1543.21 Q1116.65 1547.79 1110.84 1547.79 Q1105.03 1547.79 1101.95 1543.21 Q1098.9 1538.6 1098.9 1529.87 Q1098.9 1521.12 1101.95 1516.54 Q1105.03 1511.93 1110.84 1511.93 Z" fill="#000000" fill-rule="evenodd" fill-opacity="1" /><path clip-path="url(#clip530)" d="M 0 0 M1486.09 1543.18 L1493.73 1543.18 L1493.73 1516.82 L1485.42 1518.49 L1485.42 1514.23 L1493.69 1512.56 L1498.36 1512.56 L1498.36 1543.18 L1506 1543.18 L1506 1547.12 L1486.09 1547.12 L1486.09 1543.18 Z" fill="#000000" fill-rule="evenodd" fill-opacity="1" /><path clip-path="url(#clip530)" d="M 0 0 M1515.45 1541.24 L1520.33 1541.24 L1520.33 1547.12 L1515.45 1547.12 L1515.45 1541.24 Z" fill="#000000" fill-rule="evenodd" fill-opacity="1" /><path clip-path="url(#clip530)" d="M 0 0 M1530.56 1512.56 L1548.92 1512.56 L1548.92 1516.5 L1534.84 1516.5 L1534.84 1524.97 Q1535.86 1524.62 1536.88 1524.46 Q1537.9 1524.27 1538.92 1524.27 Q1544.7 1524.27 1548.08 1527.44 Q1551.46 1530.62 1551.46 1536.03 Q1551.46 1541.61 1547.99 1544.71 Q1544.52 1547.79 1538.2 1547.79 Q1536.02 1547.79 1533.76 1547.42 Q1531.51 1547.05 1529.1 1546.31 L1529.1 1541.61 Q1531.19 1542.74 1533.41 1543.3 Q1535.63 1543.86 1538.11 1543.86 Q1542.11 1543.86 1544.45 1541.75 Q1546.79 1539.64 1546.79 1536.03 Q1546.79 1532.42 1544.45 1530.31 Q1542.11 1528.21 1538.11 1528.21 Q1536.23 1528.21 1534.36 1528.62 Q1532.51 1529.04 1530.56 1529.92 L1530.56 1512.56 Z" fill="#000000" fill-rule="evenodd" fill-opacity="1" /><path clip-path="url(#clip530)" d="M 0 0 M1918.85 1543.18 L1935.17 1543.18 L1935.17 1547.12 L1913.23 1547.12 L1913.23 1543.18 Q1915.89 1540.43 1920.48 1535.8 Q1925.08 1531.15 1926.26 1529.81 Q1928.51 1527.28 1929.39 1525.55 Q1930.29 1523.79 1930.29 1522.1 Q1930.29 1519.34 1928.35 1517.61 Q1926.42 1515.87 1923.32 1515.87 Q1921.12 1515.87 1918.67 1516.63 Q1916.24 1517.4 1913.46 1518.95 L1913.46 1514.23 Q1916.29 1513.09 1918.74 1512.51 Q1921.19 1511.93 1923.23 1511.93 Q1928.6 1511.93 1931.79 1514.62 Q1934.99 1517.31 1934.99 1521.8 Q1934.99 1523.93 1934.18 1525.85 Q1933.39 1527.74 1931.29 1530.34 Q1930.71 1531.01 1927.6 1534.23 Q1924.5 1537.42 1918.85 1543.18 Z" fill="#000000" fill-rule="evenodd" fill-opacity="1" /><path clip-path="url(#clip530)" d="M 0 0 M1944.99 1541.24 L1949.87 1541.24 L1949.87 1547.12 L1944.99 1547.12 L1944.99 1541.24 Z" fill="#000000" fill-rule="evenodd" fill-opacity="1" /><path clip-path="url(#clip530)" d="M 0 0 M1970.06 1515.64 Q1966.45 1515.64 1964.62 1519.2 Q1962.81 1522.75 1962.81 1529.87 Q1962.81 1536.98 1964.62 1540.55 Q1966.45 1544.09 1970.06 1544.09 Q1973.69 1544.09 1975.5 1540.55 Q1977.33 1536.98 1977.33 1529.87 Q1977.33 1522.75 1975.5 1519.2 Q1973.69 1515.64 1970.06 1515.64 M1970.06 1511.93 Q1975.87 1511.93 1978.92 1516.54 Q1982 1521.12 1982 1529.87 Q1982 1538.6 1978.92 1543.21 Q1975.87 1547.79 1970.06 1547.79 Q1964.25 1547.79 1961.17 1543.21 Q1958.11 1538.6 1958.11 1529.87 Q1958.11 1521.12 1961.17 1516.54 Q1964.25 1511.93 1970.06 1511.93 Z" fill="#000000" fill-rule="evenodd" fill-opacity="1" /><polyline clip-path="url(#clip532)" style="stroke:#000000; stroke-width:2; stroke-opacity:0.1; fill:none" points="
  169.121,1445.72 2352.76,1445.72 
  "/>
<polyline clip-path="url(#clip532)" style="stroke:#000000; stroke-width:2; stroke-opacity:0.1; fill:none" points="
  169.121,1204.98 2352.76,1204.98 
  "/>
<polyline clip-path="url(#clip532)" style="stroke:#000000; stroke-width:2; stroke-opacity:0.1; fill:none" points="
  169.121,964.248 2352.76,964.248 
  "/>
<polyline clip-path="url(#clip532)" style="stroke:#000000; stroke-width:2; stroke-opacity:0.1; fill:none" points="
  169.121,723.514 2352.76,723.514 
  "/>
<polyline clip-path="url(#clip532)" style="stroke:#000000; stroke-width:2; stroke-opacity:0.1; fill:none" points="
  169.121,482.78 2352.76,482.78 
  "/>
<polyline clip-path="url(#clip532)" style="stroke:#000000; stroke-width:2; stroke-opacity:0.1; fill:none" points="
  169.121,242.046 2352.76,242.046 
  "/>
<polyline clip-path="url(#clip530)" style="stroke:#000000; stroke-width:4; stroke-opacity:1; fill:none" points="
  169.121,1486.45 169.121,47.2441 
  "/>
<polyline clip-path="url(#clip530)" style="stroke:#000000; stroke-width:4; stroke-opacity:1; fill:none" points="
  169.121,1445.72 195.325,1445.72 
  "/>
<polyline clip-path="url(#clip530)" style="stroke:#000000; stroke-width:4; stroke-opacity:1; fill:none" points="
  169.121,1204.98 195.325,1204.98 
  "/>
<polyline clip-path="url(#clip530)" style="stroke:#000000; stroke-width:4; stroke-opacity:1; fill:none" points="
  169.121,964.248 195.325,964.248 
  "/>
<polyline clip-path="url(#clip530)" style="stroke:#000000; stroke-width:4; stroke-opacity:1; fill:none" points="
  169.121,723.514 195.325,723.514 
  "/>
<polyline clip-path="url(#clip530)" style="stroke:#000000; stroke-width:4; stroke-opacity:1; fill:none" points="
  169.121,482.78 195.325,482.78 
  "/>
<polyline clip-path="url(#clip530)" style="stroke:#000000; stroke-width:4; stroke-opacity:1; fill:none" points="
  169.121,242.046 195.325,242.046 
  "/>
<path clip-path="url(#clip530)" d="M 0 0 M121.177 1431.51 Q117.566 1431.51 115.737 1435.08 Q113.932 1438.62 113.932 1445.75 Q113.932 1452.86 115.737 1456.42 Q117.566 1459.96 121.177 1459.96 Q124.811 1459.96 126.617 1456.42 Q128.445 1452.86 128.445 1445.75 Q128.445 1438.62 126.617 1435.08 Q124.811 1431.51 121.177 1431.51 M121.177 1427.81 Q126.987 1427.81 130.043 1432.42 Q133.121 1437 133.121 1445.75 Q133.121 1454.48 130.043 1459.08 Q126.987 1463.67 121.177 1463.67 Q115.367 1463.67 112.288 1459.08 Q109.233 1454.48 109.233 1445.75 Q109.233 1437 112.288 1432.42 Q115.367 1427.81 121.177 1427.81 Z" fill="#000000" fill-rule="evenodd" fill-opacity="1" /><path clip-path="url(#clip530)" d="M 0 0 M86.0382 1218.33 L102.358 1218.33 L102.358 1222.26 L80.4133 1222.26 L80.4133 1218.33 Q83.0753 1215.57 87.6586 1210.94 Q92.2651 1206.29 93.4456 1204.95 Q95.691 1202.42 96.5706 1200.69 Q97.4734 1198.93 97.4734 1197.24 Q97.4734 1194.48 95.5289 1192.75 Q93.6076 1191.01 90.5058 1191.01 Q88.3067 1191.01 85.8531 1191.78 Q83.4225 1192.54 80.6447 1194.09 L80.6447 1189.37 Q83.4688 1188.23 85.9225 1187.66 Q88.3762 1187.08 90.4132 1187.08 Q95.7836 1187.08 98.978 1189.76 Q102.172 1192.45 102.172 1196.94 Q102.172 1199.07 101.362 1200.99 Q100.575 1202.89 98.4687 1205.48 Q97.89 1206.15 94.7882 1209.37 Q91.6864 1212.56 86.0382 1218.33 Z" fill="#000000" fill-rule="evenodd" fill-opacity="1" /><path clip-path="url(#clip530)" d="M 0 0 M112.219 1187.7 L130.575 1187.7 L130.575 1191.64 L116.501 1191.64 L116.501 1200.11 Q117.52 1199.76 118.538 1199.6 Q119.557 1199.41 120.575 1199.41 Q126.362 1199.41 129.742 1202.59 Q133.121 1205.76 133.121 1211.17 Q133.121 1216.75 129.649 1219.85 Q126.177 1222.93 119.857 1222.93 Q117.682 1222.93 115.413 1222.56 Q113.168 1222.19 110.76 1221.45 L110.76 1216.75 Q112.844 1217.89 115.066 1218.44 Q117.288 1219 119.765 1219 Q123.77 1219 126.107 1216.89 Q128.445 1214.78 128.445 1211.17 Q128.445 1207.56 126.107 1205.46 Q123.77 1203.35 119.765 1203.35 Q117.89 1203.35 116.015 1203.77 Q114.163 1204.18 112.219 1205.06 L112.219 1187.7 Z" fill="#000000" fill-rule="evenodd" fill-opacity="1" /><path clip-path="url(#clip530)" d="M 0 0 M81.0614 946.968 L99.4178 946.968 L99.4178 950.903 L85.3438 950.903 L85.3438 959.375 Q86.3623 959.028 87.3808 958.866 Q88.3993 958.681 89.4178 958.681 Q95.2049 958.681 98.5845 961.852 Q101.964 965.023 101.964 970.44 Q101.964 976.019 98.4919 979.12 Q95.0197 982.199 88.7003 982.199 Q86.5243 982.199 84.2558 981.829 Q82.0105 981.458 79.6031 980.718 L79.6031 976.019 Q81.6864 977.153 83.9086 977.708 Q86.1308 978.264 88.6077 978.264 Q92.6123 978.264 94.9502 976.157 Q97.2882 974.051 97.2882 970.44 Q97.2882 966.829 94.9502 964.722 Q92.6123 962.616 88.6077 962.616 Q86.7327 962.616 84.8577 963.033 Q83.0058 963.449 81.0614 964.329 L81.0614 946.968 Z" fill="#000000" fill-rule="evenodd" fill-opacity="1" /><path clip-path="url(#clip530)" d="M 0 0 M121.177 950.047 Q117.566 950.047 115.737 953.611 Q113.932 957.153 113.932 964.283 Q113.932 971.389 115.737 974.954 Q117.566 978.495 121.177 978.495 Q124.811 978.495 126.617 974.954 Q128.445 971.389 128.445 964.283 Q128.445 957.153 126.617 953.611 Q124.811 950.047 121.177 950.047 M121.177 946.343 Q126.987 946.343 130.043 950.949 Q133.121 955.533 133.121 964.283 Q133.121 973.009 130.043 977.616 Q126.987 982.199 121.177 982.199 Q115.367 982.199 112.288 977.616 Q109.233 973.009 109.233 964.283 Q109.233 955.533 112.288 950.949 Q115.367 946.343 121.177 946.343 Z" fill="#000000" fill-rule="evenodd" fill-opacity="1" /><path clip-path="url(#clip530)" d="M 0 0 M80.8299 706.234 L103.052 706.234 L103.052 708.225 L90.5058 740.794 L85.6216 740.794 L97.4271 710.169 L80.8299 710.169 L80.8299 706.234 Z" fill="#000000" fill-rule="evenodd" fill-opacity="1" /><path clip-path="url(#clip530)" d="M 0 0 M112.219 706.234 L130.575 706.234 L130.575 710.169 L116.501 710.169 L116.501 718.641 Q117.52 718.294 118.538 718.132 Q119.557 717.947 120.575 717.947 Q126.362 717.947 129.742 721.118 Q133.121 724.289 133.121 729.706 Q133.121 735.285 129.649 738.386 Q126.177 741.465 119.857 741.465 Q117.682 741.465 115.413 741.095 Q113.168 740.724 110.76 739.984 L110.76 735.285 Q112.844 736.419 115.066 736.974 Q117.288 737.53 119.765 737.53 Q123.77 737.53 126.107 735.424 Q128.445 733.317 128.445 729.706 Q128.445 726.095 126.107 723.988 Q123.77 721.882 119.765 721.882 Q117.89 721.882 116.015 722.299 Q114.163 722.715 112.219 723.595 L112.219 706.234 Z" fill="#000000" fill-rule="evenodd" fill-opacity="1" /><path clip-path="url(#clip530)" d="M 0 0 M51.6634 496.125 L59.3023 496.125 L59.3023 469.759 L50.9921 471.426 L50.9921 467.167 L59.256 465.5 L63.9319 465.5 L63.9319 496.125 L71.5707 496.125 L71.5707 500.06 L51.6634 500.06 L51.6634 496.125 Z" fill="#000000" fill-rule="evenodd" fill-opacity="1" /><path clip-path="url(#clip530)" d="M 0 0 M91.0151 468.579 Q87.404 468.579 85.5753 472.143 Q83.7697 475.685 83.7697 482.815 Q83.7697 489.921 85.5753 493.486 Q87.404 497.028 91.0151 497.028 Q94.6493 497.028 96.4548 493.486 Q98.2835 489.921 98.2835 482.815 Q98.2835 475.685 96.4548 472.143 Q94.6493 468.579 91.0151 468.579 M91.0151 464.875 Q96.8252 464.875 99.8808 469.481 Q102.959 474.065 102.959 482.815 Q102.959 491.541 99.8808 496.148 Q96.8252 500.731 91.0151 500.731 Q85.2049 500.731 82.1262 496.148 Q79.0707 491.541 79.0707 482.815 Q79.0707 474.065 82.1262 469.481 Q85.2049 464.875 91.0151 464.875 Z" fill="#000000" fill-rule="evenodd" fill-opacity="1" /><path clip-path="url(#clip530)" d="M 0 0 M121.177 468.579 Q117.566 468.579 115.737 472.143 Q113.932 475.685 113.932 482.815 Q113.932 489.921 115.737 493.486 Q117.566 497.028 121.177 497.028 Q124.811 497.028 126.617 493.486 Q128.445 489.921 128.445 482.815 Q128.445 475.685 126.617 472.143 Q124.811 468.579 121.177 468.579 M121.177 464.875 Q126.987 464.875 130.043 469.481 Q133.121 474.065 133.121 482.815 Q133.121 491.541 130.043 496.148 Q126.987 500.731 121.177 500.731 Q115.367 500.731 112.288 496.148 Q109.233 491.541 109.233 482.815 Q109.233 474.065 112.288 469.481 Q115.367 464.875 121.177 464.875 Z" fill="#000000" fill-rule="evenodd" fill-opacity="1" /><path clip-path="url(#clip530)" d="M 0 0 M52.6588 255.391 L60.2976 255.391 L60.2976 229.025 L51.9875 230.692 L51.9875 226.433 L60.2513 224.766 L64.9272 224.766 L64.9272 255.391 L72.5661 255.391 L72.5661 259.326 L52.6588 259.326 L52.6588 255.391 Z" fill="#000000" fill-rule="evenodd" fill-opacity="1" /><path clip-path="url(#clip530)" d="M 0 0 M86.0382 255.391 L102.358 255.391 L102.358 259.326 L80.4133 259.326 L80.4133 255.391 Q83.0753 252.636 87.6586 248.007 Q92.2651 243.354 93.4456 242.011 Q95.691 239.488 96.5706 237.752 Q97.4734 235.993 97.4734 234.303 Q97.4734 231.548 95.5289 229.812 Q93.6076 228.076 90.5058 228.076 Q88.3067 228.076 85.8531 228.84 Q83.4225 229.604 80.6447 231.155 L80.6447 226.433 Q83.4688 225.298 85.9225 224.72 Q88.3762 224.141 90.4132 224.141 Q95.7836 224.141 98.978 226.826 Q102.172 229.511 102.172 234.002 Q102.172 236.132 101.362 238.053 Q100.575 239.951 98.4687 242.544 Q97.89 243.215 94.7882 246.433 Q91.6864 249.627 86.0382 255.391 Z" fill="#000000" fill-rule="evenodd" fill-opacity="1" /><path clip-path="url(#clip530)" d="M 0 0 M112.219 224.766 L130.575 224.766 L130.575 228.701 L116.501 228.701 L116.501 237.173 Q117.52 236.826 118.538 236.664 Q119.557 236.479 120.575 236.479 Q126.362 236.479 129.742 239.65 Q133.121 242.821 133.121 248.238 Q133.121 253.817 129.649 256.919 Q126.177 259.997 119.857 259.997 Q117.682 259.997 115.413 259.627 Q113.168 259.257 110.76 258.516 L110.76 253.817 Q112.844 254.951 115.066 255.507 Q117.288 256.062 119.765 256.062 Q123.77 256.062 126.107 253.956 Q128.445 251.849 128.445 248.238 Q128.445 244.627 126.107 242.521 Q123.77 240.414 119.765 240.414 Q117.89 240.414 116.015 240.831 Q114.163 241.247 112.219 242.127 L112.219 224.766 Z" fill="#000000" fill-rule="evenodd" fill-opacity="1" /><circle clip-path="url(#clip532)" cx="230.922" cy="1444.75" r="14" fill="#009af9" fill-rule="evenodd" fill-opacity="1" stroke="#000000" stroke-opacity="1" stroke-width="3.2"/>
<circle clip-path="url(#clip532)" cx="402.592" cy="1435.12" r="14" fill="#009af9" fill-rule="evenodd" fill-opacity="1" stroke="#000000" stroke-opacity="1" stroke-width="3.2"/>
<circle clip-path="url(#clip532)" cx="574.261" cy="1407.2" r="14" fill="#009af9" fill-rule="evenodd" fill-opacity="1" stroke="#000000" stroke-opacity="1" stroke-width="3.2"/>
<circle clip-path="url(#clip532)" cx="745.93" cy="1185.72" r="14" fill="#009af9" fill-rule="evenodd" fill-opacity="1" stroke="#000000" stroke-opacity="1" stroke-width="3.2"/>
<circle clip-path="url(#clip532)" cx="917.6" cy="954.618" r="14" fill="#009af9" fill-rule="evenodd" fill-opacity="1" stroke="#000000" stroke-opacity="1" stroke-width="3.2"/>
<circle clip-path="url(#clip532)" cx="1089.27" cy="675.367" r="14" fill="#009af9" fill-rule="evenodd" fill-opacity="1" stroke="#000000" stroke-opacity="1" stroke-width="3.2"/>
<circle clip-path="url(#clip532)" cx="1260.94" cy="458.707" r="14" fill="#009af9" fill-rule="evenodd" fill-opacity="1" stroke="#000000" stroke-opacity="1" stroke-width="3.2"/>
<circle clip-path="url(#clip532)" cx="1432.61" cy="309.452" r="14" fill="#009af9" fill-rule="evenodd" fill-opacity="1" stroke="#000000" stroke-opacity="1" stroke-width="3.2"/>
<circle clip-path="url(#clip532)" cx="1604.28" cy="198.714" r="14" fill="#009af9" fill-rule="evenodd" fill-opacity="1" stroke="#000000" stroke-opacity="1" stroke-width="3.2"/>
<circle clip-path="url(#clip532)" cx="1775.95" cy="136.123" r="14" fill="#009af9" fill-rule="evenodd" fill-opacity="1" stroke="#000000" stroke-opacity="1" stroke-width="3.2"/>
<circle clip-path="url(#clip532)" cx="1947.62" cy="107.235" r="14" fill="#009af9" fill-rule="evenodd" fill-opacity="1" stroke="#000000" stroke-opacity="1" stroke-width="3.2"/>
<circle clip-path="url(#clip532)" cx="2119.29" cy="92.791" r="14" fill="#009af9" fill-rule="evenodd" fill-opacity="1" stroke="#000000" stroke-opacity="1" stroke-width="3.2"/>
<circle clip-path="url(#clip532)" cx="2290.95" cy="87.9763" r="14" fill="#009af9" fill-rule="evenodd" fill-opacity="1" stroke="#000000" stroke-opacity="1" stroke-width="3.2"/>
<polyline clip-path="url(#clip532)" style="stroke:#e26f46; stroke-width:8; stroke-opacity:1; fill:none" points="
  230.922,1445.72 239.506,1445.72 248.089,1445.72 256.673,1445.72 265.256,1445.72 273.84,1445.72 282.423,1445.72 291.007,1445.72 299.59,1445.72 308.174,1445.72 
  316.757,1445.72 325.34,1445.72 333.924,1445.72 342.507,1445.72 351.091,1445.72 359.674,1445.72 368.258,1445.72 376.841,1445.72 385.425,1445.72 394.008,1445.72 
  402.592,1445.72 411.175,1445.72 419.759,1445.72 428.342,1445.72 436.926,1445.72 445.509,1445.72 454.092,1445.72 462.676,1445.72 471.259,1445.72 479.843,1445.72 
  488.426,1445.72 497.01,1445.72 505.593,1445.72 514.177,1445.72 522.76,1445.72 531.344,1445.72 539.927,1445.72 548.511,1445.72 557.094,1445.72 565.678,1445.72 
  574.261,1445.72 582.845,1445.72 591.428,1445.72 600.011,1445.72 608.595,1445.72 617.178,1445.72 625.762,1424.37 634.345,1403.37 642.929,1382.69 651.512,1362.34 
  660.096,1342.3 668.679,1322.59 677.263,1303.18 685.846,1284.08 694.43,1265.28 703.013,1246.77 711.597,1228.55 720.18,1210.63 728.764,1192.98 737.347,1175.61 
  745.93,1158.51 754.514,1141.68 763.097,1125.12 771.681,1108.82 780.264,1092.77 788.848,1076.97 797.431,1061.43 806.015,1046.13 814.598,1031.06 823.182,1016.24 
  831.765,1001.65 840.349,987.286 848.932,973.15 857.516,959.235 866.099,945.54 874.682,932.059 883.266,918.791 891.849,905.731 900.433,892.877 909.016,880.224 
  917.6,867.771 926.183,855.513 934.767,843.448 943.35,831.572 951.934,819.883 960.517,808.378 969.101,797.054 977.684,785.908 986.268,774.937 994.851,764.138 
  1003.43,753.509 1012.02,743.048 1020.6,732.75 1029.18,722.615 1037.77,712.639 1046.35,702.82 1054.94,693.155 1063.52,683.642 1072.1,674.278 1080.69,665.062 
  1089.27,655.991 1097.85,647.062 1106.44,638.273 1115.02,629.623 1123.6,621.109 1132.19,612.728 1140.77,604.48 1149.35,596.36 1157.94,588.369 1166.52,580.503 
  1175.1,572.761 1183.69,565.14 1192.27,557.64 1200.85,550.257 1209.44,542.99 1218.02,535.838 1226.6,528.798 1235.19,521.868 1243.77,515.048 1252.36,508.334 
  1260.94,501.727 1269.52,495.223 1278.11,488.821 1286.69,482.52 1295.27,476.318 1303.86,470.214 1312.44,464.205 1321.02,458.291 1329.61,452.47 1338.19,446.741 
  1346.77,441.101 1355.36,435.55 1363.94,430.086 1372.52,424.709 1381.11,419.416 1389.69,414.206 1398.27,409.077 1406.86,404.03 1415.44,399.062 1424.02,394.172 
  1432.61,389.359 1441.19,384.621 1449.77,379.958 1458.36,375.368 1466.94,370.851 1475.53,366.404 1484.11,362.027 1492.69,357.719 1501.28,353.479 1509.86,349.306 
  1518.44,345.198 1527.03,341.154 1535.61,337.175 1544.19,333.257 1552.78,329.402 1561.36,325.607 1569.94,321.871 1578.53,318.195 1587.11,314.576 1595.69,311.014 
  1604.28,307.508 1612.86,304.057 1621.44,300.66 1630.03,297.317 1638.61,294.026 1647.19,290.787 1655.78,287.599 1664.36,284.461 1672.95,281.373 1681.53,278.333 
  1690.11,275.34 1698.7,272.395 1707.28,269.496 1715.86,266.643 1724.45,263.834 1733.03,261.07 1741.61,258.349 1750.2,255.671 1758.78,253.035 1767.36,250.44 
  1775.95,247.886 1784.53,245.373 1793.11,242.899 1801.7,240.463 1810.28,238.066 1818.86,235.707 1827.45,233.385 1836.03,231.099 1844.61,228.849 1853.2,226.635 
  1861.78,224.455 1870.36,222.31 1878.95,220.198 1887.53,218.12 1896.12,216.074 1904.7,214.06 1913.28,212.078 1921.87,210.128 1930.45,208.208 1939.03,206.318 
  1947.62,204.457 1956.2,202.626 1964.78,200.824 1973.37,199.05 1981.95,197.304 1990.53,195.586 1999.12,193.894 2007.7,192.229 2016.28,190.59 2024.87,188.977 
  2033.45,187.39 2042.03,185.827 2050.62,184.289 2059.2,182.775 2067.78,181.285 2076.37,179.818 2084.95,178.374 2093.54,176.953 2102.12,175.555 2110.7,174.178 
  2119.29,172.823 2127.87,171.489 2136.45,170.176 2145.04,168.884 2153.62,167.612 2162.2,166.361 2170.79,165.128 2179.37,163.916 2187.95,162.722 2196.54,161.547 
  2205.12,160.391 2213.7,159.252 2222.29,158.132 2230.87,157.029 2239.45,155.944 2248.04,154.875 2256.62,153.824 2265.2,152.788 2273.79,151.77 2282.37,150.767 
  2290.95,149.78 
  "/>
<path clip-path="url(#clip530)" d="
M1947 1438.47 L2279.97 1438.47 L2279.97 1257.03 L1947 1257.03  Z
  " fill="#ffffff" fill-rule="evenodd" fill-opacity="1"/>
<polyline clip-path="url(#clip530)" style="stroke:#000000; stroke-width:4; stroke-opacity:1; fill:none" points="
  1947,1438.47 2279.97,1438.47 2279.97,1257.03 1947,1257.03 1947,1438.47 
  "/>
<circle clip-path="url(#clip530)" cx="2044.05" cy="1317.51" r="23" fill="#009af9" fill-rule="evenodd" fill-opacity="1" stroke="#000000" stroke-opacity="1" stroke-width="5.12"/>
<path clip-path="url(#clip530)" d="M 0 0 M2141.1 1300.23 L2162.95 1300.23 L2162.95 1304.17 L2145.77 1304.17 L2145.77 1314.4 L2162.23 1314.4 L2162.23 1318.34 L2145.77 1318.34 L2145.77 1330.86 L2163.36 1330.86 L2163.36 1334.79 L2141.1 1334.79 L2141.1 1300.23 Z" fill="#000000" fill-rule="evenodd" fill-opacity="1" /><path clip-path="url(#clip530)" d="M 0 0 M2192.42 1308.87 L2183.04 1321.48 L2192.9 1334.79 L2187.88 1334.79 L2180.33 1324.61 L2172.79 1334.79 L2167.76 1334.79 L2177.83 1321.23 L2168.62 1308.87 L2173.64 1308.87 L2180.52 1318.1 L2187.39 1308.87 L2192.42 1308.87 Z" fill="#000000" fill-rule="evenodd" fill-opacity="1" /><path clip-path="url(#clip530)" d="M 0 0 M2203.04 1330.91 L2203.04 1344.66 L2198.76 1344.66 L2198.76 1308.87 L2203.04 1308.87 L2203.04 1312.8 Q2204.38 1310.49 2206.42 1309.38 Q2208.48 1308.24 2211.33 1308.24 Q2216.05 1308.24 2218.99 1311.99 Q2221.95 1315.74 2221.95 1321.85 Q2221.95 1327.97 2218.99 1331.72 Q2216.05 1335.47 2211.33 1335.47 Q2208.48 1335.47 2206.42 1334.35 Q2204.38 1333.22 2203.04 1330.91 M2217.53 1321.85 Q2217.53 1317.16 2215.59 1314.49 Q2213.67 1311.81 2210.29 1311.81 Q2206.91 1311.81 2204.96 1314.49 Q2203.04 1317.16 2203.04 1321.85 Q2203.04 1326.55 2204.96 1329.24 Q2206.91 1331.9 2210.29 1331.9 Q2213.67 1331.9 2215.59 1329.24 Q2217.53 1326.55 2217.53 1321.85 Z" fill="#000000" fill-rule="evenodd" fill-opacity="1" /><polyline clip-path="url(#clip530)" style="stroke:#e26f46; stroke-width:4; stroke-opacity:1; fill:none" points="
  1971.26,1377.99 2116.83,1377.99 
  "/>
<path clip-path="url(#clip530)" d="M 0 0 M2168.97 1363.38 L2168.97 1368.31 Q2166.61 1366.11 2163.92 1365.02 Q2161.26 1363.93 2158.25 1363.93 Q2152.32 1363.93 2149.17 1367.57 Q2146.03 1371.18 2146.03 1378.03 Q2146.03 1384.86 2149.17 1388.49 Q2152.32 1392.1 2158.25 1392.1 Q2161.26 1392.1 2163.92 1391.02 Q2166.61 1389.93 2168.97 1387.73 L2168.97 1392.61 Q2166.51 1394.28 2163.76 1395.11 Q2161.03 1395.95 2157.97 1395.95 Q2150.12 1395.95 2145.61 1391.15 Q2141.1 1386.34 2141.1 1378.03 Q2141.1 1369.7 2145.61 1364.9 Q2150.12 1360.09 2157.97 1360.09 Q2161.07 1360.09 2163.8 1360.92 Q2166.56 1361.73 2168.97 1363.38 Z" fill="#000000" fill-rule="evenodd" fill-opacity="1" /><path clip-path="url(#clip530)" d="M 0 0 M2192.58 1379.07 Q2194.08 1379.58 2195.49 1381.25 Q2196.93 1382.91 2198.36 1385.83 L2203.11 1395.27 L2198.09 1395.27 L2193.67 1386.41 Q2191.95 1382.94 2190.33 1381.8 Q2188.73 1380.67 2185.96 1380.67 L2180.86 1380.67 L2180.86 1395.27 L2176.19 1395.27 L2176.19 1360.71 L2186.74 1360.71 Q2192.67 1360.71 2195.59 1363.19 Q2198.5 1365.67 2198.5 1370.67 Q2198.5 1373.93 2196.98 1376.08 Q2195.47 1378.24 2192.58 1379.07 M2180.86 1364.56 L2180.86 1376.83 L2186.74 1376.83 Q2190.12 1376.83 2191.84 1375.27 Q2193.57 1373.7 2193.57 1370.67 Q2193.57 1367.64 2191.84 1366.11 Q2190.12 1364.56 2186.74 1364.56 L2180.86 1364.56 Z" fill="#000000" fill-rule="evenodd" fill-opacity="1" /><path clip-path="url(#clip530)" d="M 0 0 M2213.8 1364.56 L2213.8 1377.54 L2219.68 1377.54 Q2222.95 1377.54 2224.73 1375.85 Q2226.51 1374.16 2226.51 1371.04 Q2226.51 1367.94 2224.73 1366.25 Q2222.95 1364.56 2219.68 1364.56 L2213.8 1364.56 M2209.13 1360.71 L2219.68 1360.71 Q2225.49 1360.71 2228.46 1363.35 Q2231.44 1365.97 2231.44 1371.04 Q2231.44 1376.15 2228.46 1378.77 Q2225.49 1381.39 2219.68 1381.39 L2213.8 1381.39 L2213.8 1395.27 L2209.13 1395.27 L2209.13 1360.71 Z" fill="#000000" fill-rule="evenodd" fill-opacity="1" /></svg>
