<?xml version="1.0" encoding="UTF-8" standalone="no"?>
<svg
   xmlns:dc="http://purl.org/dc/elements/1.1/"
   xmlns:cc="http://creativecommons.org/ns#"
   xmlns:rdf="http://www.w3.org/1999/02/22-rdf-syntax-ns#"
   xmlns:svg="http://www.w3.org/2000/svg"
   xmlns="http://www.w3.org/2000/svg"
   xmlns:sodipodi="http://sodipodi.sourceforge.net/DTD/sodipodi-0.dtd"
   xmlns:inkscape="http://www.inkscape.org/namespaces/inkscape"
   width="365pt"
   height="257pt"
   viewBox="1563 1203 5784 4074"
   version="1.1"
   id="svg117"
   sodipodi:docname="prob405.svg"
   inkscape:version="1.0.2 (e86c8708, 2021-01-15)">
  <metadata
     id="metadata123">
    <rdf:RDF>
      <cc:Work
         rdf:about="">
        <dc:format>image/svg+xml</dc:format>
        <dc:type
           rdf:resource="http://purl.org/dc/dcmitype/StillImage" />
      </cc:Work>
    </rdf:RDF>
  </metadata>
  <defs
     id="defs121" />
  <sodipodi:namedview
     pagecolor="#ffffff"
     bordercolor="#666666"
     borderopacity="1"
     objecttolerance="10"
     gridtolerance="10"
     guidetolerance="10"
     inkscape:pageopacity="0"
     inkscape:pageshadow="2"
     inkscape:window-width="1166"
     inkscape:window-height="761"
     id="namedview119"
     showgrid="false"
     inkscape:zoom="1.6180632"
     inkscape:cx="243.33333"
     inkscape:cy="171.33333"
     inkscape:window-x="0"
     inkscape:window-y="25"
     inkscape:window-maximized="0"
     inkscape:current-layer="g115" />
  <g
     fill="none"
     id="g115">
    <!-- Text -->
    <g
       aria-label="cA, cB"
       id="text14"
       style="font-style:normal;font-weight:normal;font-size:144px;font-family:Times;text-anchor:start;fill:#000000">
      <path
         d="m 3545.7891,4208.6953 q 8.789,0 15.1172,4.5703 6.3984,4.5 6.3984,9.9141 0,2.3203 -1.6172,4.3594 -1.6172,1.9687 -4.9922,1.9687 -2.4609,0 -4.3594,-1.6875 -1.8281,-1.6875 -2.6718,-4.9219 l -0.8438,-3.375 q -0.914,-3.7265 -3.164,-5.2734 -2.3204,-1.4766 -6.1172,-1.4766 -8.0157,0 -13.5703,7.0313 -5.4844,6.9609 -5.4844,18.5625 0,10.6172 6.0469,19.0547 6.1171,8.4375 16.4531,8.4375 7.3125,0 13.0078,-4.7813 3.2344,-2.7422 7.3125,-8.7187 l 1.9687,1.1953 q -4.0078,8.4375 -8.4375,13.3594 -8.5078,9.4218 -19.6875,9.4218 -10.9687,0 -19.4062,-8.6484 -8.4375,-8.6484 -8.4375,-23.4844 0,-14.5547 9.2109,-25.0312 9.211,-10.4766 23.2735,-10.4766 z m -3.0938,0 z"
         style="font-style:normal;font-weight:normal;font-size:144px;font-family:Times;text-anchor:start;fill:#000000"
         id="path125" />
      <path
         d="m 3616.6875,4279.1437 -11.1094,-26.4375 -10.9687,26.4375 z M 3575.25,4303.8 v -1.7344 q 3.7031,-0.4219 5.5313,-2.8125 1.875,-2.3906 6.375,-12.9844 l 20.0156,-47.1093 h 1.875 l 23.9062,54.4218 q 2.3907,5.4375 3.7969,6.75 1.4531,1.2657 4.8281,1.7344 v 1.7344 h -24.4218 v -1.7344 q 4.2187,-0.375 5.4375,-0.8906 1.2187,-0.5625 1.2187,-2.6719 0,-0.7031 -0.4687,-2.4844 -0.4688,-1.7812 -1.3125,-3.75 l -3.9844,-9.2343 h -25.125 q -3.75,9.4218 -4.5,11.5312 -0.7031,2.0625 -0.7031,3.2813 0,2.4375 1.9687,3.375 1.2188,0.5625 4.5938,0.8437 v 1.7344 z m 32.8594,-64.6406 z"
         style="font-size:96px;baseline-shift:sub"
         id="path127" />
      <path
         d="m 3678.5156,4273.5234 q 0,7.1016 -5.1328,13.2188 -5.1328,6.1172 -11.039,8.789 l -1.336,-2.8125 q 6.75,-3.7968 9.2813,-8.2265 2.6015,-4.4297 2.6015,-7.3828 0,-0.9844 -0.6328,-1.2657 -0.6328,-0.2812 -1.3359,-0.2812 l -4.711,0.4922 q -2.9531,0 -5.414,-1.8985 -2.461,-1.9687 -2.461,-5.625 0,-2.8125 2.0391,-5.4843 2.0391,-2.6719 6.6797,-2.6719 4.4297,0 7.9453,3.5156 3.5156,3.4453 3.5156,9.6328 z"
         style="font-style:normal;font-weight:normal;font-size:144px;font-family:Times;text-anchor:start;fill:#000000"
         id="path129" />
      <path
         d="m 3751.0078,4208.6953 q 8.7891,0 15.1172,4.5703 6.3984,4.5 6.3984,9.9141 0,2.3203 -1.6171,4.3594 -1.6172,1.9687 -4.9922,1.9687 -2.461,0 -4.3594,-1.6875 -1.8281,-1.6875 -2.6719,-4.9219 l -0.8437,-3.375 q -0.9141,-3.7265 -3.1641,-5.2734 -2.3203,-1.4766 -6.1172,-1.4766 -8.0156,0 -13.5703,7.0313 -5.4844,6.9609 -5.4844,18.5625 0,10.6172 6.0469,19.0547 6.1172,8.4375 16.4531,8.4375 7.3125,0 13.0078,-4.7813 3.2344,-2.7422 7.3125,-8.7187 l 1.9688,1.1953 q -4.0078,8.4375 -8.4375,13.3594 -8.5078,9.4218 -19.6875,9.4218 -10.9688,0 -19.4063,-8.6484 -8.4375,-8.6484 -8.4375,-23.4844 0,-14.5547 9.211,-25.0312 9.2109,-10.4766 23.2734,-10.4766 z m -3.0937,0 z"
         style="font-style:normal;font-weight:normal;font-size:144px;font-family:Times;text-anchor:start;fill:#000000"
         id="path131" />
      <path
         d="m 3807.6094,4300.3312 q 7.3594,0 12.3281,-2.8593 4.9688,-2.8594 4.9688,-10.9688 0,-8.0625 -5.8125,-11.0156 -5.8125,-2.9531 -14.8125,-2.9531 -2.2032,0 -2.8125,0 -0.5625,0 -1.7813,-0.047 v 23.9062 q 0,2.4844 1.4063,3.2344 1.4062,0.7031 6.5156,0.7031 z m -26.9063,1.7344 q 5.8125,-0.3281 7.5,-1.7812 1.7344,-1.5 1.7344,-6.8907 v -42.7031 q 0,-5.2969 -1.7344,-6.7969 -1.6875,-1.5468 -7.5,-1.8281 v -1.7812 h 26.9063 q 11.5312,0 18.2812,3.7031 6.7969,3.7031 6.7969,12.75 0,6.7969 -4.7344,10.3125 -2.6718,2.0156 -8.0156,3.3281 6.6094,1.5938 11.2969,5.3438 4.6875,3.7031 4.6875,10.4062 0,11.25 -10.4063,15.4688 -5.4843,2.2031 -13.5,2.2031 h -31.3125 z m 28.125,-33.375 q 4.8282,-0.094 8.0157,-1.5469 6.0937,-2.8125 6.0937,-10.0781 0,-8.5781 -7.0312,-11.5781 -3.8907,-1.6406 -11.8125,-1.6406 -3,0 -3.7032,0.5156 -0.7031,0.5156 -0.7031,2.8125 v 21.6562 z"
         style="font-size:96px;baseline-shift:sub"
         id="path133" />
    </g>
    <!-- Ellipse -->
    <path
       id="ellipse16"
       style="stroke:#000000;stroke-width:8px"
       d="m 4320,3870 a 225,90 0 0 1 -225,90 225,90 0 0 1 -225,-90 225,90 0 0 1 225,-90 225,90 0 0 1 225,90 z" />
    <!-- Line -->
    <path
       id="polyline18"
       style="stroke:#000000;stroke-width:8px"
       d="M 3870,3870 V 1890" />
    <!-- Circle -->
    <!-- Line -->
    <path
       id="polyline22"
       style="stroke:#000000;stroke-width:8px"
       d="M 2745,2835 H 4995" />
    <!-- Line -->
    <path
       id="polyline24"
       style="stroke:#000000;stroke-width:8px"
       d="M 2745,2070 V 4410 H 4995 V 2070" />
    <!-- Line -->
    <defs
       id="defs29">
      <clipPath
         id="cp0">
        <path
           clip-rule="evenodd"
           d="M 1563,1203 H 7347 V 5277 H 1563 z   M 3360,2248 3330,2368 3300,2248 3323,2392 3337,2392z"
           id="path26" />
      </clipPath>
    </defs>
    <path
       id="polyline31"
       clip-path="url(#cp0)"
       style="stroke:#000000;stroke-width:8px"
       d="m 1575,1620 h 1755 v 765" />
    <!-- Forward arrow to point 3330,2385 -->
    <path
       id="polyline33"
       style="stroke:#000000;stroke-width:8px;stroke-miterlimit:8"
       d="m 3360,2248 -30,120 -30,-120" />
    <!-- Line -->
    <defs
       id="defs38">
      <clipPath
         id="cp1">
        <path
           clip-rule="evenodd"
           d="M 1563,1203 H 7347 V 5277 H 1563 z   M 4575,2248 4545,2368 4515,2248 4538,2392 4552,2392z"
           id="path35" />
      </clipPath>
    </defs>
    <path
       id="polyline40"
       clip-path="url(#cp1)"
       style="stroke:#000000;stroke-width:8px"
       d="M 6300,1620 H 4545 v 765" />
    <!-- Forward arrow to point 4545,2385 -->
    <path
       id="polyline42"
       style="stroke:#000000;stroke-width:8px;stroke-miterlimit:8"
       d="m 4575,2248 -30,120 -30,-120" />
    <!-- Line -->
    <defs
       id="defs47">
      <clipPath
         id="cp2">
        <path
           clip-rule="evenodd"
           d="M 1563,1203 H 7347 V 5277 H 1563 z   M 1965,5128 1935,5248 1905,5128 1928,5272 1942,5272z"
           id="path44" />
      </clipPath>
    </defs>
    <path
       id="polyline49"
       clip-path="url(#cp2)"
       style="stroke:#000000;stroke-width:8px"
       d="M 2745,4185 H 1935 V 5265" />
    <!-- Forward arrow to point 1935,5265 -->
    <path
       id="polyline51"
       style="stroke:#000000;stroke-width:8px;stroke-miterlimit:8"
       d="m 1965,5128 -30,120 -30,-120" />
    <!-- Line -->
    <defs
       id="defs56">
      <clipPath
         id="cp3">
        <path
           clip-rule="evenodd"
           d="M 1563,1203 H 7347 V 5277 H 1563 z   M 5983,4155 6103,4185 5983,4215 6127,4192 6127,4178z"
           id="path53" />
      </clipPath>
    </defs>
    <path
       id="polyline58"
       clip-path="url(#cp3)"
       style="stroke:#000000;stroke-width:8px"
       d="M 4995,4185 H 6120" />
    <!-- Forward arrow to point 6120,4185 -->
    <!-- Line -->
    <!-- Line -->
    <path
       id="polyline64"
       style="stroke:#000000;stroke-width:8px"
       d="m 6120,3870 h 495 v 180 h -225" />
    <!-- Line -->
    <g
       id="g239"
       transform="translate(-22.043217)">
      <path
         id="circle20"
         style="stroke:#000000;stroke-width:8px"
         d="m 6444,4185 a 324,324 0 0 1 -324,324 324,324 0 0 1 -324,-324 324,324 0 0 1 324,-324 324,324 0 0 1 324,324 z" />
      <path
         id="polyline60"
         style="stroke:#000000;stroke-width:8px;stroke-miterlimit:8"
         d="m 5983,4155 120,30 -120,30" />
      <path
         id="polyline62"
         style="stroke:#000000;stroke-width:8px"
         d="m 5895,4410 -90,225 h 315" />
      <path
         id="polyline66"
         style="stroke:#000000;stroke-width:8px"
         d="m 6345,4410 90,225 h -315" />
    </g>
    <!-- Line -->
    <defs
       id="defs71">
      <clipPath
         id="cp4">
        <path
           clip-rule="evenodd"
           d="M 1563,1203 H 7347 V 5277 H 1563 z   M 4305,2248 4275,2368 4245,2248 4268,2392 4282,2392z"
           id="path68" />
      </clipPath>
    </defs>
    <path
       id="polyline73"
       clip-path="url(#cp4)"
       style="stroke:#000000;stroke-width:8px"
       d="m 6615,3960 h 720 V 1215 H 4275 v 1170" />
    <!-- Forward arrow to point 4275,2385 -->
    <path
       id="polyline75"
       style="stroke:#000000;stroke-width:8px;stroke-miterlimit:8"
       d="m 4305,2248 -30,120 -30,-120" />
    <!-- Text -->
    <path
       d="m 1711.6172,1437.3984 q 8.5078,-0.914 10.5469,-3.0937 2.1093,-2.25 2.1093,-11.6016 v -62.3672 q 0,-7.664 -2.3203,-9.9843 -2.3203,-2.3907 -10.3359,-2.9532 v -2.6718 h 76.7109 l 0.4922,20.6718 h -4.0078 q -1.4766,-9.914 -5.5547,-12.5156 -4.0781,-2.6719 -16.1015,-2.6719 h -19.6875 q -2.8829,0 -3.7266,0.9844 -0.7734,0.9844 -0.7734,3.8672 v 32.1328 h 20.8125 q 9.2109,0 11.7421,-2.7422 2.5313,-2.7422 4.0782,-11.1093 h 3.375 v 33.3281 h -3.375 q -1.6172,-8.3672 -4.1485,-11.0391 -2.5312,-2.7422 -11.6718,-2.7422 h -20.8125 v 31.5 q 0,7.9453 2.3906,10.1953 2.4609,2.1797 10.6172,2.8125 V 1440 h -40.3594 z"
       style="font-style:normal;font-weight:normal;font-size:144px;font-family:Times;text-anchor:start;fill:#000000"
       id="path154" />
    <path
       d="m 1818.5625,1404.3937 q 0.1875,0.2344 0.1875,0.375 0.047,0.094 0.047,0.5157 v 56.4375 q 0,3.6093 1.9219,4.5937 1.9218,0.9844 7.1718,1.1719 v 1.3125 h -26.4375 v -1.4063 q 5.6719,-0.2812 7.4063,-1.5468 1.7344,-1.2657 1.7344,-5.4844 v -43.4063 q 0,-2.25 -0.5625,-3.4218 -0.5625,-1.1719 -2.4375,-1.1719 -1.2188,0 -3.1875,0.7031 -1.9219,0.6563 -3.6094,1.4063 v -1.3125 l 17.203,-8.7657 z"
       style="font-style:normal;font-weight:normal;font-size:96px;font-family:Times;baseline-shift:sub;text-anchor:start;fill:#000000"
       id="path156" />
    <path
       d="m 1873.4531,1438.5234 q 0,7.1016 -5.1328,13.2188 -5.1328,6.1172 -11.039,8.7891 l -1.336,-2.8125 q 6.75,-3.7969 9.2813,-8.2266 2.6015,-4.4297 2.6015,-7.3828 0,-0.9844 -0.6328,-1.2656 -0.6328,-0.2813 -1.3359,-0.2813 l -4.711,0.4922 q -2.9531,0 -5.414,-1.8984 -2.461,-1.9688 -2.461,-5.625 0,-2.8125 2.0391,-5.4844 2.0391,-2.6719 6.6797,-2.6719 4.4297,0 7.9453,3.5156 3.5156,3.4453 3.5156,9.6328 z"
       style="font-style:normal;font-weight:normal;font-size:144px;font-family:Times;text-anchor:start;fill:#000000"
       id="path158" />
    <path
       d="m 1945.9453,1373.6953 q 8.7891,0 15.1172,4.5703 6.3984,4.5 6.3984,9.9141 0,2.3203 -1.6171,4.3594 -1.6172,1.9687 -4.9922,1.9687 -2.461,0 -4.3594,-1.6875 -1.8281,-1.6875 -2.6719,-4.9219 l -0.8437,-3.375 q -0.9141,-3.7265 -3.1641,-5.2734 -2.3203,-1.4766 -6.1172,-1.4766 -8.0156,0 -13.5703,7.0313 -5.4844,6.9609 -5.4844,18.5625 0,10.6172 6.0469,19.0547 6.1172,8.4375 16.4531,8.4375 7.3125,0 13.0078,-4.7813 3.2344,-2.7422 7.3125,-8.7187 l 1.9688,1.1953 q -4.0078,8.4375 -8.4375,13.3594 -8.5078,9.4218 -19.6875,9.4218 -10.9688,0 -19.4063,-8.6484 -8.4375,-8.6484 -8.4375,-23.4844 0,-14.5547 9.211,-25.0312 9.2109,-10.4766 23.2734,-10.4766 z m -3.0937,0 z"
       style="font-style:normal;font-weight:normal;font-size:144px;font-family:Times;text-anchor:start;fill:#000000"
       id="path160" />
    <path
       d="m 2016.8438,1444.1437 -11.1094,-26.4375 -10.9688,26.4375 z m -41.4375,24.6563 v -1.7344 q 3.7031,-0.4219 5.5312,-2.8125 1.875,-2.3906 6.375,-12.9844 l 20.0156,-47.1093 h 1.875 l 23.9063,54.4218 q 2.3906,5.4375 3.7969,6.75 1.4531,1.2657 4.8281,1.7344 v 1.7344 h -24.4219 v -1.7344 q 4.2188,-0.375 5.4375,-0.8906 1.2188,-0.5625 1.2188,-2.6719 0,-0.7031 -0.4688,-2.4844 -0.4687,-1.7812 -1.3125,-3.75 l -3.9844,-9.2343 h -25.125 q -3.75,9.4218 -4.5,11.5312 -0.7031,2.0625 -0.7031,3.2813 0,2.4375 1.9688,3.375 1.2187,0.5625 4.5937,0.8437 v 1.7344 z m 32.8593,-64.6406 z"
       style="font-style:normal;font-weight:normal;font-size:96px;font-family:Times;baseline-shift:sub;text-anchor:start;fill:#000000"
       id="path162" />
    <path
       d="m 2071.7813,1423.5938 q 0.1875,0.2343 0.1875,0.375 0.047,0.094 0.047,0.5156 v 56.4375 q 0,3.6094 1.9219,4.5937 1.9219,0.9844 7.1719,1.1719 V 1488 h -26.4375 v -1.4062 q 5.6719,-0.2813 7.4062,-1.5469 1.7344,-1.2656 1.7344,-5.4844 v -43.4062 q 0,-2.25 -0.5625,-3.4219 -0.5625,-1.1719 -2.4375,-1.1719 -1.2187,0 -3.1875,0.7031 -1.9219,0.6563 -3.6094,1.4063 v -1.3125 l 17.2032,-8.7656 z"
       style="font-style:normal;font-weight:normal;font-size:96px;font-family:Times;baseline-shift:sub;text-anchor:start;fill:#000000"
       id="path164" />
    <path
       d="m 2114.9063,1467.8156 q 0,4.7344 -3.4219,8.8125 -3.4219,4.0781 -7.3594,5.8594 l -0.8906,-1.875 q 4.5,-2.5313 6.1875,-5.4844 1.7344,-2.9531 1.7344,-4.9219 0,-0.6562 -0.4219,-0.8437 -0.4219,-0.1875 -0.8906,-0.1875 l -3.1407,0.3281 q -1.9687,0 -3.6093,-1.2656 -1.6407,-1.3125 -1.6407,-3.75 0,-1.875 1.3594,-3.6563 1.3594,-1.7812 4.4531,-1.7812 2.9532,0 5.2969,2.3437 2.3438,2.2969 2.3438,6.4219 z"
       style="font-style:normal;font-weight:normal;font-size:96px;font-family:Times;baseline-shift:sub;text-anchor:start;fill:#000000"
       id="path166" />
    <path
       d="m 2163.2344,1424.5969 q 5.8594,0 10.0781,3.0468 4.2656,3 4.2656,6.6094 0,1.5469 -1.0781,2.9063 -1.0781,1.3125 -3.3281,1.3125 -1.6406,0 -2.9063,-1.125 -1.2187,-1.125 -1.7812,-3.2813 l -0.5625,-2.25 q -0.6094,-2.4844 -2.1094,-3.5156 -1.5469,-0.9844 -4.0781,-0.9844 -5.3438,0 -9.0469,4.6875 -3.6562,4.6406 -3.6562,12.375 0,7.0781 4.0312,12.7031 4.0781,5.625 10.9688,5.625 4.875,0 8.6718,-3.1875 2.1563,-1.8281 4.875,-5.8125 l 1.3125,0.7969 q -2.6718,5.625 -5.625,8.9063 -5.6718,6.2812 -13.125,6.2812 -7.3125,0 -12.9375,-5.7656 -5.625,-5.7656 -5.625,-15.6563 0,-9.7031 6.1407,-16.6875 6.1406,-6.9843 15.5156,-6.9843 z m -2.0625,0 z"
       style="font-style:normal;font-weight:normal;font-size:96px;font-family:Times;baseline-shift:sub;text-anchor:start;fill:#000000"
       id="path168" />
    <path
       d="m 2210.4844,1484.5313 q 7.3594,0 12.3281,-2.8594 4.9688,-2.8594 4.9688,-10.9688 0,-8.0625 -5.8125,-11.0156 -5.8125,-2.9531 -14.8125,-2.9531 -2.2032,0 -2.8125,0 -0.5625,0 -1.7813,-0.047 v 23.9063 q 0,2.4843 1.4063,3.2343 1.4062,0.7032 6.5156,0.7032 z m -26.9063,1.7343 q 5.8125,-0.3281 7.5,-1.7812 1.7344,-1.5 1.7344,-6.8906 v -42.7032 q 0,-5.2968 -1.7344,-6.7968 -1.6875,-1.5469 -7.5,-1.8282 v -1.7812 h 26.9063 q 11.5312,0 18.2812,3.7031 6.7969,3.7031 6.7969,12.75 0,6.7969 -4.7344,10.3125 -2.6718,2.0156 -8.0156,3.3281 6.6094,1.5938 11.2969,5.3438 4.6875,3.7031 4.6875,10.4062 0,11.25 -10.4063,15.4688 -5.4843,2.2031 -13.5,2.2031 h -31.3125 z m 28.125,-33.375 q 4.8282,-0.094 8.0157,-1.5468 6.0937,-2.8125 6.0937,-10.0782 0,-8.5781 -7.0312,-11.5781 -3.8907,-1.6406 -11.8125,-1.6406 -3,0 -3.7032,0.5156 -0.7031,0.5156 -0.7031,2.8125 v 21.6563 z"
       style="font-style:normal;font-weight:normal;font-size:96px;font-family:Times;baseline-shift:sub;text-anchor:start;fill:#000000"
       id="path170" />
    <path
       d="m 2274.4688,1442.7937 q 0.1875,0.2344 0.1875,0.375 0.047,0.094 0.047,0.5157 v 56.4375 q 0,3.6093 1.9219,4.5937 1.9219,0.9844 7.1719,1.1719 v 1.3125 h -26.4375 v -1.4063 q 5.6719,-0.2812 7.4062,-1.5468 1.7344,-1.2657 1.7344,-5.4844 v -43.4063 q 0,-2.25 -0.5625,-3.4218 -0.5625,-1.1719 -2.4375,-1.1719 -1.2187,0 -3.1875,0.7031 -1.9219,0.6563 -3.6094,1.4063 v -1.3125 l 17.2032,-8.7657 z"
       style="font-style:normal;font-weight:normal;font-size:96px;font-family:Times;baseline-shift:sub;text-anchor:start;fill:#000000"
       id="path172" />
    <path
       d="m 4951.6172,1492.442 q 8.5078,-0.914 10.5469,-3.0937 2.1093,-2.25 2.1093,-11.6016 v -62.3672 q 0,-7.664 -2.3203,-9.9843 -2.3203,-2.3907 -10.3359,-2.9532 v -2.6718 h 76.7109 l 0.4922,20.6718 h -4.0078 q -1.4766,-9.914 -5.5547,-12.5156 -4.0781,-2.6719 -16.1016,-2.6719 h -19.6875 q -2.8828,0 -3.7265,0.9844 -0.7735,0.9844 -0.7735,3.8672 v 32.1328 h 20.8125 q 9.211,0 11.7422,-2.7422 2.5313,-2.7422 4.0782,-11.1094 h 3.375 v 33.3282 h -3.375 q -1.6172,-8.3672 -4.1485,-11.0391 -2.5312,-2.7422 -11.6719,-2.7422 h -20.8125 v 31.5 q 0,7.9453 2.3907,10.1953 2.4609,2.1797 10.6172,2.8125 v 2.6016 h -40.3594 z"
       style="font-style:normal;font-weight:normal;font-size:144px;font-family:Times;text-anchor:start;fill:#000000"
       id="path174" />
    <path
       d="m 5033.0156,1522.7655 q 17.1563,-17.8125 23.2969,-26.1563 6.1406,-8.3437 6.1406,-16.2656 0,-6.9375 -3.75,-10.5469 -3.75,-3.6562 -8.9531,-3.6562 -6.4219,0 -10.4063,4.6875 -2.2031,2.5781 -4.2187,7.9218 l -2.0156,-0.4218 q 2.3437,-10.7813 7.9218,-14.9532 5.625,-4.2187 12.0469,-4.2187 7.9219,0 12.7969,5.0156 4.9219,4.9688 4.9219,12.1875 0,7.6875 -5.2969,14.8125 -5.2969,7.125 -23.0156,25.3594 H 5064 q 4.5,0 6.3281,-1.0781 1.8281,-1.0782 4.125,-5.25 l 1.2188,0.5625 -5.2032,13.0781 h -37.4531 z"
       style="font-style:normal;font-weight:normal;font-size:96px;font-family:Times;baseline-shift:sub;text-anchor:start;fill:#000000"
       id="path176" />
    <path
       d="m 5113.4531,1493.567 q 0,7.1016 -5.1328,13.2188 -5.1328,6.1172 -11.0391,8.789 l -1.3359,-2.8125 q 6.75,-3.7968 9.2813,-8.2265 2.6015,-4.4297 2.6015,-7.3828 0,-0.9844 -0.6328,-1.2657 -0.6328,-0.2812 -1.3359,-0.2812 l -4.711,0.4922 q -2.9531,0 -5.414,-1.8985 -2.461,-1.9687 -2.461,-5.625 0,-2.8125 2.0391,-5.4843 2.0391,-2.6719 6.6797,-2.6719 4.4297,0 7.9453,3.5156 3.5156,3.4453 3.5156,9.6328 z"
       style="font-style:normal;font-weight:normal;font-size:144px;font-family:Times;text-anchor:start;fill:#000000"
       id="path178" />
    <path
       d="m 5185.9453,1428.7389 q 8.7891,0 15.1172,4.5703 6.3984,4.5 6.3984,9.9141 0,2.3203 -1.6172,4.3594 -1.6171,1.9687 -4.9921,1.9687 -2.461,0 -4.3594,-1.6875 -1.8281,-1.6875 -2.6719,-4.9219 l -0.8437,-3.375 q -0.9141,-3.7265 -3.1641,-5.2734 -2.3203,-1.4766 -6.1172,-1.4766 -8.0156,0 -13.5703,7.0313 -5.4844,6.9609 -5.4844,18.5625 0,10.6172 6.0469,19.0547 6.1172,8.4375 16.4531,8.4375 7.3125,0 13.0078,-4.7813 3.2344,-2.7422 7.3125,-8.7187 l 1.9688,1.1953 q -4.0078,8.4375 -8.4375,13.3594 -8.5078,9.4218 -19.6875,9.4218 -10.9688,0 -19.4063,-8.6484 -8.4375,-8.6484 -8.4375,-23.4844 0,-14.5547 9.211,-25.0312 9.2109,-10.4766 23.2734,-10.4766 z m -3.0937,0 z"
       style="font-style:normal;font-weight:normal;font-size:144px;font-family:Times;text-anchor:start;fill:#000000"
       id="path180" />
    <path
       d="m 5256.8437,1499.1873 -11.1093,-26.4375 -10.9688,26.4375 z m -41.4375,24.6563 v -1.7344 q 3.7032,-0.4219 5.5313,-2.8125 1.875,-2.3906 6.375,-12.9844 l 20.0156,-47.1093 h 1.875 l 23.9063,54.4218 q 2.3906,5.4375 3.7968,6.75 1.4532,1.2657 4.8282,1.7344 v 1.7344 h -24.4219 v -1.7344 q 4.2187,-0.375 5.4375,-0.8906 1.2187,-0.5625 1.2187,-2.6719 0,-0.7031 -0.4687,-2.4844 -0.4688,-1.7812 -1.3125,-3.75 l -3.9844,-9.2343 h -25.125 q -3.75,9.4218 -4.5,11.5312 -0.7031,2.0625 -0.7031,3.2813 0,2.4375 1.9687,3.375 1.2188,0.5625 4.5938,0.8437 v 1.7344 z m 32.8594,-64.6406 z"
       style="font-style:normal;font-weight:normal;font-size:96px;font-family:Times;baseline-shift:sub;text-anchor:start;fill:#000000"
       id="path182" />
    <path
       d="m 5286.2344,1541.9655 q 17.1562,-17.8125 23.2968,-26.1563 6.1407,-8.3437 6.1407,-16.2656 0,-6.9375 -3.75,-10.5469 -3.75,-3.6562 -8.9532,-3.6562 -6.4218,0 -10.4062,4.6875 -2.2031,2.5781 -4.2188,7.9218 l -2.0156,-0.4218 q 2.3438,-10.7813 7.9219,-14.9532 5.625,-4.2187 12.0469,-4.2187 7.9218,0 12.7968,5.0156 4.9219,4.9688 4.9219,12.1875 0,7.6875 -5.2969,14.8125 -5.2968,7.125 -23.0156,25.3594 h 21.5156 q 4.5,0 6.3282,-1.0781 1.8281,-1.0782 4.125,-5.25 l 1.2187,0.5625 -5.2031,13.0781 h -37.4531 z"
       style="font-style:normal;font-weight:normal;font-size:96px;font-family:Times;baseline-shift:sub;text-anchor:start;fill:#000000"
       id="path184" />
    <path
       d="m 5354.9062,1522.8592 q 0,4.7344 -3.4218,8.8125 -3.4219,4.0781 -7.3594,5.8594 l -0.8906,-1.875 q 4.5,-2.5313 6.1875,-5.4844 1.7343,-2.9531 1.7343,-4.9219 0,-0.6562 -0.4218,-0.8437 -0.4219,-0.1875 -0.8907,-0.1875 l -3.1406,0.3281 q -1.9687,0 -3.6094,-1.2656 -1.6406,-1.3125 -1.6406,-3.75 0,-1.875 1.3594,-3.6563 1.3594,-1.7812 4.4531,-1.7812 2.9531,0 5.2969,2.3437 2.3437,2.2969 2.3437,6.4219 z"
       style="font-style:normal;font-weight:normal;font-size:96px;font-family:Times;baseline-shift:sub;text-anchor:start;fill:#000000"
       id="path186" />
    <path
       d="m 5403.2344,1479.6405 q 5.8593,0 10.0781,3.0468 4.2656,3 4.2656,6.6094 0,1.5469 -1.0781,2.9063 -1.0781,1.3125 -3.3281,1.3125 -1.6407,0 -2.9063,-1.125 -1.2187,-1.125 -1.7812,-3.2813 l -0.5625,-2.25 q -0.6094,-2.4844 -2.1094,-3.5156 -1.5469,-0.9844 -4.0781,-0.9844 -5.3438,0 -9.0469,4.6875 -3.6563,4.6406 -3.6563,12.375 0,7.0781 4.0313,12.7031 4.0781,5.625 10.9687,5.625 4.875,0 8.6719,-3.1875 2.1563,-1.8281 4.875,-5.8125 l 1.3125,0.7969 q -2.6719,5.625 -5.625,8.9063 -5.6719,6.2812 -13.125,6.2812 -7.3125,0 -12.9375,-5.7656 -5.625,-5.7656 -5.625,-15.6563 0,-9.7031 6.1406,-16.6875 6.1407,-6.9843 15.5157,-6.9843 z m -2.0625,0 z"
       style="font-style:normal;font-weight:normal;font-size:96px;font-family:Times;baseline-shift:sub;text-anchor:start;fill:#000000"
       id="path188" />
    <path
       d="m 5450.4844,1539.5748 q 7.3593,0 12.3281,-2.8593 4.9687,-2.8594 4.9687,-10.9688 0,-8.0625 -5.8125,-11.0156 -5.8125,-2.9531 -14.8125,-2.9531 -2.2031,0 -2.8125,0 -0.5625,0 -1.7812,-0.047 v 23.9062 q 0,2.4844 1.4062,3.2344 1.4063,0.7031 6.5157,0.7031 z m -26.9063,1.7344 q 5.8125,-0.3281 7.5,-1.7812 1.7344,-1.5 1.7344,-6.8907 v -42.7031 q 0,-5.2969 -1.7344,-6.7969 -1.6875,-1.5468 -7.5,-1.8281 v -1.7812 h 26.9063 q 11.5312,0 18.2812,3.7031 6.7969,3.7031 6.7969,12.75 0,6.7969 -4.7344,10.3125 -2.6719,2.0156 -8.0156,3.3281 6.6094,1.5938 11.2969,5.3438 4.6875,3.7031 4.6875,10.4062 0,11.25 -10.4063,15.4688 -5.4844,2.2031 -13.5,2.2031 h -31.3125 z m 28.125,-33.375 q 4.8281,-0.094 8.0156,-1.5469 6.0938,-2.8125 6.0938,-10.0781 0,-8.5781 -7.0313,-11.5781 -3.8906,-1.6406 -11.8125,-1.6406 -3,0 -3.7031,0.5156 -0.7031,0.5156 -0.7031,2.8125 v 21.6562 z"
       style="font-style:normal;font-weight:normal;font-size:96px;font-family:Times;baseline-shift:sub;text-anchor:start;fill:#000000"
       id="path190" />
    <path
       d="m 5488.9219,1561.1655 q 17.1562,-17.8125 23.2968,-26.1563 6.1407,-8.3437 6.1407,-16.2656 0,-6.9375 -3.75,-10.5469 -3.75,-3.6562 -8.9532,-3.6562 -6.4218,0 -10.4062,4.6875 -2.2031,2.5781 -4.2188,7.9218 l -2.0156,-0.4218 q 2.3438,-10.7813 7.9219,-14.9532 5.625,-4.2187 12.0469,-4.2187 7.9218,0 12.7968,5.0156 4.9219,4.9688 4.9219,12.1875 0,7.6875 -5.2969,14.8125 -5.2968,7.125 -23.0156,25.3594 h 21.5156 q 4.5,0 6.3282,-1.0781 1.8281,-1.0782 4.125,-5.25 l 1.2187,0.5625 -5.2031,13.0781 h -37.4531 z"
       style="font-style:normal;font-weight:normal;font-size:96px;font-family:Times;baseline-shift:sub;text-anchor:start;fill:#000000"
       id="path192" />
    <path
       d="m 2116.6172,5120.1985 q 8.5078,-0.9141 10.5469,-3.0938 2.1093,-2.25 2.1093,-11.6015 v -62.3672 q 0,-7.6641 -2.3203,-9.9844 -2.3203,-2.3906 -10.3359,-2.9531 v -2.6719 h 76.7109 l 0.4922,20.6719 h -4.0078 q -1.4766,-9.9141 -5.5547,-12.5156 -4.0781,-2.6719 -16.1015,-2.6719 h -19.6875 q -2.8829,0 -3.7266,0.9844 -0.7734,0.9843 -0.7734,3.8671 v 32.1329 h 20.8125 q 9.2109,0 11.7421,-2.7422 2.5313,-2.7422 4.0782,-11.1094 h 3.375 v 33.3281 h -3.375 q -1.6172,-8.3672 -4.1485,-11.039 -2.5312,-2.7422 -11.6718,-2.7422 h -20.8125 v 31.5 q 0,7.9453 2.3906,10.1953 2.4609,2.1797 10.6172,2.8125 v 2.6015 h -40.3594 z"
       style="font-style:normal;font-weight:normal;font-size:144px;font-family:Times;text-anchor:start;fill:#000000"
       id="path194" />
    <path
       d="m 2202.6094,5143.4438 q 2.5781,0 6.7969,2.6719 4.2656,2.6719 7.2187,2.6719 6.5625,0 9.75,-4.4063 3.1875,-4.4531 3.1875,-9.6562 0,-5.0156 -2.5781,-8.8125 -4.3594,-6.4219 -14.7188,-6.4219 -0.6093,0 -1.1718,0.047 -0.5625,0 -1.3125,0.094 l -0.094,-1.2187 q 7.5,-2.7188 11.8125,-6.2344 4.3125,-3.5156 4.3125,-9.2812 0,-5.1094 -3.4219,-7.7813 -3.375,-2.6719 -7.7343,-2.6719 -5.1563,0 -9.0938,3.7969 -2.1562,2.0625 -4.6406,6.375 l -1.4531,-0.3281 q 1.875,-7.125 6.9843,-11.3906 5.1094,-4.2657 11.8125,-4.2657 7.1719,0 11.0625,3.9375 3.9375,3.9375 3.9375,9.0938 0,4.5469 -3.2343,8.3437 -1.8282,2.1563 -5.6719,4.8282 4.5,1.9218 7.2187,4.5 5.1094,4.9218 5.1094,12.4687 0,8.9063 -7.0312,15.7031 -6.9844,6.7969 -19.9219,6.7969 -5.7656,0 -8.1094,-1.6875 -2.2969,-1.7344 -2.2969,-3.7031 0,-1.2188 0.75,-2.3438 0.7969,-1.125 2.5313,-1.125 z"
       style="font-style:normal;font-weight:normal;font-size:96px;font-family:Times;baseline-shift:sub;text-anchor:start;fill:#000000"
       id="path196" />
    <path
       d="m 2278.4531,5121.3235 q 0,7.1015 -5.1328,13.2187 -5.1328,6.1172 -11.039,8.7891 l -1.336,-2.8125 q 6.75,-3.7969 9.2813,-8.2266 2.6015,-4.4297 2.6015,-7.3828 0,-0.9844 -0.6328,-1.2656 -0.6328,-0.2813 -1.3359,-0.2813 l -4.711,0.4922 q -2.9531,0 -5.414,-1.8984 -2.461,-1.9688 -2.461,-5.625 0,-2.8125 2.0391,-5.4844 2.0391,-2.6719 6.6797,-2.6719 4.4297,0 7.9453,3.5157 3.5156,3.4453 3.5156,9.6328 z"
       style="font-style:normal;font-weight:normal;font-size:144px;font-family:Times;text-anchor:start;fill:#000000"
       id="path198" />
    <path
       d="m 2350.9453,5056.4954 q 8.7891,0 15.1172,4.5703 6.3984,4.5 6.3984,9.914 0,2.3203 -1.6171,4.3594 -1.6172,1.9688 -4.9922,1.9688 -2.461,0 -4.3594,-1.6875 -1.8281,-1.6875 -2.6719,-4.9219 l -0.8437,-3.375 q -0.9141,-3.7266 -3.1641,-5.2735 -2.3203,-1.4765 -6.1172,-1.4765 -8.0156,0 -13.5703,7.0312 -5.4844,6.961 -5.4844,18.5625 0,10.6172 6.0469,19.0547 6.1172,8.4375 16.4531,8.4375 7.3125,0 13.0078,-4.7812 3.2344,-2.7422 7.3125,-8.7188 l 1.9688,1.1953 q -4.0078,8.4375 -8.4375,13.3594 -8.5078,9.4219 -19.6875,9.4219 -10.9688,0 -19.4063,-8.6485 -8.4375,-8.6484 -8.4375,-23.4843 0,-14.5547 9.211,-25.0313 9.2109,-10.4765 23.2734,-10.4765 z m -3.0937,0 z"
       style="font-style:normal;font-weight:normal;font-size:144px;font-family:Times;text-anchor:start;fill:#000000"
       id="path200" />
    <path
       d="m 2421.8438,5126.9438 -11.1094,-26.4375 -10.9688,26.4375 z m -41.4375,24.6563 v -1.7344 q 3.7031,-0.4219 5.5312,-2.8125 1.875,-2.3906 6.375,-12.9844 l 20.0156,-47.1093 h 1.875 l 23.9063,54.4218 q 2.3906,5.4375 3.7969,6.75 1.4531,1.2657 4.8281,1.7344 v 1.7344 h -24.4219 v -1.7344 q 4.2188,-0.375 5.4375,-0.8906 1.2188,-0.5625 1.2188,-2.6719 0,-0.7031 -0.4688,-2.4844 -0.4687,-1.7812 -1.3125,-3.75 l -3.9844,-9.2343 h -25.125 q -3.75,9.4218 -4.5,11.5312 -0.7031,2.0625 -0.7031,3.2813 0,2.4375 1.9688,3.375 1.2187,0.5625 4.5937,0.8437 v 1.7344 z m 32.8593,-64.6406 z"
       style="font-style:normal;font-weight:normal;font-size:96px;font-family:Times;baseline-shift:sub;text-anchor:start;fill:#000000"
       id="path202" />
    <path
       d="m 2483.6719,5121.3235 q 0,7.1015 -5.1328,13.2187 -5.1328,6.1172 -11.0391,8.7891 l -1.3359,-2.8125 q 6.75,-3.7969 9.2812,-8.2266 2.6016,-4.4297 2.6016,-7.3828 0,-0.9844 -0.6328,-1.2656 -0.6328,-0.2813 -1.336,-0.2813 l -4.7109,0.4922 q -2.9531,0 -5.4141,-1.8984 -2.4609,-1.9688 -2.4609,-5.625 0,-2.8125 2.0391,-5.4844 2.039,-2.6719 6.6796,-2.6719 4.4297,0 7.9454,3.5157 3.5156,3.4453 3.5156,9.6328 z"
       style="font-style:normal;font-weight:normal;font-size:144px;font-family:Times;text-anchor:start;fill:#000000"
       id="path204" />
    <path
       d="m 2556.1641,5056.4954 q 8.789,0 15.1172,4.5703 6.3984,4.5 6.3984,9.914 0,2.3203 -1.6172,4.3594 -1.6172,1.9688 -4.9922,1.9688 -2.4609,0 -4.3594,-1.6875 -1.8281,-1.6875 -2.6718,-4.9219 l -0.8438,-3.375 q -0.914,-3.7266 -3.164,-5.2735 -2.3204,-1.4765 -6.1172,-1.4765 -8.0157,0 -13.5703,7.0312 -5.4844,6.961 -5.4844,18.5625 0,10.6172 6.0469,19.0547 6.1171,8.4375 16.4531,8.4375 7.3125,0 13.0078,-4.7812 3.2344,-2.7422 7.3125,-8.7188 l 1.9687,1.1953 q -4.0078,8.4375 -8.4375,13.3594 -8.5078,9.4219 -19.6875,9.4219 -10.9687,0 -19.4062,-8.6485 -8.4375,-8.6484 -8.4375,-23.4843 0,-14.5547 9.2109,-25.0313 9.211,-10.4765 23.2735,-10.4765 z m -3.0938,0 z"
       style="font-style:normal;font-weight:normal;font-size:144px;font-family:Times;text-anchor:start;fill:#000000"
       id="path206" />
    <path
       d="m 2612.7656,5148.1313 q 7.3594,0 12.3282,-2.8593 4.9687,-2.8594 4.9687,-10.9688 0,-8.0625 -5.8125,-11.0156 -5.8125,-2.9531 -14.8125,-2.9531 -2.2031,0 -2.8125,0 -0.5625,0 -1.7812,-0.047 v 23.9062 q 0,2.4844 1.4062,3.2344 1.4063,0.7031 6.5156,0.7031 z m -26.9062,1.7344 q 5.8125,-0.3281 7.5,-1.7812 1.7344,-1.5 1.7344,-6.8907 v -42.7031 q 0,-5.2969 -1.7344,-6.7969 -1.6875,-1.5468 -7.5,-1.8281 v -1.7812 h 26.9062 q 11.5313,0 18.2813,3.7031 6.7969,3.7031 6.7969,12.75 0,6.7969 -4.7344,10.3125 -2.6719,2.0156 -8.0156,3.3281 6.6093,1.5938 11.2968,5.3438 4.6875,3.7031 4.6875,10.4062 0,11.25 -10.4062,15.4688 -5.4844,2.2031 -13.5,2.2031 h -31.3125 z m 28.125,-33.375 q 4.8281,-0.094 8.0156,-1.5469 6.0938,-2.8125 6.0938,-10.0781 0,-8.5781 -7.0313,-11.5781 -3.8906,-1.6406 -11.8125,-1.6406 -3,0 -3.7031,0.5156 -0.7031,0.5156 -0.7031,2.8125 v 21.6562 z"
       style="font-style:normal;font-weight:normal;font-size:96px;font-family:Times;baseline-shift:sub;text-anchor:start;fill:#000000"
       id="path208" />
    <path
       d="m 6886.6172,3876.3075 q 8.5078,-0.9141 10.5469,-3.0938 2.1093,-2.25 2.1093,-11.6015 v -62.3672 q 0,-7.6641 -2.3203,-9.9844 -2.3203,-2.3906 -10.3359,-2.9531 v -2.6719 h 76.7109 l 0.4922,20.6719 h -4.0078 q -1.4766,-9.9141 -5.5547,-12.5156 -4.0781,-2.6719 -16.1016,-2.6719 h -19.6875 q -2.8828,0 -3.7265,0.9844 -0.7735,0.9843 -0.7735,3.8671 v 32.1329 h 20.8125 q 9.211,0 11.7422,-2.7422 2.5313,-2.7422 4.0782,-11.1094 h 3.375 v 33.3281 h -3.375 q -1.6172,-8.3672 -4.1485,-11.039 -2.5312,-2.7422 -11.6719,-2.7422 h -20.8125 v 31.5 q 0,7.9453 2.3907,10.1953 2.4609,2.1797 10.6172,2.8125 v 2.6015 h -40.3594 z"
       style="font-style:normal;font-weight:normal;font-size:144px;font-family:Times;text-anchor:start;fill:#000000"
       id="path210" />
    <path
       d="m 6993.1406,3852.9591 -23.0156,32.5312 h 23.0156 z m 3.0938,-9.6563 h 4.4531 v 42.1875 h 9.7969 v 6.2344 h -9.7969 v 15.9844 h -7.4531 v -15.9844 h -27 v -6.2344 z"
       style="font-style:normal;font-weight:normal;font-size:96px;font-family:Times;baseline-shift:sub;text-anchor:start;fill:#000000"
       id="path212" />
    <path
       id="ellipse16-7"
       style="stroke:#000000;stroke-width:8px"
       d="m 3861.4936,3872.3719 a 225,90 0 0 1 -225,90 225,90 0 0 1 -225,-90 225,90 0 0 1 225,-90 225,90 0 0 1 225,90 z" />
  </g>
</svg>
