<?xml version="1.0" encoding="utf-8"?>
<svg xmlns="http://www.w3.org/2000/svg" xmlns:xlink="http://www.w3.org/1999/xlink" width="600" height="400" viewBox="0 0 2400 1600">
<defs>
  <clipPath id="clip850">
    <rect x="0" y="0" width="2400" height="1600"/>
  </clipPath>
</defs>
<path clip-path="url(#clip850)" d="
M0 1600 L2400 1600 L2400 0 L0 0  Z
  " fill="#ffffff" fill-rule="evenodd" fill-opacity="1"/>
<defs>
  <clipPath id="clip851">
    <rect x="480" y="0" width="1681" height="1600"/>
  </clipPath>
</defs>
<path clip-path="url(#clip850)" d="
M219.38 1423.18 L2352.76 1423.18 L2352.76 47.2441 L219.38 47.2441  Z
  " fill="#ffffff" fill-rule="evenodd" fill-opacity="1"/>
<defs>
  <clipPath id="clip852">
    <rect x="219" y="47" width="2134" height="1377"/>
  </clipPath>
</defs>
<polyline clip-path="url(#clip852)" style="stroke:#000000; stroke-width:2; stroke-opacity:0.1; fill:none" points="
  509.328,1423.18 509.328,47.2441 
  "/>
<polyline clip-path="url(#clip852)" style="stroke:#000000; stroke-width:2; stroke-opacity:0.1; fill:none" points="
  940.85,1423.18 940.85,47.2441 
  "/>
<polyline clip-path="url(#clip852)" style="stroke:#000000; stroke-width:2; stroke-opacity:0.1; fill:none" points="
  1372.37,1423.18 1372.37,47.2441 
  "/>
<polyline clip-path="url(#clip852)" style="stroke:#000000; stroke-width:2; stroke-opacity:0.1; fill:none" points="
  1803.89,1423.18 1803.89,47.2441 
  "/>
<polyline clip-path="url(#clip852)" style="stroke:#000000; stroke-width:2; stroke-opacity:0.1; fill:none" points="
  2235.42,1423.18 2235.42,47.2441 
  "/>
<polyline clip-path="url(#clip850)" style="stroke:#000000; stroke-width:4; stroke-opacity:1; fill:none" points="
  219.38,1423.18 2352.76,1423.18 
  "/>
<polyline clip-path="url(#clip850)" style="stroke:#000000; stroke-width:4; stroke-opacity:1; fill:none" points="
  509.328,1423.18 509.328,1406.67 
  "/>
<polyline clip-path="url(#clip850)" style="stroke:#000000; stroke-width:4; stroke-opacity:1; fill:none" points="
  940.85,1423.18 940.85,1406.67 
  "/>
<polyline clip-path="url(#clip850)" style="stroke:#000000; stroke-width:4; stroke-opacity:1; fill:none" points="
  1372.37,1423.18 1372.37,1406.67 
  "/>
<polyline clip-path="url(#clip850)" style="stroke:#000000; stroke-width:4; stroke-opacity:1; fill:none" points="
  1803.89,1423.18 1803.89,1406.67 
  "/>
<polyline clip-path="url(#clip850)" style="stroke:#000000; stroke-width:4; stroke-opacity:1; fill:none" points="
  2235.42,1423.18 2235.42,1406.67 
  "/>
<path clip-path="url(#clip850)" d="M 0 0 M486.713 1452.37 Q483.102 1452.37 481.273 1455.94 Q479.467 1459.48 479.467 1466.61 Q479.467 1473.71 481.273 1477.28 Q483.102 1480.82 486.713 1480.82 Q490.347 1480.82 492.153 1477.28 Q493.981 1473.71 493.981 1466.61 Q493.981 1459.48 492.153 1455.94 Q490.347 1452.37 486.713 1452.37 M486.713 1448.67 Q492.523 1448.67 495.578 1453.27 Q498.657 1457.86 498.657 1466.61 Q498.657 1475.33 495.578 1479.94 Q492.523 1484.52 486.713 1484.52 Q480.903 1484.52 477.824 1479.94 Q474.768 1475.33 474.768 1466.61 Q474.768 1457.86 477.824 1453.27 Q480.903 1448.67 486.713 1448.67 Z" fill="#000000" fill-rule="evenodd" fill-opacity="1" /><path clip-path="url(#clip850)" d="M 0 0 M506.875 1477.97 L511.759 1477.97 L511.759 1483.85 L506.875 1483.85 L506.875 1477.97 Z" fill="#000000" fill-rule="evenodd" fill-opacity="1" /><path clip-path="url(#clip850)" d="M 0 0 M531.944 1452.37 Q528.333 1452.37 526.504 1455.94 Q524.699 1459.48 524.699 1466.61 Q524.699 1473.71 526.504 1477.28 Q528.333 1480.82 531.944 1480.82 Q535.578 1480.82 537.384 1477.28 Q539.213 1473.71 539.213 1466.61 Q539.213 1459.48 537.384 1455.94 Q535.578 1452.37 531.944 1452.37 M531.944 1448.67 Q537.754 1448.67 540.81 1453.27 Q543.888 1457.86 543.888 1466.61 Q543.888 1475.33 540.81 1479.94 Q537.754 1484.52 531.944 1484.52 Q526.134 1484.52 523.055 1479.94 Q520 1475.33 520 1466.61 Q520 1457.86 523.055 1453.27 Q526.134 1448.67 531.944 1448.67 Z" fill="#000000" fill-rule="evenodd" fill-opacity="1" /><path clip-path="url(#clip850)" d="M 0 0 M912.587 1479.92 L928.906 1479.92 L928.906 1483.85 L906.962 1483.85 L906.962 1479.92 Q909.624 1477.16 914.207 1472.53 Q918.814 1467.88 919.994 1466.54 Q922.239 1464.01 923.119 1462.28 Q924.022 1460.52 924.022 1458.83 Q924.022 1456.07 922.077 1454.34 Q920.156 1452.6 917.054 1452.6 Q914.855 1452.6 912.402 1453.37 Q909.971 1454.13 907.193 1455.68 L907.193 1450.96 Q910.017 1449.82 912.471 1449.25 Q914.925 1448.67 916.962 1448.67 Q922.332 1448.67 925.526 1451.35 Q928.721 1454.04 928.721 1458.53 Q928.721 1460.66 927.911 1462.58 Q927.124 1464.48 925.017 1467.07 Q924.438 1467.74 921.337 1470.96 Q918.235 1474.15 912.587 1479.92 Z" fill="#000000" fill-rule="evenodd" fill-opacity="1" /><path clip-path="url(#clip850)" d="M 0 0 M938.721 1477.97 L943.605 1477.97 L943.605 1483.85 L938.721 1483.85 L938.721 1477.97 Z" fill="#000000" fill-rule="evenodd" fill-opacity="1" /><path clip-path="url(#clip850)" d="M 0 0 M953.836 1449.29 L972.193 1449.29 L972.193 1453.23 L958.119 1453.23 L958.119 1461.7 Q959.137 1461.35 960.156 1461.19 Q961.174 1461 962.193 1461 Q967.98 1461 971.36 1464.18 Q974.739 1467.35 974.739 1472.76 Q974.739 1478.34 971.267 1481.44 Q967.795 1484.52 961.475 1484.52 Q959.299 1484.52 957.031 1484.15 Q954.786 1483.78 952.378 1483.04 L952.378 1478.34 Q954.461 1479.48 956.684 1480.03 Q958.906 1480.59 961.383 1480.59 Q965.387 1480.59 967.725 1478.48 Q970.063 1476.38 970.063 1472.76 Q970.063 1469.15 967.725 1467.05 Q965.387 1464.94 961.383 1464.94 Q959.508 1464.94 957.633 1465.36 Q955.781 1465.77 953.836 1466.65 L953.836 1449.29 Z" fill="#000000" fill-rule="evenodd" fill-opacity="1" /><path clip-path="url(#clip850)" d="M 0 0 M1339.54 1449.29 L1357.89 1449.29 L1357.89 1453.23 L1343.82 1453.23 L1343.82 1461.7 Q1344.84 1461.35 1345.86 1461.19 Q1346.87 1461 1347.89 1461 Q1353.68 1461 1357.06 1464.18 Q1360.44 1467.35 1360.44 1472.76 Q1360.44 1478.34 1356.97 1481.44 Q1353.5 1484.52 1347.18 1484.52 Q1345 1484.52 1342.73 1484.15 Q1340.49 1483.78 1338.08 1483.04 L1338.08 1478.34 Q1340.16 1479.48 1342.38 1480.03 Q1344.61 1480.59 1347.08 1480.59 Q1351.09 1480.59 1353.43 1478.48 Q1355.76 1476.38 1355.76 1472.76 Q1355.76 1469.15 1353.43 1467.05 Q1351.09 1464.94 1347.08 1464.94 Q1345.21 1464.94 1343.33 1465.36 Q1341.48 1465.77 1339.54 1466.65 L1339.54 1449.29 Z" fill="#000000" fill-rule="evenodd" fill-opacity="1" /><path clip-path="url(#clip850)" d="M 0 0 M1369.65 1477.97 L1374.54 1477.97 L1374.54 1483.85 L1369.65 1483.85 L1369.65 1477.97 Z" fill="#000000" fill-rule="evenodd" fill-opacity="1" /><path clip-path="url(#clip850)" d="M 0 0 M1394.72 1452.37 Q1391.11 1452.37 1389.28 1455.94 Q1387.48 1459.48 1387.48 1466.61 Q1387.48 1473.71 1389.28 1477.28 Q1391.11 1480.82 1394.72 1480.82 Q1398.36 1480.82 1400.16 1477.28 Q1401.99 1473.71 1401.99 1466.61 Q1401.99 1459.48 1400.16 1455.94 Q1398.36 1452.37 1394.72 1452.37 M1394.72 1448.67 Q1400.53 1448.67 1403.59 1453.27 Q1406.67 1457.86 1406.67 1466.61 Q1406.67 1475.33 1403.59 1479.94 Q1400.53 1484.52 1394.72 1484.52 Q1388.91 1484.52 1385.83 1479.94 Q1382.78 1475.33 1382.78 1466.61 Q1382.78 1457.86 1385.83 1453.27 Q1388.91 1448.67 1394.72 1448.67 Z" fill="#000000" fill-rule="evenodd" fill-opacity="1" /><path clip-path="url(#clip850)" d="M 0 0 M1770.21 1449.29 L1792.44 1449.29 L1792.44 1451.28 L1779.89 1483.85 L1775.01 1483.85 L1786.81 1453.23 L1770.21 1453.23 L1770.21 1449.29 Z" fill="#000000" fill-rule="evenodd" fill-opacity="1" /><path clip-path="url(#clip850)" d="M 0 0 M1801.56 1477.97 L1806.44 1477.97 L1806.44 1483.85 L1801.56 1483.85 L1801.56 1477.97 Z" fill="#000000" fill-rule="evenodd" fill-opacity="1" /><path clip-path="url(#clip850)" d="M 0 0 M1816.67 1449.29 L1835.03 1449.29 L1835.03 1453.23 L1820.95 1453.23 L1820.95 1461.7 Q1821.97 1461.35 1822.99 1461.19 Q1824.01 1461 1825.03 1461 Q1830.82 1461 1834.2 1464.18 Q1837.57 1467.35 1837.57 1472.76 Q1837.57 1478.34 1834.1 1481.44 Q1830.63 1484.52 1824.31 1484.52 Q1822.14 1484.52 1819.87 1484.15 Q1817.62 1483.78 1815.21 1483.04 L1815.21 1478.34 Q1817.3 1479.48 1819.52 1480.03 Q1821.74 1480.59 1824.22 1480.59 Q1828.22 1480.59 1830.56 1478.48 Q1832.9 1476.38 1832.9 1472.76 Q1832.9 1469.15 1830.56 1467.05 Q1828.22 1464.94 1824.22 1464.94 Q1822.34 1464.94 1820.47 1465.36 Q1818.62 1465.77 1816.67 1466.65 L1816.67 1449.29 Z" fill="#000000" fill-rule="evenodd" fill-opacity="1" /><path clip-path="url(#clip850)" d="M 0 0 M2187.49 1479.92 L2195.13 1479.92 L2195.13 1453.55 L2186.82 1455.22 L2186.82 1450.96 L2195.08 1449.29 L2199.76 1449.29 L2199.76 1479.92 L2207.4 1479.92 L2207.4 1483.85 L2187.49 1483.85 L2187.49 1479.92 Z" fill="#000000" fill-rule="evenodd" fill-opacity="1" /><path clip-path="url(#clip850)" d="M 0 0 M2226.84 1452.37 Q2223.23 1452.37 2221.4 1455.94 Q2219.59 1459.48 2219.59 1466.61 Q2219.59 1473.71 2221.4 1477.28 Q2223.23 1480.82 2226.84 1480.82 Q2230.47 1480.82 2232.28 1477.28 Q2234.11 1473.71 2234.11 1466.61 Q2234.11 1459.48 2232.28 1455.94 Q2230.47 1452.37 2226.84 1452.37 M2226.84 1448.67 Q2232.65 1448.67 2235.71 1453.27 Q2238.78 1457.86 2238.78 1466.61 Q2238.78 1475.33 2235.71 1479.94 Q2232.65 1484.52 2226.84 1484.52 Q2221.03 1484.52 2217.95 1479.94 Q2214.9 1475.33 2214.9 1466.61 Q2214.9 1457.86 2217.95 1453.27 Q2221.03 1448.67 2226.84 1448.67 Z" fill="#000000" fill-rule="evenodd" fill-opacity="1" /><path clip-path="url(#clip850)" d="M 0 0 M2247 1477.97 L2251.89 1477.97 L2251.89 1483.85 L2247 1483.85 L2247 1477.97 Z" fill="#000000" fill-rule="evenodd" fill-opacity="1" /><path clip-path="url(#clip850)" d="M 0 0 M2272.07 1452.37 Q2268.46 1452.37 2266.63 1455.94 Q2264.83 1459.48 2264.83 1466.61 Q2264.83 1473.71 2266.63 1477.28 Q2268.46 1480.82 2272.07 1480.82 Q2275.71 1480.82 2277.51 1477.28 Q2279.34 1473.71 2279.34 1466.61 Q2279.34 1459.48 2277.51 1455.94 Q2275.71 1452.37 2272.07 1452.37 M2272.07 1448.67 Q2277.88 1448.67 2280.94 1453.27 Q2284.02 1457.86 2284.02 1466.61 Q2284.02 1475.33 2280.94 1479.94 Q2277.88 1484.52 2272.07 1484.52 Q2266.26 1484.52 2263.18 1479.94 Q2260.13 1475.33 2260.13 1466.61 Q2260.13 1457.86 2263.18 1453.27 Q2266.26 1448.67 2272.07 1448.67 Z" fill="#000000" fill-rule="evenodd" fill-opacity="1" /><path clip-path="url(#clip850)" d="M 0 0 M1285.13 1522.27 L1285.13 1532.4 L1297.19 1532.4 L1297.19 1536.95 L1285.13 1536.95 L1285.13 1556.3 Q1285.13 1560.66 1286.31 1561.9 Q1287.52 1563.14 1291.18 1563.14 L1297.19 1563.14 L1297.19 1568.04 L1291.18 1568.04 Q1284.4 1568.04 1281.82 1565.53 Q1279.24 1562.98 1279.24 1556.3 L1279.24 1536.95 L1274.94 1536.95 L1274.94 1532.4 L1279.24 1532.4 L1279.24 1522.27 L1285.13 1522.27 Z" fill="#000000" fill-rule="evenodd" fill-opacity="1" /><polyline clip-path="url(#clip852)" style="stroke:#000000; stroke-width:2; stroke-opacity:0.1; fill:none" points="
  219.38,1384.24 2352.76,1384.24 
  "/>
<polyline clip-path="url(#clip852)" style="stroke:#000000; stroke-width:2; stroke-opacity:0.1; fill:none" points="
  219.38,1112.03 2352.76,1112.03 
  "/>
<polyline clip-path="url(#clip852)" style="stroke:#000000; stroke-width:2; stroke-opacity:0.1; fill:none" points="
  219.38,839.826 2352.76,839.826 
  "/>
<polyline clip-path="url(#clip852)" style="stroke:#000000; stroke-width:2; stroke-opacity:0.1; fill:none" points="
  219.38,567.619 2352.76,567.619 
  "/>
<polyline clip-path="url(#clip852)" style="stroke:#000000; stroke-width:2; stroke-opacity:0.1; fill:none" points="
  219.38,295.413 2352.76,295.413 
  "/>
<polyline clip-path="url(#clip850)" style="stroke:#000000; stroke-width:4; stroke-opacity:1; fill:none" points="
  219.38,1423.18 219.38,47.2441 
  "/>
<polyline clip-path="url(#clip850)" style="stroke:#000000; stroke-width:4; stroke-opacity:1; fill:none" points="
  219.38,1384.24 244.981,1384.24 
  "/>
<polyline clip-path="url(#clip850)" style="stroke:#000000; stroke-width:4; stroke-opacity:1; fill:none" points="
  219.38,1112.03 244.981,1112.03 
  "/>
<polyline clip-path="url(#clip850)" style="stroke:#000000; stroke-width:4; stroke-opacity:1; fill:none" points="
  219.38,839.826 244.981,839.826 
  "/>
<polyline clip-path="url(#clip850)" style="stroke:#000000; stroke-width:4; stroke-opacity:1; fill:none" points="
  219.38,567.619 244.981,567.619 
  "/>
<polyline clip-path="url(#clip850)" style="stroke:#000000; stroke-width:4; stroke-opacity:1; fill:none" points="
  219.38,295.413 244.981,295.413 
  "/>
<path clip-path="url(#clip850)" d="M 0 0 M126.205 1370.04 Q122.593 1370.04 120.765 1373.6 Q118.959 1377.14 118.959 1384.27 Q118.959 1391.38 120.765 1394.94 Q122.593 1398.49 126.205 1398.49 Q129.839 1398.49 131.644 1394.94 Q133.473 1391.38 133.473 1384.27 Q133.473 1377.14 131.644 1373.6 Q129.839 1370.04 126.205 1370.04 M126.205 1366.33 Q132.015 1366.33 135.07 1370.94 Q138.149 1375.52 138.149 1384.27 Q138.149 1393 135.07 1397.61 Q132.015 1402.19 126.205 1402.19 Q120.394 1402.19 117.316 1397.61 Q114.26 1393 114.26 1384.27 Q114.26 1375.52 117.316 1370.94 Q120.394 1366.33 126.205 1366.33 Z" fill="#000000" fill-rule="evenodd" fill-opacity="1" /><path clip-path="url(#clip850)" d="M 0 0 M146.366 1395.64 L151.251 1395.64 L151.251 1401.52 L146.366 1401.52 L146.366 1395.64 Z" fill="#000000" fill-rule="evenodd" fill-opacity="1" /><path clip-path="url(#clip850)" d="M 0 0 M171.436 1370.04 Q167.825 1370.04 165.996 1373.6 Q164.19 1377.14 164.19 1384.27 Q164.19 1391.38 165.996 1394.94 Q167.825 1398.49 171.436 1398.49 Q175.07 1398.49 176.876 1394.94 Q178.704 1391.38 178.704 1384.27 Q178.704 1377.14 176.876 1373.6 Q175.07 1370.04 171.436 1370.04 M171.436 1366.33 Q177.246 1366.33 180.301 1370.94 Q183.38 1375.52 183.38 1384.27 Q183.38 1393 180.301 1397.61 Q177.246 1402.19 171.436 1402.19 Q165.626 1402.19 162.547 1397.61 Q159.491 1393 159.491 1384.27 Q159.491 1375.52 162.547 1370.94 Q165.626 1366.33 171.436 1366.33 Z" fill="#000000" fill-rule="evenodd" fill-opacity="1" /><path clip-path="url(#clip850)" d="M 0 0 M127.2 1097.83 Q123.589 1097.83 121.76 1101.4 Q119.955 1104.94 119.955 1112.07 Q119.955 1119.17 121.76 1122.74 Q123.589 1126.28 127.2 1126.28 Q130.834 1126.28 132.64 1122.74 Q134.468 1119.17 134.468 1112.07 Q134.468 1104.94 132.64 1101.4 Q130.834 1097.83 127.2 1097.83 M127.2 1094.13 Q133.01 1094.13 136.066 1098.73 Q139.144 1103.32 139.144 1112.07 Q139.144 1120.79 136.066 1125.4 Q133.01 1129.98 127.2 1129.98 Q121.39 1129.98 118.311 1125.4 Q115.256 1120.79 115.256 1112.07 Q115.256 1103.32 118.311 1098.73 Q121.39 1094.13 127.2 1094.13 Z" fill="#000000" fill-rule="evenodd" fill-opacity="1" /><path clip-path="url(#clip850)" d="M 0 0 M147.362 1123.43 L152.246 1123.43 L152.246 1129.31 L147.362 1129.31 L147.362 1123.43 Z" fill="#000000" fill-rule="evenodd" fill-opacity="1" /><path clip-path="url(#clip850)" d="M 0 0 M162.477 1094.75 L180.834 1094.75 L180.834 1098.69 L166.76 1098.69 L166.76 1107.16 Q167.778 1106.81 168.797 1106.65 Q169.815 1106.46 170.834 1106.46 Q176.621 1106.46 180.001 1109.64 Q183.38 1112.81 183.38 1118.22 Q183.38 1123.8 179.908 1126.9 Q176.436 1129.98 170.116 1129.98 Q167.94 1129.98 165.672 1129.61 Q163.427 1129.24 161.019 1128.5 L161.019 1123.8 Q163.102 1124.94 165.325 1125.49 Q167.547 1126.05 170.024 1126.05 Q174.028 1126.05 176.366 1123.94 Q178.704 1121.84 178.704 1118.22 Q178.704 1114.61 176.366 1112.51 Q174.028 1110.4 170.024 1110.4 Q168.149 1110.4 166.274 1110.82 Q164.422 1111.23 162.477 1112.11 L162.477 1094.75 Z" fill="#000000" fill-rule="evenodd" fill-opacity="1" /><path clip-path="url(#clip850)" d="M 0 0 M117.015 853.17 L124.654 853.17 L124.654 826.805 L116.343 828.472 L116.343 824.212 L124.607 822.546 L129.283 822.546 L129.283 853.17 L136.922 853.17 L136.922 857.106 L117.015 857.106 L117.015 853.17 Z" fill="#000000" fill-rule="evenodd" fill-opacity="1" /><path clip-path="url(#clip850)" d="M 0 0 M146.366 851.226 L151.251 851.226 L151.251 857.106 L146.366 857.106 L146.366 851.226 Z" fill="#000000" fill-rule="evenodd" fill-opacity="1" /><path clip-path="url(#clip850)" d="M 0 0 M171.436 825.624 Q167.825 825.624 165.996 829.189 Q164.19 832.731 164.19 839.86 Q164.19 846.967 165.996 850.532 Q167.825 854.073 171.436 854.073 Q175.07 854.073 176.876 850.532 Q178.704 846.967 178.704 839.86 Q178.704 832.731 176.876 829.189 Q175.07 825.624 171.436 825.624 M171.436 821.921 Q177.246 821.921 180.301 826.527 Q183.38 831.11 183.38 839.86 Q183.38 848.587 180.301 853.194 Q177.246 857.777 171.436 857.777 Q165.626 857.777 162.547 853.194 Q159.491 848.587 159.491 839.86 Q159.491 831.11 162.547 826.527 Q165.626 821.921 171.436 821.921 Z" fill="#000000" fill-rule="evenodd" fill-opacity="1" /><path clip-path="url(#clip850)" d="M 0 0 M118.01 580.964 L125.649 580.964 L125.649 554.599 L117.339 556.265 L117.339 552.006 L125.603 550.339 L130.279 550.339 L130.279 580.964 L137.917 580.964 L137.917 584.899 L118.01 584.899 L118.01 580.964 Z" fill="#000000" fill-rule="evenodd" fill-opacity="1" /><path clip-path="url(#clip850)" d="M 0 0 M147.362 579.02 L152.246 579.02 L152.246 584.899 L147.362 584.899 L147.362 579.02 Z" fill="#000000" fill-rule="evenodd" fill-opacity="1" /><path clip-path="url(#clip850)" d="M 0 0 M162.477 550.339 L180.834 550.339 L180.834 554.275 L166.76 554.275 L166.76 562.747 Q167.778 562.399 168.797 562.237 Q169.815 562.052 170.834 562.052 Q176.621 562.052 180.001 565.224 Q183.38 568.395 183.38 573.811 Q183.38 579.39 179.908 582.492 Q176.436 585.571 170.116 585.571 Q167.94 585.571 165.672 585.2 Q163.427 584.83 161.019 584.089 L161.019 579.39 Q163.102 580.524 165.325 581.08 Q167.547 581.635 170.024 581.635 Q174.028 581.635 176.366 579.529 Q178.704 577.423 178.704 573.811 Q178.704 570.2 176.366 568.094 Q174.028 565.987 170.024 565.987 Q168.149 565.987 166.274 566.404 Q164.422 566.821 162.477 567.7 L162.477 550.339 Z" fill="#000000" fill-rule="evenodd" fill-opacity="1" /><path clip-path="url(#clip850)" d="M 0 0 M120.232 308.758 L136.552 308.758 L136.552 312.693 L114.607 312.693 L114.607 308.758 Q117.269 306.003 121.853 301.374 Q126.459 296.721 127.64 295.378 Q129.885 292.855 130.765 291.119 Q131.667 289.36 131.667 287.67 Q131.667 284.915 129.723 283.179 Q127.802 281.443 124.7 281.443 Q122.501 281.443 120.047 282.207 Q117.617 282.971 114.839 284.522 L114.839 279.8 Q117.663 278.665 120.117 278.087 Q122.57 277.508 124.607 277.508 Q129.978 277.508 133.172 280.193 Q136.367 282.878 136.367 287.369 Q136.367 289.499 135.556 291.42 Q134.769 293.318 132.663 295.911 Q132.084 296.582 128.982 299.8 Q125.88 302.994 120.232 308.758 Z" fill="#000000" fill-rule="evenodd" fill-opacity="1" /><path clip-path="url(#clip850)" d="M 0 0 M146.366 306.813 L151.251 306.813 L151.251 312.693 L146.366 312.693 L146.366 306.813 Z" fill="#000000" fill-rule="evenodd" fill-opacity="1" /><path clip-path="url(#clip850)" d="M 0 0 M171.436 281.212 Q167.825 281.212 165.996 284.777 Q164.19 288.318 164.19 295.448 Q164.19 302.554 165.996 306.119 Q167.825 309.661 171.436 309.661 Q175.07 309.661 176.876 306.119 Q178.704 302.554 178.704 295.448 Q178.704 288.318 176.876 284.777 Q175.07 281.212 171.436 281.212 M171.436 277.508 Q177.246 277.508 180.301 282.115 Q183.38 286.698 183.38 295.448 Q183.38 304.175 180.301 308.781 Q177.246 313.364 171.436 313.364 Q165.626 313.364 162.547 308.781 Q159.491 304.175 159.491 295.448 Q159.491 286.698 162.547 282.115 Q165.626 277.508 171.436 277.508 Z" fill="#000000" fill-rule="evenodd" fill-opacity="1" /><path clip-path="url(#clip850)" d="M 0 0 M20.1444 753.227 L26.9239 753.227 Q23.9002 756.473 22.4043 760.166 Q20.9083 763.826 20.9083 767.964 Q20.9083 776.112 25.9054 780.44 Q30.8707 784.769 40.2919 784.769 Q49.6813 784.769 54.6784 780.44 Q59.6436 776.112 59.6436 767.964 Q59.6436 763.826 58.1477 760.166 Q56.6518 756.473 53.6281 753.227 L60.3439 753.227 Q62.6355 756.601 63.7814 760.388 Q64.9272 764.144 64.9272 768.345 Q64.9272 779.135 58.3387 785.342 Q51.7183 791.548 40.2919 791.548 Q28.8336 791.548 22.2451 785.342 Q15.6248 779.135 15.6248 768.345 Q15.6248 764.08 16.7706 760.325 Q17.8846 756.537 20.1444 753.227 Z" fill="#000000" fill-rule="evenodd" fill-opacity="1" /><path clip-path="url(#clip850)" d="M 0 0 M14.5426 729.483 Q21.8632 733.748 29.0246 735.817 Q36.186 737.886 43.5384 737.886 Q50.8908 737.886 58.1159 735.817 Q65.3091 733.716 72.5979 729.483 L72.5979 734.575 Q65.1182 739.35 57.8931 741.737 Q50.668 744.092 43.5384 744.092 Q36.4406 744.092 29.2474 741.737 Q22.0542 739.382 14.5426 734.575 L14.5426 729.483 Z" fill="#000000" fill-rule="evenodd" fill-opacity="1" /><path clip-path="url(#clip850)" d="M 0 0 M18.2347 712.327 L28.3562 712.327 L28.3562 700.264 L32.9077 700.264 L32.9077 712.327 L52.2594 712.327 Q56.6199 712.327 57.8613 711.15 Q59.1026 709.94 59.1026 706.28 L59.1026 700.264 L64.0042 700.264 L64.0042 706.28 Q64.0042 713.059 61.4897 715.637 Q58.9434 718.216 52.2594 718.216 L32.9077 718.216 L32.9077 722.512 L28.3562 722.512 L28.3562 718.216 L18.2347 718.216 L18.2347 712.327 Z" fill="#000000" fill-rule="evenodd" fill-opacity="1" /><path clip-path="url(#clip850)" d="M 0 0 M14.5426 693.485 L14.5426 688.392 Q22.0542 683.618 29.2474 681.263 Q36.4406 678.875 43.5384 678.875 Q50.668 678.875 57.8931 681.263 Q65.1182 683.618 72.5979 688.392 L72.5979 693.485 Q65.3091 689.252 58.1159 687.183 Q50.8908 685.082 43.5384 685.082 Q36.186 685.082 29.0246 687.183 Q21.8632 689.252 14.5426 693.485 Z" fill="#000000" fill-rule="evenodd" fill-opacity="1" /><polyline clip-path="url(#clip852)" style="stroke:#009af9; stroke-width:8; stroke-opacity:1; fill:none" points="
  336.72,1384.24 341.355,1384.24 345.991,1384.24 350.626,1384.24 355.262,1384.24 398.125,1384.24 440.987,1384.24 462.419,1384.24 483.85,1384.24 494.566,1384.24 
  505.281,1384.24 515.997,1381.58 526.713,1366.68 533.152,1351.88 539.592,1333.03 546.032,1310.43 552.471,1284.36 565.351,1223.04 578.23,1151.45 603.989,986.834 
  629.747,808.353 651.526,658.275 673.304,517.327 684.194,452.259 695.083,391.631 705.972,335.934 716.862,285.546 728.691,237.149 740.519,195.561 752.348,160.873 
  764.177,133.051 776.006,111.953 787.835,97.3394 799.664,88.8831 811.493,86.1858 833.303,94.7369 855.113,118.028 876.923,152.525 898.734,194.642 945.5,295.032 
  992.265,386.934 1019.36,428.842 1046.45,460.052 1073.54,480.057 1100.63,489.356 1148.78,483.726 1196.93,459.059 1239.16,430.993 1281.38,404.01 1327.42,381.232 
  1373.45,368.098 1419.76,364.546 1466.07,368.542 1568.48,388.565 1665.91,401.989 1767.22,402.49 1852.5,397.35 1956.61,392.307 2054.49,391.694 2211.29,394.493 
  2235.42,394.815 
  "/>
<polyline clip-path="url(#clip852)" style="stroke:#e26f46; stroke-width:8; stroke-opacity:1; fill:none" points="
  279.759,1384.24 284.672,1384.24 289.586,1384.24 294.5,1384.24 299.414,1384.24 344.848,1384.24 390.282,1384.24 435.717,1384.24 481.151,1384.24 487.977,1384.24 
  494.803,1384.24 498.216,1384.24 501.629,1384.24 503.336,1384.24 505.042,1384.24 505.896,1384.24 506.749,1384.24 507.602,1384.24 508.455,1384.24 509.309,1384.24 
  510.162,394.397 511.015,394.397 511.868,394.397 513.575,394.397 515.281,394.397 518.694,394.397 522.108,394.397 528.934,394.397 535.76,394.397 549.412,394.397 
  563.064,394.397 576.716,394.397 590.368,394.397 636.539,394.397 682.709,394.397 783.018,394.397 875.494,394.397 974.637,394.397 1089.51,394.397 1191.59,394.397 
  1281.1,394.397 1378.7,394.397 1476.87,394.397 1585.42,394.397 1688.7,394.397 1796.09,394.397 1886.48,394.397 1996.85,394.397 2100.59,394.397 2266.8,394.397 
  2292.38,394.397 
  "/>
<polyline clip-path="url(#clip852)" style="stroke:#3da44d; stroke-width:4; stroke-opacity:1; fill:none" points="
  811.418,394.397 811.418,86.1857 
  "/>
<circle clip-path="url(#clip852)" cx="811.418" cy="394.397" r="14" fill="#3da44d" fill-rule="evenodd" fill-opacity="1" stroke="#000000" stroke-opacity="1" stroke-width="0"/>
<circle clip-path="url(#clip852)" cx="811.418" cy="86.1857" r="14" fill="#3da44d" fill-rule="evenodd" fill-opacity="1" stroke="#000000" stroke-opacity="1" stroke-width="0"/>
<polyline clip-path="url(#clip852)" style="stroke:#c271d2; stroke-width:4; stroke-opacity:1; fill:none" points="
  811.418,1384.24 811.418,394.397 
  "/>
<circle clip-path="url(#clip852)" cx="811.418" cy="1384.24" r="14" fill="#c271d2" fill-rule="evenodd" fill-opacity="1" stroke="#000000" stroke-opacity="1" stroke-width="0"/>
<circle clip-path="url(#clip852)" cx="811.418" cy="394.397" r="14" fill="#c271d2" fill-rule="evenodd" fill-opacity="1" stroke="#000000" stroke-opacity="1" stroke-width="0"/>
<path clip-path="url(#clip850)" d="M 0 0 M871.807 273.234 L860.707 303.333 L882.947 303.333 L871.807 273.234 M867.189 265.173 L876.465 265.173 L899.515 325.653 L891.008 325.653 L885.499 310.138 L858.236 310.138 L852.727 325.653 L844.099 325.653 L867.189 265.173 Z" fill="#000000" fill-rule="evenodd" fill-opacity="1" /><path clip-path="url(#clip850)" d="M 0 0 M858.54 895.624 L858.54 917.782 L871.665 917.782 Q878.268 917.782 881.428 915.068 Q884.628 912.314 884.628 906.683 Q884.628 901.012 881.428 898.338 Q878.268 895.624 871.665 895.624 L858.54 895.624 M858.54 870.751 L858.54 888.98 L870.652 888.98 Q876.648 888.98 879.564 886.752 Q882.522 884.484 882.522 879.866 Q882.522 875.288 879.564 873.02 Q876.648 870.751 870.652 870.751 L858.54 870.751 M850.357 864.027 L871.26 864.027 Q880.618 864.027 885.681 867.916 Q890.745 871.805 890.745 878.975 Q890.745 884.524 888.152 887.806 Q885.56 891.087 880.537 891.897 Q886.572 893.193 889.894 897.325 Q893.256 901.417 893.256 907.574 Q893.256 915.676 887.747 920.091 Q882.238 924.507 872.07 924.507 L850.357 924.507 L850.357 864.027 Z" fill="#000000" fill-rule="evenodd" fill-opacity="1" /></svg>
