<?xml version="1.0" encoding="utf-8" standalone="no"?>
<!DOCTYPE svg PUBLIC "-//W3C//DTD SVG 1.1//EN"
  "http://www.w3.org/Graphics/SVG/1.1/DTD/svg11.dtd">
<!-- Created with matplotlib (https://matplotlib.org/) -->
<svg height="97.02pt" version="1.1" viewBox="0 0 448.92 97.02" width="448.92pt" xmlns="http://www.w3.org/2000/svg" xmlns:xlink="http://www.w3.org/1999/xlink">
 <metadata>
  <rdf:RDF xmlns:cc="http://creativecommons.org/ns#" xmlns:dc="http://purl.org/dc/elements/1.1/" xmlns:rdf="http://www.w3.org/1999/02/22-rdf-syntax-ns#">
   <cc:Work>
    <dc:type rdf:resource="http://purl.org/dc/dcmitype/StillImage"/>
    <dc:date>2021-05-12T16:44:26.567235</dc:date>
    <dc:format>image/svg+xml</dc:format>
    <dc:creator>
     <cc:Agent>
      <dc:title>Matplotlib v3.3.4, https://matplotlib.org/</dc:title>
     </cc:Agent>
    </dc:creator>
   </cc:Work>
  </rdf:RDF>
 </metadata>
 <defs>
  <style type="text/css">*{stroke-linecap:butt;stroke-linejoin:round;}</style>
 </defs>
 <g id="figure_1">
  <g id="patch_1">
   <path d="M 0 97.02 
L 448.92 97.02 
L 448.92 0 
L 0 0 
z
" style="fill:#ffffff;"/>
  </g>
  <g id="axes_1">
   <g id="patch_2">
    <path clip-path="url(#p7a8b69ef9f)" d="M 40.86 25.56 
L 34.74 27.855 
L 34.74 25.5753 
L 31.68 25.5753 
L 31.68 25.5447 
L 34.74 25.5447 
L 34.74 23.265 
z
" style="stroke:#000000;stroke-linejoin:miter;stroke-width:2;"/>
   </g>
   <g id="patch_3">
    <path clip-path="url(#p7a8b69ef9f)" d="M 56.16 40.86 
C 60.217607 40.86 64.109572 39.247895 66.978734 36.378734 
C 69.847895 33.509572 71.46 29.617607 71.46 25.56 
C 71.46 21.502393 69.847895 17.610428 66.978734 14.741266 
C 64.109572 11.872105 60.217607 10.26 56.16 10.26 
C 52.102393 10.26 48.210428 11.872105 45.341266 14.741266 
C 42.472105 17.610428 40.86 21.502393 40.86 25.56 
C 40.86 29.617607 42.472105 33.509572 45.341266 36.378734 
C 48.210428 39.247895 52.102393 40.86 56.16 40.86 
z
" style="fill:none;stroke:#000000;stroke-linejoin:miter;stroke-width:2;"/>
   </g>
   <g id="patch_4">
    <path clip-path="url(#p7a8b69ef9f)" d="M 102.06 25.56 
L 95.94 27.855 
L 95.94 25.5753 
L 92.88 25.5753 
L 92.88 25.5447 
L 95.94 25.5447 
L 95.94 23.265 
z
" style="stroke:#000000;stroke-linejoin:miter;stroke-width:2;"/>
   </g>
   <g id="patch_5">
    <path clip-path="url(#p7a8b69ef9f)" d="M 178.56 25.56 
L 172.44 27.855 
L 172.44 25.5753 
L 169.38 25.5753 
L 169.38 25.5447 
L 172.44 25.5447 
L 172.44 23.265 
z
" style="stroke:#000000;stroke-linejoin:miter;stroke-width:2;"/>
   </g>
   <g id="patch_6">
    <path clip-path="url(#p7a8b69ef9f)" d="M 255.06 25.56 
L 248.94 27.855 
L 248.94 25.5753 
L 245.88 25.5753 
L 245.88 25.5447 
L 248.94 25.5447 
L 248.94 23.265 
z
" style="stroke:#000000;stroke-linejoin:miter;stroke-width:2;"/>
   </g>
   <g id="patch_7">
    <path clip-path="url(#p7a8b69ef9f)" d="M 331.56 25.56 
L 325.44 27.855 
L 325.44 25.5753 
L 322.38 25.5753 
L 322.38 25.5447 
L 325.44 25.5447 
L 325.44 23.265 
z
" style="stroke:#000000;stroke-linejoin:miter;stroke-width:2;"/>
   </g>
   <g id="patch_8">
    <path clip-path="url(#p7a8b69ef9f)" d="M 438.66 25.56 
L 432.54 27.855 
L 432.54 25.5753 
L 429.48 25.5753 
L 429.48 25.5447 
L 432.54 25.5447 
L 432.54 23.265 
z
" style="stroke:#000000;stroke-linejoin:miter;stroke-width:2;"/>
   </g>
   <g id="patch_9">
    <path clip-path="url(#p7a8b69ef9f)" d="M 255.06 71.46 
L 261.18 69.165 
L 261.18 71.4447 
L 264.24 71.4447 
L 264.24 71.4753 
L 261.18 71.4753 
L 261.18 73.755 
z
" style="stroke:#000000;stroke-linejoin:miter;stroke-width:2;"/>
   </g>
   <g id="patch_10">
    <path clip-path="url(#p7a8b69ef9f)" d="M 56.16 40.86 
L 58.455 46.98 
L 56.1753 46.98 
L 56.1753 50.04 
L 56.1447 50.04 
L 56.1447 46.98 
L 53.865 46.98 
z
" style="stroke:#000000;stroke-linejoin:miter;stroke-width:2;"/>
   </g>
   <g id="line2d_1">
    <path clip-path="url(#p7a8b69ef9f)" d="M 10.26 25.56 
L 25.56 25.56 
L 40.86 25.56 
" style="fill:none;stroke:#000000;stroke-linecap:round;stroke-width:2;"/>
   </g>
   <g id="line2d_2">
    <path clip-path="url(#p7a8b69ef9f)" d="M 66.978734 14.741266 
L 45.341266 36.378734 
" style="fill:none;stroke:#000000;stroke-linecap:round;stroke-width:2;"/>
   </g>
   <g id="line2d_3">
    <path clip-path="url(#p7a8b69ef9f)" d="M 66.978734 36.378734 
L 45.341266 14.741266 
" style="fill:none;stroke:#000000;stroke-linecap:round;stroke-width:2;"/>
   </g>
   <g id="line2d_4">
    <path clip-path="url(#p7a8b69ef9f)" d="M 71.46 25.56 
L 86.76 25.56 
L 102.06 25.56 
" style="fill:none;stroke:#000000;stroke-linecap:round;stroke-width:2;"/>
   </g>
   <g id="line2d_5">
    <path clip-path="url(#p7a8b69ef9f)" d="M 125.01 10.26 
L 147.96 10.26 
L 147.96 40.86 
L 102.06 40.86 
L 102.06 10.26 
L 125.01 10.26 
" style="fill:none;stroke:#000000;stroke-linecap:round;stroke-width:2;"/>
   </g>
   <g id="line2d_6">
    <path clip-path="url(#p7a8b69ef9f)" d="M 147.96 25.56 
L 163.26 25.56 
L 178.56 25.56 
" style="fill:none;stroke:#000000;stroke-linecap:round;stroke-width:2;"/>
   </g>
   <g id="line2d_7">
    <path clip-path="url(#p7a8b69ef9f)" d="M 201.51 10.26 
L 224.46 10.26 
L 224.46 40.86 
L 178.56 40.86 
L 178.56 10.26 
L 201.51 10.26 
" style="fill:none;stroke:#000000;stroke-linecap:round;stroke-width:2;"/>
   </g>
   <g id="line2d_8">
    <path clip-path="url(#p7a8b69ef9f)" d="M 224.46 25.56 
L 239.76 25.56 
L 255.06 25.56 
" style="fill:none;stroke:#000000;stroke-linecap:round;stroke-width:2;"/>
   </g>
   <g id="line2d_9">
    <path clip-path="url(#p7a8b69ef9f)" d="M 278.01 10.26 
L 300.96 10.26 
L 300.96 40.86 
L 255.06 40.86 
L 255.06 10.26 
L 278.01 10.26 
" style="fill:none;stroke:#000000;stroke-linecap:round;stroke-width:2;"/>
   </g>
   <g id="line2d_10">
    <path clip-path="url(#p7a8b69ef9f)" d="M 300.96 25.56 
L 316.26 25.56 
L 331.56 25.56 
" style="fill:none;stroke:#000000;stroke-linecap:round;stroke-width:2;"/>
   </g>
   <g id="line2d_11">
    <path clip-path="url(#p7a8b69ef9f)" d="M 354.51 10.26 
L 377.46 10.26 
L 377.46 40.86 
L 331.56 40.86 
L 331.56 10.26 
L 354.51 10.26 
" style="fill:none;stroke:#000000;stroke-linecap:round;stroke-width:2;"/>
   </g>
   <g id="line2d_12">
    <path clip-path="url(#p7a8b69ef9f)" d="M 377.46 25.56 
L 392.76 25.56 
L 408.06 25.56 
" style="fill:none;stroke:#000000;stroke-linecap:round;stroke-width:2;"/>
   </g>
   <g id="line2d_13">
    <path clip-path="url(#p7a8b69ef9f)" d="M 408.06 25.56 
L 423.36 25.56 
L 438.66 25.56 
" style="fill:none;stroke:#000000;stroke-linecap:round;stroke-width:2;"/>
   </g>
   <g id="line2d_14">
    <path clip-path="url(#p7a8b69ef9f)" d="M 408.06 25.56 
L 408.06 48.51 
L 408.06 71.46 
" style="fill:none;stroke:#000000;stroke-linecap:round;stroke-width:2;"/>
   </g>
   <g id="line2d_15">
    <path clip-path="url(#p7a8b69ef9f)" d="M 408.06 71.46 
L 331.56 71.46 
L 255.06 71.46 
" style="fill:none;stroke:#000000;stroke-linecap:round;stroke-width:2;"/>
   </g>
   <g id="line2d_16">
    <path clip-path="url(#p7a8b69ef9f)" d="M 232.11 56.16 
L 255.06 56.16 
L 255.06 86.76 
L 209.16 86.76 
L 209.16 56.16 
L 232.11 56.16 
" style="fill:none;stroke:#000000;stroke-linecap:round;stroke-width:2;"/>
   </g>
   <g id="line2d_17">
    <path clip-path="url(#p7a8b69ef9f)" d="M 209.16 71.46 
L 132.66 71.46 
L 56.16 71.46 
" style="fill:none;stroke:#000000;stroke-linecap:round;stroke-width:2;"/>
   </g>
   <g id="line2d_18">
    <path clip-path="url(#p7a8b69ef9f)" d="M 56.16 71.46 
L 56.16 56.16 
L 56.16 40.86 
" style="fill:none;stroke:#000000;stroke-linecap:round;stroke-width:2;"/>
   </g>
   <g id="text_1">
    <!-- - -->
    <g transform="translate(54.356094 37.958375)scale(0.1 -0.1)">
     <defs>
      <path d="M 4.890625 31.390625 
L 31.203125 31.390625 
L 31.203125 23.390625 
L 4.890625 23.390625 
z
" id="DejaVuSans-45"/>
     </defs>
     <use xlink:href="#DejaVuSans-45"/>
    </g>
   </g>
   <g id="text_2">
    <!-- + -->
    <g transform="translate(42.790156 28.319375)scale(0.1 -0.1)">
     <defs>
      <path d="M 46 62.703125 
L 46 35.5 
L 73.1875 35.5 
L 73.1875 27.203125 
L 46 27.203125 
L 46 0 
L 37.796875 0 
L 37.796875 27.203125 
L 10.59375 27.203125 
L 10.59375 35.5 
L 37.796875 35.5 
L 37.796875 62.703125 
z
" id="DejaVuSans-43"/>
     </defs>
     <use xlink:href="#DejaVuSans-43"/>
    </g>
   </g>
   <g id="text_3">
    <!-- $K_c$ -->
    <g transform="translate(118.59 28.87125)scale(0.12 -0.12)">
     <defs>
      <path d="M 16.890625 72.90625 
L 26.8125 72.90625 
L 20.796875 42.1875 
L 59.078125 72.90625 
L 72.21875 72.90625 
L 28.90625 38.09375 
L 60.59375 0 
L 48.578125 0 
L 19.484375 35.5 
L 12.59375 0 
L 2.6875 0 
z
" id="DejaVuSans-Oblique-75"/>
      <path d="M 53.609375 52.59375 
L 51.8125 43.703125 
Q 48.578125 46.046875 44.9375 47.21875 
Q 41.3125 48.390625 37.40625 48.390625 
Q 33.109375 48.390625 29.21875 46.875 
Q 25.34375 45.359375 22.703125 42.578125 
Q 18.5 38.328125 16.203125 32.609375 
Q 13.921875 26.90625 13.921875 20.796875 
Q 13.921875 13.421875 17.609375 9.8125 
Q 21.296875 6.203125 28.8125 6.203125 
Q 32.515625 6.203125 36.6875 7.328125 
Q 40.875 8.453125 45.40625 10.6875 
L 43.703125 1.8125 
Q 39.796875 0.203125 35.671875 -0.609375 
Q 31.546875 -1.421875 27.203125 -1.421875 
Q 16.3125 -1.421875 10.453125 4.015625 
Q 4.59375 9.46875 4.59375 19.578125 
Q 4.59375 28.078125 7.640625 35.234375 
Q 10.6875 42.390625 16.703125 48.09375 
Q 20.796875 52 26.3125 54 
Q 31.84375 56 38.375 56 
Q 42.1875 56 45.9375 55.140625 
Q 49.703125 54.296875 53.609375 52.59375 
z
" id="DejaVuSans-Oblique-99"/>
     </defs>
     <use transform="translate(0 0.09375)" xlink:href="#DejaVuSans-Oblique-75"/>
     <use transform="translate(65.576172 -16.3125)scale(0.7)" xlink:href="#DejaVuSans-Oblique-99"/>
    </g>
   </g>
   <g id="text_4">
    <!-- $\frac{1}{s+1}$ -->
    <g transform="translate(190.71 28.86)scale(0.12 -0.12)">
     <defs>
      <path d="M 12.40625 8.296875 
L 28.515625 8.296875 
L 28.515625 63.921875 
L 10.984375 60.40625 
L 10.984375 69.390625 
L 28.421875 72.90625 
L 38.28125 72.90625 
L 38.28125 8.296875 
L 54.390625 8.296875 
L 54.390625 0 
L 12.40625 0 
z
" id="DejaVuSans-49"/>
      <path d="M 50 53.078125 
L 48.296875 44.578125 
Q 44.734375 46.53125 40.765625 47.5 
Q 36.8125 48.484375 32.625 48.484375 
Q 25.53125 48.484375 21.453125 46.0625 
Q 17.390625 43.65625 17.390625 39.5 
Q 17.390625 34.671875 26.859375 32.078125 
Q 27.59375 31.890625 27.9375 31.78125 
L 30.8125 30.90625 
Q 39.796875 28.421875 42.796875 25.6875 
Q 45.796875 22.953125 45.796875 18.21875 
Q 45.796875 9.515625 38.890625 4.046875 
Q 31.984375 -1.421875 20.796875 -1.421875 
Q 16.453125 -1.421875 11.671875 -0.578125 
Q 6.890625 0.25 1.125 2 
L 2.875 11.28125 
Q 7.8125 8.734375 12.59375 7.421875 
Q 17.390625 6.109375 21.78125 6.109375 
Q 28.375 6.109375 32.5 8.9375 
Q 36.625 11.765625 36.625 16.109375 
Q 36.625 20.796875 25.78125 23.6875 
L 24.859375 23.921875 
L 21.78125 24.703125 
Q 14.9375 26.515625 11.765625 29.46875 
Q 8.59375 32.421875 8.59375 37.015625 
Q 8.59375 45.75 15.15625 50.875 
Q 21.734375 56 33.015625 56 
Q 37.453125 56 41.671875 55.265625 
Q 45.90625 54.546875 50 53.078125 
z
" id="DejaVuSans-Oblique-115"/>
     </defs>
     <use transform="translate(61 43.965625)scale(0.7)" xlink:href="#DejaVuSans-49"/>
     <use transform="translate(0 -38.31875)scale(0.7)" xlink:href="#DejaVuSans-Oblique-115"/>
     <use transform="translate(50.107422 -38.31875)scale(0.7)" xlink:href="#DejaVuSans-43"/>
     <use transform="translate(122.397461 -38.31875)scale(0.7)" xlink:href="#DejaVuSans-49"/>
     <path d="M 0 18.965625 
L 0 25.215625 
L 166.933594 25.215625 
L 166.933594 18.965625 
L 0 18.965625 
z
"/>
    </g>
   </g>
   <g id="text_5">
    <!-- $\frac{1}{0.5s+1}$ -->
    <g transform="translate(260.55 28.8)scale(0.12 -0.12)">
     <defs>
      <path d="M 31.78125 66.40625 
Q 24.171875 66.40625 20.328125 58.90625 
Q 16.5 51.421875 16.5 36.375 
Q 16.5 21.390625 20.328125 13.890625 
Q 24.171875 6.390625 31.78125 6.390625 
Q 39.453125 6.390625 43.28125 13.890625 
Q 47.125 21.390625 47.125 36.375 
Q 47.125 51.421875 43.28125 58.90625 
Q 39.453125 66.40625 31.78125 66.40625 
z
M 31.78125 74.21875 
Q 44.046875 74.21875 50.515625 64.515625 
Q 56.984375 54.828125 56.984375 36.375 
Q 56.984375 17.96875 50.515625 8.265625 
Q 44.046875 -1.421875 31.78125 -1.421875 
Q 19.53125 -1.421875 13.0625 8.265625 
Q 6.59375 17.96875 6.59375 36.375 
Q 6.59375 54.828125 13.0625 64.515625 
Q 19.53125 74.21875 31.78125 74.21875 
z
" id="DejaVuSans-48"/>
      <path d="M 10.6875 12.40625 
L 21 12.40625 
L 21 0 
L 10.6875 0 
z
" id="DejaVuSans-46"/>
      <path d="M 10.796875 72.90625 
L 49.515625 72.90625 
L 49.515625 64.59375 
L 19.828125 64.59375 
L 19.828125 46.734375 
Q 21.96875 47.46875 24.109375 47.828125 
Q 26.265625 48.1875 28.421875 48.1875 
Q 40.625 48.1875 47.75 41.5 
Q 54.890625 34.8125 54.890625 23.390625 
Q 54.890625 11.625 47.5625 5.09375 
Q 40.234375 -1.421875 26.90625 -1.421875 
Q 22.3125 -1.421875 17.546875 -0.640625 
Q 12.796875 0.140625 7.71875 1.703125 
L 7.71875 11.625 
Q 12.109375 9.234375 16.796875 8.0625 
Q 21.484375 6.890625 26.703125 6.890625 
Q 35.15625 6.890625 40.078125 11.328125 
Q 45.015625 15.765625 45.015625 23.390625 
Q 45.015625 31 40.078125 35.4375 
Q 35.15625 39.890625 26.703125 39.890625 
Q 22.75 39.890625 18.8125 39.015625 
Q 14.890625 38.140625 10.796875 36.28125 
z
" id="DejaVuSans-53"/>
     </defs>
     <use transform="translate(117 43.965625)scale(0.7)" xlink:href="#DejaVuSans-49"/>
     <use transform="translate(0 -39.2375)scale(0.7)" xlink:href="#DejaVuSans-48"/>
     <use transform="translate(44.536133 -39.2375)scale(0.7)" xlink:href="#DejaVuSans-46"/>
     <use transform="translate(66.787109 -39.2375)scale(0.7)" xlink:href="#DejaVuSans-53"/>
     <use transform="translate(111.323242 -39.2375)scale(0.7)" xlink:href="#DejaVuSans-Oblique-115"/>
     <use transform="translate(161.430664 -39.2375)scale(0.7)" xlink:href="#DejaVuSans-43"/>
     <use transform="translate(233.720703 -39.2375)scale(0.7)" xlink:href="#DejaVuSans-49"/>
     <path d="M 0 18.965625 
L 0 25.215625 
L 278.256836 25.215625 
L 278.256836 18.965625 
L 0 18.965625 
z
"/>
    </g>
   </g>
   <g id="text_6">
    <!-- $\frac{1}{0.25s+1}$ -->
    <g transform="translate(334.59 28.8)scale(0.12 -0.12)">
     <defs>
      <path d="M 19.1875 8.296875 
L 53.609375 8.296875 
L 53.609375 0 
L 7.328125 0 
L 7.328125 8.296875 
Q 12.9375 14.109375 22.625 23.890625 
Q 32.328125 33.6875 34.8125 36.53125 
Q 39.546875 41.84375 41.421875 45.53125 
Q 43.3125 49.21875 43.3125 52.78125 
Q 43.3125 58.59375 39.234375 62.25 
Q 35.15625 65.921875 28.609375 65.921875 
Q 23.96875 65.921875 18.8125 64.3125 
Q 13.671875 62.703125 7.8125 59.421875 
L 7.8125 69.390625 
Q 13.765625 71.78125 18.9375 73 
Q 24.125 74.21875 28.421875 74.21875 
Q 39.75 74.21875 46.484375 68.546875 
Q 53.21875 62.890625 53.21875 53.421875 
Q 53.21875 48.921875 51.53125 44.890625 
Q 49.859375 40.875 45.40625 35.40625 
Q 44.1875 33.984375 37.640625 27.21875 
Q 31.109375 20.453125 19.1875 8.296875 
z
" id="DejaVuSans-50"/>
     </defs>
     <use transform="translate(137 43.965625)scale(0.7)" xlink:href="#DejaVuSans-49"/>
     <use transform="translate(0 -39.2375)scale(0.7)" xlink:href="#DejaVuSans-48"/>
     <use transform="translate(44.536133 -39.2375)scale(0.7)" xlink:href="#DejaVuSans-46"/>
     <use transform="translate(62.937109 -39.2375)scale(0.7)" xlink:href="#DejaVuSans-50"/>
     <use transform="translate(107.473242 -39.2375)scale(0.7)" xlink:href="#DejaVuSans-53"/>
     <use transform="translate(152.009375 -39.2375)scale(0.7)" xlink:href="#DejaVuSans-Oblique-115"/>
     <use transform="translate(202.116797 -39.2375)scale(0.7)" xlink:href="#DejaVuSans-43"/>
     <use transform="translate(274.406836 -39.2375)scale(0.7)" xlink:href="#DejaVuSans-49"/>
     <path d="M 0 18.965625 
L 0 25.215625 
L 318.942969 25.215625 
L 318.942969 18.965625 
L 0 18.965625 
z
"/>
    </g>
   </g>
   <g id="text_7">
    <!-- $H$ -->
    <g transform="translate(227.55 74.77125)scale(0.12 -0.12)">
     <defs>
      <path d="M 16.890625 72.90625 
L 26.8125 72.90625 
L 21 43.015625 
L 56.78125 43.015625 
L 62.59375 72.90625 
L 72.515625 72.90625 
L 58.296875 0 
L 48.390625 0 
L 55.171875 34.71875 
L 19.390625 34.71875 
L 12.59375 0 
L 2.6875 0 
z
" id="DejaVuSans-Oblique-72"/>
     </defs>
     <use transform="translate(0 0.09375)" xlink:href="#DejaVuSans-Oblique-72"/>
    </g>
   </g>
   <g id="patch_11">
    <path clip-path="url(#p7a8b69ef9f)" d="M 408.06 25.56 
C 408.06 25.56 408.06 25.56 408.06 25.56 
C 408.06 25.56 408.06 25.56 408.06 25.56 
C 408.06 25.56 408.06 25.56 408.06 25.56 
C 408.06 25.56 408.06 25.56 408.06 25.56 
C 408.06 25.56 408.06 25.56 408.06 25.56 
C 408.06 25.56 408.06 25.56 408.06 25.56 
C 408.06 25.56 408.06 25.56 408.06 25.56 
C 408.06 25.56 408.06 25.56 408.06 25.56 
z
" style="stroke:#000000;stroke-linejoin:miter;stroke-width:2;"/>
   </g>
  </g>
 </g>
 <defs>
  <clipPath id="p7a8b69ef9f">
   <rect height="82.62" width="434.52" x="7.2" y="7.2"/>
  </clipPath>
 </defs>
</svg>
