<?xml version="1.0" encoding="utf-8" standalone="no"?>
<!DOCTYPE svg PUBLIC "-//W3C//DTD SVG 1.1//EN"
  "http://www.w3.org/Graphics/SVG/1.1/DTD/svg11.dtd">
<!-- Created with matplotlib (https://matplotlib.org/) -->
<svg height="204.12pt" version="1.1" viewBox="0 0 539.1288 204.12" width="539.1288pt" xmlns="http://www.w3.org/2000/svg" xmlns:xlink="http://www.w3.org/1999/xlink">
 <metadata>
  <rdf:RDF xmlns:cc="http://creativecommons.org/ns#" xmlns:dc="http://purl.org/dc/elements/1.1/" xmlns:rdf="http://www.w3.org/1999/02/22-rdf-syntax-ns#">
   <cc:Work>
    <dc:type rdf:resource="http://purl.org/dc/dcmitype/StillImage"/>
    <dc:date>2021-04-21T19:18:22.509237</dc:date>
    <dc:format>image/svg+xml</dc:format>
    <dc:creator>
     <cc:Agent>
      <dc:title>Matplotlib v3.3.4, https://matplotlib.org/</dc:title>
     </cc:Agent>
    </dc:creator>
   </cc:Work>
  </rdf:RDF>
 </metadata>
 <defs>
  <style type="text/css">*{stroke-linecap:butt;stroke-linejoin:round;}</style>
 </defs>
 <g id="figure_1">
  <g id="patch_1">
   <path d="M 0 204.12 
L 539.1288 204.12 
L 539.1288 0 
L 0 0 
z
" style="fill:none;"/>
  </g>
  <g id="axes_1">
   <g id="patch_2">
    <path clip-path="url(#pc9e7fadca3)" d="M 53.8344 86.76 
L 47.7144 89.055 
L 47.7144 86.7753 
L 44.6544 86.7753 
L 44.6544 86.7447 
L 47.7144 86.7447 
L 47.7144 84.465 
z
" style="stroke:#000000;stroke-linejoin:miter;stroke-width:2;"/>
   </g>
   <g id="patch_3">
    <path clip-path="url(#pc9e7fadca3)" d="M 69.1344 102.06 
C 73.192007 102.06 77.083972 100.447895 79.953134 97.578734 
C 82.822295 94.709572 84.4344 90.817607 84.4344 86.76 
C 84.4344 82.702393 82.822295 78.810428 79.953134 75.941266 
C 77.083972 73.072105 73.192007 71.46 69.1344 71.46 
C 65.076793 71.46 61.184828 73.072105 58.315666 75.941266 
C 55.446505 78.810428 53.8344 82.702393 53.8344 86.76 
C 53.8344 90.817607 55.446505 94.709572 58.315666 97.578734 
C 61.184828 100.447895 65.076793 102.06 69.1344 102.06 
z
" style="fill:none;stroke:#000000;stroke-linejoin:miter;stroke-width:2;"/>
   </g>
   <g id="patch_4">
    <path clip-path="url(#pc9e7fadca3)" d="M 115.0344 86.76 
L 108.9144 89.055 
L 108.9144 86.7753 
L 105.8544 86.7753 
L 105.8544 86.7447 
L 108.9144 86.7447 
L 108.9144 84.465 
z
" style="stroke:#000000;stroke-linejoin:miter;stroke-width:2;"/>
   </g>
   <g id="patch_5">
    <path clip-path="url(#pc9e7fadca3)" d="M 130.3344 102.06 
C 134.392007 102.06 138.283972 100.447895 141.153134 97.578734 
C 144.022295 94.709572 145.6344 90.817607 145.6344 86.76 
C 145.6344 82.702393 144.022295 78.810428 141.153134 75.941266 
C 138.283972 73.072105 134.392007 71.46 130.3344 71.46 
C 126.276793 71.46 122.384828 73.072105 119.515666 75.941266 
C 116.646505 78.810428 115.0344 82.702393 115.0344 86.76 
C 115.0344 90.817607 116.646505 94.709572 119.515666 97.578734 
C 122.384828 100.447895 126.276793 102.06 130.3344 102.06 
z
" style="fill:none;stroke:#000000;stroke-linejoin:miter;stroke-width:2;"/>
   </g>
   <g id="patch_6">
    <path clip-path="url(#pc9e7fadca3)" d="M 176.2344 86.76 
L 170.1144 89.055 
L 170.1144 86.7753 
L 167.0544 86.7753 
L 167.0544 86.7447 
L 170.1144 86.7447 
L 170.1144 84.465 
z
" style="stroke:#000000;stroke-linejoin:miter;stroke-width:2;"/>
   </g>
   <g id="patch_7">
    <path clip-path="url(#pc9e7fadca3)" d="M 237.4344 86.76 
L 231.3144 89.055 
L 231.3144 86.7753 
L 228.2544 86.7753 
L 228.2544 86.7447 
L 231.3144 86.7447 
L 231.3144 84.465 
z
" style="stroke:#000000;stroke-linejoin:miter;stroke-width:2;"/>
   </g>
   <g id="patch_8">
    <path clip-path="url(#pc9e7fadca3)" d="M 237.4344 132.66 
L 243.5544 130.365 
L 243.5544 132.6447 
L 246.6144 132.6447 
L 246.6144 132.6753 
L 243.5544 132.6753 
L 243.5544 134.955 
z
" style="stroke:#000000;stroke-linejoin:miter;stroke-width:2;"/>
   </g>
   <g id="patch_9">
    <path clip-path="url(#pc9e7fadca3)" d="M 130.3344 102.06 
L 132.6294 108.18 
L 130.3497 108.18 
L 130.3497 111.24 
L 130.3191 111.24 
L 130.3191 108.18 
L 128.0394 108.18 
z
" style="stroke:#000000;stroke-linejoin:miter;stroke-width:2;"/>
   </g>
   <g id="patch_10">
    <path clip-path="url(#pc9e7fadca3)" d="M 359.8344 86.76 
L 353.7144 89.055 
L 353.7144 86.7753 
L 350.6544 86.7753 
L 350.6544 86.7447 
L 353.7144 86.7447 
L 353.7144 84.465 
z
" style="stroke:#000000;stroke-linejoin:miter;stroke-width:2;"/>
   </g>
   <g id="patch_11">
    <path clip-path="url(#pc9e7fadca3)" d="M 421.0344 86.76 
L 414.9144 89.055 
L 414.9144 86.7753 
L 411.8544 86.7753 
L 411.8544 86.7447 
L 414.9144 86.7447 
L 414.9144 84.465 
z
" style="stroke:#000000;stroke-linejoin:miter;stroke-width:2;"/>
   </g>
   <g id="patch_12">
    <path clip-path="url(#pc9e7fadca3)" d="M 436.3344 102.06 
C 440.392007 102.06 444.283972 100.447895 447.153134 97.578734 
C 450.022295 94.709572 451.6344 90.817607 451.6344 86.76 
C 451.6344 82.702393 450.022295 78.810428 447.153134 75.941266 
C 444.283972 73.072105 440.392007 71.46 436.3344 71.46 
C 432.276793 71.46 428.384828 73.072105 425.515666 75.941266 
C 422.646505 78.810428 421.0344 82.702393 421.0344 86.76 
C 421.0344 90.817607 422.646505 94.709572 425.515666 97.578734 
C 428.384828 100.447895 432.276793 102.06 436.3344 102.06 
z
" style="fill:none;stroke:#000000;stroke-linejoin:miter;stroke-width:2;"/>
   </g>
   <g id="patch_13">
    <path clip-path="url(#pc9e7fadca3)" d="M 512.8344 86.76 
L 506.7144 89.055 
L 506.7144 86.7753 
L 503.6544 86.7753 
L 503.6544 86.7447 
L 506.7144 86.7447 
L 506.7144 84.465 
z
" style="stroke:#000000;stroke-linejoin:miter;stroke-width:2;"/>
   </g>
   <g id="patch_14">
    <path clip-path="url(#pc9e7fadca3)" d="M 359.8344 25.56 
L 353.7144 27.855 
L 353.7144 25.5753 
L 350.6544 25.5753 
L 350.6544 25.5447 
L 353.7144 25.5447 
L 353.7144 23.265 
z
" style="stroke:#000000;stroke-linejoin:miter;stroke-width:2;"/>
   </g>
   <g id="patch_15">
    <path clip-path="url(#pc9e7fadca3)" d="M 436.3344 71.46 
L 434.0394 65.34 
L 436.3191 65.34 
L 436.3191 62.28 
L 436.3497 62.28 
L 436.3497 65.34 
L 438.6294 65.34 
z
" style="stroke:#000000;stroke-linejoin:miter;stroke-width:2;"/>
   </g>
   <g id="patch_16">
    <path clip-path="url(#pc9e7fadca3)" d="M 298.6344 178.56 
L 304.7544 176.265 
L 304.7544 178.5447 
L 307.8144 178.5447 
L 307.8144 178.5753 
L 304.7544 178.5753 
L 304.7544 180.855 
z
" style="stroke:#000000;stroke-linejoin:miter;stroke-width:2;"/>
   </g>
   <g id="patch_17">
    <path clip-path="url(#pc9e7fadca3)" d="M 69.1344 102.06 
L 71.4294 108.18 
L 69.1497 108.18 
L 69.1497 111.24 
L 69.1191 111.24 
L 69.1191 108.18 
L 66.8394 108.18 
z
" style="stroke:#000000;stroke-linejoin:miter;stroke-width:2;"/>
   </g>
   <g id="line2d_1">
    <path clip-path="url(#pc9e7fadca3)" d="M 23.2344 86.76 
L 38.5344 86.76 
L 53.8344 86.76 
" style="fill:none;stroke:#000000;stroke-linecap:round;stroke-width:2;"/>
   </g>
   <g id="line2d_2">
    <path clip-path="url(#pc9e7fadca3)" d="M 79.953134 75.941266 
L 58.315666 97.578734 
" style="fill:none;stroke:#000000;stroke-linecap:round;stroke-width:2;"/>
   </g>
   <g id="line2d_3">
    <path clip-path="url(#pc9e7fadca3)" d="M 79.953134 97.578734 
L 58.315666 75.941266 
" style="fill:none;stroke:#000000;stroke-linecap:round;stroke-width:2;"/>
   </g>
   <g id="line2d_4">
    <path clip-path="url(#pc9e7fadca3)" d="M 84.4344 86.76 
L 99.7344 86.76 
L 115.0344 86.76 
" style="fill:none;stroke:#000000;stroke-linecap:round;stroke-width:2;"/>
   </g>
   <g id="line2d_5">
    <path clip-path="url(#pc9e7fadca3)" d="M 141.153134 75.941266 
L 119.515666 97.578734 
" style="fill:none;stroke:#000000;stroke-linecap:round;stroke-width:2;"/>
   </g>
   <g id="line2d_6">
    <path clip-path="url(#pc9e7fadca3)" d="M 141.153134 97.578734 
L 119.515666 75.941266 
" style="fill:none;stroke:#000000;stroke-linecap:round;stroke-width:2;"/>
   </g>
   <g id="line2d_7">
    <path clip-path="url(#pc9e7fadca3)" d="M 145.6344 86.76 
L 160.9344 86.76 
L 176.2344 86.76 
" style="fill:none;stroke:#000000;stroke-linecap:round;stroke-width:2;"/>
   </g>
   <g id="line2d_8">
    <path clip-path="url(#pc9e7fadca3)" d="M 191.5344 71.46 
L 206.8344 71.46 
L 206.8344 102.06 
L 176.2344 102.06 
L 176.2344 71.46 
L 191.5344 71.46 
" style="fill:none;stroke:#000000;stroke-linecap:round;stroke-width:2;"/>
   </g>
   <g id="line2d_9">
    <path clip-path="url(#pc9e7fadca3)" d="M 206.8344 86.76 
L 222.1344 86.76 
L 237.4344 86.76 
" style="fill:none;stroke:#000000;stroke-linecap:round;stroke-width:2;"/>
   </g>
   <g id="line2d_10">
    <path clip-path="url(#pc9e7fadca3)" d="M 252.7344 71.46 
L 268.0344 71.46 
L 268.0344 102.06 
L 237.4344 102.06 
L 237.4344 71.46 
L 252.7344 71.46 
" style="fill:none;stroke:#000000;stroke-linecap:round;stroke-width:2;"/>
   </g>
   <g id="line2d_11">
    <path clip-path="url(#pc9e7fadca3)" d="M 268.0344 86.76 
L 283.3344 86.76 
L 298.6344 86.76 
" style="fill:none;stroke:#000000;stroke-linecap:round;stroke-width:2;"/>
   </g>
   <g id="line2d_12">
    <path clip-path="url(#pc9e7fadca3)" d="M 298.6344 86.76 
L 298.6344 109.71 
L 298.6344 132.66 
" style="fill:none;stroke:#000000;stroke-linecap:round;stroke-width:2;"/>
   </g>
   <g id="line2d_13">
    <path clip-path="url(#pc9e7fadca3)" d="M 298.6344 132.66 
L 268.0344 132.66 
L 237.4344 132.66 
" style="fill:none;stroke:#000000;stroke-linecap:round;stroke-width:2;"/>
   </g>
   <g id="line2d_14">
    <path clip-path="url(#pc9e7fadca3)" d="M 222.1344 117.36 
L 237.4344 117.36 
L 237.4344 147.96 
L 206.8344 147.96 
L 206.8344 117.36 
L 222.1344 117.36 
" style="fill:none;stroke:#000000;stroke-linecap:round;stroke-width:2;"/>
   </g>
   <g id="line2d_15">
    <path clip-path="url(#pc9e7fadca3)" d="M 206.8344 132.66 
L 168.5844 132.66 
L 130.3344 132.66 
" style="fill:none;stroke:#000000;stroke-linecap:round;stroke-width:2;"/>
   </g>
   <g id="line2d_16">
    <path clip-path="url(#pc9e7fadca3)" d="M 130.3344 132.66 
L 130.3344 117.36 
L 130.3344 102.06 
" style="fill:none;stroke:#000000;stroke-linecap:round;stroke-width:2;"/>
   </g>
   <g id="line2d_17">
    <path clip-path="url(#pc9e7fadca3)" d="M 298.6344 86.76 
L 313.9344 86.76 
L 329.2344 86.76 
" style="fill:none;stroke:#000000;stroke-linecap:round;stroke-width:2;"/>
   </g>
   <g id="line2d_18">
    <path clip-path="url(#pc9e7fadca3)" d="M 329.2344 86.76 
L 344.5344 86.76 
L 359.8344 86.76 
" style="fill:none;stroke:#000000;stroke-linecap:round;stroke-width:2;"/>
   </g>
   <g id="line2d_19">
    <path clip-path="url(#pc9e7fadca3)" d="M 375.1344 71.46 
L 390.4344 71.46 
L 390.4344 102.06 
L 359.8344 102.06 
L 359.8344 71.46 
L 375.1344 71.46 
" style="fill:none;stroke:#000000;stroke-linecap:round;stroke-width:2;"/>
   </g>
   <g id="line2d_20">
    <path clip-path="url(#pc9e7fadca3)" d="M 390.4344 86.76 
L 405.7344 86.76 
L 421.0344 86.76 
" style="fill:none;stroke:#000000;stroke-linecap:round;stroke-width:2;"/>
   </g>
   <g id="line2d_21">
    <path clip-path="url(#pc9e7fadca3)" d="M 447.153134 75.941266 
L 425.515666 97.578734 
" style="fill:none;stroke:#000000;stroke-linecap:round;stroke-width:2;"/>
   </g>
   <g id="line2d_22">
    <path clip-path="url(#pc9e7fadca3)" d="M 447.153134 97.578734 
L 425.515666 75.941266 
" style="fill:none;stroke:#000000;stroke-linecap:round;stroke-width:2;"/>
   </g>
   <g id="line2d_23">
    <path clip-path="url(#pc9e7fadca3)" d="M 451.6344 86.76 
L 466.9344 86.76 
L 482.2344 86.76 
" style="fill:none;stroke:#000000;stroke-linecap:round;stroke-width:2;"/>
   </g>
   <g id="line2d_24">
    <path clip-path="url(#pc9e7fadca3)" d="M 482.2344 86.76 
L 497.5344 86.76 
L 512.8344 86.76 
" style="fill:none;stroke:#000000;stroke-linecap:round;stroke-width:2;"/>
   </g>
   <g id="line2d_25">
    <path clip-path="url(#pc9e7fadca3)" d="M 329.2344 86.76 
L 329.2344 56.16 
L 329.2344 25.56 
" style="fill:none;stroke:#000000;stroke-linecap:round;stroke-width:2;"/>
   </g>
   <g id="line2d_26">
    <path clip-path="url(#pc9e7fadca3)" d="M 329.2344 25.56 
L 344.5344 25.56 
L 359.8344 25.56 
" style="fill:none;stroke:#000000;stroke-linecap:round;stroke-width:2;"/>
   </g>
   <g id="line2d_27">
    <path clip-path="url(#pc9e7fadca3)" d="M 375.1344 10.26 
L 390.4344 10.26 
L 390.4344 40.86 
L 359.8344 40.86 
L 359.8344 10.26 
L 375.1344 10.26 
" style="fill:none;stroke:#000000;stroke-linecap:round;stroke-width:2;"/>
   </g>
   <g id="line2d_28">
    <path clip-path="url(#pc9e7fadca3)" d="M 390.4344 25.56 
L 413.3844 25.56 
L 436.3344 25.56 
" style="fill:none;stroke:#000000;stroke-linecap:round;stroke-width:2;"/>
   </g>
   <g id="line2d_29">
    <path clip-path="url(#pc9e7fadca3)" d="M 436.3344 25.56 
L 436.3344 48.51 
L 436.3344 71.46 
" style="fill:none;stroke:#000000;stroke-linecap:round;stroke-width:2;"/>
   </g>
   <g id="line2d_30">
    <path clip-path="url(#pc9e7fadca3)" d="M 482.2344 86.76 
L 482.2344 132.66 
L 482.2344 178.56 
" style="fill:none;stroke:#000000;stroke-linecap:round;stroke-width:2;"/>
   </g>
   <g id="line2d_31">
    <path clip-path="url(#pc9e7fadca3)" d="M 482.2344 178.56 
L 390.4344 178.56 
L 298.6344 178.56 
" style="fill:none;stroke:#000000;stroke-linecap:round;stroke-width:2;"/>
   </g>
   <g id="line2d_32">
    <path clip-path="url(#pc9e7fadca3)" d="M 283.3344 163.26 
L 298.6344 163.26 
L 298.6344 193.86 
L 268.0344 193.86 
L 268.0344 163.26 
L 283.3344 163.26 
" style="fill:none;stroke:#000000;stroke-linecap:round;stroke-width:2;"/>
   </g>
   <g id="line2d_33">
    <path clip-path="url(#pc9e7fadca3)" d="M 268.0344 178.56 
L 168.5844 178.56 
L 69.1344 178.56 
" style="fill:none;stroke:#000000;stroke-linecap:round;stroke-width:2;"/>
   </g>
   <g id="line2d_34">
    <path clip-path="url(#pc9e7fadca3)" d="M 69.1344 178.56 
L 69.1344 140.31 
L 69.1344 102.06 
" style="fill:none;stroke:#000000;stroke-linecap:round;stroke-width:2;"/>
   </g>
   <g id="text_1">
    <!-- $R$ -->
    <g transform="translate(11.7744 90.07125)scale(0.12 -0.12)">
     <defs>
      <path d="M 25.203125 64.796875 
L 20.21875 38.921875 
L 32.90625 38.921875 
Q 40.375 38.921875 44.984375 43.046875 
Q 49.609375 47.171875 49.609375 53.8125 
Q 49.609375 59.125 46.5 61.953125 
Q 43.40625 64.796875 37.59375 64.796875 
z
M 43.3125 35.015625 
Q 46.4375 34.28125 48.515625 31.390625 
Q 50.59375 28.515625 53.328125 19.921875 
L 59.515625 0 
L 49.125 0 
L 43.40625 18.703125 
Q 41.21875 25.921875 38.328125 28.359375 
Q 35.453125 30.8125 29.5 30.8125 
L 18.609375 30.8125 
L 12.59375 0 
L 2.6875 0 
L 16.890625 72.90625 
L 39.109375 72.90625 
Q 49.21875 72.90625 54.609375 68.328125 
Q 60.015625 63.765625 60.015625 55.171875 
Q 60.015625 47.5625 55.421875 41.984375 
Q 50.828125 36.421875 43.3125 35.015625 
z
" id="DejaVuSans-Oblique-82"/>
     </defs>
     <use transform="translate(0 0.09375)" xlink:href="#DejaVuSans-Oblique-82"/>
    </g>
   </g>
   <g id="text_2">
    <!-- - -->
    <g transform="translate(67.330494 99.158375)scale(0.1 -0.1)">
     <defs>
      <path d="M 4.890625 31.390625 
L 31.203125 31.390625 
L 31.203125 23.390625 
L 4.890625 23.390625 
z
" id="DejaVuSans-45"/>
     </defs>
     <use xlink:href="#DejaVuSans-45"/>
    </g>
   </g>
   <g id="text_3">
    <!-- + -->
    <g transform="translate(55.764556 89.519375)scale(0.1 -0.1)">
     <defs>
      <path d="M 46 62.703125 
L 46 35.5 
L 73.1875 35.5 
L 73.1875 27.203125 
L 46 27.203125 
L 46 0 
L 37.796875 0 
L 37.796875 27.203125 
L 10.59375 27.203125 
L 10.59375 35.5 
L 37.796875 35.5 
L 37.796875 62.703125 
z
" id="DejaVuSans-43"/>
     </defs>
     <use xlink:href="#DejaVuSans-43"/>
    </g>
   </g>
   <g id="text_4">
    <!-- + -->
    <g transform="translate(126.144556 99.158375)scale(0.1 -0.1)">
     <use xlink:href="#DejaVuSans-43"/>
    </g>
   </g>
   <g id="text_5">
    <!-- + -->
    <g transform="translate(116.964556 89.519375)scale(0.1 -0.1)">
     <use xlink:href="#DejaVuSans-43"/>
    </g>
   </g>
   <g id="text_6">
    <!-- $G_1$ -->
    <g transform="translate(184.0344 90.07125)scale(0.12 -0.12)">
     <defs>
      <path d="M 54.59375 10.890625 
L 58.40625 29.984375 
L 42.1875 29.984375 
L 43.703125 38.09375 
L 69.578125 38.09375 
L 63.28125 6 
Q 56.78125 2.4375 49.109375 0.5 
Q 41.453125 -1.421875 33.6875 -1.421875 
Q 19.96875 -1.421875 12.234375 6.1875 
Q 4.5 13.8125 4.5 27.390625 
Q 4.5 38.671875 9.203125 48.84375 
Q 13.921875 59.03125 22.21875 65.828125 
Q 27.4375 70.0625 33.640625 72.140625 
Q 39.84375 74.21875 47.40625 74.21875 
Q 54.25 74.21875 60.515625 72.484375 
Q 66.796875 70.75 72.515625 67.28125 
L 70.515625 56.78125 
Q 66.109375 61.375 60.203125 63.796875 
Q 54.296875 66.21875 47.609375 66.21875 
Q 39.84375 66.21875 33.9375 63.25 
Q 28.03125 60.296875 23.390625 54.109375 
Q 19.4375 48.828125 17.15625 41.671875 
Q 14.890625 34.515625 14.890625 27.09375 
Q 14.890625 16.890625 20.109375 11.734375 
Q 25.34375 6.59375 35.6875 6.59375 
Q 40.875 6.59375 45.703125 7.6875 
Q 50.53125 8.796875 54.59375 10.890625 
z
" id="DejaVuSans-Oblique-71"/>
      <path d="M 12.40625 8.296875 
L 28.515625 8.296875 
L 28.515625 63.921875 
L 10.984375 60.40625 
L 10.984375 69.390625 
L 28.421875 72.90625 
L 38.28125 72.90625 
L 38.28125 8.296875 
L 54.390625 8.296875 
L 54.390625 0 
L 12.40625 0 
z
" id="DejaVuSans-49"/>
     </defs>
     <use transform="translate(0 0.78125)" xlink:href="#DejaVuSans-Oblique-71"/>
     <use transform="translate(77.490234 -15.625)scale(0.7)" xlink:href="#DejaVuSans-49"/>
    </g>
   </g>
   <g id="text_7">
    <!-- $G_2$ -->
    <g transform="translate(245.2344 90.07125)scale(0.12 -0.12)">
     <defs>
      <path d="M 19.1875 8.296875 
L 53.609375 8.296875 
L 53.609375 0 
L 7.328125 0 
L 7.328125 8.296875 
Q 12.9375 14.109375 22.625 23.890625 
Q 32.328125 33.6875 34.8125 36.53125 
Q 39.546875 41.84375 41.421875 45.53125 
Q 43.3125 49.21875 43.3125 52.78125 
Q 43.3125 58.59375 39.234375 62.25 
Q 35.15625 65.921875 28.609375 65.921875 
Q 23.96875 65.921875 18.8125 64.3125 
Q 13.671875 62.703125 7.8125 59.421875 
L 7.8125 69.390625 
Q 13.765625 71.78125 18.9375 73 
Q 24.125 74.21875 28.421875 74.21875 
Q 39.75 74.21875 46.484375 68.546875 
Q 53.21875 62.890625 53.21875 53.421875 
Q 53.21875 48.921875 51.53125 44.890625 
Q 49.859375 40.875 45.40625 35.40625 
Q 44.1875 33.984375 37.640625 27.21875 
Q 31.109375 20.453125 19.1875 8.296875 
z
" id="DejaVuSans-50"/>
     </defs>
     <use transform="translate(0 0.78125)" xlink:href="#DejaVuSans-Oblique-71"/>
     <use transform="translate(77.490234 -15.625)scale(0.7)" xlink:href="#DejaVuSans-50"/>
    </g>
   </g>
   <g id="text_8">
    <!-- $H_1$ -->
    <g transform="translate(214.7544 135.97125)scale(0.12 -0.12)">
     <defs>
      <path d="M 16.890625 72.90625 
L 26.8125 72.90625 
L 21 43.015625 
L 56.78125 43.015625 
L 62.59375 72.90625 
L 72.515625 72.90625 
L 58.296875 0 
L 48.390625 0 
L 55.171875 34.71875 
L 19.390625 34.71875 
L 12.59375 0 
L 2.6875 0 
z
" id="DejaVuSans-Oblique-72"/>
     </defs>
     <use transform="translate(0 0.09375)" xlink:href="#DejaVuSans-Oblique-72"/>
     <use transform="translate(75.195312 -16.3125)scale(0.7)" xlink:href="#DejaVuSans-49"/>
    </g>
   </g>
   <g id="text_9">
    <!-- $G_4$ -->
    <g transform="translate(367.6344 90.07125)scale(0.12 -0.12)">
     <defs>
      <path d="M 37.796875 64.3125 
L 12.890625 25.390625 
L 37.796875 25.390625 
z
M 35.203125 72.90625 
L 47.609375 72.90625 
L 47.609375 25.390625 
L 58.015625 25.390625 
L 58.015625 17.1875 
L 47.609375 17.1875 
L 47.609375 0 
L 37.796875 0 
L 37.796875 17.1875 
L 4.890625 17.1875 
L 4.890625 26.703125 
z
" id="DejaVuSans-52"/>
     </defs>
     <use transform="translate(0 0.78125)" xlink:href="#DejaVuSans-Oblique-71"/>
     <use transform="translate(77.490234 -15.625)scale(0.7)" xlink:href="#DejaVuSans-52"/>
    </g>
   </g>
   <g id="text_10">
    <!-- + -->
    <g transform="translate(432.144556 79.880375)scale(0.1 -0.1)">
     <use xlink:href="#DejaVuSans-43"/>
    </g>
   </g>
   <g id="text_11">
    <!-- + -->
    <g transform="translate(422.964556 89.519375)scale(0.1 -0.1)">
     <use xlink:href="#DejaVuSans-43"/>
    </g>
   </g>
   <g id="text_12">
    <!-- C -->
    <g transform="translate(515.8944 90.07125)scale(0.12 -0.12)">
     <defs>
      <path d="M 64.40625 67.28125 
L 64.40625 56.890625 
Q 59.421875 61.53125 53.78125 63.8125 
Q 48.140625 66.109375 41.796875 66.109375 
Q 29.296875 66.109375 22.65625 58.46875 
Q 16.015625 50.828125 16.015625 36.375 
Q 16.015625 21.96875 22.65625 14.328125 
Q 29.296875 6.6875 41.796875 6.6875 
Q 48.140625 6.6875 53.78125 8.984375 
Q 59.421875 11.28125 64.40625 15.921875 
L 64.40625 5.609375 
Q 59.234375 2.09375 53.4375 0.328125 
Q 47.65625 -1.421875 41.21875 -1.421875 
Q 24.65625 -1.421875 15.125 8.703125 
Q 5.609375 18.84375 5.609375 36.375 
Q 5.609375 53.953125 15.125 64.078125 
Q 24.65625 74.21875 41.21875 74.21875 
Q 47.75 74.21875 53.53125 72.484375 
Q 59.328125 70.75 64.40625 67.28125 
z
" id="DejaVuSans-67"/>
     </defs>
     <use xlink:href="#DejaVuSans-67"/>
    </g>
   </g>
   <g id="text_13">
    <!-- $G_3$ -->
    <g transform="translate(367.6344 28.87125)scale(0.12 -0.12)">
     <defs>
      <path d="M 40.578125 39.3125 
Q 47.65625 37.796875 51.625 33 
Q 55.609375 28.21875 55.609375 21.1875 
Q 55.609375 10.40625 48.1875 4.484375 
Q 40.765625 -1.421875 27.09375 -1.421875 
Q 22.515625 -1.421875 17.65625 -0.515625 
Q 12.796875 0.390625 7.625 2.203125 
L 7.625 11.71875 
Q 11.71875 9.328125 16.59375 8.109375 
Q 21.484375 6.890625 26.8125 6.890625 
Q 36.078125 6.890625 40.9375 10.546875 
Q 45.796875 14.203125 45.796875 21.1875 
Q 45.796875 27.640625 41.28125 31.265625 
Q 36.765625 34.90625 28.71875 34.90625 
L 20.21875 34.90625 
L 20.21875 43.015625 
L 29.109375 43.015625 
Q 36.375 43.015625 40.234375 45.921875 
Q 44.09375 48.828125 44.09375 54.296875 
Q 44.09375 59.90625 40.109375 62.90625 
Q 36.140625 65.921875 28.71875 65.921875 
Q 24.65625 65.921875 20.015625 65.03125 
Q 15.375 64.15625 9.8125 62.3125 
L 9.8125 71.09375 
Q 15.4375 72.65625 20.34375 73.4375 
Q 25.25 74.21875 29.59375 74.21875 
Q 40.828125 74.21875 47.359375 69.109375 
Q 53.90625 64.015625 53.90625 55.328125 
Q 53.90625 49.265625 50.4375 45.09375 
Q 46.96875 40.921875 40.578125 39.3125 
z
" id="DejaVuSans-51"/>
     </defs>
     <use transform="translate(0 0.78125)" xlink:href="#DejaVuSans-Oblique-71"/>
     <use transform="translate(77.490234 -15.625)scale(0.7)" xlink:href="#DejaVuSans-51"/>
    </g>
   </g>
   <g id="text_14">
    <!-- $H_2$ -->
    <g transform="translate(275.9544 181.87125)scale(0.12 -0.12)">
     <use transform="translate(0 0.09375)" xlink:href="#DejaVuSans-Oblique-72"/>
     <use transform="translate(75.195312 -16.3125)scale(0.7)" xlink:href="#DejaVuSans-50"/>
    </g>
   </g>
   <g id="patch_18">
    <path clip-path="url(#pc9e7fadca3)" d="M 298.6344 86.76 
C 298.6344 86.76 298.6344 86.76 298.6344 86.76 
C 298.6344 86.76 298.6344 86.76 298.6344 86.76 
C 298.6344 86.76 298.6344 86.76 298.6344 86.76 
C 298.6344 86.76 298.6344 86.76 298.6344 86.76 
C 298.6344 86.76 298.6344 86.76 298.6344 86.76 
C 298.6344 86.76 298.6344 86.76 298.6344 86.76 
C 298.6344 86.76 298.6344 86.76 298.6344 86.76 
C 298.6344 86.76 298.6344 86.76 298.6344 86.76 
z
" style="stroke:#000000;stroke-linejoin:miter;stroke-width:2;"/>
   </g>
   <g id="patch_19">
    <path clip-path="url(#pc9e7fadca3)" d="M 329.2344 86.76 
C 329.2344 86.76 329.2344 86.76 329.2344 86.76 
C 329.2344 86.76 329.2344 86.76 329.2344 86.76 
C 329.2344 86.76 329.2344 86.76 329.2344 86.76 
C 329.2344 86.76 329.2344 86.76 329.2344 86.76 
C 329.2344 86.76 329.2344 86.76 329.2344 86.76 
C 329.2344 86.76 329.2344 86.76 329.2344 86.76 
C 329.2344 86.76 329.2344 86.76 329.2344 86.76 
C 329.2344 86.76 329.2344 86.76 329.2344 86.76 
z
" style="stroke:#000000;stroke-linejoin:miter;stroke-width:2;"/>
   </g>
   <g id="patch_20">
    <path clip-path="url(#pc9e7fadca3)" d="M 482.2344 86.76 
C 482.2344 86.76 482.2344 86.76 482.2344 86.76 
C 482.2344 86.76 482.2344 86.76 482.2344 86.76 
C 482.2344 86.76 482.2344 86.76 482.2344 86.76 
C 482.2344 86.76 482.2344 86.76 482.2344 86.76 
C 482.2344 86.76 482.2344 86.76 482.2344 86.76 
C 482.2344 86.76 482.2344 86.76 482.2344 86.76 
C 482.2344 86.76 482.2344 86.76 482.2344 86.76 
C 482.2344 86.76 482.2344 86.76 482.2344 86.76 
z
" style="stroke:#000000;stroke-linejoin:miter;stroke-width:2;"/>
   </g>
  </g>
 </g>
 <defs>
  <clipPath id="pc9e7fadca3">
   <rect height="189.72" width="524.7288" x="7.2" y="7.2"/>
  </clipPath>
 </defs>
</svg>
