<?xml version="1.0" encoding="utf-8" standalone="no"?>
<!DOCTYPE svg PUBLIC "-//W3C//DTD SVG 1.1//EN"
  "http://www.w3.org/Graphics/SVG/1.1/DTD/svg11.dtd">
<!-- Created with matplotlib (https://matplotlib.org/) -->
<svg height="141.135pt" version="1.1" viewBox="0 0 546.7788 141.135" width="546.7788pt" xmlns="http://www.w3.org/2000/svg" xmlns:xlink="http://www.w3.org/1999/xlink">
 <metadata>
  <rdf:RDF xmlns:cc="http://creativecommons.org/ns#" xmlns:dc="http://purl.org/dc/elements/1.1/" xmlns:rdf="http://www.w3.org/1999/02/22-rdf-syntax-ns#">
   <cc:Work>
    <dc:type rdf:resource="http://purl.org/dc/dcmitype/StillImage"/>
    <dc:date>2021-04-26T12:52:07.077969</dc:date>
    <dc:format>image/svg+xml</dc:format>
    <dc:creator>
     <cc:Agent>
      <dc:title>Matplotlib v3.3.4, https://matplotlib.org/</dc:title>
     </cc:Agent>
    </dc:creator>
   </cc:Work>
  </rdf:RDF>
 </metadata>
 <defs>
  <style type="text/css">*{stroke-linecap:butt;stroke-linejoin:round;}</style>
 </defs>
 <g id="figure_1">
  <g id="patch_1">
   <path d="M 0 141.135 
L 546.7788 141.135 
L 546.7788 0 
L 0 0 
z
" style="fill:none;"/>
  </g>
  <g id="axes_1">
   <g id="patch_2">
    <path clip-path="url(#p57d621abb8)" d="M 53.8344 73.5 
L 47.7144 75.795 
L 47.7144 73.5153 
L 44.6544 73.5153 
L 44.6544 73.4847 
L 47.7144 73.4847 
L 47.7144 71.205 
z
" style="stroke:#000000;stroke-linejoin:miter;stroke-width:2;"/>
   </g>
   <g id="patch_3">
    <path clip-path="url(#p57d621abb8)" d="M 69.1344 88.8 
C 73.192007 88.8 77.083972 87.187895 79.953134 84.318734 
C 82.822295 81.449572 84.4344 77.557607 84.4344 73.5 
C 84.4344 69.442393 82.822295 65.550428 79.953134 62.681266 
C 77.083972 59.812105 73.192007 58.2 69.1344 58.2 
C 65.076793 58.2 61.184828 59.812105 58.315666 62.681266 
C 55.446505 65.550428 53.8344 69.442393 53.8344 73.5 
C 53.8344 77.557607 55.446505 81.449572 58.315666 84.318734 
C 61.184828 87.187895 65.076793 88.8 69.1344 88.8 
z
" style="fill:none;stroke:#000000;stroke-linejoin:miter;stroke-width:2;"/>
   </g>
   <g id="patch_4">
    <path clip-path="url(#p57d621abb8)" d="M 115.0344 73.5 
L 108.9144 75.795 
L 108.9144 73.5153 
L 105.8544 73.5153 
L 105.8544 73.4847 
L 108.9144 73.4847 
L 108.9144 71.205 
z
" style="stroke:#000000;stroke-linejoin:miter;stroke-width:2;"/>
   </g>
   <g id="patch_5">
    <path clip-path="url(#p57d621abb8)" d="M 199.1844 73.5 
L 193.0644 75.795 
L 193.0644 73.5153 
L 190.0044 73.5153 
L 190.0044 73.4847 
L 193.0644 73.4847 
L 193.0644 71.205 
z
" style="stroke:#000000;stroke-linejoin:miter;stroke-width:2;"/>
   </g>
   <g id="patch_6">
    <path clip-path="url(#p57d621abb8)" d="M 214.4844 88.8 
C 218.542007 88.8 222.433972 87.187895 225.303134 84.318734 
C 228.172295 81.449572 229.7844 77.557607 229.7844 73.5 
C 229.7844 69.442393 228.172295 65.550428 225.303134 62.681266 
C 222.433972 59.812105 218.542007 58.2 214.4844 58.2 
C 210.426793 58.2 206.534828 59.812105 203.665666 62.681266 
C 200.796505 65.550428 199.1844 69.442393 199.1844 73.5 
C 199.1844 77.557607 200.796505 81.449572 203.665666 84.318734 
C 206.534828 87.187895 210.426793 88.8 214.4844 88.8 
z
" style="fill:none;stroke:#000000;stroke-linejoin:miter;stroke-width:2;"/>
   </g>
   <g id="patch_7">
    <path clip-path="url(#p57d621abb8)" d="M 214.4844 58.2 
L 212.1894 52.08 
L 214.4691 52.08 
L 214.4691 49.02 
L 214.4997 49.02 
L 214.4997 52.08 
L 216.7794 52.08 
z
" style="stroke:#000000;stroke-linejoin:miter;stroke-width:2;"/>
   </g>
   <g id="patch_8">
    <path clip-path="url(#p57d621abb8)" d="M 260.3844 73.5 
L 254.2644 75.795 
L 254.2644 73.5153 
L 251.2044 73.5153 
L 251.2044 73.4847 
L 254.2644 73.4847 
L 254.2644 71.205 
z
" style="stroke:#000000;stroke-linejoin:miter;stroke-width:2;"/>
   </g>
   <g id="patch_9">
    <path clip-path="url(#p57d621abb8)" d="M 344.5344 73.5 
L 338.4144 75.795 
L 338.4144 73.5153 
L 335.3544 73.5153 
L 335.3544 73.4847 
L 338.4144 73.4847 
L 338.4144 71.205 
z
" style="stroke:#000000;stroke-linejoin:miter;stroke-width:2;"/>
   </g>
   <g id="patch_10">
    <path clip-path="url(#p57d621abb8)" d="M 359.8344 88.8 
C 363.892007 88.8 367.783972 87.187895 370.653134 84.318734 
C 373.522295 81.449572 375.1344 77.557607 375.1344 73.5 
C 375.1344 69.442393 373.522295 65.550428 370.653134 62.681266 
C 367.783972 59.812105 363.892007 58.2 359.8344 58.2 
C 355.776793 58.2 351.884828 59.812105 349.015666 62.681266 
C 346.146505 65.550428 344.5344 69.442393 344.5344 73.5 
C 344.5344 77.557607 346.146505 81.449572 349.015666 84.318734 
C 351.884828 87.187895 355.776793 88.8 359.8344 88.8 
z
" style="fill:none;stroke:#000000;stroke-linejoin:miter;stroke-width:2;"/>
   </g>
   <g id="patch_11">
    <path clip-path="url(#p57d621abb8)" d="M 359.8344 58.2 
L 357.5394 52.08 
L 359.8191 52.08 
L 359.8191 49.02 
L 359.8497 49.02 
L 359.8497 52.08 
L 362.1294 52.08 
z
" style="stroke:#000000;stroke-linejoin:miter;stroke-width:2;"/>
   </g>
   <g id="patch_12">
    <path clip-path="url(#p57d621abb8)" d="M 405.7344 73.5 
L 399.6144 75.795 
L 399.6144 73.5153 
L 396.5544 73.5153 
L 396.5544 73.4847 
L 399.6144 73.4847 
L 399.6144 71.205 
z
" style="stroke:#000000;stroke-linejoin:miter;stroke-width:2;"/>
   </g>
   <g id="patch_13">
    <path clip-path="url(#p57d621abb8)" d="M 520.4844 73.5 
L 514.3644 75.795 
L 514.3644 73.5153 
L 511.3044 73.5153 
L 511.3044 73.4847 
L 514.3644 73.4847 
L 514.3644 71.205 
z
" style="stroke:#000000;stroke-linejoin:miter;stroke-width:2;"/>
   </g>
   <g id="patch_14">
    <path clip-path="url(#p57d621abb8)" d="M 69.1344 88.8 
L 71.4294 94.92 
L 69.1497 94.92 
L 69.1497 97.98 
L 69.1191 97.98 
L 69.1191 94.92 
L 66.8394 94.92 
z
" style="stroke:#000000;stroke-linejoin:miter;stroke-width:2;"/>
   </g>
   <g id="line2d_1">
    <path clip-path="url(#p57d621abb8)" d="M 23.2344 73.5 
L 38.5344 73.5 
L 53.8344 73.5 
" style="fill:none;stroke:#000000;stroke-linecap:round;stroke-width:2;"/>
   </g>
   <g id="line2d_2">
    <path clip-path="url(#p57d621abb8)" d="M 79.953134 62.681266 
L 58.315666 84.318734 
" style="fill:none;stroke:#000000;stroke-linecap:round;stroke-width:2;"/>
   </g>
   <g id="line2d_3">
    <path clip-path="url(#p57d621abb8)" d="M 79.953134 84.318734 
L 58.315666 62.681266 
" style="fill:none;stroke:#000000;stroke-linecap:round;stroke-width:2;"/>
   </g>
   <g id="line2d_4">
    <path clip-path="url(#p57d621abb8)" d="M 84.4344 73.5 
L 99.7344 73.5 
L 115.0344 73.5 
" style="fill:none;stroke:#000000;stroke-linecap:round;stroke-width:2;"/>
   </g>
   <g id="line2d_5">
    <path clip-path="url(#p57d621abb8)" d="M 141.8094 54.375 
L 168.5844 54.375 
L 168.5844 92.625 
L 115.0344 92.625 
L 115.0344 54.375 
L 141.8094 54.375 
" style="fill:none;stroke:#000000;stroke-linecap:round;stroke-width:2;"/>
   </g>
   <g id="line2d_6">
    <path clip-path="url(#p57d621abb8)" d="M 168.5844 73.5 
L 183.8844 73.5 
L 199.1844 73.5 
" style="fill:none;stroke:#000000;stroke-linecap:round;stroke-width:2;"/>
   </g>
   <g id="line2d_7">
    <path clip-path="url(#p57d621abb8)" d="M 225.303134 62.681266 
L 203.665666 84.318734 
" style="fill:none;stroke:#000000;stroke-linecap:round;stroke-width:2;"/>
   </g>
   <g id="line2d_8">
    <path clip-path="url(#p57d621abb8)" d="M 225.303134 84.318734 
L 203.665666 62.681266 
" style="fill:none;stroke:#000000;stroke-linecap:round;stroke-width:2;"/>
   </g>
   <g id="line2d_9">
    <path clip-path="url(#p57d621abb8)" d="M 214.4844 58.2 
L 214.4844 42.9 
L 214.4844 27.6 
" style="fill:none;stroke:#000000;stroke-linecap:round;stroke-width:2;"/>
   </g>
   <g id="line2d_10">
    <path clip-path="url(#p57d621abb8)" d="M 229.7844 73.5 
L 245.0844 73.5 
L 260.3844 73.5 
" style="fill:none;stroke:#000000;stroke-linecap:round;stroke-width:2;"/>
   </g>
   <g id="line2d_11">
    <path clip-path="url(#p57d621abb8)" d="M 287.1594 54.375 
L 313.9344 54.375 
L 313.9344 92.625 
L 260.3844 92.625 
L 260.3844 54.375 
L 287.1594 54.375 
" style="fill:none;stroke:#000000;stroke-linecap:round;stroke-width:2;"/>
   </g>
   <g id="line2d_12">
    <path clip-path="url(#p57d621abb8)" d="M 313.9344 73.5 
L 329.2344 73.5 
L 344.5344 73.5 
" style="fill:none;stroke:#000000;stroke-linecap:round;stroke-width:2;"/>
   </g>
   <g id="line2d_13">
    <path clip-path="url(#p57d621abb8)" d="M 370.653134 62.681266 
L 349.015666 84.318734 
" style="fill:none;stroke:#000000;stroke-linecap:round;stroke-width:2;"/>
   </g>
   <g id="line2d_14">
    <path clip-path="url(#p57d621abb8)" d="M 370.653134 84.318734 
L 349.015666 62.681266 
" style="fill:none;stroke:#000000;stroke-linecap:round;stroke-width:2;"/>
   </g>
   <g id="line2d_15">
    <path clip-path="url(#p57d621abb8)" d="M 359.8344 58.2 
L 359.8344 42.9 
L 359.8344 27.6 
" style="fill:none;stroke:#000000;stroke-linecap:round;stroke-width:2;"/>
   </g>
   <g id="line2d_16">
    <path clip-path="url(#p57d621abb8)" d="M 375.1344 73.5 
L 390.4344 73.5 
L 405.7344 73.5 
" style="fill:none;stroke:#000000;stroke-linecap:round;stroke-width:2;"/>
   </g>
   <g id="line2d_17">
    <path clip-path="url(#p57d621abb8)" d="M 432.5094 54.375 
L 459.2844 54.375 
L 459.2844 92.625 
L 405.7344 92.625 
L 405.7344 54.375 
L 432.5094 54.375 
" style="fill:none;stroke:#000000;stroke-linecap:round;stroke-width:2;"/>
   </g>
   <g id="line2d_18">
    <path clip-path="url(#p57d621abb8)" d="M 459.2844 73.5 
L 474.5844 73.5 
L 489.8844 73.5 
" style="fill:none;stroke:#000000;stroke-linecap:round;stroke-width:2;"/>
   </g>
   <g id="line2d_19">
    <path clip-path="url(#p57d621abb8)" d="M 489.8844 73.5 
L 505.1844 73.5 
L 520.4844 73.5 
" style="fill:none;stroke:#000000;stroke-linecap:round;stroke-width:2;"/>
   </g>
   <g id="line2d_20">
    <path clip-path="url(#p57d621abb8)" d="M 489.8844 73.5 
L 489.8844 102.1875 
L 489.8844 130.875 
" style="fill:none;stroke:#000000;stroke-linecap:round;stroke-width:2;"/>
   </g>
   <g id="line2d_21">
    <path clip-path="url(#p57d621abb8)" d="M 489.8844 130.875 
L 279.5094 130.875 
L 69.1344 130.875 
" style="fill:none;stroke:#000000;stroke-linecap:round;stroke-width:2;"/>
   </g>
   <g id="line2d_22">
    <path clip-path="url(#p57d621abb8)" d="M 69.1344 130.875 
L 69.1344 109.8375 
L 69.1344 88.8 
" style="fill:none;stroke:#000000;stroke-linecap:round;stroke-width:2;"/>
   </g>
   <g id="text_1">
    <!-- $R$ -->
    <g transform="translate(11.7744 76.81125)scale(0.12 -0.12)">
     <defs>
      <path d="M 25.203125 64.796875 
L 20.21875 38.921875 
L 32.90625 38.921875 
Q 40.375 38.921875 44.984375 43.046875 
Q 49.609375 47.171875 49.609375 53.8125 
Q 49.609375 59.125 46.5 61.953125 
Q 43.40625 64.796875 37.59375 64.796875 
z
M 43.3125 35.015625 
Q 46.4375 34.28125 48.515625 31.390625 
Q 50.59375 28.515625 53.328125 19.921875 
L 59.515625 0 
L 49.125 0 
L 43.40625 18.703125 
Q 41.21875 25.921875 38.328125 28.359375 
Q 35.453125 30.8125 29.5 30.8125 
L 18.609375 30.8125 
L 12.59375 0 
L 2.6875 0 
L 16.890625 72.90625 
L 39.109375 72.90625 
Q 49.21875 72.90625 54.609375 68.328125 
Q 60.015625 63.765625 60.015625 55.171875 
Q 60.015625 47.5625 55.421875 41.984375 
Q 50.828125 36.421875 43.3125 35.015625 
z
" id="DejaVuSans-Oblique-82"/>
     </defs>
     <use transform="translate(0 0.09375)" xlink:href="#DejaVuSans-Oblique-82"/>
    </g>
   </g>
   <g id="text_2">
    <!-- - -->
    <g transform="translate(67.330494 85.898375)scale(0.1 -0.1)">
     <defs>
      <path d="M 4.890625 31.390625 
L 31.203125 31.390625 
L 31.203125 23.390625 
L 4.890625 23.390625 
z
" id="DejaVuSans-45"/>
     </defs>
     <use xlink:href="#DejaVuSans-45"/>
    </g>
   </g>
   <g id="text_3">
    <!-- + -->
    <g transform="translate(55.764556 76.259375)scale(0.1 -0.1)">
     <defs>
      <path d="M 46 62.703125 
L 46 35.5 
L 73.1875 35.5 
L 73.1875 27.203125 
L 46 27.203125 
L 46 0 
L 37.796875 0 
L 37.796875 27.203125 
L 10.59375 27.203125 
L 10.59375 35.5 
L 37.796875 35.5 
L 37.796875 62.703125 
z
" id="DejaVuSans-43"/>
     </defs>
     <use xlink:href="#DejaVuSans-43"/>
    </g>
   </g>
   <g id="text_4">
    <!-- $K_c=5$ -->
    <g transform="translate(124.1694 76.81125)scale(0.12 -0.12)">
     <defs>
      <path d="M 16.890625 72.90625 
L 26.8125 72.90625 
L 20.796875 42.1875 
L 59.078125 72.90625 
L 72.21875 72.90625 
L 28.90625 38.09375 
L 60.59375 0 
L 48.578125 0 
L 19.484375 35.5 
L 12.59375 0 
L 2.6875 0 
z
" id="DejaVuSans-Oblique-75"/>
      <path d="M 53.609375 52.59375 
L 51.8125 43.703125 
Q 48.578125 46.046875 44.9375 47.21875 
Q 41.3125 48.390625 37.40625 48.390625 
Q 33.109375 48.390625 29.21875 46.875 
Q 25.34375 45.359375 22.703125 42.578125 
Q 18.5 38.328125 16.203125 32.609375 
Q 13.921875 26.90625 13.921875 20.796875 
Q 13.921875 13.421875 17.609375 9.8125 
Q 21.296875 6.203125 28.8125 6.203125 
Q 32.515625 6.203125 36.6875 7.328125 
Q 40.875 8.453125 45.40625 10.6875 
L 43.703125 1.8125 
Q 39.796875 0.203125 35.671875 -0.609375 
Q 31.546875 -1.421875 27.203125 -1.421875 
Q 16.3125 -1.421875 10.453125 4.015625 
Q 4.59375 9.46875 4.59375 19.578125 
Q 4.59375 28.078125 7.640625 35.234375 
Q 10.6875 42.390625 16.703125 48.09375 
Q 20.796875 52 26.3125 54 
Q 31.84375 56 38.375 56 
Q 42.1875 56 45.9375 55.140625 
Q 49.703125 54.296875 53.609375 52.59375 
z
" id="DejaVuSans-Oblique-99"/>
      <path d="M 10.59375 45.40625 
L 73.1875 45.40625 
L 73.1875 37.203125 
L 10.59375 37.203125 
z
M 10.59375 25.484375 
L 73.1875 25.484375 
L 73.1875 17.1875 
L 10.59375 17.1875 
z
" id="DejaVuSans-61"/>
      <path d="M 10.796875 72.90625 
L 49.515625 72.90625 
L 49.515625 64.59375 
L 19.828125 64.59375 
L 19.828125 46.734375 
Q 21.96875 47.46875 24.109375 47.828125 
Q 26.265625 48.1875 28.421875 48.1875 
Q 40.625 48.1875 47.75 41.5 
Q 54.890625 34.8125 54.890625 23.390625 
Q 54.890625 11.625 47.5625 5.09375 
Q 40.234375 -1.421875 26.90625 -1.421875 
Q 22.3125 -1.421875 17.546875 -0.640625 
Q 12.796875 0.140625 7.71875 1.703125 
L 7.71875 11.625 
Q 12.109375 9.234375 16.796875 8.0625 
Q 21.484375 6.890625 26.703125 6.890625 
Q 35.15625 6.890625 40.078125 11.328125 
Q 45.015625 15.765625 45.015625 23.390625 
Q 45.015625 31 40.078125 35.4375 
Q 35.15625 39.890625 26.703125 39.890625 
Q 22.75 39.890625 18.8125 39.015625 
Q 14.890625 38.140625 10.796875 36.28125 
z
" id="DejaVuSans-53"/>
     </defs>
     <use transform="translate(0 0.09375)" xlink:href="#DejaVuSans-Oblique-75"/>
     <use transform="translate(65.576172 -16.3125)scale(0.7)" xlink:href="#DejaVuSans-Oblique-99"/>
     <use transform="translate(126.279297 0.09375)" xlink:href="#DejaVuSans-61"/>
     <use transform="translate(229.550781 0.09375)" xlink:href="#DejaVuSans-53"/>
    </g>
   </g>
   <g id="text_5">
    <!-- + -->
    <g transform="translate(210.294556 66.620375)scale(0.1 -0.1)">
     <use xlink:href="#DejaVuSans-43"/>
    </g>
   </g>
   <g id="text_6">
    <!-- + -->
    <g transform="translate(201.114556 76.259375)scale(0.1 -0.1)">
     <use xlink:href="#DejaVuSans-43"/>
    </g>
   </g>
   <g id="text_7">
    <!-- $U_1$ -->
    <g transform="translate(207.2244 22.044375)scale(0.12 -0.12)">
     <defs>
      <path d="M 15.484375 72.90625 
L 25.390625 72.90625 
L 16.796875 28.609375 
Q 16.265625 25.640625 16.046875 23.703125 
Q 15.828125 21.78125 15.828125 20.3125 
Q 15.828125 13.578125 19.578125 10.078125 
Q 23.34375 6.59375 30.609375 6.59375 
Q 40.046875 6.59375 45.28125 11.765625 
Q 50.53125 16.9375 52.78125 28.609375 
L 61.375 72.90625 
L 71.296875 72.90625 
L 62.5 27.390625 
Q 59.625 12.640625 51.5625 5.609375 
Q 43.5 -1.421875 29.5 -1.421875 
Q 18.5625 -1.421875 12.1875 4.078125 
Q 5.8125 9.578125 5.8125 19 
Q 5.8125 20.703125 6.046875 22.828125 
Q 6.296875 24.953125 6.78125 27.390625 
z
" id="DejaVuSans-Oblique-85"/>
      <path d="M 12.40625 8.296875 
L 28.515625 8.296875 
L 28.515625 63.921875 
L 10.984375 60.40625 
L 10.984375 69.390625 
L 28.421875 72.90625 
L 38.28125 72.90625 
L 38.28125 8.296875 
L 54.390625 8.296875 
L 54.390625 0 
L 12.40625 0 
z
" id="DejaVuSans-49"/>
     </defs>
     <use transform="translate(0 0.09375)" xlink:href="#DejaVuSans-Oblique-85"/>
     <use transform="translate(73.193359 -16.3125)scale(0.7)" xlink:href="#DejaVuSans-49"/>
    </g>
   </g>
   <g id="text_8">
    <!-- $\frac{2}{2s+1}$ -->
    <g transform="translate(273.7194 76.8)scale(0.12 -0.12)">
     <defs>
      <path d="M 19.1875 8.296875 
L 53.609375 8.296875 
L 53.609375 0 
L 7.328125 0 
L 7.328125 8.296875 
Q 12.9375 14.109375 22.625 23.890625 
Q 32.328125 33.6875 34.8125 36.53125 
Q 39.546875 41.84375 41.421875 45.53125 
Q 43.3125 49.21875 43.3125 52.78125 
Q 43.3125 58.59375 39.234375 62.25 
Q 35.15625 65.921875 28.609375 65.921875 
Q 23.96875 65.921875 18.8125 64.3125 
Q 13.671875 62.703125 7.8125 59.421875 
L 7.8125 69.390625 
Q 13.765625 71.78125 18.9375 73 
Q 24.125 74.21875 28.421875 74.21875 
Q 39.75 74.21875 46.484375 68.546875 
Q 53.21875 62.890625 53.21875 53.421875 
Q 53.21875 48.921875 51.53125 44.890625 
Q 49.859375 40.875 45.40625 35.40625 
Q 44.1875 33.984375 37.640625 27.21875 
Q 31.109375 20.453125 19.1875 8.296875 
z
" id="DejaVuSans-50"/>
      <path d="M 50 53.078125 
L 48.296875 44.578125 
Q 44.734375 46.53125 40.765625 47.5 
Q 36.8125 48.484375 32.625 48.484375 
Q 25.53125 48.484375 21.453125 46.0625 
Q 17.390625 43.65625 17.390625 39.5 
Q 17.390625 34.671875 26.859375 32.078125 
Q 27.59375 31.890625 27.9375 31.78125 
L 30.8125 30.90625 
Q 39.796875 28.421875 42.796875 25.6875 
Q 45.796875 22.953125 45.796875 18.21875 
Q 45.796875 9.515625 38.890625 4.046875 
Q 31.984375 -1.421875 20.796875 -1.421875 
Q 16.453125 -1.421875 11.671875 -0.578125 
Q 6.890625 0.25 1.125 2 
L 2.875 11.28125 
Q 7.8125 8.734375 12.59375 7.421875 
Q 17.390625 6.109375 21.78125 6.109375 
Q 28.375 6.109375 32.5 8.9375 
Q 36.625 11.765625 36.625 16.109375 
Q 36.625 20.796875 25.78125 23.6875 
L 24.859375 23.921875 
L 21.78125 24.703125 
Q 14.9375 26.515625 11.765625 29.46875 
Q 8.59375 32.421875 8.59375 37.015625 
Q 8.59375 45.75 15.15625 50.875 
Q 21.734375 56 33.015625 56 
Q 37.453125 56 41.671875 55.265625 
Q 45.90625 54.546875 50 53.078125 
z
" id="DejaVuSans-Oblique-115"/>
     </defs>
     <use transform="translate(83 44.046875)scale(0.7)" xlink:href="#DejaVuSans-50"/>
     <use transform="translate(0 -39.15625)scale(0.7)" xlink:href="#DejaVuSans-50"/>
     <use transform="translate(44.536133 -39.15625)scale(0.7)" xlink:href="#DejaVuSans-Oblique-115"/>
     <use transform="translate(94.643555 -39.15625)scale(0.7)" xlink:href="#DejaVuSans-43"/>
     <use transform="translate(166.933594 -39.15625)scale(0.7)" xlink:href="#DejaVuSans-49"/>
     <path d="M 0 19.046875 
L 0 25.296875 
L 211.469727 25.296875 
L 211.469727 19.046875 
L 0 19.046875 
z
"/>
    </g>
   </g>
   <g id="text_9">
    <!-- + -->
    <g transform="translate(355.644556 66.620375)scale(0.1 -0.1)">
     <use xlink:href="#DejaVuSans-43"/>
    </g>
   </g>
   <g id="text_10">
    <!-- + -->
    <g transform="translate(346.464556 76.259375)scale(0.1 -0.1)">
     <use xlink:href="#DejaVuSans-43"/>
    </g>
   </g>
   <g id="text_11">
    <!-- $U_2$ -->
    <g transform="translate(352.5744 22.044375)scale(0.12 -0.12)">
     <use transform="translate(0 0.09375)" xlink:href="#DejaVuSans-Oblique-85"/>
     <use transform="translate(73.193359 -16.3125)scale(0.7)" xlink:href="#DejaVuSans-50"/>
    </g>
   </g>
   <g id="text_12">
    <!-- $\frac{1}{2s+1}$ -->
    <g transform="translate(419.0694 76.74)scale(0.12 -0.12)">
     <use transform="translate(83 43.965625)scale(0.7)" xlink:href="#DejaVuSans-49"/>
     <use transform="translate(0 -39.2375)scale(0.7)" xlink:href="#DejaVuSans-50"/>
     <use transform="translate(44.536133 -39.2375)scale(0.7)" xlink:href="#DejaVuSans-Oblique-115"/>
     <use transform="translate(94.643555 -39.2375)scale(0.7)" xlink:href="#DejaVuSans-43"/>
     <use transform="translate(166.933594 -39.2375)scale(0.7)" xlink:href="#DejaVuSans-49"/>
     <path d="M 0 18.965625 
L 0 25.215625 
L 211.469727 25.215625 
L 211.469727 18.965625 
L 0 18.965625 
z
"/>
    </g>
   </g>
   <g id="text_13">
    <!-- $C$ -->
    <g transform="translate(523.5444 76.81125)scale(0.12 -0.12)">
     <defs>
      <path d="M 69.484375 67.28125 
L 67.484375 56.890625 
Q 62.796875 61.625 57.546875 63.921875 
Q 52.296875 66.21875 46.1875 66.21875 
Q 37.84375 66.21875 31.515625 62.203125 
Q 25.203125 58.203125 20.609375 50 
Q 17.671875 44.734375 16.125 38.84375 
Q 14.59375 32.953125 14.59375 27 
Q 14.59375 17.046875 19.75 11.8125 
Q 24.90625 6.59375 34.71875 6.59375 
Q 41.5 6.59375 47.75 8.765625 
Q 54 10.9375 59.90625 15.28125 
L 57.625 3.609375 
Q 51.8125 1.125 45.875 -0.140625 
Q 39.9375 -1.421875 33.984375 -1.421875 
Q 19.96875 -1.421875 12.078125 6.1875 
Q 4.203125 13.8125 4.203125 27.390625 
Q 4.203125 36.078125 7.203125 44.46875 
Q 10.203125 52.875 15.828125 59.8125 
Q 21.78125 67.1875 29.421875 70.703125 
Q 37.0625 74.21875 47.21875 74.21875 
Q 53.46875 74.21875 59.0625 72.484375 
Q 64.65625 70.75 69.484375 67.28125 
z
" id="DejaVuSans-Oblique-67"/>
     </defs>
     <use transform="translate(0 0.78125)" xlink:href="#DejaVuSans-Oblique-67"/>
    </g>
   </g>
   <g id="patch_15">
    <path clip-path="url(#p57d621abb8)" d="M 489.8844 73.5 
C 489.8844 73.5 489.8844 73.5 489.8844 73.5 
C 489.8844 73.5 489.8844 73.5 489.8844 73.5 
C 489.8844 73.5 489.8844 73.5 489.8844 73.5 
C 489.8844 73.5 489.8844 73.5 489.8844 73.5 
C 489.8844 73.5 489.8844 73.5 489.8844 73.5 
C 489.8844 73.5 489.8844 73.5 489.8844 73.5 
C 489.8844 73.5 489.8844 73.5 489.8844 73.5 
C 489.8844 73.5 489.8844 73.5 489.8844 73.5 
z
" style="stroke:#000000;stroke-linejoin:miter;stroke-width:2;"/>
   </g>
  </g>
 </g>
 <defs>
  <clipPath id="p57d621abb8">
   <rect height="126.735" width="532.3788" x="7.2" y="7.2"/>
  </clipPath>
 </defs>
</svg>
