<?xml version="1.0" encoding="utf-8" standalone="no"?>
<!DOCTYPE svg PUBLIC "-//W3C//DTD SVG 1.1//EN"
  "http://www.w3.org/Graphics/SVG/1.1/DTD/svg11.dtd">
<!-- Created with matplotlib (https://matplotlib.org/) -->
<svg height="143.6pt" version="1.1" viewBox="0 0 353.244 143.6" width="353.244pt" xmlns="http://www.w3.org/2000/svg" xmlns:xlink="http://www.w3.org/1999/xlink">
 <metadata>
  <rdf:RDF xmlns:cc="http://creativecommons.org/ns#" xmlns:dc="http://purl.org/dc/elements/1.1/" xmlns:rdf="http://www.w3.org/1999/02/22-rdf-syntax-ns#">
   <cc:Work>
    <dc:type rdf:resource="http://purl.org/dc/dcmitype/StillImage"/>
    <dc:date>2021-04-28T17:30:25.640836</dc:date>
    <dc:format>image/svg+xml</dc:format>
    <dc:creator>
     <cc:Agent>
      <dc:title>Matplotlib v3.3.4, https://matplotlib.org/</dc:title>
     </cc:Agent>
    </dc:creator>
   </cc:Work>
  </rdf:RDF>
 </metadata>
 <defs>
  <style type="text/css">*{stroke-linecap:butt;stroke-linejoin:round;}</style>
 </defs>
 <g id="figure_1">
  <g id="patch_1">
   <path d="M 0 143.6 
L 353.244 143.6 
L 353.244 0 
L 0 0 
z
" style="fill:none;"/>
  </g>
  <g id="axes_1">
   <g id="patch_2">
    <path clip-path="url(#p148d938a40)" d="M 52.692 72.14 
L 46.572 74.435 
L 46.572 72.1553 
L 43.512 72.1553 
L 43.512 72.1247 
L 46.572 72.1247 
L 46.572 69.845 
z
" style="stroke:#000000;stroke-linejoin:miter;stroke-width:2;"/>
   </g>
   <g id="patch_3">
    <path clip-path="url(#p148d938a40)" d="M 67.992 87.44 
C 72.049607 87.44 75.941572 85.827895 78.810734 82.958734 
C 81.679895 80.089572 83.292 76.197607 83.292 72.14 
C 83.292 68.082393 81.679895 64.190428 78.810734 61.321266 
C 75.941572 58.452105 72.049607 56.84 67.992 56.84 
C 63.934393 56.84 60.042428 58.452105 57.173266 61.321266 
C 54.304105 64.190428 52.692 68.082393 52.692 72.14 
C 52.692 76.197607 54.304105 80.089572 57.173266 82.958734 
C 60.042428 85.827895 63.934393 87.44 67.992 87.44 
z
" style="fill:none;stroke:#000000;stroke-linejoin:miter;stroke-width:2;"/>
   </g>
   <g id="patch_4">
    <path clip-path="url(#p148d938a40)" d="M 113.892 72.14 
L 107.772 74.435 
L 107.772 72.1553 
L 104.712 72.1553 
L 104.712 72.1247 
L 107.772 72.1247 
L 107.772 69.845 
z
" style="stroke:#000000;stroke-linejoin:miter;stroke-width:2;"/>
   </g>
   <g id="patch_5">
    <path clip-path="url(#p148d938a40)" d="M 175.092 72.14 
L 168.972 74.435 
L 168.972 72.1553 
L 165.912 72.1553 
L 165.912 72.1247 
L 168.972 72.1247 
L 168.972 69.845 
z
" style="stroke:#000000;stroke-linejoin:miter;stroke-width:2;"/>
   </g>
   <g id="patch_6">
    <path clip-path="url(#p148d938a40)" d="M 190.392 87.44 
C 194.449607 87.44 198.341572 85.827895 201.210734 82.958734 
C 204.079895 80.089572 205.692 76.197607 205.692 72.14 
C 205.692 68.082393 204.079895 64.190428 201.210734 61.321266 
C 198.341572 58.452105 194.449607 56.84 190.392 56.84 
C 186.334393 56.84 182.442428 58.452105 179.573266 61.321266 
C 176.704105 64.190428 175.092 68.082393 175.092 72.14 
C 175.092 76.197607 176.704105 80.089572 179.573266 82.958734 
C 182.442428 85.827895 186.334393 87.44 190.392 87.44 
z
" style="fill:none;stroke:#000000;stroke-linejoin:miter;stroke-width:2;"/>
   </g>
   <g id="patch_7">
    <path clip-path="url(#p148d938a40)" d="M 190.392 56.84 
L 188.097 50.72 
L 190.3767 50.72 
L 190.3767 47.66 
L 190.4073 47.66 
L 190.4073 50.72 
L 192.687 50.72 
z
" style="stroke:#000000;stroke-linejoin:miter;stroke-width:2;"/>
   </g>
   <g id="patch_8">
    <path clip-path="url(#p148d938a40)" d="M 236.292 72.14 
L 230.172 74.435 
L 230.172 72.1553 
L 227.112 72.1553 
L 227.112 72.1247 
L 230.172 72.1247 
L 230.172 69.845 
z
" style="stroke:#000000;stroke-linejoin:miter;stroke-width:2;"/>
   </g>
   <g id="patch_9">
    <path clip-path="url(#p148d938a40)" d="M 328.092 72.14 
L 321.972 74.435 
L 321.972 72.1553 
L 318.912 72.1553 
L 318.912 72.1247 
L 321.972 72.1247 
L 321.972 69.845 
z
" style="stroke:#000000;stroke-linejoin:miter;stroke-width:2;"/>
   </g>
   <g id="patch_10">
    <path clip-path="url(#p148d938a40)" d="M 67.992 87.44 
L 70.287 93.56 
L 68.0073 93.56 
L 68.0073 96.62 
L 67.9767 96.62 
L 67.9767 93.56 
L 65.697 93.56 
z
" style="stroke:#000000;stroke-linejoin:miter;stroke-width:2;"/>
   </g>
   <g id="line2d_1">
    <path clip-path="url(#p148d938a40)" d="M 22.092 72.14 
L 37.392 72.14 
L 52.692 72.14 
" style="fill:none;stroke:#000000;stroke-linecap:round;stroke-width:2;"/>
   </g>
   <g id="line2d_2">
    <path clip-path="url(#p148d938a40)" d="M 78.810734 61.321266 
L 57.173266 82.958734 
" style="fill:none;stroke:#000000;stroke-linecap:round;stroke-width:2;"/>
   </g>
   <g id="line2d_3">
    <path clip-path="url(#p148d938a40)" d="M 78.810734 82.958734 
L 57.173266 61.321266 
" style="fill:none;stroke:#000000;stroke-linecap:round;stroke-width:2;"/>
   </g>
   <g id="line2d_4">
    <path clip-path="url(#p148d938a40)" d="M 83.292 72.14 
L 98.592 72.14 
L 113.892 72.14 
" style="fill:none;stroke:#000000;stroke-linecap:round;stroke-width:2;"/>
   </g>
   <g id="line2d_5">
    <path clip-path="url(#p148d938a40)" d="M 129.192 56.84 
L 144.492 56.84 
L 144.492 87.44 
L 113.892 87.44 
L 113.892 56.84 
L 129.192 56.84 
" style="fill:none;stroke:#000000;stroke-linecap:round;stroke-width:2;"/>
   </g>
   <g id="line2d_6">
    <path clip-path="url(#p148d938a40)" d="M 144.492 72.14 
L 159.792 72.14 
L 175.092 72.14 
" style="fill:none;stroke:#000000;stroke-linecap:round;stroke-width:2;"/>
   </g>
   <g id="line2d_7">
    <path clip-path="url(#p148d938a40)" d="M 201.210734 61.321266 
L 179.573266 82.958734 
" style="fill:none;stroke:#000000;stroke-linecap:round;stroke-width:2;"/>
   </g>
   <g id="line2d_8">
    <path clip-path="url(#p148d938a40)" d="M 201.210734 82.958734 
L 179.573266 61.321266 
" style="fill:none;stroke:#000000;stroke-linecap:round;stroke-width:2;"/>
   </g>
   <g id="line2d_9">
    <path clip-path="url(#p148d938a40)" d="M 190.392 56.84 
L 190.392 41.54 
L 190.392 26.24 
" style="fill:none;stroke:#000000;stroke-linecap:round;stroke-width:2;"/>
   </g>
   <g id="line2d_10">
    <path clip-path="url(#p148d938a40)" d="M 205.692 72.14 
L 220.992 72.14 
L 236.292 72.14 
" style="fill:none;stroke:#000000;stroke-linecap:round;stroke-width:2;"/>
   </g>
   <g id="line2d_11">
    <path clip-path="url(#p148d938a40)" d="M 251.592 56.84 
L 266.892 56.84 
L 266.892 87.44 
L 236.292 87.44 
L 236.292 56.84 
L 251.592 56.84 
" style="fill:none;stroke:#000000;stroke-linecap:round;stroke-width:2;"/>
   </g>
   <g id="line2d_12">
    <path clip-path="url(#p148d938a40)" d="M 266.892 72.14 
L 282.192 72.14 
L 297.492 72.14 
" style="fill:none;stroke:#000000;stroke-linecap:round;stroke-width:2;"/>
   </g>
   <g id="line2d_13">
    <path clip-path="url(#p148d938a40)" d="M 297.492 72.14 
L 312.792 72.14 
L 328.092 72.14 
" style="fill:none;stroke:#000000;stroke-linecap:round;stroke-width:2;"/>
   </g>
   <g id="line2d_14">
    <path clip-path="url(#p148d938a40)" d="M 297.492 72.14 
L 297.492 95.09 
L 297.492 118.04 
" style="fill:none;stroke:#000000;stroke-linecap:round;stroke-width:2;"/>
   </g>
   <g id="line2d_15">
    <path clip-path="url(#p148d938a40)" d="M 297.492 118.04 
L 251.592 118.04 
L 205.692 118.04 
" style="fill:none;stroke:#000000;stroke-linecap:round;stroke-width:2;"/>
   </g>
   <g id="line2d_16">
    <path clip-path="url(#p148d938a40)" d="M 190.392 102.74 
L 205.692 102.74 
L 205.692 133.34 
L 175.092 133.34 
L 175.092 102.74 
L 190.392 102.74 
" style="fill:none;stroke:#000000;stroke-linecap:round;stroke-width:2;"/>
   </g>
   <g id="line2d_17">
    <path clip-path="url(#p148d938a40)" d="M 175.092 118.04 
L 121.542 118.04 
L 67.992 118.04 
" style="fill:none;stroke:#000000;stroke-linecap:round;stroke-width:2;"/>
   </g>
   <g id="line2d_18">
    <path clip-path="url(#p148d938a40)" d="M 67.992 118.04 
L 67.992 102.74 
L 67.992 87.44 
" style="fill:none;stroke:#000000;stroke-linecap:round;stroke-width:2;"/>
   </g>
   <g id="text_1">
    <!-- $R$ -->
    <g transform="translate(12.032 74.899375)scale(0.1 -0.1)">
     <defs>
      <path d="M 25.203125 64.796875 
L 20.21875 38.921875 
L 32.90625 38.921875 
Q 40.375 38.921875 44.984375 43.046875 
Q 49.609375 47.171875 49.609375 53.8125 
Q 49.609375 59.125 46.5 61.953125 
Q 43.40625 64.796875 37.59375 64.796875 
z
M 43.3125 35.015625 
Q 46.4375 34.28125 48.515625 31.390625 
Q 50.59375 28.515625 53.328125 19.921875 
L 59.515625 0 
L 49.125 0 
L 43.40625 18.703125 
Q 41.21875 25.921875 38.328125 28.359375 
Q 35.453125 30.8125 29.5 30.8125 
L 18.609375 30.8125 
L 12.59375 0 
L 2.6875 0 
L 16.890625 72.90625 
L 39.109375 72.90625 
Q 49.21875 72.90625 54.609375 68.328125 
Q 60.015625 63.765625 60.015625 55.171875 
Q 60.015625 47.5625 55.421875 41.984375 
Q 50.828125 36.421875 43.3125 35.015625 
z
" id="DejaVuSans-Oblique-82"/>
     </defs>
     <use transform="translate(0 0.09375)" xlink:href="#DejaVuSans-Oblique-82"/>
    </g>
   </g>
   <g id="text_2">
    <!-- - -->
    <g transform="translate(66.188094 84.538375)scale(0.1 -0.1)">
     <defs>
      <path d="M 4.890625 31.390625 
L 31.203125 31.390625 
L 31.203125 23.390625 
L 4.890625 23.390625 
z
" id="DejaVuSans-45"/>
     </defs>
     <use xlink:href="#DejaVuSans-45"/>
    </g>
   </g>
   <g id="text_3">
    <!-- + -->
    <g transform="translate(54.622156 74.899375)scale(0.1 -0.1)">
     <defs>
      <path d="M 46 62.703125 
L 46 35.5 
L 73.1875 35.5 
L 73.1875 27.203125 
L 46 27.203125 
L 46 0 
L 37.796875 0 
L 37.796875 27.203125 
L 10.59375 27.203125 
L 10.59375 35.5 
L 37.796875 35.5 
L 37.796875 62.703125 
z
" id="DejaVuSans-43"/>
     </defs>
     <use xlink:href="#DejaVuSans-43"/>
    </g>
   </g>
   <g id="text_4">
    <!-- $K_c$ -->
    <g transform="translate(123.842 74.899375)scale(0.1 -0.1)">
     <defs>
      <path d="M 16.890625 72.90625 
L 26.8125 72.90625 
L 20.796875 42.1875 
L 59.078125 72.90625 
L 72.21875 72.90625 
L 28.90625 38.09375 
L 60.59375 0 
L 48.578125 0 
L 19.484375 35.5 
L 12.59375 0 
L 2.6875 0 
z
" id="DejaVuSans-Oblique-75"/>
      <path d="M 53.609375 52.59375 
L 51.8125 43.703125 
Q 48.578125 46.046875 44.9375 47.21875 
Q 41.3125 48.390625 37.40625 48.390625 
Q 33.109375 48.390625 29.21875 46.875 
Q 25.34375 45.359375 22.703125 42.578125 
Q 18.5 38.328125 16.203125 32.609375 
Q 13.921875 26.90625 13.921875 20.796875 
Q 13.921875 13.421875 17.609375 9.8125 
Q 21.296875 6.203125 28.8125 6.203125 
Q 32.515625 6.203125 36.6875 7.328125 
Q 40.875 8.453125 45.40625 10.6875 
L 43.703125 1.8125 
Q 39.796875 0.203125 35.671875 -0.609375 
Q 31.546875 -1.421875 27.203125 -1.421875 
Q 16.3125 -1.421875 10.453125 4.015625 
Q 4.59375 9.46875 4.59375 19.578125 
Q 4.59375 28.078125 7.640625 35.234375 
Q 10.6875 42.390625 16.703125 48.09375 
Q 20.796875 52 26.3125 54 
Q 31.84375 56 38.375 56 
Q 42.1875 56 45.9375 55.140625 
Q 49.703125 54.296875 53.609375 52.59375 
z
" id="DejaVuSans-Oblique-99"/>
     </defs>
     <use transform="translate(0 0.09375)" xlink:href="#DejaVuSans-Oblique-75"/>
     <use transform="translate(65.576172 -16.3125)scale(0.7)" xlink:href="#DejaVuSans-Oblique-99"/>
    </g>
   </g>
   <g id="text_5">
    <!-- + -->
    <g transform="translate(186.202156 65.260375)scale(0.1 -0.1)">
     <use xlink:href="#DejaVuSans-43"/>
    </g>
   </g>
   <g id="text_6">
    <!-- + -->
    <g transform="translate(177.022156 74.899375)scale(0.1 -0.1)">
     <use xlink:href="#DejaVuSans-43"/>
    </g>
   </g>
   <g id="text_7">
    <!-- $U$ -->
    <g transform="translate(186.692 21.100312)scale(0.1 -0.1)">
     <defs>
      <path d="M 15.484375 72.90625 
L 25.390625 72.90625 
L 16.796875 28.609375 
Q 16.265625 25.640625 16.046875 23.703125 
Q 15.828125 21.78125 15.828125 20.3125 
Q 15.828125 13.578125 19.578125 10.078125 
Q 23.34375 6.59375 30.609375 6.59375 
Q 40.046875 6.59375 45.28125 11.765625 
Q 50.53125 16.9375 52.78125 28.609375 
L 61.375 72.90625 
L 71.296875 72.90625 
L 62.5 27.390625 
Q 59.625 12.640625 51.5625 5.609375 
Q 43.5 -1.421875 29.5 -1.421875 
Q 18.5625 -1.421875 12.1875 4.078125 
Q 5.8125 9.578125 5.8125 19 
Q 5.8125 20.703125 6.046875 22.828125 
Q 6.296875 24.953125 6.78125 27.390625 
z
" id="DejaVuSans-Oblique-85"/>
     </defs>
     <use transform="translate(0 0.09375)" xlink:href="#DejaVuSans-Oblique-85"/>
    </g>
   </g>
   <g id="text_8">
    <!-- $G_p$ -->
    <g transform="translate(245.342 74.34)scale(0.1 -0.1)">
     <defs>
      <path d="M 54.59375 10.890625 
L 58.40625 29.984375 
L 42.1875 29.984375 
L 43.703125 38.09375 
L 69.578125 38.09375 
L 63.28125 6 
Q 56.78125 2.4375 49.109375 0.5 
Q 41.453125 -1.421875 33.6875 -1.421875 
Q 19.96875 -1.421875 12.234375 6.1875 
Q 4.5 13.8125 4.5 27.390625 
Q 4.5 38.671875 9.203125 48.84375 
Q 13.921875 59.03125 22.21875 65.828125 
Q 27.4375 70.0625 33.640625 72.140625 
Q 39.84375 74.21875 47.40625 74.21875 
Q 54.25 74.21875 60.515625 72.484375 
Q 66.796875 70.75 72.515625 67.28125 
L 70.515625 56.78125 
Q 66.109375 61.375 60.203125 63.796875 
Q 54.296875 66.21875 47.609375 66.21875 
Q 39.84375 66.21875 33.9375 63.25 
Q 28.03125 60.296875 23.390625 54.109375 
Q 19.4375 48.828125 17.15625 41.671875 
Q 14.890625 34.515625 14.890625 27.09375 
Q 14.890625 16.890625 20.109375 11.734375 
Q 25.34375 6.59375 35.6875 6.59375 
Q 40.875 6.59375 45.703125 7.6875 
Q 50.53125 8.796875 54.59375 10.890625 
z
" id="DejaVuSans-Oblique-71"/>
      <path d="M 49.609375 33.6875 
Q 49.609375 40.875 46.484375 44.671875 
Q 43.359375 48.484375 37.5 48.484375 
Q 33.5 48.484375 29.859375 46.4375 
Q 26.21875 44.390625 23.390625 40.484375 
Q 20.609375 36.625 18.9375 31.15625 
Q 17.28125 25.6875 17.28125 20.3125 
Q 17.28125 13.484375 20.40625 9.796875 
Q 23.53125 6.109375 29.296875 6.109375 
Q 33.546875 6.109375 37.1875 8.109375 
Q 40.828125 10.109375 43.40625 13.921875 
Q 46.1875 17.921875 47.890625 23.34375 
Q 49.609375 28.765625 49.609375 33.6875 
z
M 21.78125 46.390625 
Q 25.390625 51.125 30.296875 53.5625 
Q 35.203125 56 41.21875 56 
Q 49.609375 56 54.25 50.5 
Q 58.890625 45.015625 58.890625 35.109375 
Q 58.890625 27 56 19.65625 
Q 53.125 12.3125 47.703125 6.5 
Q 44.09375 2.640625 39.546875 0.609375 
Q 35.015625 -1.421875 29.984375 -1.421875 
Q 24.171875 -1.421875 20.21875 1 
Q 16.265625 3.421875 14.3125 8.203125 
L 8.6875 -20.796875 
L -0.296875 -20.796875 
L 14.40625 54.6875 
L 23.390625 54.6875 
z
" id="DejaVuSans-Oblique-112"/>
     </defs>
     <use transform="translate(0 0.78125)" xlink:href="#DejaVuSans-Oblique-71"/>
     <use transform="translate(77.490234 -15.625)scale(0.7)" xlink:href="#DejaVuSans-Oblique-112"/>
    </g>
   </g>
   <g id="text_9">
    <!-- $Y$ -->
    <g transform="translate(331.152 74.899375)scale(0.1 -0.1)">
     <defs>
      <path d="M 6.296875 72.90625 
L 16.890625 72.90625 
L 30.515625 42.921875 
L 56.5 72.90625 
L 67.578125 72.90625 
L 34.515625 34.71875 
L 27.78125 0 
L 17.921875 0 
L 24.609375 34.71875 
z
" id="DejaVuSans-Oblique-89"/>
     </defs>
     <use transform="translate(0 0.09375)" xlink:href="#DejaVuSans-Oblique-89"/>
    </g>
   </g>
   <g id="text_10">
    <!-- $G_m$ -->
    <g transform="translate(182.942 120.799375)scale(0.1 -0.1)">
     <defs>
      <path d="M 89.796875 33.015625 
L 83.40625 0 
L 74.421875 0 
L 80.71875 32.71875 
Q 81.109375 34.8125 81.296875 36.328125 
Q 81.5 37.84375 81.5 38.921875 
Q 81.5 43.3125 79.046875 45.75 
Q 76.609375 48.1875 72.21875 48.1875 
Q 65.671875 48.1875 60.546875 43.28125 
Q 55.421875 38.375 53.90625 30.515625 
L 47.90625 0 
L 38.921875 0 
L 45.3125 32.71875 
Q 45.703125 34.515625 45.890625 36.046875 
Q 46.09375 37.59375 46.09375 38.8125 
Q 46.09375 43.265625 43.65625 45.71875 
Q 41.21875 48.1875 36.921875 48.1875 
Q 30.28125 48.1875 25.140625 43.28125 
Q 20.015625 38.375 18.5 30.515625 
L 12.5 0 
L 3.515625 0 
L 14.203125 54.6875 
L 23.1875 54.6875 
L 21.484375 46.1875 
Q 25.140625 50.984375 30.046875 53.484375 
Q 34.96875 56 40.578125 56 
Q 46.53125 56 50.359375 52.875 
Q 54.203125 49.75 54.984375 44.1875 
Q 59.078125 49.953125 64.46875 52.96875 
Q 69.875 56 75.875 56 
Q 82.90625 56 86.734375 51.953125 
Q 90.578125 47.90625 90.578125 40.484375 
Q 90.578125 38.875 90.375 36.9375 
Q 90.1875 35.015625 89.796875 33.015625 
z
" id="DejaVuSans-Oblique-109"/>
     </defs>
     <use transform="translate(0 0.78125)" xlink:href="#DejaVuSans-Oblique-71"/>
     <use transform="translate(77.490234 -15.625)scale(0.7)" xlink:href="#DejaVuSans-Oblique-109"/>
    </g>
   </g>
   <g id="patch_11">
    <path clip-path="url(#p148d938a40)" d="M 297.492 72.14 
C 297.492 72.14 297.492 72.14 297.492 72.14 
C 297.492 72.14 297.492 72.14 297.492 72.14 
C 297.492 72.14 297.492 72.14 297.492 72.14 
C 297.492 72.14 297.492 72.14 297.492 72.14 
C 297.492 72.14 297.492 72.14 297.492 72.14 
C 297.492 72.14 297.492 72.14 297.492 72.14 
C 297.492 72.14 297.492 72.14 297.492 72.14 
C 297.492 72.14 297.492 72.14 297.492 72.14 
z
" style="stroke:#000000;stroke-linejoin:miter;stroke-width:2;"/>
   </g>
  </g>
 </g>
 <defs>
  <clipPath id="p148d938a40">
   <rect height="129.2" width="338.844" x="7.2" y="7.2"/>
  </clipPath>
 </defs>
</svg>
